<svg xmlns="http://www.w3.org/2000/svg" xmlns:xlink="http://www.w3.org/1999/xlink" width="1262.35" height="2193.94" viewBox="0 0 1262.35 2193.94"><defs><style>.a{fill:none;}.b{fill:#9e6544;}.c{fill:#f7faf4;}.d{clip-path:url(#a);}.e{fill:#1d2070;}.f{fill:#321818;}.g{clip-path:url(#b);}</style><clipPath id="a"><path class="a" d="M459.86,310.91s-2.67,6,3.33,12,72.67,8.66,72.67,8.66S512.53,274.24,459.86,310.91Z"/></clipPath><clipPath id="b"><path class="a" d="M687.27,310.91s2.66,6-3.34,12-72.66,8.66-72.66,8.66S634.6,274.24,687.27,310.91Z"/></clipPath></defs><title>2_eyes_12</title><rect class="a" width="1262.35" height="2193.94"/><path class="b" d="M452.53,316.24s-.24,17.77,12.66,20c34.67,6,70.67-4.67,70.67-4.67S483.86,290.24,452.53,316.24Z"/><path class="c" d="M459.86,310.91s-2.67,6,3.33,12,72.67,8.66,72.67,8.66S512.53,274.24,459.86,310.91Z"/><g class="d"><circle class="e" cx="497.86" cy="313.57" r="26"/></g><path class="f" d="M452.53,316.24c-1-1.71,12.83-28.05,46.66-23.33,28.67,4,38,37.45,36.67,38.66s-14-21.48-37.33-24.66C477.68,304.06,453.4,317.8,452.53,316.24Z"/><path class="b" d="M694.6,316.24s.24,17.77-12.67,20c-34.66,6-70.66-4.67-70.66-4.67S663.27,290.24,694.6,316.24Z"/><path class="c" d="M687.27,310.91s2.66,6-3.34,12-72.66,8.66-72.66,8.66S634.6,274.24,687.27,310.91Z"/><g class="g"><circle class="e" cx="649.27" cy="313.57" r="26"/></g><path class="f" d="M694.6,316.24c1-1.71-12.83-28.05-46.66-23.33-28.67,4-38,37.45-36.67,38.66s14-21.48,37.33-24.66C669.44,304.06,693.73,317.8,694.6,316.24Z"/></svg>