<svg xmlns="http://www.w3.org/2000/svg" xmlns:xlink="http://www.w3.org/1999/xlink" width="1262.35" height="2193.94" viewBox="0 0 1262.35 2193.94"><defs><style>.a{fill:none;}.b{fill:#f7faf4;}.c{clip-path:url(#a);}.d{fill:#1d9100;}.e{fill:#321818;}.f{clip-path:url(#b);}</style><clipPath id="a"><path class="a" d="M481.69,337.42s34,4.58,58.24-7.85c0,0-33.37-41.22-76.56-13.09l-5.89,2.62S469.26,334.8,481.69,337.42Z"/></clipPath><clipPath id="b"><path class="a" d="M664.88,337.42s-34,4.58-58.23-7.85c0,0,33.37-41.22,76.55-13.09l5.89,2.62S677.31,334.8,664.88,337.42Z"/></clipPath></defs><title>2_eyes_9</title><rect class="a" width="1262.35" height="2193.94"/><path class="b" d="M481.69,337.42s34,4.58,58.24-7.85c0,0-33.37-41.22-76.56-13.09l-5.89,2.62S469.26,334.8,481.69,337.42Z"/><g class="c"><circle class="d" cx="501.49" cy="315.66" r="22.08"/></g><path class="e" d="M463.37,308.63S484.86,295,498.05,296.2c20.94,2,41.88,33.37,41.88,33.37s-32.72-19-43.19-18.32-33.37,10.46-33.37,10.46,11.13,11.13,18.32,15.71c0,0-25.52-3.93-36-28.79C445.71,308.63,458.79,311.25,463.37,308.63Z"/><path class="b" d="M664.88,337.42s-34,4.58-58.23-7.85c0,0,33.37-41.22,76.55-13.09l5.89,2.62S677.31,334.8,664.88,337.42Z"/><g class="f"><circle class="d" cx="645.09" cy="315.66" r="22.08"/></g><path class="e" d="M683.2,308.63S661.72,295,648.52,296.2c-20.93,2-41.87,33.37-41.87,33.37s32.71-19,43.18-18.32,33.37,10.46,33.37,10.46-11.12,11.13-18.32,15.71c0,0,25.52-3.93,36-28.79C700.87,308.63,687.78,311.25,683.2,308.63Z"/></svg>