<svg xmlns="http://www.w3.org/2000/svg" xmlns:xlink="http://www.w3.org/1999/xlink" width="1262.35" height="2193.94" viewBox="0 0 1262.35 2193.94"><defs><style>.a{fill:none;}.b{fill:#9e6544;}.c{fill:#f7faf4;}.d{clip-path:url(#a);}.e{fill:#694100;}.f{fill:#321818;}.g{clip-path:url(#b);}</style><clipPath id="a"><path class="a" d="M471.36,331.17a22.51,22.51,0,0,0,11.8,6.95c4.78,1.08,22.66-.56,35.33-1.93,7.38-.8,12.64-6.37,11.86-12.54h0s-22.21-33-63.85-15l-2.08,11Z"/></clipPath><clipPath id="b"><path class="a" d="M677.29,331.17a22.51,22.51,0,0,1-11.8,6.95c-4.78,1.08-22.65-.56-35.33-1.93-7.38-.8-12.64-6.37-11.86-12.54h0s22.21-33,63.85-15l2.08,11Z"/></clipPath></defs><title>2_eyes_10</title><rect class="a" width="1262.35" height="2193.94"/><path class="b" d="M447.76,315.91s9.72-26.37,47.2-25.67c22.47.41,41.64,24.29,41.64,24.29S463,304.81,447.76,315.91Z"/><path class="c" d="M471.36,331.17a22.51,22.51,0,0,0,11.8,6.95c4.78,1.08,22.66-.56,35.33-1.93,7.38-.8,12.64-6.37,11.86-12.54h0s-22.21-33-63.85-15l-2.08,11Z"/><g class="d"><ellipse class="e" cx="499.21" cy="314.45" rx="24.38" ry="24.82"/></g><path class="f" d="M536.6,314.53S495,284,462.34,305.5l-25,16s18.74.69,20.82,2.77c0,0,12,8,18.22,11.45,0,0-9.19-13.53-9.19-19.78s45.11-13.88,63.15,11.8Z"/><path class="b" d="M700.89,315.91s-9.72-26.37-47.19-25.67c-22.48.41-41.65,24.29-41.65,24.29S685.62,304.81,700.89,315.91Z"/><path class="c" d="M677.29,331.17a22.51,22.51,0,0,1-11.8,6.95c-4.78,1.08-22.65-.56-35.33-1.93-7.38-.8-12.64-6.37-11.86-12.54h0s22.21-33,63.85-15l2.08,11Z"/><g class="g"><ellipse class="e" cx="649.45" cy="314.45" rx="24.38" ry="24.82"/></g><path class="f" d="M612.05,314.53s41.65-30.54,74.27-9l25,16s-18.74.69-20.82,2.77c0,0-12,8-18.22,11.45,0,0,9.2-13.53,9.2-19.78S636.35,302,618.3,327.71Z"/></svg>