<svg xmlns="http://www.w3.org/2000/svg" width="1262.35" height="2193.94" viewBox="0 0 1262.35 2193.94"><title>2_eyebrow_3</title><g id="Layer_2" data-name="Layer 2"><g id="Layer_148" data-name="Layer 148"><g id="_2_eyebrow_3" data-name="2_eyebrow_3"><rect width="1262.35" height="2193.94" fill="none"/><path d="M452.35,259.76s16.94-4.23,21.18-3.52l-2.82-9.89,19.05,9.89-2.11-7.77,26.82,14.82-2.12-9.88s26.12,28.24,30.36,39.53c0,0-46.59-31.76-95.3-9.18l12.71-19.05Z" fill="#321818"/><path d="M693.06,259.76s-16.94-4.23-21.18-3.52l2.83-9.89-19.06,9.89,2.11-7.77-26.82,14.82,2.12-9.88s-26.12,28.24-30.35,39.53c0,0,46.58-31.76,95.29-9.18l-12.71-19.05Z" fill="#321818"/></g></g></g></svg>