<svg xmlns="http://www.w3.org/2000/svg" xmlns:xlink="http://www.w3.org/1999/xlink" width="1262.35" height="2193.94" viewBox="0 0 1262.35 2193.94"><defs><style>.a{fill:none;}.b{fill:#f7faf4;}.c{clip-path:url(#a);}.d{fill:#733e00;}.e{fill:#321818;}.f{clip-path:url(#b);}</style><clipPath id="a"><path class="a" d="M542,328.29s-48.71-32.82-91.06-15.88C450.94,312.41,476.35,343.12,542,328.29Z"/></clipPath><clipPath id="b"><path class="a" d="M602.47,328.29s48.71-32.82,91.06-15.88C693.53,312.41,668.12,343.12,602.47,328.29Z"/></clipPath></defs><title>2_eyes_3</title><rect class="a" width="1262.35" height="2193.94"/><path class="b" d="M542,328.29s-48.71-32.82-91.06-15.88C450.94,312.41,476.35,343.12,542,328.29Z"/><g class="c"><circle class="d" cx="495.65" cy="317.29" r="25.41"/></g><path class="e" d="M450.94,312.41s42.35-40.23,91.06,15.88C542,328.29,495.41,303.94,450.94,312.41Z"/><path class="b" d="M602.47,328.29s48.71-32.82,91.06-15.88C693.53,312.41,668.12,343.12,602.47,328.29Z"/><g class="f"><circle class="d" cx="648.82" cy="317.29" r="25.41"/></g><path class="e" d="M693.53,312.41s-42.35-40.23-91.06,15.88C602.47,328.29,649.06,303.94,693.53,312.41Z"/></svg>