<svg xmlns="http://www.w3.org/2000/svg" xmlns:xlink="http://www.w3.org/1999/xlink" width="1262.35" height="2193.94" viewBox="0 0 1262.35 2193.94"><defs><style>.a{fill:none;}.b{fill:#9e6544;}.c{fill:#f7faf4;}.d{clip-path:url(#a);}.e{fill:#420a0a;}.f{fill:#321818;}.g{clip-path:url(#b);}</style><clipPath id="a"><path class="a" d="M454.27,310.41l83.13,4.79c-5.86,29.83-49.15,34.09-65.24,19.07A30.1,30.1,0,0,1,454.27,310.41Z"/></clipPath><clipPath id="b"><path class="a" d="M691.23,310.41,608.1,315.2c5.86,29.83,49.15,34.09,65.24,19.07A30.1,30.1,0,0,0,691.23,310.41Z"/></clipPath></defs><title>2_eyes_7</title><rect class="a" width="1262.35" height="2193.94"/><path class="b" d="M454.27,310.41s15.9-22.86,40.12-19.4c33.5,4.78,43,24.19,43,24.19S461.53,306.09,454.27,310.41Z"/><path class="c" d="M454.27,310.41l83.13,4.79c-5.86,29.83-49.15,34.09-65.24,19.07A30.1,30.1,0,0,1,454.27,310.41Z"/><g class="d"><ellipse class="e" cx="502.18" cy="320.57" rx="22.67" ry="23.66"/></g><path class="f" d="M454.27,310.41s-2.22,14.67,17.89,23.86c0,0-5.9-8.57-3.23-14.53,17.59-6.16,38.76-6.91,68.47-4.54,0,0-11.68-11.76-44.21-12.74C480.65,302.08,457.42,306.35,454.27,310.41Z"/><path class="b" d="M691.23,310.41s-15.91-22.86-40.12-19.4c-33.5,4.78-43,24.19-43,24.19S684,306.09,691.23,310.41Z"/><path class="c" d="M691.23,310.41,608.1,315.2c5.86,29.83,49.15,34.09,65.24,19.07A30.1,30.1,0,0,0,691.23,310.41Z"/><g class="g"><ellipse class="e" cx="643.32" cy="320.57" rx="22.67" ry="23.66"/></g><path class="f" d="M691.23,310.41s2.22,14.67-17.89,23.86c0,0,5.9-8.57,3.23-14.53-17.59-6.16-38.76-6.91-68.47-4.54,0,0,11.68-11.76,44.21-12.74C664.85,302.08,688.08,306.35,691.23,310.41Z"/></svg>