<svg xmlns="http://www.w3.org/2000/svg" xmlns:xlink="http://www.w3.org/1999/xlink" width="1262.35" height="2193.94" viewBox="0 0 1262.35 2193.94"><defs><style>.a{fill:none;}.b{fill:#f7faf4;}.c{fill:#321818;}.d{clip-path:url(#a);}.e{fill:#185fd1;}.f{clip-path:url(#b);}</style><clipPath id="a"><path class="a" d="M680.63,324.35c-13.9-13.17-22.62-16.49-40.6-17.82-16-1.19-29.41,16.52-32.28,20.61,2.61,1.71,27,17.16,48.71,10.91,9.69-2.79,15.75-6.06,19.42-8.68A28.67,28.67,0,0,0,680.63,324.35Z"/></clipPath><clipPath id="b"><path class="a" d="M463.68,324.35c13.91-13.17,22.63-16.49,40.61-17.82,16-1.19,29.41,16.52,32.28,20.61-2.61,1.71-27,17.16-48.71,10.91-9.69-2.79-15.75-6.06-19.42-8.68A29.11,29.11,0,0,1,463.68,324.35Z"/></clipPath></defs><title>2_eyes_5</title><rect class="a" width="1262.35" height="2193.94"/><path class="b" d="M680.63,324.35c-13.9-13.17-22.62-16.49-40.6-17.82-16-1.19-29.41,16.52-32.28,20.61,2.61,1.71,27,17.16,48.71,10.91,9.69-2.79,15.75-6.06,19.42-8.68A28.67,28.67,0,0,0,680.63,324.35Z"/><path class="c" d="M695,307.87H677.59c-15.07-14.58-50.3-14.08-63-4.69,0,0-4.24,13-7.38,24.81,0,0,.2-.31.58-.85,2.87-4.09,16.26-21.8,32.28-20.61,18,1.33,26.7,4.65,40.6,17.82a28.67,28.67,0,0,1-4.75,5,15.92,15.92,0,0,1-3,2L695,328.66,685.73,320A102.71,102.71,0,0,0,695,307.87Z"/><g class="d"><circle class="e" cx="645.06" cy="316.87" r="22.47"/></g><path class="b" d="M463.68,324.35c13.91-13.17,22.63-16.49,40.61-17.82,16-1.19,29.41,16.52,32.28,20.61-2.61,1.71-27,17.16-48.71,10.91-9.69-2.79-15.75-6.06-19.42-8.68A29.11,29.11,0,0,1,463.68,324.35Z"/><path class="c" d="M449.29,307.87h17.44c15.07-14.58,50.3-14.08,63-4.69,0,0,4.24,13,7.38,24.81l-.58-.85c-2.87-4.09-16.26-21.8-32.28-20.61-18,1.33-26.7,4.65-40.61,17.82a29.11,29.11,0,0,0,4.76,5,15.6,15.6,0,0,0,3,2l-22.14-2.68,9.3-8.71A103.68,103.68,0,0,1,449.29,307.87Z"/><g class="f"><circle class="e" cx="499.26" cy="316.87" r="22.47"/></g></svg>