<svg xmlns="http://www.w3.org/2000/svg" xmlns:xlink="http://www.w3.org/1999/xlink" width="1262.35" height="2193.94" viewBox="0 0 1262.35 2193.94"><defs><style>.a{fill:none;}.b{fill:#9e6544;}.c{fill:#f7faf4;}.d{clip-path:url(#a);}.e{fill:#5c3c12;}.f{fill:#321818;}.g{clip-path:url(#b);}</style><clipPath id="a"><path class="a" d="M461.22,305.55s1.68,20.55,8.8,25.12,44.37,5.94,56.51,2.29l5-10S498.06,290.48,461.22,305.55Z"/></clipPath><clipPath id="b"><path class="a" d="M683.71,305.55s-1.67,20.55-8.79,25.12-44.37,5.94-56.52,2.29l-5-10S646.87,290.48,683.71,305.55Z"/></clipPath></defs><title>2_eyes_11</title><rect class="a" width="1262.35" height="2193.94"/><path class="b" d="M451.18,306s2,33.07,20.32,36.31c34.94,6.16,55-9.36,55-9.36s-53-35.17-55-34.49S451.18,306,451.18,306Z"/><path class="c" d="M461.22,305.55s1.68,20.55,8.8,25.12,44.37,5.94,56.51,2.29l5-10S498.06,290.48,461.22,305.55Z"/><g class="d"><circle class="e" cx="495.02" cy="313.77" r="24.66"/></g><path class="f" d="M451.18,306s67,1.48,80.37,16.9c0,0,.46-11.88-7.3-19.18-3.35-3.15-50.7-8.34-58.92-7.31Z"/><path class="b" d="M693.76,306s-2,33.07-20.32,36.31c-34.94,6.16-55-9.36-55-9.36s53-35.17,55-34.49S693.76,306,693.76,306Z"/><path class="c" d="M683.71,305.55s-1.67,20.55-8.79,25.12-44.37,5.94-56.52,2.29l-5-10S646.87,290.48,683.71,305.55Z"/><g class="g"><circle class="e" cx="649.92" cy="313.77" r="24.66"/></g><path class="f" d="M693.76,306s-67,1.48-80.38,16.9c0,0-.46-11.88,7.31-19.18,3.34-3.15,50.69-8.34,58.91-7.31Z"/></svg>