<svg xmlns="http://www.w3.org/2000/svg" width="1262.35" height="2193.94" viewBox="0 0 1262.35 2193.94"><title>2_eyebrow_2</title><g id="Layer_2" data-name="Layer 2"><g id="Layer_148" data-name="Layer 148"><g id="_2_eyebrow_2" data-name="2_eyebrow_2"><rect width="1262.35" height="2193.94" fill="none"/><path d="M451,270.9c23.16,1.35,63.28,1.48,85.86-11.17a4.52,4.52,0,0,1,6.32,5.84c-3.93,8.46-10.7,17.83-21.85,20.52-14.64,3.53-49.73-5.33-71-11.45A1.91,1.91,0,0,1,451,270.9Z" fill="#321818"/><path d="M686.35,270.9c-23.17,1.35-63.28,1.48-85.86-11.17a4.52,4.52,0,0,0-6.33,5.84C598.1,274,604.87,283.4,616,286.09c14.64,3.53,49.73-5.33,71-11.45A1.91,1.91,0,0,0,686.35,270.9Z" fill="#321818"/></g></g></g></svg>