<svg xmlns="http://www.w3.org/2000/svg" width="1262.35" height="2193.94" viewBox="0 0 1262.35 2193.94"><title>2_eyebrow_6</title><g id="Layer_2" data-name="Layer 2"><g id="Layer_148" data-name="Layer 148"><g id="_2_eyebrow_6" data-name="2_eyebrow_6"><rect width="1262.35" height="2193.94" fill="none"/><path d="M448.18,267s61.49-14.67,90,3.79c0,0,4.73,16.77.55,23.65s-28.08-30.09-96.55-16.69C442.16,277.74,442,268.14,448.18,267Z" fill="#321818"/><path d="M543.74,274.82s2.14,18.36-.53,24c0,0,3.74,3.53,4.81.71s1.07-21.88,0-24S543.74,274.82,543.74,274.82Z" fill="#321818"/><path d="M692.33,267s-61.49-14.67-90,3.79c0,0-4.73,16.77-.55,23.65s28.08-30.09,96.55-16.69C698.35,277.74,698.54,268.14,692.33,267Z" fill="#321818"/><path d="M596.77,274.82s-2.14,18.36.53,24c0,0-3.74,3.53-4.81.71s-1.07-21.88,0-24S596.77,274.82,596.77,274.82Z" fill="#321818"/></g></g></g></svg>