<svg xmlns="http://www.w3.org/2000/svg" xmlns:xlink="http://www.w3.org/1999/xlink" width="1262.35" height="2193.94" viewBox="0 0 1262.35 2193.94"><defs><style>.a{fill:none;}.b{fill:#f7faf4;}.c{clip-path:url(#a);}.d{fill:#20697a;}.e{fill:#9e6544;}.f{fill:#321818;}.g{clip-path:url(#b);}</style><clipPath id="a"><path class="a" d="M464.84,332.62s16,9.76,27.88,11.16c3.56.41,8.75,0,14.28-.75,16.3-2.25,24.41-21.38,14.31-34.37-1.46-1.88-2.89-3.09-4.2-3.22-7-.7-64.12,13.94-64.12,13.94Z"/></clipPath><clipPath id="b"><path class="a" d="M685,332.62s-16,9.76-27.88,11.16c-3.56.41-8.76,0-14.28-.75-16.31-2.25-24.42-21.38-14.31-34.37,1.46-1.88,2.89-3.09,4.19-3.22,7-.7,64.13,13.94,64.13,13.94Z"/></clipPath></defs><title>2_eyes_13</title><rect class="a" width="1262.35" height="2193.94"/><path class="b" d="M464.84,332.62s16,9.76,27.88,11.16c4.79.56,12.56-.36,20.11-1.66a18,18,0,0,0,13-26c-2.89-5.74-6.05-10.45-8.71-10.72-7-.7-64.12,13.94-64.12,13.94Z"/><g class="c"><circle class="d" cx="499.34" cy="319.73" r="24.05"/></g><path class="e" d="M447.41,317.29l10.69-8.49a96.63,96.63,0,0,1,33.54-17.44c6.79-1.93,13.13-2.88,17.79-1.2,11.21,4,19.77,14.18,25.68,31.43a1.37,1.37,0,0,1-2.14,1.52C523.06,315.22,493.34,297.13,447.41,317.29Z"/><path class="f" d="M521.24,306.26l12,15.6a1.28,1.28,0,0,1-1.6,1.92l-10.37-5.29c-6.83-4.8-15.16-4.7-23.49-4.25a157.24,157.24,0,0,0-39.86,7.93l7,10.45-17.43-15.33c20.91-9.06,28.17-13.7,49.15-18.16A21.64,21.64,0,0,1,521.24,306.26Z"/><path class="b" d="M685,332.62s-16,9.76-27.88,11.16c-4.8.56-12.57-.36-20.11-1.66a18,18,0,0,1-13-26c2.9-5.74,6.06-10.45,8.71-10.72,7-.7,64.13,13.94,64.13,13.94Z"/><g class="g"><circle class="d" cx="650.49" cy="319.73" r="24.05"/></g><path class="e" d="M702.41,317.29l-10.68-8.49a96.59,96.59,0,0,0-33.55-17.44c-6.79-1.93-13.12-2.88-17.78-1.2-11.21,4-19.78,14.18-25.69,31.43a1.37,1.37,0,0,0,2.15,1.52C626.76,315.22,656.48,297.13,702.41,317.29Z"/><path class="f" d="M628.58,306.26l-11.94,15.6a1.28,1.28,0,0,0,1.59,1.92l10.37-5.29c6.83-4.8,15.16-4.7,23.5-4.25A157.24,157.24,0,0,1,692,322.17l-7,10.45,17.42-15.33c-20.91-9.06-28.17-13.7-49.15-18.16A21.64,21.64,0,0,0,628.58,306.26Z"/></svg>