<svg xmlns="http://www.w3.org/2000/svg" xmlns:xlink="http://www.w3.org/1999/xlink" width="1262.35" height="2193.94" viewBox="0 0 1262.35 2193.94"><defs><style>.a{fill:none;}.b{fill:#f7faf4;}.c{clip-path:url(#a);}.d{fill:#703129;}.e{fill:#321818;}.f{clip-path:url(#b);}</style><clipPath id="a"><path class="a" d="M459.29,312.71s-2.11,11.29,6.36,14.82,40.94,7.76,70.59,3.53c0,0,1.41-10.59-9.89-23.3S479.06,300,459.29,312.71Z"/></clipPath><clipPath id="b"><path class="a" d="M684.12,312.71s2.12,11.29-6.36,14.82-40.94,7.76-70.58,3.53c0,0-1.42-10.59,9.88-23.3S664.35,300,684.12,312.71Z"/></clipPath></defs><title>2_eyes_1</title><rect class="a" width="1262.35" height="2193.94"/><path class="b" d="M459.29,312.71s-2.11,11.29,6.36,14.82,40.94,7.76,70.59,3.53c0,0,1.41-10.59-9.89-23.3S479.06,300,459.29,312.71Z"/><g class="c"><circle class="d" cx="497.59" cy="316.41" r="22.41"/></g><path class="e" d="M452.24,316.24s62.82-21.18,85.41,2.82c0,0-12-22.59-22.59-24S462.82,300,452.24,316.24Z"/><path class="b" d="M684.12,312.71s2.12,11.29-6.36,14.82-40.94,7.76-70.58,3.53c0,0-1.42-10.59,9.88-23.3S664.35,300,684.12,312.71Z"/><g class="f"><circle class="d" cx="645.82" cy="316.41" r="22.41"/></g><path class="e" d="M691.18,316.24s-62.83-21.18-85.42,2.82c0,0,12-22.59,22.59-24S680.59,300,691.18,316.24Z"/></svg>