<svg xmlns="http://www.w3.org/2000/svg" width="1262.35" height="2193.94" viewBox="0 0 1262.35 2193.94"><title>2_eyebrow_4</title><g id="Layer_2" data-name="Layer 2"><g id="Layer_148" data-name="Layer 148"><g id="_2_eyebrow_4" data-name="2_eyebrow_4"><rect width="1262.35" height="2193.94" fill="none"/><path d="M474.94,249.18c-17-1.33-29.65,34.38-29.65,34.38s23-14.26,32.12-13.76c8,.43,41.05,13.37,57.35,22.76,2.84,1.64,6.8-2,4.56-4.36C528.59,276.71,520.12,252.71,474.94,249.18Z" fill="#321818"/><path d="M664.22,249.18c17-1.33,29.64,34.38,29.64,34.38s-23-14.26-32.11-13.76c-8,.43-41,13.37-57.35,22.76-2.84,1.64-6.8-2-4.57-4.36C610.57,276.71,619,252.71,664.22,249.18Z" fill="#321818"/></g></g></g></svg>