<svg xmlns="http://www.w3.org/2000/svg" xmlns:xlink="http://www.w3.org/1999/xlink" width="1262.35" height="2193.94" viewBox="0 0 1262.35 2193.94"><defs><style>.a{fill:none;}.b{fill:#321818;}.c{fill:#fff;}.d{fill:#9e6544;}.e{clip-path:url(#a);}.f{fill:#2f739e;}.g{clip-path:url(#b);}</style><clipPath id="a"><path class="a" d="M458.57,307.76s0,16.68,10.67,27.35,61.36-1.33,61.36-1.33l-6-18.68S473.91,313.77,458.57,307.76Z"/></clipPath><clipPath id="b"><path class="a" d="M687,307.76s0,16.68-10.67,27.35S615,333.78,615,333.78l6-18.68S671.66,313.77,687,307.76Z"/></clipPath></defs><title>2_eyes_8</title><rect class="a" width="1262.35" height="2193.94"/><path class="b" d="M470.71,310.59s-4.95,16.94,3.53,28.23c0,0-13.42-7.06-16.95-33.88Z"/><path class="c" d="M455.9,305.1s2.67,19.34,13.34,30,61.36-1.33,61.36-1.33l-6-18.68S473.25,317.1,455.9,305.1Z"/><path class="d" d="M455.9,305.1s37.35-32,72,2.66C527.94,307.76,483.25,324.44,455.9,305.1Z"/><g class="e"><circle class="f" cx="497.59" cy="319.1" r="23.01"/></g><path class="b" d="M449.24,299.76s45.35,6.67,78.7,8l12,14.68L524.6,315.1s-46.74,1.33-65.42.67C452.07,315.51,455,305.25,449.24,299.76Z"/><path class="c" d="M689.67,305.1s-2.67,19.34-13.34,30S615,333.78,615,333.78l6-18.68S672.33,317.1,689.67,305.1Z"/><path class="d" d="M689.67,305.1s-37.35-32-72,2.66C617.64,307.76,662.32,324.44,689.67,305.1Z"/><g class="g"><circle class="f" cx="647.98" cy="319.1" r="23.01"/></g><path class="b" d="M696.34,299.76s-45.35,6.67-78.7,8l-12,14.68L621,315.1s46.74,1.33,65.42.67C693.5,315.51,690.59,305.25,696.34,299.76Z"/></svg>