<svg xmlns="http://www.w3.org/2000/svg" xmlns:xlink="http://www.w3.org/1999/xlink" width="1262.35" height="2193.94" viewBox="0 0 1262.35 2193.94"><defs><style>.a{fill:none;}.b{fill:#9e6544;}.c{fill:#f7faf4;}.d{clip-path:url(#a);}.e{fill:#73195b;}.f{fill:#321818;}.g{clip-path:url(#b);}</style><clipPath id="a"><path class="a" d="M464.11,323.07s32.15,34.28,74.5,2.69c0,0-10.76-39-45.71-34.27S464.11,323.07,464.11,323.07Z"/></clipPath><clipPath id="b"><path class="a" d="M682.31,323.07s-32.16,34.28-74.5,2.69c0,0,10.75-39,45.7-34.27S682.31,323.07,682.31,323.07Z"/></clipPath></defs><title>2_eyes_14</title><rect class="a" width="1262.35" height="2193.94"/><path class="b" d="M453.25,317s2.69,25.53,35.62,28.22,49.74-19.49,49.74-19.49Z"/><path class="c" d="M464.11,323.07s32.15,34.28,74.5,2.69c0,0-10.76-39-45.71-34.27S464.11,323.07,464.11,323.07Z"/><g class="d"><circle class="e" cx="499.29" cy="313.33" r="25.2"/></g><path class="f" d="M538.61,325.76c-.68-18.14-16.14-34.95-39.56-37.63s-47.58,16.54-45.7,26.88c.75,4.12,11.72,12.88,10.76,8.06-.68-3.36,18.16-28.24,32.93-26.21S521.63,303.41,538.61,325.76Z"/><path class="f" d="M464.11,323.07s-13.55,3.36-22.29-22.85c0,0,12.77,8.07,20.17,5.38,0,0-6.72-10.08-6.72-20.84,0,0,8.73,10.09,18.81,10.76C474.08,295.52,462.86,313.66,464.11,323.07Z"/><path class="b" d="M693.16,317s-2.69,25.53-35.62,28.22-49.73-19.49-49.73-19.49Z"/><path class="c" d="M682.31,323.07s-32.16,34.28-74.5,2.69c0,0,10.75-39,45.7-34.27S682.31,323.07,682.31,323.07Z"/><g class="g"><circle class="e" cx="647.12" cy="313.33" r="25.2"/></g><path class="f" d="M607.81,325.76c.67-18.14,16.13-34.95,39.55-37.63s47.58,16.54,45.7,26.88c-.75,4.12-11.72,12.88-10.75,8.06.67-3.36-18.17-28.24-32.94-26.21S624.78,303.41,607.81,325.76Z"/><path class="f" d="M682.31,323.07s13.54,3.36,22.28-22.85c0,0-12.77,8.07-20.16,5.38,0,0,6.72-10.08,6.72-20.84,0,0-8.74,10.09-18.82,10.76C672.33,295.52,683.55,313.66,682.31,323.07Z"/></svg>