<svg xmlns="http://www.w3.org/2000/svg" xmlns:xlink="http://www.w3.org/1999/xlink" width="1262.35" height="2193.94" viewBox="0 0 1262.35 2193.94"><defs><style>.a{fill:none;}.b{fill:#9e6544;}.c{fill:#f7faf4;}.d{fill:#321818;}.e{clip-path:url(#a);}.f{clip-path:url(#b);}</style><clipPath id="a"><path class="a" d="M454.84,314.28s14.67,18.08,29.53,18.49,61.15-11,61.15-11S512,298.14,454.84,314.28Z"/></clipPath><clipPath id="b"><path class="a" d="M695.64,314.28S681,332.36,666.1,332.77s-61.15-11-61.15-11S638.45,298.14,695.64,314.28Z"/></clipPath></defs><title>2_eyes_4</title><rect class="a" width="1262.35" height="2193.94"/><path class="b" d="M454.84,314.28s8.54,25.88,26.92,28c32.48,3.77,63.76-20.48,63.76-20.48S459.44,321.56,454.84,314.28Z"/><path class="c" d="M454.84,314.28s14.67,18.08,29.53,18.49,61.15-11,61.15-11S512,298.14,454.84,314.28Z"/><path class="d" d="M454.84,314.28,487.35,296s22.66-1.09,36.82,6.31c0,0,16.41,14.92,21.35,19.48,0,0-43.77-12.26-50.06-12.82C488,308.32,454.84,314.28,454.84,314.28Z"/><g class="e"><circle class="d" cx="498.86" cy="313.67" r="23.06"/></g><path class="b" d="M695.64,314.28s-8.55,25.88-26.93,28C636.24,346.06,605,321.81,605,321.81S691,321.56,695.64,314.28Z"/><path class="c" d="M695.64,314.28S681,332.36,666.1,332.77s-61.15-11-61.15-11S638.45,298.14,695.64,314.28Z"/><path class="d" d="M695.64,314.28,663.12,296s-22.66-1.09-36.82,6.31c0,0-16.41,14.92-21.35,19.48,0,0,43.77-12.26,50.06-12.82C662.52,308.32,695.64,314.28,695.64,314.28Z"/><g class="f"><circle class="d" cx="651.61" cy="313.67" r="23.06"/></g></svg>