<svg xmlns="http://www.w3.org/2000/svg" xmlns:xlink="http://www.w3.org/1999/xlink" width="1262.35" height="2193.94" viewBox="0 0 1262.35 2193.94"><defs><style>.a{fill:none;}.b{fill:#945c3b;}.c{fill:#f7faf4;}.d{clip-path:url(#a);}.e{fill:#07801d;}.f{fill:#321818;}.g{clip-path:url(#b);}</style><clipPath id="a"><path class="a" d="M459.12,328.12c6.83,9.93,22.4,15.42,39.32,12.79,21.27-3.31,37-3.52,45.74-20.71.31-.6-.26-1.29-.46-1.9l-.25,0C515.31,314.12,482.67,309.76,459.12,328.12Z"/></clipPath><clipPath id="b"><path class="a" d="M690.62,328.12c-6.83,9.93-22.39,15.42-39.32,12.79-21.27-3.31-37-3.52-45.74-20.71-.31-.6.27-1.29.46-1.9l.25,0C634.44,314.12,667.08,309.76,690.62,328.12Z"/></clipPath></defs><title>2_eyes_2</title><rect class="a" width="1262.35" height="2193.94"/><path class="b" d="M454,322.42s1.92-28.05,36.56-29.86c41.45-2.15,53.12,25.74,53.12,25.74S502.81,299.12,454,322.42Z"/><path class="c" d="M459.12,328.12c6.83,9.93,22.4,15.42,39.32,12.79,21.27-3.31,37.41-6.92,45.74-20.71.35-.58-.26-1.29-.46-1.9l-.25,0C515.31,314.12,482.67,309.76,459.12,328.12Z"/><g class="d"><circle class="e" cx="501.19" cy="322.77" r="23.82"/></g><path class="f" d="M455.7,319.67c-2.58,1.73,1.66,5.91,3.42,8.45,42.07-5.35,57.12-8.47,84.35-9.84l.25,0C539.56,305.15,483.37,301.19,455.7,319.67Z"/><path class="b" d="M695.7,322.42s-1.92-28.05-36.55-29.86C617.69,290.41,606,318.3,606,318.3S646.93,299.12,695.7,322.42Z"/><path class="c" d="M690.62,328.12c-6.83,9.93-22.39,15.42-39.32,12.79C630,337.6,613.89,334,605.56,320.2c-.35-.58.27-1.29.46-1.9l.25,0C634.44,314.12,667.08,309.76,690.62,328.12Z"/><g class="g"><circle class="e" cx="648.56" cy="322.77" r="23.82"/></g><path class="f" d="M694,319.67c2.59,1.73-1.66,5.91-3.42,8.45-42.06-5.35-57.12-8.47-84.35-9.84l-.25,0C610.18,305.15,666.38,301.19,694,319.67Z"/></svg>