<svg xmlns="http://www.w3.org/2000/svg" width="1262.35" height="2193.94" viewBox="0 0 1262.35 2193.94"><title>2_girl_shirt_8</title><g id="Layer_2" data-name="Layer 2"><g id="Layer_148" data-name="Layer 148"><g id="_2_girl_shirt_8" data-name="2_girl_shirt_8"><rect width="1262.35" height="2193.94" fill="none"/><path d="M434.59,642.18c1-2,4-3,6-5,1-2,1-5,0-6-18-18-29-40-39-63a151.33,151.33,0,0,0-7.08-14.54c-23.12,20.73-37.35,49.05-43.95,64.61-2.27,5.35-12.53,15-19.17,21.23a5,5,0,0,0,1,8c16.44,9.24,53,39.62,62.29,72.84a5,5,0,0,0,8.51,2c1.33-1.46,2.62-2.85,3.87-4.06h0A111.51,111.51,0,0,0,418.39,705C418.14,683.92,426.67,661.17,434.59,642.18Z" fill="#3d332b"/><path d="M517.4,532.82A114.73,114.73,0,0,1,505,520.24c-.78-.92-39,8.44-39.44,8.41-29.51-2.76-53,8.8-71.05,25a151.33,151.33,0,0,1,7.08,14.54c.56,1.3,1.14,2.6,1.71,3.89,10.94-10.75,24-18.2,39.29-19.89C467.23,549.19,496.88,547.31,517.4,532.82Z" fill="#fff"/><path d="M734.61,591.59c-18.6-31.63-54.87-45.77-92-50.41-6.92-.7-15.27-1.87-22.42-5.51C601.46,552,557.1,567.08,517.4,532.82c-20.52,14.49-50.17,16.37-74.81,19.36-15.26,1.69-28.35,9.14-39.29,19.89,9.56,21.59,20.31,42.13,37.29,59.11,1,1,1,4,0,6-2,2-5,3-6,5-7.92,19-16.45,41.74-16.2,62.8a118,118,0,0,1,8.13-10.19h0l1.54-1.61c-2.63,52.66,24.21,88.14,27.83,92.68a4.65,4.65,0,0,1,.68,1.13c6.13,15.08,11.15,80.44,12.22,95.21a5,5,0,0,0,3,4.23c15.94,6.84,97.44,37.78,176.44-7.33a5,5,0,0,0,2.53-4.83c-5.71-58.85,41.3-133.8,41.3-133.8l1,5.69C706,718.24,703.36,686,689.34,659,710,641,724.67,617.26,734.61,591.59Z" fill="#87467a"/><path d="M734.61,591.59a236.51,236.51,0,0,0,7.49-22.76c-4.9-6.28-10.08-12.12-15.45-18.24-22.83-26-62.73-23-70.63-22.06-.86.1-26.89-8.45-26.78-7.59.48,3.89-2.91,9.37-9.07,14.73,7.15,3.64,15.5,4.81,22.42,5.51C679.74,545.82,716,560,734.61,591.59Z" fill="#fff"/><path d="M789.68,741.18l-10-45.53a4.48,4.48,0,0,1-.11-.72c-5-73.21-19.24-102.73-37.46-126.1C732.72,603,716,635.79,689.34,659c14,27,16.7,59.23,3.75,87.15L695.76,761l1.76,7.6a5,5,0,0,0,5,3.87c19.71-.71,63.73-12.73,84.9-26A5,5,0,0,0,789.68,741.18Z" fill="#3d332b"/><path d="M679,718.91c-72.57,45.78-161.23,52.43-233.14,2.58a4.11,4.11,0,0,0-6.4,4.13c4.7,24.29,15.81,49.78,35.22,65,32.47,25.41,50.82-9.88,86.11-9.88,51.15,0,74.32,38.31,98.4,1.52C672.11,762.44,699,706.2,679,718.91Z" fill="#703564"/><path d="M443.59,628.24S414.06,665.56,407,718.31c10.79-10.48,16.4-20.3,19.49-23.52C426.38,687.27,427.52,663.82,443.59,628.24Z" fill="#211c17"/><path d="M693.47,666.35c14.12,40.94-1.41,74.12-1.41,74.12l3.7,20.51C719.74,703.52,693.47,666.35,693.47,666.35Z" fill="#211c17"/><path d="M434,629.79a2.13,2.13,0,0,0,2.08-3.28c-16.3-16.22-22.43-28.3-30.73-46.42a3.62,3.62,0,0,0-6-.08C388.16,595.64,388,623.35,434,629.79Z" fill="#211c17"/><path d="M434.69,633.77s-29.92-3.09-41.32-10.95c-10.17-7-14.73,13.32-2.32,14.43S415.4,639.51,434.69,633.77Z" fill="#211c17"/><path d="M700.11,660.5a1.82,1.82,0,0,1-1.78-2.81c13.94-13.88,19.2-24.21,26.3-39.73a3.11,3.11,0,0,1,5.11-.07C739.36,631.27,739.48,655,700.11,660.5Z" fill="#211c17"/><path d="M555.76,624.35c4.24,8.47,21.3,4.3,21.3,1.12,0-2.66-1.57-55.24-2.08-72.15a76.26,76.26,0,0,1-17.64-1C555.89,569.79,552.31,617.45,555.76,624.35Z" fill="#fff"/><circle cx="565.82" cy="610.59" r="7.41" fill="#703564"/><circle cx="565.82" cy="577.76" r="7.41" fill="#703564"/><path d="M546,591.9l.48-.31Z" fill="#fff"/><path d="M537.66,513.17c0-.72.1-1.11.1-1.11s-.06.39-.1,1.11Z" fill="#dbdbdb"/><path d="M546,591.9c-.38.24-.76.48-1.15.69C545.27,592.38,545.65,592.15,546,591.9Z" fill="#dbdbdb"/><path d="M547.05,591.2l-.54.39Z" fill="#dbdbdb"/><path d="M537.76,506.62v-8.68c-2.27.57-11.58-5.94-20-1.7-12.54,16-22.92,22.26-34.59,28.94.27,5.5,8.21,17.75,18.38,30.34C502.22,534.13,517.33,513.61,537.76,506.62Z" fill="#211c17"/><path d="M566.76,553.41c-28.36-14.18-29.38-35.31-29.1-40.24,0-.72.1-1.11.1-1.11v-5.44c-20.43,7-35.54,27.51-36.26,48.9,40.21,49.79,47,34.61,46.33,34.27C559,569.56,566.76,553.41,566.76,553.41Z" fill="#3d332b"/><path d="M585.84,593a5.6,5.6,0,0,1-.55-.27A4,4,0,0,0,585.84,593Z" fill="#fff"/><path d="M586.43,593.21a5,5,0,0,1-.58-.2A5,5,0,0,0,586.43,593.21Z" fill="#fff"/><path d="M585.16,592.66c-.16-.09-.31-.19-.46-.29C584.85,592.47,585,592.57,585.16,592.66Z" fill="#fff"/><path d="M587,593.33a3.29,3.29,0,0,1-.43-.09A3.29,3.29,0,0,0,587,593.33Z" fill="#fff"/><path d="M588.29,593.29a3.45,3.45,0,0,1-.55.07A3.45,3.45,0,0,0,588.29,593.29Z" fill="#fff"/><path d="M587.57,593.36h0Z" fill="#fff"/><path d="M584.57,592.29l-.54-.41Z" fill="#fff"/><path d="M586.56,593.24l-.13,0Z" fill="#dbdbdb"/><path d="M587.17,593.35l-.18,0Z" fill="#dbdbdb"/><path d="M587.74,593.36h0Z" fill="#dbdbdb"/><path d="M584,591.88l0,0Z" fill="#dbdbdb"/><path d="M584.7,592.37l-.13-.08Z" fill="#dbdbdb"/><path d="M585.85,593h0Z" fill="#dbdbdb"/><path d="M585.29,592.73l-.13-.07Z" fill="#dbdbdb"/><path d="M600.82,512.71c-3.06,11-6.92,27.13-34.06,40.7,0,0,9.94,21.92,16.93,37.73l-.28.18q.3.28.6.54l0,0,.54.41.13.08c.15.1.3.2.46.29l.13.07a5.6,5.6,0,0,0,.55.27h0a5,5,0,0,0,.58.2l.13,0a3.29,3.29,0,0,0,.43.09l.18,0h.57a3.45,3.45,0,0,0,.55-.07c9.78-2,23.79-13.74,36.11-27.21C628.65,545,619.92,522.86,600.82,512.71Z" fill="#3d332b"/><path d="M650.76,522c-11.67-6.68-20.64-8-33.17-24a16.6,16.6,0,0,0-15.83.65c-.25,1.37-.23,7.94-.94,14.06,19.1,10.15,27.83,32.25,23.58,53.37C640.53,548.44,653.77,527.8,650.76,522Z" fill="#211c17"/><path d="M481.17,678.84c-1.07-13.58-13.95-8.37-21.42-4.48l-.25.16c-29.94,23.08,39.11,27.14-1.16,28.83a1.56,1.56,0,0,0-1.49,1.81c3.68,20.85,37,.38,31.37-11.22a1.68,1.68,0,0,0-.49-.57c-20-14.52-24.93-10-7.87-12.86A1.57,1.57,0,0,0,481.17,678.84Z" fill="#fff"/><path d="M512.41,662.37v0a1.55,1.55,0,0,0-1.71-1.4l-13.54,1.39a1.55,1.55,0,0,0-1.39,1.71l5.52,54A1.55,1.55,0,0,0,503,719.4L516.53,718a1.56,1.56,0,0,0,1.39-1.71l-1.81-17.69a1.56,1.56,0,0,1,2.18-1.59c24.23,10.84,25.05-18.71,24.32-20.8-6.7-25.71-21.83-17.83-27.61-12.85A1.57,1.57,0,0,1,512.41,662.37Zm13.37,16.09c-26,14.91-2.51-22.34,0,0Z" fill="#fff"/><path d="M548.94,673.6c-7.66,36.29,48.59,32.1,45.79,5.47a.88.88,0,0,0,0-.16C588.91,644.5,547.59,662,548.94,673.6Zm28.82,5.47c-.7,6.91-3.21,8.78-5.54,9.17a1.53,1.53,0,0,1-1.17-.28C553.94,675.61,578.42,663.72,577.76,679.07Z" fill="#fff"/><path d="M622.91,662.23l0-.35a1.57,1.57,0,0,0-1.35-1.75l-13.5-1.7a1.57,1.57,0,0,0-1.75,1.36l-4.52,35.89a1.57,1.57,0,0,0,1.36,1.75l13.36,1.68a1.56,1.56,0,0,0,1.75-1.47c.55-11.17,4.07-28.49,15-22.66a1.55,1.55,0,0,0,2.2-.86c4.17-12.18-4.46-14.54-10.14-10.4A1.56,1.56,0,0,1,622.91,662.23Z" fill="#fff"/><path d="M674,673.18,669,671.81a1.57,1.57,0,0,1-1.1-1.92l2.2-8.13a1.57,1.57,0,0,0-1.53-2c-6.47,0-16.33-2.54-17,5.37a1.56,1.56,0,0,1-1.95,1.42l-2.64-.71A1.55,1.55,0,0,0,645,667l-2.14,7.91a1.58,1.58,0,0,0,1.1,1.92l2.74.74a1.55,1.55,0,0,1,1,2.16c-8.41,17.53,1.44,33.49,16.7,31.46A1.54,1.54,0,0,0,665.7,710l2.19-8.14a1.55,1.55,0,0,0-1.3-1.95c-10.4-1.27-3.44-9.77-2.25-15.9a1.57,1.57,0,0,1,1.94-1.23l4.79,1.3A1.57,1.57,0,0,0,673,683l2.13-7.91A1.55,1.55,0,0,0,674,673.18Z" fill="#fff"/><path d="M728.35,735.53c11.8,2,40-10.45,56.09-18.17l-4-18.29c-21.19,10.27-59.13,19.52-59.13,19.52Z" fill="#87467a"/></g></g></g></svg>