<svg xmlns="http://www.w3.org/2000/svg" width="1262.35" height="2193.94" viewBox="0 0 1262.35 2193.94"><title>2_girl_shoes_5</title><g id="Layer_2" data-name="Layer 2"><g id="Layer_148" data-name="Layer 148"><g id="_2_girl_shoes_5" data-name="2_girl_shoes_5"><rect width="1262.35" height="2193.94" fill="none"/><polygon points="261.47 2158.59 267.82 2175.53 276.29 2162.82 261.47 2158.59" fill="#c43d39"/><polygon points="292.75 2163.23 302.63 2178.38 308.14 2164.14 292.75 2163.23" fill="#c43d39"/><polygon points="328.98 2159.93 338.87 2175.09 344.37 2160.84 328.98 2159.93" fill="#c43d39"/><polygon points="368.98 2150.05 378.87 2165.2 384.37 2150.96 368.98 2150.05" fill="#c43d39"/><polygon points="390.63 2116.64 406.88 2134.12 406.02 2117.55 390.63 2116.64" fill="#c43d39"/><polygon points="441.92 2065.35 458.18 2082.82 457.31 2066.25 441.92 2065.35" fill="#c43d39"/><polygon points="829 2168.47 822.65 2185.41 814.18 2172.71 829 2168.47" fill="#c43d39"/><polygon points="797.73 2173.11 787.84 2188.26 782.34 2174.02 797.73 2173.11" fill="#c43d39"/><polygon points="761.49 2169.82 751.6 2184.97 746.1 2170.72 761.49 2169.82" fill="#c43d39"/><polygon points="721.49 2159.93 711.6 2175.09 705.12 2149.06 721.49 2159.93" fill="#c43d39"/><polygon points="699.84 2126.52 683.59 2149.18 683.94 2116.12 699.84 2126.52" fill="#c43d39"/><polygon points="663.37 2079.46 647.12 2096.94 645.82 2073.88 663.37 2079.46" fill="#c43d39"/><path d="M324.53,2091.76s6.59-49.41,20.71-76.7c0,0,21.17-24.47,67.76,7.06,0,0-4.24,11.29-2.35,41.41l-33.41,35.29S333.47,2090.35,324.53,2091.76Z" fill="#3d3d3d"/><path d="M461,2045.18c-1.41-33.42-28.71-64.47-28.71-64.47-6.26,7.74-10.58,16.71-14.58,25.41-13.13,28.56-44.71,91.76-44.71,91.76-23.53-8-49.88-5.64-49.88-5.64-33.41,13.64-63.53,43.76-66.36,48.94s-2.35,14.58-2.35,14.58c36.71,30.12,120.94,5.18,129.41,0S413.94,2104,413.94,2104l13.65-20.71,3.76,21.18c10.36-8.47,29.65-37.18,30.12-40.47S461,2045.18,461,2045.18Z" fill="#fff"/><polygon points="413.94 2104 431.35 2104.47 427.59 2083.29 413.94 2104" fill="#231f20"/><path d="M460.84,2042.76c-31.35,18.52-57.26,62.66-70.29,88.18a43.54,43.54,0,0,1-32.05,23.21c-95.83,14.94-101.74-13-101.74-13-2.82,5.17-2.35,14.58-2.35,14.58,36.71,30.12,120.94,5.18,129.41,0S413.94,2104,413.94,2104l13.65-20.71,3.76,21.18c10.36-8.47,29.65-37.18,30.12-40.47s-.47-18.82-.47-18.82C461,2044.37,460.9,2043.57,460.84,2042.76Z" fill="#3d3d3d"/><path d="M266.76,2138.47c-1.33,4.41,8.49,14.79,41.3,15.41,12.45.24,35.76-.94,47.53-5.64,0,0-65.95-1.46-63.53-18.36,1.41-9.88,26.35-31.53,26.35-31.53S271.35,2123.29,266.76,2138.47Z" fill="#dde1e6"/><path d="M782.41,2090.82s-16.36-49.06-29.72-78.92c0,0-20.63-27.09-67.78,8.18,0,0,4.15,12.48,2,45.63l32.74,37.85S773.73,2089.44,782.41,2090.82Z" fill="#3d3d3d"/><path d="M641.07,2044.08c1.44-37.25,24.57-70.32,24.57-70.32,6.34,8.73,10.66,18.79,14.65,28.52,13,31.65,15.6,63.33,15.6,63.33,11.43,19.58,27.94,36.87,27.94,36.87,23.24-9,58.58-11.66,58.58-11.66,22.59,14.83,50.2,50.06,52.71,55.42s1.75,15.17,1.75,15.17c-35.72,32.19-116.26,8.3-124.45,3s-29.13-54.69-29.13-54.69l-13.46-22.24L667,2106.57c-10.31-9-25.89-38.07-26.36-41.69S641.07,2044.08,641.07,2044.08Z" fill="#fff"/><polygon points="683.29 2109.76 666.95 2106.57 669.83 2087.52 683.29 2109.76" fill="#231f20"/><path d="M641.23,2041.4c31.61,20.12,52.33,69.71,64.9,96.83,6.07,13.09,17.6,22,31,23.91,91.51,13.32,98-15.9,98-15.9,2.51,5.35,1.75,15.17,1.75,15.17-35.72,32.19-118,10.32-124.45,3-25.3-28.45-29.13-54.69-29.13-54.69l-13.46-22.24L667,2106.57c-10.31-9-25.89-38.07-26.36-41.69s.48-20.8.48-20.8C641.1,2043.19,641.16,2042.29,641.23,2041.4Z" fill="#3d3d3d"/><path d="M825.7,2143.62c1.13,4.59-8.53,15.66-39.89,17.07-12,.54-34.44-.16-45.77-4.85,0,0,63.59-3,61.75-20.73-1.09-10.42-17.26-36.52-17.26-36.52S821.8,2127.75,825.7,2143.62Z" fill="#dde1e6"/><path d="M358.5,2154.15s19-22.39,12.68-57c0,0,29.7-64.24,38.11-77.65,0,0,21.92,1.29,51.55,23.23,0,0-29.66,20.53-45.9,48.06,0,0-20.47,32.47-22.59,40.24C392.35,2131.06,374.71,2154.35,358.5,2154.15Z" fill="#7a8491"/><path d="M641.23,2041.4s23.41-18.53,45.68-23.32c0,0,26.05,46.64,36.92,84.4,0,0-8.89,39.87-2.54,54.7,0,0-15.83-10.08-29.31-41.72a230.22,230.22,0,0,0-38.85-62.25C648.55,2048,644.33,2043.69,641.23,2041.4Z" fill="#7a8491"/><path d="M720.71,2090.82a5.34,5.34,0,0,1-2.46-10.09c1.46-.75,35.93-18.29,62.17-12.83a5.35,5.35,0,0,1-2.18,10.47c-22.51-4.7-54.77,11.7-55.1,11.86A5.31,5.31,0,0,1,720.71,2090.82Z" fill="#c43d39"/><path d="M712.48,2073.34a5.35,5.35,0,0,1-2.87-9.86c1.33-.84,32.79-20.5,63.09-17.26a5.35,5.35,0,1,1-1.14,10.63c-26.65-2.85-55.94,15.47-56.23,15.66A5.35,5.35,0,0,1,712.48,2073.34Z" fill="#c43d39"/><path d="M704.25,2054.82a5.34,5.34,0,0,1-3.35-9.51c1.13-.91,28-22,63.8-16.55a5.35,5.35,0,1,1-1.6,10.57c-31.27-4.73-55.28,14.13-55.52,14.32A5.33,5.33,0,0,1,704.25,2054.82Z" fill="#c43d39"/><path d="M696,2035.27a5.34,5.34,0,0,1-3-9.78c1.21-.81,30.05-19.66,67.79-12.11a5.34,5.34,0,0,1-2.1,10.48c-33.26-6.66-59.51,10.35-59.77,10.53A5.43,5.43,0,0,1,696,2035.27Z" fill="#c43d39"/><path d="M377.69,2094.35a4.32,4.32,0,0,0,3.91-2.48,4.69,4.69,0,0,0-2.14-6.15c-1.25-.64-31.79-16-54.22-11a4.25,4.25,0,0,0-3,5.63,5.18,5.18,0,0,0,5.84,3.61c19-4.24,47.25,9.74,47.53,9.88A4.48,4.48,0,0,0,377.69,2094.35Z" fill="#c43d39"/><path d="M384.2,2079.25A4.46,4.46,0,0,0,388,2077a4.92,4.92,0,0,0-1.57-6.57c-1.16-.75-29.63-18.86-56.45-15.7a4.44,4.44,0,0,0-3.67,5.53,5.37,5.37,0,0,0,5.65,4.37c23.27-2.72,49.5,13.7,49.75,13.87A4.52,4.52,0,0,0,384.2,2079.25Z" fill="#c43d39"/><path d="M391,2062.57a4.56,4.56,0,0,0,3.63-1.87,5.19,5.19,0,0,0-.81-7c-1-.85-25.75-21.26-58.12-15.82-2.63.44-4.21,3.12-3.54,6a5.41,5.41,0,0,0,5.89,4.32c27.85-4.63,49.81,13.15,50,13.33A4.59,4.59,0,0,0,391,2062.57Z" fill="#c43d39"/><path d="M398,2044.12a4.69,4.69,0,0,0,4-2.32,5.53,5.53,0,0,0-1.35-7.26c-1.1-.8-28.05-20-62.77-12.17-2.65.6-4.14,3.48-3.34,6.42s3.54,4.79,6.15,4.21c30.17-6.74,54.45,10.1,54.69,10.27A4.58,4.58,0,0,0,398,2044.12Z" fill="#c43d39"/></g></g></g></svg>