<svg xmlns="http://www.w3.org/2000/svg" width="1262.35" height="2193.94" viewBox="0 0 1262.35 2193.94"><defs><style>.a,.n{fill:none;}.b{fill:#ffd9ff;}.c{fill:#eda2e6;}.d{fill:#ff6afa;}.e{fill:#fff;}.f{fill:#dbdbdb;}.g{fill:#d450d0;}.h{fill:#f4c458;}.i{fill:#ffee8a;}.j{fill:#8f854d;}.k{fill:#883b71;}.l{fill:#c033ad;}.m{fill:#44392e;}.n{stroke:#8f854d;stroke-linecap:round;stroke-miterlimit:10;}</style></defs><title>2_girl_shirt_cryptokitties</title><rect class="a" width="1262.35" height="2193.94"/><path class="b" d="M779.67,695.65a4.48,4.48,0,0,1-.11-.72c-6.38-92.87-27.53-115.44-52.91-144.34-22.83-26-62.73-23-70.63-22.06-.86.1-26.89-8.45-26.78-7.59,2.11,16.94-69.18,64.24-124.24-.7-.78-.92-39,8.44-39.44,8.41-67.3-6.3-103.25,61.9-115,89.6-2.27,5.35-12.53,15-19.17,21.23a5,5,0,0,0,1,8c16.44,9.24,53,39.62,62.29,72.84a5,5,0,0,0,8.51,2c1.33-1.46,2.62-2.85,3.87-4.06h0c8.56-8.31,14.22-18,19.49-23.51h0l1.54-1.61c-2.63,52.66,24.21,88.14,27.83,92.68a4.65,4.65,0,0,1,.68,1.13c6.13,15.08,11.15,80.44,12.22,95.21a5,5,0,0,0,3,4.23c15.94,6.84,97.44,37.78,176.44-7.33a5,5,0,0,0,2.53-4.83c-5.71-58.85,41.3-133.8,41.3-133.8l3.7,20.51,1.76,7.6a5,5,0,0,0,5,3.87c19.71-.71,63.73-12.73,84.9-26a5,5,0,0,0,2.24-5.32Z"/><path class="c" d="M679,718.91c-72.57,45.78-161.23,52.43-233.14,2.58a4.11,4.11,0,0,0-6.4,4.13c4.7,24.29,15.81,49.78,35.22,65,32.47,25.41,50.82-9.88,86.11-9.88,51.15,0,74.32,38.31,98.4,1.52C672.11,762.44,699,706.2,679,718.91Z"/><path class="c" d="M443.59,628.24S414.06,665.56,407,718.31c10.79-10.48,16.4-20.3,19.49-23.52C426.38,687.27,427.52,663.82,443.59,628.24Z"/><path class="c" d="M693.47,666.35c14.12,40.94-1.41,74.12-1.41,74.12l3.7,20.51C719.74,703.52,693.47,666.35,693.47,666.35Z"/><path class="d" d="M336.86,634.3c-2.35,2.27-4.64,4.39-6.52,6.16a4,4,0,0,0,.83,6.38c16.07,8.52,55.25,40.5,63.93,75.2a4,4,0,0,0,6.78,1.74c1.79-2,3.5-3.88,5.15-5.47h0c.34-.33.67-.66,1-1C393.26,667.14,353.11,641.91,336.86,634.3Z"/><path class="d" d="M789.83,741.89l-2.09-9.52c-36.9,22.65-81.59,27.55-92,28.41l0,.2,2,8.43a4,4,0,0,0,4,3.07c19.48-.4,65.25-12.84,86.44-26.42A3.93,3.93,0,0,0,789.83,741.89Z"/><path class="c" d="M434,629.79a2.13,2.13,0,0,0,2.08-3.28c-16.3-16.22-22.43-28.3-30.73-46.42a3.62,3.62,0,0,0-6-.08C388.16,595.64,388,623.35,434,629.79Z"/><path class="c" d="M434.69,633.77s-29.92-3.09-41.32-10.95c-10.17-7-14.73,13.32-2.32,14.43S415.4,639.51,434.69,633.77Z"/><path class="c" d="M700.11,660.5a1.82,1.82,0,0,1-1.78-2.81c13.94-13.88,19.2-24.21,26.3-39.73a3.11,3.11,0,0,1,5.11-.07C739.36,631.27,739.48,655,700.11,660.5Z"/><path class="d" d="M555.76,624.35c4.24,8.47,21.3,4.3,21.3,1.12,0-2.66-1.57-55.24-2.08-72.15a76.26,76.26,0,0,1-17.64-1C555.89,569.79,552.31,617.45,555.76,624.35Z"/><circle class="e" cx="565.82" cy="610.59" r="7.41"/><circle class="e" cx="565.82" cy="577.76" r="7.41"/><path class="e" d="M546,591.9l.48-.31Z"/><path class="f" d="M537.66,513.17c0-.72.1-1.11.1-1.11s-.06.39-.1,1.11Z"/><path class="f" d="M546,591.9c-.38.24-.76.48-1.15.69C545.27,592.38,545.65,592.15,546,591.9Z"/><path class="f" d="M547.05,591.2l-.54.39Z"/><path class="g" d="M537.76,506.62v-8.68c-2.27.57-11.58-5.94-20-1.7-12.54,16-22.92,22.26-34.59,28.94.27,5.5,8.21,17.75,18.38,30.34C502.22,534.13,517.33,513.61,537.76,506.62Z"/><path class="d" d="M566.76,553.41c-28.36-14.18-29.38-35.31-29.1-40.24,0-.72.1-1.11.1-1.11v-5.44c-20.43,7-35.54,27.51-36.26,48.9,40.21,49.79,47,34.61,46.33,34.27C559,569.56,566.76,553.41,566.76,553.41Z"/><path class="e" d="M585.84,593a5.6,5.6,0,0,1-.55-.27A4,4,0,0,0,585.84,593Z"/><path class="e" d="M586.43,593.21a5,5,0,0,1-.58-.2A5,5,0,0,0,586.43,593.21Z"/><path class="e" d="M585.16,592.66c-.16-.09-.31-.19-.46-.29C584.85,592.47,585,592.57,585.16,592.66Z"/><path class="e" d="M587,593.33a3.29,3.29,0,0,1-.43-.09A3.29,3.29,0,0,0,587,593.33Z"/><path class="e" d="M588.29,593.29a3.45,3.45,0,0,1-.55.07A3.45,3.45,0,0,0,588.29,593.29Z"/><path class="e" d="M587.57,593.36h0Z"/><path class="e" d="M584.57,592.29l-.54-.41Z"/><path class="f" d="M586.56,593.24l-.13,0Z"/><path class="f" d="M587.17,593.35l-.18,0Z"/><path class="f" d="M587.74,593.36h0Z"/><path class="f" d="M584,591.88l0,0Z"/><path class="f" d="M584.7,592.37l-.13-.08Z"/><path class="f" d="M585.85,593h0Z"/><path class="f" d="M585.29,592.73l-.13-.07Z"/><path class="d" d="M600.82,512.71c-3.06,11-6.92,27.13-34.06,40.7,0,0,9.94,21.92,16.93,37.73l-.28.18q.3.28.6.54l0,0,.54.41.13.08c.15.1.3.2.46.29l.13.07a5.6,5.6,0,0,0,.55.27h0a5,5,0,0,0,.58.2l.13,0a3.29,3.29,0,0,0,.43.09l.18,0h.57a3.45,3.45,0,0,0,.55-.07c9.78-2,23.79-13.74,36.11-27.21C628.65,545,619.92,522.86,600.82,512.71Z"/><path class="g" d="M650.76,522c-11.67-6.68-20.64-8-33.17-24a16.6,16.6,0,0,0-15.83.65c-.25,1.37-.23,7.94-.94,14.06,19.1,10.15,27.83,32.25,23.58,53.37C640.53,548.44,653.77,527.8,650.76,522Z"/><path class="b" d="M596.74,628.35H677.5v76.23s-40.47,30.71-79.64,0Z"/><path class="h" d="M614.81,657a117.91,117.91,0,0,0,2.94,13.25l4.79-4.78A41.87,41.87,0,0,0,614.81,657Z"/><path class="i" d="M615,654.39c-.32.24-.34,1.21-.19,2.57a41.87,41.87,0,0,1,7.73,8.47l4.5-4.5S616.38,653.36,615,654.39Z"/><path class="j" d="M615.37,654.29c2.32,0,11.67,6.64,11.67,6.64l-4.5,4.5-4.79,4.78A117.91,117.91,0,0,1,614.81,657c-.15-1.36-.13-2.33.19-2.57a.58.58,0,0,1,.37-.1m0-2a2.55,2.55,0,0,0-1.57.5c-1.13.84-1.21,2.31-1,4.39a117,117,0,0,0,3,13.57l.92,3.3,2.42-2.42,4.79-4.79,4.5-4.5,1.67-1.67-1.93-1.38c-3.69-2.61-10.25-7-12.83-7Z"/><path class="h" d="M660.38,657a117.91,117.91,0,0,1-2.94,13.25l-4.79-4.78A41.87,41.87,0,0,1,660.38,657Z"/><path class="i" d="M660.19,654.39c.32.24.34,1.21.19,2.57a41.87,41.87,0,0,0-7.73,8.47l-4.5-4.5S658.81,653.36,660.19,654.39Z"/><path class="j" d="M659.82,654.29a.58.58,0,0,1,.37.1c.32.24.34,1.21.19,2.57a117.91,117.91,0,0,1-2.94,13.25l-4.79-4.78-4.5-4.5s9.35-6.64,11.67-6.64m0-2h0c-2.58,0-9.14,4.39-12.83,7l-1.93,1.38,1.67,1.67,4.5,4.5,4.79,4.79,2.42,2.42.92-3.3a117,117,0,0,0,3-13.57c.23-2.08.15-3.55-1-4.39a2.55,2.55,0,0,0-1.57-.5Z"/><path class="i" d="M659,671.25a23.67,23.67,0,0,0-43.24,0s-6.25,10.66-9.69,12.38c0,0,7.57,4.13,11,7.57s11,9,20.3,9,16.92-5.58,20.3-9,11-7.57,11-7.57C665.23,681.91,659,671.25,659,671.25Z"/><path class="j" d="M638,657.19a23.2,23.2,0,0,1,21,14.06s6.25,10.66,9.69,12.38c0,0-7.57,4.13-11,7.57s-11,9-20.3,9-16.92-5.58-20.3-9-11-7.57-11-7.57c3.44-1.72,9.69-12.38,9.69-12.38a23.21,23.21,0,0,1,21-14.06,5.52,5.52,0,0,1,.62,0,5.67,5.67,0,0,1,.62,0m0-2h-1.24A25.28,25.28,0,0,0,614,670.32c-2.48,4.21-6.82,10.53-8.81,11.52l-3.42,1.71,3.36,1.84c.07,0,7.35,4,10.55,7.22,4.61,4.62,12.74,9.55,21.71,9.55s17.1-4.93,21.71-9.55c3.2-3.19,10.48-7.18,10.56-7.22l3.36-1.84-3.43-1.71c-2-1-6.33-7.31-8.81-11.52A25.26,25.26,0,0,0,638,655.19Z"/><path class="d" d="M604.52,627.35a8.67,8.67,0,0,0-8.67,8.79l1,68.93.38.3c13.47,10.56,27.09,13.83,38.79,13.83a67,67,0,0,0,16.59-2.14,77.28,77.28,0,0,0,25.49-11.68l.39-.3V636a8.67,8.67,0,0,0-8.67-8.67Zm-5.67,76.74-.78-53.31a5.76,5.76,0,0,1,5.76-5.85h66.91a5.76,5.76,0,0,1,5.76,5.76v53.38C672.26,707.07,634.82,731.91,598.85,704.09Z"/><path class="k" d="M634.18,687.46s0,4.86,3.62,4.59,3.26-4.32,3.26-4.32-3.18-.36-3.62-2.65A3.77,3.77,0,0,1,634.18,687.46Z"/><circle class="e" cx="624.5" cy="673.4" r="7.65"/><circle class="l" cx="624.38" cy="671.76" r="5.29"/><circle class="m" cx="624.67" cy="670.47" r="3.24"/><circle class="e" cx="622.11" cy="670.06" r="2.47"/><path class="j" d="M624.5,665.76a7.65,7.65,0,1,1-7.64,7.64,7.64,7.64,0,0,1,7.64-7.64m0-1a8.65,8.65,0,1,0,8.65,8.64,8.65,8.65,0,0,0-8.65-8.64Z"/><circle class="e" cx="650.38" cy="673.17" r="7.65"/><circle class="l" cx="650.27" cy="671.52" r="5.29"/><circle class="m" cx="650.55" cy="670.24" r="3.24"/><circle class="e" cx="648" cy="669.83" r="2.47"/><path class="j" d="M650.38,665.52a7.65,7.65,0,1,1-7.64,7.65,7.65,7.65,0,0,1,7.64-7.65m0-1a8.65,8.65,0,1,0,8.65,8.65,8.66,8.66,0,0,0-8.65-8.65Z"/><path class="j" d="M636.39,678.35h2.25a1.1,1.1,0,0,1,.88,1.76l-1.16,1.55a1.1,1.1,0,0,1-1.79,0l-1.09-1.55A1.1,1.1,0,0,1,636.39,678.35Z"/><path class="n" d="M628.71,682.52s-.88,4.92,4.76,5.12c5.12.18,3.89-6.09,3.89-6.09"/><path class="n" d="M646.17,682.52s.88,4.92-4.76,5.12c-5.12.18-3.89-6.09-3.89-6.09"/><path class="n" d="M634.21,688c.12,1.25.72,4.26,3.59,4,3.61-.26,3.26-4.32,3.26-4.32"/></svg>
