<svg xmlns="http://www.w3.org/2000/svg" width="1262.35" height="2193.94" viewBox="0 0 1262.35 2193.94"><title>2_girl_hair_2</title><g id="Layer_2" data-name="Layer 2"><g id="Layer_148" data-name="Layer 148"><g id="_2_girl_hair_2" data-name="2_girl_hair_2"><rect width="1262.35" height="2193.94" fill="none"/><path d="M438.24,389.29S398,367.06,400.12,334.24s25.41-27.53,34.94-22.24c9.12,5.07-44.79-65.5-49.44-71.57,3.72-5-18,3-24.13,8.79-29.43,27.86-35.18,77.34-12.93,111.2,8.5,12.94,21,25.13,20.72,40.61-.21,12-9.49,23.28-21.24,25.78,15.13,1.7,29.29-7.87,37.46-21,29.95,73.88,7.5,108.48-14,109.5,0,0,58.23,10.59,70.94-39.17,0,0,15.88,21.17,1.06,41.29,0,0,40.23-4.23,42.35-38.12,0,0,13.77,18,8.47,30.71,0,0,37.06-12.71,43.41-33.88C537.76,476.12,452,467.65,438.24,389.29Z" fill="#b03b00"/><path d="M795.24,375.28c-3.25-15.13,6.65-29.51,12.5-43.84,15.31-37.52.13-85-34.12-106.63-7.43-4.7-31.87-8.49-24.7-3.43l-38.57,94.86s34.89-22.59,35.83,20.23c1,43.45-39,51.77-39,51.77-13.77,83.64-104.83,88.94-104.83,88.94,4.24,32.82,40.24,37.06,40.24,37.06-6.35-10.59,11.65-33.89,11.65-33.89,10.58,33.89,44.47,32.83,44.47,32.83-21.18-22.24-5.3-42.36-5.3-42.36,13.77,30.71,62.47,38.12,62.47,38.12-31.3-42.53,1.27-84.46,20.26-130.85,10.23,14.24,28.36,23.62,44.9,18.4C809,396.29,797.76,387,795.24,375.28Z" fill="#b03b00"/><path d="M748.47,213.53S741.06,60,572.71,63.18C401.32,66.41,386.35,235.76,386.35,235.76s.69,32.2,25.76,58.58c-5.17,28.44-6.25,90.67,68.48,132,0,0-55.2-68.68-18.17-158.57C473,247.84,489,223.3,509.53,207.53c0,0,8.12,37.76-22.59,85.41,0,0,91.06,2.12,103.77-91.06,0,0,25.16,19.27,68.74,24.26,75.69,108.48,3.66,198.1,3.66,198.1,77.81-43.05,73.44-108.74,67.82-135.36C742.6,268.35,747.31,245.64,748.47,213.53Z" fill="#b03b00"/><path d="M482.71,142.59s-61.42,45.53-73.06,99.53c0,0-11.79-6.94-20.21-24.73a164.12,164.12,0,0,0-3.09,18.37s.69,32.2,25.76,58.58C412.11,294.34,427.65,201.88,482.71,142.59Z" fill="#822c00"/><path d="M724.12,227.29c-39.18-63.53-88.94-94.23-88.94-94.23,57.17,45.53,95.75,155.82,95.75,155.82,11.67-20.53,16.38-43.24,17.54-75.35,0,0-1.17-24.25-13.15-53.27C742.83,206.14,724.12,227.29,724.12,227.29Z" fill="#822c00"/><path d="M526.12,176.47S466.82,204,443.53,290.82s37.06,135.53,37.06,135.53-55.2-68.68-18.17-158.57C473,247.84,489,223.3,509.53,207.53c0,0,8.12,37.76-22.59,85.41C543.06,256.94,526.12,176.47,526.12,176.47Z" fill="#822c00"/><path d="M697.65,276c-24.36-73.06-81.53-111.18-81.53-111.18l31.76,46.59s-42.35-4.23-60.35-32.82c0,0-1.18,48.69-23.18,82.32,12.58-13.35,22.7-32.25,26.36-59,0,0,25.16,19.27,68.74,24.26,75.69,108.48,3.66,198.1,3.66,198.1C706.12,393.53,711,316,697.65,276Z" fill="#822c00"/><path d="M438.24,389.29a101.87,101.87,0,0,1-21.16-16.53c12.21,34.7,19,71.1,3.51,106.42-8.47,19.76-24.91,35.09-47.66,36-.47.06-.93.1-1.4.12,0,0,58.23,10.59,70.94-39.17,0,0,15.88,21.17,1.06,41.29,0,0,40.23-4.23,42.35-38.12,0,0,13.77,18,8.47,30.71,0,0,37.06-12.71,43.41-33.88C537.76,476.12,452,467.65,438.24,389.29Z" fill="#822c00"/><path d="M386.23,241.22c-21.29,38.25-33,89.35-16.07,130.25a107.87,107.87,0,0,1-32.45-80.36c-5.72,23.4-2.41,49.13,10.85,69.31,8.5,12.94,21,25.13,20.72,40.61-.21,12-9.49,23.28-21.24,25.78,15.13,1.7,29.29-7.87,37.46-21C350.77,311.1,386.23,241.22,386.23,241.22Z" fill="#822c00"/><path d="M705.44,396.75c-18.32,75.49-103.09,80.43-103.09,80.43,4.24,32.82,40.24,37.06,40.24,37.06-6.35-10.59,11.65-33.89,11.65-33.89,10.58,33.89,44.47,32.83,44.47,32.83-21.18-22.24-5.3-42.36-5.3-42.36,13.77,30.71,62.47,38.12,62.47,38.12-1.11-1.52-2.14-3-3.1-4.55C718.41,483.5,701.17,437.63,705.44,396.75Z" fill="#822c00"/><path d="M795.24,375.28c-3.25-15.13,6.65-29.51,12.5-43.84,6.82-16.73,7.57-35.43,3.29-52.95-.15,27.7-7.33,54.89-28.44,74.69,14.21-45.49,2.37-97.26-31.25-130.64,15.8,26.65,24.51,57.64,21.25,88.64-1.79,23.22-6.75,47.23,2.89,68.49l.66-1.58c10.23,14.24,28.36,23.62,44.9,18.4C809,396.29,797.76,387,795.24,375.28Z" fill="#822c00"/><path d="M491.41,90.47s18.35,38.12,56.47,41.29c0,0-51.88,18.71-85.76-21.52C472.62,100.64,479.3,96.43,491.41,90.47Z" fill="#d44700"/><path d="M762.05,214.67c-3.34-1.81-7.71-2.29-12.52,2l-3.25,21.11C755.32,234.27,759.53,224.79,762.05,214.67Z" fill="#fabe46"/><path d="M768.59,220.94a20,20,0,0,0-6.54-6.27c-2.52,10.12-6.73,19.6-15.77,23.15L743.18,258S765.41,235.76,768.59,220.94Z" fill="#b85d19"/><path d="M387.59,257.18a14.83,14.83,0,0,0,4.31,3c-3.31-11.41-5.55-24.39-5.55-24.39-8.59-3.22-12.82-1.54-14.91.9C373.9,245.18,380.73,251.18,387.59,257.18Z" fill="#fabe46"/><path d="M387.59,257.18c-6.86-6-13.69-12-16.15-20.52a9.36,9.36,0,0,0-2,5.46c4.24,13.76,28.59,32.82,28.59,32.82-2.22-3-4.31-8.65-6.1-14.79A14.83,14.83,0,0,1,387.59,257.18Z" fill="#b85d19"/></g></g></g></svg>