<svg xmlns="http://www.w3.org/2000/svg" width="1262.35" height="2193.94" viewBox="0 0 1262.35 2193.94"><title>2_girl_hair_8</title><g id="Layer_2" data-name="Layer 2"><g id="Layer_148" data-name="Layer 148"><g id="_2_girl_hair_8" data-name="2_girl_hair_8"><rect width="1262.35" height="2193.94" fill="none"/><path d="M749.53,258s.39,322.07,72,405.53c13.81,16.09,35.29,12.71,56.47,0,0,0-24,83.29-93.18,67.76,0,0-2.92-16.54-5.62-40.21-3.33-29.19-7.89-69.22-25.05-102.47-18.85-36.52-51.17-64.87-96.74-61.67,0,0-47.65-9.53-55.06-14.82V478.24s96.36-14.83,102.71-88.95c0,0,39.35-7.11,38.82-54.41-.47-42-32.47-19.7-32.47-19.7Z" fill="#4354bf"/><path d="M438.06,388.18s-37.35-8.12-36.82-55.42c.47-42,32.47-19.7,32.47-19.7l-38.12-57.18s-13,275.39-68.18,392.12c3.41.25,26.34-33.13,28.71-39.06,8.47-21.18,21-37.28,32-48.94,25.84-27.5,50.76-30.94,79.76-30.94,0,0,61.47-12.77,68.88-18.06V477.12S444.41,462.29,438.06,388.18Z" fill="#4354bf"/><path d="M261.76,634.39c-11.56,46.39,18.71,68.32,18.71,68.32,7.84-7,15.47-15.86,23.12-25.26a41.63,41.63,0,0,1-17-6.27C273.11,663.25,264.68,649.65,261.76,634.39Z" fill="#2a3578"/><path d="M262,633.41c-.09.33-.16.65-.24,1,2.92,15.26,11.35,28.86,24.83,36.79a41.63,41.63,0,0,0,17,6.27c7.85-9.66,15.72-19.91,23.82-29.45C283.65,679.06,262,633.41,262,633.41Z" fill="#4354bf"/><path d="M401.24,332.76c-.15,12.88,2.52,22.85,6.47,30.55.49-19.91.83-38.24,1.07-53.58C404.51,313,401.38,319.83,401.24,332.76Z" fill="none"/><path d="M433.71,313.06,406.47,280c-.07,8-3.08,24.63-3.29,38.59C417.29,295.06,433.71,313.06,433.71,313.06Z" fill="#2a3578"/><path d="M438.06,388.18a49,49,0,0,1-30.35-24.87c-1.5,61.19-4.4,137.28-10,187.49,22.49-19.1,44.75-21.74,70.13-21.74,0,0,61.47-12.77,68.88-18.06V477.12S444.41,462.29,438.06,388.18Z" fill="#2a3578"/><path d="M645.76,163.76s-96.35,101.65-192.7,93.18c0,0-9.53,156.71,27.53,232.94-44.72-33.56-68-68.77-62.47-182.12,0,0-19.41-17.64-22.53-51.88,0,0-1-25.66,7.35-51.17,17.77-54.19,65.43-129.25,167.65-107.65,0,0,150.35-41.3,178.94,160.94,0,0-7.06,35.65-38.12,57.18,12.84,85.85-11.72,138.21-64.59,175.76C646.82,490.94,743.88,334.88,645.76,163.76Z" fill="#4354bf"/><path d="M418.12,307.76s-5.3-83.64,27.53-133.41c0,0-39.18,45.89-40.59,127.77Z" fill="#2a3578"/><path d="M711.41,315.18s-8.47-94.94-33.88-130.24c0,0,38.12,43.77,46.59,124.24Z" fill="#2a3578"/><path d="M682.58,245.4c8.26-5.05,24.93-15.39,36.77-23.76A7.88,7.88,0,0,1,731,224.71l.42.92a7.88,7.88,0,0,1-3,10c-9.07,5.68-26.57,16.59-37.78,23.25a7.87,7.87,0,0,1-11.63-4.7h0A7.89,7.89,0,0,1,682.58,245.4Z" fill="#fff2a8"/><path d="M743.88,334.88c-.25-22.5-9.54-26.55-18.12-25.46.47,11.59,1.56,38.73,2.76,67C736.83,368.36,744.11,355.4,743.88,334.88Z" fill="none"/><path d="M817.29,690.35c-18.48-4-33-21-44.43-44,3.07,16,4.83,31.47,6.34,44.69,2.7,23.67,5.62,40.21,5.62,40.21C854,746.82,878,663.53,878,663.53S862.47,700.24,817.29,690.35Z" fill="#2a3578"/><path d="M728.52,376.45a50,50,0,0,1-23.46,12.84c-6.35,74.12-102.71,88.95-102.71,88.95v33.88c7.41,5.29,55.06,14.82,55.06,14.82,43.1-3,74.34,22.17,93.55,55.81-13.56-55.46-17.64-113-18.37-121.1C731.88,453.86,730.11,414.13,728.52,376.45Z" fill="#2a3578"/><path d="M453.06,256.94s0-59.29,24-86.12c-6.57,23.43-8.12,37.42-6,60.71,12.7,12.71,135.88-28.24,174.7-67.77C645.76,163.76,584.35,261.18,453.06,256.94Z" fill="#2a3578"/><path d="M505.29,105.88s4.24,42.36,59.3,67.77c0,0-55.77-6.36-86.12-55.06C478.47,118.59,489.76,108.71,505.29,105.88Z" fill="#4aa2d4"/><path d="M662,166.59s29.65-12,33.88-25.41c0,0,14.83,18.35,15.53,22.58C711.41,163.76,684.59,172.94,662,166.59Z" fill="#4aa2d4"/></g></g></g></svg>