<svg xmlns="http://www.w3.org/2000/svg" width="1262.35" height="2193.94" viewBox="0 0 1262.35 2193.94"><title>2_girl_shirt_6</title><g id="Layer_2" data-name="Layer 2"><g id="Layer_148" data-name="Layer 148"><g id="_2_girl_shirt_6" data-name="2_girl_shirt_6"><rect width="1262.35" height="2193.94" fill="none"/><path d="M693.47,666.35c22.94-44.86,29.85-91.29,31.91-117.12-23-24.51-61.61-21.57-69.36-20.7-.86.1-26.89-8.45-26.78-7.59,2.11,16.94-69.18,64.24-124.24-.7-.78-.92-39,8.44-39.44,8.41A86.49,86.49,0,0,0,421.09,536c.84,44.63,22.5,92.25,22.5,92.25s-21.83,31.55-24.07,75.24a98,98,0,0,1,7-8.69h0l1.54-1.61c-2.63,52.66,24.21,88.14,27.83,92.68a4.65,4.65,0,0,1,.68,1.13c6.13,15.08,11.15,80.44,12.22,95.21a5,5,0,0,0,3,4.23c15.94,6.84,97.44,37.78,176.44-7.33a5,5,0,0,0,2.53-4.83c-5.71-58.85,41.3-133.8,41.3-133.8l2.07,11.47C716.41,705.23,693.47,666.35,693.47,666.35Z" fill="#fff"/><path d="M231.53,627.43c-4.33-9.14-7.61-16.71-9.23-20.52a1.94,1.94,0,0,0-3.13-.63c-11.83,11.3-33.38,19.6-63.85,19.2a2.29,2.29,0,0,0-2.25,2.85c1.05,4.28,3.24,13,6.27,24.31C185.65,653.21,213.82,646.27,231.53,627.43Z" fill="#9bd182"/><path d="M421.09,536c-39.2,17.76-61.7,61.44-70.53,82.26-2.27,5.35-57.92,72.56-57.92,72.56,1,.57-11.4,13.66-11.4,13.66C272.82,693.18,261,679.56,254,668.82c-8.44-13-16.46-28.72-22.47-41.39-17.71,18.84-45.88,25.78-72.19,25.21,8.56,31.94,23.86,84.74,39.6,117.83,12,25.18,24.6,41.15,34.4,50.92a28.85,28.85,0,0,0,34.23,4.83c17.47-9.56,45.79-26,71.14-45.16,34.69-26.17,63.22-57.34,64.45-58.69s2.62-2.85,3.87-4.06h0a121.86,121.86,0,0,0,12.49-14.82c2.24-43.69,24.07-75.24,24.07-75.24S421.93,580.62,421.09,536Z" fill="#fff"/><path d="M782.92,1073q4.71,12.42,10,25.67c24.08,4.44,47.83-1.28,66.71-17-.95-7.92-2.12-17-3.46-26.84C835.06,1069,808.15,1074.59,782.92,1073Z" fill="#9bd182"/><path d="M801.41,862.59,779.67,695.65a4.48,4.48,0,0,1-.11-.72c-6.38-92.87-27.53-115.44-52.91-144.34-.42-.47-.84-.91-1.27-1.36-2.06,25.83-9,72.26-31.91,117.12,0,0,22.94,38.88.66,85.59l1.63,9,36.83,113.26c.23,1-.69,64.22,50.33,198.8,25.23,1.55,52.14-4.06,73.27-18.12-5.6-41-14.36-94.66-24.07-129.86C826.48,904.62,801.44,862.73,801.41,862.59Z" fill="#fff"/><path d="M725.38,549.23c-9.19-9.8-20.88-15.2-32.09-18.11-11.83,27.67-50.34,102-121.64,98.53-82-4-116.38-76.28-125.71-100.71a86.21,86.21,0,0,0-24.85,7c.84,44.63,22.5,92.25,22.5,92.25s-21.83,31.55-24.07,75.24a98,98,0,0,1,7-8.69h0l1.54-1.61c-2.63,52.66,24.21,88.14,27.83,92.68a4.65,4.65,0,0,1,.68,1.13c6.13,15.08,11.15,80.44,12.22,95.21a5,5,0,0,0,3,4.23c15.94,6.84,97.44,37.78,176.44-7.33a5,5,0,0,0,2.53-4.83c-5.71-58.85,41.3-133.8,41.3-133.8l2.07,11.47c22.28-46.71-.66-85.59-.66-85.59C716.41,621.49,723.32,575.06,725.38,549.23Z" fill="#cf5d7f"/><path d="M571.65,629.65c71.3,3.45,109.81-70.86,121.64-98.53A103,103,0,0,0,669.92,528c-9.58,22-40.1,79.07-98.27,79.07-55,0-86.94-54.38-98.95-80.06-4.15,1-7,1.66-7.14,1.65a88.78,88.78,0,0,0-19.62.29C455.27,553.37,489.68,625.68,571.65,629.65Z" fill="#b03e60"/><path d="M679,718.91c-72.57,45.78-161.23,52.43-233.14,2.58a4.11,4.11,0,0,0-6.4,4.13c4.7,24.29,15.81,49.78,35.22,65,32.47,25.41,50.82-9.88,86.11-9.88,51.15,0,74.32,38.31,98.4,1.52C672.11,762.44,699,706.2,679,718.91Z" fill="#b54768"/><path d="M443.59,628.24S414.06,665.56,407,718.31c10.79-10.48,16.4-20.3,19.49-23.52C426.38,687.27,427.52,663.82,443.59,628.24Z" fill="#ccc"/><path d="M693.47,666.35c14.12,40.94-1.41,74.12-1.41,74.12l3.7,20.51C719.74,703.52,693.47,666.35,693.47,666.35Z" fill="#ccc"/><path d="M468,871.58c.4,5,.69,8.92.85,11.24a4,4,0,0,0,2.37,3.35c14.41,6.29,97.43,38.81,177.67-7.44a3.94,3.94,0,0,0,2-3.8c-.32-3-.49-6.12-.53-9.24C571.48,907.83,488.21,879.6,468,871.58Z" fill="#b03e60"/><path d="M546,591.9l.48-.31Z" fill="#fff"/><path d="M537.66,513.17c0-.72.1-1.11.1-1.11s-.06.39-.1,1.11Z" fill="#dbdbdb"/><path d="M546,591.9c-.38.24-.76.48-1.15.69C545.27,592.38,545.65,592.15,546,591.9Z" fill="#dbdbdb"/><path d="M547.05,591.2l-.54.39Z" fill="#dbdbdb"/><path d="M537.76,506.62v-8.68c-2.27.57-11.58-5.94-20-1.7-12.54,16-22.92,22.26-34.59,28.94.27,5.5,8.21,17.75,18.38,30.34C502.22,534.13,517.33,513.61,537.76,506.62Z" fill="#77ad5e"/><path d="M566.76,553.41c-28.36-14.18-29.38-35.31-29.1-40.24,0-.72.1-1.11.1-1.11v-5.44c-20.43,7-35.54,27.51-36.26,48.9,40.21,49.79,47,34.61,46.33,34.27C559,569.56,566.76,553.41,566.76,553.41Z" fill="#9bd182"/><path d="M585.84,593a5.6,5.6,0,0,1-.55-.27A4,4,0,0,0,585.84,593Z" fill="#fff"/><path d="M586.43,593.21a5,5,0,0,1-.58-.2A5,5,0,0,0,586.43,593.21Z" fill="#fff"/><path d="M585.16,592.66c-.16-.09-.31-.19-.46-.29C584.85,592.47,585,592.57,585.16,592.66Z" fill="#fff"/><path d="M587,593.33a3.29,3.29,0,0,1-.43-.09A3.29,3.29,0,0,0,587,593.33Z" fill="#fff"/><path d="M588.29,593.29a3.45,3.45,0,0,1-.55.07A3.45,3.45,0,0,0,588.29,593.29Z" fill="#fff"/><path d="M587.57,593.36h0Z" fill="#fff"/><path d="M584.57,592.29l-.54-.41Z" fill="#fff"/><path d="M586.56,593.24l-.13,0Z" fill="#dbdbdb"/><path d="M587.17,593.35l-.18,0Z" fill="#dbdbdb"/><path d="M587.74,593.36h0Z" fill="#dbdbdb"/><path d="M584,591.88l0,0Z" fill="#dbdbdb"/><path d="M584.7,592.37l-.13-.08Z" fill="#dbdbdb"/><path d="M585.85,593h0Z" fill="#dbdbdb"/><path d="M585.29,592.73l-.13-.07Z" fill="#dbdbdb"/><path d="M600.82,512.71c-3.06,11-6.92,27.13-34.06,40.7,0,0,9.94,21.92,16.93,37.73l-.28.18q.3.28.6.54l0,0,.54.41.13.08c.15.1.3.2.46.29l.13.07a5.6,5.6,0,0,0,.55.27h0a5,5,0,0,0,.58.2l.13,0a3.29,3.29,0,0,0,.43.09l.18,0h.57a3.45,3.45,0,0,0,.55-.07c9.78-2,23.79-13.74,36.11-27.21C628.65,545,619.92,522.86,600.82,512.71Z" fill="#9bd182"/><path d="M650.76,522c-11.67-6.68-20.64-8-33.17-24a16.6,16.6,0,0,0-15.83.65c-.25,1.37-.23,7.94-.94,14.06,19.1,10.15,27.83,32.25,23.58,53.37C640.53,548.44,653.77,527.8,650.76,522Z" fill="#77ad5e"/><path d="M434,629.79a2.13,2.13,0,0,0,2.08-3.28c-16.3-16.22-22.43-28.3-30.73-46.42a3.62,3.62,0,0,0-6-.08C388.16,595.64,388,623.35,434,629.79Z" fill="#ccc"/><path d="M434.69,633.77s-29.92-3.09-41.32-10.95c-10.17-7-14.73,13.32-2.32,14.43S415.4,639.51,434.69,633.77Z" fill="#ccc"/><path d="M700.11,660.5a1.82,1.82,0,0,1-1.78-2.81c13.94-13.88,19.2-24.21,26.3-39.73a3.11,3.11,0,0,1,5.11-.07C739.36,631.27,739.48,655,700.11,660.5Z" fill="#ccc"/><path d="M636.51,664.42a15.34,15.34,0,0,1,11.84-7.35c7.27-.52,12.77,5.77,13.32,13.52.64,9-5.44,20.06-22.54,30.55-18.41-7.95-26-18.07-26.64-27-.56-7.75,4-14.76,11.26-15.28A15.34,15.34,0,0,1,636.51,664.42Z" fill="#fff"/><path d="M281.53,708s-31.77,47.65-12.71,57.18,18-51.89,15.89-58.24" fill="#ccc"/><path d="M305.24,744s6.15-24.63-12.6-53.19c-6.79,8.1-11.4,13.66-11.4,13.66S302.41,724.24,305.24,744Z" fill="#ccc"/><path d="M765.47,859.76c-11.29,4.24-7.06,19.77-7.06,19.77,11.3,26.82,31.06,11.29,28.24-1.41S776.76,855.53,765.47,859.76Z" fill="#ccc"/></g></g></g></svg>