<svg xmlns="http://www.w3.org/2000/svg" width="1262.35" height="2193.94" viewBox="0 0 1262.35 2193.94"><title>2_girl_pants_10</title><g id="Layer_2" data-name="Layer 2"><g id="Layer_148" data-name="Layer 148"><g id="_2_girl_pants_10" data-name="2_girl_pants_10"><rect width="1262.35" height="2193.94" fill="none"/><path d="M722,1477.88c44.6-160.72,56.86-315.94,39.27-413.41C733,938.82,651.12,877.41,651.12,877.41,562.18,929.65,469,885.18,469,885.18c-153.42,142.37-91.3,504-72.45,596.06,31.1,12.11,65.52,16.12,98,10.35,25.26-163.67,79.82-364.36,80.26-364.19l54,369.95C661.34,1498.14,692.69,1491.94,722,1477.88Z" fill="#787131"/><path d="M406.33,1148.55c8-88.75,23.06-144.85,23.21-145.41l-5.79-1.57c-.15.56-15.34,57-23.38,146.28-7.22,80-10,203,16.71,340.07q3.19.86,6.42,1.59C396.39,1352.12,399.11,1228.64,406.33,1148.55Z" fill="#57511e"/><path d="M730.69,1144.15c-3.3-93.71-15.1-154.48-15.22-155.08l-5.88,1.16c.11.6,11.82,60.9,15.11,154.13,2.92,82.85-.45,208.66-32,344.78q3.33-1,6.64-2.09C730.3,1351.61,733.6,1226.66,730.69,1144.15Z" fill="#57511e"/><path d="M651.12,877.41a182.59,182.59,0,0,1-25.58,12.45c21.59,45.55,58.51,94.17,110.23,100C700.48,914.45,651.12,877.41,651.12,877.41Z" fill="#696228"/><path d="M625.54,889.86c-3.77,1.48-7.54,2.84-11.28,4,13.66,33.07,32.66,62.6,62.33,85.29,19.31,15.6,41.39,21.81,64.58,22.75q-2.64-6.21-5.4-12.09C684.05,984,647.13,935.41,625.54,889.86Z" fill="#b39b6b"/><path d="M494,894.08a175.62,175.62,0,0,1-25-8.9c-33.46,31.05-56.66,72.54-72.3,119.38C417.67,1003.72,463.94,990.18,494,894.08Z" fill="#696228"/><path d="M494,894.08c-30,96.1-76.31,109.64-97.28,110.48q-1.92,5.76-3.69,11.6c63.45,1.79,97.74-60.87,114-118.79C502.29,896.32,497.94,895.2,494,894.08Z" fill="#b39b6b"/><path d="M593,1074.25l-8.89-149.54-28.94,1.41s-2.16,74.2,2,147.06c.93,16.46,2.18,32.86,3.85,48.32q6.74,3.09,13.89,5.9a93.76,93.76,0,0,0,20.92-6.15Z" fill="#b39b6b"/><path d="M682.18,1054.59c-93.18,55.06-177.89,18.35-218.83-7.06.46,1.13,40.78,52.16,111.47,79.87C600.29,1123.76,652.15,1095.67,682.18,1054.59Z" fill="#57511e"/><path d="M671.75,896.3c-12.28-12.62-20.63-18.89-20.63-18.89C562.18,929.65,469,885.18,469,885.18a222.1,222.1,0,0,0-18,18.89C480.46,919.77,574.47,959.86,671.75,896.3Z" fill="#29260e"/><path d="M547.3,902.66c-.07,9.37.37,18.74.16,28.12A204.74,204.74,0,0,0,592.55,928c-1-9.31-2.46-18.8-3.38-28A201,201,0,0,1,547.3,902.66Z" fill="#fff"/><path d="M493.39,893.92c-3,8.22-5.57,16.57-8.05,24.87,4.37,1.48,9,2.91,13.91,4.24a247.67,247.67,0,0,1,7.07-25.81C501.64,896.17,497.31,895,493.39,893.92Z" fill="#787648"/><path d="M614.44,893.83c4.29,8.25,7.26,17,10.43,25.78q7.13-2.5,14.33-5.65c-3.26-8.59-7-16.91-10.61-25.33Q621.5,891.57,614.44,893.83Z" fill="#787648"/><path d="M396.55,1481.24s47.75,21,98,10.35c0,0,22,11.12,6.5,57,0,0-60.71,21.17-112.94-14.12C388.12,1534.47,378.15,1509.76,396.55,1481.24Z" fill="#b39b6b"/><path d="M628.78,1497.35s58.57-1.36,93.19-19.47c0,0,24,11.88,21.15,54.24,0,0-74.83,25.41-107.3,18.35C635.82,1550.47,619.55,1526.47,628.78,1497.35Z" fill="#b39b6b"/></g></g></g></svg>