<svg xmlns="http://www.w3.org/2000/svg" width="1262.35" height="2193.94" viewBox="0 0 1262.35 2193.94"><title>2_girl_shirt_11</title><g id="Layer_2" data-name="Layer 2"><g id="Layer_148" data-name="Layer 148"><g id="_2_girl_shirt_11" data-name="2_girl_shirt_11"><rect width="1262.35" height="2193.94" fill="none"/><path d="M779.67,695.65a4.48,4.48,0,0,1-.11-.72c-.44-6.49-1-12.63-1.55-18.46-23.33,12.14-48.72,22-74.87,26.16a102.19,102.19,0,0,1-2,25.82c28.19-1.72,56.52-6.58,81.17-20.57Z" fill="#de7ea1"/><path d="M782.35,707.88c-24.65,14-53,18.85-81.17,20.57a61,61,0,0,1-7.73,19.71L695.76,761l1.76,7.6a5,5,0,0,0,5,3.87c19.71-.71,63.73-12.73,84.9-26a5,5,0,0,0,2.24-5.32Z" fill="#ffd059"/><path d="M690.59,704.18c4.2-.36,8.38-.89,12.55-1.55-.11-2.53-.3-5-.55-7.45.25,2.42.44,4.92.55,7.45,26.15-4.16,51.54-14,74.87-26.16-7.81-77.59-27.76-99-51.36-125.88-22.83-26-62.73-23-70.63-22.06-.86.1-26.89-8.45-26.78-7.59,2.11,16.94-69.18,64.24-124.24-.7-.78-.92-39,8.44-39.44,8.41-48-4.49-80.05,28.91-98.75,58.49,27.76,11.1,52.67,30.81,69.32,56.05a195.55,195.55,0,0,1,9.46-19,195.55,195.55,0,0,0-9.46,19,133.21,133.21,0,0,1,10.46,19,133.21,133.21,0,0,0-10.46-19,165.56,165.56,0,0,0-9,26.78q2.78,3.6,5.45,7.21-2.67-3.6-5.45-7.21a135.21,135.21,0,0,0-3.78,28.48c1.08-1.35,2.13-2.59,3.16-3.66h0l1.54-1.61c-2.63,52.66,24.21,88.14,27.83,92.68a4.65,4.65,0,0,1,.68,1.13c6.13,15.08,11.15,80.44,12.22,95.21a5,5,0,0,0,3,4.23c15.94,6.84,97.44,37.78,176.44-7.33a5,5,0,0,0,2.53-4.83c-5.71-58.85,41.3-133.8,41.3-133.8l1.39,7.69a61,61,0,0,0,7.73-19.71c-5.88.36-11.76.58-17.59.73,5.83-.15,11.71-.37,17.59-.73a102.19,102.19,0,0,0,2-25.82C699,703.29,694.79,703.82,690.59,704.18Z" fill="#ffd059"/><path d="M354.77,609c-1.64,3.42-3,6.56-4.21,9.3-2.27,5.35-12.53,15-19.17,21.23a5,5,0,0,0,1,8c16.44,9.24,53,39.62,62.29,72.84a5,5,0,0,0,8.51,2c1.33-1.46,2.62-2.85,3.87-4.06h0c6.89-6.68,11.9-14.28,16.33-19.85A135.21,135.21,0,0,1,427.14,670C407.82,644.84,384.4,619.79,354.77,609Z" fill="#ffd059"/><path d="M366.81,587.14a214.64,214.64,0,0,0-12,21.81c29.63,10.84,53.05,35.89,72.37,61a165.56,165.56,0,0,1,9-26.78C419.48,618,394.57,598.24,366.81,587.14Z" fill="#de7ea1"/><path d="M679,718.91c-72.57,45.78-161.23,52.43-233.14,2.58a4.11,4.11,0,0,0-6.4,4.13c4.7,24.29,15.81,49.78,35.22,65,32.47,25.41,50.82-9.88,86.11-9.88,51.15,0,74.32,38.31,98.4,1.52C672.11,762.44,699,706.2,679,718.91Z" fill="#dba43d"/><path d="M693.47,666.35c14.12,40.94-1.41,74.12-1.41,74.12l3.7,20.51C719.74,703.52,693.47,666.35,693.47,666.35Z" fill="#dba43d"/><path d="M336.86,634.3c-2.35,2.27-4.64,4.39-6.52,6.16a4,4,0,0,0,.83,6.38c16.07,8.52,55.25,40.5,63.93,75.2a4,4,0,0,0,6.78,1.74c1.79-2,3.5-3.88,5.15-5.47h0c.34-.33.67-.66,1-1C393.26,667.14,353.11,641.91,336.86,634.3Z" fill="#fff"/><path d="M789.83,741.89l-2.09-9.52c-36.9,22.65-81.59,27.55-92,28.41l0,.2,2,8.43a4,4,0,0,0,4,3.07c19.48-.4,65.25-12.84,86.44-26.42A3.93,3.93,0,0,0,789.83,741.89Z" fill="#fff"/><path d="M443.59,628.24S414.06,665.56,407,718.31c10.79-10.48,16.4-20.3,19.49-23.52C426.38,687.27,427.52,663.82,443.59,628.24Z" fill="#dba43d"/><path d="M434,629.79a2.13,2.13,0,0,0,2.08-3.28c-16.3-16.22-22.43-28.3-30.73-46.42a3.62,3.62,0,0,0-6-.08C388.16,595.64,388,623.35,434,629.79Z" fill="#dba43d"/><path d="M434.69,633.77s-29.92-3.09-41.32-10.95c-10.17-7-14.73,13.32-2.32,14.43S415.4,639.51,434.69,633.77Z" fill="#dba43d"/><path d="M700.11,660.5a1.82,1.82,0,0,1-1.78-2.81c13.94-13.88,19.2-24.21,26.3-39.73a3.11,3.11,0,0,1,5.11-.07C739.36,631.27,739.48,655,700.11,660.5Z" fill="#dba43d"/><path d="M555.76,624.35c4.24,8.47,21.3,4.3,21.3,1.12,0-2.66-1.57-55.24-2.08-72.15a76.26,76.26,0,0,1-17.64-1C555.89,569.79,552.31,617.45,555.76,624.35Z" fill="#fff"/><circle cx="565.82" cy="610.59" r="7.41" fill="#c44e79"/><circle cx="565.82" cy="577.76" r="7.41" fill="#c44e79"/><path d="M546,591.9l.48-.31Z" fill="#fff"/><path d="M537.66,513.17c0-.72.1-1.11.1-1.11s-.06.39-.1,1.11Z" fill="#dbdbdb"/><path d="M546,591.9c-.38.24-.76.48-1.15.69C545.27,592.38,545.65,592.15,546,591.9Z" fill="#dbdbdb"/><path d="M547.05,591.2l-.54.39Z" fill="#dbdbdb"/><path d="M483.12,525.18c.27,5.5,8.21,17.75,18.38,30.34a51.52,51.52,0,0,1,4.29-18.65A140.38,140.38,0,0,1,496.31,517C492,520.07,487.64,522.59,483.12,525.18Z" fill="#bfbfbf"/><path d="M537.76,497.94c-2.27.57-11.58-5.94-20-1.7A98.27,98.27,0,0,1,496.31,517a140.38,140.38,0,0,0,9.48,19.86c6-13.82,17.66-25.35,32-30.25Z" fill="#d45483"/><path d="M540.4,578.26c7.11-8.92,15.07-18,20.1-28.37-22.24-13.94-23.1-32.18-22.84-36.72,0-.72.1-1.11.1-1.11v-5.44c-14.31,4.9-26,16.43-32,30.25A156.16,156.16,0,0,0,540.4,578.26Z" fill="#de7ea1"/><path d="M566.76,553.41c-2.26-1.13-4.33-2.31-6.26-3.52-5,10.33-13,19.45-20.1,28.37,2,1.7,4.09,3.35,6.19,4.92v0c-2.1-1.57-4.16-3.22-6.19-4.92-1.3,1.64-2.58,3.28-3.81,4.92,1.23-1.64,2.51-3.28,3.81-4.92a156.16,156.16,0,0,1-34.61-41.39,51.52,51.52,0,0,0-4.29,18.65c40.21,49.79,47,34.61,46.33,34.27C559,569.56,566.76,553.41,566.76,553.41Z" fill="#fff"/><path d="M585.84,593a5.6,5.6,0,0,1-.55-.27A4,4,0,0,0,585.84,593Z" fill="#fff"/><path d="M586.43,593.21a5,5,0,0,1-.58-.2A5,5,0,0,0,586.43,593.21Z" fill="#fff"/><path d="M585.16,592.66c-.16-.09-.31-.19-.46-.29C584.85,592.47,585,592.57,585.16,592.66Z" fill="#fff"/><path d="M587,593.33a3.29,3.29,0,0,1-.43-.09A3.29,3.29,0,0,0,587,593.33Z" fill="#fff"/><path d="M588.29,593.29a3.45,3.45,0,0,1-.55.07A3.45,3.45,0,0,0,588.29,593.29Z" fill="#fff"/><path d="M587.57,593.36h0Z" fill="#fff"/><path d="M584.57,592.29l-.54-.41Z" fill="#fff"/><path d="M586.56,593.24l-.13,0Z" fill="#dbdbdb"/><path d="M587.17,593.35l-.18,0Z" fill="#dbdbdb"/><path d="M587.74,593.36h0Z" fill="#dbdbdb"/><path d="M584,591.88l0,0Z" fill="#dbdbdb"/><path d="M584.7,592.37l-.13-.08Z" fill="#dbdbdb"/><path d="M585.85,593h0Z" fill="#dbdbdb"/><path d="M585.29,592.73l-.13-.07Z" fill="#dbdbdb"/><path d="M625.08,549.31c-1.8-15.23-10.23-29.14-24.26-36.6-2.63,9.51-5.87,22.74-24,34.9,4.9,9.74,10,19.4,16.29,28.45A139,139,0,0,0,625.08,549.31Z" fill="#de7ea1"/><path d="M593.1,576.06c.5.71,1,1.42,1.49,2.12-.51-.7-1-1.41-1.49-2.12q-2.7,1.62-5.51,3.12,2.8-1.5,5.51-3.12c-6.3-9-11.39-18.71-16.29-28.45a90.73,90.73,0,0,1-10,5.8s9.94,21.92,16.93,37.73l-.28.18q.3.28.6.54l0,0,.54.41.13.08c.15.1.3.2.46.29l.13.07a5.6,5.6,0,0,0,.55.27h0a5,5,0,0,0,.58.2l.13,0a3.29,3.29,0,0,0,.43.09l.18,0h.57a3.45,3.45,0,0,0,.55-.07c9.78-2,23.79-13.74,36.11-27.21a53.25,53.25,0,0,0,.68-16.77A139,139,0,0,1,593.1,576.06Z" fill="#fff"/><path d="M617.59,498a16.6,16.6,0,0,0-15.83.65c-.25,1.37-.23,7.94-.94,14.06,14,7.46,22.46,21.37,24.26,36.6a193.92,193.92,0,0,0,21.57-29.53C636.87,514.8,628.61,512.09,617.59,498Z" fill="#d45483"/><path d="M646.65,519.78a193.92,193.92,0,0,1-21.57,29.53,53.25,53.25,0,0,1-.68,16.77c16.13-17.64,29.37-38.28,26.36-44.08C649.36,521.19,648,520.47,646.65,519.78Z" fill="#bfbfbf"/><path d="M436.13,643.19c-.43-.65-.88-1.27-1.32-1.91a209.15,209.15,0,0,0-12.09,23c1.49,1.87,3,3.76,4.42,5.65A165.56,165.56,0,0,1,436.13,643.19Z" fill="#d45483"/><path d="M424.54,628a151.45,151.45,0,0,0-31.25-27.08C394.4,612,402.87,622.83,424.54,628Z" fill="#d45483"/><path d="M430.26,635c-.51-.66-1-1.33-1.55-2-9.33-1.35-27.14-4.53-35.34-10.19-4.42-3-7.78-.92-9.15,2.54a163.88,163.88,0,0,1,14.68,12.53A93.18,93.18,0,0,0,430.26,635Z" fill="#d45483"/><path d="M663.8,661.06a4.53,4.53,0,0,1,5.86,5.86l-2,5.29a4.52,4.52,0,0,0,1.38,5.17l4.43,3.56a4.53,4.53,0,0,1-2.15,8l-5.61.87a4.53,4.53,0,0,0-3.78,3.79l-.87,5.61a4.53,4.53,0,0,1-8,2.14l-3.55-4.42a4.54,4.54,0,0,0-5.17-1.39L639,697.6a4.53,4.53,0,0,1-5.87-5.87l2.06-5.29a4.54,4.54,0,0,0-1.39-5.17l-4.42-3.55a4.53,4.53,0,0,1,2.14-8l5.61-.87a4.53,4.53,0,0,0,3.79-3.78l.87-5.61a4.53,4.53,0,0,1,8-2.15l3.56,4.43a4.52,4.52,0,0,0,5.17,1.38Z" fill="#fff"/><circle cx="651.39" cy="679.33" r="8.03" fill="#c44e79"/><path d="M662.24,626.7a2.77,2.77,0,0,1,2.73-1.31,2.74,2.74,0,0,1,2.3,2l1,3.33a2.77,2.77,0,0,0,2.61,2l3.47.07a2.77,2.77,0,0,1,2,4.67l-2.39,2.52a2.77,2.77,0,0,0-.41,3.25l1.68,3a2.77,2.77,0,0,1-3.07,4l-3.38-.8a2.77,2.77,0,0,0-3,1.26l-1.79,3a2.76,2.76,0,0,1-5-.64l-1-3.33a2.77,2.77,0,0,0-2.61-2l-3.47-.07a2.77,2.77,0,0,1-2-4.67l2.39-2.52a2.77,2.77,0,0,0,.41-3.25l-1.68-3a2.77,2.77,0,0,1,3.07-4l3.38.81a2.77,2.77,0,0,0,3-1.27Z" fill="#fff"/><circle cx="663.08" cy="640.19" r="4.91" fill="#c44e79"/></g></g></g></svg>