<svg xmlns="http://www.w3.org/2000/svg" width="1262.35" height="2195.18" viewBox="0 0 1262.35 2195.18"><title>2_girl_old hair_1</title><g id="Layer_2" data-name="Layer 2"><g id="Character_girl_hair_1-2" data-name="Character girl hair 1-2"><g id="_2_girl_old_hair_1" data-name="2_girl_old hair_1"><path d="M417.41,355.59s-3.57,123.26,55.21,152.21a11,11,0,0,0,15.53-12L486.73,477a1.26,1.26,0,0,1,2.34-.74c3.69,6.19,10.85,16.68,20.28,23.2,7.33,5.07,13.18,2.37,15.74-6.17,1.63-5.44-1.45-13.81,2.14-18.3,0,0-65.88-15.53-72.82-82.35C454.41,392.65,425.82,389.12,417.41,355.59Z" fill="#bfbfbf"/><path d="M758.29,359.47s1.18,120.09-57.6,149a11,11,0,0,1-15.54-12l1.43-18.82a1.26,1.26,0,0,0-2.34-.75c-3.69,6.2-10.86,16.69-20.28,23.21-7.33,5.07-13.18,2.36-15.74-6.18-1.63-5.44,1.45-13.8-2.15-18.29,0,0,70.58-18.83,74.81-80.24C720.88,395.47,749.88,393,758.29,359.47Z" fill="#bfbfbf"/><path d="M560.65,172.41c4.63,1.44,136.23-74.12,146.78,122.92,1.91,35.73,1.19,107.46-12.81,144.86-2.33,6.24,5.65,11.25,10.2,6.4,13.59-14.51,26.47-35.24,28.06-127.35,0,0,9.18-10.59,24,2.11,0,0,48-312.7-207.18-234.7,0,0-164.11-34.24-133.53,244.59,0,0,4.71-21.89,23.06-14.83,0,0-10.27,104.45,44.62,134.86a4.49,4.49,0,0,0,5.91-6.46c-17.7-25.31-43-76.19-19.47-207.46C487.23,142.76,560,172.21,560.65,172.41Z" fill="#eaeaea"/><path d="M447.74,222.64c-5.28,9.22-11.54,17.56-20.15,23.71-4.95,3.09-10.27-4.89-13.85-14-2.3,27.57-1.81,60.23,2.44,98.93,0,0,4.49-20.87,21.81-15.26A375.47,375.47,0,0,1,447.74,222.64Z" fill="#bfbfbf"/><path d="M744.59,233.35c-12.64,5-19.54-5.5-26-18.24,9.85,33.28,13.31,68.44,15,103.43,2.43-2.14,10.87-7.82,23.28,2.81,0,0,7.42-48.35.91-102.29C755,225.68,751,231,744.59,233.35Z" fill="#bfbfbf"/><path d="M656.65,142.76c-42.36-31-96,14.12-96,14.12-114.36-45.17-107.68,136.59-98.22,185C447.7,202.06,560,172.21,560.65,172.41c4.63,1.44,121.41-35.29,146.78,122.92,2.32,14.48.62,38-.81,63.13C731.89,251.19,696.23,171.79,656.65,142.76Z" fill="#bfbfbf"/><rect width="1262.35" height="2195.18" fill="none"/></g></g></g></svg>