<svg xmlns="http://www.w3.org/2000/svg" width="1262.35" height="2193.94" viewBox="0 0 1262.35 2193.94"><title>2_girl_shoes_4</title><g id="Layer_2" data-name="Layer 2"><g id="Layer_148" data-name="Layer 148"><g id="_2_girl_shoes_4" data-name="2_girl_shoes_4"><rect width="1262.35" height="2193.94" fill="none"/><polygon points="261.47 2158.59 267.82 2175.53 276.29 2162.82 261.47 2158.59" fill="#9e9e9e"/><polygon points="292.75 2163.23 302.63 2178.38 308.14 2164.14 292.75 2163.23" fill="#9e9e9e"/><polygon points="328.98 2159.93 338.87 2175.09 344.37 2160.84 328.98 2159.93" fill="#9e9e9e"/><polygon points="368.98 2150.05 378.87 2165.2 384.37 2150.96 368.98 2150.05" fill="#9e9e9e"/><polygon points="390.63 2116.64 406.88 2134.12 406.02 2117.55 390.63 2116.64" fill="#9e9e9e"/><polygon points="441.92 2065.35 458.18 2082.82 457.31 2066.25 441.92 2065.35" fill="#9e9e9e"/><polygon points="829 2168.47 822.65 2185.41 814.18 2172.71 829 2168.47" fill="#9e9e9e"/><polygon points="797.73 2173.11 787.84 2188.26 782.34 2174.02 797.73 2173.11" fill="#9e9e9e"/><polygon points="761.49 2169.82 751.6 2184.97 746.1 2170.72 761.49 2169.82" fill="#9e9e9e"/><polygon points="721.49 2159.93 711.6 2175.09 705.12 2149.06 721.49 2159.93" fill="#9e9e9e"/><polygon points="699.84 2126.52 683.59 2149.18 683.94 2116.12 699.84 2126.52" fill="#9e9e9e"/><polygon points="663.37 2079.46 647.12 2096.94 645.82 2073.88 663.37 2079.46" fill="#9e9e9e"/><path d="M324.53,2091.76s6.59-49.41,20.71-76.7c0,0,21.17-24.47,67.76,7.06,0,0-4.24,11.29-2.35,41.41l-33.41,35.29S333.47,2090.35,324.53,2091.76Z" fill="#fff"/><path d="M461,2045.18c-1.41-33.42-28.71-64.47-28.71-64.47-6.26,7.74-10.58,16.71-14.58,25.41-13.13,28.56-44.71,91.76-44.71,91.76-23.53-8-49.88-5.64-49.88-5.64-33.41,13.64-63.53,43.76-66.36,48.94s-2.35,14.58-2.35,14.58c36.71,30.12,120.94,5.18,129.41,0S413.94,2104,413.94,2104l13.65-20.71,3.76,21.18c10.36-8.47,29.65-37.18,30.12-40.47S461,2045.18,461,2045.18Z" fill="#a8588f"/><polygon points="413.94 2104 431.35 2104.47 427.59 2083.29 413.94 2104" fill="#5c1b1b"/><path d="M460.84,2042.76c-31.35,18.52-57.26,62.66-70.29,88.18a43.54,43.54,0,0,1-32.05,23.21c-95.83,14.94-101.74-13-101.74-13-2.82,5.17-2.35,14.58-2.35,14.58,36.71,30.12,120.94,5.18,129.41,0S413.94,2104,413.94,2104l13.65-20.71,3.76,21.18c10.36-8.47,29.65-37.18,30.12-40.47s-.47-18.82-.47-18.82C461,2044.37,460.9,2043.57,460.84,2042.76Z" fill="#fff"/><path d="M266.76,2138.47c-1.33,4.41,8.49,14.79,41.3,15.41,12.45.24,35.76-.94,47.53-5.64,0,0-65.95-1.46-63.53-18.36,1.41-9.88,26.35-31.53,26.35-31.53S271.35,2123.29,266.76,2138.47Z" fill="#d483ba"/><path d="M782.41,2090.82s-16.36-49.06-29.72-78.92c0,0-20.63-27.09-67.78,8.18,0,0,4.15,12.48,2,45.63l32.74,37.85S773.73,2089.44,782.41,2090.82Z" fill="#fff"/><path d="M641.07,2044.08c1.44-37.25,24.57-70.32,24.57-70.32,6.34,8.73,10.66,18.79,14.65,28.52,13,31.65,15.6,63.33,15.6,63.33,11.43,19.58,27.94,36.87,27.94,36.87,23.24-9,58.58-11.66,58.58-11.66,22.59,14.83,50.2,50.06,52.71,55.42s1.75,15.17,1.75,15.17c-35.72,32.19-116.26,8.3-124.45,3s-29.13-54.69-29.13-54.69l-13.46-22.24L667,2106.57c-10.31-9-25.89-38.07-26.36-41.69S641.07,2044.08,641.07,2044.08Z" fill="#a8588f"/><polygon points="683.29 2109.76 666.95 2106.57 669.83 2087.52 683.29 2109.76" fill="#9e9e9e"/><path d="M641.23,2041.4c31.61,20.12,52.33,69.71,64.9,96.83,6.07,13.09,17.6,22,31,23.91,91.51,13.32,98-15.9,98-15.9,2.51,5.35,1.75,15.17,1.75,15.17-35.72,32.19-118,10.32-124.45,3-25.3-28.45-29.13-54.69-29.13-54.69l-13.46-22.24L667,2106.57c-10.31-9-25.89-38.07-26.36-41.69s.48-20.8.48-20.8C641.1,2043.19,641.16,2042.29,641.23,2041.4Z" fill="#fff"/><path d="M825.7,2143.62c1.13,4.59-8.53,15.66-39.89,17.07-12,.54-34.44-.16-45.77-4.85,0,0,63.59-3,61.75-20.73-1.09-10.42-17.26-36.52-17.26-36.52S821.8,2127.75,825.7,2143.62Z" fill="#d483ba"/><path d="M358.5,2154.15s19-22.39,12.68-57c0,0,29.7-64.24,38.11-77.65,0,0,21.92,1.29,51.55,23.23,0,0-29.66,20.53-45.9,48.06,0,0-20.47,32.47-22.59,40.24C392.35,2131.06,374.71,2154.35,358.5,2154.15Z" fill="#edbf85"/><path d="M641.23,2041.4s23.41-18.53,45.68-23.32c0,0,26.05,46.64,36.92,84.4,0,0-8.89,39.87-2.54,54.7,0,0-15.83-10.08-29.31-41.72a230.22,230.22,0,0,0-38.85-62.25C648.55,2048,644.33,2043.69,641.23,2041.4Z" fill="#edbf85"/><path d="M718.83,2093.15a5.5,5.5,0,0,1-2.52-10.39c1.49-.77,37-18.83,64-13.2a5.5,5.5,0,0,1-2.25,10.77c-23.17-4.84-56.38,12-56.71,12.21A5.5,5.5,0,0,1,718.83,2093.15Z" fill="#6b385b"/><path d="M710.36,2075.15a5.5,5.5,0,0,1-3-10.15c1.36-.86,33.75-21.1,64.94-17.76a5.5,5.5,0,0,1-1.17,10.93c-27.43-2.93-57.58,15.93-57.88,16.12A5.51,5.51,0,0,1,710.36,2075.15Z" fill="#6b385b"/><path d="M701.89,2056.09a5.5,5.5,0,0,1-3.44-9.8c1.15-.92,28.77-22.62,65.67-17a5.5,5.5,0,0,1-1.65,10.87c-32.19-4.87-56.91,14.55-57.15,14.74A5.45,5.45,0,0,1,701.89,2056.09Z" fill="#6b385b"/><path d="M693.42,2036a5.5,5.5,0,0,1-3.06-10.08c1.25-.83,30.93-20.23,69.78-12.46a5.5,5.5,0,0,1-2.16,10.79c-34.24-6.86-61.26,10.65-61.53,10.83A5.46,5.46,0,0,1,693.42,2036Z" fill="#6b385b"/><path d="M381.11,2098.89a4.62,4.62,0,0,0,4.16-2.63,5,5,0,0,0-2.27-6.53c-1.34-.68-33.76-17-57.57-11.65a4.53,4.53,0,0,0-3.16,6,5.51,5.51,0,0,0,6.21,3.83c20.16-4.49,50.15,10.34,50.44,10.49A4.81,4.81,0,0,0,381.11,2098.89Z" fill="#6b385b"/><path d="M388,2082.86a4.71,4.71,0,0,0,4.05-2.34,5.21,5.21,0,0,0-1.66-7c-1.24-.8-31.45-20-59.92-16.67a4.72,4.72,0,0,0-3.89,5.88,5.7,5.7,0,0,0,6,4.64c24.7-2.89,52.54,14.54,52.82,14.71A4.76,4.76,0,0,0,388,2082.86Z" fill="#6b385b"/><path d="M395.2,2065.15a4.77,4.77,0,0,0,3.85-2,5.51,5.51,0,0,0-.86-7.43c-1.07-.9-27.33-22.57-61.7-16.79-2.78.47-4.46,3.32-3.75,6.34a5.77,5.77,0,0,0,6.25,4.59c29.57-4.93,52.87,13.95,53.1,14.14A4.8,4.8,0,0,0,395.2,2065.15Z" fill="#6b385b"/><path d="M402.7,2045.57a5,5,0,0,0,4.23-2.46,5.87,5.87,0,0,0-1.43-7.7c-1.17-.85-29.78-21.22-66.64-12.92-2.8.63-4.38,3.69-3.54,6.81s3.76,5.08,6.53,4.47c32-7.15,57.8,10.72,58,10.9A4.83,4.83,0,0,0,402.7,2045.57Z" fill="#6b385b"/></g></g></g></svg>