<svg xmlns="http://www.w3.org/2000/svg" width="1262.35" height="2193.94" viewBox="0 0 1262.35 2193.94"><title>2_girl_pants_2</title><g id="Layer_2" data-name="Layer 2"><g id="Layer_148" data-name="Layer 148"><g id="_2_girl_pants_2" data-name="2_girl_pants_2"><rect width="1262.35" height="2193.94" fill="none"/><polygon points="329.75 2160.51 329.75 2160.51 329.75 2160.51 329.75 2160.51" fill="none"/><path d="M469,885.18c-176.47,163.76-67.76,617.64-67.76,617.64-40.95,112.94-45.59,267.72-47.75,360-1.82,77.59-14.73,117.91-14.73,117.91s38,36.88,111.06-9.71c-.65-18.58-6.77-42.71-4.48-66.62C451.22,1843,464.18,1783,487.82,1726c43.51-104.93,2.36-204.13,2.36-204.13,22.58-168,84.17-394.66,84.64-394.48l57.94,397.31c24,111.53,21.18,432,21.18,432s69.18,40.94,118.59,5.64c-7.95-83.76-12.4-146.1-8.47-260.47,5.65-164.47-48-203.29-48-203.29,49.41-168,63.53-332.47,45.18-434.12C733,938.82,651.12,877.41,651.12,877.41,562.18,929.65,469,885.18,469,885.18Z" fill="#4899e6"/><path d="M374.24,1941.27c-6.81-212.25,42-428.51,45.1-442-29.1-141.58-26.39-269.22-19-351.41,8-89.23,23.23-145.72,23.38-146.28l5.79,1.57c-.15.56-15.22,56.66-23.21,145.41-7.38,81.87-10.06,209.08,19,350.14l.13.65-.15.64c-.52,2.22-52.06,223.81-45.1,441.1Z" fill="#327dc5"/><path d="M737.06,1927.82c0-2.22-4.26-223-6.35-281.59-2.07-58-41.17-138.25-41.57-139.06l-.48-1,.26-1.06c35.07-142.23,38.81-274.69,35.78-360.77-3.29-93.23-15-153.53-15.11-154.13l5.88-1.16c.12.6,11.92,61.37,15.22,155.08,3,86.25-.69,218.86-35.68,361.36,4.75,9.85,39.68,84.08,41.69,140.5,2.1,58.64,6.32,279.47,6.36,281.7Z" fill="#327dc5"/><path d="M651.12,877.41a182.59,182.59,0,0,1-25.58,12.45c21.59,45.55,58.51,94.17,110.23,100C700.48,914.45,651.12,877.41,651.12,877.41Z" fill="#3d8cd7"/><path d="M625.54,889.86c-3.77,1.48-7.54,2.84-11.28,4,13.66,33.07,32.66,62.6,62.33,85.29,19.31,15.6,41.39,21.81,64.58,22.75q-2.64-6.21-5.4-12.09C684.05,984,647.13,935.41,625.54,889.86Z" fill="#c7d0d9"/><path d="M494,894.08a175.62,175.62,0,0,1-25-8.9c-33.46,31.05-56.66,72.54-72.3,119.38C417.67,1003.72,463.94,990.18,494,894.08Z" fill="#3d8cd7"/><path d="M494,894.08c-30,96.1-76.31,109.64-97.28,110.48q-1.92,5.76-3.69,11.6c63.45,1.79,97.74-60.87,114-118.79C502.29,896.32,497.94,895.2,494,894.08Z" fill="#c7d0d9"/><path d="M593,1074.25l-8.89-149.54-28.94,1.41s-2.16,74.2,2,147.06c.93,16.46,2.18,32.86,3.85,48.32q6.74,3.09,13.89,5.9a93.76,93.76,0,0,0,20.92-6.15Z" fill="#c7d0d9"/><path d="M654,1901.49c-10.54,22.51-3.67,51.41,0,55.22,0,0,69.18,40.94,118.59,5.64,5.65-8.11,1.41-48.35-4.64-52.3C729.57,1919,689.1,1919.4,654,1901.49Z" fill="#c7d0d9"/><path d="M348.89,1927.64c-12.24,11.77-14.36,45.65-10.13,53.07,0,0,38,36.88,111.06-9.71,4.43-17.09,2-37.56-5-56.24C413.94,1940.47,365,1933.42,348.89,1927.64Z" fill="#c7d0d9"/><path d="M682.18,1054.59c-93.18,55.06-177.89,18.35-218.83-7.06.46,1.13,40.78,52.16,111.47,79.87C600.29,1123.76,652.15,1095.67,682.18,1054.59Z" fill="#327dc5"/><path d="M466.09,1506.46c-12.92,3.66-25.58.27-33.72-3.08a4.07,4.07,0,0,0-5.24,5.42c14.23,32.07,32.63,17.32,43.22,4.09A4.06,4.06,0,0,0,466.09,1506.46Z" fill="#327dc5"/><path d="M652.17,1516.06c20.46,28.51,35.47,10.32,43.14-4.79a4.05,4.05,0,0,0-5.48-5.42c-11.9,6.2-25,5.46-33.64,3.84A4.06,4.06,0,0,0,652.17,1516.06Z" fill="#327dc5"/><path d="M671.75,896.3c-12.28-12.62-20.63-18.89-20.63-18.89C562.18,929.65,469,885.18,469,885.18a222.1,222.1,0,0,0-18,18.89C480.46,919.77,574.47,959.86,671.75,896.3Z" fill="#321818"/><path d="M547.3,902.66c-.07,9.37.37,18.74.16,28.12A204.74,204.74,0,0,0,592.55,928c-1-9.31-2.46-18.8-3.38-28A201,201,0,0,1,547.3,902.66Z" fill="#fff"/><path d="M493.39,893.92c-3,8.22-5.57,16.57-8.05,24.87,4.37,1.48,9,2.91,13.91,4.24a247.67,247.67,0,0,1,7.07-25.81C501.64,896.17,497.31,895,493.39,893.92Z" fill="#37b7e1"/><path d="M614.44,893.83c4.29,8.25,7.26,17,10.43,25.78q7.13-2.5,14.33-5.65c-3.26-8.59-7-16.91-10.61-25.33Q621.5,891.57,614.44,893.83Z" fill="#37b7e1"/><path d="M414.94,1150.59S494,1153.41,542,1192.94C542,1192.94,502.47,1130.82,414.94,1150.59Z" fill="#c7d0d9"/><path d="M407.88,1197.18s79.06-18.36,120,26.82C527.88,1224,424.82,1200,407.88,1197.18Z" fill="#c7d0d9"/><path d="M424.82,1245.18s57.89-4.24,86.12,19.76Z" fill="#c7d0d9"/><path d="M731.18,1153.41s-79.06,2.83-127.06,42.35C604.12,1195.76,643.65,1133.65,731.18,1153.41Z" fill="#c7d0d9"/><path d="M738.24,1200s-79.06-18.35-120,26.82C618.24,1226.82,721.29,1202.82,738.24,1200Z" fill="#c7d0d9"/><path d="M721.29,1248s-57.88-4.24-86.11,19.76Z" fill="#c7d0d9"/></g></g></g></svg>