<svg xmlns="http://www.w3.org/2000/svg" width="1262.35" height="2193.94" viewBox="0 0 1262.35 2193.94"><title>2_girl_hair_7</title><g id="Layer_2" data-name="Layer 2"><g id="Layer_148" data-name="Layer 148"><g id="_2_girl_hair_7" data-name="2_girl_hair_7"><rect width="1262.35" height="2193.94" fill="none"/><path d="M715.2,146.68c21.62,8.61,54.69-10,52.33-11.5C731.18,134.71,666.94,76.94,637,70.66c-18-3.76-48.16.37-65.73,10.51-29.1-14.21-64.72-14.62-94-.72-36.73,17.42-63.82,55.42-104,61.54a99.37,99.37,0,0,0,39.88,16.55C388.7,185,328.12,274.94,392.35,384c2.12-14.12,1.36-13.26,7.06-30.35,5.65,50.11,30.18,62.53,48.18,106.53A28.19,28.19,0,0,1,448.75,475c9.53-2.66,25.49-24,25.49-24-14.62-14.71-31.36-35.29-34.59-55.77-3-19.29-.41-37.11.58-56.64a129.61,129.61,0,0,0,20.66,21.86c-17.88-41-25.83-133.22,22.87-170.27-10.41,16.91-10.69,26.95-10.53,46.81,22.18-14,50.19-24.4,61.36-53.17,0,23.3-7.94,47.29-6.92,47a88.2,88.2,0,0,0,51.51-40.54c.94,17.9,10.47,33.78,35.88,46.48-2-15.42-7.06-36.62-6.19-52.14,8.93,20.8,18.89,39.44,51.72,52.14-2.16-10-15.74-41.48-13.49-47.11,7.86,7.11,86.9,81.35,30.43,172.17,20.71-7.06,22.12-10.35,32-19.76.94,41.88-4.24,63.06-18.82,87.53,2.69,8.15,7.9,14.12,14.52,19.58.58-21.34,21.53-42.45,33.48-65.23,10.74-20.49,12.91-43.61,8.45-47.69,6.27,5.74,11.32,12,12.72,20.4C805.65,229.41,722.5,149.52,715.2,146.68Z" fill="#ff8585"/><path d="M423.41,363.88C392.71,314.82,387.14,260,387.14,260c-11,36.84-9.12,75.95-1.44,111.91,2.06,4,4.26,8,6.65,12.11,2.12-14.12,1.36-13.26,7.06-30.35,5.65,50.11,30.18,62.53,48.18,106.53A28.19,28.19,0,0,1,448.75,475c9.53-2.66,25.49-24,25.49-24-14.62-14.71-31.36-35.29-34.59-55.77-3-19.29-.41-37.11.58-56.64a129.61,129.61,0,0,0,20.66,21.86c-16.41-37.65-24.46-118.46,12-160.12C436.24,229.6,413.89,319.12,423.41,363.88Z" fill="#d15656"/><path d="M718.59,343.18c5-39-6.12-83.06-26-111-9.43-10.29-20.34-19.11-31.45-27.72,22.83,27.1,60,87.31,16.39,157.42,20.71-7.06,22.12-10.35,32-19.76.94,41.88-4.24,63.06-18.82,87.53,2.69,8.15,7.9,14.12,14.52,19.58.58-21.34,21.53-42.45,33.48-65.23,10.74-20.49,12.91-43.61,8.45-47.69,4.79,4.38,8.86,9.09,11.15,14.8-2.33-32.88-15.58-64.35-32.72-91.93C733.59,287.18,729.59,316.18,718.59,343.18Z" fill="#d15656"/><path d="M613.59,157.18c-9,15-8.53,37.17-7.12,56-14.12-21.18-25.41-42.83-24.88-60a119.43,119.43,0,0,1-43,56c3-18,3.88-24.24,6-53-15,20-34.12,40.53-59.06,52.29,4-16,11.29-32.47,25.06-47.29-9.8,9.1-19.1,18.69-26.9,29.11l.07,0c-10.41,16.91-10.69,26.95-10.53,46.81,22.18-14,50.19-24.4,61.36-53.17,0,23.3-7.94,47.29-6.92,47a88.2,88.2,0,0,0,51.51-40.54c.94,17.9,10.47,33.78,35.88,46.48-2-15.42-7.06-36.62-6.19-52.14,8.93,20.8,18.89,39.44,51.72,52.14-.07-.3-.14-.62-.23-.95C637.36,215.15,617.29,188.24,613.59,157.18Z" fill="#d15656"/><path d="M472.82,97.41C484.35,115.17,500,126,529.29,138.35c0,0-53.64,8.47-80.47-21.17Z" fill="#ffc2c2"/><path d="M626.71,140.47s42.35-13.76,49.76-38.12l25.41,15.89S673.29,155.29,626.71,140.47Z" fill="#ffc2c2"/></g></g></g></svg>