<svg xmlns="http://www.w3.org/2000/svg" width="1262.35" height="2193.94" viewBox="0 0 1262.35 2193.94"><title>2_girl_face_2</title><g id="Layer_2" data-name="Layer 2"><g id="Layer_148" data-name="Layer 148"><g id="_2_girl_face_2" data-name="2_girl_face_2"><rect width="1262.35" height="2193.94" fill="none"/><path d="M454.8,367.69c-23.66,8.42-48.52-23.67-34.88-39,8.64-9.72,25,7.12,29.22,11.79l-2.4-11.57s-13.86-31.88-33-20.74-14.43,38-7.48,51.47,30.73,41.19,51.36,21.59Z" fill="#ca8760"/><path d="M419.92,328.69c-13.64,15.33,11.22,47.42,34.88,39l-5.66-27.21C444.92,335.81,428.56,319,419.92,328.69Z" fill="#b36b40"/><path d="M692.23,369.62c23.51,8.8,48.89-22.88,35.51-38.43-8.48-9.85-25.12,6.71-29.41,11.32L700.92,331s14.38-31.64,33.34-20.2,13.81,38.24,6.64,51.59-31.39,40.69-51.7,20.76Z" fill="#ca8760"/><path d="M727.74,331.19c13.38,15.55-12,47.23-35.51,38.43l6.1-27.11C702.62,337.9,719.26,321.34,727.74,331.19Z" fill="#b36b40"/><path d="M567.9,137.65c-141.7,1.41-132.35,177.17-133.07,179.29l1.44,54.35s-1.89,62.81,54,88.95c46.75,21.88,82,19.76,82,19.76s35.25,2.12,82-19.76c55.84-26.14,53.95-88.95,53.95-88.95l1.44-54.35c-.72-2.12,8.63-177.88-133.07-179.29Z" fill="#e0a07b"/></g></g></g></svg>