<svg xmlns="http://www.w3.org/2000/svg" width="1262.35" height="2193.94" viewBox="0 0 1262.35 2193.94"><title>2_girl_shoes_1</title><g id="Layer_2" data-name="Layer 2"><g id="Layer_148" data-name="Layer 148"><g id="_2_girl_shoes_1" data-name="2_girl_shoes_1"><rect width="1262.35" height="2193.94" fill="none"/><polygon points="261.47 2158.59 267.82 2175.53 276.29 2162.82 261.47 2158.59"/><polygon points="292.75 2163.23 302.63 2178.38 308.14 2164.14 292.75 2163.23"/><polygon points="328.98 2159.93 338.87 2175.09 344.37 2160.84 328.98 2159.93"/><polygon points="368.98 2150.05 378.87 2165.2 384.37 2150.96 368.98 2150.05"/><polygon points="390.63 2116.64 406.88 2134.12 406.02 2117.55 390.63 2116.64"/><polygon points="441.92 2065.35 458.18 2082.82 457.31 2066.25 441.92 2065.35"/><polygon points="829 2168.47 822.65 2185.41 814.18 2172.71 829 2168.47"/><polygon points="797.73 2173.11 787.84 2188.26 782.34 2174.02 797.73 2173.11"/><polygon points="761.49 2169.82 751.6 2184.97 746.1 2170.72 761.49 2169.82"/><polygon points="721.49 2159.93 711.6 2175.09 705.12 2149.06 721.49 2159.93"/><polygon points="699.84 2126.52 683.59 2144 683.94 2110.94 699.84 2126.52"/><polygon points="663.37 2079.46 647.12 2096.94 645.82 2073.88 663.37 2079.46"/><path d="M324.53,2091.76s6.59-49.41,20.71-76.7c0,0,21.17-24.47,67.76,7.06,0,0-4.24,11.29-2.35,41.41l-33.41,35.29S333.47,2090.35,324.53,2091.76Z" fill="#fff"/><path d="M323.12,2096.24a4,4,0,0,1-2.75-6.91c1-.95,22.79-21.07,61.81-21.12-15.14-11.14-37.72-26.75-46.86-29a4,4,0,0,1,1.94-7.76c15.7,3.93,58.49,37,60.31,38.37a4,4,0,0,1-2.9,7.14c-43.76-4.92-68.56,18-68.8,18.22A4,4,0,0,1,323.12,2096.24Z"/><path d="M373,2101.88a4,4,0,0,1-3.22-1.62c-18.76-25.47-42.66-34.78-42.9-34.87a4,4,0,0,1-.37-7.32c2.06-1,50.85-25.3,80.39-28.63a4,4,0,1,1,.9,8c-21.53,2.43-55.32,17.29-70.23,24.25a119,119,0,0,1,38.65,33.87,4,4,0,0,1-.85,5.59A3.94,3.94,0,0,1,373,2101.88Z"/><path d="M335.83,2037.88a4,4,0,0,1-1.88-7.53c1.33-.71,33.17-17.15,74.87-.66a4,4,0,0,1-2.94,7.44c-38.31-15.14-67.89.13-68.18.29A4.07,4.07,0,0,1,335.83,2037.88Z"/><path d="M461,2045.18c-1.41-33.42-28.71-64.47-28.71-64.47-6.26,7.74-10.58,16.71-14.58,25.41-13.13,28.56-16.06,57.41-16.06,57.41-11.71,18.12-28.65,34.35-28.65,34.35-23.53-8-49.88-5.64-49.88-5.64-33.41,13.64-63.53,43.76-66.36,48.94s-2.35,14.58-2.35,14.58c36.71,30.12,120.94,5.18,129.41,0S413.94,2104,413.94,2104l13.65-20.71,3.76,21.18c10.36-8.47,29.65-37.18,30.12-40.47S461,2045.18,461,2045.18Z" fill="#d15252"/><polygon points="413.94 2104 431.35 2104.47 427.59 2083.29 413.94 2104" fill="#5c1b1b"/><path d="M460.84,2042.76c-31.35,18.52-57.26,62.66-70.29,88.18a43.54,43.54,0,0,1-32.05,23.21c-95.83,14.94-101.74-13-101.74-13-2.82,5.17-2.35,14.58-2.35,14.58,36.71,30.12,120.94,5.18,129.41,0S413.94,2104,413.94,2104l13.65-20.71,3.76,21.18c10.36-8.47,29.65-37.18,30.12-40.47s-.47-18.82-.47-18.82C461,2044.37,460.9,2043.57,460.84,2042.76Z" fill="#833535"/><path d="M266.76,2138.47c-1.33,4.41,8.49,14.79,41.3,15.41,12.45.24,35.76-.94,47.53-5.64,0,0-65.95-1.46-63.53-18.36,1.41-9.88,26.35-31.53,26.35-31.53S271.35,2123.29,266.76,2138.47Z" fill="#ed7676"/><path d="M782.41,2090.82s-16.36-49.06-29.72-78.92c0,0-20.63-27.09-67.78,8.18,0,0,4.15,12.48,2,45.63l32.74,37.85S773.73,2089.44,782.41,2090.82Z" fill="#fff"/><path d="M778.74,2094.3a4,4,0,0,0,2.72-1.74,4.52,4.52,0,0,0-.77-6c-1.09-.87-24.89-19.47-63.88-14.17,13.86-14.14,34.62-34.14,43.48-37.84a4.57,4.57,0,0,0,2.35-5.67,3.91,3.91,0,0,0-5.18-2.53c-15.25,6.36-54.27,48.09-55.92,49.86a4.59,4.59,0,0,0-.69,5.22,3.91,3.91,0,0,0,4.48,2.1c43.19-11.35,70.32,9.78,70.59,10A3.7,3.7,0,0,0,778.74,2094.3Z"/><path d="M730,2107.31a4.09,4.09,0,0,0,3-2.2c15.69-29.92,38.36-43.21,38.59-43.34a4.51,4.51,0,0,0,2.16-4.16,4.26,4.26,0,0,0-2.61-3.78c-2.16-.84-53.82-20.68-84.17-20.38a4.43,4.43,0,0,0,.1,8.84c22.12-.24,57.84,11.38,73.49,16.89a128.1,128.1,0,0,0-34.54,41.76,4.46,4.46,0,0,0,1.51,5.87A3.77,3.77,0,0,0,730,2107.31Z"/><path d="M759.64,2033.2a4.11,4.11,0,0,0,3.28-2.78,4.51,4.51,0,0,0-2.27-5.68c-1.41-.59-35.32-14.43-75.56,9.24a4.61,4.61,0,0,0-1.63,6,4,4,0,0,0,5.57,1.77c36.9-21.73,68.38-9,68.69-8.82A3.67,3.67,0,0,0,759.64,2033.2Z"/><path d="M641.07,2044.08c1.44-37.25,24.57-70.32,24.57-70.32,6.34,8.73,10.66,18.79,14.65,28.52,13,31.65,15.6,63.33,15.6,63.33,11.43,19.58,27.94,36.87,27.94,36.87,23.24-9,58.58-11.66,58.58-11.66,22.59,14.83,50.2,50.06,52.71,55.42s1.75,15.17,1.75,15.17c-35.72,32.19-116.26,8.3-124.45,3s-29.13-54.69-29.13-54.69l-13.46-22.24L667,2106.57c-10.31-9-25.89-38.07-26.36-41.69S641.07,2044.08,641.07,2044.08Z" fill="#d15252"/><polygon points="683.29 2109.76 666.95 2106.57 669.83 2087.52 683.29 2109.76" fill="#5c1b1b"/><path d="M641.23,2041.4c31.61,20.12,52.33,69.71,64.9,96.83,6.07,13.09,17.6,22,31,23.91,91.51,13.32,98-15.9,98-15.9,2.51,5.35,1.75,15.17,1.75,15.17-35.72,32.19-118,10.32-124.45,3-25.3-28.45-29.13-54.69-29.13-54.69l-13.46-22.24L667,2106.57c-10.31-9-25.89-38.07-26.36-41.69s.48-20.8.48-20.8C641.1,2043.19,641.16,2042.29,641.23,2041.4Z" fill="#833535"/><path d="M825.7,2143.62c1.13,4.59-8.53,15.66-39.89,17.07-12,.54-34.44-.16-45.77-4.85,0,0,63.59-3,61.75-20.73-1.09-10.42-17.26-36.52-17.26-36.52S821.8,2127.75,825.7,2143.62Z" fill="#ed7676"/></g></g></g></svg>