<svg xmlns="http://www.w3.org/2000/svg" width="1262.35" height="2193.94" viewBox="0 0 1262.35 2193.94"><title>2_girl_shoes_6</title><g id="Layer_2" data-name="Layer 2"><g id="Layer_148" data-name="Layer 148"><g id="_2_girl_shoes_6" data-name="2_girl_shoes_6"><rect width="1262.35" height="2193.94" fill="none"/><polygon points="266.71 2166 277.29 2186.12 286.82 2172.35 266.71 2166" fill="#989999"/><polygon points="303.88 2171.65 314.47 2191.76 324 2178 303.88 2171.65" fill="#989999"/><polygon points="344.35 2158.94 360.35 2180.71 364.47 2165.29 344.35 2158.94" fill="#989999"/><polygon points="374.47 2145.41 389.53 2160.94 391.76 2141.76 374.47 2145.41" fill="#989999"/><polygon points="406 2112.47 421.06 2128 423.29 2108.82 406 2112.47" fill="#989999"/><polygon points="430.94 2087.06 446 2102.59 448.24 2083.41 430.94 2087.06" fill="#989999"/><polygon points="446.47 2062.59 461.53 2078.12 463.76 2058.94 446.47 2062.59" fill="#989999"/><path d="M352.59,2094.18c20.78-19.92,37.8-42.83,47.84-69.39a57.09,57.09,0,0,1-8.08,6s-35.29-20.47-52.23-4.23c0,0-27.53,48.7-35.3,58.59a27.86,27.86,0,0,1-5.57,4.78C316.84,2092.28,335.14,2087.75,352.59,2094.18Z" fill="#a6b06d"/><path d="M434.71,1989.18s-19.84,23.22-34.28,35.61c-10,26.56-27.06,49.47-47.84,69.39-17.45-6.43-35.75-1.9-53.34-4.22-14.4,10.21-46.75,26.64-43.13,61.57,0,0,45.17,24.71,89.64,4.94s72.71-77.65,72.71-77.65,31.1-20.74,42.84-41.92C452.8,2006.32,434.71,1989.18,434.71,1989.18Z" fill="#356083"/><path d="M304.82,2085.18s21.8,0,37.9,4.29a12.16,12.16,0,0,0,13.2-4.92l33.54-49.47a74.86,74.86,0,0,1,6.35-8.07L434,1984.94s7.06.71,7.06,10.59l-32.69,32.13a119.87,119.87,0,0,0-15.9,19.28l-31.06,46.83a16.23,16.23,0,0,1-17.57,6.76c-15.12-3.89-41.25-9.83-49.6-6.88C294.24,2093.65,294.24,2088,304.82,2085.18Z" fill="#f1f2f2"/><path d="M370.47,2067.53s28.24,14.12,33.18,38.12l11.29-14.83s-18.35-31.76-32.47-35.29Z" fill="#f1f2f2"/><path d="M353.53,2092.94s28.23,14.12,33.18,38.12L398,2116.24s-18.35-31.77-32.47-35.3Z" fill="#f1f2f2"/><path d="M386,2044.94s28.24,14.12,33.18,38.12l15.53-9.18s-22.59-37.41-36.71-40.94Z" fill="#f1f2f2"/><polygon points="414.94 2120.47 395.18 2116.94 412.12 2094.35 419.88 2100.71 414.94 2120.47" fill="#adadad"/><path d="M465.06,2056.94a117.73,117.73,0,0,0-3.75-20c-11.74,21.18-42.84,41.92-42.84,41.92s-28.23,57.89-72.71,77.65-89.64-4.94-89.64-4.94a118.16,118.16,0,0,1,6.35,15.53c2.12,7.06,45.18,23.29,96.71,2.12,0,0,33.17-14.12,55.06-64.94l.7,16.23S466.65,2073.1,465.06,2056.94Z" fill="#f1f2f2"/><path d="M362.7,2082.74a2.55,2.55,0,0,1-1.16-.29c-27.09-14.23-47.47-9.71-47.68-9.66a2.5,2.5,0,0,1-1.13-4.87c.9-.21,22.41-5,51.14,10.1a2.5,2.5,0,0,1-1.17,4.72Z" fill="#f1f2f2"/><path d="M362,2080.62a2.51,2.51,0,0,1-2.15-1.22c-.15-.25-15.17-25.12-34.19-27.75a2.5,2.5,0,0,1-.73-4.73c1.57-.74,38.63-18,63.31-9.28a2.5,2.5,0,1,1-1.66,4.72c-16.87-6-41.22,1.81-52.85,6.3,17.56,6.85,29.84,27.2,30.42,28.18a2.51,2.51,0,0,1-.87,3.43A2.57,2.57,0,0,1,362,2080.62Z" fill="#f1f2f2"/><path d="M311.18,2073.56a2.36,2.36,0,0,1-.82-.14,2.5,2.5,0,0,1-1.55-3.17c6.78-19.72,43.67-17.19,58.66-15.29-16.1-19-32.2-18.85-32.92-18.81h-.07a2.5,2.5,0,0,1-.1-5c.9,0,22-.45,40.94,25.74a2.49,2.49,0,0,1-2.47,3.92c-14.53-2.64-53.52-5.79-59.31,11.06A2.5,2.5,0,0,1,311.18,2073.56Z" fill="#f1f2f2"/><polygon points="828.1 2166.81 817.51 2186.93 807.98 2173.16 828.1 2166.81" fill="#989999"/><polygon points="790.92 2172.45 780.34 2192.57 770.81 2178.81 790.92 2172.45" fill="#989999"/><polygon points="750.45 2159.75 734.45 2181.51 730.34 2166.1 750.45 2159.75" fill="#989999"/><polygon points="720.34 2146.22 705.28 2161.75 703.04 2142.57 720.34 2146.22" fill="#989999"/><polygon points="688.81 2113.28 673.75 2128.81 671.51 2109.63 688.81 2113.28" fill="#989999"/><polygon points="663.87 2087.87 648.81 2103.4 646.57 2084.22 663.87 2087.87" fill="#989999"/><polygon points="648.34 2063.4 633.28 2078.93 631.04 2059.75 648.34 2063.4" fill="#989999"/><path d="M742.22,2095c-20.78-19.91-37.8-42.82-47.84-69.38a57.65,57.65,0,0,0,8.07,6s35.3-20.47,52.24-4.23c0,0,27.53,48.7,35.29,58.58a27.64,27.64,0,0,0,5.58,4.79C778,2093.09,759.67,2088.55,742.22,2095Z" fill="#a6b06d"/><path d="M660.1,1990s19.84,23.22,34.28,35.62c10,26.56,27.06,49.47,47.84,69.38,17.45-6.43,35.75-1.89,53.34-4.21,14.4,10.21,46.74,26.64,43.13,61.57,0,0-45.18,24.7-89.65,4.94s-72.7-77.65-72.7-77.65-31.11-20.74-42.84-41.92C642,2007.12,660.1,1990,660.1,1990Z" fill="#356083"/><path d="M790,2086s-21.79,0-37.9,4.3a12.15,12.15,0,0,1-13.19-4.92l-33.55-49.47a72.6,72.6,0,0,0-6.34-8.07l-38.19-42.07s-7.06.71-7.06,10.59l32.69,32.13a120.94,120.94,0,0,1,15.9,19.28l31.06,46.83a16.23,16.23,0,0,0,17.57,6.76c15.12-3.89,41.25-9.83,49.6-6.88C800.57,2094.46,800.57,2088.81,790,2086Z" fill="#f1f2f2"/><path d="M724.34,2068.34s-28.24,14.12-33.18,38.12l-11.29-14.83s18.35-31.76,32.47-35.29Z" fill="#f1f2f2"/><path d="M741.28,2093.75s-28.24,14.12-33.18,38.12L696.81,2117s18.35-31.76,32.47-35.29Z" fill="#f1f2f2"/><path d="M708.81,2045.75s-28.24,14.12-33.18,38.12l-15.53-9.18s22.59-37.41,36.71-40.94Z" fill="#f1f2f2"/><polygon points="679.87 2121.28 699.63 2117.75 682.69 2095.16 674.92 2101.51 679.87 2121.28" fill="#adadad"/><path d="M629.75,2057.75a117.73,117.73,0,0,1,3.75-20c11.73,21.18,42.84,41.92,42.84,41.92s28.23,57.88,72.7,77.65,89.65-4.94,89.65-4.94a116.66,116.66,0,0,0-6.35,15.53c-2.12,7.06-45.18,23.29-96.71,2.11,0,0-19.7-6.67-36.62-27.38-7.68-9.4-11.61-21.69-18.44-37.56l-.7,16.24S628.16,2073.91,629.75,2057.75Z" fill="#f1f2f2"/><path d="M732.1,2083.54a2.51,2.51,0,0,0,1.16-.28c27.1-14.23,47.48-9.71,47.68-9.66a2.5,2.5,0,1,0,1.14-4.87c-.9-.21-22.41-5-51.14,10.1a2.51,2.51,0,0,0-1.05,3.38A2.48,2.48,0,0,0,732.1,2083.54Z" fill="#f1f2f2"/><path d="M732.8,2081.43a2.51,2.51,0,0,0,2.16-1.23c.15-.25,15.17-25.12,34.19-27.74a2.5,2.5,0,0,0,.72-4.74c-1.56-.74-38.62-18-63.31-9.27a2.5,2.5,0,0,0,1.67,4.72c16.87-6,41.22,1.8,52.85,6.29-17.56,6.86-29.84,27.21-30.42,28.19a2.51,2.51,0,0,0,2.14,3.78Z" fill="#f1f2f2"/><path d="M783.63,2074.37a2.56,2.56,0,0,0,.81-.14,2.5,2.5,0,0,0,1.55-3.18c-6.77-19.71-43.66-17.18-58.66-15.28,16.1-19,32.21-18.85,32.93-18.82h.07a2.5,2.5,0,0,0,.09-5c-.89,0-22-.46-40.93,25.74a2.5,2.5,0,0,0,2.47,3.92c14.53-2.64,53.51-5.79,59.31,11.06A2.49,2.49,0,0,0,783.63,2074.37Z" fill="#f1f2f2"/></g></g></g></svg>