<svg xmlns="http://www.w3.org/2000/svg" width="1262.35" height="2193.94" viewBox="0 0 1262.35 2193.94"><title>2_girl_drivers_4</title><g id="Layer_2" data-name="Layer 2"><g id="Layer_148" data-name="Layer 148"><g id="_2_girl_drivers_4" data-name="2_girl_drivers_4"><rect width="1262.35" height="2193.94" fill="none"/><path d="M1020,1725.46a40.09,40.09,0,0,0-14.63,4.72c32.9,183.85,66.34,367.14,69.34,369.72,6.06,5.21,11.37.57,11.37.57Z" fill="#ffe243"/><path d="M954.63,1354.34l-15.38,2.57s16.44,93.7,37.87,214.54a89,89,0,0,1,15.21-3.17Z" fill="#ffe243"/><path d="M977.12,1571.45c8.84,49.85,18.53,104.31,28.27,158.73a40.09,40.09,0,0,1,14.63-4.72l-27.69-157.18A89,89,0,0,0,977.12,1571.45Z" fill="#966944"/><path d="M961.29,1311.51l.05.27-6.71,42.56-15.38,2.57-22.42-36.38C929.66,1312.15,945.94,1308.26,961.29,1311.51Z" fill="#966944"/><path d="M939.08,1316.93l6.53,33.61,5.42-.18,4.77-33.86S947.37,1314.18,939.08,1316.93Z" fill="#c29d5d"/><path d="M1066.33,2063.37s30.07-108.55,103-98.46,87.35,76,73.09,118.63c-7.77,23.2-35,53.72-88.74,50.08-61.9-4.21-79-33.72-79-33.72Z" fill="#8ba641"/><path d="M1102.21,1996.48c12.29-12.82,31.92-20,56.8-4.48,17.55,10.92,30.78,28.13,33.46,59.07,1.61,18.64-5.11,42.55-24,62.82a52.35,52.35,0,0,1-39.3,16.88h-.26c-41.21-8.26-54.19-30.86-54.19-30.86l-8.4-36.53S1076.52,2025.7,1102.21,1996.48Z" fill="#966944"/><path d="M1160.68,2024.79a91.51,91.51,0,0,1,4.84,14,3.33,3.33,0,0,1-2.22,4c-16.42,5.2-57.75,18.56-81.24,28.72a3.34,3.34,0,0,1-4.66-2.85h0a3.37,3.37,0,0,1,1.35-2.9c20.53-15.37,61.26-35.07,77.47-42.67A3.32,3.32,0,0,1,1160.68,2024.79Z" fill="#6b4b31"/><path d="M1164.56,2080.25l-83.38,2.14a3,3,0,0,1-3.11-2.85h0a3,3,0,0,1,2.44-3.18l84.34-16.83a3,3,0,0,1,3.65,3,129.73,129.73,0,0,1-1,15A3.06,3.06,0,0,1,1164.56,2080.25Z" fill="#6b4b31"/><path d="M1161.14,2108.64c-21.43,1.73-61.68-9.47-80.46-16a3.21,3.21,0,0,1-2-2.89h0c-.14-2.09,1.4-3.72,3.11-3.29,28,7.2,62.15,7.42,80.06,6.91,1.68,0,3,1.76,2.76,3.74-.42,3.41-.83,6.7-1.14,8.94A2.78,2.78,0,0,1,1161.14,2108.64Z" fill="#6b4b31"/><path d="M1077.13,2054.14c28.95-39.49,53.53-52.7,59.71-55.57a2.66,2.66,0,0,1,2.8.34,61,61,0,0,1,7.12,6.82,2.69,2.69,0,0,1-.7,4.15c-13.66,7.48-42.28,24.59-64.84,47.72a2.68,2.68,0,0,1-4.61-1.69h0A2.68,2.68,0,0,1,1077.13,2054.14Z" fill="#6b4b31"/><path d="M1241,2042.83s-21.26-9.74-43.89-9.45c0,0-8.94-53.13-63.77-57.51C1133.38,1975.87,1218.48,1949.66,1241,2042.83Z" fill="#abcc50"/><path d="M949.72,1251.66c-21.66-3.38-40.8-19.2-55.51-36.36L888.35,1192l28.48,128.52c12.83-8.38,29.11-12.27,44.46-9Z" fill="#8ba641"/><path d="M949.72,1251.66h0L942,1215.41c-9.08-9.32-16.06-13.79-21.76-21.06,8.39,12.16,17.8,22.53,14,28.66-4.11,6.57-11,1.24-15-2.83-.14.37-30.69-28.6-30.85-28.17l5.86,23.29C908.92,1232.46,928.06,1248.28,949.72,1251.66Z" fill="#6d8233"/></g></g></g></svg>