<svg xmlns="http://www.w3.org/2000/svg" width="1262.35" height="2193.94" viewBox="0 0 1262.35 2193.94"><title>2_girl_hair_9</title><g id="Layer_2" data-name="Layer 2"><g id="Layer_148" data-name="Layer 148"><g id="_2_girl_hair_9" data-name="2_girl_hair_9"><rect width="1262.35" height="2193.94" fill="none"/><path d="M570.94,98.12C665,44.47,764.35,170.12,765.54,234c.19,10.16-4.56,22.43,3.57,28.61,10.73,8.14,25.17-5.06,38.68-5.09,10.43,0,19.36,8.36,23.2,18s3.67,20.25,3.45,30.58c16.42-13.13,43.36-10.48,56.84,5.61s11.18,42.79-4.88,56.36c-6.57,5.56-15.68,10.24-16.57,18.75-.46,4.44,1.59,8.7,3,12.93a51.78,51.78,0,0,1-9.25,49.39,53,53,0,0,1-47.43,17.78c6.51,15.31-.31,34.95-15,43.06s-35.11,3.56-44.86-10c-4.43-6.15-8-14.57-15.53-15.58,1.89,13.16-16.08,20.55-29.19,17.66S686.38,491,673,491.92c-5.21.37-10.09,3.5-13.44,7.6-6.74,8.25-20.2,4.65-21.21-6,0-.49-.07-1-.09-1.46-8,6.19-26.92,11.6-37,13.31-.7-12,2.06-20.77,1.12-28.41,0,0,40.35-5.35,70.88-29.06,17.49-13.58,29.8-34.58,32.89-59,0,0,42.08-8.56,39.76-58.87-.33-7.09-4.73-13.82-10.61-17.81s-14.5-5.55-25.55,4c0,0,4.28-52.24-31.36-96,0,0-71.11-55.71-109.6-27.48-38.11-28.23-103.06,21.83-103.06,21.83-35.29,43.76-31.05,96-31.05,96-21.18-14.12-31.89,10.88-31.89,10.88-9.88,48,36.12,66.77,36.12,66.77,9.18,76.23,99.53,87.94,99.53,87.94-.93,7.64.41,12.29-1,25-9.94-1.71-24-8.54-31.92-14.73,0,.12,0,.25,0,.37-.56,10.78-14.31,15.39-21.12,7-3.31-4.08-8.13-7.19-13.27-7.57-13.27-1-25.32,7.24-38.31,10.13s-30.77-4.5-28.9-17.67c-7.48,1-11,9.44-15.39,15.58-9.66,13.51-29.93,18.05-44.43,9.95s-21.26-27.75-14.81-43.06A51.19,51.19,0,0,1,273.17,394c1.45-4.22,3.48-8.49,3-12.93-.88-8.51-9.91-13.19-16.41-18.74-15.9-13.58-18.19-40.29-4.83-56.37s40-18.74,56.29-5.61c-.22-10.32-.38-21,3.42-30.57s12.64-18,23-18c13.39,0,27.69,13.24,38.31,5.09,8.06-6.18,4.12-11.64,3.54-28.61C377.88,181.76,448.82,43.06,570.94,98.12Z" fill="#d64727"/><path d="M568.82,192.76s16.59-40.47,58.94-39,73.77,67.94,78,121.58C705.76,275.29,691.29,180.71,568.82,192.76Z" fill="#9c341c"/><path d="M568.82,192.76s-27.53-50.35-67.06-30.58-62.82,69.35-64.23,114.53C437.53,276.71,474.24,175.41,568.82,192.76Z" fill="#9c341c"/><path d="M700.59,463.18c14-1,29,8,45,6,8-1,15-7,15-15l0-.15a8,8,0,0,1,9.47-9.57c20.32,4.71,40.6-1.71,50.56-23.28,8-16,6-32-5-46-8-9-20-4-28-11-2-1-2-7,0-10,20-17,16-43-3-58-23.27-17.46-52.06-13.49-75.48-.17a118.71,118.71,0,0,1,.67,20.23c11.05-9.53,19.68-7.95,25.55-4s10.28,10.72,10.61,17.81c2.32,50.31-39.76,58.87-39.76,58.87-3.09,24.42-15.4,45.42-32.89,59C642.76,471.65,602.41,477,602.41,477c.94,7.64-1.82,16.41-1.12,28.41,10-1.71,28.92-7.12,37-13.31,0,.49,0,1,.09,1.46,1,10.61,14.47,14.21,21.21,6a23.13,23.13,0,0,1,2.76-2.84,29.42,29.42,0,0,1-5.72-2.5,29.42,29.42,0,0,0,5.72,2.5A18.57,18.57,0,0,1,673,491.92a40.61,40.61,0,0,1,15,2.14C718.82,488.82,694.59,464.18,700.59,463.18Z" fill="#9c341c"/><path d="M427.59,291.18c-24-9-61-13-71,14-5,15,10,26,20,36,1,1,1,4,0,5-9,5-20,2-28,10-14,13-14,33-5,47,5.34,8.9,15.62,14.64,26.65,16.15a17.22,17.22,0,0,1,15.05,17.85,24.1,24.1,0,0,0,6.3,18c9.34,11.34,24.91,11.55,38.7,6.28a17.22,17.22,0,0,1,22.25,9.69,40.85,40.85,0,0,0,10.63,15.56,33.18,33.18,0,0,1,8-.44c5.14.38,10,3.49,13.27,7.57.28.34.58.65.88,1a22.76,22.76,0,0,0,14.29-4.61,22.76,22.76,0,0,1-14.29,4.61c7,7,19.7,2.36,20.24-8,0-.12,0-.25,0-.37,8,6.19,22,13,31.92,14.73,1.41-12.71.07-17.36,1-25,0,0-90.35-11.71-99.53-87.94,0,0-46-18.77-36.12-66.77,0,0,10.71-25,31.89-10.88a115.82,115.82,0,0,1,.43-17.87A20.37,20.37,0,0,1,427.59,291.18Z" fill="#9c341c"/><path d="M456.24,112.94s7.41,31.77,30.7,46.59c0,0-32.82-3.18-54-24.35C432.94,135.18,444.59,118.24,456.24,112.94Z" fill="#ff7066"/><path d="M668,164.82s23.29-21.17,27.53-40.23c0,0,21.18,20.12,24.35,26.47C719.88,151.06,691.29,162.71,668,164.82Z" fill="#ff7066"/></g></g></g></svg>