<svg xmlns="http://www.w3.org/2000/svg" width="1262.35" height="2193.94" viewBox="0 0 1262.35 2193.94"><title>2_girl_hair_5</title><g id="Layer_2" data-name="Layer 2"><g id="Layer_148" data-name="Layer 148"><g id="_2_girl_hair_5" data-name="2_girl_hair_5"><rect width="1262.35" height="2193.94" fill="none"/><path d="M374,381.18c.42-4.45-7.33-239.72,91.76-297.89,65-38.11,105.89-4.23,105.89-4.23S606.94,49.41,664.82,72c46.61,18.19,100.26,107.29,103.06,223.06,4.24,175.06-31.06,228.7-39.53,254.12,0,0-31.06-32.47-73.41-19.77l-52.23-16.94V477.18s93.17-15.53,105.88-90.36c0,0,42.35-14.11,39.53-50.82S710,316.24,710,316.24v-35.3s-84.71-49.41-98.82-91.76c0,0,50.82,86.11,87.53,101.64,0,0-116.47,8.47-142.59-129.88,0,0-98.83,32.47-121.41,152.47,0,0-22.59-21.17-32.47,8.47s19.76,64.94,35.29,66.36c0,0,2.82,72,100.23,88.94v33.88L471.41,528s-80.47-19.76-124.23,100.24c0,0-57.89,67.76-66.36,74.82l-28.23-35.3S361.29,515.29,374,381.18Z" fill="#2c613c"/><path d="M191.88,744s-159.53,166.59-1.41,319.06c0,0-45.18-77.65-24-136.94,0,0,5.65,159.53,125.65,183.53,0,0-59.3-117.18,1.41-197.65,0,0-5.65,49.41,35.29,74.82,0,0-24-53.64,25.42-90.35s98.82-73.41,104.47-107.29c0,0-39.53-42.36-31.06-94.59,0,0-160.24,151.76-177.18,134.82C250.47,829.41,211.65,809.65,191.88,744Z" fill="#2c613c"/><path d="M402.24,321.88c-6,18,2.53,38,13.64,51.32,3.66-36.07,5.41-65.44,5.41-65.44.06-.46.13-.91.19-1.38C414.75,305.1,407,307.56,402.24,321.88Z" fill="none"/><path d="M437.53,388.24s0,.29.06.83Z" fill="none"/><path d="M748.12,336c-1.46-18.94-11.57-23.6-21-23.67a483.37,483.37,0,0,1-2.51,66.34C736.26,370.91,749.75,357.24,748.12,336Z" fill="none"/><path d="M630.42,219c-11.55-16.83-19.24-29.86-19.24-29.86C614.45,199,621.51,209.18,630.42,219Z" fill="#224a2e"/><path d="M746.35,391.41c-9.53,68.83-54,118.59-54,118.59A491,491,0,0,0,724.6,378.67a75,75,0,0,1-16,8.15c-12.71,74.83-105.88,90.36-105.88,90.36v35.29l52.23,16.94c37.77-11.33,66.55,13.26,72.34,18.72C757.25,464.74,746.35,391.41,746.35,391.41Z" fill="#224a2e"/><path d="M421.48,306.38c7.19,1.38,13.23,7,13.23,7,22.58-120,121.41-152.47,121.41-152.47S439,166.92,421.48,306.38Z" fill="#224a2e"/><path d="M496.43,464.66a121.25,121.25,0,0,1-17.87-10.18c-36.09-25-40.48-59.61-41-65.41.52,8.32,3.82,77.37-25.74,150.83a91.56,91.56,0,0,1,47.27-13.11A59,59,0,0,1,471.41,528l17.47-4.46,48.88-12.48V477.18A164.84,164.84,0,0,1,496.43,464.66Z" fill="#224a2e"/><path d="M758,269.65c-77.29,4.23-156.71-105.89-156.71-105.89,2.12,53,31.77,89,31.77,89-48.71-14.83-76.94-91.77-76.94-91.77,26.12,138.35,142.59,129.88,142.59,129.88-22.43-9.49-50.13-45.33-68.29-71.78-8.91-9.86-16-20-19.24-29.86,0,0,7.69,13,19.24,29.86C660,251.77,710,280.94,710,280.94v35.3s8.26-4,17.11-3.91c-.56-17-1.93-26.8-1.93-26.8C751.65,286.59,758,269.65,758,269.65Z" fill="#224a2e"/><path d="M437.53,388.24c-6.12-.56-14.43-6.38-21.65-15-4.89,48.08-13.19,108.06-25.29,126.21C390.59,499.41,433.65,436.94,437.53,388.24Z" fill="#224a2e"/><path d="M427.65,694.59s-66.84,63.3-118.74,103.57c-140.46,179.06-16.79,311.49-16.79,311.49S232.82,992.47,293.53,912c0,0-5.65,49.41,35.29,74.82,0,0-24-53.64,25.42-90.35s98.82-73.41,104.47-107.29C458.71,789.18,419.18,746.82,427.65,694.59Z" fill="#224a2e"/><path d="M232.11,815a134,134,0,0,1-13.38-15.61c-39.59,52.78-55.08,107-55.08,107-2.83-19.76-1.41-57.88-1.41-57.88-54.08,115.2,4.41,188.31,25.5,209.55-9.45-18.11-39.23-81.6-21.27-131.9,0,0,5.65,159.53,125.65,183.53C174.08,1015.4,199.56,890.91,232.11,815Z" fill="#224a2e"/><path d="M460.12,97.41s5.64,46.59,40.94,72c0,0-40.94-11.29-64.94-49.41A88.1,88.1,0,0,1,460.12,97.41Z" fill="#3f8a55"/><path d="M630.94,165.18s53.65-14.12,72-52.24c0,0,14.12,22.59,16.94,33.88C719.88,146.82,654.94,175.06,630.94,165.18Z" fill="#3f8a55"/></g></g></g></svg>