<svg xmlns="http://www.w3.org/2000/svg" width="1262.35" height="2193.94" viewBox="0 0 1262.35 2193.94"><title>2_girl_shoes_3</title><g id="Layer_2" data-name="Layer 2"><g id="Layer_148" data-name="Layer 148"><g id="_2_girl_shoes_3" data-name="2_girl_shoes_3"><rect width="1262.35" height="2193.94" fill="none"/><polygon points="261.47 2161.59 267.82 2178.53 276.29 2165.82 261.47 2161.59" fill="#54917f"/><polygon points="292.75 2166.23 302.63 2181.38 308.14 2167.14 292.75 2166.23" fill="#54917f"/><polygon points="328.98 2162.93 338.87 2178.09 344.37 2163.84 328.98 2162.93" fill="#54917f"/><polygon points="368.98 2153.05 378.87 2168.2 384.37 2153.96 368.98 2153.05" fill="#54917f"/><polygon points="390.63 2119.64 406.88 2137.12 406.02 2120.55 390.63 2119.64" fill="#54917f"/><polygon points="441.92 2068.35 458.18 2085.82 457.31 2069.25 441.92 2068.35" fill="#54917f"/><path d="M324.53,2091.76s6.59-49.41,20.71-76.7c0,0,21.17-24.47,67.76,7.06,0,0-4.24,11.29-2.35,41.41l-33.41,35.29S333.47,2090.35,324.53,2091.76Z" fill="#fff"/><path d="M431.35,2104.47c.8-.66,1.66-1.44,2.56-2.32-1.21-1.63-2.49-3.2-3.81-4.71Z" fill="#d1a917"/><path d="M376.59,2102.18c1.75-1.95,1.2-5.54,1.26-9.2-3,3.08-4.85,4.9-4.85,4.9l-1.59-.52c-23.11-7.37-48.29-5.12-48.29-5.12-33.41,13.64-63.53,43.76-66.36,48.94s-2.35,14.58-2.35,14.58c16.85,13.83,43.71,16,68.67,13.91.54-3.72.24-8,2.51-10.49C343.65,2139.53,362,2118.35,376.59,2102.18Z" fill="#415cb5"/><path d="M461,2045.18c-1.41-33.42-28.71-64.47-28.71-64.47-6.26,7.74-10.58,16.71-14.58,25.41-11.8,25.66-19.58,49.12-20.18,54.12-1.54,2.38-2.8,6.41-4.47,8.7-1.08,1.48-1.72,3.06-2.82,4.47l.06.08c-2.38,3.34-4.61,7.21-6.89,9.8.54.62,1.06,1.25,1.59,1.88-2.54,2.89-4.88,5.42-6.8,7.44l-.35.37c-.06,3.66.84,7.63-1.26,9.2-21.65,16.17-35.06,33.82-51,57-1.9,2.75-2,6.77-2.51,10.49,29.41-2.52,56.16-11.11,60.74-13.91a7.76,7.76,0,0,0,1.24-1c3-2.71,7.06-9,11.23-16.31,3.27-5.73,6.6-12.06,9.46-17.72,4.59-9.05,8-16.35,8.17-16.74l0,0,9.07-13.77,4.58-6.94,2.51,14.15c1.32,1.51,2.6,3.08,3.81,4.71a117.87,117.87,0,0,0,9.51-10.91c8.9-11.32,17.73-25,18.05-27.24C461.94,2060.71,461,2045.18,461,2045.18Z" fill="#32478c"/><polygon points="413.94 2104 431.35 2104.47 427.59 2083.29 413.94 2104" fill="#54917f"/><path d="M460.84,2042.76c-31.35,18.52-57.26,62.66-70.29,88.18a43.54,43.54,0,0,1-32.05,23.21c-95.83,14.94-101.74-13-101.74-13-2.82,5.17-2.35,14.58-2.35,14.58,36.71,30.12,120.94,5.18,129.41,0S413.94,2104,413.94,2104l13.65-20.71,3.76,21.18c10.36-8.47,29.65-37.18,30.12-40.47s-.47-18.82-.47-18.82C461,2044.37,460.9,2043.57,460.84,2042.76Z" fill="#a5d1c3"/><path d="M266.76,2138.47c-1.33,4.41,23.34,20.57,55.71,15.18,4.24-.71,13.65-24.24,25.41-28.94,0,0-58.24,22.07-55.82,5.17,1.41-9.88,26.35-31.53,26.35-31.53S271.35,2123.29,266.76,2138.47Z" fill="#4f9fdb"/><path d="M360.82,2094.12s24.47-79.53,30.12-84.24c0,0,16,5.18,21.18,10.83,0,0-19.77,64-34.83,80.94C377.29,2101.65,365.06,2094.59,360.82,2094.12Z" fill="#a5d1c3"/><path d="M331.18,2092.24s22.11-80.48,24-83.77c0,0-8-.94-11.77,6.59,0,0-21.29,53.18-20.29,77.18Z" fill="#a5d1c3"/><path d="M437.53,1995.53s19.76,24,19.06,43.76l-23.3,21.18S447.41,2016,437.53,1995.53Z" fill="#27386e"/><path d="M395.4,2053.08c-36.51-14-63.75-5.32-63.75-5.32a33.71,33.71,0,0,0-8.2,16.88c21.83-6.91,49.11-4.69,71.58,4.42C396.85,2064.32,396.66,2058.32,395.4,2053.08Z" fill="#32478c"/><path d="M402.94,2056.24q-3.82-1.75-7.54-3.16c1.26,5.24,1.45,11.24-.37,16,1.84.75,3.65,1.53,5.42,2.37A28.84,28.84,0,0,0,402.94,2056.24Z" fill="#27386e"/><path d="M323.45,2064.64a26.54,26.54,0,0,0,1.14,13.48c14.12-9.18,67.06,4.23,67.06,4.23a28.87,28.87,0,0,0,8.8-10.92C377.06,2060.37,347.07,2057.17,323.45,2064.64Z" fill="#27386e"/><polygon points="835.41 2170.84 829.06 2189.36 820.59 2175.47 835.41 2170.84" fill="#54917f"/><polygon points="804.14 2175.91 794.25 2192.47 788.75 2176.9 804.14 2175.91" fill="#54917f"/><polygon points="767.9 2172.31 758.01 2188.87 752.51 2173.3 767.9 2172.31" fill="#54917f"/><polygon points="727.9 2161.51 718.01 2178.07 712.51 2162.51 727.9 2161.51" fill="#54917f"/><polygon points="706.25 2125 690 2144.1 690.86 2125.99 706.25 2125" fill="#54917f"/><polygon points="654.96 2068.95 638.71 2088.05 639.57 2069.94 654.96 2068.95" fill="#54917f"/><path d="M772.35,2094.54s-6.59-54-20.7-83.82c0,0-21.18-26.74-67.77,7.71,0,0,4.24,12.34,2.36,45.25l33.41,38.57S763.41,2093,772.35,2094.54Z" fill="#fff"/><path d="M665.53,2108.42c-.8-.71-1.66-1.57-2.56-2.53,1.21-1.79,2.49-3.5,3.81-5.15Z" fill="#d1a917"/><path d="M720.29,2105.92c-1.75-2.13-1.19-6.06-1.26-10.06,3,3.37,4.85,5.37,4.85,5.37l1.59-.57c23.11-8.06,56.53-9.37,56.53-9.37,27.76,16.95,55.29,51.59,58.12,57.25s2.35,15.94,2.35,15.94c-16.85,15.11-43.71,17.53-68.67,15.19-.53-4.06-.24-8.77-2.51-11.46C753.24,2146.74,734.88,2123.6,720.29,2105.92Z" fill="#415cb5"/><path d="M635.88,2043.63c1.41-36.51,28.71-70.45,28.71-70.45,6.26,8.46,10.59,18.26,14.59,27.77,11.79,28,19.57,53.67,20.17,59.14,1.55,2.6,2.8,7,4.47,9.51,1.09,1.62,1.73,3.34,2.83,4.88l-.07.09c2.38,3.65,4.61,7.87,6.89,10.71-.53.67-1.06,1.36-1.59,2.06,2.54,3.15,4.88,5.92,6.8,8.12l.35.4c.07,4-.83,8.35,1.26,10.06,21.65,17.68,35.06,37,51,62.29,1.9,3,2,7.4,2.51,11.46-29.4-2.75-56.16-12.13-60.74-15.19a8.3,8.3,0,0,1-1.23-1c-3-3-7.07-9.87-11.23-17.83-3.28-6.26-6.61-13.18-9.47-19.37-4.58-9.88-8-17.86-8.17-18.29l0,0-9.07-15-4.58-7.59-2.51,15.46c-1.32,1.65-2.6,3.36-3.81,5.15a127.14,127.14,0,0,1-9.51-11.92c-8.9-12.37-17.73-27.35-18.05-29.77C634.94,2060.6,635.88,2043.63,635.88,2043.63Z" fill="#32478c"/><polygon points="682.94 2107.91 665.53 2108.43 669.29 2085.28 682.94 2107.91" fill="#54917f"/><path d="M636,2041c31.35,20.24,57.27,68.47,70.29,96.36,6.34,13.58,18.27,23,32,25.36,95.83,16.33,101.74-14.17,101.74-14.17,2.82,5.65,2.35,15.94,2.35,15.94-36.71,32.91-120.94,5.65-129.41,0s-30.12-56.57-30.12-56.57l-13.65-22.63-3.76,23.14c-10.35-9.25-29.65-40.62-30.12-44.22s.47-20.57.47-20.57C635.92,2042.75,636,2041.87,636,2041Z" fill="#a5d1c3"/><path d="M830.12,2145.58c1.33,4.82-23.34,22.48-55.71,16.58-4.23-.77-13.65-26.48-25.41-31.62,0,0,58.24,24.12,55.82,5.65-1.41-10.79-26.35-34.45-26.35-34.45S825.53,2129,830.12,2145.58Z" fill="#4f9fdb"/><path d="M736.06,2097.11s-24.47-86.91-30.12-92.05c0,0-16,5.66-21.18,11.83,0,0,19.77,69.94,34.83,88.45C719.59,2105.34,731.82,2097.63,736.06,2097.11Z" fill="#a5d1c3"/><path d="M768.82,2092.29s-25.23-85.17-27.11-88.77a11.74,11.74,0,0,1,11.76,7.2s21.47,58,28.53,80.57Z" fill="#a5d1c3"/><path d="M659.35,1989.38s-19.76,26.22-19.06,47.82l23.3,23.14S649.47,2011.75,659.35,1989.38Z" fill="#27386e"/><path d="M701.93,2051.94c38.66-16.77,67.51-8.42,67.51-8.42a35.66,35.66,0,0,1,8.67,18.09c-23.11-6.64-52-3.09-75.78,7.79C700.41,2064.29,700.6,2057.72,701.93,2051.94Z" fill="#32478c"/><path d="M694,2055.71c2.7-1.38,5.36-2.63,8-3.77-1.33,5.78-1.52,12.35.4,17.46-2,.89-3.87,1.82-5.74,2.81A32.1,32.1,0,0,1,694,2055.71Z" fill="#27386e"/><path d="M778.11,2061.61a30.21,30.21,0,0,1-1.2,14.78c-14.95-9.44-71,7.39-71,7.39a29.68,29.68,0,0,1-9.32-11.57C721.35,2059.16,753.11,2054.42,778.11,2061.61Z" fill="#27386e"/></g></g></g></svg>