<svg xmlns="http://www.w3.org/2000/svg" width="1262.35" height="2193.94" viewBox="0 0 1262.35 2193.94"><title>2_girl_hair_4</title><g id="Layer_2" data-name="Layer 2"><g id="Layer_148" data-name="Layer 148"><g id="_2_girl_hair_4" data-name="2_girl_hair_4"><path d="M581.59,84.18c-5-10-20-20-31-12-30.09,21.88-23.6,64.54-12.37,96.91a70.05,70.05,0,0,0,48.22-.16C596.27,141.31,595.07,109.79,581.59,84.18Z" fill="#b22bc9"/><path d="M630.36,118.47c-4.67-29.9-24.2-56.65-54.77-65.29-45.85-13.49-73.1,36.87-77.42,78.42a70.14,70.14,0,0,0,40.05,37.49c-11.23-32.37-17.72-75,12.37-96.91,11-8,26,2,31,12,13.48,25.61,14.68,57.13,4.85,84.75A70,70,0,0,0,630.36,118.47Z" fill="#7e1e8f"/><path d="M562.12,33.53a69.9,69.9,0,0,0-63.95,98.07c4.32-41.55,31.57-91.91,77.42-78.42,30.57,8.64,50.1,35.39,54.77,65.29a69.89,69.89,0,0,0-68.24-84.94Z" fill="#b22bc9"/><path d="M648.59,89.18C650,76,647.05,60.51,638.5,49.53a53.25,53.25,0,0,0-6.5-3.29c23.29,48.7-23.29,70.94-23.29,70.94s.23.18.66.48a60.14,60.14,0,0,0,33.22-13.48A22,22,0,0,0,648.59,89.18Z" fill="#b22bc9"/><path d="M638.5,49.53c8.55,11,11.47,26.51,10.09,39.65a22,22,0,0,1-6,15,60.14,60.14,0,0,1-33.22,13.48c4.65,3.28,32.7,21.22,48-11.07C672.63,74.55,650.29,56.45,638.5,49.53Z" fill="#7e1e8f"/><path d="M449.88,274.94c-.45,3.79-19.06,120.71,23.3,199.06-38.12-38.12-51.89-102.82-47.65-167.41,0,0-21.18-1.77-25.41,21.53,0,0-58.24-249.06,168.35-246.94,208.59,1.95,184.18,223.41,176.77,243.53,0,0-16-30.12-34-6.36-2,55.06-.94,100.59-30.58,146.12,0,0,22.23-104.82,6.35-203.29,0,0-8.71-97.42-122-59.3C565.06,201.88,463,164.06,449.88,274.94Z" fill="#b22bc9"/><path d="M688.36,270.12a452.63,452.63,0,0,1,2.92,49.51A364.12,364.12,0,0,0,688.36,270.12Z" fill="none"/><path d="M512.35,162.59c-34.08,4.37-59.5,43.44-62,108.75,14.9-106.43,114.7-69.46,114.7-69.46S542.43,158.73,512.35,162.59Z" fill="#7e1e8f"/><path d="M621.35,160.41c-32.24-8.06-56.29,41.47-56.29,41.47,113.29-38.12,122,59.3,122,59.3.48,3,.91,6,1.3,8.94C678.5,187.34,645.91,166.55,621.35,160.41Z" fill="#7e1e8f"/><path d="M565.06,201.88s-.82-22.23-14.59-25.41c-12.72-2.94-32.26,7.44-30.71,34.94,3.18,56.12,40.24,87.88,74.12,110.12C593.88,321.53,540.94,242.12,565.06,201.88Z" fill="#b22bc9"/><path d="M542.71,206.12C528.87,259,593.88,321.53,593.88,321.53s-52.94-79.41-28.82-119.65C565.06,201.88,550.47,176.47,542.71,206.12Z" fill="#7e1e8f"/><path d="M478.47,105.53s-1.06,27.53,27.53,42.35c0,0-37.06,1.06-50.82-26.47C455.18,121.41,464.71,107.65,478.47,105.53Z" fill="#d355e8"/><path d="M637.29,148.94S668,129.88,671.18,114c0,0,21.17,15.88,25.41,26.47C696.59,140.47,677.53,154.24,637.29,148.94Z" fill="#d355e8"/><rect width="1262.35" height="2193.94" fill="none"/><path d="M729.41,289.76c-.61-3.51-1.25-7-1.91-10.4a10.41,10.41,0,0,1,8.57-12.31,63.91,63.91,0,0,0,13.66-3.6,281.13,281.13,0,0,0-2.89-29.14,54,54,0,0,1-18.29,6.84,10.42,10.42,0,0,1-11.9-7.46c-7.21-25.75-13.71-42.4-13.71-42.4,14.82,69.89,8.35,127.06,8.35,127.06,18-23.76,34,6.36,34,6.36,1.25-3.4,3-12.52,4-25.35C735.19,302,729.41,289.76,729.41,289.76Z" fill="#7e1e8f"/><path d="M395.7,224.81a279.38,279.38,0,0,0-2.2,29.28,42.7,42.7,0,0,0,13.67,7.15,5.09,5.09,0,0,1,3.55,5.59q-.57,4-1.07,8.11a25.15,25.15,0,0,1-15.44,9.62,302.43,302.43,0,0,0,5.91,43.56c4.23-23.3,25.41-21.53,25.41-21.53v-2s2.12-93.18,20.12-133.41c0,0-16.54,19.73-27.93,61.65a5.1,5.1,0,0,1-7.15,3.23A45.23,45.23,0,0,1,395.7,224.81Z" fill="#7e1e8f"/></g></g></g></svg>