<svg xmlns="http://www.w3.org/2000/svg" width="1262.35" height="2193.94" viewBox="0 0 1262.35 2193.94"><title>2_girl_pants_11</title><g id="Layer_2" data-name="Layer 2"><g id="Layer_148" data-name="Layer 148"><g id="_2_girl_pants_11" data-name="2_girl_pants_11"><rect width="1262.35" height="2193.94" fill="none"/><path d="M626.59,1282.18c46.14-4.79,92.27-11.29,137.09-21.88,7.82-76.31,6.88-144.18-2.44-195.83C733,938.82,651.12,877.41,651.12,877.41,562.18,929.65,469,885.18,469,885.18c-90.3,83.8-105.92,243.56-99.66,379.6C452.45,1287.78,540.18,1292,626.59,1282.18Z" fill="#b5558c"/><path d="M406.33,1148.55c8-88.75,23.06-144.85,23.21-145.41l-5.79-1.57c-.15.56-15.34,57-23.38,146.28-3.08,34.1-5.35,76-4.87,123.51l6,1.34A1232,1232,0,0,1,406.33,1148.55Z" fill="#9e4a7a"/><path d="M730.69,1144.15c-3.3-93.71-15.1-154.48-15.22-155.08l-5.88,1.16c.11.6,11.82,60.9,15.11,154.13,1.22,34.71,1.33,77-1.26,124.35,2-.37,4-.76,6.08-1.14C732,1220.57,731.91,1178.65,730.69,1144.15Z" fill="#9e4a7a"/><path d="M651.12,877.41a182.59,182.59,0,0,1-25.58,12.45c21.59,45.55,58.51,94.17,110.23,100C700.48,914.45,651.12,877.41,651.12,877.41Z" fill="#9e4a7a"/><path d="M625.54,889.86c-3.77,1.48-7.54,2.84-11.28,4,13.66,33.07,32.66,62.6,62.33,85.29,19.31,15.6,41.39,21.81,64.58,22.75q-2.64-6.21-5.4-12.09C684.05,984,647.13,935.41,625.54,889.86Z" fill="#de8aba"/><path d="M494,894.08a175.62,175.62,0,0,1-25-8.9c-33.46,31.05-56.66,72.54-72.3,119.38C417.67,1003.72,463.94,990.18,494,894.08Z" fill="#9e4a7a"/><path d="M494,894.08c-30,96.1-76.31,109.64-97.28,110.48q-1.92,5.76-3.69,11.6c63.45,1.79,97.74-60.87,114-118.79C502.29,896.32,497.94,895.2,494,894.08Z" fill="#de8aba"/><path d="M671.75,896.3c-12.28-12.62-20.63-18.89-20.63-18.89C562.18,929.65,469,885.18,469,885.18a222.1,222.1,0,0,0-18,18.89C480.46,919.77,574.47,959.86,671.75,896.3Z" fill="#fff"/><path d="M547.3,902.66c-.07,9.37.37,18.74.16,28.12A204.74,204.74,0,0,0,592.55,928c-1-9.31-2.46-18.8-3.38-28A201,201,0,0,1,547.3,902.66Z" fill="#de8aba"/><path d="M493.39,893.92c-3,8.22-5.57,16.57-8.05,24.87,4.37,1.48,9,2.91,13.91,4.24a247.67,247.67,0,0,1,7.07-25.81C501.64,896.17,497.31,895,493.39,893.92Z" fill="#de8aba"/><path d="M614.44,893.83c4.29,8.25,7.26,17,10.43,25.78q7.13-2.5,14.33-5.65c-3.26-8.59-7-16.91-10.61-25.33Q621.5,891.57,614.44,893.83Z" fill="#de8aba"/><path d="M662.6,1273.71l25.52,95.11,4.23,23.3,34.12-11.6c-15-40-32.86-68.83-45.83-109.49Q671.93,1272.4,662.6,1273.71Z" fill="#cfcfcf"/><path d="M764.92,1255s-32,7.91-84.28,16.08c13,40.66,30.82,69.46,45.83,109.49l84.47-38.76Z" fill="#fff"/><path d="M369.34,1264.78s-23.58,47.57-34.87,78.63c0,0,50.12,21.18,103.77,29.65l19.67-91.58C427.21,1278.6,397.15,1273.32,369.34,1264.78Z" fill="#fff"/><path d="M567,1283.1l5.68,90.72,2.82,22.59s13.36-1.45,31.45-4.48c-7.84-40-16.49-69.77-22.35-109.91Q575.92,1282.64,567,1283.1Z" fill="#cfcfcf"/><path d="M662.6,1273.71c-23.69,3.35-50.13,6.36-78,8.31,5.86,40.14,14.51,69.94,22.35,109.91,25.8-4.34,61.22-11.9,81.14-23.11Z" fill="#fff"/><path d="M567,1283.1a790.22,790.22,0,0,1-90-.14c-.39,40.1-5.68,70.19-7.24,110.28,33.57-4.2,79.5-11.06,102.91-19.42Z" fill="#fff"/><path d="M457.91,1281.48l-19.67,91.58-6.83,24.7s15.26-1.63,38.39-4.52c1.56-40.09,6.85-70.18,7.24-110.28C470.65,1282.56,464.27,1282.08,457.91,1281.48Z" fill="#cfcfcf"/></g></g></g></svg>