<svg xmlns="http://www.w3.org/2000/svg" width="1262.35" height="2193.94" viewBox="0 0 1262.35 2193.94"><title>2_girl_hair_1</title><g id="Layer_2" data-name="Layer 2"><g id="Layer_148" data-name="Layer 148"><g id="_2_girl_hair_1" data-name="2_girl_hair_1"><rect width="1262.35" height="2193.94" fill="none"/><path d="M435.35,312S445,190.59,562.18,176.47c0,0,9.88,105.88,125.64,83.29,0,0,18.36,48,18.36,64.95,0,0,32.47-22.59,35.29,11.29s-26.12,57.88-36,53.65c0,0-6.47,70.56-104.18,87.79l-.58,36,54.7,15.24a144.37,144.37,0,0,1,29.7,1.11,74.05,74.05,0,0,1,22.83,6.65c10,4.6,59.65.71,44.82-46.59,0,0,77,3.53,43.77-66.35,0,0,56.47-25.41,8.47-80.47s-50.82-50.82-55.06-86.12S704.76,59.29,567.82,105.88c0,0-148.23-60.7-179.29,177.88,0,0-2.82,28.24-18.35,39.53s-48,25.42-46.59,64.95,43.76,55.05,43.76,55.05S330,475.9,358.88,509.65c29.65,34.59,67.77,0,67.77,0s-5.65,12.7,5.64,22.59a69.46,69.46,0,0,1,33.53-3.53,66.83,66.83,0,0,0,17.65-3.89c3-1.19,51.88-10.23,55.06-12l-.35-36.64s-36.83-6.77-67.12-28.65c-16.65-12-28.66-34.17-32.88-59.65,0,0-43-15.88-37-58.94,2.78-20,16.79-24.22,24.63-22A32.68,32.68,0,0,1,435.35,312Z" fill="#a5393c"/><path d="M402.48,319.64c2.45-3.36,4.75-5.65,6.87-8.83A18.75,18.75,0,0,0,402.48,319.64Z" fill="none"/><path d="M425.81,307a32.68,32.68,0,0,1,9.54,5S445,190.59,562.18,176.47C439.35,155.29,420.25,294.53,409.35,310.81,414.73,306.63,421.22,305.65,425.81,307Z" fill="#80282b"/><path d="M701.94,466.59c59.3-4.24,23.3-50.83,23.3-50.83,21.17,6.36,61.66-10.64,52.94-48.7C773.81,348,765.12,335.79,756,328c-23.22-19.83-41.09-45.18-50.8-74.13-1.95-5.83-3.23-9.6-3.23-9.6-108,36-139.76-67.77-139.76-67.77s9.88,105.88,125.64,83.29c0,0,18.36,48,18.36,64.95,0,0,32.47-22.59,35.29,11.29s-23.06,54.59-36,53.65c0,0-4.82,67.56-104.18,87.79l-.58,36,54.7,15.24a138.26,138.26,0,0,1,29.7,1.11C724.56,519.33,701.94,466.59,701.94,466.59Z" fill="#80282b"/><path d="M483.47,524.82c3-1.19,51.88-10.23,55.06-12l-.35-36.64s-36.83-6.77-67.12-28.65c-16.65-12-28.66-34.17-32.88-59.65,0,0-43-15.88-37-58.94.5-3.61.29-6.68,1.3-9.3-10.58,14.5-32.47,21.2-42.54,40-31.76,59.29,32.82,75.17,32.82,75.17-16.94,22.24-5.74,41.69,1,51.33,14.89,21.21,51.93,12.2,51.93,12.2,0,17.85,10.69,26.34,20.06,30.35h.05A66.83,66.83,0,0,0,483.47,524.82Z" fill="#80282b"/><path d="M685,137.29s-22.24,51.89-82.59,71c0,0,75.18,10.58,106.94-39.18C709.35,169.06,691.35,141.53,685,137.29Z" fill="#c2575a"/><path d="M459.47,136.24s2.12,24.35,20.12,40.23c0,0-30.71-7.41-37.06-27.53C442.53,148.94,453.12,138.35,459.47,136.24Z" fill="#c2575a"/><path d="M569.59,139.41s17.41-14.68,13.85-38q-7.59,1.8-15.62,4.52S572.76,125.65,569.59,139.41Z" fill="#80282b"/></g></g></g></svg>