<svg xmlns="http://www.w3.org/2000/svg" width="1262.35" height="2193.94" viewBox="0 0 1262.35 2193.94"><title>2_girl_hair_10</title><g id="Layer_2" data-name="Layer 2"><g id="Layer_148" data-name="Layer 148"><g id="_2_girl_hair_10" data-name="2_girl_hair_10"><rect width="1262.35" height="2193.94" fill="none"/><path d="M745.32,465.14q-4.32-8-7.91-16.33A104.2,104.2,0,0,0,745.32,465.14Z" fill="#2e2623"/><path d="M826,519.4a191.2,191.2,0,0,1-32.4-21.22c-24-21-32-51-36-80-14-109-1-229-79-315-27-29-71-40-106-24a74.45,74.45,0,0,0-17.34,13c20.08,2,35.07,20.21,46.85,47.87,115,21,106.83,175,107.51,176.93l0,.64c6-6.94,14.71-12.82,24.67-6.81,19,11.45,13.81,38.24,6.64,51.59-5.21,9.7-19.42,26.78-34.6,27.75-3.23,17.21-12,42.61-35.87,60.44,3.62,9.46,7.59,17.3,12,23.08,23.49,30.53,64.43,45.64,102.84,42.71a196,196,0,0,1-40-51.2,104.2,104.2,0,0,1-7.91-16.33q3.57,8.35,7.91,16.33C762.41,493.88,792.86,514.62,826,519.4Z" fill="#0a0808"/><path d="M572.59,79.18c35-16,79-5,106,24,78,86,65,206,79,315,4,29,12,59,36,80A191.2,191.2,0,0,0,826,519.4c2.48.35,5,.63,7.46.8-40-43.48-53.81-104.87-59-163.74s-3.58-118.95-19.33-175.91S701.5,68.15,644.75,51.65c-18.2-5.29-38.13-6.24-55.91.36S532.73,91.92,551.69,92c1.2,0,2.39.07,3.56.18A74.45,74.45,0,0,1,572.59,79.18Z" fill="#2e2623"/><path d="M435.06,312.35c0-2.56-8.09-113.29,66.7-127.41,17.79-3.36,43.42-6.35,64.59,16.94,0,0,117.53-60.35,142.94,114.36,0,0,19.06-19.06,32.83,2.11a36.46,36.46,0,0,1,4.23,30.71c4.51-13.52,23.82-99.89-12.7-176.82C672.94,44.35,443.53,59.18,403.29,193.41c-24.34,81.21-3.17,145.06-3.17,145.06s.6-18.08,8.82-26.47C415.08,305.74,427.82,301,435.06,312.35Z" fill="#2e2623"/><path d="M463.29,126.35s-3.39,23.32,33.18,37.41c0,0-31.76,4.24-52.94-19C443.53,144.71,450.59,130.59,463.29,126.35Z" fill="#5e4e48"/><path d="M636.24,156.35s28.58-12.7,33.88-41.64c0,0,21.17,15.53,26.82,28.23C696.94,142.94,673.29,157.41,636.24,156.35Z" fill="#5e4e48"/><path d="M409.35,243.82a46.41,46.41,0,0,1-11.76-7.64c-1.08-1.14-2.08-2.31-3-3.51-7.45,50.54,1.06,89.35,4.36,101.67.72,2.69,1.2,4.13,1.2,4.13s.6-18.08,8.82-26.47c6.14-6.26,18.88-11,26.12.35a221.74,221.74,0,0,1,.11-23.43c7.35-85.42,91.23-116.27,131.18-87C526.12,126.71,428.08,189.55,409.35,243.82Z" fill="#0a0808"/><path d="M752.88,238.24a43.73,43.73,0,0,1-20.29,11.94,44.33,44.33,0,0,1-6.69,1.28c-69.55-131.11-149-80.28-159.55-49.58,0,0,27.28-12.94,58.18-9,33.52,5.31,71.57,32.64,84.76,123.38,0,0,19.06-19.06,32.83,2.11a36.46,36.46,0,0,1,4.23,30.71q.1-.3.21-.66l0-.06C750.06,337.25,760.21,291.16,752.88,238.24Z" fill="#0a0808"/></g></g></g></svg>