<svg xmlns="http://www.w3.org/2000/svg" width="1262.35" height="2193.94" viewBox="0 0 1262.35 2193.94"><title>2_girl_hair_6</title><g id="Layer_2" data-name="Layer 2"><g id="Layer_148" data-name="Layer 148"><g id="_2_girl_hair_6" data-name="2_girl_hair_6"><rect width="1262.35" height="2193.94" fill="none"/><path d="M435.06,312.35c0-3.17,13.76-146.47,124.94-134.82,0,0,123.88-36,149.29,138.71,0,0,19.06-19.06,32.83,2.11a36.46,36.46,0,0,1,4.23,30.71c4.51-13.52,27.69-110.19-5.29-188.71C696.59,54.47,610,54.45,573.76,52.18,534,49.68,425.53,65.06,395.88,170.94c-22.86,81.64,4.24,167.53,4.24,167.53s.6-18.08,8.82-26.47C415.08,305.74,427.82,301,435.06,312.35Z" fill="#824f39"/><path d="M757.55,232.53a43.88,43.88,0,0,1-25,17.65,44.33,44.33,0,0,1-6.69,1.28c-13.16-49.63-42.24-94.23-96.31-110.28-25.14-7-50.26-1.28-68.59,13.68a61.72,61.72,0,0,0-23.41-8.68c-59.88-9.41-109.51,43.37-128.24,97.64a46.41,46.41,0,0,1-11.76-7.64,50.29,50.29,0,0,1-10.1-15.68c-4.57,63.45,12.63,118,12.63,118s.6-18.08,8.82-26.47c6.14-6.26,18.88-11,26.12.35,0-3,12.33-131.29,107.69-135.37a118.08,118.08,0,0,1,17.25.55,99.35,99.35,0,0,1,22.52-3c36.94-1.12,108.19,13.95,126.77,141.72,0,0,19.06-19.06,32.83,2.11a36.46,36.46,0,0,1,4.23,30.71C749.52,339.56,761.91,289,757.55,232.53Z" fill="#6b3d28"/><path d="M560,177.53s-12.71-51.88-70.94-43.41c-57.64,8.38-82.07,75.53-90,137.64-6.35,49.77,25.76,117.89,83.65,119.65,0,0-48.71-23.29-25.42-75.17S558.94,248.47,560,177.53Z" fill="#824f39"/><path d="M560,177.53a65.51,65.51,0,0,0-19.54-30.73,36.49,36.49,0,0,1,4.13,19.38c-2,27-19,49-38,67-16.52,14.94-35.51,28-49.19,45.11.47-30.21,19.66-93.35,45.07-125.82-60.71,43.77-75.42,115.14-73.88,159.71,1.94,32.94,19.84,69.65,52.79,79.17.44,0,.88,0,1.33.06,0,0-48.71-23.29-25.42-75.17S558.94,248.47,560,177.53Z" fill="#6b3d28"/><path d="M460.12,94.59s7.19,24,43.76,38.12c0,0-45.17,9.88-63.53-19.77C440.35,112.94,447.41,98.82,460.12,94.59Z" fill="#b86b4a"/><path d="M638,128.47s33.88-15.53,39.53-38.12c0,0,21.18,15.53,26.82,28.24C704.35,118.59,669.06,138.35,638,128.47Z" fill="#b86b4a"/><path d="M743.88,357.18s-9.17,27.53-37.41,33.17c0,0-6.35,55.77-64.94,75.53,0,0,21.18,16.94,62.82,17.65,0,0,11.3,41.65,60,52.23,0,0,7.06,48.71,57.89,54.36,0,0-8,40.59,25.41,64.23,28.94,20.47,62.82,19.06,97.41-2.11,0,0-32.28-.12-48.71-42.36-9.88-25.41-24-48.7-56.47-33.88,0,0,9.53-49.76-39.17-67.41,10.58-29.65-6.71-79.77-41.3-84C759.41,424.59,766.82,392.47,743.88,357.18Z" fill="#824f39"/><path d="M944.14,652.19c-2.18.79-4.46,1.39-6.55,2-24,7-48,0-69-13-20.4-12.42-30.57-31.92-34.7-53.62-27.38-10.25-45.42-37.12-51.81-65.42-27.17-11.07-43.64-42.94-50.73-71.85-16.53-1.06-32.94-5.56-44-16.43-9.7,12.5-24.21,24.72-45.86,32,0,0,21.18,16.94,62.82,17.65,0,0,11.3,41.65,60,52.23,0,0,7.06,48.71,57.89,54.36,0,0-8,40.59,25.41,64.23,28.94,20.47,62.82,19.06,97.41-2.11Z" fill="#6b3d28"/><path d="M845.5,568.35c-7.39,11.46-19.65,20.11-32.24,24.87a9.52,9.52,0,0,0,7.53,6.29,13.63,13.63,0,0,0,1.91.12c4.62,0,16.15-1.89,25.52-19.08A9.49,9.49,0,0,0,845.5,568.35Z" fill="#3e9991"/><path d="M845.5,568.35a9.78,9.78,0,0,0-1.07-.69,9.51,9.51,0,0,0-12.89,3.79c-4.34,8-8,9-8.69,9.19a9.48,9.48,0,0,0-10,8,9.37,9.37,0,0,0,.41,4.55C825.85,588.46,838.11,579.81,845.5,568.35Zm-21.87,12.37Zm0,0h0Z" fill="#5ae0d5"/><path d="M296.82,652.47c33.42-23.64,25.42-64.23,25.42-64.23,50.82-5.65,57.88-54.36,57.88-54.36,48.7-10.59,54.94-59.88,54.94-59.88,41.65-.71,67.88-8,67.88-8C444.35,446.24,438,388.47,438,388.47c-24.94-9.65-34.35-33.65-34.35-33.65-22.94,35.3-18.59,67.89-18.59,67.89-34.59,4.23-51.88,54.35-41.3,84-48.7,17.64-39.17,67.41-39.17,67.41C272.12,559.29,258,582.59,248.12,608c-4.65,12-10.56,20.52-16.66,26.68A277.57,277.57,0,0,0,250.75,667C267,667.36,282.5,662.6,296.82,652.47Z" fill="#824f39"/><path d="M450.48,423.4c-10.48,13.36-25.56,22.87-42.18,25.28-4.46,28.46-20.48,53.64-46.5,66.82C359.69,541.82,339.63,565,317,577.43c-1.82,16.28-7.07,31.41-18.4,42.75-15.27,16.79-36.94,26.58-59.24,28.94,3.58,6.13,7.34,12.06,11.4,17.91,16.22.33,31.75-4.43,46.07-14.56,33.42-23.64,25.42-64.23,25.42-64.23,50.82-5.65,57.88-54.36,57.88-54.36,48.7-10.59,54.94-59.88,54.94-59.88,41.65-.71,67.88-8,67.88-8C475.69,456.81,459.75,439.4,450.48,423.4Z" fill="#6b3d28"/><path d="M296.17,568.06c7.4,11.46,19.66,20.1,32.25,24.86a9.5,9.5,0,0,1-7.54,6.29,13,13,0,0,1-1.9.13c-4.62,0-16.15-1.9-25.53-19.09A9.49,9.49,0,0,1,296.17,568.06Z" fill="#3e9991"/><path d="M328.42,592.92a9.5,9.5,0,0,0-9.6-12.58c-.65-.13-4.34-1.22-8.69-9.19a9.51,9.51,0,0,0-12.89-3.79,9.85,9.85,0,0,0-1.07.7C303.57,579.52,315.83,588.16,328.42,592.92ZM318,580.42h0Zm-.05,0h0Z" fill="#5ae0d5"/></g></g></g></svg>