<svg xmlns="http://www.w3.org/2000/svg" width="1262.35" height="2195.18" viewBox="0 0 1262.35 2195.18"><title>2_girl_old hair_2</title><g id="Layer_2" data-name="Layer 2"><g id="Character_girl_hair_1-2" data-name="Character girl hair 1-2"><g id="_2_girl_old_hair_2" data-name="2_girl_old hair_2"><path d="M430.06,312.18S375.21,95.44,563.47,86.29c174.35-8.47,192.71,107.18,184.23,230,0,0-13.94-7.35-22.41,7.47,0,0-.23-195.82-159.06-153.47,0,0-112.06-34.88-116.29,147.24C444.76,311.69,439.66,310.58,430.06,312.18Z" fill="#eaeaea"/><path d="M660.88,108.88c-26.54-15.28-81.53-13.76-97.41,24-.53-.62-94.59-72-140.68,102.81a304.39,304.39,0,0,0,7.27,76.49c9.6-1.6,14.7-.49,19.88,5.35,4.24-182.12,116.29-147.24,116.29-147.24,158.83-42.35,159.06,153.47,159.06,153.47,6.65-11.62,16.65-9.61,20.66-8.2C746,240.89,727.83,149.89,660.88,108.88Z" fill="#bfbfbf"/><path d="M566.23,170.29s59.36,1.42,86.18,57.18C688.72,303,743.47,305.82,771,280.41c0,0-55.06-16.94-78.16-99.42C678.58,130.05,607.94,77.12,566.23,170.29Z" fill="#eaeaea"/><path d="M566.23,170.29s-69.82,8.47-98.05,95.3c-23.41,72-69.89,38.12-69.89,38.12s27.53-14.12,33.8-67.52C440.31,166.26,523,104.19,566.23,170.29Z" fill="#eaeaea"/><path d="M676.59,489.35c13,5,29,4,37-9,9.91-16.51,3.23-32.59-7.06-46.8-1,1.36-2,2.76-3.3,4.27-15.07,18.22-35.29,28.79-48.16,34.1C660.07,480.1,668.33,485.91,676.59,489.35Z" fill="#bfbfbf"/><path d="M713.94,419.47c-2.6,6.12-4.48,10-7.41,14.08,10.29,14.21,17,30.29,7.06,46.8-8,13-24,14-37,9-8.26-3.44-16.52-9.25-21.52-17.43a109.07,109.07,0,0,1-12.54,4.43S663.7,526.76,715,497.59C761.31,471.25,713.94,419.47,713.94,419.47Z" fill="#eaeaea"/><path d="M713.94,419.47s37.29,0,34.47,63.53c0,0-7.06-50.82-45.18-45.18C708.67,433.16,710.46,428.69,713.94,419.47Z" fill="#bfbfbf"/><path d="M674.59,229.35c-10-19-21-42-42-51,19,4,34,16,48,28-9-33-41-58-76-55-14,1.56-23.22,11.64-33.69,19.32,14.5,1.66,59.23,10.48,81.51,56.8,32.92,68.44,81,77.19,110.2,59.29C727,286,692.86,262.39,674.59,229.35Z" fill="#bfbfbf"/><path d="M495.59,175.35c-28,15-41,46-48,75,8-19,22-31,37-44-19,23-16,54-32,78-9.25,14.39-25.11,22.95-41.86,25.32,15.45,4.86,41.68,4.4,57.45-44.08,25.9-79.67,86.82-93.37,96.68-95.08C542.91,160.91,516.72,164.33,495.59,175.35Z" fill="#bfbfbf"/><rect width="1262.35" height="2195.18" fill="none"/></g></g></g></svg>