<svg xmlns="http://www.w3.org/2000/svg" width="1262.35" height="2193.94" viewBox="0 0 1262.35 2193.94"><title>2_girl_body_1</title><g id="Layer_2" data-name="Layer 2"><g id="Layer_148" data-name="Layer 148"><g id="_2_girl_body_1" data-name="2_girl_body_1"><rect width="1262.35" height="2193.94" fill="none"/><path d="M538.18,512.47V472.24s-2.12-29.65,31.06-29.65,32.47,26.12,32.47,26.12L601,513.18l53.65,15.53s46.59-7.06,72,21.88,46.59,51.53,52.94,144.7l20.47,169.42s47.29,55.76,61.82,253.88c0,0,15.83,24.23,75.83,37.65,0,0,11.11.7,13.94,8.47s13.41,38.11,13.41,38.11,6.35,9.89,9.18,12.71,29.82,24.71,24.17,32.47-33.88-3.53-50.12-26.12c0,0-13.41,20.47-14.11,46.59s-25-12.82-13-42.46c0,0-24.43-23.19-32.9-33.77,0,0-79.76,5.64-72.7-45.18,0,0-81.88-189.88-80.47-271.77L692.06,740.47s-48.71,77.65-40.94,136.94c0,0,81.88,61.41,110.12,187.06,18.35,101.65,4.23,266.12-45.18,434.12,0,0,53.65,38.82,48,203.29-4.42,128.83-31.77,206.12-13.41,304.24,0,0,10.59,61.41,39.53,96,0,0,33.17,28.94,33.88,41.64,0,0,.7,20.48-19.06,14.12,0,0-2.12,16.24-21.18,3.53,0,0-11.29,20.47-26.11,4.94,0,0-17,16.94-31.06-4.23,0,0-40.24-12.71-41.65-62.12,0,0-1.41-18.35-9.18-24.71s-41.64-19.76-28.23-54.35,20.47-54.35,20.47-54.35-11.3-330.35-35.3-441.88c0,0-35.29-347.3-55-405.18,0,0-73.42,190.59-87.53,402.35,0,0,44.87,142.77-29.52,253.5a52,52,0,0,0-6.89,15.12c-7.81,28.13-30.88,117.59-28.53,184.56,0,0,40.94,55.06,32.47,80.47s-29.65,35.29-43.77,39.53c0,0-18.52,25.92-28.23,48-7.77,17.65-46.95,30.35-44.47,6.35,0,0-22.59,29.3-31.06,5.65,0,0-33.89,21.88-28.94,0,0,0-26.83,8.47-19.77-8.47,0,0,25.41-34.59,59.29-47.3,0,0,4.95.71,5.65-7.76s6.35-48,19.06-74.82,8.47-26.83,8.47-26.83-2.27-49.49-.45-127.08c2.16-92.26,6.8-247,47.75-360,0,0-108.71-453.88,67.76-617.64,0,0-5.65-83.3-12.71-98.83,0,0-31.05-36.7-28.23-93.17,0,0-85.19,90.27-161.45,132.06a25.11,25.11,0,0,1-29.09-3.62c-19.7-18.18-54.05-69.75-89-216,0,0-50.82-32.47-56.47-33.89s-50.82-22.58-70.59-25.41-12.71-21.17,4.24-21.17c0,0,4.23-8.47,24-5.65,0,0,45.17-12.71,104.47,14.12,0,0-11.3-59.3,11.29-63.53,0,0,9.88-1.41,11.29,24,0,0,2.83,24,17,35.29s24,28.24,14.11,49.41c20.35,55.61,37.35,86.76,73.42,125.65,0,0,37.7-45.43,56.3-65.91a71.8,71.8,0,0,0,13-20.31c11.78-27.79,47.92-96.31,115.62-89.54Z" fill="#f3bd9e"/><path d="M786.65,2182.94l-2.83-21.53s-5.33,9.67-13.48,10.68c.18,1.12.33,2.25.42,3.44Z" fill="none"/><path d="M329.24,2168.12a35.41,35.41,0,0,1,.51-7.61c-6.89,4.81-15.15,6.89-19.57-5.45l1.06,20.47Z" fill="none"/><path d="M283.71,2181.88l13.76-11.64a35.08,35.08,0,0,1-.08-8.36c-9,3.87-19,5.76-16.15-6.82l-4.95,14.12Z" fill="none"/><path d="M947.91,1222.5c.91.84,1.83,1.67,2.77,2.5-.82-1-1.62-2-2.39-3.12Z" fill="none"/><path d="M811,2176.59l-6-18.71s-1,7.82-8,8.35a35.39,35.39,0,0,1,1.32,5.06Z" fill="none"/><path d="M576.32,1123.22c.46.18.92.37,1.39.54,0,0,.43-.09,1.23-.29-.42-1.43-.83-2.75-1.23-3.94C577.71,1119.53,577.22,1120.8,576.32,1123.22Z" fill="#db9e7b"/><path d="M408.37,2040c11.65-7.41,11.65-36,11.65-36C447.55,2038.94,408.37,2040,408.37,2040Zm267.1-40.24s0,28.59,11.65,36C687.12,2035.76,647.94,2034.71,675.47,1999.76Zm14.36-493.91a4.05,4.05,0,0,1,5.48,5.42c-7.67,15.11-22.68,33.3-43.14,4.79a4.06,4.06,0,0,1,4-6.37C664.85,1511.31,677.93,1512.05,689.83,1505.85Zm-219.48,7c-10.59,13.23-29,28-43.22-4.09a4.07,4.07,0,0,1,5.24-5.42c8.14,3.35,20.8,6.74,33.72,3.08A4.06,4.06,0,0,1,470.35,1512.89ZM645.47,797.65c-14.12,7.06-49.41-16.94-84.71-16.94s-53.64,35.29-86.11,9.88-36.71-74.83-36.71-74.83c122.82,93.18,249.88-2.82,249.88-2.82C689.24,728.47,659.59,790.59,645.47,797.65Zm112.94,81.88s-4.23-15.53,7.06-19.77,18.35,5.65,21.18,18.36S769.71,906.35,758.41,879.53Z" fill="none"/><path d="M305.24,744s6.15-24.63-12.6-53.19c-6.79,8.1-11.4,13.66-11.4,13.66S302.41,724.24,305.24,744Z" fill="#db9e7b"/><path d="M445.83,721.49a4.11,4.11,0,0,0-6.39,4.13c3,15.74,11.75,46.61,35.21,65,32.47,25.41,50.82-9.88,86.11-9.88s70.59,24,84.71,16.94c12-6,35.39-52.12,41.11-75.17a4.11,4.11,0,0,0-6.2-4.46C652.2,736.11,548.52,792.66,445.83,721.49Z" fill="#db9e7b"/><path d="M443.59,628.24S412.06,663.56,405,716.31c10.79-10.48,18.4-18.3,21.49-21.52C426.38,687.27,427.52,663.82,443.59,628.24Z" fill="#db9e7b"/><path d="M693.47,666.35c14.12,40.94-1.41,74.12-1.41,74.12l6.31,19.77C722.35,702.79,693.47,666.35,693.47,666.35Z" fill="#db9e7b"/><path d="M173.94,577.41s1.41-19.76-19.76-43.76c-59.3-26.83-104.47-14.12-104.47-14.12-19.77-2.82-24,5.65-24,5.65s63.53,5.64,93.17,31.06C118.88,556.24,158.41,539.29,173.94,577.41Z" fill="#db9e7b"/><path d="M624.15,519.88,601,513.18l.71-44.47s.7-26.12-32.47-26.12-31.06,29.65-31.06,29.65v40.23L513.84,518C528.74,527.62,583.27,558.3,624.15,519.88Z" fill="#db9e7b"/><path d="M765.47,859.76c-11.29,4.24-7.06,19.77-7.06,19.77,11.3,26.82,31.06,11.29,28.24-1.41S776.76,855.53,765.47,859.76Z" fill="#db9e7b"/><path d="M934.18,1268.47c.63-23.49,11.53-42.4,13.73-46a319.72,319.72,0,0,1-27.26-28.37c8.87,11.81,19.23,27.82,15.64,34.11-3.84,6.72-10.95,1.68-15.1-2.23-2.28,7.23-5,14.43-4.83,21C917.16,1271.79,933.64,1288.45,934.18,1268.47Z" fill="#db9e7b"/><path d="M466.09,1506.46c-12.92,3.66-25.58.27-33.72-3.08a4.07,4.07,0,0,0-5.24,5.42c14.23,32.07,32.63,17.32,43.22,4.09A4.06,4.06,0,0,0,466.09,1506.46Z" fill="#db9e7b"/><path d="M652.17,1516.06c20.46,28.51,35.47,10.32,43.14-4.79a4.05,4.05,0,0,0-5.48-5.42c-11.9,6.2-25,5.46-33.64,3.84A4.06,4.06,0,0,0,652.17,1516.06Z" fill="#db9e7b"/><path d="M671.69,2005c-14.07,21.24-.29,27.85,8.82,29.89a2.22,2.22,0,0,0,2.27-3.46c-4.78-7-6.43-18.36-7-25.4A2.22,2.22,0,0,0,671.69,2005Z" fill="#db9e7b"/><path d="M417.37,2038.47c8.49-2.53,18.46-9.24,7.89-27a3.11,3.11,0,0,0-5.78,1.25c-.69,6.42-2.23,15-5.74,21.2A3.11,3.11,0,0,0,417.37,2038.47Z" fill="#db9e7b"/><path d="M770.34,2172.09c-4-24.88-29.22-33.62-29.22-33.62,12.7,7.41,16.59,27.88,16.59,27.88C762.34,2171.21,766.63,2172.54,770.34,2172.09Z" fill="#db9e7b"/><path d="M789.82,2136.35c8.47,4.24,15.18,21.53,15.18,21.53,4.25,1.37,7.54,1.49,10.11.85C809.42,2140.82,789.82,2136.35,789.82,2136.35Z" fill="#db9e7b"/><path d="M797,2166.23c-6.64-19.61-28.32-27.76-28.32-27.76,9.53,5.29,15.17,22.94,15.17,22.94C789.65,2165.3,793.89,2166.47,797,2166.23Z" fill="#db9e7b"/><path d="M355.74,2129.88c1.3-.63,2.08-.94,2.08-.94A12.81,12.81,0,0,0,355.74,2129.88Z" fill="#db9e7b"/><path d="M317.59,2137.41s-18,5.75-20.2,24.47a100.35,100.35,0,0,0,12.79-6.82S305.94,2143.76,317.59,2137.41Z" fill="#db9e7b"/><path d="M291.85,2140c2.11-1,3.5-1.55,3.5-1.55A15.38,15.38,0,0,0,291.85,2140Z" fill="#db9e7b"/><path d="M355.74,2129.88c-5.93,2.87-22.76,12.51-26,30.63a60.82,60.82,0,0,0,11.49-11.1S347.29,2134.6,355.74,2129.88Z" fill="#db9e7b"/><path d="M291.85,2140c-5.31,2.56-15.21,8.27-19.65,16.94a55.22,55.22,0,0,0,9-1.9S284,2144.67,291.85,2140Z" fill="#db9e7b"/><path d="M672.3,1059.05c-63.36,26-151.67,15.28-196.64-5a2.69,2.69,0,0,0-3.06,4.29c15.72,16.71,51,49,102.22,69.11,23.64-3.37,70-27.8,100.54-64.14A2.68,2.68,0,0,0,672.3,1059.05Z" fill="#db9e7b"/></g></g></g></svg>