<svg xmlns="http://www.w3.org/2000/svg" width="1262.35" height="2193.94" viewBox="0 0 1262.35 2193.94"><title>2_girl_pants_7</title><g id="Layer_2" data-name="Layer 2"><g id="Layer_148" data-name="Layer 148"><g id="_2_girl_pants_7" data-name="2_girl_pants_7"><rect width="1262.35" height="2193.94" fill="none"/><polygon points="329.75 2160.51 329.75 2160.51 329.75 2160.51 329.75 2160.51" fill="none"/><path d="M469,885.18c-103.44,96-108.9,291.67-95.7,437.19,10.05,110.8,5.22,219.78-9.18,330.1-10,76.72-14.83,133.42-40.24,235.06-20.95,83.83,33.88,103.76,33.88,103.76s23.3,4.24,70.85-8.53c.07,0,.13-.09.22-.1,77.17-8.31,77.17-232.78,75.63-404.26-.5-55.61-6.61-111,3.83-165.67,27.32-142.84,66.16-285.47,66.53-285.33l57.94,397.31c19.09,88.67,6.67,299.17.78,381.71a58,58,0,0,0,30.4,55.34c.6.32,1.13.59,1.58.79,17.16,7.77,50.73,19.62,82.32,11.32a25.26,25.26,0,0,0,6-3c27.63-17.33,41.28-50.21,34.75-82.17-11.13-54.48-25.8-266.68-30.73-294.52-15.55-87.92-17.21-177.79-3.1-266,16.61-103.75,18.51-197.21,6.5-263.75C733,938.82,651.12,877.41,651.12,877.41,562.18,929.65,469,885.18,469,885.18Z" fill="#d41921"/><path d="M391.85,1748.09a400.09,400.09,0,0,0,13.71-78.91c5.71-79.79,15.54-257.29,5-425.42-10.25-164,52-292.27,81.41-350.25a170.5,170.5,0,0,1-23-8.33c-103.44,96-108.9,291.67-95.7,437.19,10.05,110.8,5.22,219.78-9.18,330.1-10,76.72-14.83,133.42-40.24,235.06-18.86,75.45,23.67,99.14,32.36,103.12C353.81,1929.66,375.06,1808.31,391.85,1748.09Z" fill="#509694"/><path d="M753.82,1970.86c27.63-17.33,41.28-50.21,34.75-82.17-11.13-54.48-25.8-266.68-30.73-294.52-15.55-87.92-17.21-177.79-3.1-266,16.61-103.75,18.51-197.21,6.5-263.75C733,938.82,651.12,877.41,651.12,877.41A183.22,183.22,0,0,1,630.2,888c35.72,43.93,108.48,133.91,98.68,262.62-11.82,155.29-27.59,381.17-10.64,460.23,14.59,68.09,39.83,301.61,18.81,365.12a84.43,84.43,0,0,0,10.79-2.07A25.26,25.26,0,0,0,753.82,1970.86Z" fill="#509694"/><path d="M682.18,1054.59c-93.18,55.06-177.89,18.35-218.83-7.06.46,1.13,40.78,52.16,111.47,79.87C600.29,1123.76,652.15,1095.67,682.18,1054.59Z" fill="#a6141a"/><path d="M466.09,1506.46c-12.92,3.66-25.58.27-33.72-3.08a4.07,4.07,0,0,0-5.24,5.42c14.23,32.07,32.63,17.32,43.22,4.09A4.06,4.06,0,0,0,466.09,1506.46Z" fill="#b0151b"/><path d="M652.17,1516.06c20.46,28.51,35.47,10.32,43.14-4.79a4.05,4.05,0,0,0-5.48-5.42c-11.9,6.2-25,5.46-33.64,3.84A4.06,4.06,0,0,0,652.17,1516.06Z" fill="#b0151b"/><path d="M671.75,896.3c-12.28-12.62-20.63-18.89-20.63-18.89C562.18,929.65,469,885.18,469,885.18a222.1,222.1,0,0,0-18,18.89C480.46,919.77,574.47,959.86,671.75,896.3Z" fill="#a6141a"/><path d="M588.59,919.76s-9,108,0,150.36c0,0-18.09,10.59-36.17-6.36s1.81-144,1.81-144Z" fill="#a6141a"/><path d="M654.55,1873.21a4.94,4.94,0,0,0-9.55.82c-3.84,24.44-5.35,63.3,21.24,72.79,14.48,5.18,25.93,9.21,34.63,12.25A4.94,4.94,0,0,0,706,1951C689.89,1934.44,666.2,1906.24,654.55,1873.21Z" fill="#b0151b"/><path d="M392.74,1971.26a4.72,4.72,0,0,0,3.33,8.5c17-2,40.67-7.9,55.58-24.47,16.39-18.21,24.56-56.4,28.29-81.21a4.72,4.72,0,0,0-8.73-3.11C454.5,1899.13,422.26,1949.27,392.74,1971.26Z" fill="#b0151b"/><circle cx="545.88" cy="926.82" r="9.53"/><path d="M544.48,1108c-2.44-52.77,6.23-176.22,6.33-177.58a6,6,0,0,0-12-.84c-.39,5.5-8.64,122.9-6.42,177.26A36.87,36.87,0,0,0,544.48,1108Z" fill="#ededed"/><path d="M544.48,1108a36.87,36.87,0,0,1-12.06-1.16c.25,6,.63,11.31,1.16,15.55a6,6,0,0,0,5.94,5.26,6.3,6.3,0,0,0,.75-.05,6,6,0,0,0,5.21-6.7C545,1117.34,544.71,1113,544.48,1108Z"/><circle cx="583.93" cy="927.88" r="9.53"/><path d="M585.33,1109.06c2.44-52.77-6.23-176.22-6.33-177.58a6,6,0,1,1,12-.85c.39,5.51,8.64,122.91,6.41,177.27A36.78,36.78,0,0,1,585.33,1109.06Z" fill="#ededed"/><path d="M585.33,1109.06a36.78,36.78,0,0,0,12-1.16c-.24,6-.62,11.31-1.15,15.55a6,6,0,0,1-5.94,5.26,6.3,6.3,0,0,1-.75,0,6,6,0,0,1-5.21-6.7C584.77,1118.4,585.1,1114,585.33,1109.06Z"/></g></g></g></svg>