<svg xmlns="http://www.w3.org/2000/svg" width="1262.35" height="2193.94" viewBox="0 0 1262.35 2193.94"><title>2_girl_shoes_8</title><g id="Layer_2" data-name="Layer 2"><g id="Layer_148" data-name="Layer 148"><g id="_2_girl_shoes_8" data-name="2_girl_shoes_8"><rect width="1262.35" height="2193.94" fill="none"/><polygon points="261.06 2154.35 272.35 2176.94 280.82 2160 261.06 2154.35" fill="#8f6a51"/><polygon points="297.76 2157.18 309.06 2179.76 317.53 2162.82 297.76 2157.18" fill="#8f6a51"/><polygon points="337.29 2153.65 348.59 2176.24 357.06 2159.29 337.29 2153.65" fill="#8f6a51"/><polygon points="371.18 2144.47 382.47 2167.06 390.94 2150.12 371.18 2144.47" fill="#8f6a51"/><polygon points="395.88 2116.94 410.71 2142.35 417.06 2120.47 395.88 2116.94" fill="#8f6a51"/><polygon points="419.18 2102.12 434 2127.53 440.35 2105.65 419.18 2102.12" fill="#8f6a51"/><polygon points="438.24 2088.71 453.06 2114.12 459.41 2092.24 438.24 2088.71" fill="#8f6a51"/><polygon points="428.35 2119.76 408.59 2117.65 425.53 2073.88 428.35 2119.76" fill="#8f6a51"/><polygon points="424.69 2093.77 425.53 2092.94 425.72 2092.81 425.53 2090.82 424.69 2093.77" fill="none"/><path d="M244.72,2134.55c2.55,11.48,12.92,22.76,15.63,23.21,0,0,43.77,24.71,123.53-1.41,11.11-3.63,33.18-35.88,33.18-35.88l7.63-26.7-43.63,42.94C325.11,2163.54,265.48,2143.28,244.72,2134.55Z" fill="#c29676"/><path d="M425.72,2092.81l2.63,27c8.47-3.52,31.06-23.29,31.06-23.29s1.88-13.79,3.14-28.42Z" fill="#c29676"/><path d="M434.71,1987.76c-16,15-36.55,18.79-53.2,18.8-3.71,12.3-17.51,55.74-30.8,66.62,0,0,24.64,22.72,29.78,63.79l.57-.26,43.63-42.94.84-2.95.19,2,36.83-24.76c.62-7.33,1.1-14.87,1.1-21C463.65,2028.71,434.71,1987.76,434.71,1987.76Z" fill="#f1f2f2"/><path d="M330.44,2067.8l-.2.44c-3.92.35-10.54,2.51-16.13,4.55a114.41,114.41,0,0,1-43.57,33.07c-7.44,3.19-14.58,6.91-20.07,11.08-6.17,4.69-7.18,11.18-5.75,17.61,20.69,8.7,80,28.84,135.77,2.42-4.49-35.9-23.88-57.78-28.7-62.72C345.09,2070.51,337.82,2067.82,330.44,2067.8Z" fill="#f1f2f2"/><path d="M351.41,2002.59c-5.78,10.12-13.69,27.1-21,43.63a118,118,0,0,1-16.28,26.57c5.59-2,12.21-4.2,16.13-4.55l25.41-53.65,4.69-10A86.79,86.79,0,0,1,351.41,2002.59Z" fill="#f1f2f2"/><path d="M381.51,2006.56a120.41,120.41,0,0,1-21.17-1.93l-29.9,63.17c7.38,0,14.65,2.71,21.35,6.45-.69-.71-1.08-1.07-1.08-1.07C364,2062.3,377.8,2018.86,381.51,2006.56Z" fill="#d9b091"/><path d="M380.49,2139a2,2,0,0,1-2-1.79c-5.29-50.62-27.29-61-27.51-61.1a2,2,0,0,1-.84-3c10.69-15.47,29.29-66.72,29.48-67.23a2,2,0,0,1,2-1.32c.32,0,32.77,1.37,51.66-18.19a2,2,0,0,1,2.87,2.78c-18,18.65-46.39,19.52-53.25,19.44-3,8.13-18.09,48.82-28.25,65,6,3.84,23.18,18.56,27.84,63.2a2,2,0,0,1-1.78,2.2Z" fill="#cbcccc"/><path d="M306.23,2082.24a2,2,0,0,1-1.64-3.14c7.06-10.27,20.45-12.67,24.53-13.18l28.34-59.9-6.49-1.48a2,2,0,1,1,.89-3.9l8.92,2a2,2,0,0,1,1.36,2.8l-29.89,63.17a2,2,0,0,1-1.67,1.14c-.15,0-15.59,1.24-22.7,11.58A2,2,0,0,1,306.23,2082.24Z" fill="#cbcccc"/><path d="M364.12,2070.12a4,4,0,0,1-3.06-1.43c-9.58-11.37-29.77-7.18-30-7.13a4,4,0,0,1-1.7-7.82c1-.22,25.09-5.29,37.8,9.8a4,4,0,0,1-3.06,6.58Z" fill="#8f6a51"/><path d="M369.76,2051.06a4.05,4.05,0,0,1-2.29-.72c-12.56-8.79-27.8-5.75-28-5.72a4,4,0,0,1-1.63-7.83c.76-.16,18.81-3.76,34.17,7a4,4,0,0,1-2.3,7.28Z" fill="#8f6a51"/><path d="M379.65,2036.94a4,4,0,0,1-3.11-1.48c-6.47-8-22.79-9.27-28.54-9.11a4,4,0,0,1-4.11-3.88,4,4,0,0,1,3.87-4.11c1,0,24.68-.63,35,12.06a4,4,0,0,1-3.1,6.52Z" fill="#8f6a51"/><path d="M441.06,2006.82s19.06,24.71,19.06,33.18v24.71l-42.36,29.64S453.76,2068.94,441.06,2006.82Z" fill="#d0d1d1"/><path d="M300.59,2097.18s-25.41,19.06-24.71,28.94,13.41,16.94,13.41,16.94-38.11-7.06-40.23-11.3S249.06,2113.41,300.59,2097.18Z" fill="#d0d1d1"/><polygon points="845.84 2160.37 835.17 2185.3 825.87 2166.6 845.84 2160.37" fill="#8f6a51"/><polygon points="808.45 2163.49 797.78 2188.41 788.48 2169.72 808.45 2163.49" fill="#8f6a51"/><polygon points="767.94 2159.59 757.26 2184.52 747.97 2165.82 767.94 2159.59" fill="#8f6a51"/><polygon points="732.98 2149.47 722.3 2174.39 713 2155.7 732.98 2149.47" fill="#8f6a51"/><polygon points="706.69 2119.09 692.52 2147.13 685.19 2122.99 706.69 2119.09" fill="#8f6a51"/><polygon points="682.33 2102.74 668.15 2130.78 660.83 2106.63 682.33 2102.74" fill="#8f6a51"/><polygon points="662.35 2087.94 648.17 2115.98 640.85 2091.83 662.35 2087.94" fill="#8f6a51"/><polygon points="673.63 2122.21 693.74 2119.87 674.76 2071.58 673.63 2122.21" fill="#8f6a51"/><polygon points="676.38 2093.53 675.49 2092.61 675.28 2092.47 675.4 2090.27 676.38 2093.53" fill="none"/><path d="M861.78,2138.52c-2.17,12.67-12.33,25.12-15.09,25.62,0,0-94,27.27-126.24-1.56-9.07-8.11-35.26-39.59-35.26-39.59l-8.81-29.46,46.21,47.37C780.76,2170.51,840.9,2148.15,861.78,2138.52Z" fill="#c29676"/><path d="M675.28,2092.47l-1.65,29.74c-8.79-3.9-32.62-25.7-32.62-25.7s-2.45-15.22-4.29-31.36Z" fill="#c29676"/><path d="M662.09,1976.56c17,16.54,38,20.73,55.06,20.74,4.26,13.57,20,61.5,34,73.5,0,0-24.3,25.08-28,70.39l-.58-.29-46.21-47.37-1-3.26-.12,2.2-38.56-27.32c-.92-8.09-1.69-16.41-1.93-23.17C634.09,2021.73,662.09,1976.56,662.09,1976.56Z" fill="#f1f2f2"/><path d="M771.66,2064.87l.23.48c4,.39,10.85,2.77,16.64,5a124.39,124.39,0,0,0,45.77,36.48c7.73,3.53,15.17,7.63,20.93,12.23,6.48,5.18,7.77,12.34,6.55,19.43-20.81,9.6-80.62,31.83-138.61,2.67,3.22-39.61,22.2-63.75,26.93-69.2C756.8,2067.86,764.13,2064.89,771.66,2064.87Z" fill="#f1f2f2"/><path d="M747.75,1992.92c6.29,11.16,15,29.9,23.14,48.14a138.93,138.93,0,0,0,17.64,29.32c-5.79-2.26-12.63-4.64-16.64-5l-28-59.19-5.17-11A82.32,82.32,0,0,0,747.75,1992.92Z" fill="#f1f2f2"/><path d="M717.15,1997.3a112.11,112.11,0,0,0,21.56-2.14l32.95,69.71c-7.53,0-14.86,3-21.56,7.12.68-.79,1.06-1.19,1.06-1.19C737.17,2058.8,721.41,2010.87,717.15,1997.3Z" fill="#d9b091"/><path d="M723.25,2143.4a2,2,0,0,0,2-2c3.47-55.85,25.56-67.3,25.78-67.41a2.09,2.09,0,0,0,1.09-1.42,2.39,2.39,0,0,0-.35-1.86c-11.51-17.07-32.47-73.62-32.68-74.19a2.12,2.12,0,0,0-2.07-1.45c-.33,0-33.43,1.52-53.47-20.06a1.94,1.94,0,0,0-2.89-.06,2.33,2.33,0,0,0,.06,3.12c19.1,20.58,48.14,21.54,55.14,21.45,3.35,9,20.35,53.87,31.34,71.68-6,4.24-23,20.48-26,69.74a2.28,2.28,0,0,0,1.91,2.43Z" fill="#cbcccc"/><path d="M796.94,2080.8a1.87,1.87,0,0,0,1.14-.39,2.28,2.28,0,0,0,.42-3.07c-7.6-11.33-21.37-14-25.56-14.54l-31.24-66.1,6.58-1.63a2.22,2.22,0,0,0-1.06-4.3l-9,2.24a2,2,0,0,0-1.34,1.19,2.36,2.36,0,0,0,.06,1.91l32.94,69.7a2.17,2.17,0,0,0,1.75,1.26c.16,0,16,1.36,23.63,12.77A2.1,2.1,0,0,0,796.94,2080.8Z" fill="#cbcccc"/><path d="M737.35,2067.43a3.82,3.82,0,0,0,3.07-1.57c9.35-12.55,30.14-7.93,30.35-7.88a3.94,3.94,0,0,0,4.73-3.38,4.58,4.58,0,0,0-3.29-5.24c-1.05-.25-25.84-5.84-38.24,10.81a4.7,4.7,0,0,0,.71,6.22A4,4,0,0,0,737.35,2067.43Z" fill="#8f6a51"/><path d="M730.85,2046.4a3.78,3.78,0,0,0,2.32-.8c12.49-9.7,28.17-6.34,28.33-6.3a4,4,0,0,0,4.71-3.43,4.6,4.6,0,0,0-3.34-5.22c-.79-.17-19.36-4.14-34.64,7.72a4.58,4.58,0,0,0-.79,6.15A4.18,4.18,0,0,0,730.85,2046.4Z" fill="#8f6a51"/><path d="M720.21,2030.82a3.83,3.83,0,0,0,3.12-1.63c6.31-8.79,22.93-10.23,28.81-10a4.1,4.1,0,0,0,4.05-4.28,4.46,4.46,0,0,0-4.11-4.55c-1,0-25.24-.68-35.28,13.31a4.69,4.69,0,0,0,.81,6.21A4,4,0,0,0,720.21,2030.82Z" fill="#8f6a51"/><path d="M656.33,1997.59s-18.52,27.26-18.2,36.61l.94,27.26,44.4,32.71S645.73,2066.13,656.33,1997.59Z" fill="#d0d1d1"/><path d="M803.28,2097.28s26.68,21,26.34,31.94-13,18.69-13,18.69,38.67-7.79,40.67-12.46S856.54,2115.2,803.28,2097.28Z" fill="#d0d1d1"/></g></g></g></svg>