<svg xmlns="http://www.w3.org/2000/svg" width="1262.35" height="2193.94" viewBox="0 0 1262.35 2193.94"><title>2_girl_pants_6</title><g id="Layer_2" data-name="Layer 2"><g id="Layer_148" data-name="Layer 148"><g id="_2_girl_pants_6" data-name="2_girl_pants_6"><rect width="1262.35" height="2193.94" fill="none"/><polygon points="329.75 2160.51 329.75 2160.51 329.75 2160.51 329.75 2160.51" fill="none"/><path d="M469,885.18c-176.47,163.76-67.76,617.64-67.76,617.64-40.95,112.94-45.59,267.72-47.75,360-1.82,77.59-14.73,117.91-14.73,117.91s38,36.88,111.06-9.71c-.65-18.58-6.77-42.71-4.48-66.62C451.22,1843,464.18,1783,487.82,1726c43.51-104.93,2.36-204.13,2.36-204.13,22.58-168,84.17-394.66,84.64-394.48l57.94,397.31c24,111.53,21.18,432,21.18,432s69.18,40.94,118.59,5.64c-7.95-83.76-12.4-146.1-8.47-260.47,5.65-164.47-48-203.29-48-203.29,49.41-168,63.53-332.47,45.18-434.12C733,938.82,651.12,877.41,651.12,877.41,562.18,929.65,469,885.18,469,885.18Z" fill="#a34866"/><path d="M493.39,893.92h0l2.77.77Z" fill="#ff0ace"/><path d="M496.83,894.87l2.39.63Z" fill="#ff0ace"/><path d="M499.81,895.66q3.12.8,6.5,1.56Q502.94,896.46,499.81,895.66Z" fill="#ff0ace"/><path d="M628.59,888.63q-7.1,2.94-14.15,5.2h0q7-2.25,14.15-5.2Z" fill="#ff0ace"/><path d="M402.53,1718c3.66-25.21,7.52-49.18,11.35-71.34-6.93-.79-13.65-1.48-20-2.09q-2.21,12.81-4.42,26.37c-2.38,14.63-4.8,30.37-7.18,46.95C388.6,1717.8,395.42,1717.82,402.53,1718Z" fill="#ad5b81"/><path d="M429.49,1563.64c-6.68-1.56-13.16-3.35-19.38-5.27-3.82,18.63-8.22,41.1-12.77,66.35,6.39.63,13.11,1.33,20,2.13C421.68,1602.86,425.85,1581.5,429.49,1563.64Z" fill="#ad5b81"/><path d="M442.09,1505.73l.51-2.13-.42-2.14q-4.49-23-8-45.16c-7.22-1.43-14.24-3-21-4.75q3.93,25.77,8.93,51.62c-1.11,4.73-4,17.12-7.89,35.43,6.19,2,12.67,3.8,19.33,5.38C438.61,1520.28,441.94,1506.34,442.09,1505.73Z" fill="#ad5b81"/><path d="M419.07,1264.84c-3.08-.57-6.07-1.16-9-1.75q-5.73-1.17-11.14-2.41-.25,39.73,2.28,80.25c6.44,1.12,13.23,2.17,20.32,3.08C419.75,1316.35,419,1289.94,419.07,1264.84Z" fill="#ad5b81"/><path d="M423.37,1170.52l-20.07-1.14q-3.15,34.95-4,70.76c6.33,1.49,13,2.94,20.05,4.3C419.86,1218.2,421.3,1193.52,423.37,1170.52Z" fill="#ad5b81"/><path d="M436,1078.09c-6.83-1.92-13.25-3.9-19.25-5.88q-7.18,37.83-11.48,77.23l20.06,1.14C428.28,1123.82,432,1099.6,436,1078.09Z" fill="#ad5b81"/><path d="M399.71,1738c-7.13-.12-14-.11-20.26,0-3.69,27.31-7.16,56.5-10,86.61,6.37-.56,13.19-1,20.24-1.34C392.5,1794,396,1765.38,399.71,1738Z" fill="#ad5b81"/><path d="M457.75,988.42c-6.82-1.94-13.2-3.95-19.15-6-6,20-12.21,43.34-17.85,70,5.95,2,12.35,4,19.18,6C445.52,1031.77,451.71,1008.37,457.75,988.42Z" fill="#ad5b81"/><path d="M423.08,1364.41c-4.21-.5-8.46-1.06-12.78-1.69-2.58-.39-5.11-.78-7.59-1.19q2.71,34,7.39,68.4c6.66,1.82,13.67,3.57,20.91,5.17Q425.85,1398.62,423.08,1364.41Z" fill="#ad5b81"/><path d="M387.8,1843.29c-7.07.37-13.9.91-20.21,1.51-4.13,48.72-6.48,99.21-5.48,147.48a76.77,76.77,0,0,0,20.05,2.27C381,1945.57,383.4,1893.93,387.8,1843.29Z" fill="#ad5b81"/><path d="M488.73,906.78,471,897.45c-.78,1.48-12.55,24.09-26.4,65.88,5.93,2,12.33,4,19.16,6C477.24,928.93,488.55,907.12,488.73,906.78Z" fill="#ad5b81"/><path d="M424.14,1823.26c6.81.39,13.51,1,19.92,2,4.26-29.32,8.08-57.18,11.49-83.31-6.45-1-13.13-1.7-19.87-2.28C432.26,1765.89,428.42,1793.84,424.14,1823.26Z" fill="#ad5b81"/><path d="M448.83,1631c6.61,1,13.22,2.06,19.76,3.22,2.79-25.14,5-46.91,6.76-64.76a180.19,180.19,0,0,1-20-1.22C453.69,1585.61,451.52,1606.69,448.83,1631Z" fill="#ad5b81"/><path d="M421.23,1843c-7,47-15.1,97.36-24.42,150.1a117.49,117.49,0,0,0,21.35-6c8.73-49.89,16.36-97.61,23-142.23A190,190,0,0,0,421.23,1843Z" fill="#ad5b81"/><path d="M485.5,1089.31c-2.63,19.51-5.3,41.1-7.87,64.6,6.77.48,13.45,1,20,1.47,2.51-22.91,5.12-44,7.68-63Q495.34,1091,485.5,1089.31Z" fill="#ad5b81"/><path d="M537.56,913.1l-19.36-5c-.09.38-6.49,25.18-15,70.3,6.26,1.1,12.86,2.1,19.79,3C531.28,937.5,537.46,913.48,537.56,913.1Z" fill="#ad5b81"/><path d="M460.34,1512.57c-.18,2.39-1.14,14.83-3.07,35.71a157.93,157.93,0,0,0,20,1.16c2.09-22.68,3-35.31,3.07-35.82l0-.42v-.42q-.27-25.69-.12-50.49c-6.69-.35-13.37-1-20-1.77Q460.08,1486.07,460.34,1512.57Z" fill="#ad5b81"/><path d="M508,1072.53c3.87-27,7.77-50.91,11.41-71.47q-9.92-1.27-19.77-3c-3.65,20.63-7.55,44.54-11.41,71.45Q497.67,1071.14,508,1072.53Z" fill="#ad5b81"/><path d="M438.24,1719.87c6.69.61,13.36,1.37,19.86,2.33,3.11-24.47,5.85-47.24,8.24-68.07-6.51-1.16-13.13-2.24-19.76-3.23C444.17,1672,441.4,1695,438.24,1719.87Z" fill="#ad5b81"/><path d="M463,1347.2c6.62.14,13.32.08,20-.21q1.69-39,4.17-74.71c-6.77-.18-13.45-.53-20-1Q464.78,1307.51,463,1347.2Z" fill="#ad5b81"/><path d="M462.23,1367.28q-1.29,35.34-1.8,73c6.63.88,13.32,1.54,20,1.92q.48-38.79,1.84-75.12-6.17.24-12.53.25Q466,1367.37,462.23,1367.28Z" fill="#ad5b81"/><path d="M468.67,1251.28c6.58.52,13.25.89,20,1.06,2.06-27.4,4.38-53.14,6.83-77.08-6.49-.49-13.18-1-20-1.45C473.06,1197.88,470.74,1223.76,468.67,1251.28Z" fill="#ad5b81"/><path d="M581.82,1076.89l-.69-72.47c-2.59.05-5.18.09-7.77.09q-6.12,0-12.23-.19l.69,72.43Q571.57,1077,581.82,1076.89Z" fill="#ad5b81"/><path d="M582,1097c-2,0-3.91.06-5.86.06q-7.1,0-14.14-.19l.62,65.22c.93.16,1.82.31,2.67.47,5.77-22.16,9.41-35.19,9.52-35.15l4.82,33,3-.6Z" fill="#ad5b81"/><path d="M582.53,1180.28l.29,2,0-2.07Z" fill="#ad5b81"/><path d="M580.94,984.31l-.7-73.82-20,.19.7,73.54Q570.66,984.5,580.94,984.31Z" fill="#ad5b81"/><path d="M638.82,1093.47c2.37,17.69,4.13,35.73,5.49,55.16,6.36-1.05,13-2.11,19.75-3.15-1.38-19-3.16-37-5.53-54.57Q648.66,1092.37,638.82,1093.47Z" fill="#ad5b81"/><path d="M697.89,1758.36c-6.88.64-13.57,1.34-19.9,2.08,1.58,27.81,2.79,56.77,3.42,86.16l20-1C700.74,1815.81,699.5,1786.5,697.89,1758.36Z" fill="#ad5b81"/><path d="M665.34,1165.6c-6.8,1.05-13.42,2.11-19.79,3.17,1.29,24,2.11,50.39,2.8,80.78,6.43.33,13.13.56,20,.64C667.64,1218.42,666.76,1190.83,665.34,1165.6Z" fill="#ad5b81"/><path d="M701.73,1865.57l-20,1c.41,34,0,68.24-1.64,101.78a158.51,158.51,0,0,0,19.76,5.55C701.68,1938.28,702.18,1901.73,701.73,1865.57Z" fill="#ad5b81"/><path d="M674.21,1516.76q-.9-30.35-1.59-57.89c-6.93.5-13.63.77-20,.87q.69,27.71,1.6,58.21l0,.59.09.6c.08.56,2,13.6,4.83,35.87,6.34.46,13.18.75,20.24.73C676.67,1533.69,674.66,1519.79,674.21,1516.76Z" fill="#ad5b81"/><path d="M691.28,1667.66c-6.9,1-13.54,2.06-19.79,3.1,1.91,21.79,3.72,45.18,5.29,69.63,6.33-.73,13-1.43,19.9-2.05C695.08,1713.49,693.23,1689.75,691.28,1667.66Z" fill="#ad5b81"/><path d="M655.58,1071c-3.76-23.12-8.66-46.39-15.16-71.85-6.61,1.05-13.24,2-19.86,2.69,6.6,25.5,11.55,48.63,15.31,71.7Q645.56,1072.48,655.58,1071Z" fill="#ad5b81"/><path d="M670,1337.05q-.16-9.43-.33-18.37c-.31-17.16-.6-33.2-.9-48.34-6.89-.07-13.58-.29-20-.6.31,15.38.61,31.74.92,49.3q.16,8.76.33,18C656.39,1337.16,663.09,1337.18,670,1337.05Z" fill="#ad5b81"/><path d="M670.41,1357.18q-5.16.1-10.12.1t-9.89-.09c.47,25,1,52.42,1.74,82.44,6.35-.1,13.06-.37,20-.88C671.42,1409.08,670.87,1381.94,670.41,1357.18Z" fill="#ad5b81"/><path d="M613.64,907.55l-19,6.08c8.1,25.34,14.91,47.83,20.68,68.56q9.81-1,20-2.56C629.26,957.79,622.14,934.15,613.64,907.55Z" fill="#ad5b81"/><path d="M681.84,1575.7c-1.4,0-2.79,0-4.17,0-5.54,0-10.91-.18-16-.48,2.46,20.74,5.28,46.37,8,75.47,6.26-1,12.9-2.08,19.79-3.08C686.87,1620.16,684.21,1595.78,681.84,1575.7Z" fill="#ad5b81"/><path d="M689.58,1500l-.6,2.54.72,2.5c4.48,15.59,8.45,32.18,12,49.46a139.53,139.53,0,0,0,19.65-3.6c-3.46-17-7.33-33.41-11.7-48.91,1.39-6.33,5.11-24,9.27-50-7,1.68-14,3-20.93,4.11C693.4,1483.48,689.67,1499.61,689.58,1500Z" fill="#ad5b81"/><path d="M696.15,1063.58q9.69-2.13,19.6-4.65a705.93,705.93,0,0,0-19.21-72.49q-9.66,2.87-19.38,5.26A694.45,694.45,0,0,1,696.15,1063.58Z" fill="#ad5b81"/><path d="M714.72,1248.23c6.71-.7,13.41-1.62,20-2.77-.25-30.34-1.7-59.9-4.35-88.51-6.68.72-13.36,1.5-20,2.33C713.27,1190.34,714.53,1220.32,714.72,1248.23Z" fill="#ad5b81"/><path d="M714.09,1294.25c-.47,13.8-1.16,27.19-2,40.08,6.72-.78,13.49-1.74,20.24-2.92.74-11.65,1.34-23.69,1.76-36.05q.51-14.89.64-29.58c-6.64,1.09-13.33,2-20,2.63Q714.52,1281.73,714.09,1294.25Z" fill="#ad5b81"/><path d="M701.26,1435.16c7-1.25,14-2.82,20.89-4.76,3.17-22.36,6.31-48.9,8.67-78.41-6.79,1.1-13.57,2-20.29,2.72C708,1385.45,704.57,1412.75,701.26,1435.16Z" fill="#ad5b81"/><path d="M719.64,1078.62q-9.82,2.49-19.64,4.67c3.45,18.85,6.17,37.59,8.3,56q9.94-1.23,20-2.32-2.28-19.85-5.32-39Q721.41,1088.19,719.64,1078.62Z" fill="#ad5b81"/><path d="M658.14,894.62,640.45,904a538.82,538.82,0,0,1,30.18,68.7q9.6-2.32,19.44-5.18A566.21,566.21,0,0,0,658.14,894.62Z" fill="#ad5b81"/><path d="M723.83,1736.38c6.71-.35,13.43-.58,20.06-.66-1.51-23.87-3.5-48.68-6.1-73.63-6.64.59-13.31,1.28-19.89,2.05C720.39,1688.24,722.33,1712.53,723.83,1736.38Z" fill="#ad5b81"/><path d="M715.7,1644.21c6.57-.76,13.23-1.45,19.89-2-2.85-24.26-6.32-48.43-10.52-71.75a160.94,160.94,0,0,1-19.64,3.66C709.51,1596.7,712.9,1620.28,715.7,1644.21Z" fill="#ad5b81"/><path d="M728.08,1844.18l20.07-1q-.25-14.72-.71-30.23c-.52-17.82-1.29-37.08-2.38-57.21-6.6.08-13.33.31-20.06.66C726.64,1787.13,727.59,1816.85,728.08,1844.18Z" fill="#ad5b81"/><path d="M748.43,1863.16l-20.07,1c.56,52-.45,93.12-1.08,112.46a88.92,88.92,0,0,0,20.1-2.68C748,1953.1,749,1912.94,748.43,1863.16Z" fill="#ad5b81"/><path d="M696.54,986.44q16.19-4.77,32.21-10.8-4.86-9.25-9.89-17.65-14.6,5.37-28.79,9.49Q693.43,976.84,696.54,986.44Z" fill="#bf688a"/><path d="M677.16,991.7q-3.1-9.56-6.53-19-18.14,4.38-35.38,7,2.73,10,5.17,19.54Q658.84,996.25,677.16,991.7Z" fill="#bf688a"/><path d="M609.56,1003c3.66-.31,7.33-.69,11-1.1-1.66-6.39-3.42-12.93-5.29-19.67-11.86,1.23-23.32,1.91-34.33,2.12l.19,20.11Q595.35,1004.17,609.56,1003Z" fill="#bf688a"/><path d="M444.64,963.33c-10.26-3.51-19.1-7-26.38-10.18q-4.61,8.83-8.7,18.09c8,3.48,17.69,7.36,29,11.21Q441.66,972.31,444.64,963.33Z" fill="#bf688a"/><path d="M561.13,1004.32l-.19-20.1c-13.49-.39-26.16-1.43-37.9-2.89q-1.74,9.28-3.6,19.73Q540.18,1003.72,561.13,1004.32Z" fill="#bf688a"/><path d="M492.08,996.64c2.52.49,5.05,1,7.59,1.4q1.83-10.39,3.58-19.67-3.3-.58-6.47-1.19c-11.88-2.3-22.9-5-33-7.86q-3,8.94-6.05,19.1C468.22,991.4,479.7,994.22,492.08,996.64Z" fill="#bf688a"/><path d="M463.8,969.32c-6.83-2-13.23-4-19.16-6q-3,9-6,19.12c5.95,2,12.33,4,19.15,6Q460.81,978.27,463.8,969.32Z" fill="#e37fa3"/><path d="M519.44,1001.06q1.84-10.45,3.6-19.73c-6.93-.86-13.53-1.86-19.79-3q-1.74,9.27-3.58,19.67Q509.53,999.78,519.44,1001.06Z" fill="#e37fa3"/><path d="M573.36,1004.51c2.59,0,5.18,0,7.77-.09l-.19-20.11q-10.28.21-20-.09l.19,20.1Q567.24,1004.5,573.36,1004.51Z" fill="#e37fa3"/><path d="M640.42,999.17q-2.43-9.54-5.17-19.54-10.17,1.56-20,2.56c1.87,6.74,3.63,13.28,5.29,19.67C627.18,1001.13,633.81,1000.22,640.42,999.17Z" fill="#e37fa3"/><path d="M696.54,986.44q-3.1-9.6-6.47-19-9.84,2.87-19.44,5.18,3.43,9.48,6.53,19Q686.88,989.3,696.54,986.44Z" fill="#e37fa3"/><path d="M488.26,1069.49l-3.13-.56c-16.63-3-31.75-6.69-45.2-10.55q-.78,3.69-1.54,7.45-1.2,6-2.37,12.26c13.34,3.76,28.21,7.33,44.52,10.33,1.65.31,3.31.6,5,.89q1.14-8.4,2.26-16.29C487.92,1071.84,488.09,1070.66,488.26,1069.49Z" fill="#bf688a"/><path d="M508,1072.53c-.18,1.23-.35,2.47-.53,3.72-.74,5.19-1.48,10.57-2.23,16.1a530.54,530.54,0,0,0,56.74,4.51l-.19-20.11A509.72,509.72,0,0,1,508,1072.53Z" fill="#bf688a"/><path d="M419,1060.94q.87-4.32,1.77-8.54c-13.89-4.68-25.32-9.33-34.05-13.23q-2.44,9.86-4.52,19.93c9.24,4,20.81,8.57,34.59,13.11Q417.84,1066.56,419,1060.94Z" fill="#bf688a"/><path d="M655.58,1071q1.6,9.93,2.95,19.89,20.7-3.06,41.47-7.62-1.79-9.84-3.85-19.71C682.25,1066.64,668.71,1069.09,655.58,1071Z" fill="#bf688a"/><path d="M719.64,1078.62q21-5.36,41.93-12.22l-.33-1.93q-2-9-4.41-17.58-21,6.91-41.08,12Q717.81,1068.68,719.64,1078.62Z" fill="#bf688a"/><path d="M638.82,1093.47c-.89-6.67-1.87-13.29-3-19.91-19,2.11-37,3.13-54,3.33L582,1097c12.81-.14,25.67-.69,38.57-1.73C626.65,1094.77,632.73,1094.16,638.82,1093.47Z" fill="#bf688a"/><path d="M438.39,1065.83q.76-3.76,1.54-7.45c-6.83-2-13.23-4-19.18-6q-.9,4.21-1.77,8.54-1.14,5.63-2.21,11.27c6,2,12.42,4,19.25,5.88Q437.19,1071.81,438.39,1065.83Z" fill="#e37fa3"/><path d="M508,1072.53q-10.35-1.38-19.77-3c-.17,1.17-.34,2.35-.5,3.53q-1.12,7.88-2.26,16.29,9.84,1.71,19.77,3c.75-5.53,1.49-10.91,2.23-16.1C507.68,1075,507.85,1073.76,508,1072.53Z" fill="#e37fa3"/><path d="M561.82,1076.75l.19,20.11q7.05.18,14.14.19c2,0,3.91,0,5.86-.06l-.19-20.1Q571.58,1077,561.82,1076.75Z" fill="#e37fa3"/><path d="M638.82,1093.47q9.84-1.11,19.71-2.56-1.35-10-2.95-19.89-10,1.47-19.71,2.54C637,1080.18,637.93,1086.8,638.82,1093.47Z" fill="#e37fa3"/><path d="M700,1083.29q9.82-2.18,19.64-4.67-1.83-9.94-3.89-19.69-9.91,2.53-19.6,4.65Q698.21,1073.45,700,1083.29Z" fill="#e37fa3"/><path d="M665.34,1165.6c14.39-2.23,29.59-4.4,45-6.32q-.93-9.91-2.07-20c-15.18,1.88-30.1,4-44.24,6.16Q664.77,1155.3,665.34,1165.6Z" fill="#bf688a"/><path d="M423.37,1170.52c16.9,1,34.83,2.09,52.15,3.29q1-10.17,2.11-19.9c-17.39-1.22-35.34-2.34-52.28-3.33Q424.29,1160.33,423.37,1170.52Z" fill="#bf688a"/><path d="M728.29,1137q1.13,9.9,2.08,20c13-1.41,25.92-2.58,38.52-3.42-.09-6.81-.26-13.5-.52-20C755.22,1134.35,741.75,1135.56,728.29,1137Z" fill="#bf688a"/><path d="M582.61,1159.84l.19,20.38c13.39-2.67,35.86-7,62.75-11.45-.38-6.9-.79-13.59-1.24-20.14C618.63,1152.87,596.81,1157,582.61,1159.84Z" fill="#bf688a"/><path d="M405.29,1149.44c-13.08-.72-25-1.34-34.94-1.83q-.71,10-1.18,20c9.69.49,21.35,1.1,34.13,1.8Q404.2,1159.38,405.29,1149.44Z" fill="#bf688a"/><path d="M562.63,1162.08c-14.18-2.34-38.07-4.63-65-6.7q-1.06,9.72-2.11,19.88c27.55,2.1,51.65,4.39,64.82,6.7l2.43-9.49Z" fill="#bf688a"/><path d="M425.35,1150.58l-20.06-1.14q-1.08,9.93-2,19.94l20.07,1.14Q424.29,1160.32,425.35,1150.58Z" fill="#e37fa3"/><path d="M475.52,1173.81c6.78.47,13.47,1,20,1.45q1-10.17,2.11-19.88c-6.51-.51-13.19-1-20-1.47Q476.57,1163.65,475.52,1173.81Z" fill="#e37fa3"/><path d="M562.73,1172.47q1.35-5.22,2.57-9.92c-.85-.16-1.74-.31-2.67-.47Z" fill="#e37fa3"/><path d="M579.64,1160.44l2.89,19.84.27-.06-.19-20.38Z" fill="#e37fa3"/><path d="M664.06,1145.48c-6.78,1-13.39,2.1-19.75,3.15.45,6.55.86,13.24,1.24,20.14,6.37-1.06,13-2.12,19.79-3.17Q664.77,1155.3,664.06,1145.48Z" fill="#e37fa3"/><path d="M710.37,1159.28c6.64-.83,13.32-1.61,20-2.33q-.95-10.07-2.08-20-10,1.08-20,2.32Q709.46,1149.37,710.37,1159.28Z" fill="#e37fa3"/><path d="M399,1252q.08-5.94.23-11.85c-11.84-2.79-22.32-5.7-31-8.3q.18,10.61.56,21.08c8.74,2.52,18.88,5.21,30.12,7.76C399,1257.78,399,1254.88,399,1252Z" fill="#bf688a"/><path d="M419.07,1264.84a458.53,458.53,0,0,0,48.18,6.41q.69-10.12,1.42-20a446,446,0,0,1-49.36-6.84Q419.1,1254.49,419.07,1264.84Z" fill="#bf688a"/><path d="M488.65,1252.34q-.73,9.83-1.43,19.94,4.74.13,9.52.14a305.48,305.48,0,0,0,42.17-2.79q2.51-10.77,5-21A282.9,282.9,0,0,1,488.65,1252.34Z" fill="#bf688a"/><path d="M419.07,1264.84q0-10.35.24-20.4c-7-1.36-13.72-2.81-20.05-4.3q-.15,5.91-.23,11.85c0,2.89,0,5.79-.06,8.69q5.4,1.23,11.14,2.41C413,1263.68,416,1264.27,419.07,1264.84Z" fill="#e37fa3"/><path d="M467.25,1271.25c6.52.5,13.2.85,20,1q.69-10.11,1.43-19.94c-6.73-.17-13.4-.54-20-1.06Q467.94,1261.12,467.25,1271.25Z" fill="#e37fa3"/><path d="M401.25,1340.93c-9.9-1.73-18.91-3.62-26.69-5.43.72,7.17,1.47,14.21,2.27,21.08,7.77,1.7,16.47,3.41,25.88,5Q401.89,1351.21,401.25,1340.93Z" fill="#bf688a"/><path d="M423.08,1364.41q20.35,2.46,39.15,2.87.38-10.14.8-20.08a388.47,388.47,0,0,1-41.46-3.19Q422.23,1354.11,423.08,1364.41Z" fill="#bf688a"/><path d="M482.25,1367.12a268.11,268.11,0,0,0,35.91-3.75q2.24-10.72,4.5-21.29a238.41,238.41,0,0,1-39.61,4.91Q482.63,1357,482.25,1367.12Z" fill="#bf688a"/><path d="M423.08,1364.41q-.85-10.31-1.51-20.4c-7.09-.91-13.88-2-20.32-3.08q.64,10.27,1.46,20.6c2.48.41,5,.8,7.59,1.19C414.62,1363.35,418.87,1363.91,423.08,1364.41Z" fill="#e37fa3"/><path d="M463,1347.2q-.43,9.94-.8,20.08,3.78.09,7.49.09,6.36,0,12.53-.25.38-10.17.8-20.13C476.35,1347.28,469.65,1347.34,463,1347.2Z" fill="#e37fa3"/><path d="M480.41,1442.24q-.12,9.94-.18,20c4.23.22,8.47.34,12.68.34,2.13,0,4.25,0,6.37-.1q1.71-10,3.52-20.16A209.29,209.29,0,0,1,480.41,1442.24Z" fill="#bf688a"/><path d="M434.19,1456.3c8.46,1.69,17.2,3.14,26.05,4.22q.06-10.18.19-20.2c-10-1.32-19.92-3.13-29.42-5.22Q432.5,1445.61,434.19,1456.3Z" fill="#bf688a"/><path d="M410.1,1429.93c-8.76-2.39-16.9-4.89-24.18-7.29,1.27,7.92,2.53,15.37,3.74,22.3,7.3,2.25,15.2,4.5,23.55,6.61Q411.56,1440.74,410.1,1429.93Z" fill="#bf688a"/><path d="M431,1435.1c-7.24-1.6-14.25-3.35-20.91-5.17q1.45,10.8,3.11,21.62c6.74,1.71,13.76,3.32,21,4.75Q432.48,1445.61,431,1435.1Z" fill="#e37fa3"/><path d="M460.24,1460.52c6.62.81,13.3,1.42,20,1.77q.06-10.11.18-20c-6.66-.38-13.35-1-20-1.92Q460.31,1450.34,460.24,1460.52Z" fill="#e37fa3"/><path d="M414.25,1538.6c-7.94-2.53-15.41-5.27-22.14-8q-2.87,9.6-5.42,19.49c7.15,2.82,15,5.65,23.42,8.25C411.59,1551.19,413,1544.58,414.25,1538.6Z" fill="#bf688a"/><path d="M475.35,1569.44h.6a137.28,137.28,0,0,0,26.59-2.48c-1.36-7.27-2.85-13.82-4.31-19.53a115.74,115.74,0,0,1-21,2C476.7,1555.42,476.07,1562.1,475.35,1569.44Z" fill="#bf688a"/><path d="M429.49,1563.64a229.42,229.42,0,0,0,25.89,4.58q1.06-11,1.89-19.94a211.16,211.16,0,0,1-23.69-4.3C432.31,1549.94,430.94,1556.51,429.49,1563.64Z" fill="#bf688a"/><path d="M433.58,1544c-6.66-1.58-13.14-3.41-19.33-5.38-1.28,6-2.66,12.59-4.14,19.77,6.22,1.92,12.7,3.71,19.38,5.27C430.94,1556.51,432.31,1549.94,433.58,1544Z" fill="#e37fa3"/><path d="M455.38,1568.22a180.19,180.19,0,0,0,20,1.22c.72-7.34,1.35-14,1.9-20a157.93,157.93,0,0,1-20-1.16Q456.45,1557.24,455.38,1568.22Z" fill="#e37fa3"/><path d="M413.88,1646.63c10.58,1.2,21.65,2.62,32.7,4.27q1.19-10.29,2.25-19.92c-10.66-1.6-21.28-3-31.46-4.13Q415.63,1636.47,413.88,1646.63Z" fill="#bf688a"/><path d="M397.34,1624.72c-9.39-.91-18.08-1.64-25.66-2.22q-1.6,9.9-3,19.86c7.39.57,15.93,1.28,25.19,2.18Q395.6,1634.37,397.34,1624.72Z" fill="#bf688a"/><path d="M466.34,1654.13c13.72,2.46,26.94,5.33,38.67,8.66,1-6.86,1.66-13.59,2.11-20.17-11.94-3.23-25.06-6-38.53-8.42Q467.53,1643.85,466.34,1654.13Z" fill="#bf688a"/><path d="M417.37,1626.85c-6.92-.8-13.64-1.5-20-2.13q-1.72,9.65-3.49,19.82c6.38.61,13.1,1.3,20,2.09Q415.64,1636.48,417.37,1626.85Z" fill="#e37fa3"/><path d="M446.58,1650.9c6.63,1,13.25,2.07,19.76,3.23q1.19-10.29,2.25-19.93c-6.54-1.16-13.15-2.24-19.76-3.22Q447.77,1640.61,446.58,1650.9Z" fill="#e37fa3"/><path d="M382.25,1717.86c-8.26.07-15.73.28-22,.52q-.83,10.14-1.53,20.11c5.79-.24,12.84-.46,20.72-.57Q380.83,1727.71,382.25,1717.86Z" fill="#bf688a"/><path d="M455.55,1742a199,199,0,0,1,24.13,4.94q3.42-9.39,7.23-18.68a220.88,220.88,0,0,0-28.81-6Q456.87,1731.91,455.55,1742Z" fill="#bf688a"/><path d="M399.71,1738c11.53.18,23.84.69,36,1.74q1.32-10.08,2.56-19.82c-12.09-1.09-24.26-1.66-35.71-1.9Q401.09,1727.84,399.71,1738Z" fill="#bf688a"/><path d="M399.71,1738q1.38-10.11,2.82-20c-7.11-.15-13.93-.17-20.28-.11q-1.41,9.84-2.8,20.06C385.75,1737.84,392.58,1737.83,399.71,1738Z" fill="#e37fa3"/><path d="M435.68,1739.69c6.74.58,13.42,1.33,19.87,2.28q1.32-10,2.55-19.77c-6.5-1-13.17-1.72-19.86-2.33Q437,1729.61,435.68,1739.69Z" fill="#e37fa3"/><path d="M369.42,1824.53c-5.35.46-10.37,1-15,1.51q-.31,10.45-.57,20.23c4.17-.5,8.77-1,13.7-1.47Q368.46,1834.6,369.42,1824.53Z" fill="#bf688a"/><path d="M389.66,1823.19q-1,10-1.86,20.1c10.91-.58,22.39-.79,33.43-.26q1.49-10,2.91-19.77C412.66,1822.61,400.87,1822.69,389.66,1823.19Z" fill="#bf688a"/><path d="M441.16,1845a113,113,0,0,1,11.85,2.46q1.74-9.84,3.78-19.61c-4.07-1-8.33-1.85-12.73-2.52Q442.64,1835,441.16,1845Z" fill="#bf688a"/><path d="M369.42,1824.53q-1,10.07-1.83,20.27c6.31-.6,13.14-1.14,20.21-1.51q.88-10.08,1.86-20.1C382.61,1823.5,375.79,1824,369.42,1824.53Z" fill="#e37fa3"/><path d="M421.23,1843a190,190,0,0,1,19.93,1.92q1.48-9.95,2.9-19.67c-6.41-1-13.11-1.63-19.92-2Q422.72,1833,421.23,1843Z" fill="#e37fa3"/><path d="M668.37,1250.19q.23,9.8.43,20.15l4.82,0c13.28,0,27.16-.56,41-1.95q.12-9.89.05-20.18A401.6,401.6,0,0,1,668.37,1250.19Z" fill="#bf688a"/><path d="M648.35,1249.55c-24.89-1.27-45.61-4-56.55-5.74l3,20.73c12.47,1.81,31.61,4.11,54,5.2Q648.57,1259.36,648.35,1249.55Z" fill="#bf688a"/><path d="M734.7,1265.78a249.54,249.54,0,0,0,29.09-6.51q1.11-10.9,2-21.58a211.36,211.36,0,0,1-31,7.77Q734.8,1255.56,734.7,1265.78Z" fill="#bf688a"/><path d="M668.37,1250.19c-6.89-.08-13.59-.31-20-.64q.23,9.81.43,20.19c6.44.31,13.13.53,20,.6Q668.59,1260,668.37,1250.19Z" fill="#e37fa3"/><path d="M714.67,1268.41c6.7-.67,13.39-1.54,20-2.63q.09-10.21,0-20.32c-6.59,1.15-13.29,2.07-20,2.77Q714.78,1258.52,714.67,1268.41Z" fill="#e37fa3"/><path d="M650,1337c-18.76-.36-34.58-1.64-45-2.71l3,20.46c10.82,1,25.47,2.09,42.42,2.4Q650.2,1346.84,650,1337Z" fill="#bf688a"/><path d="M730.82,1352c6.87-1.11,13.76-2.43,20.59-4q1.9-10.82,3.6-21.49c-7.48,1.94-15.08,3.56-22.71,4.9Q731.63,1341.91,730.82,1352Z" fill="#bf688a"/><path d="M670.41,1357.18c12.74-.25,26.28-1,40.12-2.47q.84-10,1.53-20.38c-14.44,1.66-28.68,2.47-42,2.72Q670.21,1346.84,670.41,1357.18Z" fill="#bf688a"/><path d="M670.41,1357.18q-.2-10.34-.38-20.13c-6.94.13-13.64.11-20,0q.18,9.8.37,20.15,4.83.09,9.89.09T670.41,1357.18Z" fill="#e37fa3"/><path d="M710.53,1354.71c6.72-.72,13.5-1.62,20.29-2.72q.81-10.07,1.48-20.58c-6.75,1.18-13.52,2.14-20.24,2.92Q711.37,1344.74,710.53,1354.71Z" fill="#e37fa3"/><path d="M718.9,1451.94q5.4-1.29,10.74-2.87,2.93-11.5,5.64-22.94c-4.3,1.59-8.69,3-13.13,4.27C721.06,1438.09,720,1445.29,718.9,1451.94Z" fill="#bf688a"/><path d="M672.62,1458.87c8.21-.58,16.73-1.49,25.35-2.82,1.06-6.37,2.17-13.35,3.29-20.89a284.27,284.27,0,0,1-29.13,3.59Q672.36,1448.62,672.62,1458.87Z" fill="#bf688a"/><path d="M652.64,1459.74q-.27-10.24-.5-20.11c-12.42.2-23.44-.25-31.9-.82l3,20.31c6.68.39,14.51.67,23.15.67C648.4,1459.79,650.5,1459.78,652.64,1459.74Z" fill="#bf688a"/><path d="M672.13,1438.75c-6.93.51-13.64.78-20,.88q.24,9.87.5,20.11c6.35-.1,13.05-.37,20-.87Q672.37,1448.63,672.13,1438.75Z" fill="#e37fa3"/><path d="M698,1456.05c6.95-1.07,14-2.43,20.93-4.11,1.06-6.65,2.16-13.85,3.25-21.54-6.88,1.94-13.89,3.51-20.89,4.76C700.14,1442.7,699,1449.68,698,1456.05Z" fill="#e37fa3"/><path d="M659.18,1555c-8.24-.59-15.61-1.47-21.52-2.31,1,6.51,1.84,13.4,2.67,20.6,6.2.78,13.44,1.51,21.33,2C660.78,1567.87,660,1561.1,659.18,1555Z" fill="#bf688a"/><path d="M725.07,1570.42a112.73,112.73,0,0,0,25-9.44c-2.1-7.09-4.33-13.44-6.59-19.12a86.47,86.47,0,0,1-22.19,9Q723.28,1560.54,725.07,1570.42Z" fill="#bf688a"/><path d="M681.84,1575.7a219,219,0,0,0,23.59-1.62q-1.78-9.93-3.75-19.59a202.27,202.27,0,0,1-22.26,1.25C680.18,1561.79,681,1568.46,681.84,1575.7Z" fill="#bf688a"/><path d="M681.84,1575.7c-.85-7.24-1.66-13.91-2.42-20-7.06,0-13.9-.27-20.24-.73.77,6.09,1.6,12.86,2.48,20.25,5.1.3,10.47.48,16,.48C679.05,1575.74,680.44,1575.72,681.84,1575.7Z" fill="#e37fa3"/><path d="M705.43,1574.08a160.94,160.94,0,0,0,19.64-3.66q-1.79-9.87-3.74-19.53a139.53,139.53,0,0,1-19.65,3.6Q703.65,1564.15,705.43,1574.08Z" fill="#e37fa3"/><path d="M669.67,1650.73c-8.24,1.36-15.82,2.71-22.48,3.94q.62,10,1.15,20.18c6.74-1.26,14.57-2.66,23.15-4.09Q670.59,1660.5,669.67,1650.73Z" fill="#bf688a"/><path d="M737.79,1662.09c8.92-.78,17.8-1.38,26.43-1.7q-.32-10.41-.94-20c-9.09.33-18.39.95-27.69,1.77Q736.76,1652.13,737.79,1662.09Z" fill="#bf688a"/><path d="M691.28,1667.66c8.56-1.26,17.51-2.46,26.62-3.52q-1-10-2.2-19.93c-9,1-17.8,2.21-26.24,3.44Q690.38,1657.4,691.28,1667.66Z" fill="#bf688a"/><path d="M689.46,1647.65c-6.89,1-13.53,2-19.79,3.08q.92,9.76,1.82,20c6.25-1,12.89-2.09,19.79-3.1Q690.38,1657.42,689.46,1647.65Z" fill="#e37fa3"/><path d="M717.9,1664.14c6.58-.77,13.25-1.46,19.89-2.05q-1-10-2.2-19.92c-6.66.59-13.32,1.28-19.89,2Q716.87,1654.14,717.9,1664.14Z" fill="#e37fa3"/><path d="M697.89,1758.36c8.82-.81,18-1.51,27.11-2q-.54-9.93-1.17-20c-9.19.47-18.34,1.15-27.15,2Q697.31,1748.24,697.89,1758.36Z" fill="#bf688a"/><path d="M743.89,1735.72q.65,10.13,1.17,20c6.05-.07,12,0,17.7.23q.12-9.74.34-20C756.86,1735.71,750.42,1735.64,743.89,1735.72Z" fill="#bf688a"/><path d="M676.78,1740.39c-9.43,1.08-18.09,2.22-25.54,3.28q.35,10.13.62,20.15c7.48-1.07,16.38-2.25,26.13-3.38Q677.42,1750.3,676.78,1740.39Z" fill="#bf688a"/><path d="M696.68,1738.34c-6.89.62-13.57,1.32-19.9,2.05q.63,9.91,1.21,20c6.33-.74,13-1.44,19.9-2.08Q697.32,1748.24,696.68,1738.34Z" fill="#e37fa3"/><path d="M725,1756.37c6.73-.35,13.46-.58,20.06-.66q-.52-9.86-1.17-20c-6.63.08-13.35.31-20.06.66Q724.47,1746.43,725,1756.37Z" fill="#e37fa3"/><path d="M701.39,1845.56q.21,10,.34,20l26.63-1.37q-.11-9.77-.28-20Z" fill="#bf688a"/><path d="M681.41,1846.6,653.55,1848q.13,10.34.22,20l28-1.44Q681.63,1856.58,681.41,1846.6Z" fill="#bf688a"/><path d="M748.43,1863.16l16.27-.84q-.51-9.87-.91-20l-15.64.81Q748.33,1853.38,748.43,1863.16Z" fill="#bf688a"/><path d="M681.41,1846.6q.21,10,.34,20l20-1q-.12-10-.34-20Z" fill="#e37fa3"/><path d="M728.36,1864.2l20.07-1q-.09-9.78-.28-20l-20.07,1Q728.26,1854.43,728.36,1864.2Z" fill="#e37fa3"/><path d="M651.12,877.41a182.59,182.59,0,0,1-25.58,12.45c21.59,45.55,58.51,94.17,110.23,100C700.48,914.45,651.12,877.41,651.12,877.41Z" fill="#a34866"/><path d="M625.54,889.86c-3.77,1.48-7.54,2.84-11.28,4,13.66,33.07,32.66,62.6,62.33,85.29,19.31,15.6,41.39,21.81,64.58,22.75q-2.64-6.21-5.4-12.09C684.05,984,647.13,935.41,625.54,889.86Z" fill="#79a399"/><path d="M494,894.08a175.62,175.62,0,0,1-25-8.9c-33.46,31.05-56.66,72.54-72.3,119.38C417.67,1003.72,463.94,990.18,494,894.08Z" fill="#a34866"/><path d="M494,894.08c-30,96.1-76.31,109.64-97.28,110.48q-1.92,5.76-3.69,11.6c63.45,1.79,97.74-60.87,114-118.79C502.29,896.32,497.94,895.2,494,894.08Z" fill="#79a399"/><path d="M593,1074.25l-8.89-149.54-28.94,1.41s-2.16,74.2,2,147.06c.93,16.46,2.18,32.86,3.85,48.32q6.74,3.09,13.89,5.9a93.76,93.76,0,0,0,20.92-6.15Z" fill="#79a399"/><path d="M671.75,896.3c-12.28-12.62-20.63-18.89-20.63-18.89C562.18,929.65,469,885.18,469,885.18a222.1,222.1,0,0,0-18,18.89C480.46,919.77,574.47,959.86,671.75,896.3Z" fill="#fff"/><path d="M547.3,902.66c-.07,9.37.37,18.74.16,28.12A204.74,204.74,0,0,0,592.55,928c-1-9.31-2.46-18.8-3.38-28A201,201,0,0,1,547.3,902.66Z" fill="#5f7fb3"/><path d="M485.34,918.79c4.37,1.48,9,2.91,13.91,4.24a247.67,247.67,0,0,1,7.07-25.81h0q-3.37-.76-6.5-1.56l-.59-.16-2.39-.63-.67-.18-2.77-.77" fill="#ccc"/><path d="M628.59,888.63q-7.1,2.94-14.15,5.2c4.29,8.25,7.27,17,10.43,25.78q7.13-2.5,14.33-5.65" fill="#ccc"/><path d="M682.18,1054.59c-93.18,55.06-177.89,18.35-218.83-7.06.46,1.13,40.78,52.16,111.47,79.87C600.29,1123.76,652.15,1095.67,682.18,1054.59Z" fill="#8c3e58"/><path d="M466.09,1506.46c-12.92,3.66-25.58.27-33.72-3.08a4.07,4.07,0,0,0-5.24,5.42c14.23,32.07,32.63,17.32,43.22,4.09A4.06,4.06,0,0,0,466.09,1506.46Z" fill="#8c3e58"/><path d="M652.17,1516.06c20.46,28.51,35.47,10.32,43.14-4.79a4.05,4.05,0,0,0-5.48-5.42c-11.9,6.2-25,5.46-33.64,3.84A4.06,4.06,0,0,0,652.17,1516.06Z" fill="#8c3e58"/><path d="M654,1901.49c-10.54,22.51-3.67,51.41,0,55.22,0,0,69.18,40.94,118.59,5.64,5.65-8.11,1.41-48.35-4.64-52.3C729.57,1919,689.1,1919.4,654,1901.49Z" fill="#79a399"/><path d="M348.89,1927.64c-12.24,11.77-14.36,45.65-10.13,53.07,0,0,38,36.88,111.06-9.71,4.43-17.09,2-37.56-5-56.24C413.94,1940.47,365,1933.42,348.89,1927.64Z" fill="#79a399"/></g></g></g></svg>