<svg xmlns="http://www.w3.org/2000/svg" width="1262.35" height="2193.94" viewBox="0 0 1262.35 2193.94"><defs><style>.a{fill:none;}.b{fill:#9e5544;}.c{fill:#8a4036;}.d{fill:#ba5649;}.e{fill:#fff;}</style></defs><title>2_girl_mouth_1</title><rect class="a" width="1262.35" height="2193.94"/><path class="b" d="M527.05,402.09s11.66,54,50.71,51.91,49.89-52.12,49.89-52.12Z"/><path class="b" d="M523.52,401.75s45.71-26.73,107.66-.32C589.6,415.43,565.56,411.5,523.52,401.75Z"/><path class="c" d="M620.75,413.8c-41.49-5.15-73.55-1.51-86.71.56a92.79,92.79,0,0,0,8.51,11c19.74-14.49,47.33-13.2,65,4.19A71,71,0,0,0,620.75,413.8Z"/><path class="d" d="M542.55,425.35c8,8.83,18.94,16.8,32.21,16.81,14,0,24.74-5.6,32.77-12.62C589.88,412.15,562.29,410.86,542.55,425.35Z"/><path class="e" d="M527.05,402.07a89.77,89.77,0,0,0,5.23,9.55c.55.88,1.13,1.8,1.76,2.74,13.16-2.07,45.22-5.71,86.71-.56.6-1,1.16-1.91,1.67-2.81a63.5,63.5,0,0,0,4.18-8.58C580.74,403.93,527.05,402.07,527.05,402.07Z"/></svg>