<svg xmlns="http://www.w3.org/2000/svg" width="1262.35" height="2193.94" viewBox="0 0 1262.35 2193.94"><title>2_girl_hair_3</title><g id="Layer_2" data-name="Layer 2"><g id="Layer_148" data-name="Layer 148"><g id="_2_girl_hair_3" data-name="2_girl_hair_3"><rect width="1262.35" height="2193.94" fill="none"/><path d="M742.18,294.68c-.35-1.35-.72-2.64-1.12-3.86C741.06,290.82,741.49,292.18,742.18,294.68Z" fill="none" stroke="#fff" stroke-miterlimit="10"/><path d="M568.47,64.24c-241.32,6.7-196.94,310.23-196.94,310.23s7.63,18.39,35.73,34.74c-4-19.43-8.72-50.44-6.08-78.15,0,0,6.94,52.45,20.83,85.59,13.22,5.78,29.69,10.8,50.11,13.94,0,0-46.59-68.83-34.94-164.12,0,0,14.71,5.94,42.37,11,2.1-22.63,8.45-61.8,27.51-92.51,0,0-15.88,46.59-14.23,94.68a499.85,499.85,0,0,0,68.52,4.72l6.06-99.4,9.74,99.22a578.94,578.94,0,0,0,81.22-8.2,570.48,570.48,0,0,0-16.84-85.72s21.82,41.31,27.7,84.43c10.95-2,24.22-5.42,35.83-8.2,0,0,6.35,114.35-28.59,145.06,0,0,33.72-7.34,65.63-26,3.08-28.32,5.8-68.36.08-90.87-.69-2.5-1.12-3.86-1.12-3.86.4,1.22.77,2.51,1.12,3.86,3.12,11.28,11.62,45.84,10.58,84.14,11.17-7.64,21.58-16.79,29.59-27.64C782.35,351.18,809.88,64.24,568.47,64.24Z" fill="#ffd400"/><path d="M742.18,294.68c-.34-1.31-.7-2.57-1.09-3.76C741.19,291.26,741.59,292.56,742.18,294.68Z" fill="none"/><path d="M400.12,276s-14.83,56.12-8.47,98.47c0,0-11.48-5.41-22-18.91.89,11.9,1.91,18.91,1.91,18.91s7.63,18.39,35.73,34.74c-4-19.43-8.72-50.44-6.08-78.15,0,0,.53,4,1.59,10.49l-.53-4.14S396.94,292.94,400.12,276Z" fill="#cf9400"/><path d="M463.65,152.12s-78.36,65.64-41.3,234a54.79,54.79,0,0,1-11.49-4.67A248.92,248.92,0,0,0,422,416.65c13.22,5.78,29.69,10.8,50.11,13.94,0,0-46.59-68.83-34.94-164.12L427.41,262S423.41,219.88,463.65,152.12Z" fill="#cf9400"/><path d="M567.91,190l9.24,94.12q7.71-.21,15.59-.66c-.22-43.52-21.09-118.68-21.09-118.68Z" fill="#cf9400"/><path d="M609.23,213.8c-.17-.47-.35-.92-.52-1.33Z" fill="#cf9400"/><path d="M615.85,281.7q6.15-.61,12.51-1.39c-2.76-23.62-16.29-59.23-19.13-66.51C613.79,226.38,615.33,260.25,615.85,281.7Z" fill="#cf9400"/><path d="M741.09,290.92l0-.1Z" fill="#cf9400"/><path d="M735.41,250.82c4.24,21.18,8,47.53,8,47.53,3.4,16.44,10.05,54.64,9.35,80.47,11.17-7.64,21.58-16.79,29.59-27.64,0,0,.32-3.3.58-9.16-7.55,6.33-19.64,11.27-19.64,11.27C752.35,277.65,735.41,250.82,735.41,250.82Z" fill="#cf9400"/><path d="M633.06,164.82,642.43,192c4.16,8.3,21.63,44.78,26.8,82.67,4.89-.91,10.25-2.1,15.71-3.37C676.2,207,633.06,164.82,633.06,164.82Z" fill="#cf9400"/><path d="M679.65,144.71c21.17,27.53,37.23,117.47,37.23,117.47l-11.82,4.29s6.35,114.35-28.59,145.06c0,0,33.72-7.34,65.63-26,.95-8.71,1.86-18.52,2.51-28.59l-12,4.8C740,212.47,679.65,144.71,679.65,144.71Z" fill="#cf9400"/><path d="M507.06,184.94l5.12-14.82c-29.06,30.82-39.69,87.27-42.44,105.4q4.59,1,9.81,1.93C481.65,254.82,488,215.65,507.06,184.94Z" fill="#cf9400"/><path d="M494.94,239.78l12.12-54.84A312.76,312.76,0,0,0,494.94,239.78Z" fill="#cf9400"/><path d="M490.12,88.59s15.88,42.35,74.12,44.47c0,0-56.12,14.82-103.77-23.3C460.47,109.76,478.47,94.94,490.12,88.59Z" fill="#fff0a6"/><path d="M596,130.94s55.06-9.53,65.65-39.18c0,0,24.35,14.83,30.7,24.36C692.35,116.12,653.18,142.59,596,130.94Z" fill="#fff0a6"/></g></g></g></svg>