<svg xmlns="http://www.w3.org/2000/svg" width="1262.35" height="2193.94" viewBox="0 0 1262.35 2193.94"><title>2_girl_shirt_10</title><g id="Layer_2" data-name="Layer 2"><g id="Layer_148" data-name="Layer 148"><g id="_2_girl_shirt_10" data-name="2_girl_shirt_10"><rect width="1262.35" height="2193.94" fill="none"/><path d="M276.24,729.18l8.47,2.11s62.47-86.82,79.41-98.47c0,0,18.47-51.7,57.61-85.41-.34-3.81-.57-7.62-.64-11.42-39.2,17.76-61.7,61.44-70.53,82.26-2.27,5.35-57.92,72.56-57.92,72.56,1,.57-11.4,13.66-11.4,13.66C272.82,693.18,261,679.56,254,668.82c-8.44-13-16.46-28.72-22.47-41.39a68.56,68.56,0,0,1-13.95,11.29C229.32,660.31,259.44,714.06,276.24,729.18Z" fill="#55738c"/><path d="M421.73,547.41c-39.14,33.71-57.61,85.41-57.61,85.41-16.94,11.65-79.41,98.47-79.41,98.47l-8.47-2.11c-16.8-15.12-46.92-68.87-58.66-90.46-16.81,10.37-38.06,14.36-58.24,13.92,8.56,31.94,23.86,84.74,39.6,117.83,12,25.18,24.6,41.15,34.4,50.92a28.85,28.85,0,0,0,34.23,4.83c17.47-9.56,45.79-26,71.14-45.16,34.69-26.17,63.22-57.34,64.45-58.69s2.62-2.85,3.87-4.06h0a121.86,121.86,0,0,0,12.49-14.82c2.24-43.69,24.07-75.24,24.07-75.24S425.46,588.37,421.73,547.41Z" fill="#332d33"/><path d="M787.65,865.41c-11.3-63.53-22.57-191-35.3-235.76-11.25-39.57-22.3-55.61-29-62.07-3.59,26.51-11.69,63.13-29.92,98.77,0,0,22.94,38.88.66,85.59l1.63,9,36.83,113.26c.23,1-.69,64.22,50.33,198.8,20.14,1.24,41.36-2.11,59.85-10.66-6.32-51.91-19.34-108.05-32.53-143.32C796.21,881.57,787.65,865.41,787.65,865.41Z" fill="#332d33"/><path d="M832.12,925.06c-5.64-20.44-30.68-62.33-30.71-62.47L779.67,695.65a4.48,4.48,0,0,1-.11-.72c-6.38-92.87-27.53-115.44-52.91-144.34-.42-.47-.84-.91-1.27-1.36-.42,5.31-1.06,11.5-2,18.35,6.66,6.46,17.71,22.5,29,62.07,12.73,44.74,24,172.23,35.3,235.76,0,0,8.56,16.16,22.59,53.65,13.19,35.27,26.21,91.41,32.53,143.32a100.9,100.9,0,0,0,13.42-7.46C850.59,1014,841.83,960.26,832.12,925.06Z" fill="#55738c"/><path d="M723.34,568c1-7,1.61-13.33,2-18.73-23-24.51-61.61-21.57-69.36-20.7-.86.1-26.89-8.45-26.78-7.59.48,3.88-2.89,9.34-9,14.68,7.71,3.55,14.92,8,22.12,12.08C670.74,547.31,698.29,555.7,723.34,568Z" fill="#55738c"/><path d="M461.76,546.7c16.94-8.83,36.06-12.57,55.5-14A114.2,114.2,0,0,1,505,520.24c-.78-.92-39,8.44-39.44,8.41A86.49,86.49,0,0,0,421.09,536c.08,4.16.34,8.35.74,12.53C434.65,545.27,448.35,545.61,461.76,546.7Z" fill="#55738c"/><path d="M723.34,568c-19.88-9.73-41.32-17-63.51-19.42A98.29,98.29,0,0,1,625.3,538.1q-2.5-1.29-5.07-2.48c-18.7,16.32-63.19,31.54-103-2.92-14.67,1.08-29.16,3.48-42.67,8.38A77.42,77.42,0,0,1,447.21,546a97.68,97.68,0,0,0-25.38,2.57c3.95,40.57,21.76,79.72,21.76,79.72s-21.83,31.55-24.07,75.24a98,98,0,0,1,7-8.69h0l1.54-1.61c-2.64,52.7,24.25,88.19,27.84,92.69a4.29,4.29,0,0,1,.66,1.11c6.14,15,11.16,80.45,12.23,95.22a5,5,0,0,0,3,4.23c15.94,6.84,97.44,37.77,176.43-7.33a5.09,5.09,0,0,0,2.53-4.91c-5.66-58.85,41.31-133.72,41.31-133.72l2.07,11.47c22.28-46.71-.66-85.59-.66-85.59C711.61,630.88,719.72,594.44,723.34,568Z" fill="#332d33"/><path d="M231.53,627.43c-4.33-9.14-7.61-16.71-9.23-20.52a1.94,1.94,0,0,0-3.13-.63c-11.83,11.3-33.38,19.6-63.85,19.2a2.29,2.29,0,0,0-2.25,2.85c1.05,4.28,3.24,13,6.27,24.31C185.65,653.21,213.82,646.27,231.53,627.43Z" fill="#fff"/><path d="M782.92,1073q4.71,12.42,10,25.67c24.08,4.44,47.83-1.28,66.71-17-.95-7.92-2.12-17-3.46-26.84C835.06,1069,808.15,1074.59,782.92,1073Z" fill="#fff"/><path d="M679,718.91c-72.57,45.78-161.23,52.43-233.14,2.58a4.11,4.11,0,0,0-6.4,4.13c4.7,24.29,15.81,49.78,35.22,65,32.47,25.41,50.82-9.88,86.11-9.88,51.15,0,74.32,38.31,98.4,1.52C672.11,762.44,699,706.2,679,718.91Z" fill="#171317"/><path d="M443.59,628.24S414.06,665.56,407,718.31c10.79-10.48,16.4-20.3,19.49-23.52C426.38,687.27,427.52,663.82,443.59,628.24Z" fill="#171317"/><path d="M693.47,666.35c14.12,40.94-1.41,74.12-1.41,74.12l3.7,20.51C719.74,703.52,693.47,666.35,693.47,666.35Z" fill="#171317"/><path d="M468,871.58c.4,5,.69,8.92.85,11.24a4,4,0,0,0,2.37,3.35c14.41,6.29,97.43,38.81,177.67-7.44a3.94,3.94,0,0,0,2-3.8c-.32-3-.49-6.12-.53-9.24C571.48,907.83,488.21,879.6,468,871.58Z" fill="#55738c"/><path d="M537.66,513.17c0-.72.1-1.11.1-1.11s-.06.39-.1,1.11Z" fill="#dbdbdb"/><path d="M434,629.79a2.13,2.13,0,0,0,2.08-3.28c-16.3-16.22-22.43-28.3-30.73-46.42a3.62,3.62,0,0,0-6-.08C388.16,595.64,388,623.35,434,629.79Z" fill="#171317"/><path d="M434.69,633.77s-29.92-3.09-41.32-10.95c-10.17-7-14.73,13.32-2.32,14.43S415.4,639.51,434.69,633.77Z" fill="#171317"/><path d="M700.11,660.5a1.82,1.82,0,0,1-1.78-2.81c13.94-13.88,19.2-24.21,26.3-39.73a3.11,3.11,0,0,1,5.11-.07C739.36,631.27,739.48,655,700.11,660.5Z" fill="#171317"/><path d="M284.71,706.94c2.11,6.35,3.17,67.77-15.89,58.24S281.53,708,281.53,708" fill="#171317"/><path d="M305.24,744s6.15-24.63-12.6-53.19c-6.79,8.1-11.4,13.66-11.4,13.66S302.41,724.24,305.24,744Z" fill="#171317"/><path d="M765.47,859.76c-11.29,4.24-7.06,19.77-7.06,19.77,11.3,26.82,31.06,11.29,28.24-1.41S776.76,855.53,765.47,859.76Z" fill="#171317"/><path d="M582.59,524.18c12.68-3.53,23.36-10.54,31-21-6.12-5.34-11.26-9.05-11.26-9.05-5.29,22.23-32.82,19.06-32.82,19.06-26.47-2.12-31.77-24.36-31.77-24.36-1.27-.63-4.87,1.82-9.25,5.54C540,513.82,558.53,531.31,582.59,524.18Z" fill="#55738c"/><path d="M564.53,557.18c-.08,41.82-.24,109.63-.24,117.32,2.94.28,11.76.39,13,.32,0-7.74.16-76.45.24-118.22A107.55,107.55,0,0,1,564.53,557.18Z" fill="#55738c"/><path d="M564.59,525.05c-15.41-3.21-27.62-16.41-36.08-30.69-10.17,8.62-24.63,24.11-24.63,24.11s15.86,34.51,60.71,38.75v0a106.56,106.56,0,0,0,12.94-.58c0-16.14.06-28.27.06-31.29A35.32,35.32,0,0,1,564.59,525.05Z" fill="#fff"/><path d="M613.61,503.17c-7.66,10.47-18.34,17.48-31,21a39.69,39.69,0,0,1-5,1.13v32.24c40.52-2.09,52.29-37,52.29-37C625.81,514.48,619.29,508.12,613.61,503.17Z" fill="#fff"/><path d="M365.53,667.76,336.6,636.84c-4.86,6.13-10.5,13.11-16.08,20,8,7.82,18.73,17.87,29.48,26.47Z" fill="#fff"/><path d="M285.67,730c1.39-1.92,4.22-5.83,8.05-11a113.76,113.76,0,0,0-8.7-10.59C285.64,712,286.05,720.54,285.67,730Z" fill="#55738c"/><path d="M284,707.19c-1.66-1.74-2.71-2.72-2.71-2.72C272.82,693.18,261,679.56,254,668.82c-8.44-13-16.46-28.72-22.47-41.39a68.56,68.56,0,0,1-13.95,11.29c10.79,19.83,37.08,66.8,54.31,86A92.73,92.73,0,0,1,284,707.19Z" fill="#55738c"/><path d="M285,708.33,284,707.19a92.73,92.73,0,0,0-12.06,17.55,58,58,0,0,0,4.35,4.44l8.47,2.11,1-1.33C286.05,720.54,285.64,712,285,708.33Z" fill="#415c73"/><path d="M292.64,690.81c-6.79,8.1-11.4,13.66-11.4,13.66S293.65,691.38,292.64,690.81Z" fill="#171317"/><path d="M281.24,704.47s1.05,1,2.71,2.72c0,0,1,.55,1.07,1.14a113.76,113.76,0,0,1,8.7,10.59c2.29-3.12,4.93-6.69,7.81-10.57a85.49,85.49,0,0,0-8.89-17.54C290.53,693,285.59,699,281.24,704.47Z" fill="#415c73"/></g></g></g></svg>