<svg xmlns="http://www.w3.org/2000/svg" width="1262.35" height="2193.94" viewBox="0 0 1262.35 2193.94"><title>2_girl_pants_3</title><g id="Layer_2" data-name="Layer 2"><g id="Layer_148" data-name="Layer 148"><g id="_2_girl_pants_3" data-name="2_girl_pants_3"><rect width="1262.35" height="2193.94" fill="none"/><polygon points="329.75 2160.51 329.75 2160.51 329.75 2160.51 329.75 2160.51" fill="none"/><path d="M568.59,941.18c.81-13,2.93-25.95,2.11-38.92-57,4.23-101.7-17.08-101.7-17.08-176.47,163.76-67.76,617.64-67.76,617.64-40.95,112.94-45.59,267.72-47.75,360-1.82,77.59-14.73,117.91-14.73,117.91s16.28,15.79,48,13.65c16.75-1.13,37.81-7.26,63.05-23.36-.65-18.58-6.77-42.71-4.48-66.62C451.22,1843,464.18,1783,487.82,1726c43.51-104.93,2.36-204.13,2.36-204.13,21.83-162.42,80.12-379.67,84.39-393.75C571.84,1065.72,565.2,1003.81,568.59,941.18Z" fill="#ffefcf"/><path d="M764.06,1701.88c5.65-164.47-48-203.29-48-203.29,49.41-168,63.53-332.47,45.18-434.12C733,938.82,651.12,877.41,651.12,877.41a184.15,184.15,0,0,1-80.42,24.85c.82,13-1.3,26-2.11,38.92-3.39,62.63,3.25,124.54,6,187a4.69,4.69,0,0,1,.25-.73l57.94,397.31c24,111.53,21.18,432,21.18,432s31.41,15.57,60.3,20.35c21.28,3.52,37.33.27,58.29-14.71C764.58,1878.59,760.13,1816.25,764.06,1701.88Z" fill="#ccc0a5"/><path d="M446,1512c-12.21-226.13-10-389,14.12-533.65l42.27-82.05c-20.61-5-33.39-11.12-33.39-11.12-176.47,163.76-67.76,617.64-67.76,617.64-40.95,112.94-45.59,267.72-47.75,360-.87,37.17-4.29,65.78-7.61,85.51l-7.12,32.4c16.34,10.9,26.45,16.75,48,13.65C386.77,1703.54,446,1512,446,1512Z" fill="#ccc0a5"/><path d="M764.06,1701.88c5.65-164.47-48-203.29-48-203.29,49.41-168,63.53-332.47,45.18-434.12C733,938.82,651.12,877.41,651.12,877.41A181.76,181.76,0,0,1,621,891.59l17,41.59L694.47,984c20.22,184.25,6.21,314.13-14.12,533.65,0,0,56.47,148.82,33.89,459.41,23.68,2.41,38.53-1.42,58.29-14.71C766,1889.89,760.51,1805.11,764.06,1701.88Z" fill="#ffefcf"/><path d="M651.12,877.41a182.59,182.59,0,0,1-25.58,12.45c21.59,45.55,58.51,94.17,110.23,100C700.48,914.45,651.12,877.41,651.12,877.41Z" fill="#aba08a"/><path d="M625.54,889.86c-3.77,1.48-7.54,2.84-11.28,4,13.66,33.07,32.66,62.6,62.33,85.29,19.31,15.6,41.39,21.81,64.58,22.75q-2.64-6.21-5.4-12.09C684.05,984,647.13,935.41,625.54,889.86Z" fill="#8f887b"/><path d="M494,894.08a175.62,175.62,0,0,1-25-8.9c-33.46,31.05-56.66,72.54-72.3,119.38C417.67,1003.72,463.94,990.18,494,894.08Z" fill="#aba08a"/><path d="M494,894.08c-30,96.1-76.31,109.64-97.28,110.48q-1.92,5.76-3.69,11.6c63.45,1.79,97.74-60.87,114-118.79C502.29,896.32,497.94,895.2,494,894.08Z" fill="#8f887b"/><path d="M593,1074.25l-8.89-149.54-28.94,1.41s-2.16,74.2,2,147.06c.93,16.46,2.18,32.86,3.85,48.32q6.74,3.09,13.89,5.9a93.76,93.76,0,0,0,20.92-6.15Z" fill="#b5aa93"/><path d="M682.18,1054.59c-93.18,55.06-177.89,18.35-218.83-7.06.46,1.13,40.78,52.16,111.47,79.87C600.29,1123.76,652.15,1095.67,682.18,1054.59Z" fill="#aba08a"/><path d="M466.09,1506.46c-12.92,3.66-25.58.27-33.72-3.08a4.07,4.07,0,0,0-5.24,5.42c14.23,32.07,32.63,17.32,43.22,4.09A4.06,4.06,0,0,0,466.09,1506.46Z" fill="#aba08a"/><path d="M652.17,1516.06c20.46,28.51,35.47,10.32,43.14-4.79a4.05,4.05,0,0,0-5.48-5.42c-11.9,6.2-25,5.46-33.64,3.84A4.06,4.06,0,0,0,652.17,1516.06Z" fill="#aba08a"/><path d="M671.75,896.3c-12.28-12.62-20.63-18.89-20.63-18.89C562.18,929.65,469,885.18,469,885.18a222.1,222.1,0,0,0-18,18.89C480.46,919.77,574.47,959.86,671.75,896.3Z" fill="#406094"/><path d="M547.3,902.66c-.07,9.37.37,18.74.16,28.12A204.74,204.74,0,0,0,592.55,928c-1-9.31-2.46-18.8-3.38-28A201,201,0,0,1,547.3,902.66Z" fill="#fff2d9"/><path d="M493.39,893.92c-3,8.22-5.57,16.57-8.05,24.87,4.37,1.48,9,2.91,13.91,4.24a247.67,247.67,0,0,1,7.07-25.81C501.64,896.17,497.31,895,493.39,893.92Z" fill="#aba08a"/><path d="M614.44,893.83c4.29,8.25,7.26,17,10.43,25.78q7.13-2.5,14.33-5.65c-3.26-8.59-7-16.91-10.61-25.33Q621.5,891.57,614.44,893.83Z" fill="#aba08a"/></g></g></g></svg>