<svg xmlns="http://www.w3.org/2000/svg" width="1262.35" height="2195.18" viewBox="0 0 1262.35 2195.18"><title>2_glasses_7</title><g id="Layer_2" data-name="Layer 2"><g id="accessories"><g id="_2_glasses_7" data-name="2_glasses_7"><path d="M703.44,313.14c-.76-33.12-46.23-24.34-83-23.75-.85.26-34-4.17-34.19,25.9-10.14-1.84-23.72-.58-30.78.31a25.52,25.52,0,0,0-24.81-26.05c-79.34-1.27,65.64,1-65.33-1.05a26.77,26.77,0,0,0-11.13,2.28,27.3,27.3,0,0,0-9.24,6.69c-9.31,10.38-13.36,47.14,9,57.29,7.44,3.41,5.62,2.5,76.27,1.34,29.82-.34,25.15-37.51,25.07-32.42,7.89-1.06,22.28-2.28,31-.21.24,5.88-1.77,22.52,14.67,30.24a25.13,25.13,0,0,0,10.41,2.39l62.94,1c.1,0,25.44,1.16,28.45-21.78C703.76,329.68,703.4,312,703.44,313.14Zm-159.12,30a18.69,18.69,0,0,1-14.08,6.17c-69-1.13-64.95-1.06-65.21-1.09-9.38-.34-16.8-6.6-16.52-20.65,1-8-1.94-15.9,4.23-23.24a16.92,16.92,0,0,1,12.56-6c34-.55,46.74-.74,65.21-1a17.9,17.9,0,0,1,7.48,1.6c12.66,5.64,10.6,18.93,10.86,19.67C549,329.53,550.44,336.32,544.32,343.11Zm131.2,5.12-8.16.13c-68.35,1.12-75.15,8-74.52-32.15.72-23.94,26.2-18.3,27.57-18.81,67,1.06,72.76-5.44,72.74,30.14C693,328.11,695.51,347.64,675.52,348.23Z"/><path d="M708,300.49H702c-8.2-22.8-48.38-15.63-81.54-15.1-.85.26-34-4.17-34.19,25.9-10.14-1.84-23.72-.58-30.78.31a25.52,25.52,0,0,0-24.81-26.05c-79.34-1.27,65.64,1-65.33-1.05a26.77,26.77,0,0,0-11.13,2.28,27.3,27.3,0,0,0-9.24,6.69,23.8,23.8,0,0,0-4.06,7h-9.34a5.65,5.65,0,0,0,0,11.29H438c-2,14.54,1.41,32.38,16,39,7.44,3.41,5.62,2.5,76.27,1.34,26-.29,25.78-28.51,25.25-32.44,7.92-1.05,22.16-2.24,30.85-.19.24,5.88-1.77,22.52,14.67,30.24a25.13,25.13,0,0,0,10.41,2.39l62.94,1c.1,0,25.44,1.16,28.45-21.78.69-4.12.68-14.59.65-19.57H708a5.65,5.65,0,1,0,0-11.29ZM544.32,339.11a18.69,18.69,0,0,1-14.08,6.17c-69-1.13-64.95-1.06-65.21-1.09-9.38-.34-16.8-6.6-16.52-20.65,1-8-1.94-15.9,4.23-23.24a16.92,16.92,0,0,1,12.56-6c34-.55,46.74-.74,65.21-1a17.9,17.9,0,0,1,7.48,1.6c12.66,5.64,10.6,18.93,10.86,19.67C549,325.53,550.44,332.32,544.32,339.11Zm131.2,5.12-8.16.13c-68.35,1.12-75.15,8-74.52-32.15.72-23.94,26.2-18.3,27.57-18.81,67,1.06,72.76-5.44,72.74,30.14C693,324.11,695.51,343.64,675.52,344.23Z" fill="#474747"/><path d="M456.05,318.83c4.6,5,12.27,13.07,18.37,17.95a2.32,2.32,0,0,1-1.46,4.14h-10.6s-9.89-2.59-10.36-9.64V320.41A2.33,2.33,0,0,1,456.05,318.83Z" fill="#fff"/><path d="M540.9,322.75c-4.6-5-12.27-13.07-18.37-17.94a2.33,2.33,0,0,1,1.46-4.15h10.6s9.89,2.59,10.36,9.65v10.86A2.33,2.33,0,0,1,540.9,322.75Z" fill="#fff"/><path d="M684.9,323.69c-4.6-5-12.27-13.07-18.37-17.94A2.33,2.33,0,0,1,668,301.6h10.6s9.89,2.59,10.36,9.65v10.86A2.33,2.33,0,0,1,684.9,323.69Z" fill="#fff"/><path d="M602.16,319.54c4.61,5,12.28,13.06,18.38,17.94a2.33,2.33,0,0,1-1.46,4.15H608.47S598.59,339,598.12,332V321.12A2.33,2.33,0,0,1,602.16,319.54Z" fill="#fff"/><rect width="1262.35" height="2195.18" fill="none"/></g></g></g></svg>