<svg xmlns="http://www.w3.org/2000/svg" width="1262.35" height="2195.18" viewBox="0 0 1262.35 2195.18"><title>2_glasses_8</title><g id="Layer_2" data-name="Layer 2"><g id="accessories"><g id="_2_glasses_8" data-name="2_glasses_8"><path d="M702.61,312.6c-.77-33.11-46.23-24.33-83-23.75-.85.27-34-4.17-34.19,25.9-10.13-1.83-23.71-.57-30.78.32a25.38,25.38,0,0,0-14.27-23.45,25.64,25.64,0,0,0-10.54-2.6c-79.33-1.28,65.64,1-65.33-1a26.69,26.69,0,0,0-11.12,2.28,27.21,27.21,0,0,0-9.24,6.69c-9.32,10.37-13.37,47.14,9,57.29,7.44,3.41,5.62,2.49,76.26,1.33,29.83-.33,25.16-37.5,25.08-32.41,7.88-1.06,22.28-2.28,31-.21.25,5.87-1.76,22.51,14.68,30.24a25.2,25.2,0,0,0,10.4,2.38l62.94,1c.1,0,25.44,1.16,28.45-21.78C702.92,329.15,702.56,311.43,702.61,312.6Zm-159.13,30a18.62,18.62,0,0,1-14.08,6.17c-69-1.13-64.95-1.05-65.2-1.08-9.38-.34-16.8-6.61-16.53-20.66,1-8-1.93-15.9,4.24-23.23a16.89,16.89,0,0,1,12.55-6c34-.54,46.74-.73,65.22-1a18,18,0,0,1,7.48,1.59C549.81,304,547.75,317.27,548,318,548.19,329,549.61,335.78,543.48,342.57Zm131.21,5.12-8.16.14c-68.36,1.12-75.16,8-74.52-32.15.71-23.95,26.19-18.31,27.56-18.81,67,1.06,72.76-5.44,72.74,30.13C692.14,327.58,694.68,347.11,674.69,347.69Z" fill="#85151f"/><path d="M707.2,300h-6.09c-8.19-22.8-48.38-15.63-81.54-15.11-.85.27-34-4.17-34.19,25.9-10.13-1.83-23.71-.57-30.78.32a25.38,25.38,0,0,0-14.27-23.45,25.64,25.64,0,0,0-10.54-2.6c-79.33-1.28,65.64,1-65.33-1a26.69,26.69,0,0,0-11.12,2.28,27.21,27.21,0,0,0-9.24,6.69,23.81,23.81,0,0,0-4.07,7H430.7a5.65,5.65,0,1,0,0,11.29h6.47c-2,14.53,1.4,32.38,16,39,7.44,3.41,5.62,2.49,76.26,1.33,26-.29,25.79-28.51,25.25-32.43,7.93-1.06,22.17-2.25,30.85-.19.25,5.87-1.76,22.51,14.68,30.24a25.2,25.2,0,0,0,10.4,2.38l62.94,1c.1,0,25.44,1.16,28.45-21.78.69-4.12.69-14.6.66-19.57h4.57a5.65,5.65,0,0,0,0-11.29ZM543.48,338.57a18.62,18.62,0,0,1-14.08,6.17c-69-1.13-64.95-1.05-65.2-1.08-9.38-.34-16.8-6.61-16.53-20.66,1-8-1.93-15.9,4.24-23.23a16.89,16.89,0,0,1,12.55-6c34-.54,46.74-.73,65.22-1a18,18,0,0,1,7.48,1.59C549.81,300,547.75,313.27,548,314,548.19,325,549.61,331.78,543.48,338.57Zm131.21,5.12-8.16.14c-68.36,1.12-75.16,8-74.52-32.15.71-23.95,26.19-18.31,27.56-18.81,67,1.06,72.76-5.44,72.74,30.13C692.14,323.58,694.68,343.11,674.69,343.69Z" fill="#be1e2d"/><path d="M455.21,318.3c4.6,5,12.27,13.07,18.37,17.94a2.33,2.33,0,0,1-1.45,4.15H461.52s-9.88-2.59-10.35-9.65V319.88A2.32,2.32,0,0,1,455.21,318.3Z" fill="#fff"/><path d="M540.07,322.22c-4.6-5-12.27-13.07-18.38-18a2.33,2.33,0,0,1,1.46-4.14h10.61s9.88,2.58,10.35,9.64v10.87A2.33,2.33,0,0,1,540.07,322.22Z" fill="#fff"/><path d="M684.07,323.16c-4.6-5-12.27-13.07-18.38-18a2.33,2.33,0,0,1,1.46-4.14h10.61s9.88,2.59,10.35,9.64v10.87A2.33,2.33,0,0,1,684.07,323.16Z" fill="#fff"/><path d="M601.33,319c4.6,5,12.27,13.07,18.37,17.95a2.33,2.33,0,0,1-1.46,4.15h-10.6s-9.88-2.59-10.35-9.65V320.58A2.33,2.33,0,0,1,601.33,319Z" fill="#fff"/><rect width="1262.35" height="2195.18" fill="none"/></g></g></g></svg>