<svg xmlns="http://www.w3.org/2000/svg" width="1262.35" height="2195.18" viewBox="0 0 1262.35 2195.18"><title>2_glasses_2</title><g id="Layer_2" data-name="Layer 2"><g id="accessories"><g id="_2_glasses_2" data-name="2_glasses_2"><path d="M572.3,289c-42.91-.74-90.61.51-135.53,6.12,0,0,9.23,55.06,25.12,58.24s82.88-2.12,89.23-4.24,21.18-27.53,21.18-27.53,14.82,25.42,21.17,27.53,72.36,7.41,88.24,4.24,26.12-58.24,26.12-58.24C662.9,289.53,615.2,288.28,572.3,289Z"/><path d="M515.93,295.33,463.66,347.6c2.22.37,6.56.77,15,.77,2.2,0,4.5,0,6.85-.08L539,294.88Q527.24,295,515.93,295.33Z" fill="#d6a4aa"/><path d="M663.89,297,615.1,345.81c6.3.56,13.57,1.11,21,1.56l48.68-48.68Q674.6,297.75,663.89,297Z" fill="#d6a4aa"/><path d="M572.4,295h-.21c-2.64,0-5.28-.08-7.91-.11l-52.2,52.2c4.63-.3,9.14-.63,13.32-1L576.59,295Z" fill="#d6a4aa"/><path d="M632,295.44,590,337.5c2.4,3.12,4.38,5.31,5.52,6,.18.05.42.1.69.15l47.73-47.74Q638,295.65,632,295.44Z" fill="#d6a4aa"/><path d="M432.7,308a6,6,0,0,1-1-11.92c1.18-.2,120.36-19.89,280-3.05A6,6,0,1,1,710.49,305c-158.06-16.66-275.61,2.75-276.78,2.95A5.75,5.75,0,0,1,432.7,308Z" fill="#be1e2d"/><rect width="1262.35" height="2195.18" fill="none"/><rect width="1262.35" height="2195.18" fill="none"/></g></g></g></svg>