<svg xmlns="http://www.w3.org/2000/svg" width="1262.35" height="2195.18" viewBox="0 0 1262.35 2195.18"><title>2_glasses_4</title><g id="Layer_2" data-name="Layer 2"><g id="accessories"><g id="_2_glasses_4" data-name="2_glasses_4"><path d="M552.6,325.81,547.47,315c1.16-.54,28.64-13.24,50.23.35l-6.39,10.16C575.22,315.33,552.82,325.7,552.6,325.81Z"/><path d="M499.56,280.62a45,45,0,1,1-45,45,45,45,0,0,1,45-45m0-9a54,54,0,1,0,54,54,54,54,0,0,0-54-54Z"/><path d="M499.56,276.38a45,45,0,1,1-45,45,45,45,0,0,1,45-45m0-9a54,54,0,1,0,54,54,54,54,0,0,0-54-54Z" fill="#474747"/><path d="M461.54,330.08a39.11,39.11,0,0,0,32.08,29.85,2.23,2.23,0,0,0,1.88-3.79l-28.86-28.86C462.59,323.23,460.27,324.5,461.54,330.08Z" fill="#fff"/><path d="M539.57,312.08a39.11,39.11,0,0,0-32.07-29.85,2.23,2.23,0,0,0-1.89,3.79l28.87,28.86C538.52,318.93,540.85,317.66,539.57,312.08Z" fill="#fff"/><path d="M645.27,276.73a45,45,0,1,1-45,45,45.05,45.05,0,0,1,45-45m0-9a54,54,0,1,0,54,54,54,54,0,0,0-54-54Z"/><path d="M645.27,272.5a45,45,0,1,1-45,45,45,45,0,0,1,45-45m0-9a54,54,0,1,0,54,54,54,54,0,0,0-54-54Z" fill="#474747"/><path d="M607.25,326.19a39.13,39.13,0,0,0,32.07,29.86,2.23,2.23,0,0,0,1.89-3.79L612.34,323.4C608.3,319.35,606,320.62,607.25,326.19Z" fill="#fff"/><path d="M685.28,308.2a39.11,39.11,0,0,0-32.08-29.85,2.23,2.23,0,0,0-1.88,3.79L680.18,311C684.23,315,686.55,313.78,685.28,308.2Z" fill="#fff"/><path d="M552.6,320.81,547.47,310c1.16-.54,28.64-13.24,50.23.35l-6.39,10.16C575.22,310.33,552.82,320.7,552.6,320.81Z" fill="#474747"/><path d="M448.84,318.38H434.69a6,6,0,1,1,0-12h14.15a6,6,0,1,1,0,12Z" fill="#474747"/><path d="M709.32,318.38H695.16a6,6,0,0,1,0-12h14.16a6,6,0,0,1,0,12Z" fill="#474747"/><rect width="1262.35" height="2195.18" fill="none"/></g></g></g></svg>