<svg xmlns="http://www.w3.org/2000/svg" width="1262.35" height="2195.18" viewBox="0 0 1262.35 2195.18"><title>2_glasses_6</title><g id="Layer_2" data-name="Layer 2"><g id="accessories"><g id="_2_glasses_6" data-name="2_glasses_6"><path d="M552.37,325.31l-5.12-10.85c1.16-.55,28.63-13.25,50.23.34L591.09,325C575,314.83,552.6,325.2,552.37,325.31Z" fill="#8a6b5e"/><path d="M499.34,280.12a45,45,0,1,1-45,45,45,45,0,0,1,45-45m0-9a54,54,0,1,0,54,54,54,54,0,0,0-54-54Z" fill="#8a6b5e"/><path d="M499.34,275.88a45,45,0,1,1-45,45,45.05,45.05,0,0,1,45-45m0-9a54,54,0,1,0,54,54,54,54,0,0,0-54-54Z" fill="#ffe0c4"/><path d="M461.32,329.58a39.11,39.11,0,0,0,32.07,29.85,2.23,2.23,0,0,0,1.89-3.79l-28.87-28.86C462.37,322.74,460,324,461.32,329.58Z" fill="#fff"/><path d="M539.35,311.59a39.13,39.13,0,0,0-32.07-29.86,2.23,2.23,0,0,0-1.89,3.79l28.87,28.86C538.3,318.43,540.63,317.16,539.35,311.59Z" fill="#fff"/><path d="M645.05,276.24a45,45,0,1,1-45,45,45,45,0,0,1,45-45m0-9a54,54,0,1,0,54,54,54,54,0,0,0-54-54Z" fill="#8a6b5e"/><path d="M645.05,272a45,45,0,1,1-45,45,45.05,45.05,0,0,1,45-45m0-9a54,54,0,1,0,54,54,54,54,0,0,0-54-54Z" fill="#ffe0c4"/><path d="M607,325.7a39.11,39.11,0,0,0,32.08,29.85,2.23,2.23,0,0,0,1.88-3.79L612.12,322.9C608.08,318.85,605.75,320.12,607,325.7Z" fill="#fff"/><path d="M685.06,307.7A39.11,39.11,0,0,0,653,277.85a2.23,2.23,0,0,0-1.88,3.79L680,310.5C684,314.55,686.33,313.28,685.06,307.7Z" fill="#fff"/><path d="M552.37,320.31l-5.12-10.85c1.16-.55,28.63-13.25,50.23.34L591.09,320C575,309.83,552.6,320.2,552.37,320.31Z" fill="#ffe0c4"/><path d="M448.62,317.88H434.47a6,6,0,0,1,0-12h14.15a6,6,0,0,1,0,12Z" fill="#ffe0c4"/><path d="M709.09,317.88H694.94a6,6,0,0,1,0-12h14.15a6,6,0,0,1,0,12Z" fill="#ffe0c4"/><rect width="1262.35" height="2195.18" fill="none"/></g></g></g></svg>