<svg xmlns="http://www.w3.org/2000/svg" width="1262.35" height="2195.18" viewBox="0 0 1262.35 2195.18"><title>2_glasses_1</title><g id="Layer_2" data-name="Layer 2"><g id="accessories"><g id="_2_glasses_1" data-name="2_glasses_1"><path d="M572.47,288.84c-42.9-.73-90.6.51-135.53,6.13,0,0,9.24,55.06,25.12,58.23s82.88-2.12,89.24-4.23,21.17-27.53,21.17-27.53S587.3,346.85,593.65,349s72.35,7.41,88.24,4.23S708,295,708,295C663.08,289.35,615.38,288.11,572.47,288.84Z" fill="#666"/><path d="M516.11,295.16l-52.27,52.27c2.21.37,6.56.76,15.05.76,2.2,0,4.49,0,6.84-.07l53.41-53.41Q527.43,294.81,516.11,295.16Z" fill="#b8b8b8"/><path d="M664.07,296.84l-48.79,48.79c6.3.56,13.57,1.11,21,1.56L685,298.51Q674.76,297.57,664.07,296.84Z" fill="#b8b8b8"/><path d="M572.58,294.84h-.21c-2.64,0-5.28-.08-7.91-.11l-52.21,52.21c4.64-.3,9.14-.64,13.33-1l51.18-51.18Z" fill="#b8b8b8"/><path d="M632.21,295.27l-42.06,42.05c2.4,3.12,4.38,5.32,5.53,6,.18.05.41.1.68.15l47.74-47.73Q638.22,295.46,632.21,295.27Z" fill="#b8b8b8"/><path d="M432.88,307.85a6,6,0,0,1-1-11.92c1.19-.2,120.37-19.88,280-3.05a6,6,0,0,1-1.26,11.94c-158.06-16.67-275.61,2.75-276.78,2.94A5.83,5.83,0,0,1,432.88,307.85Z"/><rect width="1262.35" height="2195.18" fill="none"/></g></g></g></svg>