<svg xmlns="http://www.w3.org/2000/svg" width="1262.35" height="2195.18" viewBox="0 0 1262.35 2195.18"><title>2_glasses_5</title><g id="Layer_2" data-name="Layer 2"><g id="accessories"><g id="_2_glasses_5" data-name="2_glasses_5"><path d="M552.83,325.56l-5.13-10.85c1.16-.55,28.64-13.25,50.23.34l-6.39,10.16C575.45,315.08,553.05,325.45,552.83,325.56Z" fill="#85151f"/><path d="M499.79,280.37a45,45,0,1,1-45,45,45,45,0,0,1,45-45m0-9a54,54,0,1,0,54,54,54,54,0,0,0-54-54Z" fill="#85151f"/><path d="M499.79,276.13a45,45,0,1,1-45,45,45,45,0,0,1,45-45m0-9a54,54,0,1,0,54,54,54,54,0,0,0-54-54Z" fill="#be1e2d"/><path d="M461.77,329.83a39.11,39.11,0,0,0,32.08,29.85,2.23,2.23,0,0,0,1.88-3.79L466.87,327C462.82,323,460.5,324.25,461.77,329.83Z" fill="#fff"/><path d="M539.8,311.84A39.12,39.12,0,0,0,507.73,282a2.23,2.23,0,0,0-1.89,3.79l28.87,28.86C538.75,318.68,541.08,317.41,539.8,311.84Z" fill="#fff"/><path d="M645.5,276.48a45,45,0,1,1-45,45,45.05,45.05,0,0,1,45-45m0-9a54,54,0,1,0,54,54,54,54,0,0,0-54-54Z" fill="#85151f"/><path d="M645.5,272.25a45,45,0,1,1-45,45,45.05,45.05,0,0,1,45-45m0-9a54,54,0,1,0,54,54,54,54,0,0,0-54-54Z" fill="#be1e2d"/><path d="M607.48,325.94a39.12,39.12,0,0,0,32.07,29.86,2.23,2.23,0,0,0,1.89-3.79l-28.87-28.86C608.53,319.1,606.2,320.37,607.48,325.94Z" fill="#fff"/><path d="M685.51,308a39.11,39.11,0,0,0-32.08-29.85,2.23,2.23,0,0,0-1.88,3.79l28.86,28.86C684.46,314.79,686.78,313.53,685.51,308Z" fill="#fff"/><path d="M552.83,320.56l-5.13-10.85c1.16-.55,28.64-13.25,50.23.34l-6.39,10.16C575.45,310.08,553.05,320.45,552.83,320.56Z" fill="#be1e2d"/><path d="M449.07,318.13H434.92a6,6,0,1,1,0-12h14.15a6,6,0,1,1,0,12Z" fill="#be1e2d"/><path d="M709.55,318.13H695.39a6,6,0,0,1,0-12h14.16a6,6,0,0,1,0,12Z" fill="#be1e2d"/><rect width="1262.35" height="2195.18" fill="none"/></g></g></g></svg>