<svg xmlns="http://www.w3.org/2000/svg" width="1262.35" height="2195.18" viewBox="0 0 1262.35 2195.18"><title>2_glasses_9</title><g id="Layer_2" data-name="Layer 2"><g id="accessories"><g id="_2_glasses_9" data-name="2_glasses_9"><path d="M704.07,313.3c-.76-33.12-46.23-24.34-83-23.76-.85.27-34-4.17-34.19,25.9-10.14-1.83-23.71-.57-30.78.32a25.38,25.38,0,0,0-14.27-23.45,25.64,25.64,0,0,0-10.54-2.6c-79.34-1.28,65.64,1-65.33-1a26.77,26.77,0,0,0-11.13,2.28,27.3,27.3,0,0,0-9.24,6.69c-9.31,10.37-13.36,47.14,9.05,57.29,7.43,3.41,5.62,2.49,76.26,1.34,29.82-.34,25.15-37.51,25.07-32.42,7.89-1.06,22.28-2.28,31-.21.24,5.87-1.77,22.51,14.67,30.24a25.29,25.29,0,0,0,10.41,2.39l62.94,1c.1,0,25.44,1.16,28.45-21.78C704.39,329.84,704,312.12,704.07,313.3ZM545,343.26a18.7,18.7,0,0,1-14.08,6.18c-69-1.14-64.95-1.06-65.21-1.09-9.38-.34-16.8-6.6-16.52-20.66,1-8-1.93-15.89,4.23-23.23a16.93,16.93,0,0,1,12.56-6c34-.54,46.74-.73,65.21-1a18,18,0,0,1,7.48,1.59c12.66,5.65,10.6,18.94,10.86,19.68C549.65,329.68,551.07,336.48,545,343.26Zm131.2,5.12-8.15.14c-68.36,1.12-75.16,8-74.53-32.15.72-23.95,26.2-18.3,27.57-18.81,67,1.06,72.76-5.44,72.74,30.13C693.6,328.27,696.14,347.8,676.15,348.38Z" fill="#8a6b5e"/><path d="M708.66,300.65h-6.08c-8.2-22.8-48.38-15.63-81.54-15.11-.85.27-34-4.17-34.19,25.9-10.14-1.83-23.71-.57-30.78.32a25.38,25.38,0,0,0-14.27-23.45,25.64,25.64,0,0,0-10.54-2.6c-79.34-1.28,65.64,1-65.33-1a26.77,26.77,0,0,0-11.13,2.28,27.3,27.3,0,0,0-9.24,6.69,23.8,23.8,0,0,0-4.06,7h-9.34a5.65,5.65,0,0,0,0,11.29h6.47c-2,14.53,1.41,32.38,16,39,7.43,3.41,5.62,2.49,76.26,1.34,26-.3,25.78-28.52,25.25-32.44,7.92-1.05,22.16-2.25,30.85-.19.24,5.87-1.77,22.51,14.67,30.24a25.29,25.29,0,0,0,10.41,2.39l62.94,1c.1,0,25.44,1.16,28.45-21.78.69-4.12.69-14.59.65-19.57h4.57a5.65,5.65,0,1,0,0-11.29ZM545,339.26a18.7,18.7,0,0,1-14.08,6.18c-69-1.14-64.95-1.06-65.21-1.09-9.38-.34-16.8-6.6-16.52-20.66,1-8-1.93-15.89,4.23-23.23a16.93,16.93,0,0,1,12.56-6c34-.54,46.74-.73,65.21-1a18,18,0,0,1,7.48,1.59c12.66,5.65,10.6,18.94,10.86,19.68C549.65,325.68,551.07,332.48,545,339.26Zm131.2,5.12-8.15.14c-68.36,1.12-75.16,8-74.53-32.15.72-23.95,26.2-18.3,27.57-18.81,67,1.06,72.76-5.44,72.74,30.13C693.6,324.27,696.14,343.8,676.15,344.38Z" fill="#ffe0c4"/><path d="M456.68,319c4.6,5,12.27,13.07,18.37,17.94a2.33,2.33,0,0,1-1.46,4.15H463s-9.89-2.59-10.36-9.65V320.57A2.33,2.33,0,0,1,456.68,319Z" fill="#fff"/><path d="M541.53,322.91c-4.6-5-12.27-13.07-18.37-18a2.32,2.32,0,0,1,1.46-4.14h10.6s9.89,2.59,10.36,9.64v10.87A2.33,2.33,0,0,1,541.53,322.91Z" fill="#fff"/><path d="M685.53,323.85c-4.6-5-12.27-13.07-18.37-17.94a2.33,2.33,0,0,1,1.46-4.15h10.6s9.89,2.59,10.36,9.65v10.86A2.33,2.33,0,0,1,685.53,323.85Z" fill="#fff"/><path d="M602.79,319.69c4.61,5,12.28,13.07,18.38,17.95a2.33,2.33,0,0,1-1.46,4.15H609.1s-9.88-2.59-10.35-9.65V321.27A2.33,2.33,0,0,1,602.79,319.69Z" fill="#fff"/><rect width="1262.35" height="2195.18" fill="none"/></g></g></g></svg>