<svg xmlns="http://www.w3.org/2000/svg" width="1262.35" height="2195.18" viewBox="0 0 1262.35 2195.18"><title>2_glasses_3</title><g id="Layer_2" data-name="Layer 2"><g id="accessories"><g id="_2_glasses_3" data-name="2_glasses_3"><path d="M572.74,289c-42.91-.73-90.61.51-135.53,6.13,0,0,9.23,55.06,25.11,58.24s82.89-2.12,89.24-4.24,21.18-27.53,21.18-27.53,14.82,25.41,21.17,27.53,72.36,7.41,88.24,4.24,26.12-58.24,26.12-58.24C663.34,289.55,615.64,288.31,572.74,289Z"/><path d="M516.37,295.36,464.1,347.63c2.21.37,6.56.77,15,.77,2.2,0,4.49,0,6.85-.08l53.41-53.41Q527.68,295,516.37,295.36Z" fill="#707070"/><path d="M664.33,297.05l-48.79,48.79c6.3.56,13.57,1.11,21,1.55l48.68-48.67Q675,297.76,664.33,297.05Z" fill="#707070"/><path d="M572.84,295h-.21l-7.91-.11-52.21,52.21c4.64-.3,9.14-.63,13.33-1L577,295Z" fill="#707070"/><path d="M632.47,295.47l-42.05,42.06c2.39,3.12,4.38,5.31,5.52,6l.68.15,47.74-47.74Q638.48,295.67,632.47,295.47Z" fill="#707070"/><path d="M433.14,308.05a6,6,0,0,1-1-11.91c1.18-.2,120.36-19.89,280-3.05A6,6,0,1,1,710.93,305c-158.06-16.66-275.61,2.75-276.78,3A5.81,5.81,0,0,1,433.14,308.05Z" fill="#fff"/><rect width="1262.35" height="2195.18" fill="none"/></g></g></g></svg>