<?xml version="1.0" encoding="UTF-8"?>
<svg width="1263px" height="2194px" viewBox="0 0 1263 2194" xmlns="http://www.w3.org/2000/svg" xmlns:xlink="http://www.w3.org/1999/xlink" version="1.1">
 <!-- Generated by Pixelmator Pro 1.7.1 -->
 <defs>
  <linearGradient id="linear-gradient" gradientUnits="userSpaceOnUse" x1="539.81" y1="34.415" x2="590.21" y2="34.415">
   <stop offset="0.454" stop-color="#fb12fe" stop-opacity="1"/>
   <stop offset="0.504" stop-color="#d440f9" stop-opacity="1"/>
   <stop offset="0.576" stop-color="#a27af3" stop-opacity="1"/>
   <stop offset="0.642" stop-color="#7aa8ee" stop-opacity="1"/>
   <stop offset="0.701" stop-color="#5ec9eb" stop-opacity="1"/>
   <stop offset="0.749" stop-color="#4cdde9" stop-opacity="1"/>
   <stop offset="0.782" stop-color="#46e4e8" stop-opacity="1"/>
  </linearGradient>
 </defs>
 <path id="Path" d="M590.2 34.4 C590.2 44 578.9 51.7 565 51.7 551.1 51.7 539.8 43.9 539.8 34.4 539.8 24.9 551.1 17 565 17 578.9 17 590.2 24.8 590.2 34.4" fill-opacity="1" fill="url(#linear-gradient)" stroke="none"/>
 <path id="Path-1" d="M445.6 157.2 C439 115.2 454 79.8 476 47.2 402.9 78.1 377.3 145.5 377 244.2 L472.5 201.7 476.1 200.1 C460.7 190.4 448.8 176.5 445.6 157.2 Z" fill="#2b3584" fill-opacity="1" stroke="none"/>
 <path id="Path-2" d="M664.7 42.8 C676 54.2 685.7 67 691.6 83.2 703.6 115.2 704.6 152.2 681.6 181.2 678.6 184.8 675.5 188.3 672.2 191.7 L771.2 219.9 C769.8 118.3 721.2 65.9 664.7 42.8 Z" fill="#2b3584" fill-opacity="1" stroke="none"/>
 <path id="Path-3" d="M691.6 83.2 C685.7 67 676 54.3 664.7 42.8 634.4 30.4 601.9 26.5 573.2 28.1 570.1 28.3 567.1 28.5 564.2 28.8 558.3 29.2 552.6 29.6 547 30.2 519.4 33 495.9 38.8 475.9 47.2 453.9 79.8 438.9 115.2 445.5 157.2 448.7 176.5 460.6 190.4 476 200.1 L564.1 160.9 661 188.5 672.1 191.6 C675.3 188.2 678.5 184.7 681.5 181.1 704.6 152.2 703.6 115.2 691.6 83.2 Z" fill="#19214c" fill-opacity="1" stroke="none"/>
 <defs>
  <linearGradient id="linear-gradient-1" gradientUnits="userSpaceOnUse" x1="377" y1="215.4" x2="771.24" y2="215.4">
   <stop offset="0.454" stop-color="#fb12fe" stop-opacity="1"/>
   <stop offset="0.504" stop-color="#d440f9" stop-opacity="1"/>
   <stop offset="0.576" stop-color="#a27af3" stop-opacity="1"/>
   <stop offset="0.642" stop-color="#7aa8ee" stop-opacity="1"/>
   <stop offset="0.701" stop-color="#5ec9eb" stop-opacity="1"/>
   <stop offset="0.749" stop-color="#4cdde9" stop-opacity="1"/>
   <stop offset="0.782" stop-color="#46e4e8" stop-opacity="1"/>
  </linearGradient>
 </defs>
 <path id="Path-4" d="M377 244.2 C377 244.2 463.1 152.8 579.3 154 695.5 155.2 771.2 219.9 771.2 219.9 771.2 219.9 755 305.5 629.9 227.6 591.6 203.7 548.3 211.9 511.9 239.5 404.9 320.6 377 244.2 377 244.2" fill-opacity="1" fill="url(#linear-gradient-1)" stroke="none"/>
 <path id="Path-5" d="M713.7 242.2 C725.4 241.5 743.7 237.3 754.6 219.4 755.5 217.8 755.1 215.8 753.5 214.8 747.5 210.9 732.4 201.4 721 195 719.4 194.1 717.3 194.7 716.4 196.3 715.9 197.2 715.8 198.4 716.3 199.4 720.9 209.2 724.6 224.7 711.2 236.3 709.8 237.5 709.6 239.7 710.9 241.1 711.6 241.9 712.6 242.3 713.7 242.2" fill="#2b3584" fill-opacity="1" stroke="none"/>
 <path id="Path-6" d="M766 215.8 C762.7 221.7 759 227.5 755.1 233 746.6 244.2 734.2 249.9 718.1 249.9 696 249.9 667.8 239.3 634.3 218.4 618.6 208.4 600.4 203.1 581.8 203.1 556.7 203.1 530.8 212.7 506.9 230.7 490.1 243.4 474.3 252.9 460 258.8 448 263.8 436.9 266.3 427 266.3 413.8 266.3 402.7 261.8 394.1 253 391.4 250.2 385.8 242.4 383 238.1 379 241.8 377 244 377 244 377 244 404.9 320.4 511.9 239.4 548.3 211.8 591.6 203.6 629.9 227.5 754.9 305.4 771.2 219.7 771.2 219.7 771.2 219.7 769.4 218.4 766 215.8" fill="#2b3584" fill-opacity="1" stroke="none"/>
 <path id="Path-7" d="M435.3 218.1 C433.6 228 433.8 240.2 442.7 247.3 445.3 249.3 445.7 253 443.7 255.6 442.9 256.6 441.8 257.3 440.6 257.6 428.4 260.9 410 261.6 396.4 243.1 394.6 240.6 395 237.1 397.4 235.1 403.1 230.3 414.3 221.1 426 212.4 428.6 210.4 432.4 211 434.3 213.6 435.2 214.9 435.6 216.5 435.3 218.1" fill="#2b3584" fill-opacity="1" stroke="none"/>
 <path id="Path-8" d="M501.8 66.9 C553.2 62.8 596.5 67.7 639.6 68.1 641.5 68.1 643 66.6 643 64.7 643 63.6 642.5 62.6 641.7 62 604.5 32.5 535.5 34 499.5 60.7 498 61.8 497.6 63.9 498.7 65.4 499.5 66.4 500.6 66.9 501.8 66.9" fill="#2b3584" fill-opacity="1" stroke="none"/>
 <g id="Logo">
  <path id="Path-9" d="M524.2 102.1 L526.9 102 528.1 96.6 524.2 97.6 Z" fill="#ffffff" fill-opacity="1" stroke="none"/>
  <path id="Path-10" d="M616.6 123.5 L623.2 120 619.2 114.7 633 112.6 614.5 98.3 627.6 92.4 615.2 86.4 620 83 616.1 81.6 628.4 69.1 508.5 94.5 511.7 98.8 504 101.9 511.2 105.6 508.4 109.3 511.7 110 508.9 120.2 523.6 119.3 522 123.7 534.9 119.6 533.6 127.1 547.2 122.3 548 127.4 553.5 123.2 559.5 132.7 568 125.1 572.5 134.5 575.4 128.7 587.4 138.3 592.4 131.3 599 136.9 598.8 131.5 625.9 146.4 Z M524.4 106.7 L524.1 114.9 517.5 114.5 518.3 99.7 516.2 95.3 523.6 93.7 C523.6 93.7 530.3 92 534.6 91.2 533.4 96.1 532.4 101.1 531.6 106.1 528.6 106.3 524.4 106.7 524.4 106.7 Z M546.9 115.7 C542.4 115.6 537.8 115.5 533.3 115.4 533.8 107 534.9 98.9 536.9 90.8 539.2 90.4 540.3 90.1 542.6 89.7 541 96.3 539.9 103 539.2 109.8 540.1 109.8 540.6 109.8 541.5 109.7 542.2 102.8 543.3 96 544.9 89.2 547.3 88.7 548.5 88.5 550.9 88 549 97.2 547.7 106.3 546.9 115.7 Z M557.7 116 C557 112.5 556.7 110.9 556 107.8 555.6 110.9 555.5 112.6 555.2 115.9 552.8 115.8 551.6 115.8 549.2 115.7 550 106.2 551.2 96.8 553.4 87.5 555.9 87 557.2 86.8 559.7 86.3 560 89.6 560.1 91.3 560.5 94.9 561.2 91.2 561.6 89.4 562.4 85.8 565 85.3 566.3 85.1 568.9 84.6 566.7 95.1 565.1 105.6 563.9 116.2 561.4 116.2 560.2 116.1 557.7 116 Z M577.4 89.1 C576.2 95.8 575.1 102.6 574.2 109.4 L577 109.4 C577.3 107.2 577.5 106.1 577.8 103.9 580.6 103.8 582.1 103.8 585.1 103.7 584.5 108.2 583.9 112.7 583.3 117.2 577.7 116.9 572.1 116.7 566.6 116.4 567.8 105.6 569.4 94.8 571.7 84.1 577.4 83 583 82 588.7 80.9 587.8 86 587 91 586.2 96.1 583.2 96.3 581.7 96.5 578.9 96.7 579.4 93.4 579.7 91.8 580.3 88.7 579.1 88.9 578.5 89 577.4 89.1 Z M607.7 119.5 L597.5 117.9 C597.5 117.9 598.8 108.3 599.5 103.5 598.2 103.5 597.5 103.5 596.2 103.6 595.5 108.3 594.9 113 594.2 117.7 591 117.5 589.4 117.4 586.4 117.3 587.9 105 589.7 92.7 591.7 80.4 594.7 79.9 596.2 79.6 599.3 79 598.6 84.2 597.9 89.4 597.3 94.6 598.7 94.5 599.4 94.4 600.8 94.3 601.6 88.9 602.4 83.6 603.3 78.2 606.1 77.7 609.9 76.9 609.9 76.9 Z" fill="#ffffff" fill-opacity="1" stroke="none"/>
  <path id="Path-11" d="M516 77.1 C520.2 76.6 524.4 76.1 528.6 75.6 L528.6 80.8 C527.2 81 526.5 81.1 525.1 81.4 525.1 79.9 525.1 79.3 525.1 78.1 522 78.5 519 78.9 515.9 79.3 516 83.1 515.9 86.8 515.8 90.6 522.8 89.2 529.8 87.7 536.7 86.2 536.9 80.9 536.9 75.7 536.9 70.4 532.9 70.7 528.9 71.1 525 71.4 525 69.5 525 68.4 525 65.9 526.4 65.8 527.1 65.8 528.5 65.8 L528.5 69.1 C531.3 68.9 534.1 68.7 536.9 68.5 536.9 65.1 536.9 61.8 537 58.4 530 58.4 523 58.3 515.9 58.3 515.9 64.6 515.9 70.9 516 77.1 Z" fill="#ffffff" fill-opacity="1" stroke="none"/>
  <path id="Path-12" d="M551.1 58.5 C551.1 64.7 551.1 70.9 551 77.2 549.8 77.4 549.2 77.5 548 77.7 548.1 71.3 548 64.9 548.1 58.5 545.1 58.5 543.5 58.5 540.4 58.5 540.2 67.5 540.3 76.5 540.1 85.5 546.2 84.2 552.2 82.9 558.3 81.6 558.4 73.9 558.3 66.3 558.3 58.6 555.5 58.5 554.1 58.5 551.1 58.5 Z" fill="#ffffff" fill-opacity="1" stroke="none"/>
  <path id="Path-13" d="M609.7 58.8 L596.1 58.7 596 73.1 601.5 71.8 601.6 66.9 C601.6 66.9 602.9 66.7 603.8 66.6 603.9 67.9 603.8 71.3 603.8 71.3 L609.7 70 609.7 66.6 607.9 65.8 609.7 64.9 Z M603.8 64.5 L601.5 64.8 601.5 62.3 603.8 62.2 Z" fill="#ffffff" fill-opacity="1" stroke="none"/>
  <path id="Path-14" d="M579.1 76.8 L593.7 73.5 593.7 70 585.7 71 585.8 69.3 593.7 68.3 593.7 64.4 585.8 65 585.8 63.2 593.7 62.8 593.7 58.7 579.1 58.7 Z" fill="#ffffff" fill-opacity="1" stroke="none"/>
  <path id="Path-15" d="M561.1 81 C563.9 80.4 567.8 79.5 567.8 79.5 L567.8 71.6 576.8 70.4 576.9 58.7 C571.7 58.7 566.3 58.7 561.1 58.6 561.1 66.1 561.2 73.6 561.1 81 Z M567.8 64 L570.4 63.9 570.4 67 567.8 67.3 Z" fill="#ffffff" fill-opacity="1" stroke="none"/>
 </g>
</svg>
