<svg xmlns="http://www.w3.org/2000/svg" width="1262.35" height="2193.94" viewBox="0 0 1262.35 2193.94"><title>2_hat_11</title><g id="Layer_2" data-name="Layer 2"><g id="Layer_148" data-name="Layer 148"><g id="_2_hat_11" data-name="2_hat_11"><path d="M752.1,175.6a7,7,0,0,1-4.33-1.52c-95.59-75.64-212.88-59.26-258.87-48.7-49.76,11.42-80.89,29.37-84.35,36.21a7,7,0,0,1-9.62,3.13,7.49,7.49,0,0,1-3-9.95c7.23-14.34,47.6-33.17,93.89-43.8,30.4-7,77.69-13.81,130.41-6.78,53.23,7.09,100.41,26.66,140.23,58.17a7.56,7.56,0,0,1,1.33,10.35,7.06,7.06,0,0,1-5.67,2.89" fill="#fffdf1"/><rect width="1262.35" height="2193.94" fill="none"/><path d="M379,220.8s.17-1.64.57-4.45c1.39-9.79,5.65-33.92,15.87-53.44,13.15-25.12,214.75-100.48,359.38,9.83,0,0,13.14,37.13,15.34,65.53l-195-42.59-192.84,24" fill="#734e26"/><path d="M395.11,205.51s-44.55,14.12-44.55,49.2c0,24.22,32.61,43,105.71,19.07s83.37-76.74,209.19-8.23,160.92-12,100.27-40.78c0,0-150.46-109.86-370.62-19.26" fill="#966836"/><path d="M765.73,224.77a18.54,18.54,0,0,0-3-1.34c48.87,24.77,14.3,91.08-92.29,33-92.26-50.24-125.65-38.93-172.46-13.24-13.35,7.33-27.15,14.9-44.89,20.72-112,36.74-111.3-40.68-54.81-58.91a5.31,5.31,0,0,0-3.13.48s-44.55,14.12-44.55,49.2c0,16.31,14.79,30.17,46.75,30.17,15.52,0,35.08-3.26,59-11.1,46.43-15.23,67.53-42.08,109-42.08,23.81,0,54.32,8.85,100.23,33.85,35.77,19.48,64.22,26.92,85.2,26.92,52.84,0,58.47-47.08,15.07-67.7" fill="#fffdf1"/><path d="M500.56,228.27a152.92,152.92,0,0,1,88.12-15.58c17,2.12,33.37,8.23,48.14,15.63A9.34,9.34,0,0,0,650,217.5L645.53,201a21.37,21.37,0,0,0-14.32-14.77c-30.64-9.49-84.14-11.12-118.15-1.9a19.3,19.3,0,0,0-13.41,13.33l-6.94,24.12a5.54,5.54,0,0,0,7.85,6.46" fill="#b37c40"/></g></g></g></svg>