<svg xmlns="http://www.w3.org/2000/svg" width="1262.35" height="2193.94" viewBox="0 0 1262.35 2193.94"><title>2_hat_1</title><g id="Layer_2" data-name="Layer 2"><g id="Layer_148" data-name="Layer 148"><g id="_2_hat_1" data-name="2_hat_1"><path d="M590.21,34.42c0,9.58-11.29,17.35-25.2,17.35s-25.2-7.77-25.2-17.35S551.09,17.06,565,17.06s25.2,7.77,25.2,17.36" fill="#fff"/><path d="M547.06,30.15C418.7,43.57,377.41,118.57,377,244.22l95.51-42.49c1-27.46,9.23-132.74,74.55-171.58" fill="#252c38"/><path d="M573.25,28.09q-4.59.24-9,.66-8.82.53-17.16,1.4C481.74,69,473.53,174.27,472.51,201.73l91.72-40.81,96.93,27.63C651.23,73.19,598.82,38.31,573.25,28.09" fill="#3a4457"/><path d="M573.25,28.09c25.57,10.22,78,45.1,87.91,160.46l110.08,31.37C769,63.75,655.4,23.74,573.25,28.09" fill="#252c38"/><path d="M377,244.22s86.06-91.4,202.35-90.24,191.89,65.94,191.89,65.94S755,305.54,629.93,227.67c-38.3-23.85-81.59-15.66-118,11.92-107,81-134.9,4.63-134.9,4.63" fill="#d92233"/><path d="M641,160.67c-5.81-1.21-11.8-2.27-17.92-3.19C630,182.13,634,207.59,638.74,233c8.63,5.05,16.71,9.28,24.27,12.79C656.45,217.22,650.65,188.56,641,160.67Z" fill="#fff"/><path d="M675.66,170.54c-5.73-1.91-9.7-3.71-15.87-5.38a606.58,606.58,0,0,1,24.75,89.21c9.55,3.12,16.08,4.9,23.68,5.62C700.23,229.08,690.12,198.94,675.66,170.54Z" fill="#fff"/><path d="M713.7,242.22c11.73-.69,30-4.88,40.94-22.84a3.38,3.38,0,0,0-1.07-4.59c-6-3.88-21.07-13.43-32.45-19.76a3.4,3.4,0,0,0-4.75,4.38c4.56,9.84,8.29,25.33-5.1,36.88a3.38,3.38,0,0,0,2.43,5.93" fill="#ba1d2c"/><path d="M766.05,215.83a198.91,198.91,0,0,1-10.94,17.23c-8.45,11.24-20.89,16.94-37,16.94-22.1,0-50.3-10.58-83.82-31.46a98.1,98.1,0,0,0-52.51-15.3c-25.09,0-51,9.56-74.88,27.65C490.09,243.62,474.3,253.07,460,259c-12,4.95-23.1,7.47-33,7.47-13.22,0-24.29-4.47-32.89-13.3-2.71-2.77-8.33-10.65-11.11-14.86-3.95,3.72-6,5.93-6,5.93s27.91,76.36,134.9-4.63c36.44-27.58,79.73-35.77,118-11.92,125,77.87,141.31-7.75,141.31-7.75s-1.78-1.52-5.19-4.09" fill="#80141e"/><path d="M435.33,218.09c-1.7,9.87-1.45,22.09,7.36,29.2a5.89,5.89,0,0,1-2.09,10.31c-12.23,3.33-30.58,4-44.24-14.52a5.89,5.89,0,0,1,.95-8c5.74-4.81,16.91-14,28.62-22.68a5.94,5.94,0,0,1,9.4,5.73" fill="#ba1d2c"/><path d="M650.32,56.41c36.85,36,61.6,71.88,89.66,104.64a3.4,3.4,0,0,0,6-2.42c-2.21-47.43-48.66-98.41-92.5-108a3.4,3.4,0,0,0-3.14,5.74" fill="#333c4d"/><path d="M404.3,161a3.54,3.54,0,0,0,6.31,1.76C427.69,141,481.92,70.61,471.94,69c-8.13-1.36-74.8,28.51-67.64,92.09" fill="#333c4d"/><rect width="1262.35" height="2193.94" fill="none"/></g></g></g></svg>