<svg xmlns="http://www.w3.org/2000/svg" width="1262.35" height="2193.94" viewBox="0 0 1262.35 2193.94"><title>2_hat_14</title><g id="Layer_2" data-name="Layer 2"><g id="Layer_148" data-name="Layer 148"><g id="_2_hat_14" data-name="2_hat_14"><path d="M752.4,174.49a6.88,6.88,0,0,1-4.33-1.54c-95.72-76.67-213.16-60.06-259.2-49.36-49.82,11.57-81,29.77-84.45,36.7a7,7,0,0,1-9.64,3.17,7.64,7.64,0,0,1-3-10.08c7.24-14.54,47.66-33.62,94-44.39,30.43-7.07,77.78-14,130.57-6.88,53.3,7.19,100.54,27,140.4,59a7.71,7.71,0,0,1,1.34,10.48,7,7,0,0,1-5.68,2.93"/><rect width="1262.35" height="2193.94" fill="none"/><path d="M395.33,158.3c-10.23,19.77-14.49,44.23-15.89,54.16-.4,2.85-.56,4.5-.56,4.5l3.29-1.1,34.6-4.37A410.68,410.68,0,0,1,431,135.71c-19.8,8.28-32.68,16.76-35.69,22.59" fill="#e0cd9e"/><path d="M431,135.71a410.68,410.68,0,0,0-14.25,75.78l20-2.52c5.29-27.32,11.69-54.63,18-81.95C446.07,129.81,438.1,132.74,431,135.71Z" fill="#633535"/><path d="M454.79,127c-6.32,27.32-12.72,54.63-18,82l14-1.77c4.12-27.85,9.55-55.69,15.21-83.54Q460.22,125.3,454.79,127Z" fill="#e0cd9e"/><path d="M715.34,142.73q-8.26-4.32-16.65-8c6.82,28.5,10.14,57.85,13.39,87l21.25,4.7A485.33,485.33,0,0,0,715.34,142.73Z" fill="#633535"/><path d="M682.51,128.16c7.55,29.56,12.52,60.05,16.33,90.67l13.24,2.92c-3.25-29.19-6.57-58.54-13.39-87Q690.65,131.16,682.51,128.16Z" fill="#e0cd9e"/><path d="M466,123.66c-5.66,27.85-11.09,55.69-15.21,83.54l124.45-15.7,123.59,27.33c-3.81-30.62-8.78-61.11-16.33-90.67C604.73,99.45,522.56,107.69,466,123.66Z" fill="#633535"/><path d="M755.16,168.26a271.55,271.55,0,0,0-39.82-25.53,484.4,484.4,0,0,1,18,83.72l37.19,8.22c-2.2-28.78-15.36-66.41-15.36-66.41" fill="#e0cd9e"/><polygon points="444.94 186.63 444.94 186.65 461.15 182.45 444.94 186.63" fill="#d78f92"/><polygon points="693.72 189.12 709.94 193.32 709.93 193.3 693.72 189.12" fill="#d78f92"/><path d="M395,204.81s-44.62,14.31-44.62,49.86c0,24.55,32.66,43.64,105.85,19.33s83.48-77.78,209.45-8.34,161.12-12.14,100.4-41.34c0,0-150.65-111.34-371.08-19.51" fill="#0c8c6a"/><path d="M500.54,226.87a151.62,151.62,0,0,1,88.23-15.79c17,2.15,33.41,8.34,48.2,15.84,7.24,3.68,15.35-3,13.22-11l-4.49-16.7a21.53,21.53,0,0,0-14.34-15c-30.68-9.63-84.25-11.28-118.3-1.93a19.4,19.4,0,0,0-13.42,13.5l-7,24.45a5.57,5.57,0,0,0,7.86,6.55" fill="#0eab81"/><path d="M766.05,224.32a18.68,18.68,0,0,0-3-1.35c48.93,25.1,14.33,92.3-92.4,33.47C578.22,205.52,544.79,217,497.93,243c-13.37,7.43-27.19,15.11-44.95,21-64.86,21.53-96.7,6.23-93.85-17.38,2.68-22.22,36.65-42.18,35.84-41.84,0,0-44.62,14.31-44.62,49.86,0,16.53,14.81,30.58,46.82,30.58,15.53,0,35.12-3.31,59-11.25,46.49-15.44,67.61-42.65,109.1-42.65,23.83,0,54.38,9,100.35,34.31C701.46,285.4,730,292.94,751,292.94c52.91,0,58.54-47.72,15.09-68.62"/></g></g></g></svg>