<svg xmlns="http://www.w3.org/2000/svg" width="1262.35" height="2193.94" viewBox="0 0 1262.35 2193.94"><title>2_hat_12</title><g id="Layer_2" data-name="Layer 2"><g id="Layer_148" data-name="Layer 148"><g id="_2_hat_12" data-name="2_hat_12"><rect width="1262.35" height="2193.94" fill="none"/><path d="M752.1,175.6a7,7,0,0,1-4.33-1.52c-95.59-75.64-212.88-59.26-258.87-48.7-49.76,11.42-80.89,29.37-84.35,36.21a7,7,0,0,1-9.62,3.13,7.49,7.49,0,0,1-3-9.95c7.23-14.34,47.6-33.17,93.89-43.8,30.4-7,77.69-13.81,130.41-6.78,53.23,7.09,100.41,26.66,140.23,58.17a7.56,7.56,0,0,1,1.33,10.35,7.06,7.06,0,0,1-5.67,2.89" fill="#eaffe9"/><path d="M557.2,114.64A396.79,396.79,0,0,0,513,118.76c-14.94,14.25-28.83,29.87-44.27,43.51,15.88,15.07,34,26.74,50,40.44l36.79-4.59c-16.23-15.19-34.8-27.52-51.67-42.3C521.17,141.31,540.11,129.26,557.2,114.64Z" fill="#4a4a2a"/><path d="M589.15,141.63c6.63-9.56,14.8-17.56,23.62-24.79-10.64-1.27-21.2-2-31.6-2.31C570.82,124,560.34,133.22,550,142.65c21.35,19.48,41.6,40,61.51,61l53.92,11.78C640.53,189.1,614.38,166.24,589.15,141.63Z" fill="#4a4a2a"/><path d="M666.48,154.86c9.51-5.68,19.71-10.72,29.65-16.22a290.33,290.33,0,0,0-38.21-13.16c-9.61,6.11-19.13,12.4-28.49,19.3,20.68,24.72,40.93,50.23,60.77,76L723.33,228C705.1,203.16,684.39,180.18,666.48,154.86Z" fill="#4a4a2a"/><path d="M513,118.76c-63.76,9.54-111.39,32.37-117.56,44.15-10.22,19.52-14.48,43.65-15.87,53.44-.4,2.81-.57,4.45-.57,4.45l3.29-1.1,136.41-17c-16-13.7-34.09-25.37-50-40.44C484.21,148.63,498.1,133,513,118.76Z" fill="#abab33"/><path d="M550,142.65c10.33-9.43,20.81-18.7,31.16-28.12q-12.15-.33-24,.11c-17.09,14.62-36,26.67-53.34,41.18,16.87,14.78,35.44,27.11,51.67,42.3l19.64-2.44,36.35,7.93C591.61,182.7,571.36,162.13,550,142.65Z" fill="#abab33"/><path d="M657.92,125.48a319.55,319.55,0,0,0-45.15-8.64c-8.82,7.23-17,15.23-23.62,24.79,25.23,24.61,51.38,47.47,76.29,73.76l24.76,5.41c-19.84-25.79-40.09-51.3-60.77-76C638.79,137.88,648.31,131.59,657.92,125.48Z" fill="#abab33"/><path d="M754.86,172.74a272.56,272.56,0,0,0-58.73-34.1c-9.94,5.5-20.14,10.54-29.65,16.22,17.91,25.32,38.62,48.3,56.85,73.17l46.87,10.24C768,209.87,754.86,172.74,754.86,172.74Z" fill="#abab33"/><path d="M395.11,205.51s-44.55,14.12-44.55,49.2c0,24.22,32.61,43,105.71,19.07s83.37-76.74,209.19-8.23,160.92-12,100.27-40.78c0,0-150.46-109.86-370.62-19.26" fill="#eaffe9"/><path d="M765.73,224.77a18.54,18.54,0,0,0-3-1.34c48.87,24.77,14.3,91.08-92.29,33-92.26-50.24-125.65-38.93-172.46-13.24-13.35,7.33-27.15,14.9-44.89,20.72-112,36.74-111.3-40.68-54.81-58.91a5.31,5.31,0,0,0-3.13.48s-44.55,14.12-44.55,49.2c0,16.31,14.79,30.17,46.75,30.17,15.52,0,35.08-3.26,59-11.1,46.43-15.23,67.53-42.08,109-42.08,23.81,0,54.32,8.85,100.23,33.85,35.77,19.48,64.22,26.92,85.2,26.92,52.84,0,58.47-47.08,15.07-67.7" fill="#bababa"/></g></g></g></svg>