<svg xmlns="http://www.w3.org/2000/svg" width="1262.35" height="2193.94" viewBox="0 0 1262.35 2193.94"><title>2_hat_10</title><g id="Layer_2" data-name="Layer 2"><g id="Layer_148" data-name="Layer 148"><g id="_2_hat_10" data-name="2_hat_10"><rect width="1262.35" height="2193.94" fill="none"/><path d="M755.29,177.16a6.91,6.91,0,0,1-4.33-1.52C655.27,100,537.87,116.36,491.83,126.92c-49.81,11.43-81,29.39-84.43,36.23a7,7,0,0,1-9.63,3.13,7.51,7.51,0,0,1-3-10c7.24-14.34,47.65-33.18,94-43.81,30.43-7,77.77-13.82,130.54-6.79,53.28,7.1,100.51,26.68,140.37,58.2A7.56,7.56,0,0,1,761,174.27a7,7,0,0,1-5.68,2.89" fill="#ae446b"/><path d="M381.87,222.38s.16-1.63.56-4.45c1.4-9.8,5.66-33.94,15.89-53.46,13.16-25.13,215-100.52,359.73,9.83,0,0,13.16,37.15,15.36,65.56L578.19,197.25l-193,24" fill="#fff"/><path d="M564.54,116.05c-2.15,27.86-4.49,55.72-5.47,83.58l19.12-2.38,9.06,2c-1-27.71-1.63-55.41-2.26-83.12C578.1,115.9,571.27,115.88,564.54,116.05Z" fill="#3d3d3d"/><path d="M610.06,117.76c4.88,29.77,10.4,59.25,13,89.28l20.66,4.52c-3.18-30.75-9.67-60.89-14.5-91.3Q619.6,118.73,610.06,117.76Z" fill="#3d3d3d"/><path d="M537.49,117.67q-10.32,1-20.17,2.43c-4.77,28.55-7.57,57.39-10.42,86l21.49-2.67C531,174.94,533.06,146.69,537.49,117.67Z" fill="#3d3d3d"/><path d="M398,207.09s-44.6,14.13-44.6,49.22c0,24.23,32.65,43.07,105.83,19.08s83.45-76.78,209.38-8.23,161.08-12,100.38-40.81c0,0-150.61-109.9-371-19.26" fill="#ae446b"/><path d="M768.94,226.35a18.25,18.25,0,0,0-3.05-1.33c48.92,24.77,14.32,91.11-92.37,33-92.36-50.27-125.78-38.95-172.63-13.25-13.37,7.33-27.19,14.91-44.94,20.73-112.1,36.76-111.42-40.7-54.87-58.93a5.31,5.31,0,0,0-3.13.48s-44.6,14.13-44.6,49.22c0,16.31,14.81,30.18,46.8,30.18,15.54,0,35.11-3.26,59-11.1,46.47-15.24,67.58-42.1,109.06-42.1,23.83,0,54.37,8.86,100.32,33.87,35.81,19.48,64.29,26.93,85.3,26.93,52.89,0,58.52-47.11,15.08-67.74" fill="#7a304a"/><path d="M504.27,226.6c23.37-10.27,74.13-25.22,136.51.31a5.77,5.77,0,0,0,7.64-7.2l-10-29.36a5.77,5.77,0,0,0-3.69-3.63c-14.32-4.6-81.13-23.92-123.73,1.55a5.76,5.76,0,0,0-2.29,2.66l-12,28.1a5.77,5.77,0,0,0,7.6,7.57" fill="#d45382"/></g></g></g></svg>