<svg xmlns="http://www.w3.org/2000/svg" width="1262.35" height="2193.94" viewBox="0 0 1262.35 2193.94"><defs><style>.a{fill:none;}.b{fill:#ff6afa;}.c{fill:#eda2e6;}.d{fill:#ffd9ff;}</style></defs><title>2_visor_cryptokitties</title><rect class="a" width="1262.35" height="2193.94"/><path class="b" d="M752.1,175.6a7,7,0,0,1-4.33-1.52c-95.59-75.64-212.88-59.26-258.87-48.7-49.76,11.42-80.89,29.37-84.35,36.21a7,7,0,0,1-9.62,3.13,7.49,7.49,0,0,1-3-9.95c7.23-14.34,47.6-33.17,93.89-43.8,30.4-7,77.69-13.81,130.41-6.78,53.23,7.09,100.41,26.66,140.23,58.17a7.56,7.56,0,0,1,1.33,10.35,7.06,7.06,0,0,1-5.67,2.89"/><path class="c" d="M754.86,172.74a272.56,272.56,0,0,0-58.73-34.1,290.33,290.33,0,0,0-38.21-13.16,319.55,319.55,0,0,0-45.15-8.64c-10.64-1.27-21.2-2-31.6-2.31q-12.15-.33-24,.11A396.79,396.79,0,0,0,513,118.76c-63.76,9.54-111.39,32.37-117.56,44.15-10.22,19.52-14.48,43.65-15.87,53.44-.4,2.81-.57,4.45-.57,4.45l3.29-1.1,136.41-17,36.79-4.59,19.64-2.44,36.35,7.93,53.92,11.78,24.76,5.41L723.33,228l46.87,10.24C768,209.87,754.86,172.74,754.86,172.74Z"/><path class="d" d="M395.11,205.51s-44.55,14.12-44.55,49.2c0,24.22,32.61,43,105.71,19.07s83.37-76.74,209.19-8.23,160.92-12,100.27-40.78c0,0-150.46-109.86-370.62-19.26"/><path class="b" d="M765.73,224.77a18.54,18.54,0,0,0-3-1.34c48.87,24.77,14.3,91.08-92.29,33-92.26-50.24-125.65-38.93-172.46-13.24-13.35,7.33-27.15,14.9-44.89,20.72-112,36.74-111.3-40.68-54.81-58.91a5.31,5.31,0,0,0-3.13.48s-44.55,14.12-44.55,49.2c0,16.31,14.79,30.17,46.75,30.17,15.52,0,35.08-3.26,59-11.1,46.43-15.23,67.53-42.08,109-42.08,23.81,0,54.32,8.85,100.23,33.85,35.77,19.48,64.22,26.92,85.2,26.92,52.84,0,58.47-47.08,15.07-67.7"/><path class="c" d="M500.54,226.87a151.62,151.62,0,0,1,88.23-15.79c17,2.15,33.41,8.34,48.2,15.84,7.24,3.68,15.35-3,13.22-11l-4.49-16.7a21.53,21.53,0,0,0-14.34-15c-30.68-9.63-84.25-11.28-118.3-1.93a19.4,19.4,0,0,0-13.42,13.5l-7,24.45a5.57,5.57,0,0,0,7.86,6.55"/><path d="M476.22,145.9a10.15,10.15,0,0,1,4.35,0l.62.15.27-3.52-.43-.12a12.38,12.38,0,0,0-5.64.13c-7,1.5-10.85,7.48-9.34,14.53s6.91,10.6,13.77,9.13a14.59,14.59,0,0,0,5.76-2.38l.34-.27-1.56-3.09-.52.41a11,11,0,0,1-4.17,1.78c-4.91,1.06-8.5-1.39-9.61-6.54S471.23,147,476.22,145.9Z"/><path d="M495.66,141.78a5,5,0,0,0-3.52,3L491.7,143l-3.57.77.16.56c.37,1.3.73,2.79,1.17,4.81l2.43,11.3,3.87-.84-1.91-8.87a8.38,8.38,0,0,1-.14-1.25c-.07-2.06.93-3.57,2.6-3.93a4,4,0,0,1,.87-.1h.68l-.81-3.76h-.43A3.53,3.53,0,0,0,495.66,141.78Z"/><path d="M511.94,148.93c-.11.59-.21,1.2-.29,1.78-.25-.52-.52-1.06-.78-1.57l-5-9.2-4.31.62L509.91,155a2.7,2.7,0,0,1,.24.54,2.28,2.28,0,0,1-.11.5,8.36,8.36,0,0,1-1.85,3.35,7.23,7.23,0,0,1-2.14,1.64l-.48.23,1.49,3.24.46-.15a8.36,8.36,0,0,0,3.51-2.53c1.9-2.2,2.92-5.54,4.12-10.93L518,138.2l-4.21.6Z"/><path d="M531.73,135.74a6.86,6.86,0,0,0-5.08,2.62l-.24-1.83-3.68.3.07.56c.19,1.59.38,3.19.54,5.17l1.44,17.81,4-.32-.63-7.78a6.47,6.47,0,0,0,4.56,1.27c3.88-.32,7.57-3.45,7.06-9.74C539.32,138.79,536,135.4,531.73,135.74Zm4,8.51c.28,3.47-1.2,5.76-3.85,6a3.92,3.92,0,0,1-4-2.64,5.58,5.58,0,0,1-.21-1.08l-.22-2.74a4.15,4.15,0,0,1,.09-1.06,4.1,4.1,0,0,1,3.6-3.5C534,139,535.53,141.57,535.75,144.25Z"/><path d="M547.91,129.52l-3.84,1.35.29,3.7-2.48.19.26,3.29,2.47-.19.63,8.16c.17,2.19.69,3.59,1.61,4.41a4.5,4.5,0,0,0,3.64,1.13,7.46,7.46,0,0,0,2.75-.65l.34-.17-.44-3.21-.63.22a6.29,6.29,0,0,1-1.53.3c-.79.06-1.65-.07-1.83-2.43l-.62-8.06,4.15-.32-.25-3.29-4.16.32Z"/><path d="M564.89,133c-5,0-8.5,3.66-8.54,9,0,5.16,3.33,8.79,8.16,8.82,4.1,0,8.53-2.77,8.57-9C573.11,136.64,569.74,133,564.89,133Zm-.23,14.54c-2.5,0-4.3-2.38-4.28-5.63,0-2.82,1.39-5.66,4.42-5.64,3.36,0,4.23,3.69,4.22,5.63C569,145.17,567.16,147.54,564.66,147.52Z"/><path d="M594.1,129l-5-.28-7.45,8.18c-.34.39-.65.76-.94,1.11l.54-9.72-4-.22L576,151.38l4,.22.49-8.82,1.61-1.67,6.5,11,4.72.26L585,138.53Z"/><path d="M601.55,129.31a2.31,2.31,0,0,0-2.56,2.15,2.26,2.26,0,0,0,2.1,2.51,2.42,2.42,0,0,0,1.83-.55,2.2,2.2,0,0,0,.75-1.56A2.27,2.27,0,0,0,601.55,129.31Z"/><rect x="591.75" y="142.11" width="17.09" height="3.99" transform="translate(406.1 730.12) rotate(-85.17)"/><path d="M614.47,132.63l-4,.53-.49,3.68-2.46-.32-.42,3.27,2.45.32-1.06,8.11c-.29,2.18-.07,3.66.66,4.65a4.54,4.54,0,0,0,3.33,1.86,7.57,7.57,0,0,0,2.82-.07l.38-.1.22-3.23-.66.09a5.85,5.85,0,0,1-1.55,0c-.79-.1-1.6-.41-1.29-2.75l1-8,4.13.54.43-3.27-4.13-.54Z"/><path d="M629.08,135.35l-4.06.34-.65,3.65-2.44-.44-.58,3.25,2.44.44-1.45,8c-.38,2.16-.24,3.65.44,4.68a4.58,4.58,0,0,0,3.25,2,7.52,7.52,0,0,0,2.82.06l.38-.08.37-3.22-.66.06a5.81,5.81,0,0,1-1.55-.1c-.78-.14-1.58-.48-1.16-2.81l1.43-8,4.09.74.59-3.25-4.1-.74Z"/><rect x="629.39" y="148.88" width="17.09" height="3.99" transform="translate(356.14 742.75) rotate(-77.85)"/><path d="M641.06,136.35a2.31,2.31,0,0,0-2.8,1.81,2.26,2.26,0,0,0,1.75,2.76,2.43,2.43,0,0,0,1.89-.31,2.17,2.17,0,0,0,.94-1.46A2.27,2.27,0,0,0,641.06,136.35Z"/><path d="M654,145.73c-4.62-1-8.67,1.94-9.84,7.21-1.14,5.1,1.35,9.12,6.34,10.23a13.35,13.35,0,0,0,5.64.18l.44-.09,0-3.23-.63.12a10,10,0,0,1-4.29-.15,4.54,4.54,0,0,1-3.83-5.43L658.71,157l.2-.59a8.86,8.86,0,0,0,.36-1.23C660.15,151.24,658.87,146.8,654,145.73Zm-.91,3.05a3.17,3.17,0,0,1,2.13,1.39,4.46,4.46,0,0,1,.47,2.91l-7.12-1.58C649.29,150,650.8,148.26,653.13,148.78Z"/><path d="M669.23,157.2h0c-1.85-1.3-2.29-1.9-2.06-2.8s1.21-1.38,2.47-1.06a5.65,5.65,0,0,1,2.68,1.56l.47.5,1.85-2.81-.31-.32a8.64,8.64,0,0,0-3.81-2.07c-3.41-.87-6.43.63-7.18,3.57-.38,1.5-.14,3.77,3.2,6,1.93,1.34,2.17,2.09,1.93,3-.29,1.13-1.36,1.55-2.94,1.14a7,7,0,0,1-3.16-1.91l-.48-.52L660,164.43l.31.31a9.63,9.63,0,0,0,4.33,2.31c3.84,1,6.84-.41,7.64-3.55C672.93,161.09,672,159.14,669.23,157.2Z"/></svg>
