<svg xmlns="http://www.w3.org/2000/svg" width="1262.35" height="2193.94" viewBox="0 0 1262.35 2193.94"><title>2_hat_8</title><g id="Layer_2" data-name="Layer 2"><g id="Layer_148" data-name="Layer 148"><g id="_2_hat_8" data-name="2_hat_8"><rect width="1262.35" height="2193.94" fill="none"/><path d="M752.7,177.06a6.9,6.9,0,0,1-4.3-1.51c-95-75.15-211.63-58.87-257.35-48.38-49.46,11.34-80.41,29.18-83.84,36a7,7,0,0,1-9.57,3.1,7.44,7.44,0,0,1-3-9.89c7.19-14.24,47.32-33,93.34-43.51,30.21-6.92,77.23-13.72,129.63-6.74,52.92,7,99.83,26.5,139.41,57.8a7.5,7.5,0,0,1,1.32,10.28,7,7,0,0,1-5.64,2.87" fill="#fff"/><path d="M381.85,218.7s.16-1.62.56-4.42c1.39-9.73,5.62-33.7,15.78-53.09,13.07-25,213.48-99.83,357.25,9.76,0,0,13.07,36.9,15.25,65.11L576.82,193.74l-191.7,23.87" fill="#292929"/><polygon points="447.44 188.96 447.44 188.98 463.54 184.87 447.44 188.96" fill="#ad9e9d"/><polygon points="694.45 191.4 710.54 195.52 710.54 195.5 694.45 191.4" fill="#ad9e9d"/><path d="M397.82,206.78s-44.29,14-44.29,48.89c0,24.06,32.42,42.77,105.09,18.94s82.88-76.25,208-8.17,160-11.91,99.69-40.53c0,0-149.58-109.14-368.44-19.13" fill="#46bec9"/><path d="M502.64,229.39a152.15,152.15,0,0,1,87.61-15.48c16.86,2.11,33.17,8.18,47.85,15.53a9.29,9.29,0,0,0,13.13-10.75l-4.47-16.36a21.22,21.22,0,0,0-14.23-14.67c-30.46-9.44-83.64-11-117.46-1.9A19.17,19.17,0,0,0,501.75,199l-6.91,24a5.5,5.5,0,0,0,7.8,6.42" fill="#5fd8e3"/><path d="M766.26,225.91a18.37,18.37,0,0,0-3-1.32c48.58,24.6,14.22,90.48-91.74,32.81-91.72-49.92-124.91-38.68-171.44-13.15-13.27,7.27-27,14.8-44.63,20.58-64.39,21.12-96,6.11-93.18-17,2.67-21.79,36.4-41.35,35.58-41,0,0-44.29,14-44.29,48.88,0,16.2,14.7,30,46.48,30,15.42,0,34.87-3.24,58.61-11,46.16-15.13,67.13-41.81,108.32-41.81,23.66,0,54,8.8,99.63,33.64,35.56,19.35,63.84,26.74,84.71,26.74,52.53,0,58.12-46.78,15-67.27" fill="#fff"/><path d="M623.25,140.42a371.28,371.28,0,0,0-129.09,3.18c-48.39,9.71-84.62,26.61-104.09,37.27-1.55,4.76-2.84,9.44-3.89,13.79,14.91-8.91,54.53-30.14,110-41.26,63.63-12.76,161.14-14.22,268.61,49-1.21-4.89-2.48-9.52-3.67-13.65C716.43,163.76,670.17,147.52,623.25,140.42Z" fill="#3b9fa8"/></g></g></g></svg>