<svg xmlns="http://www.w3.org/2000/svg" width="1262.35" height="2193.94" viewBox="0 0 1262.35 2193.94"><title>2_hat_3</title><g id="Layer_2" data-name="Layer 2"><g id="Layer_148" data-name="Layer 148"><g id="_2_hat_3" data-name="2_hat_3"><rect width="1262.35" height="2193.94" fill="none"/><path d="M590.21,34.42c0,9.58-11.29,17.35-25.2,17.35s-25.2-7.77-25.2-17.35S551.09,17.06,565,17.06s25.2,7.77,25.2,17.36" fill="#3d3d3d"/><path d="M445.59,157.18c-6.63-42,8.43-77.43,30.4-110-73.12,30.91-98.67,98.34-99,197l95.51-42.49h0l3.6-1.6C460.69,190.36,448.81,176.51,445.59,157.18Z" fill="#5e3d21"/><path d="M664.72,42.83c11.3,11.42,21,24.21,26.87,40.35,12,32,13,69-10,98-3,3.6-6.12,7.13-9.36,10.52l99,28.22C769.78,118.28,721.15,65.86,664.72,42.83Z" fill="#5e3d21"/><path d="M691.59,83.18C685.72,67,676,54.25,664.72,42.83c-30.27-12.36-62.79-16.26-91.47-14.74q-4.59.24-9,.66-8.82.53-17.16,1.4h0C519.51,33,496,38.75,476,47.2c-22,32.55-37,68-30.4,110,3.22,19.33,15.1,33.18,30.52,42.95l88.12-39.21,96.93,27.63,11.07,3.15c3.24-3.39,6.36-6.92,9.36-10.52C704.59,152.18,703.59,115.18,691.59,83.18Z" fill="#754c29"/><path d="M377,244.22s86.06-91.4,202.35-90.24,191.89,65.94,191.89,65.94S755,305.54,629.93,227.67c-38.3-23.85-81.59-15.66-118,11.92-107,81-134.9,4.63-134.9,4.63" fill="#545454"/><path d="M713.7,242.22c11.73-.69,30-4.88,40.94-22.84a3.38,3.38,0,0,0-1.07-4.59c-6-3.88-21.07-13.43-32.45-19.76a3.4,3.4,0,0,0-4.75,4.38c4.56,9.84,8.29,25.33-5.1,36.88a3.38,3.38,0,0,0,2.43,5.93" fill="#454545"/><path d="M766.05,215.83a198.91,198.91,0,0,1-10.94,17.23c-8.45,11.24-20.89,16.94-37,16.94-22.1,0-50.3-10.58-83.82-31.46a98.1,98.1,0,0,0-52.51-15.3c-25.09,0-51,9.56-74.88,27.65C490.09,243.62,474.3,253.07,460,259c-12,4.95-23.1,7.47-33,7.47-13.22,0-24.29-4.47-32.89-13.3-2.71-2.77-8.33-10.65-11.11-14.86-3.95,3.72-6,5.93-6,5.93s27.91,76.36,134.9-4.63c36.44-27.58,79.73-35.77,118-11.92,125,77.87,141.31-7.75,141.31-7.75s-1.78-1.52-5.19-4.09" fill="#3d3d3d"/><path d="M435.33,218.09c-1.7,9.87-1.45,22.09,7.36,29.2a5.89,5.89,0,0,1-2.09,10.31c-12.23,3.33-30.58,4-44.24-14.52a5.89,5.89,0,0,1,.95-8c5.74-4.81,16.91-14,28.62-22.68a5.94,5.94,0,0,1,9.4,5.73" fill="#454545"/><path d="M496.14,65.43c45.86-9,68.87-13.66,137.79,1.21,3.19.69,4.67-4.07,2.11-6.1-37.2-29.5-106.15-28-142.16-1.24a3.39,3.39,0,0,0,2.26,6.13" fill="#a16838"/><path d="M569.59,130.18c6,5,12-6,15-13,2.84-8.06,5.46-16.11,8.39-24a9,9,0,0,0-3.87-.61l-.75,0a9.09,9.09,0,0,0-8.31,7.11l-3.69,16.7a2.45,2.45,0,0,1-4.71.25l-6.23-18.34a9.1,9.1,0,0,0-9.22-6.16l-.59,0a9.43,9.43,0,0,0-1.79.32C558.32,105.75,558.2,121.42,569.59,130.18Z" fill="#a89074"/><path d="M593,93.23c-2.93,7.84-5.55,15.89-8.39,24-3,7-9,18-15,13-11.39-8.76-11.27-24.43-15.77-37.59a9.09,9.09,0,0,0-6.12,12l8.84,23.62a14.89,14.89,0,0,0,14.68,9.65l5.88-.29a14.89,14.89,0,0,0,13.35-10l7.83-22.83A9.08,9.08,0,0,0,593,93.23Z" fill="#8c7861"/></g></g></g></svg>