<svg xmlns="http://www.w3.org/2000/svg" width="1262.35" height="2193.94" viewBox="0 0 1262.35 2193.94"><title>2_hat_5</title><g id="Layer_2" data-name="Layer 2"><g id="Layer_148" data-name="Layer 148"><g id="_2_hat_5" data-name="2_hat_5"><rect width="1262.35" height="2193.94" fill="none"/><path d="M590.21,34.42c0,9.58-11.29,17.35-25.2,17.35s-25.2-7.77-25.2-17.35S551.09,17.06,565,17.06s25.2,7.77,25.2,17.36" fill="#a14776"/><path d="M445.59,157.18c-6.63-42,8.43-77.43,30.4-110-73.12,30.91-98.67,98.34-99,197l95.51-42.49h0l3.6-1.6C460.69,190.36,448.81,176.51,445.59,157.18Z" fill="#292626"/><path d="M664.72,42.83c11.3,11.42,21,24.21,26.87,40.35,12,32,13,69-10,98-3,3.6-6.12,7.13-9.36,10.52l99,28.22C769.78,118.28,721.15,65.86,664.72,42.83Z" fill="#292626"/><path d="M691.59,83.18C685.72,67,676,54.25,664.72,42.83c-30.27-12.36-62.79-16.26-91.47-14.74q-4.59.24-9,.66-8.82.53-17.16,1.4h0C519.51,33,496,38.75,476,47.2c-22,32.55-37,68-30.4,110,3.22,19.33,15.1,33.18,30.52,42.95l88.12-39.21,96.93,27.63,11.07,3.15c3.24-3.39,6.36-6.92,9.36-10.52C704.59,152.18,703.59,115.18,691.59,83.18Z" fill="#423e3d"/><path d="M377,244.22s86.06-91.4,202.35-90.24,191.89,65.94,191.89,65.94S755,305.54,629.93,227.67c-38.3-23.85-81.59-15.66-118,11.92-107,81-134.9,4.63-134.9,4.63" fill="#cc62a5"/><path d="M713.7,242.22c11.73-.69,30-4.88,40.94-22.84a3.38,3.38,0,0,0-1.07-4.59c-6-3.88-21.07-13.43-32.45-19.76a3.4,3.4,0,0,0-4.75,4.38c4.56,9.84,8.29,25.33-5.1,36.88a3.38,3.38,0,0,0,2.43,5.93" fill="#ba5288"/><path d="M766.05,215.83a198.91,198.91,0,0,1-10.94,17.23c-8.45,11.24-20.89,16.94-37,16.94-22.1,0-50.3-10.58-83.82-31.46a98.1,98.1,0,0,0-52.51-15.3c-25.09,0-51,9.56-74.88,27.65C490.09,243.62,474.3,253.07,460,259c-12,4.95-23.1,7.47-33,7.47-13.22,0-24.29-4.47-32.89-13.3-2.71-2.77-8.33-10.65-11.11-14.86-3.95,3.72-6,5.93-6,5.93s27.91,76.36,134.9-4.63c36.44-27.58,79.73-35.77,118-11.92,125,77.87,141.31-7.75,141.31-7.75s-1.78-1.52-5.19-4.09" fill="#a14776"/><path d="M435.33,218.09c-1.7,9.87-1.45,22.09,7.36,29.2a5.89,5.89,0,0,1-2.09,10.31c-12.23,3.33-30.58,4-44.24-14.52a5.89,5.89,0,0,1,.95-8c5.74-4.81,16.91-14,28.62-22.68a5.94,5.94,0,0,1,9.4,5.73" fill="#ba5288"/><path d="M501.79,66.85c51.38-4.09,94.66.82,137.79,1.21a3.41,3.41,0,0,0,2.11-6.1c-37.21-29.51-106.15-28-142.17-1.25a3.4,3.4,0,0,0,2.27,6.14" fill="#66605e"/><path d="M463.63,129.78c-.63,57.81-8.31,11-23.84,7.58-2.29-1.43,8.92-7.7,10.43-3.34l-4,1.44c20.86,38.4,16.15-3.72,9.9-5.49l9.22-3C465.34,127.21,466.77,129.24,463.63,129.78Z" fill="#a68266"/><path d="M478.12,118.8c-4.39-2.18,14.88-8.92,7.28-3.13,3.86,33.42,24.88,15.62,3.45,27.1C490.81,139.26,484.55,115.44,478.12,118.8Z" fill="#a68266"/><path d="M516.12,106.57c3.54-9.67,23.66-2.87,13.74,1.16-7.86-21.11-27.74,33.36,6.08,16.49C533.64,138.15,502.27,127.77,516.12,106.57Z" fill="#a68266"/><path d="M561.78,123.72c.51.1-1.74-23.11-1.63-23.91-11.34-.93-2.88,6.36-9.45,5.72-3.32-10.86,10.95-7,20.74-8.74,7.53,11.61-1.66,1.32-7.72,3.1,1.4,35,2.34,17.82,5.75,25.43-1.86.16-2.4.09-11.08.84C557.87,124.58,558.68,123.57,561.78,123.72Z" fill="#a68266"/><path d="M600.07,120.71c-11-11.36,1.63-35.66,18.88-22.11C629.74,110.15,615.71,132.4,600.07,120.71Zm16-1.94c6.92-7.88-.3-31.59-14.63-17.5C595.45,110.59,603.26,129.08,616.11,118.77Z" fill="#a68266"/><path d="M647.07,102.14c-3.17-5.82,33.71,4.56,10.68,15.76-.82,1.44,12.39,17.63,4.59,14.36-4.6.86-9.23-29.58-14-5.84,5.91,4.66,2.72,3.18-6.82,1.35C644.59,125.67,653.71,103.64,647.07,102.14Zm3.7,13.1c10.31,4.25,17-10.29,2.59-11.61C653.38,103.64,651,114.15,650.77,115.24Z" fill="#a68266"/><path d="M692.49,140.9c10.22-20.76-18.13-33,6.7-25.22,0,1.83-1.36,2.17-4.39,1,6,32.91,5.51-6.19,18.67,2.88-36.4,25.43,3,28.08-24.91,22.47C688.59,140.5,689.66,139.69,692.49,140.9Z" fill="#a68266"/></g></g></g></svg>