<svg xmlns="http://www.w3.org/2000/svg" width="1262.35" height="2193.94" viewBox="0 0 1262.35 2193.94"><title>2_men_shirt_3</title><g id="Layer_2" data-name="Layer 2"><g id="Layer_148" data-name="Layer 148"><g id="_2_men_shirt_3" data-name="2_men_shirt_3"><rect width="1262.35" height="2193.94" fill="none"/><path d="M771.25,766.48a11.79,11.79,0,0,0,12.87,1.57c30-14.81,65.74-43.27,84.15-81.13a16,16,0,0,0-.23-14.58C846.64,713,814.21,748.47,771.25,766.48Z" fill="#afb59f"/><path d="M868,672.34a15.79,15.79,0,0,0-1.51-2.34c-27.32-34.87-80.29-91.18-80.29-91.18-28.79-37.42-97.42-57.76-133.38-65.36-7.21-1.53-15.26-2.7-22.13-3.54-12.87,15.86-33.6,31.75-54.49,32.2-18.2.39-37.16-15.49-50.44-29.73l-17.2,5.28-38.25,10.74c-57.88,4.24-105.17,38.35-134.82,75.06-1.67,2.06-34.86,32.86-62.36,53.95a14.59,14.59,0,0,0-1.64,1.49c18.47,43.9,47.63,89.6,91.65,108.91,33.47-26.27,50.35-43.58,50.35-43.58C396.59,848.47,393.35,1006,393.35,1006s182.53,65.53,363.24.59c4.23-105.88-8.47-272.35-8.47-272.35s13.24,18.91,21.14,30.07a12.14,12.14,0,0,0,2,2.17C814.21,748.47,846.64,713,868,672.34Z" fill="#417a77"/><path d="M271.53,658.91a14.3,14.3,0,0,0-3.23,14.22c13.53,42.38,50.68,79.44,79.55,97.52a10.93,10.93,0,0,0,12.52-.63l2.81-2.2C319.16,748.51,290,702.81,271.53,658.91Z" fill="#afb59f"/><path d="M748.12,734.24q-3.71-30-7-56.41c-110.95-21.3-276-4.63-324,1-2.89,26.8-3.62,45.43-3.62,45.43-14,103-18.67,229-19.84,268.94A17,17,0,0,0,405.83,1010c43.38,13,193.21,50.26,343.49-.86A11.14,11.14,0,0,0,756.86,999C760.23,892.9,748.12,734.24,748.12,734.24Z" fill="#4a3332"/><path d="M413.53,724.24s-8.91,8.66-21.95,20.2C406.18,731.78,413.53,724.24,413.53,724.24Z" fill="none"/><path d="M350.79,771.94a10.94,10.94,0,0,0,9.58-1.92c1-.74,1.88-1.47,2.81-2.2q-2.81-1.23-5.53-2.6C354.87,767.85,352.51,770.13,350.79,771.94Z" fill="#838777"/><path d="M425.76,620.24s-18,66.35-19.88,94.58c0,0-24.12,27.77-47.06,49.3l-1.17,1.1q2.73,1.37,5.53,2.6c11.39-8.94,20.87-16.84,28.4-23.38,13-11.54,21.95-20.2,21.95-20.2C413.32,725.79,425.76,620.24,425.76,620.24Z" fill="#405c5e"/><path d="M784.12,768.05l-4.25-5.5c-2.82,1.38-5.67,2.69-8.58,3.91C778,772.53,784.12,768.05,784.12,768.05Z" fill="#969c89"/><path d="M736.82,645.18l11.3,89.06s12.52,19.46,21.14,30.07a18.5,18.5,0,0,0,2,2.15c2.91-1.22,5.76-2.53,8.58-3.91l-25.63-33.14C742.72,692.06,736.82,645.18,736.82,645.18Z" fill="#405c5e"/><path d="M406.85,647c2.46-.3,3.31-2.74,1.4-4-27.47-11.38-40.18-21.72-58.07-37.54-2.65-1.7-6.63-.77-7.73,1.78C334.12,626.59,344.91,654.74,406.85,647Z" fill="#405c5e"/><path d="M409.29,650.8s-39.85,6.17-57.68,1.75c-15.91-3.95-13.75,18.09,2.71,15.35S386.66,662.62,409.29,650.8Z" fill="#405c5e"/><path d="M747,649.91a2.3,2.3,0,0,1-2.24-3.54c17.53-17.44,24.13-30.43,33.06-49.94a3.9,3.9,0,0,1,6.42-.08C796.36,613.17,796.51,643,747,649.91Z" fill="#405c5e"/><path d="M413.14,855.62c-2.63,29.76-7.27,86.13-8.08,120.91a23.72,23.72,0,0,0,16.58,23.19c40.66,12.78,144.36,49.22,308.78,5.59,10.88-2.88,18.81-12.17,18.71-23.42l-.35-39.47c0-4-5.44-8.17-7.88-5-25.25,33.13-254,103-317.37-83.91C421.76,848.33,413.62,850.13,413.14,855.62Z" fill="#382726"/><path d="M573.76,547.06l1,102.25a7.94,7.94,0,0,0,7.94,7.87h0a8,8,0,0,0,7.94-8l-1-103.16Z" fill="#4a3332"/><path d="M580.12,540.71l14.82-29.65L628,495c-3.7-3.41-6.58-6-6.58-6-8.73,4-24.66,14.52-32.63,15.55l-8.66,22.39-10.2-22c-17.93-1.46-41.68-14.8-41.68-14.8l-4.55,6.36,41.6,16.64Z" fill="#afb59f"/><path d="M643.65,511.06c-1.32-2.63-9.59-10.51-15.66-16.1l-33,16.1-14.82,29.65-14.83-27.53-41.6-16.64L508.6,517.67s20.65,33.9,72.58,32.57C622.47,549.18,645.76,515.29,643.65,511.06Z" fill="#4a3332"/></g></g></g></svg>