<svg xmlns="http://www.w3.org/2000/svg" width="1262.35" height="2193.94" viewBox="0 0 1262.35 2193.94"><title>2_men_shirt_1</title><g id="Layer_2" data-name="Layer 2"><g id="Layer_148" data-name="Layer 148"><g id="_2_men_shirt_1" data-name="2_men_shirt_1"><rect width="1262.35" height="2193.94" fill="none"/><path d="M786.24,578.82c-28.79-37.42-97.42-57.76-133.38-65.36-7.21-1.53-15.26-2.7-22.13-3.54-12.87,15.86-33.6,31.75-54.49,32.2-18.2.39-37.16-15.49-50.44-29.73l-17.2,5.28-38.25,10.74c-57.88,4.24-105.17,38.35-134.82,75.06-1.67,2.06-34.86,32.86-62.36,53.95a14.31,14.31,0,0,0-4.87,15.71c13.53,42.38,50.68,79.44,79.55,97.52a10.93,10.93,0,0,0,12.52-.63c35.34-27.5,53.16-45.78,53.16-45.78C396.59,848.47,393.35,1006,393.35,1006s182.53,65.53,363.24.59c4.23-105.88-8.47-272.35-8.47-272.35s13.24,18.91,21.14,30.07a11.79,11.79,0,0,0,14.86,3.74c30-14.81,65.74-43.27,84.15-81.13A16,16,0,0,0,866.53,670C839.21,635.13,786.24,578.82,786.24,578.82Z" fill="#fff"/><path d="M413.53,724.24s-8.91,8.66-21.95,20.2C406.18,731.78,413.53,724.24,413.53,724.24Z" fill="none"/><path d="M425.76,620.24s-18,66.35-19.88,94.58c0,0-24.12,27.77-47.06,49.3-3.29,3.09-6.07,5.76-8,7.82a10.94,10.94,0,0,0,9.58-1.92c12.66-9.85,23.06-18.51,31.21-25.58,13-11.54,21.95-20.2,21.95-20.2C413.32,725.79,425.76,620.24,425.76,620.24Z" fill="#bababa"/><path d="M748.12,734.24s12.52,19.46,21.14,30.07c7.45,9.16,14.86,3.74,14.86,3.74l-29.88-38.64c-11.52-37.35-17.42-84.23-17.42-84.23Z" fill="#bababa"/><path d="M406.85,647c2.46-.3,3.31-2.74,1.4-4-27.47-11.38-40.18-21.72-58.07-37.54-2.65-1.7-6.63-.77-7.73,1.78C334.12,626.59,344.91,654.74,406.85,647Z" fill="#bababa"/><path d="M409.29,650.8s-39.85,6.17-57.68,1.75c-15.91-3.95-13.75,18.09,2.71,15.35S386.66,662.62,409.29,650.8Z" fill="#bababa"/><path d="M747,649.91a2.3,2.3,0,0,1-2.24-3.54c17.53-17.44,24.13-30.43,33.06-49.94a3.9,3.9,0,0,1,6.42-.08C796.36,613.17,796.51,643,747,649.91Z" fill="#bababa"/><path d="M748.12,734.24c-12.9-104.46-21.39-176.73-32.47-204.12-16.14-5.33-51.07-14.19-62.79-16.66-7.21-1.53-15.26-2.7-22.13-3.54-12.87,15.86-33.6,31.75-54.49,32.2-18.2.39-37.16-15.49-50.44-29.73l-17.2,5.28-54.84,11.74c-35.29,68.47-40.23,194.83-40.23,194.83-14,103-18.67,229-19.84,268.94A17,17,0,0,0,405.83,1010c43.38,13,193.21,50.26,343.49-.86A11.14,11.14,0,0,0,756.86,999C760.23,892.9,748.12,734.24,748.12,734.24Z" fill="#5ba4dd"/><path d="M575.88,554.47l41.3,40.24s39.48-38.61,41.76-79.88c-2.39-.56-4.46-1-6.08-1.37-7.21-1.53-15.26-2.7-22.13-3.54-12.87,15.86-33.6,31.75-54.49,32.2-18.2.39-37.16-15.49-50.44-29.73l-17.2,5.28-14.87,3.19c4,17.59,13.9,48.63,36.62,74.9Z" fill="#438eb3"/><path d="M563.76,547.76l-2,65.63a6.82,6.82,0,0,0,6.73,6.82l16.26.23a6.83,6.83,0,0,0,6.92-6.57l.57-66.52-16-5.23Z" fill="#287ba5"/><path d="M539.53,489.88v17.65s9.18,21.18,36.71,34.59l-45.53,40.94s-23.65-40.94-26.47-65.65l22.58-24S531.06,487.06,539.53,489.88Z" fill="#fff"/><path d="M611.84,513c-4.82,6.66-16,19.6-35.6,29.15l42.35,37.76a252.45,252.45,0,0,0,20.93-32.44,30.66,30.66,0,0,0-5.93-14.26C627.9,525.86,621.54,515.89,611.84,513Z" fill="#fff"/><path d="M627.41,494.47s-4.23-6.35-12.7-3.53v17.65a46.76,46.76,0,0,1-2.87,4.38c9.7,2.92,16.06,12.89,21.75,20.21a30.66,30.66,0,0,1,5.93,14.26c5.13-9.7,12.33-25.12,13.34-34Z" fill="#bababa"/><circle cx="578.35" cy="569.29" r="7.41" fill="#fff"/><circle cx="578.35" cy="604.94" r="7.41" fill="#fff"/><path d="M413.14,855.62c-2.63,29.76-7.27,86.13-8.08,120.91a23.72,23.72,0,0,0,16.58,23.19c40.66,12.78,144.36,49.22,308.78,5.59,10.88-2.88,18.81-12.17,18.71-23.42l-.35-39.47c0-4-5.44-8.17-7.88-5-25.25,33.13-254,103-317.37-83.91C421.76,848.33,413.62,850.13,413.14,855.62Z" fill="#438eb3"/><path d="M540.1,508.71c-.38-.75-.57-1.18-.57-1.18V489.88c-8.47-2.82-12.71,3.53-12.71,3.53l-22.58,24c1,8.67,4.54,19.34,8.74,29.53C515.12,530.64,525.07,511.43,540.1,508.71Z" fill="#bababa"/><path d="M576.24,542.12c-23.68-11.53-33.77-28.79-36.14-33.41-15,2.72-25,21.93-27.12,38.23a342.82,342.82,0,0,0,17.73,36.12Z" fill="#fff"/></g></g></g></svg>