<svg xmlns="http://www.w3.org/2000/svg" width="1262.35" height="2193.94" viewBox="0 0 1262.35 2193.94"><title>2_men_drivers_1</title><g id="Layer_2" data-name="Layer 2"><g id="Layer_148" data-name="Layer 148"><g id="_2_men_drivers_1" data-name="2_men_drivers_1"><rect width="1262.35" height="2193.94" fill="none"/><path d="M296.1,852.15l.23-.14,42.52-7,7.28,13.79-27.49,32.72C306.64,882,297.84,867.74,296.1,852.15Z" fill="#e0cd9e"/><path d="M296.1,852.15,222.4,893.3l2.66,13.05s15.53,3.53,23.51,26l70.07-40.82C306.64,882,297.84,867.74,296.1,852.15Z" fill="#c7823c"/><path d="M308.22,871.53l29.85-16.77-1.86-5.08-33.65,6.11S303,864.53,308.22,871.53Z" fill="#fff"/><path d="M1000.82,504l6.62-4.88s0-.1,0-.26q-4.14,2.36-8.75,4.94C999.36,503.84,1000.07,503.9,1000.82,504Z" fill="none"/><path d="M847.22,570.76,338.85,845l7.28,13.79s302.42-162.87,507.8-275.14a23.12,23.12,0,0,1-6.27-11.93C847.56,571.47,847.4,571.14,847.22,570.76Z" fill="#996025"/><path d="M1039.48,479.66c3-7.39-3-11-3-11l-79.69,43a21.77,21.77,0,0,0,3.94,9.86c2.71-2,6.75-3.31,13-3.8l9.61-5.35c.65-2.39,3.55-9.31,15.31-8.58q4.61-2.6,8.75-4.94c-.23-1.85-1.27-13.59,7.53-15.57,3.71-.83,8.25,1.25,12.43,4.1C1035,482.91,1039.24,480.22,1039.48,479.66Z" fill="#996025"/><path d="M853.93,583.66l0,0c24-13.1,46.81-25.59,67.72-37.09l0-.1C900.89,558,878.09,570.46,853.93,583.66Z" fill="#f5fdff"/><path d="M956.74,511.62l-109.57,59,.05.1,109.53-59.09A.11.11,0,0,0,956.74,511.62Z" fill="#f5fdff"/><path d="M940.1,536.36q8.42-4.64,16.28-9a13.12,13.12,0,0,1,4.31-5.83,21.77,21.77,0,0,1-3.94-9.86L847.22,570.76c.18.38.34.71.44,1a23.12,23.12,0,0,0,6.27,11.93c24.16-13.2,47-25.71,67.78-37.16C923.08,542.47,927.54,537.91,940.1,536.36Z" fill="#e0cd9e"/><path d="M1046.65,394.08c-13.42-52.11-51-68.41-75.43-68.49-44.93-.15-103,34.23-89.64,106.67s125.85,66.86,125.86,66.86-2.06-13.68,7.5-15.83c3.62-.81,8,1.15,12.13,3.9l12.41-7.53S1062.12,454.16,1046.65,394.08Z" fill="#c7823c"/><path d="M1051.73,418.52l-.07-.25a52.3,52.3,0,0,0-28.38-32c-25.17-11.55-50-10.41-67.17-3-28.54,12.27-40.71,30.24-45.56,50.33-6.87,28.48,6.08,44.88,22.1,52.51,35.82,15.2,74.79,13,74.79,13s-2.07-13.68,7.5-15.83c3.62-.81,8,1.15,12.13,3.9l12.41-7.53S1056.84,460.24,1051.73,418.52Z" fill="#e0cd9e"/><path d="M941.15,421.68a91.69,91.69,0,0,1,11.79-9,3.34,3.34,0,0,1,4.52.84c10.1,14,35.78,49,52.8,68.1a3.34,3.34,0,0,1-1.24,5.32h0a3.36,3.36,0,0,1-3.17-.37C984.8,471.9,953.29,439.43,941,426.43A3.33,3.33,0,0,1,941.15,421.68Z" fill="#a89074"/><path d="M992.58,400.56,1020.82,479a3,3,0,0,1-1.72,3.85h0a3,3,0,0,1-3.79-1.32L972.82,406.8a3,3,0,0,1,1.68-4.4,128.1,128.1,0,0,1,14.6-3.79A3,3,0,0,1,992.58,400.56Z" fill="#a89074"/><path d="M1020.6,394.88c8.38,19.8,10.4,61.54,10.13,81.41a3.21,3.21,0,0,1-2.13,2.78h0c-1.94.78-4-.16-4.09-1.93-2-28.88-12.5-61.33-18.62-78.17-.57-1.57.73-3.4,2.69-3.8,3.37-.67,6.62-1.31,8.84-1.72A2.78,2.78,0,0,1,1020.6,394.88Z" fill="#a89074"/><path d="M995.28,491.77c-46.59-15.07-66.86-34.25-71.53-39.22a2.66,2.66,0,0,1-.55-2.77,62.71,62.71,0,0,1,4.23-8.89,2.69,2.69,0,0,1,4.16-.64c11.4,10.61,36.64,32.4,65.69,46.55a2.68,2.68,0,0,1-.16,4.9h0A2.71,2.71,0,0,1,995.28,491.77Z" fill="#a89074"/><path d="M906.2,419.4c-8.74-5.08-14.71-14.4-17.27-24.09C880.83,431.38,903.3,463,903.3,463,899,445.44,901.25,431,906.2,419.4Z" fill="#ab651d"/><path d="M912.32,355.6a83,83,0,0,0-19.49,27.56c1.73,11.07,8.18,22,18.14,27.13a76.12,76.12,0,0,1,11.91-14.59C903.06,386.12,905.68,367.93,912.32,355.6Z" fill="#ab651d"/><path d="M946.47,335.29s11.65,15.89,6.35,39.18c0,0,43.42-20.12,83.65,11.65C1036.47,386.12,1022.71,324.71,946.47,335.29Z" fill="#fac34b"/><path d="M241.29,907.06l54-29.65S290,866.82,290,861.53l-56.12,30.71S233.88,902.82,241.29,907.06Z" fill="#fac34b"/></g></g></g></svg>