<svg xmlns="http://www.w3.org/2000/svg" width="1262.35" height="2195.18" viewBox="0 0 1262.35 2195.18"><title>2_beard_8</title><g id="Layer_2" data-name="Layer 2"><g id="accessories"><g id="_2_beard_8" data-name="2_beard_8"><path d="M662,440.14c-16.81-2.23-21.18-15.33-35.93-35.35-14-19.05-43.75-17-52.21-16-8.46-1-38.16-3.05-52.2,16-14.75,20-19.12,33.12-35.94,35.35a2.67,2.67,0,0,0-1.2,4.86c5.59,3.76,15.61,7.77,29.69,2.92,22.18-7.65,29.83-31.7,59.65-32.88,29.83,1.18,37.48,25.23,59.65,32.88,14.08,4.85,24.1.84,29.7-2.92A2.67,2.67,0,0,0,662,440.14Z" fill="#331815"/><rect width="1262.35" height="2195.18" fill="none"/></g></g></g></svg>