<svg xmlns="http://www.w3.org/2000/svg" width="1262.35" height="2195.18" viewBox="0 0 1262.35 2195.18"><title>2_beard_9</title><g id="Layer_2" data-name="Layer 2"><g id="accessories"><g id="_2_beard_9" data-name="2_beard_9"><path d="M626.83,387.41s16.94,43.94,15.84,47.12S611,456.24,600,458.35c0,0-15.32-10.82-19.69-11.88,0,0,1.09,9.52-6.56,10.59-7.64-1.07-6.55-10.59-6.55-10.59-4.38,1.06-19.69,11.88-19.69,11.88-10.94-2.11-41.57-20.64-42.67-23.82s14.85-47.12,14.85-47.12c-14.22,6.35-42.2,52.24-42.2,52.24-7.36-.89-28.38-10.3-38.68-21.66,10.71,30.56,35.34,41.1,74.59,54.42,0,0,18.35,24,60.71,22.59h.15c42.36,1.41,60.71-22.59,60.71-22.59,39.42-13.37,64.09-23.94,74.73-54.8-12.83,11.74-32.84,21.21-39.69,22C670,439.65,641.05,393.76,626.83,387.41Z" fill="#4d2619"/><rect width="1262.35" height="2195.18" fill="none"/></g></g></g></svg>