<svg xmlns="http://www.w3.org/2000/svg" width="1262.35" height="2193.94" viewBox="0 0 1262.35 2193.94"><title>2_men_hair_2</title><g id="Layer_2" data-name="Layer 2"><g id="Layer_148" data-name="Layer 148"><g id="_2_men_hair_2" data-name="2_men_hair_2"><rect width="1262.35" height="2193.94" fill="none"/><path d="M759.2,252A69.73,69.73,0,0,1,755,240.08c34-61.3-15-98.55-15-98.55s5.68-39.74-39.75-55.34a24.83,24.83,0,0,0,.36-3.55,27.29,27.29,0,0,0-9.49-21.28c1.72,6.53-4.1,13-10.51,15.07a30.15,30.15,0,0,1-4.87,1.12C670,67,649.78,37.74,608.56,52a24.69,24.69,0,0,0-1.72-4.45c-4.18-8.27-12.13-14.08-20.6-17.84a18.89,18.89,0,0,1-2.31,18,18.45,18.45,0,0,1-6,5.14c-16.26-13.29-51.17-31.71-88.87,11.39a66,66,0,0,0-54,21.17c-19.22,21-23,38.81-22.56,50.58-4.79,4.76-12.63,7.14-18.41,3.67-.31,8,3.39,15.64,9.17,21.1-14.94,14.5-30.39,42.21-13.88,84.56-1.57,5.46-4.46,10.54-8.94,13.94-5.74,4.37-14.36,5.31-20.15,1,8.62,12.49,24.67,18.93,39.63,17.19a44.25,44.25,0,0,1,.2,11.25c-2.13,17-15.41,30.79-20.38,33.19,21.63,5.42,45.28-4.33,59.95-21.12s21.21-39.51,22-61.79c0,0,24.2,31.72,56,28.54,0,0-26.47-42.35-3.18-63.53,0,0,20.12,12.71,27.53,47.65,0,0,36-13.77,33.88-63.53,0,0,11.65,54,54,61.41,0,0-7.41-27.53,12.71-48.71,0,0,31.76,28.59,14.82,57.18,0,0,31.77-3.18,33.88-40.24,0,0,2.12,55.06,27.53,91.06,0,0,15.89-5.29,24.36,8.47,0,0,10.83-14.73,13.65-34.22A44.76,44.76,0,0,0,763,284.2c8.92,1,17.93-.51,26.71-2.43C776.13,276.54,765.31,265.24,759.2,252Z" fill="#c7823c"/><path d="M787.2,280.72c-37.67-4.72-46.47-28.21-51.79-34.37-2.36,15.12-2.47,37.43,7.18,49.83-39.65-39.24-38.4-120.71-38.94-123.24-7.21,10.56-20.88,28.63-28.37,38.9C670.6,197,662.05,183.43,652,171.49c-14.36,13.13-31.16,37.76-37.29,55.8-25.42-24-31.58-44.84-40-66.21-3.9,20.73-14.71,56.14-30.56,69.74-5.51-15.81-22.48-38.17-36.71-47.29-15.05,18.06-20.6,34.18-19.78,57A89,89,0,0,1,451,204.57c-.64,26.28-.74,72.84-46.63,98.25,11-21,11.94-72.88,4.94-93.88-1.41,42.35-14.11,60.71-44.23,56.91a43.71,43.71,0,0,0,34.86,11.61,44.25,44.25,0,0,1,.2,11.25c-2.13,17-15.41,30.79-20.38,33.19,21.63,5.42,45.28-4.33,59.95-21.12s21.21-39.51,22-61.79c0,0,24.2,31.72,56,28.54,0,0-26.47-42.35-3.18-63.53,0,0,20.12,12.71,27.53,47.65,0,0,36-13.77,33.88-63.53,0,0,11.65,54,54,61.41,0,0-7.41-27.53,12.71-48.71,0,0,31.76,28.59,14.82,57.18,0,0,31.77-3.18,33.88-40.24,0,0,2.12,55.06,27.53,91.06,0,0,15.89-5.29,24.36,8.47,0,0,10.83-14.73,13.65-34.22A44.76,44.76,0,0,0,763,284.2c8.92,1,17.93-.51,26.71-2.43Q788.45,281.27,787.2,280.72Z" fill="#a15f1b"/><path d="M466.32,124.54c9.15-12,25.18-19,39.74-15.22a63.54,63.54,0,0,0-31.2-21.1C461,84.05,443.61,86,435.41,97.91A39.82,39.82,0,0,1,462.65,101c-10.37,5.8-19,13.91-21.36,29.91-2.81,19.13,14.59,43.77,14.59,43.77C456.55,174.55,454.94,139.41,466.32,124.54Z" fill="#a15f1b"/><path d="M638.35,100.24s65.65-30.71,59.3,51.88C697.65,152.12,682.82,112.94,638.35,100.24Z" fill="#a15f1b"/><path d="M510.24,115.06s-11.65,37.06,21.17,54c0,0-30.7,2.12-37.06-21.18S510.24,115.06,510.24,115.06Z" fill="#a15f1b"/></g></g></g></svg>