<svg xmlns="http://www.w3.org/2000/svg" width="1262.35" height="2193.94" viewBox="0 0 1262.35 2193.94"><title>2_men_pants_1</title><g id="Layer_2" data-name="Layer 2"><g id="Layer_148" data-name="Layer 148"><g id="_2_men_pants_1" data-name="2_men_pants_1"><rect width="1262.35" height="2193.94" fill="none"/><path d="M769.65,1532.82s19.06-364.11-16.94-525.06c-31.26,14-93.37,27.73-157.06,28-89.49.39-182.09-17.84-196.6-29.68-5.79,23.06-15.52,75.26-21.52,122.63-19.06,150.35-.45,434.34-.71,422.82,0,0-14.82,337.06-12.7,394.23,0,0,50.82,23.65,124.94,5.3,0,0,59.29-265.77,20.12-402.35,0,0,62.47-369.53,63.53-378,0,0,31.88,278.88,77.41,372,0,0-33.3,89.24,41.53,412.53,0,0,64.94,28.24,120.35,2.12Z" fill="#3c3e4c"/><path d="M376.82,1551.53v.32C376.82,1551.91,376.83,1551.81,376.82,1551.53Z" fill="none"/><path d="M749.1,1542.32c16.63-88.32-12.28-428.11-13.52-442.56l-6,.53c.3,3.54,30.18,354.63,13.51,441.35l-.09.48.06.49c.39,3.05,37.39,298.64,39.37,424q3-.51,6-1.17C786.29,1841.46,750.8,1556,749.1,1542.32Z" fill="#323440"/><path d="M405.22,1568l0-.25,0-.25c-10.92-140.85-5.75-258.06.51-331.59,6.79-79.67,14.28-126.64,14.38-127.1l-5.88-1.21c-.1.47-7.65,47.69-14.46,127.67-6.29,73.73-11.48,191.25-.56,332.45-.62,7.24-13.76,163.29-10.92,385.51,1.9.43,3.91.84,6,1.24C391.35,1727.71,405.08,1569.65,405.22,1568Z" fill="#323440"/><path d="M550.47,1051.06c0,1.4.27,43.31,1.72,82.75.5,13.72-.47,30.41.35,41.72a163.72,163.72,0,0,1,19.27,10.65c7.71-1.74,17.54-6,24.19-8.36l-2.69-44.23v-79.71Z" fill="#424554"/><path d="M572.71,1170.71c-.09.66-.55,3.54-1.32,8.28.79.08,1.56.12,2.32.15C573.05,1173.69,572.71,1170.71,572.71,1170.71Z" fill="none"/><path d="M376.82,1551.53v.32C376.82,1551.91,376.83,1551.81,376.82,1551.53Z" fill="none"/><path d="M574.73,1179.18l-.6,3.4c.09.74.18,1.5.28,2.29l.06-1.81Z" fill="none"/><path d="M769.65,1532.82s19.06-364.11-16.94-525.06c-31.26,14-93.37,27.73-157.06,28-89.49.39-182.09-17.84-196.6-29.68-5.79,23.06-15.52,75.26-21.52,122.63-18.6,146.7-1.33,420.64-.72,423.14v-.32c0,.28,0,.38,0,.32-.5,11.42-14.77,337.74-12.69,393.91,0,0,50.82,23.65,124.94,5.3,0,0,43.7-195.89,31.28-337.75l-24.93-68.84,56.47-336s-66.35-45.18-87.53-77.65c0,0,72.66,44.92,107,48.17.77-4.74,1.23-7.62,1.32-8.28,0,0,.34,3,1,8.43l1,0,59-18.71s-49.41,26.82-49.41,32.47c0,3.71,11.85,121,25.41,211.69,11.48,55.22,25.16,107,40.36,138.13,0,0-33.3,89.24,41.53,412.53,0,0,64.94,28.24,120.35,2.12Z" fill="none"/><path d="M573.71,1179.14l.42,3.44.6-3.4Z" fill="#2e303b"/><path d="M609.76,1404.63c-13.56-90.7-25.41-208-25.41-211.69,0-5.65,49.41-32.47,49.41-32.47-23.51,8.7-43.13,16-62.44,18.93l.07-.41c-34.38-3.25-107-48.17-107-48.17,21.18,32.47,87.53,77.65,87.53,77.65l-47.47,342,15.93,62.84c-2.05-23.37-5.62-45.28-11.16-64.6,0,0,49.22-291.15,61-362.5C573.55,1211.4,587.25,1309.18,609.76,1404.63Z" fill="#2e303b"/><path d="M376.82,1551.53v.32C376.82,1551.91,376.83,1551.81,376.82,1551.53Z" fill="none"/><path d="M766.45,1102.53c-11.48-.86-22.78-3.55-32.71-8.92-7.33-23.68-9.29-50-11.81-75-2.55.72-5.16,1.44-7.84,2.13,2.09,32.9,7.2,86.73,18.5,92.42,10.61,5.34,27.14,16.25,36.55,22.64C768.35,1124.45,767.46,1113.35,766.45,1102.53Z" fill="#2e303b"/><path d="M721.93,1018.57c2.52,25,4.48,51.36,11.81,75,9.93,5.37,21.23,8.06,32.71,8.92-3.28-35.48-7.75-68-13.74-94.77A231.77,231.77,0,0,1,721.93,1018.57Z" fill="#323440"/><path d="M428.06,1017c-14.64-3.79-24.92-7.63-29-11-5.48,21.82-14.48,69.73-20.52,114.94,12.47-7.67,24.33-17,37.07-24.54C418.35,1069.89,425.6,1043.73,428.06,1017Z" fill="#323440"/><path d="M428.06,1017c-2.46,26.69-9.71,52.85-12.46,79.44-12.74,7.58-24.6,16.87-37.07,24.54-.34,2.57-.68,5.14-1,7.69-.9,7.12-1.72,14.55-2.46,22.23,15.94-12,38.25-29.43,42.69-35.65,5.25-7.34,12.05-66.89,15.2-97C431.27,1017.86,429.65,1017.45,428.06,1017Z" fill="#2e303b"/><path d="M757.9,1034.56c-1.59-9.43-3.31-18.39-5.19-26.8-31.26,14-93.37,27.73-157.06,28-89.49.39-182.09-17.84-196.6-29.68-1.79,7.12-3.95,17-6.27,28.71,30.66,11,94.92,29.48,183.81,30.39A522.58,522.58,0,0,0,757.9,1034.56Z" fill="#756353"/><path d="M376.82,1551.53v.32C376.82,1551.91,376.83,1551.81,376.82,1551.53Z" fill="#3c3e4c"/><path d="M676.06,1028.75c1.23,9,2.08,18.19,3,27.27q10-1.89,19.89-4.16c-1.13-9-2.44-17.83-3-26.88C689.52,1026.33,682.89,1027.6,676.06,1028.75Z" fill="#3c3e4c"/><path d="M607.62,1035.56q-6,.18-12,.2c-18.39.08-36.9-.62-54.85-1.9a257.62,257.62,0,0,0-.45,29.94c11.58.76,23.65,1.25,36.24,1.38q16.29.16,32.45-.71C608.85,1054.78,607.56,1045.25,607.62,1035.56Z" fill="#968d84"/><path d="M454.86,1023a253.72,253.72,0,0,0-2.78,28.59q8.24,1.79,17.24,3.45a214.27,214.27,0,0,1,3.69-28.87C466.68,1025.11,460.6,1024.05,454.86,1023Z" fill="#3c3e4c"/><path d="M376.82,1551.53v.32C376.82,1551.91,376.83,1551.81,376.82,1551.53Z" fill="#3c3e4c"/><path d="M680.77,1902.45c-1.12,21.79,5.23,38.73,10.88,52.84,0,0,64.94,28.24,120.35,2.12,3.48-19.8,2.78-31.11-4.69-51.05C765.44,1911.76,722.27,1909.75,680.77,1902.45Z" fill="#4c4f61"/><path d="M376.82,1551.53v.32C376.82,1551.91,376.83,1551.81,376.82,1551.53Z" fill="#3c3e4c"/><path d="M364.39,1887.69c-7.34,26-4.51,37.25-.27,58.07,0,0,50.82,23.65,124.94,5.3,7.06-12,14.12-30.35,12.08-63C456.1,1897.31,408.21,1897.17,364.39,1887.69Z" fill="#4c4f61"/></g></g></g></svg>