<svg xmlns="http://www.w3.org/2000/svg" width="1262.35" height="2193.94" viewBox="0 0 1262.35 2193.94"><title>2_men_hair_3</title><g id="Layer_2" data-name="Layer 2"><g id="Layer_148" data-name="Layer 148"><g id="_2_men_hair_3" data-name="2_men_hair_3"><rect width="1262.35" height="2193.94" fill="none"/><path d="M430.47,310.59c3.92,2.14-12.71-159.53,135.53-131.3,0,0,150.35-52.94,151.76,130.59,0,0,8.48-6.35,21.18,2.83,0,0,59.77-254.24-166.12-258.47S405.06,317.65,405.06,317.65,414.94,302.12,430.47,310.59Z" fill="#595148"/><path d="M595.59,150.18c-10,5-24,10-28,21-19-24-51-22-79-15-23,5-69.41,44.29-79,114-.47,3.42-6.08,2.77-10.32,2.42a346.49,346.49,0,0,0,5.79,45s9.88-15.53,25.41-7.06c3.92,2.14-12.71-159.53,135.53-131.3,0,0,150.35-52.94,151.76,130.59,0,0,8.48-6.35,21.18,2.83,0,0,1.89-8,3.72-21.26a39.73,39.73,0,0,1-9.07-16.27C720.59,228.18,694.47,120,595.59,150.18Z" fill="#453f38"/><path d="M401.1,203c-1.17,8.75-1.91,17.41-2.32,25.8,10.48,13.69,22.66,25.9,37,35a169.5,169.5,0,0,1,5-19.3C425.47,233,412.44,218.54,401.1,203Z"/><path d="M433.58,277a110.86,110.86,0,0,1-35.17-24.55c.16,9.42.66,18.23,1.32,26.14a182.39,182.39,0,0,0,32,17.8C432.09,291,432.6,284.32,433.58,277Z"/><path d="M572.82,54.24c-76.34-1.44-120.23,28.19-144.9,68,7.53,28.48,19.53,56.79,37.64,79.28,19.62-19.87,50.78-31.72,100.44-22.27,0,0,69.22-24.37,114.17,17.3,17.7-23.7,27.18-52,30.84-81.12C685.62,81,643,55.55,572.82,54.24Z"/><path d="M745.61,224.65c-.47-8.44-1.29-17.15-2.61-26-9.28,15.69-20.63,30.48-36.19,39.9a157.09,157.09,0,0,1,4.65,15.46C724.22,246.24,735.27,235.91,745.61,224.65Z"/><path d="M746,250.11a109.35,109.35,0,0,1-31.11,21.3q1.25,8.1,2,17.07c9.64-2,18.87-8,27.8-14.5C745.3,266.71,745.8,258.68,746,250.11Z"/></g></g></g></svg>