<svg xmlns="http://www.w3.org/2000/svg" width="1262.35" height="2193.94" viewBox="0 0 1262.35 2193.94"><title>2_men_pants_5</title><g id="Layer_2" data-name="Layer 2"><g id="Layer_148" data-name="Layer 148"><g id="_2_men_pants_5" data-name="2_men_pants_5"><rect width="1262.35" height="2193.94" fill="none"/><path d="M769.65,1532.82s19.06-364.11-16.94-525.06c-31.26,14-93.37,27.73-157.06,28-89.49.39-182.09-17.84-196.6-29.68-5.79,23.06-15.52,75.26-21.52,122.63-19.06,150.35-.45,434.34-.71,422.82,0,0-14.82,337.06-12.7,394.23,0,0,50.82,23.65,124.94,5.3,0,0,59.29-265.77,20.12-402.35,0,0,62.47-369.53,63.53-378,0,0,31.88,278.88,77.41,372,0,0-33.3,89.24,41.53,412.53,0,0,64.94,28.24,120.35,2.12Z" fill="#486c87"/><path d="M584.13,1256.65q-.51-3.56-1-7l-.21,7Z" fill="#5c8199"/><path d="M572.71,1170.71c-.07.54-.4,2.59-.94,5.93l1.64,0C572.94,1172.79,572.71,1170.71,572.71,1170.71Z" fill="#78a3ca"/><path d="M420.61,1064.38c-12.44-2.62-23.23-5.17-32-7.37-1.15,6.37-2.29,13-3.42,19.81,9,2.24,19.84,4.78,32.32,7.39Q419.06,1073.82,420.61,1064.38Z" fill="#5c8199"/><path d="M710,1091.57q-1-10.23-2.16-20a493.37,493.37,0,0,1-51.6,8.18q1.15,9.48,2.41,20A513.51,513.51,0,0,0,710,1091.57Z" fill="#5c8199"/><path d="M506.24,1098.32q31.26,3.42,61.14,4.39l.58-20c-21.14-.68-41.09-2.23-59.15-4.19l-.19,0q-1.37,9.51-2.8,19.82Z" fill="#5c8199"/><path d="M729.7,1086.94q17.61-4.56,34.07-10.38-1.2-10.43-2.57-20.34c-11.07,4.06-22.34,7.59-33.73,10.61Q728.63,1076.67,729.7,1086.94Z" fill="#5c8199"/><path d="M485.9,1095.87c1-6.85,1.89-13.47,2.81-19.81-17.47-2.31-33.76-5-48.45-7.77q-1.53,9.43-3.11,19.81C451.92,1090.86,468.29,1093.54,485.9,1095.87Z" fill="#5c8199"/><path d="M591.56,1103.13q24.18,0,47.16-1.67-1.25-10.5-2.41-20c-16.45,1.18-32.65,1.64-48.35,1.58l-.58,20Z" fill="#5c8199"/><path d="M666.88,1172.26q25.62-2.8,49.27-7.37-.71-10.16-1.46-20.15c-16.53,3.25-33.27,5.73-50,7.55Q665.78,1162.05,666.88,1172.26Z" fill="#5c8199"/><path d="M500.45,1173.41q33.24,2.63,64.78,3.14l.59-20c-22.61-.35-44-1.49-63.47-3l-3.78-.31q-1.23,9.76-2.44,19.87Z" fill="#5c8199"/><path d="M647,1174.15q-1.1-10.22-2.19-20c-20,1.59-39.8,2.34-59,2.45l-.58,20.06Q617.22,1176.54,647,1174.15Z" fill="#5c8199"/><path d="M478.56,1151.37c-17.61-1.76-34.11-3.82-49.1-5.95q-1.12,9.55-2.24,19.87c15,2.13,31.4,4.18,48.9,5.93Q477.34,1161.13,478.56,1151.37Z" fill="#5c8199"/><path d="M736,1160.66q17.72-4.14,34.14-9.32-.63-10.39-1.37-20.58c-11.2,3.67-22.65,6.88-34.27,9.67Q735.3,1150.45,736,1160.66Z" fill="#5c8199"/><path d="M409.67,1142.44c-12.64-2-23.78-4-33.1-5.76-.74,6.44-1.42,13.11-2,20,9.37,1.76,20.42,3.71,32.88,5.68Q408.53,1152,409.67,1142.44Z" fill="#5c8199"/><path d="M675,1252.46q24-2.13,45.83-5.32c-.1-1.58-.19-3.75-.3-6.12q-.33-7-.68-14.06-22.2,3.27-46.77,5.46Q674,1242.34,675,1252.46Z" fill="#5c8199"/><path d="M401.4,1228.16c-11.81-1.14-22.24-2.25-31-3.24q-.37,9.93-.64,20c8.66,1,18.82,2,30.24,3.14Q400.66,1237.94,401.4,1228.16Z" fill="#5c8199"/><path d="M740.45,1236.08c.12,2.61.26,5.22.38,7.83q17.17-3,32.88-6.8-.26-10.24-.57-20.47-15.76,3.9-33.3,7C740.05,1226.73,740.25,1231.59,740.45,1236.08Z" fill="#5c8199"/><path d="M558.42,1256.65c1.17-7,2.3-13.66,3.36-20q-29.64-.17-61.23-1.52c-3.8-.17-7.56-.34-11.29-.53q-1,9.89-2,19.93,6,.3,12.21.57Q529.94,1256.4,558.42,1256.65Z" fill="#5c8199"/><path d="M469.19,1233.47c-17.17-1-33.26-2.25-47.87-3.5q-.74,9.77-1.4,20c14.47,1.23,30.36,2.43,47.29,3.47Q468.19,1243.28,469.19,1233.47Z" fill="#5c8199"/><path d="M583.12,1249.66q.5,3.43,1,7,37.32-.33,70.92-2.62-1-10.12-1.93-20c-22,1.5-45.27,2.37-69.62,2.61Z" fill="#5c8199"/><path d="M683.48,1353.29a374.55,374.55,0,0,0,41-4.31q-.27-10-.57-20.22a352.67,352.67,0,0,1-41.93,4.48Q682.74,1343.23,683.48,1353.29Z" fill="#5c8199"/><path d="M744.5,1345a213.23,213.23,0,0,0,30.16-9.5q0-10.8,0-21.84a175.17,175.17,0,0,1-30.77,10.87Q744.23,1334.85,744.5,1345Z" fill="#5c8199"/><path d="M396.4,1322.3c-10.4-1.94-19.68-3.9-27.46-5.65q0,10.35.1,20.61c7.82,1.73,16.86,3.6,26.82,5.42Q396.09,1332.36,396.4,1322.3Z" fill="#5c8199"/><path d="M460.72,1331.29c-15.58-1.38-30.61-3.36-44.41-5.55q-.3,10-.52,20.32c13.61,2.11,28.33,4,43.62,5.33Q460,1341.31,460.72,1331.29Z" fill="#5c8199"/><path d="M595.79,1330.33q1.74,10.22,3.61,20.59c15.77,1.59,36.22,3,58.63,3l5.44,0q-.74-10.08-1.52-20.12A588.71,588.71,0,0,1,595.79,1330.33Z" fill="#5c8199"/><path d="M542.48,1351.4c1.16-6.87,2.31-13.74,3.46-20.55-21.07,2.67-43.4,3-65.24,1.85q-.7,10-1.33,20.07A403.82,403.82,0,0,0,542.48,1351.4Z" fill="#5c8199"/><path d="M395.41,1408.71c-9.52-2.06-18-4.24-25.24-6.28.18,7.11.38,14.1.59,20.92,7.36,2,15.71,4,24.92,5.86Q395.49,1418.88,395.41,1408.71Z" fill="#5c8199"/><path d="M456.32,1417.44c-15.1-1.07-28.88-2.86-40.87-4.87q.09,10.07.3,20.31c11.94,1.91,25.43,3.56,40.08,4.57Q456,1427.48,456.32,1417.44Z" fill="#5c8199"/><path d="M528.18,1436.18c1.13-6.71,2.29-13.57,3.47-20.54a380.82,380.82,0,0,1-55.35,2.72q-.32,10-.5,20c3.11.07,6.25.12,9.43.12A400.89,400.89,0,0,0,528.18,1436.18Z" fill="#5c8199"/><path d="M611.72,1413.92q2.21,10.33,4.52,20.43c15.56,1,33.57,1.58,52.36,1.23q-.5-10-1.08-20C647.3,1415.87,627.89,1415.05,611.72,1413.92Z" fill="#5c8199"/><path d="M746.18,1426.93a185,185,0,0,0,27.41-8.65c.15-7.16.3-14.55.43-22.13a138.42,138.42,0,0,1-28.16,10.38Q746,1417,746.18,1426.93Z" fill="#5c8199"/><path d="M688.59,1434.81c12.59-.73,25.27-2,37.55-3.94q-.15-9.73-.32-20.11a354.64,354.64,0,0,1-38.31,4.09Q688.08,1424.86,688.59,1434.81Z" fill="#5c8199"/><path d="M455.86,1496.94c-13.51-.79-26.28-2.06-38.06-3.59q.48,10.13,1.08,20.39c11.31,1.39,24,2.59,37.62,3.32Q456.1,1507.13,455.86,1496.94Z" fill="#5c8199"/><path d="M514.55,1516.89c1-6.07,2.18-12.87,3.43-20.27-14.43,1.05-28.54,1.35-42.1,1.09q.24,10.15.66,20c2.61,0,5.23.07,7.89.07C494.17,1517.82,504.25,1517.53,514.55,1516.89Z" fill="#5c8199"/><path d="M638.37,1514c10.37.61,21.54,1,33.12,1.14q-.19-9.93-.49-20.05c-13.92-.17-27.3-.81-39.32-1.64C633.87,1500.65,636.1,1507.52,638.37,1514Z" fill="#5c8199"/><path d="M691.49,1515c11.74-.31,23.65-1,35.34-2.28,0-5.68,0-12.39-.07-20-11.73,1.3-23.8,2-35.75,2.31Q691.3,1505.05,691.49,1515Z" fill="#5c8199"/><path d="M746.85,1509.91a235.83,235.83,0,0,0,24.06-5.35c.25-6.14.52-13.17.8-21a192.3,192.3,0,0,1-24.92,6.18C746.83,1497.33,746.85,1504.09,746.85,1509.91Z" fill="#5c8199"/><path d="M397.63,1490.36c-9.11-1.52-17.34-3.13-24.51-4.67.33,7.42.67,14.35,1,20.72,7.33,1.51,15.56,3,24.57,4.48Q398.11,1500.55,397.63,1490.36Z" fill="#5c8199"/><path d="M754.13,1595a210.25,210.25,0,0,0,21.16-5.53l-2-20.29a174.09,174.09,0,0,1-21.49,6Z" fill="#5c8199"/><path d="M399.85,1577.89c-8.79-1.4-16.83-2.89-24-4.35-.25,5.81-.54,12.63-.86,20.31,7.34,1.46,15.49,2.93,24.36,4.3Z" fill="#5c8199"/><path d="M519.34,1603.22c-.73-6.76-1.61-13.39-2.64-19.85-13.89,1-27.51,1.39-40.62,1.2l-.86,20q3.52,0,7.09.05C494.22,1604.64,506.63,1604.21,519.34,1603.22Z" fill="#5c8199"/><path d="M644,1581.12c-.46,5.9-.82,12.56-1,20.06,11.77.57,24.41.9,37.39.77l-2.55-20C666.12,1582,654.7,1581.65,644,1581.12Z" fill="#5c8199"/><path d="M456.09,1583.89c-12.81-.69-25-1.82-36.3-3.2l-.48,20.18c10.9,1.29,23,2.38,35.92,3.06Z" fill="#5c8199"/><path d="M700.44,1601.37c11.39-.56,22.81-1.53,33.95-3l-2.34-19.76c-11.11,1.5-22.62,2.43-34.14,2.92Z" fill="#5c8199"/><path d="M711.08,1684.92l2.57,20.14a251.11,251.11,0,0,0,33.21-1.5l-2.36-19.87A235.57,235.57,0,0,1,711.08,1684.92Z" fill="#5c8199"/><path d="M397.36,1682.17c-10.49-1.66-19.34-3.46-25.76-4.88-.26,6.67-.53,13.47-.79,20.36,6.92,1.5,15.81,3.23,26.06,4.81Z" fill="#5c8199"/><path d="M766.6,1700.24a147,147,0,0,0,19.18-5.64l-2.06-20.7a121.64,121.64,0,0,1-19.48,6.37Z" fill="#5c8199"/><path d="M471.7,1686.74l-.86,20.13c17.26-.86,34.75-3.31,51.17-8.21q.38-10.62.5-21.18C506.67,1683,489.17,1685.79,471.7,1686.74Z" fill="#5c8199"/><path d="M645.13,1676.37q.75,10,1.78,20.91a389.2,389.2,0,0,0,46.44,6.75l-2.6-20.41A385.45,385.45,0,0,1,645.13,1676.37Z" fill="#5c8199"/><path d="M451.67,1687.11c-12-.19-23.63-1-34.37-2.24l-.48,20.19c10.65,1.14,22.13,2,34,2.14Z" fill="#5c8199"/><path d="M774.27,1764.93l2.41,20.32a126,126,0,0,0,17.43-7.16l-1.34-13.43-3.7-6.54A100.47,100.47,0,0,1,774.27,1764.93Z" fill="#5c8199"/><path d="M395.22,1771.44c-10.93-1.68-20.21-3.53-27-5q-.37,10.24-.72,20.38c7.26,1.55,16.54,3.33,27.22,4.92Z" fill="#5c8199"/><path d="M467.89,1775.66l-.86,20.13a220.38,220.38,0,0,0,48.24-7.47q1.18-10.68,2.22-21.63C502,1772,484.93,1774.7,467.89,1775.66Z" fill="#5c8199"/><path d="M655.55,1768.25q1.5,10.2,3.2,21a361.42,361.42,0,0,0,46,4.67l-2.58-20.2A358.57,358.57,0,0,1,655.55,1768.25Z" fill="#5c8199"/><path d="M754.77,1770.37a193.62,193.62,0,0,1-32.36,3.51l2.54,20a213.82,213.82,0,0,0,32.18-3.57Z" fill="#5c8199"/><path d="M415.17,1774l-.49,20.18c10.19,1,21.09,1.76,32.32,1.93l.86-20.09C436.51,1775.9,425.45,1775.12,415.17,1774Z" fill="#5c8199"/><path d="M788.15,1882.09a140.43,140.43,0,0,0,15.79-5.47l-2.09-21a108.74,108.74,0,0,1-16.08,6.36Z" fill="#5c8199"/><path d="M412.84,1871.2l-.48,20.19c9.59,1,19.86,1.8,30.47,2.08l.86-20.09C433,1873.09,422.53,1872.28,412.84,1871.2Z" fill="#5c8199"/><path d="M392.9,1868.49c-11.67-1.86-21.31-3.87-27.77-5.35-.2,7.1-.37,13.93-.52,20.44,7.12,1.57,16.65,3.48,27.81,5.2Z" fill="#5c8199"/><path d="M734.62,1869.75l2.54,19.92a258.18,258.18,0,0,0,31.37-3.21l-2.35-19.84A237.25,237.25,0,0,1,734.62,1869.75Z" fill="#5c8199"/><path d="M714.47,1869.85c-14.79-.36-29.14-1.59-41.86-3.1q2,10.14,4.17,20.69c12.44,1.32,26.14,2.3,40.25,2.5Z" fill="#5c8199"/><path d="M463.71,1873.28l-.86,20.11a243.44,243.44,0,0,0,38.1-4.24c1.15-6.68,2.33-13.79,3.52-21.25A209.1,209.1,0,0,1,463.71,1873.28Z" fill="#5c8199"/><path d="M588,1083.05l1.38-47.29c-6.67,0-13.35-.17-20-.4L568,1082.68Q577.8,1083,588,1083.05Z" fill="#678fae"/><path d="M585.82,1156.62l1.56-53.52q-9.92-.06-20-.39l-1.56,53.81Q575.67,1156.67,585.82,1156.62Z" fill="#678fae"/><path d="M583.5,1236.59l1.74-59.91-4.11,0c-2.56,0-5.14,0-7.72,0,1.19,9.93,3.88,31.6,7.85,59.94Z" fill="#678fae"/><path d="M571.77,1176.64l-6.54-.09-1.38,47.76C567.56,1202.12,570.38,1185.16,571.77,1176.64Z" fill="#678fae"/><path d="M587.38,1103.1l.58-20q-10.15,0-20-.37l-.58,20Q577.48,1103,587.38,1103.1Z" fill="#78a3ca"/><path d="M571.77,1176.64c.54-3.34.87-5.39.94-5.93,0,0,.23,2.08.7,6,2.58,0,5.16,0,7.72,0l4.11,0,.58-20.06q-10.14.06-20-.1l-.59,20Z" fill="#78a3ca"/><path d="M583.5,1236.59h-2.24q.88,6.32,1.86,13.06Z" fill="#5c8199"/><path d="M420.7,1542.59v-.47l0-.48q-1-14.07-1.8-27.9c-2.44-.3-4.83-.61-7.14-.92q-6.76-.91-13.06-1.93.88,15.69,2,31.7l-.85,35.3c6.28,1,12.95,1.95,19.94,2.8Z" fill="#678fae"/><path d="M415.75,1432.88c-3.37-.54-6.63-1.09-9.75-1.66q-5.33-1-10.32-2,.52,29.82,1.95,61.15c6.32,1.06,13.06,2.07,20.17,3Q416.3,1462.41,415.75,1432.88Z" fill="#678fae"/><path d="M415.45,1412.57q-.36-34.42.34-66.51c-7-1.08-13.63-2.22-19.93-3.38q-.69,31.83-.45,66,7,1.53,14.72,2.93C411.86,1412,413.64,1412.26,415.45,1412.57Z" fill="#678fae"/><path d="M427.22,1165.29q-10.39-1.47-19.8-3c-2.16,20-4.22,42-6,65.84,6.27.6,12.93,1.21,19.92,1.81C423.08,1206.55,425.1,1184.92,427.22,1165.29Z" fill="#678fae"/><path d="M419.92,1249.92q-10.49-.9-19.92-1.81c-1.53,23.24-2.78,48-3.6,74.19,6.27,1.17,12.93,2.33,19.91,3.44C417.11,1299,418.37,1273.63,419.92,1249.92Z" fill="#678fae"/><path d="M429.85,1142.16c2.36-19.66,4.84-37.73,7.3-54.06-6.92-1.29-13.48-2.6-19.65-3.89-2.5,16.59-5,35-7.46,55.12-.12,1-.24,2.07-.37,3.11,6.25,1,12.86,2,19.79,3Z" fill="#678fae"/><path d="M440.26,1068.29c3-18.41,5.88-34,8.35-46.56-7.12-1.45-13.68-2.93-19.55-4.43-2.5,12.64-5.41,28.4-8.45,47.08C426.77,1065.68,433.34,1067,440.26,1068.29Z" fill="#678fae"/><path d="M414.68,1794.22c-7-.71-13.72-1.57-19.94-2.5l-1.84,76.77c6.14,1,12.84,1.91,19.94,2.71Z" fill="#678fae"/><path d="M416.82,1705.06c-7.06-.75-13.75-1.65-19.95-2.6l-1.65,69c6.18,1,12.88,1.85,19.95,2.6Z" fill="#678fae"/><path d="M392.42,1888.78l-1.56,65a200.63,200.63,0,0,0,19.93,3.08l1.57-65.51C405.3,1890.64,398.61,1889.74,392.42,1888.78Z" fill="#678fae"/><path d="M419.31,1600.87c-3.34-.39-6.58-.8-9.69-1.23-3.52-.47-6.93-1-10.25-1.49l-2,84c6.14,1,12.84,1.91,19.94,2.7Z" fill="#678fae"/><path d="M440.26,1068.29c-6.92-1.3-13.49-2.61-19.65-3.91q-1.55,9.43-3.11,19.83c6.17,1.29,12.73,2.6,19.65,3.89Q438.73,1077.72,440.26,1068.29Z" fill="#78a3ca"/><path d="M429.46,1145.42c-6.93-1-13.54-2-19.79-3q-1.12,9.57-2.25,19.88,9.39,1.5,19.8,3Q428.33,1155,429.46,1145.42Z" fill="#78a3ca"/><path d="M421.32,1230c-7-.6-13.65-1.21-19.92-1.81q-.73,9.77-1.4,19.95,9.42.9,19.92,1.81Q420.6,1239.74,421.32,1230Z" fill="#78a3ca"/><path d="M416.31,1325.74c-7-1.11-13.64-2.27-19.91-3.44q-.31,10.07-.54,20.38c6.3,1.16,13,2.3,19.93,3.38Q416,1335.77,416.31,1325.74Z" fill="#78a3ca"/><path d="M415.75,1432.88q-.19-10.25-.3-20.31c-1.81-.31-3.59-.61-5.32-.93q-7.71-1.4-14.72-2.93.09,10.15.27,20.5,5,1,10.32,2C409.12,1431.79,412.38,1432.34,415.75,1432.88Z" fill="#78a3ca"/><path d="M418.88,1513.74q-.6-10.26-1.08-20.39c-7.11-.92-13.85-1.93-20.17-3q.48,10.2,1.05,20.53,6.29,1,13.06,1.93C414.05,1513.13,416.44,1513.44,418.88,1513.74Z" fill="#78a3ca"/><path d="M419.31,1600.87l.48-20.18c-7-.85-13.66-1.8-19.94-2.8l-.48,20.26c3.32.51,6.73,1,10.25,1.49C412.73,1600.07,416,1600.48,419.31,1600.87Z" fill="#78a3ca"/><path d="M417.3,1684.87c-7.1-.79-13.8-1.72-19.94-2.7l-.49,20.29c6.2,1,12.89,1.85,19.95,2.6Z" fill="#78a3ca"/><path d="M415.17,1774c-7.07-.75-13.77-1.65-19.95-2.6l-.48,20.28c6.22.93,12.91,1.79,19.94,2.5Z" fill="#78a3ca"/><path d="M392.9,1868.49l-.48,20.29c6.19,1,12.88,1.86,19.94,2.61l.48-20.19C405.74,1870.4,399,1869.47,392.9,1868.49Z" fill="#78a3ca"/><path d="M508.62,1078.46c2.58-18,5-33.77,7-46.79-6.79-.69-13.44-1.46-19.91-2.29-2,13.06-4.43,28.8-7,46.68Q498.43,1077.35,508.62,1078.46Z" fill="#678fae"/><path d="M477.87,1542.78l0-.56,0-.55c-.54-7.81-1-15.8-1.32-23.92q-10.32-.15-20-.69c.35,8.63.8,17.12,1.37,25.42l-1.78,41.41c6.51.35,13.18.59,20,.68Z" fill="#678fae"/><path d="M456,1707.24c-1.72,0-3.43,0-5.14,0l-2.95,68.86c6.61.09,13.32,0,20-.4l2.95-68.79C465.85,1707.11,460.87,1707.24,456,1707.24Z" fill="#678fae"/><path d="M451.72,1893.59q-4.49,0-8.89-.12l-2.77,64.45c6.38-.2,13.09-.69,20.09-1.54l2.7-63C459.12,1893.53,455.4,1893.59,451.72,1893.59Z" fill="#678fae"/><path d="M471.7,1686.74l3.52-82.15c-6.85-.1-13.53-.33-20-.66l-3.56,83.18C458.28,1687.21,465,1687.11,471.7,1686.74Z" fill="#678fae"/><path d="M498.57,1153.19c2.44-19.56,4.9-38,7.25-54.91q-10.2-1.12-19.92-2.41c-2.38,17.12-4.87,35.75-7.34,55.5Q488.34,1152.35,498.57,1153.19Z" fill="#678fae"/><path d="M496.13,1173.06q-10.22-.84-20-1.84-.75,6.26-1.49,12.62c-1.83,15.62-3.66,32.26-5.44,49.63q9.81.6,20.07,1.11C491.45,1213.35,493.77,1192.73,496.13,1173.06Z" fill="#678fae"/><path d="M451.72,1796.18c-1.58,0-3.16,0-4.72,0l-3.31,77.23c6.58.18,13.29.17,20-.1l3.32-77.49Q459.32,1796.18,451.72,1796.18Z" fill="#678fae"/><path d="M487.27,1254.51q-10.25-.52-20.06-1.12c-2.4,25-4.63,51.19-6.49,77.9q9.87.89,20,1.41C482.55,1306.31,484.79,1280.05,487.27,1254.51Z" fill="#678fae"/><path d="M475.8,1438.35c-6.86-.15-13.53-.46-20-.9-.39,20.21-.41,40.14,0,59.49,6.52.38,13.2.65,20,.77C475.42,1478.5,475.42,1458.62,475.8,1438.35Z" fill="#678fae"/><path d="M479.37,1352.77c-6.73-.34-13.4-.81-20-1.38-1.35,21.94-2.42,44.09-3.09,66,6.44.45,13.11.77,20,.92C477,1396.72,478,1374.75,479.37,1352.77Z" fill="#678fae"/><path d="M505.82,1098.28q1.43-10.3,2.8-19.82-10.19-1.1-19.91-2.4c-.92,6.34-1.85,13-2.81,19.81Q495.62,1097.15,505.82,1098.28Z" fill="#78a3ca"/><path d="M498.57,1153.19q-10.21-.84-20-1.82-1.23,9.75-2.44,19.85,9.79,1,20,1.84Q497.35,1162.95,498.57,1153.19Z" fill="#78a3ca"/><path d="M489.26,1234.58q-10.25-.51-20.07-1.11-1,9.81-2,19.92,9.81.6,20.06,1.12Q488.25,1244.46,489.26,1234.58Z" fill="#78a3ca"/><path d="M480.7,1332.7q-10.09-.53-20-1.41-.69,10-1.31,20.1c6.56.57,13.23,1,20,1.38Q480,1342.74,480.7,1332.7Z" fill="#78a3ca"/><path d="M476.3,1418.36c-6.87-.15-13.54-.47-20-.92q-.3,10-.49,20c6.44.44,13.11.75,20,.9Q476,1428.42,476.3,1418.36Z" fill="#78a3ca"/><path d="M475.88,1497.71c-6.82-.12-13.5-.39-20-.77q.24,10.18.64,20.12,9.71.53,20,.69Q476.12,1507.87,475.88,1497.71Z" fill="#78a3ca"/><path d="M476.08,1584.57c-6.81-.09-13.48-.33-20-.68l-.86,20c6.46.33,13.14.56,20,.66Z" fill="#78a3ca"/><path d="M470.84,1706.87l.86-20.13c-6.71.37-13.42.47-20,.37l-.86,20.09c1.71,0,3.42,0,5.14,0C460.87,1707.24,465.85,1707.11,470.84,1706.87Z" fill="#78a3ca"/><path d="M447.86,1776.06l-.86,20.09c1.56,0,3.14,0,4.72,0q7.59,0,15.31-.39l.86-20.13C461.18,1776,454.47,1776.15,447.86,1776.06Z" fill="#78a3ca"/><path d="M443.69,1873.38l-.86,20.09q4.41.12,8.89.12c3.68,0,7.4-.06,11.13-.2l.86-20.11C457,1873.55,450.27,1873.56,443.69,1873.38Z" fill="#78a3ca"/><path d="M662,1333.8c6.55,0,13.24-.23,20-.56-2.15-27.49-4.52-54.62-7-80.78q-9.79.87-19.93,1.57C657.48,1279.87,659.82,1306.65,662,1333.8Z" fill="#678fae"/><path d="M667.52,1415.56c6.61-.11,13.3-.34,20-.71-1.17-20.47-2.53-41.07-4-61.56-6.77.36-13.46.56-20,.63C665,1374.43,666.35,1395.06,667.52,1415.56Z" fill="#678fae"/><path d="M693.35,1704l8.87,69.65c6.62.31,13.39.4,20.19.2l-8.76-68.82C706.72,1704.93,699.92,1704.57,693.35,1704Z" fill="#678fae"/><path d="M647,1174.15c2,19,4.12,39,6.15,59.83q10.15-.69,19.94-1.56c-2-20.92-4.13-41.09-6.18-60.16-5.79.63-11.63,1.21-17.57,1.71Z" fill="#678fae"/><path d="M734.62,1869.75l-9.67-75.9c-6.79.26-13.54.25-20.15,0l9.67,76C721.13,1870,727.88,1870,734.62,1869.75Z" fill="#678fae"/><path d="M664.69,1152.29c-2.1-19-4.14-36.63-6-52.62q-5.52.6-11.12,1.09c-2.92.26-5.86.48-8.81.7,1.91,16,4,33.69,6.06,52.71Q654.72,1153.38,664.69,1152.29Z" fill="#678fae"/><path d="M656.24,1079.7c-2.37-19.37-4.42-35.43-6-47.29q-9.79,1.14-19.92,1.92c1.54,11.74,3.59,27.76,6,47.14Q646.22,1080.76,656.24,1079.7Z" fill="#678fae"/><path d="M671.49,1515.13q.18,9.51.27,18.85v.58l6,47.38c6.65,0,13.38-.16,20.11-.45l-6.15-48.29q-.09-9-.27-18.24C684.74,1515.14,678.05,1515.19,671.49,1515.13Z" fill="#678fae"/><path d="M690.75,1683.62c6.56.63,13.38,1.09,20.33,1.3l-10.64-83.55c-6.74.33-13.46.52-20.09.58Z" fill="#678fae"/><path d="M671,1495.08c6.58.07,13.27.05,20-.11-.56-19.67-1.39-39.81-2.42-60.16-6.71.39-13.4.64-20,.77C669.63,1455.71,670.45,1475.62,671,1495.08Z" fill="#678fae"/><path d="M717,1889.94l9.61,75.43a183.91,183.91,0,0,0,20.5,2.69l-10-78.39C730.41,1890,723.68,1890,717,1889.94Z" fill="#678fae"/><path d="M647.53,1100.76q5.61-.49,11.12-1.09-1.24-10.49-2.41-20-10,1.08-19.93,1.77,1.16,9.48,2.41,20C641.67,1101.24,644.61,1101,647.53,1100.76Z" fill="#78a3ca"/><path d="M649.31,1174c5.94-.5,11.78-1.08,17.57-1.71q-1.11-10.2-2.19-20-10,1.08-19.91,1.88,1.1,9.76,2.19,20Z" fill="#78a3ca"/><path d="M655.05,1254q10.14-.71,19.93-1.57-.94-10.12-1.92-20-9.79.86-19.94,1.56Q654.1,1243.9,655.05,1254Z" fill="#78a3ca"/><path d="M663.47,1353.92c6.55-.07,13.24-.27,20-.63q-.75-10.05-1.52-20c-6.77.33-13.46.51-20,.56Q662.73,1343.84,663.47,1353.92Z" fill="#78a3ca"/><path d="M668.6,1435.58c6.59-.13,13.28-.38,20-.77q-.51-9.94-1.08-20c-6.69.37-13.38.6-20,.71Q668.09,1425.6,668.6,1435.58Z" fill="#78a3ca"/><path d="M671,1495.08q.3,10.11.49,20.05c6.56.06,13.25,0,20-.17q-.19-9.9-.48-20C684.27,1495.13,677.58,1495.15,671,1495.08Z" fill="#78a3ca"/><path d="M680.35,1602c6.63-.06,13.35-.25,20.09-.58l-2.53-19.88c-6.73.29-13.46.43-20.11.45Z" fill="#78a3ca"/><path d="M693.35,1704c6.57.54,13.37.9,20.3,1l-2.57-20.14c-7-.21-13.77-.67-20.33-1.3Z" fill="#78a3ca"/><path d="M702.22,1773.68l2.58,20.2c6.61.22,13.36.23,20.15,0l-2.54-20C715.61,1774.08,708.84,1774,702.22,1773.68Z" fill="#78a3ca"/><path d="M714.47,1869.85l2.56,20.09c6.65.1,13.38,0,20.13-.27l-2.54-19.92C727.88,1870,721.13,1870,714.47,1869.85Z" fill="#78a3ca"/><path d="M726.82,1533.83v.62l5.23,44.12c6.76-.91,13.37-2,19.73-3.41l-4.95-41.84c0-2.87,0-11,0-23.41-6.55,1.13-13.25,2-20,2.77C726.86,1525.73,726.83,1533.3,726.82,1533.83Z" fill="#678fae"/><path d="M744.5,1683.69a166.39,166.39,0,0,0,19.74-3.42L754.13,1595c-6.42,1.33-13,2.45-19.74,3.37Z" fill="#678fae"/><path d="M766.18,1866.62a154.76,154.76,0,0,0,19.59-4.64l-9.09-76.73a158.25,158.25,0,0,1-19.55,5Z" fill="#678fae"/><path d="M754.77,1770.37a132.26,132.26,0,0,0,19.5-5.44l-7.67-64.69a186,186,0,0,1-19.74,3.32Z" fill="#678fae"/><path d="M725.82,1410.76c6.9-1.15,13.62-2.55,20-4.23-.33-19.26-.78-40-1.36-61.56-6.58,1.58-13.28,2.9-20,4C725,1370.72,725.48,1391.5,725.82,1410.76Z" fill="#678fae"/><path d="M720.81,1247.14c1.28,27.68,2.28,55.2,3.08,81.62,6.79-1.17,13.5-2.57,20-4.26-.79-26.12-1.8-53.28-3.08-80.59q-5.22.93-10.58,1.78C727.14,1246.25,724,1246.79,720.81,1247.14Z" fill="#678fae"/><path d="M726.76,1492.66c6.83-.76,13.53-1.72,20-2.91-.08-17.15-.26-38.52-.61-62.82-6.5,1.55-13.21,2.85-20,3.94C726.49,1454.94,726.67,1476,726.76,1492.66Z" fill="#678fae"/><path d="M768.53,1886.46l9.57,80.77a121.77,121.77,0,0,0,19.63-4.3l-9.58-80.84A183.51,183.51,0,0,1,768.53,1886.46Z" fill="#678fae"/><path d="M719.83,1227h.06c0-.28,0-.56-.06-.81q10.27-1.14,20-2.45c-1.1-21.19-2.36-42.33-3.82-63q-9.74,2.28-19.87,4.23C717.55,1185.26,718.77,1206.09,719.83,1227Z" fill="#678fae"/><path d="M727.47,1066.83c-2-17.06-4.22-33.15-6.66-47.94-6.11,1.71-12.62,3.36-19.47,4.9,2.38,14.68,4.54,30.71,6.5,47.73Q717.7,1069.4,727.47,1066.83Z" fill="#678fae"/><path d="M714.69,1144.74q10-2,19.83-4.31c-1.43-18.41-3-36.34-4.82-53.49q-9.68,2.5-19.7,4.63C711.74,1108.6,713.29,1126.42,714.69,1144.74Z" fill="#678fae"/><path d="M729.7,1086.94q-1.07-10.26-2.23-20.11-9.76,2.58-19.63,4.69,1.13,9.81,2.16,20Q720,1089.44,729.7,1086.94Z" fill="#78a3ca"/><path d="M716.15,1164.89q10.13-2,19.87-4.23-.72-10.2-1.5-20.23-9.84,2.35-19.83,4.31Q715.46,1154.73,716.15,1164.89Z" fill="#78a3ca"/><path d="M720.51,1241c.1,2,.21,4.08.3,6.12,3.18-.46,6.32-1,9.44-1.45,3.57-.64,7.1-1.32,10.58-1.78-.12-2-.25-4.84-.38-7.83q-.3-6.19-.61-12.39-9.72,1.74-20,3.26C720.1,1230.51,720.31,1236.2,720.51,1241Z" fill="#78a3ca"/><path d="M720.51,1241c.11,2.37.2,4.54.3,6.12C720.72,1245.1,720.61,1243.06,720.51,1241Z" fill="#78a3ca"/><path d="M739.84,1223.69q.31,6.19.61,12.39C740.25,1231.59,740.05,1226.73,739.84,1223.69Z" fill="#78a3ca"/><path d="M720.81,1247.14c3.18-.35,6.33-.89,9.44-1.45C727.13,1246.19,724,1246.68,720.81,1247.14Z" fill="#78a3ca"/><path d="M719.89,1227q10.23-1.52,20-3.26-9.75,1.32-20,2.45C719.85,1226.39,719.87,1226.67,719.89,1227Z" fill="#78a3ca"/><path d="M724.46,1349c6.76-1.11,13.46-2.43,20-4q-.27-10.11-.59-20.47c-6.52,1.69-13.23,3.09-20,4.26Q724.19,1339,724.46,1349Z" fill="#78a3ca"/><path d="M726.14,1430.87c6.83-1.09,13.54-2.39,20-3.94q-.13-9.89-.32-20.4c-6.42,1.68-13.14,3.08-20,4.23Q726,1421.13,726.14,1430.87Z" fill="#78a3ca"/><path d="M726.83,1512.68c6.77-.73,13.47-1.64,20-2.77,0-5.82,0-12.58-.06-20.16-6.5,1.19-13.2,2.15-20,2.91C726.8,1500.29,726.82,1507,726.83,1512.68Z" fill="#78a3ca"/><path d="M734.39,1598.33c6.71-.92,13.32-2,19.74-3.37l-2.35-19.8c-6.36,1.37-13,2.5-19.73,3.41Z" fill="#78a3ca"/><path d="M746.86,1703.56a186,186,0,0,0,19.74-3.32l-2.36-20a166.39,166.39,0,0,1-19.74,3.42Z" fill="#78a3ca"/><path d="M757.13,1790.28a158.25,158.25,0,0,0,19.55-5l-2.41-20.32a132.26,132.26,0,0,1-19.5,5.44Z" fill="#78a3ca"/><path d="M766.18,1866.62l2.35,19.84a183.51,183.51,0,0,0,19.62-4.37L785.77,1862A154.76,154.76,0,0,1,766.18,1866.62Z" fill="#78a3ca"/><path d="M766.45,1102.53c-11.48-.86-22.78-3.55-32.71-8.92-7.33-23.68-9.29-50-11.81-75-2.55.72-5.16,1.44-7.84,2.13,2.09,32.9,7.2,86.73,18.5,92.42,10.61,5.34,27.14,16.25,36.55,22.64C768.35,1124.45,767.46,1113.35,766.45,1102.53Z" fill="#3a586e"/><path d="M721.93,1018.57c2.52,25,4.48,51.36,11.81,75,9.93,5.37,21.23,8.06,32.71,8.92-3.28-35.48-7.75-68-13.74-94.77A231.77,231.77,0,0,1,721.93,1018.57Z" fill="#486c87"/><path d="M428.06,1017c-14.64-3.79-24.92-7.63-29-11-5.48,21.82-14.48,69.73-20.52,114.94,12.47-7.67,24.33-17,37.07-24.54C418.35,1069.89,425.6,1043.73,428.06,1017Z" fill="#486c87"/><path d="M428.06,1017c-2.46,26.69-9.71,52.85-12.46,79.44-12.74,7.58-24.6,16.87-37.07,24.54-.34,2.57-.68,5.14-1,7.69-.9,7.12-1.72,14.55-2.46,22.23,15.94-12,38.25-29.43,42.69-35.65,5.25-7.34,12.05-66.89,15.2-97C431.27,1017.86,429.65,1017.45,428.06,1017Z" fill="#3a586e"/><path d="M550.47,1051.06c0,1.4.27,43.31,1.72,82.75.5,13.72-.47,30.41.35,41.72a163.72,163.72,0,0,1,19.27,10.65c7.71-1.74,17.54-6,24.19-8.36l-2.69-44.23v-79.71Z" fill="#78a3ca"/><path d="M609.76,1404.63c-13.56-90.7-25.41-208-25.41-211.69,0-5.65,49.41-32.47,49.41-32.47-23.51,8.7-43.13,16-62.44,18.93l.07-.41c-34.38-3.25-107-48.17-107-48.17,21.18,32.47,87.53,77.65,87.53,77.65l-47.47,342,15.93,62.84c-2.05-23.37-5.62-45.28-11.16-64.6,0,0,49.22-291.15,61-362.5C573.55,1211.4,587.25,1309.18,609.76,1404.63Z" fill="#3a586e"/><path d="M757.9,1034.56c-1.59-9.43-3.31-18.39-5.19-26.8-31.26,14-93.37,27.73-157.06,28-89.49.39-182.09-17.84-196.6-29.68-1.79,7.12-3.95,17-6.27,28.71,30.66,11,94.92,29.48,183.81,30.39A522.58,522.58,0,0,0,757.9,1034.56Z" fill="#20313d"/><path d="M676.06,1028.75c1.23,9,2.08,18.19,3,27.27q10-1.89,19.89-4.16c-1.13-9-2.44-17.83-3-26.88C689.52,1026.33,682.89,1027.6,676.06,1028.75Z" fill="#486c87"/><path d="M607.62,1035.56q-6,.18-12,.2c-18.39.08-36.9-.62-54.85-1.9a257.62,257.62,0,0,0-.45,29.94c11.58.76,23.65,1.25,36.24,1.38q16.29.16,32.45-.71C608.85,1054.78,607.56,1045.25,607.62,1035.56Z" fill="#968d84"/><path d="M454.86,1023a253.72,253.72,0,0,0-2.78,28.59q8.24,1.79,17.24,3.45a214.27,214.27,0,0,1,3.69-28.87C466.68,1025.11,460.6,1024.05,454.86,1023Z" fill="#486c87"/></g></g></g></svg>