<svg xmlns="http://www.w3.org/2000/svg" width="1262.35" height="2193.94" viewBox="0 0 1262.35 2193.94"><title>2_men_hair_4</title><g id="Layer_2" data-name="Layer 2"><g id="Layer_148" data-name="Layer 148"><g id="_2_men_hair_4" data-name="2_men_hair_4"><rect width="1262.35" height="2193.94" fill="none"/><path d="M430.47,310.59c3.92,2.14,1.41-155.3,114.35-127.06,0,0,171.53-57.18,172.94,126.35,0,0,8.48-6.35,21.18,2.83,23.3-54.36,22.17-176-45.88-232.24-27.51-22.74-87.3-44.35-135.53-26.82-34.68-9-108.71-5.65-144,57.88-35,63-33.88,159.53-8.47,206.12C405.06,317.65,414.94,302.12,430.47,310.59Z" fill="#374e59"/><path d="M742.47,247.06C729.76,122.82,614,124.24,614,124.24c138.35,45.17,115.76,152.47,115.76,152.47C701.53,115.76,549.06,168,549.06,168c-115.77-16.94-131.3,111.53-131.3,111.53s1.42-142.24,87.18-177.18c0,0-100.59,5.3-109.76,154.59,0,0-.32,3.65-7.51-4.59C390,278,396,301,405.06,317.65c0,0,9.88-15.53,25.41-7.06,3.92,2.14,1.41-155.3,114.35-127.06,0,0,171.53-57.18,172.94,126.35,0,0,8.48-6.35,21.18,2.83,8-18.69,13.13-45.33,13.64-74.53A56.77,56.77,0,0,1,742.47,247.06Z" fill="#31434d"/><path d="M729.76,364.24S735.41,249.88,662,192l25.41,50.82C707.18,259.76,729.76,364.24,729.76,364.24Z" fill="#31434d"/><path d="M606.94,175.06c-42.35-31.06-62.12,8.47-62.12,8.47,48.77,4.41,162.36,156.71,162.36,156.71S649.29,206.12,606.94,175.06Z" fill="#31434d"/><path d="M729.76,364.24c29.65-159.53-46.94-253.42-98.82-259.77-82.69-10.12-86.12,79.06-86.12,79.06s28.94-27.18,63.89,1.41c40.64,33.26,98.47,155.3,98.47,155.3-4.24-35.3-19.77-97.42-19.77-97.42L662,192C735.41,249.88,729.76,364.24,729.76,364.24Z" fill="#395766"/><path d="M693.06,80.47c-27.51-22.74-87.3-44.35-135.53-26.82-34.68-9-108.71-5.65-144,57.88-1.89,3.39-3.66,6.89-5.34,10.47,10.75-15.23,76.63-87.41,150.75-54.59C578.6,53.65,629.88,44.12,705,91.75A130.59,130.59,0,0,0,693.06,80.47Z" fill="#3f6070"/><path d="M630.94,104.47c-52-6.36-72.62,26.49-80.8,51.79,14.81-19.19,48.74-53.64,92.45-38,51.78,18.49,87.41,110.47,92.79,203.29C745.4,188,678,110.23,630.94,104.47Z" fill="#4b7285"/></g></g></g></svg>