<svg xmlns="http://www.w3.org/2000/svg" width="1262.35" height="2193.94" viewBox="0 0 1262.35 2193.94"><title>2_men_shirt_6</title><g id="Layer_2" data-name="Layer 2"><g id="Layer_148" data-name="Layer 148"><g id="_2_men_shirt_6" data-name="2_men_shirt_6"><rect width="1262.35" height="2193.94" fill="none"/><polygon points="748.12 734.32 748.12 734.32 748.12 734.32 748.12 734.32" fill="#fff"/><path d="M169.59,829.18c-18.87,7.26-34.06,20.84-46.32,36.54-2.13,8.88-3.89,16.69-4.9,22.09a2.38,2.38,0,0,0,4.18,1.93c16.43-20.09,70.26-75,132.41-21.59a3,3,0,0,0,4.85-1.23c1.65-4.45,3.08-8.71,4.26-12.85C242.16,827,203,816.34,169.59,829.18Z" fill="#fff"/><path d="M876.59,701.65l-.32-.44C876.23,702,876.32,702.19,876.59,701.65Z" fill="#fff"/><path d="M970.24,666.68c-29.18,14.26-80.24.43-80.24-27.15,0-5.27-3.93,11.07-7.58,28.36,7.1,15.84,25.81,26,43.17,29.29,18.12,3,38,2,53-7.23-.48-7-.92-12.81-1.25-16.9C977.09,669.35,973.57,665.05,970.24,666.68Z" fill="#fff"/><path d="M925.59,697.18c-17.36-3.31-36.07-13.45-43.17-29.29-3.09,14.58-6,29.82-6.15,33.32l.32.44c-.27.54-.36.35-.32-.44l-90-122.39c-28.79-37.42-97.42-57.76-133.38-65.36-7.21-1.53-15.26-2.7-22.13-3.54-12.87,15.86-33.6,31.75-54.49,32.2-18.2.39-37.16-15.49-50.44-29.72h0l-17.2,5.27-38.25,10.74h0c-57.88,4.24-105.17,38.35-134.82,75.06-1,1.22-13.21,12.67-28.5,26-4.84,4.22-10.86,11.35-16.12,15.73-4.39,3.67-74.79,71.61-116.88,113.49A161.84,161.84,0,0,0,131.48,833c-2.84,11-5.77,22.57-8.21,32.73,12.26-15.7,27.45-29.28,46.32-36.54,33.36-12.84,72.57-2.23,94.48,24.89,2.72-9.55,4.1-18.46,3.69-27.48,3.91,2.45,84-55.75,87.63-58.58,35.33-27.5,58.14-43.77,58.14-43.77C401,816.43,395.93,927,394.18,977.84a36.44,36.44,0,0,0,27.14,36.5c57.91,15.29,197.12,41.89,335.27-7.75,4.18-104.47-8.14-267.91-8.47-272.27h0s46.66,62.1,76.87,93.06c36.94,37.87,83.14,77.25,108.77,69.09,7.68-2.44,33.28-13.08,43.77-61.41,7.37-34,3.69-107.31,1.1-145.11C963.55,699.22,943.71,700.2,925.59,697.18Z" fill="#4a4a4a"/><path d="M413.53,724.24s-8.91,8.66-21.95,20.2C406.18,731.78,413.53,724.24,413.53,724.24Z" fill="none"/><path d="M425.76,620.24s-18,66.35-19.88,94.58c0,0-136.15,109.71-138.12,111.77,1.35.36,16-6.16,33-17.63,24.17-16.36,82.71-59.45,90.86-66.52,13-11.54,21.95-18.2,21.95-18.2C413.32,725.79,425.76,620.24,425.76,620.24Z" fill="#3b3b3b"/><path d="M748.12,734.24s32.76,47.11,48.77,63.82L825,827.38l-70.75-98c-11.52-37.35-17.42-84.23-17.42-84.23Z" fill="#3b3b3b"/><path d="M406.85,647c2.46-.3,3.31-2.74,1.4-4-27.47-11.38-40.18-21.72-58.07-37.54-2.65-1.7-6.63-.77-7.73,1.78C334.12,626.59,344.91,654.74,406.85,647Z" fill="#3b3b3b"/><path d="M409.29,650.8s-39.85,6.17-57.68,1.75c-15.91-3.95-13.75,18.09,2.71,15.35S386.66,662.62,409.29,650.8Z" fill="#3b3b3b"/><path d="M747,649.91a2.3,2.3,0,0,1-2.24-3.54c17.53-17.44,24.13-30.43,33.06-49.94a3.9,3.9,0,0,1,6.42-.08C796.36,613.17,796.51,643,747,649.91Z" fill="#3b3b3b"/><path d="M876.59,701.65l-.32-.44C876.23,702,876.32,702.19,876.59,701.65Z" fill="none"/><path d="M534.26,592.22a61.64,61.64,0,0,0,44.09,12.72,72.32,72.32,0,0,0,36-13l-38.49-37.5Z" fill="#4a4a4a"/><path d="M657.37,514.46l-.1,0,.1,0Z" fill="#5ba4dd"/><path d="M655.75,514.09l1.43.33Z" fill="#5ba4dd"/><path d="M654.38,513.79l1.19.26Z" fill="#5ba4dd"/><path d="M652.86,513.46l1.26.27Z" fill="#5ba4dd"/><path d="M657.18,514.42l.09,0Z" fill="#438eb3"/><path d="M654.12,513.73l.26.06Z" fill="#438eb3"/><path d="M655.57,514.05l.18,0Z" fill="#438eb3"/><path d="M503,550.27c7.08,15.35,17.17,31.23,31.25,42l41.62-37.75L614.37,592c28.6-20.18,39.29-58.21,43-77.51l-.1,0-.09,0-1.43-.33-.18,0-1.19-.26-.26-.06-1.26-.27c-7.21-1.53-15.26-2.7-22.13-3.54-12.87,15.86-33.6,31.75-54.49,32.2-18.2.39-37.16-15.49-50.44-29.73l-17.2,5.28-14.87,3.19A195,195,0,0,0,503,550.27Z" fill="#404040"/><path d="M658.94,514.82l-1.57-.36h0Z" fill="#5ba4dd"/><polygon points="658.93 514.82 658.94 514.83 658.94 514.83 658.93 514.82" fill="#438eb3"/><path d="M563.76,547.76l-2,65.63a6.82,6.82,0,0,0,6.73,6.82l16.26.23a6.83,6.83,0,0,0,6.92-6.57l.57-66.52-16-5.23Z" fill="#3d3d3d"/><path d="M539.53,489.88v17.65s9.18,21.18,36.71,34.59l-45.53,40.94s-23.65-40.94-26.47-65.65l22.58-24S531.06,487.06,539.53,489.88Z" fill="#fff"/><path d="M611.84,513c-4.82,6.66-16,19.6-35.6,29.15l42.35,37.76a252.45,252.45,0,0,0,20.93-32.44,30.66,30.66,0,0,0-5.93-14.26C627.9,525.86,621.54,515.89,611.84,513Z" fill="#fff"/><path d="M627.41,494.47s-4.23-6.35-12.7-3.53v17.65a46.76,46.76,0,0,1-2.87,4.38c9.7,2.92,16.06,12.89,21.75,20.21a30.66,30.66,0,0,1,5.93,14.26c5.13-9.7,12.33-25.12,13.34-34Z" fill="#bababa"/><circle cx="578.35" cy="569.29" r="7.41" fill="#fff"/><circle cx="578.35" cy="604.94" r="7.41" fill="#fff"/><path d="M394,983.17c-.12,3.76-.23,7.12-.31,10A17,17,0,0,0,405.83,1010c43.38,13,193.21,50.26,343.49-.86A11.14,11.14,0,0,0,756.86,999c.14-4.33.25-8.76.34-13.26C621.85,1041.16,446.82,998.37,394,983.17Z" fill="#fff"/><path d="M413.14,832.62c-2.63,29.76-7.27,86.13-8.08,120.91a23.72,23.72,0,0,0,16.58,23.19c40.66,12.78,157.07,42.57,308.78,5.59a24,24,0,0,0,18.71-23.42l-.35-39.47c0-4-5.44-8.17-7.88-5-25.25,33.13-254,103-317.37-83.91C421.76,825.33,413.62,827.13,413.14,832.62Z" fill="#3b3b3b"/><path d="M540.1,508.71c-.38-.75-.57-1.18-.57-1.18V489.88c-8.47-2.82-12.71,3.53-12.71,3.53l-22.58,24c1,8.67,4.54,19.34,8.74,29.53C515.12,530.64,525.07,511.43,540.1,508.71Z" fill="#bababa"/><path d="M576.24,542.12c-23.68-11.53-33.77-28.79-36.14-33.41-15,2.72-25,21.93-27.12,38.23a342.82,342.82,0,0,0,17.73,36.12Z" fill="#fff"/><path d="M870.24,787.41c-10.59-37.06,6.35-85.76,6.35-85.76-1.05-1.4-7.13-9.65-15.67-21.26C839.15,755.31,870.24,787.41,870.24,787.41Z" fill="#3b3b3b"/><path d="M267.76,826.59s-9.46-35.8-28.87-45.43a1.36,1.36,0,0,1,.66-2.6c12.33.8,34.4,6.06,52.57,31.09Z" fill="#3b3b3b"/><path d="M648.59,926.86q.28,7.67.5,15.33c10.35,1.3,20.73,2,31.13,2.22,17.74-5,32.88-11.1,43.86-17.17" fill="#fff"/><path d="M757.15,924.75c-2.77.3-5.54.56-8.31.81l.14,16.28,8.39-.58" fill="#fff"/><path d="M749,941.84l-.14-16.28q-12.33,1.11-24.76,1.68c-11,6.07-26.12,12.21-43.86,17.17C703.12,945,726.09,943.45,749,941.84Z" fill="#bababa"/><path d="M647,891.86q.5,9.55.92,19.07c35.84,3.81,72.51-2.65,108.82-5.14q-.19-7.51-.42-15C719.92,893.61,683.31,896.77,647,891.86Z" fill="#fff"/><path d="M473.59,732.07C452,743.5,446.11,700.47,438.51,693c18.93-7,18.74,18.11,27.13,30.94,3.87-9,.4-41.47,19.36-36.56Z" fill="#fff"/><path d="M494.08,682.29v-8.23h11.75v8.23Zm0,50.74V690h11.75v43Z" fill="#fff"/><path d="M536.68,733.82c-38,6-17.37-79.88,19.9-30.24-37.87-19.18-43.63,33.95.36,15.14C553.25,719.25,564,728.73,536.68,733.82Z" fill="#fff"/><path d="M576.94,733.74c-12.06,3.64-11.7-26.62-10.74-36.16h-5.75V690c10.9,3.86,3.74-13.13,17.36-10.09V690h8.55v7.55h-8.55c2.86,6.88-7.81,31.57,9.06,27.9C586.09,729.92,590.34,734.34,576.94,733.74Z" fill="#fff"/><path d="M636.75,711.49c-6,61-93.89-20.28-12.29-20.59C625.14,694.9,632.21,685.21,636.75,711.49Zm-12.27,0c-1.37-38.64-44.89,11.09-6.18,13.86C619.84,722.61,623.65,726.25,624.48,711.49Z" fill="#fff"/><path d="M646.07,733c-.13-8.39.32-33.55-.31-43,6.51,1.37,13.13-4.93,11.71,9.18,0-6.92,17.75-17.93,14.61-.08-15.2-7.41-15.35,21.86-14.31,33.9Z" fill="#fff"/><path d="M702.06,735.17c1.9,6.52-25.39,26.92-24.25,6.28,28.64,6.95-1.57-42.24-3.81-51.42,19.37-4.17,16.75,18.35,23.11,33.42,3.52-8.33,5.22-40.23,22.77-33.42Z" fill="#fff"/><path d="M876.59,701.65l-.32-.44C876.23,702,876.32,702.19,876.59,701.65Z" fill="#fff"/><path d="M911.4,712a83.65,83.65,0,0,0,30,5.36q18.11,0,38.48-6.92c-.1-1.76-.2-3.49-.3-5.18-24.84,8.68-47.11,9.4-66.35,2.1a77.61,77.61,0,0,1-33.68-25.48c-.45,2.29-.88,4.48-1.26,6.52A81.61,81.61,0,0,0,911.4,712Z" fill="#fff"/><path d="M131.09,834.48c-.82,3.18-1.64,6.39-2.45,9.6,15.2-15.64,42.88-38.16,74.32-35.47a107.25,107.25,0,0,1,64.41,29.14q.36-3.27.43-6.53a111.1,111.1,0,0,0-64.41-27.59C173.58,801.07,147.62,819,131.09,834.48Z" fill="#fff"/></g></g></g></svg>