<svg xmlns="http://www.w3.org/2000/svg" width="1262.35" height="2193.94" viewBox="0 0 1262.35 2193.94"><title>2_men_shoes_7</title><g id="Layer_2" data-name="Layer 2"><g id="Layer_148" data-name="Layer 148"><g id="_2_men_shoes_7" data-name="2_men_shoes_7"><rect width="1262.35" height="2193.94" fill="none"/><path d="M252.06,2138.82c0,2.12,13.41,18.36,13.41,18.36l11.29-14.83Z"/><path d="M293.71,2146.53c0,2.12,13.41,18.35,13.41,18.35l11.29-14.82Z"/><path d="M338.88,2140.24c0,2.11,13.41,18.35,13.41,18.35l11.3-14.83Z"/><path d="M379.12,2127.24c0,2.11,20.47,17.64,20.47,17.64l4.23-19.76Z"/><path d="M400.29,2101.53c0,2.12,20.47,17.65,20.47,17.65l4.24-19.77Z"/><path d="M425.71,2078.35c0,2.12,20.47,17.65,20.47,17.65l4.23-19.76Z"/><path d="M460.71,2052.41c0,2.12,20.47,17.65,20.47,17.65l4.23-19.77Z"/><path d="M374.11,2051c17.61-24.83,31.16-54.24,33.23-85.37-10.95-5.81-23.43-6.41-32.4-5.79A21,21,0,0,0,356.55,1974c-5.18,15.16-10.4,39.58-12.9,49.09-1.85,7-7.73,16.5-12.93,24C344.61,2042.43,360.82,2045,374.11,2051Z" fill="#636363"/><path d="M407.34,1965.63c-2.07,31.13-15.62,60.54-33.23,85.37.84.38,1.67.77,2.48,1.18-.81-.41-1.64-.8-2.48-1.18q-2.22,3.14-4.52,6.18,2.3-3,4.52-6.18c-13.29-6-29.5-8.57-43.39-4-4.76,6.85-9,12-9,12,20.24-13.41,52.71,5.41,52.71,5.41,9.88-6.59,32.47-50.35,32.47-50.35l12.24-39.06A40.29,40.29,0,0,0,407.34,1965.63Z" fill="#404040"/><polygon points="431.88 2081.41 446.15 2083.64 437.53 2066.82 431.88 2081.41" fill="#4a4a4a"/><path d="M488.82,2019.76c-8.85,16-30.66,26.13-42.63,30.64a22.24,22.24,0,0,0-11.89,10.49c-10.62,20.46-25.27,35.31-45.71,55.82-69.56,33.76-128.45,5.38-143.26-1.15a16,16,0,0,0,.28,2.84,99.15,99.15,0,0,0,6.59,21.19c15,11.85,42.09,18.11,68.83,16.25,28.75-2,57.07-12.76,69.44-17.49,25.88-9.88,41.41-56.94,41.41-56.94l5.65-14.59,8.62,16.82.79.12c29.65-12.23,39.53-35.29,39.53-35.29C488.34,2043.86,490.71,2031.53,488.82,2019.76Z" fill="#636363"/><path d="M474.71,1984.94s3.76-2.82,4.23,3.3c.38,5,3.57,18.67,8.29,23.86a321.74,321.74,0,0,0-6.88-38c-3.76-14.59-8-7.53-8-7.53.94,6.12-2.82,16-2.82,16-14.59,21.17-56.94,33.88-62.59,31.53,0,0-1.6,3.09-4.13,7.76,11.53-.91,41.36-5.27,62.95-26.12C465.76,1995.76,473.76,1987.76,474.71,1984.94Z" fill="#636363"/><path d="M478.94,1988.24c-.47-6.12-4.23-3.3-4.23-3.3-.95,2.82-8.95,10.82-8.95,10.82-21.59,20.85-51.42,25.21-62.95,26.12-4.86,9-13.16,23.72-20.21,33.51a14.27,14.27,0,0,1-17.07,4.79c-11.09-4.6-30.18-10.12-43.77-1.12,0,0-53.33,20.81-72.77,45.53a17.13,17.13,0,0,0-3.66,11c10.55,12.91,73.7,34.91,143.26,1.15,21-11.43,33.23-29.93,55.53-62.12,0,0,31.91-3.9,44.42-26.56-.19-5-.66-10.49-1.31-15.93C482.51,2006.91,479.32,1993.21,478.94,1988.24Z" fill="#e6e6e6"/><path d="M388.59,2116.71c1.71-.93,3.35-1.92,5-2.95l-12.7,6.48C383.41,2119.14,386,2118,388.59,2116.71Z" fill="#c9c9c9"/><path d="M444.12,2054.59s31.91-3.9,44.42-26.56c-.19-5-.66-10.49-1.31-15.93-3.65-4-6.37-13.09-7.6-19.31-7.8,10.83-25.64,30.75-52.69,38,0,0-29.65,31.06-45.18,38.83-12.25,6.12-26.7,44.77-32.25,60.8a177.77,177.77,0,0,0,31.33-10.21l12.7-6.48C411.61,2102.17,423.64,2084.16,444.12,2054.59Z" fill="#c9c9c9"/><path d="M465.76,1995.76c-21.59,20.85-51.42,25.21-62.95,26.12-4.86,9-13.16,23.72-20.21,33.51a14.27,14.27,0,0,1-17.07,4.79c-11.09-4.6-30.18-10.12-43.77-1.12,0,0-53.33,20.81-72.77,45.53a17.13,17.13,0,0,0-3.66,11c10.55,12.91,73.7,34.91,143.26,1.15,21-11.43,33.23-29.93,55.53-62.12,0,0,31.91-3.9,44.42-26.56-.19-5-.66-10.49-1.31-15.93-4.72-5.19-7.91-18.89-8.29-23.86-.47-6.12-4.23-3.3-4.23-3.3" fill="none"/><path d="M488,2043.4c-5.64,7-15.84,15.71-34.16,22.42a3,3,0,0,0-1.78,3.86h0a3,3,0,0,0,3.88,1.75,112.84,112.84,0,0,0,24.28-12.82,53.62,53.62,0,0,0,6.3-10.14A33.45,33.45,0,0,0,488,2043.4Z" fill="#404040"/><path d="M308.78,2147.16c21.29,0,48.44-4.31,80.55-18.25a2.5,2.5,0,1,0-2-4.58c-47.53,20.62-83.72,19.66-105.71,15.22-17.64-3.56-29.21-9.87-34.07-12.93.67,2.4,1.44,4.78,2.29,7.12a112.91,112.91,0,0,0,30.46,10.64A141.82,141.82,0,0,0,308.78,2147.16Z" fill="#404040"/><path d="M314.71,2088.71c3.6-8.12,23.36-23.16,37.15-33-9.85-2.25-21.17-2.61-30.1,3.31,0,0-1.3.51-3.57,1.46-8.42,6.95-27,21.8-34.54,23.95-7.78,2.22-29.54,18-38.12,28.06a17,17,0,0,0-.2,3c6.83,8.36,35.74,20.53,74.16,18.9C315.91,2120.65,310.84,2097.4,314.71,2088.71Z" fill="#c9c9c9"/><path d="M360.59,2014.59s12.47-39.84,13.41-43.77,16.24.71,16.24.71l-14.12,45.88Z" fill="#e6e6e6"/><path d="M395.17,2031.91a2.52,2.52,0,0,1-1.29-.36c-31.28-19-50-18.73-50.15-18.7h-.08a2.5,2.5,0,0,1-.1-5c.82,0,20.19-.51,52.93,19.42a2.5,2.5,0,0,1-1.31,4.63Z"/><path d="M392.35,2040.38a2.61,2.61,0,0,1-.94-.18c-36.41-14.84-56-1.14-56.18-1a2.5,2.5,0,0,1-2.93-4c.88-.64,22-15.45,61,.42a2.5,2.5,0,0,1-.95,4.81Z"/><path d="M379.18,2058.85a2.47,2.47,0,0,1-1.56-.54c-21.27-16.89-47.86-8.31-48.12-8.22a2.5,2.5,0,1,1-1.59-4.74c1.2-.4,29.45-9.51,52.82,9.05a2.49,2.49,0,0,1-1.55,4.45Z"/><path d="M386,2051a2.47,2.47,0,0,1-2.06-1.09c-8.56-12.5-44.8-22.19-45.17-22.29a2.51,2.51,0,0,1-1.79-1.81,2.54,2.54,0,0,1,.74-2.45c.73-.66,18.31-16.23,65.45-11.94a2.5,2.5,0,0,1,2.26,2.72,2.48,2.48,0,0,1-2.72,2.26c-32.48-2.95-50.1,3.84-57.44,7.9,10.84,3.31,35.25,11.76,42.79,22.79a2.49,2.49,0,0,1-.65,3.47A2.45,2.45,0,0,1,386,2051Z"/><path d="M939.37,2134.76c.09,2.11-13.37,18.92-13.37,18.92l-12.52-14.31Z"/><path d="M895.8,2144.28c.09,2.11-13.37,18.92-13.37,18.92l-12.52-14.31Z"/><path d="M847.93,2140c.09,2.11-13.37,18.92-13.37,18.92L822,2144.57Z"/><path d="M805,2128.74c.09,2.11-20.84,18.53-20.84,18.53l-5.28-19.57Z"/><path d="M781.61,2104c.09,2.12-20.84,18.53-20.84,18.53L755.49,2103Z"/><path d="M753.87,2081.94c.09,2.11-20.84,18.52-20.84,18.52l-5.29-19.56Z"/><path d="M715.91,2057.55c.09,2.11-20.84,18.53-20.84,18.53l-5.28-19.57Z"/><path d="M807.1,2052.35c-19.59-24-35.08-52.83-38.56-83.84,11.3-6.28,24.43-7.43,33.91-7.21a22,22,0,0,1,20,13.32c6.08,14.92,12.6,39.09,15.63,48.48,2.23,6.91,8.82,16.15,14.62,23.4C837.84,2042.5,820.86,2045.75,807.1,2052.35Z" fill="#636363"/><path d="M768.54,1968.51c3.48,31,19,59.8,38.56,83.84-.86.42-1.72.84-2.56,1.28.84-.44,1.7-.86,2.56-1.28,1.65,2,3.33,4,5,6-1.7-2-3.38-4-5-6,13.76-6.6,30.74-9.85,45.57-5.85,5.3,6.64,9.93,11.61,9.93,11.61-21.88-12.51-55.32,7.71-55.32,7.71-10.68-6.15-36.3-48.88-36.3-48.88l-14.52-38.49A42.2,42.2,0,0,1,768.54,1968.51Z" fill="#404040"/><polygon points="747.49 2085.26 732.54 2088.11 740.93 2070.93 747.49 2085.26" fill="#4a4a4a"/><path d="M684.92,2026.16c10,15.65,33.4,24.76,46.2,28.75a23,23,0,0,1,13,10c12,20,28.11,34.16,50.49,53.76,74.71,30.69,135.59-.24,150.93-7.41a16.05,16.05,0,0,1-.18,2.85,95.35,95.35,0,0,1-6.07,21.46c-15.29,12.5-43.6,19.94-71.86,19.25-30.38-.74-60.67-10.26-73.9-14.44-27.69-8.74-46-55.08-46-55.08l-6.56-14.33-8.39,17.19-.83.15c-31.75-10.92-43.12-33.53-43.12-33.53C686.43,2050.22,683.43,2038,684.92,2026.16Z" fill="#636363"/><path d="M698.36,1990.75s-4.09-2.66-4.33,3.48c-.2,5-3,18.81-7.75,24.2,1.28-15.28,4-22.72,5.68-30.25,3.36-14.74,15.11-14.87,15.11-14.87a109.19,109.19,0,0,1-3.36,14.86c16.26,20.52,61.41,31.36,67.27,28.77,0,0,1.81,3,4.67,7.57-12.18-.41-43.8-3.45-67.42-23.34C708.23,2001.17,699.47,1993.53,698.36,1990.75Z" fill="#636363"/><path d="M694,1994.23c.24-6.14,4.33-3.48,4.33-3.48,1.11,2.78,9.87,10.42,9.87,10.42,23.62,19.89,55.24,22.93,67.42,23.34,5.49,8.74,14.86,23.13,22.69,32.6a15.56,15.56,0,0,0,18.19,4c11.5-5.09,31.39-11.44,46.07-3,0,0,57.07,18.46,78.58,42.31a16.54,16.54,0,0,1,4.32,10.8c-10.59,13.36-76.22,38.1-150.93,7.41-22.56-10.49-36.26-28.44-61.09-59.63,0,0-33.8-2.5-47.91-24.59,0-5.06.26-10.51.71-16C691,2013,693.83,1999.21,694,1994.23Z" fill="#e6e6e6"/><path d="M794.57,2118.63q-2.75-1.27-5.34-2.72l13.65,5.92C800.13,2120.83,797.36,2119.78,794.57,2118.63Z" fill="#c9c9c9"/><path d="M733.48,2059s-33.8-2.5-47.91-24.59c0-5.06.26-10.51.71-16,3.68-4.17,6.18-13.36,7.21-19.62,8.68,10.48,28.3,29.6,57.1,35.69,0,0,32.54,29.74,49.22,36.82,13.17,5.58,30,43.56,36.51,59.34a196.14,196.14,0,0,1-33.44-8.83l-13.65-5.92C769.71,2105.12,756.29,2087.65,733.48,2059Z" fill="#c9c9c9"/><path d="M708.23,2001.17c23.62,19.89,55.24,22.93,67.42,23.34,5.49,8.74,14.86,23.13,22.69,32.6a15.56,15.56,0,0,0,18.19,4c11.5-5.09,31.39-11.44,46.07-3,0,0,57.07,18.46,78.58,42.31a16.54,16.54,0,0,1,4.32,10.8c-10.59,13.36-76.22,38.1-150.93,7.41-22.56-10.49-36.26-28.44-61.09-59.63,0,0-33.8-2.5-47.91-24.59,0-5.06.26-10.51.71-16,4.76-5.39,7.55-19.22,7.75-24.2.24-6.14,4.33-3.48,4.33-3.48" fill="none"/><path d="M686.82,2049.74c6.24,6.78,17.35,15,36.93,20.9a3,3,0,0,1,2,3.79h0a3.21,3.21,0,0,1-4,1.91,121.45,121.45,0,0,1-26.11-11.75,53.21,53.21,0,0,1-7.07-9.85A32.49,32.49,0,0,1,686.82,2049.74Z" fill="#404040"/><path d="M879.94,2145.57c-22.44.93-51.23-2.19-85.64-14.71a2.46,2.46,0,0,1-1.51-3.23,2.71,2.71,0,0,1,3.42-1.44c50.94,18.53,89,16,112,10.59,18.45-4.33,30.38-11.14,35.37-14.41q-.9,3.65-2.12,7.22a123.86,123.86,0,0,1-31.66,12A157.65,157.65,0,0,1,879.94,2145.57Z" fill="#404040"/><path d="M871.27,2087.42c-4.14-8-25.58-22.11-40.52-31.3,10.29-2.68,22.2-3.53,31.85,2,0,0,1.4.45,3.83,1.3,9.17,6.58,29.37,20.6,37.4,22.42,8.29,1.88,31.87,16.69,41.33,26.37a16.93,16.93,0,0,1,.34,3c-6.86,8.65-36.82,22.08-77.37,22.13C871.33,2119.4,875.71,2096,871.27,2087.42Z" fill="#c9c9c9"/><path d="M819.85,2015.38s-14.8-39.26-16-43.14-17.08,1.41-17.08,1.41l16.78,45.23Z" fill="#e6e6e6"/><path d="M784.12,2034.2a2.81,2.81,0,0,0,1.35-.42c32.17-20.39,51.88-20.89,52.07-20.87h.08a2.59,2.59,0,0,0,2.54-2.52,2.55,2.55,0,0,0-2.64-2.47c-.86,0-21.3.37-55,21.71a2.44,2.44,0,0,0-.74,3.47A2.66,2.66,0,0,0,784.12,2034.2Z"/><path d="M787.44,2042.54a2.7,2.7,0,0,0,1-.23c37.75-16.41,59-3.58,59.16-3.45a2.73,2.73,0,0,0,3.65-.71,2.41,2.41,0,0,0-.73-3.46c-1-.6-23.87-14.48-64.26,3.08a2.45,2.45,0,0,0-1.31,3.32A2.63,2.63,0,0,0,787.44,2042.54Z"/><path d="M802.09,2060.42a2.8,2.8,0,0,0,1.62-.61c21.72-17.81,50.09-10.4,50.37-10.32a2.67,2.67,0,0,0,3.27-1.72,2.47,2.47,0,0,0-1.8-3.09c-1.27-.34-31.42-8.21-55.28,11.35a2.42,2.42,0,0,0-.28,3.53A2.7,2.7,0,0,0,802.09,2060.42Z"/><path d="M794.57,2052.84a2.66,2.66,0,0,0,2.13-1.18c8.5-12.86,46.29-24.13,46.67-24.24a2.55,2.55,0,0,0,1.81-1.9,2.39,2.39,0,0,0-.88-2.4c-.79-.64-20-15.42-69.46-9.07a2.54,2.54,0,0,0-2.27,2.81,2.58,2.58,0,0,0,3,2.14c34.1-4.37,53,1.65,60.86,5.38-11.29,3.78-36.66,13.3-44.15,24.64a2.43,2.43,0,0,0,.83,3.45A2.79,2.79,0,0,0,794.57,2052.84Z"/></g></g></g></svg>