<svg xmlns="http://www.w3.org/2000/svg" width="1262.35" height="2193.94" viewBox="0 0 1262.35 2193.94"><title>2_men_shoes_9</title><g id="Layer_2" data-name="Layer 2"><g id="Layer_148" data-name="Layer 148"><g id="_2_men_shoes_9" data-name="2_men_shoes_9"><rect width="1262.35" height="2193.94" fill="none"/><path d="M920.53,2137.47c0,2.12-13.41,18.35-13.41,18.35L895.82,2141Z" fill="#717273"/><path d="M878.88,2138.18c0,2.11-13.41,18.35-13.41,18.35l-11.29-14.82Z" fill="#717273"/><path d="M832.29,2129.71c0,2.11-13.41,18.35-13.41,18.35l-11.29-14.82Z" fill="#717273"/><path d="M799.12,2114.88c0,2.12-20.47,17.65-20.47,17.65l-4.24-19.77Z" fill="#717273"/><path d="M775.12,2090.18c0,2.11-20.47,17.64-20.47,17.64l-4.24-19.76Z" fill="#717273"/><path d="M747.59,2076.53c0,2.12-20.47,17.65-20.47,17.65l-4.24-19.77Z" fill="#717273"/><path d="M714.41,2061.71c0,2.11-20.47,17.64-20.47,17.64l-4.23-19.76Z" fill="#717273"/><path d="M255.06,2136.24c0,2.11,13.41,18.35,13.41,18.35l11.29-14.83Z" fill="#717273"/><path d="M296.71,2136.94c0,2.12,13.41,18.35,13.41,18.35l11.29-14.82Z" fill="#717273"/><path d="M343.29,2132.47c0,2.12,13.42,18.35,13.42,18.35L368,2136Z" fill="#717273"/><path d="M376.47,2117.65c0,2.11,20.47,17.64,20.47,17.64l4.24-19.76Z" fill="#717273"/><path d="M400.47,2092.94c0,2.12,20.47,17.65,20.47,17.65l4.24-19.77Z" fill="#717273"/><path d="M428,2075.29c0,2.12,20.47,17.65,20.47,17.65l4.24-19.76Z" fill="#717273"/><path d="M461.18,2060.47c0,2.12,20.47,17.65,20.47,17.65l4.23-19.77Z" fill="#717273"/><path d="M358.11,1984.43c-16.36,23.4-43.58,69.57-43.58,69.57,26.12-5.65,63,4.35,63,4.35l42.93-60.22C403.52,1983.42,378.17,1975.71,358.11,1984.43Z" fill="#4e4c4f"/><path d="M363.41,1977.18c-1.57,2-3.36,4.47-5.3,7.25,20.06-8.72,45.41-1,62.35,13.7l4.36-6.13C396.59,1966.59,363.41,1977.18,363.41,1977.18Z" fill="#282829"/><path d="M471,1963.76c-13.33,15.54-27.24,20.84-46.18,28.24l-47.29,66.35s-40.94,27.53-58.59,59.3a132.9,132.9,0,0,0,14.75-2.08c15.79-20.37,32.56-40.71,53.63-55.35a461.44,461.44,0,0,1,45.18-59.48c-3,1.18-5.95,2.33-8.91,3.44,3-1.11,5.94-2.26,8.91-3.44,1.36-1.52,2.71-3.06,4.09-4.56-1.38,1.5-2.73,3-4.09,4.56,15.14-6,30.27-13.17,43.44-23.18C473.36,1970.07,471.37,1964.89,471,1963.76Z" fill="#a64156"/><path d="M318.94,2117.65c-55.76,2.82-68.23-15.24-68.23-15.24s-3.45,21,.7,28.24c9.58,16.77,43,18.35,70.27,16.56-.58-9.86-1.25-19.82-2.15-29.61Z" fill="#fff"/><path d="M318.94,2117.65c17.65-31.77,58.59-59.3,58.59-59.3s-36.88-10-63-4.35c0,0-45.68,22.24-63.82,48.41C250.71,2102.41,263.18,2120.47,318.94,2117.65Z" fill="#b5475e"/><path d="M423.41,2089.41c11.15-3.23,15.53-5.51,23.39-8.7l-23.39-5.42Z" fill="#8d8e8f"/><path d="M490.08,2032.24c-19.78,21.16-71.61,34.58-71.61,34.58-31.36,44-92.35,50.24-98.94,50.78.9,9.79,1.57,19.75,2.15,29.61a341.17,341.17,0,0,0,38.2-4.74c69.18-28.23,63.53-53.06,63.53-53.06v-14.12l23.39,5.42c30-12.14,43-23.77,43-23.77C491.49,2050.37,491.33,2041.68,490.08,2032.24Z" fill="#d1d3d4"/><path d="M259.65,2099.29s14.11-20.47,36.7-27.53c0,0-19.76,19.77-8.47,25.42s30.36,7.76,30.36,7.76l-4.24,7.77S274.47,2112,259.65,2099.29Z" fill="#d1d3d4"/><path d="M819.43,1982.4c18.51,22.77,49.74,68,49.74,68-27.7-4.15-65.76,8.22-65.76,8.22l-48.51-58.54C771.79,1984.13,797.9,1974.76,819.43,1982.4Z" fill="#4e4c4f"/><path d="M813.45,1975.36c1.76,2,3.78,4.35,6,7-21.53-7.64-47.64,1.73-64.53,17.67l-4.94-6C778.06,1966.62,813.45,1975.36,813.45,1975.36Z" fill="#282829"/><path d="M705.76,1971.53c14.88,15,23.92,16.22,44.2,22.59l53.45,64.49s44.51,25.47,64.86,56.65a141.61,141.61,0,0,1-15.58-1.22c-17.73-19.72-36.5-39.35-59.43-52.94a471.89,471.89,0,0,0-50.83-57.65q4.79,1.54,9.54,3-4.76-1.42-9.54-3c-1.52-1.46-3-2.93-4.55-4.38,1.53,1.45,3,2.92,4.55,4.38-16.21-5.19-32.49-11.54-46.88-20.89C697.82,1974.79,705.44,1972.69,705.76,1971.53Z" fill="#a64156"/><path d="M432.5,2000.74a461.44,461.44,0,0,0-45.18,59.48c-21.07,14.64-37.84,35-53.63,55.35,21.49-4.1,61.38-15.89,84.78-48.75,0,0,51.83-13.42,71.61-34.58-2.49-18.9-9.35-40.78-14.14-54.68C462.77,1987.57,447.64,1994.72,432.5,2000.74Z" fill="#853445"/><path d="M793.26,2061.1a471.89,471.89,0,0,0-50.83-57.65c-16.21-5.19-32.49-11.54-46.88-20.89-4.21,14.39-10.11,37-11.62,56.35,22,20.29,77.07,30.78,77.07,30.78,26.44,31.93,68.94,41.49,91.69,44.35C835,2094.32,816.19,2074.69,793.26,2061.1Z" fill="#853445"/><path d="M868.27,2115.26c58.6-.5,70.61-19.58,70.61-19.58s4.84,21.08.91,28.7c-9.06,17.6-44,21.22-72.67,21,0-10,.16-20.19.53-30.18Z" fill="#fff"/><path d="M868.27,2115.26c-20.35-31.18-64.86-56.65-64.86-56.65s38.06-12.37,65.76-8.22c0,0,49.17,19.82,69.71,45.29C938.88,2095.68,926.87,2114.76,868.27,2115.26Z" fill="#b5475e"/><path d="M757.14,2092.91c-11.87-2.6-16.59-4.66-25-7.42l24.2-6.91Z" fill="#8d8e8f"/><path d="M683.93,2038.91c22,20.29,77.07,30.78,77.07,30.78,35.44,42.8,99.72,45.4,106.65,45.56-.37,10-.49,20.14-.53,30.18a367.88,367.88,0,0,1-40.3-2.5c-74.14-24.48-69.68-50-69.68-50l-.82-14.33-24.2,6.91C700,2075,685.71,2064,685.71,2064,683.52,2057.39,683.18,2048.56,683.93,2038.91Z" fill="#d1d3d4"/><path d="M929.33,2093.05s-16-19.93-40.08-25.73c0,0,21.87,18.87,10.37,25.29s-31.35,9.71-31.35,9.71l4.89,7.63S914.54,2106.84,929.33,2093.05Z" fill="#d1d3d4"/><path d="M394.29,2049.64c6.27,8.44,11.49,17.47,16.6,26.51a97.11,97.11,0,0,0,6.91-8.42c-5.09-9.48-10.35-18.9-17.48-26.74Q397.26,2045.28,394.29,2049.64Z" fill="#282829"/><path d="M408.93,2029.33c7.21,11.54,15.15,22.33,22.21,33.72,3-1,6.37-2.11,10-3.42-6.8-14.58-13.6-29.25-23.63-41.17Q413.14,2023.83,408.93,2029.33Z" fill="#282829"/><path d="M790.83,2054a4.51,4.51,0,0,1-2.69-8.12c1.23-.9,30.42-22.15,70.81-18.87a4.5,4.5,0,1,1-.73,9c-36.91-3-64.45,16.94-64.72,17.14A4.52,4.52,0,0,1,790.83,2054Z" fill="#d1d3d4"/><path d="M773.89,2036a4.5,4.5,0,0,1-2.5-8.25c1.61-1.07,39.9-26.3,73-21.89a4.5,4.5,0,1,1-1.19,8.92c-29.74-4-66.43,20.22-66.79,20.46A4.51,4.51,0,0,1,773.89,2036Z" fill="#d1d3d4"/><path d="M759.06,2012.74a4.51,4.51,0,0,1-2.06-8.51c1.66-.85,40.81-20.72,71.52-16.33a4.5,4.5,0,1,1-1.27,8.91c-27.87-4-65.76,15.23-66.14,15.43A4.43,4.43,0,0,1,759.06,2012.74Z" fill="#d1d3d4"/><path d="M389,2058.27a4.48,4.48,0,0,1-2.46-.74h0c-.28-.19-28.89-18.54-65.59-13.47a4.5,4.5,0,0,1-1.23-8.91c40.15-5.54,70.49,14,71.76,14.85a4.51,4.51,0,0,1-2.48,8.27Z" fill="#d1d3d4"/><path d="M404.9,2039.34a4.49,4.49,0,0,1-2.27-.62c-.38-.22-38.43-22.29-67.84-16.67a4.5,4.5,0,0,1-1.69-8.84c32.77-6.26,72.42,16.77,74.09,17.75a4.5,4.5,0,0,1-2.29,8.38Z" fill="#d1d3d4"/><path d="M418.4,2015.25a4.43,4.43,0,0,1-1.83-.39c-.39-.17-39.3-17.22-66.89-11.68a4.5,4.5,0,0,1-1.77-8.83c30.41-6.11,70.62,11.54,72.32,12.29a4.5,4.5,0,0,1-1.83,8.61Z" fill="#d1d3d4"/><path d="M765.18,2027c-7.92,12.43-14.64,25.56-21.58,38.63,5,1.32,9.27,2.32,12.32,3,5.78-10.66,11.56-21.22,18.12-31.57Q769.68,2032,765.18,2027Z" fill="#282829"/><path d="M793.26,2061.1q-4.08-5.49-8.34-10.84a145.56,145.56,0,0,0-15.7,28.19,105.73,105.73,0,0,0,9.56,8c4.13-8.9,8.63-17.69,14.56-25.32Z" fill="#282829"/></g></g></g></svg>