<svg xmlns="http://www.w3.org/2000/svg" width="1262.35" height="2195.18" viewBox="0 0 1262.35 2195.18"><title>2_men_old hair_2</title><g id="Layer_2" data-name="Layer 2"><g id="Character_men02_hair_1-3" data-name="Character_men02_hair 1-3"><g id="_2_men_old_hair_2" data-name="2_men_old hair_2"><path d="M431.12,310.06c0-.51-6.5-180.55,140.11-152.47,0,0,124.59-46.59,146.83,151.41,0,0,5.35-3.24,13.82-1.12,0,0,8.18-40.64,29.35-70.29-4-23.3-65.06-186.59-191.11-136.24,0,0-142.18-60.23-193,149.41,0,0,32.88,37.12,37.11,57.24C414.23,308,424.76,303.71,431.12,310.06Z" fill="#eaeaea"/><path d="M706.38,209.92c-40.86-103.29-136.2-65-136.2-65C480.09,122.2,444.24,174.51,430,219.45a46.16,46.16,0,0,1-52.85,31.32h0S410,287.88,414.23,308c0,0,10.53-4.29,16.89,2.06,0-.51-6.5-180.55,140.11-152.47,0,0,124.59-46.59,146.83,151.41,0,0,5.35-3.24,13.82-1.12,0,0,8.18-40.64,29.35-70.29l-1.84.41A46,46,0,0,1,706.38,209.92Z" fill="#b2b2b2"/><rect width="1262.35" height="2195.18" fill="none"/></g></g></g></svg>