<svg xmlns="http://www.w3.org/2000/svg" width="1262.35" height="2195.18" viewBox="0 0 1262.35 2195.18"><title>2_beard_4</title><g id="Layer_2" data-name="Layer 2"><g id="accessories"><g id="_2_beard_4" data-name="2_beard_4"><path d="M566.76,401a3.86,3.86,0,0,0,3.12-5.9c-5-7.9-15.55-18.77-33.09-10.79-26,11.81-25.59,24.41-40.56,27.56a11.5,11.5,0,0,1-12.6-5.12s-4.72,20.08,19.69,19.69C523.26,426.15,548.85,401.8,566.76,401Z" fill="#170d04"/><path d="M577.15,401a3.86,3.86,0,0,1-3.12-5.9c5-7.9,15.55-18.77,33.09-10.79,26,11.81,25.59,24.41,40.56,27.56a11.5,11.5,0,0,0,12.6-5.12s4.72,20.08-19.69,19.69C620.65,426.15,595.06,401.8,577.15,401Z" fill="#170d04"/><rect width="1262.35" height="2195.18" fill="none"/></g></g></g></svg>