<svg xmlns="http://www.w3.org/2000/svg" width="1262.35" height="2193.94" viewBox="0 0 1262.35 2193.94"><title>2_men_hair_9</title><g id="Layer_2" data-name="Layer 2"><g id="Layer_148" data-name="Layer 148"><g id="_2_men_hair_9" data-name="2_men_hair_9"><rect width="1262.35" height="2193.94" fill="none"/><path d="M694.74,194.88c-9.33-19.35-26.41-45.18-50.39-50.17-33.75-7-66.18,21.68-66.18,21.68,52.51-3.17,96.06,26.15,117.72,44.31A60,60,0,0,0,694.74,194.88Z" fill="#914e0c"/><path d="M498.24,153.88A74.43,74.43,0,0,0,465.56,183a55.88,55.88,0,0,0-3.56,21.5c24.87-17.89,66.48-40.9,113.31-38.07h2.86S551.88,129.88,498.24,153.88Z" fill="#914e0c"/><path d="M376.67,495c-1.84.74-3.71,1.4-5.6,2Q373.91,496.08,376.67,495Z" fill="#c76b10"/><path d="M360.18,499.54c-1.15.18-2.29.32-3.45.45C357.89,499.86,359,499.72,360.18,499.54Z" fill="#c76b10"/><path d="M348.81,500.43c-1.25,0-2.5,0-3.75-.1C346.31,500.39,347.56,500.43,348.81,500.43Z" fill="#c76b10"/><path d="M352.26,500.34c-1.12.05-2.24.09-3.37.09C350,500.43,351.14,500.39,352.26,500.34Z" fill="#c76b10"/><path d="M355.81,500.08c-.89.08-1.78.16-2.68.21C354,500.24,354.92,500.17,355.81,500.08Z" fill="#c76b10"/><path d="M796,477.64C796.92,468,807,462,814,455c13.33-13.26,15.9-37.07,1.61-49.39-10.27-8.84-28.31-12.77-29.28-25.93-.62-8.45,6.81-15.13,12.35-21.75,12.68-15.16,14.88-41.51-2.82-51.06-5.86-3.16-13.23-4.09-17.79-8.82-5.76-5.95-4.64-15.41-1.7-23s7.39-15,7.18-23.14c-.44-17.19-20.37-27.28-29-42.38-9.48-16.66-4.13-37.19-7-55.95s-14.26-27.66-27.29-42.16C702.62,91.73,681,74.84,655.61,65.66s-54.39-10-78.87.82c-24.49-10.85-53.63-10-78.88-.82s-47,26.07-64.65,45.7c-13,14.5-24.38,23.27-27.3,42.16s2.46,39.29-7,55.95c-8.61,15.1-28.54,25.19-29,42.38-.2,8.1,4.25,15.54,7.19,23.14s4.06,17.07-1.7,23c-4.57,4.73-11.94,5.66-17.8,8.82-17.7,9.55-15.5,35.9-2.81,51.06,5.54,6.62,13,13.3,12.34,21.75-1,13.16-19,17.09-29.27,25.93-14.3,12.32-11.73,36.13,1.6,49.39,7.05,7,17.1,13,18.07,22.68,1.06,10.61-9.94,18.94-20.72,21.74a67.32,67.32,0,0,0,8.23.94c11.64-7.18,22.05-17.11,31.56-26.14,17-15,31-45,17-68,13,13,27,25,30,44,13-21-5-45-19-62-30.62-37-20.17-84.7,5.71-122.08a42.53,42.53,0,0,0,7.48-25.3l-.72-28.33s4.73,10.31,9.06,20.22a38.29,38.29,0,0,1-.19,31.37c-6.13,13.32-9.67,27.33-7.22,42.75l.74-.16c3.57,21,21.31,39.83,42.79,42.74-20.17-8.84-27.22-38.54-13.18-55.51,8.3-10,22.12-15.68,27-27.76,4.31-10.68,0-22.91-5.92-32.77-1.28-2.12-2.65-4.2-4-6.27a78.94,78.94,0,0,1-4.1-22.62,55.88,55.88,0,0,1,3.56-21.5,74.43,74.43,0,0,1,32.68-29.08c53.64-24,79.93,12.51,79.93,12.51s32.43-28.71,66.18-21.68c24,5,41.06,30.82,50.39,50.17a60,60,0,0,1,1.15,15.82,85.1,85.1,0,0,1-8.2,30.91c-5.8,9.77-9.86,21.76-5.62,32.26,4.88,12.08,18.69,17.72,27,27.76,14,17,7,46.67-13.18,55.51,22.07-3,40.21-22.81,43.07-44.49a33.52,33.52,0,0,1,2.15,2.62c-.11-13.89-3.78-27.16-9.72-39.63-8.51-17.86-10.43-38.23-4.49-57.11,1.17-3.72,2.2-6,2.86-5.35l.84,17.2A79.82,79.82,0,0,0,745.54,273c15.42,21.55,25.25,49.71,18.05,77.21-7,28-28,48-30,76-2,18-3,38,7,54-7-21,8-39,16-57-4,23,6,45,25,59,8.77,6.7,19.67,14.46,30.77,17.8,1.44-.16,2.88-.34,4.31-.6C805.89,496.58,794.89,488.25,796,477.64ZM449.88,171.18s27.53-97.42,122.83-40.24C572.71,130.94,495.41,106.59,449.88,171.18Zm136.59-41.3c95.29-57.17,122.82,40.24,122.82,40.24C663.76,105.53,586.47,129.88,586.47,129.88Z" fill="#c76b10"/><path d="M781.88,496.81c-1.77-.58-3.53-1.22-5.26-1.92C778.35,495.59,780.11,496.23,781.88,496.81Z" fill="#c76b10"/><path d="M425.93,264.06a38.29,38.29,0,0,0,.19-31.37c-4.33-9.91-9.06-20.22-9.06-20.22l.72,28.33a42.53,42.53,0,0,1-7.48,25.3c-25.88,37.38-36.33,85-5.71,122.08,14,17,32,41,19,62-3-19-17-31-30-44,14,23,0,53-17,68-9.51,9-19.92,19-31.56,26.14h0c1.25.06,2.5.1,3.75.1h.08c1.13,0,2.25,0,3.37-.09l.87,0c.9-.05,1.79-.13,2.68-.21l.92-.09c1.16-.13,2.3-.27,3.45-.45h0c.68-.11,1.36-.23,2-.36l.18,0,2-.39.23-.06,1.92-.44.2-.05c1.47-.37,2.92-.79,4.37-1.25,1.89-.6,3.76-1.26,5.6-2l.22-.09c.52-.21,1-.43,1.55-.66L379,494l1.39-.64.69-.32,1.29-.64.76-.39,1.22-.65.8-.44,1.15-.66.83-.5c.37-.22.74-.44,1.1-.67l.86-.56,1-.67c.6-.4,1.19-.82,1.77-1.24.26-.18.52-.38.78-.57l1-.79.79-.63c.33-.26.66-.52,1-.79s.52-.44.78-.66.64-.54.95-.82l.75-.67.93-.87.72-.68.92-.92.66-.69c.32-.33.62-.66.93-1l.6-.66,1-1.14.49-.57c.47-.58.94-1.16,1.4-1.76,6.06,14,2.79,31.26-8,42.35,25.13-3.71,46.91-23.1,52.53-46.77,8.52,18.38,22.41,32,43.27,34.84a36.36,36.36,0,0,1,7.05-35.91s-64.83-15.42-67.79-80.36c0,0-42.15-27.53-30-64.24.25-.75.51-1.46.78-2.15.09-.23.19-.44.29-.66.18-.44.37-.89.57-1.31l.36-.71c.19-.36.37-.73.56-1.07l.42-.69c.18-.31.37-.63.56-.92s.3-.43.45-.65.38-.54.58-.8.32-.4.47-.59.39-.48.59-.7.33-.37.5-.54.39-.41.59-.6.35-.34.53-.5l.58-.51.55-.45.57-.42c.19-.14.38-.28.58-.41l.53-.34.62-.37.49-.27c.21-.12.43-.23.64-.33l.44-.21.69-.29.36-.15.73-.26a2.29,2.29,0,0,1,.28-.09c.26-.09.53-.17.78-.24l.16,0,.86-.21C416.26,291.39,419.8,277.38,425.93,264.06Z" fill="#914e0c"/><path d="M756.59,423.18c-8,18-23,36-16,57-10-16-9-36-7-54,2-28,23-48,30-76,7.2-27.5-2.63-55.66-18.05-77.21a79.82,79.82,0,0,1-14.94-42.59l-.84-17.2c-.66-.63-1.69,1.63-2.86,5.35-5.94,18.88-4,39.25,4.49,57.11,5.94,12.47,9.61,25.74,9.72,39.63.8,1.07,1.58,2.25,2.37,3.55,0,.07.07.14.11.2.32.54.64,1.11,1,1.69l.26.48c.35.67.71,1.37,1.07,2.1,17.3,35.95-30,64.24-30,64.24-3,64.94-67.79,80.36-67.79,80.36a36.36,36.36,0,0,1,7.05,35.91C676,501,694.86,487.34,703.39,469c5.61,23.67,27.39,43.06,52.52,46.77-10.82-11.09-14.09-28.34-8-42.35.46.61.94,1.21,1.43,1.8l.51.6,1,1.15.64.69c.31.33.61.67.93,1l.71.72c.3.31.6.61.91.91l.78.73.91.85.82.73.92.79.87.72.92.74.92.71.92.69,1,.69.93.64,1,.68.91.6,1.06.66.91.55c.37.22.74.44,1.12.65l.87.49,1.19.64.82.43,1.28.64.74.35,1.39.65.58.25,1.59.68.19.08c1.73.7,3.49,1.34,5.26,1.92s3.58,1.08,5.4,1.53h.06l2,.46.26.05c.65.14,1.3.26,2,.38l.34.07,1.91.31.39.06,1.89.24.42.05c.63.07,1.26.14,1.89.19l.42,0c.63.05,1.27.09,1.9.12l.4,0c.65,0,1.29.06,1.93.07h2.67c.67,0,1.33,0,2-.06H808l2.07-.13.16,0c.72-.05,1.45-.12,2.17-.2l0,0c-11.1-3.34-22-11.1-30.77-17.8C762.59,468.18,752.59,446.18,756.59,423.18Z" fill="#914e0c"/><path d="M449.88,171.18c45.53-64.59,122.83-40.24,122.83-40.24C477.41,73.76,449.88,171.18,449.88,171.18Z" fill="#914e0c"/><path d="M709.29,170.12s-27.53-97.41-122.82-40.24C586.47,129.88,663.76,105.53,709.29,170.12Z" fill="#914e0c"/></g></g></g></svg>