<svg xmlns="http://www.w3.org/2000/svg" width="1262.35" height="2193.94" viewBox="0 0 1262.35 2193.94"><title>2_men_shirt_5</title><g id="Layer_2" data-name="Layer 2"><g id="Layer_148" data-name="Layer 148"><g id="_2_men_shirt_5" data-name="2_men_shirt_5"><path d="M282.12,650.39c-3,2.42-6,4.79-9,7A14.19,14.19,0,0,0,268.24,673c13.48,42.43,50.67,79.56,79.58,97.68a11,11,0,0,0,12.57-.62q5.4-4.21,10.26-8.12C326.61,739.73,298.23,696.47,282.12,650.39Z" fill="#fff9c9"/><path d="M862.09,664.43c-28.22-35-75.85-85.61-75.85-85.61-28.79-37.42-97.42-57.76-133.38-65.36-7.21-1.53-15.26-2.7-22.13-3.54-12.87,15.86-33.6,31.75-54.49,32.2-18.2.39-37.16-15.49-50.44-29.72h0l-17.2,5.27-38.25,10.74h0c-57.88,4.24-105.17,38.35-134.82,75.06-1.49,1.84-28.14,26.62-53.41,46.92,16.11,46.08,44.49,89.34,88.53,111.5,28.51-22.91,42.88-37.65,42.88-37.65-12.57,92.18-17.6,202.69-19.35,253.58a36.48,36.48,0,0,0,27.17,36.53c57.92,15.29,197.11,41.88,335.24-7.76,4.18-104.42-8.12-267.77-8.47-272.26h0l15.16,21.52C802,732.93,840,703.19,862.09,664.43Z" fill="#6e733b"/><path d="M862.09,664.43c-22.07,38.76-60.06,68.5-98.8,91.42l6,8.47a11.74,11.74,0,0,0,14.82,3.75c30-14.8,65.78-43.28,84.2-81.16a16,16,0,0,0-1.75-16.9C865.12,668.2,863.63,666.34,862.09,664.43Z" fill="#fff9c9"/><path d="M413.53,724.24s-8.91,8.66-21.95,20.2C406.18,731.78,413.53,724.24,413.53,724.24Z" fill="none"/><path d="M425.76,620.24s-18,66.35-19.88,94.58c0,0-20.27,23.34-41.33,43.82q3,1.7,6.1,3.25c8.12-6.53,15.11-12.4,20.93-17.45,13-11.54,21.95-20.2,21.95-20.2C413.32,725.79,425.76,620.24,425.76,620.24Z" fill="#535729"/><path d="M358.82,764.12c-3.29,3.09-6.07,5.76-8,7.82a10.94,10.94,0,0,0,9.58-1.92c3.62-2.81,7-5.52,10.28-8.13q-3.11-1.56-6.1-3.25C362.65,760.49,360.73,762.33,358.82,764.12Z" fill="#d6d1a9"/><path d="M769.26,764.31c7.45,9.16,14.86,3.74,14.86,3.74l-13.07-16.89q-4,2.49-8.08,4.88C765.14,759,767.3,761.9,769.26,764.31Z" fill="#d6d1a9"/><path d="M736.82,645.18l11.3,89.06S755.59,745.86,763,756q4-2.38,8.08-4.88l-16.81-21.75C742.72,692.06,736.82,645.18,736.82,645.18Z" fill="#535729"/><path d="M406.85,647c2.46-.3,3.31-2.74,1.4-4-27.47-11.38-40.18-21.72-58.07-37.54-2.65-1.7-6.63-.77-7.73,1.78C334.12,626.59,344.91,654.74,406.85,647Z" fill="#535729"/><path d="M409.29,650.8s-39.85,6.17-57.68,1.75c-15.91-3.95-13.75,18.09,2.71,15.35S386.66,662.62,409.29,650.8Z" fill="#535729"/><path d="M747,649.91a2.3,2.3,0,0,1-2.24-3.54c17.53-17.44,24.13-30.43,33.06-49.94a3.9,3.9,0,0,1,6.42-.08C796.36,613.17,796.51,643,747,649.91Z" fill="#535729"/><path d="M534.26,592.22a61.64,61.64,0,0,0,44.09,12.72,72.32,72.32,0,0,0,36-13l-38.49-37.5Z" fill="#6e733b"/><path d="M657.37,514.46l-.1,0,.1,0Z" fill="#5ba4dd"/><path d="M655.75,514.09l1.43.33Z" fill="#5ba4dd"/><path d="M654.38,513.79l1.19.26Z" fill="#5ba4dd"/><path d="M652.86,513.46l1.26.27Z" fill="#5ba4dd"/><path d="M657.18,514.42l.09,0Z" fill="#438eb3"/><path d="M654.12,513.73l.26.06Z" fill="#438eb3"/><path d="M655.57,514.05l.18,0Z" fill="#438eb3"/><path d="M503,550.27c7.08,15.35,17.17,31.23,31.25,42l41.62-37.75L614.37,592c28.6-20.18,39.29-58.21,43-77.51l-.1,0-.09,0-1.43-.33-.18,0-1.19-.26-.26-.06-1.26-.27c-7.21-1.53-15.26-2.7-22.13-3.54-12.87,15.86-33.6,31.75-54.49,32.2-18.2.39-37.16-15.49-50.44-29.73l-17.2,5.28-14.87,3.19A195,195,0,0,0,503,550.27Z" fill="#535729"/><path d="M658.94,514.82l-1.57-.36h0Z" fill="#5ba4dd"/><polygon points="658.93 514.82 658.94 514.83 658.94 514.83 658.93 514.82" fill="#438eb3"/><path d="M563.76,547.76l-2,65.63a6.82,6.82,0,0,0,6.73,6.82l16.26.23a6.83,6.83,0,0,0,6.92-6.57l.57-66.52-16-5.23Z" fill="#535729"/><path d="M539.53,489.88v17.65s9.18,21.18,36.71,34.59l-45.53,40.94s-23.65-40.94-26.47-65.65l22.58-24S531.06,487.06,539.53,489.88Z" fill="#fff"/><path d="M611.84,513c-4.82,6.66-16,19.6-35.6,29.15l42.35,37.76a252.45,252.45,0,0,0,20.93-32.44,30.66,30.66,0,0,0-5.93-14.26C627.9,525.86,621.54,515.89,611.84,513Z" fill="#fff9c9"/><path d="M627.41,494.47s-4.23-6.35-12.7-3.53v17.65a46.76,46.76,0,0,1-2.87,4.38c9.7,2.92,16.06,12.89,21.75,20.21a30.66,30.66,0,0,1,5.93,14.26c5.13-9.7,12.33-25.12,13.34-34Z" fill="#d6d1a9"/><circle cx="578.35" cy="569.29" r="7.41"/><circle cx="578.35" cy="604.94" r="7.41"/><path d="M394,983.17c-.12,3.76-.23,7.12-.31,10A17,17,0,0,0,405.83,1010c43.38,13,193.21,50.26,343.49-.86A11.14,11.14,0,0,0,756.86,999c.14-4.33.25-8.76.34-13.26C621.85,1041.16,446.82,998.37,394,983.17Z" fill="#fff9c9"/><path d="M413.14,832.62c-2.63,29.76-7.27,86.13-8.08,120.91a23.72,23.72,0,0,0,16.58,23.19c40.66,12.78,157.07,42.57,308.78,5.59a24,24,0,0,0,18.71-23.42l-.35-39.47c0-4-5.44-8.17-7.88-5-25.25,33.13-254,103-317.37-83.91C421.76,825.33,413.62,827.13,413.14,832.62Z" fill="#5f6333"/><path d="M540.1,508.71c-.38-.75-.57-1.18-.57-1.18V489.88c-8.47-2.82-12.71,3.53-12.71,3.53l-22.58,24c1,8.67,4.54,19.34,8.74,29.53C515.12,530.64,525.07,511.43,540.1,508.71Z" fill="#d6d1a9"/><path d="M576.24,542.12c-23.68-11.53-33.77-28.79-36.14-33.41-15,2.72-25,21.93-27.12,38.23a342.82,342.82,0,0,0,17.73,36.12Z" fill="#fff9c9"/><path d="M652.12,701.65s55.06,2.11,69.88,4.23l2.12-21.17s-61.41-6.36-72-2.12Z" fill="#fff9c9"/><rect width="1262.35" height="2193.94" fill="none"/></g></g></g></svg>