<svg xmlns="http://www.w3.org/2000/svg" width="1262.35" height="2195.18" viewBox="0 0 1262.35 2195.18"><title>2_men_old hair_3</title><g id="Layer_2" data-name="Layer 2"><g id="Character_men02_hair_1-3" data-name="Character_men02_hair 1-3"><g id="_2_men_old_hair_3" data-name="2_men_old hair_3"><path d="M627,172.41c-104.82-51.88-196.94,15.88-196.94,136.24,0,0-11.3-7.77-21.89,5.64,0,0-24.73-51.88-8.82-132.35,16.78-84.83,121.1-131.36,206-92.62A212.56,212.56,0,0,0,670,107.56c17.47,1.94,38.56,10.15,53,35.2,28.94,50.12,12.17,166.76,12.17,166.76s-13.58-6.52-17.82,1.24C717.35,310.76,713.82,172.41,627,172.41Z" fill="#eaeaea"/><path d="M731,277.37a12.71,12.71,0,0,1-5.56-10.86C730.76,118.41,631.23,165,631.23,165c-42.35-42-96.71-37.37-127.44-29.33C423,156.8,415.23,274.06,415.23,274.06c-6.91,4-13.82.54-18.68-3.48,4.06,27.82,11.63,43.71,11.63,43.71,10.58-13.41,21.88-5.64,21.88-5.64,0-120.36,92.12-188.12,196.94-136.24,86.82,0,90.35,138.35,90.35,138.35,4.24-7.76,17.82-1.24,17.82-1.24s1.74-12.11,3.13-30.18A11.11,11.11,0,0,1,731,277.37Z" fill="#b2b2b2"/><path d="M616.71,133.28a3.1,3.1,0,0,0,3.29-5.11c-16.16-15.93-53.63-43-110.92-27.27-21.23,5.85-43.38,18.41-64,43.87-1.88,2.31,1.27,5.45,3.49,3.48C505.19,97.81,586.08,121.51,616.71,133.28Z" fill="#b2b2b2"/><path d="M652.05,134.62c58-25.28,74.81,27.27,81.34,65.49a.88.88,0,0,1-1.7.46c-7.79-20.43-30.4-65-78.94-62.91A1.59,1.59,0,0,1,652.05,134.62Z" fill="#b2b2b2"/><rect width="1262.35" height="2195.18" fill="none"/></g></g></g></svg>