<svg xmlns="http://www.w3.org/2000/svg" width="1262.35" height="2193.94" viewBox="0 0 1262.35 2193.94"><title>2_men_shoes_5</title><g id="Layer_2" data-name="Layer 2"><g id="Layer_148" data-name="Layer 148"><g id="_2_men_shoes_5" data-name="2_men_shoes_5"><rect width="1262.35" height="2193.94" fill="none"/><path d="M249.06,2138.82c0,2.12,13.41,18.36,13.41,18.36l11.29-14.83Z"/><path d="M290.71,2139.53c0,2.12,13.41,18.35,13.41,18.35l11.29-14.82Z"/><path d="M335.88,2140.24c0,2.11,13.41,18.35,13.41,18.35l11.3-14.83Z"/><path d="M376.12,2128.24c0,2.11,20.47,17.64,20.47,17.64l4.23-19.76Z"/><path d="M397.29,2103.53c0,2.12,20.47,17.65,20.47,17.65l4.24-19.77Z"/><path d="M422.71,2082.35c0,2.12,20.47,17.65,20.47,17.65l4.23-19.76Z"/><path d="M458.71,2065.41c0,2.12,20.47,17.65,20.47,17.65l4.23-19.77Z"/><path d="M429.76,2057.65c-24.7,58.59-67.76,67.76-67.76,67.76-80.92,11.78-113.9-6.54-125.91-17.48a36.71,36.71,0,0,0-1.85,9.72c-2.12,43.06,122.11,32.47,148.94,23.29s45.17-53.65,45.17-53.65l7.77-19.76,2.82,22.59c22.59-5.65,45.88-16.94,51.53-29.65,1.87-4.21,1.34-15-.21-27.61C465.46,2057.64,429.76,2057.65,429.76,2057.65Z" fill="#8b5e3c"/><polygon points="428.35 2087.29 438.94 2090.12 436.12 2067.53 428.35 2087.29" fill="#61422a"/><path d="M393.76,2058.35c-3.52-24-38.82-13.41-40.23-21.17s30-55.42,30-55.42a70.06,70.06,0,0,1-5.29-5.29c-10.37,12.82-36,58.59-36,58.59s-14.12-.71-21.18,3.53c0,0-72.27,30.72-85,69.34,12,10.94,45,29.26,125.91,17.48,0,0,11.47-2.44,26-12.86,1.48-4.15,2.28-6.9,2.28-6.9S397.29,2082.35,393.76,2058.35Z" fill="#fff"/><path d="M342.24,2035.06s25.63-45.77,36-58.59c-2.17-2.43-3.52-7.32-7.06-6.35-7.77,2.12-7.77,8.47-7.77,8.47-6.35,8.47-42.35,60-42.35,60C328.12,2034.35,342.24,2035.06,342.24,2035.06Z" fill="#9e7d65"/><path d="M471.87,2046.39a81.07,81.07,0,0,0,8.79-5.44c-20.05-5.42-37.75-19.49-51.07-35.77-8-8.78-7-20.73-2.28-31.29l-1.07-.24a54.83,54.83,0,0,0-6.65-.52C410.23,2007.32,440.63,2033.32,471.87,2046.39Z" fill="#9e7d65"/><path d="M401.59,2058.18c-1.65-12.35-10.76-23.34-23.41-25.72,6.52-19.27,13.63-38.51,22.43-57.36a109.5,109.5,0,0,0-16.73,4.9s-31.76,49.41-30.35,57.18,36.71-2.83,40.23,21.17-3.52,47.3-3.52,47.3-.8,2.75-2.28,6.9a108.16,108.16,0,0,0,13.91-12A154.22,154.22,0,0,0,401.59,2058.18Z" fill="#9e7d65"/><path d="M471.87,2046.39c-31.24-13.07-61.64-39.07-52.28-73.26a85.26,85.26,0,0,0-19,2c-8.8,18.85-15.91,38.09-22.43,57.36,12.65,2.38,21.76,13.37,23.41,25.72a154.22,154.22,0,0,1,.28,42.41c9.83-10,19.84-23.84,27.89-42.94A99.25,99.25,0,0,0,471.87,2046.39Z" fill="#b8957b"/><path d="M479.88,1975.06c-2.12-9.88-8.47-11.3-8.47-11.3-12.57,15.72-38.56,11.29-44.1,10.13-4.76,10.56-1.55,24.23,2.28,31.29,13.32,16.28,31,30.35,51.07,35.77a74.74,74.74,0,0,0,9.6-8.09C487.13,2007.53,479.88,1975.06,479.88,1975.06Z" fill="#fff"/><path d="M380.71,1978.94l-6.36,9.18s26.47-10.94,49.77-6.71,46.59,2.12,52.94-14.12l-7.06-6.35s-5.65,14.12-24.71,13.41S403.29,1968.35,380.71,1978.94Z" fill="#8b5e3c"/><path d="M364.82,1972.24s10.59-6.71,15.89,6.7l-6.36,9.18s.36-13.77-13.06-7.41Z" fill="#8b5e3c"/><path d="M382.47,2001.65a3.92,3.92,0,0,1-2-.53c-12.65-7.23-21.29-2.21-21.37-2.16a4,4,0,1,1-4.12-6.86c.52-.31,12.79-7.45,29.45,2.07a4,4,0,0,1-2,7.48Z" fill="#402b1c"/><path d="M372.58,2016.47a4,4,0,0,1-2-.53c-12.43-7.1-21-2.34-21.4-2.14a4,4,0,0,1-4.08-6.88c.51-.31,12.79-7.45,29.45,2.08a4,4,0,0,1-2,7.47Z" fill="#402b1c"/><path d="M363.76,2030.94a4,4,0,0,1-2-.53c-12.43-7.1-21-2.34-21.41-2.13a4,4,0,0,1-4.08-6.89c.52-.31,12.79-7.44,29.46,2.08a4,4,0,0,1-2,7.47Z" fill="#402b1c"/><path d="M292.12,2064s-17.88,15.06-4.71,29.65,48,30.11,48,30.11-65.41,7.53-90.35-17.41C245.06,2106.35,259.65,2072.94,292.12,2064Z" fill="#c9c9c9"/><path d="M456.36,1990.84c6.43,3,19.35,10,24.85,19.43a1.08,1.08,0,0,0,2-.62c-.66-8.14-2.36-21.57-6.63-32.24a33,33,0,0,1-19.92,11.38A1.08,1.08,0,0,0,456.36,1990.84Z" fill="#c9c9c9"/><path d="M931.77,2145.88c0,2.12-13.75,18.36-13.75,18.36l-11.59-14.83Z"/><path d="M889.06,2146.59c0,2.12-13.75,18.35-13.75,18.35l-11.59-14.82Z"/><path d="M842.73,2147.29c0,2.12-13.75,18.36-13.75,18.36l-11.59-14.83Z"/><path d="M801.47,2135.29c0,2.12-21,17.65-21,17.65l-4.35-19.76Z"/><path d="M779.75,2110.59c0,2.12-21,17.65-21,17.65l-4.35-19.77Z"/><path d="M753.69,2089.41c0,2.12-21,17.65-21,17.65l-4.35-19.77Z"/><path d="M716.77,2072.47c0,2.12-21,17.65-21,17.65l-4.34-19.77Z"/><path d="M746.45,2064.71c25.34,58.58,69.5,67.76,69.5,67.76,83,11.78,116.8-6.54,129.12-17.48a36,36,0,0,1,1.9,9.72c2.17,43.05-125.23,32.47-152.74,23.29s-46.33-53.65-46.33-53.65l-8-19.76-2.9,22.59c-23.16-5.65-47-16.94-52.84-29.65-1.92-4.22-1.38-15,.22-27.61C709.84,2064.7,746.45,2064.71,746.45,2064.71Z" fill="#8b5e3c"/><polygon points="747.9 2094.35 737.04 2097.18 739.94 2074.59 747.9 2094.35" fill="#61422a"/><path d="M783.37,2065.41c3.62-24,39.82-13.41,41.26-21.17s-30.76-55.42-30.76-55.42a71.43,71.43,0,0,0,5.43-5.29c10.63,12.82,36.92,58.59,36.92,58.59s14.47-.71,21.71,3.53c0,0,74.12,30.72,87.14,69.34-12.32,10.94-46.14,29.26-129.12,17.48,0,0-11.76-2.44-26.63-12.86-1.51-4.15-2.33-6.9-2.33-6.9S779.75,2089.41,783.37,2065.41Z" fill="#fff"/><path d="M836.22,2042.12s-26.29-45.77-36.92-58.59c2.22-2.43,3.6-7.32,7.24-6.35,8,2.11,8,8.47,8,8.47,6.51,8.47,43.43,60,43.43,60C850.69,2041.41,836.22,2042.12,836.22,2042.12Z" fill="#9e7d65"/><path d="M703.27,2053.44a85.28,85.28,0,0,1-9-5.43c20.57-5.42,38.72-19.5,52.38-35.77,8.18-8.78,7.22-20.73,2.34-31.3l1.1-.23a55.31,55.31,0,0,1,6.82-.52C766.49,2014.38,735.3,2040.38,703.27,2053.44Z" fill="#9e7d65"/><path d="M775.35,2065.24c1.69-12.36,11-23.34,24-25.72-6.68-19.27-14-38.51-23-57.36a114.4,114.4,0,0,1,17.16,4.9s32.57,49.41,31.12,57.18-37.64-2.83-41.26,21.17,3.62,47.3,3.62,47.3.82,2.75,2.33,6.9a111.11,111.11,0,0,1-14.26-12A150.41,150.41,0,0,1,775.35,2065.24Z" fill="#9e7d65"/><path d="M703.27,2053.44c32-13.06,63.22-39.06,53.62-73.25a89.5,89.5,0,0,1,19.46,2c9,18.85,16.32,38.09,23,57.36-13,2.38-22.31,13.36-24,25.72a150.41,150.41,0,0,0-.29,42.41c-10.08-10-20.35-23.84-28.61-42.94A103.84,103.84,0,0,1,703.27,2053.44Z" fill="#b8957b"/><path d="M695.05,1982.12c2.18-9.88,8.69-11.3,8.69-11.3,12.89,15.72,39.55,11.28,45.23,10.12,4.88,10.57,1.58,24.24-2.34,31.3-13.66,16.27-31.81,30.35-52.38,35.77a75.84,75.84,0,0,1-9.83-8.09C687.62,2014.59,695.05,1982.12,695.05,1982.12Z" fill="#fff"/><path d="M796.76,1986l6.52,9.18s-27.15-10.94-51-6.71-47.77,2.12-54.29-14.12l7.24-6.35s5.79,14.12,25.34,13.41S773.6,1975.41,796.76,1986Z" fill="#8b5e3c"/><path d="M813.05,1979.29s-10.86-6.7-16.29,6.71l6.52,9.18s-.36-13.77,13.39-7.42Z" fill="#8b5e3c"/><path d="M795,2008.71a4,4,0,0,1-2-7.5c17-9.47,29.5-2.38,30-2.07a4,4,0,0,1-4,6.92c-.44-.25-9.33-5-22.12,2.14A4,4,0,0,1,795,2008.71Z" fill="#402b1c"/><path d="M805.09,2023.53a4,4,0,0,1-2-7.5c17-9.47,29.5-2.38,30-2.07a4,4,0,0,1-4,6.92c-.44-.24-9.33-5-22.12,2.14A4,4,0,0,1,805.09,2023.53Z" fill="#402b1c"/><path d="M814.14,2038a4,4,0,0,1-1.95-7.49c17-9.48,29.5-2.39,30-2.08a4,4,0,0,1-4,6.92c-.45-.25-9.34-5-22.13,2.14A3.88,3.88,0,0,1,814.14,2038Z" fill="#402b1c"/><path d="M887.61,2071.06s18.34,15.06,4.83,29.65-49.23,30.11-49.23,30.11,67.08,7.53,92.66-17.41C935.87,2113.41,920.91,2080,887.61,2071.06Z" fill="#c9c9c9"/><path d="M719.18,1997.9c-6.59,3-19.84,10-25.49,19.43a1.11,1.11,0,0,1-2.06-.62c.68-8.14,2.43-21.57,6.8-32.24a34,34,0,0,0,20.43,11.38A1.08,1.08,0,0,1,719.18,1997.9Z" fill="#c9c9c9"/></g></g></g></svg>