<svg xmlns="http://www.w3.org/2000/svg" width="1262.35" height="2193.94" viewBox="0 0 1262.35 2193.94"><title>2_men_pants_11</title><g id="Layer_2" data-name="Layer 2"><g id="Layer_148" data-name="Layer 148"><g id="_2_men_pants_11" data-name="2_men_pants_11"><rect width="1262.35" height="2193.94" fill="none"/><path d="M376.82,1551.53v.32C376.82,1551.91,376.83,1551.81,376.82,1551.53Z"/><path d="M752.71,1007.76c-31.26,14-93.37,27.73-157.06,28-89.49.39-182.09-17.84-196.6-29.68-5.79,23.06-15.52,75.26-21.52,122.63-12.13,95.65-33.59,229.18-50.17,374a35,35,0,0,0,26.94,38.1c52.42,12,132.46,28.72,198.29,7.94,7.76-113,22.45-323.65,23.29-330.36,0,0,33.88,186.28,50.83,324,72,8.47,149.29-3.17,211.76-27.53C811.26,1300.78,776.78,1095.47,752.71,1007.76Z" fill="#4e5b94"/><path d="M376.82,1551.53v.32C376.82,1551.91,376.83,1551.81,376.82,1551.53Z" fill="none"/><path d="M392.35,1129.41S347.18,1502.12,348.59,1512s24,8.47,24,8.47l45.17-410.82Z" fill="#465285"/><path d="M752.32,1116.71s55.09,365.64,53.68,375.53-25.41,9.88-25.41,9.88l-53.68-405.18Z" fill="#465285"/><path d="M563.53,1053.18c7.06,12,6.35,165.17,6.35,165.17l10.59-4.23-4.23-160.94Z" fill="#465285"/><path d="M376.82,1551.53v.32C376.82,1551.91,376.83,1551.81,376.82,1551.53Z" fill="none"/><path d="M626.71,1542.35c-13.57-90.69-31.06-303.34-31.06-307.06,0-5.64,93.17-67.76,93.17-67.76-23.51,8.7-100.68,29.52-120,32.47,0-.14-115.76-38.12-115.76-38.12,21.18,32.47,103.06,76.24,103.06,76.24s2,329.91-3.53,310.59c0,0,11.56-92.86,16.94-201.18,2.57-51.75,2.54-53.87,6.35-76.94C579.24,1295.78,604.2,1446.9,626.71,1542.35Z" fill="#394c6b"/><path d="M376.82,1551.53v.32C376.82,1551.91,376.83,1551.81,376.82,1551.53Z" fill="none"/><path d="M774.94,1101.18c-11.48-.87-31.27-2.2-41.2-7.57-7.33-23.68-9.29-50-11.81-75-2.55.72-5.16,1.44-7.84,2.13,2.09,32.9,7.2,89.73,18.5,95.42,10.61,5.34,40,21,49.41,27.41C781.21,1132.22,775.94,1112,774.94,1101.18Z" fill="#2c3c53"/><path d="M721.93,1018.57c2.52,25,4.48,51.36,11.81,75,9.93,5.37,29.72,6.7,41.2,7.57-8.47-42.36-17-66.62-22.23-93.42A231.77,231.77,0,0,1,721.93,1018.57Z" fill="#394c6b"/><path d="M428.06,1017c-14.64-3.79-24.92-7.63-29-11-5.48,21.82-14.48,69.73-20.52,114.94,12.47-7.67,24.33-17,37.07-24.54C418.35,1069.89,425.6,1043.73,428.06,1017Z" fill="#394c6b"/><path d="M428.06,1017c-2.46,26.69-9.71,52.85-12.46,79.44-12.74,7.58-24.6,16.87-37.07,24.54-.34,2.57-.68,5.14-1,7.69-.9,7.12-1.72,14.55-2.46,22.23,15.94-12,38.25-29.43,42.69-35.65,5.25-7.34,12.05-66.89,15.2-97C431.27,1017.86,429.65,1017.45,428.06,1017Z" fill="#2c3c53"/><path d="M757.9,1034.56c-1.59-9.43-3.31-18.39-5.19-26.8-31.26,14-93.37,27.73-157.06,28-89.49.39-182.09-17.84-196.6-29.68-1.79,7.12-3.95,17-6.27,28.71,30.66,11,94.92,29.48,183.81,30.39A522.58,522.58,0,0,0,757.9,1034.56Z" fill="#fff"/><path d="M376.82,1551.53v.32C376.82,1551.91,376.83,1551.81,376.82,1551.53Z"/><path d="M676.06,1028.75c1.23,9,2.08,18.19,3,27.27q10-1.89,19.89-4.16c-1.13-9-2.44-17.83-3-26.88C689.52,1026.33,682.89,1027.6,676.06,1028.75Z" fill="#4e6494"/><path d="M454.86,1023a253.72,253.72,0,0,0-2.78,28.59q8.24,1.79,17.24,3.45a214.27,214.27,0,0,1,3.69-28.87C466.68,1025.11,460.6,1024.05,454.86,1023Z" fill="#4e6494"/><path d="M376.82,1551.53v.32C376.82,1551.91,376.83,1551.81,376.82,1551.53Z"/><path d="M376.82,1551.53v.32C376.82,1551.91,376.83,1551.81,376.82,1551.53Z"/><path d="M331.12,1470.67q-2.67,22.23-5.22,44.85a20.58,20.58,0,0,0,15.81,22.34c49.41,11.41,135.91,32.68,205.92,14.44a16.57,16.57,0,0,0,12.06-12.94c5.52-29.09,2-46,.23-53.42A659.22,659.22,0,0,1,331.12,1470.67Z" fill="#fff"/><path d="M616.18,1486.59c-2.61,18.44-2.58,36.15,1.41,50.4a21.69,21.69,0,0,0,19.3,15.77c63.37,4.64,136.22-9.42,193.15-29.39a20.09,20.09,0,0,0,13.18-22.08c-2.76-17.46-6.78-36.1-13.06-49.92C762.47,1474.37,687.51,1490.17,616.18,1486.59Z" fill="#fff"/><path d="M431.88,1327.48c-21.6-12.34-80.22-15.43-80.22-15.43a312.88,312.88,0,0,0-13,43.33c28.92,7.26,58.52,10.38,87.58,16.38C429.63,1347.44,431.88,1327.48,431.88,1327.48Z" fill="#6b2a3b"/><path d="M338.63,1355.38q-1.47,6.57-2.54,12.74c29,7.35,59,10.67,88.11,17.53.71-4.71,1.38-9.37,2-13.89C397.15,1365.76,367.55,1362.64,338.63,1355.38Z" fill="#7d84ab"/><path d="M334.69,1443.19c13.88,6.17,74.05,12.34,74.05,12.34,5.34-9.14,11-40.49,15.46-69.88-29.14-6.86-59.07-10.18-88.11-17.53C328,1414.1,334.69,1443.19,334.69,1443.19Z" fill="#2c3c53"/><path d="M734.46,1312.14c20.62-11.78,74.57-16.73,74.57-16.73,5.61,14.75,11.62,30.61,14.44,43.35-27.6,6.93-55.86,9.91-83.6,15.64C736.61,1331.19,734.46,1312.14,734.46,1312.14Z" fill="#6b2a3b"/><path d="M823.47,1338.76q1.39,6.27,2.42,12.17c-27.71,7-56.28,10.17-84.09,16.73-.68-4.5-1.32-9-1.93-13.26C767.61,1348.67,795.87,1345.69,823.47,1338.76Z" fill="#7d84ab"/><path d="M827.23,1422.57c-13.25,5.89-70.68,11.78-70.68,11.78-5.09-8.72-10.54-38.64-14.75-66.69,27.81-6.56,56.38-9.72,84.09-16.73C833.58,1394.81,827.23,1422.57,827.23,1422.57Z" fill="#2c3c53"/></g></g></g></svg>