<svg xmlns="http://www.w3.org/2000/svg" width="1262.35" height="2193.94" viewBox="0 0 1262.35 2193.94"><title>2_men_shirt_10</title><g id="Layer_2" data-name="Layer 2"><g id="Layer_148" data-name="Layer 148"><g id="_2_men_shirt_10" data-name="2_men_shirt_10"><rect width="1262.35" height="2193.94" fill="none"/><polygon points="748.12 734.32 748.12 734.32 748.12 734.32 748.12 734.32" fill="#fff"/><path d="M169.59,829.18c-18.87,7.26-34.06,20.84-46.32,36.54-2.13,8.88-3.89,16.69-4.9,22.09a2.38,2.38,0,0,0,4.18,1.93c16.43-20.09,70.26-75,132.41-21.59a3,3,0,0,0,4.85-1.23c1.65-4.45,3.08-8.71,4.26-12.85C242.16,827,203,816.34,169.59,829.18Z" fill="#818b99"/><path d="M876.59,701.65l-.32-.44C876.23,702,876.32,702.19,876.59,701.65Z" fill="#fff"/><path d="M970.24,666.68c-29.18,14.26-80.24.43-80.24-27.15,0-5.27-3.93,11.07-7.58,28.36,7.1,15.84,25.81,26,43.17,29.29,18.12,3,38,2,53-7.23-.48-7-.92-12.81-1.25-16.9C977.09,669.35,973.57,665.05,970.24,666.68Z" fill="#818b99"/><path d="M978.63,690c-15.08,9.27-34.92,10.25-53,7.23-17.36-3.31-36.07-13.45-43.17-29.29-3.09,14.58-6,29.82-6.15,33.32l.32.44c-.27.54-.36.35-.32-.44l-34.06-46.29c-28.76,25.91-53.46,55.78-77.62,87.26a37.53,37.53,0,0,0-4.9,7.26c15.77,20.38,44.45,56.57,65.3,77.94,36.94,37.87,83.14,77.25,108.77,69.09,7.68-2.44,33.28-13.08,43.77-61.41C984.9,801.08,981.22,727.75,978.63,690Z" fill="#333"/><path d="M295.25,641.21c-1.48,1.45-2.94,2.82-4.34,4-4.39,3.67-74.79,71.61-116.88,113.49A161.84,161.84,0,0,0,131.48,833c-2.84,11-5.77,22.57-8.21,32.73,12.26-15.7,27.45-29.28,46.32-36.54,33.36-12.84,72.57-2.23,94.48,24.89,2.72-9.55,4.1-18.46,3.69-27.48,3.91,2.45,84-55.75,87.63-58.58,8.76-6.82,16.75-13,23.82-18.31C345.7,718.7,312.49,683.44,295.25,641.21Z" fill="#333"/><path d="M267.76,826.59c1.35.36,16-6.16,33-17.63C319.84,796,360.47,766.35,380.64,751q-4.56-4.2-9.1-8.51C331.06,775.16,269.08,825.2,267.76,826.59Z" fill="#262626"/><path d="M796.89,798.06,825,827.38l-61-84.46a35.15,35.15,0,0,0-4.62,7.16C770.38,765.35,786.9,787.63,796.89,798.06Z" fill="#3b3b3b"/><path d="M267.76,826.59s-9.46-35.8-28.87-45.43a1.36,1.36,0,0,1,.66-2.6c12.33.8,34.4,6.06,52.57,31.09Z" fill="#262626"/><path d="M876.59,701.65l-.32-.44C876.23,702,876.32,702.19,876.59,701.65Z" fill="none"/><path d="M870.24,787.41c-10.59-37.06,6.35-85.76,6.35-85.76-1.05-1.4-7.13-9.65-15.67-21.26C839.15,755.31,870.24,787.41,870.24,787.41Z" fill="#262626"/><path d="M575.88,554.47l41.3,40.24s39.48-38.61,41.76-79.88c-2.39-.56-4.46-1-6.08-1.37-7.21-1.53-15.26-2.7-22.13-3.54-12.87,15.86-33.6,31.75-54.49,32.2-18.2.39-37.16-15.49-50.44-29.73l-17.2,5.28-14.87,3.19c4,17.59,13.9,48.63,36.62,74.9Z" fill="#818b99"/><path d="M413.53,724.24l-.09.69C414,724.17,413.53,724.24,413.53,724.24Z" fill="#c7d1de"/><path d="M860.53,664c-27.32-34.87-74.29-85.18-74.29-85.18-15.46-20.09-42.42-35.26-69.63-46.18-.32-.88-30.58-11.13-45.55-14.87-6.64-1.73-12.79-3.17-18.2-4.31-7.21-1.53-15.26-2.7-22.13-3.54-12.87,15.86-33.6,31.75-54.49,32.2-18.2.39-37.16-15.49-50.44-29.73l-17.2,5.28-54.84,11.74-.59,1.18c-50.06,9-91,39.88-117.64,72.88-1.67,2.06-23.86,23.86-51.36,44.95a14.31,14.31,0,0,0-4.87,15.71c13.53,42.38,50.68,79.44,79.55,97.52,3.9,2.44,20-7.77,23.62-10.59,24.25-18.87,29.84-24.47,31-26.13l.09-.69s.42-.07-.09.69c-10.79,79.4-16.86,178.45-19.52,261.8,47.22,16.17,199.61,58.48,363.29-1.64,1.53-77.87-4-178.16-9.09-250.85,0,0,7.24,12.91,15.14,24.07a11.79,11.79,0,0,0,14.86,3.74c30-14.81,65.74-43.27,84.15-81.13A16,16,0,0,0,860.53,664Z" fill="#c7d1de"/><path d="M393.92,986.73c-.21,6.52-.4,13-.57,19.27.11,0,183.13,65.31,363.24.59.28-6.93.48-14.12.62-21.5C593.53,1045.21,441.14,1002.9,393.92,986.73Z" fill="#333"/><path d="M413.53,724.24s2.09-.34-10.95,11.2C417.18,722.78,413.53,724.24,413.53,724.24Z" fill="none"/><path d="M425.76,620.24s-18,66.35-19.88,94.58c0,0-13.12,18.77-36.06,40.3-3.29,3.09-6.07,5.76-8,7.82a10.94,10.94,0,0,0,9.58-1.92c12.66-9.85,23.06-18.51,31.21-25.58,13-11.54,10.95-11.2,10.95-11.2C413.32,725.79,425.76,620.24,425.76,620.24Z" fill="#818b99"/><path d="M748.12,734.24s6.52,13.46,15.14,24.07c7.45,9.16,14.86,3.74,14.86,3.74l-23.88-32.64c-11.52-37.35-17.42-84.23-17.42-84.23Z" fill="#818b99"/><path d="M406.85,647c2.46-.3,3.31-2.74,1.4-4-27.47-11.38-40.18-21.72-58.07-37.54-2.65-1.7-6.63-.77-7.73,1.78C334.12,626.59,344.91,654.74,406.85,647Z" fill="#818b99"/><path d="M409.29,650.8s-39.85,6.17-57.68,1.75c-15.91-3.95-13.75,18.09,2.71,15.35S386.66,662.62,409.29,650.8Z" fill="#818b99"/><path d="M747,649.91a2.3,2.3,0,0,1-2.24-3.54c17.53-17.44,24.13-30.43,33.06-49.94a3.9,3.9,0,0,1,6.42-.08C796.36,613.17,796.51,643,747,649.91Z" fill="#818b99"/><path d="M568.82,546.06l-.66,135.45c0,7.29,1.69,7.24,3.78,7.34l9.12.44c2.08.1,3.8.41,3.88-6.83l.82-134.7-9.48-5.64Z" fill="#333"/><path d="M539.53,489.88v17.65s9.18,21.18,36.71,34.59l-45.53,40.94s-23.65-40.94-26.47-65.65l22.58-24S531.06,487.06,539.53,489.88Z" fill="#fff"/><path d="M611.84,513c-4.82,6.66-16,19.6-35.6,29.15l42.35,37.76a252.45,252.45,0,0,0,20.93-32.44,30.66,30.66,0,0,0-5.93-14.26C627.9,525.86,621.54,515.89,611.84,513Z" fill="#333"/><path d="M627.41,494.47s-4.23-6.35-12.7-3.53v17.65a46.76,46.76,0,0,1-2.87,4.38c9.7,2.92,16.06,12.89,21.75,20.21a30.66,30.66,0,0,1,5.93,14.26c5.13-9.7,12.33-25.12,13.34-34Z" fill="#262626"/><path d="M413.14,838.62c-2.63,29.76-7.27,86.13-8.08,120.91a23.72,23.72,0,0,0,16.58,23.19c40.66,12.78,144.36,49.22,308.78,5.59,10.88-2.88,18.81-12.17,18.71-23.42l-.35-39.47c0-4-5.44-8.17-7.88-5-25.25,33.13-254,103-317.37-83.91C421.76,831.33,413.62,833.13,413.14,838.62Z" fill="#818b99"/><path d="M540.1,508.71c-.38-.75-.57-1.18-.57-1.18V489.88c-8.47-2.82-12.71,3.53-12.71,3.53l-22.58,24c1,8.67,4.54,19.34,8.74,29.53C515.12,530.64,525.07,511.43,540.1,508.71Z" fill="#262626"/><path d="M576.24,542.12c-23.68-11.53-33.77-28.79-36.14-33.41-15,2.72-25,21.93-27.12,38.23a342.82,342.82,0,0,0,17.73,36.12Z" fill="#333"/><polygon points="833.64 625.16 833.64 625.16 833.64 625.16 833.64 625.16"/><path d="M413.53,724.24l-.09.69C414,724.17,413.53,724.24,413.53,724.24Z" fill="none"/><path d="M614,519.53v6.91c2.45-1.94,4.8-4,7-6.08C616.55,519.77,614,519.53,614,519.53Z" fill="#333"/><path d="M859.17,686.9c1.08-2,2.12-4,3.1-6A16,16,0,0,0,860.53,664c-27.32-34.87-74.29-85.18-74.29-85.18-15.46-20.09-42.42-35.26-69.63-46.18-.32-.88-30.58-11.13-45.55-14.87-6.64-1.73-12.79-3.17-18.2-4.31-7.21-1.53-15.26-2.7-22.13-3.54A110.12,110.12,0,0,1,621,520.36c24.2,3.15,104.71,16.33,144,55.64C803.29,614.23,845.32,668.62,859.17,686.9Z" fill="none"/><path d="M765.06,576c-39.31-39.31-119.82-52.49-144-55.64-2.24,2.1-4.59,4.14-7,6.08v11.44c93.18,1.41,142.59,48,142.59,48l94.25,114.45a150.29,150.29,0,0,0,8.33-13.43C845.32,668.62,803.29,614.23,765.06,576Z" fill="#333"/><path d="M374,610.94c11.29-15.53,38.12-36.7,38.12-36.7,52.23-31.06,108.7-26.83,108.7-26.83l-4.23-15.35c-107.3,7.06-144,52.23-153.88,67.76-8.72,13.71-66.9,61.48-80.46,72.53a142.68,142.68,0,0,0,6.34,13.79C303.88,673.74,364.15,624.48,374,610.94Z" fill="#333"/><path d="M649.29,687.53s49.42-8.47,70.59-4.24l1.41,55.06-35.29,24L651.12,740Z" fill="#333"/><path d="M720.59,711l-.29-11.42a227.16,227.16,0,0,0-70.56.67l.32,9.18C673.86,709.51,698,704.8,720.59,711Z" fill="#818b99"/></g></g></g></svg>