<svg xmlns="http://www.w3.org/2000/svg" width="1262.35" height="2193.94" viewBox="0 0 1262.35 2193.94"><title>2_men_pants_9</title><g id="Layer_2" data-name="Layer 2"><g id="Layer_148" data-name="Layer 148"><g id="_2_men_pants_9" data-name="2_men_pants_9"><rect width="1262.35" height="2193.94" fill="none"/><path d="M516.59,1562.18c1.95-.41,3.89-.86,5.82-1.33,12.75-90.55,45-356.87,49.81-387-1.7-46.27-.68-92.14-3.5-138.49-80.34-2.78-156.62-18.6-169.67-29.26-5.79,23.06-15.52,75.26-21.52,122.63-14.62,115.29-14.42,341.79-11.34,425.68,34.35,12.93,72.09,15.79,108.4,15.79C488.59,1569.18,501.59,1565.18,516.59,1562.18Z" fill="#4c9ca9"/><path d="M516.59,1562.18c-15,3-28,7-42,8-36.31,0-74-2.86-108.4-15.79.25,6.87.53,12.79.81,17.61,43.13,16.7,106.49,21.7,151.94,12,.87-5.15,2-13.06,3.47-23.15C520.48,1561.32,518.54,1561.77,516.59,1562.18Z" fill="#367a85"/><path d="M382.23,1594.87l0,.32C382.23,1595.26,382.23,1595.15,382.23,1594.87Z" fill="#4c9ca9"/><path d="M752.71,1007.76c-31.26,14-93.37,27.73-157.06,28-9,0-18-.11-26.93-.42,2.82,46.35,1.8,92.22,3.5,138.49.27-1.68.44-2.75.49-3.12,0,0,48.41,316.76,63.35,395.06,45.78,6.31,93.45.86,139.57-9.47C777.74,1476.36,784.2,1148.54,752.71,1007.76Z" fill="#58b4c5"/><path d="M636.06,1565.77c1.84,9.61,3.17,15.63,3.84,17,39.79,4.1,96.38,2.88,135.48-6l-.26-2.67s.21-6.37.51-17.82C729.51,1566.63,681.84,1572.08,636.06,1565.77Z" fill="#367a85"/><path d="M382.23,1594.87l0,.32C382.23,1595.26,382.23,1595.15,382.23,1594.87Z" fill="none"/><path d="M752.71,1007.76a204.05,204.05,0,0,1-20.53,7.72l21.7-2.27C753.5,1011.38,753.11,1009.55,752.71,1007.76Z" fill="none"/><path d="M367,1572c19,7.35,50.29,11.26,70.18,12.71l-2.09-16c-23.51-1.91-46.9-6.06-68.9-14.34C366.44,1561.26,366.72,1567.18,367,1572Z" fill="#367a85"/><path d="M472.82,1034.82l-17.34-11.75c-29.1-5.5-50.13-11.85-56.43-17-5.79,23.06-15.52,75.26-21.52,122.63-14.62,115.29-14.42,341.79-11.34,425.68,22,8.28,45.39,12.43,68.9,14.34l0-.68C412.52,1377.46,472.82,1034.82,472.82,1034.82Z" fill="#58b4c5"/><path d="M382.23,1594.87l0,.32C382.23,1595.26,382.23,1595.15,382.23,1594.87Z" fill="#43372b"/><path d="M702.94,1584.71c22-.78,51.17-3.08,72.44-7.92l-.26-2.67s.21-6.37.51-17.82a498.48,498.48,0,0,1-73.78,11.27Q702.39,1576.36,702.94,1584.71Z" fill="#367a85"/><path d="M753.88,1013.21l-21.7,2.27a408.9,408.9,0,0,1-56.07,13.26c4.52,47.75,14.65,360.58,25.74,538.83a498.48,498.48,0,0,0,73.78-11.27C777.69,1477.3,783.93,1156.07,753.88,1013.21Z" fill="#4c9ca9"/><path d="M550.47,1051.06c0,1.4.27,43.31,1.72,82.75.5,13.72-.47,30.41.35,41.72a163.72,163.72,0,0,1,19.27,10.65c7.71-1.74,17.54-6,24.19-8.36l-2.69-44.23v-79.71Z" fill="#66cfe1"/><path d="M572.71,1170.71c-.09.66-.55,3.54-1.32,8.28.79.08,1.56.12,2.32.15C573.05,1173.69,572.71,1170.71,572.71,1170.71Z" fill="none"/><path d="M382.23,1594.87l0,.32C382.23,1595.26,382.23,1595.15,382.23,1594.87Z" fill="none"/><path d="M574.73,1179.18l-.6,3.4c.09.74.18,1.5.28,2.29l.06-1.81Z" fill="none"/><path d="M573.71,1179.14l.42,3.44.6-3.4Z" fill="#43372b"/><path d="M633.76,1160.47c-23.51,8.7-43.13,16-62.44,18.93l.07-.41c-34.38-3.25-107-48.17-107-48.17,21.18,32.47,87.53,77.65,87.53,77.65S527,1489.12,518.27,1584.14l.67-.14c8-47.37,40.62-333.5,51.26-397.79,3.35,25.19,47.19,301.14,69.7,396.59-13.56-90.7-55.55-386.15-55.55-389.86C584.35,1187.29,633.76,1160.47,633.76,1160.47Z" fill="#367a85"/><path d="M382.23,1594.87l0,.32C382.23,1595.26,382.23,1595.15,382.23,1594.87Z" fill="none"/><path d="M766.45,1102.53c-11.48-.86-22.78-3.55-32.71-8.92-7.33-23.68-9.29-50-11.81-75-2.55.72-5.16,1.44-7.84,2.13,2.09,32.9,7.2,86.73,18.5,92.42,10.61,5.34,27.14,16.25,36.55,22.64C768.35,1124.45,767.46,1113.35,766.45,1102.53Z" fill="#367a85"/><path d="M721.93,1018.57c2.52,25,4.48,51.36,11.81,75,9.93,5.37,21.23,8.06,32.71,8.92-3.28-35.48-7.75-68-13.74-94.77A231.77,231.77,0,0,1,721.93,1018.57Z" fill="#4c9ca9"/><path d="M428.06,1017c-14.64-3.79-24.92-7.63-29-11-5.48,21.82-14.48,69.73-20.52,114.94,12.47-7.67,24.33-17,37.07-24.54C418.35,1069.89,425.6,1043.73,428.06,1017Z" fill="#4c9ca9"/><path d="M428.06,1017c-2.46,26.69-9.71,52.85-12.46,79.44-12.74,7.58-24.6,16.87-37.07,24.54-.34,2.57-.68,5.14-1,7.69-.9,7.12-1.72,14.55-2.46,22.23,15.94-12,38.25-29.43,42.69-35.65,5.25-7.34,12.05-66.89,15.2-97C431.27,1017.86,429.65,1017.45,428.06,1017Z" fill="#367a85"/><path d="M757.9,1034.56c-1.59-9.43-3.31-18.39-5.19-26.8-31.26,14-93.37,27.73-157.06,28-89.49.39-182.09-17.84-196.6-29.68-1.79,7.12-3.95,17-6.27,28.71,30.66,11,94.92,29.48,183.81,30.39A522.58,522.58,0,0,0,757.9,1034.56Z" fill="#367a85"/><path d="M382.23,1594.87l0,.32C382.23,1595.26,382.23,1595.15,382.23,1594.87Z" fill="#544637"/><path d="M676.06,1028.75c1.23,9,2.08,18.19,3,27.27q10-1.89,19.89-4.16c-1.13-9-2.44-17.83-3-26.88C689.52,1026.33,682.89,1027.6,676.06,1028.75Z" fill="#4c9ca9"/><path d="M454.86,1023a253.72,253.72,0,0,0-2.78,28.59q8.24,1.79,17.24,3.45a214.27,214.27,0,0,1,3.69-28.87C466.68,1025.11,460.6,1024.05,454.86,1023Z" fill="#58b4c5"/><path d="M382.23,1594.87l0,.32C382.23,1595.26,382.23,1595.15,382.23,1594.87Z" fill="#544637"/><path d="M382.23,1594.87l0,.32C382.23,1595.26,382.23,1595.15,382.23,1594.87Z" fill="#544637"/></g></g></g></svg>