<svg xmlns="http://www.w3.org/2000/svg" width="1262.35" height="2195.18" viewBox="0 0 1262.35 2195.18"><title>2_beard_3</title><g id="Layer_2" data-name="Layer 2"><g id="accessories"><g id="_2_beard_3" data-name="2_beard_3"><rect width="1262.35" height="2195.18" fill="none"/><path d="M691.84,425.89c-8.13,9.73-45.18,31.79-87.07,34.52,0,0-16.89,2.87-18.58-11.37a1.39,1.39,0,0,0-2.16-.84c-6.34,4.43-12.48,4.51-18.89,0a1.38,1.38,0,0,0-2.16.85c-1.7,14.22-18.57,11.35-18.57,11.35-38.74-.28-78.59-25.35-87.32-35.19a42.25,42.25,0,0,0-2.93-3.06c-16.14-14.89-20.93-37.28-20.93-37.28,1.17,16.59,0,33.22,5.92,42.36,38.93,60.33,128.2,67.6,135.21,68.08a.6.6,0,0,0,.23,0,.57.57,0,0,0,.22,0c7-.48,96.28-7.75,135.22-68.08,5.9-9.14,4.74-25.77,5.91-42.36,0,0-4.31,20.17-18.55,34.95C695.49,421.81,693.59,423.79,691.84,425.89Z" fill="#170d04"/><path d="M523,410.36c12.46-11.83,53.42-43.51,99.36-.73,1,.91.36,3.1-.78,2.75-13.09-4-48.53-11.94-97.81.71C522.69,413.38,522.09,411.27,523,410.36Z" fill="#170d04"/></g></g></g></svg>