<svg xmlns="http://www.w3.org/2000/svg" width="1262.35" height="2193.94" viewBox="0 0 1262.35 2193.94"><title>2_men_hair_8</title><g id="Layer_2" data-name="Layer 2"><g id="Layer_148" data-name="Layer 148"><g id="_2_men_hair_8" data-name="2_men_hair_8"><rect width="1262.35" height="2193.94" fill="none"/><path d="M406.47,362s15.53,43.18,38.12,68.59c0,0-9.88-16.24-10.59-43.77C434,386.82,411.41,373.29,406.47,362Z" fill="#1f1b09"/><path d="M574.47,153.88s-84.71,35.3-93.18,141.18c0,0-32.47-32.47-9.88-115.77-23.38,49.12-34.14,77.21-40.35,131.3,0,0-25.3-9.18-30.24,18.53,0,0-10.23-28.77-7.06-53.12,0,0-8.47,25.41-15.52,47.29,0,0-1.49-34.82.68-79.13,2.64-53.84,16.27-117.22,68.49-158,77.65-60.71,120-21.18,120-21.18s44.47-36.7,127.06,12.71c74.84,44.77,83.71,218.82,83.71,218.82s-12.77-23.65-21.59-46.59c0,0,0,48-7.77,79.06,0,0-9.58-28.35-30.94-17.76-4.49-48.75-15.62-89.89-54.47-147.42,0,0,24,93.18,1.41,129.89C664.82,293.65,638,175.06,574.47,153.88Z" fill="#1f1b09"/><path d="M707.88,423.53s7.77-26.82,7.77-36.71c0,0,18.35-7.76,27.53-27.53C743.18,359.29,736.82,396.71,707.88,423.53Z" fill="#1f1b09"/><path d="M472.12,80.47s10.59,45.18,67.06,64.94c0,0-54.36-3.53-97.42-42.35C441.76,103.06,455.88,86.82,472.12,80.47Z" fill="#3d3a2f"/><path d="M671.88,76.24s-10.59,45.17-67.06,64.94c0,0,54.36-3.53,97.42-42.36C702.24,98.82,688.12,82.59,671.88,76.24Z" fill="#3d3a2f"/></g></g></g></svg>