<svg xmlns="http://www.w3.org/2000/svg" width="1262.35" height="2193.94" viewBox="0 0 1262.35 2193.94"><title>2_men_shoes_3</title><g id="Layer_2" data-name="Layer 2"><g id="Layer_148" data-name="Layer 148"><g id="_2_men_shoes_3" data-name="2_men_shoes_3"><rect width="1262.35" height="2193.94" fill="none"/><path d="M257.53,2138.82c0,2.12,13.41,18.36,13.41,18.36l11.3-14.83Z"/><path d="M299.18,2139.53c0,2.12,13.41,18.35,13.41,18.35l11.29-14.82Z"/><path d="M345.76,2131.06c0,2.12,13.42,18.35,13.42,18.35l11.29-14.82Z"/><path d="M378.94,2116.24c0,2.11,20.47,17.64,20.47,17.64l4.24-19.76Z"/><path d="M402.94,2091.53c0,2.12,20.47,17.65,20.47,17.65l4.24-19.77Z"/><path d="M430.47,2073.88c0,2.12,20.47,17.65,20.47,17.65l4.24-19.77Z"/><path d="M463.65,2059.06c0,2.12,20.47,17.65,20.47,17.65l4.23-19.77Z"/><path d="M426.75,2079.52c-38,48.1-87.14,59-121.64,59.62l-3.58,0a200.64,200.64,0,0,1-54.27-7.53,19.33,19.33,0,0,0,5.68,8.07c6.68,5,55.75,18.78,113.3,0,15.45-5.05,55.76-29.83,64.23-54.53,0,0,55.65-13.06,65.18-33.18,0,0-.11-2.1-.38-5.69-16.32,16-46.32,24.52-59.72,27.68A15.89,15.89,0,0,0,426.75,2079.52Z" fill="#e8b88b"/><path d="M305.21,2133.14c48.2-1,87.51-20.26,116.84-57.34a21.84,21.84,0,0,1,12.12-7.65c14-3.29,46.82-12.63,60.39-30-.27-2.84-.6-6-1-9.44-26.17,21.73-68,28.24-68,28.24s-7.41,25.41-65.65,55.06-116.47,2.12-116.47,2.12a66.37,66.37,0,0,0,1.63,10.57A196.53,196.53,0,0,0,305.21,2133.14Z" fill="#e8b88b"/><path d="M434.17,2068.15a21.84,21.84,0,0,0-12.12,7.65c-29.33,37.08-68.64,56.37-116.84,57.34a196.53,196.53,0,0,1-60.17-8.45,44.8,44.8,0,0,0,2.22,6.95,200.64,200.64,0,0,0,54.27,7.53l3.58,0c34.5-.65,83.61-11.52,121.64-59.62a15.89,15.89,0,0,1,8.8-5.53c13.4-3.16,43.4-11.69,59.72-27.68-.17-2.2-.4-5-.71-8.17C481,2055.52,448.15,2064.86,434.17,2068.15Z" fill="#fff"/><path d="M359.88,2112c58.24-29.65,65.65-55.06,65.65-55.06s41.85-6.51,68-28.24c-1.84-15.67-5.15-36.3-10.84-52.23l-11.65-12.71s-27.53,20.12-47.65,27.53c0,0-31.76-30.7-58.23-18A336.85,336.85,0,0,1,324.94,2022c-33.11,33.28-78.51,72.19-81.53,92.12C243.41,2114.12,301.65,2141.65,359.88,2112Z" fill="#403830"/><path d="M311.33,2035.4c-30.73,29.8-65.3,61.42-67.92,78.72,0,0,58.24,27.53,116.47-2.12a264.92,264.92,0,0,0,28.26-16.48,144.17,144.17,0,0,0-16.55-38.34C358.68,2035.66,333.92,2035.62,311.33,2035.4Z" fill="#403830"/><path d="M482.12,1975.83l-11.06-12.07s-27.53,20.12-47.65,27.53c0,0-31.76-30.7-58.23-18A336.85,336.85,0,0,1,324.94,2022c-4.36,4.39-8.94,8.87-13.61,13.4,22.59.22,47.35.26,60.26,21.78a144.17,144.17,0,0,1,16.55,38.34c14.37-9.71,23.34-18.37,28.87-25a56,56,0,0,1,27.56-18l.34-.1C441.55,2022.87,456.49,1993.45,482.12,1975.83Z" fill="#664a30"/><path d="M482.71,1976.47l-.59-.64c-25.63,17.62-40.57,47-37.21,76.59,14.39-4.15,34-11.54,48.64-23.72C491.71,2013,488.4,1992.4,482.71,1976.47Z" fill="#403830"/><path d="M324.64,2035.39l21.78,5.94a28.25,28.25,0,0,0,25.91-5.88l51.08-44.16c-20-20.84-33.7-28.57-58.23-18,0,0-27.25,30.45-44.09,50.92A7,7,0,0,0,324.64,2035.39Z" fill="#b5a99e"/><path d="M360.94,2049.24a4.77,4.77,0,0,1-1.18-.15l-36.22-8.82c-6.09-1.28-10.19-3.82-12.17-7.54a10.14,10.14,0,0,1-.59-8.38,5,5,0,0,1,9.37,3.49c0,.42,1.26,1.77,5.51,2.66l.17,0,33.82,8.23,60.53-51.29a4.89,4.89,0,0,1,1.46-.86c.3-.11,30-11.5,46-26.5a5,5,0,1,1,6.84,7.29c-16.1,15.09-43.31,26.21-48.48,28.24l-61.83,52.4A5,5,0,0,1,360.94,2049.24Zm-40.89-21.13h0Zm0,0Zm0,0Z" fill="#807060"/><path d="M367.3,2050.41a3,3,0,0,1-2.61-1.5c-18-31.28-38.24-29.95-38.44-29.92a3,3,0,0,1-1.4-5.76c1.43-.59,30.69-12.43,55.06-1.18-7.06-10.3-17.45-22.49-26.9-24.15a3,3,0,0,1,.09-5.93c1.83-.26,45.14-6.33,66.08,14.61a3,3,0,0,1-4.24,4.25c-12.74-12.74-35.94-14.19-49.76-13.77,14.58,10.39,26.39,32.38,27,33.53a3,3,0,0,1-4.67,3.63c-15-13.68-36.35-11.73-49.23-8.79,8.71,3.41,20.67,11.49,31.61,30.48a3,3,0,0,1-2.59,4.5Z"/><path d="M381.06,2035.59a3,3,0,0,1-1.05-.19c-41.46-15.44-63.89-2.49-64.12-2.35a3,3,0,0,1-3.08-5.15c.92-.55,21-12.14,57.82-1.87-12-12.31-25.9-25.51-29.57-26.56a3,3,0,0,1-2.14-3.35,3,3,0,0,1,3.07-2.53c7,.26,34.32,1.5,52.07,5.51-11.13-10.61-24.21-21.81-29.47-22.86a3,3,0,1,1,1.17-5.89c10.91,2.18,38.23,30,42.58,34.44.14.14.27.27.39.41a3,3,0,0,1-4.42,4.06l-.38-.39c-4.72-4.3-30.2-7.42-51.73-8.76,11.21,9.43,27.07,26.19,31.05,30.43a3,3,0,0,1-2.19,5Z"/><path d="M917.53,2144.47c0,2.12-13.41,18.35-13.41,18.35L892.82,2148Z"/><path d="M875.88,2145.18c0,2.11-13.41,18.35-13.41,18.35l-11.29-14.82Z"/><path d="M829.29,2136.71c0,2.11-13.41,18.35-13.41,18.35l-11.29-14.82Z"/><path d="M796.12,2121.88c0,2.12-20.47,17.65-20.47,17.65l-4.24-19.77Z"/><path d="M772.12,2097.18c0,2.11-20.47,17.64-20.47,17.64l-4.24-19.76Z"/><path d="M744.59,2079.53c0,2.12-20.47,17.65-20.47,17.65l-4.24-19.77Z"/><path d="M711.41,2064.71c0,2.11-20.47,17.64-20.47,17.64l-4.23-19.76Z"/><path d="M752.75,2089.79c39.64,45.86,90.8,53.85,126.75,52.47,1.25-.05,2.5-.11,3.74-.18a223.45,223.45,0,0,0,56.54-10.72,20.86,20.86,0,0,1-5.92,8.4c-7,5.4-58.08,20.06-118.05,4.66-16.1-4.14-58.1-24.55-66.93-48.76,0,0-58-9.79-67.91-29.34,0,0,.11-2.11.39-5.71,17,15,48.26,21.79,62.23,24.16A15.47,15.47,0,0,1,752.75,2089.79Z" fill="#e8b88b"/><path d="M879.4,2136.26c-50.23,1.87-91.19-15.11-121.74-50.47a21.39,21.39,0,0,0-12.64-6.94c-14.57-2.47-48.78-9.87-62.92-26.45.28-2.87.63-6.07,1-9.51,27.27,20.2,70.88,24.25,70.88,24.25s7.72,25,68.4,51.2,121.36-4.73,121.36-4.73a65.59,65.59,0,0,1-1.69,10.66A218.57,218.57,0,0,1,879.4,2136.26Z" fill="#e8b88b"/><path d="M745,2078.85a21.39,21.39,0,0,1,12.64,6.94c30.55,35.36,71.51,52.34,121.74,50.47a218.57,218.57,0,0,0,62.7-12,46.54,46.54,0,0,1-2.32,7.09,223.45,223.45,0,0,1-56.54,10.72c-1.24.07-2.49.13-3.74.18-36,1.38-87.11-6.61-126.75-52.47a15.47,15.47,0,0,0-9.16-5c-14-2.37-45.23-9.13-62.23-24.16.18-2.22.42-5,.74-8.21C696.24,2069,730.45,2076.38,745,2078.85Z" fill="#fff"/><path d="M822.43,2118.34c-60.68-26.23-68.4-51.2-68.4-51.2s-43.61-4-70.88-24.25c1.92-15.78,5.37-36.59,11.3-52.86l12.14-13.39s28.68,18.5,49.64,24.73c0,0,33.1-32.58,60.68-21.43a313,313,0,0,0,41.93,46.34c34.5,31.33,81.8,67.58,84.95,87.33C943.79,2113.61,883.11,2144.56,822.43,2118.34Z" fill="#403830"/><path d="M873,2038.88c32,28,68,57.58,70.77,74.73,0,0-60.68,30.95-121.36,4.73A259.94,259.94,0,0,1,793,2103.52a150.48,150.48,0,0,1,17.24-39.32C823.69,2041.93,849.48,2040.44,873,2038.88Z" fill="#403830"/><path d="M695.07,1989.35l11.52-12.71s28.68,18.5,49.64,24.73c0,0,33.1-32.58,60.68-21.43a313,313,0,0,0,41.93,46.34c4.55,4.13,9.32,8.35,14.18,12.6-23.54,1.56-49.33,3-62.79,25.32A150.48,150.48,0,0,0,793,2103.52c-15-8.87-24.32-17-30.09-23.31a54.48,54.48,0,0,0-28.71-16.37l-.35-.08C737.33,2034,721.77,2005.47,695.07,1989.35Z" fill="#664a30"/><path d="M694.45,1990l.62-.68c26.7,16.12,42.26,44.65,38.77,74.41-15-3.31-35.41-9.55-50.69-20.87C685.07,2027.11,688.52,2006.3,694.45,1990Z" fill="#403830"/><path d="M859.15,2039.66l-22.69,7.22a29.49,29.49,0,0,1-27-4.36l-53.23-41.15c20.82-22,35.12-30.56,60.68-21.43,0,0,28.39,28.85,45.94,48.33C866.21,2032,864.25,2038,859.15,2039.66Z" fill="#b5a99e"/><path d="M818,2054.64l-64.43-48.76c-5.38-1.73-33.73-11.25-50.51-25.4a4.84,4.84,0,0,1-.23-7,5.4,5.4,0,0,1,7.36-.64c16.68,14.06,47.62,23.7,47.93,23.8a4.84,4.84,0,0,1,1.52.77l63.07,47.74,35.25-10.23.17,0c4.43-1.14,5.75-2.57,5.74-3a5.21,5.21,0,0,1,3-6.4,5,5,0,0,1,6.78,2.36,9.79,9.79,0,0,1-.61,8.42c-2.07,3.83-6.33,6.61-12.68,8.25l-37.74,11a5.89,5.89,0,0,1-1.23.22A5.15,5.15,0,0,1,818,2054.64Zm46-22.52h0Zm0,0h0Zm0,0Z" fill="#807060"/><path d="M814.7,2057.19a3.37,3.37,0,0,0,2.72-1.66c18.77-32.34,39.84-32.2,40.05-32.18a3.33,3.33,0,0,0,3.3-2.46,2.79,2.79,0,0,0-1.84-3.38c-1.49-.51-32-10.63-57.37,2.06,7.36-10.72,18.18-23.52,28-25.74a3.26,3.26,0,0,0,2.59-3.14,2.85,2.85,0,0,0-2.68-2.78c-1.91-.16-47-3.68-68.86,18.5a2.91,2.91,0,0,0,0,4.24,3.23,3.23,0,0,0,4.42-.25c13.28-13.49,37.46-16.3,51.85-16.69-15.19,11.25-27.49,33.93-28.13,35.12a2.83,2.83,0,0,0,.84,3.73,3.27,3.27,0,0,0,4-.38c15.61-14.56,37.86-13.87,51.29-11.68-9.08,3.92-21.54,12.7-32.94,32.34a2.83,2.83,0,0,0,1.15,4A3,3,0,0,0,814.7,2057.19Z"/><path d="M800.37,2043.17a3.31,3.31,0,0,0,1.09-.25c43.2-17.87,66.58-6.24,66.81-6.12a3.31,3.31,0,0,0,4.28-1.28,2.83,2.83,0,0,0-1.07-4c-1-.5-21.86-10.91-60.24,1.53,12.53-13,27-27,30.8-28.29a3.2,3.2,0,0,0,2.23-3.49,2.9,2.9,0,0,0-3.2-2.34c-7.31.67-35.76,3.51-54.25,8.56,11.6-11.26,25.23-23.23,30.71-24.59a3.2,3.2,0,0,0,2.45-3.67,2.94,2.94,0,0,0-3.68-2.14c-11.36,2.82-39.83,32.21-44.36,36.94-.14.14-.28.28-.41.43a2.9,2.9,0,0,0,.24,4.17,3.24,3.24,0,0,0,4.36-.37l.4-.42c4.92-4.57,31.48-9.19,53.91-11.79-11.68,10.09-28.21,27.77-32.36,32.25a3,3,0,0,0-.32,3.73A3,3,0,0,0,800.37,2043.17Z"/></g></g></g></svg>