<svg xmlns="http://www.w3.org/2000/svg" width="1262.35" height="2195.18" viewBox="0 0 1262.35 2195.18"><title>2_beard_2</title><g id="Layer_2" data-name="Layer 2"><g id="accessories"><g id="_2_beard_2" data-name="2_beard_2"><path d="M581.81,480.29H562.66c-39.93-4.38-73.83-29.44-80.28-48.18a30.1,30.1,0,0,0-.72,13.55c4.15,18.92,39.3,46.06,81,50.63h19.15c41.7-4.57,76.85-31.71,81-50.63a30.1,30.1,0,0,0-.72-13.55C655.64,450.85,621.74,475.91,581.81,480.29Z" fill="#6e3d12"/><path d="M622.75,377.85c-2.88-1.26-6.82-.92-11.22.37-8.82,2.59-19.52,9-27.38,14.32a2.42,2.42,0,0,0,1.83,4.39c9.12-2.16,20.85-4.2,27.23-2.34,6.93,2,11.76,15.71,14.71,26.75.61,2.3,1.14,4.49,1.59,6.43a12.53,12.53,0,0,1-4.71,12.93c-7.74,5.69-20.63,16.84-28.86,16.28-12.4-.84-6.68-8.8-6.68-8.8-4.35,1.52-11.3,2.26-17,2.66-5.73-.4-12.68-1.14-17-2.66,0,0,5.72,8-6.68,8.8-8.23.56-21.12-10.59-28.86-16.28A12.53,12.53,0,0,1,515,427.77c.45-1.94,1-4.13,1.6-6.43,2.94-11,7.77-24.72,14.7-26.75,6.38-1.86,18.11.18,27.23,2.34a2.42,2.42,0,0,0,1.83-4.39c-7.86-5.29-18.56-11.73-27.38-14.32-4.4-1.29-8.34-1.63-11.22-.37-10.9,4.79-33.86,32.43-39.34,54.26,6.45,18.74,40.35,43.8,80.28,48.18h19.15c39.93-4.38,73.83-29.44,80.28-48.18C656.61,410.28,633.65,382.64,622.75,377.85Z" fill="#a35c1c"/><rect width="1262.35" height="2195.18" fill="none"/></g></g></g></svg>