<svg xmlns="http://www.w3.org/2000/svg" width="1262.35" height="2193.94" viewBox="0 0 1262.35 2193.94"><title>2_men_shirt_7</title><g id="Layer_2" data-name="Layer 2"><g id="Layer_148" data-name="Layer 148"><g id="_2_men_shirt_7" data-name="2_men_shirt_7"><rect width="1262.35" height="2193.94" fill="none"/><polygon points="748.12 734.32 748.12 734.32 748.12 734.32 748.12 734.32" fill="#fff"/><path d="M169.59,829.18c-18.87,7.26-34.06,20.84-46.32,36.54-2.13,8.88-3.89,16.69-4.9,22.09a2.38,2.38,0,0,0,4.18,1.93c16.43-20.09,70.26-75,132.41-21.59a3,3,0,0,0,4.85-1.23c1.65-4.45,3.08-8.71,4.26-12.85C242.16,827,203,816.34,169.59,829.18Z" fill="#b6ecf0"/><path d="M876.59,701.65l-.32-.44C876.23,702,876.32,702.19,876.59,701.65Z" fill="#fff"/><path d="M970.24,666.68c-29.18,14.26-80.24.43-80.24-27.15,0-5.27-3.93,11.07-7.58,28.36,7.1,15.84,25.81,26,43.17,29.29,18.12,3,38,2,53-7.23-.48-7-.92-12.81-1.25-16.9C977.09,669.35,973.57,665.05,970.24,666.68Z" fill="#b6ecf0"/><path d="M925.59,697.18c-17.36-3.31-36.07-13.45-43.17-29.29-3.09,14.58-6,29.82-6.15,33.32l.32.44c-.27.54-.36.35-.32-.44l-90-122.39c-28.79-37.42-97.42-57.76-133.38-65.36-7.21-1.53-15.26-2.7-22.13-3.54-12.87,15.86-33.6,31.75-54.49,32.2-18.2.39-37.16-15.49-50.44-29.72h0l-17.2,5.27-38.25,10.74h0c-57.88,4.24-105.17,38.35-134.82,75.06-1,1.22-13.21,12.67-28.5,26-4.84,4.22-10.86,11.35-16.12,15.73-4.39,3.67-74.79,71.61-116.88,113.49A161.84,161.84,0,0,0,131.48,833c-2.84,11-5.77,22.57-8.21,32.73,12.26-15.7,27.45-29.28,46.32-36.54,33.36-12.84,72.57-2.23,94.48,24.89,2.72-9.55,4.1-18.46,3.69-27.48,3.91,2.45,84-55.75,87.63-58.58,35.33-27.5,58.14-43.77,58.14-43.77C401,816.43,395.93,927,394.18,977.84a36.44,36.44,0,0,0,27.14,36.5c57.91,15.29,197.12,41.89,335.27-7.75,4.18-104.47-8.14-267.91-8.47-272.27h0s46.66,62.1,76.87,93.06c36.94,37.87,83.14,77.25,108.77,69.09,7.68-2.44,33.28-13.08,43.77-61.41,7.37-34,3.69-107.31,1.1-145.11C963.55,699.22,943.71,700.2,925.59,697.18Z" fill="#91bdbf"/><path d="M413.53,724.24s-8.91,8.66-21.95,20.2C406.18,731.78,413.53,724.24,413.53,724.24Z" fill="none"/><path d="M425.76,620.24s-18,66.35-19.88,94.58c0,0-136.15,109.71-138.12,111.77,1.35.36,16-6.16,33-17.63,24.17-16.36,82.71-59.45,90.86-66.52,13-11.54,21.95-18.2,21.95-18.2C413.32,725.79,425.76,620.24,425.76,620.24Z" fill="#617f80"/><path d="M748.12,734.24s32.76,47.11,48.77,63.82L825,827.38l-70.75-98c-11.52-37.35-17.42-84.23-17.42-84.23Z" fill="#617f80"/><path d="M406.85,647c2.46-.3,3.31-2.74,1.4-4-27.47-11.38-40.18-21.72-58.07-37.54-2.65-1.7-6.63-.77-7.73,1.78C334.12,626.59,344.91,654.74,406.85,647Z" fill="#617f80"/><path d="M409.29,650.8s-39.85,6.17-57.68,1.75c-15.91-3.95-13.75,18.09,2.71,15.35S386.66,662.62,409.29,650.8Z" fill="#617f80"/><path d="M747,649.91a2.3,2.3,0,0,1-2.24-3.54c17.53-17.44,24.13-30.43,33.06-49.94a3.9,3.9,0,0,1,6.42-.08C796.36,613.17,796.51,643,747,649.91Z" fill="#617f80"/><path d="M876.59,701.65l-.32-.44C876.23,702,876.32,702.19,876.59,701.65Z" fill="none"/><path d="M534.26,592.22a61.64,61.64,0,0,0,44.09,12.72,72.32,72.32,0,0,0,36-13l-38.49-37.5Z" fill="#91bdbf"/><path d="M657.37,514.46l-.1,0,.1,0Z" fill="#5ba4dd"/><path d="M655.75,514.09l1.43.33Z" fill="#5ba4dd"/><path d="M654.38,513.79l1.19.26Z" fill="#5ba4dd"/><path d="M652.86,513.46l1.26.27Z" fill="#5ba4dd"/><path d="M493.73,520.86l14.87-3.19-16.22,3.48A200,200,0,0,0,503,550.27,195,195,0,0,1,493.73,520.86Z" fill="#5ba4dd"/><path d="M657.18,514.42l.09,0Z" fill="#438eb3"/><path d="M654.12,513.73l.26.06Z" fill="#438eb3"/><path d="M655.57,514.05l.18,0Z" fill="#438eb3"/><path d="M503,550.27c7.08,15.35,17.17,31.23,31.25,42l41.62-37.75L614.37,592c28.6-20.18,39.29-58.21,43-77.51l-.1,0-.09,0-1.43-.33-.18,0-1.19-.26-.26-.06-1.26-.27c-7.21-1.53-15.26-2.7-22.13-3.54-12.87,15.86-33.6,31.75-54.49,32.2-18.2.39-37.16-15.49-50.44-29.73l-17.2,5.28-14.87,3.19A195,195,0,0,0,503,550.27Z" fill="#617f80"/><path d="M658.94,514.82l-1.57-.36h0Z" fill="#5ba4dd"/><polygon points="658.93 514.82 658.94 514.83 658.94 514.83 658.93 514.82" fill="#438eb3"/><path d="M563.76,547.76l-2,65.63a6.82,6.82,0,0,0,6.73,6.82l16.26.23a6.83,6.83,0,0,0,6.92-6.57l.57-66.52-16-5.23Z" fill="#556f70"/><path d="M539.53,489.88v17.65s9.18,21.18,36.71,34.59l-45.53,40.94s-23.65-40.94-26.47-65.65l22.58-24S531.06,487.06,539.53,489.88Z" fill="#fff"/><path d="M611.84,513c-4.82,6.66-16,19.6-35.6,29.15l42.35,37.76a252.45,252.45,0,0,0,20.93-32.44,30.66,30.66,0,0,0-5.93-14.26C627.9,525.86,621.54,515.89,611.84,513Z" fill="#b6ecf0"/><path d="M627.41,494.47s-4.23-6.35-12.7-3.53v17.65a46.76,46.76,0,0,1-2.87,4.38c9.7,2.92,16.06,12.89,21.75,20.21a30.66,30.66,0,0,1,5.93,14.26c5.13-9.7,12.33-25.12,13.34-34Z" fill="#91bdbf"/><circle cx="578.35" cy="569.29" r="7.41" fill="#354042"/><circle cx="578.35" cy="604.94" r="7.41" fill="#354042"/><path d="M394,983.17c-.12,3.76-.23,7.12-.31,10A17,17,0,0,0,405.83,1010c43.38,13,193.21,50.26,343.49-.86A11.14,11.14,0,0,0,756.86,999c.14-4.33.25-8.76.34-13.26C621.85,1041.16,446.82,998.37,394,983.17Z" fill="#a6495a"/><path d="M757.2,985.69c2.06-105.51-9.08-251.45-9.08-251.45-12.9-104.46-21.39-176.73-32.47-204.12-8.95-3-23.68-7-37-10.43-5.18,33.94-25.31,111.06-101.33,110s-98.77-72.84-105.06-104.19l-18.47,3.95c-35.29,68.47-40.23,194.83-40.23,194.83-13,95.56-17.95,210.82-19.53,258.93C446.82,998.37,621.85,1041.16,757.2,985.69Z" fill="#7d3744"/><path d="M658.94,514.83h0l-1.57-.36c-3.71,19.3-14.4,57.33-43,77.51a72.32,72.32,0,0,1-36,13,61.64,61.64,0,0,1-44.09-12.72c-14.08-10.72-24.17-26.6-31.25-42-4.88-10.59-7-21.21-9.28-29.41l-21.5,4.6c6.29,31.35,29,103.08,105.06,104.19s96.15-76,101.33-110C671.23,517.79,664.27,516.07,658.94,514.83Z" fill="#a6495a"/><path d="M413.14,832.62c-2.63,29.76-7.27,86.13-8.08,120.91a23.72,23.72,0,0,0,16.58,23.19c40.66,12.78,157.07,42.57,308.78,5.59a24,24,0,0,0,18.71-23.42l-.35-39.47c0-4-5.44-8.17-7.88-5-25.25,33.13-254,103-317.37-83.91C421.76,825.33,413.62,827.13,413.14,832.62Z" fill="#70313d"/><path d="M540.1,508.71c-.38-.75-.57-1.18-.57-1.18V489.88c-8.47-2.82-12.71,3.53-12.71,3.53l-22.58,24c1,8.67,4.54,19.34,8.74,29.53C515.12,530.64,525.07,511.43,540.1,508.71Z" fill="#91bdbf"/><path d="M576.24,542.12c-23.68-11.53-33.77-28.79-36.14-33.41-15,2.72-25,21.93-27.12,38.23a342.82,342.82,0,0,0,17.73,36.12Z" fill="#b6ecf0"/><path d="M870.24,787.41c-10.59-37.06,6.35-85.76,6.35-85.76-1.05-1.4-7.13-9.65-15.67-21.26C839.15,755.31,870.24,787.41,870.24,787.41Z" fill="#617f80"/><polygon points="650.71 698.82 719.88 697.41 721.29 714.35 650.71 714.35 650.71 698.82" fill="#91bdbf"/><path d="M267.76,826.59s-9.46-35.8-28.87-45.43a1.36,1.36,0,0,1,.66-2.6c12.33.8,34.4,6.06,52.57,31.09Z" fill="#617f80"/></g></g></g></svg>