<svg xmlns="http://www.w3.org/2000/svg" width="1262.35" height="2195.18" viewBox="0 0 1262.35 2195.18"><title>2_beard_6</title><g id="Layer_2" data-name="Layer 2"><g id="accessories"><g id="_2_beard_6" data-name="2_beard_6"><path d="M617.68,403.6a56.85,56.85,0,0,0-9.8-8.42c-36.46,17.19-59,5.5-67.14-.4a57.24,57.24,0,0,0-10.66,9.36,3.72,3.72,0,0,0,2.9,6.19c18.94-.61,67.59-2,81.72-.74A3.59,3.59,0,0,0,617.68,403.6Z" fill="#b85c0b"/><path d="M607.88,395.18c-7.78-5.25-19-9.94-34.59-9.94-14.38,0-25,4.44-32.55,9.54C548.84,400.68,571.42,412.37,607.88,395.18Z" fill="#d96e11"/><rect width="1262.35" height="2195.18" fill="none"/></g></g></g></svg>