<svg xmlns="http://www.w3.org/2000/svg" width="1262.35" height="2193.94" viewBox="0 0 1262.35 2193.94"><title>2_men_shirt_9</title><g id="Layer_2" data-name="Layer 2"><g id="Layer_148" data-name="Layer 148"><g id="_2_men_shirt_9" data-name="2_men_shirt_9"><rect width="1262.35" height="2193.94" fill="none"/><path d="M300.83,634.83c-8.95,7.67-18.61,15.65-27.66,22.59a14.31,14.31,0,0,0-4.87,15.71c13.53,42.38,50.68,79.44,79.55,97.52a10.93,10.93,0,0,0,12.52-.63c10.38-8.07,19.23-15.34,26.58-21.6C347,723,314.78,680.41,300.83,634.83Z" fill="#423b35"/><path d="M853,653.36c-28.28-33.66-66.73-74.54-66.73-74.54-15.46-20.09-42.42-35.26-69.63-46.18-.32-.88-30.58-11.13-45.55-14.87-6.64-1.73-12.79-3.17-18.2-4.31-7.21-1.53-15.26-2.7-22.13-3.54-12.87,15.86-33.6,31.75-54.49,32.2-18.2.39-37.16-15.49-50.44-29.73l-17.2,5.28-54.84,11.74-.59,1.18c-50.06,9-91,39.88-117.64,72.88-1.12,1.38-16.44,15.71-34.7,31.36C314.78,680.41,347,723,387,748.42c17.68-15,26.58-24.18,26.58-24.18C401.84,810,395.66,918.78,393.35,1006c.11,0,183.13,65.31,363.24.59,3.2-80.11-2.87-192.77-8.47-272.35l7.21,10.28C796.37,724.61,825.82,689.52,853,653.36Z" fill="#cfab0c"/><path d="M853,653.36c-27.15,36.16-56.6,71.25-97.64,91.16,4.37,6.22,9.86,14,13.93,19.79a11.79,11.79,0,0,0,14.86,3.74c30-14.81,65.74-43.27,84.15-81.13A16,16,0,0,0,866.53,670C862.48,664.84,857.88,659.21,853,653.36Z" fill="#423b35"/><path d="M413.14,855.62c-2.63,29.76-7.27,86.13-8.08,120.91a23.72,23.72,0,0,0,16.58,23.19c40.66,12.78,144.36,49.22,308.78,5.59,10.88-2.88,18.81-12.17,18.71-23.42l-.35-39.47c0-4-5.44-8.17-7.88-5-25.25,33.13-254,103-317.37-83.91C421.76,848.33,413.62,850.13,413.14,855.62Z" fill="#ad7c0a"/><path d="M423.53,853.55q1.73,5.07,3.61,9.88C537.75,758.23,654.68,659.24,779.5,571.1c-15-15.45-36.83-27.64-59.15-36.93C605.22,607,505.52,700.7,405.7,792.88c-3.05,32-5.51,65.34-7.46,98.31q6.45-6.26,12.93-12.48c.71-8.65,1.39-16.52,2-23.09C413.62,850.13,421.76,848.33,423.53,853.55Z" fill="#c7b7a7"/><path d="M511,1021.39l-8.72,8.54a632.92,632.92,0,0,0,90.92,5.18l8.76-9.49A487.41,487.41,0,0,1,511,1021.39Z" fill="#c7b7a7"/><path d="M751.56,787.16c-66,60.39-129,123.82-192.58,186.93,30.89,5.87,62.52,4.78,90.67.1,35.3-38,70.64-76,105.59-114.45C754.22,835,752.94,810.43,751.56,787.16Z" fill="#c7b7a7"/><path d="M423.53,853.55c-1.77-5.22-9.91-3.42-10.39,2.07-.58,6.57-1.26,14.44-2,23.09q7.95-7.66,16-15.28Q425.27,858.62,423.53,853.55Z" fill="#a19487"/><path d="M559,974.09q-23.9,23.71-48,47.3a487.41,487.41,0,0,0,91,4.23q23.78-25.77,47.66-51.43C621.5,978.87,589.87,980,559,974.09Z" fill="#a19487"/><path d="M575.88,554.47l41.3,40.24s39.48-38.61,41.76-79.88c-2.39-.56-4.46-1-6.08-1.37-7.21-1.53-15.26-2.7-22.13-3.54-12.87,15.86-33.6,31.75-54.49,32.2-18.2.39-37.16-15.49-50.44-29.73l-17.2,5.28-14.87,3.19c4,17.59,13.9,48.63,36.62,74.9Z" fill="#ad7c0a"/><path d="M413.53,724.24s-8.91,8.66-21.95,20.2C406.18,731.78,413.53,724.24,413.53,724.24Z" fill="none"/><path d="M413.53,724.24c-.21,1.55,12.23-104,12.23-104s-18,66.35-19.88,94.58c0,0-11.56,13.31-26.29,28.65,2.42,1.71,4.87,3.37,7.35,4.95,1.61-1.37,3.17-2.71,4.64-4C404.62,732.9,413.53,724.24,413.53,724.24Z" fill="#ad7c0a"/><path d="M358.82,764.12c-3.29,3.09-6.07,5.76-8,7.82a10.94,10.94,0,0,0,9.58-1.92c10.39-8.08,19.23-15.34,26.57-21.6-2.48-1.58-4.93-3.24-7.35-4.95C373.05,750.28,365.88,757.49,358.82,764.12Z" fill="#211d1a"/><path d="M769.26,764.31c7.45,9.16,14.86,3.74,14.86,3.74L762.88,740.6c-2.57,1.41-5.18,2.78-7.85,4.07C759.3,751,764.8,758.83,769.26,764.31Z" fill="#211d1a"/><path d="M736.82,645.18l11.3,89.06s2.92,4.54,6.91,10.43c2.67-1.29,5.28-2.66,7.85-4.07l-8.64-11.19C742.72,692.06,736.82,645.18,736.82,645.18Z" fill="#ad7c0a"/><path d="M406.85,647c2.46-.3,3.31-2.74,1.4-4-27.47-11.38-40.18-21.72-58.07-37.54-2.65-1.7-6.63-.77-7.73,1.78C334.12,626.59,344.91,654.74,406.85,647Z" fill="#ad7c0a"/><path d="M409.29,650.8s-39.85,6.17-57.68,1.75c-15.91-3.95-13.75,18.09,2.71,15.35S386.66,662.62,409.29,650.8Z" fill="#ad7c0a"/><path d="M747,649.91a2.3,2.3,0,0,1-2.24-3.54c17.53-17.44,24.13-30.43,33.06-49.94a3.9,3.9,0,0,1,6.42-.08C796.36,613.17,796.51,643,747,649.91Z" fill="#ad7c0a"/><path d="M563.76,547.76l-2,65.63a6.82,6.82,0,0,0,6.73,6.82l16.26.23a6.83,6.83,0,0,0,6.92-6.57l.57-66.52-16-5.23Z" fill="#423b35"/><path d="M539.53,489.88v17.65s9.18,21.18,36.71,34.59l-45.53,40.94s-23.65-40.94-26.47-65.65l22.58-24S531.06,487.06,539.53,489.88Z" fill="#fff"/><path d="M611.84,513c-4.82,6.66-16,19.6-35.6,29.15l42.35,37.76a252.45,252.45,0,0,0,20.93-32.44,30.66,30.66,0,0,0-5.93-14.26C627.9,525.86,621.54,515.89,611.84,513Z" fill="#423b35"/><path d="M627.41,494.47s-4.23-6.35-12.7-3.53v17.65a46.76,46.76,0,0,1-2.87,4.38c9.7,2.92,16.06,12.89,21.75,20.21a30.66,30.66,0,0,1,5.93,14.26c5.13-9.7,12.33-25.12,13.34-34Z" fill="#211d1a"/><circle cx="578.35" cy="569.29" r="7.41" fill="#c7b7a7"/><circle cx="578.35" cy="604.94" r="7.41" fill="#c7b7a7"/><path d="M540.1,508.71c-.38-.75-.57-1.18-.57-1.18V489.88c-8.47-2.82-12.71,3.53-12.71,3.53l-22.58,24c1,8.67,4.54,19.34,8.74,29.53C515.12,530.64,525.07,511.43,540.1,508.71Z" fill="#211d1a"/><path d="M576.24,542.12c-23.68-11.53-33.77-28.79-36.14-33.41-15,2.72-25,21.93-27.12,38.23a342.82,342.82,0,0,0,17.73,36.12Z" fill="#423b35"/><polygon points="833.64 625.16 833.64 625.16 833.64 625.16 833.64 625.16"/></g></g></g></svg>