<svg xmlns="http://www.w3.org/2000/svg" width="1262.35" height="2193.94" viewBox="0 0 1262.35 2193.94"><title>2_men_body_4</title><g id="Layer_2" data-name="Layer 2"><g id="Layer_148" data-name="Layer 148"><g id="_2_men_body_4" data-name="2_men_body_4"><rect width="1262.35" height="2193.94" fill="none"/><path d="M1057.29,543.53c-12.7-46.59-35.29-72-49.41-58.59-5.89,5.6.17,18.33,7.62,29.56-6.44-7.21-14.33-12.88-23.85-10.5-3.94,1-9.32,5-7.77,11.29,1.9,7.74,11.3,16.47,11.3,16.47-26.12-22.11-36.71-13.64-39.53-2.35a34.91,34.91,0,0,0-1.06,6,80.28,80.28,0,0,0-10.71.6s1.88-16.47-14.59-14.59-13.53,28.83-26.23,48.94-9.53,56.12-9.53,56.12l-16.94,75.18c-4.24-5.65-90.35-122.83-90.35-122.83-28.79-37.42-97.42-57.76-133.38-65.36-17-3.58-38.51-5.22-38.51-5.22l1.41-46.59s-4.64-25.41-40.94-25.41c-31.06,0-34.06,29.64-34.06,29.64l-1.41,42.36-30.75,9.43-38.25,10.74c-57.88,4.24-99.17,43.35-128.82,80.06-4.78,5.91-175.06,169.41-175.06,169.41-27,19-40.56,64.27-46.59,120-35.29,70.59,19.77,111.53,39.53,117.18s18.35-8.47,18.35-8.47c25.42-1.41,24-21.18,24-21.18,26.83-4.23,25.42-28.23,25.42-28.23,25.41-1.42,19.76-25.42,19.76-25.42,43.77-2.82,70.59-29.64,62.12-43.76s-15.53-9.88-31.06-1.41-31.06-4.24-31.06-4.24c25.41-29.64,14.12-59.29,14.12-59.29,70.59-33.88,159.53-117.18,159.53-117.18C409.29,792,405.06,1008,405.06,1008c-46.59,138.35-19.77,506.12-24,538.59s2.12,408.7,2.12,408.7c-11.65,13.77-56.12,104.83-56.12,104.83-56.12,22.23-70.94,49.76-70.94,49.76-13.77,26.49,22.59,22.94,27.53,14.83,2.47,19.41,17.33,10.24,29.64,0,0,29.64,33.53,1.05,33.53,1.05-6.35,20.12,24.43,18.07,37.53,2.24,0,0,24.47-2.82,33.77-40.35,2.9-11.72,21.17-1.06,50.82-27.53s-1.06-103.77-1.06-103.77,14.83-55.06,39.18-195.88-3.18-211.76-3.18-211.76c9.53-40.24,68.83-399.18,68.83-399.18,15.88,159.88,82.58,389.65,82.58,389.65-35.64,136.58,59.3,422.47,59.3,422.47s-30.71,36-28.59,77.29,55.06,42.35,68.82,42.35,20.12,14.83,20.12,14.83c13.77,24.35,47.3,41.29,47.3,41.29,28.94,15.53,36.7-5.65,36.7-5.65,14.82,19.06,33.53,6.71,33.53,6.71,19.06,10.59,28.59-11.65,28.59-11.65,16.94,6.36,20.12-12.7,20.12-12.7,1.06-24.36-28.59-29.65-28.59-29.65-14.83-5.29-64.59-34.94-64.59-34.94s-48.71-76.24-51.88-81.53-1.06-9.53-1.06-9.53c-10.59-313.41-30.71-426.71-30.71-426.71,16.24-453.17-19.06-529.41-19.06-529.41,7.42-81.53,2.83-278.11,2.83-278.11s5.39,9.51,27,35.55c20.29,24.45,40.37,49.76,79.23,89.56,86.83,88.94,111.18,10.59,120.71-20.11s-4.82-180.3-4.82-180.3,70.39-38.28,80.7-48.23C1064.59,587.53,1061.4,558.57,1057.29,543.53Z" fill="#824f39"/><path d="M893.53,626.47v0Z" fill="none"/><path d="M762.42,748.76l-14.3-24.52S751.65,732.45,762.42,748.76Z" fill="none"/><path d="M406.66,1561.71a3.68,3.68,0,0,1,4.64-5.1c8.8,3.64,23.65,6.77,42.84-.35a3.67,3.67,0,0,1,4,5.86C445.88,1576.34,423.42,1594.26,406.66,1561.71Zm33.69,462.76s22.59-21.18,15.53-46.59C455.88,1977.88,494,2027.29,440.35,2024.47ZM718.47,1992s2.82,25.41,24,31.06C742.47,2023.06,693.06,2052.71,718.47,1992Zm24-440.17c-16.76,32.55-39.22,14.63-51.53.41a3.68,3.68,0,0,1,4.05-5.86c19.19,7.12,34,4,42.84.35A3.68,3.68,0,0,1,742.45,1551.83Z" fill="none"/><path d="M922.69,2127.37l-1.63-.55C921.62,2127,922.16,2127.21,922.69,2127.37Z" fill="none"/><path d="M283.65,2124.71l-3.66,3A9.31,9.31,0,0,0,283.65,2124.71Z" fill="none"/><path d="M943.45,530.17c.35,3.27.43,5.83.43,5.83A18.83,18.83,0,0,0,943.45,530.17Z" fill="none"/><path d="M237.06,792.71c22.23,9.53,24,30.35,24,30.35,7.72-3.71,15.66-8,23.67-12.71C263.82,786.76,237.06,792.71,237.06,792.71Z" fill="#73402a"/><path d="M870.24,787.41c-10.59-37.06,6.35-85.76,6.35-85.76-1.05-1.4-7.13-9.65-15.67-21.26C839.15,755.31,870.24,787.41,870.24,787.41Z" fill="#73402a"/><path d="M943.88,536s-.08-2.56-.43-5.83c-1.07-4.53-4.39-9.87-14.16-8.76-16.47,1.88-13.53,28.83-26.23,48.94-12.51,19.81-9.63,55-9.53,56.07-.13-1.54-3-40.32,30.69-46.72l7,10.54,1.53-11.42L934.47,564C907.65,554.12,921.76,535.76,943.88,536Z" fill="#73402a"/><path d="M392.8,730.55c17-14.58,27.79-24.67,27.79-24.67l10.12-69.17S410.86,695.78,392.8,730.55Z" fill="#73402a"/><path d="M748.12,724.24s23.26,30.35,27,35.55c-13.2-34-31.24-101.91-31.24-101.91Z" fill="#73402a"/><path d="M652.86,513.46c-17.42-2.77-38.51-5.22-38.51-5.22l1.41-46.59s-4.64-25.41-40.94-25.41c-31.06,0-34.06,29.64-34.06,29.64l-1.41,42.36-30.75,9.43C526.82,528.68,585.91,557.18,652.86,513.46Z" fill="#73402a"/><path d="M281.53,899.65C254,911.29,216.94,888,216.94,888s5.3,9.53,3.18,15.88l26.82,27.88c43.33-2.79,70-29.11,62.34-43.33C304.7,887.85,296.61,893.27,281.53,899.65Z" fill="#73402a"/><path d="M227.18,957.18c6-.34,10.33-2,13.36-4.24-16.19-10.35-51-32-51-32Z" fill="#73402a"/><path d="M201.76,985.41a34.56,34.56,0,0,0,12.52-4.31c-16.28-12.16-51.57-39-51.57-39Z" fill="#73402a"/><path d="M177.76,1006.59c6.36-.35,11-1.85,14.47-3.9-15.88-10.69-51.64-35.16-51.64-35.16Z" fill="#73402a"/><path d="M229.06,858.35a78.84,78.84,0,0,0-21.65,2.83c24.35.35,39.53,21.17,39.53,21.17,12.05-14.06,15.84-28.11,16.5-39C256.78,853.71,247.56,858.35,229.06,858.35Z" fill="#73402a"/><path d="M203.18,861.53s-29.18-9.29-60.36,13.76c0,0-8.71-19.94-10.38-42.61-5.92,18.92-10,41.07-12.56,65.2-8.62,17.24-11.84,32.7-11.51,46.32,1.32-11.37,7.13-28.87,27-48.79C170.35,860.47,203.18,861.53,203.18,861.53Z" fill="#73402a"/><path d="M657.48,1085.12c-55.33,24.84-102.72,28.62-159.2,3.59a3.39,3.39,0,0,0-4,5.26c35,42.89,78.43,55.56,78.43,55.56,52.91-12.45,78.94-43.77,89-59.5A3.39,3.39,0,0,0,657.48,1085.12Z" fill="#73402a"/><path d="M458.18,1562.12a3.67,3.67,0,0,0-4-5.86c-19.19,7.12-34,4-42.84.35a3.68,3.68,0,0,0-4.64,5.1C423.42,1594.26,445.88,1576.34,458.18,1562.12Z" fill="#73402a"/><path d="M737.81,1546.73c-8.81,3.64-23.65,6.77-42.84-.35a3.68,3.68,0,0,0-4.05,5.86c12.31,14.22,34.77,32.14,51.53-.41A3.68,3.68,0,0,0,737.81,1546.73Z" fill="#73402a"/><path d="M444.11,2024.59c36.92.25,24.06-27.46,16.12-40.31a1.66,1.66,0,0,0-3.07,1c1.17,16.86-9.34,30.9-14.3,36.53A1.67,1.67,0,0,0,444.11,2024.59Z" fill="#73402a"/><path d="M715.72,1999c-14.93,41,11,31.87,22.09,26.52a2.3,2.3,0,0,0-.07-4.17c-10.6-4.92-15.49-15.24-17.65-22.23A2.31,2.31,0,0,0,715.72,1999Z" fill="#73402a"/><path d="M361.64,2107.19c-8.26,1.89-20.6,7.87-26,26.4a82.47,82.47,0,0,0,11.2-7.83,44.56,44.56,0,0,1,15.76-16.2A1.29,1.29,0,0,0,361.64,2107.19Z" fill="#73402a"/><path d="M325.16,2102.18c-7.47,3.71-17.86,12-21.64,29.76a90.61,90.61,0,0,0,9.77-7.23s2.44-12.9,12.76-21.11A.84.84,0,0,0,325.16,2102.18Z" fill="#73402a"/><path d="M297.67,2100.37c-7.86,3.78-19.18,12.07-22.15,29.11a22.88,22.88,0,0,0,4.47-1.73l3.66-3s3.79-13.65,15-22.77A.93.93,0,0,0,297.67,2100.37Z" fill="#73402a"/><path d="M841.3,2118.68c11.26,5.71,17.29,18.73,17.29,18.73a22.54,22.54,0,0,0,9.61,7.57c-3.21-20.09-17.14-26.19-26.34-28A.91.91,0,0,0,841.3,2118.68Z" fill="#73402a"/><path d="M880.14,2117.84c10.54,7.08,12.33,20.63,12.33,20.63,4.79,2.66,9,3.25,12.56,2.64-4.46-15.23-16.53-21.79-24.3-24.5A.69.69,0,0,0,880.14,2117.84Z" fill="#73402a"/><path d="M902.12,2108.78c11.36,4,18.94,18,18.94,18l1.63.55c4.74,1.39,8.31.69,11-.94-8.43-17.24-23.39-19.4-31.33-19.21A.8.8,0,0,0,902.12,2108.78Z" fill="#73402a"/><path d="M440.62,770.06c34.44,12.9,164.92,54.5,286.32-2.81A7.05,7.05,0,0,1,737,773.5l1.08,66a7.05,7.05,0,0,1-8.57,7c-39.12-8.66-200.67-40.39-293.62,3.3a7,7,0,0,1-10.07-6.91l5.3-66.75A7,7,0,0,1,440.62,770.06Z" fill="#73402a"/><path d="M943.88,536l10.71-.6A80.28,80.28,0,0,0,943.88,536Z" fill="none"/><path d="M967.65,589.41s4.94,3.53,0-36a23.13,23.13,0,0,0-13.06-18l-10.71.6C960.35,537.65,967.65,589.41,967.65,589.41Z" fill="#73402a"/><path d="M995.71,542.82c5.64,16.24,9.35,41.65,9.35,41.65s4.94-8.47-.71-40.94c-.82-4.72-6.93-10.14-10.1-12.67.57.57.93.9.93.9-7.45-6.3-13.63-10.11-18.73-12.09C984.84,526.36,994.13,538.29,995.71,542.82Z" fill="#73402a"/><path d="M1015.5,514.5c10.44,9.8,14.26,48.09,14.26,48.09s5.65-8.47-.52-40.94c-1.61-8.47-17.39-25-23.7-31.32C1005.1,496.8,1009.91,506.07,1015.5,514.5Z" fill="#73402a"/><path d="M966.94,606.35s-8.47,12-21.88,10.59C945.06,616.94,964.12,632.47,966.94,606.35Z" fill="#73402a"/><path d="M1004.35,593.65s-8.47,12-21.88,10.59C982.47,604.24,1001.53,619.76,1004.35,593.65Z" fill="#73402a"/><path d="M1036.31,571.07s-4.68,13.92-17.93,16.41C1018.38,587.48,1041.09,596.9,1036.31,571.07Z" fill="#73402a"/></g></g></g></svg>