<svg xmlns="http://www.w3.org/2000/svg" width="1262.35" height="2193.94" viewBox="0 0 1262.35 2193.94"><title>2_men_hair_10</title><g id="Layer_2" data-name="Layer 2"><g id="Layer_148" data-name="Layer 148"><g id="_2_men_hair_10" data-name="2_men_hair_10"><rect width="1262.35" height="2193.94" fill="none"/><path d="M732.59,100.24C694.45,42.7,557.88-2.47,482.71,71.65c0,0-62.47-5.3-86.83,73.06-29,93.2,13.77,169.41,13.77,169.41s7.41-11.65,22.23-3.18c0,0-9.56-106.26,49.58-147.65,2.33,19,6.54,73.53,58.42,83.06,0,0-21.17-41.29-14.2-69.37a104,104,0,0,0,129.73,43.2c-31.88-18.3-41.41-29.94-54-50.25,0,0,34.81,22.42,67.63,28.78s49.76,78.35,49.76,111.17c0,0,7.42-7.41,16.94-2.12C735.76,307.76,795.06,194.47,732.59,100.24Z" fill="#523c50"/><path d="M542.59,167.18A77.7,77.7,0,0,1,528.47,145a3.19,3.19,0,0,0-6.12,1.2c-.22,10.62,0,21.18,3.32,30.83v0a104,104,0,0,0,129.73,43.2l-3.25-1.89C612.12,222.1,570.2,195.58,542.59,167.18Z" fill="#423040"/><path d="M753.57,145.07c-.31.7-.63,1.41-1,2.11a237.24,237.24,0,0,1-19,30.58,41.09,41.09,0,0,1-47.1,13.91C621.67,168,592.61,129.72,582.84,115a.94.94,0,0,0-1.71.64c2.86,22.16,8.38,45.76,24.34,60.62-1.34-2-2.67-4.13-4-6.34,0,0,34.81,22.42,67.63,28.78s49.76,78.35,49.76,111.17c0,0,7.42-7.41,16.94-2.12C735.76,307.76,778.05,227,753.57,145.07Z" fill="#423040"/><path d="M486.66,121.57c-27.25,25.92-54.37,61-67.83,99.12A7.89,7.89,0,0,1,405,222.58c-12.64-17.63-14.47-41-12.84-64.22C371,245.24,409.65,314.12,409.65,314.12s7.41-11.65,22.23-3.18c0,0-9.56-106.26,49.58-147.65,2.23,18.13,6.17,68.69,51.7,81.51-15.92-15.9-26.71-39.27-34.57-58.62S489,145.43,492,124.29A3.17,3.17,0,0,0,486.66,121.57Z" fill="#423040"/><path d="M619.29,124.59s53-23.3,59.3-56.12c0,0,21.17,16.94,26.47,25.41C705.06,93.88,664.82,132,619.29,124.59Z" fill="#756374"/><path d="M436.12,94.94s9.53,26.47,29.64,34.94c0,0-29.64,0-44.47-19.06C421.29,110.82,426.59,98.12,436.12,94.94Z" fill="#756374"/></g></g></g></svg>