<svg xmlns="http://www.w3.org/2000/svg" width="1262.35" height="2193.94" viewBox="0 0 1262.35 2193.94"><defs><style>.a{fill:none;}.b{fill:#9e6544;}.c{fill:#8a4036;}.d{fill:#ba5649;}.e{fill:#fff;}</style></defs><title>2_man_mouth_1</title><rect class="a" width="1262.35" height="2193.94"/><path class="b" d="M527.05,407.15s11.66,35.9,50.71,34.5S627.65,407,627.65,407Z"/><path class="b" d="M527.05,407.15s42.71-11.34,100.6-.14C588.79,413,566.34,411.28,527.05,407.15Z"/><path class="c" d="M622.32,414.52c-43-4-76.22-1.16-89.86.44a78.7,78.7,0,0,0,8.82,8.47c20.46-11.17,49.05-10.18,67.34,3.23A62.52,62.52,0,0,0,622.32,414.52Z"/><path class="d" d="M541.28,423.43c8.31,6.8,19.62,12.94,33.38,12.95a61.06,61.06,0,0,0,34-9.72C590.33,413.25,561.74,412.26,541.28,423.43Z"/><path class="e" d="M527.05,407.15a64.06,64.06,0,0,0,5.23,7.1c.55.65,24.24,6.67,42.76,6.5,13.39-.13,46.87-6.3,47.38-7a43.67,43.67,0,0,0,4.18-6.39C580.74,408.54,527.05,407.15,527.05,407.15Z"/></svg>