<svg xmlns="http://www.w3.org/2000/svg" width="1262.35" height="2193.94" viewBox="0 0 1262.35 2193.94"><title>2_men_hair_5</title><g id="Layer_2" data-name="Layer 2"><g id="Layer_148" data-name="Layer 148"><g id="_2_men_hair_5" data-name="2_men_hair_5"><rect width="1262.35" height="2193.94" fill="none"/><path d="M745.53,119.53l-21.17,11.29c5.64-12.7,2.82-36.7,2.82-36.7s-18.5,8.17-26.82,4.94c-52.77-20.47-175.12-27.53-252.77,0-8.42,3-26.83-4.94-26.83-4.94s-2.82,24,2.83,36.7l-21.18-11.29s-24.17,127.71,2.65,198.29c0,0,9.88-15.7,25.41-9.35,0,0,13.77-58.59,36.35-76.94,0,0-12-24.35-6.35-37.06C462,186.9,574,199.33,572.71,206.12c39.48-11.16,67.57-13.3,115.41-12.71a374.3,374.3,0,0,0-3.7,38.12c22.58,18.35,31.05,76.94,31.05,76.94,15.53-6.35,25.42,9.35,25.42,9.35C767.71,247.24,745.53,119.53,745.53,119.53Z" fill="#f15a29"/><path d="M454.59,143.18c-15.84-11.71-26.93-29.1-33.94-47.95-.47,4.83-2,24.24,2.84,35.35C432.84,137.71,444.1,139.68,454.59,143.18Z" fill="#c23e13"/><path d="M724.36,130.82c4.44-10,3.64-26.95,3.1-33.75-8.08,18.8-17.86,37.35-34.87,50.11,11.87-3.5,24.23-9,33.67-17.37Z" fill="#c23e13"/><path d="M745.61,120c-8.18,24.66-25.76,43.78-45,61.21,11-2,23-3,34-7-9.51,23.76-27.18,41.25-48.53,54-1,2.11-1.64,3.39-1.64,3.39,22.58,18.35,31.05,76.94,31.05,76.94,15.53-6.35,25.42,9.35,25.42,9.35C766.81,249.61,747,128.07,745.61,120Z" fill="#c23e13"/><path d="M423.41,180.71c-4,11-5.29,11.29-5.29,23.29-17.36-27.76-16.94-63.53-14.66-83.91l-1-.56s-24.17,127.71,2.65,198.29c0,0,9.88-15.7,25.41-9.35,0,0,13.77-58.59,36.35-76.94C466.82,231.53,443.53,216.71,423.41,180.71Z" fill="#c23e13"/><path d="M632.13,182.38c4-9.28,5.14-9.06,12.58-16.5-28.7,4.63-51.94,9-73.11,28.49-24.31-19-38.07-23.19-57.08-27.26,4.8,7.4,7.16,16.16,13.07,22.07-19-17-45.3-18.18-70.3-21.18,0,11.55.87,14.28,3.62,25.84,7.77-6.19,113.09,5.7,111.8,12.28C611.92,195,639.9,192.85,687.15,193.4c2.84-8.67,5.79-17.61,9.19-26.15C674.55,166,652.86,174.35,632.13,182.38Z" fill="#c23e13"/></g></g></g></svg>