<svg xmlns="http://www.w3.org/2000/svg" width="1262.35" height="2193.94" viewBox="0 0 1262.35 2193.94"><title>2_men_shirt_11</title><g id="Layer_2" data-name="Layer 2"><g id="Layer_148" data-name="Layer 148"><g id="_2_men_shirt_11" data-name="2_men_shirt_11"><rect width="1262.35" height="2193.94" fill="none"/><path d="M366.55,572.08a221.66,221.66,0,0,0-31,31.39c-1.67,2.06-34.87,32.87-62.36,54A14.16,14.16,0,0,0,268.25,673c13.47,42.45,50.68,79.57,79.58,97.69a11,11,0,0,0,12.54-.62c26-20.23,42.5-35.46,49.41-42.1,2.44-24.88,6.45-49.48,10.3-74C394.34,634.18,376.33,603.85,366.55,572.08Z" fill="#26394a"/><path d="M866.53,670c-27.32-34.86-80.29-91.18-80.29-91.18a91.88,91.88,0,0,0-7.82-8.83c-8.93,26.94-21.32,52.81-41.88,74.18,9.52,30.48,12.76,62,14.18,93.77,4.25,6.07,12.81,18.27,18.54,26.37a11.81,11.81,0,0,0,14.86,3.75c30-14.82,65.74-43.28,84.16-81.14A16,16,0,0,0,866.53,670Z" fill="#26394a"/><path d="M750.72,737.94c-1.42-31.76-4.66-63.29-14.18-93.77,20.56-21.37,33-47.24,41.88-74.18-15.85-15.78-38.74-28.09-61.81-37.35q-.48-1.32-1-2.52c-10.69-3.53-29.62-8.61-44.59-12.35-6.64-1.73-12.79-3.17-18.2-4.31-7.21-1.53-15.26-2.7-22.13-3.54-12.87,15.86-33.6,31.75-54.49,32.2-18.2.39-37.16-15.49-50.44-29.73l-17.2,5.28-54.84,11.74-.59,1.18c-33.47,6-62.85,21.81-86.62,41.49,9.78,31.77,27.79,62.1,53.53,81.79-3.85,24.57-7.86,49.17-10.3,74,2.49-2.39,3.75-3.68,3.75-3.68-5.26,38.57-9.19,80.28-12.11,119.42,0,.2,0,.4-.05.6-5.46,73.32-6.89,118.54-7.52,143.25a24.17,24.17,0,0,0,17.5,23.89c105.17,29.84,224.12,33.81,328.71.76a24.3,24.3,0,0,0,17.05-22.62c2.23-102.68-9-255.21-9-255.3S749.11,735.66,750.72,737.94Z" fill="#9e2d2d"/><path d="M413.53,724.24s-8.91,8.66-21.95,20.2C406.18,731.78,413.53,724.24,413.53,724.24Z" fill="none"/><path d="M420.08,653.87s-8.67,35.78-14.2,61c0,0-24.12,27.77-47.06,49.3-3.29,3.09-6.07,5.76-8,7.82a10.94,10.94,0,0,0,9.58-1.92c12.66-9.85,23.06-18.51,31.21-25.58,13-11.54,21.95-20.2,21.95-20.2C413.32,725.79,420.08,653.87,420.08,653.87Z" fill="#1a2733"/><path d="M748.12,734.24s12.52,19.46,21.14,30.07c7.45,9.16,14.86,3.74,14.86,3.74l-27.88-38.64c-6.12-48.94-19.42-84.23-19.42-84.23Z" fill="#1a2733"/><path d="M406.85,647c2.46-.3,3.31-2.74,1.4-4-27.47-11.38-40.18-21.72-58.07-37.54-2.65-1.7-6.63-.77-7.73,1.78C334.12,626.59,344.91,654.74,406.85,647Z" fill="#1a2733"/><path d="M409.29,650.8s-39.85,6.17-57.68,1.75c-15.91-3.95-13.75,18.09,2.71,15.35S386.66,662.62,409.29,650.8Z" fill="#1a2733"/><path d="M747,649.91a2.3,2.3,0,0,1-2.24-3.54c17.53-17.44,24.13-30.43,33.06-49.94a3.9,3.9,0,0,1,6.42-.08C796.36,613.17,796.51,643,747,649.91Z" fill="#1a2733"/><path d="M575.88,554.47l41.3,40.24s39.48-38.61,41.76-79.88c-2.39-.56-4.46-1-6.08-1.37-7.21-1.53-15.26-2.7-22.13-3.54-12.87,15.86-33.6,31.75-54.49,32.2-18.2.39-37.16-15.49-50.44-29.73l-17.2,5.28-14.87,3.19c4,17.59,13.9,48.63,36.62,74.9Z" fill="#752121"/><path d="M563.76,547.76l-2,65.63a6.82,6.82,0,0,0,6.73,6.82l16.26.23a6.83,6.83,0,0,0,6.92-6.57l.57-66.52-16-5.23Z" fill="#82774f"/><path d="M539.53,489.88v17.65s9.18,21.18,36.71,34.59l-45.53,40.94s-23.65-40.94-26.47-65.65l22.58-24S531.06,487.06,539.53,489.88Z" fill="#fff"/><path d="M611.84,513c-4.82,6.66-16,19.6-35.6,29.15l42.35,37.76a252.45,252.45,0,0,0,20.93-32.44,30.66,30.66,0,0,0-5.93-14.26C627.9,525.86,621.54,515.89,611.84,513Z" fill="#26394a"/><path d="M627.41,494.47s-4.23-6.35-12.7-3.53v17.65a46.76,46.76,0,0,1-2.87,4.38c9.7,2.92,16.06,12.89,21.75,20.21a30.66,30.66,0,0,1,5.93,14.26c5.13-9.7,12.33-25.12,13.34-34Z" fill="#1a2733"/><circle cx="578.35" cy="569.29" r="7.41" fill="#edd9a7"/><circle cx="578.35" cy="604.94" r="7.41" fill="#edd9a7"/><path d="M413.14,855.62c-2.63,29.76-7.27,86.13-8.08,120.91a23.72,23.72,0,0,0,16.58,23.19c40.66,12.78,144.36,49.22,308.78,5.59,10.88-2.88,18.81-12.17,18.71-23.42l-.35-39.47c0-4-5.44-8.17-7.88-5-25.25,33.13-254,103-317.37-83.91C421.76,848.33,413.62,850.13,413.14,855.62Z" fill="#752121"/><path d="M540.1,508.71c-.38-.75-.57-1.18-.57-1.18V489.88c-8.47-2.82-12.71,3.53-12.71,3.53l-22.58,24c1,8.67,4.54,19.34,8.74,29.53C515.12,530.64,525.07,511.43,540.1,508.71Z" fill="#1a2733"/><path d="M576.24,542.12c-23.68-11.53-33.77-28.79-36.14-33.41-15,2.72-25,21.93-27.12,38.23a342.82,342.82,0,0,0,17.73,36.12Z" fill="#26394a"/><path d="M722.73,697.92,722,682.59s-75.18,3.17-78.35,5.29v14.36C669.8,698.31,696,696.32,722.73,697.92Z" fill="#edd9a7"/><path d="M723.5,714.05l-.77-16.13c-26.7-1.6-52.93.39-79.08,4.32v14.23C670.46,714.11,697.23,711.65,723.5,714.05Z" fill="#26394a"/><path d="M643.65,716.47v14.82l80.47-4.23-.62-13C697.23,711.65,670.46,714.11,643.65,716.47Z" fill="#82774f"/><path d="M351.91,772.17a10.16,10.16,0,0,1-1.07-.22A10.16,10.16,0,0,0,351.91,772.17Z" fill="#82774f"/><path d="M354.39,772.29c-.36,0-.71,0-1.06,0C353.68,772.32,354,772.31,354.39,772.29Z" fill="#82774f"/><path d="M353.11,772.3c-.3,0-.61,0-.91-.09C352.5,772.25,352.81,772.28,353.11,772.3Z" fill="#82774f"/><path d="M355.6,772.14c-.29.05-.59.09-.89.12C355,772.23,355.31,772.19,355.6,772.14Z" fill="#82774f"/><path d="M359.17,770.83c-.32.18-.65.36-1,.51C358.52,771.19,358.85,771,359.17,770.83Z" fill="#82774f"/><path d="M358.05,771.4c-.29.13-.6.24-.9.34C357.45,771.64,357.76,771.53,358.05,771.4Z" fill="#82774f"/><path d="M360.36,770c-.3.23-.62.44-.93.64C359.74,770.47,360.06,770.26,360.36,770Z" fill="#82774f"/><path d="M356.84,771.84a9.17,9.17,0,0,1-1,.27A9.17,9.17,0,0,0,356.84,771.84Z" fill="#82774f"/><path d="M360.37,770c1.33-1,2.63-2,3.9-3.06l-3.9,3.06Z" fill="#82774f"/><path d="M358.82,764.12l3.6-3.42c-54.24-35.89-78.17-91.4-81.47-109.38-2.62,2.1-5.23,4.15-7.78,6.11A14.16,14.16,0,0,0,268.25,673c13.47,42.45,50.68,79.57,79.58,97.69a11.05,11.05,0,0,0,3,1.29C352.75,769.87,355.53,767.21,358.82,764.12Z" fill="#82774f"/><path d="M866.53,670q-1.37-1.74-2.81-3.55c-16.1,31.77-55.69,67.79-90.87,86l11.27,15.62c30-14.81,65.74-43.27,84.16-81.13A16,16,0,0,0,866.53,670Z" fill="#82774f"/><path d="M769.26,764.31h0a11.88,11.88,0,0,0,2.65,2.69A18.31,18.31,0,0,1,769.26,764.31Z" fill="#82774f"/><path d="M358.19,771.34l-.14.06Z" fill="#1a2733"/><path d="M357.15,771.74l-.31.1Z" fill="#1a2733"/><path d="M359.43,770.67l-.26.16Z" fill="#1a2733"/><path d="M413.53,724.24h0S413.53,724.26,413.53,724.24Z" fill="#1a2733"/><path d="M353.33,772.31h0Z" fill="#1a2733"/><path d="M350.79,771.94h0l0,0Z" fill="#1a2733"/><path d="M355.81,772.11l-.21,0Z" fill="#1a2733"/><path d="M352.2,772.21l-.29,0Z" fill="#1a2733"/><path d="M360.37,770Z" fill="#1a2733"/><path d="M354.71,772.26l-.32,0Z" fill="#1a2733"/><path d="M362.42,760.7l-3.6,3.42c-3.29,3.09-6.07,5.75-8,7.81l0,0a10.16,10.16,0,0,0,1.07.22l.29,0c.3,0,.61.07.91.09h.22c.35,0,.7,0,1.06,0l.32,0c.3,0,.6-.07.89-.12l.21,0a9.17,9.17,0,0,0,1-.27l.31-.1c.3-.1.61-.21.9-.34l.14-.06c.33-.15.66-.33,1-.51l.26-.16c.31-.2.63-.41.93-.64h0l3.9-3.06,3.56-2.82Q365.07,762.46,362.42,760.7Z" fill="#696040"/><path d="M771.91,767c6.46,5.25,12.21,1,12.21,1h0A11.83,11.83,0,0,1,771.91,767Z" fill="#1a2733"/><path d="M763.91,756.72l5.35,7.59a18.31,18.31,0,0,0,2.65,2.69,11.83,11.83,0,0,0,12.21,1.06h0l-11.27-15.62C769.83,754,766.84,755.44,763.91,756.72Z" fill="#696040"/></g></g></g></svg>