<svg xmlns="http://www.w3.org/2000/svg" width="1262.35" height="2193.94" viewBox="0 0 1262.35 2193.94"><defs><style>.a,.m{fill:none;}.b{fill:#ff6afa;}.c{fill:#ffd9ff;}.d{fill:#eda2e6;}.e{fill:#d450d0;}.f{fill:#fff;}.g{fill:#f4c458;}.h{fill:#ffee8a;}.i{fill:#8f854d;}.j{fill:#883b71;}.k{fill:#c033ad;}.l{fill:#44392e;}.m{stroke:#8f854d;stroke-linecap:round;stroke-miterlimit:10;}</style></defs><title>2_men_shirt_cryptokitties</title><rect class="a" width="1262.35" height="2193.94"/><path class="b" d="M283.58,649.22c-3.51,2.83-7,5.59-10.41,8.2a14.31,14.31,0,0,0-4.87,15.71c13.53,42.38,50.68,79.44,79.55,97.52a10.93,10.93,0,0,0,12.52-.63c4.67-3.63,9-7.09,13.06-10.38C330.11,737.2,296.31,696,283.58,649.22Z"/><path class="c" d="M862.52,665c-3-3.72-6.19-7.6-9.55-11.61-28.28-33.66-66.73-74.54-66.73-74.54-15.46-20.09-42.42-35.26-69.63-46.18-.32-.88-30.58-11.13-45.55-14.87-6.64-1.73-12.79-3.17-18.2-4.31-7.21-1.53-15.26-2.7-22.13-3.54-12.87,15.86-33.6,31.75-54.49,32.2-18.2.39-37.16-15.49-50.44-29.73l-17.2,5.28-54.84,11.74-.59,1.18c-50.06,9-91,39.88-117.64,72.88-1.12,1.38-16.44,15.71-34.7,31.36-5.58,4.78-11.44,9.69-17.25,14.39,12.73,46.81,46.53,88,89.85,110.42,5-4,9.47-7.78,13.52-11.22,17.68-15,26.58-24.18,26.58-24.18C401.84,810,395.66,918.78,393.35,1006c.11,0,183.13,65.31,363.24.59,3.2-80.11-2.87-192.77-8.47-272.35l7.21,10.28c2.68,3.83,5.8,8.25,8.74,12.44C803.56,734,834.35,700.3,862.52,665Z"/><path class="b" d="M862.52,665c-28.17,35.33-59,69-98.45,92,1.84,2.61,3.62,5.14,5.19,7.35a11.79,11.79,0,0,0,14.86,3.74c30-14.81,65.74-43.27,84.15-81.13A16,16,0,0,0,866.53,670C865.25,668.37,863.9,666.68,862.52,665Z"/><path class="d" d="M748.78,942.42c0-4-5.44-8.17-7.88-5C716.1,970,495.15,1038,427.14,863.43h0c-.6-1.54-1.19-3.11-1.77-4.69l-.09-.25q-.9-2.43-1.75-4.94c-1.77-5.22-9.91-3.42-10.39,2.07-.08.88-.16,1.77-.24,2.69l-.09,1.08c-.05.57-.1,1.13-.15,1.71s-.09.95-.13,1.43l-.12,1.45-.15,1.67c0,.44-.07.89-.11,1.34l-.15,1.77-.12,1.41c-.05.61-.1,1.22-.16,1.84,0,.41-.07.83-.1,1.25l-.18,2.11c0,.35-.06.7-.08,1-2.56,30.77-5.65,72.32-6.3,100.11a23.72,23.72,0,0,0,16.58,23.19c40.66,12.78,144.36,49.22,308.78,5.59,10.88-2.88,18.81-12.17,18.71-23.42Z"/><path class="d" d="M575.88,554.47l41.3,40.24s39.48-38.61,41.76-79.88c-2.39-.56-4.46-1-6.08-1.37-7.21-1.53-15.26-2.7-22.13-3.54-12.87,15.86-33.6,31.75-54.49,32.2-18.2.39-37.16-15.49-50.44-29.73l-17.2,5.28-14.87,3.19c4,17.59,13.9,48.63,36.62,74.9Z"/><path class="a" d="M413.53,724.24s-8.91,8.66-21.95,20.2C406.18,731.78,413.53,724.24,413.53,724.24Z"/><path class="e" d="M358.82,764.12c-3.29,3.09-6.07,5.76-8,7.82a10.94,10.94,0,0,0,9.58-1.92c4.67-3.63,9-7.09,13.06-10.38q-3.21-1.67-6.35-3.47C364.34,758.87,361.57,761.54,358.82,764.12Z"/><path class="d" d="M391.58,744.44c13-11.54,21.95-20.2,21.95-20.2-.21,1.55,12.23-104,12.23-104s-18,66.35-19.88,94.58c0,0-11.56,13.31-26.29,28.65-4,4.16-8.22,8.47-12.51,12.7q3.14,1.8,6.35,3.47c5-4,9.47-7.78,13.51-11.22C388.55,747.05,390.11,745.71,391.58,744.44Z"/><path class="e" d="M769.26,764.31c7.45,9.16,14.86,3.74,14.86,3.74l-12.25-15.84c-2.67,1.69-5.36,3.33-8.1,4.92C765.67,759.73,767.54,762.2,769.26,764.31Z"/><path class="d" d="M754.24,729.41c-11.52-37.35-17.42-84.23-17.42-84.23l11.3,89.06s2.92,4.54,6.91,10.43c2.62,3.87,5.71,8.33,8.74,12.46,2.74-1.59,5.43-3.23,8.1-4.92l-9-11.61Z"/><path class="d" d="M406.85,647c2.46-.3,3.31-2.74,1.4-4-27.47-11.38-40.18-21.72-58.07-37.54-2.65-1.7-6.63-.77-7.73,1.78C334.12,626.59,344.91,654.74,406.85,647Z"/><path class="d" d="M409.29,650.8s-39.85,6.17-57.68,1.75c-15.91-3.95-13.75,18.09,2.71,15.35S386.66,662.62,409.29,650.8Z"/><path class="d" d="M747,649.91a2.3,2.3,0,0,1-2.24-3.54c17.53-17.44,24.13-30.43,33.06-49.94a3.9,3.9,0,0,1,6.42-.08C796.36,613.17,796.51,643,747,649.91Z"/><path class="b" d="M563.76,547.76l-2,65.63a6.82,6.82,0,0,0,6.73,6.82l16.26.23a6.83,6.83,0,0,0,6.92-6.57l.57-66.52-16-5.23Z"/><path class="f" d="M539.53,489.88v17.65s9.18,21.18,36.71,34.59l-45.53,40.94s-23.65-40.94-26.47-65.65l22.58-24S531.06,487.06,539.53,489.88Z"/><path class="b" d="M611.84,513c-4.82,6.66-16,19.6-35.6,29.15l42.35,37.76a252.45,252.45,0,0,0,20.93-32.44,30.66,30.66,0,0,0-5.93-14.26C627.9,525.86,621.54,515.89,611.84,513Z"/><path class="e" d="M627.41,494.47s-4.23-6.35-12.7-3.53v17.65a46.76,46.76,0,0,1-2.87,4.38c9.7,2.92,16.06,12.89,21.75,20.21a30.66,30.66,0,0,1,5.93,14.26c5.13-9.7,12.33-25.12,13.34-34Z"/><circle class="f" cx="578.35" cy="569.29" r="7.41"/><circle class="f" cx="578.35" cy="604.94" r="7.41"/><path class="e" d="M540.1,508.71c-.38-.75-.57-1.18-.57-1.18V489.88c-8.47-2.82-12.71,3.53-12.71,3.53l-22.58,24c1,8.67,4.54,19.34,8.74,29.53C515.12,530.64,525.07,511.43,540.1,508.71Z"/><path class="b" d="M576.24,542.12c-23.68-11.53-33.77-28.79-36.14-33.41-15,2.72-25,21.93-27.12,38.23a342.82,342.82,0,0,0,17.73,36.12Z"/><polygon points="833.64 625.16 833.64 625.16 833.64 625.16 833.64 625.16"/><path class="c" d="M638.5,637h80.77v76.23s-40.47,30.71-79.65,0Z"/><path class="g" d="M656.58,665.59a118.26,118.26,0,0,0,2.94,13.26l4.79-4.79A42.73,42.73,0,0,0,656.58,665.59Z"/><path class="h" d="M656.77,663c-.32.24-.34,1.22-.19,2.57a42.73,42.73,0,0,1,7.73,8.47l4.5-4.5S658.14,662,656.77,663Z"/><path class="i" d="M657.14,662.92c2.32,0,11.67,6.64,11.67,6.64l-4.5,4.5-4.79,4.79a118.26,118.26,0,0,1-2.94-13.26c-.15-1.35-.13-2.33.19-2.57a.56.56,0,0,1,.37-.1m0-2a2.55,2.55,0,0,0-1.57.5c-1.13.84-1.21,2.31-1,4.39a117.58,117.58,0,0,0,3,13.57l.92,3.3,2.42-2.42,4.79-4.79,4.5-4.5,1.68-1.67L670,667.93c-3.69-2.62-10.26-7-12.83-7Z"/><path class="g" d="M702.15,665.59a118.26,118.26,0,0,1-2.94,13.26l-4.79-4.79A42.13,42.13,0,0,1,702.15,665.59Z"/><path class="h" d="M702,663c.32.24.34,1.22.19,2.57a42.13,42.13,0,0,0-7.73,8.47l-4.5-4.5S700.58,662,702,663Z"/><path class="i" d="M701.59,662.92a.6.6,0,0,1,.37.1c.32.24.34,1.22.19,2.57a118.26,118.26,0,0,1-2.94,13.26l-4.79-4.79-4.5-4.5s9.34-6.64,11.67-6.64m0-2h0c-2.58,0-9.15,4.39-12.83,7l-1.93,1.37L688.5,671l4.5,4.5,4.79,4.79,2.42,2.42.92-3.3a117.58,117.58,0,0,0,3-13.57c.24-2.08.15-3.55-1-4.39a2.55,2.55,0,0,0-1.57-.5Z"/><path class="h" d="M700.75,679.88a23.67,23.67,0,0,0-43.24,0s-6.25,10.66-9.69,12.38c0,0,7.57,4.13,11,7.57s11,9,20.3,9,16.92-5.58,20.3-9,11-7.57,11-7.57C707,690.54,700.75,679.88,700.75,679.88Z"/><path class="i" d="M679.75,665.82a23.21,23.21,0,0,1,21,14.06s6.25,10.66,9.69,12.38c0,0-7.57,4.13-11,7.57s-11,9-20.3,9-16.92-5.58-20.3-9-11-7.57-11-7.57c3.44-1.72,9.69-12.38,9.69-12.38a23.21,23.21,0,0,1,21-14.06,5.67,5.67,0,0,1,.62,0,5.52,5.52,0,0,1,.62,0m0-2-.62,0-.62,0A25.27,25.27,0,0,0,655.74,679c-2.48,4.22-6.82,10.53-8.81,11.52l-3.42,1.72,3.35,1.83c.08,0,7.36,4,10.56,7.23,4.61,4.61,12.74,9.54,21.71,9.54s17.1-4.93,21.71-9.54c3.2-3.2,10.48-7.19,10.55-7.23l3.36-1.83-3.42-1.72c-2-1-6.33-7.3-8.81-11.52a25.28,25.28,0,0,0-22.77-15.13Z"/><path class="b" d="M646.29,636a8.67,8.67,0,0,0-8.67,8.8l1,68.92.38.3c13.47,10.56,27.08,13.83,38.79,13.83a67,67,0,0,0,16.59-2.14A77.29,77.29,0,0,0,719.87,714l.4-.3V644.65A8.67,8.67,0,0,0,711.6,636Zm-5.67,76.74-.79-53.31a5.77,5.77,0,0,1,5.76-5.85h66.92a5.76,5.76,0,0,1,5.76,5.77V712.7C714,715.7,676.59,740.54,640.62,712.72Z"/><path class="j" d="M676,696.09s0,4.86,3.61,4.59,3.27-4.32,3.27-4.32-3.18-.35-3.62-2.65A3.77,3.77,0,0,1,676,696.09Z"/><circle class="f" cx="666.27" cy="682.04" r="7.65"/><circle class="k" cx="666.15" cy="680.39" r="5.29"/><circle class="l" cx="666.43" cy="679.1" r="3.24"/><circle class="f" cx="663.88" cy="678.7" r="2.47"/><path class="i" d="M666.27,674.39a7.65,7.65,0,1,1-7.65,7.65,7.65,7.65,0,0,1,7.65-7.65m0-1a8.65,8.65,0,1,0,8.65,8.65,8.66,8.66,0,0,0-8.65-8.65Z"/><circle class="f" cx="692.15" cy="681.8" r="7.65"/><circle class="k" cx="692.03" cy="680.15" r="5.29"/><circle class="l" cx="692.31" cy="678.87" r="3.24"/><circle class="f" cx="689.76" cy="678.46" r="2.47"/><path class="i" d="M692.15,674.15a7.65,7.65,0,1,1-7.65,7.65,7.65,7.65,0,0,1,7.65-7.65m0-1a8.65,8.65,0,1,0,8.65,8.65,8.66,8.66,0,0,0-8.65-8.65Z"/><path class="i" d="M678.16,687h2.25a1.1,1.1,0,0,1,.88,1.76l-1.17,1.55a1.09,1.09,0,0,1-1.78,0l-1.09-1.55A1.1,1.1,0,0,1,678.16,687Z"/><path class="m" d="M670.48,691.15s-.88,4.93,4.76,5.12c5.12.18,3.88-6.09,3.88-6.09"/><path class="m" d="M687.94,691.15s.88,4.93-4.77,5.12c-5.11.18-3.88-6.09-3.88-6.09"/><path class="m" d="M676,696.63c.12,1.25.71,4.26,3.58,4,3.62-.26,3.27-4.32,3.27-4.32"/></svg>
