<svg xmlns="http://www.w3.org/2000/svg" width="1262.35" height="2195.18" viewBox="0 0 1262.35 2195.18"><title>2_beard_1</title><g id="Layer_2" data-name="Layer 2"><g id="accessories"><g id="_2_beard_1" data-name="2_beard_1"><path d="M706.53,425.88S681,443.06,667.62,443.06c0,0-34.07-51.47-49.56-50.41a128,128,0,0,0-22.41,3.85,1,1,0,0,0,.26,1.94c8.32-.18,20,.57,23.18,5.85,5.16,8.47,19.62,30.71,14.46,34.95s-13.36,25.41-31.95,22.23-15.49-11.88-15.49-11.88c-9.57,3.87-16.1,4.31-26.42,0,0,0,3.1,8.7-15.48,11.88s-22.79-18-28-22.23,9.29-26.48,14.46-34.95c3.22-5.28,14.86-6,23.18-5.85a1,1,0,0,0,.26-1.94,128,128,0,0,0-22.41-3.85c-15.49-1.06-49.56,50.41-49.56,50.41-13.43,0-39.91-17.18-39.91-17.18,3.47,31.24,69.32,53.26,106.2,77.61a45,45,0,0,0,49.65,0C634.87,479.2,702.91,451.94,706.53,425.88Z" fill="#6b3c12"/><rect width="1262.35" height="2195.18" fill="none"/></g></g></g></svg>