<svg xmlns="http://www.w3.org/2000/svg" width="1262.35" height="2193.94" viewBox="0 0 1262.35 2193.94"><title>2_men_pants_8</title><g id="Layer_2" data-name="Layer 2"><g id="Layer_148" data-name="Layer 148"><g id="_2_men_pants_8" data-name="2_men_pants_8"><rect width="1262.35" height="2193.94" fill="none"/><path d="M807.48,1893.47l-22-310.88s36-201.18-32.82-574.83c-31.26,14-93.37,27.73-157.06,28-89.49.39-182.09-17.84-196.6-29.68-5.79,23.06-15.52,75.26-21.52,122.63-19.06,150.35-24,390.35-2.82,460.23,0,0-7.64,180.09-10.09,287.68,46.62,13.38,97.48,16.92,144.51,6,21.91-83.14,50.58-223.6,24.4-314.89,0,0,37.06-291.17,44.47-324,0,0,29.65,207.53,67.76,317.65,0,0-25.44,62.07,33.08,336.35C722.37,1906.64,767.44,1909.16,807.48,1893.47Z" fill="#b32633"/><path d="M550.47,1053.18s-14.82,148.23,8.47,184.23l40.24,2.12s-13.42-164.71-8.47-184.24" fill="#911f29"/><path d="M376.82,1551.53v.32C376.82,1551.91,376.83,1551.81,376.82,1551.53Z" fill="#3c3e4c"/><path d="M376.82,1551.53v.32C376.82,1551.91,376.83,1551.81,376.82,1551.53Z" fill="#3c3e4c"/><path d="M420.7,1015c-10.73-3.12-18.29-6.21-21.65-8.95-5.79,23.06-15.52,75.26-21.52,122.63-19.06,150.35-24,390.35-2.82,460.23,0,0-7.64,180.09-10.09,287.68q12.33,3.54,25,6.13c4.72-112.88,10.5-289.57,10.5-289.57C359.14,1434.83,408.28,1094.61,420.7,1015Z"/><path d="M389.12,1882.64q-2.7-.56-5.39-1.15l-.61-.14q-3-.66-5.89-1.38l-.71-.18c-1.13-.28-2.27-.54-3.39-.85l-2.94-.78q-2.79-.75-5.57-1.54c-.45,19.86-.72,37.24-.74,50.57a22.23,22.23,0,0,0,18.66,22c20.81,3.39,45.15,5.92,65.23,5.95a54.34,54.34,0,0,0,52.16-39.23c2.77-9.55,5.91-20.74,9.2-33.24C470.22,1891.66,428.7,1890.79,389.12,1882.64Z" fill="#7a1a23"/><path d="M785.53,1582.59s36-201.18-32.82-574.83a214.08,214.08,0,0,1-24.74,9c13.09,94.76,54,413.25,34.27,563.67l23.67,319.66a153.53,153.53,0,0,0,21.57-6.66Z"/><path d="M777.06,1968c3.13-1.17,8.92-2.36,15.5-4a24.21,24.21,0,0,0,18.13-25.17l-3.21-45.32q-2.34.91-4.71,1.75l-1.42.49c-1.21.41-2.42.81-3.64,1.19l-1.29.41c-1.51.46-3,.9-4.55,1.31l-1.67.44c-1.06.28-2.12.54-3.19.8-34.6,8.27-71.92,5.3-108.17-2.1q3.27,15.36,6.91,31.63a45.84,45.84,0,0,0,34.85,34.75C741.33,1968.71,776.28,1968.29,777.06,1968Z" fill="#7a1a23"/><path d="M376.82,1551.53v.32C376.82,1551.91,376.83,1551.81,376.82,1551.53Z" fill="#3c3e4c"/><path d="M757.9,1034.56c-1.59-9.43-3.31-18.39-5.19-26.8-31.26,14-93.37,27.73-157.06,28-89.49.39-182.09-17.84-196.6-29.68-1.79,7.12-3.95,17-6.27,28.71,30.66,11,94.92,29.48,183.81,30.39A522.58,522.58,0,0,0,757.9,1034.56Z" fill="#7a1a23"/><path d="M679.65,1214.12s-11.65,3.52-27.87,7.85c-64.73,17.28-134.18,1.23-183.74-43.86-.77-.7-1.53-1.4-2.28-2.11,0,0,8.48,55.06,82.59,127.06l-7,203.55C552.7,1419.33,572.76,1267,578,1243.76c0,0,20.86,146,50.08,258.06L601.29,1284S662.71,1256.47,679.65,1214.12Z" fill="#911f29"/><path d="M531.41,1572s-19.06,42.35-63.53,74.12,16.94,59.29,31.77,31.76S531.41,1572,531.41,1572Z" fill="#911f29"/><path d="M655,1567.07s43.43,64.39,73.38,64.38-18.86,62.6-37.43,37.44S655,1567.07,655,1567.07Z" fill="#911f29"/><path d="M406.47,1561.41s21.18,10.59,46.59,0S425.53,1620.71,406.47,1561.41Z" fill="#911f29"/><path d="M713.53,1567.76s21.18,14.83,44.47,4.24c0,0-10.59,25.41-25.41,23.29s-25.41-27.53-25.41-27.53" fill="#911f29"/><circle cx="551.53" cy="1051.06" r="9.53"/><path d="M550.13,1232.24c-2.45-52.78,6.23-176.22,6.33-177.58a6,6,0,1,0-12-.85c-.4,5.51-8.64,122.91-6.42,177.27A36.84,36.84,0,0,0,550.13,1232.24Z"/><path d="M550.13,1232.24a36.84,36.84,0,0,1-12.06-1.16c.25,6,.62,11.31,1.15,15.55a6,6,0,0,0,5.95,5.25,6.28,6.28,0,0,0,.75,0,6,6,0,0,0,5.21-6.7C550.69,1241.58,550.36,1237.22,550.13,1232.24Z" fill="#fff"/><circle cx="589.57" cy="1052.12" r="9.53"/><path d="M591,1233.3c2.45-52.78-6.23-176.22-6.32-177.58a6,6,0,0,1,12-.85c.39,5.51,8.64,122.91,6.41,177.27A36.84,36.84,0,0,1,591,1233.3Z"/><path d="M591,1233.3a36.84,36.84,0,0,0,12.06-1.16c-.25,6-.62,11.3-1.15,15.55a6,6,0,0,1-6,5.25,6.39,6.39,0,0,1-.75,0,6,6,0,0,1-5.21-6.7C590.42,1242.64,590.74,1238.27,591,1233.3Z" fill="#fff"/></g></g></g></svg>