<svg xmlns="http://www.w3.org/2000/svg" width="1262.35" height="2195.18" viewBox="0 0 1262.35 2195.18"><title>2_men_old hair_1</title><g id="Layer_2" data-name="Layer 2"><g id="Character_men02_hair_1-3" data-name="Character_men02_hair 1-3"><g id="_2_men_old_hair_1" data-name="2_men_old hair_1"><path d="M509.12,146.88s-62.32,36.92-62.61,92.31a101.64,101.64,0,0,1-5.29,32.36c-5.13,15.05-8.8,47.95,3.66,119,0,0-23.9-4-23.41-75.71a5.52,5.52,0,0,0-8.23-4.84,30.61,30.61,0,0,0-7.48,6.31S386.29,149.12,509.12,146.88Z" fill="#eaeaea"/><path d="M420.59,272.35c-7-14.6-8.22-31.25-7-48-13.32,44.61-7.82,91.89-7.82,91.89a30.61,30.61,0,0,1,7.48-6.31,5.52,5.52,0,0,1,8.23,4.84c-.49,71.73,23.41,75.71,23.41,75.71-10.63-60.62-9.52-93.46-5.77-111.14C431.28,280.27,423.83,278.84,420.59,272.35Z" fill="#b2b2b2"/><path d="M639.58,146.88s62.31,36.92,62.6,92.31a101.64,101.64,0,0,0,5.29,32.36c5.13,15.05,8.8,47.95-3.66,119,0,0,23.9-4,23.41-75.71a5.52,5.52,0,0,1,8.23-4.84,30.61,30.61,0,0,1,7.48,6.31S762.4,149.12,639.58,146.88Z" fill="#eaeaea"/><path d="M728.11,272.35c7-14.6,8.21-31.25,7-48,13.32,44.61,7.81,91.89,7.81,91.89a30.61,30.61,0,0,0-7.48-6.31,5.52,5.52,0,0,0-8.23,4.84c.49,71.73-23.41,75.71-23.41,75.71,10.64-60.62,9.52-93.46,5.77-111.14C717.42,280.27,724.86,278.84,728.11,272.35Z" fill="#b2b2b2"/><rect width="1262.35" height="2195.18" fill="none"/></g></g></g></svg>