<svg xmlns="http://www.w3.org/2000/svg" width="1262.35" height="2193.94" viewBox="0 0 1262.35 2193.94"><defs><style>.a{fill:none;}.b{fill:#73402a;}.c{fill:#5e321e;}.d{fill:#824f39;}</style></defs><title>2_men_face_4</title><rect class="a" width="1262.35" height="2193.94"/><path class="b" d="M454.91,368.87c-23.65,8.41-48.51-23.68-34.88-39,8.65-9.71,25,7.12,29.23,11.8l-2.4-11.58s-13.86-31.88-33-20.74-14.43,38-7.48,51.47,30.72,41.2,51.36,21.6Z"/><path class="c" d="M420,329.86c-13.63,15.33,11.23,47.42,34.88,39l-5.65-27.21C445,337,428.68,320.15,420,329.86Z"/><path class="b" d="M694.11,368.87c23.65,8.41,48.51-23.68,34.88-39-8.65-9.71-25,7.12-29.23,11.8l2.4-11.58s13.86-31.88,33-20.74,14.43,38,7.48,51.47-30.73,41.2-51.36,21.6Z"/><path class="c" d="M729,329.86c13.63,15.33-11.23,47.42-34.88,39l5.65-27.21C704,337,720.34,320.15,729,329.86Z"/><path class="d" d="M574.2,133.33c-160,2.77-143.44,165.14-143.44,165.14s-2.76,87.65,7.83,118.71,35.29,41.64,74.82,55.06c0,0,18.35,24,60.71,22.58h.15c42.36,1.42,60.71-22.58,60.71-22.58,39.53-13.42,64.24-24,74.82-55.06s7.83-118.71,7.83-118.71S734.22,136.1,574.2,133.33Z"/><path class="b" d="M529.76,468.85c33.93,7.72,54.9,8.6,89.19,0C619,468.85,575.37,503.47,529.76,468.85Z"/></svg>