<svg xmlns="http://www.w3.org/2000/svg" width="1262.35" height="2193.94" viewBox="0 0 1262.35 2193.94"><title>2_men_hair_7</title><g id="Layer_2" data-name="Layer 2"><g id="Layer_148" data-name="Layer 148"><g id="_2_men_hair_7" data-name="2_men_hair_7"><rect width="1262.35" height="2193.94" fill="none"/><path d="M424.59,193.18c-8.82.88-16,4.28-24.47,6.58-4,29.84-1.76,73.17,3.17,117.53,0,0,7.42-14.82,26.47-8.47,0,0,1-83.33,29.37-120.75-15.91,10.8-28.89,25.29-43.54,38.11C419.59,215.18,419.59,203.18,424.59,193.18Z" fill="#423d1c"/><path d="M715.59,183.18c4,10,10,18,14,28,4-12,9-23,11-35a79.6,79.6,0,0,0,8,4.9l17.86-3.55s-25.41-29.65-37.06-34.94l22.94-7.53c-13.16-18.34-21.85-30.45-53.64-42.24,3.17-10.58,3.17-10.58,10.58-19.06-19-6.35-27.74-2.91-45.53,2.12,2.38-9.92-.58-19.94,3.18-28.59-15.88,1.06-34,4-45.53,14.83-5-4.87-8.94-12.54-12.7-29.65-20.53,4.69-26,14.68-38.12,26.47-5.59-11.77-16-20.13-34.94-26.47l-7.41,23.29c-20.47-7.54-37.15-11.12-59.3-2.11l10.59,18c-23.39,3.79-38.83,3.83-61.41,20.11l18,10.59c-20.95,11-31.45,23.12-46.59,42.36l24.35,4.23c-18.49,14.29-26.14,27-33.88,46.59l20.12,4.23c0,.2-.05.4-.08.59,8.46-2.3,15.73-6.29,24.55-7.17-5,10-5,22-9,33,14.65-12.82,27.63-27.31,43.54-38.11q1.67-2.2,3.46-4.19s.13.62.41,1.67l.59-.37-.59.37c1.1,4.1,4.49,14.88,11.24,21.63,0,0,22.23-28.59,37.05-37.06,0,0-5.29,10.59,4.24,25.41,0,0,31.76-30.71,52.94-39.18,0,0-2.12,11.65,1.06,28.59,0,0,36-26.47,49.76-30.7,0,0,27.53,15.88,29.65,38.11,0,0,15.88-6.35,23.3-26.47,0,0,9.52,26.47,5.29,48.71a36,36,0,0,0,16.77-5.12C702.12,201.7,710.74,193.85,715.59,183.18Z" fill="#575025"/><path d="M740.59,176.18c-2,12-7,23-11,35-4-10-10-18-14-28-4.85,10.67-13.47,18.52-21.29,26.29a35.6,35.6,0,0,0,3.35-2.29c12,28.83,15.53,62.57,21.17,104.82,0,0,5.3-10.35,20.36,1.41,9.88-61.65,8.94-89.88,8.94-132.23l.49-.1A79.6,79.6,0,0,1,740.59,176.18Z" fill="#423d1c"/><path d="M698.71,92.82c3.17-10.58,3.17-10.58,10.58-19.06-19-6.35-27.74-2.91-45.53,2.12,2.38-9.92-.58-19.94,3.18-28.59-15.88,1.06-34,4-45.53,14.83-5-4.87-8.94-12.54-12.7-29.65-20.53,4.69-26,14.68-38.12,26.47-5.59-11.77-16-20.13-34.94-26.47l-7.41,23.29c-20.47-7.54-37.15-11.12-59.3-2.11l10.59,18c-23.39,3.79-38.83,3.83-61.41,20.11l1.08.64,16.92,9.95c-20.95,11-31.45,23.12-46.59,42.36h0c19-19.87,46.83-29.21,72-38.53-7.52-5.26-13.9-11.65-21.28-17.05q-5.58.84-11.17,1.75c25.79-4.1,51.47-8.53,76.45,2.3-2-13-10-25-21-33,23,6,48,10,67,26-6-11-1-25-7-36,12,11,24,21,33,35,3-14,13-26,21-38,0,14,3,28,7,41C617.91,76.67,632.94,67.2,649,62c-4.81,10.8-5.42,24.68-5.42,36.21,13.38-7.09,27.39-11.07,42-14.4-4.72,8.62-7.33,18.55-11,27.4,26-8.92,54.21,2,74.79,19.75C737.72,114.86,728.06,103.7,698.71,92.82ZM424.29,91.64l.31,0Z" fill="#706832"/></g></g></g></svg>