<?xml version="1.0" encoding="UTF-8"?>
<svg width="1263px" height="2194px" viewBox="0 0 1263 2194" xmlns="http://www.w3.org/2000/svg" xmlns:xlink="http://www.w3.org/1999/xlink" version="1.1">
 <!-- Generated by Pixelmator Pro 1.7.1 -->
 <defs>
  <linearGradient id="linear-gradient" gradientUnits="userSpaceOnUse" x1="265.57" y1="770.561" x2="867.919" y2="770.561">
   <stop offset="0.398" stop-color="#fb12fe" stop-opacity="1"/>
   <stop offset="0.457" stop-color="#d440f9" stop-opacity="1"/>
   <stop offset="0.541" stop-color="#a27af3" stop-opacity="1"/>
   <stop offset="0.619" stop-color="#7aa8ee" stop-opacity="1"/>
   <stop offset="0.687" stop-color="#5ec9eb" stop-opacity="1"/>
   <stop offset="0.744" stop-color="#4cdde9" stop-opacity="1"/>
   <stop offset="0.782" stop-color="#46e4e8" stop-opacity="1"/>
  </linearGradient>
 </defs>
 <path id="Path-copy" d="M864.5 668 C837.2 633.1 784.2 576.8 784.2 576.8 768.7 556.7 741.8 541.5 714.6 530.6 714.3 529.7 713.9 528.9 713.6 528.1 702.9 524.6 684 519.5 669 515.8 662.4 514.1 656.2 512.6 650.8 511.5 643.6 510 635.5 508.8 628.7 508 615.8 523.9 595.1 539.8 574.2 540.2 556 540.6 537 524.7 523.8 510.5 L506.6 515.8 451.8 527.5 451.2 528.7 C401.1 537.7 360.2 568.6 333.6 601.6 331.9 603.7 298.7 634.5 271.2 655.6 266.4 659.3 264.5 665.6 266.3 671.3 279.8 713.7 317 750.7 345.8 768.8 349.7 771.2 354.7 771 358.3 768.2 393.6 740.7 411.5 722.4 411.5 722.4 399.9 808.2 393.7 916.9 391.4 1004.2 391.5 1004.2 574.5 1069.5 754.6 1004.8 757.8 924.7 751.7 812 746.1 732.4 746.1 732.4 759.3 751.3 767.2 762.5 770.6 767.2 776.9 768.8 782.1 766.2 812.1 751.4 847.8 722.9 866.3 685.1 869 679.4 868.3 672.8 864.5 668 Z" fill-opacity="1" fill="url(#linear-gradient)" stroke="none"/>
 <path id="Path-1-copy" d="M573.9 552.5 L615.2 592.7 C615.2 592.7 654.7 554.1 657 512.8 654.6 512.2 652.5 511.8 650.9 511.4 643.7 509.9 635.6 508.7 628.8 507.9 615.9 523.8 595.2 539.6 574.3 540.1 556.1 540.5 537.1 524.6 523.9 510.4 L506.7 515.7 491.8 518.9 C495.8 536.5 505.7 567.5 528.4 593.8 Z" fill="#231f20" fill-opacity="1" stroke="none"/>
 <path id="Path-2-copy" d="M411.5 722.2 C411.5 722.2 402.6 730.9 389.5 742.4 404.2 729.8 411.5 722.2 411.5 722.2 Z" fill="none" stroke="none"/>
 <path id="Path-3-copy" d="M423.8 618.2 C423.8 618.2 405.8 684.5 403.9 712.8 403.9 712.8 379.8 740.6 356.8 762.1 353.5 765.2 350.7 767.9 348.8 769.9 352.1 770.8 355.7 770.1 358.4 768 371.1 758.2 381.5 749.5 389.6 742.4 402.6 730.9 411.6 722.2 411.6 722.2 411.3 723.8 423.8 618.2 423.8 618.2 Z" fill="#2b3584" fill-opacity="1" stroke="none"/>
 <path id="Path-4-copy" d="M746.1 732.2 C746.1 732.2 758.6 751.7 767.2 762.3 774.7 771.5 782.1 766 782.1 766 L752.2 727.4 C740.7 690.1 734.8 643.2 734.8 643.2 Z" fill="#2b3584" fill-opacity="1" stroke="none"/>
 <path id="Path-5-copy" d="M404.9 645 C407.4 644.7 408.2 642.3 406.3 641 378.8 629.6 366.1 619.3 348.2 603.5 345.6 601.8 341.6 602.7 340.5 605.3 332.1 624.6 342.9 652.7 404.9 645 Z" fill="#2b3584" fill-opacity="1" stroke="none"/>
 <path id="Path-6-copy" d="M407.3 648.8 C407.3 648.8 367.4 655 349.6 650.6 333.7 646.6 335.8 668.7 352.3 665.9 368.8 663.1 384.7 660.6 407.3 648.8 Z" fill="#2b3584" fill-opacity="1" stroke="none"/>
 <path id="Path-7-copy" d="M745 647.9 C743.7 648.1 742.6 647.2 742.4 645.9 742.3 645.3 742.4 644.8 742.8 644.3 760.3 626.9 766.9 613.9 775.9 594.4 777.1 592.6 779.5 592.1 781.3 593.3 781.7 593.6 782 593.9 782.3 594.3 794.4 611.2 794.5 641 745 647.9 Z" fill="#2b3584" fill-opacity="1" stroke="none"/>
 <path id="Path-8-copy" d="M561.8 545.8 L559.8 611.4 C559.8 615.1 562.8 618.2 566.5 618.2 L582.8 618.4 C586.5 618.5 589.6 615.5 589.7 611.8 L590.3 545.3 574.3 540.1 Z" fill="#020202" fill-opacity="1" stroke="none"/>
 <path id="Path-9-copy" d="M537.5 487.9 L537.5 505.5 C537.5 505.5 546.7 526.7 574.2 540.1 L528.7 581 C528.7 581 505 540.1 502.2 515.3 L524.8 491.3 C524.8 491.4 529.1 485.1 537.5 487.9 Z" fill="#ffffff" fill-opacity="1" stroke="none"/>
 <path id="Path-10-copy" d="M609.8 511 C605 517.7 593.8 530.6 574.2 540.2 L616.5 578 C624.3 567.7 631.3 556.9 637.4 545.6 636.7 540.4 634.6 535.5 631.5 531.3 625.9 523.9 619.5 513.9 609.8 511 Z" fill="#ffffff" fill-opacity="1" stroke="none"/>
 <path id="Path-11-copy" d="M625.4 492.5 C625.4 492.5 621.2 486.1 612.7 489 L612.7 506.6 C611.8 508.1 610.9 509.6 609.8 511 619.5 513.9 625.9 523.9 631.6 531.2 634.8 535.4 636.8 540.3 637.5 545.5 642.6 535.8 649.8 520.4 650.8 511.5 Z" fill="#c6c6c6" fill-opacity="1" stroke="none"/>
 <defs>
  <linearGradient id="linear-gradient-1" gradientUnits="userSpaceOnUse" x1="568.94" y1="567.29" x2="583.76" y2="567.29">
   <stop offset="0.398" stop-color="#fb12fe" stop-opacity="1"/>
   <stop offset="0.457" stop-color="#d440f9" stop-opacity="1"/>
   <stop offset="0.541" stop-color="#a27af3" stop-opacity="1"/>
   <stop offset="0.619" stop-color="#7aa8ee" stop-opacity="1"/>
   <stop offset="0.687" stop-color="#5ec9eb" stop-opacity="1"/>
   <stop offset="0.744" stop-color="#4cdde9" stop-opacity="1"/>
   <stop offset="0.782" stop-color="#46e4e8" stop-opacity="1"/>
  </linearGradient>
 </defs>
 <path id="Path-12-copy" d="M583.7 567.3 C583.7 571.387 580.387 574.7 576.3 574.7 572.213 574.7 568.9 571.387 568.9 567.3 568.9 563.213 572.213 559.9 576.3 559.9 580.387 559.9 583.7 563.213 583.7 567.3 Z" fill-opacity="1" fill="url(#linear-gradient-1)" stroke="none"/>
 <defs>
  <linearGradient id="linear-gradient-2" gradientUnits="userSpaceOnUse" x1="568.94" y1="602.94" x2="583.76" y2="602.94">
   <stop offset="0.398" stop-color="#fb12fe" stop-opacity="1"/>
   <stop offset="0.457" stop-color="#d440f9" stop-opacity="1"/>
   <stop offset="0.541" stop-color="#a27af3" stop-opacity="1"/>
   <stop offset="0.619" stop-color="#7aa8ee" stop-opacity="1"/>
   <stop offset="0.687" stop-color="#5ec9eb" stop-opacity="1"/>
   <stop offset="0.744" stop-color="#4cdde9" stop-opacity="1"/>
   <stop offset="0.782" stop-color="#46e4e8" stop-opacity="1"/>
  </linearGradient>
 </defs>
 <path id="Path-13-copy" d="M583.7 602.9 C583.7 606.987 580.387 610.3 576.3 610.3 572.213 610.3 568.9 606.987 568.9 602.9 568.9 598.813 572.213 595.5 576.3 595.5 580.387 595.5 583.7 598.813 583.7 602.9 Z" fill-opacity="1" fill="url(#linear-gradient-2)" stroke="none"/>
 <path id="Path-14-copy" d="M411.1 853.6 C408.5 883.4 403.8 939.7 403 974.5 402.7 985.1 409.5 994.5 419.6 997.7 460.3 1010.5 564 1046.9 728.4 1003.3 739.3 1000.4 747.2 991.1 747.1 979.9 L746.8 940.4 C746.8 936.4 741.4 932.2 738.9 935.4 713.6 968.5 484.9 1038.4 421.5 851.5 419.8 846.3 411.6 848.1 411.1 853.6 Z" fill="#2b3584" fill-opacity="1" stroke="none"/>
 <path id="Path-15-copy" d="M538.1 506.7 C537.7 505.9 537.5 505.5 537.5 505.5 L537.5 487.9 C529 485.1 524.8 491.4 524.8 491.4 L502.2 515.4 C503.2 524.1 506.7 534.7 510.9 544.9 513.1 528.6 523.1 509.4 538.1 506.7 Z" fill="#c6c6c6" fill-opacity="1" stroke="none"/>
 <path id="Path-16-copy" d="M574.2 540.1 C550.5 528.6 540.4 511.3 538.1 506.7 523.1 509.4 513.1 528.6 511 544.9 516.2 557.3 522.1 569.3 528.7 581 Z" fill="#ffffff" fill-opacity="1" stroke="none"/>
 <path id="Path-17-copy" d="M417.2 658.4 C417.2 658.4 637.4 629.8 737 655.2 L748.7 720.8 753 842.8 C753 842.8 554 818.2 398.5 846.7 Z" fill="#2b3584" fill-opacity="1" stroke="none"/>
 <g id="Logo_x5F_02-copy">
  <path id="Path-18" d="M497.9 749.2 L503.1 748.9 505.5 738.5 497.9 740.6 Z" fill="#f1f1f2" fill-opacity="1" stroke="none"/>
  <path id="Path-19" d="M676.8 789.7 L689.6 783 681.9 772.8 708.6 768.8 672.8 741 698.1 729.6 674 718 683.4 711.5 675.8 708.9 699.6 684.7 467.4 733.6 473.6 742 458.8 748 472.8 755.1 467.3 762.2 473.6 763.6 468.1 783.4 496.6 781.7 493.5 790.3 518.5 782.3 516 796.7 542.3 787.4 543.8 797.3 554.5 789.2 566.1 807.5 582.6 792.9 591.4 811 597.1 799.8 620.3 818.5 630 805 642.8 815.8 642.4 805.4 694.9 834.3 Z M498.4 757.1 L497.8 773.1 485.1 772.4 486.6 743.8 482.6 735.3 497 732.1 C497 732.1 509.9 728.9 518.2 727.2 515.8 736.8 513.9 746.3 512.4 756 506.4 756.4 498.4 757.1 498.4 757.1 Z M541.9 774.5 C533.1 774.3 524.3 774.1 515.5 774 516.5 757.8 518.5 742.1 522.5 726.3 526.9 725.4 529.1 725 533.6 724.1 530.5 736.9 528.5 749.9 527.1 763 528.9 763 529.7 762.9 531.5 762.9 532.9 749.5 534.9 736.3 538.1 723.2 542.7 722.3 545 721.9 549.8 720.9 545.9 738.8 543.3 756.4 541.9 774.5 Z M562.8 775.2 C561.4 768.5 560.8 765.3 559.6 759.3 558.9 765.4 558.5 768.5 558 775 553.3 774.8 551 774.8 546.4 774.6 547.9 756.2 550.4 738 554.6 720 559.4 719.1 561.9 718.6 566.8 717.7 567.3 724 567.6 727.3 568.3 734.3 569.6 727.1 570.3 723.6 571.9 716.7 576.9 715.8 579.4 715.3 584.5 714.3 580.3 734.6 577.1 754.9 574.9 775.5 570 775.4 567.6 775.3 562.8 775.2 Z M600.9 723.1 C598.5 736.1 596.5 749.2 594.7 762.3 L600.1 762.3 C600.7 758 601 755.8 601.6 751.6 607.1 751.4 609.9 751.3 615.7 751.1 614.5 759.8 613.4 768.5 612.3 777.3 601.5 776.7 590.7 776.2 579.9 775.8 582.2 754.8 585.3 734 589.7 713.4 600.7 711.3 611.6 709.3 622.6 707.3 620.9 717.1 619.4 726.9 617.8 736.7 612 737.2 609.2 737.4 603.6 737.9 604.6 731.6 605.1 728.5 606.2 722.4 604.2 722.6 603.1 722.8 600.9 723.1 Z M659.6 781.9 L639.8 778.8 C639.8 778.8 642.3 760.2 643.6 750.9 641 751 639.8 751 637.3 751 636 760.1 634.7 769.3 633.4 778.4 627.1 778.1 624.1 777.9 618.2 777.6 621.2 753.7 624.6 729.9 628.4 706.2 634.2 705.1 637.1 704.6 643.1 703.5 641.8 713.6 640.5 723.7 639.2 733.8 641.9 733.6 643.2 733.5 646 733.3 647.6 722.9 649.2 712.5 650.8 702.2 656.3 701.2 663.5 699.7 663.5 699.7 Z" fill="#f1f1f2" fill-opacity="1" stroke="none"/>
  <path id="Path-20" d="M482 699.9 C490.2 698.9 498.3 698 506.5 697 L506.5 707 C503.9 707.4 502.5 707.6 499.8 708.1 499.8 705.3 499.8 704 499.8 701.6 493.9 702.4 488 703.2 482.1 704 482.2 711.3 482.1 718.6 481.9 725.9 495.4 723.1 508.9 720.3 522.4 717.4 522.7 707.2 522.8 697 522.8 686.8 515.1 687.4 507.4 688.1 499.7 688.7 499.7 684.9 499.7 683 499.7 678.1 502.4 678 503.8 677.9 506.4 677.8 506.4 680.6 506.4 681.9 506.5 684.3 512 683.9 517.4 683.6 522.9 683.2 522.9 676.7 523 670.2 523.1 663.7 509.5 663.6 495.9 663.6 482.3 663.5 481.9 675.6 481.8 687.7 482 699.9 Z" fill="#f1f1f2" fill-opacity="1" stroke="none"/>
  <path id="Path-21" d="M550 663.8 C549.9 675.8 550 687.9 549.9 699.9 547.6 700.3 546.5 700.5 544.1 700.9 544.2 688.5 544.2 676.2 544.3 663.8 538.5 663.8 535.5 663.8 529.3 663.7 529 681.1 529.1 698.6 528.7 716 540.5 713.5 552.2 711 563.9 708.4 564.1 693.5 563.9 678.7 563.9 663.8 558.5 663.9 555.7 663.8 550 663.8 Z" fill="#f1f1f2" fill-opacity="1" stroke="none"/>
  <path id="Path-22" d="M663.5 664.4 L637.3 664.3 637.1 692 647.7 689.4 647.8 680 C647.8 680 650.4 679.6 652.1 679.4 652.2 681.8 652.2 688.5 652.2 688.5 L663.6 686 663.6 679.4 660.2 677.8 663.6 676 Z M652.1 675.4 L647.7 675.9 647.7 671.1 652.1 670.9 Z" fill="#f1f1f2" fill-opacity="1" stroke="none"/>
  <path id="Path-23" d="M604.2 699.2 L632.4 692.9 632.5 686 617.1 688 617.1 684.7 632.5 682.7 632.5 675.1 617.1 676.4 617.1 672.8 632.5 672.1 632.6 664.2 604.2 664.1 Z" fill="#f1f1f2" fill-opacity="1" stroke="none"/>
  <path id="Path-24" d="M569.4 707.4 C574.8 706.2 582.3 704.5 582.3 704.5 L582.3 689.2 599.7 686.9 599.8 664.2 C589.8 664.2 579.2 664.1 569.2 664.1 569.4 678.5 569.5 692.9 569.4 707.4 Z M582.3 674.5 L587.4 674.3 587.4 680.4 582.3 680.9 Z" fill="#f1f1f2" fill-opacity="1" stroke="none"/>
 </g>
</svg>
