<svg xmlns="http://www.w3.org/2000/svg" width="1262.35" height="2193.94" viewBox="0 0 1262.35 2193.94"><title>2_men_hair_6</title><g id="Layer_2" data-name="Layer 2"><g id="Layer_148" data-name="Layer 148"><g id="_2_men_hair_6" data-name="2_men_hair_6"><rect width="1262.35" height="2193.94" fill="none"/><path d="M767.53,249.53c-5.29-83.65-42.35-214.94-178.94-194.82,0,0-117.53-22.24-173.65,88.94-31.81,63-36.61,112.3-34,153.86a181.13,181.13,0,0,0,26.59,84.37c8.25,13.63,42.65,54.1,47.38,82.73a44.61,44.61,0,0,0,13.75-12.27c-15-10.69-33.25-30.56-35.42-64.63,0,0-46.89-35.53-28.89-69.42,0,0,5.3-8.41,13.77-10.53,0,0,4.23,43.42,34.94,65.65,0,0-14.82-80.47,24.35-130.23,0,0,140.83-12.71,170.47-68.83,0,0,16.94,76.24,52.94,101.65,0,0,6.36,47.65-10.58,64.59,0,0,29.64-12.71,34.94-32.83,0,0,22.23-2.11,22.23,24.36s-13.7,46.64-32.76,55.12c0,0,1,31.35-16.94,51.82,0,0,9.47,7.41,27.47,11.65,0,0-7.42-16.95,1.06-43.42S772.43,326.93,767.53,249.53Z" fill="#6b2c2b"/><path d="M700.12,251.29c-35.3-28.23-48-110.11-48-110.11-32.47,69.17-132.71,81.88-139.77,77.64s4.24-29.64,4.24-29.64c-22.59,14.11-39.18,54-39.18,54s140.83-12.71,170.47-68.83c0,0,16.94,76.24,52.94,101.65A156.42,156.42,0,0,0,700.12,251.29Z" fill="#4f1414"/><path d="M461.53,142.59S396.59,192,396.59,288c0,0-7.67,9.19-15.65,9.51,3.21,37.9,15.37,65.83,26.59,84.37,8.25,13.63,42.65,54.1,47.38,82.73a44.61,44.61,0,0,0,13.75-12.27c-15-10.69-33.25-30.56-35.42-64.63,0,0-46.89-35.53-28.89-69.42,0,0,5.3-8.41,13.77-10.53C418.12,307.76,403.65,211.76,461.53,142.59Z" fill="#4f1414"/><path d="M745.29,288c-1.41-90.35-32.47-112.94-32.47-112.94,33.89,59.29,12.36,132.7,12.36,132.7s22.23-2.11,22.23,24.36-13.7,46.64-32.76,55.12c0,0,1,31.35-16.94,51.82,0,0,9.47,7.41,27.47,11.65,0,0-7.42-16.95,1.06-43.42,6.57-20.55,30.78-57.64,39-109.43C750.68,296.62,745.29,288,745.29,288Z" fill="#4f1414"/><path d="M501.3,75.19C488.85,80.61,477,87.07,467.64,97.1c57.45,60.76,129.44,45.21,129.44,45.21C534.45,123.81,510.1,91.87,501.3,75.19Z" fill="#8c3a38"/><path d="M662.35,142.24s24-19.77,39.53-40.95l19.77,25.42S704.71,139.41,662.35,142.24Z" fill="#8c3a38"/></g></g></g></svg>