<svg xmlns="http://www.w3.org/2000/svg" width="1262.35" height="2193.94" viewBox="0 0 1262.35 2193.94"><title>2_men_hair_1</title><g id="Layer_2" data-name="Layer 2"><g id="Layer_148" data-name="Layer 148"><g id="_2_men_hair_1" data-name="2_men_hair_1"><rect width="1262.35" height="2193.94" fill="none"/><path d="M407.47,101.59s12.77,70.65,128.88,111.32C576.48,227,633.41,231.53,680,210.35c0,0,36.71,57.18,38.12,100.94,0,0,28.23-16.23,29.64,28.95,0,0,67.77-203.3-60.7-228.71,0,0-54-60.58-155.3-26.82C442.82,114.35,407.47,101.59,407.47,101.59Z" fill="#482714"/><path d="M471.06,127.06s-67.3,12.41-78.59,5.35c0,0,2.94,24.3,12.24,44.06,0,0-29.65,72-1.42,142.59,0,0,11.3-18.35,26.83-9.88,0,0,0-97.42,53.64-135.53Z" fill="#482714"/><path d="M468.48,171.06c-25.53,23.31-42,56.09-48.59,90.57a8.11,8.11,0,0,1-12.57,5.11c-6.4-4.43-12.1-9.57-16.21-15.61-.17,21,2.83,44.55,12.18,67.93,0,0,11.3-18.35,26.83-9.88a242.17,242.17,0,0,1,2.3-29.08c3.94-29.41,14.67-74.17,43.78-100.35A33.12,33.12,0,0,1,468.48,171.06Z" fill="#2e190d"/><path d="M441.41,178.59c-36.7-14.12-48.94-46.18-48.94-46.18s.12,24.3,12.24,44.06C425.88,180.71,441.41,178.59,441.41,178.59Z" fill="#2e190d"/><path d="M478.82,107.65s63.53,81.53,194.83,62.47c0,0-108,3.17-156.71-70.94Z" fill="#6d3c1f"/><path d="M704,176.94s33.88,10.35,45.88-4.7c0,0,8.71,24.94,5.3,32.82C755.18,205.06,727.53,201.41,704,176.94Z" fill="#6d3c1f"/><path d="M728.54,272.14c-13.66-42.75-37.25-71.67-37.25-71.67,7.06-45.88-1.41-73.41-1.41-73.41,0,25.41-8.47,66.35-8.47,66.35-172.23,57.88-273.94-91.82-273.94-91.82s12.77,70.65,128.88,111.32C576.48,227,633.41,231.53,680,210.35c0,0,23.84,37.15,33.83,74.48h0a119.62,119.62,0,0,1,4.29,26.46c21.56-8.49,28.91,5.59,29.64,28.95,0,0,13.87-41.59,17.16-89.49a61.94,61.94,0,0,1-23.06,26.41A9,9,0,0,1,728.54,272.14Z" fill="#2e190d"/></g></g></g></svg>