<?xml version="1.0" encoding="utf-8"?>
<!-- Generator: Adobe Illustrator 24.0.2, SVG Export Plug-In . SVG Version: 6.00 Build 0)  -->
<svg version="1.1" id="Layer_1" xmlns="http://www.w3.org/2000/svg" xmlns:xlink="http://www.w3.org/1999/xlink" x="0px" y="0px"
	 viewBox="0 0 1262.3 2193.9" style="enable-background:new 0 0 1262.3 2193.9;" xml:space="preserve">
<style type="text/css">
	.st0{fill:none;}
	.st1{fill:#300F00;fill-opacity:0.7;}
</style>
<title>2_nose_2</title>
<g id="Layer_2_1_">
	<g id="Layer_148">
		<g id="_2_nose_2">
			<rect class="st0" width="1262.3" height="2193.9"/>
			<path class="st1" d="M575.5,318.3c-0.5-0.7-0.4-1.6,0.2-2.2c0.5-0.4,1.1-0.5,1.7-0.2c4.6,2.2,10.5,5.5,12.6,8.8
				c3.5,5.6,17.7,38.8,13.4,45.9c-2.8,4.7-16.8,10.9-25.9,14.6c-1.1,0.4-2.3-0.1-2.7-1.2c-0.3-0.8-0.1-1.7,0.5-2.2
				c5.7-5.3,13.3-12.6,13.3-16.8c0-7.1-6.3-38.1-6.3-38.1L575.5,318.3z"/>
			<path class="st1" d="M570.2,375.5c0,0-12-12.7-13.4-7.1S570.2,375.5,570.2,375.5z"/>
		</g>
	</g>
</g>
</svg>
