<svg xmlns="http://www.w3.org/2000/svg" xmlns:xlink="http://www.w3.org/1999/xlink" width="1259.23" height="2194.12" viewBox="0 0 1259.23 2194.12"><defs><clipPath id="clip-path"><path d="M546.21,292.17s8.32,3.76,15.91,3.15c4-.32,15.73-3,26.08-5.44,11.28-2.68,18.81-3.17,24.1-13.49h0S581.94,237,535.64,263.13C535.64,263.13,535,282.48,546.21,292.17Z" fill="none"/></clipPath><clipPath id="clip-path-2"><path d="M739.38,291.12s-8.32,3.76-15.92,3.14c-4-.32-15.72-3-26.08-5.44-11.27-2.68-18.81-3.17-24.09-13.49h0s30.36-39.39,76.65-13.26C749.94,262.07,750.6,281.42,739.38,291.12Z" fill="none"/></clipPath></defs><title>3_eyes_2</title><g id="Layer_2" data-name="Layer 2"><g id="Layer_141" data-name="Layer 141"><g id="_3_eyes_2" data-name="3_eyes_2"><path d="M546.21,292.17s8.32,3.76,15.91,3.15c4-.32,15.73-3,26.08-5.44,11.28-2.68,18.81-3.17,24.1-13.49h0s-34.6-42.57-76.66-13.26C535.64,263.13,535,282.48,546.21,292.17Z" fill="#fff"/><g clip-path="url(#clip-path)"><circle cx="571.8" cy="271.8" r="23.15" fill="#1a3e5c"/></g><path d="M612.3,276.39s-13.21-33.32-21.85-34.58c-40.27-5.87-65.33,22.67-65.39,26.31,6.84-5.09,23.17-15.5,43.12-16.3C594.65,250.76,612.3,276.39,612.3,276.39Z" fill="#824828"/><path d="M612.3,276.39s-17.65-25.63-44.12-24.57c-19.95.8-36.28,11.21-43.12,16.3-.19,10,13.49,23.27,21.15,24.05,0,0-9.76-12.5-8-21.13C538.23,271,576.65,245.47,612.3,276.39Z" fill="#3b2213"/><path d="M739.38,291.12s-8.32,3.76-15.92,3.14c-4-.32-15.72-3-26.08-5.44-11.27-2.68-18.81-3.17-24.09-13.49h0s34.59-42.57,76.65-13.26C749.94,262.07,750.6,281.42,739.38,291.12Z" fill="#fff"/><g clip-path="url(#clip-path-2)"><circle cx="713.78" cy="270.74" r="23.15" fill="#1a3e5c"/></g><path d="M673.29,275.33S686.5,242,695.14,240.75c40.27-5.87,65.32,22.67,65.39,26.31-6.85-5.09-23.18-15.5-43.12-16.3C690.94,249.71,673.29,275.33,673.29,275.33Z" fill="#824828"/><path d="M673.29,275.33s17.65-25.62,44.12-24.57c19.94.8,36.27,11.21,43.12,16.3.18,10-13.49,23.27-21.15,24.06,0,0,9.76-12.51,8-21.14C747.36,270,708.94,244.41,673.29,275.33Z" fill="#3b2213"/><rect width="1259.23" height="2194.12" fill="none"/></g></g></g></svg>