<svg xmlns="http://www.w3.org/2000/svg" width="1259.23" height="2194.12" viewBox="0 0 1259.23 2194.12"><title>3_eyes_7</title><g id="Layer_2" data-name="Layer 2"><g id="Layer_141" data-name="Layer 141"><g id="_3_eyes_7" data-name="3_eyes_7"><path d="M531.46,254.63s-4.16,30.42,31.19,43.15l-14.94-43.63Z" fill="#3b2213"/><path d="M541.57,253.16s-9.29,40.22,29.77,45.55S611.15,281,611.15,281s-27.1-32.88-67.41-28.14" fill="#fff"/><path d="M559.69,258.78a25.18,25.18,0,0,0-5.57,10.45c-3.38,13.07,4,26.3,16.57,29.54s25.44-4.7,28.82-17.77a25.25,25.25,0,0,0,.74-8.37C587,267.1,573.91,261.35,559.69,258.78Z" fill="#3a8294"/><path d="M531.46,254.63l8.19,14.25c14.58-11.29,59.29-2.35,71.5,12.14C611.15,281,605.53,234.06,531.46,254.63Z" fill="#3b2213"/><path d="M757.53,254.63s4.16,30.42-31.19,43.15l14.94-43.63Z" fill="#3b2213"/><path d="M747.42,253.16s9.28,40.22-29.77,45.55S677.84,281,677.84,281s27.1-32.88,67.41-28.14" fill="#fff"/><path d="M729.3,258.78a25,25,0,0,1,5.56,10.45c3.39,13.07-4,26.3-16.56,29.54s-25.44-4.7-28.83-17.77a25.24,25.24,0,0,1-.73-8.37C702,267.1,715.07,261.35,729.3,258.78Z" fill="#3a8294"/><path d="M757.53,254.63l-8.19,14.25c-14.58-11.29-59.29-2.35-71.5,12.14C677.84,281,683.46,234.06,757.53,254.63Z" fill="#3b2213"/><rect width="1259.23" height="2194.12" fill="none"/></g></g></g></svg>