<svg xmlns="http://www.w3.org/2000/svg" width="1259.23" height="2194.12" viewBox="0 0 1259.23 2194.12"><title>3_eyes_3</title><g id="Layer_2" data-name="Layer 2"><g id="Layer_141" data-name="Layer 141"><g id="_3_eyes_3" data-name="3_eyes_3"><path d="M535.35,269.82s-3.17,34.94,64.59,22.24C611.09,290,611.59,273,611.59,273s-24.36-24.35-73.06-4.24" fill="#fff"/><circle cx="573.82" cy="273.59" r="21.18" fill="#5e361e"/><path d="M522.65,271.94s6.22-10.51,21.76-15.29c16.77-5.17,44.22-7.3,57.41-2.36,0,0,5.53,6,9.77,18.71C611.59,273,586.17,256.06,522.65,271.94Z" fill="#3b2213"/><path d="M756.29,269.82s3.18,34.94-64.59,22.24C680.56,290,680.06,273,680.06,273s24.35-24.35,73.06-4.24" fill="#fff"/><circle cx="717.82" cy="273.59" r="21.18" fill="#5e361e"/><path d="M769,271.94s-6.23-10.51-21.77-15.29c-16.77-5.17-44.22-7.3-57.41-2.36,0,0-5.53,6-9.76,18.71C680.06,273,705.47,256.06,769,271.94Z" fill="#3b2213"/><rect width="1259.23" height="2194.12" fill="none"/></g></g></g></svg>