<svg xmlns="http://www.w3.org/2000/svg" width="1259.23" height="2194.12" viewBox="0 0 1259.23 2194.12"><title>3_eyes_6</title><g id="Layer_2" data-name="Layer 2"><g id="Layer_141" data-name="Layer 141"><g id="_3_eyes_6" data-name="3_eyes_6"><path d="M527.52,268s-2,37,30.77,36.37c10.84-.2,50.12-4.23,50.12-4.23,10.59-6.36,6.47-26.89,6.47-26.89S586.72,253.82,527.52,268Z" fill="#946246"/><path d="M544.25,296.38a31.25,31.25,0,0,0,11.28,3.45c6.55.71,33.63-4.24,55.29-11.83l4.06-14.71c-41.22-16.2-75-8.41-81-1.58S544.25,296.38,544.25,296.38Z" fill="#fff"/><path d="M597.91,266.3a54.47,54.47,0,0,0-21.44-2.17,131.43,131.43,0,0,1,24.38,4.46A5.82,5.82,0,0,0,597.91,266.3Z" fill="#8c531b"/><path d="M602.3,273c-.11-.67-.24-1.34-.4-2a7,7,0,0,0-1-2.38,131.43,131.43,0,0,0-24.38-4.46,110.26,110.26,0,0,0-18.14,3.16,5.87,5.87,0,0,0-4.23,5,28.5,28.5,0,0,0,.11,8.39,27.39,27.39,0,0,0,11.47,18.39,259.54,259.54,0,0,0,33-7.27A27.64,27.64,0,0,0,602.3,273Z" fill="#8c531b"/><path d="M614.88,273.29c-5.76-11.94-16.35-19-16.35-19-13.95-3.28-41.06,3.76-71,13.75,0,0,1.23,20.89,16.73,28.34,0,0-9.29-17.68-4.08-20.86S579.55,262.59,614.88,273.29Z" fill="#3b2213"/><path d="M763.29,268s2,37-30.76,36.37c-10.85-.2-50.12-4.23-50.12-4.23-10.59-6.36-6.48-26.89-6.48-26.89S704.1,253.82,763.29,268Z" fill="#946246"/><path d="M746.57,296.38a31.25,31.25,0,0,1-11.28,3.45c-6.55.71-33.63-4.24-55.29-11.83l-4.07-14.71c41.22-16.2,75-8.41,81.05-1.58S746.57,296.38,746.57,296.38Z" fill="#fff"/><path d="M692.9,266.3a54.51,54.51,0,0,1,21.44-2.17A131.33,131.33,0,0,0,690,268.59,5.83,5.83,0,0,1,692.9,266.3Z" fill="#8c531b"/><path d="M688.52,273c.11-.67.24-1.34.39-2a7,7,0,0,1,1.06-2.38,131.33,131.33,0,0,1,24.37-4.46,110.19,110.19,0,0,1,18.15,3.16,5.86,5.86,0,0,1,4.22,5,28.16,28.16,0,0,1-.11,8.39,27.34,27.34,0,0,1-11.46,18.39,259.54,259.54,0,0,1-33-7.27A27.64,27.64,0,0,1,688.52,273Z" fill="#8c531b"/><path d="M675.93,273.29c5.77-11.94,16.36-19,16.36-19,14-3.28,41.06,3.76,71,13.75,0,0-1.22,20.89-16.72,28.34,0,0,9.29-17.68,4.08-20.86S711.26,262.59,675.93,273.29Z" fill="#3b2213"/><rect width="1259.23" height="2194.12" fill="none"/></g></g></g></svg>