<svg xmlns="http://www.w3.org/2000/svg" width="1259.23" height="2194.12" viewBox="0 0 1259.23 2194.12"><title>3_eyebrow_3</title><g id="Layer_2" data-name="Layer 2"><g id="Layer_141" data-name="Layer 141"><g id="_3_eyebrow_3" data-name="3_eyebrow_3"><path d="M610.41,236.29a3,3,0,0,0,4.6-2.78c-.51-7.78-4.52-20.77-25-23.69-9.75-1.39-21.73,4.26-29.29,8.65a3,3,0,0,0,1.17,5.61C574.62,225.55,598.2,229.11,610.41,236.29Z" fill="#3b2213"/><path d="M675.89,236.29a3,3,0,0,1-4.59-2.78c.51-7.78,4.51-20.77,25-23.69,9.74-1.39,21.72,4.26,29.29,8.65a3,3,0,0,1-1.17,5.61C711.68,225.55,688.11,229.11,675.89,236.29Z" fill="#3b2213"/><rect width="1259.23" height="2194.12" fill="none"/></g></g></g></svg>