<svg xmlns="http://www.w3.org/2000/svg" xmlns:xlink="http://www.w3.org/1999/xlink" width="1259.23" height="2194.12" viewBox="0 0 1259.23 2194.12"><defs><clipPath id="clip-path"><path d="M542.8,288s7.59,5.06,15.19,5.69c4,.33,16-.37,26.61-1.11a39.63,39.63,0,0,0,29.08-16h0s-54.43-36.08-76.58-19C537.1,257.58,533.3,276.57,542.8,288Z" fill="none"/></clipPath><clipPath id="clip-path-2"><path d="M746.29,288s-7.59,5.06-15.19,5.69c-4,.33-16-.37-26.61-1.11a39.63,39.63,0,0,1-29.08-16h0s54.43-36.08,76.58-19C752,257.58,755.79,276.57,746.29,288Z" fill="none"/></clipPath></defs><title>3_eyes_1</title><g id="Layer_2" data-name="Layer 2"><g id="Layer_141" data-name="Layer 141"><g id="_3_eyes_1" data-name="3_eyes_1"><path d="M542.8,288s7.59,5.06,15.19,5.69c4,.33,16-.37,26.61-1.11a39.63,39.63,0,0,0,29.08-16h0s-54.43-36.08-76.58-19C537.1,257.58,533.3,276.57,542.8,288Z" fill="#fff"/><g clip-path="url(#clip-path)"><circle cx="573.49" cy="274.98" r="20.57" fill="#5e361e"/></g><path d="M613.68,276.57s-3.16-17.09-36.65-24.29c-11.43-2.46-25.65-3.26-43.19.83A9.09,9.09,0,0,0,527.29,265c3,8.24,8.17,19.48,15.51,23,0,0-7.6-13.93-4.43-22.15C538.37,265.81,582,249.35,613.68,276.57Z" fill="#3b2213"/><path d="M746.29,288s-7.59,5.06-15.19,5.69c-4,.33-16-.37-26.61-1.11a39.63,39.63,0,0,1-29.08-16h0s54.43-36.08,76.58-19C752,257.58,755.79,276.57,746.29,288Z" fill="#fff"/><g clip-path="url(#clip-path-2)"><circle cx="715.6" cy="274.98" r="20.57" fill="#5e361e"/></g><path d="M675.41,276.57s3.16-17.09,36.65-24.29c11.43-2.46,25.65-3.26,43.19.83A9.09,9.09,0,0,1,761.8,265c-3,8.24-8.17,19.48-15.51,23,0,0,7.6-13.93,4.44-22.15C750.73,265.81,707.05,249.35,675.41,276.57Z" fill="#3b2213"/><rect width="1259.23" height="2194.12" fill="none"/></g></g></g></svg>