<svg xmlns="http://www.w3.org/2000/svg" width="1259.23" height="2194.12" viewBox="0 0 1259.23 2194.12"><title>3_eyebrow_1</title><g id="Layer_2" data-name="Layer 2"><g id="Layer_141" data-name="Layer 141"><g id="_3_eyebrow_1" data-name="3_eyebrow_1"><path d="M611,248.09c-7.15-7-30.47-25.19-80-26.79-1.6-.05-2.62-1.82-1.51-2.64,4.58-3.4,15.65-8.73,38.4-6.19,21.83,2.43,47.51,13.89,46.07,35.13C613.83,248.82,612.05,249.11,611,248.09Z" fill="#3b2213"/><path d="M677.29,248.09c7.16-7,30.48-25.19,80.05-26.79,1.6-.05,2.62-1.82,1.52-2.64-4.58-3.4-15.65-8.73-38.4-6.19-21.84,2.43-47.51,13.89-46.07,35.13C674.47,248.82,676.25,249.11,677.29,248.09Z" fill="#3b2213"/><rect width="1259.23" height="2194.12" fill="none"/></g></g></g></svg>