<svg xmlns="http://www.w3.org/2000/svg" width="1259.23" height="2194.12" viewBox="0 0 1259.23 2194.12"><title>3_eyes_9</title><g id="Layer_2" data-name="Layer 2"><g id="Layer_141" data-name="Layer 141"><g id="_3_eyes_9" data-name="3_eyes_9"><path d="M537.06,262.29s-7.78,35.51,31.63,36.43c32.37.75,36.13-14.78,36.13-14.78s-.48-12.94-9.41-18.82c-11.23-7.4-33.27-7.76-55.53-3.77" fill="#fff"/><path d="M554.64,259.56a25.23,25.23,0,0,0-4.92,10.77c-2.59,13.25,5.61,26,18.32,28.49s25.11-6.24,27.7-19.48c.56-2.86,0-11.51-.33-14.22C581.8,260.4,569,261.27,554.64,259.56Z" fill="#1b9468"/><path d="M537.06,277.35c3.29-7.53,12.68-13.35,25.41-14.59,29.18-2.82,42.35,21.18,42.35,21.18l9.41-8.94s-18.18-20.87-42.35-24.47c-13.4-2-35.29,4.71-46.12,14.59Z" fill="#3b2213"/><path d="M751.47,262.29s7.78,35.51-31.63,36.43c-32.37.75-36.14-14.78-36.14-14.78s.48-12.94,9.42-18.82c11.23-7.4,33.27-7.76,55.53-3.77" fill="#fff"/><path d="M733.88,259.56a25.11,25.11,0,0,1,4.92,10.77c2.59,13.25-5.6,26-18.31,28.49s-25.11-6.24-27.71-19.48c-.55-2.86,0-11.51.34-14.22C706.73,260.4,719.52,261.27,733.88,259.56Z" fill="#1b9468"/><path d="M751.47,277.35c-3.29-7.53-12.69-13.35-25.41-14.59-29.18-2.82-42.36,21.18-42.36,21.18L674.29,275s18.18-20.87,42.36-24.47c13.39-2,35.29,4.71,46.11,14.59Z" fill="#3b2213"/><rect width="1259.23" height="2194.12" fill="none"/></g></g></g></svg>