<svg xmlns="http://www.w3.org/2000/svg" width="1259.23" height="2194.12" viewBox="0 0 1259.23 2194.12"><title>3_eyebrow_6</title><g id="Layer_2" data-name="Layer 2"><g id="Layer_141" data-name="Layer 141"><g id="_3_eyebrow_6" data-name="3_eyebrow_6"><path d="M619.68,236.73c-7.74-9.93-26.56-26.3-67.7-29a2.19,2.19,0,0,0-1.43,4l.2.15a5.48,5.48,0,0,1-1.69,9.73,43.35,43.35,0,0,0-14.44,7.09,2.19,2.19,0,0,0,1.34,3.95c14.2-.32,51.29-.14,80.36,9A3.08,3.08,0,0,0,619.68,236.73Z" fill="#3b2213"/><path d="M665.39,236.73c7.74-9.93,26.56-26.3,67.7-29a2.19,2.19,0,0,1,1.43,4l-.21.15a5.48,5.48,0,0,0,1.69,9.73,43.3,43.3,0,0,1,14.45,7.09,2.19,2.19,0,0,1-1.34,3.95c-14.21-.32-51.29-.14-80.36,9A3.08,3.08,0,0,1,665.39,236.73Z" fill="#3b2213"/><rect width="1259.23" height="2194.12" fill="none"/></g></g></g></svg>