<svg xmlns="http://www.w3.org/2000/svg" width="1259.23" height="2194.12" viewBox="0 0 1259.23 2194.12"><title>3_eyes_4</title><g id="Layer_2" data-name="Layer 2"><g id="Layer_141" data-name="Layer 141"><g id="_3_eyes_4" data-name="3_eyes_4"><path d="M522.65,271.94S535.7,294.53,547,298.76s52.94-6.7,52.94-6.7l-62.82-26.47Z" fill="#85563c"/><path d="M530.29,269.35,545.82,291c10.29,3.07,32.38,5.14,54.12,1.06l10.82-11.41s-22.35-36.59-71.06-16.47" fill="#fff"/><path d="M597,271.21c0,12.88-10.15,23.32-22.66,23.32s-22.65-10.44-22.65-23.32,9.39-17.62,21.9-17.62S597,258.33,597,271.21Z" fill="#006838"/><path d="M522.65,271.94s6.22-10.51,21.76-15.29c16.77-5.17,30.58-5.42,43.76-.47l-6.58-14.12c2.32,1.52,34.82,19.29,29.17,38.59C610.76,280.65,586.17,256.06,522.65,271.94Z" fill="#3b2213"/><path d="M764.6,271.94s-13.06,22.59-24.36,26.82-52.94-6.7-52.94-6.7l62.83-26.47Z" fill="#85563c"/><path d="M757,269.35,741.42,291c-10.29,3.07-32.38,5.14-54.12,1.06l-10.82-11.41s22.35-36.59,71.06-16.47" fill="#fff"/><path d="M690.21,271.21c0,12.88,10.14,23.32,22.65,23.32s22.65-10.44,22.65-23.32-9.39-17.62-21.9-17.62S690.21,258.33,690.21,271.21Z" fill="#006838"/><path d="M764.6,271.94s-6.23-10.51-21.77-15.29c-16.77-5.17-30.57-5.42-43.76-.47l6.59-14.12c-2.32,1.52-34.83,19.29-29.18,38.59C676.48,280.65,701.07,256.06,764.6,271.94Z" fill="#3b2213"/><rect width="1259.23" height="2194.12" fill="none"/></g></g></g></svg>