<svg xmlns="http://www.w3.org/2000/svg" width="1259.23" height="2194.12" viewBox="0 0 1259.23 2194.12"><title>3_eyes_5</title><g id="Layer_2" data-name="Layer 2"><g id="Layer_141" data-name="Layer 141"><g id="_3_eyes_5" data-name="3_eyes_5"><path d="M542.29,291.68a31.28,31.28,0,0,0,10.59,5.2c6.35,1.74,33.88,1.16,56.47-2.89l6.35-13.87c-38.11-22.55-72.7-20.24-79.76-14.46S542.29,291.68,542.29,291.68Z" fill="#fff"/><ellipse cx="576.53" cy="274" rx="24.35" ry="23.94" fill="#5e361e"/><path d="M530.29,261s16.24-16.19,48.71-11.56,36.7,30.64,36.7,30.64S591,256.42,530.29,261Z" fill="#946246"/><path d="M615.7,280.12c-16.23-16.77-32.47-27.75-85.41-19.08,0,0-2.12,20.81,12,30.64,0,0-6.35-18.93-.7-21.25S582.53,263.93,615.7,280.12Z" fill="#3b2213"/><path d="M750.12,291.68a31.16,31.16,0,0,1-10.59,5.2c-6.35,1.74-33.88,1.16-56.47-2.89l-6.35-13.87c38.12-22.55,72.71-20.24,79.76-14.46S750.12,291.68,750.12,291.68Z" fill="#fff"/><ellipse cx="715.89" cy="274" rx="24.35" ry="23.94" fill="#5e361e"/><path d="M762.12,261s-16.23-16.19-48.7-11.56-36.71,30.64-36.71,30.64S701.42,256.42,762.12,261Z" fill="#946246"/><path d="M676.71,280.12c16.23-16.77,32.47-27.75,85.41-19.08,0,0,2.12,20.81-12,30.64,0,0,6.35-18.93.71-21.25S709.89,263.93,676.71,280.12Z" fill="#3b2213"/><rect width="1259.23" height="2194.12" fill="none"/></g></g></g></svg>