<svg xmlns="http://www.w3.org/2000/svg" width="1259.23" height="2194.12" viewBox="0 0 1259.23 2194.12"><title>3_eyebrow_5</title><g id="Layer_2" data-name="Layer 2"><g id="Layer_141" data-name="Layer 141"><g id="_3_eyebrow_5" data-name="3_eyebrow_5"><path d="M560.6,222.85a42,42,0,0,1-17.93,4.77,22.24,22.24,0,0,1-16.29-6.85c1.85,8.1,9.73,13.75,17.89,15.35s16.58-.09,24.65-2.12,30.31-5.82,48.58,3.42C613.3,228.65,593.59,206.29,560.6,222.85Z" fill="#3b2213"/><path d="M724.88,222.85a42,42,0,0,0,17.93,4.77,22.24,22.24,0,0,0,16.29-6.85c-1.85,8.1-9.73,13.75-17.89,15.35S724.63,236,716.56,234s-30.31-5.82-48.58,3.42C672.18,228.65,691.89,206.29,724.88,222.85Z" fill="#3b2213"/><rect width="1259.23" height="2194.12" fill="none"/></g></g></g></svg>