<svg xmlns="http://www.w3.org/2000/svg" width="1259.23" height="2194.12" viewBox="0 0 1259.23 2194.12"><title>3_eyes_10</title><g id="Layer_2" data-name="Layer 2"><g id="Layer_141" data-name="Layer 141"><g id="_3_eyes_10" data-name="3_eyes_10"><path d="M529.18,270.88s7.41,38.12,92.11,14.83c0,0-40.23-27.53-87.88-14.83" fill="#fff"/><path d="M599.53,290.71a28.43,28.43,0,0,0,5.19-13.61c-13.29-5.61-33.47-11.45-56.39-9a28.48,28.48,0,0,0,4.79,22.67C563.52,293.64,578.37,294.49,599.53,290.71Z" fill="#5e361e"/><path d="M621.29,285.71s-49.76-41.3-92.11-14.83C529.18,270.88,593.76,277.24,621.29,285.71Z" fill="#3b2213"/><path d="M762.88,270.88s-7.41,38.12-92.12,14.83c0,0,40.24-27.53,87.89-14.83" fill="#fff"/><path d="M692.53,290.71a28.43,28.43,0,0,1-5.19-13.61c13.29-5.61,33.47-11.45,56.39-9a29,29,0,0,1,.62,5.94,28.47,28.47,0,0,1-5.41,16.73C728.54,293.64,713.69,294.49,692.53,290.71Z" fill="#5e361e"/><path d="M670.76,285.71s49.77-41.3,92.12-14.83C762.88,270.88,698.29,277.24,670.76,285.71Z" fill="#3b2213"/><rect width="1259.23" height="2194.12" fill="none"/></g></g></g></svg>