<svg xmlns="http://www.w3.org/2000/svg" width="1259.23" height="2194.12" viewBox="0 0 1259.23 2194.12"><title>3_eyes_8</title><g id="Layer_2" data-name="Layer 2"><g id="Layer_141" data-name="Layer 141"><g id="_3_eyes_8" data-name="3_eyes_8"><path d="M527,276.91s11,28.66,48.12,22.78l-34.11-31Z" fill="#3b2213"/><path d="M535.15,270.75s11.24,39.72,48,25.57,26.36-34.68,26.36-34.68-39.59-15.76-72.64,7.82" fill="#fff"/><path d="M550.5,265.45a26.76,26.76,0,0,0,.18,12.57c3.53,13.9,17.21,22.42,30.54,19S602.5,279.64,599,265.74a26.9,26.9,0,0,0-3.6-8.17C580.15,259.23,565.07,260.56,550.5,265.45Z" fill="#5e361e"/><path d="M527,276.91s62.07-19.16,92.22-13.82C619.22,263.09,568.71,231.32,527,276.91Z" fill="#3b2213"/><path d="M764,277.33s-11,28.65-48.14,22.74l34.14-31Z" fill="#3b2213"/><path d="M755.81,271.16s-11.27,39.71-48,25.54S681.42,262,681.42,262s39.6-15.73,72.63,7.87" fill="#fff"/><path d="M695.25,258.57a26.93,26.93,0,0,0-3.27,7.64c-3.55,13.9,4.39,27.92,17.72,31.33s27-5.11,30.56-19a26.72,26.72,0,0,0-.28-14.3A128.82,128.82,0,0,0,695.25,258.57Z" fill="#5e361e"/><path d="M764,277.33s-62.05-19.21-92.21-13.88C671.75,263.45,722.28,231.71,764,277.33Z" fill="#3b2213"/><rect width="1259.23" height="2194.12" fill="none"/></g></g></g></svg>