<svg xmlns="http://www.w3.org/2000/svg" width="1259.23" height="2194.12" viewBox="0 0 1259.23 2194.12"><title>3_girl_shose_1</title><g id="Layer_2" data-name="Layer 2"><g id="Layer_141" data-name="Layer 141"><g id="_3_girl_shose_1" data-name="3_girl_shose_1"><polygon points="148.18 2151.71 158.06 2175.71 174.29 2151.71 148.18 2151.71" fill="#485a5e"/><polygon points="195.47 2156.65 205.35 2180.65 221.59 2156.65 195.47 2156.65" fill="#485a5e"/><polygon points="240.65 2153.12 250.53 2177.12 266.76 2153.12 240.65 2153.12" fill="#485a5e"/><polygon points="289.35 2141.82 299.23 2165.82 309.82 2141.82 289.35 2141.82" fill="#485a5e"/><polygon points="321.12 2110.06 331 2134.06 341.59 2110.06 321.12 2110.06" fill="#485a5e"/><polygon points="361.35 2094.53 371.23 2118.53 381.82 2094.53 361.35 2094.53" fill="#485a5e"/><polygon points="405.12 2083.94 415 2107.94 425.59 2083.94 405.12 2083.94" fill="#485a5e"/><path d="M424,1995.66a269.67,269.67,0,0,0-12.42-24.72c-31.54,19.07-65.86,33.38-104,29.41-9.6-1.6-19.18-5.12-24.68-12.6-23,28.78-56.73,87.37-56.73,87.37s-69.89,23.29-82.24,44.12a23,23,0,0,0-3.38,10c13.31,12.71,45.29,29.24,117.38,13.69l30.71-7.41s54-58.23,58.23-59.29h0c2.76-18.12,9.76-34.77,19.7-50.83C378.2,2005.23,401.19,1994.1,424,1995.66Z" fill="#51e0ff"/><path d="M366.59,2025.35c-9.94,16.06-16.94,32.71-19.7,50.83.51,0,54.88.91,91.78-19.77,1.09-19.74-7-43.2-14.7-60.75C401.19,1994.1,378.2,2005.23,366.59,2025.35Z" fill="#46c0db"/><path d="M346.88,2076.18c-4.23,1.06-58.23,59.29-58.23,59.29l-30.71,7.41c-72.09,15.55-104.07-1-117.38-13.69-.88,10.37,2,23.93,2,23.93,35.29,31.06,141.17,11.29,152.47,5.64s50.82-52.23,50.82-52.23c25.41,2.82,84.71-16.94,84.71-16.94l5.65-19.77a49.65,49.65,0,0,0,2.49-13.41C401.59,2077.19,346.88,2076.18,346.88,2076.18Z" fill="#318da1"/><path d="M211.16,2163.17c21.9,0,48.88-3.29,80.5-13.19l.69-.21,57.89-56.84c7.78-.11,48.77-1.34,83.66-15.15l2.11-7.37c-37.6,16.32-86.5,16.53-87,16.53h-1.23l-58.59,57.53c-53,16.46-92.36,14-116.12,8.93a132.69,132.69,0,0,1-32.15-10.92c.3,2.78.67,5.28,1,7.15a142.07,142.07,0,0,0,29.52,9.55A189.94,189.94,0,0,0,211.16,2163.17Z" fill="#fff"/><path d="M411.55,1970.94c-.5-.88-.79-1.35-.79-1.35-4.23-9.88-9.88-14.12-9.88-14.12s-48,31.06-86.12,28.24c-14.7-1.09-16.94-12.71-16.94-12.71-3.1,2.48-8.45,8.64-14.91,16.75,3.28,4.45,8,7.5,13.32,9.58-10.64,15.38-39.06,56.69-46.76,70.38l11.65,5.29,49.23-72.4C347.35,2003.62,380.77,1989.55,411.55,1970.94Z" fill="#485a5e"/><path d="M253.77,2048.29a113.53,113.53,0,0,1,27.12,10.39,5,5,0,0,1,1.84,7.05h0a5,5,0,0,1-6.67,1.73c-9.26-5.07-16.58-7.28-24.75-9.49a5,5,0,0,1-2.7-7.82h0A5,5,0,0,1,253.77,2048.29Z" fill="#fff"/><path d="M269.3,2024.76a113.53,113.53,0,0,1,27.12,10.39,5,5,0,0,1,1.84,7h0a5,5,0,0,1-6.67,1.73c-9.26-5.07-16.58-7.28-24.75-9.49a5,5,0,0,1-2.7-7.82h0A5,5,0,0,1,269.3,2024.76Z" fill="#fff"/><path d="M286.71,2000.76a113.53,113.53,0,0,1,27.12,10.39,5,5,0,0,1,1.84,7h0a5,5,0,0,1-6.67,1.73c-9.26-5.07-16.58-7.28-24.75-9.49a5,5,0,0,1-2.7-7.82h0A5,5,0,0,1,286.71,2000.76Z" fill="#fff"/><polygon points="984.25 2159.9 975.61 2184.37 958.17 2161.24 984.25 2159.9" fill="#485a5e"/><polygon points="937.27 2167.25 928.63 2191.72 911.19 2168.59 937.27 2167.25" fill="#485a5e"/><polygon points="891.97 2166.03 883.33 2190.51 865.89 2167.37 891.97 2166.03" fill="#485a5e"/><polygon points="842.75 2157.24 834.11 2181.72 822.31 2158.29 842.75 2157.24" fill="#485a5e"/><polygon points="809.41 2127.14 800.76 2151.62 788.96 2128.19 809.41 2127.14" fill="#485a5e"/><polygon points="768.43 2113.69 759.79 2138.16 747.99 2114.74 768.43 2113.69" fill="#485a5e"/><polygon points="724.18 2105.35 715.54 2129.83 703.74 2106.4 724.18 2105.35" fill="#485a5e"/><path d="M700.84,2018.15A273.32,273.32,0,0,1,712,1992.83c32.48,17.43,67.48,30,105.33,24.06,9.5-2.09,18.89-6.1,24-13.85,24.39,27.58,61.12,84.36,61.12,84.36s71,19.69,84.38,39.86a22.83,22.83,0,0,1,3.88,9.77c-12.64,13.37-43.73,31.51-116.52,19.67l-31-5.84s-56.9-55.4-61.18-56.24h0c-3.67-17.95-11.51-34.22-22.26-49.75C747.05,2025.37,723.52,2015.43,700.84,2018.15Z" fill="#51e0ff"/><path d="M759.67,2044.87c10.75,15.53,18.59,31.8,22.26,49.75-.5,0-54.75,3.72-92.66-15-2.1-19.66,4.75-43.5,11.57-61.43C723.52,2015.43,747.05,2025.37,759.67,2044.87Z" fill="#46c0db"/><path d="M782,2094.62c4.28.84,61.18,56.24,61.18,56.24l31,5.84c72.79,11.84,103.88-6.3,116.52-19.67,1.42,10.31-.74,24-.74,24-33.66,32.82-140.41,18.5-152,13.43s-53.43-49.57-53.43-49.57c-25.23,4.12-85.46-12.59-85.46-12.59l-6.65-19.45a49.38,49.38,0,0,1-3.17-13.26C727.36,2098.43,782,2094.62,782,2094.62Z" fill="#318da1"/><path d="M921.94,2174.57c-21.87,1.12-49-.79-81.07-9.06l-.7-.18-60.72-53.8c-7.78.29-48.78,1.15-84.33-10.86l-2.48-7.25c38.38,14.37,87.23,12.09,87.74,12.06l1.23-.06,61.45,54.46c53.74,13.73,93,9.21,116.42,3A132.41,132.41,0,0,0,991,2150.32c-.15,2.79-.39,5.3-.61,7.19a142.74,142.74,0,0,1-29,11A190.46,190.46,0,0,1,921.94,2174.57Z" fill="#fff"/><path d="M712,1992.83c.46-.9.72-1.39.72-1.39,3.73-10.09,9.15-14.61,9.15-14.61s49.52,28.57,87.45,23.8c14.62-1.84,16.27-13.55,16.27-13.55,3.22,2.32,8.88,8.2,15.75,16-3.05,4.62-7.62,7.9-12.82,10.25,11.41,14.81,41.91,54.62,50.3,67.9l-11.36,5.88-52.87-69.79C777.77,2022.18,743.67,2009.84,712,1992.83Z" fill="#485a5e"/><path d="M873.51,2062A114,114,0,0,0,847,2073.77a5,5,0,0,0-1.48,7.14h0a5,5,0,0,0,6.75,1.38c9-5.53,16.19-8.11,24.23-10.73a5,5,0,0,0,2.3-7.95h0A5,5,0,0,0,873.51,2062Z" fill="#fff"/><path d="M856.8,2039.31a113.31,113.31,0,0,0-26.56,11.76,5,5,0,0,0-1.48,7.14h0a5,5,0,0,0,6.76,1.38c9-5.53,16.19-8.12,24.23-10.74a5,5,0,0,0,2.3-7.95h0A5,5,0,0,0,856.8,2039.31Z" fill="#fff"/><path d="M838.18,2016.23A113.1,113.1,0,0,0,811.63,2028a5,5,0,0,0-1.48,7.14h0a5,5,0,0,0,6.75,1.38c9-5.53,16.19-8.12,24.24-10.73a5,5,0,0,0,2.3-8h0A5,5,0,0,0,838.18,2016.23Z" fill="#fff"/><rect width="1259.23" height="2194.12" fill="none"/></g></g></g></svg>