<svg xmlns="http://www.w3.org/2000/svg" width="1259.23" height="2194.12" viewBox="0 0 1259.23 2194.12"><title>3_girl_pant_7</title><g id="Layer_2" data-name="Layer 2"><g id="Layer_141" data-name="Layer 141"><g id="_3_girl_pant_7" data-name="3_girl_pant_7"><path d="M890.76,1123.94c-7.39-94.25-66.69-178.35-77.26-192.67a307.23,307.23,0,0,1-48.73,21c-80,26.55-158.2,16.72-205.66,5.59-28.56-6.71-46-13.88-46-13.88l-.38-.1c-94.83,151.09-65.27,255.78-67.39,363.63-1.58,80.47-20.79,182.09-30.48,228.68q27.47,11.43,55.63,21,27,9.16,54.47,16.62c.15-.29.28-.58.42-.86,69.56-137.17,106.29-236.09,138.2-370.25,10.74,39.66,38.18,274.1,49.71,375.12a487.8,487.8,0,0,0,80.33,4.72c14.93-.27,29.9-1.09,44.86-2.32C870.84,1407.63,906.55,1325.24,890.76,1123.94Z" fill="#ffe452"/><path d="M559.11,957.82c-28.56-6.71-46-13.88-46-13.88l-.38-.1c-94.83,151.09-65.27,255.78-67.39,363.63-1.58,80.47-20.79,182.09-30.48,228.68q27.47,11.43,55.63,21c1.86-15.5,34.15-179.79,34.15-264.49C504.65,1116.89,541.75,1013.72,559.11,957.82Z" fill="#f0af4d"/><path d="M890.76,1123.94c-7.39-94.25-66.69-178.35-77.26-192.67a307.23,307.23,0,0,1-48.73,21c26.92,62.43,107.11,289.21,28.86,630.26,14.93-.27,29.9-1.09,44.86-2.32C870.84,1407.63,906.55,1325.24,890.76,1123.94Z" fill="#f0af4d"/><path d="M543.43,953.82a292,292,0,0,1-30.31-9.88l-.38-.1c-36.51,58.16-54.57,109.45-63.11,156.69C499.58,1067.3,524.45,1010.26,543.43,953.82Z" fill="#c47e18"/><path d="M886.51,1093c-15.73-81.1-63.62-149-73-161.68a305.27,305.27,0,0,1-37.43,17c.16.38.33.75.52,1.12C800.79,1004.69,832.48,1063.75,886.51,1093Z" fill="#c47e18"/><rect x="641.94" y="1009.24" width="59.29" height="169.41" fill="#f0a22e"/><path d="M663.59,1202.65s-59.5-28.13-103.48-68.05a4.44,4.44,0,0,1,4.72-7.37c58.92,25.14,108.08,68.66,216.46-2,4.09-2.67,8.21,4,4.65,7.36A312.41,312.41,0,0,1,663.59,1202.65Z" fill="#f0a22e"/><path d="M638.76,968.84c-72.62-3.08-125.64-24.9-125.64-24.9l-.38-.1c-8.72,13.89-16.38,27.39-23.12,40.54,21.95,10.18,76.94,32.23,148,36C637.51,1003.06,637.48,985.86,638.76,968.84Z" fill="#fff"/><path d="M840.43,973.3a432.74,432.74,0,0,0-26.93-42c-60.1,32.3-122.49,39.78-174.74,37.57-1.28,17-1.25,34.22-1.1,51.5C697.25,1023.46,768.15,1013.71,840.43,973.3Z" fill="#fff"/><path d="M567.47,959.69c-5.47,15.55-11.25,31-16.51,46.69,4.69,1.27,9.59,2.5,14.65,3.69,3.67-16.37,7.66-32.56,12.93-48.16C574.72,961.19,571,960.45,567.47,959.69Z" fill="#f2b63a"/><path d="M759.71,953.86c4.93,16.08,10.44,32.21,14.63,48.56q7.38-2.43,14.84-5.24C785,980.82,779,965.07,773.93,949Q766.81,951.63,759.71,953.86Z" fill="#f2b63a"/><path d="M638.84,1177.67a16.2,16.2,0,0,0-.25,2.68c-2.15,65.71-8.89,131.42-25.68,194.58,19.84-54.73,35.79-109.67,50.68-172.28,7.63,28.18,23.69,154.69,36.49,261.82-3.27-93.73-11.68-187.64-23.35-280.61C664.1,1184,651.47,1178.23,638.84,1177.67Z" fill="#f0a22e"/><circle cx="665.59" cy="993.18" r="16.94" fill="#d96f23"/><rect width="1259.23" height="2194.12" fill="none"/></g></g></g></svg>