<svg xmlns="http://www.w3.org/2000/svg" width="1259.23" height="2194.12" viewBox="0 0 1259.23 2194.12"><defs><style>.a{fill:#fff;}.b{fill:#bfbfbf;}.c{fill:none;}</style></defs><title>3_girl_hair_12</title><path class="a" d="M456.31,382.57c-6.1,8.66-11.21,19.29-10.15,30.17.58,6,3,11.46,5.4,16.75,7.41,16.15,17.77,33.66,33.77,35.27-9.49-4.93-16.67-15.13-18.88-26.84a45.42,45.42,0,0,1,7.38-34.07c-1.59,15.28,2.52,31.06,11.1,42.59s21.51,18.65,34.89,19.2a32.46,32.46,0,0,0,15.73-3,41.1,41.1,0,0,0,11.75-9.33c9.82-10.67,16.85-27.23,11.86-41.27-2.8-7.87-8.82-13.48-14.73-18.58C515.13,368.15,486.74,339.43,456.31,382.57Z"/><path class="b" d="M559.16,412c-2.8-7.87-8.82-13.48-14.73-18.58-10.22-8.82-20.32-18.06-30.44-24.52-11.59,6.06-19.86,19-22.4,33.41-4.14,25.64,8.83,51.26,30.41,63.32a31.5,31.5,0,0,0,13.55-3,41.1,41.1,0,0,0,11.75-9.33C557.12,442.64,564.15,426.08,559.16,412Z"/><rect class="c" width="1259.23" height="2194.12"/><path class="a" d="M500.23,257.12c3,2.48,31.94-81.87,77.12-120,0,0,44.92,92.85,194,38.66,0,0,19.29,26.75,26.81,76.67,0,0,37.83-1.08,25.14,48.08-10.55,40.88-46.43,51.12-46.43,51.12s-23.13,39.2-37.15,50.76c0,0,90.54-25.65,96.53-114.47,3.32-49.3-.72-182.26-70.28-227.55-114.17-74.33-183.08-8.08-183.08-8.08S454.16,15.32,460.4,269.8c3.26,132.66,101.86,139.34,106.92,142.92s-30-23.83-49.87-61.43c0,0-42.5-19-46-62.06a36.43,36.43,0,0,1,10.93-29.63C487.49,254.8,493.88,251.88,500.23,257.12Z"/><path class="b" d="M833.7,205.43a63.48,63.48,0,0,1-14.11,17.63c-5.33-25.72-16.87-50.18-32.78-71.53-28.56-38.31-71.19-66.6-117.22-74.18,38.73,18.9,71.67,46.72,95.87,82.62-37.87,15.89-77.78,18.77-118.87,10.38-30.22-6.71-54.09-28.22-69.85-54.47-23.74,23.06-65.83,62.46-78.89,91.83,0-33,28.15-80.51,63-130.36-54,42.83-87.08,100.41-89.08,151.41-6.65-13-6.65-13-9.34-27.72a592.9,592.9,0,0,0-2,68.76c3.26,132.66,101.86,139.34,106.92,142.92s-30-23.83-49.87-61.43c0,0-42.5-19-46-62.06a36.43,36.43,0,0,1,10.93-29.63c5.11-4.8,11.5-7.72,17.85-2.48,3,2.48,31.95-81.87,77.12-120,0,0,44.92,92.85,194,38.66,0,0,19.29,26.75,26.81,76.67,0,0,37.83-1.08,25.14,48.08-10.55,40.88-46.43,51.12-46.43,51.12s-23.13,39.2-37.15,50.76c0,0,90.54-25.65,96.53-114.47A466.89,466.89,0,0,0,833.7,205.43Z"/></svg>