<svg xmlns="http://www.w3.org/2000/svg" width="1259.23" height="2194.12" viewBox="0 0 1259.23 2194.12"><defs><style>.a{fill:#692811;}.b{fill:#823215;}.c{fill:#a8411b;}.d{fill:none;}</style></defs><title>3_girl_hair_10</title><path class="a" d="M492.79,156.88c-23.08,35.3-30.25,92.83-30.25,92.83.32,17.58-10,21.14-18.42,21.12,10.12,76.17,53.73,138.76,53.73,138.76,7.06,49.41-19,70.08-19,70.08,91.4-31.65,83-71.08,83-71.08-25.47-19.83-44.17-57.88-44.17-57.88s-23.9-5.54-38.53-31.47c-17.65-31.28-.83-56.48-.83-56.48C473.82,219,492.79,156.88,492.79,156.88Z"/><path class="a" d="M826.29,248.71c0-39.24-41.41-82-41.41-82C804.65,196.41,806.57,253,806.57,253s21.07,12.86,18.72,35c-5.55,52.11-47.47,62.33-47.47,62.33-16.63,31.37-29.7,49-56.06,65.77-3.89,43.54,75.83,59.88,75.83,59.88-36.71-31.06-5.65-88.94-5.65-88.94S848,352.69,847.15,260.78C835.17,261.72,826.29,248.71,826.29,248.71Z"/><path class="a" d="M510.59,172.35c-21,42-21,91,8,129,9.28,13.15,21.55,26.29,35.88,33.43-86.78-64.74-35.73-182,17.62-212.32a83.66,83.66,0,0,1,16.5-29.11C556.59,112.35,527.59,138.35,510.59,172.35Z"/><path class="a" d="M748.59,150.35c-26-32-62-47-98-61,6.53,7.27,8.85,16.11,11.93,24.62,57.36,4.09,113.86,43.94,117.12,159.72.66,23.16-5.91,49.32-25.92,61a75.65,75.65,0,0,0,12.22-4,116.08,116.08,0,0,0,16.65-35.31C795.59,244.35,781.59,191.35,748.59,150.35Z"/><path class="b" d="M820.18,141.35C752-26.65,626.76,37.18,626.76,37.18c-12.7-9.89-105.21-30-163.57,107-20.43,48-23.85,90.73-19.07,126.69,8.44,0,18.74-3.54,18.42-21.12,0,0,7.17-57.53,30.25-92.83,0,0-19,62.12-14.5,105.88C496.79,337.7,560.41,339,560.41,339c-2-1.38-4-2.79-5.94-4.22-14.33-7.14-26.6-20.28-35.88-33.43-29-38-29-87-8-129,17-34,46-60,78-79a83.66,83.66,0,0,0-16.5,29.11c1-.56,1.95-1.09,2.93-1.58-6.85,24.2,0,44.05,26.29,75.31,14.47,17.2,36.32,26.87,57.62,34.07a166.28,166.28,0,0,1-45.85-111.07c3.17,23.76,17.42,45.16,36.1,60.17s41.53,24.09,64.83,29.7c-31-26.28-50.66-54.59-53-95.2l1.53.11c-3.08-8.51-5.4-17.35-11.93-24.62,36,14,72,29,98,61,33,41,47,94,34,145a116.08,116.08,0,0,1-16.65,35.31c30.53-13,50.34-45.24,40.63-77.68,0,0-1.92-56.57-21.69-86.22,0,0,41.42,42.71,41.41,82,0,0,8.88,13,20.86,12.07C846.84,228.44,839.5,189,820.18,141.35Z"/><path class="c" d="M526.76,67.65S532.58,99,562,114.53c0,0-35,11.77-64.17-20.94C497.85,93.59,510.05,72.36,526.76,67.65Z"/><path class="c" d="M704.59,104.65S746,87.71,752.74,59.47c0,0,29.33,21.53,32.15,32.65C784.89,92.12,744.29,115.94,704.59,104.65Z"/><rect class="d" width="1259.23" height="2194.12"/></svg>