<svg xmlns="http://www.w3.org/2000/svg" width="1259.23" height="2194.12" viewBox="0 0 1259.23 2194.12"><defs><style>.a{fill:#695727;}.b{fill:#4f3f17;}.c{fill:#877442;}.d{fill:#be1e2d;}.e{fill:none;}</style></defs><title>3_girl_hair_7</title><path class="a" d="M858.29,483c-15.53,2.82-32.47-15.53-35.17-63.53-1.65-29.47-16.81-37-28.26-38.43,21.33-4.16,39.34-23.34,46-44.78,7.95-25.66,3.26-53.42-3-79.53s-12.7-52.41-12.55-79.27C826.06,24.74,639.16,22.67,639.16,22.67s-179.27-.5-178.45,152.22c.15,26.86-8.25,53.15-14.55,79.27s-11,53.87-3,79.53c6.63,21.44,31.64,40.62,53,44.78-11.45,1.43-26.61,9-28.26,38.43-2.7,48-19.64,66.35-35.17,63.53S544.54,521.61,560,407.3c0,0-23.6-12.54-42.5-56,0,0-47.8-13-44.79-66.9,2-36.68,24.41-33.23,27.57-31.27,0,0,39.77-45.16,38-116.1,0,0,19.39,38.12,8.8,63.53,0,0,61.38-10.49,66.67-71.9,0,73.41,53,83.15,53,83.15-17.46-35.38-3.95-93.6-3.95-93.6,7.41,91.06,81.24,84.92,81.24,84.92-10.59-25.41,8.8-63.53,8.8-63.53C751,210.53,795.3,253.52,795.3,253.52c3.17-2,30.05-.48,28,34.44-3.17,53.86-45.21,63.43-45.21,63.43C754.27,395.47,731,409.87,731,409.87,746.41,524.18,873.82,480.18,858.29,483Z"/><path class="b" d="M517.45,351.29s-47.8-13-44.79-66.9c2-36.68,24.41-33.23,27.57-31.27,0,0,46.78-52.57,38-116.1-12.42,21.38-1.86,62.22-58.62,107.33-33.29,26.46-28,80,2,109-16.76-11.6-33.09-27-42.59-45.49a97,97,0,0,0,4.12,25.83c6,19.41,27.08,37,46.84,43.21,9-1.48,19.34,1.14,27.63,4.45-33,7-30,41-35,68-4.48,20.49-20,29.49-38.25,34.64,30.33,5.76,104.11,8.57,115.61-76.69C560,407.3,536.35,394.76,517.45,351.29Z"/><path class="b" d="M807.59,442.35c-3-23-2-54-31-57,6.73-4,14.36-3.54,21.69-3.71q-1.75-.39-3.42-.6c21.33-4.16,39.34-23.34,46-44.78a91.33,91.33,0,0,0,3.26-15c-8.36,11.82-20,20.94-35.5,25.13,21-26,27-61,11-92-4-9-12-15-20-22-37.26-33.48-37.92-73.53-46.85-92.76-8.8,63.53,42.56,113.93,42.56,113.93,3.17-2,30.05-.48,28,34.44-3.17,53.86-45.21,63.43-45.21,63.43C754.27,395.47,731,409.87,731,409.87c13.21,98.05,108.82,79.63,126,74.18C820.39,489,809.79,467.29,807.59,442.35Z"/><path class="c" d="M529,63.12s44.75,45.76,85,45.76c0,0-54,16.94-110.56-26.58C503.41,82.3,506.72,73.48,529,63.12Z"/><path class="c" d="M748.58,63.12s-44.75,45.76-85,45.76c0,0,54,16.94,110.56-26.58C774.15,82.3,770.84,73.48,748.58,63.12Z"/><path class="d" d="M490,376.9s19.82,1.79,36.8-7.06l12,17.67s-46,.59-55.9-4.2C482.82,383.31,481.55,379.18,490,376.9Z"/><path class="d" d="M803,376.9s-19.82,1.79-36.8-7.06l-12,17.67s46,.59,55.9-4.2C810.17,383.31,811.44,379.18,803,376.9Z"/><rect class="e" width="1259.23" height="2194.12"/></svg>