<svg xmlns="http://www.w3.org/2000/svg" width="1259.23" height="2194.12" viewBox="0 0 1259.23 2194.12"><title>3_girl_shrit_9</title><g id="Layer_2" data-name="Layer 2"><g id="Layer_141" data-name="Layer 141"><g id="_3_girl_shrit_9" data-name="3_girl_shrit_9"><path d="M848.41,557.82c26.82,42.36,19.77,107.3,57.88,197.65l21.23,3.35c-4.79-14.6-9.37-29.88-15-47.47,0,0-25.41-127.06-36.23-152.69-13.57-32.13-53.07-55.49-123.83-67.66l-39.18-13.65-25.09,23.92L727,509.82S821.59,515.47,848.41,557.82Z" fill="#fff"/><path d="M412.44,1167c.86-4.3,2.16-9.32,3.81-14.92-18.71,8.1-40.15,15.32-60.68,12.3.37,3.95.73,7.49,1.06,10.6C375,1180.36,394.52,1174.79,412.44,1167Z"/><path d="M412.44,1167c-17.92,7.79-37.41,13.36-55.81,8,1.06,9.8,1.9,15.31,1.9,15.31s26.82,4.24,53.65-8.47C410.78,1179.38,411,1174.21,412.44,1167Z" fill="#fff"/><path d="M1060.18,967.24c-41-72-78.21-117-97.42-127.06-17.42-31.12-26.65-55.13-35.24-81.36l-21.23-3.35c-38.11-90.35-31.06-155.29-57.88-197.65s-121.41-48-121.41-48l-38.86-8.55-12.67,12.08-24.94,1.06-23.77.35-20.54-14.93c-37.7,6-89.52,18.41-129.69,43.57a85.33,85.33,0,0,0-36.71,49.34A490.66,490.66,0,0,0,422.06,723l-28.21,26.26a1372.46,1372.46,0,0,0,1.38,154.45s-30.06,44-36.7,91.76c-9.6,69.09-6.15,134.25-3,168.91,20.53,3,42-4.2,60.68-12.3,8.71-29.48,27.27-75,43.93-115.67,22.58-55.06,9.19-77.07,16.94-108.7,15.69-42.47,22.44-73.12,26.82-114.36,1.41,7.77,19.76,33.89,9.18,130.59,0,0,157.76,64.94,301.76-13.41-12.21-64.86-13.08-89.37,5.3-147.18l59.29,99.18s-2.92,76.31,82.85,131.57c12.11,7.8,29.9,20.09,45.62,26.55,15.44,6.34,29.29,13.57,44.87,22.19,16.85-16.84,24-43.82,25.62-68.91A176.1,176.1,0,0,1,1060.18,967.24Z" fill="#ffa73b"/><path d="M1074.59,1055.35c9.15-16,13.06-32.62,15.29-49.8a95.49,95.49,0,0,1-11.45-11.62c-1.63,25.09-8.77,52.07-25.62,68.91q5.06,2.81,10.4,5.81A56.39,56.39,0,0,0,1074.59,1055.35Z"/><path d="M1095.47,1009.59a37.27,37.27,0,0,1-5.59-4c-2.23,17.18-6.14,33.78-15.29,49.8a56.39,56.39,0,0,1-11.38,13.3l5.44,3.06C1088.51,1056.83,1096.12,1043.7,1095.47,1009.59Z" fill="#fff"/><path d="M439.82,592.74a85.33,85.33,0,0,1,36.71-49.34c40.17-25.16,92-37.55,129.69-43.57l-22.16-16.12-28.59,4.35C528.34,494,442.6,517.21,425.53,562.59c-20.16,53.59-28.6,123.85-31.68,186.67L422.06,723A490.66,490.66,0,0,1,439.82,592.74Z" fill="#fff"/><path d="M447.11,932.59c10.29-12.23,4.73-31.45-10.61-36-5.71-1.67-11.27-.78-14.44,6.37-8.47,19.06-14.83,55.06,8.47,42.35C438.37,941.07,443.58,936.79,447.11,932.59Z" fill="#d47b22"/><path d="M911.13,884.33c-11.93-10.64-9.17-30.46,5.37-37.11,5.41-2.47,11-2.38,15.21,4.24,11.1,17.66,22.53,52.38-2.34,43.13C921,891.48,915.23,888,911.13,884.33Z" fill="#d47b22"/><path d="M501.49,778.13c1.7,4.26,3.91,9.49,6.38,14.63a29.87,29.87,0,0,0,30.71,16.62c42.7-5.44,151.87-17.14,240.29-7.8a29.87,29.87,0,0,0,31.4-19.78c2.56-7.34,4.85-15.33,5.63-22.11a5.18,5.18,0,0,0-7.19-5.4c-28.93,12.62-143.39,55.07-301.17,16.91A5.18,5.18,0,0,0,501.49,778.13Z" fill="#d47b22"/><path d="M504.88,621.71s-26.73,34.57-28,93.86c-.73,35,9.32,57.47,26.37,94.32h0S487.59,768.25,487,716C486.7,687.36,490.21,651.6,504.88,621.71Z" fill="#bf7213"/><path d="M796.88,608.65c47.29,83.29,20.3,169.71,23.29,174.7C859.7,682.06,796.88,608.65,796.88,608.65Z" fill="#bf7213"/><rect x="724.17" y="652.41" width="69.18" height="14.12" rx="7.06" fill="#fff"/><path d="M642.29,515.47h16.94a0,0,0,0,1,0,0V629.82a8.47,8.47,0,0,1-8.47,8.47h0a8.47,8.47,0,0,1-8.47-8.47V515.47A0,0,0,0,1,642.29,515.47Z" fill="#fff"/><path d="M599.65,455.12l-.36,13.76c9,14.3,30.31,38.06,51.24,45.53,0,0-29.53,21.54-46,36.92a9.6,9.6,0,0,1-13.48-.35c-12.09-12.59-37-39.88-44.89-59.37a6.94,6.94,0,0,1,3.73-9C561,478,584.22,467.08,599.65,455.12Z" fill="#3b3b3b"/><path d="M701.68,452l.35,13.76c-8.94,14.3-30.57,41.17-51.5,48.64,0,0,30.8,18.43,47.23,33.81a9.6,9.6,0,0,0,13.48-.35c12.1-12.59,37-39.88,44.89-59.37a6.94,6.94,0,0,0-3.72-9C741.38,474.84,717.11,464,701.68,452Z" fill="#3b3b3b"/><path d="M565.59,495.35c9.35-11.05,22.32-17.77,34.6-25.07-.31-.47-.61-.94-.9-1.4l.36-13.76c-15.43,12-38.7,22.83-49.73,27.46a6.94,6.94,0,0,0-3.73,9c3.78,9.28,11.4,20.33,19.65,30.72C561.31,512.75,559.11,503,565.59,495.35Z"/><path d="M752.41,479.47c-11-4.63-35.3-15.49-50.73-27.46l.35,13.76c-1.17,1.88-2.57,4-4.16,6.23,14.76,8.53,34.08,14.81,37.72,29.35,1.59,7.33.33,14.86-2.69,22.3,9.57-11.61,18.91-24.54,23.23-35.15A6.94,6.94,0,0,0,752.41,479.47Z"/><rect width="1259.23" height="2194.12" fill="none"/></g></g></g></svg>