<svg xmlns="http://www.w3.org/2000/svg" width="1259.23" height="2194.12" viewBox="0 0 1259.23 2194.12"><title>3_girl_shrit_6</title><g id="Layer_2" data-name="Layer 2"><g id="Layer_141" data-name="Layer 141"><g id="_3_girl_shrit_6" data-name="3_girl_shrit_6"><path d="M488.2,766.06l2.87.34c-2.3-11.44-3.68-26.4-3.68-26.4-1.42.31-2.87.58-4.33.84a209.27,209.27,0,0,0,14.79,54.61C494,783.32,489.3,769.33,488.2,766.06Z" fill="none"/><path d="M507.59,604.35c-7.3-31-22.93-57.88-35.48-86.66-1.25.58-2.49,1.17-3.72,1.78A11.19,11.19,0,0,0,464.2,536c17,24,27.32,49.76,40.68,85.71,0,0-2,3.2-4.8,9.1A27.15,27.15,0,0,0,507.59,604.35Z" fill="#b24746"/><path d="M798.59,563.35C806,545.9,813.36,528,823.17,511.47,804.29,502.88,780.53,496,751.49,491l-39.18-13.65-37.76,36-24.95,1.06-23.76.35-42.71-31.05-28.58,8.35c-15.54,3.4-51.47,11.1-82.44,25.63,12.55,28.78,28.18,55.64,35.48,86.66a27.15,27.15,0,0,1-7.51,26.46,201.08,201.08,0,0,0-17,110c1.46-.26,2.91-.53,4.33-.84,0,0,1.38,15,3.68,26.4l-2.87-.34c1.1,3.27,5.81,17.26,9.65,29.39h0c2.51,7.93,4.65,15.07,5.17,17.9,1.41,7.77,4.94,50.83-2.36,76.24-5.92,20.63-13.17,48.7,11.53,54.35,0,0,157.77,64.94,301.77-13.41,0,0,24.35-9.53,12.7-44.47s-7.41-102.71-7.41-102.71l5.16-33-.75.4.92-27.48c1.6-.26,3.21-.57,4.82-.89a223.27,223.27,0,0,0-32.52-113.74q.24-2.24.51-4.38C790.64,592.4,792.73,576.54,798.59,563.35Z" fill="#e36f6f"/><path d="M501.49,778.13c1.7,4.26,3.91,9.49,6.38,14.63a29.87,29.87,0,0,0,30.71,16.62c42.7-5.44,151.87-17.14,240.29-7.8a29.87,29.87,0,0,0,31.4-19.78c2.56-7.34,4.85-15.33,5.63-22.11a5.18,5.18,0,0,0-7.19-5.4c-28.93,12.62-143.39,55.07-301.17,16.91A5.18,5.18,0,0,0,501.49,778.13Z" fill="#cf5252"/><path d="M667.78,514.76h-26.9v272c9.28-.09,18.25-.44,26.9-1Z" fill="#c44e79"/><path d="M667.78,798.75c-9.14.32-18.13.74-26.9,1.23V943a242.18,242.18,0,0,0,1.3,26c7.89.25,16,.28,24.31,0a242.78,242.78,0,0,0,1.29-26Z" fill="#c44e79"/><path d="M667.78,785.75c-8.65.54-17.62.89-26.9,1V800c8.77-.49,17.76-.91,26.9-1.23Z" fill="#ad3b65"/><path d="M823.68,511.7l-.51-.23C813.36,528,806,545.9,798.59,563.35c-5.86,13.19-8,29-1.2,40.92,3.92-30.75,14.31-50.78,30.91-76.39A11.13,11.13,0,0,0,823.68,511.7Z" fill="#b24746"/><polygon points="497.85 795.45 497.85 795.45 497.85 795.45 497.85 795.45" fill="#82c862"/><path d="M485.71,765.65l3.41.41c-.15-.46-.24-.71-.24-.71Z" fill="none"/><path d="M504.88,621.71s-26.73,34.57-28,93.86c-.73,35,9.32,57.47,26.37,94.32h0S487.59,768.25,487,716C486.7,687.36,490.21,651.6,504.88,621.71Z" fill="#b24746"/><path d="M796.88,608.65c43.71,88.45,20.3,169.71,23.29,174.7C859.7,682.06,796.88,608.65,796.88,608.65Z" fill="#b24746"/><circle cx="655.13" cy="542.68" r="10" fill="#fff"/><circle cx="653.94" cy="645.71" r="10" fill="#fff"/><circle cx="655" cy="755.82" r="10" fill="#fff"/><circle cx="655" cy="863.82" r="10" fill="#fff"/><path d="M599.65,455.12l-.36,13.76c9,14.3,30.31,38.06,51.24,45.53,0,0-29.53,21.54-46,36.92a9.6,9.6,0,0,1-13.48-.35c-12.09-12.59-37-39.88-44.89-59.37a6.94,6.94,0,0,1,3.73-9C561,478,584.22,467.08,599.65,455.12Z" fill="#fff"/><path d="M701.68,452l.35,13.76c-8.94,14.3-30.57,41.17-51.5,48.64,0,0,30.8,18.43,47.23,33.81a9.6,9.6,0,0,0,13.48-.35c12.1-12.59,37-39.88,44.89-59.37a6.94,6.94,0,0,0-3.72-9C741.38,474.84,717.11,464,701.68,452Z" fill="#fff"/><path d="M565.59,495.35c9.35-11.05,22.32-17.77,34.6-25.07-.31-.47-.61-.94-.9-1.4l.36-13.76c-15.43,12-38.7,22.83-49.73,27.46a6.94,6.94,0,0,0-3.73,9c3.78,9.28,11.4,20.33,19.65,30.72C561.31,512.75,559.11,503,565.59,495.35Z" fill="#c2c2c2"/><path d="M752.41,479.47c-11-4.63-35.3-15.49-50.73-27.46l.35,13.76c-1.17,1.88-2.57,4-4.16,6.23,14.76,8.53,34.08,14.81,37.72,29.35,1.59,7.33.33,14.86-2.69,22.3,9.57-11.61,18.91-24.54,23.23-35.15A6.94,6.94,0,0,0,752.41,479.47Z" fill="#c2c2c2"/><path d="M716.14,663.31a3.29,3.29,0,0,1,4.76-3.69l3.62,2a3.27,3.27,0,0,0,3.84-.53l3-2.85a3.28,3.28,0,0,1,5.56,2.27l.11,4.12a3.29,3.29,0,0,0,2.38,3.07l4,1.14a3.28,3.28,0,0,1,.81,6l-3.51,2.16a3.28,3.28,0,0,0-1.47,3.59l1,4a3.28,3.28,0,0,1-4.75,3.68l-3.62-2a3.28,3.28,0,0,0-3.85.52l-3,2.86a3.29,3.29,0,0,1-5.56-2.28l-.11-4.11a3.27,3.27,0,0,0-2.38-3.07L713,679a3.29,3.29,0,0,1-.81-6l3.51-2.16a3.27,3.27,0,0,0,1.47-3.59Z" fill="#fff"/><circle cx="728.15" cy="673.91" r="5.83" fill="#c44e79"/><path d="M736.71,616.45a4.24,4.24,0,0,1,6.13-4.75l4.68,2.53a4.23,4.23,0,0,0,5-.68l3.83-3.69a4.24,4.24,0,0,1,7.18,2.94l.15,5.32a4.25,4.25,0,0,0,3.06,4l5.11,1.47a4.24,4.24,0,0,1,1.05,7.69L768.33,634a4.23,4.23,0,0,0-1.9,4.64l1.28,5.16a4.24,4.24,0,0,1-6.14,4.75L756.9,646a4.24,4.24,0,0,0-5,.67l-3.83,3.69a4.25,4.25,0,0,1-7.19-2.94l-.14-5.31a4.23,4.23,0,0,0-3.07-4l-5.1-1.47a4.25,4.25,0,0,1-1.05-7.7l4.53-2.78a4.23,4.23,0,0,0,1.9-4.63Z" fill="#fff"/><circle cx="752.21" cy="630.13" r="7.52" fill="#c44e79"/><path d="M491.07,766.4c-2.3-11.44-3.68-26.4-3.68-26.4-1.42.31-2.87.58-4.33.84a205.51,205.51,0,0,0,4.71,24.62l1.11-.11s.09.25.24.71l-1.23-.15a215,215,0,0,0,10,29.54c-3.84-12.13-8.55-26.12-9.65-29.39Z" fill="none"/><polygon points="497.85 795.45 497.85 795.45 497.85 795.45 497.85 795.45" fill="#82c862"/><path d="M485.71,765.65l2.18.26-.12-.45Z" fill="none"/><path d="M488.88,765.35l-1.11.11.12.45,1.23.15C489,765.6,488.88,765.35,488.88,765.35Z" fill="none"/><rect width="1259.23" height="2194.12" fill="none"/></g></g></g></svg>