<svg xmlns="http://www.w3.org/2000/svg" width="1259.23" height="2194.12" viewBox="0 0 1259.23 2194.12"><defs><style>.a{fill:#703d0b;}.b{fill:none;}.c{fill:#572f09;}.d{fill:#a15710;}</style></defs><title>3_girl_hair_5</title><path class="a" d="M500.41,252.88s122.82-23.29,173.65-150.35c0,0-4.24,78.35-44.47,108,0,0,72-19.06,74.11-105.88,0,0,78.36,57.17,93.18,150.35,0,0,24.35-9.53,27.53,30.71s-34.94,64.58-46.59,66.7c0,0-28.47,51.83-77.17,78.3l3.05,45.58s7.42,9.53,25.42,10.59,104.82,24.36,120.7,46.59c6.29,8.81-18.09-69-15.41-168.83,6.94-258.58-48.12-357.4-182.24-336.23,0,0-202.64-48.41-198.41,248.06,3.91,273.32-11.94,265.82-11.94,265.82s59.3-50.82,125.65-48l32.47-15.53V432.18s-65.65-32.47-82.59-80.47c0,0-51.36-15.74-46.59-70.59C473.59,248.65,500.41,252.88,500.41,252.88Z"/><path class="a" d="M443.35,541c-1,.81-1.53,1.26-1.53,1.26S442.42,542.58,443.35,541Z"/><path class="b" d="M470.49,290.48c0,1.1.09,2.19.17,3.26C470.59,292.65,470.54,291.56,470.49,290.48Z"/><path class="b" d="M470.66,293.74a66.62,66.62,0,0,0,1.72,10.93C471.32,297.72,470.66,293.74,470.66,293.74Z"/><path class="c" d="M517.35,351.71s-36.14-11.08-45-47c5.41,35.49,21.27,148.75,13.23,209.55A205.88,205.88,0,0,1,523,499.72c5.94-33.36,9.18-67.22,6.63-100.37,8,30.87,17.44,63.55,18.22,95.6a133.72,133.72,0,0,1,19.66-.66l32.47-15.53V432.18S534.29,399.71,517.35,351.71Z"/><polygon class="a" points="470.66 293.74 470.66 293.74 470.66 293.74 470.66 293.74"/><path class="c" d="M503.94,230.29s-7.06-33.88,15.53-77.64c0,0-52.37,60.25-49,137.83a80.75,80.75,0,0,1,.27-9.36c1.38-15.82,8.45-22.91,15.34-26a27.8,27.8,0,0,1,14.31-2.2s122.82-23.29,173.65-150.35C616.88,204.88,503.94,230.29,503.94,230.29Z"/><path class="b" d="M823.88,299.53h0a58.54,58.54,0,0,0,.69-7.49Q824.27,295.76,823.88,299.53Z"/><path class="c" d="M798.15,142.76c13.26,31.06,7.32,87.5,7.32,87.5C792.35,154,703.7,104.65,703.7,104.65S782.06,161.82,796.88,255c0,0,24.35-9.53,27.53,30.71a58.81,58.81,0,0,1,.16,6.33C831.23,208.14,798.15,142.76,798.15,142.76Z"/><path class="c" d="M781.67,499.44c16.57,5.21,33.83,11.65,47.14,18.55-11.18-47.72-13.4-139.26-4.93-218.46-5.09,32-35.81,51-46.06,52.88,0,0-28.47,51.83-77.17,78.3l3.05,45.58s7.42,9.53,25.42,10.59c5,.3,15.44,2.33,28.18,5.6.38-37.67,8.26-75.05,22.29-110.13C774.49,421,773.64,461.13,781.67,499.44Z"/><path class="d" d="M549.31,59.47s33.6,45.18,97,56.47c0,0-55.58,23.3-126.87-27.6C519.47,88.34,531.14,67.94,549.31,59.47Z"/><path class="d" d="M732.65,115.94S774.42,92.54,770,72.65c0,0,15.58,13.51,22.41,29.88C792.41,102.53,767.05,121.26,732.65,115.94Z"/><rect class="b" width="1259.23" height="2194.12"/></svg>