<svg xmlns="http://www.w3.org/2000/svg" width="1259.23" height="2194.12" viewBox="0 0 1259.23 2194.12"><title>3_girl_shose_4</title><g id="Layer_2" data-name="Layer 2"><g id="Layer_141" data-name="Layer 141"><g id="_3_girl_shose_4" data-name="3_girl_shose_4"><polygon points="148.18 2151.71 158.06 2175.71 174.29 2151.71 148.18 2151.71" fill="#ad5842"/><polygon points="195.47 2156.65 205.35 2180.65 221.59 2156.65 195.47 2156.65" fill="#ad5842"/><polygon points="240.65 2153.12 250.53 2177.12 266.76 2153.12 240.65 2153.12" fill="#ad5842"/><polygon points="289.35 2141.82 299.23 2165.82 309.82 2141.82 289.35 2141.82" fill="#ad5842"/><polygon points="321.12 2110.06 331 2134.06 341.59 2110.06 321.12 2110.06" fill="#ad5842"/><polygon points="361.35 2094.53 371.23 2118.53 381.82 2094.53 361.35 2094.53" fill="#ad5842"/><polygon points="405.12 2083.94 415 2107.94 425.59 2083.94 405.12 2083.94" fill="#ad5842"/><path d="M264.24,2057.16c17.49,18.88,31.16,41.48,35.57,66.35,3.82-4.07,8.32-8.84,13-13.75-6.74-24.33-19.62-48-37-66.31Q270,2050.28,264.24,2057.16Z" fill="#fff"/><path d="M275.77,2043.45c17.42,18.28,30.3,42,37,66.31,3.93-4.14,8-8.38,11.88-12.39-7.7-24.61-19.33-48.35-38.06-66.66Q281.19,2037.07,275.77,2043.45Z" fill="#ffc8ba"/><path d="M286.63,2030.71c18.73,18.31,30.36,42.05,38.06,66.66,3.39-3.5,6.65-6.83,9.58-9.76-7.36-25.52-19.38-49.83-36.64-69.69Q292.1,2024.33,286.63,2030.71Z" fill="#fff"/><path d="M297.63,2017.92c17.26,19.86,29.28,44.17,36.64,69.69,6.28-6.28,11.07-10.78,12.45-11.36.93-1.3,1.87-2.58,2.82-3.86-7.67-25.75-20.6-49.68-39.12-69.24Q304,2010.57,297.63,2017.92Z" fill="#ffc8ba"/><path d="M424,1995.66a269.67,269.67,0,0,0-12.42-24.72c-25.15,15.21-52.07,27.37-81.26,29.67,14.22,18.37,23.93,39.62,31.18,61.7,26.49-3.56,52.5-10.6,76.12-23.33C435.21,2023.87,429.52,2008.25,424,1995.66Z" fill="#ffc8ba"/><path d="M312.5,2000.75l-2.08,2.4c18.52,19.56,31.45,43.49,39.12,69.24,2.34-3.16,4.72-6.29,7-9.46,1.64-.19,3.28-.4,4.92-.62-7.25-22.08-17-43.33-31.18-61.7A124.07,124.07,0,0,1,312.5,2000.75Z" fill="#fff"/><path d="M262.37,2059.39c-9.18-5.86-20-7.93-28.87-14l-7.68,8.86c-32.47,18.71-60.64,17.42-72,32.18-14.91,19.3-13,40.33-13.23,42.72,13.31,12.71,45.29,29.24,117.38,13.69l30.71-7.41s4.57-4.94,11.16-12c-4.41-24.87-18.08-47.47-35.57-66.35C263.62,2057.9,263,2058.64,262.37,2059.39Z" fill="#ffc8ba"/><path d="M312.5,2000.75c-1.63-.1-3.27-.23-4.91-.4-9.6-1.6-19.18-5.12-24.68-12.6-4.82,6-35,41-49.41,57.68,8.83,6,19.69,8.1,28.87,14C278.79,2039.68,295.29,2020.56,312.5,2000.75Z" fill="#333166"/><path d="M141.5,2147.15l-.09-.67Z" fill="#fff"/><path d="M141.38,2146.3c0-.25-.07-.49-.1-.74C141.31,2145.81,141.35,2146.05,141.38,2146.3Z" fill="#fff"/><path d="M141.26,2145.39c0-.26-.07-.53-.1-.8C141.19,2144.86,141.22,2145.13,141.26,2145.39Z" fill="#fff"/><path d="M141.62,2148l-.09-.61Z" fill="#fff"/><path d="M141.88,2149.59c0-.21-.07-.43-.1-.66C141.81,2149.16,141.85,2149.38,141.88,2149.59Z" fill="#fff"/><path d="M141.75,2148.76l-.09-.59Z" fill="#fff"/><path d="M141.14,2144.45c0-.29-.07-.59-.11-.89C141.07,2143.86,141.1,2144.16,141.14,2144.45Z" fill="#fff"/><path d="M292.35,2149.77l-.69.21c-31.62,9.9-58.6,13.19-80.5,13.19a189.94,189.94,0,0,1-39.75-4,142.07,142.07,0,0,1-29.52-9.55c.36,2.15.64,3.49.64,3.49,35.29,31.06,141.17,11.29,152.47,5.64s50.82-52.23,50.82-52.23c25.41,2.82,84.71-16.94,84.71-16.94l3.37-11.81c-34.89,13.81-75.88,15-83.66,15.15Z" fill="#d1836f"/><path d="M141,2143.49c0-.33-.07-.66-.1-1C141,2142.83,141,2143.16,141,2143.49Z" fill="#fff"/><path d="M141.78,2148.93l0-.17Z" fill="#fff"/><path d="M141.66,2148.17c0-.07,0-.14,0-.21S141.65,2148.1,141.66,2148.17Z" fill="#fff"/><path d="M141.89,2149.63h0v0Z" fill="#fff"/><polygon points="433.9 2077.78 434.7 2074.98 433.9 2077.78 433.9 2077.78" fill="#fff"/><path d="M141.53,2147.35l0-.2Z" fill="#fff"/><path d="M141.28,2145.56l0-.17Z" fill="#fff"/><path d="M141,2143.56v0Z" fill="#fff"/><path d="M141.41,2146.48l0-.18Z" fill="#fff"/><path d="M140.91,2142.48v0Z" fill="#fff"/><path d="M141.16,2144.59l0-.14Z" fill="#fff"/><path d="M437.59,2039c-25.08,13.52-52.86,20.63-81,23.95-3.22,4.45-67.9,72.54-67.9,72.54l-30.71,7.41c-72.09,15.55-104.07-1-117.38-13.69a73.6,73.6,0,0,0,.35,13.29v0c0,.33.07.66.1,1v.07c0,.3.07.6.11.89l0,.14c0,.27.07.54.1.8l0,.17c0,.25.07.49.1.74l0,.18.09.67,0,.2.09.61c0,.07,0,.14,0,.21l.09.59,0,.17c0,.23.07.45.1.66v0a142.07,142.07,0,0,0,29.52,9.55,189.94,189.94,0,0,0,39.75,4c21.9,0,48.88-3.29,80.5-13.19l.69-.21,57.89-56.84c7.78-.11,48.77-1.34,83.66-15.15l.8-2.8,1.48-5.16a49.65,49.65,0,0,0,2.49-13.41A82.57,82.57,0,0,0,437.59,2039Z" fill="#fff"/><path d="M301.92,1978.23a15.85,15.85,0,0,1-4.1-7.23c-3.1,2.48-64.3,69.61-72,83.29l4.34,2C253,2029.24,276.64,2002.9,301.92,1978.23Z" fill="#d1836f"/><path d="M410.76,1969.59c-4.23-9.88-9.88-14.12-9.88-14.12s-42.42,27.44-79.17,28.39c-23.19,26.29-40.42,57-60.79,85.34a19,19,0,0,0,16.78-7.78l38.48-53c29.58,2,64.59-18.86,95.37-37.47C411.05,1970.06,410.76,1969.59,410.76,1969.59Z" fill="#d1836f"/><path d="M314.76,1983.71c-6.31-.47-10.32-2.88-12.84-5.48-25.28,24.67-48.88,51-71.76,78.07l24.19,11.2a19.12,19.12,0,0,0,6.57,1.7c20.37-28.39,37.6-59,60.79-85.34C319.37,1983.92,317.05,1983.88,314.76,1983.71Z" fill="#fff"/><path d="M280.18,2071.65a5,5,0,0,1-4.21-2.3c-17.71-27.54-42.06-32.69-42.31-32.74a5,5,0,0,1-.8-9.57c1.39-.53,30.81-11.54,58.6-2.85-5-14.91-11.92-28.78-16.73-30a5,5,0,0,1,2.42-9.7c7,1.75,13.49,10.22,19.84,25.87a196.26,196.26,0,0,1,7.08,21.12,5,5,0,0,1-7.14,5.71c-15.59-8.08-33.85-6.92-46.2-4.6,9.87,5.16,22.87,14.58,33.65,31.34a5,5,0,0,1-4.2,7.71Z" fill="#a15845"/><path d="M289.7,2056.82a5,5,0,0,1-1.51-.23c-12.28-3.9-47-11.83-60-1.85a5,5,0,1,1-6.07-7.95c15-11.51,45-6,60.28-2.22-4.89-10.57-16.24-25.3-23.91-33.89a5,5,0,0,1,3.72-8.33h.1l54,1.06a5,5,0,0,1-.19,10l-43-.84c8.34,10.39,20.79,27.63,21.59,38.9a5,5,0,0,1-1.89,4.28A5,5,0,0,1,289.7,2056.82Z" fill="#a15845"/><polygon points="985.92 2156.45 977.27 2180.92 959.84 2157.78 985.92 2156.45" fill="#ad5842"/><polygon points="938.94 2163.78 930.28 2188.25 912.86 2165.1 938.94 2163.78" fill="#ad5842"/><polygon points="893.64 2162.54 884.99 2187.01 867.56 2163.86 893.64 2162.54" fill="#ad5842"/><polygon points="844.43 2153.72 835.77 2178.19 823.99 2154.76 844.43 2153.72" fill="#ad5842"/><polygon points="811.1 2123.6 802.44 2148.07 790.66 2124.64 811.1 2123.6" fill="#ad5842"/><polygon points="770.13 2110.13 761.48 2134.59 749.69 2111.16 770.13 2110.13" fill="#ad5842"/><polygon points="725.89 2101.76 717.23 2126.23 705.44 2102.8 725.89 2101.76" fill="#ad5842"/><path d="M865.23,2067.89c-16.51,19.75-29,43-32.17,68.07-4-3.87-8.76-8.41-13.68-13.08,5.5-24.63,17.17-49,33.64-68.1Q859.14,2061.32,865.23,2067.89Z" fill="#fff"/><path d="M853,2054.78c-16.47,19.14-28.14,43.47-33.64,68.1-4.13-3.93-8.4-8-12.49-11.77,6.45-25,16.86-49.26,34.64-68.5Q847.29,2048.7,853,2054.78Z" fill="#ffc8ba"/><path d="M841.53,2042.61c-17.78,19.24-28.19,43.54-34.64,68.5-3.56-3.33-7-6.48-10.07-9.27,6.07-25.85,16.85-50.74,33.08-71.44Q835.75,2036.52,841.53,2042.61Z" fill="#fff"/><path d="M829.9,2030.4c-16.23,20.7-27,45.59-33.08,71.44-6.58-6-11.59-10.2-13-10.71-1-1.25-2-2.48-3-3.71,6.36-26.11,18.06-50.66,35.57-71.13Q823.19,2023.39,829.9,2030.4Z" fill="#ffc8ba"/><path d="M702.6,2014.55a266.91,266.91,0,0,1,11.15-25.32c25.89,13.92,53.39,24.71,82.66,25.52-13.28,19.07-21.9,40.79-28,63.2-26.64-2.21-53-7.93-77.21-19.45C692.8,2043.29,697.69,2027.4,702.6,2014.55Z" fill="#ffc8ba"/><path d="M814.18,2014l2.2,2.29c-17.51,20.47-29.21,45-35.57,71.13-2.5-3-5-6-7.48-9.1-1.65-.11-3.29-.23-4.94-.37,6.12-22.41,14.74-44.13,28-63.2A123.78,123.78,0,0,0,814.18,2014Z" fill="#fff"/><path d="M867.21,2070c8.87-6.32,19.61-8.94,28.13-15.41l8.11,8.47c33.38,17,61.45,14.33,73.57,28.49,15.87,18.53,15,39.63,15.37,42-12.65,13.37-43.75,31.5-116.54,19.61l-31-5.85s-4.82-4.7-11.75-11.38c3.14-25.06,15.66-48.32,32.17-68.07Z" fill="#ffc8ba"/><path d="M814.18,2014c1.62-.18,3.25-.39,4.89-.65,9.5-2.08,18.89-6.09,24-13.83,5.12,5.79,37,39.17,52.26,55.1-8.52,6.47-19.26,9.09-28.13,15.41C849.82,2051.18,832.37,2032.91,814.18,2014Z" fill="#333166"/><path d="M992.36,2151.57l.06-.68Z" fill="#fff"/><path d="M992.44,2150.71l.06-.74Z" fill="#fff"/><path d="M992.51,2149.8l.06-.8Z" fill="#fff"/><path d="M992.28,2152.39l.06-.62Z" fill="#fff"/><path d="M992.1,2154c0-.22,0-.44.08-.67C992.15,2153.59,992.13,2153.81,992.1,2154Z" fill="#fff"/><path d="M992.19,2153.19c0-.2,0-.39.07-.59C992.24,2152.8,992.22,2153,992.19,2153.19Z" fill="#fff"/><path d="M992.58,2148.86c0-.3,0-.6.07-.9C992.63,2148.26,992.61,2148.56,992.58,2148.86Z" fill="#fff"/><path d="M841.84,2161.8l.7.18c32.08,8.3,59.19,10.22,81.06,9.11a190,190,0,0,0,39.49-6,143,143,0,0,0,29-11c-.25,2.16-.46,3.51-.46,3.51-33.68,32.8-140.43,18.42-152,13.35s-53.4-49.6-53.4-49.6c-25.24,4.1-85.46-12.64-85.46-12.64l-4-11.62c35.54,12,76.54,11.18,84.32,10.9Z" fill="#d1836f"/><path d="M992.65,2147.88q0-.48.06-1Q992.68,2147.4,992.65,2147.88Z" fill="#fff"/><path d="M992.18,2153.36v-.17S992.18,2153.31,992.18,2153.36Z" fill="#fff"/><path d="M992.26,2152.6a1.49,1.49,0,0,1,0-.21A1.49,1.49,0,0,0,992.26,2152.6Z" fill="#fff"/><path d="M992.1,2154.07h0v0Z" fill="#fff"/><polygon points="696.83 2097.07 695.89 2094.31 696.83 2097.07 696.83 2097.07" fill="#fff"/><path d="M992.34,2151.77c0-.07,0-.13,0-.2Z" fill="#fff"/><path d="M992.5,2150v0Z" fill="#fff"/><path d="M992.65,2148v0Z" fill="#fff"/><path d="M992.42,2150.89c0-.06,0-.12,0-.18Z" fill="#fff"/><path d="M992.71,2146.88h0Z" fill="#fff"/><path d="M992.57,2149v0Z" fill="#fff"/><path d="M691.18,2058.5c25.73,12.23,53.84,17.93,82.15,19.82,3.44,4.29,71.48,69,71.48,69l31,5.85c72.79,11.89,103.89-6.24,116.54-19.61a73.12,73.12,0,0,1,.32,13.3h0q0,.51-.06,1v.08c0,.3,0,.6-.07.9v.14l-.06.8v.17l-.06.74c0,.06,0,.12,0,.18l-.06.68c0,.07,0,.13,0,.2l-.06.62a1.49,1.49,0,0,0,0,.21c0,.2,0,.39-.07.59v.17c0,.23,0,.45-.08.67v0a143,143,0,0,1-29,11,190,190,0,0,1-39.49,6c-21.87,1.11-49-.81-81.06-9.11l-.7-.18L781.15,2108c-7.78.28-48.78,1.12-84.32-10.9l-.94-2.76-1.74-5.08A49.28,49.28,0,0,1,691,2076,83.25,83.25,0,0,1,691.18,2058.5Z" fill="#fff"/><path d="M823.61,1991a15.91,15.91,0,0,0,3.73-7.44c3.22,2.33,67.73,66.27,76.11,79.55l-4.23,2.23C875,2039.45,850.1,2014.33,823.61,1991Z" fill="#d1836f"/><path d="M714.47,1987.84c3.73-10.08,9.15-14.6,9.15-14.6s43.75,25.27,80.5,24.35c24.5,25.09,43.26,54.84,65,82.16a19,19,0,0,1-17.15-6.92l-41.1-51c-29.46,3.45-65.47-15.58-97.15-32.61C714.21,1988.33,714.47,1987.84,714.47,1987.84Z" fill="#d1836f"/><path d="M811.06,1997.09c6.28-.79,10.16-3.39,12.55-6.11,26.49,23.35,51.39,48.47,75.61,74.34l-23.59,12.4a19,19,0,0,1-6.48,2c-21.77-27.32-40.53-57.07-65-82.16A68.88,68.88,0,0,0,811.06,1997.09Z" fill="#fff"/><path d="M850,2083.17a5,5,0,0,0,4.09-2.51c16.29-28.4,40.36-34.77,40.6-34.83a5,5,0,0,0,.32-9.61c-1.41-.45-31.36-10-58.67.13,4.21-15.15,10.45-29.35,15.19-30.8a5,5,0,1,0-2.91-9.57c-6.9,2.11-13,10.89-18.5,26.84a196.7,196.7,0,0,0-6,21.46,5,5,0,0,0,7.42,5.34c15.17-8.86,33.46-8.62,45.91-6.93-9.6,5.65-22.1,15.71-32,33a5,5,0,0,0,1.85,6.82A4.89,4.89,0,0,0,850,2083.17Z" fill="#a15845"/><path d="M839.78,2068.85a5.21,5.21,0,0,0,1.5-.31c12.07-4.52,46.34-14.19,59.87-4.89a5,5,0,1,0,5.66-8.24c-15.61-10.73-45.3-3.76-60.31.83,4.35-10.81,14.94-26.09,22.17-35a5,5,0,0,0-4.15-8.13h-.1l-53.87,3.79a5,5,0,1,0,.7,10l42.88-3c-7.81,10.8-19.37,28.65-19.6,39.94a5,5,0,0,0,5.25,5.1Z" fill="#a15845"/><rect width="1259.23" height="2194.12" fill="none"/></g></g></g></svg>