<svg xmlns="http://www.w3.org/2000/svg" width="1259.23" height="2194.12" viewBox="0 0 1259.23 2194.12"><defs><style>.a{fill:#bf7d4a;}.b{fill:#945d32;}.c{fill:none;}</style></defs><title>3_girl_hair_8</title><path class="a" d="M847.43,322.49c22.47,1.42,44.89-14.26,51.27-35.85-14.62,16.47-53.19,3.51-61.73-16.8s-4.13-43.36-3.93-65.38c.38-43.84-17.93-87.09-48.39-118.6C728.06,27.31,659.92,28.3,646.15,29c-13.31-.68-88-1.67-144.56,56.88-30.47,31.51-48.78,74.76-48.39,118.6.19,22,4.61,45.08-3.93,65.38s-38.11,33.27-52.74,16.8c6.39,21.59,28.81,37.27,51.28,35.85-8.82,11.88-27.9,14.31-39.42,5,5,22.28,36.15,33.43,54.13,19.37A34.68,34.68,0,0,1,439,376.69c12.59,13,37.25,10.65,47.11-4.56-11,19.09-6.65,45.7,9.91,60.25a51,51,0,0,1,6.8-25.75c16.88,6.59,21.89,32.35,8.72,44.79A39,39,0,0,0,542.8,426.8a47.09,47.09,0,0,1-8.39,28.87,62.9,62.9,0,0,0,44.75-33.18s-52.89-38.07-61.71-71.2c0,0-47.36-9.55-47.44-68.77,0,0,1.75-33.52,30-29.54,0,0-1.44-52.15,24-100.46,4.15,12.5,11,24.73,18.05,35.28a80,80,0,0,1,17-61.56,108.2,108.2,0,0,0-1.41,44.07L596,120.79l21.12,44.15a116.31,116.31,0,0,0,18.8-41.27,48.67,48.67,0,0,1,1.13,44.19c18.1-6.11,31.59-24,32.54-43.05a84.65,84.65,0,0,1,18.71,46A47.28,47.28,0,0,0,704.42,134a61.25,61.25,0,0,1,21.34,46.94,85.36,85.36,0,0,0,10-41.92,74.41,74.41,0,0,1,19.72,30.13c1.53-15.67,1-28.75-1.28-39.74,41.64,53,41,123.58,41,123.58,28.26-4,30,29.54,30,29.54-.09,59.22-48.44,68.77-48.44,68.77-8.82,33.13-60.71,71.2-60.71,71.2a62.9,62.9,0,0,0,44.75,33.18,47.16,47.16,0,0,1-8.4-28.87,39,39,0,0,0,31.31,24.62c-13.16-12.44-8.15-38.2,8.73-44.79a51,51,0,0,1,6.79,25.75c16.57-14.55,21-41.16,9.91-60.25,9.87,15.21,34.53,17.59,47.12,4.56a34.68,34.68,0,0,1-23.57-29.81c18,14.06,49.14,2.91,54.13-19.37C875.33,336.8,856.24,334.37,847.43,322.49Z"/><path class="b" d="M732.59,110.35c-14-1-21-19-31-31,0,8,2,23-7,21-10-2-12-15-17-23-10,6,1,27-9,21-9-5-9-19-15-29-12,9-13,29-26,33-9,3-2-28-10-30-13-3-26,22-32,37,0-11,1-21-1-32-17,9-33,26-38,44-6-10,1-21-2-32-17.53,19.2-37.14,41.17-43.73,66.52a3.86,3.86,0,0,1-7.55-.38,100.1,100.1,0,0,1-.38-20.15,1.26,1.26,0,0,0-2.45-.48c-7.72,22.45-17.38,43.93-20.89,68.49-3,29,1,58-11,84-5,14-21,20-37,15-9.25-2-16.31-7-22.63-13.38a22.14,22.14,0,0,1-2.43-2.33c6.39,21.59,28.81,37.27,51.28,35.85-8.82,11.88-27.9,14.31-39.42,5,5,22.28,36.15,33.43,54.13,19.37A34.68,34.68,0,0,1,439,376.69c12.59,13,37.25,10.65,47.11-4.56-11,19.09-6.65,45.7,9.91,60.25a51,51,0,0,1,6.8-25.75c16.88,6.59,21.89,32.35,8.72,44.79A39,39,0,0,0,542.8,426.8a47.09,47.09,0,0,1-8.39,28.87,62.9,62.9,0,0,0,44.75-33.18s-52.89-38.07-61.71-71.2c0,0-47.74-14.05-47.44-68.77,0,0,4-30.51,30-29.54,0,0-1.44-52.15,24-100.46,4.15,12.5,11,24.73,18.05,35.28a80,80,0,0,1,17-61.56,108.2,108.2,0,0,0-1.41,44.07L596,120.79l21.12,44.15a116.31,116.31,0,0,0,18.8-41.27,48.67,48.67,0,0,1,1.13,44.19c18.1-6.11,31.59-24,32.54-43.05a84.65,84.65,0,0,1,18.71,46A47.28,47.28,0,0,0,704.42,134a61.25,61.25,0,0,1,21.34,46.94,85.36,85.36,0,0,0,10-41.92,74.41,74.41,0,0,1,19.72,30.13c1.53-15.67,1-28.75-1.28-39.74,41.64,53,41,123.58,41,123.58,7.32-1,12.85.47,17,3.24-3.31-66.87-4.88-120.51-73.68-173.87C737.59,92.35,743.59,112.35,732.59,110.35Z"/><path class="b" d="M898.7,286.64A21.64,21.64,0,0,1,888,293a54.83,54.83,0,0,1-24.42,8.33c-16.1,1.24-29.13-7.11-38.38-19.11,0,.17,0,.28,0,.28-.09,59.22-48.44,68.77-48.44,68.77C761.35,389.76,715.7,421,715.7,421c8.66,17.21,26.15,31.42,45.13,34.7a47.16,47.16,0,0,1-8.4-28.87,39,39,0,0,0,31.31,24.62c-13.16-12.44-8.15-38.2,8.73-44.79a51,51,0,0,1,6.79,25.75c16.57-14.55,21-41.16,9.91-60.25,9.87,15.21,34.53,17.59,47.12,4.56a34.68,34.68,0,0,1-23.57-29.81c18,14.06,49.14,2.91,54.13-19.37-11.52,9.29-30.61,6.86-39.42-5C869.9,323.91,892.32,308.23,898.7,286.64Z"/><rect class="c" width="1259.23" height="2194.12"/></svg>