<svg xmlns="http://www.w3.org/2000/svg" width="1259.23" height="2194.12" viewBox="0 0 1259.23 2194.12"><title>3_girl_pant_6</title><g id="Layer_2" data-name="Layer 2"><g id="Layer_141" data-name="Layer 141"><g id="_3_girl_pant_6" data-name="3_girl_pant_6"><path d="M764.77,952.23c-80,26.55-158.2,16.72-205.66,5.59-23.55,75.84-67.56,252.27-84.63,552.56-2.43,42.74-7.38,85.31-20.91,125.92l-4.1,12.29-67.61,220.22c21.16,3.1,42.61,4.88,63.91,6.6a488.5,488.5,0,0,1,40.5-94.15c31.28-56.24,31.71-113,28-146.32a110.24,110.24,0,0,1,11.11-62c69.56-137.17,106.29-236.09,138.2-370.25,10.8,39.88,38.48,276.67,49.9,376.77a121,121,0,0,1-13,69.46c-21.07,40.61-28.78,106.25-19.84,153.06,6.92,36.21,11.19,64,14,85.91a532,532,0,0,0,81.9,5.25c.12-133.92,5.42-263.75,5.42-263.75C879.23,1262.24,792.9,1017.48,764.77,952.23Z" fill="#c2814e"/><path d="M453.57,1636.3c13.53-40.61,18.48-83.18,20.91-125.92,17.07-300.29,61.08-476.72,84.63-552.56-28.56-6.71-46-13.88-46-13.88l-.38-.1c-94.83,151.09-65.27,255.78-67.39,363.63s-36,254.12-36,254.12c-21.78,50-60.09,190.64-85.94,294,19,6.3,38.61,10.36,58.45,13.26l67.61-220.22Z" fill="#a66835"/><path d="M890.76,1123.94c-7.39-94.25-66.69-178.35-77.26-192.67a307.23,307.23,0,0,1-48.73,21c28.13,65.25,114.46,310,17.29,677.12,0,0-5.3,129.83-5.42,263.75q18.3-.28,36.77-2c.16-120.33,18.06-271.62,18.06-271.62C865.35,1419,907.7,1339.94,890.76,1123.94Z" fill="#a66835"/><path d="M443.85,1881.86q.94-3.24,1.92-6.45c-20.48-1.66-41.09-3.36-61.45-6.23,1.87,18.49.06,37.33-2.73,56.17a57.55,57.55,0,0,1-4.8,16,232.91,232.91,0,0,0,52.74.34C455.94,1916.09,446.83,1892.8,443.85,1881.86Z" fill="#fcffb3"/><path d="M384.32,1869.18c-20.69-2.93-41.12-7.07-60.91-13.63-18.09,23.19-25.63,45.84-16.38,67.56.13.06,28.85,13.46,69.76,18.25a57.55,57.55,0,0,0,4.8-16C384.38,1906.51,386.19,1887.67,384.32,1869.18Z" fill="#d4bd7b"/><path d="M775.56,1893.12a533.4,533.4,0,0,1-80.82-5.27c-4.61,31.5-7.7,52.58,7.87,70.75,16.88,3.14,44.76,3.07,70.28,1.36C780,1938.77,779.55,1915.43,775.56,1893.12Z" fill="#fcffb3"/><path d="M813.41,1891.09q-19,1.8-37.85,2c4,22.31,4.4,45.65-2.67,66.84a392.13,392.13,0,0,0,42.6-4.88C814.87,1938.5,833.08,1916.15,813.41,1891.09Z" fill="#d4bd7b"/><path d="M543.43,953.82a292,292,0,0,1-30.31-9.88l-.38-.1c-36.51,58.16-54.57,109.45-63.11,156.69C499.58,1067.3,524.45,1010.26,543.43,953.82Z" fill="#82512a"/><path d="M886.51,1093c-15.73-81.1-63.62-149-73-161.68a305.27,305.27,0,0,1-37.43,17c.16.38.33.75.52,1.12C800.79,1004.69,832.48,1063.75,886.51,1093Z" fill="#82512a"/><rect x="636.65" y="1003.94" width="59.29" height="169.41" fill="#a66835"/><path d="M663.59,1202.65s-59.5-28.13-103.48-68.05a4.44,4.44,0,0,1,4.72-7.37c37.3,15.91,115.58,63.77,216.46-2,4.09-2.67,8.21,4,4.65,7.36A312.41,312.41,0,0,1,663.59,1202.65Z" fill="#a66835"/><path d="M766.69,1630.61a8,8,0,0,0-9.67,8.53c1.15,12.11,5.19,30,18.68,36.8,14.15,7.07,24.51-18.91,29.83-37a8,8,0,0,0-10.06-9.82A57.11,57.11,0,0,1,766.69,1630.61Z" fill="#82512a"/><path d="M463.67,1612.35a59,59,0,0,1-26.55-11.2c-5.11-3.79-12.38-.72-12.71,5.46-1,18.19.13,45.31,15.75,43.76,14.92-1.48,24.66-16.37,29.76-27C472.19,1618.69,469,1613.15,463.67,1612.35Z" fill="#82512a"/><path d="M840.43,973.3a432.74,432.74,0,0,0-26.93-42c-143.63,77.19-300.38,12.67-300.38,12.67l-.38-.1c-8.72,13.89-16.38,27.39-23.12,40.54C530,1003.09,681.91,1061.94,840.43,973.3Z" fill="#fcffb3"/><path d="M567.47,959.69c-5.47,15.55-11.25,31-16.51,46.69,4.69,1.27,9.59,2.5,14.65,3.69,3.67-16.37,7.66-32.56,12.93-48.16C574.72,961.19,571,960.45,567.47,959.69Z" fill="#c2814e"/><path d="M759.71,953.86c4.93,16.08,10.44,32.21,14.63,48.56q7.38-2.43,14.84-5.24C785,980.82,779,965.07,773.93,949Q766.81,951.63,759.71,953.86Z" fill="#c2814e"/><path d="M638.84,1177.67a16.2,16.2,0,0,0-.25,2.68c-2.15,65.71-8.89,131.42-25.68,194.58,19.84-54.73,35.79-109.67,50.68-172.28,7.63,28.18,23.69,154.69,36.49,261.82-3.27-93.73-11.68-187.64-23.35-280.61C664.1,1184,651.47,1178.23,638.84,1177.67Z" fill="#a66835"/><path d="M638.81,968.84c-1.1,17-1.93,34.34-1.31,51.49a384,384,0,0,0,56.69-1.16c-.71-17.24-1.15-34.48-2.22-51.72A382.6,382.6,0,0,1,638.81,968.84Z" fill="#57361c"/><path d="M875.36,1435.19c2.15,6.62,3.22,37.12-1.2,64.47-5-.56-11.69-1.42-19.13-2.44,2.48-21.88,4.29-43.68,2.88-65.41C868.23,1433.68,875.36,1435.19,875.36,1435.19Z" fill="#a66835"/><path d="M857.91,1431.81c1.41,21.73-.4,43.53-2.88,65.41-13.4-1.84-29.26-4.23-42.25-6.38,1.87-21.64,3.41-43.45,5.29-64.93C831.75,1427.33,846.7,1429.79,857.91,1431.81Z" fill="#945d34"/><path d="M818.07,1425.91c-1.88,21.48-3.42,43.29-5.29,64.93-13.43-2.23-23.8-4.21-25.2-5.11-3.67-2.35-2.15-44.91-1.52-59.58C792.19,1424.1,804.5,1424.5,818.07,1425.91Z" fill="#a66835"/><path d="M786.06,1426.15c-.63,14.67-2.15,57.23,1.52,59.58,3.51,2.24,59,8.64,82.38,11.25-4.63,28.61-10.68,56.72-13.62,59.55-5.76,5.53-81.12-12.72-85.56-15.56s12.93-113.72,12.93-113.72A9.52,9.52,0,0,1,786.06,1426.15Z" fill="#82512a"/><ellipse cx="837.72" cy="1474.3" rx="10.59" ry="8.05" transform="translate(-748.53 2073.59) rotate(-81.09)" fill="#fcffb3"/><path d="M414.71,1399.83c-3.71,5.89-12.26,35.18-14.7,62.78,5,.69,11.68,1.5,19.14,2.34,3-21.81,6.59-43.39,13.31-64.1C422,1400.12,414.71,1399.83,414.71,1399.83Z" fill="#a66835"/><path d="M432.46,1400.85c-6.72,20.71-10.33,42.29-13.31,64.1,13.44,1.51,29.4,3.11,42.53,4.21,3.51-21.43,7.37-43,10.84-64.23C458.91,1402.94,443.81,1401.64,432.46,1400.85Z" fill="#945d34"/><path d="M472.52,1404.93c-3.47,21.28-7.33,42.8-10.84,64.23,13.56,1.15,24.1,1.77,25.67,1.25,4.14-1.37,13.14-43,16.14-57.38C498.05,1409.54,486,1406.9,472.52,1404.93Z" fill="#a66835"/><path d="M503.49,1413c-3,14.38-12,56-16.14,57.38-4,1.31-59.36-6.15-82.61-9.37-2.55,28.88-3.6,57.61-1.45,61.08,4.22,6.77,81.76,7.63,86.76,6s15.44-113.41,15.44-113.41A9.56,9.56,0,0,0,503.49,1413Z" fill="#82512a"/><ellipse cx="441.57" cy="1447" rx="10.59" ry="8.05" transform="translate(-1040.2 1752.18) rotate(-84.67)" fill="#fcffb3"/><rect width="1259.23" height="2194.12" fill="none"/></g></g></g></svg>