<svg xmlns="http://www.w3.org/2000/svg" width="1259.23" height="2194.12" viewBox="0 0 1259.23 2194.12"><title>3_girl_drivers_6</title><g id="Layer_2" data-name="Layer 2"><g id="Layer_141" data-name="Layer 141"><g id="_3_girl_drivers_6" data-name="3_girl_drivers_6"><path d="M1187.32,1337.38c-.27-43.45-.44-73-.44-73l-15.59.27.49,71.77C1176.89,1334.69,1182.19,1335.52,1187.32,1337.38Z" fill="#ff9759"/><path d="M1176,1933.28l.22,27.22a91.22,91.22,0,0,1,14.42-.58c0-8.69,0-17.56-.06-26.55C1185.68,1934,1180.81,1934.3,1176,1933.28Z"/><path d="M1188.7,1544.25c-.45-59.87-.89-127.91-1.23-181.92-5.18-1.34-10.35-2.34-15.53-1.69l1.23,183.25,1.38,159.6,1.47,229.79c4.79,1,9.66.68,14.58.09-.15-56.24-.44-168.6-.8-227.91C1189.47,1650.19,1189.08,1594.87,1188.7,1544.25Z" fill="#06229c"/><path d="M1187.47,1362.33c0-8.71-.1-17.06-.15-24.95-5.13-1.86-10.43-2.69-15.54-.94l.16,24.2C1177.12,1360,1182.29,1361,1187.47,1362.33Z"/><path d="M1176.24,1960.5l1.61,144.76s6.07,3.6,11.07-2.62c1.57-2,2-34.42,1.74-142.72A91.22,91.22,0,0,0,1176.24,1960.5Z" fill="#ff9759"/><path d="M1156.94,1223.76v.28l14.35,40.63,15.59-.27,15.43-39.86C1188.16,1218.63,1171.45,1217.78,1156.94,1223.76Z"/><path d="M1179.77,1225.05l-.3,34.23-5.36.82-10.86-32.43S1171.12,1223.86,1179.77,1225.05Z" fill="#0f1214"/><path d="M1190.54,2065.19s-49.34-101.27-119.24-78.06-72,90.66-50.27,129.95c11.86,21.4,44.24,46.44,96.37,33.08,60.1-15.4,71.52-47.52,71.52-47.52Z" fill="#ff9759"/><path d="M1143.07,2005.94c-14.41-10.37-35-13.81-56.66,5.94-15.27,13.93-25.15,33.26-22.15,64.17,1.81,18.62,12.77,40.91,35,57.4a52.27,52.27,0,0,0,41.72,9.44l.26,0c39-15.63,47.66-40.2,47.66-40.2l1.62-37.46S1173.65,2030,1143.07,2005.94Z"/><path d="M1090.74,2044.43a90.55,90.55,0,0,0-2.22,14.66,3.35,3.35,0,0,0,2.92,3.56c17.1,2.12,60.16,7.74,85.12,13.45a3.34,3.34,0,0,0,4.06-3.65h0a3.39,3.39,0,0,0-1.85-2.61c-23-11.37-66.63-23.33-84-27.85A3.31,3.31,0,0,0,1090.74,2044.43Z" fill="#06229c"/><path d="M1097,2099.67l82.38-13.09a3,3,0,0,0,2.54-3.36h0a3,3,0,0,0-3-2.68l-86-1.2a3,3,0,0,0-3,3.6,124.36,124.36,0,0,0,3.71,14.61A3.06,3.06,0,0,0,1097,2099.67Z" fill="#06229c"/><path d="M1105.55,2127c21.38-2.2,58.92-20.54,76.21-30.35a3.22,3.22,0,0,0,1.4-3.21h0c-.24-2.08-2.05-3.4-3.65-2.66-26.27,12.18-59.77,18.61-77.47,21.37-1.66.25-2.63,2.27-2,4.18,1,3.27,2,6.43,2.75,8.58A2.77,2.77,0,0,0,1105.55,2127Z" fill="#06229c"/><path d="M1178.23,2058.07c-35.65-33.56-62.23-42.07-68.83-43.77a2.64,2.64,0,0,0-2.69.85,62.34,62.34,0,0,0-5.75,8,2.68,2.68,0,0,0,1.44,4c14.79,4.87,46,16.49,72.44,35.12a2.69,2.69,0,0,0,4.23-2.5h0A2.77,2.77,0,0,0,1178.23,2058.07Z" fill="#06229c"/><path d="M1015,2076.79s19.13-13.44,41.43-17.28c0,0-.87-53.87,52.25-68.16C1108.68,1991.35,1020.23,1981.07,1015,2076.79Z" fill="#ffebc2"/><path d="M1202.59,1132.35c-11-11-30-20-44-7a15.17,15.17,0,0,0-1.3,1.5l-.35,96.91c14.51-6,31.22-5.13,45.37.78l2.12-90.33A24.79,24.79,0,0,0,1202.59,1132.35Z" fill="#06229c"/><path d="M1202.59,1132.35a24.79,24.79,0,0,1,1.84,1.86l1.16-49.21c-22.24,14.94-38.12,10.71-48.16,2.92l-.14,38.93a15.17,15.17,0,0,1,1.3-1.5C1172.59,1112.35,1191.59,1121.35,1202.59,1132.35Z" fill="#04176a"/><path d="M1186.52,1679.71l-9.93,6.62c-2.7-6.65,11.59-6.53,6.84-9.56-1.89-1.91-8.27-3.57-6.84-7.69,16.4-11.88.43-2.66,0-14.61,24.14,15.17-2.54,12.15,3,16.81C1182.2,1673.41,1188,1675.41,1186.52,1679.71Z" fill="#fff"/><path d="M1176.59,1647.86h9.93v3.37h-9.93Z" fill="#fff"/><path d="M1186.52,1642h-9.93c-.2-6.8,4.66-10.55,8.23-16.8-1.25.4-5.46.42-8.23.39v-3.17h9.93c.08,6.67-4.81,10.24-8.34,16.68a66.86,66.86,0,0,1,8.34-.27Z" fill="#fff"/><path d="M1186.52,1616.51h-9.93c-.2-6.81,4.66-10.55,8.23-16.8-1.25.4-5.46.41-8.23.38v-3.17h9.93c.08,6.68-4.81,10.25-8.34,16.68a68.88,68.88,0,0,1,8.34-.27Z" fill="#fff"/><path d="M1181.86,1577.53v10.14h3.58v-11.3h1.08V1591h-9.93V1577h1.08v10.72h3.13v-10.14Z" fill="#fff"/><path d="M1176.72,1572c-1-3.22.43-25.49,5.07-11.15.06-1.84,1.54-3.62,4.73-5.85,1.15,6.57-5.53,3.27-4.3,13.63h4.3V1572Zm4.52-3.37c.74-4-1.72-14.83-3.62-5.77C1177.17,1567.48,1176.83,1569.36,1181.24,1568.63Z" fill="#fff"/><rect width="1259.23" height="2194.12" fill="none"/></g></g></g></svg>