<svg xmlns="http://www.w3.org/2000/svg" width="1259.23" height="2194.12" viewBox="0 0 1259.23 2194.12"><defs><style>.a{fill:#61341c;opacity:0.4;}.b{fill:#452b24;}.b,.d{fill-opacity:0.7;}.c{fill:#00688f;}.d{fill:#996f63;}.e{fill:none;}</style></defs><title>3_girl_Glasses_4_2</title><path class="a" d="M793,254.59c-.37-.08-3.38-.67-8.29-1.46-21.05-3.39-77.14-10.31-110.77,5.47a12.73,12.73,0,0,0-4.6,3.65,12.12,12.12,0,0,0-.88,1.28c-15.69-5.93-35.12-3.58-45.62-.88-.15-.2-.33-.39-.49-.59A12.49,12.49,0,0,0,618,258.6c-34.52-16.2-92.73-8.47-112.38-5.21-3.94.66-6.34,1.13-6.67,1.2,0,0-6.79.35-5.9,5.12.8,4.29,2.27,6.44,6.27,6.47,3.24,0,9.21-1.42,12.2,2.23,3.6-1.39,4-2.72,7.72-2.84a3.39,3.39,0,0,1,.86-.69c7.85-4.13,25.55-7.43,42.49-6.64,32.79,1.52,45.83,9.87,51.36,17.3,3.36-.11,3.84-.66,7.22-.07.06-.35-.07.36,0,0h0c-3.57.55,35.56-5.75,50.82.94h0l-2.33-.83c.1.57,2.22.26,2.33.83,3-.08,2.14-.25,5.22.36,5-7.7,17.61-16.93,52.22-18.53,16.93-.79,34.64,2.51,42.49,6.64a3.61,3.61,0,0,1,1.48,1.56c3.44.21,2.83-.71,5.88.56,0,0,0,0,0,0,3.22-4.73,10-.8,13.41-.82,4,0,5.47-2.18,6.28-6.47C799.81,254.94,793.05,254.59,793,254.59Z"/><path class="b" d="M517.43,274.06s3.17,40.72,51.75,42.35c41.93,1.41,50.52-32.82,50.52-32.82l-3-22.24L595.4,250.76l-46.58-4.23-35.47,8.71Z"/><path class="b" d="M774.49,274.06s-3.18,40.72-51.76,42.35c-41.93,1.41-50.51-32.82-50.51-32.82l3-22.24,21.26-10.59,46.58-4.23,34.72,7.76Z"/><path d="M793,250.59c-.37-.08-3.38-.67-8.29-1.46a131.3,131.3,0,0,1-1.79,15.5,2.53,2.53,0,0,1,.13-.22c3.22-4.73,6.13-2.21,9.57-2.23,4,0,5.47-2.18,6.28-6.47C799.81,250.94,793.05,250.59,793,250.59Z"/><path d="M498.9,250.59s-6.79.35-5.9,5.12c.8,4.29,2.27,6.44,6.27,6.47,3.43,0,6.34-2.48,9.55,2.2a115.42,115.42,0,0,1-3.25-15C501.63,250.05,499.23,250.52,498.9,250.59Z"/><path class="c" d="M618,254.6c-34.52-16.2-92.73-8.47-112.38-5.21a115.42,115.42,0,0,0,3.25,15l0,0c2.11,3.1,3.07,10.86,5.72,15.77,1.9,3.53,5.54,2.27,4.53-2.59-1.43-6.83-2.63-14.83.95-16.71,7.85-4.13,25.55-7.43,42.49-6.64,63.42,2.94,53,31.47,57.16,29.35,2-1,3.55-7,4.6-12.95l.16-.05q-1.05-6.27-2.09-12.53A12.49,12.49,0,0,0,618,254.6Z"/><path class="c" d="M674,254.6a12.73,12.73,0,0,0-4.6,3.65,54.27,54.27,0,0,0-2.07,13l.32-.66c1,5.93,2.58,12,4.61,13,4.17,2.12-6.26-26.41,57.16-29.35,16.93-.79,34.64,2.51,42.49,6.64,3.57,1.88,2.38,9.88,1,16.71-1,4.86,2.62,6.12,4.53,2.59,2.59-4.8,3.57-12.32,5.59-15.55a131.3,131.3,0,0,0,1.79-15.5C763.68,245.74,707.59,238.82,674,254.6Z"/><path d="M669.36,258.25a12.12,12.12,0,0,0-.88,1.28c-15.69-5.93-35.12-3.58-45.62-.88-.15-.2-.33-.39-.49-.59q1.05,6.27,2.09,12.53c7.38-2.07,28.28-5.61,42.49,1.33l.34-.68A54.27,54.27,0,0,1,669.36,258.25Z"/><path class="d" d="M751.84,301.75a36,36,0,0,0,18.25-28.24,1.19,1.19,0,0,0-2.21-.71c-3.61,6.42-10.72,18.54-17.56,27.19A1.18,1.18,0,0,0,751.84,301.75Z"/><path class="d" d="M595.6,306a36,36,0,0,0,18.26-28.25,1.19,1.19,0,0,0-2.22-.7c-3.61,6.41-10.71,18.53-17.55,27.19A1.18,1.18,0,0,0,595.6,306Z"/><rect class="e" width="1259.23" height="2194.12"/></svg>