<svg xmlns="http://www.w3.org/2000/svg" width="1259.23" height="2194.12" viewBox="0 0 1259.23 2194.12"><title>3_girl_shrit_3</title><g id="Layer_2" data-name="Layer 2"><g id="Layer_141" data-name="Layer 141"><g id="_3_girl_shrit_3" data-name="3_girl_shrit_3"><path d="M488.2,766.06l2.87.34c-2.3-11.44-3.68-26.4-3.68-26.4-1.42.31-2.87.58-4.33.84a209.27,209.27,0,0,0,14.79,54.61C494,783.32,489.3,769.33,488.2,766.06Z" fill="none"/><path d="M819.25,783.35l5.16-33-.75.4.92-27.48c1.6-.26,3.21-.57,4.82-.89a223.27,223.27,0,0,0-32.52-113.74l38.26-91.14c-20.45-11.46-48.1-20.4-83.65-26.51l-39.18-13.65-37.76,36-24.95,1.06-23.76.35-42.71-31.05-28.58,8.35c-18.24,4-64.55,13.9-98,33.81l48.31,95.84s-30.72,49.47-21.82,119.13c1.46-.26,2.91-.53,4.33-.84,0,0,1.38,15,3.68,26.4l-2.87-.34c1.1,3.27,5.81,17.26,9.65,29.39h0c2.51,7.93,4.65,15.07,5.17,17.9,1.41,7.77,4.94,50.83-2.36,76.24-5.92,20.63-13.17,48.7,11.53,54.35,0,0,157.77,64.94,301.77-13.41,0,0,24.35-9.53,12.7-44.47S819.25,783.35,819.25,783.35Z" fill="#fff"/><polygon points="497.85 795.45 497.85 795.45 497.85 795.45 497.85 795.45" fill="#ac3949"/><path d="M421.6,562.59C396.34,632,392.37,702,392,734.06c15.44,3.87,56.91,12.77,91,6.78-8.9-69.66,21.82-119.13,21.82-119.13l-48.31-95.84C440.27,535.58,427,547.66,421.6,562.59Z" fill="#4cc4e6"/><path d="M875.32,558.66c-6.75-16-19.93-29.8-40.18-41.15l-38.26,91.14A223.27,223.27,0,0,1,829.4,722.39c31.68-6.31,64.84-23.31,77.13-31.51C898.57,652.65,883.13,577.18,875.32,558.66Z" fill="#4cc4e6"/><path d="M823.66,750.76l.75-.4.14-.89s45.35-6.71,87-38.12c0,0-2-5.79-5-20.47-12.92,8.62-48.88,27-81.95,32.4Z" fill="#fff"/><path d="M485.71,765.65l3.41.41c-.15-.46-.24-.71-.24-.71Z" fill="none"/><path d="M488.32,740c-34.87,7.61-79.26-1.91-95.37-5.94-.12,11.45.23,18.06.23,18.06s40,18.14,92.53,13.53h0l3.17-.3s.09.25.24.71l2.87.34C489.69,755,488.32,740,488.32,740Z" fill="#fff"/><path d="M393.18,752.12s40,18.14,92.53,13.53c-1-3.16-1.88-6.36-2.71-9.58C447.47,764.65,393.18,752.12,393.18,752.12Z" fill="#bac7cf"/><path d="M827.61,739.67c-.13,4.15-.15,5.3,0,9.46,9.78-1.71,48.36-10.26,84.82-37.74C892.23,723.1,847.45,736.31,827.61,739.67Z" fill="#bac7cf"/><path d="M501.49,778.13c1.7,4.26,3.91,9.49,6.38,14.63a29.87,29.87,0,0,0,30.71,16.62c42.7-5.44,151.87-17.14,240.29-7.8a29.87,29.87,0,0,0,31.4-19.78c2.56-7.34,4.85-15.33,5.63-22.11a5.18,5.18,0,0,0-7.19-5.4c-28.93,12.62-143.39,55.07-301.17,16.91A5.18,5.18,0,0,0,501.49,778.13Z" fill="#bac7cf"/><path d="M504.88,621.71s-26.73,34.57-28,93.86c-.73,35,9.32,57.47,26.37,94.32h0S487.59,768.25,487,716C486.7,687.36,490.21,651.6,504.88,621.71Z" fill="#2897b8"/><path d="M796.88,608.65c43.71,88.45,20.3,169.71,23.29,174.7C859.7,682.06,796.88,608.65,796.88,608.65Z" fill="#2897b8"/><path d="M634.64,514.76H665V597.7a8.88,8.88,0,0,1-8.69,9.06H643.33a8.88,8.88,0,0,1-8.69-9.06Z" fill="#2897b8"/><circle cx="650.13" cy="542.68" r="11.24"/><circle cx="649.28" cy="589.51" r="11.24"/><path d="M599.65,455.12l-.36,13.76c9,14.3,30.31,38.06,51.24,45.53,0,0-29.53,21.54-46,36.92a9.6,9.6,0,0,1-13.48-.35c-12.09-12.59-37-39.88-44.89-59.37a6.94,6.94,0,0,1,3.73-9C561,478,584.22,467.08,599.65,455.12Z" fill="#4cc4e6"/><path d="M701.68,452l.35,13.76c-8.94,14.3-30.57,41.17-51.5,48.64,0,0,30.8,18.43,47.23,33.81a9.6,9.6,0,0,0,13.48-.35c12.1-12.59,37-39.88,44.89-59.37a6.94,6.94,0,0,0-3.72-9C741.38,474.84,717.11,464,701.68,452Z" fill="#4cc4e6"/><path d="M565.59,495.35c9.35-11.05,22.32-17.77,34.6-25.07-.31-.47-.61-.94-.9-1.4l.36-13.76c-15.43,12-38.7,22.83-49.73,27.46a6.94,6.94,0,0,0-3.73,9c3.78,9.28,11.4,20.33,19.65,30.72C561.31,512.75,559.11,503,565.59,495.35Z" fill="#2897b8"/><path d="M752.41,479.47c-11-4.63-35.3-15.49-50.73-27.46l.35,13.76c-1.17,1.88-2.57,4-4.16,6.23,14.76,8.53,34.08,14.81,37.72,29.35,1.59,7.33.33,14.86-2.69,22.3,9.57-11.61,18.91-24.54,23.23-35.15A6.94,6.94,0,0,0,752.41,479.47Z" fill="#2897b8"/><path d="M747.64,656.3a24.78,24.78,0,0,1-9.39-2.75c-5.74-3-16.17-7.72-22.31-5.83-8.79,2.71,8.12-19.63,29.1,2,0,0-6.76-21,2-18.27s6.77,20.3,6.77,20.3,16.92-24.36,27.75-13.54c9,9-9.74,9.12-19.34,14.8a24.55,24.55,0,0,1-14.61,3.26Z"/><path d="M887.59,652.35c-3-4-5-10-4-15a19.87,19.87,0,0,1,9.27-11c-1.23-5.54-2.46-11-3.68-16.37-18.42,6.47-27,30.89-15.59,48.4,6.54,9.52,17.67,14.43,29.2,14.54-1-4.86-2.09-10-3.2-15.27A22.76,22.76,0,0,1,887.59,652.35Z" fill="#fff"/><rect width="1259.23" height="2194.12" fill="none"/></g></g></g></svg>