<svg xmlns="http://www.w3.org/2000/svg" width="1259.23" height="2194.12" viewBox="0 0 1259.23 2194.12"><defs><style>.a{fill:#4c3427;}.b{fill:#623c27;}.c{fill:#855135;}.d{fill:none;}</style></defs><title>3_girl_hair_1</title><path class="a" d="M477.29,263.47c8.73-11.78,16.56-13,22.74-10.25q-.69-14.5-.33-28l-.06-.57-25.93-8.26c6.84,8.63,1.09,21.86-7.48,28.78-7.41,6-16.61,9.53-24.11,15.31a79.56,79.56,0,0,1,30.95,10.34A36.69,36.69,0,0,1,477.29,263.47Z"/><path class="b" d="M528.82,374.65c-4.39-6.07-8.15-14.2-11.37-23.36-32.26-7.56-57-51.28-44.38-80.47a79.56,79.56,0,0,0-30.95-10.34,40.28,40.28,0,0,0-3.38,2.89C426,275.6,424,296.82,432.69,312.21s26.4,24.6,44.05,24.91c-21.22,8.25-26.09,39.57-12.22,57.62s39.84,23.24,62,18.19c2.86,19.51,23.77,33.55,43.36,31.31,10.23-1.17,19.59-6.18,26.94-13.4C561.13,412.45,540.51,390.79,528.82,374.65Z"/><path class="a" d="M855.15,261.83c-7.94-7.54-18.84-11.19-27.36-18.07s-14.31-20.15-7.48-28.79L795.05,223c.56,9.35.81,19.38.57,29.92,6.08-2.33,13.67-.85,22.09,10.52a38.78,38.78,0,0,1,7.16,18.06C832.74,272,843.47,264.6,855.15,261.83Z"/><path class="b" d="M855.15,261.83c-11.68,2.77-22.41,10.18-30.28,19.7,3.84,28.37-19.13,63.56-47.91,69.89C759.47,391,727,415.93,698.81,431a45.85,45.85,0,0,0,25.29,11.85c19.59,2.24,40.5-11.8,43.36-31.31,22.2,5,48.17-.13,62-18.19s9-49.37-12.22-57.63c17.65-.3,35.4-9.51,44.05-24.9s6.7-36.61-6-48.84A.86.86,0,0,1,855.15,261.83Z"/><path class="a" d="M705.82,138.82c-3.17,0-105.88-51.11-170.47,37.83,0,0-8.47-135.24,84.71-106.65S705.82,138.82,705.82,138.82Z"/><path class="a" d="M751,116.24c-13.94-9-38.2,8.56-49.8,18.82,3,2.31,4.62,3.76,4.62,3.76S772,138,773.56,217.33C782.58,178.27,794.76,144.47,751,116.24Z"/><path class="b" d="M823.35,184.06s8.12-150.77-97.76-124.3C677.59,8.94,616,4.48,549.52,43.05c-45.42,26.37-68.71,70.4-73.72,94.7-2.67,12.93-.8,20.9-.8,20.9-20.7,7.12-42.94,53.67-15.21,80.57,6.08,5.91,31.51,17,50.9-1.75,16-15.44,26.3-58.51,32.07-76.71,10.3-32.45,37-46.34,50.83-51.58,67.76-25.71,99.53,6.06,107.61,25.88,11.6-10.26,90.74-54.41,72.36,82.27,0,1.59.05,3.2,0,4.85,0,0,2.11,48.7,45.53,39.17S860.41,195.71,823.35,184.06Z"/><path class="a" d="M528.82,374.65c-4.39-6.07-8.15-14.2-11.37-23.36A52,52,0,0,1,499.51,343c6.24,20.56,6.18,47.29-13.92,57.34a31.47,31.47,0,0,1-12.23,3.1c14.51,10.91,35.11,13.59,53.2,9.48,2.86,19.51,23.77,33.55,43.36,31.31,10.23-1.17,19.59-6.18,26.94-13.4C561.13,412.45,540.51,390.79,528.82,374.65Z"/><path class="a" d="M802.59,378.35a47.79,47.79,0,0,1-12.44-32A49.33,49.33,0,0,1,777,351.42C759.47,391,727,415.93,698.81,431a45.85,45.85,0,0,0,25.29,11.85c19.59,2.24,40.5-11.8,43.36-31.31,22.18,5,48.11-.12,62-18.13C819,391.67,809,386.23,802.59,378.35Z"/><path class="a" d="M799.59,189.35c-9,16,1,35,18,40-12-7-18-22-11-34,3.63-5.81,9.38-12.15,16.85-14,0-2.24.09-5.76,0-10.25C813.55,173.12,804.84,180.16,799.59,189.35Z"/><path class="a" d="M499.59,183.35c3,14-6,27-20,31,12-2,24-4,29-17a39.44,39.44,0,0,0,1-24c-4.28-15.69-17.73-29.85-33.79-35.6a107.22,107.22,0,0,0-.81,20.84C486.42,163,495.71,170.17,499.59,183.35Z"/><path class="a" d="M725.59,59.76q-4.62-4.89-9.41-9.2c.63,28-8.41,56.07-17.78,82.38,1,.76,2,1.47,2.8,2.12a79.11,79.11,0,0,1,9.55-7.34c4.22-23.94,10.85-48.21,22.6-69.59C730.83,58.56,728.25,59.1,725.59,59.76Z"/><path class="c" d="M575.5,39.06c-25.24,10.21-48,27.75-62.48,51.29,22-3.76,31.55-2.24,43.51,29.12,10.74-12.33,29.64-23.29,47.27-23C574.53,80.94,563.23,64,575.5,39.06Z"/><path class="c" d="M771.84,71.42c-.09.31-.16.62-.25.93-4.12,17.15-7.93,31.37-20.59,43.89,13.06.05,18.11,10.36,23.65,17,7.39-13.52,13.14-20.69,27.42-27.45C797.37,90.72,786.47,77.43,771.84,71.42Z"/><rect class="d" width="1259.23" height="2194.12"/></svg>