<svg xmlns="http://www.w3.org/2000/svg" width="1259.23" height="2194.12" viewBox="0 0 1259.23 2194.12"><defs><style>.a{fill:#63280e;}.b{fill:none;}</style></defs><title>3_mouth_2</title><path class="a" d="M607.73,379.17c-5.5-1-8.81,4.91-4.19,7.56,9.05,5.21,23,10.15,43.51,10.15a84.5,84.5,0,0,0,41.57-10.57c4.82-2.68,1.5-8.79-4.16-7.64A200.19,200.19,0,0,1,607.73,379.17Z"/><rect class="b" width="1259.23" height="2194.12"/><path class="a" d="M655.71,402l4.35-.46a2.54,2.54,0,0,1,1.44,4.71c-17.13,10.37-39.8,1.73-35.57-3.59C628,400.08,629.21,403.83,655.71,402Z"/></svg>