<svg xmlns="http://www.w3.org/2000/svg" width="1259.23" height="2194.12" viewBox="0 0 1259.23 2194.12"><defs><style>.a{opacity:0.4;}.b{fill:#61341c;}.c{fill:#ff808d;}.d{fill:#fff;}.e{fill:none;}</style></defs><title>3_girl_Glasses_2_1</title><g class="a"><path class="b" d="M779,255.11l-.86-.37c-2.34-1-57.87-24.07-108.81,2.9l-2.18,1.15v.83c-17.28-4.9-30.9-2.66-38.37-.47v-.36l-2.18-1.15c-51-27-106.48-3.89-108.81-2.9l-.86.37c-3.84-.13-19.67-.27-19.67,6.2,0,10.22,12.25,9.77,18.75,8.81,1.38,9.95,5.2,24.33,15.63,35.49,9.64,10.32,22.91,15.77,39.46,16.22l2.12,0c15.58,0,28.29-4.75,37.8-14.13,8.24-8.12,12.67-18.33,15-27.12a15.1,15.1,0,0,1,12.44-11,60.83,60.83,0,0,1,19.71.5A15,15,0,0,1,670,280.9c2.39,8.72,6.81,18.8,15,26.83,9.51,9.38,22.22,14.13,37.79,14.13l2.13,0c16.55-.45,29.82-5.9,39.45-16.22,10.43-11.16,14.26-25.54,15.64-35.49,6.5,1,18.74,1.41,18.74-8.81C798.7,254.84,782.88,255,779,255.11ZM618,278.59c-2.09,7.66-5.89,16.47-12.81,23.27-8.27,8.13-19.64,12.06-33.84,11.68s-25.52-5-33.57-13.55c-7.4-7.9-11-18-12.66-26.23a13.62,13.62,0,0,1,10-15.87c16.1-4.18,43.9-8.56,71.77.4A16.74,16.74,0,0,1,618,278.59Zm152.87-4.83c-1.7,8.23-5.25,18.33-12.65,26.23-8.06,8.6-19.35,13.16-33.58,13.55s-25.56-3.55-33.83-11.68c-7-6.93-10.86-15.93-12.93-23.68a16.24,16.24,0,0,1,10.49-19.64c28.13-9.29,56.29-4.87,72.54-.65A13.6,13.6,0,0,1,770.87,273.76Z"/></g><path class="c" d="M779,250.11l-.86-.37c-2.34-1-57.87-24.07-108.81,2.9l-2.18,1.15v.83c-17.28-4.9-30.9-2.66-38.37-.47v-.36l-2.18-1.15c-51-27-106.48-3.89-108.81-2.9l-.86.37c-3.84-.13-19.67-.27-19.67,6.2,0,10.22,12.25,9.77,18.75,8.81,1.38,9.95,5.2,24.33,15.63,35.49,9.64,10.32,22.91,15.77,39.46,16.22l2.12,0c15.58,0,28.29-4.75,37.8-14.13,8.24-8.12,12.67-18.33,15-27.12a15.1,15.1,0,0,1,12.44-11,60.83,60.83,0,0,1,19.71.5A15,15,0,0,1,670,275.9c2.39,8.72,6.81,18.8,15,26.83,9.51,9.38,22.22,14.13,37.79,14.13l2.13,0c16.55-.45,29.82-5.9,39.45-16.22,10.43-11.16,14.26-25.54,15.64-35.49,6.5,1,18.74,1.41,18.74-8.81C798.7,249.84,782.88,250,779,250.11ZM618,273.59c-2.09,7.66-5.89,16.47-12.81,23.27-8.27,8.13-19.64,12.06-33.84,11.68s-25.52-5-33.57-13.55c-7.4-7.9-11-18-12.66-26.23a13.62,13.62,0,0,1,10-15.87c16.1-4.18,43.9-8.56,71.77.4A16.74,16.74,0,0,1,618,273.59Zm152.87-4.83c-1.7,8.23-5.25,18.33-12.65,26.23-8.06,8.6-19.35,13.16-33.58,13.55s-25.56-3.55-33.83-11.68c-7-6.93-10.86-15.93-12.93-23.68a16.24,16.24,0,0,1,10.49-19.64c28.13-9.29,56.29-4.87,72.54-.65A13.6,13.6,0,0,1,770.87,268.76Z"/><path class="d" d="M759.4,258.7c-3.44-.9-7.71-1.86-12.58-2.68a1.36,1.36,0,0,0-.84,2.56c5.19,2.72,9.28,6.67,10.61,13.77a39,39,0,0,1,.08,10.29,1.37,1.37,0,0,0,2.56.8A55.88,55.88,0,0,0,765,267.55,7.61,7.61,0,0,0,759.4,258.7Z"/><path class="d" d="M607,259.7c-3.44-.9-7.71-1.86-12.58-2.68a1.36,1.36,0,0,0-.84,2.56c5.18,2.72,9.27,6.67,10.6,13.77a38.62,38.62,0,0,1,.09,10.29,1.37,1.37,0,0,0,2.56.8,55.88,55.88,0,0,0,5.77-15.89A7.61,7.61,0,0,0,607,259.7Z"/><rect class="e" width="1259.23" height="2194.12"/></svg>