<svg xmlns="http://www.w3.org/2000/svg" width="1259.23" height="2194.12" viewBox="0 0 1259.23 2194.12"><title>3_mouth_1</title><g id="Layer_2" data-name="Layer 2"><g id="Layer_141" data-name="Layer 141"><g id="_3_mouth_1" data-name="3_mouth_1"><path d="M648.35,394.18c-3.13.36-16.4,1.55-29.3-2.09,10.14,16.73,20.13,20.56,28.87,20.77,16.33.4,24.27-13.62,27.05-20.08A84,84,0,0,1,648.35,394.18Z" fill="#461d0b" fill-opacity="0.7"/><path d="M648.35,394.18a84,84,0,0,0,26.62-1.4c7.44-1.73,15-4.94,20.68-10.73a90.3,90.3,0,0,1-21.89,0c-10.62-1.41-21.25-6.16-25.41,2.7-4.16-8.86-14.78-4.11-25.41-2.7a90.24,90.24,0,0,1-21.88,0c5,5.09,11.44,8.19,18,10C632,395.73,645.22,394.54,648.35,394.18Z" fill="#63280e" fill-opacity="0.7"/><rect width="1259.23" height="2194.12" fill="none"/></g></g></g></svg>