<svg xmlns="http://www.w3.org/2000/svg" width="1259.23" height="2194.12" viewBox="0 0 1259.23 2194.12"><defs><style>.a{fill:#162a3b;}.b{fill:#1a3e5c;}.c{fill:#336287;}.d{fill:none;}</style></defs><title>3_girl_hair_9</title><path class="a" d="M516.47,230.26S540.89,119,637.18,125.82c0,0,103.82-30.91,132.82,118l6.35-92.54L731.23,72.65l-56.9-14.59L575,72.65l-49,39.06-19.24,59.45Z"/><path class="b" d="M831.33,181.91s-19.86-138-123.76-154.2A100.7,100.7,0,0,0,666.93,30c-17.77,4.94-36.59,4-54.18-1.56-22.51-7.15-53.94.74-82.77,23.06-119.63,92.61-106.92,406.06,44.68,431.41-35.93-16.81-64.7-55.18-75.44-100.58,10.41,32.5,38.32,55.21,66.7,54.28-36.55-21.91-62.46-68.57-65.78-118.41,5.94,20.76,21.8,36.69,39.52,39.7-12.85-8-21.4-24.18-25.06-41.3s-2.6-35.15-1.22-52.75c7.22-92.41,31.6-142.54,56.84-156.12,32.76-17.64,67,18.06,67,18.06s34.1-35,68.41-21.36c27.31,10.83,54.38,53.91,67.13,159.33,2.13,17.55,2.72,30.64-1.36,47.76s-13.61,33.32-27.93,41.29c19.75-3,37.43-18.94,44.05-39.7-3.7,49.85-32.59,96.5-73.33,118.41,31.64.93,62.76-21.78,74.36-54.27-12,45.39-36,83.76-76.1,100.58,53.7-3.91,84.55-48,106.65-102.14S841.49,240.22,831.33,181.91Z"/><path class="c" d="M536.35,58.06s5.35,23.29,25.47,43.41c0,0-16.94,13.77-21.17,26.47L498.29,99.35S520.41,65.47,536.35,58.06Z"/><path class="c" d="M752.47,57S747.12,80.29,727,100.41c0,0,16.94,13.77,21.17,26.47l42.36-28.59S768.41,64.41,752.47,57Z"/><rect class="d" width="1259.23" height="2194.12"/></svg>