<svg xmlns="http://www.w3.org/2000/svg" width="1259.23" height="2194.12" viewBox="0 0 1259.23 2194.12"><defs><style>.a,.n{fill:none;}.b{fill:#ffd9ff;}.c{fill:#ac3949;}.d{fill:#ff6afa;}.e{fill:#d450d0;}.f{fill:#eda2e6;}.g{fill:#fff;}.h{fill:#f4c458;}.i{fill:#ffee8a;}.j{fill:#8f854d;}.k{fill:#883b71;}.l{fill:#c033ad;}.m{fill:#44392e;}.n{stroke:#8f854d;stroke-linecap:round;stroke-miterlimit:10;}</style></defs><title>3_girl_shirt_cryptokitties</title><rect class="a" width="1259.23" height="2194.12"/><path class="b" d="M819.25,783.35l5.16-33-.75.4.92-27.48c1.6-.26,3.21-.57,4.82-.89,31.68-6.31,64.84-23.31,77.13-31.51-1.11-5.35-2.38-11.43-3.74-18l0-.07c-.21-1-.43-2.05-.64-3.09l-.18-.84c-.22-1-.44-2.1-.66-3.16l-.16-.75q-.74-3.57-1.52-7.27l0-.09h0c-2.7-12.77-5.63-26.43-8.56-39.5l0-.1-.87-3.85-.09-.42c-.29-1.27-.58-2.54-.87-3.79h0C883.93,587,878.85,567,875.32,558.66c-6.75-16-19.93-29.8-40.18-41.15-20.45-11.46-48.1-20.4-83.65-26.51l-39.18-13.65-37.76,36-24.95,1.06-23.76.35-42.71-31.05-28.58,8.35c-18.24,4-64.55,13.9-98,33.81-16.3,9.71-29.53,21.79-35,36.72C396.34,632,392.37,702,392,734.06c15.44,3.87,56.91,12.77,91,6.78,1.46-.26,2.91-.53,4.33-.84,0,0,1.38,15,3.68,26.4l-2.87-.34c1.1,3.27,5.81,17.26,9.65,29.39h0c2.51,7.93,4.65,15.07,5.17,17.9,1.41,7.77,4.94,50.83-2.36,76.24-5.92,20.63-13.17,48.7,11.53,54.35,0,0,157.77,64.94,301.77-13.41,0,0,24.35-9.53,12.7-44.47S819.25,783.35,819.25,783.35Z"/><path class="a" d="M488.2,766.06l2.87.34c-2.3-11.44-3.68-26.4-3.68-26.4-1.42.31-2.87.58-4.33.84a209.27,209.27,0,0,0,14.79,54.61C494,783.32,489.3,769.33,488.2,766.06Z"/><polygon class="c" points="497.85 795.45 497.85 795.45 497.85 795.45 497.85 795.45"/><path class="d" d="M823.66,750.76l.75-.4.14-.89s45.35-6.71,87-38.12c0,0-2-5.79-5-20.47-12.92,8.62-48.88,27-81.95,32.4Z"/><path class="a" d="M485.71,765.65l3.41.41c-.15-.46-.24-.71-.24-.71Z"/><path class="d" d="M488.32,740c-34.87,7.61-79.26-1.91-95.37-5.94-.12,11.45.23,18.06.23,18.06s40,18.14,92.53,13.53h0l3.17-.3s.09.25.24.71l2.87.34C489.69,755,488.32,740,488.32,740Z"/><path class="e" d="M393.18,752.12s40,18.14,92.53,13.53c-1-3.16-1.88-6.36-2.71-9.58C447.47,764.65,393.18,752.12,393.18,752.12Z"/><path class="e" d="M827.61,739.67c-.13,4.15-.15,5.3,0,9.46,9.78-1.71,48.36-10.26,84.82-37.74C892.23,723.1,847.45,736.31,827.61,739.67Z"/><path class="f" d="M501.49,778.13c1.7,4.26,3.91,9.49,6.38,14.63a29.87,29.87,0,0,0,30.71,16.62c42.7-5.44,151.87-17.14,240.29-7.8a29.87,29.87,0,0,0,31.4-19.78c2.56-7.34,4.85-15.33,5.63-22.11a5.18,5.18,0,0,0-7.19-5.4c-28.93,12.62-143.39,55.07-301.17,16.91A5.18,5.18,0,0,0,501.49,778.13Z"/><path class="f" d="M504.88,621.71s-26.73,34.57-28,93.86c-.73,35,9.32,57.47,26.37,94.32h0S487.59,768.25,487,716C486.7,687.36,490.21,651.6,504.88,621.71Z"/><path class="f" d="M796.88,608.65c43.71,88.45,20.3,169.71,23.29,174.7C859.7,682.06,796.88,608.65,796.88,608.65Z"/><path class="d" d="M634.64,514.76H665V597.7a8.88,8.88,0,0,1-8.69,9.06H643.33a8.88,8.88,0,0,1-8.69-9.06Z"/><circle class="g" cx="650.13" cy="542.68" r="11.24"/><circle class="g" cx="649.28" cy="589.51" r="11.24"/><path class="d" d="M599.65,455.12l-.36,13.76c9,14.3,30.31,38.06,51.24,45.53,0,0-29.53,21.54-46,36.92a9.6,9.6,0,0,1-13.48-.35c-12.09-12.59-37-39.88-44.89-59.37a6.94,6.94,0,0,1,3.73-9C561,478,584.22,467.08,599.65,455.12Z"/><path class="d" d="M701.68,452l.35,13.76c-8.94,14.3-30.57,41.17-51.5,48.64,0,0,30.8,18.43,47.23,33.81a9.6,9.6,0,0,0,13.48-.35c12.1-12.59,37-39.88,44.89-59.37a6.94,6.94,0,0,0-3.72-9C741.38,474.84,717.11,464,701.68,452Z"/><path class="e" d="M565.59,495.35c9.35-11.05,22.32-17.77,34.6-25.07-.31-.47-.61-.94-.9-1.4l.36-13.76c-15.43,12-38.7,22.83-49.73,27.46a6.94,6.94,0,0,0-3.73,9c3.78,9.28,11.4,20.33,19.65,30.72C561.31,512.75,559.11,503,565.59,495.35Z"/><path class="e" d="M752.41,479.47c-11-4.63-35.3-15.49-50.73-27.46l.35,13.76c-1.17,1.88-2.57,4-4.16,6.23,14.76,8.53,34.08,14.81,37.72,29.35,1.59,7.33.33,14.86-2.69,22.3,9.57-11.61,18.91-24.54,23.23-35.15A6.94,6.94,0,0,0,752.41,479.47Z"/><path class="b" d="M696.29,625.65h98.59v93.07s-49.41,37.48-97.23,0Z"/><path class="h" d="M718.35,660.58c.61,5.51,3.59,16.18,3.59,16.18l5.85-5.84A52.16,52.16,0,0,0,718.35,660.58Z"/><path class="i" d="M718.58,657.45c-.39.29-.42,1.48-.23,3.13a52.16,52.16,0,0,1,9.44,10.34l5.49-5.49S720.26,656.19,718.58,657.45Z"/><path class="j" d="M719,657.33c2.84,0,14.25,8.1,14.25,8.1l-5.49,5.49-5.85,5.84s-3-10.67-3.59-16.18c-.18-1.65-.16-2.84.23-3.13a.75.75,0,0,1,.45-.12m0-2.44a3.22,3.22,0,0,0-1.92.6c-1.37,1-1.47,2.82-1.19,5.36.63,5.64,3.54,16.13,3.67,16.57l1.12,4,3-3,5.84-5.85,5.5-5.49,2-2-2.36-1.68c-4.5-3.19-12.51-8.54-15.66-8.54Z"/><path class="h" d="M774,660.58c-.62,5.51-3.59,16.18-3.59,16.18l-5.85-5.84A51.86,51.86,0,0,1,774,660.58Z"/><path class="i" d="M773.75,657.45c.38.29.41,1.48.23,3.13a51.86,51.86,0,0,0-9.44,10.34l-5.49-5.49S772.07,656.19,773.75,657.45Z"/><path class="j" d="M773.29,657.33a.78.78,0,0,1,.46.12c.38.29.41,1.48.23,3.13-.62,5.51-3.59,16.18-3.59,16.18l-5.85-5.84-5.49-5.49s11.41-8.1,14.24-8.1m0-2.44h0c-3.14,0-11.16,5.35-15.66,8.54l-2.35,1.68,2,2,5.49,5.49,5.85,5.85,3,3,1.13-4c.12-.44,3-10.93,3.66-16.57.29-2.54.18-4.33-1.19-5.36a3.19,3.19,0,0,0-1.92-.6Z"/><path class="i" d="M772.27,678c-8.33-18-25.85-17.19-26.39-17.13S727.82,660,719.49,678c0,0-7.63,13-11.83,15.12,0,0,9.24,5,13.44,9.24s13.44,10.94,24.78,10.94,20.65-6.81,24.78-10.94,13.44-9.24,13.44-9.24C779.9,691,772.27,678,772.27,678Z"/><path class="j" d="M746.64,660.87c3.52,0,18.21,1.08,25.63,17.15,0,0,7.63,13,11.83,15.12,0,0-9.24,5-13.44,9.24s-13.44,10.94-24.78,10.94-20.66-6.81-24.78-10.94-13.44-9.24-13.44-9.24c4.2-2.1,11.83-15.12,11.83-15.12,7.41-16.07,22.11-17.15,25.63-17.15.43,0,.7,0,.76,0s.32,0,.76,0m0-2.45-.76,0-.76,0a30.86,30.86,0,0,0-27.8,18.47c-3,5.15-8.32,12.85-10.75,14.07l-4.18,2.09,4.1,2.24c.09.05,9,4.92,12.88,8.82,5.64,5.63,15.56,11.65,26.51,11.65s20.87-6,26.5-11.65c3.91-3.91,12.8-8.77,12.88-8.82l4.11-2.24L785.19,691c-2.43-1.22-7.73-8.92-10.76-14.07a30.84,30.84,0,0,0-27.79-18.47Z"/><path class="d" d="M705.79,624.43a10.58,10.58,0,0,0-10.58,10.75l1.23,84.14.46.36c16.44,12.89,33.07,16.88,47.35,16.88A81.83,81.83,0,0,0,764.5,734a94.52,94.52,0,0,0,31.12-14.26l.48-.37V635a10.59,10.59,0,0,0-10.59-10.59Zm-6.93,93.68-1-65.07a7,7,0,0,1,7-7.14h81.69a7,7,0,0,1,7,7v65.15C788.48,721.75,742.78,752.07,698.86,718.11Z"/><path class="k" d="M742,697.82s0,5.92,4.42,5.6,4-5.28,4-5.28-3.87-.43-4.41-3.23C746,694.91,745.33,697.28,742,697.82Z"/><circle class="g" cx="730.18" cy="680.66" r="9.33"/><circle class="l" cx="730.04" cy="678.65" r="6.46"/><circle class="m" cx="730.38" cy="677.08" r="3.95"/><circle class="g" cx="727.27" cy="676.58" r="3.01"/><path class="j" d="M730.18,671.32a9.34,9.34,0,1,1-9.34,9.34,9.33,9.33,0,0,1,9.34-9.34m0-1.22a10.56,10.56,0,1,0,10.56,10.56,10.58,10.58,0,0,0-10.56-10.56Z"/><circle class="g" cx="761.77" cy="680.37" r="9.33"/><circle class="l" cx="761.63" cy="678.36" r="6.46"/><circle class="m" cx="761.97" cy="676.79" r="3.95"/><circle class="g" cx="758.86" cy="676.29" r="3.01"/><path class="j" d="M761.77,671a9.34,9.34,0,1,1-9.33,9.33,9.34,9.34,0,0,1,9.33-9.33m0-1.22a10.56,10.56,0,1,0,10.56,10.55,10.56,10.56,0,0,0-10.56-10.55Z"/><path class="j" d="M744.69,686.69h2.75a1.35,1.35,0,0,1,1.08,2.16l-1.43,1.89a1.35,1.35,0,0,1-2.18,0l-1.32-1.89A1.34,1.34,0,0,1,744.69,686.69Z"/><path class="n" d="M735.31,691.79s-1.07,6,5.82,6.25c6.25.21,4.74-7.44,4.74-7.44"/><path class="n" d="M756.63,691.79s1.08,6-5.81,6.25c-6.25.21-4.74-7.44-4.74-7.44"/><path class="n" d="M742,698.47c.15,1.53.88,5.21,4.38,4.95,4.41-.32,4-5.28,4-5.28"/></svg>
