<svg xmlns="http://www.w3.org/2000/svg" width="1259.23" height="2194.12" viewBox="0 0 1259.23 2194.12"><title>3_girl_shose_3</title><g id="Layer_2" data-name="Layer 2"><g id="Layer_141" data-name="Layer 141"><g id="_3_girl_shose_3" data-name="3_girl_shose_3"><polygon points="148.18 2151.71 158.06 2175.71 174.29 2151.71 148.18 2151.71" fill="#c24b74"/><polygon points="195.47 2156.65 205.35 2180.65 221.59 2156.65 195.47 2156.65" fill="#c24b74"/><polygon points="240.65 2153.12 250.53 2177.12 266.76 2153.12 240.65 2153.12" fill="#c24b74"/><polygon points="289.35 2141.82 299.23 2165.82 309.82 2141.82 289.35 2141.82" fill="#c24b74"/><polygon points="321.12 2110.06 331 2134.06 341.59 2110.06 321.12 2110.06" fill="#c24b74"/><polygon points="361.35 2094.53 371.23 2118.53 381.82 2094.53 361.35 2094.53" fill="#c24b74"/><polygon points="405.12 2083.94 415 2107.94 425.59 2083.94 405.12 2083.94" fill="#c24b74"/><path d="M424,1995.66a269.67,269.67,0,0,0-12.42-24.72c-30.18,18.25-62.9,32.12-99.05,29.81-16.56,19.06-32.46,37.49-48.26,56.41,17.49,18.88,31.16,41.48,35.57,66.35,15.83-16.85,43.26-45.73,46.91-47.26,3.22-4.5,6.61-8.86,9.83-13.32,28.18-3.32,56-10.43,81-23.95C435.21,2023.87,429.52,2008.25,424,1995.66Z" fill="#28264f"/><path d="M262.37,2059.39c-9.18-5.86-20-7.93-28.87-14l-7.68,8.86c-32.47,18.71-60.64,17.42-72,32.18-14.91,19.3-13,40.33-13.23,42.72,13.31,12.71,45.29,29.24,117.38,13.69l30.71-7.41s4.57-4.94,11.16-12c-4.41-24.87-18.08-47.47-35.57-66.35C263.62,2057.9,263,2058.64,262.37,2059.39Z" fill="#333166"/><path d="M312.5,2000.75c-1.63-.1-3.27-.23-4.91-.4-9.6-1.6-19.18-5.12-24.68-12.6-4.82,6-35,41-49.41,57.68,8.83,6,19.69,8.1,28.87,14C278.79,2039.68,295.29,2020.56,312.5,2000.75Z" fill="#333166"/><path d="M141.5,2147.15l-.09-.67Z" fill="#fff"/><path d="M141.38,2146.3c0-.25-.07-.49-.1-.74C141.31,2145.81,141.35,2146.05,141.38,2146.3Z" fill="#fff"/><path d="M141.26,2145.39c0-.26-.07-.53-.1-.8C141.19,2144.86,141.22,2145.13,141.26,2145.39Z" fill="#fff"/><path d="M141.62,2148l-.09-.61Z" fill="#fff"/><path d="M141.88,2149.59c0-.21-.07-.43-.1-.66C141.81,2149.16,141.85,2149.38,141.88,2149.59Z" fill="#fff"/><path d="M141.75,2148.76l-.09-.59Z" fill="#fff"/><path d="M141.14,2144.45c0-.29-.07-.59-.11-.89C141.07,2143.86,141.1,2144.16,141.14,2144.45Z" fill="#fff"/><path d="M292.35,2149.77l-.69.21c-31.62,9.9-58.6,13.19-80.5,13.19a189.94,189.94,0,0,1-39.75-4,142.07,142.07,0,0,1-29.52-9.55c.36,2.15.64,3.49.64,3.49,35.29,31.06,141.17,11.29,152.47,5.64s50.82-52.23,50.82-52.23c25.41,2.82,84.71-16.94,84.71-16.94l3.37-11.81c-34.89,13.81-75.88,15-83.66,15.15Z" fill="#ff85ae"/><path d="M141,2143.49c0-.33-.07-.66-.1-1C141,2142.83,141,2143.16,141,2143.49Z" fill="#fff"/><path d="M141.78,2148.93l0-.17Z" fill="#fff"/><path d="M141.66,2148.17c0-.07,0-.14,0-.21S141.65,2148.1,141.66,2148.17Z" fill="#fff"/><path d="M141.89,2149.63h0v0Z" fill="#fff"/><polygon points="433.9 2077.78 434.7 2074.98 433.9 2077.78 433.9 2077.78" fill="#fff"/><path d="M141.53,2147.35l0-.2Z" fill="#fff"/><path d="M141.28,2145.56l0-.17Z" fill="#fff"/><path d="M141,2143.56v0Z" fill="#fff"/><path d="M141.41,2146.48l0-.18Z" fill="#fff"/><path d="M140.91,2142.48v0Z" fill="#fff"/><path d="M141.16,2144.59l0-.14Z" fill="#fff"/><path d="M437.59,2039c-25.08,13.52-52.86,20.63-81,23.95-3.22,4.45-67.9,72.54-67.9,72.54l-30.71,7.41c-72.09,15.55-104.07-1-117.38-13.69a73.6,73.6,0,0,0,.35,13.29v0c0,.33.07.66.1,1v.07c0,.3.07.6.11.89l0,.14c0,.27.07.54.1.8l0,.17c0,.25.07.49.1.74l0,.18.09.67,0,.2.09.61c0,.07,0,.14,0,.21l.09.59,0,.17c0,.23.07.45.1.66v0a142.07,142.07,0,0,0,29.52,9.55,189.94,189.94,0,0,0,39.75,4c21.9,0,48.88-3.29,80.5-13.19l.69-.21,57.89-56.84c7.78-.11,48.77-1.34,83.66-15.15l.8-2.8,1.48-5.16a49.65,49.65,0,0,0,2.49-13.41A82.57,82.57,0,0,0,437.59,2039Z" fill="#fff"/><path d="M301.92,1978.23a15.85,15.85,0,0,1-4.1-7.23c-3.1,2.48-64.3,69.61-72,83.29l4.34,2C253,2029.24,276.64,2002.9,301.92,1978.23Z" fill="#ff85ae"/><path d="M410.76,1969.59c-4.23-9.88-9.88-14.12-9.88-14.12s-42.42,27.44-79.17,28.39c-23.19,26.29-40.42,57-60.79,85.34a19,19,0,0,0,16.78-7.78l38.48-53c29.58,2,64.59-18.86,95.37-37.47C411.05,1970.06,410.76,1969.59,410.76,1969.59Z" fill="#ff85ae"/><path d="M314.76,1983.71c-6.31-.47-10.32-2.88-12.84-5.48-25.28,24.67-48.88,51-71.76,78.07l24.19,11.2a19.12,19.12,0,0,0,6.57,1.7c20.37-28.39,37.6-59,60.79-85.34C319.37,1983.92,317.05,1983.88,314.76,1983.71Z" fill="#28264f"/><path d="M280.18,2071.65a5,5,0,0,1-4.21-2.3c-17.71-27.54-42.06-32.69-42.31-32.74a5,5,0,0,1-.8-9.57c1.39-.53,30.81-11.54,58.6-2.85-5-14.91-11.92-28.78-16.73-30a5,5,0,0,1,2.42-9.7c7,1.75,13.49,10.22,19.84,25.87a196.26,196.26,0,0,1,7.08,21.12,5,5,0,0,1-7.14,5.71c-15.59-8.08-33.85-6.92-46.2-4.6,9.87,5.16,22.87,14.58,33.65,31.34a5,5,0,0,1-4.2,7.71Z" fill="#2b3990"/><path d="M289.7,2056.82a5,5,0,0,1-1.51-.23c-12.28-3.9-47-11.83-60-1.85a5,5,0,1,1-6.07-7.95c15-11.51,45-6,60.28-2.22-4.89-10.57-16.24-25.3-23.91-33.89a5,5,0,0,1,3.72-8.33h.1l54,1.06a5,5,0,0,1-.19,10l-43-.84c8.34,10.39,20.79,27.63,21.59,38.9a5,5,0,0,1-1.89,4.28A5,5,0,0,1,289.7,2056.82Z" fill="#2b3990"/><polygon points="988.16 2154.54 980.11 2179.22 962.12 2156.51 988.16 2154.54" fill="#c24b74"/><polygon points="941.37 2163.02 933.32 2187.7 915.33 2164.99 941.37 2163.02" fill="#c24b74"/><polygon points="896.06 2162.9 888.01 2187.58 870.02 2164.87 896.06 2162.9" fill="#c24b74"/><polygon points="846.64 2155.3 838.59 2179.98 826.23 2156.84 846.64 2155.3" fill="#c24b74"/><polygon points="812.58 2126.02 804.53 2150.69 792.17 2127.56 812.58 2126.02" fill="#c24b74"/><polygon points="771.29 2113.56 763.24 2138.23 750.88 2115.1 771.29 2113.56" fill="#c24b74"/><polygon points="726.85 2106.29 718.8 2130.97 706.44 2107.83 726.85 2106.29" fill="#c24b74"/><path d="M701.41,2019.68a272.23,272.23,0,0,1,10.53-25.59c31.46,15.93,65.14,27.31,101,22.28,17.95,17.76,35.19,34.94,52.37,52.62-16,20.14-28,43.71-30.49,68.84-17-15.62-46.57-42.35-50.33-43.61-3.54-4.24-7.25-8.33-10.8-12.54-28.35-1.19-56.59-6.19-82.61-17.78C692.33,2048.65,696.83,2032.64,701.41,2019.68Z" fill="#28264f"/><path d="M867.35,2071.07c8.71-6.53,19.38-9.41,27.74-16.09l8.32,8.26c33.78,16.22,61.78,12.81,74.25,26.67,16.32,18.13,16,39.24,16.4,41.61-12.31,13.67-43,32.56-116,22.48l-31.17-5.09s-4.94-4.57-12-11.08c2.53-25.13,14.46-48.7,30.49-68.84Z" fill="#333166"/><path d="M813,2016.37c1.62-.22,3.24-.47,4.87-.77,9.45-2.31,18.73-6.55,23.66-14.42,5.26,5.67,38,38.24,53.61,53.8-8.36,6.68-19,9.56-27.74,16.09C849.5,2052.66,831.6,2034.83,813,2016.37Z" fill="#333166"/><path d="M994.47,2149.5c0-.23,0-.45,0-.68C994.5,2149.05,994.49,2149.27,994.47,2149.5Z" fill="#fff"/><path d="M994.53,2148.64c0-.25,0-.5,0-.75C994.56,2148.14,994.54,2148.39,994.53,2148.64Z" fill="#fff"/><path d="M994.58,2147.72c0-.26,0-.53,0-.8C994.61,2147.19,994.6,2147.46,994.58,2147.72Z" fill="#fff"/><path d="M994.41,2150.32c0-.21,0-.41.05-.62C994.44,2149.91,994.43,2150.11,994.41,2150.32Z" fill="#fff"/><path d="M994.28,2152c0-.21,0-.44.05-.67C994.32,2151.52,994.3,2151.75,994.28,2152Z" fill="#fff"/><path d="M994.35,2151.12c0-.19,0-.39,0-.59C994.38,2150.73,994.37,2150.93,994.35,2151.12Z" fill="#fff"/><path d="M994.63,2146.78c0-.29,0-.59,0-.9C994.66,2146.19,994.65,2146.49,994.63,2146.78Z" fill="#fff"/><path d="M844.25,2163.45l.7.16c32.28,7.5,59.43,8.75,81.27,7.1a189.89,189.89,0,0,0,39.33-7A143,143,0,0,0,994.27,2152c-.19,2.17-.37,3.52-.37,3.52C961,2189.15,854,2177.4,842.28,2172.62s-54.6-48.27-54.6-48.27c-25.13,4.73-85.74-10.52-85.74-10.52l-4.25-11.52c35.83,11.14,76.8,9.29,84.56,8.82Z" fill="#ff85ae"/><path d="M994.67,2145.81c0-.33,0-.66,0-1C994.7,2145.15,994.69,2145.48,994.67,2145.81Z" fill="#fff"/><path d="M994.33,2151.29l0-.17C994.34,2151.18,994.34,2151.24,994.33,2151.29Z" fill="#fff"/><path d="M994.4,2150.53c0-.07,0-.14,0-.21S994.4,2150.46,994.4,2150.53Z" fill="#fff"/><path d="M994.27,2152h0v0Z" fill="#fff"/><polygon points="697.69 2102.31 696.68 2099.58 697.69 2102.31 697.69 2102.31" fill="#fff"/><path d="M994.46,2149.7c0-.07,0-.14,0-.2Z" fill="#fff"/><path d="M994.57,2147.89v0Z" fill="#fff"/><path d="M994.67,2145.88v0Z" fill="#fff"/><path d="M994.52,2148.82c0-.06,0-.12,0-.18Z" fill="#fff"/><path d="M994.71,2144.8h0Z" fill="#fff"/><path d="M994.62,2146.92v0Z" fill="#fff"/><path d="M691.09,2063.9c26,11.59,54.26,16.59,82.61,17.78,3.54,4.21,73.17,67.23,73.17,67.23L878,2154c73.06,10.08,103.71-8.81,116-22.48a73.12,73.12,0,0,1,.65,13.28h0c0,.34,0,.67,0,1v.07c0,.31,0,.61,0,.9v.14c0,.27,0,.54,0,.8v.17c0,.25,0,.5,0,.75,0,.06,0,.12,0,.18,0,.23,0,.45,0,.68,0,.06,0,.13,0,.2s0,.41-.05.62,0,.14,0,.21,0,.4,0,.59l0,.17c0,.23,0,.46-.05.67v0a143,143,0,0,1-28.72,11.75,189.89,189.89,0,0,1-39.33,7c-21.84,1.65-49,.4-81.27-7.1l-.7-.16-62-52.32c-7.76.47-48.73,2.32-84.56-8.82l-1-2.73-1.86-5a49.15,49.15,0,0,1-3.49-13.19A83.08,83.08,0,0,1,691.09,2063.9Z" fill="#fff"/><path d="M821.81,1993.12a15.82,15.82,0,0,0,3.54-7.52c3.28,2.24,69.35,64.58,78.06,77.64l-4.17,2.33C874.38,2040.31,848.87,2015.82,821.81,1993.12Z" fill="#ff85ae"/><path d="M712.62,1992.68c3.48-10.17,8.8-14.82,8.8-14.82s44.36,24.18,81.07,22.36c25.11,24.47,44.6,53.75,67,80.52a19,19,0,0,1-17.32-6.49l-42.35-50c-29.36,4.17-65.83-14-97.92-30.2C712.37,1993.18,712.62,1992.68,712.62,1992.68Z" fill="#ff85ae"/><path d="M809.41,1999.54c6.26-.94,10.08-3.64,12.4-6.42,27.06,22.7,52.57,47.19,77.43,72.45l-23.29,13a19,19,0,0,1-6.42,2.18c-22.44-26.77-41.93-56-67-80.52C804.83,2000.1,807.15,1999.88,809.41,1999.54Z" fill="#28264f"/><path d="M850.51,2084.64a5,5,0,0,0,4-2.61c15.58-28.8,39.48-35.76,39.72-35.83a5,5,0,0,0,.08-9.61c-1.42-.42-31.59-9.18-58.64,1.57,3.83-15.24,9.71-29.6,14.42-31.16a5,5,0,1,0-3.14-9.49c-6.86,2.27-12.69,11.2-17.84,27.29a195.78,195.78,0,0,0-5.47,21.59,5,5,0,0,0,7.55,5.16c14.94-9.24,33.24-9.45,45.72-8.06-9.45,5.88-21.71,16.25-31.2,33.78a5,5,0,0,0,4.77,7.37Z" fill="#2b3990"/><path d="M839.9,2070.57a4.83,4.83,0,0,0,1.49-.35c12-4.81,46-15.32,59.73-6.36a5,5,0,1,0,5.46-8.38c-15.88-10.34-45.38-2.64-60.28,2.32,4.08-10.91,14.3-26.45,21.3-35.59a5,5,0,0,0-4.35-8h-.09l-53.77,5.12a5,5,0,1,0,1,10l42.79-4.07c-7.54,11-18.65,29.12-18.61,40.41a5,5,0,0,0,5.38,5Z" fill="#2b3990"/><rect width="1259.23" height="2194.12" fill="none"/></g></g></g></svg>