<svg xmlns="http://www.w3.org/2000/svg" width="1259.23" height="2194.12" viewBox="0 0 1259.23 2194.12"><defs><style>.a{fill:#fff;}.b{fill:#bfbfbf;}.c{fill:none;}</style></defs><title>3_girl_hair_11</title><path class="a" d="M837,274.76s3.12-112.2-33.67-176.34c-36.47-63.58-99.66-73.83-154.8-53.85-55.16-20.4-126.05-6.42-162.72,57.51-36.79,64.15-33.67,176.35-33.67,176.35s-37.53,20-28.77,74,62.44,54.74,62.44,54.74c23.57,55.8,69.59,39.59,69.59,39.59,25.67,19.09,46.37,4.46,46.37,4.46V433.33C584.86,425.8,549.17,399,549.17,399c22.28-67.78-17-71.39-33.21-99.45s2.39-85.83,2.39-85.83S607.75,225,648,131.06c40.28,94.13,130.83,79,130.83,79s18.62,57.76,2.39,85.82-49.49,23.67-27.2,91.45c0,0-23.88,29.69-52.65,42.36v17.86s20.7,14.64,46.37-4.46c0,0,32,16.22,55.59-39.58,0,0,53.68-.75,62.44-54.75S837,274.76,837,274.76Z"/><path class="b" d="M813.59,382.35c14-25,25-55,11-83-2,33-12,69-45,83-12-15-9-38,0-52,15-25,38-46,30-77-5.36-21.44-13.65-41.12-17.24-62.18-59.25,1.5-121.67-33.53-144.79-88.31-17.66,39.28-50.22,71-91,85.49-17.65,6.14-35.89,6.39-54.27,6.63-.44,3.54-.64,7.1-1.73,10.37-3,14-5,28-7,42-4,35,6,67,31,94,7,7,13,26,6,27-29,4-56-26-55-58-4,24-9,59,17,72-23-6-47-19-54-43-4.08-14-6.45-29-4.77-43.18-8,11.78-14.67,30-10.41,56.24,8.77,54,62.44,54.74,62.44,54.74,23.57,55.8,69.59,39.59,69.59,39.59,25.67,19.09,46.37,4.46,46.37,4.46V433.33C584.86,425.8,549.17,399,549.17,399c22.28-67.78-17-71.39-33.21-99.45s2.39-85.83,2.39-85.83S607.75,225,648,131.06c40.28,94.13,130.83,79,130.83,79s18.62,57.76,2.39,85.82-49.49,23.67-27.2,91.45c0,0-23.88,29.69-52.65,42.36v17.86s20.7,14.64,46.37-4.46c0,0,32,16.22,55.59-39.58,0,0,48-.68,60.62-46.41C853,372.76,836.16,383.24,813.59,382.35ZM566.83,433.47a57.83,57.83,0,0,1-50.24-15.12c-7.5-6.66-10.13-16.79-10.23-26.92C520.19,411.87,542.5,427.34,566.83,433.47Zm189.76-2.12c-7.78,2.12-16.54,2.24-23.49-1.75,16.43-1.06,31.3-10.83,44.26-21.93C775.74,419.1,767.6,428.81,756.59,431.35Z"/><path class="b" d="M646.47,58.46c-15.29-12.4-34.38-3.9-45.23,3.18C617.68,57.12,636.61,64,646.31,78A45.27,45.27,0,0,1,688,59.51C679.51,55.86,659.16,41.14,646.47,58.46Z"/><rect class="c" width="1259.23" height="2194.12"/></svg>