<svg xmlns="http://www.w3.org/2000/svg" width="1259.23" height="2194.12" viewBox="0 0 1259.23 2194.12"><title>3_girl_shrit_5</title><g id="Layer_2" data-name="Layer 2"><g id="Layer_141" data-name="Layer 141"><g id="_3_girl_shrit_5" data-name="3_girl_shrit_5"><path d="M488.2,766.06l2.87.34c-2.3-11.44-3.68-26.4-3.68-26.4-1.42.31-2.87.58-4.33.84a209.27,209.27,0,0,0,14.79,54.61C494,783.32,489.3,769.33,488.2,766.06Z" fill="none"/><path d="M819.25,783.35l5.16-33-.75.4.92-27.48c1.6-.26,3.21-.57,4.82-.89a223.27,223.27,0,0,0-32.52-113.74c3.47-33.28,14-54,31.42-80.77a11.13,11.13,0,0,0-4.62-16.18c-19-8.7-42.89-15.66-72.19-20.7l-39.18-13.65-37.76,36-24.95,1.06-23.76.35-42.71-31.05-28.58,8.35c-16.17,3.54-54.4,11.72-86.16,27.41A11.19,11.19,0,0,0,464.2,536c17,24,27.32,49.76,40.68,85.71,0,0-30.72,49.47-21.82,119.13,1.46-.26,2.91-.53,4.33-.84,0,0,1.38,15,3.68,26.4l-2.87-.34c1.1,3.27,5.81,17.26,9.65,29.39h0c2.51,7.93,4.65,15.07,5.17,17.9,1.41,7.77,4.94,50.83-2.36,76.24-5.92,20.63-13.17,48.7,11.53,54.35,0,0,157.77,64.94,301.77-13.41,0,0,24.35-9.53,12.7-44.47S819.25,783.35,819.25,783.35Z" fill="#42c7aa"/><polygon points="497.85 795.45 497.85 795.45 497.85 795.45 497.85 795.45" fill="#ac3949"/><path d="M485.71,765.65l3.41.41c-.15-.46-.24-.71-.24-.71Z" fill="none"/><path d="M501.49,778.13c1.7,4.26,3.91,9.49,6.38,14.63a29.87,29.87,0,0,0,30.71,16.62c42.7-5.44,151.87-17.14,240.29-7.8a29.87,29.87,0,0,0,31.4-19.78c2.56-7.34,4.85-15.33,5.63-22.11a5.18,5.18,0,0,0-7.19-5.4c-28.93,12.62-143.39,55.07-301.17,16.91A5.18,5.18,0,0,0,501.49,778.13Z" fill="#2ab396"/><path d="M504.88,621.71s-26.73,34.57-28,93.86c-.73,35,9.32,57.47,26.37,94.32h0S487.59,768.25,487,716C486.7,687.36,490.21,651.6,504.88,621.71Z" fill="#23967e"/><path d="M796.88,608.65c43.71,88.45,20.3,169.71,23.29,174.7C859.7,682.06,796.88,608.65,796.88,608.65Z" fill="#23967e"/><path d="M634.64,514.76H665V597.7a8.88,8.88,0,0,1-8.69,9.06H643.33a8.88,8.88,0,0,1-8.69-9.06Z" fill="#878787"/><circle cx="650.13" cy="542.68" r="11.24" fill="#fff"/><circle cx="649.28" cy="583.51" r="11.24" fill="#fff"/><path d="M599.65,455.12l-.36,13.76c9,14.3,30.31,38.06,51.24,45.53,0,0-29.53,21.54-46,36.92a9.6,9.6,0,0,1-13.48-.35c-12.09-12.59-37-39.88-44.89-59.37a6.94,6.94,0,0,1,3.73-9C561,478,584.22,467.08,599.65,455.12Z" fill="#fff"/><path d="M701.68,452l.35,13.76c-8.94,14.3-30.57,41.17-51.5,48.64,0,0,30.8,18.43,47.23,33.81a9.6,9.6,0,0,0,13.48-.35c12.1-12.59,37-39.88,44.89-59.37a6.94,6.94,0,0,0-3.72-9C741.38,474.84,717.11,464,701.68,452Z" fill="#fff"/><path d="M565.59,495.35c9.35-11.05,22.32-17.77,34.6-25.07-.31-.47-.61-.94-.9-1.4l.36-13.76c-15.43,12-38.7,22.83-49.73,27.46a6.94,6.94,0,0,0-3.73,9c3.78,9.28,11.4,20.33,19.65,30.72C561.31,512.75,559.11,503,565.59,495.35Z" fill="#adadad"/><path d="M752.41,479.47c-11-4.63-35.3-15.49-50.73-27.46l.35,13.76c-1.17,1.88-2.57,4-4.16,6.23,14.76,8.53,34.08,14.81,37.72,29.35,1.59,7.33.33,14.86-2.69,22.3,9.57-11.61,18.91-24.54,23.23-35.15A6.94,6.94,0,0,0,752.41,479.47Z" fill="#adadad"/><path d="M633.38,661.46l-30.53-1.67h-.22a4,4,0,0,0-2.12,7.39c11.7,7.29,7.35,18.33-1.35,37.22-2.07,4.51-4.19,9.1-6,13.79-4.23-13.56-7-25.53-9.07-34.81-1.47-6.43-2.63-11.52-3.83-15.17-.87-2.64-2.67-8.13-7.48-8.13-6.49,0-10.26,8.55-27.34,53.55-1.11-4.07-2.42-8.17-3.71-12.2-6.23-19.46-9.31-31.7.48-37.64a4,4,0,0,0-1.86-7.41l-32.92-1.8h-.22a4,4,0,0,0-3.23,6.35c12.09,16.59,18.12,39.69,22.53,56.56a185.12,185.12,0,0,0,5.2,17.77c1.08,2.81,3.61,9.4,9.21,9.4,4.63,0,8.45-4.22,13.65-15,3.47-7.22,7.62-17.58,12.84-32.11,4.89,18.69,8.43,31.11,11.23,39.43,4.4,13.08,7.39,17.5,11.85,17.5s6.63-5.28,7.51-7.53c1.29-3.33,2.58-7.91,4.08-13.21,5.36-19,13.45-47.72,33.15-61.22A4,4,0,0,0,637,669.4l.2-3.73a4,4,0,0,0-1-2.89A4,4,0,0,0,633.38,661.46Z" fill="#fff"/><path d="M688.5,664.26a4,4,0,0,0-1.29-7.78H653.63a7.17,7.17,0,0,0-1.31-.12h0a7.61,7.61,0,0,0-1.89.25,4,4,0,0,0,1,7.87h1c1,.76,3.61,4.44,5.76,14.68a138.48,138.48,0,0,1,2.52,31.62c-.6,18.06-4.7,30.88-10.45,32.65a4,4,0,0,0,1.18,7.82h36a4,4,0,0,0-.23-8h-.3c-.52-.16-2.66-2-4.89-8.71a102.07,102.07,0,0,1-4.18-23.09C676,687.12,680.45,667.31,688.5,664.26Z" fill="#fff"/><path d="M798.62,709c-2.3-10.77-4.91-23-6.11-33.65-1.66-14.91.32-19.89,1.65-21.54a2.88,2.88,0,0,1,2.5-1.11,3.85,3.85,0,0,1,.48,0h.3a4,4,0,0,0,3.95-4.62l-.58-3.7a4,4,0,0,0-3.95-3.38,4.44,4.44,0,0,0-.62.05l-32.58,5.12a4,4,0,0,0-2.61,6.3c2.87,4,6,5.81,9.71,5.81a18.27,18.27,0,0,0,2.32-.18,9,9,0,0,1,1.07-.11h0c.37.33,1.9,2.16,4,11.1,1.81,7.73,3.77,19.57,6,36-3.21-2.89-7-6.59-11-10.39-18.25-17.6-43.25-41.72-61.49-41.72a17.61,17.61,0,0,0-10.86,3.51,4,4,0,0,0,1.74,7.14c6.68,1.13,13.3,10.83,17.28,25.31,6,21.88,4.24,46.21-3.89,53.13a4,4,0,0,0,2.59,7.05,4.46,4.46,0,0,0,.63-.05l32-5A4,4,0,0,0,754,738c-2.64-4.18-5.66-6.12-9.49-6.12-.59,0-1.11,0-1.58.08s-.64,0-.87,0h-.19c-.3-.22-1.9-1.8-4.11-11-1.91-7.91-4-20-6.21-36.83,3,2.75,6.57,6.12,10.1,9.44,9.41,8.84,21.12,19.85,31.27,28.61,17.26,14.91,21.68,16.16,24.46,16.16a5.21,5.21,0,0,0,4.59-2.49,3.91,3.91,0,0,0,.51-1.34C803.17,730.67,801.63,723.13,798.62,709Z" fill="#fff"/><path d="M522.27,604.56c-13.44-30.53-23.82-62.15-37.84-92.21Q479,514.54,473.59,517c15.42,30.31,26.15,61.8,39.17,92.86C516.15,608.58,518.73,605.51,522.27,604.56Z" fill="#fff"/><path d="M786.56,594.81c7.71-30.62,21.71-55.5,41.14-79.94a10.94,10.94,0,0,0-4-3.17Q820,510,816,508.37c-17.91,24.65-26.08,52.62-36.52,81C782,591.09,784.07,593.31,786.56,594.81Z" fill="#fff"/><rect width="1259.23" height="2194.12" fill="none"/></g></g></g></svg>