<svg xmlns="http://www.w3.org/2000/svg" width="1259.23" height="2194.12" viewBox="0 0 1259.23 2194.12"><defs><style>.a{fill:#be1e2d;}.b{fill:#78131c;}.c{fill:#e34957;}.d{fill:none;}</style></defs><title>3_girl_hair_3</title><path class="a" d="M487.36,331.94a74.87,74.87,0,0,1-15.6-29.11l-.59-.5c.32,26.28.59,52.93-6.1,78.33-6.35,24.13-19.88,47.38-40.93,60.53C471.27,430.26,486.45,379.69,487.36,331.94Z"/><path class="a" d="M536.94,384.9c-3.09-3.59-5.78-7-8.12-10.25a72.47,72.47,0,0,1-6.83-12c-3.61,13.88-10.19,31.88-14.4,43.75a23.79,23.79,0,0,1-1.3,3.09,130.31,130.31,0,0,1-30.35,64.21C504.81,455.62,526.9,418.85,536.94,384.9Z"/><path class="b" d="M522,362.6c-1.62-3.52-3.14-7.31-4.54-11.31-11.41-2.68-21.88-9.88-30.09-19.35-.91,47.75-16.09,98.32-63.22,109.25-1.12.7-2.25,1.38-3.41,2,32.26,2.57,65.4-11.47,86-36.44-.12.89-.28,1.78-.43,2.67a23.79,23.79,0,0,0,1.3-3.09C511.8,394.48,518.38,376.48,522,362.6Z"/><path class="b" d="M536.94,384.9c-10,34-32.13,70.72-61,88.75-.08.09-.15.19-.24.28a175.14,175.14,0,0,0,79.72-46.51,124.08,124.08,0,0,0,6.33,55l34.67-51.82C568.06,416,549.27,399.23,536.94,384.9Z"/><path class="a" d="M808.31,331.94a74.61,74.61,0,0,0,15.6-29.11l.6-.5c-.32,26.28-.6,52.93,6.09,78.33,6.36,24.13,19.89,47.38,40.93,60.53C824.41,430.26,809.22,379.69,808.31,331.94Z"/><path class="a" d="M758.74,384.9c3.09-3.59,5.78-7,8.11-10.25a71.77,71.77,0,0,0,6.83-12c3.62,13.88,10.19,31.88,14.41,43.75a23.79,23.79,0,0,0,1.3,3.09,130.21,130.21,0,0,0,30.34,64.21C790.87,455.62,768.77,418.85,758.74,384.9Z"/><path class="b" d="M773.68,362.6c1.62-3.52,3.14-7.31,4.55-11.31,11.41-2.68,21.87-9.88,30.08-19.35.91,47.75,16.1,98.32,63.22,109.25,1.12.7,2.26,1.38,3.42,2-32.26,2.57-65.41-11.47-86-36.44.13.89.29,1.78.44,2.67a23.79,23.79,0,0,1-1.3-3.09C783.87,394.48,777.3,376.48,773.68,362.6Z"/><path class="b" d="M763.55,371.76c10,33.95,27.32,83.86,56.18,101.89l.24.28a175.05,175.05,0,0,1-79.71-46.51,124.37,124.37,0,0,1-6.33,55l-34.68-51.82C727.62,416,754.27,392.69,763.55,371.76Z"/><path class="b" d="M791.41,219.35c-7.94-90.7-39-110.47-39-110.47,24,26.83,26.82,93.18,26.82,93.18-124.23-63.53-262.58-9.88-262.58-9.88-7.06-24,24-87.53,24-87.53-132.71,183.53,31.76,355.76,31.76,355.76-47.29-59.29-77.86-166.59-71.29-238.59,83.29-50.82,210.35-53.64,282.35-1.41-5.39,95.24-18.55,171.7-70.59,238.59C791.23,372.88,797.23,285.81,791.41,219.35Z"/><path class="a" d="M828.65,193.59c-14.12-90.35-93.18-172.24-203.3-167.3C507.56,31.58,423.47,156.88,451.7,301.59c18.91,96.87,102.63,148.21,120.71,158.82,0,0-164.47-172.23-31.76-355.76,0,0-31.06,63.53-24,87.53,0,0,138.35-53.65,262.58,9.88,0,0-2.82-66.35-26.82-93.18,0,0,31.06,19.77,39,110.47,5.82,66.46-.18,153.53-78.53,239.65C828.65,401.12,843.75,290.24,828.65,193.59Z"/><path class="b" d="M563.23,186.53s7.06-55.06,21.18-79.06c0,0-4.23,60.71-2.82,76.24Z"/><polygon class="b" points="643.7 176.65 652.17 111.71 657.82 178.06 643.7 176.65"/><path class="b" d="M717.12,185.12s0-43.77-7.06-63.53c0,0,19.76,35.29,21.17,70.59Z"/><path class="c" d="M525.12,76.41s9.88-12.7,29.64-24c0,0,22.59,31.06,59.3,39.53C614.06,91.94,578.76,107.47,525.12,76.41Z"/><path class="c" d="M746.76,76.41s-9.88-12.7-29.64-24c0,0-22.59,31.06-59.3,39.53C657.82,91.94,693.12,107.47,746.76,76.41Z"/><rect class="d" width="1259.23" height="2194.12"/></svg>