<svg xmlns="http://www.w3.org/2000/svg" width="1259.23" height="2194.12" viewBox="0 0 1259.23 2194.12"><title>3_girl_shose_2</title><g id="Layer_2" data-name="Layer 2"><g id="Layer_141" data-name="Layer 141"><g id="_3_girl_shose_2" data-name="3_girl_shose_2"><polygon points="148.18 2151.71 158.06 2175.71 174.29 2151.71 148.18 2151.71"/><polygon points="195.47 2156.65 205.35 2180.65 221.59 2156.65 195.47 2156.65"/><polygon points="240.65 2153.12 250.53 2177.12 266.76 2153.12 240.65 2153.12"/><polygon points="289.35 2141.82 299.23 2165.82 309.82 2141.82 289.35 2141.82"/><polygon points="321.12 2110.06 331 2134.06 341.59 2110.06 321.12 2110.06"/><polygon points="361.35 2094.53 371.23 2118.53 381.82 2094.53 361.35 2094.53"/><polygon points="405.12 2083.94 415 2107.94 425.59 2083.94 405.12 2083.94"/><path d="M226.62,2074.35l-.44.77s-69.89,23.29-82.24,44.12a23,23,0,0,0-3.38,10c13.31,12.71,45.29,29.24,117.38,13.69l30.71-7.41,3.21-3.46C277.26,2105.61,255.35,2083.5,226.62,2074.35Z" fill="#8f8f8f"/><path d="M282.91,1987.75c-21.42,26.86-52.26,79.66-56.29,86.6q4.11,1.32,8,3c18.55-27.74,36.45-55.59,54.27-83.83A25.15,25.15,0,0,1,282.91,1987.75Z" fill="#ebebeb"/><path d="M319.12,2001c-3.81,0-7.65-.24-11.53-.65-6.69-1.11-13.36-3.17-18.66-6.84-17.82,28.24-35.72,56.09-54.27,83.83a102.17,102.17,0,0,1,24.83,15A857.34,857.34,0,0,0,319.12,2001Z" fill="#636363"/><path d="M424,1995.66a269.67,269.67,0,0,0-12.42-24.72c-28.33,17.13-58.89,30.41-92.43,30.06a857.34,857.34,0,0,1-59.63,91.36c13.15,10.7,24,24.46,32.37,39.65,11.68-12.53,51.41-54.93,55-55.83h0l.06-.38c3.12-20.08,18.78-23.27,38.4-28.56,16.49-4.45,35.78-23.76,46.83-30.24C429.71,2009.4,426.82,2002.13,424,1995.66Z" fill="#ebebeb"/><path d="M432.18,2017c-20,17.53-65.59,22.35-65.59,22.35-2.68,0-17.81,24.41-19.7,36.83h0c-4.23,1.06-58.23,59.29-58.23,59.29l-30.71,7.41c-72.09,15.55-104.07-1-117.38-13.69-.88,10.37,2,23.93,2,23.93,35.29,31.06,141.17,11.29,152.47,5.64s50.82-52.23,50.82-52.23c25.41,2.82,84.71-16.94,84.71-16.94l5.65-19.77a49.65,49.65,0,0,0,2.49-13.41C439.36,2044,436.4,2030,432.18,2017Z"/><path d="M411.55,1970.94c-.5-.88-.79-1.35-.79-1.35-4.23-9.88-9.88-14.12-9.88-14.12s-48,31.06-86.12,28.24c-14.7-1.09-16.94-12.71-16.94-12.71-3.1,2.48-8.45,8.64-14.91,16.75,3.28,4.45,8,7.5,13.32,9.58-10.64,15.38-39.06,56.69-46.76,70.38l11.65,5.29,49.23-72.4C347.35,2003.62,380.77,1989.55,411.55,1970.94Z" fill="#8f8f8f"/><path d="M253.77,2048.29a113.53,113.53,0,0,1,27.12,10.39,5,5,0,0,1,1.84,7.05h0a5,5,0,0,1-6.67,1.73c-9.26-5.07-16.58-7.28-24.75-9.49a5,5,0,0,1-2.7-7.82h0A5,5,0,0,1,253.77,2048.29Z"/><path d="M269.3,2024.76a113.53,113.53,0,0,1,27.12,10.39,5,5,0,0,1,1.84,7h0a5,5,0,0,1-6.67,1.73c-9.26-5.07-16.58-7.28-24.75-9.49a5,5,0,0,1-2.7-7.82h0A5,5,0,0,1,269.3,2024.76Z"/><path d="M286.71,2000.76a113.53,113.53,0,0,1,27.12,10.39,5,5,0,0,1,1.84,7h0a5,5,0,0,1-6.67,1.73c-9.26-5.07-16.58-7.28-24.75-9.49a5,5,0,0,1-2.7-7.82h0A5,5,0,0,1,286.71,2000.76Z"/><path d="M378.37,2062.34c21.53-.64,41.48-8.72,59.84-18.88-.29-2.55-.68-5.13-1.16-7.71a162.55,162.55,0,0,1-58.34,18.05C378.65,2056.64,378.54,2059.48,378.37,2062.34Z" fill="#636363"/><path d="M376.72,2085.91c20.91-2.16,41.29-9.16,60.2-18.52a50.58,50.58,0,0,0,1.65-9.63c-18.81,10-40.14,15.36-61.11,17.28C377.18,2078.67,376.92,2082.3,376.72,2085.91Z" fill="#636363"/><polygon points="985.56 2150.3 977.34 2174.92 959.5 2152.09 985.56 2150.3"/><polygon points="938.71 2158.47 930.5 2183.09 912.66 2160.25 938.71 2158.47"/><polygon points="893.4 2158.04 885.19 2182.66 867.35 2159.83 893.4 2158.04"/><polygon points="844.04 2150.11 835.82 2174.73 823.61 2151.51 844.04 2150.11"/><polygon points="810.17 2120.59 801.96 2145.21 789.75 2121.99 810.17 2120.59"/><polygon points="768.97 2107.85 760.75 2132.47 748.54 2109.26 768.97 2107.85"/><polygon points="724.58 2100.29 716.36 2124.91 704.16 2101.69 724.58 2100.29"/><path d="M902,2078.49l.5.74s71.31,18.45,85.06,38.38a23,23,0,0,1,4.05,9.7c-12.4,13.6-43.18,32.28-116.16,21.7l-31.14-5.29-3.45-3.23C853.62,2113.15,874,2089.6,902,2078.49Z" fill="#8f8f8f"/><path d="M839.91,1996c23.21,25.33,57.6,75.9,62.09,82.54-2.68,1.07-5.27,2.26-7.81,3.54-20.41-26.41-40.18-53-59.89-79.92A25.14,25.14,0,0,0,839.91,1996Z" fill="#ebebeb"/><path d="M804.69,2011.65c3.8-.3,7.62-.76,11.47-1.43,6.59-1.57,13.11-4.08,18.14-8.11,19.71,27,39.48,53.51,59.89,79.92a102,102,0,0,0-23.75,16.69A857.55,857.55,0,0,1,804.69,2011.65Z" fill="#636363"/><path d="M699.72,2013.5a271.93,271.93,0,0,1,10.7-25.51c29.43,15.15,60.84,26.3,94.27,23.66a857.55,857.55,0,0,0,65.75,87.07c-12.38,11.57-22.24,26-29.58,41.77-12.51-11.7-55.05-51.29-58.71-51.94h0c0-.12,0-.24-.08-.36-4.48-19.83-20.33-21.94-40.27-25.88-16.75-3.31-37.31-21.25-48.78-27C694.94,2027.61,697.32,2020.15,699.72,2013.5Z" fill="#ebebeb"/><path d="M693,2035.35c21.15,16.12,67,17.81,67,17.81,2.68-.18,19.44,23.13,22.17,35.39h0c4.29.77,62.16,55.17,62.16,55.17l31.14,5.29c73,10.58,103.76-8.1,116.16-21.7,1.59,10.29-.32,24-.32,24-33.09,33.4-140.07,20.93-151.73,16.07s-54.28-48.63-54.28-48.63c-25.16,4.56-85.67-11.1-85.67-11.1l-7-19.33a49.31,49.31,0,0,1-3.41-13.21C687.68,2062.73,689.68,2048.62,693,2035.35Z"/><path d="M710.42,1988c.44-.91.69-1.4.69-1.4,3.55-10.15,8.9-14.76,8.9-14.76s50,27.7,87.85,22.27c14.59-2.09,16-13.84,16-13.84,3.26,2.27,9,8,16,15.69-3,4.67-7.47,8-12.63,10.47,11.67,14.61,42.85,53.88,51.47,67l-11.26,6.08-54.07-68.86C776.71,2016.19,742.4,2004.45,710.42,1988Z" fill="#8f8f8f"/><path d="M873.13,2054.35a114,114,0,0,0-26.35,12.22,5,5,0,0,0-1.35,7.17h0a5,5,0,0,0,6.78,1.26c8.89-5.69,16-8.4,24-11.15a5,5,0,0,0,2.16-8h0A5,5,0,0,0,873.13,2054.35Z"/><path d="M856,2031.94a114,114,0,0,0-26.34,12.22,5,5,0,0,0-1.36,7.17h0a5,5,0,0,0,6.78,1.26c8.89-5.69,16-8.4,24-11.16a5,5,0,0,0,2.15-8h0A5,5,0,0,0,856,2031.94Z"/><path d="M837,2009.19a114,114,0,0,0-26.35,12.22,5,5,0,0,0-1.35,7.17h0a5,5,0,0,0,6.78,1.26c8.89-5.69,16-8.4,24-11.16a5,5,0,0,0,2.16-8h0A5,5,0,0,0,837,2009.19Z"/><path d="M749.79,2076.9c-21.53.84-42-5.85-61-14.73.11-2.57.33-5.17.63-7.78a162.38,162.38,0,0,0,59.44,14Q749.24,2072.65,749.79,2076.9Z" fill="#636363"/><path d="M753,2100.31c-21-.73-41.81-6.31-61.32-14.36a50.43,50.43,0,0,1-2.31-9.49c19.45,8.7,41.1,12.57,62.15,13.05C752.09,2093.11,752.6,2096.71,753,2100.31Z" fill="#636363"/><rect width="1259.23" height="2194.12" fill="none"/></g></g></g></svg>