<svg xmlns="http://www.w3.org/2000/svg" width="1259.23" height="2194.12" viewBox="0 0 1259.23 2194.12"><title>3_girl_shrit_1</title><g id="Layer_2" data-name="Layer 2"><g id="Layer_141" data-name="Layer 141"><g id="_3_girl_shrit_1" data-name="3_girl_shrit_1"><path d="M752.41,491c70.76,12.17,110.26,35.53,123.83,67.66,10.82,25.63,36.23,152.69,36.23,152.69-41.65,31.41-87,38.12-87,38.12l-5.3,33.88s-4.23,67.77,7.42,102.71-12.71,44.47-12.71,44.47c-144,78.35-301.76,13.41-301.76,13.41-24.71-5.65-17.46-33.72-11.53-54.35,7.29-25.41,3.76-68.47,2.35-76.24s-15.06-48-15.06-48c-54.12,5.65-95.7-13.23-95.7-13.23s-4.95-95.3,29.35-189.53C439.11,517,528.34,498,555.47,492.06l28.59-8.35,42.7,31.05,23.77-.35,24.94-1.06,37.76-36Z" fill="#ac3949"/><path d="M501.49,778.13c1.7,4.26,3.91,9.49,6.38,14.63a29.87,29.87,0,0,0,30.71,16.62c42.7-5.44,151.87-17.14,240.29-7.8a29.87,29.87,0,0,0,31.4-19.78c2.56-7.34,4.85-15.33,5.63-22.11a5.18,5.18,0,0,0-7.19-5.4c-28.93,12.62-143.39,55.07-301.17,16.91A5.18,5.18,0,0,0,501.49,778.13Z" fill="#90323f"/><path d="M504.88,621.71s-26.73,34.57-28,93.86c-.73,35,9.32,57.47,26.37,94.32h0S487.59,768.25,487,716C486.7,687.36,490.21,651.6,504.88,621.71Z" fill="#70252f"/><path d="M796.88,608.65c47.29,83.29,20.3,169.71,23.29,174.7C859.7,682.06,796.88,608.65,796.88,608.65Z" fill="#70252f"/><path d="M661.35,513.35l-19.06,2.12,10.43,271c5-.17,10-.42,14.87-.72Z" fill="#fff"/><path d="M667.59,785.76c-4.86.3-9.82.55-14.87.72l.16,4.28-.21,8.61q7.49-.35,15.12-.62l-.09-8Z" fill="#b0b0b0"/><path d="M652.67,799.37l-4.13,169.77c6.91.12,14,.07,21.17-.19l-1.92-170.2Q660.16,799,652.67,799.37Z" fill="#fff"/><path d="M599.65,455.12l-.36,13.76c9,14.3,30.31,38.06,51.24,45.53,0,0-29.53,21.54-46,36.92a9.6,9.6,0,0,1-13.48-.35c-12.09-12.59-37-39.88-44.89-59.37a6.94,6.94,0,0,1,3.73-9C561,478,584.22,467.08,599.65,455.12Z" fill="#fff"/><path d="M701.68,452l.35,13.76c-8.94,14.3-30.57,41.17-51.5,48.64,0,0,30.8,18.43,47.23,33.81a9.6,9.6,0,0,0,13.48-.35c12.1-12.59,37-39.88,44.89-59.37a6.94,6.94,0,0,0-3.72-9C741.38,474.84,717.11,464,701.68,452Z" fill="#fff"/><path d="M565.59,495.35c9.35-11.05,22.32-17.77,34.6-25.07-.31-.47-.61-.94-.9-1.4l.36-13.76c-15.43,12-38.7,22.83-49.73,27.46a6.94,6.94,0,0,0-3.73,9c3.78,9.28,11.4,20.33,19.65,30.72C561.31,512.75,559.11,503,565.59,495.35Z" fill="#bbb3a5"/><path d="M752.41,479.47c-11-4.63-35.3-15.49-50.73-27.46l.35,13.76c-1.17,1.88-2.57,4-4.16,6.23,14.76,8.53,34.08,14.81,37.72,29.35,1.59,7.33.33,14.86-2.69,22.3,9.57-11.61,18.91-24.54,23.23-35.15A6.94,6.94,0,0,0,752.41,479.47Z" fill="#bbb3a5"/><path d="M393.18,752.12s40,18.14,92.53,13.53c-1-3.16-1.88-6.36-2.71-9.58C447.47,764.65,393.18,752.12,393.18,752.12Z" fill="#70252f"/><path d="M827.61,739.67c-.13,4.15-.15,5.3,0,9.46,9.78-1.71,48.36-10.26,84.82-37.74C892.23,723.1,847.45,736.31,827.61,739.67Z" fill="#70252f"/><path d="M898.29,644.08c-16.46,11-34.89,18.69-53.71,25,.92,4.27,1.85,8.55,2.83,12.83,18.91-5.4,36.75-14.5,53.84-24.34C900.29,653.2,899.3,648.67,898.29,644.08Z" fill="#fff"/><path d="M903.81,669.59c-16.49,10-35.22,16.72-53.7,23.6,1.22,4.76,2.53,9.49,4,14.15a290.9,290.9,0,0,0,52.5-24.54C905.74,678.69,904.8,674.25,903.81,669.59Z" fill="#fff"/><rect width="1259.23" height="2194.12" fill="none"/></g></g></g></svg>