<svg xmlns="http://www.w3.org/2000/svg" width="1259.23" height="2194.12" viewBox="0 0 1259.23 2194.12"><title>3_girl_pant_10</title><g style="isolation:isolate"><g id="Layer_2" data-name="Layer 2"><g id="Layer_141" data-name="Layer 141"><g id="_3_girl_pant_10" data-name="3_girl_pant_10"><path d="M693.35,978.64c3.32,17.07,7.47,34.2,11.24,52.22C702,1012.56,696.67,995.71,693.35,978.64Z" fill="none"/><path d="M962.06,1453.59c-5.81-112.28-48-375.78-121.63-480.29l-43.76,1.59c23.73,60.41,80.46,230.13,87.74,487C888,1460.48,925,1463.12,962.06,1453.59Z" fill="#1da2b3"/><path d="M794.08,975l-52.23,1.9c8.49,49.36,20.67,97.85,25.74,148.47,11,121.07,31.15,240,41.5,359.91,24.85,3.27,56.31,3.28,81-6.26-7.27-256.86-69.66-443.7-93.39-504.11Z" fill="#3bd2e3"/><path d="M741.85,976.88l-43.49,1.58c-2.35,173.92,12.93,347.32,27.69,520.61,23.18,4.28,62.51,9.74,89.89,3.22-10.35-119.92-37.35-255.87-48.35-376.94C762.52,1074.73,750.34,1026.24,741.85,976.88Z" fill="#1da2b3"/><path d="M698.36,978.46l-5,.18-41.24,1.5c-24.7,120.25-28.89,243.12-31.52,365.21-1.35,51.91,1.84,103.81,3.76,155.71,27.47,6.53,73.08,19.36,106.88,16.06C716.48,1343.82,696,1152.38,698.36,978.46Z" fill="#3bd2e3"/><path d="M620.59,1345.35c2.63-122.09,6.82-245,31.52-365.21l-49.44,1.8c-51.09,164-66.78,336.52-68.57,508.05,22.43,9.13,67.28,27.53,97.6,29.25C629.78,1467.33,619.24,1397.26,620.59,1345.35Z" fill="#1da2b3"/><path d="M547,984a121.55,121.55,0,0,0-8.39,16.39c-58.52,149.89-86.83,308.78-88.55,468.42,27.45,8.72,62.1,34.49,90.61,39.88,1.79-171.54,10.93-362.68,62-526.71Z" fill="#3bd2e3"/><path d="M547,984l-27.24,1L489.62,986s-73.5,99.69-110.43,456c23,10.11,50.45,44.09,74.63,51.78,1.73-159.64,26.25-343.58,84.77-493.47A121.55,121.55,0,0,1,547,984Z" fill="#1da2b3"/><path d="M840.43,973.3a432.74,432.74,0,0,0-26.93-42c-143.63,77.19-300.38,12.67-300.38,12.67l-.38-.1c-8.72,13.89-16.38,27.39-23.12,40.54C530,1003.09,681.91,1061.94,840.43,973.3Z" fill="#0f8899"/><path d="M611.23,1502.65c8.92.52-169.41-79.41-189.17-262.94,0,0-29.53,174.17-30.24,196.76,0,0,22.83,18.18,54.24,41.82l.23-25c8.85,2.16,72.92,40.29,84.83,45.71l-.36-18.94S584,1501,611.23,1502.65Z" fill="#7ecfd9" style="mix-blend-mode:multiply"/><path d="M830.76,970.76c-29.89,25.18-80.83,36.32-105,40.39,101.41-10.16,155.86,90.91,155.86,90.91C871,1036.41,830.76,970.76,830.76,970.76Z" fill="#7ecfd9" style="mix-blend-mode:multiply"/><path d="M503.37,981.35c29.9,25.18,80.84,36.32,105,40.39-101.42-10.17-155.86,90.91-155.86,90.91C463.14,1047,503.37,981.35,503.37,981.35Z" fill="#7ecfd9" style="mix-blend-mode:multiply"/><path d="M778.1,1019.86c-.77-18.51-18.93-15.84-18.93-15.84-13.8,1.08-27.27,1.5-40.36,1.37a494.4,494.4,0,0,1-120.93-16.53c-57.8-15.24-93.63-35.5-93.63-35.5-26.82,12.24-10.31,30.13-10.31,30.13,13.85,10.58,33.5,19.2,55.95,26.18,43.54,13.52,97.6,20.82,140.33,24.12,36.21,2.8,64.28,2.73,70.88,1.14C777.36,1031,778.35,1025.74,778.1,1019.86Z" fill="#c9c9c9"/><path d="M821.94,941.81S716,1010,570.34,1007c0,0-18.28-1.63-18,16.9.09,5.89,1.38,11.07,17.84,14.07,18.64,3.39,203.2-14.61,263.78-66.65C834,971.29,849.41,952.49,821.94,941.81Z" fill="#fff"/><path d="M606.9,1005.45s57-4.15,71.72-11.47c0,0,5,26.06,4.45,33.1,0,0-63.22,11.38-71.66,10.71C611.41,1037.79,604.26,1020.82,606.9,1005.45Z" fill="#ac3949"/><path d="M620.5,1011.57s38.54-3.73,46.66-7.76c0,0,2.76,14.36,2.45,18.24,0,0-42,7.71-46.62,7.34C623,1029.39,619.05,1020,620.5,1011.57Z" fill="#fff"/><circle cx="703.04" cy="1007.42" r="5.65" fill="#a8a8a8"/><circle cx="736.31" cy="998.74" r="5.65" fill="#a8a8a8"/><circle cx="766.98" cy="987.01" r="5.65" fill="#a8a8a8"/><rect width="1259.23" height="2194.12" fill="none"/></g></g></g></g></svg>