<svg xmlns="http://www.w3.org/2000/svg" width="1259.23" height="2194.12" viewBox="0 0 1259.23 2194.12"><title>3_girl_shrit_7</title><g id="Layer_2" data-name="Layer 2"><g id="Layer_141" data-name="Layer 141"><g id="_3_girl_shrit_7" data-name="3_girl_shrit_7"><path d="M485.53,748.53a280.65,280.65,0,0,1-88.94-9.18,17.46,17.46,0,0,1-3.66-1.08c0,8.84.25,13.85.25,13.85s40.37,18.33,93.32,13.47A86.9,86.9,0,0,1,485.53,748.53Z" fill="#fff"/><path d="M817.59,729.35c4.36-.7,8.74-1.53,13.12-2.46.06-2.85,0-5.69-.12-8.54.16,2.85.18,5.69.12,8.54,27.28-5.8,54.57-15.93,78.74-30.36-7.05-34.27-24.67-117.64-33.21-137.87-13.57-32.13-53.07-55.49-123.83-67.66l-39.18-13.65-37.76,36-24.94,1.06-23.77.35-42.7-31.05-28.59,8.35c-27.13,5.93-116.36,25-132.94,70.53-26.44,72.66-29.56,145.93-29.6,175.68a17.46,17.46,0,0,0,3.66,1.08,280.65,280.65,0,0,0,88.94,9.18,61.49,61.49,0,0,1,2.06-13.18,61.49,61.49,0,0,0-2.06,13.18c7.71-.43,15.41-1.14,23.06-2.18-7.65,1-15.35,1.75-23.06,2.18a86.9,86.9,0,0,0,1,17.06c.79-.08,1.59-.15,2.38-.24,0,0,13.65,40.24,15.06,48s19.76,33.89,9.18,130.59c0,0,157.76,64.94,301.76-13.41-12.21-64.86-13.08-89.37,5.3-147.18l5.29-33.88s1.31-.19,3.69-.67c.61-7.3,1.38-14.61,1.55-21.91C826.33,727.82,822,728.65,817.59,729.35Z" fill="#3a8294"/><path d="M830.71,726.89c-.17,7.3-.94,14.61-1.55,21.91,11.62-2.32,48.74-11.37,83.31-37.45,0,0-1.13-5.66-3-14.82C885.28,711,858,721.09,830.71,726.89Z" fill="#fff"/><path d="M634.64,514.76H665V597.7a8.88,8.88,0,0,1-8.69,9.06H643.33a8.88,8.88,0,0,1-8.69-9.06Z" fill="#cfcfcf"/><circle cx="650.13" cy="542.68" r="10" fill="#196375"/><circle cx="649.28" cy="589.51" r="10" fill="#196375"/><path d="M599.65,455.12l-.36,13.76c9,14.3,30.31,38.06,51.24,45.53,0,0-29.53,21.54-46,36.92a9.6,9.6,0,0,1-13.48-.35c-12.09-12.59-37-39.88-44.89-59.37a6.94,6.94,0,0,1,3.73-9C561,478,584.22,467.08,599.65,455.12Z" fill="#fff"/><path d="M701.68,452l.35,13.76c-8.94,14.3-30.57,41.17-51.5,48.64,0,0,30.8,18.43,47.23,33.81a9.6,9.6,0,0,0,13.48-.35c12.1-12.59,37-39.88,44.89-59.37a6.94,6.94,0,0,0-3.72-9C741.38,474.84,717.11,464,701.68,452Z" fill="#fff"/><path d="M565.59,495.35c9.35-11.05,22.32-17.77,34.6-25.07-.31-.47-.61-.94-.9-1.4l.36-13.76c-15.43,12-38.7,22.83-49.73,27.46a6.94,6.94,0,0,0-3.73,9c3.78,9.28,11.4,20.33,19.65,30.72C561.31,512.75,559.11,503,565.59,495.35Z" fill="#bababa"/><path d="M752.41,479.47c-11-4.63-35.3-15.49-50.73-27.46l.35,13.76c-1.17,1.88-2.57,4-4.16,6.23,14.76,8.53,34.08,14.81,37.72,29.35,1.59,7.33.33,14.86-2.69,22.3,9.57-11.61,18.91-24.54,23.23-35.15A6.94,6.94,0,0,0,752.41,479.47Z" fill="#bababa"/><path d="M393.18,752.12s40,18.14,92.53,13.53c-1-3.16-1.88-6.36-2.71-9.58C447.47,764.65,393.18,752.12,393.18,752.12Z" fill="#bababa"/><path d="M827.61,739.67c-.13,4.15-.15,5.3,0,9.46,9.78-1.71,48.36-10.26,84.82-37.74C892.23,723.1,847.45,736.31,827.61,739.67Z" fill="#bababa"/><path d="M827.59,694.35c-3-12-4-24-8-36-3.31-14.05-8-27.42-12.89-41.24-.37,1.08-.75,2.16-1.11,3.24.36-1.08.74-2.16,1.11-3.24-1-2.9-2.07-5.81-3.11-8.76,1,2.95,2.07,5.86,3.11,8.76,11-32,25.79-62.56,38.71-93.84-15.21-10.29-35.42-18.84-61-25.48-20.92,41-51,76.76-79.79,114.56-13.61,17-32.29,27.53-49.26,40.13q2.63,1.95,5.26,3.87-2.64-1.92-5.26-3.87c-3,2.22-5.91,4.48-8.74,6.87,2.83-2.39,5.76-4.65,8.74-6.87-55.23-41-106.2-89.88-141.33-150-18.27,5.44-38.7,12.94-55.85,23C469.8,560.91,483,596.15,498.5,629.93c1-2.54,2-5.06,3.09-7.58-1.09,2.52-2.1,5-3.09,7.58.36.81.72,1.62,1.09,2.42-.37-.8-.73-1.61-1.09-2.42-16.89,43.31-20.28,90.16-12.55,135.7,1-.08,1.95-.17,2.93-.28,0,0,13.65,40.24,15.06,48s19.76,33.89,9.18,130.59c0,0,157.76,64.94,301.76-13.41-12.21-64.86-13.08-89.37,5.3-147.18l5.29-33.88s1.91-.28,5.31-1a85.79,85.79,0,0,0-.19-13.12C829.59,721.35,830.59,708.35,827.59,694.35Z" fill="#df5c5b"/><path d="M525.12,497.12s47.62,86.48,114.54,135.44a18.85,18.85,0,0,0,23.68-1.06c25.25-22.45,86.07-80.7,106-137.21,0,0,11.3-8.47,28.24,4.24,0,0-55.21,105.31-125.79,160.47a28.28,28.28,0,0,1-35.14-.19c-31.23-25.08-98-83.83-134-153.63C502.7,505.18,506.76,491.47,525.12,497.12Z" fill="#ff8a8a"/><path d="M504.88,621.71,469.29,520.47s-14.76-9.23-20.41,10.53l45.18,117.18S495.94,623.47,504.88,621.71Z" fill="#ff8a8a"/><path d="M798.06,610.41l33.7-95.59s14.77-9.23,20.42,10.53l-41.3,111.53S807,612.18,798.06,610.41Z" fill="#ff8a8a"/><path d="M501.49,778.13c1.7,4.26,3.91,9.49,6.38,14.63a29.87,29.87,0,0,0,30.71,16.62c42.7-5.44,151.87-17.14,240.29-7.8a29.87,29.87,0,0,0,31.4-19.78c2.56-7.34,4.85-15.33,5.63-22.11a5.18,5.18,0,0,0-7.19-5.4c-28.93,12.62-143.39,55.07-301.17,16.91A5.18,5.18,0,0,0,501.49,778.13Z" fill="#c73e3e"/><path d="M504.88,621.71s-26.73,34.57-28,93.86c-.73,35,9.32,57.47,26.37,94.32h0S487.59,768.25,487,716C486.7,687.36,490.21,651.6,504.88,621.71Z" fill="#b83635"/><path d="M796.88,608.65c47.29,83.29,20.3,169.71,23.29,174.7C859.7,682.06,796.88,608.65,796.88,608.65Z" fill="#b83635"/><rect width="1259.23" height="2194.12" fill="none"/></g></g></g></svg>