<svg xmlns="http://www.w3.org/2000/svg" width="1259.23" height="2194.12" viewBox="0 0 1259.23 2194.12"><defs><style>.a{fill:#8f364e;}.b{fill:#692739;}.c{fill:#b8536e;}.d{fill:none;}</style></defs><title>3_girl_hair_6</title><path class="a" d="M836.29,446.09c-7.18-3.24-12.95-11.08-11.12-18.74,3.16-13.22,25.71-19.83,20.83-32.51-2.72-7.06-12.41-8.34-17.26-14.14-5.28-6.3-3.25-16.13,1.5-22.83s11.68-11.55,17-17.84c10.88-13,11.48-36.49-3.76-43.86-4.24-2.05-9.69-3-9.84-9.38a10.79,10.79,0,0,1,1.84-6.17c7.78-11.88,14.65-25.62,14-40-.67-14-10.36-28.35-24.69-29.54a9.09,9.09,0,0,1-2.68-.56c-7.09-2.87-4.82-9-2.64-13.67,23.38-49.89-5.09-82-19.45-85.74-3.72-1-7.68-1.47-10.88-3.59-8.61-5.72-6.81-18.45-7.12-28.78-.86-28.25-33.21-32.31-61.25-28.73-17.29-25.3-57.9-30.07-80.59-9.47-15.92-17.09-45.75-18.51-63.23-3-3.22,2.86-6.11,6.22-10,8.15-5.74,2.88-12.55,2.06-18.93,2.86a37.31,37.31,0,0,0-30.15,25.08c-1.4,4.39-2.23,9.45-5.93,12.19-3.24,2.39-7.62,2.19-11.64,2.55-14,1.26-40.07,31.78-21.43,58.6,0,0-51,13.41-9.75,56.9-13.58,5.36-22.86,11.77-22.31,26.36.32,8.16,3.3,13.43,6.53,16.77a12.77,12.77,0,0,1-1.18,18.65c-8.12,6.77-18.3,12.33-19.52,22.43-2.18,18,26.87,30.83,20.66,47.89-2.59,7.11-10.48,10.74-14.86,16.91-5.77,8.16-4.42,19.73.65,28.35s13.18,14.93,21.09,21c-13.8,7.19-20.12,26-13.47,40,2.68,5.67,7.21,10.91,7.1,17.18-.2,11.51-14.57,16.33-26,18a52,52,0,0,0,78.36-34.54,34.67,34.67,0,0,1-13.54,35.88c22.24,4.4,46.69-8.54,55.55-29.4,6.46,13.06,22.1,20.87,36.42,18.19-2.65-4.33-5.36-8.83-6-13.87s1.46-10.78,6.1-12.83c2.31-1,9.7,2.62,16.44,7.15l.67-14.74c-38.8-18.9-60.77-41.79-73-58.67-4.39-6.07-8.15-14.2-11.37-23.36-35.11-8.23-61.31-59.27-40.16-87.82,8.73-11.78,16.56-13,22.74-10.25a337.72,337.72,0,0,1,.79-47c20.78,17.1,59.09-18.22,65-41.47C568,156.37,569,147.58,573,140s12.2-14,20.68-12.48c12.49,2.22,16.42,18.09,25.63,26.81,11.6,11,33.35,7.58,41-6.43,3.12-5.68,4-12.29,6.5-18.29s7.39-11.82,13.87-12c3.78-.13,7.33,1.67,10.68,3.43,14.57,7.64,30.85,17.56,33.23,33.84.76,5.19,0,10.81,2.55,15.41,7.37,13.42,32.29,4.41,40.66,17.24,6.56,10.06-3.38,24.37,1.81,35.2,4.25,8.87,15.53,10.19,25.8,9.51.24,6.8.31,13.89.13,21.23,6.24-2.89,14.2-1.91,23.1,10.1,21.49,29-5.9,81.23-41.85,88.18-17.33,39-49.26,63.8-77.19,78.86l2.72,37.17a29,29,0,0,0,20.33-12.88q23.07,11.15,46.51,21.46a10.92,10.92,0,0,0,3.49,1c9,.76,10.63-11.37,9.36-19.75,22.62,17.85,59.34,13.74,77.46-8.66C851.67,449.1,843.47,449.33,836.29,446.09Z"/><path class="b" d="M803.59,443.35c7.32-38.3-10.42-40.59-19.42-53.59-10-15,13.42-15.41,20.42-28.41,3.83-9,4.39-18.71,3.25-28.51-8.49,9.49-19.28,16.55-31,18.81-17.33,39-49.26,63.8-77.19,78.86l2.72,37.17a29,29,0,0,0,20.33-12.88q23.07,11.15,46.51,21.46a10.92,10.92,0,0,0,3.49,1c9,.76,10.63-11.37,9.36-19.75,16.26,12.84,39.82,14.32,58.51,5.81C823.54,464,800.57,459.11,803.59,443.35Z"/><path class="b" d="M498.59,375.35c18.38,28.4-19.77,28.4-21,62,5,13,19,33,1,38-8.32,2.77-17.1,6.8-25.92,9.65A52,52,0,0,0,476,480.78a52.94,52.94,0,0,0,30.11-37.84,34.67,34.67,0,0,1-13.54,35.88c22.24,4.4,46.69-8.54,55.55-29.4,6.46,13.06,22.1,20.87,36.42,18.19-2.65-4.33-5.36-8.83-6-13.87s1.46-10.78,6.1-12.83c2.31-1,9.7,2.62,16.44,7.15l.67-14.74c-38.8-18.9-60.77-41.79-73-58.67-4.39-6.07-8.15-14.2-11.37-23.36-15-3.52-28.34-14.83-37.09-28.86-2.53,10.37-2.77,21.73-2.77,31.92C478.59,367.35,491.59,366.35,498.59,375.35Z"/><path class="b" d="M781.59,157.35c11,15,16,41,4,54-5,5-11.61,5.44-17.47,3a18,18,0,0,0,1.56,8.31c4.25,8.87,15.53,10.19,25.8,9.51.24,6.8.31,13.89.13,21.23,6.24-2.89,14.2-1.91,23.1,10.1.7.95,1.34,1.93,1.94,2.93C824,227.31,808.2,186.12,781.59,157.35Z"/><path class="b" d="M519.59,194.35c-17-9-14-30-11-47-17.09,31.48-27.7,70.23-20.2,106.09a13.55,13.55,0,0,1,11.64-.22,337.72,337.72,0,0,1,.79-47c12.94,10.65,32.69,1,47.18-13.48C539.21,197.71,528.89,199.36,519.59,194.35Z"/><path class="c" d="M493.59,99.35c9-2,17,2,26,4,1-3,5-2,5-4,3-29,26-52,57-46,2,1,4-9,8-10,20-7,42-1,57,15,7-16,25-25,42-19,13,5,15,19,24,29,11-12,30-8,45-5,21,4,18,26,21,44,0,2,0,6,3,7,9.77.75,20,1.37,29.32,3.43-3.87-3.54-7.78-5.79-11-6.63-3.72-1-7.68-1.47-10.88-3.59-8.61-5.72-6.81-18.45-7.12-28.78-.86-28.25-33.21-32.31-61.25-28.73-17.29-25.3-57.9-30.07-80.59-9.47-15.92-17.09-45.75-18.51-63.23-3-3.22,2.86-6.11,6.22-10,8.15-5.74,2.88-12.55,2.06-18.93,2.86a37.31,37.31,0,0,0-30.15,25.08c-1.4,4.39-2.23,9.45-5.93,12.19-3.24,2.39-7.62,2.19-11.64,2.55-8.35.75-21,11.91-25.88,26.48C478.89,107.51,485.93,101.6,493.59,99.35Z"/><rect class="d" width="1259.23" height="2194.12"/></svg>