<svg xmlns="http://www.w3.org/2000/svg" width="1259.23" height="2194.12" viewBox="0 0 1259.23 2194.12"><title>3_girl_drivers_2</title><g id="Layer_2" data-name="Layer 2"><g id="Layer_141" data-name="Layer 141"><g id="_3_girl_drivers_2" data-name="3_girl_drivers_2"><path d="M1187.15,1310.36c-.16-28.22-.27-46-.27-46l-15.59.27.31,45.39.11,17.21c5.19-.08,10.37,0,15.55,1.26C1187.23,1322.09,1187.19,1316,1187.15,1310.36Z" fill="#515449"/><path d="M1187.52,1370.23c-.09-15-.18-29-.26-41.7-5.18-1.3-10.36-1.34-15.55-1.26l.29,41.78A65.23,65.23,0,0,1,1187.52,1370.23Z" fill="#c8e815"/><path d="M1188.7,1544.25c-.38-51-.76-107.89-1.07-157a77.44,77.44,0,0,0-15.52-1.8l1.06,158.45,1.38,159.6L1176,1885.1c4.82.06,9.71.44,14.57.9-.15-57.23-.45-120-.81-180.54C1189.47,1650.19,1189.08,1594.87,1188.7,1544.25Z" fill="#c8e815"/><path d="M1187.52,1370.23a65.23,65.23,0,0,0-15.52-1.18l.11,16.39a77.44,77.44,0,0,1,15.52,1.8C1187.59,1381.45,1187.56,1375.77,1187.52,1370.23Z" fill="#515449"/><path d="M1176,1885.1l.21,25.17c4.8,0,9.61-.06,14.42.28q0-12.08-.06-24.55C1185.75,1885.54,1180.86,1885.16,1176,1885.1Z" fill="#515449"/><path d="M1176.25,1910.27l.28,34.08h14.18c0-10.93,0-22.22,0-33.8C1185.86,1910.21,1181.05,1910.22,1176.25,1910.27Z" fill="#c8e815"/><path d="M1190.71,1944.35h-14.18l.18,22.47,1.14,138.44s6.07,3.6,11.07-2.62c1.28-1.59,1.77-56.88,1.8-135.57C1190.72,1959.7,1190.72,1952.11,1190.71,1944.35Z" fill="#515449"/><path d="M1156.94,1223.76v.28l14.35,40.63,15.59-.27,15.43-39.86C1188.16,1218.63,1171.45,1217.78,1156.94,1223.76Z" fill="#c8e815"/><path d="M1179.77,1225.05l-.3,34.23-5.36.82-10.86-32.43S1171.12,1223.86,1179.77,1225.05Z" fill="#eaff75"/><path d="M1190.54,2065.19s-49.34-101.27-119.24-78.06-72,90.66-50.27,129.95c11.86,21.4,44.24,46.44,96.37,33.08,60.1-15.4,71.52-47.52,71.52-47.52Z" fill="#515449"/><path d="M1143.07,2005.94c-14.41-10.37-35-13.81-56.66,5.94-15.27,13.93-25.15,33.26-22.15,64.17,1.81,18.62,12.77,40.91,35,57.4a52.27,52.27,0,0,0,41.72,9.44l.26,0c39-15.63,47.66-40.2,47.66-40.2l1.62-37.46S1173.65,2030,1143.07,2005.94Z" fill="#c8e815"/><path d="M1090.74,2044.43a90.55,90.55,0,0,0-2.22,14.66,3.35,3.35,0,0,0,2.92,3.56c17.1,2.12,60.16,7.74,85.12,13.45a3.34,3.34,0,0,0,4.06-3.65h0a3.39,3.39,0,0,0-1.85-2.61c-23-11.37-66.63-23.33-84-27.85A3.31,3.31,0,0,0,1090.74,2044.43Z" fill="#515449"/><path d="M1097,2099.67l82.38-13.09a3,3,0,0,0,2.54-3.36h0a3,3,0,0,0-3-2.68l-86-1.2a3,3,0,0,0-3,3.6,124.36,124.36,0,0,0,3.71,14.61A3.06,3.06,0,0,0,1097,2099.67Z" fill="#515449"/><path d="M1105.55,2127c21.38-2.2,58.92-20.54,76.21-30.35a3.22,3.22,0,0,0,1.4-3.21h0c-.24-2.08-2.05-3.4-3.65-2.66-26.27,12.18-59.77,18.61-77.47,21.37-1.66.25-2.63,2.27-2,4.18,1,3.27,2,6.43,2.75,8.58A2.77,2.77,0,0,0,1105.55,2127Z" fill="#515449"/><path d="M1178.23,2058.07c-35.65-33.56-62.23-42.07-68.83-43.77a2.64,2.64,0,0,0-2.69.85,62.34,62.34,0,0,0-5.75,8,2.68,2.68,0,0,0,1.44,4c14.79,4.87,46,16.49,72.44,35.12a2.69,2.69,0,0,0,4.23-2.5h0A2.77,2.77,0,0,0,1178.23,2058.07Z" fill="#515449"/><path d="M1015,2076.79s19.13-13.44,41.43-17.28c0,0-.87-53.87,52.25-68.16C1108.68,1991.35,1020.23,1981.07,1015,2076.79Z" fill="#7b806f"/><path d="M1203.08,1191.71l1.35-57.5a24.79,24.79,0,0,0-1.84-1.86c-11-11-30-20-44-7a15.17,15.17,0,0,0-1.3,1.5l-.23,64.25A111.19,111.19,0,0,1,1203.08,1191.71Z" fill="#515449"/><path d="M1202.77,1204.94l.31-13.23a111.19,111.19,0,0,0-46-.61l0,14.56A109.6,109.6,0,0,1,1202.77,1204.94Z" fill="#c8e815"/><path d="M1157,1205.66l-.07,18.1c14.51-6,31.22-5.13,45.37.78l.46-19.6A109.6,109.6,0,0,0,1157,1205.66Z" fill="#515449"/><path d="M1202.59,1132.35a24.79,24.79,0,0,1,1.84,1.86l1.16-49.21c-22.24,14.94-38.12,10.71-48.16,2.92l-.14,38.93a15.17,15.17,0,0,1,1.3-1.5C1172.59,1112.35,1191.59,1121.35,1202.59,1132.35Z" fill="#3d4038"/><rect width="1259.23" height="2194.12" fill="none"/></g></g></g></svg>