<svg xmlns="http://www.w3.org/2000/svg" width="1259.23" height="2194.12" viewBox="0 0 1259.23 2194.12"><defs><style>.a{fill:#61341c;opacity:0.4;}.b{fill:#ffadb5;}.c{fill:#77d4d4;}.d{fill:#fff;}.e{fill:none;}</style></defs><title>3_girl_Glasses_1_3</title><path class="a" d="M798.71,265.35a4.58,4.58,0,0,0-5.9-2.68l-14,5.26a29,29,0,0,0-2-5.57,33.9,33.9,0,0,0-5.86-8.45,47.75,47.75,0,0,0-16.05-10.83,68.94,68.94,0,0,0-18-4.82,85.12,85.12,0,0,0-18.39-.39c-12.16,1.09-24.23,4.57-34.73,11.21A47.48,47.48,0,0,0,670,261.88a32.59,32.59,0,0,0-4.37,8.75c-.16.53-.3,1.07-.43,1.61-16.37-4.57-31.92-1.66-38.75.11a32.55,32.55,0,0,0-4.21-8.32,47.44,47.44,0,0,0-13.76-12.8c-10.51-6.64-22.57-10.12-34.73-11.21a85.1,85.1,0,0,0-18.39.4,68.71,68.71,0,0,0-18,4.81,47.82,47.82,0,0,0-16.06,10.84,34.19,34.19,0,0,0-5.86,8.44,30.12,30.12,0,0,0-1.24,3.06L501,262.67a4.58,4.58,0,0,0-3.21,8.57l14.73,5.52a29.57,29.57,0,0,0,1.36,8.55,34.1,34.1,0,0,0,4.64,9.17A48,48,0,0,0,533,307.42a68.79,68.79,0,0,0,17.22,7.24,85.12,85.12,0,0,0,18.16,2.92c12.19.58,24.62-1.2,35.94-6.34a47.52,47.52,0,0,0,15.39-10.79,32.18,32.18,0,0,0,5.53-8.07,27.79,27.79,0,0,0,2.53-9.67c0-.42,0-.84,0-1.26,5.38-1.48,21-4.87,36.71.14a27.68,27.68,0,0,0,2.43,8.64,32.63,32.63,0,0,0,5.53,8.07,47.27,47.27,0,0,0,15.4,10.78c11.32,5.14,23.74,6.93,35.94,6.34A85.31,85.31,0,0,0,742,312.51a68.91,68.91,0,0,0,17.21-7.25,47.75,47.75,0,0,0,14.42-12.94,33.75,33.75,0,0,0,4.64-9.16,29.51,29.51,0,0,0,1.19-5.69L796,271.24A4.59,4.59,0,0,0,798.71,265.35ZM620.64,282.22a20.55,20.55,0,0,1-1.92,7.08,25.39,25.39,0,0,1-4.34,6.21,39.36,39.36,0,0,1-13.16,8.78,60.48,60.48,0,0,1-15.8,4.16,76.11,76.11,0,0,1-16.46.31c-10.94-1-21.75-4.2-30.69-9.91a38.56,38.56,0,0,1-11.19-10.36,23.48,23.48,0,0,1-3.17-6.33,18.51,18.51,0,0,1-.79-6.66,18.84,18.84,0,0,1,1.69-6.49,23.44,23.44,0,0,1,4-5.84,38.51,38.51,0,0,1,12.5-8.73c9.64-4.42,20.79-6.13,31.76-5.6a76.42,76.42,0,0,1,16.27,2.57,60.21,60.21,0,0,1,15.07,6.29,39.15,39.15,0,0,1,11.83,10.5,25.07,25.07,0,0,1,3.45,6.75c.13.4.22.81.33,1.21a4.52,4.52,0,0,0,.62,4.31C620.67,281.05,620.67,281.64,620.64,282.22ZM768.24,280a23.87,23.87,0,0,1-3.18,6.34,38.66,38.66,0,0,1-11.18,10.36c-9,5.71-19.76,8.92-30.69,9.91a76.19,76.19,0,0,1-16.47-.32,60.39,60.39,0,0,1-15.79-4.15,39.3,39.3,0,0,1-13.17-8.78,25.39,25.39,0,0,1-4.34-6.21,20.32,20.32,0,0,1-1.91-7.08c0-.14,0-.27,0-.41a2.83,2.83,0,0,0,.2-.43,4.5,4.5,0,0,0,0-3,21.23,21.23,0,0,1,.76-3.41,25.31,25.31,0,0,1,3.45-6.74,39.3,39.3,0,0,1,11.83-10.51,60.1,60.1,0,0,1,15.08-6.28,76.34,76.34,0,0,1,16.26-2.58c11-.52,22.12,1.18,31.76,5.61A38.51,38.51,0,0,1,763.32,261a23.61,23.61,0,0,1,4,5.83,18,18,0,0,1,.91,13.15Z"/><path class="b" d="M624.32,278.3a4.58,4.58,0,0,1-1.52-8.9c.94-.32,23.31-8,46.09,0a4.58,4.58,0,1,1-3,8.64c-19.79-6.93-39.84-.07-40,0A4.44,4.44,0,0,1,624.32,278.3Z"/><path class="b" d="M516.65,274a4.51,4.51,0,0,1-1.6-.29l-17.23-6.46a4.58,4.58,0,0,1,3.21-8.57l17.23,6.46a4.58,4.58,0,0,1-1.61,8.86Z"/><path class="b" d="M777.2,274a4.58,4.58,0,0,1-1.61-8.86l17.22-6.46a4.58,4.58,0,1,1,3.22,8.57L778.8,273.7A4.51,4.51,0,0,1,777.2,274Z"/><path class="c" d="M627.74,278.71a27.79,27.79,0,0,1-2.53,9.67,32.18,32.18,0,0,1-5.53,8.07,47.52,47.52,0,0,1-15.39,10.79c-11.32,5.14-23.75,6.92-35.94,6.34a85.12,85.12,0,0,1-18.16-2.92A68.79,68.79,0,0,1,533,303.42a48,48,0,0,1-14.42-12.94,34.1,34.1,0,0,1-4.64-9.17,29.23,29.23,0,0,1-1.32-10.54,29.64,29.64,0,0,1,2.75-10.26,34.19,34.19,0,0,1,5.86-8.44,47.82,47.82,0,0,1,16.06-10.84,68.71,68.71,0,0,1,18-4.81,85.1,85.1,0,0,1,18.39-.4c12.16,1.09,24.22,4.57,34.73,11.21A47.44,47.44,0,0,1,622.19,260a32.22,32.22,0,0,1,4.37,8.76A27.43,27.43,0,0,1,627.74,278.71Zm-7.1-.49a20.44,20.44,0,0,0-.93-7.27,25.07,25.07,0,0,0-3.45-6.75,39.15,39.15,0,0,0-11.83-10.5,60.21,60.21,0,0,0-15.07-6.29,76.42,76.42,0,0,0-16.27-2.57c-11-.53-22.12,1.18-31.76,5.6a38.51,38.51,0,0,0-12.5,8.73,23.44,23.44,0,0,0-4,5.84,18.84,18.84,0,0,0-1.69,6.49,18.51,18.51,0,0,0,.79,6.66,23.48,23.48,0,0,0,3.17,6.33,38.56,38.56,0,0,0,11.19,10.36c8.94,5.71,19.75,8.93,30.69,9.91a76.11,76.11,0,0,0,16.46-.31,60.48,60.48,0,0,0,15.8-4.16,39.36,39.36,0,0,0,13.16-8.78,25.39,25.39,0,0,0,4.34-6.21A20.55,20.55,0,0,0,620.64,278.22Z"/><path class="c" d="M665.58,266.63a32.59,32.59,0,0,1,4.37-8.75,47.48,47.48,0,0,1,13.77-12.8c10.5-6.64,22.57-10.12,34.73-11.21a85.12,85.12,0,0,1,18.39.39,68.94,68.94,0,0,1,18,4.82,47.75,47.75,0,0,1,16.05,10.83,33.9,33.9,0,0,1,5.86,8.45,27.66,27.66,0,0,1,1.43,20.8,33.75,33.75,0,0,1-4.64,9.16,47.75,47.75,0,0,1-14.42,12.94A68.91,68.91,0,0,1,742,308.51a85.31,85.31,0,0,1-18.16,2.91c-12.2.59-24.62-1.2-35.94-6.34a47.27,47.27,0,0,1-15.4-10.78,32.63,32.63,0,0,1-5.53-8.07,26.88,26.88,0,0,1-1.35-19.6Zm7.84,16.52a25.39,25.39,0,0,0,4.34,6.21,39.3,39.3,0,0,0,13.17,8.78,60.39,60.39,0,0,0,15.79,4.15,76.19,76.19,0,0,0,16.47.32c10.93-1,21.74-4.2,30.69-9.91a38.66,38.66,0,0,0,11.18-10.36,23.87,23.87,0,0,0,3.18-6.34,18,18,0,0,0-.91-13.15,23.61,23.61,0,0,0-4-5.83,38.51,38.51,0,0,0-12.51-8.73c-9.64-4.43-20.79-6.13-31.76-5.61a76.34,76.34,0,0,0-16.26,2.58,60.1,60.1,0,0,0-15.08,6.28,39.3,39.3,0,0,0-11.83,10.51,25.31,25.31,0,0,0-3.45,6.74,19,19,0,0,0,1,14.36Z"/><path class="d" d="M735.76,250.15c6.87,2.93,17.73,8.53,24.84,16.92a1,1,0,0,0,1.69-1c-2.73-6.26-9.5-15.53-26-17.81A1,1,0,0,0,735.76,250.15Z"/><path class="d" d="M679.89,274.12c2,4.3,6.2,11.88,13.54,17.37a.84.84,0,0,1-.78,1.47c-5.76-2-14.27-7-14.37-18.46A.84.84,0,0,1,679.89,274.12Z"/><path class="d" d="M588,254.85c6.86,2.94,17.72,8.54,24.83,16.93a1,1,0,0,0,1.69-1c-2.72-6.25-9.5-15.53-26-17.81A1,1,0,0,0,588,254.85Z"/><path class="d" d="M528.83,272.23c2,4.31,6.2,11.89,13.54,17.38a.84.84,0,0,1-.78,1.47c-5.76-2.05-14.27-7-14.37-18.46A.85.85,0,0,1,528.83,272.23Z"/><rect class="e" width="1259.23" height="2194.12"/></svg>