<svg xmlns="http://www.w3.org/2000/svg" width="1259.23" height="2194.12" viewBox="0 0 1259.23 2194.12"><title>3_girl_pant_9</title><g id="Layer_2" data-name="Layer 2"><g id="Layer_141" data-name="Layer 141"><g id="_3_girl_pant_9" data-name="3_girl_pant_9"><path d="M413.55,1496.16c-1.12,10.83-2.39,21.69-3.79,32.41,28,12.71,103.27,38.87,205,45.27a266.06,266.06,0,0,1,5.8-27.9,537.86,537.86,0,0,1-84.5-10.06C493.71,1527.41,450.65,1518.22,413.55,1496.16Z" fill="#d1588f"/><path d="M659,969.18c-82.81.73-145.9-25.24-145.9-25.24l-.38-.1c-94.83,151.09-65.27,255.78-67.39,363.63-.41,20.75-29.52,166.44-31.8,188.69,37.1,22.06,80.16,31.25,122.51,39.72a537.86,537.86,0,0,0,84.5,10.06c11.29-43.48,58.7-208.48,64.09-254C697.12,1184.14,665.9,1074.71,659,969.18Z" fill="#ff6bae"/><path d="M621.55,1546c-2.1,9.47-4.36,18.78-6.79,27.86a715.85,715.85,0,0,0,228-22.13c2.6-12.39,5.06-24.62,7.36-36.84-35.12,10.22-70.74,18.68-108.06,24C701.05,1544.74,661.42,1547.5,621.55,1546Z" fill="#ab3f70"/><path d="M890.76,1123.94c-16.64-93.06-66.69-178.35-77.26-192.67C761,959.49,706.73,968.77,659,969.18c16.17,94-2.91,421.09-37.47,576.8,39.87,1.52,79.5-1.24,120.51-7.1,37.32-5.33,72.94-13.79,108.06-24C864.47,1438.56,921.82,1297.59,890.76,1123.94Z" fill="#d1588f"/><path d="M543.43,953.82a292,292,0,0,1-30.31-9.88l-.38-.1c-36.51,58.16-54.57,109.45-63.11,156.69C499.58,1067.3,524.45,1010.26,543.43,953.82Z" fill="#b84d7d"/><path d="M886.51,1093c-15.73-81.1-63.62-149-73-161.68a305.27,305.27,0,0,1-37.43,17c.16.38.33.75.52,1.12C800.79,1004.69,832.48,1063.75,886.51,1093Z" fill="#b84d7d"/><path d="M840.43,973.3a432.74,432.74,0,0,0-26.93-42c-143.63,77.19-300.38,12.67-300.38,12.67l-.38-.1c-8.72,13.89-16.38,27.39-23.12,40.54C530,1003.09,681.91,1061.94,840.43,973.3Z" fill="#a1f0ff"/><path d="M567.47,959.69c-5.47,15.55-11.25,31-16.51,46.69,4.69,1.27,9.59,2.5,14.65,3.69,3.67-16.37,7.66-32.56,12.93-48.16C574.72,961.19,571,960.45,567.47,959.69Z" fill="#ff6bae"/><path d="M759.71,953.86c4.93,16.08,10.44,32.21,14.63,48.56q7.38-2.43,14.84-5.24C785,980.82,779,965.07,773.93,949Q766.81,951.63,759.71,953.86Z" fill="#ff6bae"/><circle cx="697.83" cy="1048.96" r="12.71" fill="#fff"/><circle cx="698.8" cy="1121.01" r="12.71" fill="#fff"/><circle cx="695.46" cy="1191.87" r="12.71" fill="#fff"/><rect width="1259.23" height="2194.12" fill="none"/></g></g></g></svg>