<svg xmlns="http://www.w3.org/2000/svg" width="1259.23" height="2194.12" viewBox="0 0 1259.23 2194.12"><defs><style>.a{fill:#ff8b17;}.b{fill:#ba5a11;}.c{fill:#ffc547;}.d{fill:none;}</style></defs><title>3_girl_hair_4</title><path class="a" d="M848.53,299.47C847,195.65,807.49,5.19,648.74,32.63,490,5.19,440.06,195.64,439.94,299.47c-.18,164.12,91.18,176.82,91.18,176.82-15.89-34.94-22.06-92.11-22.06-92.11,8.47,52.94,91.94,87.88,91.94,87.88l-.12-39.3c-57.41-21.76-81.23-82.47-81.23-82.47s-36.64-4.88-46.59-46.58c-6-25,.73-37.58,8.94-44a33,33,0,0,1,18-6.54c-3.7-29.92,15.52-61.93,36.69-83.4A168.27,168.27,0,0,1,601.5,129.1c-3.54,12.12-3,25.94-.74,38.57,6,33.22,23.51,66.22,53.36,82-15.91-41.78-7.56-91.86,21-126.22a168.24,168.24,0,0,1,85.58,46.4c21.17,21.47,38.67,53.92,35,83.85,0,0,16.49-3.77,24.3,12.39,3.54,7.35,7.36,23.1,3.39,37.66-11.28,41.36-45.59,46.58-45.59,46.58s-28.53,55.06-77.23,80.47l1,39.95s75.17-19.83,86.82-86.53c0,0,4.24,51.88-22.23,93.17C766.18,477.35,850.65,447.71,848.53,299.47Z"/><path class="b" d="M531.12,476.29c-15.89-34.94-22.06-92.11-22.06-92.11,8.47,52.94,91.94,87.88,91.94,87.88l-.12-39.3c-60.23-24.58-81.23-82.47-81.23-82.47s-31.12-4.6-44.26-39.41C465.82,403.94,531.12,476.29,531.12,476.29Z"/><path class="b" d="M482,259.75c10.65-7.74,18-6.54,18-6.54-3.7-29.92,76.64-115.4,100.64-123.81,2.76-9,7.12-16.94,10.92-26.05C492.79,182.35,483.42,252.64,482,259.75Z"/><path class="b" d="M664.88,100.35C613.11,178,638.79,227.23,653.8,249.45l.32.18c-15.91-41.78-7.56-91.86,21-126.22C707.43,130,792.41,210.1,795.72,253.66A31.2,31.2,0,0,1,820,266.05C776.35,123.71,664.88,100.35,664.88,100.35Z"/><path class="b" d="M820,314.38c-14.21,29.47-42.2,35.91-42.2,35.91s-28.53,55.06-77.23,80.47l1,39.95s75.17-19.83,86.82-86.53c0,0,4.24,51.88-22.23,93.17C766.18,477.35,813.66,455.13,820,314.38Z"/><path class="c" d="M563.23,52.41s70.59,34.53,170.83-3.59c0,0,24,16.94,26.82,21.18-50.56,10-103.65,24.63-232.65,4.12C528.23,74.12,548.06,52.76,563.23,52.41Z"/><rect class="d" width="1259.23" height="2194.12"/></svg>