<svg xmlns="http://www.w3.org/2000/svg" width="1259.23" height="2194.12" viewBox="0 0 1259.23 2194.12"><title>3_girl_shose_5</title><g id="Layer_2" data-name="Layer 2"><g id="Layer_141" data-name="Layer 141"><g id="_3_girl_shose_5" data-name="3_girl_shose_5"><polygon points="148.18 2151.71 158.06 2175.71 174.29 2151.71 148.18 2151.71"/><polygon points="195.47 2156.65 205.35 2180.65 221.59 2156.65 195.47 2156.65"/><polygon points="240.65 2153.12 250.53 2177.12 266.76 2153.12 240.65 2153.12"/><polygon points="289.35 2141.82 299.23 2165.82 309.82 2141.82 289.35 2141.82"/><polygon points="321.12 2110.06 331 2134.06 341.59 2110.06 321.12 2110.06"/><polygon points="361.35 2094.53 371.23 2118.53 381.82 2094.53 361.35 2094.53"/><polygon points="405.12 2083.94 415 2107.94 425.59 2083.94 405.12 2083.94"/><path d="M264.24,2057.16c17.49,18.88,31.16,41.48,35.57,66.35,3.82-4.07,8.32-8.84,13-13.75-6.74-24.33-19.62-48-37-66.31Q270,2050.28,264.24,2057.16Z" fill="#fff"/><path d="M275.77,2043.45c17.42,18.28,30.3,42,37,66.31,3.93-4.14,8-8.38,11.88-12.39-7.7-24.61-19.33-48.35-38.06-66.66Q281.19,2037.07,275.77,2043.45Z" fill="#be1e2d"/><path d="M286.63,2030.71c18.73,18.31,30.36,42.05,38.06,66.66,3.39-3.5,6.65-6.83,9.58-9.76-7.36-25.52-19.38-49.83-36.64-69.69Q292.1,2024.33,286.63,2030.71Z" fill="#fff"/><path d="M297.63,2017.92c17.26,19.86,29.28,44.17,36.64,69.69,6.28-6.28,11.07-10.78,12.45-11.36.93-1.3,1.87-2.58,2.82-3.86-7.67-25.75-20.6-49.68-39.12-69.24Q304,2010.57,297.63,2017.92Z" fill="#be1e2d"/><path d="M424,1995.66a269.67,269.67,0,0,0-12.42-24.72c-25.15,15.21-52.07,27.37-81.26,29.67,14.22,18.37,23.93,39.62,31.18,61.7,26.49-3.56,52.5-10.6,76.12-23.33C435.21,2023.87,429.52,2008.25,424,1995.66Z" fill="#be1e2d"/><path d="M312.5,2000.75l-2.08,2.4c18.52,19.56,31.45,43.49,39.12,69.24,2.34-3.16,4.72-6.29,7-9.46,1.64-.19,3.28-.4,4.92-.62-7.25-22.08-17-43.33-31.18-61.7A124.07,124.07,0,0,1,312.5,2000.75Z" fill="#fff"/><path d="M262.37,2059.39c-9.18-5.86-20-7.93-28.87-14l-7.68,8.86c-32.47,18.71-60.64,17.42-72,32.18-14.91,19.3-13,40.33-13.23,42.72,13.31,12.71,45.29,29.24,117.38,13.69l30.71-7.41s4.57-4.94,11.16-12c-4.41-24.87-18.08-47.47-35.57-66.35C263.62,2057.9,263,2058.64,262.37,2059.39Z" fill="#be1e2d"/><path d="M312.5,2000.75c-1.63-.1-3.27-.23-4.91-.4-9.6-1.6-19.18-5.12-24.68-12.6-4.82,6-35,41-49.41,57.68,8.83,6,19.69,8.1,28.87,14C278.79,2039.68,295.29,2020.56,312.5,2000.75Z" fill="#333166"/><path d="M141.5,2147.15l-.09-.67Z" fill="#fff"/><path d="M141.38,2146.3c0-.25-.07-.49-.1-.74C141.31,2145.81,141.35,2146.05,141.38,2146.3Z" fill="#fff"/><path d="M141.26,2145.39c0-.26-.07-.53-.1-.8C141.19,2144.86,141.22,2145.13,141.26,2145.39Z" fill="#fff"/><path d="M141.62,2148l-.09-.61Z" fill="#fff"/><path d="M141.88,2149.59c0-.21-.07-.43-.1-.66C141.81,2149.16,141.85,2149.38,141.88,2149.59Z" fill="#fff"/><path d="M141.75,2148.76l-.09-.59Z" fill="#fff"/><path d="M141.14,2144.45c0-.29-.07-.59-.11-.89C141.07,2143.86,141.1,2144.16,141.14,2144.45Z" fill="#fff"/><path d="M292.35,2149.77l-.69.21c-31.62,9.9-58.6,13.19-80.5,13.19a189.94,189.94,0,0,1-39.75-4,142.07,142.07,0,0,1-29.52-9.55c.36,2.15.64,3.49.64,3.49,35.29,31.06,141.17,11.29,152.47,5.64s50.82-52.23,50.82-52.23c25.41,2.82,84.71-16.94,84.71-16.94l3.37-11.81c-34.89,13.81-75.88,15-83.66,15.15Z"/><path d="M141,2143.49c0-.33-.07-.66-.1-1C141,2142.83,141,2143.16,141,2143.49Z" fill="#fff"/><path d="M141.78,2148.93l0-.17Z" fill="#fff"/><path d="M141.66,2148.17c0-.07,0-.14,0-.21S141.65,2148.1,141.66,2148.17Z" fill="#fff"/><path d="M141.89,2149.63h0v0Z" fill="#fff"/><polygon points="433.9 2077.78 434.7 2074.98 433.9 2077.78 433.9 2077.78" fill="#fff"/><path d="M141.53,2147.35l0-.2Z" fill="#fff"/><path d="M141.28,2145.56l0-.17Z" fill="#fff"/><path d="M141,2143.56v0Z" fill="#fff"/><path d="M141.41,2146.48l0-.18Z" fill="#fff"/><path d="M140.91,2142.48v0Z" fill="#fff"/><path d="M141.16,2144.59l0-.14Z" fill="#fff"/><path d="M437.59,2039c-25.08,13.52-52.86,20.63-81,23.95-3.22,4.45-67.9,72.54-67.9,72.54l-30.71,7.41c-72.09,15.55-104.07-1-117.38-13.69a73.6,73.6,0,0,0,.35,13.29v0c0,.33.07.66.1,1v.07c0,.3.07.6.11.89l0,.14c0,.27.07.54.1.8l0,.17c0,.25.07.49.1.74l0,.18.09.67,0,.2.09.61c0,.07,0,.14,0,.21l.09.59,0,.17c0,.23.07.45.1.66v0a142.07,142.07,0,0,0,29.52,9.55,189.94,189.94,0,0,0,39.75,4c21.9,0,48.88-3.29,80.5-13.19l.69-.21,57.89-56.84c7.78-.11,48.77-1.34,83.66-15.15l.8-2.8,1.48-5.16a49.65,49.65,0,0,0,2.49-13.41A82.57,82.57,0,0,0,437.59,2039Z" fill="#fff"/><path d="M301.92,1978.23a15.85,15.85,0,0,1-4.1-7.23c-3.1,2.48-64.3,69.61-72,83.29l4.34,2C253,2029.24,276.64,2002.9,301.92,1978.23Z" fill="#8f1722"/><path d="M410.76,1969.59c-4.23-9.88-9.88-14.12-9.88-14.12s-42.42,27.44-79.17,28.39c-23.19,26.29-40.42,57-60.79,85.34a19,19,0,0,0,16.78-7.78l38.48-53c29.58,2,64.59-18.86,95.37-37.47C411.05,1970.06,410.76,1969.59,410.76,1969.59Z" fill="#8f1722"/><path d="M314.76,1983.71c-6.31-.47-10.32-2.88-12.84-5.48-25.28,24.67-48.88,51-71.76,78.07l24.19,11.2a19.12,19.12,0,0,0,6.57,1.7c20.37-28.39,37.6-59,60.79-85.34C319.37,1983.92,317.05,1983.88,314.76,1983.71Z" fill="#fff"/><path d="M281.35,2067.29a5,5,0,0,1-3.65-1.58c-19.28-20.57-47.84-18.22-48.13-18.2a5,5,0,0,1-.91-10c1.37-.13,33.75-2.77,56.34,21.32a5,5,0,0,1-.23,7.07A4.94,4.94,0,0,1,281.35,2067.29Z"/><path d="M297.39,2046.56a5,5,0,0,1-3.65-1.58c-19.29-20.57-47.85-18.23-48.14-18.21a5,5,0,1,1-.9-10c1.36-.12,33.75-2.77,56.33,21.33a5,5,0,0,1-3.64,8.42Z"/><path d="M311.87,2027.32a5,5,0,0,1-3.65-1.58c-19.28-20.57-47.84-18.23-48.13-18.21a5,5,0,0,1-.91-10c1.37-.12,33.75-2.77,56.34,21.33a5,5,0,0,1-3.65,8.42Z"/><path d="M325.52,2011.32a5,5,0,0,1-3.65-1.58c-19.28-20.57-47.85-18.23-48.14-18.21a5,5,0,1,1-.9-10c1.36-.12,33.75-2.77,56.33,21.33a5,5,0,0,1-3.64,8.42Z"/><ellipse cx="406.7" cy="2020.06" rx="17.96" ry="15.52" transform="translate(-1633 1727.39) rotate(-70.45)" fill="#fff"/><polygon points="994.59 2150.47 987.05 2175.3 968.59 2152.97 994.59 2150.47"/><polygon points="947.99 2159.92 940.45 2184.76 921.99 2162.43 947.99 2159.92"/><polygon points="902.68 2160.74 895.14 2185.58 876.68 2163.24 902.68 2160.74"/><polygon points="853.11 2154.17 845.58 2179.01 832.74 2156.13 853.11 2154.17"/><polygon points="818.45 2125.59 810.91 2150.43 798.07 2127.56 818.45 2125.59"/><polygon points="776.91 2113.99 769.38 2138.83 756.53 2115.96 776.91 2113.99"/><polygon points="732.33 2107.65 724.8 2132.49 711.96 2109.61 732.33 2107.65"/><path d="M870,2067.48c-15.6,20.48-27,44.28-29,69.47-4.2-3.69-9.13-8-14.26-12.45,4.38-24.86,14.92-49.69,30.51-69.56Q863.61,2061.18,870,2067.48Z" fill="#fff"/><path d="M857.2,2054.94c-15.59,19.87-26.13,44.7-30.51,69.56-4.31-3.74-8.76-7.57-13-11.2,5.3-25.22,14.6-50,31.49-70Q851.2,2049.12,857.2,2054.94Z" fill="#be1e2d"/><path d="M845.17,2043.31c-16.89,20-26.19,44.77-31.49,70-3.71-3.15-7.28-6.15-10.48-8.79,4.89-26.11,14.52-51.46,29.79-72.88Q839.11,2037.48,845.17,2043.31Z" fill="#fff"/><path d="M833,2031.63c-15.27,21.42-24.9,46.77-29.79,72.88-6.85-5.65-12.05-9.67-13.48-10.12q-1.58-1.8-3.18-3.57c5.17-26.36,15.75-51.43,32.3-72.67Q826,2024.93,833,2031.63Z" fill="#be1e2d"/><path d="M705.1,2021.58a269,269,0,0,1,10-25.79c26.5,12.72,54.46,22.25,83.74,21.74-12.4,19.65-20,41.73-25.12,64.4-26.71-1-53.28-5.51-78-15.92C696.62,2050.74,700.79,2034.65,705.1,2021.58Z" fill="#be1e2d"/><path d="M816.54,2016l2.3,2.18c-16.55,21.24-27.13,46.31-32.3,72.67-2.63-2.92-5.29-5.8-7.88-8.74q-2.48-.06-4.95-.15c5.09-22.67,12.72-44.75,25.12-64.4A125.89,125.89,0,0,0,816.54,2016Z" fill="#fff"/><path d="M872.07,2069.53c8.57-6.72,19.18-9.82,27.4-16.67L908,2061c34.11,15.51,62,11.52,74.79,25.12,16.69,17.79,16.82,38.9,17.25,41.26-12,13.93-42.27,33.44-115.52,24.88l-31.27-4.43s-5-4.48-12.26-10.83c2-25.19,13.44-49,29-69.47Z" fill="#be1e2d"/><path d="M816.54,2016c1.62-.26,3.24-.54,4.86-.87,9.39-2.51,18.59-6.94,23.36-14.91,5.37,5.55,38.75,37.44,54.71,52.67-8.22,6.85-18.83,9.95-27.4,16.67C853.84,2051.49,835.58,2034,816.54,2016Z" fill="#333166"/><path d="M1000.79,2145.29c0-.22,0-.44,0-.68C1000.81,2144.85,1000.8,2145.07,1000.79,2145.29Z" fill="#fff"/><path d="M1000.83,2144.43l0-.74Z" fill="#fff"/><path d="M1000.87,2143.52c0-.27,0-.53,0-.81C1000.88,2143,1000.87,2143.25,1000.87,2143.52Z" fill="#fff"/><path d="M1000.75,2146.12l0-.62Z" fill="#fff"/><path d="M1000.65,2147.76c0-.21,0-.44,0-.67C1000.68,2147.32,1000.66,2147.55,1000.65,2147.76Z" fill="#fff"/><path d="M1000.7,2146.92c0-.2,0-.39,0-.59C1000.73,2146.53,1000.71,2146.72,1000.7,2146.92Z" fill="#fff"/><path d="M1000.89,2142.58c0-.3,0-.6,0-.9C1000.91,2142,1000.9,2142.28,1000.89,2142.58Z" fill="#fff"/><path d="M850.89,2162.36l.71.15c32.42,6.82,59.6,7.51,81.39,5.41a189.94,189.94,0,0,0,39.18-7.78,142.63,142.63,0,0,0,28.47-12.34c-.15,2.18-.3,3.53-.3,3.53-32.15,34.3-139.44,24.78-151.22,20.24s-55.6-47.12-55.6-47.12c-25,5.25-85.94-8.74-85.94-8.74l-4.49-11.43c36,10.4,77,7.7,84.73,7.06Z"/><path d="M1000.92,2141.6c0-.33,0-.66,0-1C1000.93,2140.94,1000.92,2141.27,1000.92,2141.6Z" fill="#fff"/><path d="M1000.69,2147.09v-.17C1000.7,2147,1000.69,2147,1000.69,2147.09Z" fill="#fff"/><path d="M1000.74,2146.33a1.48,1.48,0,0,1,0-.21A1.48,1.48,0,0,0,1000.74,2146.33Z" fill="#fff"/><path d="M1000.64,2147.8h0v0Z" fill="#fff"/><polygon points="703.09 2104.28 702.02 2101.57 703.09 2104.28 703.09 2104.28" fill="#fff"/><path d="M1000.78,2145.5c0-.07,0-.14,0-.21Z" fill="#fff"/><path d="M1000.86,2143.69v0Z" fill="#fff"/><path d="M1000.91,2141.68v0Z" fill="#fff"/><path d="M1000.82,2144.61a1.09,1.09,0,0,0,0-.18Z" fill="#fff"/><path d="M1000.93,2140.59v0Z" fill="#fff"/><path d="M1000.89,2142.71v0Z" fill="#fff"/><path d="M695.69,2066c26.27,11,54.6,15.46,83,16.07,3.63,4.13,74.55,65.7,74.55,65.7l31.27,4.43c73.25,8.56,103.5-10.95,115.52-24.88a72.22,72.22,0,0,1,.93,13.26v0c0,.33,0,.66,0,1v.08c0,.3,0,.6,0,.9v.13c0,.28,0,.54,0,.81v.17l0,.74a1.09,1.09,0,0,1,0,.18c0,.24,0,.46,0,.68s0,.14,0,.21l0,.62a1.48,1.48,0,0,0,0,.21c0,.2,0,.39,0,.59v.17c0,.23,0,.46,0,.67v0a142.63,142.63,0,0,1-28.47,12.34,189.94,189.94,0,0,1-39.18,7.78c-21.79,2.1-49,1.41-81.39-5.41l-.71-.15-63.07-51c-7.75.64-48.68,3.34-84.73-7.06l-1.07-2.71-2-5a49.38,49.38,0,0,1-3.76-13.11A83.14,83.14,0,0,1,695.69,2066Z" fill="#fff"/><path d="M824.92,1992.54a15.86,15.86,0,0,0,3.38-7.6c3.33,2.18,70.68,63.13,79.66,76l-4.13,2.41C878.46,2038.62,852.44,2014.67,824.92,1992.54Z" fill="#8f1722"/><path d="M715.75,1994.37c3.27-10.25,8.48-15,8.48-15s44.85,23.25,81.52,20.66c25.61,24,45.7,52.81,68.7,79.12A19,19,0,0,1,857,2073l-43.38-49.08c-29.26,4.79-66.11-12.58-98.53-28.15C715.51,1994.87,715.75,1994.37,715.75,1994.37Z" fill="#8f1722"/><path d="M812.66,1999.21c6.24-1.07,10-3.85,12.26-6.67,27.52,22.13,53.54,46.08,78.91,70.82l-23,13.47a18.91,18.91,0,0,1-6.37,2.32c-23-26.31-43.09-55.17-68.7-79.12A67.91,67.91,0,0,0,812.66,1999.21Z" fill="#fff"/><path d="M853.93,2079.21a5,5,0,0,0,3.48-1.92c17.22-22.32,45.88-22.73,46.17-22.73a5,5,0,1,0-.06-10c-1.37,0-33.85.48-54,26.62a5,5,0,0,0,4.44,8Z"/><path d="M836,2060.11a5,5,0,0,0,3.48-1.92c17.22-22.33,45.88-22.73,46.17-22.74a5,5,0,0,0,0-10c-1.37,0-33.86.48-54,26.63a5,5,0,0,0,4.44,8Z"/><path d="M819.72,2042.35a5,5,0,0,0,3.48-1.92c17.22-22.33,45.88-22.74,46.17-22.74a5,5,0,1,0-.06-10c-1.37,0-33.86.48-54,26.63a5,5,0,0,0,4.44,8Z"/><path d="M804.6,2027.73a5,5,0,0,0,3.48-1.92c17.22-22.33,45.88-22.73,46.17-22.74a5,5,0,0,0-.06-10c-1.37,0-33.85.48-54,26.63a5,5,0,0,0,.91,7A5,5,0,0,0,804.6,2027.73Z"/><ellipse cx="724.63" cy="2044.22" rx="15.52" ry="17.96" transform="translate(-797.4 499.12) rotate(-25.05)" fill="#fff"/><rect width="1259.23" height="2194.12" fill="none"/></g></g></g></svg>