<svg xmlns="http://www.w3.org/2000/svg" width="1259.23" height="2194.12" viewBox="0 0 1259.23 2194.12"><title>3_girl_pant_8</title><g id="Layer_2" data-name="Layer 2"><g id="Layer_141" data-name="Layer 141"><g id="_3_girl_pant_8" data-name="3_girl_pant_8"><path d="M484.89,1498.27a93.27,93.27,0,0,0-6.3,12.08c-7.86,17.19-15.23,34.62-19.75,52.65,27.31,8.68,54.45,7.59,66.13,10.76.15-.29.28-.58.42-.86,19-17.73,31.19-38.36,31.67-64.68C532.8,1510.15,508.17,1506.39,484.89,1498.27Z" fill="#ffdc8f"/><path d="M484.89,1498.27a210.7,210.7,0,0,1-57.07-30.56c-14.92,21.19-16.6,46.25-12.95,68.44,12.84,13.83,28.43,21.92,44,26.85,4.52-18,11.89-35.46,19.75-52.65A93.27,93.27,0,0,1,484.89,1498.27Z" fill="#ffb566"/><path d="M576.41,961.5c-6.13-1.18-11.92-2.42-17.3-3.68-28.56-6.71-46-13.88-46-13.88l-.38-.1c-94.83,151.09-65.27,255.78-67.39,363.63-1,51.41-9.21,111.44-17.53,160.24a210.25,210.25,0,0,0,59.05,31.23c6.89-38.07,9.52-77.25,12.72-115.59C510.7,1239.81,503,1092.84,576.41,961.5Z" fill="#ed474c"/><path d="M805.59,1100.35c-7-41-24-76-49-111-2-4-2-8-4-12-4.12-6.17-8.24-12.17-12.35-18.08C678,974.53,618.79,969.64,576.41,961.5c-73.45,131.34-65.71,278.31-76.82,421.85-3.2,38.34-5.83,77.52-12.72,115.59,22.7,7.65,46.62,11.15,70.19,9.28,49.79-105.85,79.85-193.4,106.53-305.57,8.63,31.86,28,189.37,41.3,302.48a396.48,396.48,0,0,0,87.61,8.48C816,1374.05,828.35,1241.7,805.59,1100.35Z" fill="#ff5258"/><path d="M890.76,1123.94c-7.39-94.25-66.69-178.35-77.26-192.67a307.23,307.23,0,0,1-48.73,21q-12.32,4.08-24.53,7c4.11,5.91,8.23,11.91,12.35,18.08,2,4,2,8,4,12,25,35,42,70,49,111,22.76,141.35,10.43,273.7-13.09,413.26a331.52,331.52,0,0,0,60.79-6.66C880.52,1379.82,904.15,1294.61,890.76,1123.94Z" fill="#ed474c"/><path d="M853.29,1507a330.69,330.69,0,0,1-56.42,6.55c3.73,24.44,3.14,49.57-2.6,73.36a185.05,185.05,0,0,0,44.22-6.69C855.75,1558.78,855.59,1533.36,853.29,1507Z" fill="#ffb566"/><path d="M796.87,1513.5a394.44,394.44,0,0,1-92-8.37c-6.39,26-1,50.87,8.41,72.64,0,0,37.74,10.71,81,9.09C800,1563.07,800.6,1537.94,796.87,1513.5Z" fill="#ffdc8f"/><path d="M543.43,953.82a292,292,0,0,1-30.31-9.88l-.38-.1c-36.51,58.16-54.57,109.45-63.11,156.69C499.58,1067.3,524.45,1010.26,543.43,953.82Z" fill="#c93238"/><path d="M886.51,1093c-15.73-81.1-63.62-149-73-161.68a305.27,305.27,0,0,1-37.43,17c.16.38.33.75.52,1.12C800.79,1004.69,832.48,1063.75,886.51,1093Z" fill="#c93238"/><rect x="641.94" y="1009.24" width="59.29" height="169.41" fill="#c93238"/><path d="M663.59,1202.65s-59.5-28.13-103.48-68.05a4.44,4.44,0,0,1,4.72-7.37c58.92,25.14,108.08,68.66,216.46-2,4.09-2.67,8.21,4,4.65,7.36A312.41,312.41,0,0,1,663.59,1202.65Z" fill="#c93238"/><path d="M638.76,968.84c-72.62-3.08-125.64-24.9-125.64-24.9l-.38-.1c-8.72,13.89-16.38,27.39-23.12,40.54,21.95,10.18,76.94,32.23,148,36C637.51,1003.06,637.48,985.86,638.76,968.84Z" fill="#a82a2f"/><path d="M840.43,973.3a432.74,432.74,0,0,0-26.93-42c-60.1,32.3-122.49,39.78-174.74,37.57-1.28,17-1.25,34.22-1.1,51.5C697.25,1023.46,768.15,1013.71,840.43,973.3Z" fill="#a82a2f"/><path d="M638.84,1177.67a16.2,16.2,0,0,0-.25,2.68c-2.15,65.71-8.89,131.42-25.68,194.58,19.84-54.73,35.79-109.67,50.68-172.28,7.63,28.18,23.69,154.69,36.49,261.82-3.27-93.73-11.68-187.64-23.35-280.61C664.1,1184,651.47,1178.23,638.84,1177.67Z" fill="#c93238"/><circle cx="665.59" cy="993.18" r="16.94" fill="#ffdc8f"/><circle cx="670.53" cy="1051.94" r="16.94" fill="#ffdc8f"/><rect width="1259.23" height="2194.12" fill="none"/></g></g></g></svg>