<svg xmlns="http://www.w3.org/2000/svg" width="1259.23" height="2194.12" viewBox="0 0 1259.23 2194.12"><defs><style>.a{fill:#3b3b3b;}.b{fill:none;}</style></defs><title>3_girl_hair_2</title><path d="M625.35,26.29C450.66,39.26,451.7,215.82,451.7,215.82S430.53,361.59,555.47,393.71c0,0-46.17-33.59-52.58-86.48,1.44,6.3,8.31,19.27,39.87,24,0,0-71.29-85.42,4.94-167.3,28.24,25.41,11.3,57.88-.7,78.35,0,0,56.79-18.93,61.69-85.77,5.9,30.48,30.75,66,61.84,75.19,0,0-19.77-43.77-2.83-72,11.3,36.7,46.37,70.55,82.57,70.55-21.86-20.67-21.86-49.44-6.33-77.67,67.76,63.53,19.51,168,3.29,177,22.59-2.83,33.42-16,33.42-16s1.88,32.94-36.71,73.41c18.64-9.4,91.06-27.18,97.41-147.88C841.35,239.12,844.18,10.06,625.35,26.29Z"/><path d="M752.81,378.26c-.84.42-1.68.86-2.54,1.26A14.61,14.61,0,0,0,752.81,378.26Z"/><path class="a" d="M495.47,107.47C512,83.78,515.78,83.14,530.76,75c0,0,38.12,49.41,88.94,60.71C619.7,135.71,542.06,144.18,495.47,107.47Z"/><path class="a" d="M790.53,104.65C774.05,81,770.21,80.31,755.23,72.18c0,0-38.11,49.41-88.94,60.7C666.29,132.88,743.94,141.35,790.53,104.65Z"/><rect class="b" width="1259.23" height="2194.12"/></svg>