<svg xmlns="http://www.w3.org/2000/svg" width="1259.23" height="2194.12" viewBox="0 0 1259.23 2194.12"><title>3_girl_shose_6</title><g id="Layer_2" data-name="Layer 2"><g id="Layer_141" data-name="Layer 141"><g id="_3_girl_shose_6" data-name="3_girl_shose_6"><polygon points="148.18 2151.71 158.06 2175.71 174.29 2151.71 148.18 2151.71" fill="#b86cb5"/><polygon points="195.47 2156.65 205.35 2180.65 221.59 2156.65 195.47 2156.65" fill="#b86cb5"/><polygon points="240.65 2153.12 250.53 2177.12 266.76 2153.12 240.65 2153.12" fill="#b86cb5"/><polygon points="289.35 2141.82 299.23 2165.82 309.82 2141.82 289.35 2141.82" fill="#b86cb5"/><polygon points="321.12 2110.06 331 2134.06 341.59 2110.06 321.12 2110.06" fill="#b86cb5"/><polygon points="361.35 2094.53 371.23 2118.53 381.82 2094.53 361.35 2094.53" fill="#b86cb5"/><polygon points="405.12 2083.94 415 2107.94 425.59 2083.94 405.12 2083.94" fill="#b86cb5"/><path d="M312.5,2000.75c-1.63-.1-3.27-.23-4.91-.4-9.6-1.6-19.18-5.12-24.68-12.6-4.82,6-35,41-49.41,57.68,8.83,6,19.69,8.1,28.87,14C278.79,2039.68,295.29,2020.56,312.5,2000.75Z" fill="#333166"/><path d="M141.5,2147.15l-.09-.67Z" fill="#fff"/><path d="M141.38,2146.3c0-.25-.07-.49-.1-.74C141.31,2145.81,141.35,2146.05,141.38,2146.3Z" fill="#fff"/><path d="M141.26,2145.39c0-.26-.07-.53-.1-.8C141.19,2144.86,141.22,2145.13,141.26,2145.39Z" fill="#fff"/><path d="M141.62,2148l-.09-.61Z" fill="#fff"/><path d="M141.88,2149.59c0-.21-.07-.43-.1-.66C141.81,2149.16,141.85,2149.38,141.88,2149.59Z" fill="#fff"/><path d="M141.75,2148.76l-.09-.59Z" fill="#fff"/><path d="M141.14,2144.45c0-.29-.07-.59-.11-.89C141.07,2143.86,141.1,2144.16,141.14,2144.45Z" fill="#fff"/><path d="M141,2143.49c0-.33-.07-.66-.1-1C141,2142.83,141,2143.16,141,2143.49Z" fill="#fff"/><path d="M141.78,2148.93l0-.17Z" fill="#fff"/><path d="M141.66,2148.17c0-.07,0-.14,0-.21S141.65,2148.1,141.66,2148.17Z" fill="#fff"/><path d="M141.89,2149.63h0v0Z" fill="#fff"/><polygon points="433.9 2077.78 434.7 2074.98 433.9 2077.78 433.9 2077.78" fill="#fff"/><path d="M141.53,2147.35l0-.2Z" fill="#fff"/><path d="M141.28,2145.56l0-.17Z" fill="#fff"/><path d="M141,2143.56v0Z" fill="#fff"/><path d="M141.41,2146.48l0-.18Z" fill="#fff"/><path d="M140.91,2142.48v0Z" fill="#fff"/><path d="M141.16,2144.59l0-.14Z" fill="#fff"/><path d="M276.47,2042.64q-4.34,5.11-8.65,10.25c7.63,6,15.49,10.24,24.77,14.46,4,3,11,5,9,10-12,24.65-28,46.63-44.11,68.62,7.36-1.23,14.64-2.73,21.8-4.45,15.26-24.34,28.89-49.7,42-75.55C306.63,2057.28,291.58,2049.86,276.47,2042.64Z" fill="#919191"/><path d="M365.4,1993.17c-16.82,5.71-34.41,8.77-52.9,7.58-12.3,14.15-24.23,28-36,41.89,15.11,7.22,30.16,14.64,44.78,23.33-13.08,25.85-26.71,51.21-42,75.55,1.37-.33,2.74-.65,4.09-1,19-16.25,44.55-35.86,59.2-51,17.25-2.3,34.51-4.17,45-16.18A254.54,254.54,0,0,1,430.75,2034C404.55,2030.42,380.05,2015.46,365.4,1993.17Z" fill="#b5b5b5"/><path d="M292.59,2067.35c-9.28-4.22-17.14-8.44-24.77-14.46q-2.13,2.52-4.24,5.05l-2.75.51c-8.83-5.16-19-7.33-27.33-13l-7.68,8.86c-32.47,18.71-60.64,17.42-72,32.18-14.91,19.3-13,40.33-13.23,42.72a64.81,64.81,0,0,0,0,9.65c36.82,12.86,78,13.62,116.89,7.13,16.13-22,32.12-44,44.11-68.62C303.59,2072.35,296.59,2070.35,292.59,2067.35Z" fill="#b5b5b5"/><path d="M377.84,1988.42q-6.15,2.6-12.44,4.75c14.65,22.29,39.15,37.25,65.35,40.8q2.56-1.82,5.17-3.56c-.81-3.51-1.78-7-2.83-10.46C411.78,2017.25,391.59,2005.1,377.84,1988.42Z" fill="#919191"/><path d="M411.55,1970.94a263.4,263.4,0,0,1-33.71,17.48c13.75,16.68,33.94,28.83,55.25,31.53a221.78,221.78,0,0,0-9.12-24.29A269.67,269.67,0,0,0,411.55,1970.94Z" fill="#b5b5b5"/><path d="M301.92,1978.23a15.85,15.85,0,0,1-4.1-7.23c-3.1,2.48-64.3,69.61-72,83.29l4.34,2C253,2029.24,276.64,2002.9,301.92,1978.23Z" fill="#fff"/><path d="M410.76,1969.59c-4.23-9.88-9.88-14.12-9.88-14.12s-42.42,27.44-79.17,28.39c-23.19,26.29-40.42,57-60.79,85.34a19,19,0,0,0,16.78-7.78l38.48-53c29.58,2,64.59-18.86,95.37-37.47C411.05,1970.06,410.76,1969.59,410.76,1969.59Z" fill="#fff"/><path d="M314.76,1983.71c-6.31-.47-10.32-2.88-12.84-5.48-25.28,24.67-48.88,51-71.76,78.07l24.19,11.2a19.12,19.12,0,0,0,6.57,1.7c20.37-28.39,37.6-59,60.79-85.34C319.37,1983.92,317.05,1983.88,314.76,1983.71Z" fill="#f0aaee"/><path d="M280.18,2071.65a5,5,0,0,1-4.21-2.3c-17.71-27.54-42.06-32.69-42.31-32.74a5,5,0,0,1-.8-9.57c1.39-.53,30.81-11.54,58.6-2.85-5-14.91-11.92-28.78-16.73-30a5,5,0,0,1,2.42-9.7c7,1.75,13.49,10.22,19.84,25.87a196.26,196.26,0,0,1,7.08,21.12,5,5,0,0,1-7.14,5.71c-15.59-8.08-33.85-6.92-46.2-4.6,9.87,5.16,22.87,14.58,33.65,31.34a5,5,0,0,1-4.2,7.71Z" fill="#595959"/><path d="M289.7,2056.82a5,5,0,0,1-1.51-.23c-12.28-3.9-47-11.83-60-1.85a5,5,0,1,1-6.07-7.95c15-11.51,45-6,60.28-2.22-4.89-10.57-16.24-25.3-23.91-33.89a5,5,0,0,1,3.72-8.33h.1l54,1.06a5,5,0,0,1-.19,10l-43-.84c8.34,10.39,20.79,27.63,21.59,38.9a5,5,0,0,1-1.89,4.28A5,5,0,0,1,289.7,2056.82Z" fill="#595959"/><path d="M345.82,2100.53l-54,46.59c-66.4,24.59-126.44,9.2-150.17,1,.45,3,.86,4.88.88,5,35.29,31.06,141.17,11.29,152.47,5.64s50.82-52.23,50.82-52.23c25.41,2.82,84.71-16.94,84.71-16.94l2.42-8.46C399.12,2097.77,345.82,2100.53,345.82,2100.53Z" fill="#f0aaee"/><path d="M291.82,2147.12l54-46.59s53.3-2.76,87.13-19.4l.95-3.35.8-2.8,1.48-5.16a49.65,49.65,0,0,0,2.49-13.41,82.57,82.57,0,0,0-1.08-17.43q-.68-4.27-1.67-8.57c-17.69,11.75-33.63,26.32-48.33,42.94-10.51,12-45,16.18-45,16.18-14.65,15.14-40.18,34.75-59.2,51-46,11.66-97.66,14.07-142.78-1.69.25,3.54.67,6.78,1.06,9.28C165.38,2156.32,225.42,2171.71,291.82,2147.12Z" fill="#fff"/><ellipse cx="362.76" cy="2046.53" rx="21.92" ry="16.38" transform="translate(-1712.66 2158.3) rotate(-83.03)" fill="#fff"/><ellipse cx="362.42" cy="2046.23" rx="12.96" ry="8.66" transform="translate(-1712.66 2157.7) rotate(-83.03)" fill="#b5b5b5"/><polygon points="988.9 2147.84 980.86 2172.52 962.86 2149.82 988.9 2147.84" fill="#b86cb5"/><polygon points="942.12 2156.34 934.07 2181.02 916.07 2158.32 942.12 2156.34" fill="#b86cb5"/><polygon points="896.8 2156.24 888.76 2180.91 870.76 2158.21 896.8 2156.24" fill="#b86cb5"/><polygon points="847.38 2148.65 839.34 2173.33 826.97 2150.2 847.38 2148.65" fill="#b86cb5"/><polygon points="813.31 2119.38 805.27 2144.06 792.89 2120.93 813.31 2119.38" fill="#b86cb5"/><polygon points="772.01 2106.93 763.97 2131.61 751.6 2108.48 772.01 2106.93" fill="#b86cb5"/><polygon points="727.57 2099.68 719.53 2124.36 707.16 2101.23 727.57 2099.68" fill="#b86cb5"/><path d="M813.64,2009.74c1.62-.23,3.24-.48,4.87-.77,9.44-2.32,18.73-6.57,23.66-14.44,5.26,5.67,38,38.23,53.62,53.78-8.35,6.68-19,9.57-27.73,16.11C850.2,2046,832.3,2028.18,813.64,2009.74Z" fill="#333166"/><path d="M995.21,2142.79c0-.22,0-.44,0-.67C995.24,2142.35,995.22,2142.57,995.21,2142.79Z" fill="#fff"/><path d="M995.27,2141.93c0-.24,0-.49,0-.74C995.3,2141.44,995.28,2141.69,995.27,2141.93Z" fill="#fff"/><path d="M995.32,2141c0-.26,0-.53,0-.8C995.35,2140.49,995.33,2140.76,995.32,2141Z" fill="#fff"/><path d="M995.15,2143.62c0-.21,0-.41,0-.62C995.18,2143.21,995.16,2143.41,995.15,2143.62Z" fill="#fff"/><path d="M995,2145.26l.06-.67Z" fill="#fff"/><path d="M995.09,2144.42c0-.2,0-.39,0-.6C995.12,2144,995.1,2144.22,995.09,2144.42Z" fill="#fff"/><path d="M995.37,2140.08c0-.3,0-.6,0-.9C995.39,2139.48,995.38,2139.78,995.37,2140.08Z" fill="#fff"/><path d="M995.41,2139.1l0-1Z" fill="#fff"/><path d="M995.07,2144.59l0-.17C995.08,2144.48,995.08,2144.54,995.07,2144.59Z" fill="#fff"/><path d="M995.13,2143.82c0-.06,0-.14,0-.2S995.14,2143.76,995.13,2143.82Z" fill="#fff"/><path d="M995,2145.3h0v0Z" fill="#fff"/><polygon points="698.41 2095.72 697.39 2092.98 698.41 2095.72 698.41 2095.72" fill="#fff"/><path d="M995.19,2143c0-.07,0-.14,0-.21Z" fill="#fff"/><path d="M995.31,2141.19v0Z" fill="#fff"/><path d="M995.41,2139.18v0Z" fill="#fff"/><path d="M995.25,2142.12c0-.06,0-.12,0-.19Z" fill="#fff"/><path d="M995.44,2138.09v0Z" fill="#fff"/><path d="M995.36,2140.22v0Z" fill="#fff"/><path d="M852.73,2048.78q4.71,4.77,9.41,9.57c-7.16,6.58-14.68,11.38-23.61,16.29-3.76,3.29-10.59,5.82-8.22,10.65,13.82,23.67,31.42,44.39,49.17,65.09-7.44-.67-14.81-1.62-22.08-2.79-17-23.12-32.56-47.38-47.56-72.17C823.76,2065.66,838.21,2057.13,852.73,2048.78Z" fill="#919191"/><path d="M760.32,2006.17c17.2,4.42,35,6.14,53.32,3.57,13.33,13.18,26.27,26,39.09,39-14.52,8.35-29,16.88-42.89,26.64,15,24.79,30.51,49,47.56,72.17-1.39-.22-2.78-.44-4.16-.68-20.19-14.77-47.12-32.39-62.88-46.38-17.38-1-34.73-1.55-46.11-12.73a254.85,254.85,0,0,0-46-36C724.09,2046.27,747.39,2029.5,760.32,2006.17Z" fill="#b5b5b5"/><path d="M838.53,2074.64c8.93-4.91,16.45-9.71,23.61-16.29l4.6,4.71,2.78.3c8.42-5.81,18.38-8.74,26.27-15.05,5.05,5,8.33,8.26,8.33,8.26,33.79,16.2,61.78,12.79,74.25,26.64,16.33,18.13,16,39.24,16.42,41.61a64.54,64.54,0,0,1,.7,9.62c-35.74,15.61-76.73,19.47-116,15.94-17.75-20.7-35.35-41.42-49.17-65.09C827.94,2080.46,834.77,2077.93,838.53,2074.64Z" fill="#b5b5b5"/><path d="M747.55,2002.37c4.22,1.42,8.48,2.7,12.77,3.8-12.93,23.33-36.23,40.1-62.08,45.62-1.8-1.07-3.6-2.13-5.42-3.16.54-3.56,1.24-7.12,2-10.64C715.89,2033.69,735.11,2020.05,747.55,2002.37Z" fill="#919191"/><path d="M712.62,1987.49a263.18,263.18,0,0,0,34.93,14.88c-12.44,17.68-31.66,31.32-52.7,35.62a222.87,222.87,0,0,1,7.25-24.91A270.28,270.28,0,0,1,712.62,1987.49Z" fill="#b5b5b5"/><path d="M822.49,1986.48A15.82,15.82,0,0,0,826,1979c3.28,2.24,69.38,64.55,78.09,77.61l-4.18,2.33C875.08,2033.65,849.56,2009.17,822.49,1986.48Z" fill="#fff"/><path d="M713.3,1986.08c3.48-10.17,8.79-14.82,8.79-14.82s44.37,24.16,81.09,22.33c25.11,24.46,44.61,53.73,67.06,80.5a19,19,0,0,1-17.32-6.49l-42.37-49.95c-29.35,4.19-65.84-13.93-97.93-30.16C713.05,1986.58,713.3,1986.08,713.3,1986.08Z" fill="#fff"/><path d="M810.09,1992.91c6.26-.94,10.08-3.65,12.4-6.43,27.07,22.69,52.59,47.17,77.45,72.42l-23.28,13a18.82,18.82,0,0,1-6.42,2.19c-22.45-26.77-42-56-67.06-80.5C805.52,1993.47,807.83,1993.25,810.09,1992.91Z" fill="#f0aaee"/><path d="M851.22,2078a5,5,0,0,0,4-2.61c15.57-28.81,39.47-35.78,39.71-35.85a5,5,0,0,0,.08-9.6c-1.42-.43-31.6-9.18-58.65,1.59,3.83-15.24,9.71-29.6,14.42-31.17a5,5,0,0,0-3.15-9.49c-6.85,2.28-12.68,11.2-17.82,27.3a195.78,195.78,0,0,0-5.47,21.59,5,5,0,0,0,7.55,5.16c14.94-9.24,33.23-9.46,45.72-8.08-9.45,5.88-21.71,16.26-31.19,33.79a5,5,0,0,0,4.77,7.37Z" fill="#595959"/><path d="M840.61,2063.92a4.62,4.62,0,0,0,1.49-.35c11.95-4.81,46-15.34,59.72-6.38a5,5,0,1,0,5.46-8.38c-15.88-10.34-45.38-2.63-60.27,2.34,4.07-10.91,14.28-26.45,21.28-35.6a5,5,0,0,0-4.35-8h-.1l-53.76,5.13a5,5,0,0,0,.95,10l42.79-4.09c-7.53,11-18.64,29.13-18.59,40.42a5,5,0,0,0,5.38,5Z" fill="#595959"/><path d="M788,2111.74l57.37,42.38c68.07,19.51,126.77-.38,149.82-10.35-.23,3-.49,4.93-.5,5.05C961.79,2182.46,854.72,2170.75,843,2166s-54.63-48.24-54.63-48.24c-25.12,4.73-85.74-10.49-85.74-10.49l-3-8.26C734.6,2113,788,2111.74,788,2111.74Z" fill="#f0aaee"/><path d="M845.32,2154.12,788,2111.74S734.6,2113,699.61,2099l-1.2-3.26-1-2.74-1.86-5a49.08,49.08,0,0,1-3.5-13.18,83.16,83.16,0,0,1-.25-17.47c.23-2.87.58-5.77,1-8.67,18.52,10.39,35.51,23.71,51.43,39.17,11.38,11.18,46.11,12.73,46.11,12.73,15.76,14,42.69,31.61,62.88,46.38,46.78,8.15,98.45,6.66,142.25-12.47,0,3.54-.16,6.81-.35,9.33C972.09,2153.74,913.39,2173.63,845.32,2154.12Z" fill="#fff"/><ellipse cx="766.98" cy="2059.18" rx="16.38" ry="21.92" transform="translate(-388.69 190.25) rotate(-11.3)" fill="#fff"/><ellipse cx="767.3" cy="2058.85" rx="8.66" ry="12.96" transform="translate(-388.62 190.31) rotate(-11.3)" fill="#b5b5b5"/><rect width="1259.23" height="2194.12" fill="none"/></g></g></g></svg>