<svg xmlns="http://www.w3.org/2000/svg" width="1259.23" height="2194.12" viewBox="0 0 1259.23 2194.12"><title>3_girl_shose_7</title><g id="Layer_2" data-name="Layer 2"><g id="Layer_141" data-name="Layer 141"><g id="_3_girl_shose_7" data-name="3_girl_shose_7"><path d="M207.59,2102.35c21-2,41-11,53-29a79.88,79.88,0,0,0,11.56-25.59c-1.45,1.71-2.89,3.41-4.33,5.13s-2.83,3.36-4.24,5.05l-2.75.51c-8.83-5.16-19-7.33-27.33-13l-7.68,8.86c-30.71,17.7-57.57,17.51-70,29.92C168.3,2097.82,189.43,2105,207.59,2102.35Z" fill="#505db5"/><path d="M411.55,1970.94a263.4,263.4,0,0,1-33.71,17.48q-6.15,2.6-12.44,4.75c-16.82,5.71-34.41,8.77-52.9,7.58-12.3,14.15-24.23,28-36,41.89l-4.32,5.12a79.88,79.88,0,0,1-11.56,25.59c-12,18-32,27-53,29-18.16,2.6-39.29-4.53-51.8-18.14a22.59,22.59,0,0,0-2,2.26c-14.91,19.3-13,40.33-13.23,42.72a64.81,64.81,0,0,0,0,9.65c28.1,9.82,58.73,12.58,88.95,10.45l-.19-.05s65.75-39.94,76.24-87.89l20.11-36s60.85-9.51,93.35-40.24C415.69,1978.28,412.86,1973.22,411.55,1970.94Z" fill="#3f4a8f"/><path d="M433.09,2020c-2-6.65-4.42-13.1-6.88-19-30.15,17.35-51.75,30.36-89.92,38.21l-15.88,24.35s-23,54-64.25,82.71l1.32-.21c7.36-1.23,14.64-2.73,21.8-4.45,1.37-.33,2.74-.65,4.09-1,9.75-8.33,21.21-17.54,32-26.58,5.35-4.47,10.55-8.89,15.31-13.15,4.4-3.93,8.43-7.73,11.86-11.27,15.8-2.11,31.61-3.86,42.22-13.36a33.89,33.89,0,0,0,2.8-2.82q5.94-6.72,12.18-12.95a240.16,240.16,0,0,1,31-26.43q2.56-1.82,5.17-3.56C435.11,2026.9,434.14,2023.4,433.09,2020Z" fill="#3f4a8f"/><path d="M244.18,2153.47a111.54,111.54,0,0,0,12-7.29c-8.79,1.43-17.69,2.48-26.62,3.11Z" fill="none"/><path d="M320.41,2063.47l15.88-24.35c38.17-7.85,59.77-20.86,89.92-38.21q-1.11-2.7-2.24-5.25c-1.69-3.83-3.36-7.38-4.92-10.55-32.5,30.73-93.35,40.24-93.35,40.24-28.78,57.9-57.34,85.18-96.35,123.89l.19.05c8.93-.63,17.83-1.68,26.62-3.11C297.37,2117.51,320.41,2063.47,320.41,2063.47Z" fill="#6bffd0"/><polygon points="148.18 2151.71 158.06 2175.71 174.29 2151.71 148.18 2151.71" fill="#c49b3f"/><polygon points="195.47 2156.65 205.35 2180.65 221.59 2156.65 195.47 2156.65" fill="#c49b3f"/><polygon points="240.65 2153.12 250.53 2177.12 266.76 2153.12 240.65 2153.12" fill="#c49b3f"/><polygon points="289.35 2141.82 299.23 2165.82 309.82 2141.82 289.35 2141.82" fill="#c49b3f"/><polygon points="321.12 2110.06 331 2134.06 341.59 2110.06 321.12 2110.06" fill="#c49b3f"/><polygon points="361.35 2094.53 371.23 2118.53 381.82 2094.53 361.35 2094.53" fill="#c49b3f"/><polygon points="405.12 2083.94 415 2107.94 425.59 2083.94 405.12 2083.94" fill="#c49b3f"/><path d="M312.5,2000.75c-1.63-.1-3.27-.23-4.91-.4-9.6-1.6-19.18-5.12-24.68-12.6-4.82,6-35,41-49.41,57.68,8.83,6,19.69,8.1,28.87,14C278.79,2039.68,295.29,2020.56,312.5,2000.75Z" fill="#66314a"/><path d="M141.5,2147.15l-.09-.67Z" fill="#fff"/><path d="M141.38,2146.3c0-.25-.07-.49-.1-.74C141.31,2145.81,141.35,2146.05,141.38,2146.3Z" fill="#fff"/><path d="M141.26,2145.39c0-.26-.07-.53-.1-.8C141.19,2144.86,141.22,2145.13,141.26,2145.39Z" fill="#fff"/><path d="M141.62,2148l-.09-.61Z" fill="#fff"/><path d="M141.88,2149.59c0-.21-.07-.43-.1-.66C141.81,2149.16,141.85,2149.38,141.88,2149.59Z" fill="#fff"/><path d="M141.75,2148.76l-.09-.59Z" fill="#fff"/><path d="M141.14,2144.45c0-.29-.07-.59-.11-.89C141.07,2143.86,141.1,2144.16,141.14,2144.45Z" fill="#fff"/><path d="M141,2143.49c0-.33-.07-.66-.1-1C141,2142.83,141,2143.16,141,2143.49Z" fill="#fff"/><path d="M141.78,2148.93l0-.17Z" fill="#fff"/><path d="M141.66,2148.17c0-.07,0-.14,0-.21S141.65,2148.1,141.66,2148.17Z" fill="#fff"/><path d="M141.89,2149.63h0v0Z" fill="#fff"/><polygon points="435.9 2070.78 436.7 2067.98 435.9 2070.78 435.9 2070.78" fill="#fff"/><path d="M141.53,2147.35l0-.2Z" fill="#fff"/><path d="M141.28,2145.56l0-.17Z" fill="#fff"/><path d="M141,2143.56v0Z" fill="#fff"/><path d="M141.41,2146.48l0-.18Z" fill="#fff"/><path d="M140.91,2142.48v0Z" fill="#fff"/><path d="M141.16,2144.59l0-.14Z" fill="#fff"/><path d="M301.92,1978.23a15.85,15.85,0,0,1-4.1-7.23c-3.1,2.48-64.3,69.61-72,83.29l4.34,2C253,2029.24,276.64,2002.9,301.92,1978.23Z" fill="#363636"/><path d="M410.76,1969.59c-4.23-9.88-9.88-14.12-9.88-14.12s-42.42,27.44-79.17,28.39c-23.19,26.29-40.42,57-60.79,85.34a19,19,0,0,0,16.78-7.78l38.48-53c29.58,2,64.59-18.86,95.37-37.47C411.05,1970.06,410.76,1969.59,410.76,1969.59Z" fill="#363636"/><path d="M314.76,1983.71c-6.31-.47-10.32-2.88-12.84-5.48-25.28,24.67-48.88,51-71.76,78.07l24.19,11.2a19.12,19.12,0,0,0,6.57,1.7c20.37-28.39,37.6-59,60.79-85.34C319.37,1983.92,317.05,1983.88,314.76,1983.71Z" fill="#6bffd0"/><path d="M250.73,2032.6a84.36,84.36,0,0,1,12.86,8.33,170.24,170.24,0,0,1,18.77,3.64,98.77,98.77,0,0,0-7.93-13.44q-3.07-.24-6.06-.24A96.79,96.79,0,0,0,250.73,2032.6Z" fill="none"/><path d="M287.19,2012.84l-14.09-.27c2.13,2.65,4.53,5.75,6.93,9.09a71.48,71.48,0,0,1,11.43,2.53C290.15,2020.27,288.7,2016.41,287.19,2012.84Z" fill="none"/><path d="M257.82,2044.88c4.95,4.49,15.27,16.29,19.83,23.39a3,3,0,0,0,4.15.9,3,3,0,0,0,.9-4.15c-3-4.64-13.11-17.78-19.23-19.67C260.24,2044.69,261.35,2045.37,257.82,2044.88Z" fill="#c49b3f"/><path d="M287,2009.59c2,4.76,5.78,12.24,6.35,14l1.24,3.71-3.73-1.17c-2.94-.92-12.91-3.28-16.1-3.81,1.62,2.32,4.16,6,5.65,8.47,4.1,1.07,13.89,2.82,17.44,4.67a3,3,0,0,0,4.28-3.43c-.1-.39-4.73-15-8.54-24.76Z" fill="#c49b3f"/><path d="M287,2009.59l6.59-2.35c-4.85-9.7-11.94-19.55-16.92-20.8a3,3,0,0,0-.73-.09,3,3,0,0,0-2.91,2.27,3,3,0,0,0,.34,2.28,3,3,0,0,0,1.84,1.36C278.43,1993.07,284.1,2004.28,287,2009.59Z" fill="#c49b3f"/><path d="M234.06,2034.65c.11,0,12.81,5.71,20.47,9.76.49,0,2.8.47,3.29.47,3.62,0,2.08.11,5.65.47-3.55-2.56-10.74-9.45-13.67-11l-5.12-2.68,5.68-1.06a97.89,97.89,0,0,1,18-1.75c1.56,0,9.59-1,11.1-1-1.47-2.08-3.17-3.63-4.71-5.65l-6.47.57a107.57,107.57,0,0,0-34.72,6,3,3,0,0,0,.49,5.75Z" fill="#c49b3f"/><path d="M319.17,2008.47a3,3,0,0,0-2.94-3.06l-54-1.06h-.06a3,3,0,0,0-2.23,5c8.33,9.33,19.46,24.07,24.23,34.38l1.76,3.8-4.06-1c-8.42-2.12-21-4.64-33.08-4.64-11.27,0-19.84,2.19-25.5,6.51a3,3,0,1,0,3.65,4.77c4.55-3.48,11.76-5.25,21.42-5.25,15.06,0,32.5,4.26,40.44,6.78a2.77,2.77,0,0,0,.9.14,3.06,3.06,0,0,0,1.86-.64,3,3,0,0,0,1.14-2.57c-.58-8.09-8.09-21.51-21.16-37.79l-2.68-3.34,4.28.09,43,.84h.06A3,3,0,0,0,319.17,2008.47Z" fill="#c49b3f"/><path d="M345.82,2097.53l-54,49.59c-66.4,24.59-126.44,9.2-150.17,1,.45,3,.86,4.88.88,5,35.29,31.06,141.17,11.29,152.47,5.64s50.82-52.23,50.82-52.23c25.41,2.82,84.71-16.94,84.71-16.94l4.42-15.46C401.12,2090.77,345.82,2097.53,345.82,2097.53Z" fill="#363636"/><path d="M291.82,2147.12l54-49.59s55.3-6.76,89.13-23.4c0,0,5.61-23.64,1-43.72-17.69,11.75-33.63,26.32-48.33,42.94-10.51,12-45,16.18-45,16.18-14.65,15.14-40.18,34.75-59.2,51-46,11.66-97.66,14.07-142.78-1.69.25,3.54.67,6.78,1.06,9.28C165.38,2156.32,225.42,2171.71,291.82,2147.12Z" fill="#6bffd0"/><path d="M926.65,2106.23c-21.09-.47-41.69-8-55-25.07a79.9,79.9,0,0,1-13.39-24.69c1.57,1.6,3.13,3.19,4.69,4.8l4.59,4.73,2.79.31c8.43-5.79,18.4-8.69,26.31-15l8.3,8.29c31.91,15.42,58.69,13.28,72,24.76C965.51,2098.86,945,2107.5,926.65,2106.23Z" fill="#505db5"/><path d="M713.69,1990a263.78,263.78,0,0,0,34.88,15c4.22,1.42,8.47,2.72,12.76,3.83,17.19,4.47,35,6.25,53.31,3.73,13.29,13.22,26.19,26.13,39,39.16q2.35,2.39,4.69,4.79a79.9,79.9,0,0,0,13.39,24.69c13.27,17.08,33.87,24.6,55,25.07,18.3,1.27,38.86-7.37,50.34-21.85a22.67,22.67,0,0,1,2.17,2.1c16.27,18.17,15.91,39.28,16.29,41.65a63.48,63.48,0,0,1,.67,9.63c-27.31,11.83-57.66,16.8-88,16.88l.18-.07s-68.47-35.06-82.41-82.12L803.26,2038s-61.38-5.07-96-33.36C710.09,1997.59,712.55,1992.34,713.69,1990Z" fill="#3f4a8f"/><path d="M695.77,2040.42c1.54-6.78,3.45-13.38,5.47-19.49,31.33,15.11,53.82,26.52,92.46,31.58l17.61,23.13s26.9,52.23,70.08,77.83l-1.33-.12c-7.43-.69-14.8-1.66-22.07-2.85-1.38-.23-2.77-.45-4.15-.69-10.33-7.6-22.42-15.95-33.87-24.18-5.67-4.07-11.17-8.11-16.23-12-4.67-3.6-9-7.09-12.64-10.38-15.92-.95-31.81-1.55-43.09-10.26a34.55,34.55,0,0,1-3-2.6q-6.4-6.27-13.09-12a239.06,239.06,0,0,0-32.81-24.11c-1.79-1.08-3.6-2.15-5.42-3.17C694.26,2047.49,695,2043.94,695.77,2040.42Z" fill="#3f4a8f"/><path d="M893.87,2159.87a112.9,112.9,0,0,1-12.48-6.4c8.87.78,17.82,1.19,26.78,1.17Z" fill="none"/><path d="M811.31,2075.64l-17.61-23.13c-38.64-5.06-61.13-16.47-92.46-31.58.61-1.85,1.23-3.66,1.86-5.4,1.4-3.94,2.81-7.6,4.13-10.88,34.65,28.29,96,33.36,96,33.36,32.91,55.65,63.37,80.79,105.09,116.56l-.18.07c-9,0-17.91-.39-26.78-1.17C838.21,2127.87,811.31,2075.64,811.31,2075.64Z" fill="#6bffd0"/><polygon points="989.49 2151.14 981.38 2175.8 963.44 2153.04 989.49 2151.14" fill="#c49b3f"/><polygon points="942.68 2159.5 934.57 2184.16 916.63 2161.4 942.68 2159.5" fill="#c49b3f"/><polygon points="897.37 2159.26 889.25 2183.92 871.32 2161.16 897.37 2159.26" fill="#c49b3f"/><polygon points="847.97 2151.53 839.86 2176.19 827.55 2153.02 847.97 2151.53" fill="#c49b3f"/><polygon points="813.98 2122.16 805.87 2146.81 793.57 2123.64 813.98 2122.16" fill="#c49b3f"/><polygon points="772.73 2109.59 764.61 2134.25 752.31 2111.08 772.73 2109.59" fill="#c49b3f"/><polygon points="728.31 2102.21 720.2 2126.86 707.89 2103.7 728.31 2102.21" fill="#c49b3f"/><path d="M814.64,2012.52c1.62-.23,3.24-.47,4.87-.76,9.45-2.29,18.75-6.51,23.7-14.36,5.25,5.68,37.87,38.34,53.47,53.93-8.38,6.66-19.06,9.52-27.78,16C851.09,2048.9,833.25,2031,814.64,2012.52Z" fill="#66314a"/><path d="M995.82,2146.11c0-.22,0-.45,0-.68C995.85,2145.66,995.83,2145.89,995.82,2146.11Z" fill="#fff"/><path d="M995.88,2145.25c0-.24,0-.49,0-.74C995.91,2144.76,995.89,2145,995.88,2145.25Z" fill="#fff"/><path d="M995.93,2144.34c0-.26,0-.53.05-.8C996,2143.81,996,2144.08,995.93,2144.34Z" fill="#fff"/><path d="M995.75,2146.93c0-.2,0-.4,0-.61C995.79,2146.53,995.77,2146.73,995.75,2146.93Z" fill="#fff"/><path d="M995.61,2148.58l.06-.67Z" fill="#fff"/><path d="M995.69,2147.73c0-.19,0-.39,0-.59C995.72,2147.35,995.7,2147.54,995.69,2147.73Z" fill="#fff"/><path d="M996,2143.4c0-.3,0-.6,0-.9C996,2142.8,996,2143.1,996,2143.4Z" fill="#fff"/><path d="M996,2142.42l0-1Z" fill="#fff"/><path d="M995.67,2147.91l0-.18C995.68,2147.79,995.68,2147.85,995.67,2147.91Z" fill="#fff"/><path d="M995.74,2147.14c0-.07,0-.14,0-.21S995.74,2147.07,995.74,2147.14Z" fill="#fff"/><path d="M995.61,2148.62h0v0Z" fill="#fff"/><polygon points="696.65 2091.32 695.65 2088.58 696.65 2091.32 696.65 2091.32" fill="#fff"/><path d="M995.8,2146.32c0-.07,0-.14,0-.21Z" fill="#fff"/><path d="M995.92,2144.51v0Z" fill="#fff"/><path d="M996,2142.5v0Z" fill="#fff"/><path d="M995.86,2145.43c0-.06,0-.12,0-.18Z" fill="#fff"/><path d="M996.07,2141.41v0Z" fill="#fff"/><path d="M996,2143.54v0Z" fill="#fff"/><path d="M823.56,1989.29a15.85,15.85,0,0,0,3.56-7.51c3.27,2.25,69.19,64.75,77.86,77.84l-4.18,2.32C876,2036.61,850.56,2012.06,823.56,1989.29Z" fill="#363636"/><path d="M714.38,1988.57c3.5-10.17,8.83-14.8,8.83-14.8s44.29,24.29,81,22.57c25,24.53,44.45,53.86,66.82,80.7a19,19,0,0,1-17.3-6.55l-42.22-50.07c-29.37,4.1-65.79-14.12-97.84-30.45C714.13,1989.06,714.38,1988.57,714.38,1988.57Z" fill="#363636"/><path d="M811.15,1995.68c6.26-.93,10.08-3.62,12.41-6.39,27,22.77,52.45,47.32,77.24,72.65l-23.32,12.92a18.85,18.85,0,0,1-6.43,2.18c-22.37-26.84-41.79-56.17-66.82-80.7Q807.74,1996.18,811.15,1995.68Z" fill="#6bffd0"/><path d="M878.56,2039.8a85.38,85.38,0,0,0-12.22,9.23,170.64,170.64,0,0,0-18.45,5,98.47,98.47,0,0,1,6.93-14q3-.46,6-.68A96.68,96.68,0,0,1,878.56,2039.8Z" fill="none"/><path d="M840.76,2022.74l14-1.3c-1.93,2.8-4.09,6.07-6.25,9.57a70.3,70.3,0,0,0-11.21,3.36C838.35,2030.35,839.51,2026.41,840.76,2022.74Z" fill="none"/><path d="M872.38,2052.56c-4.61,4.83-14,17.35-18.08,24.76a3,3,0,0,1-5.27-2.87c2.64-4.84,11.79-18.69,17.75-21C870,2052.54,868.89,2053.31,872.38,2052.56Z" fill="#c49b3f"/><path d="M840.72,2019.48c-1.63,4.89-4.88,12.63-5.33,14.39l-1,3.79,3.64-1.43c2.86-1.14,12.63-4.21,15.77-5-1.44,2.43-3.71,6.33-5,8.86-4,1.36-13.65,3.82-17.06,5.92a3,3,0,0,1-4.52-3.11c.07-.4,3.63-15.29,6.73-25.32Z" fill="#c49b3f"/><path d="M840.72,2019.48l-6.74-1.87c4.12-10,10.48-20.36,15.36-22a3.06,3.06,0,0,1,.72-.14,3,3,0,0,1,1.15,5.84C848.07,2002.38,843.22,2014,840.72,2019.48Z" fill="#c49b3f"/><path d="M895.34,2040.63c-.12,0-12.37,6.62-19.71,11.22-.49,0-2.76.67-3.25.71-3.61.26-2.06.25-5.6.88,3.36-2.81,10-10.2,12.83-11.94l4.92-3-5.74-.65a97.77,97.77,0,0,0-18.09-.43c-1.56.11-9.64-.34-11.14-.15,1.31-2.18,2.9-3.85,4.28-6l6.5.1a107.18,107.18,0,0,1,35.06,3.5,3,3,0,0,1-.06,5.77Z" fill="#c49b3f"/><path d="M808.55,2020.7a3,3,0,0,1,.67-2.2,3.06,3.06,0,0,1,2-1.07l53.78-5h.06a3,3,0,0,1,2.59,4.83c-7.63,9.9-17.67,25.41-21.67,36l-1.48,3.91,4-1.31c8.25-2.72,20.61-6.16,32.66-7,11.24-.82,20,.74,25.9,4.64a3,3,0,1,1-3.29,5c-4.79-3.14-12.11-4.38-21.74-3.68-15,1.1-32.11,6.61-39.84,9.7a2.81,2.81,0,0,1-.9.21,3,3,0,0,1-3.22-3c0-8.11,6.51-22,18.36-39.23l2.43-3.52-4.26.4-42.8,4h-.07A3,3,0,0,1,808.55,2020.7Z" fill="#c49b3f"/><path d="M788.43,2111.46,845.89,2157c68,19.71,126.78,0,149.85-9.9-.24,3-.5,4.93-.51,5-33,33.54-140,21.51-151.66,16.7s-54.48-48.41-54.48-48.41c-25.14,4.66-85.72-10.74-85.72-10.74l-5.52-15.1C732.8,2108.73,788.43,2111.46,788.43,2111.46Z" fill="#363636"/><path d="M845.89,2157l-57.46-45.53s-55.63-2.73-90.58-16.87c0,0-7.32-23.17-4.15-43.53,18.49,10.43,35.45,23.8,51.32,39.32,11.35,11.21,46.08,12.86,46.08,12.86,15.71,14,42.59,31.74,62.74,46.57,46.75,8.29,98.43,7,142.28-12,0,3.54-.17,6.8-.38,9.33C972.67,2157,913.9,2176.7,845.89,2157Z" fill="#6bffd0"/><rect width="1259.23" height="2194.12" fill="none"/></g></g></g></svg>