<svg xmlns="http://www.w3.org/2000/svg" width="1259.23" height="2194.12" viewBox="0 0 1259.23 2194.12"><title>3_girl_pant_1</title><g id="Layer_2" data-name="Layer 2"><g id="Layer_141" data-name="Layer 141"><g id="_3_girl_pant_1" data-name="3_girl_pant_1"><path d="M815.49,1955.08c-9.37-121.35,16-335.61,16-335.61,33.88-200.47,76.23-279.53,59.29-495.53-7.39-94.25-66.69-178.35-77.26-192.67-143.63,77.19-300.38,12.67-300.38,12.67l-.38-.1c-94.83,151.09-65.27,255.78-67.39,363.63s-36,254.12-36,254.12c-27.14,62.26-79.94,265.33-102.32,361.52.19.08,55.73,26,122.5,18.59a590.16,590.16,0,0,1,14.32-59.84,484.59,484.59,0,0,1,42.42-100.6c31.28-56.24,31.71-113,28-146.32a110.24,110.24,0,0,1,11.11-62c69.56-137.17,106.29-236.09,138.2-370.25,10.8,39.88,38.48,276.67,49.9,376.77a121,121,0,0,1-13,69.46c-21.07,40.61-28.78,106.25-19.84,153.06,18,94.24,18.07,131.44,21.91,156.66C730.29,1963.75,787.54,1960.27,815.49,1955.08Z" fill="#fff"/><path d="M543.43,953.82a292,292,0,0,1-30.31-9.88l-.38-.1c-36.51,58.16-54.57,109.45-63.11,156.69C499.58,1067.3,524.45,1010.26,543.43,953.82Z" fill="#bbb3a5"/><path d="M886.51,1093c-15.73-81.1-63.62-149-73-161.68a305.27,305.27,0,0,1-37.43,17c.16.38.33.75.52,1.12C800.79,1004.69,832.48,1063.75,886.51,1093Z" fill="#bbb3a5"/><path d="M684.53,1009.06l-50.94.11,0,3.94c-.07,6.14-1.69,150.46-1.67,156.77l7.5,0c0-5.67,1.36-128.91,1.63-152.71l36.24-.07,4.28,148.58,7.5-.25Z" fill="#bbb3a5"/><path d="M663.59,1202.65s-59.5-28.13-103.48-68.05a4.44,4.44,0,0,1,4.72-7.37c37.3,15.91,115.58,63.77,216.46-2,4.09-2.67,8.21,4,4.65,7.36A312.41,312.41,0,0,1,663.59,1202.65Z" fill="#bbb3a5"/><path d="M766.69,1630.61a8,8,0,0,0-9.67,8.53c1.15,12.11,5.19,30,18.68,36.8,14.15,7.07,24.51-18.91,29.83-37a8,8,0,0,0-10.06-9.82A57.11,57.11,0,0,1,766.69,1630.61Z" fill="#bbb3a5"/><path d="M463.67,1612.35a59,59,0,0,1-26.55-11.2c-5.11-3.79-12.38-.72-12.71,5.46-1,18.19.13,45.31,15.75,43.76,14.92-1.48,24.66-16.37,29.76-27C472.19,1618.69,469,1613.15,463.67,1612.35Z" fill="#bbb3a5"/><path d="M840.43,973.3a432.74,432.74,0,0,0-26.93-42c-143.63,77.19-300.38,12.67-300.38,12.67l-.38-.1c-8.72,13.89-16.38,27.39-23.12,40.54C530,1003.09,681.91,1061.94,840.43,973.3Z" fill="#57432e"/><path d="M567.47,959.69c-5.47,15.55-11.25,31-16.51,46.69,4.69,1.27,9.59,2.5,14.65,3.69,3.67-16.37,7.66-32.56,12.93-48.16C574.72,961.19,571,960.45,567.47,959.69Z" fill="#fff"/><path d="M688.36,967.78a389.75,389.75,0,0,1-65.64.06,440.69,440.69,0,0,0-1.57,51.29,389.19,389.19,0,0,0,69.21.4A410.82,410.82,0,0,1,688.36,967.78Z" fill="#bbb3a5"/><path d="M759.71,953.86c4.93,16.08,10.44,32.21,14.63,48.56q7.38-2.43,14.84-5.24C785,980.82,779,965.07,773.93,949Q766.81,951.63,759.71,953.86Z" fill="#fff"/><path d="M638.84,1177.67a16.2,16.2,0,0,0-.25,2.68c-2.15,65.71-8.89,131.42-25.68,194.58,19.84-54.73,35.79-109.67,50.68-172.28,7.63,28.18,23.69,154.69,36.49,261.82-3.27-93.73-11.68-187.64-23.35-280.61C664.1,1184,651.47,1178.23,638.84,1177.67Z" fill="#bbb3a5"/><rect width="1259.23" height="2194.12" fill="none"/></g></g></g></svg>