<svg xmlns="http://www.w3.org/2000/svg" width="1259.23" height="2194.12" viewBox="0 0 1259.23 2194.12"><defs><style>.a{fill:#61341c;opacity:0.4;}.b{fill:#823037;}.c{fill:#fff;}.d{fill:none;}</style></defs><title>3_girl_Glasses_3_2</title><path class="a" d="M801.11,262.29a5.07,5.07,0,0,0-6.39-4.61l-24,6.47a51.57,51.57,0,0,0-98.14,4,93.42,93.42,0,0,0-50.56-.34,51.58,51.58,0,0,0-98.44-5.09l-23.95-6.48a5.07,5.07,0,0,0-6.38,4.62,5.18,5.18,0,0,0,3.93,5.22l23.86,6.45a51.61,51.61,0,0,0,47.61,59.4,51.64,51.64,0,0,0,54.95-51.47c0-.85,0-1.69-.07-2.52a83.54,83.54,0,0,1,47.32.28c-.09,1.21-.14,2.43-.14,3.67a51.58,51.58,0,0,0,102.91,5,52.23,52.23,0,0,0-.36-13l23.87-6.45A5.19,5.19,0,0,0,801.11,262.29ZM575.85,321.73a41.45,41.45,0,1,1,37.49-37.49A41.49,41.49,0,0,1,575.85,321.73Zm150.27,1.43a41.44,41.44,0,1,1,37.49-37.49A41.49,41.49,0,0,1,726.12,323.16Z"/><path class="b" d="M801.11,257.29a5.07,5.07,0,0,0-6.39-4.61l-24,6.47a51.57,51.57,0,0,0-98.14,4,93.42,93.42,0,0,0-50.56-.34,51.58,51.58,0,0,0-98.44-5.09l-23.95-6.48a5.07,5.07,0,0,0-6.38,4.62,5.18,5.18,0,0,0,3.93,5.22l23.86,6.45a51.61,51.61,0,0,0,47.61,59.4,51.64,51.64,0,0,0,54.95-51.47c0-.85,0-1.69-.07-2.52a83.54,83.54,0,0,1,47.32.28c-.09,1.21-.14,2.43-.14,3.67a51.58,51.58,0,0,0,102.91,5,52.23,52.23,0,0,0-.36-13l23.87-6.45A5.19,5.19,0,0,0,801.11,257.29ZM575.85,316.73a41.45,41.45,0,1,1,37.49-37.49A41.49,41.49,0,0,1,575.85,316.73Zm150.27,1.43a41.44,41.44,0,1,1,37.49-37.49A41.49,41.49,0,0,1,726.12,318.16Z"/><path class="c" d="M584.32,240.8c8.55,4,21,12.63,21.72,28.39a2.35,2.35,0,0,1-4.21,1.51l-20.36-26.33A2.35,2.35,0,0,1,584.32,240.8Z"/><path class="c" d="M735.07,242.7c8.54,4.06,21,12.64,21.72,28.4a2.35,2.35,0,0,1-4.21,1.5l-20.37-26.32A2.36,2.36,0,0,1,735.07,242.7Z"/><rect class="d" width="1259.23" height="2194.12"/></svg>