<svg xmlns="http://www.w3.org/2000/svg" width="1259.23" height="2194.12" viewBox="0 0 1259.23 2194.12"><title>3_girl_shrit_2</title><g id="Layer_2" data-name="Layer 2"><g id="Layer_141" data-name="Layer 141"><g id="_3_girl_shrit_2" data-name="3_girl_shrit_2"><path d="M796.88,608.65C736.88,601.59,643.7,627,643.7,627c-63.52-14.12-138.82-5.29-138.82-5.29C472.14,661.28,480.07,738.92,484,765.8c1.6-.13,3.22-.28,4.85-.45,0,0,13.65,40.24,15.06,48s4.94,50.83-2.35,76.24c-5.93,20.63-13.18,48.7,11.53,54.35,0,0,157.76,64.94,301.76-13.41,0,0,24.35-9.53,12.71-44.47s-7.41-102.71-7.41-102.71l5.29-33.88s.75-.11,2.14-.37C844.57,669.12,796.88,608.65,796.88,608.65Z" fill="#fff"/><path d="M422.53,562.59c-34.3,94.23-29.35,189.53-29.35,189.53S432.3,769.88,484,765.8c-4-26.88-11.89-104.52,20.85-144.09l1.88-.21c-23.9-26.18-47-54-65.14-84.45C432.84,544.45,426.05,552.92,422.53,562.59Z" fill="#874071"/><path d="M752.41,491l-39.18-13.65-37.76,36-24.94,1.06-23.77.35-42.7-31.05-28.59,8.35c-21.37,4.67-81.28,17.48-113.85,45,18.11,30.47,41.24,58.27,65.14,84.45,12-1.23,79.31-7.31,136.94,5.5,0,0,88.65-24.17,148.7-18.81,21.64-25.34,41.67-52,60.68-79.25C832.08,511.89,799,499,752.41,491Z" fill="#ac518f"/><path d="M912.47,711.35s-25.41-127.06-36.23-152.69c-4.63-11-12.28-20.9-23.16-29.72-19,27.29-39,53.91-60.68,79.25,1.51.14,3,.28,4.48.46,0,0,47.69,60.47,30.73,140.45C837.05,747.34,876.17,738.73,912.47,711.35Z" fill="#874071"/><path d="M501.49,778.13c1.7,4.26,3.91,9.49,6.38,14.63a29.87,29.87,0,0,0,30.71,16.62c42.7-5.44,151.87-17.14,240.29-7.8a29.87,29.87,0,0,0,31.4-19.78c2.56-7.34,4.85-15.33,5.63-22.11a5.18,5.18,0,0,0-7.19-5.4c-28.93,12.62-143.39,55.07-301.17,16.91A5.18,5.18,0,0,0,501.49,778.13Z" fill="#bbb3a5"/><path d="M504.88,621.71s-26.73,34.57-28,93.86c-.73,35,9.32,57.47,26.37,94.32h0S487.59,768.25,487,716C486.7,687.36,490.21,651.6,504.88,621.71Z" fill="#702759"/><path d="M796.88,608.65c47.29,83.29,20.3,169.71,23.29,174.7C859.7,682.06,796.88,608.65,796.88,608.65Z" fill="#702759"/><path d="M393.18,752.12s40,18.14,92.53,13.53c-1-3.16-1.88-6.36-2.71-9.58C447.47,764.65,393.18,752.12,393.18,752.12Z" fill="#702759"/><path d="M827.61,739.67c-.13,4.15-.15,5.3,0,9.46,9.78-1.71,48.36-10.26,84.82-37.74C892.23,723.1,847.45,736.31,827.61,739.67Z" fill="#702759"/><path d="M546.85,682.58c-1.39-17.65-18.13-10.88-27.84-5.82a1.85,1.85,0,0,0-.33.21c-38.91,30,50.84,35.26-1.51,37.47a2,2,0,0,0-1.93,2.35c4.78,27.1,48.1.5,40.77-14.58a1.91,1.91,0,0,0-.64-.74c-26-18.88-32.4-13-10.23-16.72A2.06,2.06,0,0,0,546.85,682.58Z" fill="#ac518f"/><path d="M587.45,661.17v0a2,2,0,0,0-2.22-1.81l-17.6,1.8a2,2,0,0,0-1.81,2.22L573,733.49a2,2,0,0,0,2.23,1.81l17.59-1.8a2,2,0,0,0,1.81-2.23l-2.34-23a2,2,0,0,1,2.82-2.07c31.49,14.09,32.56-24.32,31.61-27C618,645.77,598.32,656,590.82,662.48A2,2,0,0,1,587.45,661.17Zm17.37,20.91c-33.82,19.39-3.26-29,0,0Z" fill="#ac518f"/><path d="M634.93,675.78c-9.95,47.16,63.15,41.71,59.52,7.1l0-.21C686.88,638,633.18,660.68,634.93,675.78Zm37.45,7.09c-.91,9-4.17,11.41-7.19,11.93a2.05,2.05,0,0,1-1.52-.36C641.43,678.38,673.24,662.93,672.38,682.87Z" fill="#ac518f"/><path d="M731.06,661l.06-.46a2,2,0,0,0-1.76-2.27l-17.55-2.2a2,2,0,0,0-2.27,1.76l-5.86,46.65a2,2,0,0,0,1.76,2.26l17.36,2.19a2,2,0,0,0,2.28-1.9c.71-14.53,5.29-37,19.47-29.46a2,2,0,0,0,2.86-1.12c5.41-15.82-5.81-18.9-13.19-13.52A2,2,0,0,1,731.06,661Z" fill="#ac518f"/><path d="M797.5,675.22l-6.58-1.78a2,2,0,0,1-1.43-2.49l2.85-10.57a2,2,0,0,0-2-2.56c-8.42,0-21.23-3.3-22.11,7a2,2,0,0,1-2.54,1.84l-3.42-.92a2,2,0,0,0-2.49,1.43L757,677.43a2,2,0,0,0,1.43,2.49l3.56,1a2,2,0,0,1,1.31,2.82c-10.92,22.78,1.88,43.52,21.71,40.89a2,2,0,0,0,1.65-1.48l2.85-10.57a2,2,0,0,0-1.7-2.54c-13.51-1.65-4.47-12.69-2.92-20.66a2,2,0,0,1,2.53-1.6l6.22,1.68a2,2,0,0,0,2.49-1.43l2.78-10.28A2,2,0,0,0,797.5,675.22Z" fill="#ac518f"/><path d="M641.47,515.47h19.76a0,0,0,0,1,0,0v74.82a9.88,9.88,0,0,1-9.88,9.88h0a9.88,9.88,0,0,1-9.88-9.88V515.47A0,0,0,0,1,641.47,515.47Z" fill="#bbb3a5"/><path d="M599.65,455.12l-.36,13.76c9,14.3,30.31,38.06,51.24,45.53,0,0-29.53,21.54-46,36.92a9.6,9.6,0,0,1-13.48-.35c-12.09-12.59-37-39.88-44.89-59.37a6.94,6.94,0,0,1,3.73-9C561,478,584.22,467.08,599.65,455.12Z" fill="#fff"/><path d="M701.68,452l.35,13.76c-8.94,14.3-30.57,41.17-51.5,48.64,0,0,30.8,18.43,47.23,33.81a9.6,9.6,0,0,0,13.48-.35c12.1-12.59,37-39.88,44.89-59.37a6.94,6.94,0,0,0-3.72-9C741.38,474.84,717.11,464,701.68,452Z" fill="#fff"/><path d="M565.59,495.35c9.35-11.05,22.32-17.77,34.6-25.07-.31-.47-.61-.94-.9-1.4l.36-13.76c-15.43,12-38.7,22.83-49.73,27.46a6.94,6.94,0,0,0-3.73,9c3.78,9.28,11.4,20.33,19.65,30.72C561.31,512.75,559.11,503,565.59,495.35Z" fill="#bbb3a5"/><path d="M752.41,479.47c-11-4.63-35.3-15.49-50.73-27.46l.35,13.76c-1.17,1.88-2.57,4-4.16,6.23,14.76,8.53,34.08,14.81,37.72,29.35,1.59,7.33.33,14.86-2.69,22.3,9.57-11.61,18.91-24.54,23.23-35.15A6.94,6.94,0,0,0,752.41,479.47Z" fill="#bbb3a5"/><rect width="1259.23" height="2194.12" fill="none"/></g></g></g></svg>