<svg xmlns="http://www.w3.org/2000/svg" width="1259.23" height="2194.12" viewBox="0 0 1259.23 2194.12"><title>3_girl_face_3</title><g id="Layer_2" data-name="Layer 2"><g id="Layer_141" data-name="Layer 141"><g id="_3_girl_face_3" data-name="3_girl_face_3"><path d="M514.35,268.76s-15.88-33.88-37.06-5.29c-22.83,30.83,9.53,87.88,48.71,88.94Z" fill="#a1694a"/><path d="M781.65,268.76s15.88-33.88,37.06-5.29c22.83,30.83-9.53,87.88-48.71,88.94Z" fill="#a1694a"/><path d="M512.06,277.24s-21.18-12.71-24.36,6.35,15.89,43.41,31.77,42.35Z" fill="#804c30"/><path d="M783.77,278.29s21.17-12.7,24.35,6.36S792.24,328.06,776.35,327Z" fill="#804c30"/><path d="M500.23,257.12c.19,3.34,6.36,86.82,28.59,117.53C543.56,395,572.45,424.12,628,444.41a59.22,59.22,0,0,0,40.46.09c33.32-12.06,94.81-43.22,114.79-110.09,27.53-92.12.94-180,.94-180S764.06,67.59,641.23,72.88C532.19,77.58,493.88,145.94,500.23,257.12Z" fill="#b27c5e"/><rect width="1259.23" height="2194.12" fill="none"/></g></g></g></svg>