<?xml version="1.0" encoding="UTF-8"?>
<svg width="1260px" height="2195px" viewBox="0 0 1260 2195" xmlns="http://www.w3.org/2000/svg" xmlns:xlink="http://www.w3.org/1999/xlink" version="1.1">
 <!-- Generated by Pixelmator Pro 1.7.1 -->
 <path id="Path-copy" d="M657.2 24.4 C657.2 34 645.9 41.7 632 41.7 618.1 41.7 606.8 33.9 606.8 24.4 606.8 14.9 618.1 7 632 7 645.9 7 657.2 14.8 657.2 24.4" fill="#000000" fill-opacity="1" stroke="none"/>
 <path id="Path-1-copy" d="M512.6 147.2 C506 105.2 521 69.8 543 37.2 469.9 68.1 444.3 135.5 444 234.2 L539.5 191.7 543.1 190.1 C527.7 180.4 515.8 166.5 512.6 147.2 Z" fill="#1e1e1e" fill-opacity="1" stroke="none"/>
 <path id="Path-2-copy" d="M731.7 32.8 C743 44.2 752.7 57 758.6 73.2 770.6 105.2 771.6 142.2 748.6 171.2 745.6 174.8 742.5 178.3 739.2 181.7 L838.2 209.9 C836.8 108.3 788.2 55.9 731.7 32.8 Z" fill="#1e1e1e" fill-opacity="1" stroke="none"/>
 <path id="Path-3-copy" d="M758.6 73.2 C752.7 57 743 44.3 731.7 32.8 701.4 20.4 668.9 16.5 640.2 18.1 637.1 18.3 634.1 18.5 631.2 18.8 625.3 19.2 619.6 19.6 614 20.2 586.4 23 562.9 28.8 542.9 37.2 520.9 69.8 505.9 105.2 512.5 147.2 515.7 166.5 527.6 180.4 543 190.1 L631.1 150.9 728 178.5 739.1 181.6 C742.3 178.2 745.5 174.7 748.5 171.1 771.6 142.2 770.6 105.2 758.6 73.2 Z" fill="#000000" fill-opacity="1" stroke="none"/>
 <path id="Path-4-copy" d="M444 234.2 C444 234.2 530.1 142.8 646.3 144 762.5 145.2 838.2 209.9 838.2 209.9 838.2 209.9 822 295.5 696.9 217.6 658.6 193.7 615.3 201.9 578.9 229.5 471.9 310.6 444 234.2 444 234.2" fill="#686868" fill-opacity="1" stroke="none"/>
 <path id="Path-5-copy" d="M780.7 232.2 C792.4 231.5 810.7 227.3 821.6 209.4 822.5 207.8 822.1 205.8 820.5 204.8 814.5 200.9 799.4 191.4 788 185 786.4 184.1 784.3 184.7 783.4 186.3 782.9 187.2 782.8 188.4 783.3 189.4 787.9 199.2 791.6 214.7 778.2 226.3 776.8 227.5 776.6 229.7 777.9 231.1 778.6 231.9 779.6 232.3 780.7 232.2" fill="#515151" fill-opacity="1" stroke="none"/>
 <path id="Path-6-copy" d="M833 205.8 C829.7 211.7 826 217.5 822.1 223 813.6 234.2 801.2 239.9 785.1 239.9 763 239.9 734.8 229.3 701.3 208.4 685.6 198.4 667.4 193.1 648.8 193.1 623.7 193.1 597.8 202.7 573.9 220.7 557.1 233.4 541.3 242.9 527 248.8 515 253.8 503.9 256.3 494 256.3 480.8 256.3 469.7 251.8 461.1 243 458.4 240.2 452.8 232.4 450 228.1 446 231.8 444 234 444 234 444 234 471.9 310.4 578.9 229.4 615.3 201.8 658.6 193.6 696.9 217.5 821.9 295.4 838.2 209.7 838.2 209.7 838.2 209.7 836.4 208.4 833 205.8" fill="#000000" fill-opacity="1" stroke="none"/>
 <path id="Path-7-copy" d="M502.3 208.1 C500.6 218 500.8 230.2 509.7 237.3 512.3 239.3 512.7 243 510.7 245.6 509.9 246.6 508.8 247.3 507.6 247.6 495.4 250.9 477 251.6 463.4 233.1 461.6 230.6 462 227.1 464.4 225.1 470.1 220.3 481.3 211.1 493 202.4 495.6 200.4 499.4 201 501.3 203.6 502.2 204.9 502.6 206.5 502.3 208.1" fill="#515151" fill-opacity="1" stroke="none"/>
 <path id="Path-8-copy" d="M568.8 56.9 C620.2 52.8 663.5 57.7 706.6 58.1 708.5 58.1 710 56.6 710 54.7 710 53.6 709.5 52.6 708.7 52 671.5 22.5 602.5 24 566.5 50.7 565 51.8 564.6 53.9 565.7 55.4 566.5 56.4 567.6 56.9 568.8 56.9" fill="#1e1e1e" fill-opacity="1" stroke="none"/>
 <g id="Logo-copy">
  <path id="Path-9" d="M591.2 92.1 L593.9 92 595.1 86.6 591.2 87.6 Z" fill="#ffffff" fill-opacity="1" stroke="none"/>
  <path id="Path-10" d="M683.6 113.5 L690.2 110 686.2 104.7 700 102.6 681.5 88.3 694.6 82.4 682.2 76.4 687 73 683.1 71.6 695.4 59.1 575.5 84.5 578.7 88.8 571 91.9 578.2 95.6 575.4 99.3 578.7 100 575.9 110.2 590.6 109.3 589 113.7 601.9 109.6 600.6 117.1 614.2 112.3 615 117.4 620.5 113.2 626.5 122.7 635 115.1 639.5 124.5 642.4 118.7 654.4 128.3 659.4 121.3 666 126.9 665.8 121.5 692.9 136.4 Z M591.4 96.7 L591.1 104.9 584.5 104.5 585.3 89.7 583.2 85.3 590.6 83.7 C590.6 83.7 597.3 82 601.6 81.2 600.4 86.1 599.4 91.1 598.6 96.1 595.6 96.3 591.4 96.7 591.4 96.7 Z M613.9 105.7 C609.4 105.6 604.8 105.5 600.3 105.4 600.8 97 601.9 88.9 603.9 80.8 606.2 80.4 607.3 80.1 609.6 79.7 608 86.3 606.9 93 606.2 99.8 607.1 99.8 607.6 99.8 608.5 99.7 609.2 92.8 610.3 86 611.9 79.2 614.3 78.7 615.5 78.5 617.9 78 616 87.2 614.7 96.3 613.9 105.7 Z M624.7 106 C624 102.5 623.7 100.9 623 97.8 622.6 100.9 622.5 102.6 622.2 105.9 619.8 105.8 618.6 105.8 616.2 105.7 617 96.2 618.2 86.8 620.4 77.5 622.9 77 624.2 76.8 626.7 76.3 627 79.6 627.1 81.3 627.5 84.9 628.2 81.2 628.6 79.4 629.4 75.8 632 75.3 633.3 75.1 635.9 74.6 633.7 85.1 632.1 95.6 630.9 106.2 628.4 106.2 627.2 106.1 624.7 106 Z M644.4 79.1 C643.2 85.8 642.1 92.6 641.2 99.4 L644 99.4 C644.3 97.2 644.5 96.1 644.8 93.9 647.6 93.8 649.1 93.8 652.1 93.7 651.5 98.2 650.9 102.7 650.3 107.2 644.7 106.9 639.1 106.7 633.6 106.4 634.8 95.6 636.4 84.8 638.7 74.1 644.4 73 650 72 655.7 70.9 654.8 76 654 81 653.2 86.1 650.2 86.3 648.7 86.5 645.9 86.7 646.4 83.4 646.7 81.8 647.3 78.7 646.1 78.9 645.5 79 644.4 79.1 Z M674.7 109.5 L664.5 107.9 C664.5 107.9 665.8 98.3 666.5 93.5 665.2 93.5 664.5 93.5 663.2 93.6 662.5 98.3 661.9 103 661.2 107.7 658 107.5 656.4 107.4 653.4 107.3 654.9 95 656.7 82.7 658.7 70.4 661.7 69.9 663.2 69.6 666.3 69 665.6 74.2 664.9 79.4 664.3 84.6 665.7 84.5 666.4 84.4 667.8 84.3 668.6 78.9 669.4 73.6 670.3 68.2 673.1 67.7 676.9 66.9 676.9 66.9 Z" fill="#ffffff" fill-opacity="1" stroke="none"/>
  <path id="Path-11" d="M583 67.1 C587.2 66.6 591.4 66.1 595.6 65.6 L595.6 70.8 C594.2 71 593.5 71.1 592.1 71.4 592.1 69.9 592.1 69.3 592.1 68.1 589 68.5 586 68.9 582.9 69.3 583 73.1 582.9 76.8 582.8 80.6 589.8 79.2 596.8 77.7 603.7 76.2 603.9 70.9 603.9 65.7 603.9 60.4 599.9 60.7 595.9 61.1 592 61.4 592 59.5 592 58.4 592 55.9 593.4 55.8 594.1 55.8 595.5 55.8 L595.5 59.1 C598.3 58.9 601.1 58.7 603.9 58.5 603.9 55.1 603.9 51.8 604 48.4 597 48.4 590 48.3 582.9 48.3 582.9 54.6 582.9 60.9 583 67.1 Z" fill="#ffffff" fill-opacity="1" stroke="none"/>
  <path id="Path-12" d="M618.1 48.5 C618.1 54.7 618.1 60.9 618 67.2 616.8 67.4 616.2 67.5 615 67.7 615.1 61.3 615 54.9 615.1 48.5 612.1 48.5 610.5 48.5 607.4 48.5 607.2 57.5 607.3 66.5 607.1 75.5 613.2 74.2 619.2 72.9 625.3 71.6 625.4 63.9 625.3 56.3 625.3 48.6 622.5 48.5 621.1 48.5 618.1 48.5 Z" fill="#ffffff" fill-opacity="1" stroke="none"/>
  <path id="Path-13" d="M676.7 48.8 L663.1 48.7 663 63.1 668.5 61.8 668.6 56.9 C668.6 56.9 669.9 56.7 670.8 56.6 670.9 57.9 670.8 61.3 670.8 61.3 L676.7 60 676.7 56.6 674.9 55.8 676.7 54.9 Z M670.8 54.5 L668.5 54.8 668.5 52.3 670.8 52.2 Z" fill="#ffffff" fill-opacity="1" stroke="none"/>
  <path id="Path-14" d="M646.1 66.8 L660.7 63.5 660.7 60 652.7 61 652.8 59.3 660.7 58.3 660.7 54.4 652.8 55 652.8 53.2 660.7 52.8 660.7 48.7 646.1 48.7 Z" fill="#ffffff" fill-opacity="1" stroke="none"/>
  <path id="Path-15" d="M628.1 71 C630.9 70.4 634.8 69.5 634.8 69.5 L634.8 61.6 643.8 60.4 643.9 48.7 C638.7 48.7 633.3 48.7 628.1 48.6 628.1 56.1 628.2 63.6 628.1 71 Z M634.8 54 L637.4 53.9 637.4 57 634.8 57.3 Z" fill="#ffffff" fill-opacity="1" stroke="none"/>
 </g>
</svg>
