<svg xmlns="http://www.w3.org/2000/svg" width="1259.23" height="2194.12" viewBox="0 0 1259.23 2194.12"><defs><style>.a{fill:#eb598c;}.b{fill:#3b3938;}.c{fill:#fff;}.d{fill:#db467a;}.e{fill:#ab3f63;}.f{fill:none;}</style></defs><title>3_hat_1</title><path class="a" d="M658.21,24.6C658.21,34.18,646.92,42,633,42s-25.2-7.77-25.2-17.35S619.09,7.24,633,7.24s25.2,7.77,25.2,17.36"/><path d="M615.06,20.32C486.7,33.74,445.41,108.75,445,234.4l95.51-42.5c1-27.45,9.23-132.74,74.55-171.58"/><path class="b" d="M641.25,18.26q-4.59.24-9,.66-8.82.52-17.16,1.4c-65.32,38.84-73.53,144.13-74.55,171.58l91.72-40.81,96.93,27.63C719.23,63.37,666.82,28.49,641.25,18.26"/><path d="M641.25,18.26c25.57,10.23,78,45.11,87.91,160.46L839.24,210.1C837,53.93,723.4,13.91,641.25,18.26"/><path class="a" d="M445,234.4s86.06-91.4,202.35-90.25S839.24,210.1,839.24,210.1,823,295.72,697.93,217.85c-38.3-23.85-81.59-15.66-118,11.92-107,81-134.9,4.63-134.9,4.63"/><path class="c" d="M709,150.84c-5.81-1.21-11.8-2.26-17.92-3.18,6.87,24.65,10.93,50.11,15.64,75.52,8.63,5,16.71,9.28,24.27,12.79C724.45,207.4,718.65,178.73,709,150.84Z"/><path class="c" d="M743.66,160.71c-5.73-1.9-9.7-3.7-15.87-5.37a606.24,606.24,0,0,1,24.75,89.21c9.55,3.12,16.08,4.9,23.68,5.62C768.23,219.25,758.12,189.12,743.66,160.71Z"/><path class="d" d="M781.7,232.4c11.73-.69,30-4.89,40.94-22.84a3.39,3.39,0,0,0-1.07-4.6c-6-3.88-21.07-13.42-32.45-19.75a3.39,3.39,0,0,0-4.75,4.37c4.56,9.85,8.29,25.34-5.1,36.88a3.38,3.38,0,0,0,2.43,5.94"/><path class="e" d="M834.05,206a198.91,198.91,0,0,1-10.94,17.23c-8.45,11.24-20.89,16.94-37,16.94-22.1,0-50.3-10.59-83.82-31.46a98,98,0,0,0-52.51-15.3c-25.09,0-51,9.56-74.88,27.64-16.82,12.74-32.61,22.19-46.92,28.1-12,5-23.1,7.46-33,7.46-13.22,0-24.29-4.47-32.89-13.29-2.71-2.78-8.33-10.66-11.11-14.86-3.95,3.72-6,5.93-6,5.93s27.91,76.36,134.9-4.63c36.44-27.58,79.73-35.77,118-11.92,125,77.87,141.31-7.75,141.31-7.75s-1.78-1.52-5.19-4.09"/><path class="d" d="M503.33,208.27c-1.7,9.86-1.45,22.08,7.36,29.2a5.89,5.89,0,0,1-2.09,10.31c-12.23,3.33-30.58,4-44.24-14.53a5.89,5.89,0,0,1,.95-8c5.74-4.81,16.91-14,28.62-22.67a5.94,5.94,0,0,1,9.4,5.73"/><path class="b" d="M718.32,46.59c36.85,36,61.6,71.88,89.66,104.64a3.41,3.41,0,0,0,6-2.42c-2.21-47.44-48.66-98.41-92.5-108a3.4,3.4,0,0,0-3.14,5.74"/><path class="b" d="M472.3,151.21a3.54,3.54,0,0,0,6.31,1.77c17.08-21.82,71.31-92.19,61.33-93.86-8.13-1.35-74.8,28.51-67.64,92.09"/><rect class="f" width="1259.23" height="2194.12"/></svg>