<svg xmlns="http://www.w3.org/2000/svg" width="1259.23" height="2194.12" viewBox="0 0 1259.23 2194.12"><defs><style>.a{fill:#00780c;}.b{fill:#7a4817;}.c{fill:#9e622b;}.d{fill:#00660a;}.e{fill:#004006;}.f{fill:#e6be6e;}.g{fill:none;}</style></defs><title>3_hat_5</title><path class="a" d="M658.21,24.6C658.21,34.18,646.92,42,633,42s-25.2-7.77-25.2-17.35S619.09,7.24,633,7.24s25.2,7.77,25.2,17.36"/><path class="b" d="M513.59,147.35c-6.63-42,8.43-77.42,30.4-110-73.12,30.91-98.67,98.34-99,197l95.51-42.5h0l3.6-1.6C528.69,180.53,516.81,166.69,513.59,147.35Z"/><path class="b" d="M732.72,33c11.3,11.43,21,24.22,26.87,40.35,12,32,13,69-10,98-3,3.61-6.12,7.14-9.36,10.53l99,28.22C837.78,108.46,789.15,56,732.72,33Z"/><path class="c" d="M759.59,73.35C753.72,57.22,744,44.43,732.72,33c-30.27-12.35-62.79-16.26-91.47-14.74q-4.59.24-9,.66-8.82.52-17.16,1.4h0C587.51,23.2,564,28.93,544,37.38c-22,32.55-37,68-30.4,110,3.22,19.34,15.1,33.18,30.52,43l88.12-39.21,96.93,27.63,11.07,3.16c3.24-3.39,6.36-6.92,9.36-10.53C772.59,142.35,771.59,105.35,759.59,73.35Z"/><path class="a" d="M445,234.4s86.06-91.4,202.35-90.25S839.24,210.1,839.24,210.1,823,295.72,697.93,217.85c-38.3-23.85-81.59-15.66-118,11.92-107,81-134.9,4.63-134.9,4.63"/><path class="d" d="M781.7,232.4c11.73-.69,30-4.89,40.94-22.84a3.39,3.39,0,0,0-1.07-4.6c-6-3.88-21.07-13.42-32.45-19.75a3.39,3.39,0,0,0-4.75,4.37c4.56,9.85,8.29,25.34-5.1,36.88a3.38,3.38,0,0,0,2.43,5.94"/><path class="e" d="M834.05,206a198.91,198.91,0,0,1-10.94,17.23c-8.45,11.24-20.89,16.94-37,16.94-22.1,0-50.3-10.59-83.82-31.46a98,98,0,0,0-52.51-15.3c-25.09,0-51,9.56-74.88,27.64-16.82,12.74-32.61,22.19-46.92,28.1-12,5-23.1,7.46-33,7.46-13.22,0-24.29-4.47-32.89-13.29-2.71-2.78-8.33-10.66-11.11-14.86-3.95,3.72-6,5.93-6,5.93s27.91,76.36,134.9-4.63c36.44-27.58,79.73-35.77,118-11.92,125,77.87,141.31-7.75,141.31-7.75s-1.78-1.52-5.19-4.09"/><path class="d" d="M503.33,208.27c-1.7,9.86-1.45,22.08,7.36,29.2a5.89,5.89,0,0,1-2.09,10.31c-12.23,3.33-30.58,4-44.24-14.53a5.89,5.89,0,0,1,.95-8c5.74-4.81,16.91-14,28.62-22.67a5.94,5.94,0,0,1,9.4,5.73"/><path class="f" d="M550.69,127.1c-.52,47.46-6.82,9.06-19.57,6.22-1.88-1.17,7.33-6.31,8.56-2.73l-3.29,1.18c17.12,31.52,13.26-3.06,8.13-4.51l7.56-2.45C552.09,125,553.27,126.66,550.69,127.1Z"/><path class="f" d="M562.59,118.08c-3.6-1.78,12.21-7.32,6-2.56,3.16,27.44,20.42,12.82,2.83,22.25C573,134.89,567.87,115.33,562.59,118.08Z"/><path class="f" d="M593.79,108.05c2.9-7.94,19.42-2.36,11.28,1-6.46-17.33-22.77,27.39,5,13.54C608.17,134,582.41,125.45,593.79,108.05Z"/><path class="f" d="M631.27,122.13c.42.08-1.43-19-1.34-19.63-9.31-.77-2.36,5.22-7.76,4.7-2.72-8.92,9-5.75,17-7.18,6.19,9.53-1.36,1.08-6.33,2.54,1.14,28.75,1.91,14.63,4.72,20.88-1.53.13-2,.07-9.1.69C628.06,122.83,628.72,122,631.27,122.13Z"/><path class="f" d="M662.71,119.65c-9-9.32,1.34-29.27,15.5-18.14C687.06,111,675.54,129.25,662.71,119.65Zm13.17-1.58c5.67-6.48-.25-25.94-12-14.37C658.91,111.35,665.33,126.52,675.88,118.07Z"/><path class="f" d="M701.29,104.41c-2.6-4.78,27.68,3.74,8.77,12.94-.67,1.19,10.17,14.48,3.77,11.79-3.78.71-7.58-24.28-11.52-4.8,4.86,3.83,2.23,2.62-5.59,1.11C699.26,123.73,706.75,105.64,701.29,104.41Zm3,10.76c8.46,3.48,13.92-8.45,2.13-9.53C706.48,105.64,704.52,114.27,704.33,115.17Z"/><path class="f" d="M738.58,136.23c8.39-17-14.88-27.1,5.5-20.7,0,1.5-1.12,1.78-3.6.86,4.89,27,4.52-5.08,15.32,2.36-29.88,20.88,2.5,23.06-20.44,18.45C735.38,135.9,736.26,135.24,738.58,136.23Z"/><rect class="g" width="1259.23" height="2194.12"/></svg>