<svg xmlns="http://www.w3.org/2000/svg" width="1259.23" height="2194.12" viewBox="0 0 1259.23 2194.12"><title>3_visor_5</title><g id="Layer_2" data-name="Layer 2"><g id="Layer_141" data-name="Layer 141"><g id="_3_visor_5" data-name="3_visor_5"><path d="M825.7,149.24a6.9,6.9,0,0,1-4.3-1.51c-95-75.16-211.63-58.88-257.35-48.39-49.46,11.35-80.41,29.18-83.84,36a7,7,0,0,1-9.57,3.11,7.44,7.44,0,0,1-3-9.89C474.83,114.29,515,95.59,561,85c30.21-6.93,77.23-13.73,129.63-6.74,52.92,7,99.83,26.49,139.41,57.8a7.49,7.49,0,0,1,1.32,10.27,7,7,0,0,1-5.64,2.88" fill="#fff"/><path d="M454.85,190.87s.16-1.62.56-4.41c1.39-9.73,5.62-33.71,15.78-53.1,13.07-25,213.48-99.83,357.25,9.77,0,0,13.07,36.89,15.25,65.11L649.82,165.92l-191.7,23.87" fill="gray"/><path d="M470.82,179s-44.29,14-44.29,48.88c0,24.06,32.42,42.77,105.09,18.95s82.88-76.25,208-8.18,160-11.9,99.69-40.52c0,0-149.58-109.15-368.44-19.13" fill="#4a4a4a"/><path d="M575.64,201.57a152.07,152.07,0,0,1,87.61-15.48c16.86,2.11,33.17,8.17,47.85,15.53a9.29,9.29,0,0,0,13.13-10.75l-4.47-16.37a21.22,21.22,0,0,0-14.23-14.67c-30.46-9.43-83.64-11.05-117.46-1.89a19.17,19.17,0,0,0-13.32,13.24l-6.91,24a5.51,5.51,0,0,0,7.8,6.43" fill="#6e6e6e"/><path d="M839.26,198.09a18.4,18.4,0,0,0-3-1.33c48.58,24.61,14.22,90.49-91.74,32.82-91.72-49.92-124.91-38.68-171.44-13.16-13.27,7.28-27,14.81-44.63,20.59-64.39,21.11-96,6.11-93.18-17,2.67-21.78,36.4-41.35,35.58-41,0,0-44.29,14-44.29,48.88,0,16.2,14.7,30,46.48,30,15.42,0,34.87-3.25,58.61-11C577.78,231.65,598.75,205,639.94,205c23.66,0,54,8.79,99.63,33.63,35.56,19.36,63.84,26.75,84.71,26.75,52.53,0,58.12-46.79,15-67.27" fill="#fff"/><path d="M465.93,144.77c-1.85,4.74-3.41,9.54-4.72,14.16,13.32-8.16,41.67-26.23,80.7-38.28.32-3.58.7-7.15,1.17-10.7C508.75,120.24,482.31,135.6,465.93,144.77Z" fill="#4a4a4a"/><path d="M828.5,153c-27.33-15.33-55.27-28.37-83.58-37.68q.41,6,.59,11.88a447.41,447.41,0,0,1,87,39.59C831.08,161.49,829.68,156.76,828.5,153Z" fill="#4a4a4a"/><path d="M834.2,173.27a484.16,484.16,0,0,0-88.51-37.7c0,3.68.06,7.35,0,11a433.72,433.72,0,0,1,91.47,39.85C836.29,181.94,835.26,177.5,834.2,173.27Z" fill="#4a4a4a"/><path d="M459.47,165.49c-1.19,4.82-2.1,9.28-2.79,13.07,13.9-8.31,44.34-25.72,84.11-37.4.1-3.5.23-7,.42-10.48C505,141.05,475.91,156.44,459.47,165.49Z" fill="#4a4a4a"/><rect width="1259.23" height="2194.12" fill="none"/></g></g></g></svg>