<svg xmlns="http://www.w3.org/2000/svg" width="1259.23" height="2194.12" viewBox="0 0 1259.23 2194.12"><defs><style>.a{fill:#454441;}.b{fill:#c2c2c2;}.c{fill:#fff;}.d{fill:#52514d;}.e{fill:#2b2b29;}.f{fill:none;}</style></defs><title>3_hat_4</title><path class="a" d="M658.21,24.6C658.21,34.18,646.92,42,633,42s-25.2-7.77-25.2-17.35S619.09,7.24,633,7.24s25.2,7.77,25.2,17.36"/><path class="b" d="M513.59,147.35c-6.63-42,8.43-77.42,30.4-110-73.12,30.91-98.67,98.34-99,197l95.51-42.5h0l3.6-1.6C528.69,180.53,516.81,166.69,513.59,147.35Z"/><path class="b" d="M732.72,33c11.3,11.43,21,24.22,26.87,40.35,12,32,13,69-10,98-3,3.61-6.12,7.14-9.36,10.53l99,28.22C837.78,108.46,789.15,56,732.72,33Z"/><path class="c" d="M759.59,73.35C753.72,57.22,744,44.43,732.72,33c-30.27-12.35-62.79-16.26-91.47-14.74q-4.59.24-9,.66-8.82.52-17.16,1.4h0C587.51,23.2,564,28.93,544,37.38c-22,32.55-37,68-30.4,110,3.22,19.34,15.1,33.18,30.52,43l88.12-39.21,96.93,27.63,11.07,3.16c3.24-3.39,6.36-6.92,9.36-10.53C772.59,142.35,771.59,105.35,759.59,73.35Z"/><path class="d" d="M445,234.4s86.06-91.4,202.35-90.25S839.24,210.1,839.24,210.1,823,295.72,697.93,217.85c-38.3-23.85-81.59-15.66-118,11.92-107,81-134.9,4.63-134.9,4.63"/><path class="a" d="M781.7,232.4c11.73-.69,30-4.89,40.94-22.84a3.39,3.39,0,0,0-1.07-4.6c-6-3.88-21.07-13.42-32.45-19.75a3.39,3.39,0,0,0-4.75,4.37c4.56,9.85,8.29,25.34-5.1,36.88a3.38,3.38,0,0,0,2.43,5.94"/><path class="e" d="M834.05,206a198.91,198.91,0,0,1-10.94,17.23c-8.45,11.24-20.89,16.94-37,16.94-22.1,0-50.3-10.59-83.82-31.46a98,98,0,0,0-52.51-15.3c-25.09,0-51,9.56-74.88,27.64-16.82,12.74-32.61,22.19-46.92,28.1-12,5-23.1,7.46-33,7.46-13.22,0-24.29-4.47-32.89-13.29-2.71-2.78-8.33-10.66-11.11-14.86-3.95,3.72-6,5.93-6,5.93s27.91,76.36,134.9-4.63c36.44-27.58,79.73-35.77,118-11.92,125,77.87,141.31-7.75,141.31-7.75s-1.78-1.52-5.19-4.09"/><path class="a" d="M503.33,208.27c-1.7,9.86-1.45,22.08,7.36,29.2a5.89,5.89,0,0,1-2.09,10.31c-12.23,3.33-30.58,4-44.24-14.53a5.89,5.89,0,0,1,.95-8c5.74-4.81,16.91-14,28.62-22.67a5.94,5.94,0,0,1,9.4,5.73"/><path d="M595.7,107.53a36.24,36.24,0,0,1-17.19-9.17c-.65,6.13,3.14,12.14,8.37,15.4s21.23,3.85,22.13,5.14c-8.76-.26-17.54-.13-26.29.4,2.7,4.49,7.89,7,13.08,7.7s13.8,2.05,19,1.21c-6.4,1.14-15.9,1.52-21.19,5.28,4.23,1.14,8.6,2.29,12.94,1.71,3.78-.49,13.31-3.69,20.51-3.49s12.08,3.8,9.93-1.75C632.38,118.1,605.4,109.66,595.7,107.53Z"/><path d="M686.81,108.11A36.28,36.28,0,0,0,704,99c.66,6.12-3.14,12.13-8.37,15.39s-21.22,3.85-22.13,5.15q13.15-.4,26.29.4c-2.7,4.48-7.89,7-13.07,7.7s-13.81,2-19,1.2c6.39,1.14,15.89,1.52,21.18,5.28-4.23,1.14-8.6,2.29-12.94,1.72-3.77-.5-13.31-3.69-20.51-3.49s-12.08,3.8-9.93-1.75C650.12,118.69,677.1,110.24,686.81,108.11Z"/><circle class="d" cx="642.29" cy="104.65" r="10.59"/><rect class="f" width="1259.23" height="2194.12"/></svg>