<svg xmlns="http://www.w3.org/2000/svg" width="1259.23" height="2194.12" viewBox="0 0 1259.23 2194.12"><title>3_visor_4</title><g id="Layer_2" data-name="Layer 2"><g id="Layer_141" data-name="Layer 141"><g id="_3_visor_4" data-name="3_visor_4"><path d="M825.7,149.24a6.9,6.9,0,0,1-4.3-1.51c-95-75.16-211.63-58.88-257.35-48.39-49.46,11.35-80.41,29.18-83.84,36a7,7,0,0,1-9.57,3.11,7.44,7.44,0,0,1-3-9.89C474.83,114.29,515,95.59,561,85c30.21-6.93,77.23-13.73,129.63-6.74,52.92,7,99.83,26.49,139.41,57.8a7.49,7.49,0,0,1,1.32,10.27,7,7,0,0,1-5.64,2.88" fill="#fff"/><path d="M471.19,133.36c-10.16,19.39-14.39,43.37-15.78,53.1-.4,2.79-.56,4.41-.56,4.41l3.27-1.08,191.7-23.87.94.2c.4-27,.68-54,1.73-80.9C558.9,83.45,479.26,117.94,471.19,133.36Z" fill="#9e1926"/><path d="M828.44,143.13c-54.92-41.86-118.1-56.81-176-57.91-1,26.92-1.33,53.91-1.73,80.9l192.93,42.12C841.51,180,828.44,143.13,828.44,143.13Z" fill="#242f78"/><path d="M839.26,198.09s-71.59-52.23-188.17-54.63c-.31,20.68-.55,41.36-1.11,62,22.15,2.18,50.16,11.66,89.59,33.12C864.64,306.69,899.54,226.71,839.26,198.09Z" fill="#be1e2d"/><path d="M470.82,179s-44.29,14-44.29,48.88c0,24.06,32.42,42.77,105.09,18.95,49.76-16.32,70.24-46,118.36-41.3.56-20.67.8-41.35,1.11-62C599.15,142.4,538.28,151.21,470.82,179Z" fill="#243291"/><path d="M663.25,186.09c16.86,2.11,33.17,8.17,47.85,15.53a9.29,9.29,0,0,0,13.13-10.75l-4.47-16.37a21.22,21.22,0,0,0-14.23-14.67C691,155.33,671.28,152.61,651,152q-.24,16.53-.53,33.06C654.6,185.21,658.87,185.54,663.25,186.09Z" fill="#d64754"/><path d="M588.07,157.94a19.17,19.17,0,0,0-13.32,13.24l-6.91,24a5.51,5.51,0,0,0,7.8,6.43,152.77,152.77,0,0,1,74.8-16.52q.31-16.53.53-33.06C628.72,151.31,605.75,153.15,588.07,157.94Z" fill="#445dc2"/><path d="M839.26,198.09a18.4,18.4,0,0,0-3-1.33c48.58,24.61,14.22,90.49-91.74,32.82-91.72-49.92-124.91-38.68-171.44-13.16-13.27,7.28-27,14.81-44.63,20.59-64.39,21.11-96,6.11-93.18-17,2.67-21.78,36.4-41.35,35.58-41,0,0-44.29,14-44.29,48.88,0,16.2,14.7,30,46.48,30,15.42,0,34.87-3.25,58.61-11C577.78,231.65,598.75,205,639.94,205c23.66,0,54,8.79,99.63,33.63,35.56,19.36,63.84,26.75,84.71,26.75,52.53,0,58.12-46.79,15-67.27" fill="#fff"/><path d="M731.23,134.53c26.89,1.54,86.44,31.65,107.11,42.5-1-4.14-2-8.13-3.06-11.82-39.49-26.11-103-41.5-103-41.5Z" fill="#fff"/><rect width="1259.23" height="2194.12" fill="none"/></g></g></g></svg>