<svg xmlns="http://www.w3.org/2000/svg" width="1259.23" height="2194.12" viewBox="0 0 1259.23 2194.12"><title>3_visor_1</title><g id="Layer_2" data-name="Layer 2"><g id="Layer_141" data-name="Layer 141"><g id="_3_visor_1" data-name="3_visor_1"><path d="M825.7,149.24a6.9,6.9,0,0,1-4.3-1.51c-95-75.16-211.63-58.88-257.35-48.39-49.46,11.35-80.41,29.18-83.84,36a7,7,0,0,1-9.57,3.11,7.44,7.44,0,0,1-3-9.89C474.83,114.29,515,95.59,561,85c30.21-6.93,77.23-13.73,129.63-6.74,52.92,7,99.83,26.49,139.41,57.8a7.49,7.49,0,0,1,1.32,10.27,7,7,0,0,1-5.64,2.88" fill="#d6a175"/><path d="M454.85,190.87s.16-1.62.56-4.41c1.39-9.73,5.62-33.71,15.78-53.1,13.07-25,213.48-99.83,357.25,9.77,0,0,13.07,36.89,15.25,65.11L649.82,165.92l-191.7,23.87" fill="#382213"/><path d="M470.82,179s-44.29,14-44.29,48.88c0,24.06,32.42,42.77,105.09,18.95s82.88-76.25,208-8.18,160-11.9,99.69-40.52c0,0-149.58-109.15-368.44-19.13" fill="#6b4025"/><path d="M575.64,201.57a152.07,152.07,0,0,1,87.61-15.48c16.86,2.11,33.17,8.17,47.85,15.53a9.29,9.29,0,0,0,13.13-10.75l-4.47-16.37a21.22,21.22,0,0,0-14.23-14.67c-30.46-9.43-83.64-11.05-117.46-1.89a19.17,19.17,0,0,0-13.32,13.24l-6.91,24a5.51,5.51,0,0,0,7.8,6.43" fill="#8f5b3c"/><path d="M839.26,198.09a18.4,18.4,0,0,0-3-1.33c48.58,24.61,14.22,90.49-91.74,32.82-91.72-49.92-124.91-38.68-171.44-13.16-13.27,7.28-27,14.81-44.63,20.59-64.39,21.11-96,6.11-93.18-17,2.67-21.78,36.4-41.35,35.58-41,0,0-44.29,14-44.29,48.88,0,16.2,14.7,30,46.48,30,15.42,0,34.87-3.25,58.61-11C577.78,231.65,598.75,205,639.94,205c23.66,0,54,8.79,99.63,33.63,35.56,19.36,63.84,26.75,84.71,26.75,52.53,0,58.12-46.79,15-67.27" fill="#d6a175"/><path d="M662.91,103.4a1.37,1.37,0,0,1-1,.42H659.4a1.82,1.82,0,0,1-1.11-.29,3.64,3.64,0,0,1-.8-1.14,12.2,12.2,0,0,0-3.42-4,10,10,0,0,0-6.44-2,10.81,10.81,0,0,0-6.26,1.76,5.72,5.72,0,0,0-2.56,5,5.18,5.18,0,0,0,1.27,3.61,10,10,0,0,0,3.82,2.4,79.25,79.25,0,0,0,7.73,2.44q7,1.95,10,4.78a10.2,10.2,0,0,1,2.93,7.7,11.82,11.82,0,0,1-2.07,6.89,13.79,13.79,0,0,1-5.82,4.68,21.15,21.15,0,0,1-8.69,1.69,18.84,18.84,0,0,1-8.32-1.82A16.2,16.2,0,0,1,633.7,131a10,10,0,0,1-2.28-5.62,1.4,1.4,0,0,1,.4-1,1.27,1.27,0,0,1,.95-.42h2.53a2,2,0,0,1,1.11.29,2.6,2.6,0,0,1,.8,1.14,10.61,10.61,0,0,0,3.61,4.29,11.66,11.66,0,0,0,7.12,1.95,13.51,13.51,0,0,0,7.61-2,6.18,6.18,0,0,0,3.11-5.36,4.69,4.69,0,0,0-1.63-3.61,13.42,13.42,0,0,0-4.47-2.47c-1.89-.67-4.67-1.5-8.32-2.5q-6-1.62-8.63-4.71a11.3,11.3,0,0,1-2.65-7.64,11.87,11.87,0,0,1,6.66-10.85,18.85,18.85,0,0,1,16.2.16,15.3,15.3,0,0,1,5.43,4.71,10.34,10.34,0,0,1,2,5.14A1.18,1.18,0,0,1,662.91,103.4Z" fill="#ad9e9d"/><path d="M628.13,96.38s-4.24,7.64,0,13.57l-15.26-7.63Z" fill="#ad9e9d"/><path d="M667.72,132.66s4.24-7.63,0-13.57L683,126.72Z" fill="#ad9e9d"/><rect width="1259.23" height="2194.12" fill="none"/></g></g></g></svg>