<svg xmlns="http://www.w3.org/2000/svg" width="1259.23" height="2194.12" viewBox="0 0 1259.23 2194.12"><defs><style>.a{fill:#ff6afa;}.b{fill:#eda2e6;}.c{fill:#ffd9ff;}.d{fill:none;}</style></defs><title>3_visor_cryptokitties</title><path class="a" d="M825.7,149.24a6.9,6.9,0,0,1-4.3-1.51c-95-75.16-211.63-58.88-257.35-48.39-49.46,11.35-80.41,29.18-83.84,36a7,7,0,0,1-9.57,3.11c-3.47-1.87-4.82-8.3-3-11.89C474.83,112.29,515,93.59,561,83c30.21-6.93,77.23-13.73,129.63-6.74,52.92,7,99.83,26.49,139.41,57.8,3.11,2.46,3.7,9.06,1.32,12.27a7,7,0,0,1-5.64,2.88"/><path class="b" d="M454.85,190.87s.16-1.62.56-4.41c1.39-9.73,5.62-33.71,15.78-53.1,13.07-25,213.48-99.83,357.25,9.77,0,0,13.07,36.89,15.25,65.11L649.82,165.92l-191.7,23.87"/><path class="c" d="M470.82,179s-44.29,14-44.29,48.88c0,24.06,32.42,42.77,105.09,18.95s82.88-76.25,208-8.18,160-11.9,99.69-40.52c0,0-149.58-109.15-368.44-19.13"/><path class="b" d="M575.64,201.57a152.07,152.07,0,0,1,87.61-15.48c16.86,2.11,33.17,8.17,47.85,15.53a9.29,9.29,0,0,0,13.13-10.75l-4.47-16.37a21.22,21.22,0,0,0-14.23-14.67c-30.46-9.43-83.64-11.05-117.46-1.89a19.17,19.17,0,0,0-13.32,13.24l-6.91,24a5.51,5.51,0,0,0,7.8,6.43"/><path class="a" d="M839.26,198.09a18.4,18.4,0,0,0-3-1.33c48.58,24.61,14.22,90.49-91.74,32.82-91.72-49.92-124.91-38.68-171.44-13.16-13.27,7.28-27,14.81-44.63,20.59-64.39,21.11-96,6.11-93.18-17,2.67-21.78,36.4-41.35,35.58-41,0,0-44.29,14-44.29,48.88,0,16.2,14.7,30,46.48,30,15.42,0,34.87-3.25,58.61-11C577.78,231.65,598.75,205,639.94,205c23.66,0,54,8.79,99.63,33.63,35.56,19.36,63.84,26.75,84.71,26.75,52.53,0,58.12-46.79,15-67.27"/><rect class="d" width="1259.23" height="2194.12"/><path d="M553.44,117.35a10,10,0,0,1,4.35.05l.62.17.35-3.53-.43-.13a12.45,12.45,0,0,0-5.65,0c-7.06,1.36-11,7.26-9.67,14.36s6.69,10.77,13.6,9.44a14.8,14.8,0,0,0,5.82-2.25l.35-.27-1.49-3.13-.53.4a11.15,11.15,0,0,1-4.23,1.7c-4.94,1-8.48-1.58-9.48-6.77S548.42,118.31,553.44,117.35Z"/><path d="M573,113.64a5,5,0,0,0-3.6,2.92l-.4-1.78-3.6.7.15.56c.35,1.32.68,2.81,1.07,4.85l2.2,11.37,3.9-.76L571,122.58a10,10,0,0,1-.12-1.27c0-2.06,1-3.55,2.69-3.87a3.51,3.51,0,0,1,.88-.08h.68l-.73-3.78-.43,0A3.51,3.51,0,0,0,573,113.64Z"/><path d="M589.16,121.15c-.12.59-.23,1.19-.33,1.77-.24-.52-.49-1.07-.75-1.59l-4.8-9.32-4.33.53,8,14.64a2.41,2.41,0,0,1,.23.54,2.37,2.37,0,0,1-.12.5,8.43,8.43,0,0,1-1.92,3.31,7.15,7.15,0,0,1-2.19,1.6l-.49.22,1.43,3.28.47-.14A8.4,8.4,0,0,0,588,134c2-2.16,3-5.49,4.37-10.86l3.15-12.65-4.23.52Z"/><path d="M609.27,108.35a6.92,6.92,0,0,0-5.15,2.52l-.19-1.84-3.7.22.06.57c.16,1.6.32,3.2.44,5.19l1,17.87,4-.23-.46-7.81a6.51,6.51,0,0,0,4.55,1.36c3.89-.23,7.65-3.29,7.28-9.6C616.81,111.57,613.52,108.1,609.27,108.35Zm3.85,8.62c.21,3.48-1.32,5.74-4,5.89a3.93,3.93,0,0,1-4-2.73,5.52,5.52,0,0,1-.19-1.09l-.16-2.74a4.18,4.18,0,0,1,.12-1.07,4.1,4.1,0,0,1,3.68-3.42C611.5,111.64,613,114.28,613.12,117Z"/><path d="M625.62,102.47l-3.88,1.27.21,3.71-2.48.14.18,3.3,2.49-.14.45,8.19c.13,2.2.61,3.62,1.52,4.46a4.58,4.58,0,0,0,3.63,1.21,7.86,7.86,0,0,0,2.76-.6l.35-.17-.38-3.22-.63.21a6.26,6.26,0,0,1-1.54.27c-.79,0-1.65-.11-1.78-2.48l-.45-8.09,4.16-.23-.18-3.3-4.17.23Z"/><path d="M642.56,106.3c-5-.14-8.6,3.48-8.75,8.82-.14,5.17,3.14,8.88,8,9,4.1.12,8.6-2.6,8.77-8.82C650.72,110.14,647.42,106.43,642.56,106.3ZM642,120.86c-2.51-.07-4.26-2.48-4.17-5.73.08-2.83,1.52-5.65,4.55-5.56,3.37.09,4.16,3.79,4.1,5.73C646.41,118.59,644.53,120.93,642,120.86Z"/><path d="M671.92,102.91l-5-.38-7.63,8-1,1.09.75-9.73-4-.3L653.31,125l4,.3.68-8.83,1.65-1.63,6.28,11.13,4.72.36-8-14Z"/><path d="M679.37,103.4a2.32,2.32,0,0,0-2.61,2.1,2.26,2.26,0,0,0,2,2.56,2.4,2.4,0,0,0,1.85-.51,2.39,2.39,0,0,0-1.28-4.15Z"/><rect x="669.23" y="116.2" width="17.12" height="4" transform="translate(488.75 779.75) rotate(-83.94)"/><path d="M692.24,107l-4,.45-.56,3.67-2.46-.37-.5,3.27,2.46.37-1.24,8.11c-.33,2.17-.15,3.66.56,4.67a4.53,4.53,0,0,0,3.3,1.93,7.59,7.59,0,0,0,2.83,0L693,129l.3-3.23-.66.07a5.73,5.73,0,0,1-1.56,0c-.79-.12-1.59-.45-1.23-2.79l1.22-8,4.13.63.5-3.27-4.13-.63Z"/><path d="M706.82,110l-4.07.25-.73,3.65-2.44-.49-.65,3.24,2.44.49-1.62,8c-.44,2.16-.32,3.65.34,4.69A4.54,4.54,0,0,0,703.3,132a7.7,7.7,0,0,0,2.82.12l.38-.07.45-3.22-.67,0a5.75,5.75,0,0,1-1.55-.13c-.78-.15-1.57-.51-1.1-2.84l1.6-7.94,4.09.82.65-3.24-4.09-.83Z"/><rect x="706.81" y="123.78" width="17.12" height="4" transform="translate(427.52 792.66) rotate(-76.63)"/><path d="M718.81,111.3a2.31,2.31,0,0,0-2.85,1.76,2.27,2.27,0,0,0,1.7,2.8,2.47,2.47,0,0,0,1.9-.28,2.18,2.18,0,0,0,1-1.44A2.26,2.26,0,0,0,718.81,111.3Z"/><path d="M731.61,121c-4.61-1.13-8.73,1.75-10,7-1.25,5.09,1.16,9.16,6.13,10.38a13.49,13.49,0,0,0,5.65.31l.44-.08,0-3.24-.63.1a9.88,9.88,0,0,1-4.3-.24,4.56,4.56,0,0,1-3.72-5.52l10.86,2.66.22-.59a10.22,10.22,0,0,0,.38-1.22C737.61,126.63,736.42,122.15,731.61,121Zm-1,3a3.17,3.17,0,0,1,2.11,1.43,4.5,4.5,0,0,1,.41,2.94l-7.1-1.74C726.76,125.19,728.31,123.44,730.63,124Z"/><path d="M746.59,132.8h0c-1.83-1.35-2.26-2-2-2.86s1.25-1.35,2.5-1a5.77,5.77,0,0,1,2.66,1.61l.46.51,1.91-2.78-.31-.32A8.65,8.65,0,0,0,748,125.8c-3.39-.94-6.44.5-7.26,3.43-.42,1.49-.22,3.77,3.07,6.09,1.91,1.38,2.14,2.14,1.88,3.06-.31,1.12-1.4,1.52-3,1.08a7.1,7.1,0,0,1-3.13-2l-.46-.54-1.94,2.9.3.32a9.73,9.73,0,0,0,4.3,2.4c3.82,1.07,6.86-.26,7.73-3.39C750.21,136.76,749.3,134.8,746.59,132.8Z"/></svg>
