<svg xmlns="http://www.w3.org/2000/svg" width="1259.23" height="2194.12" viewBox="0 0 1259.23 2194.12"><title>3_men_pants_7</title><g id="Layer_2" data-name="Layer 2"><g id="Layer_141" data-name="Layer 141"><g id="_3_men_pants_7" data-name="3_men_pants_7"><path d="M418.88,1984.06c22,12,46.42,16.74,68.29,18,.34-23.56,1.44-47,3.11-70.44a309.27,309.27,0,0,1-61.57-15.73C416.84,1936.81,417.39,1957.44,418.88,1984.06Z" fill="#77a5b5"/><path d="M526.59,1616.35h3c-2-124,1-245,15-370,3-19,3-37,8-56,13-46,23-89,34-136,.64-2.77,1.28-5.54,2-8.28-32.06-3.43-55.08-7.92-61.58-9.26-75.3,139.37-64.18,498.25-61,515.19s7.41,54,7.41,54l-44.7,309.89a309.27,309.27,0,0,0,61.57,15.73c6.72-94.41,22.75-188.09,36.31-284.27C527.59,1637.35,525.59,1626.35,526.59,1616.35Z" fill="#467e91"/><path d="M490.28,1931.62c-1.67,23.42-2.77,46.88-3.11,70.44a238.25,238.25,0,0,0,65.12-5.3c8.49-13.43,13.7-33.7,5.43-60.71A416.73,416.73,0,0,1,490.28,1931.62Z" fill="#a7d0e0"/><path d="M766.91,1935.57c-4.62,21.31,1.58,47.45,10.91,55.9,26.85,4.37,48.72,5.79,66.22,5.63-3-20.57-5.48-41-7.72-61.23C813.16,1938.83,789.94,1939.25,766.91,1935.57Z" fill="#a7d0e0"/><path d="M794.59,1622.35c-1-2,1-5,0-6a33.77,33.77,0,0,1-7-11c-5-36-1-72-2-107-6.56-151.84-6.1-306.31-42.24-453.55-56,8.4-113,5.74-154.77,1.27-.71,2.74-1.35,5.51-2,8.28-11,47-21,90-34,136-5,19-5,37-8,56-14,125-17,246-15,370h-3c-1,10,1,21,0,31C513,1743.53,497,1837.21,490.28,1931.62a416.73,416.73,0,0,0,67.44,4.43c10.75-74.24,33.75-163.76,33.75-163.76,38.12-82.58,1.06-202.23,1.06-202.23,55.06-127.06,67.76-345.18,67.76-345.18l8.47,2.12c-5.29,94.24,56.12,309.18,59.3,324s3.17,24.35,3.17,24.35c-41.29,122.83,14.83,242.47,16.95,259.41,1.21,9.72,10.78,59.83,18.73,100.81,23,3.68,46.25,3.26,69.41.3-9.69-87.55-14.32-173-28.73-262.52C804.59,1655.35,804.59,1638.35,794.59,1622.35Z" fill="#4f8ca3"/><path d="M844,1997.1c41.87-.39,58.72-9.86,58.72-9.86,2.42-6.48,6.15-33.67-10.4-62.75a435.84,435.84,0,0,1-56,11.38C838.56,1956.14,841.08,1976.53,844,1997.1Z" fill="#77a5b5"/><path d="M796.45,1033a364.91,364.91,0,0,1-53.1,11.84C779.49,1192,779,1346.51,785.59,1498.35c1,35-3,71,2,107a33.77,33.77,0,0,0,7,11c1,1-1,4,0,6,10,16,10,33,13,51,14.41,89.5,19,175,28.73,262.52a435.84,435.84,0,0,0,56-11.38c-14.77-112.17-38-334.37-38-334.37C879.47,1156,796.45,1033,796.45,1033Z" fill="#467e91"/><path d="M870.91,836.17c-.06-.14-.12-.27-.19-.41l-.72.18Z" fill="#ede8fc"/><path d="M840.57,1179.25C822.09,1071,796.45,1033,796.45,1033c-8.88,2.73-17.94,5.08-27.1,7.08,5.16,32.25,12.64,63.57,18.16,95.68C803.9,1151.74,822.13,1165.83,840.57,1179.25Z" fill="#3b697a"/><path d="M559.2,1042.35c-16.47-2.41-27.92-4.66-32.2-5.54-19.17,35.48-32.74,85.19-42.26,139.87,16.08-16.12,35.75-29,53.14-44.13C542.15,1102.09,550.08,1072,559.2,1042.35Z" fill="#3b697a"/><path d="M796.45,1033c-10.41,3.21-21.06,5.86-31.84,8.07q-7.86,1.62-15.81,2.92a493.3,493.3,0,0,1-59.37,5.84c-19.62.79-38.72.56-56.52-.29-18.21-.86-35-2.36-49.77-4-5.29-.6-10.3-1.23-15-1.86-21.25-2.85-36.12-5.76-41.14-6.79a276.53,276.53,0,0,0-15.79,35.55,474.25,474.25,0,0,0,48.31,11.23q8.31,1.5,17.46,2.84c16.17,2.35,34.23,4.23,53.84,5.11a535.28,535.28,0,0,0,62.64-.85,521.56,521.56,0,0,0,58.24-7.55q8.71-1.65,17.58-3.64c14.14-3.18,28.55-7,43.16-11.72C803.28,1043.09,796.45,1033,796.45,1033Z" fill="#77a5b5"/><path d="M677.59,1221.35c38.11-7.06,66.35-36.7,66.35-36.7-80.47,50.82-150.35,0-150.35,0,24.48,24.48,49.39,33.17,58.85,35.75-2.34,41.66-18.62,190.84-37.56,286.13h0c36.26-125.1,45.38-281.65,45.38-281.65l8.47,2.12c-3.48,62.07,22,176.49,40.66,251.62-9.51-55.74-29.79-181.93-32.29-257.27Z" fill="#3b697a"/><path d="M764.06,1566.88s0,29.65,13.76,40.24,36-2.12,36-2.12C789.47,1608.18,764.06,1570.06,764.06,1566.88Z" fill="#3b697a"/><path d="M826.53,1602.88c19.06,28.59,25.41-29.64,25.41-29.64C845.59,1596.53,826.53,1602.88,826.53,1602.88Z" fill="#3b697a"/><path d="M509.94,1612.41s22.24,12.71,36,2.12,13.76-40.24,13.76-40.24C559.7,1577.47,534.29,1615.59,509.94,1612.41Z" fill="#3b697a"/><path d="M471.82,1580.65s6.36,58.23,25.41,29.64C497.23,1610.29,478.18,1603.94,471.82,1580.65Z" fill="#3b697a"/><path d="M870.72,835.76l-.72.18.91.23C870.85,836,870.79,835.9,870.72,835.76Z" fill="none"/><path d="M457.88,1399.5c-3.61,6.21-10.24,36.17-10.09,63.88,5.77.23,13.49.41,22.11.56,1.08-22,2.89-43.82,8.36-65.07C466.23,1399.12,457.88,1399.5,457.88,1399.5Z" fill="#467e91"/><path d="M478.26,1398.87c-5.47,21.25-7.28,43.07-8.36,65.07,15.5.25,33.9.35,49,.24,1.72-21.67,3.84-43.45,5.53-65C508.69,1398.5,491.31,1398.61,478.26,1398.87Z" fill="#77a5b5"/><path d="M524.44,1399.21c-1.69,21.52-3.81,43.3-5.53,65,15.61-.12,27.7-.48,29.45-1.15,4.58-1.75,10.42-44,12.31-58.63C554.09,1401.43,540.07,1399.92,524.44,1399.21Z" fill="#467e91"/><path d="M560.67,1404.4c-1.89,14.6-7.73,56.88-12.31,58.63-4.37,1.67-68.44-.61-95.34-1.65.16,29,2,57.7,4.86,60.95,5.54,6.35,94.17,0,99.71-2.12s5.54-114.35,5.54-114.35A11.41,11.41,0,0,0,560.67,1404.4Z" fill="#3b697a"/><ellipse cx="493.58" cy="1443.97" rx="9.23" ry="10.59" fill="#27302d"/><path d="M860.76,1402.76c3.61,6.21,10.24,36.18,10.09,63.88-5.77.23-13.5.42-22.11.56-1.08-22-2.9-43.82-8.36-65.07C852.41,1402.38,860.76,1402.76,860.76,1402.76Z" fill="#467e91"/><path d="M840.38,1402.13c5.46,21.25,7.28,43.07,8.36,65.07-15.51.25-33.9.35-49,.24-1.72-21.67-3.84-43.45-5.53-65C810,1401.76,827.33,1401.87,840.38,1402.13Z" fill="#77a5b5"/><path d="M794.2,1402.47c1.69,21.52,3.81,43.3,5.53,65-15.61-.12-27.7-.48-29.45-1.15-4.58-1.75-10.42-44-12.31-58.63C764.55,1404.69,778.57,1403.18,794.2,1402.47Z" fill="#467e91"/><path d="M758,1407.66c1.89,14.6,7.73,56.88,12.31,58.63,4.37,1.67,68.44-.61,95.34-1.65-.16,29-2,57.7-4.86,60.95-5.54,6.35-94.17,0-99.71-2.12s-5.54-114.35-5.54-114.35A11.83,11.83,0,0,1,758,1407.66Z" fill="#3b697a"/><ellipse cx="825.06" cy="1447.24" rx="9.23" ry="10.59" fill="#27302d"/><path d="M615,1222.61c-.44,9.38-.77,19.23-1,29.71a5,5,0,0,0,4.91,5.09H619a5,5,0,0,0,5-4.91c.19-10.73.53-20.78,1-30.35A53.66,53.66,0,0,0,615,1222.61Z" fill="#3b697a"/><path d="M643.23,1066a5,5,0,0,0-5.94,3.82c-11.7,54-19.51,93.74-22.33,152.79a53.66,53.66,0,0,1,10-.46c2.83-57.82,10.54-97.08,22.06-150.21A5,5,0,0,0,643.23,1066Z" fill="#fff"/><path d="M719.27,1223.67c.45,9.38.77,19.22,1,29.71a5,5,0,0,1-4.9,5.09h-.1a5,5,0,0,1-5-4.91c-.2-10.73-.54-20.78-1-30.35A52.79,52.79,0,0,1,719.27,1223.67Z" fill="#3b697a"/><path d="M691,1067.05a5,5,0,0,1,5.94,3.83c11.7,53.95,19.51,93.74,22.33,152.79a52.79,52.79,0,0,0-10-.46c-2.83-57.82-10.54-97.08-22.06-150.21A5,5,0,0,1,691,1067.05Z" fill="#fff"/><rect width="1259.23" height="2194.12" fill="none"/></g></g></g></svg>