<svg xmlns="http://www.w3.org/2000/svg" width="1259.23" height="2194.12" viewBox="0 0 1259.23 2194.12"><title>3_men_shrit_9</title><g id="Layer_2" data-name="Layer 2"><g id="Layer_141" data-name="Layer 141"><g id="_3_men_shrit_9" data-name="3_men_shrit_9"><path d="M1008.57,780.9c-17-52.83-35.92-84.72-35.92-84.72,9.88-83.3-45.18-135.53-64.95-144S799,523.94,799,523.94l-82.59-41.65-8.47,46.95-48.71-4.59-47.64,8.82-6.71-46.94-98.12,41.65-39.53,7.06c-45.17,1.41-63.53,7-63.53,7C335.94,560.65,304.88,651,297.82,658.06c-1.89,1.89-8,5.92-15.81,10.8,7.34,37.2,37.54,93.83,77.92,123,43.53-23.63,88.95-54.77,88.95-54.77,7.06,45.17,31.82,81,31.82,81s59.95,165.17,58.53,170.82c-1.19,4.77-8.21,37.74-12.23,47.87,17.7,3.65,157.6,30.6,269.45-3.85-4.23-10.67-12.87-42.68-14-47.37-1.41-5.65,57.53-170.83,57.53-170.83,9.88-12.7,16.94-16.94,16.94-16.94,2.8,11.81,7.85,25,14,38.35l-.91-.23S960.63,813.21,1008.57,780.9Z" fill="#3b3b3b"/><path d="M475.7,756.88c14.12,12.71,52.24,21.18,52.24,21.18-79.06-40.94-105-120-104.47-115.77a222.37,222.37,0,0,0,14.12,53.65,354.25,354.25,0,0,1-84.43,70.71c2.23,1.82,4.48,3.58,6.77,5.24,43.53-23.63,88.95-54.77,88.95-54.77.21,1.35.44,2.69.68,4,.08.44.17.88.25,1.31.17.9.34,1.79.53,2.68.09.49.2,1,.31,1.45.18.85.36,1.69.55,2.53.1.45.21.9.32,1.35.21.88.42,1.76.64,2.64l.28,1.09c.26,1,.52,2,.8,3,.05.21.11.42.17.63a222.84,222.84,0,0,0,27.29,60.32A388.79,388.79,0,0,1,475.7,756.88Z" fill="#212121"/><path d="M883.45,832.3c-17.31-52.18-14.57-92.36-14.57-92.36,16.94-19.06,19.06-65.65,19.06-65.65-27.53,76.24-97.41,105.89-97.41,105.89C811.7,782.29,843.47,759,843.47,759l-24,110c11.28-30.13,20.47-54.26,20.47-54.26,9.88-12.7,16.94-16.94,16.94-16.94.32,1.36.68,2.74,1.06,4.12,0,.2.1.39.16.59.36,1.32.76,2.67,1.18,4,.07.24.15.48.22.72.43,1.36.88,2.73,1.35,4.12l.21.61c.5,1.45,1,2.91,1.56,4.39l0,.06c.56,1.5,1.15,3,1.75,4.54l.16.42q.88,2.22,1.82,4.46c.09.2.18.41.26.61q.95,2.24,1.93,4.48c.08.17.16.34.23.52.63,1.42,1.28,2.84,1.93,4.27C872.39,835.33,876.91,834.15,883.45,832.3Z" fill="#212121"/><path d="M353.16,786.65h0c1.1.91,2.21,1.8,3.33,2.66s2.28,1.74,3.43,2.58c1.63-.88,3.26-1.78,4.89-2.68l.4-.22q2.44-1.35,4.87-2.72h0q2.46-1.38,4.9-2.78l.35-.21c1.62-.92,3.24-1.86,4.84-2.79h0q-3.9-3.12-7.65-6.41Q362.9,780.74,353.16,786.65Z" fill="#212121"/><path d="M871.3,835.61l.36-.1.15,0,.41-.11.27-.07.53-.14.63-.17.14,0,.62-.16.15,0,3.37-.91h0c1.62-.44,3.47-1,5.51-1.53-2.19-6.6-4.06-13-5.65-19.17-5.75,1.77-10.75,3.25-14.74,4.4,2.24,6,4.83,12.07,7.66,18.23l.38-.1Z" fill="#212121"/><path d="M870,835.94l.91.23c-.06-.14-.12-.27-.19-.41Z" fill="#8c4e39"/><path d="M842.47,811.81c1.11-1.29,2.18-2.6,3.25-3.92-1.78,2-3.71,4.22-5.78,6.87Z" fill="#8c4e39"/><path d="M868.88,725.12c-214.59-56.47-420,12-420,12a185.72,185.72,0,0,0,6.46,27.16A226.3,226.3,0,0,0,465.77,791c61.58-15,221.28-46.7,388.39-5.55C862.53,767.47,868.88,725.12,868.88,725.12Z" fill="#fff"/><path d="M523.7,532.41c46.59,27.53,135.53,18.83,135.53,18.83V524.65l-60-22.59Z" fill="#212121"/><path d="M659.23,551.24c52.94,4.23,118.59-21.18,118.59-21.18l-60-35.3-40.59,32.36-18-2.47Z" fill="#212121"/><path d="M643.7,525.12h29.65a0,0,0,0,1,0,0v92.65a14.82,14.82,0,0,1-14.82,14.82h0a14.82,14.82,0,0,1-14.82-14.82V525.12A0,0,0,0,1,643.7,525.12Z" fill="#545454"/><circle cx="659.23" cy="565" r="8.47" fill="#fff"/><circle cx="657.82" cy="616.24" r="8.47" fill="#fff"/><path d="M588,509.47c-1.72-9.47,9.9-16,18.91-23.35a232.19,232.19,0,0,0,52.32,38.53l-24.35,44.82s-4.16-2-10.72-5.66C607,549.51,593,532.62,588,509.47Z" fill="#fff"/><path d="M555.47,508.06l28.59-31.77a76.65,76.65,0,0,1,21.17-1.05v9.17s.58.61,1.68,1.71c-9,7.37-20.63,13.88-18.91,23.35,5,23.15,19,40,36.16,54.34C607.29,554.4,574.52,534,555.47,508.06Z" fill="#969696"/><polygon points="569.48 492.49 564.17 498.39 564.17 498.39 569.48 492.49 569.48 492.49" fill="#3b3b3b"/><path d="M645.28,550.32a303.22,303.22,0,0,1-57.07-40,81.15,81.15,0,0,0,5.5,16.12,254.06,254.06,0,0,0,47.2,31.92Z" fill="#545454"/><path d="M569.48,492.49l-5.31,5.9a353.5,353.5,0,0,0,29.54,28.07,81.15,81.15,0,0,1-5.5-16.12Q578.52,501.78,569.48,492.49Z" fill="#212121"/><path d="M733,510.13c1.75-9.47-10.09-16-19.27-23.35a236.47,236.47,0,0,1-53.34,38.53l24.82,44.82s4.24-2,10.94-5.66C713.63,550.17,727.92,533.28,733,510.13Z" fill="#fff"/><path d="M766.17,508.72,737,477a79.69,79.69,0,0,0-21.59-1.05v9.17s-.59.61-1.7,1.71c9.18,7.37,21,13.88,19.27,23.35-5.1,23.15-19.39,40-36.85,54.34C713.36,555.06,746.76,534.63,766.17,508.72Z" fill="#969696"/><polygon points="751.89 493.15 757.31 499.05 757.31 499.05 751.89 493.15 751.89 493.15" fill="#3b3b3b"/><path d="M674.63,551a308.93,308.93,0,0,0,58.17-40,79.86,79.86,0,0,1-5.6,16.12A259.77,259.77,0,0,1,679.09,559Z" fill="#545454"/><path d="M751.89,493.15l5.42,5.9a357.91,357.91,0,0,1-30.11,28.07A79.86,79.86,0,0,0,732.8,511Q742.69,502.45,751.89,493.15Z" fill="#212121"/><path d="M491,846.52C508,894,540.27,984.78,539.23,988.94c-1.19,4.77-8.21,37.74-12.23,47.87,17.7,3.65,157.6,30.6,269.45-3.85-4.23-10.67-12.87-42.68-14-47.37-.83-3.33,20.39-68.9,37.06-116.57,2.9-8.3,5.63-15.84,8.09-22.47C719.08,809.34,546.74,836.23,491,846.52Z" fill="#fff"/><path d="M465.77,791a202.24,202.24,0,0,0,14.93,27.09s4.16,11.44,10.25,28.4c55.79-10.29,228.13-37.18,336.61,0,7.4-20,12.38-31.79,12.38-31.79,2.07-2.65,4-4.92,5.78-6.87a142.54,142.54,0,0,0,13.44-22.41C692.05,744.33,527.35,776,465.77,791Z" fill="#3b3b3b"/><path d="M477.06,788.35v0a944.06,944.06,0,0,1,204.72-23.19C593.76,764.89,519.44,778.61,477.06,788.35Z" fill="none"/><path d="M450.34,745.13c.09.45.19.9.28,1.35-.11-.54-.23-1.08-.34-1.63Z" fill="#212121"/><path d="M465.77,791c3.45-.84,7.23-1.74,11.3-2.66v0C473,789.29,469.23,790.19,465.77,791Z" fill="#212121"/><path d="M449.56,741.14c.07.39.15.78.23,1.17-.09-.43-.17-.86-.25-1.29A.5.5,0,0,1,449.56,741.14Z" fill="#212121"/><path d="M451.2,749.11c.1.45.21.9.32,1.35h0c-.15-.62-.29-1.25-.44-1.88Z" fill="#212121"/><path d="M452.16,753.1l.28,1.09,0,.07c-.18-.7-.35-1.4-.53-2.1C452,752.47,452.08,752.79,452.16,753.1Z" fill="#212121"/><path d="M480.54,817.88l-.09-.14Z" fill="#212121"/><path d="M480.68,818.08l-.05-.07Z" fill="#212121"/><path d="M480.35,817.59l-.58-.87Z" fill="#212121"/><path d="M459,775c-.4-1-.79-2.11-1.17-3.18C458.25,772.85,458.64,773.92,459,775Z" fill="#212121"/><path d="M457.75,771.46c-.4-1.15-.8-2.3-1.2-3.48C457,769.16,457.35,770.31,457.75,771.46Z" fill="#212121"/><path d="M452.76,755.38c.16.6.31,1.2.48,1.79.05.21.11.42.17.63q1.47,5.25,3.14,10.18c-.41-1.22-.81-2.45-1.21-3.7C454.43,761.39,453.56,758.41,452.76,755.38Z" fill="#212121"/><path d="M459.13,775.2a225.32,225.32,0,0,0,20.58,41.42A214.47,214.47,0,0,1,465.77,791C463.55,786.24,461.28,780.93,459.13,775.2Z" fill="#212121"/><path d="M841.6,812.68c-.55.67-1.1,1.36-1.66,2.08C840.5,814,841.05,813.35,841.6,812.68Z" fill="#212121"/><path d="M843.13,810.84q-.37.43-.75.9Q842.76,811.27,843.13,810.84Z" fill="#212121"/><path d="M824.58,845.56,819.47,869c11.28-30.13,20.47-54.26,20.47-54.26s-5,11.83-12.38,31.79C826.57,846.21,825.58,845.89,824.58,845.56Z" fill="#212121"/><path d="M844.52,809.23l-.36.41Z" fill="#212121"/><path d="M452.76,755.38l-.3-1.12Z" fill="none"/><path d="M457.87,771.78l-.12-.32Z" fill="none"/><path d="M456.55,768Z" fill="none"/><path d="M451.93,752.16c-.14-.57-.28-1.13-.41-1.7C451.65,751,451.79,751.59,451.93,752.16Z" fill="none"/><path d="M459.13,775.2,459,775Z" fill="none"/><path d="M449.54,741q-.35-1.93-.66-3.9Q449.19,739.08,449.54,741Z" fill="none"/><path d="M527.94,778.06s-38.12-8.47-52.24-21.18c0,0-.17,13,1.36,31.47,42.38-9.74,116.7-23.46,204.73-23.17a781.25,781.25,0,0,1,120.48,9,203.06,203.06,0,0,0,58.75-51c-172.9-43.11-338.26-6.47-393.09,8.42A214.5,214.5,0,0,0,527.94,778.06Z" fill="none"/><path d="M843.47,759S829,769.63,813,775.88q12.81,2.21,25.7,4.93Z" fill="none"/><path d="M449.79,742.31c.16.85.32,1.7.49,2.54-.16-.8-.32-1.6-.47-2.4Z" fill="none"/><path d="M450.62,746.48c.15.7.31,1.4.46,2.1-.15-.67-.29-1.33-.43-2Z" fill="none"/><path d="M477.06,788.35c-1.53-18.46-1.36-31.47-1.36-31.47,14.12,12.71,52.24,21.18,52.24,21.18a214.5,214.5,0,0,1-60-46.53c-12.31,3.34-19.05,5.59-19.05,5.59q.31,2,.66,3.9c.08.43.16.86.25,1.29l0,.14c.15.8.31,1.6.47,2.4.11.55.23,1.09.34,1.63l0,.1c.14.67.28,1.33.43,2s.29,1.26.44,1.88.27,1.13.41,1.7.35,1.4.53,2.1l.3,1.12c.8,3,1.67,6,2.58,8.9.4,1.25.8,2.48,1.21,3.7h0c.4,1.18.8,2.33,1.2,3.48l.12.32c.38,1.07.77,2.14,1.17,3.18l.09.24c2.15,5.73,4.42,11,6.64,15.83C469.23,790.19,473,789.29,477.06,788.35Z" fill="#969696"/><path d="M802.27,774.13q5.37.82,10.74,1.75c16-6.25,30.46-16.88,30.46-16.88l-4.76,21.81q8,1.7,15.93,3.59c8.13-18.56,14.24-59.28,14.24-59.28q-3.93-1-7.86-2A203.06,203.06,0,0,1,802.27,774.13Z" fill="#969696"/><path d="M844.16,809.64l-1,1.2Z" fill="none"/><path d="M845.72,807.89c-.4.43-.8.88-1.2,1.34C844.92,808.77,845.33,808.32,845.72,807.89Z" fill="none"/><path d="M842.38,811.74l-.78.94Z" fill="none"/><path d="M480.63,818l-.09-.13Z" fill="none"/><path d="M480.7,818.12l0,0Z" fill="none"/><path d="M479.77,816.72l-.06-.1Z" fill="none"/><path d="M811.46,776.47c-7.16,2.66-14.53,4.35-20.93,3.71a118.41,118.41,0,0,0,10.69-5.46,764.72,764.72,0,0,0-119.43-9.54,944.06,944.06,0,0,0-204.72,23.19c.74,8.92,1.88,19.12,3.63,29.75,0,0,4.16,11.44,10.25,28.4,55.28-10.2,225-36.68,333.63-1l13.91-63.73Q824.92,778.85,811.46,776.47Z" fill="none"/><path d="M480.45,817.74l-.1-.15Z" fill="none"/><path d="M479.71,816.62l.06.1.58.87.1.15.09.14.09.13.05.07,0,0c-1.75-10.63-2.89-20.83-3.63-29.75-4.07.92-7.85,1.82-11.3,2.66" fill="#212121"/><path d="M790.53,780.18c6.4.64,13.77-1,20.93-3.71-3.42-.61-6.84-1.19-10.24-1.75A118.41,118.41,0,0,1,790.53,780.18Z" fill="#212121"/><path d="M859.16,785.48l-4.52-1.08q-.24.55-.48,1.08-7.85-1.93-15.67-3.65l-13.91,63.73c1,.33,2,.65,3,1,7.4-20,12.38-31.79,12.38-31.79.56-.72,1.11-1.41,1.66-2.08l.78-.94q.38-.47.75-.9l1-1.2.36-.41c.4-.46.8-.91,1.2-1.34h0A142.54,142.54,0,0,0,859.16,785.48Z" fill="#212121"/><path d="M681.79,765.18a764.72,764.72,0,0,1,119.43,9.54l1-.59A781.25,781.25,0,0,0,681.79,765.18Z" fill="none"/><path d="M813,775.88l-1.55.59q13.45,2.38,27,5.36l.22-1Q825.83,778.08,813,775.88Z" fill="none"/><path d="M802.27,774.13l-1,.59c3.4.56,6.82,1.14,10.24,1.75l1.55-.59Q807.64,775,802.27,774.13Z" fill="#212121"/><path d="M838.49,781.83q7.82,1.73,15.67,3.65.24-.53.48-1.08-8-1.9-15.93-3.59Z" fill="#212121"/><path d="M870.91,836.17c-.06-.14-.12-.27-.19-.41l-.72.18Z" fill="none"/><path d="M976.64,703.44c-2.51-4.76-4-7.26-4-7.26.09-.79.17-1.57.25-2.35-20.39,10.57-45,21.85-55.31,20.7l4.09,14.74C939.83,720.33,958.63,712.4,976.64,703.44Z" fill="#fff"/><path d="M923.92,737.34l4.26,15.31s32.36-12.14,60-25.23c-2.34-5.27-4.53-9.92-6.48-13.92A345.31,345.31,0,0,1,923.92,737.34Z" fill="#fff"/><rect width="1259.23" height="2194.12" fill="none"/></g></g></g></svg>