<svg xmlns="http://www.w3.org/2000/svg" width="1259.23" height="2194.12" viewBox="0 0 1259.23 2194.12"><defs><style>.a{fill:#9c5d13;}.b{fill:#d17d19;}.c{fill:none;}</style></defs><title>3_men_beard&amp;amp;mustache_5</title><path class="a" d="M704.56,379.76c-2.34-2.53-5.56-3.56-9.8-6.42-36.46,17.18-79,5.5-87.13-.41-4.69,3.17-8.2,4.59-10.66,7.36a3.72,3.72,0,0,0,2.9,6.2c18.94-.62,87.58-2,101.71-.75A3.58,3.58,0,0,0,704.56,379.76Z"/><path class="b" d="M694.76,373.34c-7.77-5.25-27-11.95-42.58-11.95-14.38,0-37,6.45-44.55,11.54C615.73,378.84,658.3,390.52,694.76,373.34Z"/><rect class="c" width="1259.23" height="2194.12"/></svg>