<svg xmlns="http://www.w3.org/2000/svg" width="1259.23" height="2194.12" viewBox="0 0 1259.23 2194.12"><title>3_men_pants_8</title><g id="Layer_2" data-name="Layer 2"><g id="Layer_141" data-name="Layer 141"><g id="_3_men_pants_8" data-name="3_men_pants_8"><path d="M844.24,1202.38C825.7,1076.33,796.45,1033,796.45,1033a350.47,350.47,0,0,1-40.75,9.8c7.26,33.1,12.47,66.69,18.77,99.89C797.87,1162.56,822.06,1181.34,844.24,1202.38Z" fill="#c2a35f"/><path d="M570.27,1043.89c-22.39-2.94-38.09-6-43.27-7.08-19.14,35.41-34,84.86-45.43,139.2q-1.85,8.79-3.58,17.75c22.32-19.15,45.29-37.85,69.64-54A694.32,694.32,0,0,1,570.27,1043.89Z" fill="#c2a35f"/><path d="M774.47,1142.65c-6.3-33.2-11.51-66.79-18.77-99.89-68.47,12.4-140.47,7-185.43,1.13a694.32,694.32,0,0,0-22.64,95.91l-2.46,1.66c-17.33,137.73-21.79,276.55-18.54,415.07,35.81,3,74,2.68,103-3.41,38.11-152.47,30.7-328.24,30.7-328.24l8.47,2.12c-5.29,94.24,26.83,311.29,30,326.12.12.55,39.93,10.86,103.18,7.67-10.3-137.77-10.44-276-22.22-413.72Z" fill="#f5ed95"/><path d="M844.24,1202.38c-20.52-19.47-42.77-37-64.52-55.31,11.78,137.67,11.92,276,22.22,413.72,16.58-.83,48.77-2.59,68.29-5.7C877.53,1397,856.07,1282.85,844.24,1202.38Z" fill="#e6ca77"/><path d="M545.17,1141.46c-23.43,15.72-45.61,33.8-67.18,52.3-27.68,143-33,312.2-30.52,349.48,19.85,5.79,48.64,10.73,79.16,13.29C523.38,1418,527.84,1279.19,545.17,1141.46Z" fill="#e6ca77"/><path d="M870.91,836.17c-.06-.14-.12-.27-.19-.41l-.72.18Z" fill="#fff7c8"/><rect x="644.18" y="1073.88" width="37.41" height="140.47" fill="#c2a35f"/><path d="M840.57,1179.25C822.09,1071,796.45,1033,796.45,1033c-8.88,2.73-17.94,5.08-27.1,7.08,5.16,32.25,12.64,63.57,18.16,95.68C803.9,1151.74,822.13,1165.83,840.57,1179.25Z" fill="#e0bf75"/><path d="M559.2,1042.35c-16.47-2.41-27.92-4.66-32.2-5.54-19.17,35.48-35.91,84.53-45.43,139.2,16.08-16.11,38.92-28.28,56.31-43.46C542.15,1102.09,550.08,1072,559.2,1042.35Z" fill="#e0bf75"/><path d="M568.14,1043.6c-3.39,13.33-6.2,26.66-8.62,40q8.31,1.5,17.46,2.84c1.43-13.81,3-27.65,6.16-41C577.85,1044.86,572.84,1044.23,568.14,1043.6Z" fill="#c2a35f"/><path d="M632.91,1049.5c-18.21-.86-35-2.36-49.77-4-3.16,13.32-4.73,27.16-6.16,41,16.17,2.35,34.23,4.23,53.84,5.11A360.1,360.1,0,0,1,632.91,1049.5Z" fill="#c2a35f"/><path d="M527,1036.81a276.53,276.53,0,0,0-15.79,35.55,474.25,474.25,0,0,0,48.31,11.23c2.42-13.33,5.23-26.66,8.62-40C546.89,1040.75,532,1037.84,527,1036.81Z" fill="#c2a35f"/><path d="M632.91,1049.5a360.1,360.1,0,0,0-2.09,42,535.28,535.28,0,0,0,62.64-.85c-.8-13.66-1.93-27.34-4-40.9C669.81,1050.58,650.71,1050.35,632.91,1049.5Z" fill="#c2a35f"/><path d="M689.43,1049.79c2.1,13.56,3.23,27.24,4,40.9a521.56,521.56,0,0,0,58.24-7.55c-1-13.06-2.37-26.24-2.9-39.19A493.3,493.3,0,0,1,689.43,1049.79Z" fill="#c2a35f"/><path d="M748.8,1044c.53,13,2,26.13,2.9,39.19q8.71-1.65,17.58-3.64a308,308,0,0,0-4.67-38.47Q756.75,1042.65,748.8,1044Z" fill="#c2a35f"/><path d="M796.45,1033c-10.41,3.21-21.06,5.86-31.84,8.07a308,308,0,0,1,4.67,38.47c14.14-3.18,28.55-7,43.16-11.72C803.28,1043.09,796.45,1033,796.45,1033Z" fill="#c2a35f"/><path d="M677.59,1221.35c38.11-7.06,66.35-36.7,66.35-36.7-80.47,50.82-150.35,0-150.35,0,24.48,24.48,49.39,33.17,58.85,35.75-2.34,41.66-22.85,332.72-22.85,332.72,36.26-125.11,30.7-328.24,30.7-328.24l8.47,2.12c-3.48,62.07,7.41,224.47,30,326.12-9.5-55.74-12.7-238.59-21.63-331.77Z" fill="#c2a35f"/><path d="M870.72,835.76l-.72.18.91.23C870.85,836,870.79,835.9,870.72,835.76Z" fill="none"/><path d="M864.69,1344.74c3.73,7.36,10.58,42.86,10.42,75.69-6,.27-13.94.49-22.83.66-1.12-26.07-3-51.92-8.64-77.09C856.06,1344.29,864.69,1344.74,864.69,1344.74Z" fill="#e0bf75"/><path d="M843.64,1344c5.64,25.17,7.52,51,8.64,77.09-16,.3-35,.42-50.64.28-1.78-25.67-4-51.48-5.72-77C812.2,1343.55,830.15,1343.68,843.64,1344Z" fill="#fff"/><path d="M795.92,1344.39c1.75,25.5,3.94,51.31,5.72,77-16.13-.14-28.62-.56-30.42-1.35-4.74-2.08-10.77-52.18-12.72-69.47C765.29,1347,779.78,1345.23,795.92,1344.39Z" fill="#e0bf75"/><path d="M758.5,1350.55c2,17.29,8,67.39,12.72,69.47,4.51,2,70.7-.73,98.49-2-.17,34.35-.1,64.36-3,68.21-5.72,7.53-99.29,4-105,1.49S756,1352.27,756,1352.27A11.21,11.21,0,0,1,758.5,1350.55Z" fill="#c2a35f"/><ellipse cx="827.81" cy="1397.43" rx="9.54" ry="12.55" fill="#7d7d7d"/><path d="M447.37,1344.74c-3.72,7.36-10.58,42.86-10.42,75.69,6,.27,13.94.49,22.84.66,1.11-26.07,3-51.92,8.63-77.09C456,1344.29,447.37,1344.74,447.37,1344.74Z" fill="#e0bf75"/><path d="M468.42,1344c-5.64,25.17-7.52,51-8.63,77.09,16,.3,35,.42,50.63.28,1.78-25.67,4-51.48,5.72-77C499.87,1343.55,481.91,1343.68,468.42,1344Z" fill="#fff"/><path d="M516.14,1344.39c-1.75,25.5-3.94,51.31-5.72,77,16.13-.14,28.63-.56,30.43-1.35,4.73-2.08,10.77-52.18,12.71-69.47C546.77,1347,532.29,1345.23,516.14,1344.39Z" fill="#e0bf75"/><path d="M553.56,1350.55c-1.94,17.29-8,67.39-12.71,69.47-4.52,2-70.71-.73-98.5-2,.17,34.35,2.1,56.36,5,60.21,5.73,7.53,97.29,12,103,9.49s5.72-135.49,5.72-135.49A11.21,11.21,0,0,0,553.56,1350.55Z" fill="#c2a35f"/><ellipse cx="484.26" cy="1397.43" rx="9.54" ry="12.55" fill="#7d7d7d"/><path d="M615,1222.61c-.44,9.38-.77,19.23-1,29.71a5,5,0,0,0,4.91,5.09H619a5,5,0,0,0,5-4.91c.19-10.73.53-20.78,1-30.35A53.66,53.66,0,0,0,615,1222.61Z" fill="#7d7d7d"/><path d="M643.23,1066a5,5,0,0,0-5.94,3.82c-11.7,54-19.51,93.74-22.33,152.79a53.66,53.66,0,0,1,10-.46c2.83-57.82,10.54-97.08,22.06-150.21A5,5,0,0,0,643.23,1066Z" fill="#fff"/><path d="M719.27,1223.67c.45,9.38.77,19.22,1,29.71a5,5,0,0,1-4.9,5.09h-.1a5,5,0,0,1-5-4.91c-.2-10.73-.54-20.78-1-30.35A52.79,52.79,0,0,1,719.27,1223.67Z" fill="#7d7d7d"/><path d="M691,1067.05a5,5,0,0,1,5.94,3.83c11.7,53.95,19.51,93.74,22.33,152.79a52.79,52.79,0,0,0-10-.46c-2.83-57.82-10.54-97.08-22.06-150.21A5,5,0,0,1,691,1067.05Z" fill="#fff"/><rect width="1259.23" height="2194.12" fill="none"/></g></g></g></svg>