<svg xmlns="http://www.w3.org/2000/svg" width="1259.23" height="2194.12" viewBox="0 0 1259.23 2194.12"><defs><style>.a{fill:#fff;}.b{fill:#bfbfbf;}.c{fill:none;}</style></defs><title>3_men_hair_11</title><path class="a" d="M817.34,242.08c.21-4.83.28-10.16.13-15.85-8,5.17-17.44,8.35-26.88,10.12C797.45,243.21,807.19,243.82,817.34,242.08Z"/><path class="b" d="M790.59,236.35c9.44-1.77,18.87-4.95,26.88-10.12a206.59,206.59,0,0,0-1.66-21c-10.32,5.07-22.81,6.76-34.22,9.16C777.38,171.44,759,125.7,727.08,95a172.1,172.1,0,0,0-18.43-4.46s57.88,33.88,59.29,132.71c0,0,26.82,12.7,25.41,52.23,0,0,8.47-8.47,21.18-7.06a185.16,185.16,0,0,0,2.81-26.33C807.19,243.82,797.45,243.21,790.59,236.35Z"/><path class="a" d="M781.59,214.35c11.41-2.4,23.9-4.09,34.22-9.16-5.44-41.33-25.76-91.07-88.73-110.2C759,125.7,777.38,171.44,781.59,214.35Z"/><path class="b" d="M790.53,356.65l-2.71,37.41a45.51,45.51,0,0,0,4.56-5.13c6.81-12.8,12.46-26.19,15-40.62C794,357.23,790.53,356.65,790.53,356.65Z"/><path class="a" d="M480.15,239.26c-.21-4.83-.28-10.16-.13-15.86,8,5.18,17.44,8.36,26.88,10.13C500,240.39,490.3,241,480.15,239.26Z"/><path class="b" d="M506.9,233.53c-9.44-1.77-18.87-4.95-26.88-10.13a206.4,206.4,0,0,1,1.66-21c10.32,5.07,22.81,6.76,34.22,9.16,4.21-42.91,22.58-84.66,54.52-115.36a168.61,168.61,0,0,1,18.43-4.46s-57.89,29.88-59.3,128.7c0,0-24.82,13.71-23.41,53.24,0,0-10.67-9.47-23.18-4.06,0,0-2.12-14.45-2.81-30.33C490.3,241,500,240.39,506.9,233.53Z"/><path class="a" d="M515.9,211.53c-11.41-2.4-23.9-4.09-34.22-9.16,5.44-41.33,25.76-87.07,88.74-106.2C538.48,126.87,520.11,168.62,515.9,211.53Z"/><path class="b" d="M509.67,391.24,507,353.82s-5.23,0-16.76-10.18c2.83,14.52,7.19,28.78,14.3,41.55A43.64,43.64,0,0,0,509.67,391.24Z"/><rect class="c" width="1259.23" height="2194.12"/></svg>