<svg xmlns="http://www.w3.org/2000/svg" width="1259.23" height="2194.12" viewBox="0 0 1259.23 2194.12"><defs><style>.a{fill:#402b0f;}.b{fill:#644721;}.c{fill:none;}</style></defs><title>3_men_beard_9_1</title><path class="a" d="M660.34,461.67H641.19c-39.93-4.37-73.83-29.44-80.28-48.17a30.07,30.07,0,0,0-.72,13.54c4.15,18.92,39.3,46.07,81,50.63h19.15c41.7-4.56,76.85-31.71,81-50.63a29.91,29.91,0,0,0-.71-13.54C734.17,432.23,700.27,457.3,660.34,461.67Z"/><path class="b" d="M701.28,359.24c-2.88-1.26-6.82-.93-11.22.37-8.82,2.59-19.52,9-27.38,14.32a2.42,2.42,0,0,0,1.83,4.39c9.12-2.17,20.85-4.21,27.23-2.34,6.93,2,11.76,15.71,14.7,26.75.62,2.3,1.15,4.48,1.6,6.42a12.54,12.54,0,0,1-4.71,12.93c-7.74,5.7-20.64,16.84-28.86,16.29-12.4-.84-6.68-8.8-6.68-8.8-4.35,1.51-11.3,2.26-17,2.65-5.72-.39-12.67-1.14-17-2.65,0,0,5.72,8-6.68,8.8-8.23.55-21.12-10.59-28.87-16.29a12.53,12.53,0,0,1-4.7-12.93c.45-1.94,1-4.12,1.59-6.42,2.95-11,7.78-24.72,14.71-26.75,6.38-1.87,18.1.17,27.22,2.34a2.43,2.43,0,0,0,1.84-4.39c-7.86-5.29-18.56-11.73-27.38-14.32-4.41-1.3-8.35-1.63-11.22-.37-10.9,4.78-33.86,32.42-39.34,54.26,6.45,18.73,40.35,43.8,80.28,48.17h19.15c39.93-4.37,73.83-29.44,80.28-48.17C735.14,391.66,712.18,364,701.28,359.24Z"/><rect class="c" width="1259.23" height="2194.12"/></svg>