<svg xmlns="http://www.w3.org/2000/svg" width="1259.23" height="2194.12" viewBox="0 0 1259.23 2194.12"><title>3_men_pants_3</title><g id="Layer_2" data-name="Layer 2"><g id="Layer_141" data-name="Layer 141"><g id="_3_men_pants_3" data-name="3_men_pants_3"><path d="M879.78,1994c-.88.16-1.79.31-2.72.46C878,1994.35,878.9,1994.2,879.78,1994Z" fill="#ded2bd"/><path d="M452.39,1996.92l-2.9-.76Z" fill="#ded2bd"/><path d="M873.87,1995c1-.14,2-.29,3-.45C875.87,1994.7,874.88,1994.85,873.87,1995Z" fill="#ded2bd"/><path d="M823.12,1606.81c15.79-191.47-49.57-527.26-57.27-566-81.41,17-170.05,7.32-213.54.52-10.47,60.09-63.95,380.83-48.79,564.62l0,.32-51.13,390.67c50,12.49,99.88-.16,99.88-.16,0-72,39.18-224.47,39.18-224.47,38.12-82.58,1.06-202.23,1.06-202.23,55.06-127.06,67.76-345.18,67.76-345.18l8.47,2.12c-5.29,94.24,56.12,309.18,59.3,324s3.17,24.35,3.17,24.35c-41.29,122.83,14.83,242.47,16.95,259.41s29.64,156.71,29.64,156.71c45.1,7.34,76.16,6.37,96,3.52L823.1,1607.13Z" fill="#ded2bd"/><path d="M449.49,1996.16h0Z" fill="#8f8575"/><path d="M452.41,1996.92Z" fill="#8f8575"/><path d="M554.06,1031.47l-2.1,9.78.35.06C553.39,1035.15,554,1031.72,554.06,1031.47Z" fill="#8f8575"/><path d="M552.31,1041.31l-.35-.06c-12.58-2-21.34-3.69-25-4.44-75.3,139.37-64.18,498.25-61,515.19s7.41,54,7.41,54l-54.53,378.06a137.77,137.77,0,0,0,27.69,11.27h0c1,.29,1.95.56,2.92.82h0l2.9.76h0l51.13-390.67,0-.32C488.36,1422.14,541.84,1101.4,552.31,1041.31Z" fill="#bdaf9a"/><polygon points="873.86 1994.99 873.87 1994.99 873.86 1994.99 873.86 1994.99" fill="#8f8575"/><path d="M877.06,1994.5l-.24,0Z" fill="#8f8575"/><polygon points="879.79 1994.04 879.79 1994.04 879.78 1994.04 879.79 1994.04" fill="#8f8575"/><path d="M765.12,1037.12l.73,3.67.36-.08Z" fill="#8f8575"/><path d="M854.41,1590.12c25.06-434.12-58-557.16-58-557.16-9.89,3-20,5.6-30.24,7.75l-.36.08c7.7,38.76,73.06,374.55,57.27,566l0,.32L873.86,1995h0c1-.14,2-.29,3-.45l.24,0c.93-.15,1.84-.3,2.72-.46h0c16-2.9,23-6.8,23-6.8C894.29,1972.41,854.41,1590.12,854.41,1590.12Z" fill="#bdaf9a"/><path d="M870.91,836.17c-.06-.14-.12-.27-.19-.41l-.72.18Z" fill="#fff7c8"/><rect x="644.18" y="1073.88" width="37.41" height="140.47" fill="#8f8575"/><path d="M840.57,1179.25C822.09,1071,796.45,1033,796.45,1033c-8.88,2.73-17.94,5.08-27.1,7.08,5.16,32.25,12.64,63.57,18.16,95.68C803.9,1151.74,822.13,1165.83,840.57,1179.25Z" fill="#8f8575"/><path d="M559.2,1042.35c-16.47-2.41-27.92-4.66-32.2-5.54-19.17,35.48-32.74,85.19-42.26,139.87,16.08-16.12,35.75-29,53.14-44.13C542.15,1102.09,550.08,1072,559.2,1042.35Z" fill="#8f8575"/><path d="M568.14,1043.6c-3.39,13.33-6.2,26.66-8.62,40q8.31,1.5,17.46,2.84c1.43-13.81,3-27.65,6.16-41C577.85,1044.86,572.84,1044.23,568.14,1043.6Z" fill="#ded2bd"/><path d="M632.91,1049.5c-18.21-.86-35-2.36-49.77-4-3.16,13.32-4.73,27.16-6.16,41,16.17,2.35,34.23,4.23,53.84,5.11A360.1,360.1,0,0,1,632.91,1049.5Z" fill="#7d4c32"/><path d="M527,1036.81a276.53,276.53,0,0,0-15.79,35.55,474.25,474.25,0,0,0,48.31,11.23c2.42-13.33,5.23-26.66,8.62-40C546.89,1040.75,532,1037.84,527,1036.81Z" fill="#7d4c32"/><path d="M632.91,1049.5a360.1,360.1,0,0,0-2.09,42,535.28,535.28,0,0,0,62.64-.85c-.8-13.66-1.93-27.34-4-40.9C669.81,1050.58,650.71,1050.35,632.91,1049.5Z" fill="#18242e"/><path d="M689.43,1049.79c2.1,13.56,3.23,27.24,4,40.9a521.56,521.56,0,0,0,58.24-7.55c-1-13.06-2.37-26.24-2.9-39.19A493.3,493.3,0,0,1,689.43,1049.79Z" fill="#7d4c32"/><path d="M748.8,1044c.53,13,2,26.13,2.9,39.19q8.71-1.65,17.58-3.64a308,308,0,0,0-4.67-38.47Q756.75,1042.65,748.8,1044Z" fill="#ded2bd"/><path d="M796.45,1033c-10.41,3.21-21.06,5.86-31.84,8.07a308,308,0,0,1,4.67,38.47c14.14-3.18,28.55-7,43.16-11.72C803.28,1043.09,796.45,1033,796.45,1033Z" fill="#7d4c32"/><path d="M677.59,1221.35c38.11-7.06,66.35-36.7,66.35-36.7-80.47,50.82-150.35,0-150.35,0,24.48,24.48,49.39,33.17,58.85,35.75-2.34,41.66-18.62,190.84-37.56,286.13h0c36.26-125.1,45.38-281.65,45.38-281.65l8.47,2.12c-3.48,62.07,22,176.49,40.66,251.62-9.51-55.74-29.79-181.93-32.29-257.27Z" fill="#8f8575"/><path d="M764.06,1566.88s0,29.65,13.76,40.24,36-2.12,36-2.12C789.47,1608.18,764.06,1570.06,764.06,1566.88Z" fill="#8f8575"/><path d="M826.53,1602.88c19.06,28.59,25.41-29.64,25.41-29.64C845.59,1596.53,826.53,1602.88,826.53,1602.88Z" fill="#8f8575"/><path d="M509.94,1612.41s22.24,12.71,36,2.12,13.76-40.24,13.76-40.24C559.7,1577.47,534.29,1615.59,509.94,1612.41Z" fill="#8f8575"/><path d="M471.82,1580.65s6.36,58.23,25.41,29.64C497.23,1610.29,478.18,1603.94,471.82,1580.65Z" fill="#8f8575"/><path d="M870.72,835.76l-.72.18.91.23C870.85,836,870.79,835.9,870.72,835.76Z" fill="none"/><rect width="1259.23" height="2194.12" fill="none"/></g></g></g></svg>