<svg xmlns="http://www.w3.org/2000/svg" width="1259.23" height="2194.12" viewBox="0 0 1259.23 2194.12"><defs><style>.a{fill:#574431;}.b{fill:none;}</style></defs><title>3_men_beard_3_3</title><path class="a" d="M737.51,410.39c-16.81-2.23-21.18-15.33-35.93-35.35-14-19.05-43.75-17-52.2-16-8.46-1-38.17-3.05-52.21,16-14.75,20-19.12,33.12-35.93,35.35a2.67,2.67,0,0,0-1.21,4.86c5.59,3.76,15.61,7.77,29.69,2.92,22.18-7.65,29.83-31.7,59.66-32.88,29.82,1.18,37.47,25.23,59.65,32.88,14.08,4.85,24.1.84,29.69-2.92A2.67,2.67,0,0,0,737.51,410.39Z"/><rect class="b" width="1259.23" height="2194.12"/></svg>