<svg xmlns="http://www.w3.org/2000/svg" width="1259.23" height="2194.12" viewBox="0 0 1259.23 2194.12"><defs><style>.a{fill:#703a13;}.b{fill:none;}</style></defs><title>3_men_beard&amp;amp;mustache_7</title><path class="a" d="M645.57,375.39a3.86,3.86,0,0,0,3.12-5.9c-5-7.9-15.55-18.77-33.09-10.79-26,11.81-25.6,24.41-40.56,27.56a11.49,11.49,0,0,1-12.6-5.12s-4.72,20.08,19.69,19.69C602.07,400.51,627.66,376.16,645.57,375.39Z"/><path class="a" d="M656,375.39a3.86,3.86,0,0,1-3.12-5.9c5-7.9,15.55-18.77,33.09-10.79,26,11.81,25.59,24.41,40.56,27.56a11.5,11.5,0,0,0,12.6-5.12s4.72,20.08-19.69,19.69C699.46,400.51,673.87,376.16,656,375.39Z"/><path class="a" d="M676.59,454c-9.26-10.05-25.16-20.09-25.16-20.09A238.74,238.74,0,0,0,626.3,454C645.1,455.12,657.53,455.44,676.59,454Z"/><rect class="b" width="1259.23" height="2194.12"/></svg>