<svg xmlns="http://www.w3.org/2000/svg" width="1259.23" height="2194.12" viewBox="0 0 1259.23 2194.12"><defs><style>.a{fill:#520008;}.b{fill:#be1e2d;}.c{fill:#fff;}.d{fill:none;}</style></defs><title>3_men_Glasses_B_3</title><path d="M523.42,272.53H507.26a6,6,0,0,1,0-12h16.16a6,6,0,0,1,0,12Z"/><path d="M791.89,272.53H772.73a6,6,0,0,1,0-12h19.16a6,6,0,1,1,0,12Z"/><path d="M627.17,275,622,264.1c1.16-.55,31.64-13.25,53.23.35l-6.39,10.16C652.79,264.47,627.39,274.85,627.17,275Z"/><path d="M627.17,280,622,269.1c1.16-.55,31.64-13.25,53.23.35l-6.39,10.16C652.79,269.47,627.39,279.85,627.17,280Z"/><path class="a" d="M574.13,234.76a45,45,0,1,1-45,45,45,45,0,0,1,45-45m0-9a54,54,0,1,0,54,54,54,54,0,0,0-54-54Z"/><path class="b" d="M574.13,230.53a45,45,0,1,1-45,45,45,45,0,0,1,45-45m0-9a54,54,0,1,0,54,54,54,54,0,0,0-54-54Z"/><path class="c" d="M536.11,284.22a39.11,39.11,0,0,0,32.08,29.85,2.22,2.22,0,0,0,1.88-3.78l-28.86-28.87C537.16,277.38,534.84,278.65,536.11,284.22Z"/><path class="c" d="M614.14,266.23a39.1,39.1,0,0,0-32.07-29.85,2.23,2.23,0,0,0-1.88,3.79L609.05,269C613.09,273.07,615.42,271.8,614.14,266.23Z"/><path class="a" d="M722.84,230.88a45,45,0,1,1-45,45,45.05,45.05,0,0,1,45-45m0-9a54,54,0,1,0,54,54,54,54,0,0,0-54-54Z"/><path class="b" d="M722.84,226.65a45,45,0,1,1-45,45,45,45,0,0,1,45-45m0-9a54,54,0,1,0,54,54,54,54,0,0,0-54-54Z"/><path class="c" d="M684.82,280.34a39.11,39.11,0,0,0,32.07,29.85,2.23,2.23,0,0,0,1.89-3.78l-28.87-28.87C685.87,273.5,683.54,274.77,684.82,280.34Z"/><path class="c" d="M762.85,262.35a39.11,39.11,0,0,0-32.07-29.85,2.23,2.23,0,0,0-1.89,3.78l28.86,28.87C761.8,269.19,764.12,267.92,762.85,262.35Z"/><rect class="d" width="1259.23" height="2194.12"/></svg>