<svg xmlns="http://www.w3.org/2000/svg" width="1259.23" height="2194.12" viewBox="0 0 1259.23 2194.12"><defs><style>.a{fill:#4f1e0d;}.b{fill:#692811;}.c{fill:#873e24;}.d{fill:none;}</style></defs><title>3_men_hair_2</title><path class="a" d="M612.59,201.35a12.37,12.37,0,0,1-2.39.46q-2.55,1.32-5.15,2.54c50.59-2.23,98.66-33.19,122.75-77.55,4.11.94,8.25,2,12.43,3.11l.21.06a76.79,76.79,0,0,0-22.85-11.62C697.59,158.35,659.59,192.35,612.59,201.35Z"/><path class="a" d="M605.59,156.35c-23,3-54,7-72-9-2.34,8.57-5.88,17.15-6.86,26.19l1-4.41c.32-1.44.72-2.85,1.16-4.24,20.23,8.06,43,9.64,64.68,6.36,26.91-4.08,52.31-15.17,76.07-28.46-.63,1.19-1.29,2.36-1.95,3.53a80.2,80.2,0,0,0,14.9-22C660.59,142.35,633.59,152.35,605.59,156.35Z"/><path class="b" d="M665.59,41.12c-225-26.83-194.07,124.76-183.86,229.67,0,0,23.69-5.59,23.76-1.69l-.62-38.84a27.9,27.9,0,0,0,13.62-19.14c2.22-12,5.1-23.83,8.24-37.58,1-9,4.52-17.62,6.86-26.19,18,16,49,12,72,9,28-4,55-14,77-32a80.2,80.2,0,0,1-14.9,22,140.8,140.8,0,0,1-57.49,55.49,12.37,12.37,0,0,0,2.39-.46c47-9,85-43,105-83A76.79,76.79,0,0,1,740.44,130a43.58,43.58,0,0,1,29.88,28.71c4,12.64,9.27,28.4,10.63,54.41a19,19,0,0,0,13.32,17.17l-1.18,43.1s19.06-14.62,27.28-2.57c1.18-19.7,5.27-27.17,5.2-44.5C825,97.92,783.55,24.66,665.59,41.12Z"/><path class="a" d="M478.37,227.71c.7,14.48,2,29,3.36,43.08,0,0,15.55-8,23.83,2.57l-.69-43.1h0a27.9,27.9,0,0,0,13.62-19.14c2.46-13.27,5.71-26.32,9.24-42,.14-.6,5.7-21.18,5.86-21.78-11.64,15.68-17.73,56-29,72C498.41,227.39,488.41,229.31,478.37,227.71Z"/><path class="a" d="M794.59,213.35c-9-11-3-28-8-42-8.46-21.62-31.07-45.89-55.35-43.73,3.14.75,6.29,1.54,9.46,2.42a43.17,43.17,0,0,1,29.62,28.64c4,12.66,9.29,28.45,10.64,54.55a18.87,18.87,0,0,0,13.31,17h0l-1.18,46.1s11.73-14.07,27.28-5.57a289.19,289.19,0,0,0,5.2-44.5C813.56,226.22,801.52,221.35,794.59,213.35Z"/><path class="c" d="M550.9,58.88S559.79,104,626,120c0,0-62.29,18.35-121.58-30.55C504.38,89.42,519.77,71.59,550.9,58.88Z"/><path class="c" d="M704.76,114.18s46.56-23.07,55.61-55.3c9.23,3.86,18.2,10.79,28.2,31.36C788.57,90.24,757.92,116.93,704.76,114.18Z"/><rect class="d" width="1259.23" height="2194.12"/><path class="b" d="M644.41,50.65c16.94-14.83-6.35-31.77-6.35-31.77,44.47,4.24,36,28.59,36,28.59"/></svg>