<svg xmlns="http://www.w3.org/2000/svg" width="1259.23" height="2194.12" viewBox="0 0 1259.23 2194.12"><defs><style>.a{fill:#fff;}.b{fill:#231f20;}.c{fill:#575555;}.d{fill:none;}</style></defs><title>3_men_Glasses_D_1</title><path class="a" d="M616.54,281.46s29.89-10.16,57.22,0l5.83,10.11s-27.16-10-66.32,0Z"/><path class="b" d="M618.19,276.36C597.67,263.51,560,247.17,521.86,262c0,0-2.38,31.32,28.44,44.18,25.11,10.47,47.49,7.86,69-9.13A12.68,12.68,0,0,0,618.19,276.36Z"/><path class="a" d="M578.74,316.9c-9.67,0-19.7-2.18-30.17-6.55-25.56-10.66-30.23-33.28-31.06-42.51A11.35,11.35,0,0,1,525.42,256c39.51-12.69,76.58,4.92,95.16,16.55h0a17,17,0,0,1,8,13.6,17.33,17.33,0,0,1-6.55,14.5C608.28,311.5,594,316.9,578.74,316.9Zm-24.91-56.31a83.3,83.3,0,0,0-25.66,4,2.38,2.38,0,0,0-1.69,2.48c.84,9.44,5.28,26.55,25.55,35,24,10,44.45,7.31,64.44-8.47a8.15,8.15,0,0,0,3.14-6.94,8,8,0,0,0-3.8-6.46h0C602.73,272,579.84,260.59,553.83,260.59Z"/><rect class="a" x="499.8" y="267.53" width="25.12" height="12.86" rx="6.43"/><rect class="a" x="774.64" y="266.57" width="29.12" height="12.86" rx="6.43"/><path class="b" d="M682.37,274.24c20.52-12.84,58.19-29.19,96.33-14.33,0,0,2.38,31.31-28.44,44.17-25.11,10.47-47.49,7.86-69-9.12A12.69,12.69,0,0,1,682.37,274.24Z"/><path class="a" d="M678.51,298.52A17.33,17.33,0,0,1,672,284a16.92,16.92,0,0,1,8-13.59h0c18.58-11.63,55.65-29.25,95.16-16.56a11.35,11.35,0,0,1,7.91,11.85c-.83,9.23-5.5,31.85-31.06,42.51-10.47,4.37-20.5,6.56-30.17,6.56C706.61,314.79,692.28,309.38,678.51,298.52Zm6.24-20.46h0a8,8,0,0,0-3.8,6.45,8.15,8.15,0,0,0,3.14,6.94c20,15.78,40.47,18.47,64.44,8.48,20.27-8.46,24.71-25.57,25.55-35a2.38,2.38,0,0,0-1.69-2.48,83.6,83.6,0,0,0-25.66-4C720.72,258.47,697.83,269.87,684.75,278.06Z"/><path class="c" d="M547.37,265.61c5.36-.83,13.28-1.46,18.5.82a1.79,1.79,0,0,1,.89.91c1.8,4,12.59,26.09,31.19,29.41a1.82,1.82,0,0,1,.46,3.46c-6.25,2.78-16.71,5.89-27.17,2.14a1.86,1.86,0,0,1-1.24-1.83c.21-4.59-.84-20.37-23.17-31.47A1.83,1.83,0,0,1,547.37,265.61Z"/><path class="c" d="M730.72,268.78a3.83,3.83,0,0,0-4-2.64,69,69,0,0,0-15,3.59,1.88,1.88,0,0,0-.23,3.46c9.49,4.68,22.72,14.68,23.74,22.19a3.92,3.92,0,0,0,4.48,3.3,30.78,30.78,0,0,0,11.07-4.34,4,4,0,0,0-1.2-7.2C737.17,284.26,732.35,273.79,730.72,268.78Z"/><rect class="d" width="1259.23" height="2194.12"/></svg>