<svg xmlns="http://www.w3.org/2000/svg" width="1259.23" height="2194.12" viewBox="0 0 1259.23 2194.12"><defs><style>.a{fill:#4d4b4a;}.b{fill:#3b3938;}.c{fill:#615e5d;}.d{fill:none;}</style></defs><title>3_men_hair_6</title><path class="a" d="M834.05,206C831,151.26,805.6,99.71,769,61.28c-30.48-32-79.89-45.73-118-28.72-25.32-7.92-57.89-8.69-98.88,6.44C426,85.59,471.8,293.74,471.8,293.74,478.18,253,506,271.88,506,271.88c.11-23.11-2-48.81,6.88-70.16,9.77-23.55,28.63-42.5,50.19-56.09,15.32-9.65,32-16.82,49.1-22.82-1.78,33.09,27,189.77,128.1,253.21-15.36-32-12.83-61.81-12.83-61.81,31.91,24.11,39.18,74.2,40.61,97.2C818.23,368.79,837.89,274.46,834.05,206Z"/><path class="b" d="M490.11,207c-9.24-9.24-18.5-20.48-24.59-32.74-6.47,61.58,6.28,119.52,6.28,119.52C478.18,253,506,271.88,506,271.88c.11-23.11-2-48.81,6.88-70.16,9.77-23.55,28.63-42.5,50.19-56.09,15.32-9.65,32-16.82,49.1-22.82a97.24,97.24,0,0,0,.32,12,199.26,199.26,0,0,1,3.21-32.16C561.14,115.56,516.36,158,490.11,207Z"/><path class="b" d="M834.05,206a209,209,0,0,0-6.86-42.34c7.75,73-4.33,149.24-52.73,204.32-14-45.57-43.75-82.36-78.87-114.64,14,26,11,56,19,84-30.55-26.52-55.28-59.51-75.23-94.81,19.77,49.93,51.8,102.69,100.88,133.48-15.36-32-12.83-61.81-12.83-61.81,31.91,24.11,39.18,74.2,40.61,97.2C818.23,368.79,837.89,274.46,834.05,206Z"/><path class="c" d="M629.16,134.75S711,125.59,764.58,68c0,0,24.72,15.14,32.09,50.07C796.67,118.08,710.9,160.06,629.16,134.75Z"/><path class="c" d="M514,76.76c.09-2.6-.89,26,36.92,52.49,0,0-37.52-.52-63.32-21.13C487.6,108.12,497.25,84.94,514,76.76Z"/><rect class="d" width="1259.23" height="2194.12"/></svg>