<svg xmlns="http://www.w3.org/2000/svg" width="1259.23" height="2194.12" viewBox="0 0 1259.23 2194.12"><title>3_men_shrit_10</title><g id="Layer_2" data-name="Layer 2"><g id="Layer_141" data-name="Layer 141"><g id="_3_men_shrit_10" data-name="3_men_shrit_10"><path d="M129.14,557.28c-1.53-4.11-3-8.09-4.33-11.72-25.11,14.26-51.34,26.69-80.27,28.56,1.3,4.47,2.61,9,3.92,13.55C76.59,582.06,105.2,573.4,129.14,557.28Z" fill="#212121"/><path d="M129.14,557.28c-23.94,16.12-52.55,24.78-80.68,30.39q1.66,5.8,3.34,11.65c29-4,58.27-11.84,82.62-28.06C132.65,566.64,130.85,561.88,129.14,557.28Z" fill="#fff"/><path d="M51.8,599.32q1.88,6.54,3.72,13c34.3-1.19,62.53-9.91,82.51-31.82-1.17-2.95-2.38-6.08-3.61-9.27C110.07,587.48,80.84,595.32,51.8,599.32Z" fill="#212121"/><path d="M467.59,653.35c-4-29-10-54-16-83-2-6-4-11-6-17A135.36,135.36,0,0,0,437.26,537c-23.5,2.18-33.56,5.26-33.56,5.26C335.94,560.65,304.88,651,297.82,658.06s-72,43.76-72,43.76c-8.47-38.11-73.41-93.17-79.06-101.64-1.71-2.58-5-10.24-8.73-19.65C114.32,593.1,89,609.44,55.52,612.35c13.29,46.85,24.89,89.47,24.89,89.47,15.53,64.94,74.82,145.42,74.82,145.42,169.42-5.65,268.24-98.83,278.12-104.48s15.53-5.64,15.53-5.64c3.33,21.28,11.24,40.47,18.69,54.84C472.77,746.07,475.23,700.07,467.59,653.35Z" fill="#333"/><path d="M1110,1163.55c-28.93-164.14-75.24-218.9-75.24-218.9,0-144-62.11-248.47-62.11-248.47,9.88-83.3-45.18-135.53-64.95-144a142.85,142.85,0,0,0-14.39-4.88c-26.65,83.9-44.93,171.19-45.88,258.75,5.76-6,9.45-8.23,9.45-8.23,12.71,53.65,72,135.53,72,135.53,25.41,62.12,21.18,121.41,21.18,121.41,14.12,53.65,59.29,91.77,69.17,101.65,4,4,9.07,17.71,13.76,32.74,2.64-.56,5.2-1.2,7.6-1.8C1065.23,1183,1088,1174.17,1110,1163.55Z" fill="#333"/><path d="M1112.6,1178.09q-.84-4.35-1.58-8.66c-.34-2-.68-3.93-1-5.88-22,10.62-44.77,19.49-69.41,23.8-2.4.6-5,1.24-7.6,1.8,1,3.35,2.07,6.76,3,10.14C1062.1,1194.86,1089,1189.24,1112.6,1178.09Z" fill="#212121"/><path d="M1112.6,1178.09c-23.64,11.15-50.5,16.77-76.56,21.2,1.1,3.77,2.15,7.5,3.13,11.07,25.48-5.56,50.87-13.45,75.46-22.25C1113.93,1184.75,1113.24,1181.41,1112.6,1178.09Z" fill="#fff"/><path d="M1039.17,1210.36c1.15,4.16,2.2,8.09,3.11,11.59,26.6,1.79,52.32-6.23,75.6-19q-1.7-7.48-3.25-14.82C1090,1196.91,1064.65,1204.8,1039.17,1210.36Z" fill="#212121"/><path d="M155.23,847.24l.63,0c.72,0,2.06-.07,4-.18Z" fill="#a16442"/><path d="M155.86,847.22l-.63,0Z" fill="#a16442"/><path d="M423.47,662.29a222.37,222.37,0,0,0,14.12,53.65C336.84,832,187.72,845.51,159.82,847c166.6-7.15,263.74-98.68,273.53-104.28s15.53-5.64,15.53-5.64c3.33,21.28,11.24,40.47,18.69,54.83,2.11-18.64,3.77-37.29,4.49-56C436.09,698.39,423.06,659.31,423.47,662.29Z" fill="#212121"/><path d="M213.12,713.12c-7.06,32.47-21.18,50.82-21.18,50.82s46.38-43.22,62.63-78.65c-15.31,8.94-28.75,16.53-28.75,16.53-4.53-20.39-25.22-45.62-44.34-66C198.47,661.14,217.21,694.27,213.12,713.12Z" fill="#212121"/><path d="M930.29,919.94c-67.76-86.82-61.41-180-61.41-180,16.94-19.06,19.06-65.65,19.06-65.65a181.07,181.07,0,0,1-36,59.65,713.22,713.22,0,0,0-4.55,72.11c5.76-6,9.45-8.23,9.45-8.23,12.71,53.65,72,135.53,72,135.53,15.42,37.7,19.92,74.36,21.08,97.35l1.51-76.88Z" fill="#212121"/><path d="M998.07,950.79c-3.63,8.32-5.5,18.72,2.11,26.33,14.82,14.82,31.76,27.53,31.76,12.7,0-9.26-9.93-27.63-17.37-40.1A9.3,9.3,0,0,0,998.07,950.79Z" fill="#212121"/><path d="M870,835.94l.91.23c-.06-.14-.12-.27-.19-.41Z" fill="#3b3b3b"/><path d="M872.59,718.35c5.14-16.84,10.55-27.35,14.35-44.06,4.33-19,6.92-44.25,10.65-63.94,3.29-20.21,5-40,6.68-59.51-24.93-9-105.27-26.9-105.27-26.9l-82.59-41.65-8.47,46.95-48.71-4.59-47.64,8.82-6.71-46.94-98.12,41.65-39.53,7.06c-45.17,1.41-63.53,7-63.53,7a95.71,95.71,0,0,0-9.14,3c.4,3.37.76,6.73,1,10.07,2,34,15,66,24,100,7,27,18,53,27,80,.35.88.7,1.75,1,2.63l1.26-.86c7.06,45.17,31.82,81,31.82,81s59.95,165.17,58.53,170.82c-1.19,4.77-8.21,37.74-12.23,47.87,17.7,3.65,157.6,30.6,269.45-3.85-4.23-10.67-12.87-42.68-14-47.37-1.41-5.65,57.53-170.83,57.53-170.83,6.82-8.76,12.29-13.5,15-15.59,3.35-20.28,6.21-40.66,10.62-61.82C867.59,731.35,870.59,724.35,872.59,718.35Z" fill="#726453"/><path d="M475.7,756.88c14.12,12.71,52.24,21.18,52.24,21.18-79.06-40.94-105-120-104.47-115.77a222.37,222.37,0,0,0,14.12,53.65l-.22.24c3.64,7.57,5.79,15.55,7.69,23.53l1.47-1,2.35-1.59c.21,1.35.44,2.69.68,4,.08.44.17.88.25,1.31.17.9.34,1.79.53,2.68.09.49.2,1,.31,1.45.18.85.36,1.69.55,2.53.1.45.21.9.32,1.35.21.88.42,1.76.64,2.64l.28,1.09.45,1.69c.12.43.23.87.35,1.29.05.21.11.42.17.63a222.84,222.84,0,0,0,27.29,60.32A388.79,388.79,0,0,1,475.7,756.88Z" fill="#5c5143"/><path d="M868.74,748.6c-.07-5.57.14-8.66.14-8.66a399.16,399.16,0,0,0,18.06-65.65c-27.53,76.24-96.41,105.89-96.41,105.89C811.7,782.29,843.47,759,843.47,759l-24,110c11.28-30.13,20.47-54.26,20.47-54.26A90.1,90.1,0,0,1,854,799.93c.19-.85.39-1.71.58-2.58C858.64,780.32,863.37,764.6,868.74,748.6Z" fill="#5c5143"/><path d="M870,835.94l.91.23c-.06-.14-.12-.27-.19-.41Z" fill="#8c4e39"/><path d="M842.47,811.81c1.11-1.29,2.18-2.6,3.25-3.92-1.78,2-3.71,4.22-5.78,6.87Z" fill="#8c4e39"/><path d="M868.88,725.12c-214.59-56.47-420,12-420,12a185.72,185.72,0,0,0,6.46,27.16A226.3,226.3,0,0,0,465.77,791c61.58-15,221.28-46.7,388.39-5.55C862.53,767.47,868.88,725.12,868.88,725.12Z" fill="#fff"/><path d="M523.7,532.41c46.59,27.53,135.53,18.83,135.53,18.83V524.65l-60-22.59Z" fill="#5c5143"/><path d="M659.23,551.24c52.94,4.23,118.59-21.18,118.59-21.18l-60-35.3-40.59,32.36-18-2.47Z" fill="#5c5143"/><path d="M643.7,525.12h29.65a0,0,0,0,1,0,0v92.65a14.82,14.82,0,0,1-14.82,14.82h0a14.82,14.82,0,0,1-14.82-14.82V525.12A0,0,0,0,1,643.7,525.12Z" fill="#545454"/><circle cx="659.23" cy="565" r="8.47" fill="#fff"/><circle cx="657.82" cy="616.24" r="8.47" fill="#fff"/><path d="M588,509.47c-1.72-9.47,9.9-16,18.91-23.35a232.19,232.19,0,0,0,52.32,38.53l-24.35,44.82s-4.16-2-10.72-5.66C607,549.51,593,532.62,588,509.47Z" fill="#333"/><path d="M555.47,508.06l28.59-31.77a76.65,76.65,0,0,1,21.17-1.05v9.17s.58.61,1.68,1.71c-9,7.37-20.63,13.88-18.91,23.35,5,23.15,19,40,36.16,54.34C607.29,554.4,574.52,534,555.47,508.06Z" fill="#212121"/><polygon points="569.48 492.49 564.17 498.39 564.17 498.39 569.48 492.49 569.48 492.49" fill="#3b3b3b"/><path d="M645.28,550.32a303.22,303.22,0,0,1-57.07-40,81.15,81.15,0,0,0,5.5,16.12,254.06,254.06,0,0,0,47.2,31.92Z" fill="#fff"/><path d="M569.48,492.49l-5.31,5.9a353.5,353.5,0,0,0,29.54,28.07,81.15,81.15,0,0,1-5.5-16.12Q578.52,501.78,569.48,492.49Z" fill="#969696"/><path d="M733,510.13c1.75-9.47-10.09-16-19.27-23.35a236.47,236.47,0,0,1-53.34,38.53l24.82,44.82s4.24-2,10.94-5.66C713.63,550.17,727.92,533.28,733,510.13Z" fill="#333"/><path d="M766.17,508.72,737,477a79.69,79.69,0,0,0-21.59-1.05v9.17s-.59.61-1.7,1.71c9.18,7.37,21,13.88,19.27,23.35-5.1,23.15-19.39,40-36.85,54.34C713.36,555.06,746.76,534.63,766.17,508.72Z" fill="#212121"/><polygon points="751.89 493.15 757.31 499.05 757.31 499.05 751.89 493.15 751.89 493.15" fill="#3b3b3b"/><path d="M674.63,551a308.93,308.93,0,0,0,58.17-40,79.86,79.86,0,0,1-5.6,16.12A259.77,259.77,0,0,1,679.09,559Z" fill="#fff"/><path d="M751.89,493.15l5.42,5.9a357.91,357.91,0,0,1-30.11,28.07A79.86,79.86,0,0,0,732.8,511Q742.69,502.45,751.89,493.15Z" fill="#969696"/><path d="M491,846.52C508,894,540.27,984.78,539.23,988.94c-1.19,4.77-8.21,37.74-12.23,47.87,17.7,3.65,157.6,30.6,269.45-3.85-4.23-10.67-12.87-42.68-14-47.37-.83-3.33,20.39-68.9,37.06-116.57,2.9-8.3,5.63-15.84,8.09-22.47C719.08,809.34,546.74,836.23,491,846.52Z" fill="#726453"/><path d="M465.77,791a202.24,202.24,0,0,0,14.93,27.09s4.16,11.44,10.25,28.4c55.79-10.29,228.13-37.18,336.61,0,7.4-20,12.38-31.79,12.38-31.79,2.07-2.65,4-4.92,5.78-6.87a142.54,142.54,0,0,0,13.44-22.41C692.05,744.33,527.35,776,465.77,791Z" fill="#333"/><path d="M477.06,788.35v0a944.06,944.06,0,0,1,204.72-23.19C593.76,764.89,519.44,778.61,477.06,788.35Z" fill="none"/><path d="M450.34,745.13c.09.45.19.9.28,1.35-.11-.54-.23-1.08-.34-1.63Z" fill="#212121"/><path d="M465.77,791c3.45-.84,7.23-1.74,11.3-2.66v0C473,789.29,469.23,790.19,465.77,791Z" fill="#212121"/><path d="M449.56,741.14c.07.39.15.78.23,1.17-.09-.43-.17-.86-.25-1.29A.5.5,0,0,1,449.56,741.14Z" fill="#212121"/><path d="M451.2,749.11c.1.45.21.9.32,1.35h0c-.15-.62-.29-1.25-.44-1.88Z" fill="#212121"/><path d="M452.16,753.1l.28,1.09,0,.07c-.18-.7-.35-1.4-.53-2.1C452,752.47,452.08,752.79,452.16,753.1Z" fill="#212121"/><path d="M480.54,817.88l-.09-.14Z" fill="#212121"/><path d="M480.68,818.08l-.05-.07Z" fill="#212121"/><path d="M480.35,817.59l-.58-.87Z" fill="#212121"/><path d="M459,775c-.4-1-.79-2.11-1.17-3.18C458.25,772.85,458.64,773.92,459,775Z" fill="#212121"/><path d="M457.75,771.46c-.4-1.15-.8-2.3-1.2-3.48C457,769.16,457.35,770.31,457.75,771.46Z" fill="#212121"/><path d="M452.76,755.38c.16.6.31,1.2.48,1.79.05.21.11.42.17.63q1.47,5.25,3.14,10.18c-.41-1.22-.81-2.45-1.21-3.7C454.43,761.39,453.56,758.41,452.76,755.38Z" fill="#212121"/><path d="M459.13,775.2a225.32,225.32,0,0,0,20.58,41.42A214.47,214.47,0,0,1,465.77,791C463.55,786.24,461.28,780.93,459.13,775.2Z" fill="#212121"/><path d="M841.6,812.68c-.55.67-1.1,1.36-1.66,2.08C840.5,814,841.05,813.35,841.6,812.68Z" fill="#212121"/><path d="M843.13,810.84q-.37.43-.75.9Q842.76,811.27,843.13,810.84Z" fill="#212121"/><path d="M824.58,845.56,819.47,869c11.28-30.13,20.47-54.26,20.47-54.26s-5,11.83-12.38,31.79C826.57,846.21,825.58,845.89,824.58,845.56Z" fill="#212121"/><path d="M844.52,809.23l-.36.41Z" fill="#212121"/><path d="M452.76,755.38l-.3-1.12Z" fill="none"/><path d="M457.87,771.78l-.12-.32Z" fill="none"/><path d="M456.55,768Z" fill="none"/><path d="M451.93,752.16c-.14-.57-.28-1.13-.41-1.7C451.65,751,451.79,751.59,451.93,752.16Z" fill="none"/><path d="M459.13,775.2,459,775Z" fill="none"/><path d="M449.54,741q-.35-1.93-.66-3.9Q449.19,739.08,449.54,741Z" fill="none"/><path d="M527.94,778.06s-38.12-8.47-52.24-21.18c0,0-.17,13,1.36,31.47,42.38-9.74,116.7-23.46,204.73-23.17a781.25,781.25,0,0,1,120.48,9,203.06,203.06,0,0,0,58.75-51c-172.9-43.11-338.26-6.47-393.09,8.42A214.5,214.5,0,0,0,527.94,778.06Z" fill="none"/><path d="M843.47,759S829,769.63,813,775.88q12.81,2.21,25.7,4.93Z" fill="none"/><path d="M449.79,742.31c.16.85.32,1.7.49,2.54-.16-.8-.32-1.6-.47-2.4Z" fill="none"/><path d="M450.62,746.48c.15.7.31,1.4.46,2.1-.15-.67-.29-1.33-.43-2Z" fill="none"/><path d="M477.06,788.35c-1.53-18.46-1.36-31.47-1.36-31.47,14.12,12.71,52.24,21.18,52.24,21.18a214.5,214.5,0,0,1-60-46.53c-12.31,3.34-19.05,5.59-19.05,5.59q.31,2,.66,3.9c.08.43.16.86.25,1.29l0,.14c.15.8.31,1.6.47,2.4.11.55.23,1.09.34,1.63l0,.1c.14.67.28,1.33.43,2s.29,1.26.44,1.88.27,1.13.41,1.7.35,1.4.53,2.1l.3,1.12c.8,3,1.67,6,2.58,8.9.4,1.25.8,2.48,1.21,3.7h0c.4,1.18.8,2.33,1.2,3.48l.12.32c.38,1.07.77,2.14,1.17,3.18l.09.24c2.15,5.73,4.42,11,6.64,15.83C469.23,790.19,473,789.29,477.06,788.35Z" fill="#969696"/><path d="M802.27,774.13q5.37.82,10.74,1.75c16-6.25,30.46-16.88,30.46-16.88l-4.76,21.81q8,1.7,15.93,3.59c8.13-18.56,14.24-59.28,14.24-59.28q-3.93-1-7.86-2A203.06,203.06,0,0,1,802.27,774.13Z" fill="#969696"/><path d="M844.16,809.64l-1,1.2Z" fill="none"/><path d="M845.72,807.89c-.4.43-.8.88-1.2,1.34C844.92,808.77,845.33,808.32,845.72,807.89Z" fill="none"/><path d="M842.38,811.74l-.78.94Z" fill="none"/><path d="M480.63,818l-.09-.13Z" fill="none"/><path d="M480.7,818.12l0,0Z" fill="none"/><path d="M479.77,816.72l-.06-.1Z" fill="none"/><path d="M811.46,776.47c-7.16,2.66-14.53,4.35-20.93,3.71a118.41,118.41,0,0,0,10.69-5.46,764.72,764.72,0,0,0-119.43-9.54,944.06,944.06,0,0,0-204.72,23.19c.74,8.92,1.88,19.12,3.63,29.75,0,0,4.16,11.44,10.25,28.4,55.28-10.2,225-36.68,333.63-1l13.91-63.73Q824.92,778.85,811.46,776.47Z" fill="none"/><path d="M480.45,817.74l-.1-.15Z" fill="none"/><path d="M479.71,816.62l.06.1.58.87.1.15.09.14.09.13.05.07,0,0c-1.75-10.63-2.89-20.83-3.63-29.75-4.07.92-7.85,1.82-11.3,2.66" fill="#212121"/><path d="M790.53,780.18c6.4.64,13.77-1,20.93-3.71-3.42-.61-6.84-1.19-10.24-1.75A118.41,118.41,0,0,1,790.53,780.18Z" fill="#212121"/><path d="M859.16,785.48l-4.52-1.08q-.24.55-.48,1.08-7.85-1.93-15.67-3.65l-13.91,63.73c1,.33,2,.65,3,1,7.4-20,12.38-31.79,12.38-31.79.56-.72,1.11-1.41,1.66-2.08l.78-.94q.38-.47.75-.9l1-1.2.36-.41c.4-.46.8-.91,1.2-1.34h0A142.54,142.54,0,0,0,859.16,785.48Z" fill="#212121"/><path d="M681.79,765.18a764.72,764.72,0,0,1,119.43,9.54l1-.59A781.25,781.25,0,0,0,681.79,765.18Z" fill="none"/><path d="M813,775.88l-1.55.59q13.45,2.38,27,5.36l.22-1Q825.83,778.08,813,775.88Z" fill="none"/><path d="M802.27,774.13l-1,.59c3.4.56,6.82,1.14,10.24,1.75l1.55-.59Q807.64,775,802.27,774.13Z" fill="#212121"/><path d="M838.49,781.83q7.82,1.73,15.67,3.65.24-.53.48-1.08-8-1.9-15.93-3.59Z" fill="#212121"/><path d="M870.91,836.17c-.06-.14-.12-.27-.19-.41l-.72.18Z" fill="none"/><rect width="1259.23" height="2194.12" fill="none"/></g></g></g></svg>