<svg xmlns="http://www.w3.org/2000/svg" width="1259.23" height="2194.12" viewBox="0 0 1259.23 2194.12"><title>3_men_pants_4</title><g id="Layer_2" data-name="Layer 2"><g id="Layer_141" data-name="Layer 141"><g id="_3_men_pants_4" data-name="3_men_pants_4"><path d="M796.45,1033c-111.85,34.45-251.75,7.5-269.45,3.85-75.3,139.37-64.18,498.25-61,515.19s7.41,54,7.41,54l-54.53,378.06c58.24,31.76,133.41,12.7,133.41,12.7,0-72,39.18-224.47,39.18-224.47,38.12-82.58,1.06-202.23,1.06-202.23,55.06-127.06,67.76-345.18,67.76-345.18l8.47,2.12c-5.29,94.24,56.12,309.18,59.3,324s3.17,24.35,3.17,24.35c-41.29,122.83,14.83,242.47,16.95,259.41s29.64,156.71,29.64,156.71c91.06,14.82,124.94-4.23,124.94-4.23-8.47-14.83-48.35-397.12-48.35-397.12C879.47,1156,796.45,1033,796.45,1033Z" fill="#33698a"/><path d="M870.91,836.17c-.06-.14-.12-.27-.19-.41l-.72.18Z" fill="#fff7c8"/><rect x="644.18" y="1073.88" width="37.41" height="140.47" fill="#22506e"/><path d="M840.57,1179.25C822.09,1071,796.45,1033,796.45,1033c-8.88,2.73-17.94,5.08-27.1,7.08,5.16,32.25,12.64,63.57,18.16,95.68C803.9,1151.74,822.13,1165.83,840.57,1179.25Z" fill="#22506e"/><path d="M559.2,1042.35c-16.47-2.41-27.92-4.66-32.2-5.54-19.17,35.48-32.74,85.19-42.26,139.87,16.08-16.12,35.75-29,53.14-44.13C542.15,1102.09,550.08,1072,559.2,1042.35Z" fill="#22506e"/><path d="M568.14,1043.6c-3.39,13.33-6.2,26.66-8.62,40q8.31,1.5,17.46,2.84c1.43-13.81,3-27.65,6.16-41C577.85,1044.86,572.84,1044.23,568.14,1043.6Z" fill="#33698a"/><path d="M632.91,1049.5c-18.21-.86-35-2.36-49.77-4-3.16,13.32-4.73,27.16-6.16,41,16.17,2.35,34.23,4.23,53.84,5.11A360.1,360.1,0,0,1,632.91,1049.5Z" fill="#322924"/><path d="M527,1036.81a276.53,276.53,0,0,0-15.79,35.55,474.25,474.25,0,0,0,48.31,11.23c2.42-13.33,5.23-26.66,8.62-40C546.89,1040.75,532,1037.84,527,1036.81Z" fill="#322924"/><path d="M632.91,1049.5a360.1,360.1,0,0,0-2.09,42,535.28,535.28,0,0,0,62.64-.85c-.8-13.66-1.93-27.34-4-40.9C669.81,1050.58,650.71,1050.35,632.91,1049.5Z" fill="#bfba9f"/><path d="M689.43,1049.79c2.1,13.56,3.23,27.24,4,40.9a521.56,521.56,0,0,0,58.24-7.55c-1-13.06-2.37-26.24-2.9-39.19A493.3,493.3,0,0,1,689.43,1049.79Z" fill="#322924"/><path d="M748.8,1044c.53,13,2,26.13,2.9,39.19q8.71-1.65,17.58-3.64a308,308,0,0,0-4.67-38.47Q756.75,1042.65,748.8,1044Z" fill="#33698a"/><path d="M796.45,1033c-10.41,3.21-21.06,5.86-31.84,8.07a308,308,0,0,1,4.67,38.47c14.14-3.18,28.55-7,43.16-11.72C803.28,1043.09,796.45,1033,796.45,1033Z" fill="#322924"/><path d="M677.59,1221.35c38.11-7.06,66.35-36.7,66.35-36.7-80.47,50.82-150.35,0-150.35,0,24.48,24.48,49.39,33.17,58.85,35.75-2.34,41.66-18.62,190.84-37.56,286.13h0c36.26-125.1,45.38-281.65,45.38-281.65l8.47,2.12c-3.48,62.07,22,176.49,40.66,251.62-9.51-55.74-29.79-181.93-32.29-257.27Z" fill="#22506e"/><path d="M764.06,1566.88s0,29.65,13.76,40.24,36-2.12,36-2.12C789.47,1608.18,764.06,1570.06,764.06,1566.88Z" fill="#22506e"/><path d="M826.53,1602.88c19.06,28.59,25.41-29.64,25.41-29.64C845.59,1596.53,826.53,1602.88,826.53,1602.88Z" fill="#22506e"/><path d="M509.94,1612.41s22.24,12.71,36,2.12,13.76-40.24,13.76-40.24C559.7,1577.47,534.29,1615.59,509.94,1612.41Z" fill="#22506e"/><path d="M471.82,1580.65s6.36,58.23,25.41,29.64C497.23,1610.29,478.18,1603.94,471.82,1580.65Z" fill="#22506e"/><path d="M870.72,835.76l-.72.18.91.23C870.85,836,870.79,835.9,870.72,835.76Z" fill="none"/><path d="M503.52,1605.93c-16.71-202.64,34.78-472.12,35.3-474.81l-5.89-1.14c-.13.67-13.22,68.73-24.06,161-10,85.12-20.08,208.84-11.36,315.12l-50.95,389.24c1.95.57,3.9,1.09,5.85,1.58l51.13-390.67Z" fill="#22506e"/><path d="M829.13,1607c8.72-106.29-1.36-230-11.36-315.13-10.84-92.27-23.93-160.33-24.06-161l-5.89,1.14c.52,2.7,52,272.16,35.3,474.81l0,.32L873.86,1995q3.15-.45,5.93-1Z" fill="#22506e"/><path d="M481.35,1308.88s61.83,31.06,149.35,5.65C630.7,1314.53,512.41,1379.47,481.35,1308.88Z" fill="#75a7c4"/><path d="M478.53,1379.47s59.61,30,144,5.45C622.53,1384.92,508.47,1447.53,478.53,1379.47Z" fill="#75a7c4"/><path d="M478.53,1467s51.42,25.84,124.23,4.7C602.76,1471.7,504.36,1525.72,478.53,1467Z" fill="#75a7c4"/><path d="M842.05,1280.72s-61.82,31.06-149.35,5.65C692.7,1286.37,811,1351.31,842.05,1280.72Z" fill="#75a7c4"/><path d="M853.34,1357s-59.6,30-144,5.44C709.34,1362.4,823.4,1425,853.34,1357Z" fill="#75a7c4"/><path d="M847.7,1433.2s-51.43,25.83-124.24,4.69C723.46,1437.89,821.86,1491.91,847.7,1433.2Z" fill="#75a7c4"/><rect width="1259.23" height="2194.12" fill="none"/></g></g></g></svg>