<svg xmlns="http://www.w3.org/2000/svg" width="1259.23" height="2194.12" viewBox="0 0 1259.23 2194.12"><defs><style>.a{fill:#8f4300;}.b{fill:#914400;}.c{fill:#b35300;}.d{fill:#c96800;}.e{fill:none;}</style></defs><title>3_men_hair_10</title><path class="a" d="M485.33,172.34c-11.35,3.4-16.81,16-20.82,27.12-7.6,21.1-5.78-14.36-8.57,7.89s11.44,179.26,2.82,188.12c13.47,2.59,21.93-6.79,35-11.07a75.21,75.21,0,0,1-3.66,29c8.42,2.14,17.58,2.06,26,4.2,0,0-8.24-21.77-7.36-61.35,0,0-52.76-20.53-27.35-85.36,0,0,8.47-9.53,24.35,1.06L574.53,99.35Z"/><path class="a" d="M813.08,173.4c11.35,3.4,17.68,15.69,20.82,27.12,19.1,69.3-4.94,146.16-5.6,155.9-.83,12.33,8.4,22.78,17,31.63a81.52,81.52,0,0,1-40.62-2.59,75.21,75.21,0,0,0,3.66,29c-8.42,2.14-18.85,4.28-27.27,6.42,0,0,9.51-22.93,9.45-64.22,0,0,54.06-14.83,26.53-84.71,0,0-8.47-9.53-24.36,1.06l2.06-88.94-70.88-83.65Z"/><path class="b" d="M508.59,309.35a110.52,110.52,0,0,0,22,41.43c-27-40.54-22.41-117,34.07-162.84-4.24-9.18-8.25-23.16-9.06-38.59C516.59,191.35,491.59,251.35,508.59,309.35Z"/><path class="b" d="M592.59,91.35c-31,11.07-49.43,42.81-51.37,75.16a218.18,218.18,0,0,1,14.37-17.16c.07,1.41.18,2.82.29,4.24C558,128.78,571.51,104.19,592.59,91.35Z"/><path class="c" d="M737.59,39c-54.75-21.83-85.42,9.18-85.42,9.18-16.87-14.56-42-19.57-81.55-8.16C475,67.59,445.77,205.11,455.39,255.88s24.9,91.24,86.31,108.18c-1.49-1.39-2.93-2.88-4.34-4.46a80.26,80.26,0,0,1-6.78-8.82,110.52,110.52,0,0,1-22-41.43c-14.8-50.5,2.24-102.51,32.63-142.84,1.94-32.35,20.39-64.09,51.37-75.16-21.08,12.84-34.6,37.43-36.71,62.24,1.2,14.1,4.77,28.51,12.73,40.81l.3-.17A48.32,48.32,0,0,0,589.39,213c11.36,5.32,24.39,5.75,36.9,4.89-23.53-13.71-29.65-41.7-30.7-48.54-2-21,2-48,23-56,22.73-7.27,49.59,2,64,21,1.92-16.93,15.93-35.9,30-28,39,21.61,39.93,77,26.64,120.41,11.86-5.76,29-27.51,34-40,3.68-16.81,7.21-23.41,3.35-40.41,20,37,29,79,27,121-1,28-7,56-29,75-1.94,1.94-4.4,4.28-7.16,6.64,16.85-4.25,60.91-23.43,67.57-86.58C839.5,219.71,845.59,82.06,737.59,39Z"/><path class="b" d="M803.59,267.35c2-42-7-84-27-121,3.86,17,.33,23.6-3.35,40.41,0-.06,0-.12.07-.17,28.51,53.59,28.42,130-12.43,163.7a55.21,55.21,0,0,0,6.55-1.3c2.76-2.36,5.22-4.7,7.16-6.64C796.59,323.35,802.59,295.35,803.59,267.35Z"/><path class="b" d="M712.59,106.35c-14-7.88-28,11.09-30,28,.44.58.87,1.17,1.29,1.76l.72.28s24.11-27.53,53.93,47.92c5.43,13.76,5.48,29.81-.89,43.16.52-.23,1-.48,1.54-.73C752.52,183.39,751.64,128,712.59,106.35Z"/><path class="b" d="M618.59,113.35c-21,8-25,35-23,56,0,0,36.82-35.76,88.34-33.22C669.82,115.92,642,105.86,618.59,113.35Z"/><path class="d" d="M502.53,102.53s19.06,20.12,39.17,23.29c0,0-11.64,26.47-9.52,36,0,0-34.95-13.76-48.71-22.23C483.47,139.59,493,111,502.53,102.53Z"/><path class="d" d="M765.12,60.18C764,69.66,753.74,81,744.28,89.55c12.72,8.82,23.83,19.68,29.8,33.47,12-12.59,23.86-26.84,23.86-26.84C790.53,79.24,765.12,60.18,765.12,60.18Z"/><rect class="e" width="1259.23" height="2194.12"/></svg>