<svg xmlns="http://www.w3.org/2000/svg" width="1259.23" height="2194.12" viewBox="0 0 1259.23 2194.12"><defs><style>.a{fill:#4f2525;}.b{fill:#733636;}.c{fill:#361919;}.d{fill:none;}</style></defs><title>3_men_hair_4</title><path class="a" d="M589.7,114.18s15.38,56.11,90.51,63.11c-8.07-16.5-21-23.94-24.19-49.51,16,22.49,45.57,46,82.74,52.63-19.89-13.65-30-47.23-30-47.23,26.11,14.46,76.73,40.29,85.51,141.75,0,0,9.78-17.13,30.55,0,0,0,29,54.7-33.9,82.5l-1.53,31s41.25-38.12,49.84-94.67C860.41,154.41,808.13-9.61,645.29,30.53c0,0-80.06-27.73-131.29,26.08-54.79,57.57-73.24,132.66-46.77,259.07,9,42.88,27.68,74.28,41,81.73l-.6-41.91s-55.13-22.7-29.07-82.14c0,0,12.67-18,27,0C505.56,273.36,487.6,157.59,589.7,114.18Z"/><path class="b" d="M522.81,67.94s23.31,36,47.41,46.59c0,0-47.15,0-69.42-23.29C500.8,91.24,507.79,73.59,522.81,67.94Z"/><path class="b" d="M724.88,120.35s34.7-22.76,54.41-52.41c0,0,24.29,25.41,25.53,38.12C804.82,106.06,766.59,125.39,724.88,120.35Z"/><path class="c" d="M812.59,262.35c-7.28-45.47-31.1-98.38-77.48-112.86C760,168.13,787,207,793.27,279.93c0,0,3.38-13.4,19.27-11.63,7.84.87,13.33,8.35,14.94,16.08,3.56,17,5.2,52.76-36.56,72.05l-1.53,32s41.25-38.12,49.84-94.67q1.24-8.21,2.15-16.49c-2-30.2-10.34-59.88-26.79-85.9C824.59,214.35,815.59,238.35,812.59,262.35Z"/><path class="c" d="M490.59,257.35c-8-29-16-59-11-89-16.31,37.57-21,80.67-17.08,122.53q2.06,12.06,4.72,24.8c9,42.88,30.42,76.58,43.77,84l-3.34-44.21s-54.07-35.79-29.07-82.14c0,0,10.76-11.54,27,0,0,0-7.27-96.71,51-139.68C514.13,158.39,487.23,207.87,490.59,257.35Z"/><rect class="d" width="1259.23" height="2194.12"/></svg>