<svg xmlns="http://www.w3.org/2000/svg" width="1259.23" height="2194.12" viewBox="0 0 1259.23 2194.12"><defs><style>.a{fill:#3a3a5c;}.b{fill:none;}</style></defs><title>3_men_beard_10_9</title><path class="a" d="M783.19,406.23a43.34,43.34,0,0,1-57-8.47c-11.41-13.61-25.84-28.4-34.3-27.82a128,128,0,0,0-22.5,3.86,1,1,0,0,0,.27,1.93c8.34-.18,17.71,3.13,23.27,5.86s28.5,23.88,20.17,34.9c-24.14,31.92-45.76,21.48-47.93,18.74-2-2.51-2.34-7.35-2.34-7.35A22.65,22.65,0,0,1,639.5,429l0,.11c.14.7,1.71,3.79-2.16,7-15.08,12.36-47.93-4.83-50.14-18.46s14.59-32.16,20.18-34.9,14.92-6,23.27-5.86a1,1,0,0,0,.26-1.93,127.81,127.81,0,0,0-22.5-3.86c-8.45-.58-22.89,14.21-34.3,27.82a43.33,43.33,0,0,1-57,8.47,23.59,23.59,0,0,1-4.28-3.39C515,432.52,528.11,442,642.67,492.23c2,.89,12.28.08,15.22-1.21,114.33-50.1,127.46-59.62,129.57-88.18A23.69,23.69,0,0,1,783.19,406.23Z"/><rect class="b" width="1259.23" height="2194.12"/></svg>