<svg xmlns="http://www.w3.org/2000/svg" width="1259.23" height="2194.12" viewBox="0 0 1259.23 2194.12"><defs><style>.a{fill:#402b0f;}.b{fill:#573c1a;}.c{fill:#644721;}.d{fill:#825c2b;}.e{fill:none;}</style></defs><title>3_men_hair_1</title><path class="a" d="M779.29,111.71c9.94,24,7,67.05,7,67.05l6.94,97.59s6.63-10.43,14.66-7.62c0,0,3.34-80.79,2.64-123.85C779.47,142.76,779.29,111.71,779.29,111.71Z"/><path class="a" d="M539.23,115.48c-28.23,10.34-38.82,5-75.88,10.34a6.56,6.56,0,0,0,.75,2.42c7.72,12.41,16.19,27.23,16.19,27.23s1.17,49.69,5.3,111.12a48.27,48.27,0,0,1,19.76,6.06s-.7-79.77,3.53-96.71c2.45-9.79,2.77-21,13.93-27.89h0C533.2,134.71,539.23,115.48,539.23,115.48Z"/><path class="b" d="M695.59,96.35c-24,43-77,36-120,40-8,0-16,3-24,6-5,2-12,5-16,8-10.05,6.18-18.28,13.57-23.36,23.52,10.94-6.71,36.43-21,67.59-18.4,76.24,6.35,86.47-13.41,110.12-20.12,27.26,26.71,52.37,44.07,103.59,51.55-1.28-.88-2.59-1.74-3.94-2.55C752.59,160.35,709.59,138.35,695.59,96.35Z"/><path class="c" d="M810.53,144.88s13.41,4.94,18.35,1.41c0,0-14.82-22.58-18.35-33.88S785.23,43.24,727,50.53c0,0-59.3-51.77-128.12-23.18-24.17,10-37.46,19.51-50.82,25.41-40.18,17.74-44.47,17.74-54,20.12-1.51-.17,4.23,10.59,13.76,16.94,0,0-11.64,19.06-44.47,36,23.3,4.24,42.35,8.47,75.88-10.34,0,0-25.05,19.87-30.35,60.46.89-.55,2-1.26,3.35-2.07,5.08-10,13.31-17.34,23.36-23.52,4-3,11-6,16-8,8-3,16-6,24-6,43-4,96,3,120-40,14,42,57,64,94,88,1.35.81,2.66,1.67,3.94,2.55l2.29.34S788.11,152.05,784,129C788.17,136.52,796,143.89,810.53,144.88Z"/><path class="d" d="M707.23,89.12s37.06,3.21,48.71-29.61c0,0,28.18,16.58,33.47,28.23C789.41,87.74,759.47,104.65,707.23,89.12Z"/><path class="d" d="M582.7,45.24c15.45,20.56,28.85,34.24,65.18,44.05,0,0-61.35,11.12-99.47-25.58Z"/><rect class="e" width="1259.23" height="2194.12"/></svg>