<svg xmlns="http://www.w3.org/2000/svg" width="1259.23" height="2196.76" viewBox="0 0 1259.23 2196.76"><title>3_men_shose_6</title><g id="Layer_2" data-name="Layer 2"><g id="Layer_141" data-name="Layer 141"><g id="_3_men_shose_6" data-name="3_men_shose_6"><polygon points="282.29 2173.47 287.94 2193.24 301.35 2177 282.29 2173.47" fill="#22506e"/><polygon points="325.35 2177 331 2196.76 344.41 2180.53 325.35 2177" fill="#22506e"/><polygon points="371.91 2172.6 382.26 2190.36 391.25 2171.32 371.91 2172.6" fill="#22506e"/><polygon points="411 2162.06 421.35 2179.82 430.34 2160.78 411 2162.06" fill="#22506e"/><polygon points="447.71 2150.06 458.06 2167.82 467.05 2148.78 447.71 2150.06" fill="#22506e"/><polygon points="498.53 2131.01 508.88 2148.76 517.87 2129.72 498.53 2131.01" fill="#22506e"/><polygon points="529.59 2119.71 539.94 2137.47 548.93 2118.43 529.59 2119.71" fill="#22506e"/><path d="M489.11,2104.47l.83-.22Z" fill="none"/><path d="M506.76,2126.29s-4.23-12.7-18.35-12.7-21.18,28.23-21.18,28.23c-21.17,7.06-103,32.47-103,32.47-27.08,5-46.59-5.64-67.77-22.58a54.35,54.35,0,0,0-23.13-11.31c-.32,2.32-.49,4.23-.66,5.58-1.29,10.3-3,22.41-3,22.41,72.16,43.66,198.85-17.09,198.85-17.09s4.24-9.14,11.67-22.33,17.33,8.46,17.33,8.46c14.93.84,49.88-14.56,61.55-21.66.12-.07.53-3.49,1.1-8.65C537.23,2118.91,506.76,2126.29,506.76,2126.29Z" fill="#165f8c"/><path d="M364.18,2174.29s81.88-25.41,103.05-32.47c0,0,7.06-28.23,21.18-28.23s18.35,12.7,18.35,12.7,30.47-7.38,53.33-19.17c.77-7,1.82-17.31,2.79-26.89.12-1.23.2-2.48.25-3.73a87.93,87.93,0,0,0-3.1-24.41c-.86-3.35-1.84-6.64-2.91-9.83-.81-2.39-1.65-4.73-2.52-7-.37-1-.74-1.89-1.11-2.81a150.19,150.19,0,0,0-47.9,38.88c-11.7,14.42-24.88,29.58-39.24,43.28A122.09,122.09,0,0,0,448.27,2131C426,2144.19,357,2159.42,357,2159.42c-1.17.12-2.34.2-3.51.28a92.08,92.08,0,0,1-21.91-8.35c-17.51-9.72-32.18-27-53.22-28.87a62.22,62.22,0,0,0-5.09,17.92,54.35,54.35,0,0,1,23.13,11.31C317.59,2168.65,337.1,2179.27,364.18,2174.29Zm125.76-70-.83.22Z" fill="#7a7676"/><path d="M348,2084.08c10.28,5.4,30.38,17,34.5,22.55,28.43-17,45-36,66.35-63.84-13-10.6-29.1-15.51-45.79-17.48C385.89,2043,357.17,2078.17,348,2084.08Z" fill="#b3adad"/><path d="M425.4,2019.81a17.92,17.92,0,0,0-20.4,3.52c-.64.63-1.29,1.3-2,2,16.69,2,32.76,6.88,45.79,17.48,1.56-2,3.14-4.09,4.75-6.21C446.56,2030.47,434.17,2024,425.4,2019.81Z" fill="#165f8c"/><path d="M531.05,2002.06c-17,22.33-77.47,34.52-77.47,34.52-3.23,4.24-6.32,8.28-9.34,12.14,35.36-5.38,69.55-17.9,99.11-37.59-1.05-1.91-1.69-3-1.69-3Z" fill="#165f8c"/><path d="M448.27,2131s.65-.75,1.82-2c-1.35,1.1-2.72,2.18-4.09,3.24C446.8,2131.84,447.56,2131.42,448.27,2131Z" fill="#d5d6d6"/><path d="M388.62,2102.81l-.09.06c-2,1.26-4,2.52-6,3.76a12.56,12.56,0,0,0-1.09-1.24c-5.8-5.88-23.85-16.29-33.41-21.31-44.41,4.22-62.19,22.45-69.61,38.4,21,1.86,35.71,19.15,53.22,28.87a96.46,96.46,0,0,0,12.86,5.67c4.16-10.13,12.07-19.35,18.14-29.67C368,2116.5,381.63,2113,388.62,2102.81Z" fill="#d5d6d6"/><path d="M444.24,2048.72c-17.72,22.7-32.8,39.32-55.62,54.09-7,10.2-20.6,13.69-26,24.54-6.07,10.32-14,19.54-18.14,29.67a85,85,0,0,0,9.08,2.69c1.15-.08,2.31-.17,3.48-.29,0,0,1.08-.23,3-.68a61.61,61.61,0,0,1,12.57-22.39c31.24-34.08,71.42-53.83,95.14-92.32Q456.11,2046.91,444.24,2048.72Z" fill="#165f8c"/><path d="M543.35,2011.13a233.84,233.84,0,0,1-48.63,24.61q-9.18,3.39-18.62,6.08-4.17,1.17-8.37,2.21c-23.72,38.49-63.9,58.24-95.14,92.32A61.61,61.61,0,0,0,360,2158.74c2.48-.56,6.36-1.47,11.17-2.64,7.56-1.84,17.42-4.34,27.7-7.21,17.52-4.9,36.29-10.9,47.11-16.63,1.37-1.06,2.74-2.14,4.09-3.24a121.8,121.8,0,0,1,16.25-14.38c14.36-13.7,27.55-28.86,39.25-43.29a150.19,150.19,0,0,1,47.9-38.88A202,202,0,0,0,543.35,2011.13Z" fill="#d5d6d6"/><path d="M480.11,2129l-1,1.72,18.3,6.74S487.54,2115.77,480.11,2129Z" fill="#0e3e5c"/><path d="M393.82,2102.06a4,4,0,0,1-3.94-3.34c-3.77-22.6-27.89-29.2-28.14-29.26a4,4,0,0,1,.05-7.75c1.74-.44,38.25-9.42,59.7,2.28-1.79-13.37-6.74-32.85-17.86-36.9a4,4,0,0,1,2.73-7.52c21.92,8,23.86,51.09,23.93,52.92a4,4,0,0,1-6.93,2.87c-9.7-10.49-31.71-10.26-47.2-8.2,8.61,5.12,19,14.42,21.61,30.24a4,4,0,0,1-3.29,4.6A3.68,3.68,0,0,1,393.82,2102.06Z" fill="#dfe0e0"/><path d="M407.94,2087.94a4.6,4.6,0,0,1-.64-.05c-22.21-3.61-48.57-6.52-53.3-5.09a4,4,0,0,1-5.66-5.59c1.59-2,3.57-4.47,33.14-1,8.38,1,16.67,2.18,21.83,3-2.63-11.42-12.81-28.83-17.08-35.4a4,4,0,0,1,1.3-5.61c15.35-9.21,53.81,5.16,58.15,6.83a4,4,0,0,1-2.88,7.47c-13.2-5.08-35.86-11.21-47.24-8.86,5.33,8.75,16.38,28.37,16.38,40.34a4,4,0,0,1-4,4Zm-53.34-5.74h0Z" fill="#dfe0e0"/><path d="M560.18,2052.66c-.76-3-1.65-6-2.6-8.92-13.24,9.36-30.74,28.31-43.24,42.74a1.26,1.26,0,0,0,1.84,1.72c15.51-15.11,26.42-25.06,44-35.53Z" fill="#d5d6d6"/><path d="M563.13,2076.5a73.78,73.78,0,0,0-.64-11.9,159.56,159.56,0,0,0-38.16,30.51,1.41,1.41,0,0,0,1.87,2.1c11.21-8,24-13.32,36.83-18.78C563.07,2077.79,563.1,2077.14,563.13,2076.5Z" fill="#d5d6d6"/><path d="M538.59,2103.68a153.17,153.17,0,0,1,22.55-6.46c.27-2.59.55-5.31.83-8.08-8.9,3.1-17.82,5.86-24.82,12.16A1.41,1.41,0,0,0,538.59,2103.68Z" fill="#d5d6d6"/><polygon points="1039.63 2173.47 1033.98 2193.24 1020.57 2177 1039.63 2173.47" fill="#22506e"/><polygon points="996.57 2177 990.93 2196.76 977.51 2180.53 996.57 2177" fill="#22506e"/><polygon points="950.01 2172.6 939.66 2190.36 930.67 2171.32 950.01 2172.6" fill="#22506e"/><polygon points="910.92 2162.06 900.57 2179.82 891.59 2160.78 910.92 2162.06" fill="#22506e"/><polygon points="874.22 2150.06 863.87 2167.82 854.88 2148.78 874.22 2150.06" fill="#22506e"/><polygon points="823.39 2131.01 813.04 2148.76 804.05 2129.72 823.39 2131.01" fill="#22506e"/><polygon points="792.34 2119.71 781.99 2137.47 773 2118.43 792.34 2119.71" fill="#22506e"/><path d="M832.81,2104.47l-.83-.22Z" fill="none"/><path d="M815.16,2126.29s4.24-12.7,18.35-12.7,21.18,28.23,21.18,28.23c21.18,7.06,103.06,32.47,103.06,32.47,27.08,5,46.59-5.64,67.76-22.58,8.51-6.81,16.55-10,23.14-11.31.32,2.32.49,4.23.66,5.58,1.28,10.3,3,22.41,3,22.41-72.16,43.66-198.85-17.09-198.85-17.09s-4.25-9.14-11.67-22.33-17.34,8.46-17.34,8.46c-14.92.84-49.87-14.56-61.54-21.66-.12-.07-.54-3.49-1.1-8.65C784.69,2118.91,815.16,2126.29,815.16,2126.29Z" fill="#165f8c"/><path d="M1025.51,2151.71c8.51-6.81,16.55-10,23.14-11.31a62.28,62.28,0,0,0-5.1-17.92c-21,1.86-35.7,19.15-53.21,28.87a92,92,0,0,1-21.92,8.35c-1.16-.08-2.33-.16-3.51-.28,0,0-69-15.23-91.26-28.42a121.47,121.47,0,0,0-18.08-16.37c-14.35-13.7-27.53-28.86-39.23-43.28a150.4,150.4,0,0,0-47.9-38.88c-.37.92-.75,1.85-1.12,2.81-.86,2.25-1.71,4.59-2.51,7-1.07,3.19-2.06,6.48-2.92,9.83a87.91,87.91,0,0,0-3.09,24.41c0,1.25.12,2.5.24,3.73,1,9.58,2,19.86,2.8,26.89,22.85,11.79,53.32,19.17,53.32,19.17s4.24-12.7,18.35-12.7,21.18,28.23,21.18,28.23c21.18,7.06,103.06,32.47,103.06,32.47C984.83,2179.27,1004.34,2168.65,1025.51,2151.71Zm-192.7-47.24-.83-.22Z" fill="#7a7676"/><path d="M973.94,2084.08c-10.27,5.4-30.38,17-34.5,22.55-28.43-17-45-36-66.35-63.84,13-10.6,29.11-15.51,45.79-17.48C936,2043,964.75,2078.17,973.94,2084.08Z" fill="#b3adad"/><path d="M896.52,2019.81a17.94,17.94,0,0,1,20.41,3.52l2,2c-16.68,2-32.76,6.88-45.79,17.48l-4.75-6.21C875.36,2030.47,887.76,2024,896.52,2019.81Z" fill="#165f8c"/><path d="M790.88,2002.06c17,22.33,77.46,34.52,77.46,34.52,3.23,4.24,6.32,8.28,9.35,12.14-35.36-5.38-69.56-17.9-99.12-37.59,1.06-1.91,1.7-3,1.7-3Z" fill="#165f8c"/><path d="M873.65,2131s-.65-.75-1.82-2q2,1.65,4.09,3.24C875.12,2131.84,874.36,2131.42,873.65,2131Z" fill="#d5d6d6"/><path d="M933.31,2102.81l.08.06c2,1.26,4,2.52,6.05,3.76a11.56,11.56,0,0,1,1.1-1.24c5.79-5.88,23.84-16.29,33.4-21.31,44.41,4.22,62.2,22.45,69.61,38.4-21,1.86-35.7,19.15-53.21,28.87a97.6,97.6,0,0,1-12.86,5.67c-4.16-10.13-12.07-19.35-18.14-29.67C953.91,2116.5,940.3,2113,933.31,2102.81Z" fill="#d5d6d6"/><path d="M877.69,2048.72c17.72,22.7,32.79,39.32,55.62,54.09,7,10.2,20.6,13.69,26,24.54,6.07,10.32,14,19.54,18.14,29.67a86.4,86.4,0,0,1-9.08,2.69c-1.16-.08-2.32-.17-3.49-.29,0,0-1.08-.23-3-.68a61.76,61.76,0,0,0-12.57-22.39c-31.24-34.08-71.43-53.83-95.14-92.32Q865.81,2046.91,877.69,2048.72Z" fill="#165f8c"/><path d="M778.57,2011.13a234.33,234.33,0,0,0,48.63,24.61q9.19,3.39,18.63,6.08Q850,2043,854.2,2044c23.71,38.49,63.9,58.24,95.14,92.32a61.76,61.76,0,0,1,12.57,22.39c-2.48-.56-6.37-1.47-11.18-2.64-7.56-1.84-17.41-4.34-27.69-7.21-17.53-4.9-36.3-10.9-47.12-16.63q-2.05-1.59-4.09-3.24a121.57,121.57,0,0,0-16.24-14.38c-14.36-13.7-27.55-28.86-39.25-43.29a150.4,150.4,0,0,0-47.9-38.88A202.4,202.4,0,0,1,778.57,2011.13Z" fill="#d5d6d6"/><path d="M841.82,2129c.33.58.64,1.15,1,1.72l-18.3,6.74S834.39,2115.77,841.82,2129Z" fill="#0e3e5c"/><path d="M928.11,2102.06a4,4,0,0,0,3.94-3.34c3.76-22.6,27.89-29.2,28.13-29.26a4,4,0,0,0,0-7.75c-1.75-.44-38.26-9.42-59.7,2.28,1.79-13.37,6.74-32.85,17.86-36.9a4,4,0,0,0-2.74-7.52c-21.91,8-23.85,51.09-23.92,52.92a4,4,0,0,0,6.93,2.87c9.7-10.49,31.71-10.26,47.19-8.2-8.6,5.12-19,14.42-21.6,30.24a4,4,0,0,0,3.29,4.6A3.68,3.68,0,0,0,928.11,2102.06Z" fill="#dfe0e0"/><path d="M911.39,2087a4,4,0,0,1-1.4-3c0-12,11-31.59,16.37-40.34-11.38-2.35-34,3.78-47.24,8.86a4,4,0,0,1-2.87-7.47c4.33-1.67,42.8-16,58.15-6.83a4,4,0,0,1,1.29,5.61c-4.27,6.57-14.45,24-17.08,35.4,5.16-.78,13.45-2,21.84-3,29.56-3.47,31.54-1,33.13,1a4,4,0,0,1-5.65,5.59c-4.74-1.43-31.1,1.48-53.3,5.09a4.72,4.72,0,0,1-.64.05A4,4,0,0,1,911.39,2087Zm55.94-4.78h0Z" fill="#dfe0e0"/><path d="M761.75,2052.66c.76-3,1.65-6,2.59-8.92,13.24,9.36,30.75,28.31,43.24,42.74a1.26,1.26,0,0,1-1.83,1.72c-15.51-15.11-26.43-25.06-44-35.53Z" fill="#d5d6d6"/><path d="M758.8,2076.5a72.66,72.66,0,0,1,.64-11.9,159.76,159.76,0,0,1,38.16,30.51,1.42,1.42,0,0,1-1.88,2.1c-11.2-8-24-13.32-36.82-18.78C758.85,2077.79,758.82,2077.14,758.8,2076.5Z" fill="#d5d6d6"/><path d="M783.33,2103.68a153.17,153.17,0,0,0-22.55-6.46c-.27-2.59-.55-5.31-.83-8.08,8.9,3.1,17.82,5.86,24.82,12.16A1.41,1.41,0,0,1,783.33,2103.68Z" fill="#d5d6d6"/><rect width="1259.23" height="2194.12" fill="none"/></g></g></g></svg>