<svg xmlns="http://www.w3.org/2000/svg" width="1259.23" height="2194.12" viewBox="0 0 1259.23 2194.12"><title>3_men_shose_5</title><g id="Layer_2" data-name="Layer 2"><g id="Layer_141" data-name="Layer 141"><g id="_3_men_shose_5" data-name="3_men_shose_5"><polygon points="1043.91 2165.94 1038.27 2185.71 1024.85 2169.47 1043.91 2165.94" fill="#121111"/><polygon points="1000.85 2169.47 995.21 2189.24 981.79 2173 1000.85 2169.47" fill="#121111"/><polygon points="954.29 2165.07 943.94 2182.83 934.95 2163.79 954.29 2165.07" fill="#121111"/><polygon points="915.21 2154.53 904.85 2172.29 895.87 2153.25 915.21 2154.53" fill="#121111"/><polygon points="878.5 2142.53 868.15 2160.29 859.16 2141.25 878.5 2142.53" fill="#121111"/><polygon points="827.68 2123.48 817.32 2141.24 808.34 2122.19 827.68 2123.48" fill="#121111"/><polygon points="796.62 2112.18 786.27 2129.94 777.28 2110.9 796.62 2112.18" fill="#121111"/><path d="M900.8,2014.28a17.94,17.94,0,0,1,20.41,3.52c16.84,16.83,47.47,54.61,57,60.75-10.27,5.4-30.38,17-34.5,22.55-30.49-18.21-47.3-38.76-71.1-70C879.64,2024.94,892,2018.47,900.8,2014.28Z" fill="#d5d6d6"/><path d="M877.93,2125.47c22.29,13.2,91.26,28.42,91.26,28.42,40.88,3.91,75-7.84,84.4-13.44,1.28,10.3,3,22.41,3,22.41-72.16,43.66-198.85-17.09-198.85-17.09s-4.25-9.14-11.67-22.33-17.34,8.46-17.34,8.46c-14.92.84-49.87-14.56-61.54-21.66-.28-.17-2.21-18.93-3.89-35.54-.13-1.23-.21-2.48-.25-3.73,24.29,15.49,74.53,28.1,74.53,28.1C856.71,2101.1,877.93,2125.47,877.93,2125.47Z" fill="#590e15"/><path d="M966.45,2168.85c-2.54-.38-62.62-9.43-92.63-25.84a3.74,3.74,0,0,1-1.49-5.23,4.11,4.11,0,0,1,5.47-1.43c28.72,15.7,89.27,24.83,89.91,24.93,39.09,6.1,73.64-6.28,87-12.05.39,2.95.77,5.72,1.09,8a175.41,175.41,0,0,1-66.1,13.42A150.9,150.9,0,0,1,966.45,2168.85Z" fill="#80141e"/><path d="M822.76,2103.5a3.81,3.81,0,0,1,2.79,4.71,4,4,0,0,1-3.86,2.82,4.43,4.43,0,0,1-1.07-.14c-1.66-.44-33.68-9-54.51-17.68-.53-2.63-1.09-5.71-1.61-9.14C783.84,2093.14,822.32,2103.38,822.76,2103.5Z" fill="#80141e"/><path d="M795.16,1996.53c17,22.33,77.46,34.52,77.46,34.52,3.23,4.24,6.33,8.28,9.35,12.14-35.36-5.38-69.56-17.9-99.12-37.59,1.06-1.91,1.7-3,1.7-3Z" fill="#590e15"/><path d="M998.62,2114.82c-16-6-35-5-51-13a8.32,8.32,0,0,1-2.8-2c5.79-5.87,23.84-16.29,33.4-21.31,72.75,6.92,74,51.42,75.37,61.9-5.21,3.11-18.06,8.11-35.45,11.28-1.36-4.91-3.12-9.71-4.52-13.91C1010.62,2129.82,1007.62,2118.82,998.62,2114.82Z" fill="#941723"/><path d="M882.62,2085.82c-4.59.2-9.28.46-14,.74a396.83,396.83,0,0,1-37.1-56.35q9.19,3.39,18.63,6.08c29,44.16,59.95,88.61,104.9,114.28-7.56-1.84-17.41-4.34-27.69-7.21A288.19,288.19,0,0,1,877,2096.73a50.93,50.93,0,0,1,7.64,1.09,50.93,50.93,0,0,0-7.64-1.09q-4.29-5-8.4-10.17C873.34,2086.28,878,2086,882.62,2085.82Z" fill="#d5d6d6"/><path d="M877,2096.73a288.19,288.19,0,0,0,50.34,46.63c-18.83-5.26-39.09-11.79-49.39-17.89,0,0-18.64-21.4-36.7-25.76C853.16,2098.68,865.18,2095.9,877,2096.73Z" fill="#941723"/><path d="M837.61,2099.07s-19.46-4.88-40-12.31c23.45,2.8,48.07,1.12,71-.2q4.09,5.18,8.4,10.17c-11.8-.83-23.82,1.95-35.75,3-.57-.14-1.14-.26-1.7-.36S838.25,2099.14,837.61,2099.07Z" fill="#d5d6d6"/><path d="M766.17,2046.56c12.66,5.81,26.09,9.67,39,14.26-.78,2-1.63,4-2.54,6,.91-2,1.76-4,2.54-6q2.75,1,5.46,2-2.72-1-5.46-2a69.33,69.33,0,0,0,3.13-9.74c3.08.72,6.18,1.31,9.33,1.74-3.15-.43-6.25-1-9.33-1.74a48.45,48.45,0,0,0,1.33-11.26,48.45,48.45,0,0,1-1.33,11.26c-13.43-3.17-26.26-8.85-39.2-14.35.8-2.39,1.65-4.73,2.51-7a201.11,201.11,0,0,1,11.25-24.15,233.84,233.84,0,0,0,48.63,24.61,396.83,396.83,0,0,0,37.1,56.35c-22.91,1.32-47.53,3-71,.2-12.47-4.5-25.34-9.94-34.52-15.79A87.91,87.91,0,0,1,766.17,2046.56Z" fill="#941723"/><path d="M805.16,2060.82c-12.9-4.59-26.33-8.45-39-14.26.86-3.35,1.85-6.64,2.92-9.83,12.94,5.5,25.77,11.18,39.2,14.35A69.33,69.33,0,0,1,805.16,2060.82Z" fill="#d5d6d6"/><path d="M998.62,2114.82c9,4,12,15,15,23,1.4,4.2,3.16,9,4.52,13.91a181.06,181.06,0,0,1-43.19,2.61c-1.9-.12-3.82-.26-5.76-.45,0,0-5.63-1.24-14.18-3.32a186.64,186.64,0,0,1-24-16.35c6.29-12.51,10.53-23.46,18.79-31.37C965.36,2109.73,983.35,2109.1,998.62,2114.82Z" fill="#941723"/><path d="M943.72,2101.1c.29-.38,1.67-5.78,2.1-6.22.84.86,4.95-5,6-4.59.74.37,2.08,1.44,2.83,1.77-5.3,11-15.89,27.53-23.59,42.16-2.95-2.35-5.83-4.8-8.65-7.31a301.2,301.2,0,0,0,15.26-29.57C939.63,2098.6,941.64,2099.86,943.72,2101.1Z" fill="#d5d6d6"/><path d="M850.11,2036.29a259.67,259.67,0,0,0,31.86,6.9c17.74,22.73,32.83,39.36,55.7,54.15a301.2,301.2,0,0,1-15.26,29.57C894,2101.66,871.56,2068.9,850.11,2036.29Z" fill="#941723"/><path d="M846.1,2123.44c.33.58.64,1.15,1,1.72l-18.3,6.74S838.67,2110.24,846.1,2123.44Z" fill="#121111"/><path d="M932.39,2096.53a4,4,0,0,0,3.94-3.34c3.77-22.6,27.89-29.2,28.13-29.26a4,4,0,0,0,0-7.75c-1.75-.44-38.26-9.42-59.7,2.28,1.79-13.36,6.74-32.85,17.86-36.9a4,4,0,1,0-2.74-7.52c-21.91,8-23.85,51.09-23.92,52.92a4,4,0,0,0,6.93,2.87c9.7-10.49,31.71-10.26,47.19-8.19-8.6,5.11-19,14.41-21.6,30.23a4,4,0,0,0,3.29,4.6A3.68,3.68,0,0,0,932.39,2096.53Z" fill="#630f18"/><path d="M915.67,2081.46a4,4,0,0,1-1.4-3.05c0-12,11.05-31.59,16.37-40.34-11.38-2.35-34,3.78-47.24,8.86a4,4,0,1,1-2.87-7.47c4.33-1.67,42.8-16,58.15-6.83a4,4,0,0,1,1.29,5.61c-4.27,6.57-14.45,24-17.08,35.4,5.16-.78,13.45-2,21.84-3,29.56-3.47,31.54-1,33.13,1a4,4,0,0,1-5.65,5.59c-4.74-1.43-31.1,1.48-53.3,5.09a4.72,4.72,0,0,1-.64,0A4,4,0,0,1,915.67,2081.46Zm55.94-4.78h0Z" fill="#630f18"/><polygon points="283.04 2169.59 288.69 2189.35 302.1 2173.12 283.04 2169.59" fill="#121111"/><polygon points="326.1 2173.12 331.75 2192.88 345.16 2176.65 326.1 2173.12" fill="#121111"/><polygon points="372.66 2168.72 383.01 2186.48 392 2167.43 372.66 2168.72" fill="#121111"/><polygon points="411.75 2158.18 422.1 2175.94 431.09 2156.9 411.75 2158.18" fill="#121111"/><polygon points="448.46 2146.18 458.81 2163.94 467.8 2144.9 448.46 2146.18" fill="#121111"/><polygon points="499.28 2127.12 509.63 2144.88 518.62 2125.84 499.28 2127.12" fill="#121111"/><polygon points="530.34 2115.83 540.69 2133.59 549.68 2114.55 530.34 2115.83" fill="#121111"/><path d="M426.15,2017.93a17.92,17.92,0,0,0-20.4,3.52c-16.84,16.83-47.47,54.61-57,60.74,10.28,5.41,30.38,17,34.5,22.56,30.5-18.21,47.3-38.76,71.1-70C447.31,2028.59,434.92,2022.12,426.15,2017.93Z" fill="#d5d6d6"/><path d="M449,2129.11c-22.29,13.2-91.26,28.43-91.26,28.43-40.88,3.91-75-7.84-84.4-13.44-1.29,10.3-3,22.41-3,22.41,72.16,43.66,198.85-17.09,198.85-17.09s4.24-9.14,11.67-22.34,17.33,8.46,17.33,8.46c14.93.84,49.88-14.55,61.55-21.65.28-.17,2.21-18.93,3.89-35.54.13-1.23.2-2.48.25-3.74-24.3,15.5-74.53,28.11-74.53,28.11C470.25,2104.75,449,2129.11,449,2129.11Z" fill="#590e15"/><path d="M360.5,2172.5c2.55-.38,62.63-9.44,92.64-25.84a3.75,3.75,0,0,0,1.49-5.23,4.1,4.1,0,0,0-5.47-1.43c-28.72,15.7-89.28,24.83-89.92,24.92-39.08,6.11-73.64-6.27-87-12-.4,2.94-.78,5.71-1.09,8a175.41,175.41,0,0,0,66.1,13.42A150.68,150.68,0,0,0,360.5,2172.5Z" fill="#80141e"/><path d="M504.2,2107.14a3.82,3.82,0,0,0-2.8,4.72,4,4,0,0,0,3.86,2.82,4.45,4.45,0,0,0,1.08-.14c1.66-.44,33.67-9,54.51-17.69.53-2.62,1.09-5.7,1.6-9.14C543.12,2096.79,504.64,2107,504.2,2107.14Z" fill="#80141e"/><path d="M531.8,2000.18c-17,22.33-77.47,34.52-77.47,34.52-3.22,4.24-6.32,8.27-9.34,12.14,35.36-5.38,69.55-17.9,99.12-37.59-1.06-1.91-1.7-3-1.7-3Z" fill="#590e15"/><path d="M328.34,2118.47c16-6,35-5,51-13a8.22,8.22,0,0,0,2.8-2c-5.79-5.87-23.85-16.28-33.41-21.31-72.75,6.93-74.05,51.43-75.36,61.91,5.21,3.11,18.06,8.11,35.44,11.27,1.37-4.9,3.13-9.71,4.53-13.9C316.34,2133.47,319.34,2122.47,328.34,2118.47Z" fill="#941723"/><path d="M444.34,2089.47c4.59.2,9.28.46,14,.74a396.47,396.47,0,0,0,37.09-56.35q-9.18,3.39-18.62,6.07c-29.06,44.17-60,88.62-104.91,114.29,7.56-1.84,17.42-4.34,27.7-7.21A287.81,287.81,0,0,0,450,2100.37a49.75,49.75,0,0,0-7.63,1.1,49.75,49.75,0,0,1,7.63-1.1q4.3-5,8.41-10.16C453.62,2089.93,448.93,2089.67,444.34,2089.47Z" fill="#d5d6d6"/><path d="M450,2100.37A287.81,287.81,0,0,1,399.64,2147c18.82-5.27,39.09-11.8,49.39-17.9,0,0,18.63-21.39,36.7-25.75C473.79,2102.33,461.77,2099.54,450,2100.37Z" fill="#941723"/><path d="M489.35,2102.72s19.45-4.89,40-12.31c-23.45,2.8-48.06,1.12-71-.2q-4.11,5.16-8.41,10.16c11.8-.83,23.82,2,35.76,3,.57-.14,1.13-.26,1.7-.36S488.71,2102.79,489.35,2102.72Z" fill="#d5d6d6"/><path d="M560.78,2050.21c-12.65,5.8-26.09,9.67-39,14.26.78,2,1.63,4,2.54,6-.91-2-1.76-4-2.54-6-1.84.65-3.66,1.31-5.46,2,1.8-.69,3.62-1.35,5.46-2a69.09,69.09,0,0,1-3.14-9.75c-3.07.73-6.18,1.32-9.32,1.75,3.14-.43,6.25-1,9.32-1.75a48.92,48.92,0,0,1-1.32-11.25,48.92,48.92,0,0,0,1.32,11.25c13.44-3.16,26.26-8.84,39.21-14.34q-1.22-3.6-2.52-7a203,203,0,0,0-11.24-24.15,234.16,234.16,0,0,1-48.64,24.61,396.47,396.47,0,0,1-37.09,56.35c22.91,1.32,47.52,3,71,.2,12.47-4.5,25.35-9.94,34.53-15.8A87.91,87.91,0,0,0,560.78,2050.21Z" fill="#941723"/><path d="M521.8,2064.47c12.89-4.59,26.33-8.46,39-14.26-.86-3.35-1.84-6.65-2.91-9.83-13,5.5-25.77,11.18-39.21,14.34A69.09,69.09,0,0,0,521.8,2064.47Z" fill="#d5d6d6"/><path d="M328.34,2118.47c-9,4-12,15-15,23-1.4,4.19-3.16,9-4.53,13.9A180.09,180.09,0,0,0,352,2158c1.91-.11,3.83-.25,5.77-.44,0,0,5.62-1.24,14.17-3.32a185.94,185.94,0,0,0,23.95-16.35c-6.29-12.52-10.52-23.46-18.78-31.37C361.59,2113.37,343.6,2112.75,328.34,2118.47Z" fill="#941723"/><path d="M383.23,2104.75c-.28-.39-1.66-5.78-2.1-6.22-.84.85-4.95-5-6-4.59-.73.37-2.07,1.43-2.82,1.77,5.3,11,15.88,27.53,23.58,42.16q4.42-3.54,8.66-7.31A300.32,300.32,0,0,1,389.28,2101C387.32,2102.25,385.31,2103.51,383.23,2104.75Z" fill="#d5d6d6"/><path d="M476.85,2039.93a259.7,259.7,0,0,1-31.86,6.91c-17.74,22.72-32.83,39.36-55.71,54.14a300.32,300.32,0,0,0,15.27,29.58C432.93,2105.31,455.39,2072.55,476.85,2039.93Z" fill="#941723"/><path d="M480.86,2127.08c-.33.59-.65,1.16-1,1.73l18.29,6.73S488.29,2113.89,480.86,2127.08Z" fill="#121111"/><path d="M394.57,2100.18a4,4,0,0,1-3.94-3.35c-3.77-22.59-27.89-29.19-28.13-29.26a4,4,0,0,1,0-7.74c1.74-.44,38.25-9.42,59.7,2.28-1.79-13.37-6.74-32.85-17.86-36.9a4,4,0,0,1,2.73-7.52c21.92,8,23.86,51.09,23.93,52.92a4,4,0,0,1-6.93,2.87c-9.7-10.49-31.71-10.27-47.19-8.2,8.6,5.12,19,14.41,21.6,30.24a4,4,0,0,1-3.29,4.6A3.68,3.68,0,0,1,394.57,2100.18Z" fill="#630f18"/><path d="M408.69,2086.06a4.6,4.6,0,0,1-.64,0c-22.21-3.61-48.57-6.53-53.3-5.09a4,4,0,0,1-5.66-5.59c1.59-2,3.57-4.47,33.14-1,8.38,1,16.67,2.18,21.83,3-2.62-11.42-12.81-28.83-17.08-35.4a4,4,0,0,1-.54-3.08,4,4,0,0,1,1.84-2.53c15.35-9.21,53.81,5.16,58.15,6.83a4,4,0,0,1-2.88,7.47c-13.2-5.08-35.86-11.21-47.24-8.87,5.33,8.76,16.38,28.37,16.38,40.35a4,4,0,0,1-1.41,3.05A4.05,4.05,0,0,1,408.69,2086.06Zm-53.34-5.74h0Z" fill="#630f18"/><rect width="1259.23" height="2194.12" fill="none"/></g></g></g></svg>