<svg xmlns="http://www.w3.org/2000/svg" width="1259.23" height="2194.12" viewBox="0 0 1259.23 2194.12"><defs><style>.a{fill:#a1a1a1;}.b{fill:#fff;}.c{fill:#bfbfbf;}.d{fill:none;}</style></defs><title>3_men_hair_13</title><path class="a" d="M833.66,244.47c4.59,12,3.05,25.19,1.38,37.83-4,30.59-13.12,57.41-31.22,85.93-6.3,9.94-15.71,30.56-14.45,30.55l1.35-43.13s38.29-25.08,34.91-58.84c-3.84-38.45-32.81-18.23-32.81-18.23l-3.73-96.29Z"/><path class="b" d="M665.59,82.89c-7,31,13.22,71.86,36.19,93.82C719,193.16,742,202.16,760.56,217s33,40.34,23.18,62a57.12,57.12,0,0,0,25-31.47,41,41,0,0,0,38.12,11.93c-12.08-9.52-18.21-40.11-16.51-55.39C839.24,124.41,793,74.87,755.53,49.27,713.19,20.33,672.7,51.21,665.59,82.89Z"/><path class="c" d="M804.59,202.35c-6,12-9,25-10,39-2-20-14-36-29-48-31-24-65-44-73-84-3.78-18.87-11.53-40.59-6.51-58.71C675.65,59.19,668.26,71,665.59,82.89c-7,31,13.22,71.86,36.19,93.82C719,193.16,742,202.16,760.56,217s33,40.34,23.18,62a57.12,57.12,0,0,0,25-31.47,41,41,0,0,0,37.34,12.07C824.29,247.68,806.27,226.79,804.59,202.35Z"/><path class="a" d="M458.71,237.37c-4.58,12.5-3,26.3-1.37,39.51,4.05,32,13.12,60,31.21,89.76,6.31,10.39,21.72,31.93,20.45,31.92l-1.34-45.06S469.37,327.3,472.74,292c3.85-40.17,32.82-19,32.82-19l3.73-100.59Z"/><path class="b" d="M564,35.12a160.23,160.23,0,0,0-89,94c-9.31,26.68-11.3,55.26-16.23,83.09-3.1,17.52-10.52,38-28,41.56a65.21,65.21,0,0,0,34.54,6l-13.74,25.44c21.05,3.45,40.12-14.29,49.05-33.66s11.53-41.22,20.85-60.4c16-32.82,52.47-54.48,88.93-52.75-14.75,16.88-14.75,16.88-51.19,43.22,30.65-1.09,101.37,9.08,145.58-65.62,24.27-41-5.42-78-47.16-88.73C627.12,19.46,593,23.15,564,35.12Z"/><path class="c" d="M708.46,64.74a68.31,68.31,0,0,1-10.87,35.61c-22,32-51,56-88,65,15-15,27-31,33-52-78-2-152,54-157,134-1-16,1-31,0-47-5.86,26.34-20.27,59.33-52.54,54.44a65.28,65.28,0,0,0,32.33,5l-13.74,25.44c21.05,3.45,40.12-14.29,49.05-33.66s11.53-41.22,20.85-60.4c16-32.82,52.47-54.48,88.93-52.75-14.75,16.88-14.75,16.88-51.19,43.22,30.65-1.09,101.37,9.08,145.58-65.62C715.89,97.42,715.77,79.63,708.46,64.74Z"/><rect class="d" width="1259.23" height="2194.12"/></svg>