<svg xmlns="http://www.w3.org/2000/svg" width="1259.23" height="2194.12" viewBox="0 0 1259.23 2194.12"><defs><style>.a{fill:#707070;}.b{fill:#fff;}.c{fill:none;}</style></defs><title>3_men_Glasses_C_1</title><path d="M652.66,247.57c-42.91-.73-97.61.51-142.53,6.13,0,0,14.23,55.05,30.11,58.23s84.89-2.12,91.24-4.23,21.18-27.53,21.18-27.53,14.82,25.41,21.17,27.53,70.36,7.41,86.24,4.23,29.12-58.23,29.12-58.23C744.26,248.08,695.56,246.84,652.66,247.57Z"/><path class="a" d="M594.29,253.89,542,306.16c2.21.37,6.56.76,15.05.76,2.2,0,4.49,0,6.85-.07l53.41-53.41Q605.6,253.55,594.29,253.89Z"/><path class="a" d="M742.25,255.57l-48.79,48.79c6.3.56,13.57,1.11,21,1.56l48.68-48.68Q753,256.3,742.25,255.57Z"/><path class="a" d="M652.76,253.57h-.21c-2.64,0-5.28-.08-7.91-.11l-54.21,52.21c4.64-.3,9.14-.64,13.33-1l53.18-51.18Z"/><path class="a" d="M710.39,254l-40,42.05c2.39,3.12,4.38,5.32,5.52,6,.18,0,.42.1.68.15l45.74-47.73Q716.4,254.19,710.39,254Z"/><path class="b" d="M506.06,266.58a6,6,0,0,1-1-11.92c3.14-.53,130.34-19.67,288-3a6,6,0,0,1-1.26,11.94c-156.08-16.46-281.66,2.42-284.78,2.94A5.83,5.83,0,0,1,506.06,266.58Z"/><rect class="c" width="1259.23" height="2194.12"/></svg>