<svg xmlns="http://www.w3.org/2000/svg" width="1259.23" height="2194.12" viewBox="0 0 1259.23 2194.12"><title>3_men_shrit_2</title><g id="Layer_2" data-name="Layer 2"><g id="Layer_141" data-name="Layer 141"><g id="_3_men_shrit_2" data-name="3_men_shrit_2"><path d="M947.23,697.59l40.2,95.69a216.14,216.14,0,0,0,21.14-12.38c-17-52.83-35.92-84.72-35.92-84.72,9.88-83.3-45.18-135.53-64.95-144S799,523.94,799,523.94l-82.59-41.65-10.94,34.95,195.18,63.88S953.59,623.47,947.23,697.59Z" fill="#383838"/><path d="M870.91,836.17c-.06-.14-.12-.27-.19-.41l-.72.18Z" fill="#0dad8a"/><path d="M432.65,564.18S536.42,558.71,614,510.64l-9.1-24.11-98.12,41.65-39.53,7.06c-45.17,1.41-63.53,7-63.53,7C335.94,560.65,304.88,651,297.82,658.06c-1.89,1.89-8,5.92-15.81,10.8a166.69,166.69,0,0,0,8.47,28l19.34-12S360.65,566.29,432.65,564.18Z" fill="#383838"/><path d="M947.23,697.59c6.36-74.12-46.58-116.47-46.58-116.47L705.47,517.24l-1.77,5.64-44.47,1.77L619,523.94l-5-13.3c-77.56,48.07-181.33,53.54-181.33,53.54-72,2.11-122.83,120.7-122.83,120.7l-19.34,12c13.22,33.66,38.3,72.51,69.45,95,43.53-23.63,88.95-54.77,88.95-54.77,7.06,45.17,31.82,81,31.82,81s59.95,165.17,58.53,170.82c-1.19,4.77-8.21,37.74-12.23,47.87,17.7,3.65,157.6,30.6,269.45-3.85-4.23-10.67-12.87-42.68-14-47.37-1.41-5.65,57.53-170.83,57.53-170.83,9.88-12.7,16.94-16.94,16.94-16.94,2.77,11.69,7.75,24.71,13.84,37.94,7.37-1.89,70.29-18.42,116.71-42.48Z" fill="#0dad8a"/><path d="M475.7,756.88c14.12,12.71,52.24,21.18,52.24,21.18-79.06-40.94-105-120-104.47-115.77a222.37,222.37,0,0,0,14.12,53.65,354.25,354.25,0,0,1-84.43,70.71c2.23,1.82,4.48,3.58,6.77,5.24,43.53-23.63,88.95-54.77,88.95-54.77.21,1.35.44,2.69.68,4,.08.44.17.88.25,1.31.17.9.34,1.79.53,2.68.09.49.2,1,.31,1.45.18.85.36,1.69.55,2.53.1.45.21.9.32,1.35.21.88.42,1.76.64,2.64l.28,1.09c.26,1,.52,2,.8,3,.05.21.11.42.17.63a222.84,222.84,0,0,0,27.29,60.32A388.79,388.79,0,0,1,475.7,756.88Z" fill="#0a876c"/><path d="M883.45,832.3c-17.31-52.18-14.57-92.36-14.57-92.36,16.94-19.06,19.06-65.65,19.06-65.65-27.53,76.24-97.41,105.89-97.41,105.89C811.7,782.29,843.47,759,843.47,759l-24,110c11.28-30.13,20.47-54.26,20.47-54.26,9.88-12.7,16.94-16.94,16.94-16.94.32,1.36.68,2.74,1.06,4.12,0,.2.1.39.16.59.36,1.32.76,2.67,1.18,4,.07.24.15.48.22.72.43,1.36.88,2.73,1.35,4.12l.21.61c.5,1.45,1,2.91,1.56,4.39l0,.06c.56,1.5,1.15,3,1.75,4.54l.16.42q.88,2.22,1.82,4.46c.09.2.18.41.26.61q.95,2.24,1.93,4.48c.08.17.16.34.23.52.63,1.42,1.28,2.84,1.93,4.27C872.39,835.33,876.91,834.15,883.45,832.3Z" fill="#0a876c"/><path d="M300.22,654.42a18.06,18.06,0,0,1-2.4,3.64c-1.89,1.89-8,5.92-15.81,10.8,6.92,35.09,34.19,87.45,71.15,117.79q9.72-5.89,19.37-12.58C337.13,743,312.5,699.72,300.22,654.42Z" fill="#383838"/><path d="M877.94,833.83c23.1-6.32,91.25-26.39,130.63-52.93-2.49-7.78-5-15.09-7.55-21.92-34.8,24.61-90.89,44.16-123.22,54.15,1.59,6.16,3.46,12.57,5.65,19.17C881.41,832.88,879.56,833.39,877.94,833.83Z" fill="#383838"/><path d="M353.16,786.65h0c1.1.91,2.21,1.8,3.33,2.66s2.28,1.74,3.43,2.58c1.63-.88,3.26-1.78,4.89-2.68l.4-.22q2.44-1.35,4.87-2.72h0q2.46-1.38,4.9-2.78l.35-.21c1.62-.92,3.24-1.86,4.84-2.79h0q-3.9-3.12-7.65-6.41Q362.9,780.74,353.16,786.65Z" fill="#1a1a1a"/><path d="M871.3,835.61l.36-.1.15,0,.41-.11.27-.07.53-.14.63-.17.14,0,.62-.16.15,0,3.37-.91h0c1.62-.44,3.47-1,5.51-1.53-2.19-6.6-4.06-13-5.65-19.17-5.75,1.77-10.75,3.25-14.74,4.4,2.24,6,4.83,12.07,7.66,18.23l.38-.1Z" fill="#1a1a1a"/><path d="M612.65,507.11l1.33,3.53c-21.81,13.52-45.69,23.66-68.75,31.27,48.07,15.78,114,9.33,114,9.33V524.65Z" fill="#0a876c"/><path d="M710.74,500.41l-33.51,26.71-18-2.47v26.59c36.75,2.93,79.6-8.41,102.39-15.62l-56.15-18.38Z" fill="#0a876c"/><path d="M972.65,696.18c9.88-83.3-45.18-135.53-64.95-144S799,523.94,799,523.94l-82.59-41.65-5.67,18.12,7.08-5.65,60,35.3s-6.15,2.38-16.2,5.56l139,45.5s52.94,42.35,46.58,116.47l40.2,95.69a216.14,216.14,0,0,0,21.14-12.38C991.6,728.07,972.65,696.18,972.65,696.18Z" fill="#383838"/><path d="M717.82,494.76l-7.08,5.65-5.27,16.83,56.15,18.38c10-3.18,16.2-5.56,16.2-5.56Z" fill="#1a1a1a"/><path d="M599.23,502.06l13.42,5.05-7.77-20.58-98.12,41.65-39.53,7.06c-45.17,1.41-63.53,7-63.53,7C335.94,560.65,304.88,651,297.82,658.06c-1.89,1.89-8,5.92-15.81,10.8a166.69,166.69,0,0,0,8.47,28l19.34-12s50.83-118.59,122.83-120.7c0,0,53.62-2.83,112.58-22.27a109.64,109.64,0,0,1-21.53-9.5Z" fill="#383838"/><path d="M612.65,507.11l-13.42-5.05L523.7,532.41a109.64,109.64,0,0,0,21.53,9.5c23.06-7.61,46.94-17.75,68.75-31.27Z" fill="#1a1a1a"/><path d="M643.7,527.24h29.65a0,0,0,0,1,0,0v98.65a14.82,14.82,0,0,1-14.82,14.82h0a14.82,14.82,0,0,1-14.82-14.82V527.24a0,0,0,0,1,0,0Z" fill="#383838"/><circle cx="659.23" cy="565" r="8.47" fill="#fff"/><circle cx="657.82" cy="616.24" r="8.47" fill="#fff"/><path d="M732.59,507.35c1.72-9.47-9.9-16-18.91-23.35-5.89,5.89-26.78,25.77-54.45,40.65l26.47,42.7s4.16-2,10.73-5.66C713.57,547.39,727.58,530.51,732.59,507.35Z" fill="#383838"/><path d="M765.12,505.94l-28.59-31.76a76.45,76.45,0,0,0-21.18-1.06v9.17s-.58.62-1.67,1.71c9,7.37,20.63,13.88,18.91,23.35-5,23.16-19,40-36.16,54.34C713.3,552.28,746.06,531.85,765.12,505.94Z" fill="#1a1a1a"/><path d="M588,509.47c-1.72-9.47,9.9-16,18.91-23.35a232.19,232.19,0,0,0,52.32,38.53l-24.35,44.82s-4.16-2-10.72-5.66C607,549.51,593,532.62,588,509.47Z" fill="#383838"/><path d="M555.47,508.06l28.59-31.77a76.65,76.65,0,0,1,21.17-1.05v9.17s.58.61,1.68,1.71c-9,7.37-20.63,13.88-18.91,23.35,5,23.15,19,40,36.16,54.34C607.29,554.4,574.52,534,555.47,508.06Z" fill="#1a1a1a"/><polygon points="810.01 704.65 791.76 712.7 793.92 732.53 777.82 720.74 761.73 732.53 763.88 712.7 745.63 704.65 763.88 696.6 761.73 676.77 777.82 688.55 793.92 676.77 791.76 696.6 810.01 704.65" fill="#383838"/><rect width="1259.23" height="2194.12" fill="none"/></g></g></g></svg>