<svg xmlns="http://www.w3.org/2000/svg" width="1259.23" height="2194.12" viewBox="0 0 1259.23 2194.12"><defs><style>.a{fill:#47361e;}.b{fill:#574431;}.c{fill:none;}</style></defs><title>3_men_hair_3</title><path class="a" d="M652.59,103c-25.25,16.11-46.51,39.09-56.24,65.88,11-18.88,33.4-36,51.54-47.71,12.76,6,42.94,41.59,42,57.1a37.52,37.52,0,0,0,8.15-9.2C690.1,144,673,121.59,652.59,103Z"/><path class="b" d="M824.7,184.53c0-32.88-12.81-60.66-39.21-81.35,0,0,3.58.55,19.33-.37-19.33-28.14-48-41.9-76.41-38.11a127.12,127.12,0,0,0,12.71-11.3c-16.23-7.18-42.82-.82-60,4a59.88,59.88,0,0,1,12.59-18.11c-19.23,1.83-37.6,1-51.48,13.71A97.45,97.45,0,0,0,574.5,43a30.53,30.53,0,0,1,18.33,13.44c-25.49-5.92-53.46-1.66-75.66,11.54C528,67.59,539,72.58,539,72.58c-46.8,20.43-68.54,68.61-74.24,114l21.84-21.36a158.06,158.06,0,0,0-22.89,81.82,82.36,82.36,0,0,0,17.13-21c-3.55,15.82-7.31,33.34-3.76,49.15,8.29-8.67,14.35-10.67,28.52-2.22-5.25-37.08,9.6-75.1,36.22-102.86a66.19,66.19,0,0,0-1.2,39.27c17.27-28.6,21.47-46,53.24-76.09-3,12.06-6.44,23.91-1,42.39a59.81,59.81,0,0,1,3.47-6.87c9.73-26.79,31-49.77,56.24-65.88,20.39,18.61,37.51,41,45.46,66.07,5.91-9.41,7.6-21.23,3.94-31.64a152.24,152.24,0,0,1,23.26,70c15.2-7.11,23.34-25.37,18.07-40.57a112.06,112.06,0,0,1,22.46,77.59c12.57-6.73,20.24-20.77,18.75-34.31,9,20.43,7.12,47,8.39,67.08,10.89-6.84,15-10.82,26.26-6.86,2.23-47.46,1.12-85.68-11.49-101.41C807.69,169,813.29,173.26,824.7,184.53Z"/><path class="a" d="M549.59,175.51c0-14.13,4-28.26,4-42.39-30,24.49-46,59.34-58,94.19,1-17.9-2-34.85,1-52.74-18.22,19.49-26.15,45.45-31.18,70.91a82.23,82.23,0,0,0,15.41-19.39c-3.55,15.82-7.31,33.34-3.76,49.15,8.29-8.67,14.35-10.67,28.52-2.22-1.2-37.78,9.6-75.1,36.22-102.86a66.19,66.19,0,0,0-1.2,39.27C556.13,183.7,561.11,167,585.07,142,571.24,151.3,557.2,160.38,549.59,175.51Z"/><path class="a" d="M779.59,174.57c-5,12.24,1,24.48-5,36.73-3-26.37-21-50.86-38-72.53-3,17.9-3,34.85-5,52.75-5.43-15.34-10-31.44-22.72-42.05a151.66,151.66,0,0,1,16.38,58c15.2-7.11,23.34-25.37,18.07-40.57a112.06,112.06,0,0,1,22.46,77.59c12.57-6.73,20.24-20.77,18.75-34.31,9,20.43,8.17,45.9,8.39,67.08,10.89-6.84,15-10.82,26.26-6.86.82-17.35,1.18-33.45.71-47.68a146.05,146.05,0,0,1-8.3,24.39A177.28,177.28,0,0,0,779.59,174.57Z"/><rect class="c" width="1259.23" height="2194.12"/></svg>