<svg xmlns="http://www.w3.org/2000/svg" width="1259.23" height="2194.12" viewBox="0 0 1259.23 2194.12"><title>3_men_drivers_3</title><g id="Layer_2" data-name="Layer 2"><g id="Layer_141" data-name="Layer 141"><g id="_3_men_drivers_3" data-name="3_men_drivers_3"><path d="M646.87,2015.18q-6.11-3.37-12.63-6.35L627.5,2021a107.73,107.73,0,0,0,12.74,5.92Q643.49,2021.19,646.87,2015.18Z" fill="#333"/><path d="M640.24,2027A107.73,107.73,0,0,1,627.5,2021l-7.62,13.8A96.55,96.55,0,0,0,632,2041.5Z" fill="#ffe3ad"/><path d="M632,2041.5a96.55,96.55,0,0,1-12.15-6.67l-5.58,10.1c4.1,2,8.39,3.72,12.65,5.55Z" fill="#333"/><path d="M614.3,2044.93l-45.74,82.81s3.51,6.13,10.93,3.17c1.78-.71,19.44-31,47.46-80.43C622.69,2048.65,618.4,2047,614.3,2044.93Z" fill="#594a42"/><path d="M957,1428.78,811.07,1689.16l-77.38,139.6-99.45,180.07q6.53,3,12.63,6.35c27.53-48.91,61.71-110.1,99.13-177.19,26.92-48.28,53.82-96.62,78.41-140.87,59.62-107.28,146.25-260.9,146.25-260.9Z" fill="#594a42"/><path d="M964.6,1386.11l-.13.24L957,1428.78l13.7,7.44,33-27.1C994.3,1397,980.17,1388,964.6,1386.11Z" fill="#ffe3ad"/><path d="M983.84,1398.47l-17.12,29.64-5.06-1.92,6.51-33.57S976.9,1393.17,983.84,1398.47Z" fill="#fff"/><path d="M599.33,2099.11s6.92-112.43-65.35-126.65-107.35,43.44-107.74,88.37c-.21,24.46,15.65,62.2,67.6,76.24,59.89,16.18,85.65-6.16,85.65-6.16Z" fill="#211713"/><path d="M587.19,2024.17c-7.44-16.11-23.69-29.26-52.24-22.72-20.15,4.6-38.27,16.57-50.87,45-7.6,17.1-9,41.9,2.22,67.2A52.3,52.3,0,0,0,518,2142.36l.25.08c41.66,5.61,61.28-11.53,61.28-11.53l19.84-31.8S602,2060.17,587.19,2024.17Z" fill="#ffe3ad"/><path d="M522.69,2031.91a90.19,90.19,0,0,0-9.15,11.68,3.34,3.34,0,0,0,.79,4.53c13.83,10.26,48.55,36.35,67.47,53.6a3.33,3.33,0,0,0,5.32-1.17h0a3.37,3.37,0,0,0-.32-3.18c-14.41-21.22-46.51-53.11-59.36-65.58A3.32,3.32,0,0,0,522.69,2031.91Z" fill="#4d362b"/><path d="M501,2083.08l78.14,29.17a3,3,0,0,0,3.87-1.68h0a3,3,0,0,0-1.27-3.8l-74.27-43.38A3,3,0,0,0,503,2065a128.49,128.49,0,0,0-4,14.54A3,3,0,0,0,501,2083.08Z" fill="#4d362b"/><path d="M495,2111c19.69,8.62,61.4,11.13,81.28,11.1a3.23,3.23,0,0,0,2.8-2.1h0c.81-1.93-.11-4-1.87-4.12-28.86-2.33-61.18-13.22-77.95-19.54-1.57-.59-3.41.69-3.83,2.64-.71,3.36-1.39,6.61-1.83,8.82A2.78,2.78,0,0,0,495,2111Z" fill="#4d362b"/><path d="M592.13,2086.86c-14.51-46.77-33.45-67.26-38.36-72a2.66,2.66,0,0,0-2.77-.58,62.43,62.43,0,0,0-8.94,4.12,2.69,2.69,0,0,0-.69,4.16c10.48,11.52,32,37,45.76,66.23a2.69,2.69,0,0,0,4.91-.09h0A2.8,2.8,0,0,0,592.13,2086.86Z" fill="#4d362b"/><path d="M440.83,2022.79s23.27-2.28,44.57,5.36c0,0,25.76-47.32,79-33.61C564.43,1994.54,492.5,1942.05,440.83,2022.79Z" fill="#704f3f"/><path d="M1008.55,1400.79l5.13-8.84c-11-11-24.51-19-39.63-21.68l-5.32,8.91C984.34,1379.32,999,1388.48,1008.55,1400.79Z" fill="#ffe3ad"/><path d="M968.73,1379.18l-4.13,6.93c15.57,1.93,29.7,10.9,39.1,23l4.85-8.33C999,1388.48,984.34,1379.32,968.73,1379.18Z" fill="#211713"/><path d="M974.05,1370.27c15.12,2.65,28.62,10.68,39.63,21.68l4-6.92c-10.89-10.46-24.69-17.86-38.58-23.27Z" fill="#211713"/><path d="M1035.59,1343.35c-4.59-16.81-20.85-20.18-35.41-16.82-7.88,13.16-15.16,25.35-21.06,35.23,13.89,5.41,27.69,12.81,38.58,23.27,5.35-9.21,11.89-20.48,19-32.76A49.24,49.24,0,0,0,1035.59,1343.35Z" fill="#4d362b"/><path d="M1041.84,1291.29c-8.83,2.34-17.66,4.84-26.49,6.35-3.24,5.34-9.88,20-15.17,28.89,14.56-3.36,30.82,0,35.41,16.82a49.24,49.24,0,0,1,1.12,8.92c5.09-8.8,11.51-23.46,14.47-28.68C1047.69,1313,1044.92,1302.1,1041.84,1291.29Z" fill="#211713"/><rect width="1259.23" height="2194.12" fill="none"/></g></g></g></svg>