<svg xmlns="http://www.w3.org/2000/svg" width="1259.23" height="2194.12" viewBox="0 0 1259.23 2194.12"><title>3_men_body_2</title><g id="Layer_2" data-name="Layer 2"><g id="Layer_141" data-name="Layer 141"><g id="_3_men_body_2" data-name="3_men_body_2"><path d="M605.59,488.65V433.59s9.88-32.47,57.88-31.06,46.59,26.82,46.59,26.82L715.7,483,799,523.94s88.94,19.77,108.7,28.24,74.83,60.7,64.95,144c0,0,62.11,104.47,62.11,248.47,0,0,47.41,56.06,76.26,224.78,6.91,40.43,20.82,82.86,25.63,134.39,0,0-63.77,81.3-70.83,85.53s-50.82-12.7-55.06-14.11-9.88-32.48-9.88-32.48l7.06-12.7s-15.53,1.41-19.77-5.65-9.88-40.94-7-46.59,38.11-28.23,64.94-40.94c0,0-16.94-70.59-26.83-80.47s-55.06-48-69.17-101.65c0,0,4.23-59.29-21.18-121.41,0,0-59.29-81.88-72-135.53,0,0-7.06,4.24-16.94,16.94,0,0-62.94,165.18-61.53,170.83s19.41,50.82,19.41,50.82,42.12,93.18,50.59,220.24,14.18,259.11,1.47,338.17c0,0,32.41,297.12,46.53,408.65l49.41,72,39.53,26.82s53.65,16.95,50.82,48-94.58,36.71-175.05-14.11c0,0,0-18.36-22.59-21.18s-63.53,4.24-66.36-36.71,25.42-84.7,25.42-84.7-14.12-120-22.59-132.71-91.77-169.41-39.53-286.59a45.92,45.92,0,0,0-2.82-29.64c-7.06-15.53-69.18-207.53-55.06-323.3H656.41C653.94,1353,598.06,1532.47,591,1548a45.91,45.91,0,0,0-2.83,29.65c52.24,117.17-31,273.88-39.52,286.59s-22.59,132.7-22.59,132.7,28.23,43.77,25.41,84.71-43.77,33.88-66.35,36.7-22.59,21.18-22.59,21.18c-80.47,50.82-175.24,45.18-178.06,14.12s50.82-48,50.82-48l42.53-26.83,49.41-72c14.12-111.53,46.53-403.64,46.53-403.64-12.7-79.06-7-216.12,1.47-343.18s50.59-220.24,50.59-220.24,18-45.17,19.41-50.82S483.7,818.12,483.7,818.12s-27.76-35.83-34.82-81c0,0-5.65,0-15.53,5.64s-108.7,98.83-278.12,104.48c0,0-59.29-80.48-74.82-145.42,0,0-52.24-192-62.12-208.94,0,0,73.41-105.88,79.06-111.53s39.53-31.06,52.24-26.82,77.64,45.88,77.64,45.88.71,28.24-20.47,42.35c-4.11,17.56-7.87,18.05-22.7,19.24,0,0-.59,29.47-23.18,30.88,0,0-16.94,26.83-29.65,25.41l-12.7,9.89s22.59,63.53,28.23,72,70.59,63.53,79.06,101.64c0,0,64.94-36.7,72-43.76s38.12-97.41,105.88-115.77c0,0,18.36-5.64,63.53-7l39.53-7.06Z" fill="#e0a07b"/><path d="M189.12,384.18s28.23-18.36,48,0-19.06,30.35-24,33.88Z" fill="#ca8760"/><path d="M155.23,847.24l.63,0c.72,0,2.06-.07,4-.18Z" fill="#ca8760"/><path d="M155.86,847.22l-.63,0Z" fill="#ca8760"/><path d="M527.94,778.06c-79.06-40.94-105-120-104.47-115.77a222.37,222.37,0,0,0,14.12,53.65C336.84,832,187.72,845.51,159.82,847c166.6-7.15,263.74-98.68,273.53-104.28s15.53-5.64,15.53-5.64c6.39,40.92,29.78,74.17,34.13,80.07-5.39-32.61-7.31-60.31-7.31-60.31C489.82,769.59,527.94,778.06,527.94,778.06Z" fill="#ca8760"/><path d="M213.12,713.12c-7.06,32.47-21.18,50.82-21.18,50.82s46.38-43.22,62.63-78.65c-15.31,8.94-28.75,16.53-28.75,16.53-4.53-20.39-25.22-45.62-44.34-66C198.47,661.14,217.21,694.27,213.12,713.12Z" fill="#ca8760"/><path d="M100.18,521.12l-4.24-9.88,21.18-21.18-15.53-19.77,4.23,18.36L71.94,516.88l15.53-4.23s3.86,33.47,33.72,23c-1.65-4.58-2.66-7.43-2.66-7.43S104.41,531,100.18,521.12Z" fill="#ca8760"/><path d="M164.72,492.33l-44.78-63-25.41,4.24,18.35,2.82,42.42,64.31c3.39-4.37,5.58-7.84,5.58-7.84A22.76,22.76,0,0,0,164.72,492.33Z" fill="#ca8760"/><path d="M121.35,405.35l25.41,8.47L184.06,462c2.89-.23,5.36-.44,7.49-.75L151,405.35Z" fill="#ca8760"/><polygon points="204.57 418.2 180.62 395.68 172.88 388.41 146.06 389.12 168.65 393.35 206.76 442.76 208.18 421.59 204.57 418.2" fill="#ca8760"/><path d="M523.7,532.41c46.59,27.53,127.06,21.18,127.06,21.18L595.7,511.24Z" fill="#ca8760"/><path d="M665.59,551.47c52.94,4.24,118.59-21.18,118.59-21.18l-65.65-31.76Z" fill="#ca8760"/><path d="M679.84,513.45,715.7,483l-5.64-53.65s1.41-25.41-46.59-26.82-57.88,31.06-57.88,31.06v55.06l25.53,23.71A36.71,36.71,0,0,0,679.84,513.45Z" fill="#ca8760"/><path d="M930.29,919.94c-67.76-86.82-61.41-180-61.41-180,16.94-19.06,19.06-65.65,19.06-65.65-27.53,76.24-97.41,105.89-97.41,105.89C811.7,782.29,843.47,759,843.47,759l-24,110c11.28-30.13,20.47-54.26,20.47-54.26,9.88-12.7,16.94-16.94,16.94-16.94,12.71,53.65,72,135.53,72,135.53,15.42,37.7,19.92,74.36,21.08,97.35l1.51-76.88Z" fill="#ca8760"/><path d="M998.07,950.79c-3.63,8.32-5.5,18.72,2.11,26.33,14.82,14.82,31.76,27.53,31.76,12.7,0-9.26-9.93-27.63-17.37-40.1A9.3,9.3,0,0,0,998.07,950.79Z" fill="#ca8760"/><path d="M743.94,1184.65c-80.47,50.82-150.35,0-150.35,0,31.06,31.06,62.82,36.7,62.82,36.7h21.18C715.7,1214.29,743.94,1184.65,743.94,1184.65Z" fill="#ca8760"/><path d="M807.47,2038.06c8.47,10.59,23.29,19.06,23.29,19.06s-19.06-25.41-10.58-50.83C820.18,2006.29,799,2027.47,807.47,2038.06Z" fill="#ca8760"/><path d="M492.06,2067.71s14.82-8.47,23.29-19.06-12.7-31.77-12.7-31.77C511.12,2042.29,492.06,2067.71,492.06,2067.71Z" fill="#ca8760"/><path d="M777.82,1607.12c13.77,10.59,36-2.12,36-2.12-24.35,3.18-49.76-34.94-49.76-38.12C764.06,1566.88,764.06,1596.53,777.82,1607.12Z" fill="#ca8760"/><path d="M851.94,1573.24c-6.35,23.29-25.41,29.64-25.41,29.64C845.59,1631.47,851.94,1573.24,851.94,1573.24Z" fill="#ca8760"/><path d="M509.94,1612.41s22.24,12.71,36,2.12,13.76-40.24,13.76-40.24C559.7,1577.47,534.29,1615.59,509.94,1612.41Z" fill="#ca8760"/><path d="M497.23,1610.29s-19.05-6.35-25.41-29.64C471.82,1580.65,478.18,1638.88,497.23,1610.29Z" fill="#ca8760"/><path d="M989.79,2163.71a41.46,41.46,0,0,0-6.43-5.08,65.27,65.27,0,0,0-14.15-6.6,90.18,90.18,0,0,0-14.81-3.64l-.21,1a89.1,89.1,0,0,1,13.64,5.86,61,61,0,0,1,11.92,8.17c3.4,3.12,6.25,6.72,7.54,10.56,3.13-.09,6.15-.29,9.05-.57a25.89,25.89,0,0,0-1.3-2.83A28.31,28.31,0,0,0,989.79,2163.71Z" fill="#ca8760"/><path d="M1021,2157.4a41.19,41.19,0,0,0-6.42-5.07,65.53,65.53,0,0,0-14.15-6.61,90,90,0,0,0-14.82-3.63l-.21,1a87.34,87.34,0,0,1,13.64,5.87,60.28,60.28,0,0,1,11.93,8.16c3.43,3.17,6.32,6.81,7.59,10.7.07.21.12.43.19.64a42.38,42.38,0,0,0,7.65-3.88c0-.09-.09-.2-.14-.29A28.21,28.21,0,0,0,1021,2157.4Z" fill="#ca8760"/><path d="M1005.4,2128.65l-.07,1a87.42,87.42,0,0,1,14.37,3.74,60.48,60.48,0,0,1,13,6.27c1,.65,1.9,1.34,2.79,2.06a30,30,0,0,0-3.86-8.85,69.72,69.72,0,0,0-11.06-2.86A90.48,90.48,0,0,0,1005.4,2128.65Z" fill="#ca8760"/><path d="M338.74,2166.39a60.93,60.93,0,0,1,11.92-8.16,87.16,87.16,0,0,1,13.64-5.86l-.21-1a89.18,89.18,0,0,0-14.81,3.64,65.27,65.27,0,0,0-14.15,6.6,41.32,41.32,0,0,0-6.42,5.07,28,28,0,0,0-5.26,6.86,25.05,25.05,0,0,0-1.3,2.83q4.31.53,9,.78a.24.24,0,0,0,0-.08C332.41,2173.2,335.3,2169.56,338.74,2166.39Z" fill="#ca8760"/><path d="M307.56,2160.09a61,61,0,0,1,11.93-8.17,87.3,87.3,0,0,1,13.64-5.86l-.21-1a89.93,89.93,0,0,0-14.81,3.64,65.34,65.34,0,0,0-14.16,6.6,42.41,42.41,0,0,0-6.42,5.07,28.65,28.65,0,0,0-4.87,6.22,38.37,38.37,0,0,0,7.31,4.17C301.24,2166.89,304.13,2163.25,307.56,2160.09Z" fill="#ca8760"/><path d="M313.16,2132.65l-.07-1A89.45,89.45,0,0,0,297.9,2133a71.55,71.55,0,0,0-8,1.87,32.42,32.42,0,0,0-4,7.72,60.44,60.44,0,0,1,12.92-6.21A86.43,86.43,0,0,1,313.16,2132.65Z" fill="#ca8760"/><path d="M1010.76,1375.24c4.24,1.41,48,18.35,55.06,14.11,1.23-.73,4.17-3.8,8.19-8.36l-14.54-3.64,42.35-52.94-55.06,52.94-27.53-8.47-8.47-16.94,10.59-2.12,38.12-31.76-12.71-36-33.88,12.7,6.35,17-11.29,18.35-7.06,12.7S1006.53,1373.82,1010.76,1375.24Z" fill="#ca8760"/><rect width="1259.23" height="2194.12" fill="none"/></g></g></g></svg>