<svg xmlns="http://www.w3.org/2000/svg" width="1259.23" height="2194.12" viewBox="0 0 1259.23 2194.12"><title>3_men_pants_5</title><g id="Layer_2" data-name="Layer 2"><g id="Layer_141" data-name="Layer 141"><g id="_3_men_pants_5" data-name="3_men_pants_5"><path d="M418.88,1984.06A136.83,136.83,0,0,0,444,1994.57q3.31-30,7.11-60a209.58,209.58,0,0,1-23.74-9.33Z" fill="#524a46"/><path d="M497.59,1611.35c-9-100-2-197,10-297,11-81,20-161,49-237,5-11,6-23,9-34l0-.09c-19.91-2.74-33.81-5.46-38.63-6.45-75.3,139.37-64.18,498.25-61,515.19s7.41,54,7.41,54l-46.05,319.24a209.58,209.58,0,0,0,23.74,9.33c11.93-94.59,27.35-189.22,46.49-287.22C499.59,1636.35,498.59,1620.35,497.59,1611.35Z" fill="#2e2e2e"/><path d="M772.59,1940.35a21.25,21.25,0,0,1-5-1.39c5.62,28.94,10.26,52.51,10.26,52.51,46.55,7.58,78.16,6.3,97.93,3.24q-3.45-29-7.15-58C837.17,1943,804.88,1943.69,772.59,1940.35Z" fill="#6b6460"/><path d="M451.1,1934.57q-3.78,30-7.11,60c52.64,16.31,108.3,2.19,108.3,2.19,0-15.24,1.76-34.09,4.53-54.34A224.46,224.46,0,0,1,451.1,1934.57Z" fill="#6b6460"/><path d="M825.59,1625.35c-1-3-4-6-4-9,7-82,3-162-3-243-7.41-112-27.68-223.17-56-331.89-72.88,14.54-151,8.13-196.93,1.8l0,.09c-3,11-4,23-9,34-29,76-38,156-49,237-12,100-19,197-10,297,1,9,2,25,0,36-19.14,98-34.56,192.63-46.49,287.22a224.46,224.46,0,0,0,105.72,7.85c10.31-75.39,34.65-170.13,34.65-170.13,38.12-82.58,1.06-202.23,1.06-202.23,55.06-127.06,67.76-345.18,67.76-345.18l8.47,2.12c-5.29,94.24,56.12,309.18,59.3,324s3.17,24.35,3.17,24.35c-41.29,122.83,14.83,242.47,16.95,259.41,1.24,10,11.32,62.64,19.38,104.2a21.25,21.25,0,0,0,5,1.39c32.29,3.34,64.58,2.65,96-3.63C855.53,1833.85,840.56,1730.77,825.59,1625.35Z" fill="#3b3b3b"/><path d="M875.75,1994.71c18.91-2.92,27-7.47,27-7.47-1.89-3.32-5.35-25-9.59-56.65q-12.18,3.67-24.57,6.13Q872.27,1965.73,875.75,1994.71Z" fill="#524a46"/><path d="M796.45,1033a344,344,0,0,1-33.89,8.5c28.35,108.72,48.62,219.88,56,331.89,6,81,10,161,3,243,0,3,3,6,4,9,15,105.42,29.94,208.5,43,311.37q12.38-2.46,24.57-6.13c-14.71-110-38.76-340.47-38.76-340.47C879.47,1156,796.45,1033,796.45,1033Z" fill="#2e2e2e"/><path d="M870.91,836.17c-.06-.14-.12-.27-.19-.41l-.72.18Z" fill="#fff7c8"/><rect x="644.18" y="1073.88" width="37.41" height="140.47" fill="#2e2e2e"/><path d="M840.57,1179.25C822.09,1071,796.45,1033,796.45,1033c-8.88,2.73-17.94,5.08-27.1,7.08,5.16,32.25,12.64,63.57,18.16,95.68C803.9,1151.74,822.13,1165.83,840.57,1179.25Z" fill="#1c1c1c"/><path d="M559.2,1042.35c-16.47-2.41-27.92-4.66-32.2-5.54-19.17,35.48-32.74,85.19-42.26,139.87,16.08-16.12,35.75-29,53.14-44.13C542.15,1102.09,550.08,1072,559.2,1042.35Z" fill="#1c1c1c"/><path d="M568.14,1043.6c-3.39,13.33-6.2,26.66-8.62,40q8.31,1.5,17.46,2.84c1.43-13.81,3-27.65,6.16-41C577.85,1044.86,572.84,1044.23,568.14,1043.6Z" fill="#3b3b3b"/><path d="M632.91,1049.5c-18.21-.86-35-2.36-49.77-4-3.16,13.32-4.73,27.16-6.16,41,16.17,2.35,34.23,4.23,53.84,5.11A360.1,360.1,0,0,1,632.91,1049.5Z" fill="#851c1c"/><path d="M527,1036.81a276.53,276.53,0,0,0-15.79,35.55,474.25,474.25,0,0,0,48.31,11.23c2.42-13.33,5.23-26.66,8.62-40C546.89,1040.75,532,1037.84,527,1036.81Z" fill="#851c1c"/><path d="M632.91,1049.5a360.1,360.1,0,0,0-2.09,42,535.28,535.28,0,0,0,62.64-.85c-.8-13.66-1.93-27.34-4-40.9C669.81,1050.58,650.71,1050.35,632.91,1049.5Z" fill="#6b6460"/><path d="M689.43,1049.79c2.1,13.56,3.23,27.24,4,40.9a521.56,521.56,0,0,0,58.24-7.55c-1-13.06-2.37-26.24-2.9-39.19A493.3,493.3,0,0,1,689.43,1049.79Z" fill="#851c1c"/><path d="M748.8,1044c.53,13,2,26.13,2.9,39.19q8.71-1.65,17.58-3.64a308,308,0,0,0-4.67-38.47Q756.75,1042.65,748.8,1044Z" fill="#3b3b3b"/><path d="M796.45,1033c-10.41,3.21-21.06,5.86-31.84,8.07a308,308,0,0,1,4.67,38.47c14.14-3.18,28.55-7,43.16-11.72C803.28,1043.09,796.45,1033,796.45,1033Z" fill="#851c1c"/><path d="M677.59,1221.35c38.11-7.06,66.35-36.7,66.35-36.7-80.47,50.82-150.35,0-150.35,0,24.48,24.48,49.39,33.17,58.85,35.75-2.34,41.66-18.62,190.84-37.56,286.13h0c36.26-125.1,45.38-281.65,45.38-281.65l8.47,2.12c-3.48,62.07,22,176.49,40.66,251.62-9.51-55.74-29.79-181.93-32.29-257.27Z" fill="#2e2e2e"/><path d="M764.06,1566.88s0,29.65,13.76,40.24,36-2.12,36-2.12C789.47,1608.18,764.06,1570.06,764.06,1566.88Z" fill="#2e2e2e"/><path d="M826.53,1602.88c19.06,28.59,25.41-29.64,25.41-29.64C845.59,1596.53,826.53,1602.88,826.53,1602.88Z" fill="#2e2e2e"/><path d="M509.94,1612.41s22.24,12.71,36,2.12,13.76-40.24,13.76-40.24C559.7,1577.47,534.29,1615.59,509.94,1612.41Z" fill="#2e2e2e"/><path d="M471.82,1580.65s6.36,58.23,25.41,29.64C497.23,1610.29,478.18,1603.94,471.82,1580.65Z" fill="#2e2e2e"/><path d="M870.72,835.76l-.72.18.91.23C870.85,836,870.79,835.9,870.72,835.76Z" fill="none"/><path d="M481.35,1308.88s61.83,31.06,149.35,5.65C630.7,1314.53,512.41,1379.47,481.35,1308.88Z" fill="#6b6460"/><path d="M478.53,1379.47s59.61,30,144,5.45C622.53,1384.92,508.47,1447.53,478.53,1379.47Z" fill="#6b6460"/><path d="M478.53,1467s51.42,25.84,124.23,4.7C602.76,1471.7,504.36,1525.72,478.53,1467Z" fill="#6b6460"/><path d="M842.05,1280.72s-61.82,31.06-149.35,5.65C692.7,1286.37,811,1351.31,842.05,1280.72Z" fill="#6b6460"/><path d="M853.34,1357s-59.6,30-144,5.44C709.34,1362.4,823.4,1425,853.34,1357Z" fill="#6b6460"/><path d="M847.7,1433.2s-51.43,25.83-124.24,4.69C723.46,1437.89,821.86,1491.91,847.7,1433.2Z" fill="#6b6460"/><circle cx="662.76" cy="1113.35" r="13.41" fill="#6b6460"/><rect width="1259.23" height="2194.12" fill="none"/></g></g></g></svg>