<svg xmlns="http://www.w3.org/2000/svg" width="1259.23" height="2194.12" viewBox="0 0 1259.23 2194.12"><defs><style>.a{fill:#2b2b3d;}.b{fill:#3a3a5c;}.c{fill:none;}</style></defs><title>3_men_hair_9</title><path d="M611.86,102.82,579.1,67.17c-78.75,0-86.22,75.9-87.6,134.82-.8,34.29.91,65.59.91,65.59a23,23,0,0,1,12.83,5c15-136.36,71.46-152,71.46-152Z"/><path d="M719.1,69.17c78.75,0,86.22,75.9,87.6,134.82.8,34.29-.91,65.59-.91,65.59-8.23.75-11.83,9-11.83,9C779,142.23,704,106,704,106Z"/><path class="a" d="M636.42,29c-135.67,7-164.14,87.52-165.26,172-.13,9.85,2.54,38.1,3,47.72l25.52-50.89s16.59,23.89,22.59,33.89c8-17,14.06-59.83,14.06-59.83l33.94,33.36c6.36-14.83,12.3-31.89,22.3-47.89,7,11,27.47,44.71,27.47,44.71l18.53-42.71,21.88,39.53s19.12-29.53,22.12-41.53l19,41.71,21.17-42.53,12.83,42.82S756.82,178,759.82,165c0,0,17.18,32.71,21.18,48.71,3-14,15.12-23,20.12-36,6,19,24.77,50.55,24.77,50.55a181.77,181.77,0,0,0,3.79-33.61C831.27,137.86,812.76,19.94,636.42,29Z"/><path class="b" d="M532.17,70.76s107.3,47.65,241.42,2.48c0,0,19.11,20.11,24.76,37.05,0,0-161.7,26.83-288.76-11.29Z"/><rect class="c" width="1259.23" height="2194.12"/></svg>