<svg xmlns="http://www.w3.org/2000/svg" width="1259.23" height="2194.12" viewBox="0 0 1259.23 2194.12"><title>3_men_pants_10</title><g id="Layer_2" data-name="Layer 2"><g id="Layer_141" data-name="Layer 141"><g id="_3_men_pants_10" data-name="3_men_pants_10"><path d="M844.24,1202.38C825.7,1076.33,796.45,1033,796.45,1033a350.47,350.47,0,0,1-40.75,9.8c7.26,33.1,12.47,66.69,18.77,99.89C797.87,1162.56,822.06,1181.34,844.24,1202.38Z" fill="#cc5d63"/><path d="M570.27,1043.89c-22.39-2.94-38.09-6-43.27-7.08-19.14,35.41-34,84.86-45.43,139.2q-1.85,8.79-3.58,17.75c22.32-19.15,45.29-37.85,69.64-54A694.32,694.32,0,0,1,570.27,1043.89Z" fill="#cc5d63"/><path d="M774.47,1142.65c-6.3-33.2-11.51-66.79-18.77-99.89-68.47,12.4-140.47,7-185.43,1.13a694.32,694.32,0,0,0-22.64,95.91l-2.46,1.66c-17.33,137.73-21.79,276.55-18.54,415.07,35.81,3,74,2.68,103-3.41,38.11-152.47,30.7-328.24,30.7-328.24l8.47,2.12c-5.29,94.24,26.83,311.29,30,326.12.12.55,39.93,10.86,103.18,7.67-10.3-137.77-10.44-276-22.22-413.72Z" fill="#c4363e"/><path d="M844.24,1202.38c-20.52-19.47-42.77-37-64.52-55.31,11.78,137.67,11.92,276,22.22,413.72a506.06,506.06,0,0,0,54.29-5.7C863.53,1397,856.07,1282.85,844.24,1202.38Z" fill="#8b262b"/><path d="M545.17,1141.46c-23.43,15.72-45.61,33.8-67.18,52.3-27.68,143-33,312.2-30.52,349.48,19.85,5.79,48.64,10.73,79.16,13.29C523.38,1418,527.84,1279.19,545.17,1141.46Z" fill="#8b262b"/><path d="M870.91,836.17c-.06-.14-.12-.27-.19-.41l-.72.18Z" fill="#e0ddca"/><rect x="644.18" y="1073.88" width="37.41" height="140.47" fill="#8b262b"/><path d="M840.57,1179.25C822.09,1071,796.45,1033,796.45,1033c-8.88,2.73-17.94,5.08-27.1,7.08,5.16,32.25,12.64,63.57,18.16,95.68C803.9,1151.74,822.13,1165.83,840.57,1179.25Z" fill="#8b262b"/><path d="M559.2,1042.35c-16.47-2.41-27.92-4.66-32.2-5.54-19.17,35.48-35.91,84.53-45.43,139.2,16.08-16.11,38.92-28.28,56.31-43.46C542.15,1102.09,550.08,1072,559.2,1042.35Z" fill="#8b262b"/><path d="M568.14,1043.6c-3.39,13.33-6.2,26.66-8.62,40q8.31,1.5,17.46,2.84c1.43-13.81,3-27.65,6.16-41C577.85,1044.86,572.84,1044.23,568.14,1043.6Z" fill="#8b262b"/><path d="M632.91,1049.5c-18.21-.86-35-2.36-49.77-4-3.16,13.32-4.73,27.16-6.16,41,16.17,2.35,34.23,4.23,53.84,5.11A360.1,360.1,0,0,1,632.91,1049.5Z" fill="#8b262b"/><path d="M527,1036.81a276.53,276.53,0,0,0-15.79,35.55,474.25,474.25,0,0,0,48.31,11.23c2.42-13.33,5.23-26.66,8.62-40C546.89,1040.75,532,1037.84,527,1036.81Z" fill="#8b262b"/><path d="M632.91,1049.5a360.1,360.1,0,0,0-2.09,42,535.28,535.28,0,0,0,62.64-.85c-.8-13.66-1.93-27.34-4-40.9C669.81,1050.58,650.71,1050.35,632.91,1049.5Z" fill="#8b262b"/><path d="M689.43,1049.79c2.1,13.56,3.23,27.24,4,40.9a521.56,521.56,0,0,0,58.24-7.55c-1-13.06-2.37-26.24-2.9-39.19A493.3,493.3,0,0,1,689.43,1049.79Z" fill="#8b262b"/><path d="M748.8,1044c.53,13,2,26.13,2.9,39.19q8.71-1.65,17.58-3.64a308,308,0,0,0-4.67-38.47Q756.75,1042.65,748.8,1044Z" fill="#8b262b"/><path d="M796.45,1033c-10.41,3.21-21.06,5.86-31.84,8.07a308,308,0,0,1,4.67,38.47c14.14-3.18,28.55-7,43.16-11.72C803.28,1043.09,796.45,1033,796.45,1033Z" fill="#8b262b"/><path d="M677.59,1221.35c38.11-7.06,66.35-36.7,66.35-36.7-80.47,50.82-150.35,0-150.35,0,24.48,24.48,49.39,33.17,58.85,35.75-2.34,41.66-22.85,332.72-22.85,332.72,36.26-125.11,30.7-328.24,30.7-328.24l8.47,2.12c-3.48,62.07,7.41,224.47,30,326.12-9.5-55.74-12.7-238.59-21.63-331.77Z" fill="#8b262b"/><path d="M870.72,835.76l-.72.18.91.23C870.85,836,870.79,835.9,870.72,835.76Z" fill="none"/><circle cx="661.35" cy="1076.65" r="11.29" fill="#cc5d63"/><rect width="1259.23" height="2194.12" fill="none"/></g></g></g></svg>