<svg xmlns="http://www.w3.org/2000/svg" width="1259.23" height="2194.12" viewBox="0 0 1259.23 2194.12"><title>3_men_face_2</title><g id="Layer_2" data-name="Layer 2"><g id="Layer_141" data-name="Layer 141"><g id="_3_men_face_2" data-name="3_men_face_2"><path d="M519.87,291.33s-16.14-33.74-38.14-20.54-7.34,89.49,41.08,86.56Z" fill="#ca8760"/><path d="M514,307.12s-12.9-23.23-23.23-12.9,6.45,43.89,23.23,42.6Z" fill="#a16442"/><path d="M782.22,291.33s16.14-33.74,38.15-20.54,7.33,89.49-41.08,86.56Z" fill="#ca8760"/><path d="M785.49,308.59s12.9-23.24,23.23-12.91-6.45,43.89-23.23,42.6Z" fill="#a16442"/><path d="M736.7,101.24c-38-16.85-76.52-19.12-86.21-19.43v0l-1.16,0-1.17,0v0c-9.69.31-48.21,2.58-86.2,19.43-35.47,15.73-58,51.9-57.57,91.38.75,65.36,2.59,190.55,6.46,211.32,5.56,29.81,42.83,41.67,73.28,45.18,0,0,38.92,6.85,65.2,5.7,26.27,1.15,65.2-5.7,65.2-5.7,30.44-3.51,67.71-15.37,73.27-45.18,3.87-20.77,5.71-146,6.47-211.32C794.72,153.14,772.16,117,736.7,101.24Z" fill="#e0a07b"/><rect width="1259.23" height="2194.12" fill="none"/></g></g></g></svg>