<svg xmlns="http://www.w3.org/2000/svg" width="1259.23" height="2194.12" viewBox="0 0 1259.23 2194.12"><defs><style>.a{fill:#fff;}.b{fill:#bfbfbf;}.c{fill:none;}</style></defs><title>3_men_hair_12</title><path class="a" d="M699.82,61.45a66,66,0,0,1,61.25,5C779,78,795.48,89.92,795.68,111.26c0,3-.09,6.27,1.6,8.76,1.77,2.64,5.05,3.7,8,4.85,25.87,10,32.17,56.64,30.47,76.51-1,11.63-8,25.49.92,33,3.68,3.1,8.76,3.8,13.15,5.78,15.89,7.17,18.89,29.43,12.54,45.67-4.55,11.63-12.53,24.91-5.74,35.4,2.27,3.51,5.9,5.92,8.58,9.13,6.4,7.7,6.48,19.28,2.28,28.37s-12,16-20.28,21.65c-2.77,1.88-5.78,3.85-7,7-1.53,3.82.07,8.08.36,12.18.78,11-8.43,20.76-18.87,24.35s-21.85,2.48-32.84,1.32a19.81,19.81,0,0,1-11.73,19.41c-7.46,3.13-11.81-1.85-17.07-8,24.14-12.91,27.76-32.68,27.76-32.68l2.73-47.39s39.6-18.23,39.73-63.51c.09-33.1-35.32-19.69-35.32-19.69-7.56-2.48-8.19-13.07-5.76-20.64s6.46-15.76,3.23-23c-5.33-12-25.59-10.77-30.91-22.8-3-6.9.44-14.77.75-22.31a26.53,26.53,0,0,0-8.8-20.63c-8-7.09-19.54-8.65-28.45-14.58a34.58,34.58,0,0,1-14.06-36Z"/><path class="b" d="M809.59,374.35a14.83,14.83,0,0,1,0-13c11.95-19.31,30.66-41.17,20.35-61.67-3.71,40.43-39.41,56.87-39.41,56.87l-2.73,47.39s-3.62,19.77-27.76,32.68c5.26,6.14,9.61,11.12,17.07,8a19.81,19.81,0,0,0,11.73-19.41c1.3.14,2.61.28,3.92.4C793,425.18,830.35,415.59,809.59,374.35Z"/><path class="a" d="M711.19,71c5.31,19.61,4.51,54.82,4.51,54.82-40.68,12.8-53.64-19.76-73.58-14.11s-23.83,45.17-54.89,38.11-50.82,5.65-48,22.59S527,194.36,514,211.94c-9.35,12.71-8.44,61.06-8.44,61.06-9.9-10.91-23.83-2.21-23.83-2.21s-18,15.4,0,62.27c0,0,10.68,17.7,25.88,21l3.24,49.88s2.37,18.59,18.26,27.11c15.6,8.36-35.89,6.47-52.33-.08-17.52-7-30.24-29.63-18.13-45.37a11.41,11.41,0,0,0,2.43-6c.52-6.25-5.05-7.74-9.42-9.72-15.44-7-20.67-29.85-9.81-42.87,3.12-3.74,7.34-6.83,8.91-11.45,2.88-8.45-4.28-16.6-8.06-24.69-6.14-13.18-7.66-29.33-.95-39.07a50.79,50.79,0,0,0,8.71-27.43c.29-10.58,5.35-20.26,13-31.59,3.3-4.87,7.43-9.63,8-15.49.4-4.35-1.29-8.58-2.2-12.86-3.61-17,5.24-34,14.28-48.88,7.11-11.71,15.67-24.11,28.84-27.88,6.1-1.74,12.78-1.46,18.49-4.22,8.53-4.11,12.63-13.68,18.19-21.35,11.88-16.36,33.31-25.22,53.27-22,5.06.81,10.07,2.33,15.18,2.14,6.75-.26,13-3.46,19.38-5.62A66.09,66.09,0,0,1,699.7,48.77S707.36,56.82,711.19,71Z"/><path class="b" d="M492.59,418.35a77,77,0,0,0,24.55,18.27c11.77,0,19.33-1.63,12-5.57-15.89-8.52-18.26-27.11-18.26-27.11l-3.24-49.88c-15.2-3.3-25.88-21-25.88-21-1.21-3.15-2.25-6.16-3.15-9-2,14.17-.44,28.54,8,42.32,2.73,5.12,2.66,10.94,2,17a95.4,95.4,0,0,0,8,6,95.4,95.4,0,0,1-8-6C487.16,395.1,483.36,407.81,492.59,418.35Z"/><path class="b" d="M806.59,255.35c3-14,14-28,6-40-9-12-32.72-14-33-26-1.21-52.23-28.38-38.86-45.35-63.92-30.29-44.71,26.83-59,26.83-59-16-18.46-35.94-15.78-48.63-11.18-6-10.75-16.43-18.35-33.89-18.35,12.93,5.22,33.89,18.35,20.59,53.86-4.45,5.25-10.87,9.74-19.3,12.8-22.89,8.31-36.25-21.2-59.25-5.2-9,6-9,19-17,24-19,10-43,4-63,14-19,9-8,36-25,48-11,7-22,13-26,26-5.44,20.86,11.31,40.07,7.78,57.63a16.14,16.14,0,0,1,8.19,5s-.91-48.35,8.44-61.06c13-17.58,28.06-22.59,25.23-39.53s16.95-29.65,48-22.59,34.95-32.47,54.89-38.11c18.19-5.16,30.58,21.49,63.51,16.48,3.54,10.19,8.76,18.51,16.37,22.18,9.63,4.65,23.44,6.49,31.45,13.58a26.53,26.53,0,0,1,8.8,20.63c-.31,7.54-3.8,15.41-.75,22.31,5.32,12,25.58,10.78,30.91,22.8,3.23,7.26-.8,15.45-3.23,23s-1.8,18.16,5.76,20.64a48.17,48.17,0,0,1,13-2.63A23.68,23.68,0,0,1,806.59,255.35Z"/><path class="b" d="M465.61,354.36c4.22,4.62,10.21,8.32,11.6,14.43s-2.57,12.27-4.13,18.48c-3.3,13,4.74,26.83,15.9,34.34s24.82,10.07,38.08,12.28c-9.92,2.73-28.92,5.41-42,0S461,412,463.1,397.94c1.15-7.9,6.14-15.5,4.37-23.29-2-8.73-11.51-13.57-15.54-21.56-3.65-7.22-2.23-16.17,1.66-23.27a43.93,43.93,0,0,1,9.62-11.94C456.69,329.18,456.46,344.34,465.61,354.36Z"/><path class="b" d="M834.72,350.51c-4.22,4.62-17.21,8.32-18.6,14.43s2.57,12.27,4.13,18.48c3.3,13-4.74,20.83-15.9,28.34S786.53,427.83,773.27,430c14.12,1.58,28.92,2.41,42.05-3s24-18.88,21.92-32.94c-1.16-7.9-6.15-15.5-4.38-23.29,2-8.73,11.51-13.57,15.54-21.56,3.65-7.22,2.23-16.17-1.65-23.27A44.15,44.15,0,0,0,837.12,314C843.64,325.33,843.87,340.49,834.72,350.51Z"/><path class="b" d="M711.23,62.81a6,6,0,0,1-.56.33,3.13,3.13,0,0,1,.79-.63C711.68,62.43,711.56,62.6,711.23,62.81Z"/><rect class="c" width="1259.23" height="2194.12"/></svg>