<svg xmlns="http://www.w3.org/2000/svg" width="1259.23" height="2194.12" viewBox="0 0 1259.23 2194.12"><title>3_men_shrit_1</title><g id="Layer_2" data-name="Layer 2"><g id="Layer_141" data-name="Layer 141"><g id="_3_men_shrit_1" data-name="3_men_shrit_1"><path d="M1008.57,780.9c-17-52.83-35.92-84.72-35.92-84.72,9.88-83.3-45.18-135.53-64.95-144S799,523.94,799,523.94l-82.59-41.65L703.7,522.88l-44.47,1.77L619,523.94l-14.12-37.41-98.12,41.65-39.53,7.06c-45.17,1.41-63.53,7-63.53,7C335.94,560.65,304.88,651,297.82,658.06c-1.89,1.89-8,5.92-15.81,10.8,7.34,37.2,37.54,93.83,77.92,123,43.53-23.63,88.95-54.77,88.95-54.77,7.06,45.17,31.82,81,31.82,81s59.95,165.17,58.53,170.82c-1.19,4.77-8.21,37.74-12.23,47.87,17.7,3.65,157.6,30.6,269.45-3.85-4.23-10.67-12.87-42.68-14-47.37-1.41-5.65,57.53-170.83,57.53-170.83,9.88-12.7,16.94-16.94,16.94-16.94,2.8,11.81,7.85,25,14,38.35l-.91-.23S960.63,813.21,1008.57,780.9Z" fill="#fff7c8"/><path d="M475.7,756.88c14.12,12.71,52.24,21.18,52.24,21.18-79.06-40.94-105-120-104.47-115.77a222.37,222.37,0,0,0,14.12,53.65,354.25,354.25,0,0,1-84.43,70.71c2.23,1.82,4.48,3.58,6.77,5.24,43.53-23.63,88.95-54.77,88.95-54.77.21,1.35.44,2.69.68,4,.08.44.17.88.25,1.31.17.9.34,1.79.53,2.68.09.49.2,1,.31,1.45.18.85.36,1.69.55,2.53.1.45.21.9.32,1.35.21.88.42,1.76.64,2.64l.28,1.09c.26,1,.52,2,.8,3,.05.21.11.42.17.63a222.84,222.84,0,0,0,27.29,60.32A388.79,388.79,0,0,1,475.7,756.88Z" fill="#c7c2a1"/><path d="M883.45,832.3c-17.31-52.18-14.57-92.36-14.57-92.36,16.94-19.06,19.06-65.65,19.06-65.65-27.53,76.24-97.41,105.89-97.41,105.89C811.7,782.29,843.47,759,843.47,759l-24,110c11.28-30.13,20.47-54.26,20.47-54.26,9.88-12.7,16.94-16.94,16.94-16.94.32,1.36.68,2.74,1.06,4.12,0,.2.1.39.16.59.36,1.32.76,2.67,1.18,4,.07.24.15.48.22.72.43,1.36.88,2.73,1.35,4.12l.21.61c.5,1.45,1,2.91,1.56,4.39l0,.06c.56,1.5,1.15,3,1.75,4.54l.16.42q.88,2.22,1.82,4.46c.09.2.18.41.26.61q.95,2.24,1.93,4.48c.08.17.16.34.23.52.63,1.42,1.28,2.84,1.93,4.27C872.39,835.33,876.91,834.15,883.45,832.3Z" fill="#c7c2a1"/><path d="M300.22,654.42a18.06,18.06,0,0,1-2.4,3.64c-1.89,1.89-8,5.92-15.81,10.8,6.92,35.09,34.19,87.45,71.15,117.79q9.72-5.89,19.37-12.58C337.13,743,312.5,699.72,300.22,654.42Z" fill="#337f8e"/><path d="M877.94,833.83c23.1-6.32,91.25-26.39,130.63-52.93-2.49-7.78-5-15.09-7.55-21.92-34.8,24.61-90.89,44.16-123.22,54.15,1.59,6.16,3.46,12.57,5.65,19.17C881.41,832.88,879.56,833.39,877.94,833.83Z" fill="#337f8e"/><path d="M353.16,786.65h0c1.1.91,2.21,1.8,3.33,2.66s2.28,1.74,3.43,2.58c1.63-.88,3.26-1.78,4.89-2.68l.4-.22q2.44-1.35,4.87-2.72h0q2.46-1.38,4.9-2.78l.35-.21c1.62-.92,3.24-1.86,4.84-2.79h0q-3.9-3.12-7.65-6.41Q362.9,780.74,353.16,786.65Z" fill="#286470"/><path d="M871.3,835.61l.36-.1.15,0,.41-.11.27-.07.53-.14.63-.17.14,0,.62-.16.15,0,3.37-.91h0c1.62-.44,3.47-1,5.51-1.53-2.19-6.6-4.06-13-5.65-19.17-5.75,1.77-10.75,3.25-14.74,4.4,2.24,6,4.83,12.07,7.66,18.23l.38-.1Z" fill="#286470"/><path d="M523.7,532.41c46.59,27.53,135.53,18.83,135.53,18.83V524.65l-60-22.59Z" fill="#c7c2a1"/><path d="M659.23,551.24c52.94,4.23,118.59-21.18,118.59-21.18l-60-35.3-40.59,32.36-18-2.47Z" fill="#c7c2a1"/><path d="M643.7,525.12h29.65a0,0,0,0,1,0,0V633.76a14.82,14.82,0,0,1-14.82,14.82h0a14.82,14.82,0,0,1-14.82-14.82V525.12A0,0,0,0,1,643.7,525.12Z" fill="#286470"/><circle cx="659.23" cy="565" r="8.47" fill="#fff7c8"/><circle cx="657.82" cy="616.24" r="8.47" fill="#fff7c8"/><path d="M732.59,507.35c1.72-9.47-9.9-16-18.91-23.35-5.89,5.89-26.78,25.77-54.45,40.65l26.47,42.7s4.16-2,10.73-5.66C713.57,547.39,727.58,530.51,732.59,507.35Z" fill="#337f8e"/><path d="M765.12,505.94l-28.59-31.76a76.45,76.45,0,0,0-21.18-1.06v9.17s-.58.62-1.67,1.71c9,7.37,20.63,13.88,18.91,23.35-5,23.16-19,40-36.16,54.34C713.3,552.28,746.06,531.85,765.12,505.94Z" fill="#286470"/><path d="M588,509.47c-1.72-9.47,9.9-16,18.91-23.35a232.19,232.19,0,0,0,52.32,38.53l-24.35,44.82s-4.16-2-10.72-5.66C607,549.51,593,532.62,588,509.47Z" fill="#337f8e"/><path d="M555.47,508.06l28.59-31.77a76.65,76.65,0,0,1,21.17-1.05v9.17s.58.61,1.68,1.71c-9,7.37-20.63,13.88-18.91,23.35,5,23.15,19,40,36.16,54.34C607.29,554.4,574.52,534,555.47,508.06Z" fill="#286470"/><rect width="1259.23" height="2194.12" fill="none"/></g></g></g></svg>