<svg xmlns="http://www.w3.org/2000/svg" width="1259.23" height="2194.12" viewBox="0 0 1259.23 2194.12"><defs><style>.a{fill:#422e17;}.b{fill:#703a13;}.c{fill:#5c3010;}.d{fill:none;}</style></defs><title>3_men_hair_7</title><path class="a" d="M611.86,102.82,579.1,67.17c-78.75,0-86.22,75.9-87.6,134.82-.8,34.29.91,65.59.91,65.59a23,23,0,0,1,12.83,5c15-136.36,71.46-152,71.46-152Z"/><path class="a" d="M719.1,69.17c78.75,0,86.22,75.9,87.6,134.82.8,34.29-.91,65.59-.91,65.59-8.23.75-11.83,8-11.83,8C779,141.23,704,106,704,106Z"/><path class="b" d="M808.33,135.27l.22.12a3.34,3.34,0,0,0,4.94-3.51A101.54,101.54,0,0,0,776,71.4a102.68,102.68,0,0,0-62.24-20.76,3.31,3.31,0,0,1-2.58-5.45A19.91,19.91,0,0,0,712.76,43a3.31,3.31,0,0,0-2.12-4.91,103,103,0,0,0-55.78,2.66,3.44,3.44,0,0,1-3.42-.77C635.8,25.3,612,18.7,591.51,25.87,578,30.61,565.68,40.4,552.06,43.05a3.31,3.31,0,0,0-1.31,6l11.73,8.24a3.32,3.32,0,0,1-2.09,6c-32.5-1.73-65.72,12.53-86.41,37.54a3.33,3.33,0,0,0,2.33,5.43l18.06,1.41a3.31,3.31,0,0,1,1.92,5.82,89.64,89.64,0,0,0-30.93,70.34,3.34,3.34,0,0,0,6.25,1.53c10.45-18.05,33.57-28.27,54.85-33.73,25.57-6.56,54.1-11.23,71.24-31.2a154.88,154.88,0,0,0-21.3,34,3.33,3.33,0,0,0,3.3,4.7,149.26,149.26,0,0,0,76-28,3.36,3.36,0,0,1,5.35,2.74,68,68,0,0,1-1.53,13.49,3.34,3.34,0,0,0,4.34,3.86,50.74,50.74,0,0,0,28.42-23.86,3.35,3.35,0,0,1,5.87-.09,102.84,102.84,0,0,0,60.67,47.48,3.33,3.33,0,0,0,3.91-4.64l-.79-1.66a3.34,3.34,0,0,1,5.56-3.6A149.76,149.76,0,0,1,799.43,225a3.35,3.35,0,0,0,6.44.16c4.54-14.81,8.07-29.94,8.1-45.36,0-13.86-3.15-28.13-10.18-40A3.33,3.33,0,0,1,808.33,135.27Z"/><path class="c" d="M753.59,127.35c-3-2-7,15-11,24-14-19-36-33-41-58-12,7-21,17-31,27-1-9,7-19,1-28-19,18-39,37-66,43,10-14,14-33,13-50-22,7-40,21-61,31-10,4-20,7-30,11-25.48,12.36-49.75,30.08-62.26,55,0,.5,0,1,0,1.48a3.34,3.34,0,0,0,6.25,1.53c10.45-18.05,33.57-28.27,54.85-33.73,25.57-6.56,54.1-11.23,71.24-31.2a154.88,154.88,0,0,0-21.3,34,3.33,3.33,0,0,0,3.3,4.7,149.26,149.26,0,0,0,76-28,3.36,3.36,0,0,1,5.35,2.74,68,68,0,0,1-1.53,13.49,3.34,3.34,0,0,0,4.34,3.86,50.74,50.74,0,0,0,28.42-23.86,3.35,3.35,0,0,1,5.87-.09,102.84,102.84,0,0,0,60.67,47.48,3.33,3.33,0,0,0,3.91-4.64l-.79-1.66a3.34,3.34,0,0,1,5.56-3.6A149.76,149.76,0,0,1,799.43,225a3.35,3.35,0,0,0,6.44.16l.69-2.29C805.31,184.43,786.62,147.74,753.59,127.35Z"/><rect class="d" width="1259.23" height="2194.12"/></svg>