<svg xmlns="http://www.w3.org/2000/svg" width="1259.23" height="2197.76" viewBox="0 0 1259.23 2197.76"><title>3_men_shose_2</title><g id="Layer_2" data-name="Layer 2"><g id="Layer_141" data-name="Layer 141"><g id="_3_men_shose_2" data-name="3_men_shose_2"><polygon points="282.29 2174.47 287.94 2194.24 301.35 2178 282.29 2174.47" fill="#121111"/><polygon points="325.35 2178 331 2197.76 344.41 2181.53 325.35 2178" fill="#121111"/><polygon points="371.91 2173.6 382.26 2191.36 391.25 2172.32 371.91 2173.6" fill="#121111"/><polygon points="411 2163.06 421.35 2180.82 430.34 2161.78 411 2163.06" fill="#121111"/><polygon points="447.71 2151.06 458.06 2168.82 467.05 2149.78 447.71 2151.06" fill="#121111"/><polygon points="498.53 2132.01 508.88 2149.76 517.87 2130.72 498.53 2132.01" fill="#121111"/><polygon points="529.59 2120.71 539.94 2138.47 548.93 2119.43 529.59 2120.71" fill="#121111"/><path d="M415.38,2015.26c-7.43,0-55.05,60.88-67.4,68.82,10.28,5.4,30.38,17,34.5,22.55,30.5-18.21,47.3-38.76,71.1-70.05C441.91,2026.42,415.38,2015.26,415.38,2015.26Zm-29.71,81.56c-10.77-7.94-26.18-15.57-26.18-15.57l56.6-56.86,27.59,12.19C439.43,2046.73,385.67,2096.82,385.67,2096.82Z" fill="#fff"/><path d="M416.09,2024.39l-56.6,56.86s15.41,7.63,26.18,15.57c0,0,53.76-50.09,58-60.24Z" fill="#a8a8a8"/><path d="M448.27,2131C426,2144.19,357,2159.42,357,2159.42c-40.87,3.91-75-7.84-84.39-13.44-1.29,10.3-3,22.41-3,22.41,72.16,43.66,198.85-17.09,198.85-17.09s4.24-9.14,11.67-22.33,17.33,8.46,17.33,8.46c14.93.84,49.88-14.56,61.55-21.66.28-.17,2.21-18.93,3.89-35.54.12-1.23.2-2.48.25-3.73-24.3,15.49-74.53,28.1-74.53,28.1C469.5,2106.63,448.27,2131,448.27,2131Z" fill="#fff"/><path d="M359.75,2174.38c2.54-.38,62.63-9.43,92.64-25.84a3.74,3.74,0,0,0,1.49-5.23,4.11,4.11,0,0,0-5.47-1.43c-28.72,15.7-89.28,24.83-89.92,24.93-39.08,6.1-73.64-6.28-87-12-.4,2.95-.78,5.72-1.09,8a175.41,175.41,0,0,0,66.1,13.42A150.68,150.68,0,0,0,359.75,2174.38Z" fill="#bab6b6"/><path d="M503.45,2109a3.82,3.82,0,0,0-2.8,4.72,4,4,0,0,0,3.86,2.82,4.45,4.45,0,0,0,1.08-.14c1.66-.44,33.67-9,54.5-17.69.54-2.62,1.1-5.7,1.61-9.13C542.37,2098.67,503.88,2108.91,503.45,2109Z" fill="#bab6b6"/><path d="M303.42,2110.41c-7.4,4.23-13.35,7.63-16.15,9.42-6.42,4.09-13.34,15.67-14.65,26.15,8.94,5.34,40.34,16.24,78.63,13.89-1.66-9.71-5-23.13-11.21-30.9C332.48,2119.57,313.65,2113.27,303.42,2110.41Z" fill="#353333"/><path d="M382.48,2106.63c-4.12-5.52-24.22-17.15-34.5-22.55-12.92,8.3-31.13,18.67-44.56,26.33,10.23,2.86,29.06,9.16,36.62,18.56,6.25,7.77,9.55,21.19,11.21,30.9,1.91-.12,3.83-.26,5.76-.45,0,0,69-15.23,91.26-28.42,0,0,19.83-22.76,38.41-26.12,1-15.81,2.52-32.19,15.07-42.7,16-12.47,34.1-20.25,52.85-26.9a201.11,201.11,0,0,0-11.25-24.15c-29.56,19.69-63.75,32.21-99.11,37.59C425,2073.39,408.85,2090.89,382.48,2106.63Z" fill="#575757"/><path d="M531.05,2002.06c-17,22.33-77.47,34.52-77.47,34.52-3.23,4.24-6.32,8.28-9.34,12.14,35.36-5.38,69.55-17.9,99.11-37.59-1.05-1.91-1.69-3-1.69-3Z" fill="#828282"/><path d="M501.75,2062.18c-12.55,10.51-14.05,26.89-15.07,42.7.64-.12,1.28-.21,1.92-.28,0,0,50.23-12.61,74.53-28.1.47-13.73-3.73-28.76-8.53-41.22C535.85,2041.93,517.74,2049.71,501.75,2062.18Z" fill="#353333"/><path d="M480.11,2129l-1,1.72,18.3,6.74S487.54,2115.77,480.11,2129Z" fill="#a19c9c"/><path d="M400.52,2106.29a6.15,6.15,0,0,1-4.09-1.54c-14.41-12.79-36.32-27.81-36.54-28a5.58,5.58,0,0,1-1.4-8,6.18,6.18,0,0,1,8.39-1.34c.92.63,22.77,15.6,37.73,28.89a5.57,5.57,0,0,1,.32,8.13A6.15,6.15,0,0,1,400.52,2106.29Z"/><path d="M440.84,2067.71a6.15,6.15,0,0,1-4.09-1.54c-13.85-12.3-45.52-24.17-45.84-24.29a5.67,5.67,0,0,1-3.42-7.44,6.09,6.09,0,0,1,7.78-3.28c1.39.52,34.15,12.79,49.67,26.58a5.58,5.58,0,0,1,.31,8.13A6.12,6.12,0,0,1,440.84,2067.71Z"/><path d="M420.8,2086.89a6.15,6.15,0,0,1-4.09-1.54c-14.11-12.54-41.2-26.35-41.47-26.49a5.63,5.63,0,0,1-2.49-7.78,6.15,6.15,0,0,1,8.13-2.38c1.17.59,28.76,14.67,44,28.22a5.57,5.57,0,0,1,.32,8.13A6.15,6.15,0,0,1,420.8,2086.89Z"/><polygon points="1037.71 2174.25 1032.06 2194.02 1018.65 2177.78 1037.71 2174.25" fill="#121111"/><polygon points="994.65 2177.78 989 2197.55 975.59 2181.31 994.65 2177.78" fill="#121111"/><polygon points="948.09 2173.38 937.74 2191.14 928.75 2172.09 948.09 2173.38" fill="#121111"/><polygon points="909 2162.84 898.65 2180.6 889.66 2161.56 909 2162.84" fill="#121111"/><polygon points="872.29 2150.84 861.94 2168.6 852.95 2149.56 872.29 2150.84" fill="#121111"/><polygon points="821.47 2131.79 811.12 2149.55 802.13 2130.5 821.47 2131.79" fill="#121111"/><polygon points="790.41 2120.49 780.06 2138.25 771.07 2119.21 790.41 2120.49" fill="#121111"/><path d="M866.42,2036.36c23.8,31.29,40.6,51.84,71.1,70,4.12-5.52,24.22-17.15,34.5-22.55-12.35-7.94-60-68.82-67.4-68.82C904.62,2015,878.09,2026.21,866.42,2036.36Zm9.9,0,27.59-12.19,56.6,56.86s-15.41,7.63-26.18,15.57C934.33,2096.6,880.57,2046.51,876.32,2036.36Z" fill="#fff"/><path d="M903.91,2024.17l56.6,56.86s-15.41,7.63-26.18,15.57c0,0-53.76-50.09-58-60.24Z" fill="#a8a8a8"/><path d="M871.73,2130.78C894,2144,963,2159.2,963,2159.2c40.87,3.91,75-7.84,84.39-13.44,1.29,10.3,3,22.41,3,22.41-72.16,43.66-198.85-17.09-198.85-17.09s-4.24-9.14-11.67-22.33-17.33,8.46-17.33,8.46c-14.93.84-49.88-14.56-61.55-21.66-.28-.17-2.21-18.93-3.89-35.54-.13-1.23-.2-2.48-.25-3.73,24.3,15.49,74.53,28.1,74.53,28.1C850.5,2106.41,871.73,2130.78,871.73,2130.78Z" fill="#fff"/><path d="M960.25,2174.16c-2.54-.38-62.63-9.43-92.64-25.84a3.74,3.74,0,0,1-1.49-5.23,4.11,4.11,0,0,1,5.47-1.43c28.72,15.7,89.28,24.83,89.92,24.93,39.08,6.1,73.64-6.28,87-12.05.4,2.95.78,5.72,1.09,8a175.41,175.41,0,0,1-66.1,13.42A150.68,150.68,0,0,1,960.25,2174.16Z" fill="#bab6b6"/><path d="M816.55,2108.81a3.81,3.81,0,0,1,2.8,4.71,4,4,0,0,1-3.86,2.82,4.45,4.45,0,0,1-1.08-.14c-1.66-.44-33.67-9-54.5-17.69-.54-2.62-1.1-5.7-1.61-9.13C777.63,2098.45,816.12,2108.69,816.55,2108.81Z" fill="#bab6b6"/><path d="M1016.58,2110.19c7.4,4.23,13.35,7.63,16.15,9.42,6.42,4.09,13.34,15.67,14.65,26.15-8.94,5.34-40.34,16.24-78.63,13.89,1.66-9.71,5-23.13,11.21-30.9C987.52,2119.35,1006.35,2113.05,1016.58,2110.19Z" fill="#353333"/><path d="M937.52,2106.41c4.12-5.52,24.22-17.15,34.5-22.55,12.92,8.3,31.13,18.67,44.56,26.33-10.23,2.86-29.06,9.16-36.62,18.56-6.25,7.77-9.55,21.19-11.21,30.9-1.91-.12-3.83-.26-5.76-.45,0,0-69-15.23-91.26-28.42,0,0-19.83-22.76-38.41-26.12-1-15.81-2.52-32.19-15.07-42.7-16-12.47-34.1-20.25-52.85-26.9a201.11,201.11,0,0,1,11.25-24.15c29.56,19.69,63.75,32.21,99.11,37.59C895,2073.17,911.15,2090.67,937.52,2106.41Z" fill="#575757"/><path d="M789,2001.84c17,22.33,77.47,34.52,77.47,34.52,3.23,4.24,6.32,8.28,9.34,12.14-35.36-5.38-69.55-17.9-99.11-37.59,1.05-1.91,1.69-3,1.69-3Z" fill="#828282"/><path d="M818.25,2062c12.55,10.51,14,26.89,15.07,42.7-.64-.12-1.28-.21-1.92-.28,0,0-50.23-12.61-74.53-28.1-.47-13.73,3.73-28.76,8.53-41.22C784.15,2041.71,802.26,2049.49,818.25,2062Z" fill="#353333"/><path d="M839.89,2128.75l1,1.72-18.3,6.74S832.46,2115.55,839.89,2128.75Z" fill="#a19c9c"/><path d="M919.48,2106.07a6.15,6.15,0,0,0,4.09-1.54c14.41-12.79,36.32-27.81,36.54-28a5.58,5.58,0,0,0,1.4-8,6.19,6.19,0,0,0-8.39-1.34c-.92.63-22.77,15.6-37.73,28.89a5.57,5.57,0,0,0-.32,8.13A6.15,6.15,0,0,0,919.48,2106.07Z"/><path d="M879.15,2067.49a6.16,6.16,0,0,0,4.1-1.54c13.85-12.3,45.52-24.17,45.84-24.29a5.67,5.67,0,0,0,3.42-7.44,6.1,6.1,0,0,0-7.78-3.28c-1.39.52-34.15,12.8-49.67,26.58a5.58,5.58,0,0,0-.31,8.13A6.11,6.11,0,0,0,879.15,2067.49Z"/><path d="M899.2,2086.67a6.15,6.15,0,0,0,4.09-1.54c14.11-12.54,41.2-26.35,41.47-26.49a5.63,5.63,0,0,0,2.49-7.78,6.15,6.15,0,0,0-8.13-2.38c-1.17.59-28.76,14.67-44,28.22a5.57,5.57,0,0,0-.32,8.13A6.15,6.15,0,0,0,899.2,2086.67Z"/><rect width="1259.23" height="2194.12" fill="none"/></g></g></g></svg>