<svg xmlns="http://www.w3.org/2000/svg" width="1259.23" height="2194.12" viewBox="0 0 1259.23 2194.12"><title>3_men_drivers_5</title><g id="Layer_2" data-name="Layer 2"><g id="Layer_141" data-name="Layer 141"><g id="_3_men_drivers_5" data-name="3_men_drivers_5"><path d="M568.56,2127.74s3.51,6.13,10.93,3.17c1.2-.48,23.24-38.73,56.29-97q-1.41-11.34-2.81-22.71C613.22,2046.89,591.81,2085.64,568.56,2127.74Z" fill="#211713"/><path d="M714.11,1864.4c-23.36,42.22-50.2,90.77-81.14,146.75q1.38,11.38,2.81,22.71c22.18-39.14,49.31-87.3,78.45-139.16C714.25,1884.6,714.14,1874.5,714.11,1864.4Z" fill="#be1e2d"/><path d="M714.11,1864.4c0,10.1.14,20.2.12,30.3,21.35-38,43.77-78,66.11-117.86.84-12.21,1.79-24.45,2.58-36.69C764.09,1774.11,741.49,1814.91,714.11,1864.4Z" fill="#211713"/><path d="M782.92,1740.15c-.79,12.24-1.74,24.48-2.58,36.69l14.9-26.61q.76-17.76,1.76-35.47Z" fill="#be1e2d"/><path d="M797,1714.76q-1,17.68-1.76,35.47l11.47-20.49q1.26-18.65,2.66-37.26Z" fill="#211713"/><path d="M881.37,1563.63c-13.47,23.85-30.76,54.59-72,128.85q-1.38,18.58-2.66,37.26c26.39-47.16,52-93,74.81-133.81Q881.42,1579.79,881.37,1563.63Z" fill="#be1e2d"/><path d="M891.43,1545.87c-1,11.76-1.52,23.62-1.76,35.48,24.76-44.33,45.73-81.91,60.13-107.72q-2-12.45-3.95-24.88C916.18,1502.06,903.21,1525.05,891.43,1545.87Z" fill="#be1e2d"/><path d="M957,1428.78l-11.11,20q2,12.45,3.95,24.88l20.86-37.41Z" fill="#211713"/><path d="M881.37,1563.63q0,16.15.15,32.3,4.14-7.4,8.15-14.58c.24-11.86.74-23.72,1.76-35.48Z" fill="#211713"/><path d="M964.6,1386.11l-.13.24L957,1428.78l13.7,7.44,33-27.1C994.3,1397,980.17,1388,964.6,1386.11Z" fill="#db404e"/><path d="M983.84,1398.47l-17.12,29.64-5.06-1.92,6.51-33.57S976.9,1393.17,983.84,1398.47Z" fill="#ff7681"/><path d="M536,2142.94c30.07-.37,43.53-12,43.53-12l19.84-31.8s1.75-28.49-5.73-58.59C564.83,2068.74,542.26,2103.65,536,2142.94Z" fill="#be1e2d"/><path d="M487.59,2006.35c24.21-20.94,54.85-21.75,83.22-12.8A65,65,0,0,0,534,1972.46c-72.28-14.21-107.35,43.44-107.74,88.37-.2,23.34,14.25,58.76,60.71,74.15C454,2100.61,449.65,2039.54,487.59,2006.35Z" fill="#be1e2d"/><path d="M487.35,2006.51c-37.8,33.34-33.22,94.39-.12,128.63,2.23.73,4.51,1.43,6.89,2.06,16.63,4.42,30.61,5.88,42.15,5.7,6.14-39.31,28.57-74.31,57.23-102.65-4.2-16.66-11.25-33.81-23-46.88C542.12,1984.54,511.48,1985.47,487.35,2006.51Z" fill="#211713"/><path d="M587.19,2024.17c-7.44-16.11-23.69-29.26-52.24-22.72-20.15,4.6-38.27,16.57-50.87,45-7.6,17.1-9,41.9,2.22,67.2A52.3,52.3,0,0,0,518,2142.36l.25.08c41.66,5.61,61.28-11.53,61.28-11.53l19.84-31.8S602,2060.17,587.19,2024.17Z" fill="#fff"/><path d="M522.69,2031.91a90.19,90.19,0,0,0-9.15,11.68,3.34,3.34,0,0,0,.79,4.53c13.83,10.26,48.55,36.35,67.47,53.6a3.33,3.33,0,0,0,5.32-1.17h0a3.37,3.37,0,0,0-.32-3.18c-14.41-21.22-46.51-53.11-59.36-65.58A3.32,3.32,0,0,0,522.69,2031.91Z" fill="#be1e2d"/><path d="M501,2083.08l78.14,29.17a3,3,0,0,0,3.87-1.68h0a3,3,0,0,0-1.27-3.8l-74.27-43.38A3,3,0,0,0,503,2065a128.49,128.49,0,0,0-4,14.54A3,3,0,0,0,501,2083.08Z" fill="#be1e2d"/><path d="M495,2111c19.69,8.62,61.4,11.13,81.28,11.1a3.23,3.23,0,0,0,2.8-2.1h0c.81-1.93-.11-4-1.87-4.12-28.86-2.33-61.18-13.22-77.95-19.54-1.57-.59-3.41.69-3.83,2.64-.71,3.36-1.39,6.61-1.83,8.82A2.78,2.78,0,0,0,495,2111Z" fill="#be1e2d"/><path d="M592.13,2086.86c-14.51-46.77-33.45-67.26-38.36-72a2.66,2.66,0,0,0-2.77-.58,62.43,62.43,0,0,0-8.94,4.12,2.69,2.69,0,0,0-.69,4.16c10.48,11.52,32,37,45.76,66.23a2.69,2.69,0,0,0,4.91-.09h0A2.8,2.8,0,0,0,592.13,2086.86Z" fill="#be1e2d"/><path d="M487.59,2006.35c20.36-17.61,45.27-21,69.56-16.29-19.55-10.75-74.55-32.53-116.32,32.73a122.18,122.18,0,0,1,31.5,1.82A76.27,76.27,0,0,1,487.59,2006.35Z" fill="#db4a58"/><path d="M564.43,1994.54a75.14,75.14,0,0,0-7.28-4.48c-24.29-4.69-49.2-1.32-69.56,16.29a76.27,76.27,0,0,0-15.26,18.26,89.4,89.4,0,0,1,13.07,3.54S511.16,1980.83,564.43,1994.54Z" fill="#4f4845"/><path d="M1000.18,1326.53c-13.66,22.81-23.52,39.35-35.58,59.58,15.57,1.93,29.7,10.9,39.1,23,.09-.14,14.95-25.71,33-56.85C1036,1329.46,1019.28,1322.12,1000.18,1326.53Z" fill="#211713"/><path d="M1041.84,1291.29c-8.83,2.34-17.66,4.84-26.49,6.35-3.24,5.34-9.88,20-15.17,28.89,14.56-3.36,30.82,0,35.41,16.82a49.24,49.24,0,0,1,1.12,8.92c5.09-8.8,11.51-23.46,14.47-28.68C1047.69,1313,1044.92,1302.1,1041.84,1291.29Z" fill="#211713"/><rect width="1259.23" height="2194.12" fill="none"/></g></g></g></svg>