<svg xmlns="http://www.w3.org/2000/svg" width="1262.35" height="2194.12" viewBox="0 0 1262.35 2194.12"><defs><style>.a,.n{fill:none;}.b{fill:#ffd9ff;}.c{fill:#eda2e6;}.d{fill:#ff6afa;}.e{fill:#fff;}.f{fill:#d450d0;}.g{fill:#0dad8a;}.h{fill:#f4c458;}.i{fill:#ffee8a;}.j{fill:#8f854d;}.k{fill:#883b71;}.l{fill:#c033ad;}.m{fill:#44392e;}.n{stroke:#8f854d;stroke-linecap:round;stroke-miterlimit:10;}</style></defs><title>3_men_shirt_cryptokitties</title><rect class="a" width="1262.35" height="2194.12"/><path class="b" d="M972.65,696.18c9.88-83.3-45.18-135.53-64.95-144S799,523.94,799,523.94l-82.59-41.65-5.67,18.12,7.08-5.65,60,35.3s-6.15,2.38-16.2,5.56l-34.69-11.36-21.46-7-1.77,5.64-44.47,1.77L619,523.94l-5-13.3c-21.81,13.52-45.69,23.66-68.75,31.27a109.64,109.64,0,0,1-21.53-9.5l75.53-30.35,13.42,5.05-7.77-20.58-98.12,41.65-39.53,7.06c-45.17,1.41-63.53,7-63.53,7C335.94,560.65,304.88,651,297.82,658.06c-1.89,1.89-8,5.92-15.81,10.8a166.69,166.69,0,0,0,8.47,28c13.22,33.66,38.3,72.51,69.45,95,43.53-23.63,88.95-54.77,88.95-54.77,7.06,45.17,31.82,81,31.82,81s59.95,165.17,58.53,170.82c-1.19,4.77-8.21,37.74-12.23,47.87,17.7,3.65,157.6,30.6,269.45-3.85-4.23-10.67-12.87-42.68-14-47.37-1.41-5.65,57.53-170.83,57.53-170.83,9.88-12.7,16.94-16.94,16.94-16.94,2.77,11.69,7.75,24.71,13.84,37.94,7.37-1.89,70.29-18.42,116.71-42.48a216.14,216.14,0,0,0,21.14-12.38C991.6,728.07,972.65,696.18,972.65,696.18Z"/><path class="c" d="M717.82,494.76l-7.08,5.65-33.51,26.71-18-2.47-46.58-17.54-13.42-5.05L523.7,532.41a109.64,109.64,0,0,0,21.53,9.5c48.07,15.78,114,9.33,114,9.33,36.75,2.93,79.6-8.41,102.39-15.62,10-3.18,16.2-5.56,16.2-5.56Z"/><path class="d" d="M643.7,525.24h29.65a0,0,0,0,1,0,0V632.79a7.91,7.91,0,0,1-7.91,7.91H651.62a7.91,7.91,0,0,1-7.91-7.91V525.24A0,0,0,0,1,643.7,525.24Z"/><circle class="e" cx="659.23" cy="565" r="8.47"/><circle class="e" cx="657.82" cy="616.24" r="8.47"/><path class="d" d="M732.59,507.35c1.72-9.47-9.9-16-18.91-23.35-5.89,5.89-26.78,25.77-54.45,40.65l26.47,42.7s4.16-2,10.73-5.66C713.57,547.39,727.58,530.51,732.59,507.35Z"/><path class="f" d="M765.12,505.94l-28.59-31.76a76.45,76.45,0,0,0-21.18-1.06v9.17s-.58.62-1.67,1.71c9,7.37,20.63,13.88,18.91,23.35-5,23.16-19,40-36.16,54.34C713.3,552.28,746.06,531.85,765.12,505.94Z"/><path class="d" d="M588,509.47c-1.72-9.47,9.9-16,18.91-23.35a232.19,232.19,0,0,0,52.32,38.53l-24.35,44.82s-4.16-2-10.72-5.66C607,549.51,593,532.62,588,509.47Z"/><path class="f" d="M555.47,508.06l28.59-31.77a76.65,76.65,0,0,1,21.17-1.05v9.17s.58.61,1.68,1.71c-9,7.37-20.63,13.88-18.91,23.35,5,23.15,19,40,36.16,54.34C607.29,554.4,574.52,534,555.47,508.06Z"/><path class="g" d="M870.91,836.17c-.06-.14-.12-.27-.19-.41l-.72.18Z"/><path class="c" d="M475.7,756.88c14.12,12.71,52.24,21.18,52.24,21.18-79.06-40.94-105-120-104.47-115.77a222.37,222.37,0,0,0,14.12,53.65,354.25,354.25,0,0,1-84.43,70.71c2.23,1.82,4.48,3.58,6.77,5.24,43.53-23.63,88.95-54.77,88.95-54.77.21,1.35.44,2.69.68,4,.08.44.17.88.25,1.31.17.9.34,1.79.53,2.68.09.49.2,1,.31,1.45.18.85.36,1.69.55,2.53.1.45.21.9.32,1.35.21.88.42,1.76.64,2.64l.28,1.09c.26,1,.52,2,.8,3,.05.21.11.42.17.63a222.84,222.84,0,0,0,27.29,60.32A388.79,388.79,0,0,1,475.7,756.88Z"/><path class="c" d="M883.45,832.3c-17.31-52.18-14.57-92.36-14.57-92.36,16.94-19.06,19.06-65.65,19.06-65.65-27.53,76.24-97.41,105.89-97.41,105.89C811.7,782.29,843.47,759,843.47,759l-24,110c11.28-30.13,20.47-54.26,20.47-54.26,9.88-12.7,16.94-16.94,16.94-16.94.32,1.36.68,2.74,1.06,4.12,0,.2.1.39.16.59.36,1.32.76,2.67,1.18,4,.07.24.15.48.22.72.43,1.36.88,2.73,1.35,4.12l.21.61c.5,1.45,1,2.91,1.56,4.39l0,.06c.56,1.5,1.15,3,1.75,4.54l.16.42q.88,2.22,1.82,4.46c.09.2.18.41.26.61q.95,2.24,1.93,4.48c.08.17.16.34.23.52.63,1.42,1.28,2.84,1.93,4.27C872.39,835.33,876.91,834.15,883.45,832.3Z"/><path class="d" d="M877.94,833.83c23.1-6.32,91.25-26.39,130.63-52.93-2.49-7.78-5-15.09-7.55-21.92-34.8,24.61-90.89,44.16-123.22,54.15,1.59,6.16,3.46,12.57,5.65,19.17C881.41,832.88,879.56,833.39,877.94,833.83Z"/><path class="f" d="M353.16,786.65h0c1.1.91,2.21,1.8,3.33,2.66s2.28,1.74,3.43,2.58c1.63-.88,3.26-1.78,4.89-2.68l.4-.22q2.44-1.35,4.87-2.72h0q2.46-1.38,4.9-2.78l.35-.21c1.62-.92,3.24-1.86,4.84-2.79h0q-3.9-3.12-7.65-6.41Q362.9,780.74,353.16,786.65Z"/><path class="f" d="M871.3,835.61l.36-.1.15,0,.41-.11.27-.07.53-.14.63-.17.14,0,.62-.16.15,0,3.37-.91h0c1.62-.44,3.47-1,5.51-1.53-2.19-6.6-4.06-13-5.65-19.17-5.75,1.77-10.75,3.25-14.74,4.4,2.24,6,4.83,12.07,7.66,18.23l.38-.1Z"/><path class="d" d="M300.22,654.42a18.06,18.06,0,0,1-2.4,3.64c-1.89,1.89-8,5.92-15.81,10.8,6.92,35.09,34.19,87.45,71.15,117.79q9.72-5.89,19.37-12.58C337.13,743,312.5,699.72,300.22,654.42Z"/><path class="b" d="M720.85,645.36h98.4v92.88s-49.31,37.41-97,0Z"/><path class="h" d="M742.87,680.22c.61,5.5,3.59,16.15,3.59,16.15l5.83-5.83A51.38,51.38,0,0,0,742.87,680.22Z"/><path class="i" d="M743.1,677.09c-.38.29-.41,1.48-.23,3.13a51.38,51.38,0,0,1,9.42,10.32l5.48-5.48S744.78,675.84,743.1,677.09Z"/><path class="j" d="M743.56,677c2.83,0,14.21,8.08,14.21,8.08l-5.48,5.48-5.83,5.83s-3-10.65-3.59-16.15c-.18-1.65-.15-2.84.23-3.13a.77.77,0,0,1,.46-.11m0-2.44a3.19,3.19,0,0,0-1.92.6c-1.37,1-1.47,2.81-1.19,5.35.63,5.63,3.54,16.1,3.66,16.54l1.12,4,2.95-2.95,5.83-5.84,5.49-5.48,2-2-2.36-1.67c-4.49-3.19-12.49-8.53-15.62-8.53Z"/><path class="h" d="M798.39,680.22c-.61,5.5-3.58,16.15-3.58,16.15L789,690.54A51.38,51.38,0,0,1,798.39,680.22Z"/><path class="i" d="M798.16,677.09c.39.29.41,1.48.23,3.13A51.38,51.38,0,0,0,789,690.54l-5.48-5.48S796.48,675.84,798.16,677.09Z"/><path class="j" d="M797.71,677a.75.75,0,0,1,.45.11c.39.29.41,1.48.23,3.13-.61,5.5-3.58,16.15-3.58,16.15L789,690.54l-5.48-5.48S794.88,677,797.71,677m0-2.44h0c-3.14,0-11.14,5.34-15.63,8.53l-2.35,1.67,2,2,5.48,5.48,5.83,5.84,2.95,2.95,1.12-4c.13-.44,3-10.91,3.66-16.54.28-2.54.18-4.32-1.19-5.35a3.18,3.18,0,0,0-1.91-.6Z"/><path class="i" d="M796.68,697.63c-8.31-18-25.8-17.16-26.33-17.1s-18-.92-26.34,17.1c0,0-7.61,13-11.81,15.09,0,0,9.23,5,13.42,9.22s13.41,10.92,24.73,10.92,20.61-6.8,24.73-10.92,13.41-9.22,13.41-9.22C804.3,710.63,796.68,697.63,796.68,697.63Z"/><path class="j" d="M771.1,680.51c3.52,0,18.18,1.08,25.58,17.12,0,0,7.62,13,11.81,15.09,0,0-9.22,5-13.41,9.22s-13.42,10.92-24.73,10.92-20.62-6.8-24.73-10.92-13.42-9.22-13.42-9.22c4.2-2.09,11.81-15.09,11.81-15.09,7.4-16,22.06-17.12,25.58-17.12.43,0,.7,0,.76,0s.32,0,.75,0m0-2.44-.75,0-.76,0a30.79,30.79,0,0,0-27.74,18.43c-3,5.14-8.31,12.83-10.73,14L727,712.63l4.09,2.23c.09,0,9,4.91,12.85,8.81,5.63,5.62,15.53,11.62,26.46,11.62s20.83-6,26.45-11.62c3.9-3.9,12.77-8.76,12.86-8.81l4.09-2.23-4.17-2.09c-2.43-1.21-7.71-8.9-10.74-14a30.78,30.78,0,0,0-27.74-18.43Z"/><path class="d" d="M730.34,644.15a10.57,10.57,0,0,0-10.57,10.72l1.24,84,.45.36c16.42,12.87,33,16.85,47.27,16.85a81.44,81.44,0,0,0,20.2-2.6A94.17,94.17,0,0,0,820,739.21l.48-.36V654.71a10.56,10.56,0,0,0-10.57-10.56Zm-6.91,93.49-1-64.94a7,7,0,0,1,7-7.13H811a7,7,0,0,1,7,7v65C812.86,741.27,767.26,771.53,723.43,737.64Z"/><path class="k" d="M766.47,717.39s0,5.91,4.41,5.59,4-5.27,4-5.27-3.87-.43-4.4-3.22C770.45,714.49,769.8,716.85,766.47,717.39Z"/><circle class="e" cx="754.68" cy="700.26" r="9.32"/><circle class="l" cx="754.54" cy="698.25" r="6.45"/><circle class="m" cx="754.88" cy="696.69" r="3.94"/><circle class="e" cx="751.77" cy="696.19" r="3.01"/><path class="j" d="M754.68,690.94a9.32,9.32,0,1,1-9.32,9.32,9.32,9.32,0,0,1,9.32-9.32m0-1.21a10.54,10.54,0,1,0,10.53,10.53,10.55,10.55,0,0,0-10.53-10.53Z"/><circle class="e" cx="786.21" cy="699.97" r="9.32"/><circle class="l" cx="786.07" cy="697.97" r="6.45"/><circle class="m" cx="786.41" cy="696.4" r="3.94"/><circle class="e" cx="783.3" cy="695.9" r="3.01"/><path class="j" d="M786.21,690.66A9.32,9.32,0,1,1,776.9,700a9.31,9.31,0,0,1,9.31-9.31m0-1.22A10.54,10.54,0,1,0,796.75,700a10.54,10.54,0,0,0-10.54-10.53Z"/><path class="j" d="M769.16,706.28h2.75a1.34,1.34,0,0,1,1.07,2.15l-1.42,1.89a1.35,1.35,0,0,1-2.18,0l-1.32-1.88A1.35,1.35,0,0,1,769.16,706.28Z"/><path class="n" d="M759.8,711.37s-1.07,6,5.81,6.23c6.23.22,4.73-7.41,4.73-7.41"/><path class="n" d="M781.08,711.37s1.07,6-5.8,6.23c-6.24.22-4.73-7.41-4.73-7.41"/><path class="n" d="M766.51,718c.15,1.53.87,5.19,4.37,4.94,4.4-.32,4-5.27,4-5.27"/></svg>
