<svg xmlns="http://www.w3.org/2000/svg" width="1259.23" height="2194.12" viewBox="0 0 1259.23 2194.12"><defs><style>.a{fill:#6b010c;}.b{fill:#be1e2d;}.c{fill:#fff;}.d{fill:none;}</style></defs><title>3_men_Glasses_1_3</title><path class="a" d="M780.23,271.42c-.77-33.12-46.23-24.34-83-23.75-.85.26-34-4.17-34.2,25.9-10.13-1.84-23.71-.58-30.77.31A25.39,25.39,0,0,0,618,250.43a25.72,25.72,0,0,0-10.54-2.6c-79.34-1.27,65.64,1-65.33-1.05A26.74,26.74,0,0,0,531,249.06a27.3,27.3,0,0,0-9.24,6.69c-9.31,10.37-13.36,47.14,9,57.29,7.44,3.41,5.62,2.5,76.27,1.34,29.82-.34,25.15-37.51,25.07-32.42,7.89-1.06,22.28-2.28,31-.21.24,5.88-1.77,22.52,14.67,30.24a25.12,25.12,0,0,0,10.4,2.39l62.95,1c.1,0,25.44,1.16,28.45-21.78C780.54,288,780.18,270.24,780.23,271.42Zm-159.13,30A18.65,18.65,0,0,1,607,307.56c-69-1.13-64.95-1.06-65.21-1.09-9.38-.34-16.8-6.6-16.52-20.65,1-8-1.94-15.9,4.23-23.24a16.9,16.9,0,0,1,12.56-6c34-.55,46.74-.74,65.21-1a17.9,17.9,0,0,1,7.48,1.6c12.65,5.64,10.6,18.93,10.86,19.67C625.81,287.81,627.23,294.6,621.1,301.39Zm131.21,5.12-8.16.13c-68.35,1.12-75.15,8-74.52-32.15.72-23.94,26.19-18.3,27.57-18.81,67,1.06,72.76-5.44,72.73,30.14C769.76,286.39,772.3,305.92,752.31,306.51Z"/><path d="M632.23,269.88a27.13,27.13,0,0,0-.56-5.89c.12,5.86.38,11.72.73,17.58a27.06,27.06,0,0,0-.12-3.63c7.8-1,21.71-2.2,30.43-.28,0-2.71.11-5.42.15-8.12C652.74,267.75,639.26,269,632.23,269.88Z"/><path class="b" d="M697.2,243.67c-.85.26-34-4.17-34.2,25.9l-.14,0c0,2.7-.1,5.41-.15,8.12l.42.09c.24,5.88-1.77,22.52,14.67,30.24a25.12,25.12,0,0,0,10.4,2.39l62.95,1c.1,0,25.44,1.16,28.45-21.78.53-3.22.65-10.3.66-15.62-.92-6-1.67-12-2.76-18C767.13,236.58,729,243.16,697.2,243.67Zm55.11,58.84-8.16.13c-68.35,1.12-75.15,8-74.52-32.15.72-23.94,26.19-18.3,27.57-18.81,67,1.06,72.76-5.44,72.73,30.14C769.76,282.39,772.3,301.92,752.31,302.51Z"/><path d="M789.82,258.77H778.73a19.76,19.76,0,0,0-1.23-2.72c1.09,5.93,1.84,12,2.76,18,0-1.5,0-2.86,0-3.95h9.57a5.65,5.65,0,1,0,0-11.29Z"/><path class="b" d="M631.67,264A25.35,25.35,0,0,0,618,246.43a25.72,25.72,0,0,0-10.54-2.6c-79.34-1.27,65.64,1-65.33-1.05A26.74,26.74,0,0,0,531,245.06a27.3,27.3,0,0,0-9.24,6.69,23.8,23.8,0,0,0-4.06,7h-.3c-1,4.13-1.91,8.3-2.71,12.47-1.64,14.3,1.94,31.38,16.11,37.8,7.44,3.41,5.62,2.5,76.27,1.34,21.74-.25,25.15-20.07,25.37-28.81C632.05,275.71,631.79,269.85,631.67,264Zm-10.57,33.4A18.65,18.65,0,0,1,607,303.56c-69-1.13-64.95-1.06-65.21-1.09-9.38-.34-16.8-6.6-16.52-20.65,1-8-1.94-15.9,4.23-23.24a16.9,16.9,0,0,1,12.56-6c34-.55,46.74-.74,65.21-1a17.9,17.9,0,0,1,7.48,1.6c12.65,5.64,10.6,18.93,10.86,19.67C625.81,283.81,627.23,290.6,621.1,297.39Z"/><path d="M508.32,258.77a5.65,5.65,0,1,0,0,11.29h6.47c0,.39-.1.78-.14,1.18.8-4.17,1.76-8.34,2.71-12.47Z"/><path class="c" d="M532.05,281.42c3.7,4,9.87,10.52,14.79,14.44a1.88,1.88,0,0,1-1.18,3.34h-8.53s-8-2.08-8.34-7.76v-8.75A1.88,1.88,0,0,1,532.05,281.42Z"/><path class="c" d="M618.44,276.93c-3.75-4.08-10-10.64-15-14.61a1.9,1.9,0,0,1,1.19-3.38h8.63s8.05,2.11,8.43,7.86v8.84A1.89,1.89,0,0,1,618.44,276.93Z"/><path class="c" d="M762.6,277a148.8,148.8,0,0,0-14.25-13.92,1.81,1.81,0,0,1,1.13-3.22h8.22s7.67,2,8,7.48v8.43A1.8,1.8,0,0,1,762.6,277Z"/><path class="c" d="M678.11,282.39a152,152,0,0,0,14.57,14.23,1.85,1.85,0,0,1-1.15,3.29h-8.41s-7.84-2.05-8.21-7.65v-8.61A1.84,1.84,0,0,1,678.11,282.39Z"/><rect class="d" width="1259.23" height="2194.12"/></svg>