<svg xmlns="http://www.w3.org/2000/svg" width="1259.23" height="2194.12" viewBox="0 0 1259.23 2194.12"><title>3_men_shrit_5</title><g id="Layer_2" data-name="Layer 2"><g id="Layer_141" data-name="Layer 141"><g id="_3_men_shrit_5" data-name="3_men_shrit_5"><path d="M124.81,545.56c-25.11,14.26-51.34,26.69-80.27,28.56,3.65,12.55,7.38,25.54,11,38.23,27.33-11,55-21.12,82.51-31.82C133.66,569.5,128.66,556.06,124.81,545.56Z" fill="#b3b3b3"/><path d="M467.59,653.35c-4-29-10-54-16-83-2-6-4-11-6-17A135.36,135.36,0,0,0,437.26,537c-23.5,2.18-33.56,5.26-33.56,5.26C335.94,560.65,304.88,651,297.82,658.06s-72,43.76-72,43.76c-8.47-38.11-73.41-93.17-79.06-101.64-1.71-2.58-5-10.24-8.73-19.65-27.46,10.7-55.18,20.87-82.51,31.82,13.29,46.85,24.89,89.47,24.89,89.47,15.53,64.94,74.82,145.42,74.82,145.42,169.42-5.65,268.24-98.83,278.12-104.48s15.53-5.64,15.53-5.64c3.33,21.28,11.24,40.47,18.69,54.84C472.77,746.07,475.23,700.07,467.59,653.35Z" fill="#fff"/><path d="M1110,1163.55c-28.93-164.14-75.24-218.9-75.24-218.9,0-144-62.11-248.47-62.11-248.47,9.88-83.3-45.18-135.53-64.95-144a142.85,142.85,0,0,0-14.39-4.88c-26.65,83.9-44.93,171.19-45.88,258.75,5.76-6,9.45-8.23,9.45-8.23,12.71,53.65,72,135.53,72,135.53,25.41,62.12,21.18,121.41,21.18,121.41,14.12,53.65,59.29,91.77,69.17,101.65,4,4,9.07,17.71,13.76,32.74,2.64-.56,5.2-1.2,7.6-1.8C1065.23,1183,1088,1174.17,1110,1163.55Z" fill="#fff"/><path d="M1110,1163.55c-22,10.62-44.77,19.49-69.41,23.8-2.4.6-5,1.24-7.6,1.8,3.56,11.43,6.89,23.61,9.29,32.8,26.6,1.79,52.32-6.23,75.6-19-2.59-11.41-5-22.54-6.86-33.5C1110.68,1167.45,1110.34,1165.5,1110,1163.55Z" fill="#b3b3b3"/><path d="M155.23,847.24l.63,0c.72,0,2.06-.07,4-.18Z" fill="#a16442"/><path d="M155.86,847.22l-.63,0Z" fill="#a16442"/><path d="M423.47,662.29a222.37,222.37,0,0,0,14.12,53.65C336.84,832,187.72,845.51,159.82,847c166.6-7.15,263.74-98.68,273.53-104.28s15.53-5.64,15.53-5.64c3.33,21.28,11.24,40.47,18.69,54.83,2.11-18.64,3.77-37.29,4.49-56C436.09,698.39,423.06,659.31,423.47,662.29Z" fill="#b3b3b3"/><path d="M213.12,713.12c-7.06,32.47-21.18,50.82-21.18,50.82s46.38-43.22,62.63-78.65c-15.31,8.94-28.75,16.53-28.75,16.53-4.53-20.39-25.22-45.62-44.34-66C198.47,661.14,217.21,694.27,213.12,713.12Z" fill="#b3b3b3"/><path d="M930.29,919.94c-67.76-86.82-61.41-180-61.41-180,16.94-19.06,19.06-65.65,19.06-65.65a181.07,181.07,0,0,1-36,59.65,713.22,713.22,0,0,0-4.55,72.11c5.76-6,9.45-8.23,9.45-8.23,12.71,53.65,72,135.53,72,135.53,15.42,37.7,19.92,74.36,21.08,97.35l1.51-76.88Z" fill="#b3b3b3"/><path d="M998.07,950.79c-3.63,8.32-5.5,18.72,2.11,26.33,14.82,14.82,31.76,27.53,31.76,12.7,0-9.26-9.93-27.63-17.37-40.1A9.3,9.3,0,0,0,998.07,950.79Z" fill="#b3b3b3"/><path d="M870,835.94l.91.23c-.06-.14-.12-.27-.19-.41Z" fill="#8c4e39"/><path d="M649.59,683.35c3,6,7,6,10,12,21-24,37-51,58-77,5-6,7-14,12-22,8-11,19-19,26-30,10-16.88,20.08-33.14,30.41-49l-69.59-35.09-7.76,37.42-49.42,4.94-40.94,3.53-13.41-41.65L534,516.61C561,571.44,599.62,618,636.59,669.35,640.59,674.35,646.59,678.35,649.59,683.35Z" fill="#fff"/><path d="M536.25,1002c-2.72,11.88-6.63,28.22-9.25,34.84,4.65,1,17.76,3.53,36.58,6.17,2-12,3.78-23.87,5.55-35.84Q552.63,1004.92,536.25,1002Z" fill="#c47c4f"/><path d="M580.84,1008.61q-5.85-.69-11.71-1.47c-1.77,12-3.59,23.87-5.55,35.84,4.78.67,9.94,1.35,15.42,2C580.14,1032.87,580.84,1020.65,580.84,1008.61Z" fill="#ffcf82"/><path d="M580.84,1008.61c0,12-.7,24.26-1.84,36.37,14,1.67,30,3.2,47.43,4.19.84-12.17,2.1-24.35,2.74-36.52Q604.94,1011.45,580.84,1008.61Z" fill="#c47c4f"/><path d="M629.17,1012.65c-.64,12.17-1.9,24.35-2.74,36.52,5.26.3,10.66.54,16.16.72v-36.72C638.11,1013,633.64,1012.87,629.17,1012.65Z" fill="#ffcf82"/><path d="M687.58,1013.07c1,12.27,2.44,24.41,4.13,36.62q6.49-.29,13.06-.73c-1.36-12.18-2.47-24.36-2.94-36.54C697.08,1012.68,692.33,1012.91,687.58,1013.07Z" fill="#ffcf82"/><path d="M701.83,1012.42c.47,12.18,1.58,24.36,2.94,36.54a470.61,470.61,0,0,0,48.8-5.82c-2-11.6-4.48-23.19-7-34.79Q724.29,1011.16,701.83,1012.42Z" fill="#c47c4f"/><path d="M746.58,1008.35c2.51,11.6,5,23.19,7,34.79q5.53-1,11-2.1c-2.49-11.3-4.54-22.69-6.27-34.29Q752.46,1007.61,746.58,1008.35Z" fill="#ffcf82"/><path d="M786.85,1002q-14.19,2.73-28.51,4.78c1.73,11.6,3.78,23,6.27,34.29,10.78-2.21,21.43-4.87,31.84-8.08C794,1026.7,790,1013.1,786.85,1002Z" fill="#c47c4f"/><path d="M642.59,1013.17v36.72c15.68.53,32.22.55,49.12-.2-1.69-12.21-3.16-24.35-4.13-36.62Q665.1,1013.87,642.59,1013.17Z" fill="#c47c4f"/><path d="M907.7,552.18C887.94,543.71,799,523.94,799,523.94l-13-6.56c-10.33,15.83-20.37,32.09-30.41,49-7,11-18,19-26,30-5,8-7,16-12,22-21,26-37,53-58,77-3-6-7-6-10-12-3-5-9-9-13-14C599.62,618,561,571.44,534,516.61l-27.25,11.57-39.53,7.06c-34.33,1.07-53.16,4.59-60.23,6.21-9.73,62.12,15.69,123.19,38.59,180.9a45.78,45.78,0,0,1,2.94,15l.35-.24c7.06,45.17,31.82,81,31.82,81s59.95,165.17,58.53,170.82c-.41,1.66-1.53,6.71-3,13,82.6,14.94,168.29,15.86,250.6,0-2.19-7.83-4-14.44-4.44-16.38-1.41-5.65,57.53-170.83,57.53-170.83,8.22-10.57,14.48-15.26,16.35-16.55.23-21.46,0-43.07,8.3-61.86,8.67-20.53,17.12-40.91,23.35-62.06,7.42-25.18,12.21-51.3,17.65-77.94a348.83,348.83,0,0,0,5.6-42.42A33.42,33.42,0,0,0,907.7,552.18Z" fill="#8c5939"/><path d="M475.7,756.88c14.12,12.71,52.24,21.18,52.24,21.18-79.06-40.94-105-120-104.47-115.77a222.37,222.37,0,0,0,14.12,53.65l-.15.17c2.93,7.59,5.2,15.55,7.71,23.53l3.73-2.52c.21,1.35.44,2.69.68,4,.08.44.17.88.25,1.31.17.9.34,1.79.53,2.68.09.49.2,1,.31,1.45.18.85.36,1.69.55,2.53.1.45.21.9.32,1.35.21.88.42,1.76.64,2.64l.28,1.09c.26,1,.52,2,.8,3,.05.21.11.42.17.63a222.84,222.84,0,0,0,27.29,60.32A388.79,388.79,0,0,1,475.7,756.88Z" fill="#613b24"/><path d="M868.8,741.76c0-1.2.08-1.82.08-1.82,16.94-19.06,19.06-65.65,19.06-65.65-27.53,76.24-97.41,105.89-97.41,105.89C811.7,782.29,843.47,759,843.47,759l-24,110c11.28-30.13,20.47-54.26,20.47-54.26a98.62,98.62,0,0,1,11.46-12.58c4.45-19.24,10.3-38.29,15.19-57.83A6.49,6.49,0,0,1,868.8,741.76Z" fill="#613b24"/><path d="M523.7,532.41c46.59,27.53,135.53,18.83,135.53,18.83V524.65l-60-22.59Z" fill="#b3b3b3"/><path d="M659.23,551.24c52.94,4.23,118.59-21.18,118.59-21.18l-60-35.3-40.59,32.36-18-2.47Z" fill="#b3b3b3"/><path d="M643.7,525.12h29.65a0,0,0,0,1,0,0V633.76a14.82,14.82,0,0,1-14.82,14.82h0a14.82,14.82,0,0,1-14.82-14.82V525.12A0,0,0,0,1,643.7,525.12Z" fill="#b3b3b3"/><circle cx="659.23" cy="565" r="8.47" fill="#fff"/><circle cx="657.82" cy="616.24" r="8.47" fill="#fff"/><path d="M732.59,507.35c1.72-9.47-9.9-16-18.91-23.35-5.89,5.89-26.78,25.77-54.45,40.65l26.47,42.7s4.16-2,10.73-5.66C713.57,547.39,727.58,530.51,732.59,507.35Z" fill="#ffcf82"/><path d="M765.12,505.94l-28.59-31.76a76.45,76.45,0,0,0-21.18-1.06v9.17s-.58.62-1.67,1.71c9,7.37,20.63,13.88,18.91,23.35-5,23.16-19,40-36.16,54.34C713.3,552.28,746.06,531.85,765.12,505.94Z" fill="#c47c4f"/><path d="M588,509.47c-1.72-9.47,9.9-16,18.91-23.35a232.19,232.19,0,0,0,52.32,38.53l-24.35,44.82s-4.16-2-10.72-5.66C607,549.51,593,532.62,588,509.47Z" fill="#ffcf82"/><path d="M555.47,508.06l28.59-31.77a76.65,76.65,0,0,1,21.17-1.05v9.17s.58.61,1.68,1.71c-9,7.37-20.63,13.88-18.91,23.35,5,23.15,19,40,36.16,54.34C607.29,554.4,574.52,534,555.47,508.06Z" fill="#c47c4f"/><path d="M555.47,508.06c-32.53-1.41-33.88,13.76-33.88,13.76,5.94,11.39,13.44,23.82,21.85,36.67,9.43-7.47,19.89-13.19,31.7-15.87C563.09,522.31,555.47,508.06,555.47,508.06Z" fill="#c47c4f"/><path d="M575.14,542.62c-11.81,2.68-22.27,8.4-31.7,15.87,2,3.09,4.11,6.21,6.22,9.34,8.75-7.57,18.14-14.42,28.89-19.49Q576.8,545.42,575.14,542.62Z" fill="#ffcf82"/><path d="M600.6,583.48c-8.13-12.37-15.6-24.42-22.05-35.14-10.75,5.07-20.14,11.92-28.89,19.49,7.94,11.73,16.48,23.68,25.2,35.44,8-7.14,17.26-12.95,26.15-19.16C600.87,583.9,600.73,583.69,600.6,583.48Z" fill="#c47c4f"/><path d="M574.86,603.27q3.54,4.77,7.1,9.48c10-4.49,15.85-14.24,24.67-20.22q-2.85-4.23-5.62-8.42C592.12,590.32,582.83,596.13,574.86,603.27Z" fill="#ffcf82"/><path d="M630.09,625.18c-8.06-10.44-16-21.56-23.46-32.65-8.82,6-14.7,15.73-24.67,20.22,7.85,10.39,15.74,20.53,23.33,30.1C614,637.9,621.37,630.51,630.09,625.18Z" fill="#c47c4f"/><path d="M626.59,643.35a77,77,0,0,1,10.82-9q-3.67-4.5-7.32-9.22c-8.72,5.33-16.1,12.72-24.8,17.67q4.35,5.48,8.56,10.69C618.09,650.76,622.34,648.31,626.59,643.35Z" fill="#ffcf82"/><path d="M653.15,652.38c-5.22-5.48-10.49-11.54-15.74-18a77,77,0,0,0-10.82,9c-4.25,5-8.5,7.41-12.74,10.19,13,16.18,24.76,30.19,33.31,40.25C648.68,680,651.36,666.18,653.15,652.38Z" fill="#c47c4f"/><path d="M663.51,707.65c-.11-16.17-.41-32.43-1.2-48.5l-1,1.38c-2.71-2.53-5.45-5.27-8.2-8.15-1.79,13.8-4.47,27.61-6,41.41,8.85,10.42,14.31,16.62,14.31,16.62Z" fill="#ffcf82"/><path d="M679.73,634.19l-17.42,25c.79,16.07,1.09,32.33,1.2,48.5l39.94-54.16C695.71,646.89,687.75,640.51,679.73,634.19Z" fill="#c47c4f"/><path d="M679.73,634.19c8,6.32,16,12.7,23.72,19.3l9.47-12.84a204.18,204.18,0,0,0-24.6-18.77Z" fill="#ffcf82"/><path d="M688.32,621.88a204.18,204.18,0,0,1,24.6,18.77L739,605.29c-8.8-6.29-16.46-14-25.12-20Z" fill="#c47c4f"/><path d="M721.74,574l-7.86,11.27c8.66,6,16.32,13.75,25.12,20l8.5-11.52C738.88,587,729.1,581.67,721.74,574Z" fill="#ffcf82"/><path d="M752.19,530.33l-7.1,10.19c10.35,4.38,17.73,13.54,26.31,20.84l8.72-11.82C772.42,540.83,760,539,752.19,530.33Z" fill="#ffcf82"/><path d="M767.12,508.94l-14.93,21.39c7.76,8.62,20.23,10.5,27.93,19.21L799,523.94C782.06,509.12,767.12,508.94,767.12,508.94Z" fill="#c47c4f"/><path d="M721.74,574c7.36,7.69,17.14,13,25.76,19.79l23.9-32.41c-8.58-7.3-16-16.46-26.31-20.84Z" fill="#c47c4f"/><rect width="1259.23" height="2194.12" fill="none"/></g></g></g></svg>