<svg xmlns="http://www.w3.org/2000/svg" width="1259.23" height="2194.12" viewBox="0 0 1259.23 2194.12"><defs><style>.a{fill:#914848;}.b{fill:none;}</style></defs><title>3_men_beard_8_8</title><path class="a" d="M687.09,443.63c-2.82-.09-5.63-.09-8.45,0-4.87.08-14.19-1.15-15.42-11.6a1.36,1.36,0,0,0-2.13-.84c-6.27,4.42-12.35,4.51-18.68,0a1.37,1.37,0,0,0-2.14.84c-1.17,9.95-9.68,11.54-14.7,11.59-3.75.05-7.5.23-11.24.5-89.68,6.58-105.05-70.35-107.36-81.26,1.16,16.59,1.28,43.12,4.85,53.35,18.58,53.28,133.3,53,138.71,52.09a1.22,1.22,0,0,0,.44,0c5.41.89,118.13.19,136.71-53.09,3.57-10.23,2.69-35.76,3.85-52.35C791.53,362.83,779.71,446.54,687.09,443.63Z"/><path class="a" d="M594.86,384.85c13.75-11.83,59-43.51,109.69-.73,1.08.92.39,3.1-.87,2.75-14.45-4-53.56-11.94-108,.71C594.47,387.87,593.81,385.76,594.86,384.85Z"/><rect class="b" width="1259.23" height="2194.12"/></svg>