<svg xmlns="http://www.w3.org/2000/svg" width="1259.23" height="2194.12" viewBox="0 0 1259.23 2194.12"><title>3_men_pants_9</title><g id="Layer_2" data-name="Layer 2"><g id="Layer_141" data-name="Layer 141"><g id="_3_men_pants_9" data-name="3_men_pants_9"><path d="M844.24,1202.38C825.7,1076.33,796.45,1033,796.45,1033a350.47,350.47,0,0,1-40.75,9.8c7.26,33.1,12.47,66.69,18.77,99.89C797.87,1162.56,822.06,1181.34,844.24,1202.38Z" fill="#7d7d7d"/><path d="M570.27,1043.89c-22.39-2.94-38.09-6-43.27-7.08-19.14,35.41-34,84.86-45.43,139.2q-1.85,8.79-3.58,17.75c22.32-19.15,45.29-37.85,69.64-54A694.32,694.32,0,0,1,570.27,1043.89Z" fill="#7d7d7d"/><path d="M774.47,1142.65c-6.3-33.2-11.51-66.79-18.77-99.89-68.47,12.4-140.47,7-185.43,1.13a694.32,694.32,0,0,0-22.64,95.91l-2.46,1.66c-17.33,137.73-56.48,304.91-53.23,443.42,35.8,3,112.92,6.1,141.88,0,38.12-152.47,26.47-360,26.47-360l8.47,2.12c-5.29,94.24,25.42,338.82,28.59,353.65.12.55,65.65,8.47,134.18-9.12-10.3-137.78-40-286.79-51.81-424.46Z" fill="#333"/><path d="M844.24,1202.38c-20.52-19.47-42.77-37-64.52-55.31,11.78,137.67,41.51,286.68,51.81,424.46,26.76.65,43.78-2.6,63.29-5.71C873.12,1360.41,856.07,1282.85,844.24,1202.38Z" fill="#fff"/><path d="M545.17,1141.46c-23.43,15.72-45.61,33.8-67.18,52.3-27.68,143-56.71,344.56-54.21,381.83,30,13.53,42.75,7.17,68.16,9.29C488.69,1446.37,527.84,1279.19,545.17,1141.46Z" fill="#fff"/><path d="M870.91,836.17c-.06-.14-.12-.27-.19-.41l-.72.18Z" fill="#fff7c8"/><rect x="644.18" y="1073.88" width="37.41" height="140.47" fill="#1f1d17"/><path d="M840.57,1179.25C822.09,1071,796.45,1033,796.45,1033c-8.88,2.73-17.94,5.08-27.1,7.08,5.16,32.25,12.64,63.57,18.16,95.68C803.9,1151.74,822.13,1165.83,840.57,1179.25Z" fill="#333"/><path d="M559.2,1042.35c-16.47-2.41-27.92-4.66-32.2-5.54-19.17,35.48-35.91,84.53-45.43,139.2,16.08-16.11,38.92-28.28,56.31-43.46C542.15,1102.09,550.08,1072,559.2,1042.35Z" fill="#333"/><path d="M568.14,1043.6c-3.39,13.33-6.2,26.66-8.62,40q8.31,1.5,17.46,2.84c1.43-13.81,3-27.65,6.16-41C577.85,1044.86,572.84,1044.23,568.14,1043.6Z" fill="#fff"/><path d="M632.91,1049.5c-18.21-.86-35-2.36-49.77-4-3.16,13.32-4.73,27.16-6.16,41,16.17,2.35,34.23,4.23,53.84,5.11A360.1,360.1,0,0,1,632.91,1049.5Z" fill="#fff"/><path d="M527,1036.81a276.53,276.53,0,0,0-15.79,35.55,474.25,474.25,0,0,0,48.31,11.23c2.42-13.33,5.23-26.66,8.62-40C546.89,1040.75,532,1037.84,527,1036.81Z" fill="#fff"/><path d="M632.91,1049.5a360.1,360.1,0,0,0-2.09,42,535.28,535.28,0,0,0,62.64-.85c-.8-13.66-1.93-27.34-4-40.9C669.81,1050.58,650.71,1050.35,632.91,1049.5Z" fill="#fff"/><path d="M689.43,1049.79c2.1,13.56,3.23,27.24,4,40.9a521.56,521.56,0,0,0,58.24-7.55c-1-13.06-2.37-26.24-2.9-39.19A493.3,493.3,0,0,1,689.43,1049.79Z" fill="#fff"/><path d="M748.8,1044c.53,13,2,26.13,2.9,39.19q8.71-1.65,17.58-3.64a308,308,0,0,0-4.67-38.47Q756.75,1042.65,748.8,1044Z" fill="#fff"/><path d="M796.45,1033c-10.41,3.21-21.06,5.86-31.84,8.07a308,308,0,0,1,4.67,38.47c14.14-3.18,28.55-7,43.16-11.72C803.28,1043.09,796.45,1033,796.45,1033Z" fill="#fff"/><path d="M677.59,1221.35c38.11-7.06,66.35-36.7,66.35-36.7-80.47,50.82-150.35,0-150.35,0,24.48,24.48,49.39,33.17,58.85,35.75-2.34,41.66-18.62,364.48-18.62,364.48,36.27-125.1,26.47-360,26.47-360l8.47,2.12c-3.48,62.07,6,252,28.59,353.65-9.5-55.74-11.29-266.12-20.22-359.3Z" fill="#1f1d17"/><path d="M870.72,835.76l-.72.18.91.23C870.85,836,870.79,835.9,870.72,835.76Z" fill="none"/><path d="M615,1222.61c-.44,9.38-.77,19.23-1,29.71a5,5,0,0,0,4.91,5.09H619a5,5,0,0,0,5-4.91c.19-10.73.53-20.78,1-30.35A53.66,53.66,0,0,0,615,1222.61Z" fill="#fff"/><path d="M643.23,1066a5,5,0,0,0-5.94,3.82c-11.7,54-19.51,93.74-22.33,152.79a53.66,53.66,0,0,1,10-.46c2.83-57.82,10.54-97.08,22.06-150.21A5,5,0,0,0,643.23,1066Z" fill="#7d7d7d"/><path d="M719.27,1223.67c.45,9.38.77,19.22,1,29.71a5,5,0,0,1-4.9,5.09h-.1a5,5,0,0,1-5-4.91c-.2-10.73-.54-20.78-1-30.35A52.79,52.79,0,0,1,719.27,1223.67Z" fill="#fff"/><path d="M691,1067.05a5,5,0,0,1,5.94,3.83c11.7,53.95,19.51,93.74,22.33,152.79a52.79,52.79,0,0,0-10-.46c-2.83-57.82-10.54-97.08-22.06-150.21A5,5,0,0,1,691,1067.05Z" fill="#7d7d7d"/><rect width="1259.23" height="2194.12" fill="none"/></g></g></g></svg>