<svg xmlns="http://www.w3.org/2000/svg" width="1259.23" height="2194.12" viewBox="0 0 1259.23 2194.12"><title>3_mouth_3</title><g id="Layer_2" data-name="Layer 2"><g id="Layer_141" data-name="Layer 141"><g id="_3_mouth_3" data-name="3_mouth_3"><path d="M696.29,370.31c-19.94-3.94-37.74-3.22-52.59-3.19-29.2.05-46.94,3.19-46.94,3.19C645.18,387.82,696.29,370.31,696.29,370.31Z" fill="#63280e" fill-opacity="0.7"/><path d="M643.84,409.16c32.29.52,52.45-38.85,52.45-38.85s-52.45,73.54-99.53,0C596.76,370.31,605.23,408.53,643.84,409.16Z" fill="#63280e" fill-opacity="0.7"/><path d="M606.27,383.15c28.14,32.45,56.8,18.57,74,4.07C655.9,390.93,630,389.82,606.27,383.15Z" fill="#cfc2b2"/><path d="M696.29,370.31s-51.11,17.51-99.53,0a111.57,111.57,0,0,0,9.51,12.84c23.71,6.67,49.63,7.78,74,4.07A104,104,0,0,0,696.29,370.31Z" fill="#fff"/><rect width="1259.23" height="2194.12" fill="none"/></g></g></g></svg>