<svg xmlns="http://www.w3.org/2000/svg" width="1259.23" height="2194.12" viewBox="0 0 1259.23 2194.12"><defs><style>.a{fill:#6b3535;}.b{fill:#542a2a;}.c{fill:#693333;}.d{fill:#914848;}.e{fill:none;}</style></defs><title>3_men_hair_8</title><path class="a" d="M832.59,266.35c22,33,20,75-10,100,16-8,33-13,46-25,.57-.57,1.12-1.15,1.66-1.74,5.85-22.21-.2-48-18-62.89-3.13-2.61-6.62-5-8.62-8.56-4.46-7.93.13-17.6,3.27-26.13,10.49-28.57-19.63-53.57-19.56-84,.22-94.23-71.43-131.64-118.4-134.12-45-2.38-56.54,15.76-64.08,18.25V42s-12.48-18.62-66.36-15.77C531.5,28.66,471.89,62.8,472.11,157c.07,30.43-30.05,55.43-19.56,84,3.14,8.53,7.73,18.2,3.27,26.13-2,3.55-5.49,5.95-8.62,8.56-14.44,12-21.14,31.26-20.07,49.94,10.21,22.88,30.61,40.6,58.46,43.69-28-23-41-60-29-95,9.47-24.12,30.09-42.3,54.81-47.51,18.11-38.46,55.74-84,133.89-91.49,90.18.43,126.11,63.6,140,104.93C803,244.7,821.05,250.2,832.59,266.35Z"/><path class="b" d="M868.59,341.35c-13,12-30,17-46,25,30-25,32-67,10-100-11.54-16.15-29.6-21.65-47.33-26.07,6.75,20.13,8.27,35.08,8.27,35.08,19.1-14,40,15.9,32.15,38.22C809.82,358.43,791,354.53,791,354.53c-3.76,50.07-13.12,72.26-26.9,80.15,7.25,11,45.49,9.85,58.3,6.92-11.92-9.22-15.87-27.33-8.87-40.68,8.09-15.42,26.61-21.68,39.73-33.13a56.1,56.1,0,0,0,17-28.18C869.71,340.2,869.16,340.78,868.59,341.35Z"/><path class="b" d="M456.59,274.35c-12,35,1,72,29,95-27.85-3.09-48.25-20.81-58.46-43.69.9,15.59,7.21,30.8,19,41.13,13.12,11.45,31.64,17.71,39.73,33.13,7,13.35,3.05,31.46-8.87,40.68,12.81,2.93,49.05,4,56.3-6.92-13.78-7.89-22.18-28.33-25.94-78.4,0,0-18.89-2.09-32.15-39.34-7.93-22.3,3.3-56,22-49,0,0,3.46-17.5,14.12-40.13C486.68,232.05,466.06,250.23,456.59,274.35Z"/><path class="c" d="M579.59,138.35c-4.58,9.17-4.75,18.54-3.69,28a52,52,0,0,1,1.09-8.13c13.47-23.67,36-24.71,67.57-22.93C625.72,117.92,591.9,114.68,579.59,138.35Z"/><path class="c" d="M494.59,240.35c-5,12-6,27,1,39a75.36,75.36,0,0,1-26.1-45.15c-2.87,44.88,30.93,90,75.35,98.6-15.91-13.6-30.63-30-36.11-50.18s.74-44.72,18.82-55.26c13-7.57,30.36-7.42,40.74-18.28a23.29,23.29,0,0,0,3.19-4.2,25.14,25.14,0,0,1-12.89,6.47C533.59,215.35,504.59,213.35,494.59,240.35Z"/><path class="d" d="M503.05,150.8c-1.07,12.74.54,26.9-7.3,37-3.86,5-9.53,8.18-13.9,12.69-7,7.17-10.22,17.19-11.67,27.07-.32,2.22-.55,4.43-.69,6.65a75.36,75.36,0,0,0,26.1,45.15c-7-12-6-27-1-39,10-27,39-25,64-29a25.14,25.14,0,0,0,12.89-6.47c6.32-10.64,3.57-25.07,4.42-38.51-1.06-9.48-.89-18.85,3.69-28,12.31-23.67,46.13-20.43,65-3l.73,0C589.7,12.53,506.69,107.43,503.05,150.8Z"/><path class="c" d="M710.91,138.44c4.58,9.17,4.75,18.54,3.69,28a52,52,0,0,0-1.09-8.13c-13.48-23.67-36-24.71-67.58-22.93C664.77,118,698.6,114.77,710.91,138.44Z"/><path class="c" d="M795.91,240.44c5,12,6,27-1,39A75.41,75.41,0,0,0,821,234.29c2.87,44.88-30.93,90-75.35,98.6,15.91-13.6,30.63-30,36.1-50.18S781,238,763,227.45c-13-7.57-30.36-7.42-40.75-18.28A23.22,23.22,0,0,1,719,205a25.1,25.1,0,0,0,12.89,6.47C756.91,215.44,785.91,213.44,795.91,240.44Z"/><path class="d" d="M787.45,150.89c1.07,12.74-.54,26.9,7.3,37,3.86,5,9.52,8.18,13.9,12.69,7,7.17,10.22,17.19,11.66,27.07q.5,3.31.7,6.65a75.41,75.41,0,0,1-26.1,45.15c7-12,6-27,1-39-10-27-39-25-64-29A25.1,25.1,0,0,1,719,205c-6.32-10.64-3.57-25.07-4.42-38.51,1.06-9.48.89-18.85-3.69-28-12.31-23.67-46.14-20.43-65-3l-.72,0C700.79,12.62,783.81,107.52,787.45,150.89Z"/><rect class="e" width="1259.23" height="2194.12"/></svg>