<svg xmlns="http://www.w3.org/2000/svg" width="1259.23" height="2194.12" viewBox="0 0 1259.23 2194.12"><defs><style>.a{fill:#692811;}.b{fill:none;}</style></defs><title>3_men_beard&amp;amp;mustache_2</title><path class="a" d="M749.5,418.06S732,392.65,717.82,386.29c0,0,3.72,31.13,2.62,34.31,4.95,8.77-35.45,18.26-50.81,18.64L651,429.87c-4.38,1.06-18.68,9.37-18.68,9.37-7,3-48.37-11.58-54.81-18.64-1.09-3.18,2.62-34.31,2.62-34.31-14.22,6.36-31.68,31.77-31.68,31.77a90.55,90.55,0,0,1-37.56-14.12s.69,38.39,66.06,45.2c0,0,44,6.55,72.05,5.69,28.09.86,72-5.69,72-5.69,65.38-6.81,67.06-45.2,67.06-45.2S771.18,415.32,749.5,418.06Z"/><rect class="b" width="1259.23" height="2194.12"/></svg>