<svg xmlns="http://www.w3.org/2000/svg" width="1259.23" height="2194.12" viewBox="0 0 1259.23 2194.12"><defs><style>.a{fill:#4f2525;}.b{fill:none;}</style></defs><title>3_men_beard&amp;amp;mustache_4</title><path class="a" d="M735.24,403.09a65.4,65.4,0,0,0-46.69-36.61c-9-1.81-18-3.43-23.61-4-1.84-.18-11.86,5.23-12.77,5.26-1.07,0-11.29-5.41-13.63-5.15-5.47.61-13.38,2-21.37,3.66a65.91,65.91,0,0,0-46.89,36.83l-.52,1.15a2.91,2.91,0,0,0,4.8,3.15l.42-.47a86.16,86.16,0,0,1,48.79-27c13.27-2.36,26.52-4.68,29-5,2.48.33,15.73,2.65,29,5a86.22,86.22,0,0,1,48.79,27l.42.47a2.91,2.91,0,0,0,4.8-3.15C735.6,403.86,735.42,403.48,735.24,403.09Z"/><rect class="b" width="1259.23" height="2194.12"/></svg>