<svg xmlns="http://www.w3.org/2000/svg" width="1259.23" height="2194.12" viewBox="0 0 1259.23 2194.12"><defs><style>.a{fill:#9c5d13;}.b{fill:#bf7217;}.c{fill:#d17d19;}.d{fill:none;}.e{fill:#e8a41c;}</style></defs><title>3_men_hair_5</title><path class="a" d="M795.59,218.35c-19.74-46-56.24-92.08-107-103.28l-12.36,19.22s103.1,4.28,118.08,140.64c0,0,9.15-9,17.62-6.57A376.17,376.17,0,0,0,815.46,215,34.66,34.66,0,0,1,795.59,218.35Z"/><path class="b" d="M718.87,67.94l-30.32,47.13c50.8,11.2,87.3,57.24,107,103.28A34.66,34.66,0,0,0,815.46,215C815.36,155.64,801.28,67.94,718.87,67.94Z"/><path class="b" d="M506.59,210.35c22.52-43.24,61.29-78.36,106-91.48L579.88,67.94c-78.76,0-95.11,80.09-96.49,139C492.49,212.35,503.56,215.66,506.59,210.35Z"/><path class="a" d="M506.59,210.35c-3,5.31-14.1,2-23.2-3.4a381.3,381.3,0,0,0,3.46,61.41c8.48-2.44,17.62,6.57,17.62,6.57,15-136.36,118.08-140.64,118.08-140.64l-9.92-15.42C567.88,132,529.11,167.11,506.59,210.35Z"/><path class="a" d="M624,141.46c15.65-9.89,25.54-26.36,34.6-42-46.28,29.52-106.47,52.86-161.1,33.34,13.66,11.53,65.3,24.41,117.15-1.57-9.28,6.54-24.61,29.76-35.79,34.33,20.55,2.35,119.25-5.92,144.22-92-1.32-2.25-2.72-4.41-4.2-6.5C701.16,103.38,661.29,129.69,624,141.46Z"/><path class="c" d="M658.62,99.45c-9.06,15.65-19,32.12-34.6,42,37.27-11.77,77.14-38.08,94.88-74.39-11.27-15.82-27.45-26.6-51.9-30.42-50.3-7.85-129.76,25.4-157.41,21.41C520,76.29,532.71,85.21,558.17,90.44a162.4,162.4,0,0,1-61.29.19c12.11,13.58,31.23,23.51,52.4,27.24a250.93,250.93,0,0,1-52.14,14.6l.38.32C552.15,152.31,612.34,129,658.62,99.45Z"/><rect class="d" width="1259.23" height="2194.12"/><path class="e" d="M607,45.35s4.23,24,35.29,52.24a138,138,0,0,1-66.35-43.77Z"/></svg>