<svg xmlns="http://www.w3.org/2000/svg" width="1259.23" height="2194.12" viewBox="0 0 1259.23 2194.12"><title>3_men_shrit_8</title><g id="Layer_2" data-name="Layer 2"><g id="Layer_141" data-name="Layer 141"><g id="_3_men_shrit_8" data-name="3_men_shrit_8"><path d="M1008.57,780.9c-17-52.83-35.92-84.72-35.92-84.72,9.88-83.3-45.18-135.53-64.95-144S799,523.94,799,523.94l-82.59-41.65-57.18,42.36-54.35-38.12-98.12,41.65-39.53,7.06c-45.17,1.41-63.53,7-63.53,7C335.94,560.65,304.88,651,297.82,658.06c-1.89,1.89-8,5.92-15.81,10.8,7.34,37.2,37.54,93.83,77.92,123,43.53-23.63,88.95-54.77,88.95-54.77,7.06,45.17,31.82,81,31.82,81s59.95,165.17,58.53,170.82c-1.19,4.77-8.21,37.74-12.23,47.87,17.7,3.65,157.6,30.6,269.45-3.85-4.23-10.67-12.87-42.68-14-47.37-1.41-5.65,57.53-170.83,57.53-170.83,9.88-12.7,16.94-16.94,16.94-16.94,2.8,11.81,7.85,25,14,38.35l-.91-.23S960.63,813.21,1008.57,780.9Z" fill="#384490"/><path d="M475.7,756.88c14.12,12.71,52.24,21.18,52.24,21.18-79.06-40.94-105-120-104.47-115.77a222.37,222.37,0,0,0,14.12,53.65,354.25,354.25,0,0,1-84.43,70.71c2.23,1.82,4.48,3.58,6.77,5.24,43.53-23.63,88.95-54.77,88.95-54.77.21,1.35.44,2.69.68,4,.08.44.17.88.25,1.31.17.9.34,1.79.53,2.68.09.49.2,1,.31,1.45.18.85.36,1.69.55,2.53.1.45.21.9.32,1.35.21.88.42,1.76.64,2.64l.28,1.09c.26,1,.52,2,.8,3,.05.21.11.42.17.63a222.84,222.84,0,0,0,27.29,60.32A388.79,388.79,0,0,1,475.7,756.88Z" fill="#283066"/><path d="M883.45,832.3c-17.31-52.18-14.57-92.36-14.57-92.36,16.94-19.06,19.06-65.65,19.06-65.65-27.53,76.24-97.41,105.89-97.41,105.89C811.7,782.29,843.47,759,843.47,759l-24,110c11.28-30.13,20.47-54.26,20.47-54.26,9.88-12.7,16.94-16.94,16.94-16.94.32,1.36.68,2.74,1.06,4.12,0,.2.1.39.16.59.36,1.32.76,2.67,1.18,4,.07.24.15.48.22.72.43,1.36.88,2.73,1.35,4.12l.21.61c.5,1.45,1,2.91,1.56,4.39l0,.06c.56,1.5,1.15,3,1.75,4.54l.16.42q.88,2.22,1.82,4.46c.09.2.18.41.26.61q.95,2.24,1.93,4.48c.08.17.16.34.23.52.63,1.42,1.28,2.84,1.93,4.27C872.39,835.33,876.91,834.15,883.45,832.3Z" fill="#283066"/><path d="M353.16,786.65h0c1.1.91,2.21,1.8,3.33,2.66s2.28,1.74,3.43,2.58c1.63-.88,3.26-1.78,4.89-2.68l.4-.22q2.44-1.35,4.87-2.72h0q2.46-1.38,4.9-2.78l.35-.21c1.62-.92,3.24-1.86,4.84-2.79h0q-3.9-3.12-7.65-6.41Q362.9,780.74,353.16,786.65Z" fill="#969696"/><path d="M871.3,835.61l.36-.1.15,0,.41-.11.27-.07.53-.14.63-.17.14,0,.62-.16.15,0,3.37-.91h0c1.62-.44,3.47-1,5.51-1.53-2.19-6.6-4.06-13-5.65-19.17-5.75,1.77-10.75,3.25-14.74,4.4,2.24,6,4.83,12.07,7.66,18.23l.38-.1Z" fill="#969696"/><path d="M870,835.94l.91.23c-.06-.14-.12-.27-.19-.41Z" fill="#8c4e39"/><path d="M539.23,988.94c-1.19,4.77-8.21,37.74-12.23,47.87,17.7,3.65,157.6,30.6,269.45-3.85-4.23-10.67-12.87-42.68-14-47.37-.83-3.33,20.39-68.9,37.06-116.57,11.62-33.25,20.47-54.26,20.47-54.26-137.71-30.16-226.33-31.19-359.24,3.36C480.7,818.12,540.65,983.29,539.23,988.94Z" fill="#fff"/><path d="M842.47,811.81c1.11-1.29,2.18-2.6,3.25-3.92-1.78,2-3.71,4.22-5.78,6.87Z" fill="#8c4e39"/><path d="M449.79,742.31c.16.85.32,1.7.49,2.54-.16-.8-.32-1.6-.47-2.4Z" fill="#fff"/><path d="M492.2,754.56c65.24-15.49,200.78-39,347.16-7.8A195.7,195.7,0,0,0,861,723.11c-172.9-43.11-338.26-6.47-393.09,8.42A226,226,0,0,0,492.2,754.56Z" fill="#fff"/><path d="M451.93,752.16c-.14-.57-.28-1.13-.41-1.7C451.65,751,451.79,751.59,451.93,752.16Z" fill="#fff"/><path d="M452.76,755.38l-.3-1.12Z" fill="#fff"/><path d="M450.62,746.48c.15.7.31,1.4.46,2.1-.15-.67-.29-1.33-.43-2Z" fill="#fff"/><path d="M449.54,741q-.35-1.93-.66-3.9Q449.19,739.08,449.54,741Z" fill="#fff"/><path d="M475.7,756.88v1.79l1.63-.43C476.76,757.79,476.21,757.34,475.7,756.88Z" fill="#fff"/><path d="M457.87,771.78l-.12-.32Z" fill="#8c2929"/><path d="M456.55,768Z" fill="#8c2929"/><path d="M813,775.88q12.81,2.21,25.7,4.93L843.47,759S829,769.63,813,775.88Z" fill="#8c2929"/><path d="M492.2,754.56a208.73,208.73,0,0,0,35.74,23.5s-35.4-7.87-50.61-19.82l-1.63.43c0,4.14.16,15.24,1.37,29.7,60.42-13.8,188-35.59,325.2-14.24a204.83,204.83,0,0,0,37.09-27.37C693,715.6,557.44,739.07,492.2,754.56Z" fill="#8c2929"/><path d="M459.13,775.2,459,775Z" fill="#8c2929"/><path d="M842.38,811.74l-.78.94Z" fill="#384490"/><path d="M844.16,809.64l-1,1.2Z" fill="#384490"/><path d="M845.72,807.89c-.4.43-.8.88-1.2,1.34C844.92,808.77,845.33,808.32,845.72,807.89Z" fill="#384490"/><path d="M480.7,818.12l0,0Z" fill="#384490"/><path d="M480.45,817.74l-.1-.15Z" fill="#384490"/><path d="M479.77,816.72l-.06-.1Z" fill="#384490"/><path d="M480.63,818l-.09-.13Z" fill="#384490"/><path d="M813,775.88c-7.64,3-15.62,5-22.48,4.3a125.93,125.93,0,0,0,11.74-6c-137.18-21.35-264.78.44-325.2,14.24.74,8.92,1.88,19.12,3.63,29.75,133.86-23.36,213.77-28.9,350.93-4.84l7.08-32.47Q825.83,778.08,813,775.88Z" fill="#384490"/><path d="M452.76,755.38c.16.6.31,1.2.48,1.79.05.21.11.42.17.63q1.47,5.25,3.14,10.18c-.41-1.22-.81-2.45-1.21-3.7C454.43,761.39,453.56,758.41,452.76,755.38Z" fill="#2c3570"/><path d="M459,775c-.4-1-.79-2.11-1.17-3.18C458.25,772.85,458.64,773.92,459,775Z" fill="#2c3570"/><path d="M457.75,771.46c-.4-1.15-.8-2.3-1.2-3.48C457,769.16,457.35,770.31,457.75,771.46Z" fill="#2c3570"/><path d="M423.47,662.29a222.37,222.37,0,0,0,14.12,53.65,354.25,354.25,0,0,1-84.43,70.71c2.23,1.82,4.48,3.58,6.77,5.24,43.53-23.63,88.95-54.77,88.95-54.77s6.74-2.25,19.05-5.59C435.09,695.39,423.08,659.43,423.47,662.29Z" fill="#2c3570"/><path d="M480.68,818.08l-.05-.07Z" fill="#2c3570"/><path d="M480.54,817.88l-.09-.14Z" fill="#2c3570"/><path d="M459.13,775.2a225.32,225.32,0,0,0,20.58,41.42A214.47,214.47,0,0,1,465.77,791C463.55,786.24,461.28,780.93,459.13,775.2Z" fill="#2c3570"/><path d="M480.35,817.59l-.58-.87Z" fill="#2c3570"/><path d="M450.34,745.13c.09.45.19.9.28,1.35-.11-.54-.23-1.08-.34-1.63Z" fill="#2c3570"/><path d="M451.2,749.11c.1.45.21.9.32,1.35h0c-.15-.62-.29-1.25-.44-1.88Z" fill="#2c3570"/><path d="M452.16,753.1l.28,1.09,0,.07c-.18-.7-.35-1.4-.53-2.1C452,752.47,452.08,752.79,452.16,753.1Z" fill="#2c3570"/><path d="M449.56,741.14c.07.39.15.78.23,1.17-.09-.43-.17-.86-.25-1.29A.5.5,0,0,1,449.56,741.14Z" fill="#2c3570"/><path d="M475.7,758.67v-1.79c.51.46,1.06.91,1.63,1.36q6.68-1.72,14.87-3.68a226,226,0,0,1-24.27-23c-12.31,3.34-19.05,5.59-19.05,5.59q.31,2,.66,3.9c.08.43.16.86.25,1.29l0,.14c.15.8.31,1.6.47,2.4.11.55.23,1.09.34,1.63l0,.1c.14.67.28,1.33.43,2s.29,1.26.44,1.88.27,1.13.41,1.7.35,1.4.53,2.1l.3,1.12c.8,3,1.67,6,2.58,8.9C459.3,763.14,466.22,761.14,475.7,758.67Z" fill="#c4c4c4"/><path d="M492.2,754.56q-8.19,2-14.87,3.68c15.21,12,50.61,19.82,50.61,19.82A208.73,208.73,0,0,1,492.2,754.56Z" fill="#6e2020"/><path d="M477.07,788.37c-1.21-14.46-1.36-25.56-1.37-29.7-9.48,2.47-16.4,4.47-20.36,5.61.4,1.25.8,2.48,1.21,3.7h0c.4,1.18.8,2.33,1.2,3.48l.12.32c.38,1.07.77,2.14,1.17,3.18l.09.24c2.15,5.73,4.42,11,6.64,15.83C469.22,790.19,473,789.29,477.07,788.37Z" fill="#6e2020"/><path d="M465.77,791a214.47,214.47,0,0,0,13.94,25.59l.06.1.58.87.1.15.09.14.09.13.05.07,0,0c-1.75-10.63-2.89-20.83-3.63-29.75C473,789.29,469.22,790.19,465.77,791Z" fill="#2c3570"/><path d="M868.88,739.94c16.94-19.06,19.06-65.65,19.06-65.65A178.88,178.88,0,0,1,861,723.11q3.93,1,7.86,2s-4.09,11.35-8.47,26.47c-2.79,9.61,4.26,22.59-1.25,33.89a142.54,142.54,0,0,1-13.44,22.41h0c6.73-7.4,11.16-10.07,11.16-10.07,3,12.62,8.45,26.22,13.84,37.94,1.67-.43,6.19-1.61,12.73-3.46C866.14,780.12,868.88,739.94,868.88,739.94Z" fill="#2c3570"/><path d="M841.6,812.68c-.55.67-1.1,1.36-1.66,2.08C840.5,814,841.05,813.35,841.6,812.68Z" fill="#2c3570"/><path d="M844.52,809.23l-.36.41Z" fill="#2c3570"/><path d="M843.13,810.84q-.37.43-.75.9Q842.76,811.27,843.13,810.84Z" fill="#2c3570"/><path d="M819.47,869c11.28-30.13,20.47-54.26,20.47-54.26l-8.31-1.48Z" fill="#2c3570"/><path d="M839.36,746.76q10.5,2.22,21,4.83c4.38-15.12,8.47-26.47,8.47-26.47q-3.93-1-7.86-2A195.7,195.7,0,0,1,839.36,746.76Z" fill="#c4c4c4"/><path d="M802.27,774.13q5.37.82,10.74,1.75c16-6.25,30.46-16.88,30.46-16.88l-4.76,21.81c6.81,1.44,8.52.51,15.35,2.19,5.51-11.3,3.56-21.8,6.35-31.41q-10.56-2.62-21-4.83A204.83,204.83,0,0,1,802.27,774.13Z" fill="#6e2020"/><path d="M790.53,780.18c6.86.68,14.84-1.31,22.48-4.3q-5.37-.93-10.74-1.75A125.93,125.93,0,0,1,790.53,780.18Z" fill="#2c3570"/><path d="M859.16,785.48q-10.23-2.52-20.45-4.67l-7.08,32.47,8.31,1.48c.56-.72,1.11-1.41,1.66-2.08l.78-.94q.38-.47.75-.9l1-1.2.36-.41c.4-.46.8-.91,1.2-1.34h0A142.54,142.54,0,0,0,859.16,785.48Z" fill="#2c3570"/><path d="M300.22,654.42a18.06,18.06,0,0,1-2.4,3.64c-1.89,1.89-8,5.92-15.81,10.8,6.92,35.09,34.19,87.45,71.15,117.79q9.72-5.89,19.37-12.58C337.13,743,312.5,699.72,300.22,654.42Z" fill="#2f3245"/><path d="M877.94,833.83c23.1-6.32,91.25-26.39,130.63-52.93-2.49-7.78-5-15.09-7.55-21.92-34.8,24.61-90.89,44.16-123.22,54.15,1.59,6.16,3.46,12.57,5.65,19.17C881.41,832.88,879.56,833.39,877.94,833.83Z" fill="#2f3245"/><path d="M353.16,786.65h0c1.1.91,2.21,1.8,3.33,2.66s2.28,1.74,3.43,2.58c1.63-.88,3.26-1.78,4.89-2.68l.4-.22q2.44-1.35,4.87-2.72h0q2.46-1.38,4.9-2.78l.35-.21c1.62-.92,3.24-1.86,4.84-2.79h0q-3.9-3.12-7.65-6.41Q362.9,780.74,353.16,786.65Z" fill="#212330"/><path d="M871.3,835.61l.36-.1.15,0,.41-.11.27-.07.53-.14.63-.17.14,0,.62-.16.15,0,3.37-.91h0c1.62-.44,3.47-1,5.51-1.53-2.19-6.6-4.06-13-5.65-19.17-5.75,1.77-10.75,3.25-14.74,4.4,2.24,6,4.83,12.07,7.66,18.23l.38-.1Z" fill="#212330"/><path d="M523.7,532.41c46.59,27.53,135.53,18.83,135.53,18.83V524.65l-60-22.59Z" fill="#2c3570"/><path d="M659.23,551.24c52.94,4.23,118.59-21.18,118.59-21.18l-60-35.3-40.59,32.36-18-2.47Z" fill="#2c3570"/><path d="M658.53,631.59h0a14.83,14.83,0,0,1-14.83-14.83V525.12h29.65v91.64A14.83,14.83,0,0,1,658.53,631.59Z" fill="#212330"/><circle cx="659.23" cy="565" r="8.47" fill="#fff"/><circle cx="657.82" cy="616.24" r="8.47" fill="#fff"/><path d="M732.59,507.35c1.72-9.47-9.9-16-18.91-23.35-5.89,5.89-26.78,25.77-54.45,40.65l26.47,42.7s4.16-2,10.73-5.66C713.57,547.39,727.58,530.51,732.59,507.35Z" fill="#2f3245"/><path d="M765.12,505.94l-28.59-31.76a76.45,76.45,0,0,0-21.18-1.06v9.17s-.58.62-1.67,1.71c9,7.37,20.63,13.88,18.91,23.35-5,23.16-19,40-36.16,54.34C713.3,552.28,746.06,531.85,765.12,505.94Z" fill="#212330"/><path d="M588,509.47c-1.72-9.47,9.9-16,18.91-23.35a232.19,232.19,0,0,0,52.32,38.53l-24.35,44.82s-4.16-2-10.72-5.66C607,549.51,593,532.62,588,509.47Z" fill="#2f3245"/><path d="M555.47,508.06l28.59-31.77a76.65,76.65,0,0,1,21.17-1.05v9.17s.58.61,1.68,1.71c-9,7.37-20.63,13.88-18.91,23.35,5,23.15,19,40,36.16,54.34C607.29,554.4,574.52,534,555.47,508.06Z" fill="#212330"/><path d="M870,835.94l.91.23c-.06-.14-.12-.27-.19-.41Z" fill="none"/><path d="M937.68,708.59q2.54,9.28,5.06,18.56c14.33-3.37,28.12-5.32,40.79-9.94-5.3-11.15-9.22-18.14-10.46-20.3C961.55,701.68,949.89,706,937.68,708.59Z" fill="#fff"/><path d="M972.65,696.18c.65-5.5,1-10.85,1.12-16.07-13.49,4.08-26.92,8.28-40.43,12.54q2.16,8,4.34,15.94c12.21-2.63,23.87-6.91,35.39-11.68C972.8,696.43,972.65,696.18,972.65,696.18Z" fill="#8c2929"/><path d="M933.34,692.65c13.51-4.26,26.94-8.46,40.43-12.54a157.77,157.77,0,0,0-.83-20.27l-45.43,11.42Q930.42,682,933.34,692.65Z" fill="#fff"/><rect width="1259.23" height="2194.12" fill="none"/></g></g></g></svg>