<svg xmlns="http://www.w3.org/2000/svg" width="1259.23" height="2194.12" viewBox="0 0 1259.23 2194.12"><title>3_men_shrit_6</title><g id="Layer_2" data-name="Layer 2"><g id="Layer_141" data-name="Layer 141"><g id="_3_men_shrit_6" data-name="3_men_shrit_6"><path d="M424.5,667.25c6.51,18.65,13.92,37,21.09,55.1a45.78,45.78,0,0,1,2.94,15l.35-.24c7.06,45.17,31.82,81,31.82,81s59.95,165.17,58.53,170.82c-1.19,4.77-8.21,37.74-12.23,47.87,17.7,3.65,157.6,30.6,269.45-3.85-4.23-10.67-12.87-42.68-14-47.37-1.41-5.65,57.53-170.83,57.53-170.83,8.22-10.57,14.48-15.26,16.35-16.55.23-21.46,0-43.07,8.3-61.86,8.67-20.53,17.12-40.91,23.35-62.06.66-2.23,1.29-4.48,1.91-6.73C717.57,635.75,493.92,658.75,424.5,667.25Z" fill="#969696"/><path d="M911.19,553.93a33.42,33.42,0,0,0-3.49-1.75C887.94,543.71,799,523.94,799,523.94l-82.59-41.65-7.76,37.42-49.42,4.94-40.94,3.53-13.41-41.65-98.12,41.65-39.53,7.06c-34.33,1.07-53.16,4.59-60.23,6.21-6.68,42.68,3.22,84.86,17.5,125.8,69.42-8.5,293.07-31.5,465.35.31,6.36-23.1,10.78-46.94,15.74-71.21A348.83,348.83,0,0,0,911.19,553.93Z" fill="#fff"/><path d="M870,835.94l.91.23c-.06-.14-.12-.27-.19-.41Z" fill="#8c4e39"/><path d="M972.65,696.18c9.35-78.82-39.44-129.82-61.46-142.25a348.83,348.83,0,0,1-5.6,42.42c-10,49-22,95-41,140-8.27,18.79-8.07,40.4-8.3,61.86l.59-.39c2.77,11.69,7.75,24.71,13.84,37.94,8.57-2.2,92.39-24.22,137.85-54.86C991.6,728.07,972.65,696.18,972.65,696.18Z" fill="#969696"/><path d="M407,541.45c-2.23.52-3.3.84-3.3.84C335.94,560.65,304.88,651,297.82,658.06c-1.89,1.89-8,5.92-15.81,10.8,7.34,37.2,37.54,93.83,77.92,123,41.31-22.43,84.31-51.61,88.6-54.53a45.78,45.78,0,0,0-2.94-15C422.69,664.64,397.27,603.57,407,541.45Z" fill="#969696"/><path d="M475.7,756.88c14.12,12.71,52.24,21.18,52.24,21.18-79.06-40.94-105-120-104.47-115.77a222.37,222.37,0,0,0,14.12,53.65l-.15.17c2.93,7.59,5.2,15.55,7.71,23.53l3.73-2.52c.21,1.35.44,2.69.68,4,.08.44.17.88.25,1.31.17.9.34,1.79.53,2.68.09.49.2,1,.31,1.45.18.85.36,1.69.55,2.53.1.45.21.9.32,1.35.21.88.42,1.76.64,2.64l.28,1.09c.26,1,.52,2,.8,3,.05.21.11.42.17.63a222.84,222.84,0,0,0,27.29,60.32A388.79,388.79,0,0,1,475.7,756.88Z" fill="#757575"/><path d="M353.16,786.65c2.23,1.82,4.48,3.58,6.77,5.24,36.11-19.6,73.52-44.37,85.22-52.25-2.51-8-4.78-15.94-7.71-23.53A354.33,354.33,0,0,1,353.16,786.65Z" fill="#757575"/><path d="M868.8,741.76c0-1.2.08-1.82.08-1.82,16.94-19.06,19.06-65.65,19.06-65.65-27.53,76.24-97.41,105.89-97.41,105.89C811.7,782.29,843.47,759,843.47,759l-24,110c11.28-30.13,20.47-54.26,20.47-54.26a98.62,98.62,0,0,1,11.46-12.58c4.45-19.24,10.3-38.29,15.19-57.83A6.49,6.49,0,0,1,868.8,741.76Z" fill="#757575"/><path d="M868.8,741.76a6.49,6.49,0,0,0-2.21,2.59c-4.89,19.54-10.74,38.59-15.19,57.83a40.69,40.69,0,0,1,5.48-4.36c.32,1.36.68,2.74,1.06,4.12,0,.2.1.39.16.59.36,1.32.76,2.67,1.18,4,.07.24.15.48.22.72.43,1.36.88,2.73,1.35,4.12l.21.61c.5,1.45,1,2.91,1.56,4.39l0,.06c.56,1.5,1.15,3,1.75,4.54l.16.42q.88,2.22,1.82,4.46c.09.2.18.41.26.61q.95,2.24,1.93,4.48c.08.17.16.34.23.52.63,1.42,1.28,2.84,1.93,4.27,1.67-.43,6.19-1.61,12.73-3.46C868.3,786.62,868.51,750.13,868.8,741.76Z" fill="#757575"/><path d="M300.22,654.42a18.06,18.06,0,0,1-2.4,3.64c-1.89,1.89-8,5.92-15.81,10.8,6.92,35.09,34.19,87.45,71.15,117.79q9.72-5.89,19.37-12.58C337.13,743,312.5,699.72,300.22,654.42Z" fill="#424242"/><path d="M877.94,833.83c23.1-6.32,91.25-26.39,130.63-52.93-2.49-7.78-5-15.09-7.55-21.92-34.8,24.61-90.89,44.16-123.22,54.15,1.59,6.16,3.46,12.57,5.65,19.17C881.41,832.88,879.56,833.39,877.94,833.83Z" fill="#424242"/><path d="M353.16,786.65h0c1.1.91,2.21,1.8,3.33,2.66s2.28,1.74,3.43,2.58c1.63-.88,3.26-1.78,4.89-2.68l.4-.22q2.44-1.35,4.87-2.72h0q2.46-1.38,4.9-2.78l.35-.21c1.62-.92,3.24-1.86,4.84-2.79h0q-3.9-3.12-7.65-6.41Q362.9,780.74,353.16,786.65Z" fill="#262626"/><path d="M871.3,835.61l.36-.1.15,0,.41-.11.27-.07.53-.14.63-.17.14,0,.62-.16.15,0,3.37-.91h0c1.62-.44,3.47-1,5.51-1.53-2.19-6.6-4.06-13-5.65-19.17-5.75,1.77-10.75,3.25-14.74,4.4,2.24,6,4.83,12.07,7.66,18.23l.38-.1Z" fill="#262626"/><path d="M523.7,532.41c46.59,27.53,135.53,18.83,135.53,18.83V524.65l-60-22.59Z" fill="#969696"/><path d="M659.23,551.24c52.94,4.23,118.59-21.18,118.59-21.18l-60-35.3-40.59,32.36-18-2.47Z" fill="#969696"/><path d="M643.7,525.12h29.65a0,0,0,0,1,0,0V633.76a14.82,14.82,0,0,1-14.82,14.82h0a14.82,14.82,0,0,1-14.82-14.82V525.12A0,0,0,0,1,643.7,525.12Z" fill="#424242"/><circle cx="659.23" cy="565" r="8.47" fill="#fff"/><circle cx="657.82" cy="616.24" r="8.47" fill="#fff"/><path d="M732.59,507.35c1.72-9.47-9.9-16-18.91-23.35-5.89,5.89-26.78,25.77-54.45,40.65l26.47,42.7s4.16-2,10.73-5.66C713.57,547.39,727.58,530.51,732.59,507.35Z" fill="#424242"/><path d="M765.12,505.94l-28.59-31.76a76.45,76.45,0,0,0-21.18-1.06v9.17s-.58.62-1.67,1.71c9,7.37,20.63,13.88,18.91,23.35-5,23.16-19,40-36.16,54.34C713.3,552.28,746.06,531.85,765.12,505.94Z" fill="#262626"/><path d="M588,509.47c-1.72-9.47,9.9-16,18.91-23.35a232.19,232.19,0,0,0,52.32,38.53l-24.35,44.82s-4.16-2-10.72-5.66C607,549.51,593,532.62,588,509.47Z" fill="#424242"/><path d="M555.47,508.06l28.59-31.77a76.65,76.65,0,0,1,21.17-1.05v9.17s.58.61,1.68,1.71c-9,7.37-20.63,13.88-18.91,23.35,5,23.15,19,40,36.16,54.34C607.29,554.4,574.52,534,555.47,508.06Z" fill="#262626"/><polygon points="756.65 680.65 830.76 680.65 824.41 701.82 756.65 701.82 756.65 680.65" fill="#424242"/><polygon points="756.65 708.18 822.76 708.18 816.41 729.35 756.65 729.35 756.65 708.18" fill="#424242"/><rect width="1259.23" height="2194.12" fill="none"/></g></g></g></svg>