<svg xmlns="http://www.w3.org/2000/svg" width="1259.23" height="2194.12" viewBox="0 0 1259.23 2194.12"><title>3_nose_1</title><g id="Layer_2" data-name="Layer 2"><g id="Layer_141" data-name="Layer 141"><g id="_3_nose_1" data-name="3_nose_1"><path d="M671,340.89c-3.15-2.62-5.37-3.8-6.76-9.18a1.27,1.27,0,0,0-2.5.31c0,4.47.46,3.94,1.6,7.83.79,2.72-.27,8.23-2.65,9.78,0,0-15.11,13-28.2,0a8.88,8.88,0,0,1-2.64-9.78c1.18-3.87,1.61-3.36,1.6-7.83a1.27,1.27,0,0,0-2.5-.31c-1.39,5.38-3.61,6.56-6.77,9.18-5.92,4.94,1,16.79,9.88,14.82,0,0,2.88,5.4,14.25,6.52v.06a2.4,2.4,0,0,0,.28,0l.28,0v-.06c11.37-1.12,14.26-6.52,14.26-6.52C670,357.68,676.91,345.83,671,340.89Z" fill="#63280e" fill-opacity="0.7"/><rect width="1259.23" height="2194.12" fill="none"/></g></g></g></svg>