<svg xmlns="http://www.w3.org/2000/svg" width="1262.35" height="2194.12" viewBox="0 0 1262.35 2194.12"><defs><style>.a{fill:#3b2213;}.b{fill:none;}</style></defs><title>4_eyebrow_2</title><path class="a" d="M528.51,365.4c4.67-2.49,25.56-14.53,75.32-12.38a2.81,2.81,0,0,1,2.62,2.22l3.63,17.13a2.8,2.8,0,0,1-3.17,3.35c-12.65-2-52.4-7-79.92,4a2.79,2.79,0,0,1-3.62-3.67l3.87-9.3A2.84,2.84,0,0,1,528.51,365.4Z"/><path class="a" d="M747.37,365.4c-4.67-2.49-25.56-14.53-75.32-12.38a2.79,2.79,0,0,0-2.62,2.22l-3.64,17.13a2.8,2.8,0,0,0,3.17,3.35c12.66-2,52.41-7,79.92,4a2.8,2.8,0,0,0,3.63-3.67l-3.88-9.3A2.77,2.77,0,0,0,747.37,365.4Z"/><rect class="b" width="1262.35" height="2194.12"/></svg>