<svg xmlns="http://www.w3.org/2000/svg" width="1262.35" height="2194.12" viewBox="0 0 1262.35 2194.12"><defs><style>.a{fill:#542419;opacity:0.5;}.b{fill:#fff;}.c{fill:#1e515e;}.d{fill:#3b2213;}.e{fill:none;}</style></defs><title>4_eyes_8</title><path class="a" d="M523.65,408.05s14.41-22.11,37-22.11S612,418.68,612,418.68,558.65,396.28,523.65,408.05Z"/><path class="b" d="M523.65,408.05s8.86,37.74,88.33,10.63c0,0-39.59-25.67-84.3-10.82"/><path class="c" d="M545.4,403.91c-1.08,8.51,1,17.7,6.66,23.82,9.05,1.35,20.91,1,36.45-2.39a30.86,30.86,0,0,0,3.93-15.74C580.42,405.36,563.83,401.7,545.4,403.91Z"/><path class="d" d="M612,418.68s-49.31-39-88.33-10.63C523.65,408.05,585.39,411.47,612,418.68Z"/><path class="a" d="M755.1,408.05s-14.41-22.11-37-22.11-51.34,32.74-51.34,32.74S720.1,396.28,755.1,408.05Z"/><path class="b" d="M755.1,408.05s-8.86,37.74-88.33,10.63c0,0,39.59-25.67,84.31-10.82"/><path class="c" d="M733.35,403.91c1.09,8.51-1,17.7-6.66,23.82-9.05,1.35-20.91,1-36.45-2.39a30.86,30.86,0,0,1-3.93-15.74C698.33,405.36,714.92,401.7,733.35,403.91Z"/><path class="d" d="M666.77,418.68s49.31-39,88.33-10.63C755.1,408.05,693.36,411.47,666.77,418.68Z"/><rect class="e" width="1262.35" height="2194.12"/></svg>