<svg xmlns="http://www.w3.org/2000/svg" xmlns:xlink="http://www.w3.org/1999/xlink" width="1262.35" height="2194.12" viewBox="0 0 1262.35 2194.12"><defs><style>.a{fill:none;}.b{fill:#fff;}.c{clip-path:url(#a);}.d{fill:#49662e;}.e{fill:#3b2213;}.f{clip-path:url(#b);}</style><clipPath id="a"><path class="a" d="M539,425.7s7.59,5.07,15.19,5.7c4,.33,16-.37,26.61-1.12a39.63,39.63,0,0,0,29.08-16h0s-54.43-36.08-76.58-19C533.26,395.32,529.46,414.31,539,425.7Z"/></clipPath><clipPath id="b"><path class="a" d="M740.45,425.7s-7.59,5.07-15.19,5.7c-4,.33-16-.37-26.61-1.12a39.63,39.63,0,0,1-29.08-16h0s54.43-36.08,76.58-19C746.15,395.32,750,414.31,740.45,425.7Z"/></clipPath></defs><title>4_eyes_5</title><path class="b" d="M539,425.7s7.59,5.07,15.19,5.7c4,.33,16-.37,26.61-1.12a39.63,39.63,0,0,0,29.08-16h0s-54.43-36.08-76.58-19C533.26,395.32,529.46,414.31,539,425.7Z"/><g class="c"><circle class="d" cx="571.08" cy="412.74" r="22.44"/></g><path class="e" d="M609.84,414.31s-3.16-17.09-36.65-24.29c-13.41-2.89-30.65-3.48-52.59,3.4,0,0,6.33,26.59,18.36,32.28,0,0-7.6-13.92-4.43-22.15C534.53,403.55,578.2,387.09,609.84,414.31Z"/><path class="b" d="M740.45,425.7s-7.59,5.07-15.19,5.7c-4,.33-16-.37-26.61-1.12a39.63,39.63,0,0,1-29.08-16h0a39.5,39.5,0,0,1,11.73-9.54c17.47-9.52,49.45-21.33,64.85-9.45C746.15,395.32,750,414.31,740.45,425.7Z"/><g class="f"><circle class="d" cx="708.68" cy="411.33" r="24.32"/></g><path class="e" d="M669.57,414.31s3.16-17.09,36.65-24.29c13.41-2.89,30.65-3.48,52.59,3.4,0,0-6.33,26.59-18.36,32.28,0,0,7.6-13.92,4.43-22.15C744.88,403.55,701.21,387.09,669.57,414.31Z"/><rect class="a" width="1262.35" height="2194.12"/></svg>