<svg xmlns="http://www.w3.org/2000/svg" width="1262.35" height="2194.12" viewBox="0 0 1262.35 2194.12"><defs><style>.a{fill:#fff;}.b{fill:#003b68;}.c{fill:#3b2213;}.d{fill:none;}</style></defs><title>4_eyes_10</title><path class="a" d="M530.47,412.41h0a59.53,59.53,0,0,0,41.91,19.12l19.9,0a14.25,14.25,0,0,0,14.16-13l1.68-18.8S577.06,382.76,530.47,412.41Z"/><path class="b" d="M548.78,402.73a25.64,25.64,0,0,0-.13,2.64,26.11,26.11,0,1,0,49.68-11.22C582,391.52,563.7,398,548.78,402.73Z"/><path class="c" d="M610.23,401.82s-9.16-16.61-19.06-16.17c-31.76,1.41-56.47,12.64-65.64,30.29C525.53,415.94,575.65,394.06,610.23,401.82Z"/><path class="a" d="M749.87,412.41h0A59.53,59.53,0,0,1,708,431.53l-19.9,0a14.26,14.26,0,0,1-14.17-13l-1.67-18.8S703.28,382.76,749.87,412.41Z"/><path class="b" d="M731.56,402.73c.08.87.13,1.75.13,2.64A26.11,26.11,0,1,1,682,394.15C698.39,391.52,716.63,398,731.56,402.73Z"/><path class="c" d="M670.1,401.82s9.16-16.61,19.06-16.17c31.77,1.41,56.47,12.64,65.65,30.29C754.81,415.94,704.69,394.06,670.1,401.82Z"/><rect class="d" width="1262.35" height="2194.12"/></svg>