<svg xmlns="http://www.w3.org/2000/svg" width="1262.35" height="2194.12" viewBox="0 0 1262.35 2194.12"><defs><style>.a{fill:#542419;opacity:0.5;}.b{fill:#fff;}.c{fill:#5e361e;}.d{fill:#3b2213;}.e{fill:none;}</style></defs><title>4_eyes_3</title><path class="a" d="M525.12,410.06s15.53,36.23,65.88,17.41l-32-33.41Z"/><path class="b" d="M535,405.82s.77,27.92,44.7,24.47c24-1.88,25.89-26.35,25.89-26.35l-26.83-11.76Z"/><path class="c" d="M552.76,400.28a22.59,22.59,0,0,0,2.37,28c6.14,1.93,14.14,2.88,24.57,2.06a30.2,30.2,0,0,0,7.95-1.65,22.56,22.56,0,0,0-1.71-33.31l-7.18-3.15Z"/><path class="d" d="M612.18,406.29S583.43,386.18,577.35,387c-39.53,5.35-52.23,23.06-52.23,23.06s41.41-13.18,51.76-12.24S612.18,406.29,612.18,406.29Z"/><path class="a" d="M754.76,410.06s-15.53,36.23-65.88,17.41l32-33.41Z"/><path class="b" d="M744.88,405.82s-.77,27.92-44.71,24.47c-24-1.88-25.88-26.35-25.88-26.35l26.83-11.76Z"/><path class="c" d="M727.12,400.28a22.59,22.59,0,0,1-2.37,28c-6.14,1.93-14.14,2.88-24.58,2.06a30.21,30.21,0,0,1-7.94-1.65,22.56,22.56,0,0,1,1.71-33.31l7.18-3.15Z"/><path class="d" d="M667.7,406.29s28.75-20.11,34.83-19.29c39.53,5.35,52.23,23.06,52.23,23.06S713.35,396.88,703,397.82,667.7,406.29,667.7,406.29Z"/><rect class="e" width="1262.35" height="2194.12"/></svg>