<svg xmlns="http://www.w3.org/2000/svg" width="1262.35" height="2194.12" viewBox="0 0 1262.35 2194.12"><defs><style>.a{fill:#3b2213;}.b{fill:#fff;}.c{fill:#2f9623;}.d{fill:none;}</style></defs><title>4_eyes_1</title><path class="a" d="M527.49,394.81s-4.15,30.42,31.2,43.15l-14.94-43.63Z"/><path class="b" d="M537.61,393.34S528,436.71,567.38,438.9c31.62,1.75,39.81-17.69,39.81-17.69s-4.56-11.69-12.43-17.74c-11.69-9-30.89-13.24-55-10.4"/><path class="c" d="M556.39,395.47a24.24,24.24,0,1,0,38.28,10.17C584.74,397.85,569.34,393.87,556.39,395.47Z"/><path class="a" d="M527.49,394.81l8.19,14.26c15.32-18.31,60-11.72,71.51,12.14C607.19,421.21,601.56,374.24,527.49,394.81Z"/><path class="a" d="M538.76,424.65,535,435l11.76-2.35.47,8.94,8-4.71S541.12,428.88,538.76,424.65Z"/><path class="a" d="M748.62,392.7s4.16,30.42-31.19,43.14l14.94-43.63Z"/><path class="b" d="M738.51,391.22s9.59,43.38-29.77,45.56c-31.62,1.75-39.81-17.69-39.81-17.69s4.56-11.68,12.42-17.74c11.69-9,30.9-13.24,55-10.4"/><path class="c" d="M719.72,393.35a24.22,24.22,0,1,1-38.28,10.17C691.37,395.73,706.78,391.75,719.72,393.35Z"/><path class="a" d="M748.62,392.7,740.44,407c-15.32-18.3-60-11.71-71.51,12.14C668.93,419.09,674.55,372.13,748.62,392.7Z"/><path class="a" d="M737.35,422.53l3.77,10.35-11.77-2.35-.47,8.94-8-4.71S735,426.76,737.35,422.53Z"/><rect class="d" width="1262.35" height="2194.12"/></svg>