<svg xmlns="http://www.w3.org/2000/svg" width="1262.35" height="2194.12" viewBox="0 0 1262.35 2194.12"><defs><style>.a{fill:#fff;}.b{fill:#003b68;}.c{fill:#3b2213;}.d{fill:none;}</style></defs><title>4_eyes_4</title><path class="a" d="M530.12,403.47l15.53,21.65c10.29,3.07,32.37,5.13,54.11,1.06l10.83-11.42s-22.36-36.58-71.06-16.47"/><path class="b" d="M596.86,405.33c0,12.88-10.14,23.32-22.65,23.32s-22.65-10.44-22.65-23.32,9.38-17.62,21.89-17.62S596.86,392.45,596.86,405.33Z"/><path class="c" d="M522.47,406.06s6.22-10.51,21.76-15.3c16.77-5.16,54.3-9.41,66.36,24C610.59,414.76,586,390.18,522.47,406.06Z"/><path class="a" d="M750.77,403.47l-15.53,21.65c-10.29,3.07-32.37,5.13-54.11,1.06L670.3,414.76s22.36-36.58,71.06-16.47"/><path class="b" d="M684.27,402.23a20.31,20.31,0,0,0-.24,3.1c0,12.88,10.14,23.32,22.65,23.32s22.65-10.44,22.65-23.32a17.66,17.66,0,0,0-2.59-9.85C712.39,395.64,698.14,398.53,684.27,402.23Z"/><path class="c" d="M758.42,406.06s-6.45-9.82-21.76-15.3c-22.37-8-63.31,4-66.36,24C670.3,414.76,694.89,390.18,758.42,406.06Z"/><polygon class="c" points="528.65 400.41 545.65 425.12 522.47 406.06 528.65 400.41"/><polygon class="c" points="752.54 400.65 735.54 425.35 758.72 406.29 752.54 400.65"/><rect class="d" width="1262.35" height="2194.12"/></svg>