<svg xmlns="http://www.w3.org/2000/svg" width="1262.35" height="2194.12" viewBox="0 0 1262.35 2194.12"><defs><style>.a{fill:#542419;opacity:0.5;}.b{fill:#fff;}.c{fill:#85431c;}.d{fill:#3b2213;}.e{fill:none;}</style></defs><title>4_eyes_2</title><path class="a" d="M520.29,409.12s6.61-24.24,38.94-24.24,51.42,23.51,51.42,23.51S561.43,376.8,520.29,409.12Z"/><path class="b" d="M533.52,412.06s2.93,16.16,13.22,18.37,55.09-2.94,55.09-2.94l8.08-14S568.77,379,533.52,412.06Z"/><path class="c" d="M591.89,402.94c-10.33-4.37-24-7.49-38.2-3a23.51,23.51,0,0,0,.78,31.06c10.12,0,25.86-1.3,36.38-2.33a23.49,23.49,0,0,0,1-25.7Z"/><path class="d" d="M610.65,408.39s-41.88-38.2-90.36.73l13.23,2.94s34.52-25,76.39,1.47Z"/><path class="a" d="M761.29,409.12s-6.61-24.24-38.93-24.24-51.42,23.51-51.42,23.51S720.16,376.8,761.29,409.12Z"/><path class="b" d="M748.07,412.06s-2.94,16.16-13.22,18.37-55.1-2.94-55.1-2.94l-8.08-14S712.81,379,748.07,412.06Z"/><path class="c" d="M689.7,402.94c10.33-4.37,24-7.49,38.19-3a23.48,23.48,0,0,1-.78,31.06c-10.12,0-25.85-1.3-36.38-2.33a23.51,23.51,0,0,1-1-25.7Z"/><path class="d" d="M670.94,408.39s41.87-38.2,90.35.73l-13.22,2.94s-34.52-25-76.4,1.47Z"/><rect class="e" width="1262.35" height="2194.12"/></svg>