<svg xmlns="http://www.w3.org/2000/svg" width="1262.35" height="2194.12" viewBox="0 0 1262.35 2194.12"><defs><style>.a{fill:#3b2213;}.b{fill:none;}</style></defs><title>4_eyebrow_4</title><path class="a" d="M539.54,347.5c11.42,3.81,35.67,10.53,59.37,8.31,7.13-.67,12.77,6.47,9.87,13a10.57,10.57,0,0,1-5.56,5.32c-13.94,6.41-54.76-2.09-74.19-13.06a6.8,6.8,0,0,1-1.5-10.73h0A11.73,11.73,0,0,1,539.54,347.5Z"/><path class="a" d="M738.86,346.5c-11.42,3.81-35.67,10.53-59.37,8.31-7.13-.67-12.77,6.47-9.87,13a10.57,10.57,0,0,0,5.56,5.32c13.94,6.41,54.76-2.09,74.19-13.06a6.8,6.8,0,0,0,1.5-10.73h0A11.73,11.73,0,0,0,738.86,346.5Z"/><rect class="b" width="1262.35" height="2194.12"/></svg>