<svg xmlns="http://www.w3.org/2000/svg" width="1262.35" height="2194.12" viewBox="0 0 1262.35 2194.12"><defs><style>.a{fill:#3b2213;}.b{fill:#fff;}.c{fill:#5e361e;}.d{fill:none;}</style></defs><title>4_eyes_9</title><path class="a" d="M609,405.11c-14.41-23.32-34.3-22.63-91.24-8.23,0,0,10.29,11,17.15,13.72C534.91,410.6,559.61,392.77,609,405.11Z"/><path class="b" d="M534.91,410.6s3.43,17.15,15.1,19.9c8.27,1.94,27.27.09,37.6-1.15a14.54,14.54,0,0,0,10.62-6.79L609,405.11S565.78,384.53,534.91,410.6Z"/><path class="c" d="M595.28,413a24.18,24.18,0,0,0-4.16-13.61c-11.54-2.48-27.1-3.59-41.85,2.48a24.37,24.37,0,0,0,5.42,29.28c10,.76,26.08-.95,34.45-2A24.25,24.25,0,0,0,595.28,413Z"/><path class="a" d="M671.91,405.11c14.41-23.32,34.3-22.63,91.24-8.23,0,0-10.29,11-17.15,13.72C746,410.6,721.31,392.77,671.91,405.11Z"/><path class="b" d="M746,410.6s-3.43,17.15-15.09,19.9c-8.28,1.94-27.28.09-37.6-1.15a14.51,14.51,0,0,1-10.62-6.79l-10.78-17.45S715.13,384.53,746,410.6Z"/><path class="c" d="M685.63,413a24.26,24.26,0,0,1,4.16-13.61c11.54-2.48,27.1-3.59,41.86,2.48a24.35,24.35,0,0,1-5.43,29.28c-10,.76-26.08-.95-34.45-2A24.3,24.3,0,0,1,685.63,413Z"/><rect class="d" width="1262.35" height="2194.12"/></svg>