<svg xmlns="http://www.w3.org/2000/svg" width="1262.35" height="2194.12" viewBox="0 0 1262.35 2194.12"><defs><style>.a{fill:#fff;}.b{fill:#5e361e;}.c{fill:#3b2213;}.d{fill:none;}</style></defs><title>4_eyes_6</title><path class="a" d="M525.35,398.05s-.5,28.52,40.54,33.67A51,51,0,0,0,608.38,417h0s-21.74-32.64-73.15-21.06"/><path class="b" d="M549.67,394.2a25.14,25.14,0,1,0,46.84,9.91C582.55,396.25,566,393.1,549.67,394.2Z"/><path class="c" d="M520.91,400.88s6.56-14.83,70.09-12.72c0,0,14.82,7.06,17.38,28.83C608.38,417,591,388.16,520.91,400.88Z"/><path class="a" d="M754.49,398.05s.5,28.52-40.54,33.67A51,51,0,0,1,671.46,417h0s21.74-32.64,73.15-21.06"/><path class="b" d="M730.17,394.2a25.14,25.14,0,1,1-46.61,16.73,24.88,24.88,0,0,1-.23-6.82C697.29,396.25,713.83,393.1,730.17,394.2Z"/><path class="c" d="M758.93,400.88s-6.56-14.83-70.09-12.72c0,0-14.82,7.06-17.38,28.83C671.46,417,688.84,388.16,758.93,400.88Z"/><rect class="d" width="1262.35" height="2194.12"/></svg>