<svg xmlns="http://www.w3.org/2000/svg" width="1262.35" height="2194.12" viewBox="0 0 1262.35 2194.12"><defs><style>.a{fill:#fff;}.b{fill:#1b75bc;}.c{fill:#3b2213;}.d{fill:none;}</style></defs><title>4_eyes_7</title><path class="a" d="M609.7,411.91c-3,12.16-22.85,23.37-42.81,22.12S527.72,416.11,526.17,409c0,0,22.94-22.14,42.9-20.89S609.7,411.91,609.7,411.91Z"/><circle class="b" cx="569.89" cy="411.37" r="22.92"/><path class="c" d="M609.7,411.91s-30.5-47.78-70.3-16.17a17.37,17.37,0,0,1-19.08,1.7,9.05,9.05,0,0,1-2.56-1.91s5.31,19.91,19.26,26.55c0,0-6-8-8-13.61C543.21,400.84,573.75,388.89,609.7,411.91Z"/><path class="a" d="M668.49,411.91c3,12.16,22.85,23.37,42.81,22.12S750.47,416.11,752,409c0,0-22.94-22.14-42.9-20.89S668.49,411.91,668.49,411.91Z"/><circle class="b" cx="708.3" cy="411.37" r="22.92"/><path class="c" d="M668.49,411.91s30.5-47.78,70.3-16.17a17.37,17.37,0,0,0,19.08,1.7,9.05,9.05,0,0,0,2.56-1.91s-5.31,19.91-19.26,26.55c0,0,6-8,8-13.61C735,400.84,704.44,388.89,668.49,411.91Z"/><rect class="d" width="1262.35" height="2194.12"/></svg>