<svg xmlns="http://www.w3.org/2000/svg" width="1262.35" height="2194.12" viewBox="0 0 1262.35 2194.12"><defs><style>.a{fill:#308fbb;}.b{fill:#a6d0e3;}.c{fill:#297ca1;}.d{fill:#1f7193;}.e{fill:#ff9c59;}.f{fill:#fff;}.g{fill:#6078ff;}.h{fill:none;}.i{fill:#1d6d8c;}</style></defs><title>4_girl_pant_8</title><path class="a" d="M746.13,1019.28h0Z"/><path class="a" d="M746.19,1019.24l-.06,0Z"/><path class="a" d="M746.11,1019.29l-.48.34Z"/><path class="b" d="M549.31,1907.4c-2.68,15.56-5.14,29.9-7.25,42.42,41.64,14.83,73.9,3,85.41-7.06a274.37,274.37,0,0,1,2.65-32.56C603.44,1917,575,1916.75,549.31,1907.4Z"/><path class="b" d="M700.06,1910.51c3.9,12.73,7.6,24.64,10.7,34.37,27.67-3.15,65.41-34.57,75.53-43.76-4.75-11.4-8.84-22.69-12.38-34.08C752.71,1887.8,727.87,1906.4,700.06,1910.51Z"/><path class="a" d="M752.41,1681.59c-1.41-122.83-56.47-144-56.47-144s19.63-82,49-175.06c19.32-61.22,40.06-139.65,45.18-185.35a249.9,249.9,0,0,0,1.33-39.1c-2.74-60.49-27.59-103.8-45.26-118.84-51,44.7-150.48,63.76-221.4,33.34l-12.54,202.9a710.14,710.14,0,0,0,8.57,174.36c.34,1.91.68,3.83,1,5.76a389.15,389.15,0,0,0,67.58,157.8l8.38,11.6c-4.18,48.11-31.1,201.26-48.51,302.4,25.71,9.35,54.13,9.59,80.81,2.8,9-64.19,37.58-107.2,37.58-107.2s17.66,59.61,32.36,107.51c27.81-4.11,52.65-22.71,73.85-43.47C757.65,1814.66,753.31,1760,752.41,1681.59Z"/><path class="a" d="M745.63,1019.63Z"/><path class="a" d="M746.19,1019.24l-.06,0Z"/><path class="a" d="M746.13,1019.28h0Z"/><path class="a" d="M746.11,1019.29l-.48.34Z"/><path class="a" d="M745.63,1019.63Z"/><path class="c" d="M605.84,1165c6.6,3,13.26,5.93,18.88,10.64-3.4-36.31-3.67-73.32,1.6-109.42-7.44.72-14.91,1.12-22.37,1.16A336,336,0,0,0,605.84,1165Z"/><path class="d" d="M791.45,1138.08c-4.06-88.16-45.26-118.84-45.26-118.84a164.92,164.92,0,0,1-32.87,22.06C722.64,1082.79,752.19,1122.08,791.45,1138.08Z"/><path class="d" d="M544.16,1059.48a166.74,166.74,0,0,1-19.38-6.9c-1.68,35.29-3.76,71.39-5.87,105.06C538.47,1129.56,546.3,1094.07,544.16,1059.48Z"/><path class="a" d="M559,1063.12c-2.52-.51-5-1.06-7.51-1.67-2.18-.54-4.35-1.11-6.5-1.73a226,226,0,0,0-3.78,22.84c2.62.79,5.4,1.57,8.35,2.32,2.21.55,4.52,1.09,6.92,1.6C556.52,1078.7,556.91,1070.78,559,1063.12Z"/><path class="e" d="M601,1091.32c-.71-8-1.82-16-2.24-24a220.74,220.74,0,0,1-32.94-2.93q-3.4-.57-6.78-1.25c-2.12,7.66-2.51,15.58-2.52,23.36,2.86.62,5.84,1.2,9,1.73A228.94,228.94,0,0,0,601,1091.32Z"/><path class="f" d="M606.22,1067.32q-3.74,0-7.47,0c.42,8,1.53,16,2.24,24,2.33,0,4.7,0,7.12,0a261.49,261.49,0,0,0,27.83-2c3.06-.37,6-.8,9-1.25a233.33,233.33,0,0,1-3.7-23.82A251.78,251.78,0,0,1,606.22,1067.32Z"/><path class="e" d="M706.48,1070.46c-2.21-7.5-5-14.8-7.87-22.29A241,241,0,0,1,657,1061.34c-5.21,1.15-10.49,2.12-15.8,3a233.33,233.33,0,0,0,3.7,23.82c5.67-.87,11.16-1.86,16.48-3A232.53,232.53,0,0,0,706.48,1070.46Z"/><path class="a" d="M698.61,1048.17c2.91,7.49,5.66,14.79,7.87,22.29,4.84-2.13,9.65-4.44,14.49-6.92-2.77-7.38-5.69-14.66-8.66-21.75C707.89,1044.05,703.31,1046.18,698.61,1048.17Z"/><path class="e" d="M746.06,1018.76l-.17,0,.3.45a164.83,164.83,0,0,1-33.88,22.55c3,7.09,5.89,14.37,8.66,21.75a427,427,0,0,0,42.3-24.77C757.35,1029.35,750.29,1021.59,746.06,1018.76Z"/><path class="g" d="M545,1059.72a169,169,0,0,1-19-6.62,170.41,170.41,0,0,0,19,6.64Z"/><path class="h" d="M526,1053.1l-1.25-.52,0,.72,1.28-.2Z"/><path class="e" d="M545,1059.74a170.41,170.41,0,0,1-19-6.64h0l-1.28.2q-.54,11.39-1.14,22.84a164.29,164.29,0,0,0,17.63,6.42A225.65,225.65,0,0,1,545,1059.74Z"/><path class="i" d="M667.7,1803s12,40.41,24.41,81.43c8.36-41.83,55.24-49.53,73.17-50.32-9.28-43-12.15-90.27-12.87-152.52-1.41-122.83-56.47-144-56.47-144C759.47,1630.76,680.41,1770.18,667.7,1803Z"/><path class="i" d="M574.53,1139.12s12.7,17.29,36.7,39.88c0,0-11.48,297.41-52.38,364.68h0q1.59,3.08,3.23,6.1l.34.63q3.35,6.16,6.9,12.21l.38.64q1.54,2.61,3.13,5.19c.22.36.44.73.67,1.09q3.54,5.74,7.28,11.36l.91,1.36q1.42,2.13,2.88,4.23l1.06,1.53q1.88,2.7,3.81,5.38l8.38,11.6c5.66-159.65,17.19-303.2,30.71-434.12C628.53,1170.88,591.47,1153.94,574.53,1139.12Z"/><path class="i" d="M644.48,1561.19c-7.45,2.12-16.72,2.71-24.08-.36a4.05,4.05,0,0,0-5.64,4.05c1,11.52,5.43,22.39,14.42,26.24,10.25,3.42,18.31-12.12,20.44-25.45A4,4,0,0,0,644.48,1561.19Z"/><path class="b" d="M635.94,1220.65s63.53-6.36,116.47,16.94C752.41,1237.59,703.7,1191,635.94,1220.65Z"/><path class="b" d="M633.82,1268s52-4.1,95.3,10.94C729.12,1278.91,689.27,1248.83,633.82,1268Z"/><path class="b" d="M631.7,1323s38.22-7.31,81.53,7.73C713.23,1330.76,687.15,1303.89,631.7,1323Z"/><path class="h" d="M746.19,1019.24l-.06,0Z"/><path class="h" d="M746.13,1019.28h0Z"/><path class="h" d="M746.11,1019.29l-.48.34Z"/><path class="h" d="M745.63,1019.63Z"/><path class="b" d="M594.25,1247.23s-34.37-25.46-80.46-16.66l-.58,9.47C535.87,1238.42,565.94,1238.82,594.25,1247.23Z"/><path class="b" d="M576.31,1291.15s-27.59-15.84-65.49-9c-.07,2-.16,4.05-.21,6.08C529.09,1286.68,553.5,1286.32,576.31,1291.15Z"/><path class="b" d="M567.05,1344.58s-19.8-15.83-56.11-7c.06,1.5.11,3,.18,4.5A176.65,176.65,0,0,1,567.05,1344.58Z"/><rect class="h" width="1262.35" height="2194.12"/></svg>