<svg xmlns="http://www.w3.org/2000/svg" width="1262.35" height="2194.12" viewBox="0 0 1262.35 2194.12"><defs><style>.a{fill:#ad8824;}.b{fill:#fff;}.c{fill:#c1b335;}.d{fill:#3d9e30;}.e{fill:none;}.f{fill:#665f1f;}.g{fill:#887e29;}.h{fill:#48fcaf;}</style></defs><title>4_girl_pant_3</title><path class="a" d="M547.76,1401.22c-2.57-15.14-4.79-26.62-5.79-27.88-2.33-2.94-26.24,2.7-37.16,5.46-3.06.78-5,4.15-4.47,7.79.72,4.86,1.82,12.17,3.18,20.71C518.68,1409.4,533.46,1405.57,547.76,1401.22Z"/><path class="a" d="M505.12,1417.1c5.19,31.28,12.9,71.62,18.63,75.08,9.46,5.7,37.42-4.25,36.82-8.2-.81-5.36-6.37-43.6-11.3-73.67C534.69,1414.41,519.93,1418.56,505.12,1417.1Z"/><path class="b" d="M549.27,1410.31c-.51-3.13-1-6.18-1.51-9.09-14.3,4.35-29.08,8.18-44.24,6.08.5,3.12,1,6.41,1.6,9.8C519.93,1418.56,534.69,1414.41,549.27,1410.31Z"/><path class="c" d="M616,1286.12c-.41,10.92-1,21.81-1.71,32.71,46-11.52,91.25,0,138.32,10.52.5.11,1,.24,1.49.36,2.5-8.29,5-16.73,7.45-25.21C717.94,1282.27,663.56,1281.48,616,1286.12Z"/><path class="b" d="M744.75,1360c3.06-9.72,6.2-19.86,9.33-30.24-.5-.12-1-.25-1.49-.36-47.07-10.56-92.29-22-138.32-10.52q-.81,12.4-1.76,24.84a2,2,0,0,1,1.08-.32C657.34,1345.78,703.72,1344.94,744.75,1360Z"/><path class="c" d="M695.94,1537.59s18.63-82,48-175.06l.81-2.58c-41-15-87.41-14.17-131.16-16.6a2,2,0,0,0-1.08.32q-.93,12.3-1.92,24.68c-4,47-11,93-18,141-3.23,24.73-7.61,49.46-10,74.19q3.38,5,6.89,9.86l8.38,11.6c-2.65,30.52-14,105.37-26.29,182.19,26.62,15.84,51.84,29,88.35,27.09,4.69-7.29,7.82-11.28,7.82-11.28s1.8,5.2,4.73,13.75c45.85-5.38,71.61-21.12,82.9-30-2.15-31-2.46-65.24-2.92-105.14C751,1558.76,695.94,1537.59,695.94,1537.59Z"/><path class="c" d="M746.19,1019.24c-51,44.7-150.49,63.76-221.41,33.34-3.53,74-8.8,151.7-12.53,202.9a710.14,710.14,0,0,0,8.57,174.36c.34,1.91.68,3.83,1,5.76a388.48,388.48,0,0,0,60.69,147.94c2.43-24.73,6.81-49.46,10-74.19,7-48,14-94,18-141q1-12.39,1.92-24.68c-1.35.83-2.32,3.08-3.92,4.68,1.6-1.6,2.57-3.85,3.92-4.68q.94-12.45,1.76-24.84c-1.89.47-3.79,1-5.68,1.52,1.89-.55,3.79-1,5.68-1.52.7-10.9,1.3-21.79,1.71-32.71l-2.39.23,2.39-.23c.32-8.7.53-17.42.58-26.19-1.66.44-3.32.9-5,1.42,1.65-.52,3.31-1,5-1.42,0-1.53,0-3,0-4.58,0,1.53,0,3.05,0,4.58,36.51-9.61,74.77.73,113,7.42a81.5,81.5,0,0,1,38,15.63c11-40.19,19.88-79.43,21.54-106.8C796.18,1059.71,746.19,1019.24,746.19,1019.24Z"/><path class="b" d="M616.56,1259.93c0,8.77-.26,17.49-.58,26.19,47.58-4.64,102-3.85,145.55,18.38,2.06-7.16,4.09-14.35,6.05-21.52a81.5,81.5,0,0,0-38-15.63C691.33,1260.66,653.07,1250.32,616.56,1259.93Z"/><path class="a" d="M605.84,1165c6.6,3,13.26,5.93,18.88,10.64-3.4-36.31-3.67-73.32,1.6-109.42-7.44.72-14.91,1.12-22.37,1.16A336,336,0,0,0,605.84,1165Z"/><path class="a" d="M789.45,1139.15c-4.06-88.16-43.26-119.91-43.26-119.91a164.92,164.92,0,0,1-32.87,22.06C722.64,1082.79,750.19,1123.15,789.45,1139.15Z"/><path class="a" d="M544.16,1059.48a166.74,166.74,0,0,1-19.38-6.9c-1.68,35.29-3.76,71.39-5.87,105.06C538.47,1129.56,546.3,1094.07,544.16,1059.48Z"/><path class="a" d="M753.65,1752.34c-20.86,11.65-42.34,11.69-64.77,20.54-.67.45-1.36,4.1-1.88,4.71a198.64,198.64,0,0,1-109.24-29.69c-4.46,11.44-5.41,25-6.23,39.29,26.62,15.84,51.84,29,88.35,27.09,4.69-7.29,7.82-11.28,7.82-11.28s1.8,5.2,4.73,13.75c45.85-5.38,71.61-21.12,82.9-30C754.56,1775.72,754,1764.28,753.65,1752.34Z"/><path class="d" d="M754.58,1774.57c0,.38,0,.75.07,1.12C754.63,1775.32,754.6,1775,754.58,1774.57Z"/><path class="d" d="M752.85,1716.57c0,.5,0,1,0,1.5C752.86,1717.57,752.85,1717.07,752.85,1716.57Z"/><path class="d" d="M753.09,1730.79c0,.17,0,.34,0,.51C753.1,1731.13,753.09,1731,753.09,1730.79Z"/><path class="d" d="M754.9,1780.09c0,.46.06.93.08,1.39C755,1781,754.93,1780.55,754.9,1780.09Z"/><path class="d" d="M754,1762.06c0,.4,0,.81,0,1.22C754,1762.87,754,1762.46,754,1762.06Z"/><path class="d" d="M753,1723.61c0,.26,0,.52,0,.78C753,1724.13,753,1723.87,753,1723.61Z"/><path class="d" d="M753.78,1756.16c0,.4,0,.8,0,1.2C753.8,1757,753.79,1756.56,753.78,1756.16Z"/><path class="d" d="M752.57,1695.17c0,.53,0,1.07,0,1.6C752.58,1696.24,752.57,1695.7,752.57,1695.17Z"/><path class="d" d="M752.41,1681.59q0,4,.09,8C752.47,1687,752.44,1684.29,752.41,1681.59Z"/><path class="d" d="M752.66,1703.12v0Z"/><path class="d" d="M752.75,1710.15c0,.35,0,.69,0,1C752.76,1710.84,752.76,1710.5,752.75,1710.15Z"/><path class="d" d="M753.38,1743.26l0,1Z"/><path class="d" d="M753.22,1736.86l0,1.33Z"/><path class="e" d="M753,1724.39q.06,3.22.12,6.4Q753,1727.61,753,1724.39Z"/><path class="e" d="M752.77,1711.19c0,1.81.05,3.6.08,5.38C752.82,1714.79,752.79,1713,752.77,1711.19Z"/><path class="e" d="M752.87,1718.07c0,1.86.06,3.71.09,5.54C752.93,1721.78,752.9,1719.93,752.87,1718.07Z"/><path class="e" d="M752.67,1703.5c0,2.24.05,4.45.08,6.65C752.72,1708,752.69,1705.74,752.67,1703.5Z"/><path class="e" d="M754.05,1763.28c.16,3.81.34,7.58.53,11.29C754.39,1770.86,754.21,1767.09,754.05,1763.28Z"/><path class="e" d="M755,1781.48c.1,1.57.2,3.14.31,4.71C755.18,1784.62,755.08,1783.05,755,1781.48Z"/><path class="e" d="M752.5,1689.6c0,1.87,0,3.73.07,5.57C752.54,1693.32,752.52,1691.47,752.5,1689.6Z"/><path class="e" d="M754.65,1775.69c.08,1.48.16,2.94.25,4.4C754.81,1778.63,754.73,1777.17,754.65,1775.69Z"/><path class="e" d="M753.25,1738.19c0,1.7.09,3.39.13,5.07C753.34,1741.58,753.29,1739.89,753.25,1738.19Z"/><path class="e" d="M753.41,1744.27q.15,6,.37,11.89Q753.57,1750.3,753.41,1744.27Z"/><path class="e" d="M752.59,1696.77c0,2.13,0,4.25.07,6.35C752.64,1701,752.61,1698.9,752.59,1696.77Z"/><path class="e" d="M753.1,1731.3c0,1.87.08,3.72.12,5.56C753.18,1735,753.14,1733.17,753.1,1731.3Z"/><path class="e" d="M753.82,1757.36l.18,4.7Z"/><polygon class="d" points="667.7 1803 667.7 1803 667.7 1803 667.7 1803"/><path class="f" d="M667.7,1803s1.8,5.2,4.73,13.75c45.85-5.38,71.61-21.12,82.9-30-.86-12.43-1.34-25.42-1.53-38.38-21.93,17.54-49,26.52-76.55,33.59C672.93,1791.12,669.51,1798.35,667.7,1803Z"/><path class="g" d="M753.85,1716.57c2.18-121.63-27.56-155-44.5-170.51a43.77,43.77,0,0,0-13.41-8.47c53.65,62.12,7.46,188.82-18.69,244.35,27.58-7.07,54.62-16,76.55-33.59C753.63,1737.61,753.66,1726.9,753.85,1716.57Z"/><path class="d" d="M667.7,1803l-.07-.21Z"/><path class="d" d="M667.63,1802.79Z"/><path class="g" d="M574.53,1139.12s12.7,17.29,36.7,39.88c0,0-11.48,297.41-52.38,364.68a394.71,394.71,0,0,0,30.59,49.72l8.38,11.6c5.66-159.65,17.19-303.2,30.71-434.12C628.53,1170.88,591.47,1153.94,574.53,1139.12Z"/><path class="g" d="M614.76,1564.88c1,11.52,5.43,22.39,14.42,26.24,10.25,3.42,18.31-12.12,20.44-25.45a4,4,0,0,0-5.14-4.48c-7.45,2.12-16.72,2.71-24.08-.36A4.05,4.05,0,0,0,614.76,1564.88Z"/><path class="c" d="M559,1063.12c-2.52-.51-5-1.06-7.51-1.67-2.18-.54-4.35-1.11-6.5-1.73a226,226,0,0,0-3.78,22.84c2.62.79,5.4,1.57,8.35,2.32,2.21.55,4.52,1.09,6.92,1.6C556.52,1078.7,556.91,1070.78,559,1063.12Z"/><path class="b" d="M601,1091.32c-.71-8-1.82-16-2.24-24a220.74,220.74,0,0,1-32.94-2.93q-3.4-.57-6.78-1.25c-2.12,7.66-2.51,15.58-2.52,23.36,2.86.62,5.84,1.2,9,1.73A228.94,228.94,0,0,0,601,1091.32Z"/><path d="M606.22,1067.32q-3.74,0-7.47,0c.42,8,1.53,16,2.24,24,2.33,0,4.7,0,7.12,0a261.49,261.49,0,0,0,27.83-2c3.06-.37,6-.8,9-1.25a233.33,233.33,0,0,1-3.7-23.82A251.78,251.78,0,0,1,606.22,1067.32Z"/><path class="b" d="M706.48,1070.46c-2.21-7.5-5-14.8-7.87-22.29A241,241,0,0,1,657,1061.34c-5.21,1.15-10.49,2.12-15.8,3a233.33,233.33,0,0,0,3.7,23.82c5.67-.87,11.16-1.86,16.48-3A232.53,232.53,0,0,0,706.48,1070.46Z"/><path class="c" d="M698.61,1048.17c2.91,7.49,5.66,14.79,7.87,22.29,4.84-2.13,9.65-4.44,14.49-6.92-2.77-7.38-5.69-14.66-8.66-21.75C707.89,1044.05,703.31,1046.18,698.61,1048.17Z"/><path class="b" d="M746.06,1018.76l-.17,0,.3.45a164.83,164.83,0,0,1-33.88,22.55c3,7.09,5.89,14.37,8.66,21.75a418.12,418.12,0,0,0,41.3-24.77A245.69,245.69,0,0,0,746.06,1018.76Z"/><path class="h" d="M545,1059.72a169,169,0,0,1-19-6.62,170.41,170.41,0,0,0,19,6.64Z"/><path class="e" d="M526,1053.1l-1.25-.52,0,.72,1.28-.2Z"/><path class="b" d="M545,1059.74a170.41,170.41,0,0,1-19-6.64h0l-1.28.2q-.54,11.39-1.14,22.84a164.29,164.29,0,0,0,17.63,6.42A225.65,225.65,0,0,1,545,1059.74Z"/><path class="a" d="M692.43,1400.38c3.26-15,6-26.38,7.21-27.57,2.74-2.78,30.08,4.6,42.57,8.17a7.05,7.05,0,0,1,5,8.13c-.92,4.83-2.33,12.08-4.07,20.56C725.66,1410.68,708.77,1405.77,692.43,1400.38Z"/><path class="a" d="M741.08,1419.38c-6.6,31-16.28,70.94-22.93,74-11,5-42.89-7-42.12-10.88,1-5.33,8.21-43.3,14.48-73.11C707.17,1414.55,724,1419.78,741.08,1419.38Z"/><path class="b" d="M690.51,1409.39c.65-3.11,1.3-6.13,1.92-9,16.34,5.39,33.23,10.3,50.68,9.29-.64,3.09-1.32,6.35-2,9.71C724,1419.78,707.17,1414.55,690.51,1409.39Z"/><rect class="e" width="1262.35" height="2194.12"/></svg>