<svg xmlns="http://www.w3.org/2000/svg" width="1262.35" height="2194.12" viewBox="0 0 1262.35 2194.12"><defs><style>.a{fill:none;}.b{fill:#a12800;}.c{fill:#781e00;}.d{fill:#c74218;}</style></defs><title>4_girl_hair_7</title><path class="a" d="M640.59,254.35c-27.8-5.74-50.79-3.29-69.37,3A145.77,145.77,0,0,1,640.59,254.35Z"/><path class="b" d="M661.93,393l.83,0Z"/><path class="c" d="M626.59,316.35c-16,18-17,44-1,64a44,44,0,0,0,6.72,6.55A60.79,60.79,0,0,0,661.93,393c-4.9,0-29.8-1.57-32.31-35-3-39.47,48.23-47.74,36-95.67l.71.07a21.92,21.92,0,0,1-2-4.07C667.77,283.06,641.78,299.26,626.59,316.35Z"/><path class="b" d="M478.22,254.16q-2.24,4.48-4.15,9a160.47,160.47,0,0,0-5.7,15.65c-.27.87-.52,1.73-.77,2.6,8.7,17.43,23.69,30.93,38.75,42.68a122.54,122.54,0,0,1,10.84-20.82A97.06,97.06,0,0,1,478.22,254.16Z"/><path class="b" d="M496,369.55a161.9,161.9,0,0,1,4.63-28.16c-14.39-10.92-28.79-22.8-37.85-38.16A192.65,192.65,0,0,0,460.64,331C467.19,347.53,479.57,362.22,496,369.55Z"/><path class="c" d="M528.51,286.05c-19.3-9.64-32-29.35-39.87-49.76-.81,1.21-1.61,2.42-2.38,3.64a161.1,161.1,0,0,0-8,14.23,97.06,97.06,0,0,0,39,49.11,122.54,122.54,0,0,0-10.84,20.82c-15.06-11.75-30.05-25.25-38.75-42.68a172.92,172.92,0,0,0-4.79,21.82c9.06,15.36,23.46,27.24,37.85,38.16A161.9,161.9,0,0,0,496,369.55c-16.46-7.33-28.84-22-35.39-38.6-.37,52.18,19.24,93.7,19.24,93.7s-2.41-48.35,32.24-19.36c0,0-19.4-130.62,118.87-145a87.57,87.57,0,0,0,7.84-4.72C600.66,249.82,556.65,260.34,528.51,286.05Z"/><path class="b" d="M626.76,172.41s-55.15-16.75-108,29.33c-3.24,2.81-6.46,5.85-9.66,9.16q-2.3,2.37-4.57,4.91a189.74,189.74,0,0,0-14.71,18.72c-.4.58-.79,1.17-1.18,1.76,7.85,20.41,20.57,40.12,39.87,49.76,28.14-25.71,72.15-36.23,110.32-30.52a61.09,61.09,0,0,0,8.76-7.18,61.09,61.09,0,0,1-8.76,7.18,126,126,0,0,1,13.76,2.82,126,126,0,0,0-13.76-2.82,87.57,87.57,0,0,1-7.84,4.72c1-.11,2-.2,2.94-.29l1.14-.11s-38.89,7.24-38.89,66.09c0,25.59,13.82,49.92,36.13,61a44,44,0,0,1-6.72-6.55c-16-20-15-46,1-64,15.19-17.09,41.18-33.29,37.77-58-.51-1.27-.86-1.69-4.66-4.07,4.29,0,44-10.34,85.32,31.11,19.25-13.34,36.78-29.6,47.68-49.95C766.5,187.94,718.46,151,626.76,172.41Z"/><path class="c" d="M745,285.4c-41.29-41.45-81-31.11-85.32-31.11,6.17,3.86,3.25,2.55,6.68,8.14,8.73,1,99.21,15.05,103,141.82,0,0,27.52-30.19,31.75,18.28,0,0,19.57-39.84,18.73-90.06a134.77,134.77,0,0,1-33.26,31.88,118.64,118.64,0,0,0-9.46-33.13c15.49-6.25,29-19.19,38.53-34.13-.35-1.55-.73-3.11-1.13-4.68-1.18-4.53-2.47-9.12-3.9-13.75-12.52,14.27-27.06,27.06-44.86,32.26q-4.71-7-9.47-12.87a129,129,0,0,0,47.11-39.84,207.33,207.33,0,0,0-10.71-22.76C781.8,255.8,764.27,272.06,745,285.4Z"/><path class="b" d="M756.3,298.05q4.76,5.91,9.47,12.87c17.8-5.2,32.34-18,44.86-32.26-2.09-6.8-4.49-13.65-7.22-20.45A129,129,0,0,1,756.3,298.05Z"/><path class="b" d="M777.13,331.22a118.64,118.64,0,0,1,9.46,33.13,134.77,134.77,0,0,0,33.26-31.88,173.32,173.32,0,0,0-4.19-35.38C806.12,312,792.62,325,777.13,331.22Z"/><path class="b" d="M414,525.69c.12-.25.22-.52.35-.77A1.77,1.77,0,0,0,414,525.69Z"/><path class="b" d="M463.59,551.35c14-12,22-29,20-48,10,12,22,26,17,43,13.94-23.24,12.87-53.07-5.06-70.46a47.07,47.07,0,0,0-21.32.83c-18.8,5.15-31.16,26.26-29.3,45.67.51,5.29,4.27,16-2.82,21.38-15,11.43-28.43-14.27-27.1-20.08a26,26,0,0,0-1.85,5.66c1.25,7.41,3.52,14.46,8.45,20C433.59,560.35,451.59,563.35,463.59,551.35Z"/><path class="c" d="M495.53,475.89c17.93,17.39,19,47.22,5.06,70.46,5-17-7-31-17-43,2,19-6,36-20,48-12,12-30,9-42-2-4.93-5.54-7.2-12.59-8.45-20a31.14,31.14,0,0,0,5.62,24.15c6.43,8.68,16.81,13.93,27.48,15.54,18,2.72,39-6.87,43.19-24.57.83,17.42-13.18,34.3-30.46,36.7,19.71,5.66,48.27-1,57.87-11.84C555.07,526,529.86,482.44,495.53,475.89Z"/><path class="b" d="M863.59,489.36c.21.16.4.33.6.5A1.7,1.7,0,0,0,863.59,489.36Z"/><path class="b" d="M790.59,552.35c-6-15-12-32-5-48,6,29,45,39,67,26,12.94-7.39,15.61-23.13,11.09-37.17a23.82,23.82,0,0,0-2.49-2.32c3.77,4.47,3,33.67-15.64,29.89-8.73-1.77-10-13-11.82-18-6.76-18.3-27.06-31.94-46.24-28.42a47.1,47.1,0,0,0-21.91,10.38C760.15,509.79,768.73,536.87,790.59,552.35Z"/><path class="c" d="M863.68,493.18c4.52,14,1.85,29.78-11.09,37.17-22,13-61,3-67-26-7,16-1,33,5,48-21.86-15.48-30.44-42.56-25-67.66-25.9,21.8-28,69.79,23.75,91.56,13.37,5.62,42-.81,57.26-14.47C830,567.12,810,558,803.21,542c11.5,14.11,34.55,13.64,49.58,3.38,8.91-6.1,16-15.33,18-25.94C872.54,510.16,870,500,863.68,493.18Z"/><path class="d" d="M665.59,235.24s53.64-5,72-48c0,0,28.58,17.29,36,33.17C773.59,220.41,734.41,244.41,665.59,235.24Z"/><path class="d" d="M617.94,238.41s-53.65-4.94-72-48c0,0-28.59,17.3-36,33.18C509.94,223.59,549.12,247.59,617.94,238.41Z"/><rect class="a" width="1262.35" height="2194.12"/></svg>