<svg xmlns="http://www.w3.org/2000/svg" width="1262.35" height="2194.12" viewBox="0 0 1262.35 2194.12"><defs><style>.a{fill:#308fbb;}.b{fill:#303030;}.c{fill:#f2f1f1;}.d{fill:#297ca1;}.e{fill:#1f7193;}.f{fill:#ff9c59;}.g{fill:#fff;}.h{fill:#6078ff;}.i{fill:none;}.j{fill:#b5b4b4;}.k{fill:#1f1f1f;}.l{fill:#3b3b3b;}.m{fill:#d4d4d4;}.n{fill:#ffca6e;}</style></defs><title>4_girl_pant_10</title><path class="a" d="M746.13,1019.28h0Z"/><path class="a" d="M746.19,1019.24l-.06,0Z"/><path class="a" d="M746.11,1019.29l-.48.34Z"/><path class="b" d="M549.31,1907.4c-2.68,15.56-5.14,29.9-7.25,42.42,41.64,14.83,73.9,3,85.41-7.06a274.37,274.37,0,0,1,2.65-32.56C603.44,1917,575,1916.75,549.31,1907.4Z"/><path class="b" d="M700.06,1910.51c3.9,12.73,7.6,24.64,10.7,34.37,27.67-3.15,65.41-34.57,75.53-43.76-4.75-11.4-8.84-22.69-12.38-34.08C752.71,1887.8,727.87,1906.4,700.06,1910.51Z"/><path class="c" d="M752.41,1681.59c-1.41-122.83-56.47-144-56.47-144s19.63-82,49-175.06c19.32-61.22,40.06-139.65,45.18-185.35a249.9,249.9,0,0,0,1.33-39.1c-2.74-60.49-27.59-103.8-45.26-118.84-51,44.7-150.48,63.76-221.4,33.34l-12.54,202.9a710.14,710.14,0,0,0,8.57,174.36c.34,1.91.68,3.83,1,5.76a389.15,389.15,0,0,0,67.58,157.8l8.38,11.6c-4.18,48.11-31.1,201.26-48.51,302.4,25.71,9.35,54.13,9.59,80.81,2.8,9-64.19,37.58-107.2,37.58-107.2s17.66,59.61,32.36,107.51c27.81-4.11,52.65-22.71,73.85-43.47C757.65,1814.66,753.31,1760,752.41,1681.59Z"/><path class="a" d="M745.63,1019.63Z"/><path class="a" d="M746.19,1019.24l-.06,0Z"/><path class="a" d="M746.13,1019.28h0Z"/><path class="a" d="M746.11,1019.29l-.48.34Z"/><path class="a" d="M745.63,1019.63Z"/><path class="d" d="M605.84,1165c6.6,3,13.26,5.93,18.88,10.64-3.4-36.31-3.67-73.32,1.6-109.42-7.44.72-14.91,1.12-22.37,1.16A336,336,0,0,0,605.84,1165Z"/><path class="e" d="M791.45,1138.08c-4.06-88.16-45.26-118.84-45.26-118.84a164.92,164.92,0,0,1-32.87,22.06C722.64,1082.79,752.19,1122.08,791.45,1138.08Z"/><path class="e" d="M544.16,1059.48a166.74,166.74,0,0,1-19.38-6.9c-1.68,35.29-3.76,71.39-5.87,105.06C538.47,1129.56,546.3,1094.07,544.16,1059.48Z"/><path class="a" d="M559,1063.12c-2.52-.51-5-1.06-7.51-1.67-2.18-.54-4.35-1.11-6.5-1.73a226,226,0,0,0-3.78,22.84c2.62.79,5.4,1.57,8.35,2.32,2.21.55,4.52,1.09,6.92,1.6C556.52,1078.7,556.91,1070.78,559,1063.12Z"/><path class="f" d="M601,1091.32c-.71-8-1.82-16-2.24-24a220.74,220.74,0,0,1-32.94-2.93q-3.4-.57-6.78-1.25c-2.12,7.66-2.51,15.58-2.52,23.36,2.86.62,5.84,1.2,9,1.73A228.94,228.94,0,0,0,601,1091.32Z"/><path class="g" d="M606.22,1067.32q-3.74,0-7.47,0c.42,8,1.53,16,2.24,24,2.33,0,4.7,0,7.12,0a261.49,261.49,0,0,0,27.83-2c3.06-.37,6-.8,9-1.25a233.33,233.33,0,0,1-3.7-23.82A251.78,251.78,0,0,1,606.22,1067.32Z"/><path class="f" d="M706.48,1070.46c-2.21-7.5-5-14.8-7.87-22.29A241,241,0,0,1,657,1061.34c-5.21,1.15-10.49,2.12-15.8,3a233.33,233.33,0,0,0,3.7,23.82c5.67-.87,11.16-1.86,16.48-3A232.53,232.53,0,0,0,706.48,1070.46Z"/><path class="a" d="M698.61,1048.17c2.91,7.49,5.66,14.79,7.87,22.29,4.84-2.13,9.65-4.44,14.49-6.92-2.77-7.38-5.69-14.66-8.66-21.75C707.89,1044.05,703.31,1046.18,698.61,1048.17Z"/><path class="f" d="M746.06,1018.76l-.17,0,.3.45a164.83,164.83,0,0,1-33.88,22.55c3,7.09,5.89,14.37,8.66,21.75a427,427,0,0,0,42.3-24.77C757.35,1029.35,750.29,1021.59,746.06,1018.76Z"/><path class="h" d="M545,1059.72a169,169,0,0,1-19-6.62,170.41,170.41,0,0,0,19,6.64Z"/><path class="i" d="M526,1053.1l-1.25-.52,0,.72,1.28-.2Z"/><path class="f" d="M545,1059.74a170.41,170.41,0,0,1-19-6.64h0l-1.28.2q-.54,11.39-1.14,22.84a164.29,164.29,0,0,0,17.63,6.42A225.65,225.65,0,0,1,545,1059.74Z"/><path class="j" d="M667.7,1803s12,40.41,24.41,81.43c8.36-41.83,55.24-49.53,73.17-50.32-9.28-43-12.15-90.27-12.87-152.52-1.41-122.83-56.47-144-56.47-144C759.47,1630.76,680.41,1770.18,667.7,1803Z"/><path class="j" d="M574.53,1139.12s12.7,17.29,36.7,39.88c0,0-11.48,297.41-52.38,364.68h0q1.59,3.08,3.23,6.1l.34.63q3.35,6.16,6.9,12.21l.38.64q1.54,2.61,3.13,5.19c.22.36.44.73.67,1.09q3.54,5.74,7.28,11.36l.91,1.36q1.42,2.13,2.88,4.23l1.06,1.53q1.88,2.7,3.81,5.38l8.38,11.6c5.66-159.65,17.19-303.2,30.71-434.12C628.53,1170.88,591.47,1153.94,574.53,1139.12Z"/><path class="j" d="M644.48,1561.19c-7.45,2.12-16.72,2.71-24.08-.36a4.05,4.05,0,0,0-5.64,4.05c1,11.52,5.43,22.39,14.42,26.24,10.25,3.42,18.31-12.12,20.44-25.45A4,4,0,0,0,644.48,1561.19Z"/><path class="k" d="M567.29,1064.63A180.37,180.37,0,0,1,526,1053.1l-1.62.25s-34.59,93.18-39.53,242.83c0,0,26.05,9.67,67.13,16C544,1229.75,550.33,1145.7,567.29,1064.63Z"/><path class="l" d="M622.37,1066.58a232.18,232.18,0,0,1-55.08-1.95c-17,81.07-24.82,178.79-16.76,261.19,22.26,3.42,49.41-2.82,79.75-8.46C619.43,1234.23,615.23,1149.85,622.37,1066.58Z"/><path class="k" d="M622.37,1066.58c-7.14,83.27-6.45,177.52,4.39,260.66,28.71-.62,63.49-14,95.65-22.48-16.77-82.39-34.55-164.77-50.54-247.16A255.2,255.2,0,0,1,622.37,1066.58Z"/><path class="l" d="M671.87,1057.6c16,82.39,34.12,176,50.89,258.34,21.63-5.67,43.31-24.74,65.26-35.41-19.39-81.31-47.17-159.88-76.72-238.21A226.79,226.79,0,0,1,671.87,1057.6Z"/><path class="k" d="M746.06,1018.76l-.17,0,.3.45a166.4,166.4,0,0,1-34.89,23.08c29.55,78.33,58.43,165.49,77.82,246.8,20.46-10,39.75-30.93,59.64-46.24C848.76,1242.88,814.88,1094.65,746.06,1018.76Z"/><path class="m" d="M711,1042.48q-5.44,2.73-11.19,5.21h0q5.73-2.46,11.2-5.21Z"/><path class="n" d="M635.94,1089.36c48.88-6,82.73-21.38,126.33-50.59a245.69,245.69,0,0,0-16.21-20l-.17,0,.3.45c-50.66,44.44-149.33,63.53-220.16,33.86l-1.62.25s-2.59,7-6.45,20.17C532.51,1080.74,573.52,1097,635.94,1089.36Z"/><path d="M762.76,1038.65a31.6,31.6,0,0,0-16.48-20.34l-.15-.06-1.1.17.5.73c-25.2,22-63.21,38.22-104.38,44.65-33.78,5.28-67,3.7-96-4.56a169.45,169.45,0,0,1-18.94-6.6l-.13-.06-2.05.32-.1.28c0,.07-2.64,7.15-6.46,20.2l-.12.4.38.19c23.38,11.6,53.76,17.86,86.3,17.86,2.72,0,5.47,0,8.23-.14,38.37-1.23,76-10.81,108.93-27.71a412,412,0,0,0,41.35-24.8l.29-.19Z"/><rect class="i" width="1262.35" height="2194.12"/></svg>