<svg xmlns="http://www.w3.org/2000/svg" width="1262.35" height="2194.12" viewBox="0 0 1262.35 2194.12"><defs><style>.a{fill:#fff;}.b{fill:#45b3bf;}.c{fill:#d1aa07;}.d{fill:#e2bc1e;}.e{fill:#ffdb45;}.f{fill:#ffdf59;}.g{fill:none;}</style></defs><title>4_girl_drivers_4</title><path class="a" d="M1043,1946.81l7,26.32a89.54,89.54,0,0,0-14.07,3.23c-2.27-8.39-4.59-16.95-6.93-25.62C1033.88,1950,1038.67,1949.05,1043,1946.81Z"/><path d="M883.49,1344.5c-.84-3.2-1.3-4.92-1.3-4.93l-15.11,3.85q3.09,11.61,5.91,22.21a93,93,0,0,0,11.83-3.25C884.35,1356.66,884.2,1350.52,883.49,1344.5Z"/><path class="a" d="M884.82,1362.38a93,93,0,0,1-11.83,3.25c2,7.73,4,15.08,5.87,22.12,4.37-1.16,8.73-2.72,13.1-4.09C886.92,1378.77,885.52,1371.06,884.82,1362.38Z"/><path class="b" d="M1043,1946.81c0-.09-112-419.57-149.67-561.93a14.79,14.79,0,0,1-1.39-1.22c-4.37,1.37-8.73,2.93-13.1,4.09,40.18,151.49,40.41,156.68,150.12,563C1033.88,1950,1038.67,1949.05,1043,1946.81Z"/><path d="M1050,1973.13a89.54,89.54,0,0,0-14.07,3.23q3.79,14,7.15,26.35c4.67-.88,9.11-2.47,13.67-3.7Z"/><path class="a" d="M1056.73,1999c-4.56,1.23-9,2.82-13.67,3.7,1.9,7,3.7,13.62,5.4,19.85,4.61-1.1,9-2.67,13.34-4.15Z"/><path class="c" d="M1061.8,2018.41c-4.37,1.48-8.73,3-13.34,4.15,18.53,67.86,25,89.8,26.71,91,6.46,4.69,11.37-.38,11.37-.38Z"/><path class="d" d="M877.15,1296A61.18,61.18,0,0,0,841.71,1309l25.37,34.39,15.11-3.85,2-27.73C879.93,1307.78,877.76,1302.11,877.15,1296Z"/><path class="e" d="M863.58,1303.59l9.31,32.94,5.38-.62,1.69-29.84a25.25,25.25,0,0,1-1.77-4.55A31.52,31.52,0,0,0,863.58,1303.59Z"/><path class="c" d="M1063.75,2077.88s20.93-110.69,94.48-106.7,93.37,68.49,82.71,112.13c-5.81,23.77-30.45,56.45-84.26,57.29-62,1-81.51-27-81.51-27Z"/><path d="M1093.94,2008.22c11.17-13.79,30.15-22.54,56.22-9.19,18.4,9.42,33,25.47,38.26,56.08,3.16,18.44-1.54,42.83-18.67,64.6A52.3,52.3,0,0,1,1132,2139.8l-.26,0c-41.75-4.8-56.56-26.24-56.56-26.24l-11.42-35.7S1070.77,2039.49,1093.94,2008.22Z"/><path class="b" d="M1154.56,2031.57a91.44,91.44,0,0,1,6,13.57,3.34,3.34,0,0,1-1.87,4.2c-15.94,6.55-56,23.31-78.57,35.38a3.34,3.34,0,0,1-4.88-2.45h0a3.35,3.35,0,0,1,1.1-3c19.18-17,58.13-40,73.65-49A3.32,3.32,0,0,1,1154.56,2031.57Z"/><path class="b" d="M1163.05,2086.52l-82.91,9.07a3.05,3.05,0,0,1-3.35-2.58h0a3,3,0,0,1,2.17-3.37l82.65-23.8a3,3,0,0,1,3.88,2.67,126.33,126.33,0,0,1,.27,15.08A3.06,3.06,0,0,1,1163.05,2086.52Z"/><path class="b" d="M1162,2115.09c-21.21,3.51-62.26-4.3-81.51-9.22a3.22,3.22,0,0,1-2.2-2.72h0c-.32-2.07,1.08-3.83,2.82-3.53,28.55,4.83,62.56,2.21,80.36.21,1.67-.18,3.14,1.5,3.07,3.5-.14,3.43-.28,6.74-.4,9A2.79,2.79,0,0,1,1162,2115.09Z"/><path class="b" d="M1073.74,2067.78c25.56-41.77,49-57,54.88-60.36a2.68,2.68,0,0,1,2.82.11,62.17,62.17,0,0,1,7.66,6.2,2.69,2.69,0,0,1-.35,4.2c-13,8.59-40.09,28-60.64,53a2.69,2.69,0,0,1-4.74-1.3h0A2.73,2.73,0,0,1,1073.74,2067.78Z"/><path class="f" d="M1236.15,2042.85s-22-7.93-44.53-5.76c0,0-13.33-52.2-68.34-52C1123.28,1985.1,1205.9,1951.89,1236.15,2042.85Z"/><path class="a" d="M859.35,1201.3l-7.41-27.24c-7.88-10.66-45.17,1-45.49,12.35l7.77,27C825.91,1203.85,842.91,1201.12,859.35,1201.3Z"/><path d="M859.35,1201.3c-16.44-.18-33.44,2.55-45.13,12.14l3.55,12.33c13.4-8.22,29.16-11.48,45.06-11.67Z"/><path class="b" d="M879.79,1276.48l-17-62.38c-15.9.19-31.66,3.45-45.06,11.67l18.9,65.75c12.5-7.9,27.09-10.31,41.89-11Q879.1,1278.46,879.79,1276.48Z"/><path d="M836.67,1291.52l5,17.51A61.18,61.18,0,0,1,877.15,1296a44.61,44.61,0,0,1,1.41-15.44C863.76,1281.21,849.17,1283.62,836.67,1291.52Z"/><rect class="g" width="1262.35" height="2194.12"/></svg>