<svg xmlns="http://www.w3.org/2000/svg" width="1262.35" height="2194.12" viewBox="0 0 1262.35 2194.12"><defs><style>.a{fill:#999;}.b{fill:#fff;}.c{fill:#73abba;}.d{fill:#c2c2c2;}.e{fill:#468899;}.f{fill:#ba4a4a;}.g{fill:none;}</style></defs><title>4_girl_shirt_2</title><path class="a" d="M830.06,682.06c-9.55-91.42-103.5-87.89-128.9-87.55h-2.4c-7.67,0-12.55-1.3-15.67-2.95-4.8,4-13.11,9.42-22.8,15.26,38.2,1.3,113.46,7.46,126,35.69,16.09,36.2,29.46,141.67,34.18,182.57a191.41,191.41,0,0,0,23-6.9C838.89,771.8,834.16,721.33,830.06,682.06Z"/><path class="b" d="M660.29,606.84c-12.27,7.39-26.76,15.42-39.17,21.92,0,0-4.88-9.75-10.47-23.33-32-.29-83.5,2.58-106,22.28-32.4,28.34-28,89.6-92.36,131.94,4.81,14.74,14.18,33,32.41,47,1.78-1,3.52-2.08,5.2-3.1h0c31.58-19.22,44-33.87,44.17-34s12.7,25.41,29.64,81.88c7.15,23.81,5.44,109.71,1.08,201.11,70.92,30.42,170.45,11.36,221.41-33.34l-.59-.87a416.6,416.6,0,0,1-28.77-34.7c-12.71-16.09-31.75-45.47-22.65-68C734.41,816.18,751,741.18,751,741.18c4.86,31.1,9.24,62.77,13.85,89.47a218,218,0,0,0,55.62-5.55c-4.72-40.9-18.09-146.37-34.18-182.57C773.75,614.3,698.49,608.14,660.29,606.84Z"/><path class="a" d="M504.65,627.71c22.5-19.7,74-22.57,106-22.28-2.22-5.41-4.55-11.41-6.74-17.66-4.73.49-14.52,1.6-26.77,3.53h0c-16.87,2.66-38.37,6.86-57.66,13.11-39.18,12.71-56.12,50.83-70.94,86.83-7.95,19.29-25.93,36-40.9,47.25a109.25,109.25,0,0,0,4.66,21.16C476.63,717.31,472.25,656.05,504.65,627.71Z"/><path class="c" d="M504.59,720.35c-12,12.8-13.32,31.27-10.23,49.86,2,4.16,13.91,29.82,29.34,81.26,7.15,23.81,5.44,109.71,1.08,201.11,70.92,30.42,170.45,11.36,221.41-33.34l-.59-.87a416.6,416.6,0,0,1-28.77-34.7c-12.71-16.09-31.75-45.47-22.65-68,18.29-45.27,33.8-91.27,43.65-123.62,6.63-21.74,10-35.6,12.56-45.37C702.55,707.25,524.59,700.35,504.59,720.35Z"/><path class="d" d="M493.67,770c-5.33-20.79,3.25-42.35,15.33-60.62-1.31,1.14-41.77,30.54-46.89,86.35C482,782.33,491.7,772.18,493.67,770Z"/><path class="d" d="M749.2,730.17A116.14,116.14,0,0,1,745,742.92q2.92,1.85,5.43,3.8C750.8,745.05,750.53,735.71,749.2,730.17Z"/><path class="e" d="M675.2,805.76c13,4.75,27.47.77,40.76-3.23,9.41-2.83,16.54-6.32,21.87-10.44,7.07-23.47,11.12-39.45,12.56-45.37q-2.5-2-5.43-3.8C732.85,773.39,708.11,797.89,675.2,805.76Z"/><path class="f" d="M421.34,727.14c-4.61,4.2-9.29,8-13.71,11.35,1.41,12.41,7.86,45.7,37.07,68.18,1.78-1,3.52-2.08,5.2-3.1h0c4.39-2.67,8.39-5.24,12.05-7.71C442.22,778.25,429.55,753.18,421.34,727.14Z"/><path class="f" d="M761,807.8q1.9,11.66,3.83,22.85c26.57.72,53.69-3.2,78.58-12.45-.73-7.43-1.46-15-2.19-22.55C815.36,805.06,787.8,811.44,761,807.8Z"/><path class="a" d="M613.7,623.47s-7,39.72-9.92,63a6.12,6.12,0,0,0,6.08,6.87h7.87a6.12,6.12,0,0,0,6.08-5.45c1.66-15.38,6.54-58.36,10-64.43l-12.7,5.29Z"/><path class="f" d="M606.65,586.06l14.47,42.7L609.83,625a19.23,19.23,0,0,0-19.31,4.31L571,640.76s-.35-39.52,1.76-50.11S607,567.35,607,567.35Z"/><path class="f" d="M621.12,628.76s50.47-36.35,55.76-45.52V564.53s16.46,9.17,27.61,19A16.35,16.35,0,0,1,709,601.72c-5.85,15.07-17.17,43.58-20.77,48.22l-27.92-18.78a26.28,26.28,0,0,0-20.71-5.43Z"/><circle class="b" cx="619" cy="645.71" r="5.29"/><circle class="b" cx="614.76" cy="679.59" r="5.29"/><path class="e" d="M534.88,1044.41,537,973.12s69.12,72.59,172.17,14.7l22.3,28.06S650.76,1080.88,534.88,1044.41Z"/><path class="f" d="M679.29,714.53s27.94,5.65,34.3,9.18l-9.18-29Z"/><polygon class="b" points="692.65 711.7 700.87 705.41 703.77 714.12 692.65 711.7"/><rect class="g" width="1262.35" height="2194.12"/></svg>