<svg xmlns="http://www.w3.org/2000/svg" width="1262.35" height="2194.12" viewBox="0 0 1262.35 2194.12"><defs><style>.a{fill:#781e00;}.b{fill:#a12800;}.c{fill:#c74218;}.d{fill:none;}</style></defs><title>4_girl_hair_5</title><path class="a" d="M553.59,261.35c-4.46,6.36-8.5,13.13-10.85,20.3q1.15-2.07,2.38-4.1s-14.3,79.76,76.85,99.73C580.6,355,550.51,309.06,553.59,261.35Z"/><path class="a" d="M618.59,262.35a87.07,87.07,0,0,0-4.91,26.29c.16-1,.33-2,.51-3,0,0-1,80,112.95,83.7C674.94,357.64,630.79,313.8,618.59,262.35Z"/><path class="b" d="M826.44,407.74s30.77-2.39,54.6-13A250.68,250.68,0,0,1,835,352.42c1.83-.65,24.74-3.54,43.27-28.46a90.23,90.23,0,0,1-17.67-.13c-22.47-2.27-40.75-19.06-45.65-41.1-10.36-46.58-42.72-136.21-138-131.49,0,0,32.61-18.77,54.12-12.71,0,0-40-28.94-105.65,9.88,0,0-48.84-26.79-98-3.75,0,0,27.89-.48,40,13.63,0,0-96.24,13.51-109.28,129.51a77.31,77.31,0,0,1-43.18,60.82,169,169,0,0,1-29.83,10.92s35.77,22.82,63.76,20.87c0,0-31.47,26.21-43.69,27.33,0,0,34.71,24.23,66.82,18.48,0,0-14.76,32.84-35.94,41.31,0,0,31.3,11.2,48.05,8.41,0,0-4.08,8.5,29,35.12s15.61,50.68,15.61,50.68,30.09-1.87,38.69-23.72c0,0-36.31-26.39-42.75-52.2,0,0-34.21-1.8-44.18-52.7-8.94-45.64,22-41.6,32.07-27.72,0,0,2.19-73.6,30.26-123.75,2.35-7.17,6.39-13.94,10.85-20.3-3.08,47.71,27,93.64,68.38,115.93a187,187,0,0,0,21.61,3.37s-41.15-22-29.9-92a87.07,87.07,0,0,1,4.91-26.29c12.2,51.45,56.35,95.29,108.55,107l1.27,0s-38.23-24.44-26.1-87.93c0,0,10.92,61.42,70.35,79.32l-4.14,43.73s6.59-10.21,19-9.39,18.1,29.49,10.32,47.92-13,37.61-42.41,42.78a147.12,147.12,0,0,1-32.26,45.32s9.93,12.44,42.81,17.51c0,0-11.07-23.22-6.41-35,7.39-18.73,40.52-39.51,40.77-61.89,0,0,22.19-4.19,49.6-18.59C849.94,433.16,831.55,416,826.44,407.74Z"/><path class="a" d="M524.06,483.71s-35,.56-43.65-50.59c-7.18-42.59,22-41.6,32.07-27.72,0,0,.18-6.21,1.13-16.25-7.13-17.2-9.6-60.34-10-79.09-36,47.65-97.42,56.42-108.64,55.11,12.6,6.62,35,16.56,53.86,15.24l-1.08.89c7-3.2,13.6-7.72,20.86-10.95-9.85,24.23-33.45,34.12-57.78,35.76a20.43,20.43,0,0,1-5.69,1.63s34.71,24.23,66.82,18.48c0,0-14.76,32.84-35.94,41.31,0,0,31.3,11.2,48.05,8.41,0,0-4.08,8.5,29,35.12s15.61,50.68,15.61,50.68,30.09-1.87,38.69-23.72C567.34,538,534.29,510.88,524.06,483.71Z"/><path class="a" d="M820.59,351.35c5.5.69,11,2.32,16.51,3.6-.71-.84-1.43-1.68-2.14-2.53,1.83-.65,24.74-3.54,43.27-28.46-1.12.11-2.28.18-3.45.24-11.11,8.41-57.78,26.09-95.9,6C776,318.67,766.67,295.82,762,285c-9.62,46.28,9.33,75.49,10.63,75.82l-3.73,39.44-.41,4.29a19.79,19.79,0,0,1,18-8.39c12.42.82,17.42,28.64,11.32,46.92-6.33,19-14,35-42.41,42.78a147.12,147.12,0,0,1-32.26,45.32s9.93,12.44,42.81,17.51c0,0-11.07-23.22-6.41-35,7.39-18.73,40.52-39.51,40.77-61.89,0,0,22.19-4.19,49.6-18.59,0,0-18.39-17.15-23.5-25.42,0,0,30.47-2.37,54.26-12.83C855.72,390.35,833.69,372.94,820.59,351.35Z"/><path class="c" d="M522.65,187.24s114.35,60.35,228.7-5.3a75.15,75.15,0,0,1,25.41,28.59S645.47,250.76,493,214.76C493,214.76,501.47,195.71,522.65,187.24Z"/><rect class="d" width="1262.35" height="2194.12"/></svg>