<svg xmlns="http://www.w3.org/2000/svg" width="1262.35" height="2194.12" viewBox="0 0 1262.35 2194.12"><defs><style>.a{fill:#222b0e;}.b{fill:#2a3612;}.c{fill:#354417;}.d{fill:#556635;}.e{fill:none;}</style></defs><title>4_girl_hair_1</title><path class="a" d="M834.59,325.35c-41.38-35.73-57.11-86.49-68.82-137.32a106.67,106.67,0,0,0-13.36,16.85s5.88,12.84,16.65,48c6.73,22,15.38,52.74,25.7,94.57,26.83,108.71-16.94,203.29-16.94,203.29,43.4-35.51,78.86-128.8,90.11-214.29C854.28,339.14,844.43,333.23,834.59,325.35Z"/><path class="b" d="M841.35,180.88c-31.71-27.66-59.81-9.15-75.58,7.15,11.71,50.83,27.44,101.59,68.82,137.32,9.84,7.88,19.69,13.79,33.34,11.12q1.46-11,2.35-21.8C875.19,255.83,867.43,203.63,841.35,180.88Z"/><path class="c" d="M490.88,396.76s-4.23,85.89,58.24,174.83c0,0-44.47-132.35-17-225.53,0,0,65.65-9.53,83.65-78.35,0,0,7.41,62.47-24.35,85.76,0,0,67.76,0,74.12-96.35,0,0,21.17,79.41,84.7,102.7,0,0,8.47,150.36-18,198,0,0,48.31-38.83,54.44-163.09,0,0,12.62,4.27,14.39,20.15,0,0,75.17-256.23-157.77-256.23-214,0-184.59,208.23-164.47,260.11C480,407.47,484.45,402,490.88,396.76Z"/><path class="b" d="M503,284.49c-9.48,10.83-21.39,18.27-35.74,13.75-6.83,49.74,3.21,98.82,11.63,120.52,1-10.18,4.74-15.65,10.17-20.45C486.92,359.34,492.05,321.56,503,284.49Z"/><path class="b" d="M784.88,298.06c5,33.72,2.92,62.88,2.76,97.05,2.93,1.33,12,6.48,13.48,19.77,0,0,13.11-44.7,11.41-96.77C800.41,325.59,796.17,322.76,784.88,298.06Z"/><path class="b" d="M546.59,323.21v0c-1,.06-2,.11-3,.14,1,0,2-.08,3-.14,0-10.31.11-20.61.44-30.92-7.57,17-12,35.43-14.47,53.71,4.49-.76,48.36-9.13,72.33-51.16A85.31,85.31,0,0,1,546.59,323.21Z"/><path class="d" d="M748.08,192.57C732.05,218,705,237,676.27,246c32.53.31,68.73-8.83,96.17-27.76C765.06,209,757.15,200.14,748.08,192.57Z"/><path class="b" d="M739.59,288.35c-1.69,14.34,1.6,30.1-2.73,44.29C712,322.2,689.32,302.53,674.05,280c11.12,25,34.18,63.77,74.94,79.35C749.36,335.42,746.91,311.66,739.59,288.35Z"/><path class="d" d="M536.68,193c-8.94,5.47-17.34,11.86-23,20.62,22.14,19.54,52.63,29.69,83,32.12C571.29,236.09,550.06,216.48,536.68,193Z"/><rect class="e" width="1262.35" height="2194.12"/></svg>