<svg xmlns="http://www.w3.org/2000/svg" width="1262.35" height="2194.12" viewBox="0 0 1262.35 2194.12"><defs><style>.a{fill:#93c0cc;}.b{fill:#a62977;}.c{fill:#525252;}.d{fill:#db55aa;}.e{fill:none;}</style></defs><title>4_girl_drivers_5</title><path class="a" d="M1043,1946.81l7,26.32a89.54,89.54,0,0,0-14.07,3.23c-2.27-8.39-4.59-16.95-6.93-25.62C1033.88,1950,1038.67,1949.05,1043,1946.81Z"/><path class="b" d="M1043,1946.81c0-.09-112-419.57-149.67-561.93-6.4-4.92-7.87-13.64-8.61-23.47-4,1.17-8,2.3-12,3.2C919.28,1539.68,914,1524.72,1029,1950.74,1033.88,1950,1038.67,1949.05,1043,1946.81Z"/><path class="a" d="M883.49,1344.5c-.84-3.2-1.3-4.92-1.3-4.93l-15.11,3.85,5.64,21.19c4-.9,8-2,12-3.2C884.34,1356,884.16,1350.18,883.49,1344.5Z"/><path d="M1050,1973.13l36.56,140.07s-4.91,5.07-11.37.38c-2-1.47-11-32.69-39.26-137.22A89.54,89.54,0,0,1,1050,1973.13Z"/><path d="M877.15,1296A61.18,61.18,0,0,0,841.71,1309l25.37,34.39,15.11-3.85,2-27.73C879.93,1307.78,877.76,1302.11,877.15,1296Z"/><path class="c" d="M863.58,1303.59l9.31,32.94,5.38-.62,1.69-29.84a25.25,25.25,0,0,1-1.77-4.55A31.52,31.52,0,0,0,863.58,1303.59Z"/><path class="b" d="M1063.75,2077.88s20.93-110.69,94.48-106.7,93.37,68.49,82.71,112.13c-5.81,23.77-30.45,56.45-84.26,57.29-62,1-81.51-27-81.51-27Z"/><path class="a" d="M1093.94,2008.22c11.17-13.79,30.15-22.54,56.22-9.19,18.4,9.42,33,25.47,38.26,56.08,3.16,18.44-1.54,42.83-18.67,64.6A52.3,52.3,0,0,1,1132,2139.8l-.26,0c-41.75-4.8-56.56-26.24-56.56-26.24l-11.42-35.7S1070.77,2039.49,1093.94,2008.22Z"/><path d="M1154.56,2031.57a91.44,91.44,0,0,1,6,13.57,3.34,3.34,0,0,1-1.87,4.2c-15.94,6.55-56,23.31-78.57,35.38a3.34,3.34,0,0,1-4.88-2.45h0a3.35,3.35,0,0,1,1.1-3c19.18-17,58.13-40,73.65-49A3.32,3.32,0,0,1,1154.56,2031.57Z"/><path d="M1163.05,2086.52l-82.91,9.07a3.05,3.05,0,0,1-3.35-2.58h0a3,3,0,0,1,2.17-3.37l82.65-23.8a3,3,0,0,1,3.88,2.67,126.33,126.33,0,0,1,.27,15.08A3.06,3.06,0,0,1,1163.05,2086.52Z"/><path d="M1162,2115.09c-21.21,3.51-62.26-4.3-81.51-9.22a3.22,3.22,0,0,1-2.2-2.72h0c-.32-2.07,1.08-3.83,2.82-3.53,28.55,4.83,62.56,2.21,80.36.21,1.67-.18,3.14,1.5,3.07,3.5-.14,3.43-.28,6.74-.4,9A2.79,2.79,0,0,1,1162,2115.09Z"/><path d="M1073.74,2067.78c25.56-41.77,49-57,54.88-60.36a2.68,2.68,0,0,1,2.82.11,62.17,62.17,0,0,1,7.66,6.2,2.69,2.69,0,0,1-.35,4.2c-13,8.59-40.09,28-60.64,53a2.69,2.69,0,0,1-4.74-1.3h0A2.73,2.73,0,0,1,1073.74,2067.78Z"/><path class="d" d="M1236.15,2042.85s-22-7.93-44.53-5.76c0,0-13.33-52.2-68.34-52C1123.28,1985.1,1205.9,1951.89,1236.15,2042.85Z"/><path class="a" d="M879.79,1276.48l-27.85-102.42c-7.88-10.66-45.17,1-45.49,12.35L841.71,1309A61.18,61.18,0,0,1,877.15,1296,46.19,46.19,0,0,1,879.79,1276.48Z"/><path d="M821.46,1193.1,839.17,1177l1.58,5.5-9.07,7.79c-2.24,1.93-4.5,3.75-6.29,5l0,.12a54.29,54.29,0,0,1,8.11,1.23l12,2.4,1.57,5.45-9.08,7.91a50.07,50.07,0,0,1-6.27,4.84l0,.12c2.51.19,5.14.67,8.07,1.19l11.95,2.34,1.52,5.32-23.93-5.51-1.56-5.44,9.3-8.17a38.2,38.2,0,0,1,6-4.57l0-.12a42.38,42.38,0,0,1-7.63-1.18l-12.4-2.66Z"/><path d="M856.22,1236.43l-20.65,5.92-1.49-5.21,20.65-5.92Z"/><path d="M838.18,1251.45l20.65-5.92,1.63,5.68-6.74,15.92a66.36,66.36,0,0,1-4.64,9.17l.07.11a49.15,49.15,0,0,1,8.31-3l8.65-2.48,1.4,4.91-20.65,5.92-1.51-5.27,6.81-15.81a76.07,76.07,0,0,1,4.73-9.52l-.08-.17a72.7,72.7,0,0,1-8.4,2.86l-8.82,2.53Z"/><rect class="e" width="1262.35" height="2194.12"/></svg>