<svg xmlns="http://www.w3.org/2000/svg" width="1262.35" height="2194.12" viewBox="0 0 1262.35 2194.12"><defs><style>.a{fill:#ff6969;}.b{fill:#c24848;}.c{fill:#fff;}.d{fill:#a13232;}.e{fill:#b8b8b8;}.f{fill:none;}</style></defs><title>4_girl_shirt_1</title><path class="a" d="M716.83,983.67c-12.71-16.09-31.75-45.47-22.65-68C734.41,816.18,751,741.18,751,741.18c4.86,31.1,9.24,62.77,13.85,89.47,26.57.72,53.69-3.2,78.58-12.45-4.54-46.4-9.27-96.87-13.37-136.14-9.55-91.42-103.5-87.89-128.9-87.55h-2.4c-7.67,0-12.55-1.3-15.67-2.95-10.87,9-39.74,25.54-62,37.18a395.36,395.36,0,0,1-17.21-41c-4.73.49-14.52,1.6-26.77,3.53h0c-16.87,2.66-38.37,6.86-57.66,13.11-39.18,12.71-56.12,50.83-70.94,86.83-7.95,19.29-25.93,36-40.9,47.25,1.41,12.41,7.86,45.7,37.07,68.18,1.78-1,3.52-2.08,5.2-3.1h0c31.58-19.22,44-33.87,44.17-34s12.7,25.41,29.64,81.88c7.15,23.81,5.44,109.71,1.08,201.11,70.92,30.42,170.45,11.36,221.41-33.34l-.59-.87A416.6,416.6,0,0,1,716.83,983.67Z"/><path class="b" d="M486.73,624.81c-17.58,17.71-28.36,42.53-38.2,66.43-7.95,19.29-25.93,36-40.9,47.25,1.41,12.41,7.86,45.7,37.07,68.18,1.78-1,3.52-2.08,5.2-3.1h0c22.66-13.79,36.4-24.1,44.17-34,2.74-24.85-8.47-30.35,14.94-60.19,3.12-4,12.79-16.35,16-20.5C500.41,662.29,491.23,645.35,486.73,624.81Z"/><path class="b" d="M830.06,682.06c-2.64-25.2-11.69-43.18-23.95-56-1.82,31.66-34.64,87.07-56.91,104.12,0,0,.16,8.83,1.19,16.55,4.73,30.31,10,57.82,14.46,83.93,26.57.72,53.69-3.2,78.58-12.45C838.89,771.8,834.16,721.33,830.06,682.06Z"/><path class="c" d="M712.84,866.86c10.13-28,18.71-54.15,25-74.77,6.63-21.74,10-35.6,12.56-45.37-47.84-39.47-225.8-46.37-245.8-26.37-12,12.8-13.32,31.27-10.23,49.86,1.79,3.72,11.5,24.63,24.56,65.75C584.08,820.35,657.33,828.25,712.84,866.86Z"/><path class="c" d="M694.54,914.79c3.18-7.87,6.27-15.76,9.26-23.59-54.16-25.73-118.23-27.27-176.69-16.73.73,9.39,1.16,20.72,1.34,33.56C584,900.61,641.06,898.79,694.54,914.79Z"/><path class="a" d="M745.6,1018.37a416.6,416.6,0,0,1-28.77-34.7c-12.71-16.09-31.75-45.47-22.65-68l.36-.92c-53.48-16-110.52-14.18-166.09-6.76.56,38.49-1.09,90.56-3.67,144.55,70.92,30.42,170.45,11.36,221.41-33.34Z"/><path class="a" d="M703.8,891.2c3.13-8.21,6.15-16.35,9-24.34-55.51-38.61-128.76-46.51-193.92-30.9q2.33,7.34,4.78,15.51c1.52,5,2.64,12.9,3.41,23C585.57,863.93,649.64,865.47,703.8,891.2Z"/><path class="d" d="M493.67,770c-5.33-20.79,3.25-42.35,15.33-60.62-1.31,1.14-41.77,30.54-46.89,86.35C482,782.33,491.7,772.18,493.67,770Z"/><path class="d" d="M749.2,730.17A116.14,116.14,0,0,1,745,742.92q2.92,1.85,5.43,3.8C750.8,745.05,750.53,735.71,749.2,730.17Z"/><path class="e" d="M675.2,805.76c13,4.75,27.47.77,40.76-3.23,9.41-2.83,16.54-6.32,21.87-10.44,7.07-23.47,11.12-39.45,12.56-45.37q-2.5-2-5.43-3.8C732.85,773.39,708.11,797.89,675.2,805.76Z"/><path class="c" d="M421.34,727.14c-4.61,4.2-9.29,8-13.71,11.35,1.41,12.41,7.86,45.7,37.07,68.18,1.78-1,3.52-2.08,5.2-3.1h0c4.39-2.67,8.39-5.24,12.05-7.71C442.22,778.25,429.55,753.18,421.34,727.14Z"/><path class="c" d="M761,807.8q1.9,11.66,3.83,22.85c26.57.72,53.69-3.2,78.58-12.45-.73-7.43-1.46-15-2.19-22.55C815.36,805.06,787.8,811.44,761,807.8Z"/><path class="e" d="M613.7,623.47s-7,39.72-9.92,63a6.12,6.12,0,0,0,6.08,6.87h7.87a6.12,6.12,0,0,0,6.08-5.45c1.66-15.38,6.54-58.36,10-64.43l-12.7,5.29Z"/><path class="c" d="M606.65,586.06l14.47,42.7L609.83,625a19.23,19.23,0,0,0-19.31,4.31L571,640.76s-.35-39.52,1.76-50.11S607,567.35,607,567.35Z"/><path class="c" d="M621.12,628.76s50.47-36.35,55.76-45.52V564.53s16.46,9.17,27.61,19A16.35,16.35,0,0,1,709,601.72c-5.85,15.07-17.17,43.58-20.77,48.22l-27.92-18.78a26.28,26.28,0,0,0-20.71-5.43Z"/><circle class="d" cx="619" cy="645.71" r="5.29"/><circle class="d" cx="614.76" cy="679.59" r="5.29"/><path class="b" d="M534.88,1044.41,537,973.12s69.12,72.59,172.17,14.7l22.3,28.06S650.76,1080.88,534.88,1044.41Z"/><polygon class="d" points="698.35 734.47 694.17 745.24 703.18 752.47 691.76 754.24 690 765.65 682.76 756.65 671.99 760.83 676.17 750.06 667.16 742.82 678.58 741.06 680.35 729.64 687.58 738.64 698.35 734.47"/><rect class="f" width="1262.35" height="2194.12"/></svg>