<svg xmlns="http://www.w3.org/2000/svg" width="1262.35" height="2194.12" viewBox="0 0 1262.35 2194.12"><defs><style>.a{fill:#966e40;}.b{fill:#c49a6c;}.c{fill:#b7b7b7;}.d{fill:#302e2c;}.e{fill:#fff987;}.f{fill:none;}</style></defs><title>4_girl_shoes_2</title><polygon points="434.76 2150.29 443.23 2171.47 455.23 2153.82 434.76 2150.29"/><polygon points="478.18 2156.65 486.65 2177.82 499 2155.94 478.18 2156.65"/><polygon points="519.12 2151 527.59 2172.18 539.94 2150.29 519.12 2151"/><polygon points="550.17 2133.35 564.65 2153.82 571 2132.65 550.17 2133.35"/><polygon points="593.23 2076.18 607.7 2096.65 614.06 2075.47 593.23 2076.18"/><polygon points="624.29 2047.94 638.76 2068.41 645.12 2047.23 624.29 2047.94"/><polygon points="627.47 2126.29 635.94 2147.47 647.94 2129.82 627.47 2126.29"/><polygon points="670.88 2132.65 679.35 2153.82 691.7 2131.94 670.88 2132.65"/><polygon points="711.82 2127 720.29 2148.18 732.65 2126.29 711.82 2127"/><polygon points="742.88 2109.35 757.35 2129.82 763.7 2108.65 742.88 2109.35"/><polygon points="790.53 2039.47 810.29 2052.18 808.17 2030.29 790.53 2039.47"/><polygon points="815.23 2011.23 837.82 2019.71 835.37 1999.2 815.23 2011.23"/><path class="a" d="M484.78,2085.12l-.25.59s-101.65,50.82-40.24,73.05,124.94-9.52,126-24.35c0-.25.05-.52.08-.78a59.24,59.24,0,0,0-3.78-7.28A89,89,0,0,0,484.78,2085.12Z"/><path class="b" d="M649.82,2029.07c-3.87-25.13-18-52.4-20-56.19l-.24-.47c1.06-12.7-10.59-21.17-10.59-21.17-16.94,31.76-50.12,59.52-74.59,59.52-12.61,0-4.47-32.47-4.47-32.47-6.75,5.9-10.76,13.83-13.52,22.5l-.15.27c-21.38,37.76-39.19,78.73-41.49,84.06a89,89,0,0,1,81.81,41.23,59.24,59.24,0,0,1,3.78,7.28c1.56-15.15,17.92-46.87,17.92-46.87H601c13.54-5.7,31.39-23.54,41.62-34.61A27.84,27.84,0,0,0,649.82,2029.07Z"/><path class="c" d="M540.59,2016.35c35.36,2.66,66.82-26.74,84.69-58.47a30.6,30.6,0,0,0-6.28-6.64c-16.94,31.76-50.12,59.52-74.59,59.52-12.61,0-4.47-32.47-4.47-32.47a39.56,39.56,0,0,0-7.78,9.42C531.3,2000.77,530.22,2015.56,540.59,2016.35Z"/><path class="d" d="M625.28,1957.88c-17.87,31.73-49.33,61.13-84.69,58.47-10.37-.79-9.29-15.58-8.43-28.64a61.48,61.48,0,0,0-5.74,13.08l-.15.27c0,13.2,5.62,26.85,17.32,25.29,34.76-2.83,64-25.3,86.24-53.47l-.24-.47A22.13,22.13,0,0,0,625.28,1957.88Z"/><path class="a" d="M729.59,2068.35c-18-10.25-36.64-5.9-54.8-5.67-15.85,11.29-84.08,62.81-27.4,75.42,55.17,12.27,106.73-15.76,119.06-33.15C758,2090.09,745.34,2077.69,729.59,2068.35Z"/><path class="b" d="M834.61,1983.15c-7.6-26.33-36.22-54.61-36.22-54.61-2.82-18-14.57-18.6-14.57-18.6-10.23,28.59-46.21,74.29-60,70.94-3.88-.94-2.47-14.35-2.47-14.35-1.17-5.18-3.88-13.88-3.88-13.88-5.94,6.71-4.35,11.64-4.35,21.17-17.6,43.17-35.18,86.67-35.18,86.67s-1.17.78-3.15,2.19c18.16-.23,36.85-4.58,54.8,5.67,15.75,9.34,28.43,21.74,36.86,36.6,1.92-2.7,2.9-5.15,2.78-7.14-.85-14.84,11.75-49.57,11.75-49.57l12.6-1.62c12.7-7.39,28.12-27.38,36.85-39.66A27.87,27.87,0,0,0,834.61,1983.15Z"/><path class="d" d="M798.39,1928.54c-1.29-8.21-4.43-12.8-7.48-15.36-13.73,32.35-36.33,63.52-69,76.3a24.74,24.74,0,0,0,1.7,1.87,24.74,24.74,0,0,1-1.7-1.87c-.76.3-1.53.59-2.3.87.77-.28,1.54-.57,2.3-.87-8.14-9.87-7.42-23.68-5.14-36-5.06,6.29-3.63,11.2-3.63,20.31l-1,2.35c1.29,11.52,2.66,26.26,13.84,22.54,31.53-11.3,57-41.27,73-69.59Z"/><path class="c" d="M721.89,1989.48c32.69-12.78,55.29-44,69-76.3a13.23,13.23,0,0,0-7.09-3.24c-10.23,28.59-46.21,74.29-60,70.94-3.88-.94-2.47-14.35-2.47-14.35-1.17-5.18-3.88-13.88-3.88-13.88-.26.29-.49.58-.72.86C714.47,1965.8,713.75,1979.61,721.89,1989.48Z"/><path class="d" d="M551.59,2126.35c-35.2,20.53-84.72,23.84-118.69-4.06-11.53,13.31-13.9,27.32,11.39,36.47,61.41,22.24,124.94-9.52,126-24.35.9-12.62,13.31-38.27,17-45.62.14-6,.51-12.07.52-18C578.55,2092.24,571.33,2115.19,551.59,2126.35Z"/><path d="M601,2086.76c.41-.17.82-.35,1.24-.55a81,81,0,0,0-8.2-19,12,12,0,0,1-5.07.91c-.4.9-.79,1.8-1.18,2.7,0,5.94-.38,12-.52,18,.64-1.29,1-2,1-2Z"/><path class="d" d="M649.82,2029.07c-.52-3.38-1.23-6.8-2.07-10.19a148.26,148.26,0,0,1-52.16,47.47,9.4,9.4,0,0,1-1.55.82,81,81,0,0,1,8.2,19c13.37-6.22,30.46-23.33,40.38-34.06A27.84,27.84,0,0,0,649.82,2029.07Z"/><path class="d" d="M748.59,2094.35c-8,11-21,17-33,19-27.43,5.88-62.52,11.74-85.57-7.76-8.32,13.88-7.57,27,17.37,32.51,63.75,14.18,122.69-25.46,121.84-40.29-.72-12.61,8.26-39.54,11-47.38-1.72-6.43-3.35-12.95-5.11-19.35C768.43,2053,763.31,2075.76,748.59,2094.35Z"/><path d="M793.58,2046.62l.34-.21a87.77,87.77,0,0,0-9.88-20,47.51,47.51,0,0,1-8.19,2.25l-.75,2.45c1.76,6.4,3.39,12.92,5.11,19.35.48-1.39.77-2.19.77-2.19Z"/><path class="d" d="M834.61,1983.15a70.84,70.84,0,0,0-4.12-10.7c-10.68,22.72-24.67,45.83-46.45,53.93a87.77,87.77,0,0,1,9.88,20c12.63-7.53,27.85-27.27,36.51-39.45A27.87,27.87,0,0,0,834.61,1983.15Z"/><path class="d" d="M502.13,2083c6.08-13.4,26.41-58,31.4-65.89l7.53,1.12-31.51,68.29a4.1,4.1,0,0,1-5.29,1.94h0A4.1,4.1,0,0,1,502.13,2083Z"/><path class="d" d="M694,2058.67c4.62-13.45,20.85-60.14,25.87-68.08l9.53,2.12-27.66,68.84a4.12,4.12,0,0,1-5.46,2.25h0A4.11,4.11,0,0,1,694,2058.67Z"/><path class="e" d="M532.88,2079.47a4,4,0,0,1-2.25-.69c-17.42-11.82-27.77-7.71-27.87-7.66a4,4,0,0,1-3.29-7.3c.57-.25,14.29-6.16,35.66,8.34a4,4,0,0,1-2.25,7.31Z"/><path class="e" d="M538.05,2062.53a4,4,0,0,1-2.24-.69c-17.42-11.82-27.77-7.71-27.87-7.66a4,4,0,0,1-3.29-7.3c.57-.25,14.28-6.16,35.65,8.34a4,4,0,0,1-2.25,7.31Z"/><path class="e" d="M545.11,2045.59a4,4,0,0,1-2.24-.69c-17.42-11.82-27.77-7.71-27.87-7.67a4,4,0,1,1-3.29-7.29c.57-.26,14.28-6.16,35.65,8.34a4,4,0,0,1-2.25,7.31Z"/><path class="e" d="M718.53,2055.47a4.31,4.31,0,0,1-1.27-.2c-15.8-5.27-27.82-4.07-28-4.06a4,4,0,0,1-.87-8c.55-.06,13.78-1.44,31.35,4.42a4,4,0,0,1-1.26,7.79Z"/><path class="e" d="M722.76,2039.94a4,4,0,0,1-1.26-.2c-15.8-5.27-27.83-4.07-28-4.06a4,4,0,0,1-.88-8c.56-.06,13.79-1.44,31.36,4.42a4,4,0,0,1-1.27,7.79Z"/><path class="e" d="M729.82,2018.77a4,4,0,0,1-1.26-.21c-15.8-5.27-27.83-4.07-27.95-4a4,4,0,0,1-.88-8c.56-.06,13.79-1.44,31.36,4.42a4,4,0,0,1-1.27,7.8Z"/><rect class="f" width="1262.35" height="2194.12"/></svg>