<svg xmlns="http://www.w3.org/2000/svg" width="1262.35" height="2194.12" viewBox="0 0 1262.35 2194.12"><defs><style>.a{fill:#7d7d7d;}.b{fill:#fff;}.c{fill:#758bb7;}.d{fill:#c4c4c4;}.e{fill:#8c8c8c;}.f{fill:#78626c;}.g{fill:none;}</style></defs><title>4_girl_shoes_6</title><polygon class="a" points="434.76 2150.29 443.23 2171.47 455.23 2153.82 434.76 2150.29"/><polygon class="a" points="478.18 2156.65 486.65 2177.82 499 2155.94 478.18 2156.65"/><polygon class="a" points="519.12 2151 527.59 2172.18 539.94 2150.29 519.12 2151"/><polygon class="a" points="550.17 2133.35 564.65 2153.82 571 2132.65 550.17 2133.35"/><polygon class="a" points="593.23 2076.18 607.7 2096.65 614.06 2075.47 593.23 2076.18"/><polygon class="a" points="624.29 2047.94 638.76 2068.41 645.12 2047.23 624.29 2047.94"/><polygon class="a" points="627.47 2126.29 635.94 2147.47 647.94 2129.82 627.47 2126.29"/><polygon class="a" points="670.88 2132.65 679.35 2153.82 691.7 2131.94 670.88 2132.65"/><polygon class="a" points="711.82 2127 720.29 2148.18 732.65 2126.29 711.82 2127"/><polygon class="a" points="742.88 2109.35 757.35 2129.82 763.7 2108.65 742.88 2109.35"/><polygon class="a" points="790.53 2039.47 810.29 2052.18 808.17 2030.29 790.53 2039.47"/><polygon class="a" points="815.23 2011.23 837.82 2019.71 835.37 1999.2 815.23 2011.23"/><path class="b" d="M538.59,2023.35c35.84,1.71,71.67-24.26,90.73-56.15-1.8-9.76-10.32-16-10.32-16-16.94,31.76-50.12,59.52-74.59,59.52-12.61,0-4.47-32.47-4.47-32.47-6.75,5.9-10.76,13.83-13.52,22.5l-.15.27q-1.17,2.06-2.32,4.13C524.92,2014.93,528.69,2023.35,538.59,2023.35Z"/><path class="c" d="M522.27,2046.09c-3.64,6.52-7.48,13-11.68,19.26,4.2-6.3,8-12.74,11.68-19.26-3.9-2-7.81-4-11.68-5.74,3.87,1.77,7.78,3.69,11.68,5.74,3.13-5.61,6.09-11.27,9-17a79.27,79.27,0,0,0-14.66-4.77,79.27,79.27,0,0,1,14.66,4.77c1.08-2.12,2.14-4.24,3.2-6.36-6.84-2.06-9.68-9.33-10.5-17.57-21.85,39.29-35,69.57-35,69.57s-58.47,23.3-61.1,42.94c-2.36,17.14,3.55,31.93,21.69,32.65,40.14,1.79,86.64,3.55,121.06-18.81,1.37-8,5.91-19.49,10.05-28.8C570.65,2077.4,546.79,2059,522.27,2046.09Z"/><path class="d" d="M531.25,2029.12c-2.89,5.7-5.85,11.36-9,17,24.52,12.88,48.38,31.31,58.43,56.65,2.58-5.82,5-10.79,6.39-13.58C575.56,2063.51,556.45,2040.11,531.25,2029.12Z"/><path class="d" d="M568.34,2018.73a83.32,83.32,0,0,1-17.78,4.17c23.78,15,43.43,35.92,55.39,61.37a82.42,82.42,0,0,0,8.07-5.41C604.31,2055.45,589.6,2032.78,568.34,2018.73Z"/><path class="c" d="M649.82,2029.07c-3.87-25.13-18-52.4-20-56.19l-.24-.47a19.83,19.83,0,0,0-.27-5.21c-13.72,23-36.13,42.83-61,51.53,21.26,14,36,36.72,45.68,60.13,10.54-7.9,21.44-19,28.6-26.71A27.84,27.84,0,0,0,649.82,2029.07Z"/><path class="c" d="M550.56,2022.9a72.52,72.52,0,0,1-12,.45,14.42,14.42,0,0,1-4.14-.59c-1.06,2.12-2.12,4.24-3.2,6.36,25.2,11,44.31,34.39,55.84,60l1.2-2.4H601a45,45,0,0,0,5-2.49C594,2058.82,574.34,2037.9,550.56,2022.9Z"/><path class="b" d="M540.59,2016.35c35.36,2.66,66.82-26.74,84.69-58.47a30.6,30.6,0,0,0-6.28-6.64c-16.94,31.76-50.12,59.52-74.59,59.52-12.61,0-4.47-32.47-4.47-32.47a39.56,39.56,0,0,0-7.78,9.42C531.3,2000.77,530.22,2015.56,540.59,2016.35Z"/><path class="b" d="M551.59,2126.35c-26,13.59-74,22.4-106.94,7-7-3.28-10.78-10.75-16.75-15.65-3.72,16.71-1.61,35.77,16.39,41.06,62.66,18.43,117-7.48,126-19.29,6.12-8,13.31-43.33,17-50.68.14-6,.51-12.07.52-18C578.55,2092.24,571.69,2115.85,551.59,2126.35Z"/><path class="e" d="M601,2086.76c.41-.17.82-.35,1.24-.55a81,81,0,0,0-8.2-19,12,12,0,0,1-5.07.91c-.4.9-.79,1.8-1.18,2.7,0,5.94-.38,12-.52,18,.64-1.29,1-2,1-2Z"/><path class="b" d="M649.82,2029.07c-.52-3.38-1.23-6.8-2.07-10.19a148.26,148.26,0,0,1-52.16,47.47,9.4,9.4,0,0,1-1.55.82,81,81,0,0,1,8.2,19c13.37-6.22,30.46-23.33,40.38-34.06A27.84,27.84,0,0,0,649.82,2029.07Z"/><path class="f" d="M489,2074.76s30.47-78.35,38.94-79.76,26.12,0,36,11.29-41.78,78.14-41.78,78.14S500.88,2071.23,489,2074.76Z"/><path class="b" d="M530.06,2081.29a3,3,0,0,1-2.34-1.11c-9.37-11.65-25.06-28.42-30.59-29.27a3,3,0,0,1-.2-5.9c1.43-.32,29.93-6.63,47.86-5.2-7.24-8.11-20.33-21.4-31.21-25a3,3,0,1,1,1.9-5.69c17.59,5.86,38.63,32.33,39.52,33.45a3,3,0,0,1-3.47,4.65c-8.86-3.55-31.27-.54-45.28,2,10.23,7.71,23.06,23.33,26.14,27.16a3,3,0,0,1-2.33,4.88Z"/><path class="b" d="M490.53,2071.41a3,3,0,0,1-.79-5.89c1.36-.37,28.6-7.77,44.45-9.61-12.35-11.51-25.1-22.47-27.94-23.37a3,3,0,0,1-.52-5.77c1.53-.56,37.7-13.65,59.41-10a3,3,0,1,1-1,5.91c-15.13-2.51-39.14,4.18-50.29,7.72,8.28,6,21.21,18,29.56,26a3,3,0,0,1-2.24,5.16c-11.37-.67-49.48,9.68-49.86,9.79A3.11,3.11,0,0,1,490.53,2071.41Zm15.77-38.86h0Z"/><path class="b" d="M722.11,1996.75c35.78-2.67,68.19-32.81,83.23-66.78-3-9.46-17.64-12.62-17.64-12.62,4.24,20.47-37.05,63.22-61.34,66.19-7.39.91-4-3.21-4.3-12.54-.24-6.49-5.09-19.14-5.09-19.14-6,6.68-8,15-9.68,24l-.12.29c-.61,1.46-1.2,2.92-1.8,4.38C707.51,1990.05,712.28,1998,722.11,1996.75Z"/><path class="c" d="M708.68,2021.3c-2.82,6.91-5.85,13.78-9.25,20.54,3.4-6.76,6.43-13.63,9.25-20.54-4.12-1.56-8.23-3-12.3-4.27,4.07,1.28,8.18,2.71,12.3,4.27,2.42-6,4.68-11.93,6.85-17.93a78.75,78.75,0,0,0-15.14-2.95,78.75,78.75,0,0,1,15.14,2.95c.81-2.24,1.61-4.47,2.4-6.71-7-1.21-10.75-8.09-12.56-16.16-16.91,41.66-26.23,73.31-26.23,73.31s-55.2,30.23-55.42,50.05c-.26,17.29,7.4,31.26,25.5,29.77,40.06-3.11,86.43-7,117.88-33.4.37-8.14,3.49-20.06,6.46-29.81C760.51,2046.49,734.58,2031.1,708.68,2021.3Z"/><path class="d" d="M715.53,2003.37c-2.17,6-4.43,12-6.85,17.93,25.9,9.8,51.83,25.19,64.88,49.12,1.86-6.09,3.66-11.32,4.69-14.25C763.69,2032.1,741.88,2011.2,715.53,2003.37Z"/><path class="d" d="M751.08,1988.54a83.14,83.14,0,0,1-17.14,6.3c25.43,12,47.48,30.37,62.44,54.18a83.6,83.6,0,0,0,7.35-6.36C791.25,2020.61,773.9,1999.9,751.08,1988.54Z"/><path class="c" d="M833.21,1988.89c-6.89-24.47-24.21-49.82-26.67-53.34l-.3-.43a19.67,19.67,0,0,0-.9-5.15c-10.83,24.46-30.66,46.91-54.26,58.57,22.82,11.36,40.17,32.07,52.65,54.12,9.5-9.12,19-21.42,25.14-30A27.85,27.85,0,0,0,833.21,1988.89Z"/><path class="c" d="M733.94,1994.84a72.91,72.91,0,0,1-11.83,1.91,14.44,14.44,0,0,1-4.18-.09c-.79,2.24-1.59,4.47-2.4,6.71,26.35,7.83,48.16,28.73,62.72,52.8.57-1.6.91-2.53.91-2.53l12.61-1.54a46.81,46.81,0,0,0,4.61-3.08C781.42,2025.21,759.37,2006.84,733.94,1994.84Z"/><path class="b" d="M747.54,2097.4c-24.15,16.65-70.73,31.24-105.29,20-7.38-2.41-12-9.36-18.53-13.5-1.66,17,2.76,35.7,21.27,38.76,64.43,10.67,115.19-21.66,122.71-34.47,5.1-8.69,7.94-44.63,10.69-52.37-.59-6-1-12-1.67-17.94C770.16,2060.26,766.22,2084.53,747.54,2097.4Z"/><path class="e" d="M791.77,2052.1l1.17-.7a80.79,80.79,0,0,0-10.46-17.91,12,12,0,0,1-4.92,1.53q-.43,1.39-.84,2.82c.71,5.9,1.08,11.94,1.67,17.94.48-1.36.77-2.14.77-2.14Z"/><path class="b" d="M833.21,1988.89c-.92-3.29-2.05-6.6-3.29-9.86a148.33,148.33,0,0,1-46,53.46,8.9,8.9,0,0,1-1.44,1,80.79,80.79,0,0,1,10.46,17.91c12.51-7.81,27.39-26.86,35.93-38.72A27.85,27.85,0,0,0,833.21,1988.89Z"/><path class="f" d="M679.14,2053.81s20.72-81.48,29-83.91,25.93-3.18,37.11,6.83-32,82.63-32,82.63S690.51,2048.85,679.14,2053.81Z"/><path class="b" d="M720.69,2055.3a3,3,0,0,1-2.45-.83c-10.72-10.42-28.33-25.16-33.93-25.33a3,3,0,0,1-.91-5.83c1.38-.49,28.9-10.22,46.87-11-8.18-7.17-22.79-18.77-34-21a3,3,0,1,1,1.19-5.88c18.17,3.68,42.28,27.39,43.3,28.4a3,3,0,0,1-2.88,5c-9.23-2.44-31.1,3.27-44.7,7.55,11.1,6.41,25.73,20.35,29.26,23.78a3,3,0,0,1,.06,4.24A3.06,3.06,0,0,1,720.69,2055.3Z"/><path class="b" d="M680.25,2050.3a3,3,0,0,1-1.5-5.76c1.3-.53,27.44-11.19,43-14.94-13.67-9.92-27.65-19.26-30.58-19.8a3,3,0,0,1-1.21-5.66c1.45-.75,35.75-18.14,57.74-17.18a3,3,0,1,1-.26,6c-15.33-.65-38.34,8.9-49,13.77,9,5,23.25,15.32,32.5,22.2a3,3,0,0,1-1.6,5.4c-11.36.71-47.93,15.62-48.3,15.77A3,3,0,0,1,680.25,2050.3Zm10.93-40.49h0Z"/><rect class="g" width="1262.35" height="2194.12"/></svg>