<svg xmlns="http://www.w3.org/2000/svg" width="1262.35" height="2194.12" viewBox="0 0 1262.35 2194.12"><defs><style>.a{fill:#57290c;}.b{fill:#6b3614;}.c{fill:#8c471a;}.d{fill:none;}</style></defs><title>4_girl_hair_3</title><path class="a" d="M492.48,352.22a4.15,4.15,0,0,0-.89,1.13c-15,31-29,64-19,99,3,14,7,29,20,39,21,14,61,26,42,55-9.83,16.08-34,19.38-49,7.78a11.6,11.6,0,0,1-1.5-1S535,594.53,567.34,538c0,0-30.93-24.91-42.35-52.59,0,0-34.88-.35-44.34-54.91-1.78-10.21-1.38-23.73,7.46-32.58A210,210,0,0,1,492.48,352.22Z"/><path class="a" d="M755.59,545.35c-9-7-10-20-6-30,6-16,25-19,38-29,10-7,18-14,22-25,14.51-42.57-.93-84.2-31.84-113.12,3.5,15.4,5,31.08,6.32,46.8,5.33.24,24.28,6.79,12.77,48-11.37,40.72-40.67,41.14-40.67,41.14s-12.94,31.29-38.74,50.72c0,0,25.31,42.53,71,20.41C776.7,556.7,764.07,553.27,755.59,545.35Z"/><path class="a" d="M536.59,271.35a170.93,170.93,0,0,0-9.4,41.19l.15-.61s13.57,52.87,88.24,57.46C572.59,359.61,541.05,315.08,536.59,271.35Z"/><path class="a" d="M609.88,259.5c-3.74,8.94-6.67,18.33-7.29,28.17.28-1,.57-2,.88-3,.85-2.84-1.05,66.14,86.58,78.53,3.14.45,6.38.81,9.76,1.06,0,0-.25-.3-.65-.86C652,354.74,613.83,307.14,609.88,259.5Z"/><path class="b" d="M628,154.25S441.82,97.94,441.82,419.09c0,0-.44,76.63,58,93.5,63.59,18.37,5.59,52.52-14.25,41.54,15,11.6,39.21,8.3,49-7.78,19-29-21-41-42-55-13-10-17-25-20-39-10-35,4-68,19-99a4.15,4.15,0,0,1,.89-1.13A210,210,0,0,0,488.11,398c.44-.43.87-.87,1.34-1.28,0,0-.93,83.11,69.24,94.8,0,0-63.51-49.05-31.5-178.93a170.93,170.93,0,0,1,9.4-41.19c4.46,43.73,36,88.26,79,98l1.21.08s-32.62-16.46-14.2-81.8c.62-9.84,3.55-19.23,7.29-28.17a96.61,96.61,0,0,1-.29-11.15,96.61,96.61,0,0,0,.29,11.15c.86-2.08,1.77-4.12,2.71-6.15-.94,2-1.85,4.07-2.71,6.15,4,47.64,42.16,95.24,89.28,103.88-3.53-4.87-20-30.87-8.28-77.87.51-9.05,5.11-15.81,4.35-24.86,24,22,41.36,44.7,51.36,75.7C763.27,384,761,442.41,730.3,482c-.67,1.29-1.35,2.58-2,3.87,0,0,51.29-17.83,54.66-90.8a10.41,10.41,0,0,1,1.16,0c-1.28-15.72-2.82-31.4-6.32-46.8,30.91,28.92,46.35,70.55,31.84,113.12-4,11-12,18-22,25-13,10-32,13-38,29-4,10-3,23,6,30,8.48,7.92,21.11,11.35,32.83,10q3.45-1.66,7.05-3.84s-31.06,5.22-36.71-20.33,61.65-10.89,72.73-98C853.15,262.76,741.12,121.78,628,154.25Z"/><path class="a" d="M751,339c-10-31-31.77-56.35-55.77-78.35-1.76,8.11-3.84,15.81-4.35,24.86.25-1,.49-2,.77-3.07,0,0,103.21,75.43,38.65,199.51C764.18,449.12,767.68,386.67,751,339Z"/><path class="c" d="M525.82,185.12S619,244.41,731.23,183c0,0,19.06,10.59,29.65,24.35,0,0-99.53,49.77-263.65,9.53C497.23,216.88,513.12,192.53,525.82,185.12Z"/><rect class="d" width="1262.35" height="2194.12"/></svg>