<svg xmlns="http://www.w3.org/2000/svg" width="1262.35" height="2194.12" viewBox="0 0 1262.35 2194.12"><defs><style>.a{fill:#d97ec7;}.b{fill:#fff;}.c{fill:#a85097;}.d{fill:#333;}.e{fill:none;}</style></defs><title>4_girl_shirt_4</title><path class="a" d="M830.06,682.06c-9.55-91.42-103.5-87.89-128.9-87.55h-2.4c-7.67,0-12.55-1.3-15.67-2.95-4.8,4-13.11,9.42-22.8,15.26-12.27,7.39-26.76,15.42-39.17,21.92,0,0-4.88-9.75-10.47-23.33-2.22-5.41-4.55-11.41-6.74-17.66-4.73.49-14.52,1.6-26.77,3.53h0c-16.87,2.66-38.37,6.86-57.66,13.11-39.18,12.71-56.12,50.83-70.94,86.83-7.95,19.29-25.93,36-40.9,47.25a109.25,109.25,0,0,0,4.66,21.16c4.81,14.74,14.18,33,32.41,47,1.78-1,3.52-2.08,5.2-3.1h0c31.58-19.22,44-33.87,44.17-34s12.7,25.41,29.64,81.88c7.15,23.81,5.44,109.71,1.08,201.11,70.92,30.42,170.45,11.36,221.41-33.34l-.59-.87a416.6,416.6,0,0,1-28.77-34.7c-12.71-16.09-31.75-45.47-22.65-68C734.41,816.18,751,741.18,751,741.18c4.86,31.1,9.24,62.77,13.85,89.47a218,218,0,0,0,55.62-5.55,191.41,191.41,0,0,0,23-6.9C838.89,771.8,834.16,721.33,830.06,682.06Z"/><path class="b" d="M745.11,617.59c-26.49-4.31-52.94-.72-54.05-.56l.82,5.94c.27,0,26.69-3.62,52.27.55,21.81,3.55,40.33,13.22,46.08,24.06,12.45,23.47,23.9,140.34,27.33,178.18l2.91-.66c1-.23,2-.5,3-.75-3.53-39.15-14.91-155-27.94-179.58C787.4,629.45,763.29,620.56,745.11,617.59Z"/><path class="b" d="M814.73,651c-7.28-28-41.44-43.39-71-48.49a174.73,174.73,0,0,0-56.83-.05L688,608.3a172.19,172.19,0,0,1,54.69.07c26.44,4.57,59.64,18.86,66.2,44.09,7.32,28.15,18.34,131.21,22.31,169.78q2.94-.86,5.85-1.82C833,780.75,822.17,679.59,814.73,651Z"/><path class="b" d="M463.64,673.53c-1.54,3.77-3.14,7.68-4.81,11.58-18.37,42.87-42.28,58.44-42.6,58.64l1.59,2.54,1.6,2.54c1-.65,25.72-16.54,44.92-61.35,1.7-4,3.3-7.89,4.85-11.69,15.92-39,28.5-69.87,116-70.5l0-6C493.65,600,479.74,634.05,463.64,673.53Z"/><polygon class="b" points="416.22 743.76 417.82 746.29 416.23 743.75 416.22 743.76"/><path class="b" d="M510.05,630.39a71.15,71.15,0,0,0-23.72,33.22,215.79,215.79,0,0,1-11.09,26.95c-26.45,53.91-54.5,72.08-54.78,72.25l1.6,2.54-1.6-2.54,1.6,2.54,1.59,2.54c1.2-.75,29.69-19.06,57-74.68A222.76,222.76,0,0,0,492,665.5c5.17-15.56,24.37-51.36,90.8-47.5l.34-6C552.56,610.23,528,616.42,510.05,630.39Z"/><path class="c" d="M493.67,770c-5.33-20.79,3.25-42.35,15.33-60.62-1.31,1.14-41.77,30.54-46.89,86.35C482,782.33,491.7,772.18,493.67,770Z"/><path class="c" d="M749.2,730.17A116.14,116.14,0,0,1,745,742.92q2.92,1.85,5.43,3.8C750.8,745.05,750.53,735.71,749.2,730.17Z"/><path class="c" d="M675.2,805.76c13,4.75,27.47.77,40.76-3.23,9.41-2.83,16.54-6.32,21.87-10.44,7.07-23.47,11.12-39.45,12.56-45.37q-2.5-2-5.43-3.8C732.85,773.39,708.11,797.89,675.2,805.76Z"/><path class="d" d="M421.34,727.14c-4.61,4.2-9.29,8-13.71,11.35,1.41,12.41,7.86,45.7,37.07,68.18,1.78-1,3.52-2.08,5.2-3.1h0c4.39-2.67,8.39-5.24,12.05-7.71C442.22,778.25,429.55,753.18,421.34,727.14Z"/><path class="d" d="M761,807.8q1.9,11.66,3.83,22.85c26.57.72,53.69-3.2,78.58-12.45-.73-7.43-1.46-15-2.19-22.55C815.36,805.06,787.8,811.44,761,807.8Z"/><path class="d" d="M613.7,623.47s-7,39.72-9.92,63a6.12,6.12,0,0,0,6.08,6.87h7.87a6.12,6.12,0,0,0,6.08-5.45c1.66-15.38,6.54-58.36,10-64.43l-12.7,5.29Z"/><path class="d" d="M571,630.48c0,6.06,0,10.28,0,10.28l19.52-11.45A19.23,19.23,0,0,1,609.83,625l11.29,3.76-3.46-10.19C601.65,610.53,584.77,619.22,571,630.48Z"/><path class="b" d="M571,623.44c0,2.5,0,4.89-.06,7,13.79-11.26,30.67-20,46.68-11.91l-3.41-10.06C598.22,606,583.64,613.78,571,623.44Z"/><path class="d" d="M614.25,608.51l-7.6-22.45.35-18.71s-32.12,12.71-34.24,23.3c-1.18,5.89-1.59,20.76-1.72,32.79C583.64,613.78,598.22,606,614.25,608.51Z"/><path class="d" d="M637.22,616.89c-9.08,6.82-16.1,11.87-16.1,11.87l18.43-3a26.28,26.28,0,0,1,20.71,5.43l27.92,18.78a45.79,45.79,0,0,0,3.66-6.77C674.89,632.66,656.68,612.75,637.22,616.89Z"/><path class="b" d="M637.22,616.89c19.46-4.14,37.67,15.77,54.62,26.28.86-1.83,1.8-3.93,2.79-6.2-14.39-12.28-29.51-25.92-48.81-26.61C642.86,612.64,639.94,614.84,637.22,616.89Z"/><path class="d" d="M704.49,583.55c-11.15-9.85-27.61-19-27.61-19v18.71c-2.73,4.72-17.44,16.66-31.06,27.12,19.3.69,34.42,14.33,48.81,26.61,4.74-10.84,10.62-25.72,14.32-35.25A16.35,16.35,0,0,0,704.49,583.55Z"/><circle class="b" cx="619" cy="645.71" r="5.29"/><circle class="b" cx="614.76" cy="679.59" r="5.29"/><path class="c" d="M534.88,1044.41,537,973.12s69.12,72.59,172.17,14.7l22.3,28.06S650.76,1080.88,534.88,1044.41Z"/><path class="d" d="M690.77,727.17s3.37-11.68,9.78-11.5c5.72.15,9.53,5.15,9.37,10.85-.17,6.6-5.76,14.26-19.88,20.66-13.76-7.16-18.92-15.11-18.74-21.7.15-5.7,4.23-10.49,9.94-10.34C687.65,715.32,690.77,727.17,690.77,727.17Z"/><rect class="e" width="1262.35" height="2194.12"/></svg>