<svg xmlns="http://www.w3.org/2000/svg" width="1262.35" height="2194.12" viewBox="0 0 1262.35 2194.12"><defs><style>.a{fill:#ffd9ff;}.b{fill:#ff6afa;}.c{fill:#fff;}.d{fill:#eda2e6;}.e{fill:#f4c458;}.f{fill:#ffee8a;}.g{fill:#8f854d;}.h{fill:#883b71;}.i{fill:#c033ad;}.j{fill:#44392e;}.k,.l{fill:none;}.k{stroke:#8f854d;stroke-linecap:round;stroke-miterlimit:10;}</style></defs><title>4_girl_shirt_cryptokitties</title><path class="a" d="M876.16,666.53h0c-11.87-8.92-23.74-17.61-34.39-25s-19.91-13.33-26.89-17c-36-19.06-39.18-13.77-76.23-14.82a250.48,250.48,0,0,1-36.19-3.63c-15.4,20.06-64.4,49.92-64.4,49.92l-54.49-48.66a78.9,78.9,0,0,1-19.48-.24l-50.27-6.92c-20.13-3-43.43,11-65,30.08-28.33,25-53.66,58.55-64.88,73-5.88,7.56-20,21.27-34.61,34.81l11.34,14,6.15,7.56L413,816.41c51-43.15,67.37-61.82,69.51-64.34.17-.2.25-.31.25-.31,4.24,19.06,36.71,185.83,43.77,232.42,4.14,27.36-21.46,101.71-29,122.81,19.81,5.56,159.4,41.83,284.49-3.1-.64-6-1-9.24-1-9.24-4.24-22.24-15.88-121.77,2.12-218.12C796.3,806,808.88,739.94,808.88,739.94l1.21.85c37.38,26.18,59.75,36.07,83.5,55.62,1.31-15.49,9.14-43.74,22.89-69.88,1.64-3.13,3.38-6.22,5.19-9.26,2.1-3.53,4.3-7,6.63-10.33C914.31,695.83,895.24,680.87,876.16,666.53Z"/><path class="b" d="M649.71,709.5l-1.36-59.62L638.06,656s-6.47-4.71-8.59-6.12l.66,59.78a3.83,3.83,0,0,0,3.76,3.78c4.09.07,8.11.13,12.15,0A3.82,3.82,0,0,0,649.71,709.5Z"/><path class="b" d="M601.23,602.29,638.06,656l-24.71-6.41-36,20.47s-8.78-59.9-7.76-64.94c2.67-13.28,31.06-26.83,31.06-26.83Z"/><path class="b" d="M638.06,656,678,599.47l-1.35-24.71s21.57,20.73,25.81,31.32l-6.52,65.39-31.77-22.59Z"/><circle class="c" cx="640.17" cy="666.53" r="5.65"/><circle class="c" cx="640.17" cy="699.29" r="5.65"/><path class="d" d="M413,816.41c25.29-19.29,50.94-42.06,69.76-64.65-8.82-46-12.92-53.86-13.06-58,2.12,28.94-6,58.94-6,58.94C447,774.66,424.32,802.51,413,816.41Z"/><path class="d" d="M820.47,692.36c-6.88,20.76-7.82,29.23-11.36,47.71,8.24,6.93,54.12,40.11,84.48,56.34-12.18-9.85-51-51.82-62.12-62.82C828.18,730.33,821.59,708.41,820.47,692.36Z"/><path class="d" d="M539.73,978c.23,1.45.45,2.83.64,4.1,2.1,13.83-1.33,36.59-10.47,69.59-4.65,16.79-9.91,33.09-14.14,45.53a573.46,573.46,0,0,0,127.52,14.88c45.08,0,86.54-6,123.43-17.78-2.85-16.52-6.88-51.65-7.35-95C643.28,1112.08,560.41,1032.18,539.73,978Z"/><path class="b" d="M928.3,706.94c-4.95-3.93-10.56-8.36-16.56-13.06C892,721.55,878.87,753.17,874.32,786c6.8,3.83,13.87,7.18,19.27,10.42C895.24,776.92,907.2,737.23,928.3,706.94Z"/><path class="b" d="M363.31,724.85c-4.42,4.27-9.17,8.74-14,13.2L413,816.41c5.72-4.84,11.6-8.76,16.74-12.73C406.78,778.36,383.91,752.32,363.31,724.85Z"/><path class="a" d="M685.44,727.81h88.92v83.94s-44.56,33.8-87.69,0Z"/><path class="e" d="M705.33,759.31c.56,5,3.24,14.6,3.24,14.6l5.28-5.28A46.65,46.65,0,0,0,705.33,759.31Z"/><path class="f" d="M705.54,756.48c-.35.26-.37,1.34-.21,2.83a46.65,46.65,0,0,1,8.52,9.32l4.95-5S707.06,755.35,705.54,756.48Z"/><path class="g" d="M706,756.38c2.56,0,12.85,7.3,12.85,7.3l-4.95,5-5.28,5.28s-2.68-9.63-3.24-14.6c-.16-1.49-.14-2.57.21-2.83a.71.71,0,0,1,.41-.1m0-2.21a2.82,2.82,0,0,0-1.73.55c-1.24.93-1.33,2.54-1.07,4.83.56,5.09,3.19,14.55,3.3,15l1,3.63,2.66-2.67,5.27-5.27,5-5,1.84-1.85-2.12-1.51C716,759,708.79,754.17,706,754.17Z"/><path class="e" d="M755.51,759.31c-.55,5-3.24,14.6-3.24,14.6L747,768.63A46.6,46.6,0,0,1,755.51,759.31Z"/><path class="f" d="M755.3,756.48c.35.26.37,1.34.21,2.83a46.6,46.6,0,0,0-8.51,9.32l-5-5S753.79,755.35,755.3,756.48Z"/><path class="g" d="M754.89,756.38a.69.69,0,0,1,.41.1c.35.26.38,1.34.21,2.83-.55,5-3.24,14.6-3.24,14.6L747,768.63l-5-5s10.29-7.3,12.85-7.3m0-2.21h0c-2.83,0-10.06,4.83-14.12,7.71l-2.13,1.51,1.85,1.85,5,5,5.27,5.27,2.67,2.67,1-3.63c.11-.4,2.74-9.86,3.31-15,.25-2.29.16-3.9-1.08-4.83a2.82,2.82,0,0,0-1.73-.55Z"/><path class="f" d="M754,775c-7.52-16.29-23.32-15.51-23.8-15.45s-16.29-.84-23.81,15.45c0,0-6.88,11.75-10.67,13.64,0,0,8.34,4.55,12.13,8.33s12.12,9.87,22.35,9.87,18.63-6.15,22.34-9.87,12.13-8.33,12.13-8.33C760.85,786.79,754,775,754,775Z"/><path class="g" d="M730.85,759.57c3.18,0,16.43,1,23.12,15.47,0,0,6.88,11.75,10.67,13.64,0,0-8.34,4.55-12.13,8.33s-12.12,9.87-22.34,9.87-18.64-6.15-22.35-9.87-12.13-8.33-12.13-8.33c3.79-1.89,10.67-13.64,10.67-13.64,6.69-14.49,19.94-15.47,23.12-15.47.39,0,.63,0,.69,0a6.64,6.64,0,0,1,.68,0m0-2.21-.68,0-.69,0A27.83,27.83,0,0,0,704.41,774c-2.73,4.64-7.51,11.59-9.7,12.69l-3.77,1.88,3.7,2c.08,0,8.1,4.44,11.62,8,5.08,5.08,14,10.51,23.91,10.51s18.82-5.43,23.9-10.51c3.53-3.52,11.54-7.91,11.62-8l3.7-2-3.77-1.89c-2.19-1.1-7-8.05-9.7-12.69a27.83,27.83,0,0,0-25.07-16.66Z"/><path class="b" d="M694,726.71a9.55,9.55,0,0,0-9.55,9.68l1.11,75.9.42.32c14.83,11.63,29.82,15.23,42.71,15.23A73.9,73.9,0,0,0,747,825.49,85.11,85.11,0,0,0,775,812.62l.43-.33v-76a9.54,9.54,0,0,0-9.55-9.54Zm-6.25,84.49-.86-58.69a6.34,6.34,0,0,1,6.34-6.44h73.68a6.34,6.34,0,0,1,6.34,6.34v58.77C768.59,814.48,727.37,841.83,687.76,811.2Z"/><path class="h" d="M726.66,792.9s0,5.34,4,5.05,3.6-4.76,3.6-4.76-3.5-.39-4-2.91C730.26,790.28,729.67,792.41,726.66,792.9Z"/><circle class="c" cx="716.01" cy="777.42" r="8.42"/><circle class="i" cx="715.88" cy="775.61" r="5.83"/><circle class="j" cx="716.19" cy="774.19" r="3.56"/><circle class="c" cx="713.38" cy="773.74" r="2.72"/><path class="g" d="M716,769a8.42,8.42,0,1,1-8.42,8.42A8.42,8.42,0,0,1,716,769m0-1.1a9.52,9.52,0,1,0,9.52,9.52A9.53,9.53,0,0,0,716,767.9Z"/><circle class="c" cx="744.5" cy="777.16" r="8.42"/><circle class="i" cx="744.37" cy="775.35" r="5.83"/><circle class="j" cx="744.68" cy="773.93" r="3.56"/><circle class="c" cx="741.88" cy="773.48" r="2.72"/><path class="g" d="M744.5,768.74a8.42,8.42,0,1,1-8.42,8.42,8.42,8.42,0,0,1,8.42-8.42m0-1.1a9.52,9.52,0,1,0,9.52,9.52,9.53,9.53,0,0,0-9.52-9.52Z"/><path class="g" d="M729.09,782.86h2.49a1.22,1.22,0,0,1,1,1.95l-1.29,1.7a1.21,1.21,0,0,1-2,0l-1.2-1.71A1.21,1.21,0,0,1,729.09,782.86Z"/><path class="k" d="M720.64,787.46s-1,5.42,5.24,5.63c5.64.2,4.28-6.7,4.28-6.7"/><path class="k" d="M739.87,787.46s1,5.42-5.25,5.63c-5.64.2-4.28-6.7-4.28-6.7"/><path class="k" d="M726.7,793.49c.13,1.38.78,4.69,3.94,4.46,4-.29,3.6-4.76,3.6-4.76"/><rect class="l" width="1262.35" height="2194.12"/></svg>