<svg xmlns="http://www.w3.org/2000/svg" width="1262.35" height="2194.12" viewBox="0 0 1262.35 2194.12"><defs><style>.a{fill:#a12800;}.b{fill:#333;}.c{fill:none;}</style></defs><title>4_girl_hair_4</title><path d="M912.44,570.7c-118.66-86.81-99.39-153.11-99.39-153.11L790.6,435.31s-15.78,84.2,30.72,130S940.14,668.9,872.31,737c0,0,13,12.18,35.81,21.72,27.06-22.88,34.61-61.48,38.17-95.34,1.51,33.9-1.53,71.77-18.08,102.08,16.8,4.3,42.79,9.87,67.26,9.87C995.47,775.3,1031.11,657.5,912.44,570.7Z"/><path class="a" d="M852.19,469.9c.71.43-1.58,15-16.94,25.77-13.79-15.68-26.18-20.78-41.72-36.09-4.43-4.37,2-8.68,5.17-9.64C803.55,448.47,839,461.91,852.19,469.9Z"/><path class="a" d="M858.41,421c7,12,2.32,28.24,2.32,28.24l-57.7-6C804.51,428.59,847.89,421.17,858.41,421Z"/><path d="M674.92,248.16c0-.33-.1-.64-.16-.92C674.76,247.24,674.82,247.56,674.92,248.16Z"/><path d="M674.92,248.16c-.1-.6-.16-.92-.16-.92C674.82,247.52,674.87,247.83,674.92,248.16Z"/><path d="M633,138.78c-142.86,3.95-213.79,114.1-165.72,334.15,0,0,13.82,4.65,33.4,9.68-5.63-25.77-9.69-51.65-7.11-78.26,2.58,28.4,8.87,57.52,23.95,82.3,8.79,2,18.15,3.81,27.58,5.26,0,0-46.83-74.91-33.53-197.56,1.53,26.3,3.37,42.5,7.24,63.75,12.79-6.07,36.43-16,53-15.07,0,0-6-33.27,5.82-75.32,0,0,8.58,41.16,10.59,69.88,0,0,70.77-8.73,86.47-2.41,0,0,4.65-76.72,4.59-77a541.43,541.43,0,0,1,13.77,80.47s41.75,1.25,64.83,10.4c3.8-19.25,4.54-39.88,3.64-59.7,6.82,22.41,8.82,135.06-25.49,195.43A137.74,137.74,0,0,0,767.69,478c10.29-25.16,19.76-51.16,18.9-78.64a443.16,443.16,0,0,1-3.46,72.24c14.21-7.13,28.12-18,36-34.7C819.13,436.89,856.88,132.59,633,138.78Z"/><path class="b" d="M530.06,181.94s88.94,43.41,214.94,0c0,0,13.76,10.59,27.53,34.94,0,0-112.24,37.06-273.18,0C499.35,216.88,511,196.76,530.06,181.94Z"/><rect class="c" width="1262.35" height="2194.12"/></svg>