<svg xmlns="http://www.w3.org/2000/svg" width="1262.35" height="2194.12" viewBox="0 0 1262.35 2194.12"><defs><style>.a{fill:#f7941d;}.b{fill:#bd6700;}.c{fill:#ffbe3d;}.d{fill:none;}</style></defs><title>4_girl_hair_9</title><path class="a" d="M513.54,370.05c-1.26-2.76-2.42-5.6-3.46-8.51A38.08,38.08,0,0,0,513.54,370.05Z"/><path class="a" d="M829.35,496.06s-8.83-217.33-48.8-284.84c-47.65-80.47-112.85-91-142.49-64.22-29.65-26.82-113.59-12.71-155.94,66.71C445.2,282.93,451.7,497.12,451.7,497.12c2.65,41.67-36.23,54.83-41.14,56.32,17.78,5.73,38.57-2.51,50-13.09,26-21.8,28.08-57,24.53-90.15-11.25-27.16-.95-47-.95-47-1.81,66.37,51.57,63.19,67.11,61.89-46.19-17.76-65.4-76.64-45.69-123.78a79.85,79.85,0,0,0,4.16,19.27c0-.18,0-.27,0-.27.1.41.21.8.32,1.19,1,2.91,2.2,5.75,3.46,8.51,12.58,22.39,42.64,15.54,42.64,15.54-32.48-21.18-22.59-87.53-22.59-87.53,0,98.82,63.53,86.12,63.53,86.12-35.3-35.3-19.77-73.42-19.77-73.42,0,63.53,57.88,74.83,57.88,74.83-30-36.35-12.37-106.73-.35-106.24,8.52.35,37.19,67.9,10.94,105.18,0,0,57.88-11.29,57.88-74.82,0,0,15.53,38.11-19.76,73.41,0,0,63.53,12.7,63.53-86.12,0,0,9.88,66.35-22.59,87.53,0,0,33.08,6.66,44.36-20,1-9.71,2.16-19.42,1.35-29.13,10,32,20,67-1,98-10.24,14.18-22.35,26.49-38.26,31.08,17.08,1.8,66.3,1.44,64.55-62.78,0,0,12,22.86-1.54,51.05-2.26,32,1.22,67.51,29.25,87.65,13.85,9.64,31,14.19,46.54,11.92C864,550.32,826.76,536.84,829.35,496.06Z"/><path class="b" d="M769.59,433.35c21-31,11-66,1-98,.81,9.71-.35,19.42-1.35,29.13a41.59,41.59,0,0,0,2-6.19s3.71,91.18-45.7,105.3a57.79,57.79,0,0,0,5.74.84C747.24,459.84,759.35,447.53,769.59,433.35Z"/><path class="b" d="M551.28,465.13c2.63-.22,4.19-.48,4.19-.48-47.86-13.68-45.89-98.69-45.72-104a79.85,79.85,0,0,1-4.16-19.27C485.88,388.49,505.09,447.37,551.28,465.13Z"/><path class="b" d="M823.59,540.35c-28-20.14-31.51-55.63-29.25-87.65a74.07,74.07,0,0,1-4.52,8.06c-19.51,30.29-32.76,21.18-32.76,21.18s-19.47,42.35-44.88,56.47c0,0,1.05,28.94,40.23,40.94a54.79,54.79,0,0,1-2.82-47.29s-2.83,41.65,62.82,47.29c0,0-26.12-19.76-21.88-49.41,0,0,16.94,49.41,80.47,22.59l-.87-.26C854.55,554.54,837.44,550,823.59,540.35Z"/><path class="b" d="M460.59,540.35c-11.46,10.58-32.25,18.82-50,13.09l-.5.15C473.59,580.41,490.53,531,490.53,531c4.23,29.65-21.88,49.41-21.88,49.41,65.64-5.65,62.82-47.29,62.82-47.29a54.79,54.79,0,0,1-2.82,47.29c47.29-13.41,39.17-42.7,39.17-42.7-25.41-14.12-42.7-51.89-42.7-51.89s-15.89,0-33.89-24a52,52,0,0,1-6.11-11.62C488.67,483.39,486.58,518.55,460.59,540.35Z"/><path class="c" d="M744.17,176.69c-118.17,70-221.26-4.3-221.26-4.3-22.12,13.51-31,43.91-31,43.91,150.54,42.72,249.32,11.88,283.9-1.55C767.3,200.65,756.13,188.33,744.17,176.69Z"/><rect class="d" width="1262.35" height="2194.12"/></svg>