<svg xmlns="http://www.w3.org/2000/svg" width="1262.35" height="2194.12" viewBox="0 0 1262.35 2194.12"><defs><style>.a{fill:#fff;}.b{fill:#144461;}.c{fill:#0f344a;}.d{fill:#a85097;}.e{fill:#0c2738;}.f{fill:#472908;}.g{fill:#c57824;}.h{fill:#995913;}.i{fill:none;}</style></defs><title>4_girl_shirt_7</title><path class="a" d="M449.89,803.57l.47-.28-.46.28Z"/><path class="a" d="M453.4,801.4l-.91.57Z"/><path class="a" d="M456.24,799.6l-1.2.77Z"/><path class="a" d="M458.93,797.87l-1.56,1Z"/><path class="a" d="M683.09,591.58h0a20,20,0,0,0,1.84.84A20,20,0,0,1,683.09,591.58Z"/><path class="a" d="M577.13,591.3Z"/><path class="a" d="M573.89,591.82h0Z"/><path class="a" d="M685.11,592.49l.61.23Z"/><path class="a" d="M570.56,592.38l.08,0Z"/><path class="a" d="M686,592.8q.51.18,1,.33Q686.49,593,686,592.8Z"/><path class="a" d="M688.6,593.53l.52.12Z"/><path class="a" d="M687.47,593.26l.55.14Z"/><path class="a" d="M690.22,593.86l.4.07Z"/><path class="a" d="M459.34,797.59c19.36-12.73,29.66-22.69,33.24-26.41C489,774.93,478.53,785,459.34,797.59Z"/><path class="a" d="M329.87,630c-1.25-7.73-2.14-15.14-2.83-21.74-10.29,11.52-29.18,21-50.61,13.78.24,6.21.62,12.51,1.11,18.85C295.4,644.06,315.79,641,329.87,630Z"/><path class="b" d="M334,650.06c-1.7-6.72-3-13.49-4.11-20-14.08,10.93-34.47,14-52.33,10.89q.6,7.62,1.42,15.31A102.24,102.24,0,0,0,334,650.06Z"/><path class="a" d="M279,656.23q1.05,9.93,2.41,19.89c19.47,3.56,41,1,57.66-9.66a157.92,157.92,0,0,1-5-16.4A102.24,102.24,0,0,1,279,656.23Z"/><path class="a" d="M798.82,736c11.47-3.39,24-4.49,36.12-5.32-.65-6.65-1.29-13.19-1.93-19.56-12.06-.26-24.24,1.87-36,4.81C797.83,722.57,797.36,729.49,798.82,736Z"/><path class="b" d="M893,1044.35c-5.65-59.29-33.88-96.88-33.88-96.88C854.36,938,844,823.15,834.94,730.67c-12.11.83-24.65,1.93-36.12,5.32-1.46-6.5-1-13.42-1.77-20.07,11.72-2.94,23.9-5.07,36-4.81-1-10.16-2-19.91-3-29.05-11.25-107.71-129.62-81.28-147-90.48-12.69,10.52-47,29.34-62,37.18a389.75,389.75,0,0,1-17.21-41c-115.57,12-127.82,36.54-155.38,103.47-14.83,36-64.59,62.82-64.59,62.82s-5.68-26.94-33.18-64.94A96.16,96.16,0,0,1,339,666.46c-16.7,10.63-38.19,13.22-57.66,9.66,8.91,64.86,27.15,128.66,38.21,158.13a23.15,23.15,0,0,0,28.58,14c35.19-11,70.76-25.76,101.74-44.63,31.61-19.24,43.79-33.67,44.16-34,0,.12,26.45,61.1,31.21,88.88q.08.43.15.9c0,.21.07.42.1.64l.15,1,.09.65c.06.35.1.72.15,1.09,0,.2.06.39.09.6,5.46,42,.81,146.88-1.21,189.26,70.92,30.42,170.44,11.36,221.4-33.34-1.67-2.44-6.73-6.33-30.52-37-52.61-68-7.92-55.51,35.33-241,3.53,22.62,6.81,45.54,10.12,66.63H761c8.58,52.44,18.58,108.05,37.8,157.2-8.29,72.47,32.06,148.53,47.59,175.35l.69,1.21c15.81-8.76,33.6-15.85,51.22-16.83C894.8,1097.34,895.78,1073.59,893,1044.35Z"/><path class="a" d="M898.32,1124.73c-17.62,1-35.41,8.07-51.22,16.83a196.29,196.29,0,0,1,10.37,22.5,116,116,0,0,1,44.37-18.46C900.32,1138.34,899.19,1131.42,898.32,1124.73Z"/><path class="b" d="M857.47,1164.06c2,5,3.94,10.23,5.77,15.38,13.24-8,27.68-14.13,42.77-16.76q-2.46-8.88-4.17-17.08A116,116,0,0,0,857.47,1164.06Z"/><path class="a" d="M871.18,1203.52c8.41-7.56,21.4-14.26,42.93-15.74-3.27-8.92-5.92-17.22-8.1-25.1-15.09,2.63-29.53,8.76-42.77,16.76C866.25,1188,869,1196.32,871.18,1203.52Z"/><path class="c" d="M493.67,770c-5.33-20.79,3.25-42.35,15.33-60.62-1.31,1.14-41.77,30.54-46.89,86.35C482,782.33,491.7,772.18,493.67,770Z"/><path class="c" d="M749.2,730.17A116.14,116.14,0,0,1,745,742.92q2.92,1.85,5.43,3.8C750.8,745.05,750.53,735.71,749.2,730.17Z"/><path class="d" d="M675.2,805.76c13,4.75,27.47.77,40.76-3.23,9.41-2.83,16.54-6.32,21.87-10.44,7.07-23.47,11.12-39.45,12.56-45.37q-2.5-2-5.43-3.8C732.85,773.39,708.11,797.89,675.2,805.76Z"/><path class="e" d="M613.7,623.47s-7,39.72-9.92,63a6.12,6.12,0,0,0,6.08,6.87h7.87a6.12,6.12,0,0,0,6.08-5.45c1.66-15.38,6.54-58.36,10-64.43l-12.7,5.29Z"/><circle class="a" cx="619" cy="645.71" r="5.29"/><circle class="a" cx="614.76" cy="679.59" r="5.29"/><path class="d" d="M534.88,1044.41,537,973.12s69.12,72.59,172.17,14.7l22.3,28.06S650.76,1080.88,534.88,1044.41Z"/><path class="f" d="M729.56,588.66c-8.19.22-12.09,4.1-12.09,4.1-.21.58-.43,1.15-.65,1.72-29.13,77.23-108.41,117.93-108.41,117.93-37-43.84-36.09-110.08-35.71-120.39,0-.89.06-1.37.06-1.37a66.29,66.29,0,0,0-15.38-1.31c.28,27.14,5.59,96.69,50,141.07C607.35,730.41,714.37,681.64,729.56,588.66Z"/><path class="f" d="M747.46,773.12c2.31-14.07,2.83-22.59,2.83-22.59-.3-.87-.59-1.76-.87-2.66-15.11-48.52,2-135.85,4.74-149.15l.37-1.72a62.92,62.92,0,0,0-12.59-6.19c-.12.5-.25,1-.35,1.54C733,652.18,722.31,717.84,747.46,773.12Z"/><path class="f" d="M517.59,700.35C527,664.6,531.1,628.85,539,593.93a29.47,29.47,0,0,0-9.33,7.4c-.48.6-.71,1-.71,1-2.12,14.83-20,107.11-20,107.11-1.5,2-2.86,4-4.12,6C510.58,711.62,515.34,707.09,517.59,700.35Z"/><path class="g" d="M714.29,965.47c-25.41-32.82-18-44.47,7.41-103.76a388.38,388.38,0,0,0,25.76-88.59c-25.15-55.28-14.42-120.94-5.87-180.77.1-.52.23-1,.35-1.54a34.78,34.78,0,0,0-12.38-2.15c-15.19,93-122.21,141.75-122.21,141.75C563,686,557.66,616.48,557.38,589.34A42.45,42.45,0,0,0,539,593.93c-7.94,34.92-12,70.67-21.45,106.42-6.24,5.71-8.59,9-12.71,15-20,31.09-11.24,54.59-11.21,54.66h0s30,81.45,30,98,4.24,141.88-5.29,157.76a23.58,23.58,0,0,0-1.56,3.09c23.16,9.18,126.91,43.37,228.25-33.35C738.8,989.3,727.36,982.35,714.29,965.47Z"/><path class="h" d="M675.2,805.76c13,4.75,47.56,4.06,68-11.47.17-.54.32-1.08.48-1.62,1.59-7.29,2.82-13.87,3.75-19.55a155.22,155.22,0,0,1-7.34-19.62C726.86,779,704.21,798.82,675.2,805.76Z"/><path class="h" d="M531.88,1024.41,537,973.12s72.12,60.82,175.18,2.94l16.29,19.82S647.76,1060.88,531.88,1024.41Z"/><path class="f" d="M516.85,1028.91c-5.93,14.19,7.93,23.67,7.93,23.67,70.92,30.42,170.45,11.36,221.41-33.34,6.24-12.46,4.87-17.76-1.09-23.68C643.76,1072.28,540,1038.09,516.85,1028.91Z"/><path class="a" d="M614.25,608.51l-7.6-22.45.35-18.71s-32.12,12.71-34.24,23.3c-1.18,5.89-1.59,20.76-1.72,32.79,0,2.5,0,4.89-.06,7,0,6.06,0,10.28,0,10.28l19.52-11.45A19.23,19.23,0,0,1,609.83,625l11.29,3.76-3.46-10.19Z"/><path class="a" d="M704.49,583.55c-11.15-9.85-27.61-19-27.61-19v18.71c-2.73,4.72-17.44,16.66-31.06,27.12-3,2.28-5.88,4.48-8.6,6.53-9.08,6.82-16.1,11.87-16.1,11.87l18.43-3a26.28,26.28,0,0,1,20.71,5.43l27.92,18.78a45.79,45.79,0,0,0,3.66-6.77c.86-1.83,1.8-3.93,2.79-6.2,4.74-10.84,10.62-25.72,14.32-35.25A16.35,16.35,0,0,0,704.49,583.55Z"/><rect class="i" width="1262.35" height="2194.12"/></svg>