<svg xmlns="http://www.w3.org/2000/svg" width="1262.35" height="2194.12" viewBox="0 0 1262.35 2194.12"><defs><style>.a{fill:#de9b31;}.b{fill:#f2f1f1;}.c{fill:#cfa123;}.d{fill:#ffca38;}.e{fill:#ca8a2d;}.f{fill:#4abaa0;}.g{fill:#ffd650;}.h{fill:none;}.i{fill:#ba9121;}.j{fill:#347d00;}.k{fill:#adadad;}</style></defs><title>4_girl_pant_6</title><path class="a" d="M746.13,1019.28h0Z"/><path class="a" d="M746.19,1019.24l-.06,0Z"/><path class="a" d="M746.11,1019.29l-.48.34Z"/><path class="b" d="M791.2,1164.59a245.74,245.74,0,0,0,.25-26.51c-2.74-60.49-27.59-103.8-45.26-118.84-16,14-36.69,25.49-59.82,33.73C706.69,1100.65,747.68,1136.42,791.2,1164.59Z"/><path class="b" d="M533.59,1154.35c20.13-28,24.17-59.07,25.54-91.19a174.82,174.82,0,0,1-34.34-10.58l-7.48,121.06a17.64,17.64,0,0,1,3.28-2.29C525.59,1168.35,529.59,1161.35,533.59,1154.35Z"/><path class="b" d="M687.12,1323c-4.36,29.7-4,61,16.47,86.34A54.91,54.91,0,0,0,725.81,1426c5.74-19.89,12.16-41.36,19.13-63.45,3.51-11.14,7.07-22.85,10.58-34.82C733.32,1324.33,709.89,1325,687.12,1323Z"/><path class="c" d="M760.64,1309.86c-23.07-3.58-46.29-7.25-70-6.51-1.29,6.42-2.5,13-3.47,19.66,22.77,2,46.2,1.32,68.4,4.7C757.24,1321.81,759,1315.85,760.64,1309.86Z"/><path class="c" d="M551.52,1313.24c-13.7,1.83-27.4,4.31-41.09,6.72q.17,10.83.68,21.64c13.81-.44,27-4.68,40.67-6.94C551.75,1327.42,551.58,1320.22,551.52,1313.24Z"/><path class="b" d="M511.11,1341.6a699.19,699.19,0,0,0,8.06,78.38c29.91-18.65,32.74-52.45,32.61-85.32C538.07,1336.92,524.92,1341.16,511.11,1341.6Z"/><path class="d" d="M686.37,1053c-39.38,14-85.7,18.63-127.24,10.19-1.37,32.12-5.41,63.19-25.54,91.19-4,7-8,14-13,17a17.64,17.64,0,0,0-3.28,2.29l-5.06,81.84q-2.34,32.22-1.82,64.48c13.69-2.41,27.39-4.89,41.09-6.72,0-4,0-8,.07-11.89-.1,3.87-.1,7.84-.07,11.89,5.69-.76,11.38-1.41,17.07-1.89-5.69.48-11.38,1.13-17.07,1.89.32,38.65,4.15,84-32.35,106.74q.8,4.93,1.65,9.86c.34,1.91.68,3.83,1,5.76a385.35,385.35,0,0,0,29.57,92.94c18.79-.87,37.9-3.07,54.14-11.53q-10.1-3.48-20-7.66,9.88,4.19,20,7.66c1-.53,2-1.08,3-1.66-1,.58-2,1.13-3,1.66a338.5,338.5,0,0,0,91.08,17.66c2.75-11.26,13.38-54,29.16-108.69a54.91,54.91,0,0,1-22.22-16.63c-25-31-20-71-13-106,23.76-.74,47,2.93,70,6.51,13.72-48.73,25.75-99.39,29.48-132.68.47-4.26.82-8.46,1.08-12.59C747.68,1136.42,706.69,1100.65,686.37,1053Z"/><path class="a" d="M745.63,1019.63Z"/><path class="e" d="M746.19,1019.24l-.06,0Z"/><path class="e" d="M746.13,1019.28h0Z"/><path class="e" d="M746.11,1019.29l-.48.34Z"/><path class="e" d="M745.63,1019.63Z"/><path class="c" d="M605.84,1165c6.6,3,13.26,5.93,18.88,10.64-3.4-36.31-3.67-73.32,1.6-109.42-7.44.72-14.91,1.12-22.37,1.16A336,336,0,0,0,605.84,1165Z"/><path class="c" d="M791.45,1138.08c-4.06-88.16-45.26-118.84-45.26-118.84a164.92,164.92,0,0,1-32.87,22.06C722.64,1082.79,752.19,1122.08,791.45,1138.08Z"/><path class="c" d="M544.16,1059.48a166.74,166.74,0,0,1-19.38-6.9c-1.68,35.29-3.76,71.39-5.87,105.06C538.47,1129.56,546.3,1094.07,544.16,1059.48Z"/><path class="e" d="M559,1063.12c-2.52-.51-5-1.06-7.51-1.67-2.18-.54-4.35-1.11-6.5-1.73a226,226,0,0,0-3.78,22.84c2.62.79,5.4,1.57,8.35,2.32,2.21.55,4.52,1.09,6.92,1.6C556.52,1078.7,556.91,1070.78,559,1063.12Z"/><path class="f" d="M601,1091.32c-.71-8-1.82-16-2.24-24a220.74,220.74,0,0,1-32.94-2.93q-3.4-.57-6.78-1.25c-2.12,7.66-2.51,15.58-2.52,23.36,2.86.62,5.84,1.2,9,1.73A228.94,228.94,0,0,0,601,1091.32Z"/><path class="b" d="M606.22,1067.32q-3.74,0-7.47,0c.42,8,1.53,16,2.24,24,2.33,0,4.7,0,7.12,0a261.49,261.49,0,0,0,27.83-2c3.06-.37,6-.8,9-1.25a233.33,233.33,0,0,1-3.7-23.82A251.78,251.78,0,0,1,606.22,1067.32Z"/><path class="f" d="M706.48,1070.46c-2.21-7.5-5-14.8-7.87-22.29A241,241,0,0,1,657,1061.34c-5.21,1.15-10.49,2.12-15.8,3a233.33,233.33,0,0,0,3.7,23.82c5.67-.87,11.16-1.86,16.48-3A232.53,232.53,0,0,0,706.48,1070.46Z"/><path class="e" d="M698.61,1048.17c2.91,7.49,5.66,14.79,7.87,22.29,4.84-2.13,9.65-4.44,14.49-6.92-2.77-7.38-5.69-14.66-8.66-21.75C707.89,1044.05,703.31,1046.18,698.61,1048.17Z"/><path class="f" d="M746.06,1018.76l-.17,0,.3.45a164.83,164.83,0,0,1-33.88,22.55c3,7.09,5.89,14.37,8.66,21.75a427,427,0,0,0,42.3-24.77C757.35,1029.35,750.29,1021.59,746.06,1018.76Z"/><path class="g" d="M545,1059.72a169,169,0,0,1-19-6.62,170.41,170.41,0,0,0,19,6.64Z"/><path class="h" d="M526,1053.1l-1.25-.52,0,.72,1.28-.2Z"/><path class="f" d="M545,1059.74a170.41,170.41,0,0,1-19-6.64h0l-1.28.2q-.54,11.39-1.14,22.84a164.29,164.29,0,0,0,17.63,6.42A225.65,225.65,0,0,1,545,1059.74Z"/><path class="i" d="M574.53,1139.12s12.7,17.29,36.7,39.88c0,0-10,259.36-44.64,348.46,12.15-1.26,24.07-3.64,34.9-8.48.06-1.12.12-2.23.17-3.34q-8.1-2.92-16.07-6.29,8,3.38,16.07,6.29c6.28-124.43,15.92-238.74,26.87-344.76C628.53,1170.88,591.47,1153.94,574.53,1139.12Z"/><path class="j" d="M746.19,1019.24l-.06,0Z"/><path class="j" d="M746.13,1019.28h0Z"/><path class="j" d="M745.63,1019.63l.36-.25Z"/><path class="j" d="M745.57,1019.68c.06,0,.09-.07,0,0S745.45,1019.76,745.57,1019.68Z"/><path class="k" d="M601.49,1519l-50.06,9.56s-1.26,27.75,16.74,32l47.65-12.71Z"/><path class="b" d="M601.66,1515.64s68.87,20.7,95,19c0,0,24,4.68,18.7,29,0,0-82.06.24-115.41-18C599.94,1545.71,590.68,1542.75,601.66,1515.64Z"/><rect class="h" width="1262.35" height="2194.12"/></svg>