<svg xmlns="http://www.w3.org/2000/svg" width="1262.35" height="2194.12" viewBox="0 0 1262.35 2194.12"><defs><style>.a{fill:#fff;}.b{fill:#2c7c8f;}.c{fill:#bfbfbf;}.d{fill:#a85097;}.e{fill:#1e6070;}.f{fill:#ab3563;}.g{fill:#d95286;}.h{fill:#c23e71;}.i{fill:none;}</style></defs><title>4_girl_shirt_5</title><path class="a" d="M826.59,755.35c1.58,4.74,6.28,7.6,11.63,9.09-.88-9.17-1.76-18.27-2.63-27.2C829,741,823.25,747.85,826.59,755.35Z"/><path class="b" d="M826.59,755.35c-3.34-7.5,2.37-14.31,9-18.11q-.62-6.32-1.23-12.52c-9.57,1.36-19.24,6.5-21.77,16.63-2,8-3,17,3,24,6.07,6.07,14.44,12.13,23.8,11.22q-.58-6.08-1.17-12.13C832.87,763,828.17,760.09,826.59,755.35Z"/><path class="a" d="M839.39,776.57c-9.36.91-17.73-5.15-23.8-11.22-6-7-5-16-3-24,2.53-10.13,12.2-15.27,21.77-16.63-1.48-15.09-2.93-29.51-4.3-42.66-9.55-91.42-103.5-87.89-128.9-87.55h-2.4c-7.67,0-12.55-1.3-15.67-2.95-4.8,4-13.11,9.42-22.8,15.26-12.27,7.39-26.76,15.42-39.17,21.92,0,0-4.88-9.75-10.47-23.33-2.22-5.41-4.55-11.41-6.74-17.66-4.73.49-14.52,1.6-26.77,3.53h0c-16.87,2.66-38.37,6.86-57.66,13.11-39.18,12.71-56.12,50.83-70.94,86.83-7.95,19.29-25.93,36-40.9,47.25a109.25,109.25,0,0,0,4.66,21.16c4.81,14.74,14.18,33,32.41,47,1.78-1,3.52-2.08,5.2-3.1h0c31.58-19.22,44-33.87,44.17-34s12.7,25.41,29.64,81.88c7.15,23.81,5.44,109.71,1.08,201.11,70.92,30.42,170.45,11.36,221.41-33.34l-.59-.87a416.6,416.6,0,0,1-28.77-34.7c-12.71-16.09-31.75-45.47-22.65-68C734.41,816.18,751,741.18,751,741.18c4.86,31.1,9.24,62.77,13.85,89.47a218,218,0,0,0,55.62-5.55,191.41,191.41,0,0,0,23-6.9C842.09,804.54,840.74,790.54,839.39,776.57Z"/><polygon class="a" points="416.22 743.76 417.82 746.29 416.23 743.75 416.22 743.76"/><path class="c" d="M493.67,770c-5.33-20.79,3.25-42.35,15.33-60.62-1.31,1.14-41.77,30.54-46.89,86.35C482,782.33,491.7,772.18,493.67,770Z"/><path class="d" d="M749.2,730.17A116.14,116.14,0,0,1,745,742.92q2.92,1.85,5.43,3.8C750.8,745.05,750.53,735.71,749.2,730.17Z"/><path class="d" d="M675.2,805.76c13,4.75,27.47.77,40.76-3.23,9.41-2.83,16.54-6.32,21.87-10.44,7.07-23.47,11.12-39.45,12.56-45.37q-2.5-2-5.43-3.8C732.85,773.39,708.11,797.89,675.2,805.76Z"/><path class="b" d="M452.58,801.92c3.34-2.08,6.46-4.11,9.36-6.06-19.72-17.61-32.39-42.68-40.6-68.72-2.43,2.22-4.88,4.32-7.3,6.3C418.49,759.9,432,784.83,452.58,801.92Z"/><path class="a" d="M452.58,801.92c-20.55-17.09-34.09-42-38.54-68.48-2.17,1.78-4.32,3.47-6.41,5,1.41,12.41,7.86,45.7,37.07,68.18,1.78-1,3.52-2.08,5.2-3.1h0C450.81,803,451.7,802.47,452.58,801.92Z"/><path class="b" d="M842.47,808.32q-.62-6.3-1.23-12.67c-25.88,9.41-53.44,15.79-80.22,12.15q.87,5.31,1.74,10.51C789.57,821.89,817.1,817.71,842.47,808.32Z"/><path class="a" d="M762.76,818.31q1,6.24,2.09,12.34c26.57.72,53.69-3.2,78.58-12.45-.32-3.27-.64-6.57-1-9.88C817.1,817.71,789.57,821.89,762.76,818.31Z"/><path class="e" d="M613.7,623.47s-7,39.72-9.92,63a6.12,6.12,0,0,0,6.08,6.87h7.87a6.12,6.12,0,0,0,6.08-5.45c1.66-15.38,6.54-58.36,10-64.43l-12.7,5.29Z"/><circle class="a" cx="619" cy="645.71" r="5.29"/><circle class="a" cx="614.76" cy="679.59" r="5.29"/><path class="d" d="M534.88,1044.41,537,973.12s69.12,72.59,172.17,14.7l22.3,28.06S650.76,1080.88,534.88,1044.41Z"/><path class="f" d="M729.56,588.66c-8.19.22-12.09,4.1-12.09,4.1-.21.58-.43,1.15-.65,1.72-29.13,77.23-108.41,117.93-108.41,117.93-37-43.84-36.09-110.08-35.71-120.39,0-.89.06-1.37.06-1.37a66.29,66.29,0,0,0-15.38-1.31c.28,27.14,5.59,96.69,50,141.07C607.35,730.41,714.37,681.64,729.56,588.66Z"/><path class="f" d="M747.46,773.12c2.31-14.07,2.83-22.59,2.83-22.59-.3-.87-.59-1.76-.87-2.66-15.11-48.52,2-135.85,4.74-149.15l.37-1.72a62.92,62.92,0,0,0-12.59-6.19c-.12.5-.25,1-.35,1.54C733,652.18,722.31,717.84,747.46,773.12Z"/><path class="f" d="M517.59,700.35C527,664.6,531.1,628.85,539,593.93a29.47,29.47,0,0,0-9.33,7.4c-.48.6-.71,1-.71,1-2.12,14.83-20,107.11-20,107.11-1.5,2-2.86,4-4.12,6C510.58,711.62,515.34,707.09,517.59,700.35Z"/><path class="g" d="M714.29,965.47c-25.41-32.82-18-44.47,7.41-103.76a388.38,388.38,0,0,0,25.76-88.59c-25.15-55.28-14.42-120.94-5.87-180.77.1-.52.23-1,.35-1.54a34.78,34.78,0,0,0-12.38-2.15c-15.19,93-122.21,141.75-122.21,141.75C563,686,557.66,616.48,557.38,589.34A42.45,42.45,0,0,0,539,593.93c-7.94,34.92-12,70.67-21.45,106.42-6.24,5.71-8.59,9-12.71,15-20,31.09-11.24,54.59-11.21,54.66h0s30,81.45,30,98,4.24,141.88-5.29,157.76a23.58,23.58,0,0,0-1.56,3.09c23.16,9.18,126.91,43.37,228.25-33.35C738.8,989.3,727.36,982.35,714.29,965.47Z"/><path class="h" d="M675.2,805.76c13,4.75,47.56,4.06,68-11.47.17-.54.32-1.08.48-1.62,1.59-7.29,2.82-13.87,3.75-19.55a155.22,155.22,0,0,1-7.34-19.62C726.86,779,704.21,798.82,675.2,805.76Z"/><path class="h" d="M531.88,1024.41,537,973.12s72.12,60.82,175.18,2.94l16.29,19.82S647.76,1060.88,531.88,1024.41Z"/><path class="b" d="M571,630.48c0,6.06,0,10.28,0,10.28l19.52-11.45A19.23,19.23,0,0,1,609.83,625l11.29,3.76-3.46-10.19C601.65,610.53,584.77,619.22,571,630.48Z"/><path class="a" d="M571,623.44c0,2.5,0,4.89-.06,7,13.79-11.26,30.67-20,46.68-11.91l-3.41-10.06C598.22,606,583.64,613.78,571,623.44Z"/><path class="b" d="M614.25,608.51l-7.6-22.45.35-18.71s-32.12,12.71-34.24,23.3c-1.18,5.89-1.59,20.76-1.72,32.79C583.64,613.78,598.22,606,614.25,608.51Z"/><path class="b" d="M637.22,616.89c-9.08,6.82-16.1,11.87-16.1,11.87l18.43-3a26.28,26.28,0,0,1,20.71,5.43l27.92,18.78a45.79,45.79,0,0,0,3.66-6.77C674.89,632.66,656.68,612.75,637.22,616.89Z"/><path class="a" d="M637.22,616.89c19.46-4.14,37.67,15.77,54.62,26.28.86-1.83,1.8-3.93,2.79-6.2-14.39-12.28-29.51-25.92-48.81-26.61C642.86,612.64,639.94,614.84,637.22,616.89Z"/><path class="b" d="M704.49,583.55c-11.15-9.85-27.61-19-27.61-19v18.71c-2.73,4.72-17.44,16.66-31.06,27.12,19.3.69,34.42,14.33,48.81,26.61,4.74-10.84,10.62-25.72,14.32-35.25A16.35,16.35,0,0,0,704.49,583.55Z"/><path class="f" d="M516.85,1028.91c-5.93,14.19,7.93,23.67,7.93,23.67,70.92,30.42,170.45,11.36,221.41-33.34,6.24-12.46,4.87-17.76-1.09-23.68C643.76,1072.28,540,1038.09,516.85,1028.91Z"/><rect class="i" width="1262.35" height="2194.12"/></svg>