<svg xmlns="http://www.w3.org/2000/svg" width="1262.35" height="2194.12" viewBox="0 0 1262.35 2194.12"><defs><style>.a{fill:#ff8b70;}.b{fill:#f03330;}.c{fill:#cc2b29;}.d{fill:#ff1612;}.e{fill:#ffa530;}.f{fill:none;}.g{fill:#ad5844;}.h{fill:#ba1c19;}.i{fill:#ff2623;}.j{fill:#f2f1f1;}.k{fill:#ffd029;}</style></defs><title>4_girl_pant_1</title><path class="a" d="M789.66,1163.68c2.91-106.87-43.47-144.44-43.47-144.44-14.4,12.63-32.68,23.22-53.1,31.22,7.09,25.8,21.63,49.79,39.5,69.89A159.66,159.66,0,0,0,789.66,1163.68Z"/><path class="b" d="M789.12,1176.18q.38-6.4.54-12.5a159.66,159.66,0,0,1-57.07-43.33c-17.87-20.1-32.41-44.09-39.5-69.89-39.82,15.59-87.76,21.34-130.91,13.28-5.46,46.86-19.79,93.07-45.77,132.34-1.48,22-2.9,42.21-4.16,59.4a710.14,710.14,0,0,0,8.57,174.36c.34,1.91.68,3.83,1,5.76a389.15,389.15,0,0,0,67.58,157.8l8.38,11.6c-2.65,30.52-14,105.37-26.29,182.19,26.62,15.84,51.84,29,88.35,27.09,4.69-7.29,7.82-11.28,7.82-11.28s1.8,5.2,4.73,13.75c45.85-5.38,71.61-21.12,82.9-30-2.15-31-2.46-65.24-2.92-105.14-1.41-122.83-56.47-144-56.47-144s18.63-82,48-175.06C763.26,1301.31,786.33,1222.08,789.12,1176.18Z"/><path class="a" d="M524.78,1052.58c-2.34,49.18-5.45,99.94-8.37,143.5,26-39.27,40.31-85.48,45.77-132.34A177.33,177.33,0,0,1,524.78,1052.58Z"/><path class="c" d="M605.84,1165c6.6,3,13.26,5.93,18.88,10.64-3.4-36.31-3.67-73.32,1.6-109.42-7.44.72-14.91,1.12-22.37,1.16A336,336,0,0,0,605.84,1165Z"/><path class="d" d="M789.45,1139.15c-4.06-88.16-43.26-119.91-43.26-119.91a164.92,164.92,0,0,1-32.87,22.06C722.64,1082.79,750.19,1123.15,789.45,1139.15Z"/><path class="d" d="M544.16,1059.48a166.74,166.74,0,0,1-19.38-6.9c-1.68,35.29-3.76,71.39-5.87,105.06C538.47,1129.56,546.3,1094.07,544.16,1059.48Z"/><path class="a" d="M753.65,1752.34c-20.86,11.65-42.34,11.69-64.77,20.54-.67.45-1.36,4.1-1.88,4.71a198.64,198.64,0,0,1-109.24-29.69c-4.46,11.44-5.41,25-6.23,39.29,26.62,15.84,51.84,29,88.35,27.09,4.69-7.29,7.82-11.28,7.82-11.28s1.8,5.2,4.73,13.75c45.85-5.38,71.61-21.12,82.9-30C754.56,1775.72,754,1764.28,753.65,1752.34Z"/><path class="e" d="M754.58,1774.57c0,.38,0,.75.07,1.12C754.63,1775.32,754.6,1775,754.58,1774.57Z"/><path class="e" d="M752.85,1716.57c0,.5,0,1,0,1.5C752.86,1717.57,752.85,1717.07,752.85,1716.57Z"/><path class="e" d="M753.09,1730.79c0,.17,0,.34,0,.51C753.1,1731.13,753.09,1731,753.09,1730.79Z"/><path class="e" d="M754.9,1780.09c0,.46.06.93.08,1.39C755,1781,754.93,1780.55,754.9,1780.09Z"/><path class="e" d="M754,1762.06c0,.4,0,.81,0,1.22C754,1762.87,754,1762.46,754,1762.06Z"/><path class="e" d="M753,1723.61c0,.26,0,.52,0,.78C753,1724.13,753,1723.87,753,1723.61Z"/><path class="e" d="M753.78,1756.16c0,.4,0,.8,0,1.2C753.8,1757,753.79,1756.56,753.78,1756.16Z"/><path class="e" d="M752.57,1695.17c0,.53,0,1.07,0,1.6C752.58,1696.24,752.57,1695.7,752.57,1695.17Z"/><path class="e" d="M752.41,1681.59q0,4,.09,8C752.47,1687,752.44,1684.29,752.41,1681.59Z"/><path class="e" d="M752.66,1703.12v0Z"/><path class="e" d="M752.75,1710.15c0,.35,0,.69,0,1C752.76,1710.84,752.76,1710.5,752.75,1710.15Z"/><path class="e" d="M753.38,1743.26l0,1Z"/><path class="e" d="M753.22,1736.86l0,1.33Z"/><path class="f" d="M753,1724.39q.06,3.22.12,6.4Q753,1727.61,753,1724.39Z"/><path class="f" d="M752.77,1711.19c0,1.81.05,3.6.08,5.38C752.82,1714.79,752.79,1713,752.77,1711.19Z"/><path class="f" d="M752.87,1718.07c0,1.86.06,3.71.09,5.54C752.93,1721.78,752.9,1719.93,752.87,1718.07Z"/><path class="f" d="M752.67,1703.5c0,2.24.05,4.45.08,6.65C752.72,1708,752.69,1705.74,752.67,1703.5Z"/><path class="f" d="M754.05,1763.28c.16,3.81.34,7.58.53,11.29C754.39,1770.86,754.21,1767.09,754.05,1763.28Z"/><path class="f" d="M755,1781.48c.1,1.57.2,3.14.31,4.71C755.18,1784.62,755.08,1783.05,755,1781.48Z"/><path class="f" d="M752.5,1689.6c0,1.87,0,3.73.07,5.57C752.54,1693.32,752.52,1691.47,752.5,1689.6Z"/><path class="f" d="M754.65,1775.69c.08,1.48.16,2.94.25,4.4C754.81,1778.63,754.73,1777.17,754.65,1775.69Z"/><path class="f" d="M753.25,1738.19c0,1.7.09,3.39.13,5.07C753.34,1741.58,753.29,1739.89,753.25,1738.19Z"/><path class="f" d="M753.41,1744.27q.15,6,.37,11.89Q753.57,1750.3,753.41,1744.27Z"/><path class="f" d="M752.59,1696.77c0,2.13,0,4.25.07,6.35C752.64,1701,752.61,1698.9,752.59,1696.77Z"/><path class="f" d="M753.1,1731.3c0,1.87.08,3.72.12,5.56C753.18,1735,753.14,1733.17,753.1,1731.3Z"/><path class="f" d="M753.82,1757.36l.18,4.7Z"/><polygon class="e" points="667.7 1803 667.7 1803 667.7 1803 667.7 1803"/><path class="g" d="M667.7,1803s1.8,5.2,4.73,13.75c45.85-5.38,71.61-21.12,82.9-30-.86-12.43-1.34-25.42-1.53-38.38-21.93,17.54-49,26.52-76.55,33.59C672.93,1791.12,669.51,1798.35,667.7,1803Z"/><path class="h" d="M753.85,1716.57c2.18-121.63-27.56-155-44.5-170.51a43.77,43.77,0,0,0-13.41-8.47c53.65,62.12,7.46,188.82-18.69,244.35,27.58-7.07,54.62-16,76.55-33.59C753.63,1737.61,753.66,1726.9,753.85,1716.57Z"/><path class="e" d="M667.7,1803l-.07-.21Z"/><path class="e" d="M667.63,1802.79Z"/><path class="h" d="M574.53,1139.12s12.7,17.29,36.7,39.88c0,0-11.48,297.41-52.38,364.68a394.71,394.71,0,0,0,30.59,49.72l8.38,11.6c5.66-159.65,17.19-303.2,30.71-434.12C628.53,1170.88,591.47,1153.94,574.53,1139.12Z"/><path class="h" d="M614.76,1564.88c1,11.52,5.43,22.39,14.42,26.24,10.25,3.42,18.31-12.12,20.44-25.45a4,4,0,0,0-5.14-4.48c-7.45,2.12-16.72,2.71-24.08-.36A4.05,4.05,0,0,0,614.76,1564.88Z"/><path class="i" d="M559,1063.12c-2.52-.51-5-1.06-7.51-1.67-2.18-.54-4.35-1.11-6.5-1.73a226,226,0,0,0-3.78,22.84c2.62.79,5.4,1.57,8.35,2.32,2.21.55,4.52,1.09,6.92,1.6C556.52,1078.7,556.91,1070.78,559,1063.12Z"/><path d="M601,1091.32c-.71-8-1.82-16-2.24-24a220.74,220.74,0,0,1-32.94-2.93q-3.4-.57-6.78-1.25c-2.12,7.66-2.51,15.58-2.52,23.36,2.86.62,5.84,1.2,9,1.73A228.94,228.94,0,0,0,601,1091.32Z"/><path class="j" d="M606.22,1067.32q-3.74,0-7.47,0c.42,8,1.53,16,2.24,24,2.33,0,4.7,0,7.12,0a261.49,261.49,0,0,0,27.83-2c3.06-.37,6-.8,9-1.25a233.33,233.33,0,0,1-3.7-23.82A251.78,251.78,0,0,1,606.22,1067.32Z"/><path d="M706.48,1070.46c-2.21-7.5-5-14.8-7.87-22.29A241,241,0,0,1,657,1061.34c-5.21,1.15-10.49,2.12-15.8,3a233.33,233.33,0,0,0,3.7,23.82c5.67-.87,11.16-1.86,16.48-3A232.53,232.53,0,0,0,706.48,1070.46Z"/><path class="i" d="M698.61,1048.17c2.91,7.49,5.66,14.79,7.87,22.29,4.84-2.13,9.65-4.44,14.49-6.92-2.77-7.38-5.69-14.66-8.66-21.75C707.89,1044.05,703.31,1046.18,698.61,1048.17Z"/><path d="M746.06,1018.76l-.17,0,.3.45a164.83,164.83,0,0,1-33.88,22.55c3,7.09,5.89,14.37,8.66,21.75a418.12,418.12,0,0,0,41.3-24.77A245.69,245.69,0,0,0,746.06,1018.76Z"/><path class="k" d="M545,1059.72a169,169,0,0,1-19-6.62,170.41,170.41,0,0,0,19,6.64Z"/><path class="f" d="M526,1053.1l-1.25-.52,0,.72,1.28-.2Z"/><path d="M545,1059.74a170.41,170.41,0,0,1-19-6.64h0l-1.28.2q-.54,11.39-1.14,22.84a164.29,164.29,0,0,0,17.63,6.42A225.65,225.65,0,0,1,545,1059.74Z"/><rect class="f" width="1262.35" height="2194.12"/></svg>