<svg xmlns="http://www.w3.org/2000/svg" width="1262.35" height="2194.12" viewBox="0 0 1262.35 2194.12"><defs><style>.a{fill:#8c8c8c;}.b{fill:#be414c;}.c{fill:#fff;}.d{fill:#004f80;}.e{fill:none;}</style></defs><title>4_girl_shoes_5</title><polygon class="a" points="434.76 2150.29 443.23 2171.47 455.23 2153.82 434.76 2150.29"/><polygon class="a" points="478.18 2156.65 486.65 2177.82 499 2155.94 478.18 2156.65"/><polygon class="a" points="519.12 2151 527.59 2172.18 539.94 2150.29 519.12 2151"/><polygon class="a" points="550.17 2133.35 564.65 2153.82 571 2132.65 550.17 2133.35"/><polygon class="a" points="593.23 2076.18 607.7 2096.65 614.06 2075.47 593.23 2076.18"/><polygon class="a" points="624.29 2047.94 638.76 2068.41 645.12 2047.23 624.29 2047.94"/><polygon class="a" points="627.47 2126.29 635.94 2147.47 647.94 2129.82 627.47 2126.29"/><polygon class="a" points="670.88 2132.65 679.35 2153.82 691.7 2131.94 670.88 2132.65"/><polygon class="a" points="711.82 2127 720.29 2148.18 732.65 2126.29 711.82 2127"/><polygon class="a" points="742.88 2109.35 757.35 2129.82 763.7 2108.65 742.88 2109.35"/><polygon class="a" points="790.53 2039.47 810.29 2052.18 808.17 2030.29 790.53 2039.47"/><polygon class="a" points="815.23 2011.23 837.82 2019.71 835.37 1999.2 815.23 2011.23"/><path class="b" d="M612.59,2029.35c.82-17.37,14.65-27.9,24.5-41.22-3.44-7.94-6.41-13.66-7.26-15.25l-.24-.47c1.06-12.7-10.59-21.17-10.59-21.17-16.94,31.76-50.12,59.52-74.59,59.52-12.61,0-4.47-32.47-4.47-32.47-6.75,5.9-10.76,13.83-13.52,22.5l-.15.27c-22.92,40.48-41.74,84.65-41.74,84.65s-33.09,16.54-50.1,34.88c-1.42,10.51-2.56,22.36-1,32.93a51,51,0,0,0,10.86,5.24c61.41,22.24,124.94-9.52,126-24.35s18-47.65,18-47.65H601c4.79-2,10.12-5.55,15.46-9.78C613.2,2061.33,611.34,2045.54,612.59,2029.35Z"/><path class="c" d="M625.58,2023.81a32.54,32.54,0,0,1,2,5.14c6.55-5.3,13-10.43,18.41-16.67-.83-2.81-1.72-5.57-2.65-8.24A115.66,115.66,0,0,1,625.58,2023.81Z"/><path class="d" d="M646,2012.28c-5.44,6.24-11.86,11.37-18.41,16.67a8.41,8.41,0,0,1,0,3.4,8.41,8.41,0,0,0,0-3.4c-1,.8-2,1.59-3,2.4,1-.81,2-1.6,3-2.4a32.54,32.54,0,0,0-2-5.14c-1,.86-2,1.71-3,2.54,1-.83,2-1.68,3-2.54a11.66,11.66,0,0,1-1-4.46,11.66,11.66,0,0,0,1,4.46A115.66,115.66,0,0,0,643.31,2004c-2-5.82-4.2-11.25-6.22-15.91-9.85,13.32-23.68,23.85-24.5,41.22-1.25,16.19.61,32,3.87,47.63,9.76-7.7,19.55-17.68,26.16-24.83a27.84,27.84,0,0,0,7.2-23.08A128.9,128.9,0,0,0,646,2012.28Z"/><path class="c" d="M540.59,2016.35c35.36,2.66,66.82-26.74,84.69-58.47a30.6,30.6,0,0,0-6.28-6.64c-16.94,31.76-50.12,59.52-74.59,59.52-12.61,0-4.47-32.47-4.47-32.47a39.56,39.56,0,0,0-7.78,9.42C531.3,2000.77,530.22,2015.56,540.59,2016.35Z"/><path class="d" d="M625.28,1957.88c-17.87,31.73-49.33,61.13-84.69,58.47-10.37-.79-9.29-15.58-8.43-28.64a61.48,61.48,0,0,0-5.74,13.08l-.15.27c0,13.2,5.62,26.85,17.32,25.29,34.76-2.83,64-25.3,86.24-53.47l-.24-.47A22.13,22.13,0,0,0,625.28,1957.88Z"/><path class="b" d="M798.59,1967.35c1.25-8.76,6-17.52,10.9-26.53-6.24-7.48-11.1-12.28-11.1-12.28-2.82-18-14.57-18.6-14.57-18.6-10.23,28.59-46.21,74.29-60,70.94-3.88-.94-2.47-14.35-2.47-14.35-1.17-5.18-3.88-13.88-3.88-13.88-5.94,6.71-4.35,11.64-4.35,21.17-17.6,43.17-35.18,86.67-35.18,86.67s-34.9,23.47-47.88,45c1.3,10.89,4.83,21.81,11,30.84a61.24,61.24,0,0,0,6.29,1.73c63.75,14.18,122.69-25.46,121.84-40.29S781,2048.24,781,2048.24l12.6-1.62c7.16-4.17,15.18-12.33,22.38-20.87C804.94,2007.55,794.53,1988.44,798.59,1967.35Z"/><path class="c" d="M811.54,1986.16c5.15-7.21,10.53-14.53,14.32-22.44-1.6-2.72-3.29-5.37-5-7.92a168.42,168.42,0,0,1-12,25.7A25.21,25.21,0,0,0,811.54,1986.16Z"/><path class="d" d="M834.61,1983.15a86.6,86.6,0,0,0-8.75-19.43c-3.79,7.91-9.17,15.23-14.32,22.44a13,13,0,0,0,1.05,1.19,13,13,0,0,1-1.05-1.19c-1,1.4-2,2.8-2.95,4.19,1-1.39,1.95-2.79,2.95-4.19a25.21,25.21,0,0,1-2.75-4.66c-.72,1.28-1.45,2.57-2.2,3.85.75-1.28,1.48-2.57,2.2-3.85a35.29,35.29,0,0,0-2.2-4.15,35.29,35.29,0,0,1,2.2,4.15,168.42,168.42,0,0,0,12-25.7c-3.8-5.6-7.8-10.73-11.34-15-4.87,9-9.65,17.77-10.9,26.53-4.06,21.09,6.35,40.2,17.37,58.4,5.57-6.6,10.66-13.43,14.47-18.79A27.87,27.87,0,0,0,834.61,1983.15Z"/><path class="d" d="M798.39,1928.54c-1.29-8.21-4.43-12.8-7.48-15.36-13.73,32.35-36.33,63.52-69,76.3a24.74,24.74,0,0,0,1.7,1.87,24.74,24.74,0,0,1-1.7-1.87c-.76.3-1.53.59-2.3.87.77-.28,1.54-.57,2.3-.87-8.14-9.87-7.42-23.68-5.14-36-5.06,6.29-3.63,11.2-3.63,20.31l-1,2.35c1.29,11.52,2.66,26.26,13.84,22.54,31.53-11.3,57-41.27,73-69.59Z"/><path class="c" d="M721.89,1989.48c32.69-12.78,55.29-44,69-76.3a13.23,13.23,0,0,0-7.09-3.24c-10.23,28.59-46.21,74.29-60,70.94-3.88-.94-2.47-14.35-2.47-14.35-1.17-5.18-3.88-13.88-3.88-13.88-.26.29-.49.58-.72.86C714.47,1965.8,713.75,1979.61,721.89,1989.48Z"/><path class="c" d="M551.59,2126.35c-34.8,20.3-83.58,23.74-117.51-3.13a157.55,157.55,0,0,0-1.4,18.84,17.63,17.63,0,0,0,11.48,16.66l.13,0c61.41,22.24,124.94-9.52,126-24.35.9-12.62,13.31-38.27,17-45.62.14-6,.51-12.07.52-18C578.55,2092.24,571.33,2115.19,551.59,2126.35Z"/><path class="a" d="M601,2086.76c.41-.17.82-.35,1.24-.55a81,81,0,0,0-8.2-19,12,12,0,0,1-5.07.91c-.4.9-.79,1.8-1.18,2.7,0,5.94-.38,12-.52,18,.64-1.29,1-2,1-2Z"/><path class="c" d="M649.82,2029.07c-.52-3.38-1.23-6.8-2.07-10.19a148.26,148.26,0,0,1-52.16,47.47,9.4,9.4,0,0,1-1.55.82,81,81,0,0,1,8.2,19c13.37-6.22,30.46-23.33,40.38-34.06A27.84,27.84,0,0,0,649.82,2029.07Z"/><path class="c" d="M780.21,2050.43c-1.72-6.43-3.35-12.95-5.11-19.35-6.67,21.88-11.79,44.68-26.51,63.27-8,11-21,17-33,19-27.41,5.88-62.48,11.73-85.52-7.72a72.51,72.51,0,0,0,7.5,24.89,14.69,14.69,0,0,0,9.75,7.56l.07,0c63.75,14.18,122.69-25.46,121.84-40.29C768.51,2085.2,777.49,2058.27,780.21,2050.43Z"/><path class="a" d="M793.58,2046.62l.34-.21a87.77,87.77,0,0,0-9.88-20,47.51,47.51,0,0,1-8.19,2.25l-.75,2.45c1.76,6.4,3.39,12.92,5.11,19.35.48-1.39.77-2.19.77-2.19Z"/><path class="c" d="M834.61,1983.15a70.84,70.84,0,0,0-4.12-10.7c-10.68,22.72-24.67,45.83-46.45,53.93a87.77,87.77,0,0,1,9.88,20c12.63-7.53,27.85-27.27,36.51-39.45A27.87,27.87,0,0,0,834.61,1983.15Z"/><path class="d" d="M502.13,2083c6.08-13.4,26.41-58,31.4-65.89l7.53,1.12-31.51,68.29a4.1,4.1,0,0,1-5.29,1.94h0A4.1,4.1,0,0,1,502.13,2083Z"/><path class="d" d="M694,2058.67c4.62-13.45,20.85-60.14,25.87-68.08l9.53,2.12-27.66,68.84a4.12,4.12,0,0,1-5.46,2.25h0A4.11,4.11,0,0,1,694,2058.67Z"/><path class="d" d="M487.4,2157.44c19.11,0,43.24-4.6,71.57-19.31a3,3,0,1,0-2.77-5.32c-42.18,21.89-74.4,20.56-94,15.59A85.85,85.85,0,0,1,432.92,2135c-.14,2.38-.23,4.77-.23,7.15a94,94,0,0,0,27.66,11.94A108.83,108.83,0,0,0,487.4,2157.44Z"/><path class="d" d="M676.48,2133.3c21.75,0,49.86-5.93,80.8-27.12a3,3,0,1,0-3.39-4.95c-39,26.7-73.07,28.17-94.8,24.71a108.81,108.81,0,0,1-26.45-7.73,70.2,70.2,0,0,0,2.71,7.61,116.32,116.32,0,0,0,41.13,7.48Z"/><path d="M494.06,2074.23a3,3,0,0,1-1.42-5.64c.76-.4,17-9,36.7-8.59-6.26-7.81-15-16.44-20.26-16.12a3,3,0,0,1-1.9-5.47c1-.66,23.8-16.14,49.34-13.21a3,3,0,1,1-.69,6c-16-1.83-31.36,4.59-39.41,8.8,10.13,5.45,20.35,19.79,21.75,21.79a3,3,0,0,1-2.85,4.7c-20.62-2.66-39.66,7.33-39.85,7.43A3,3,0,0,1,494.06,2074.23Z"/><path d="M526.53,2086.24a3,3,0,0,1-2.32-1.1l-23.29-28.23a3,3,0,0,1,.39-4.21c3.8-3.17,21.84-5.39,33.51-6.53l-19.11-23.88a3,3,0,1,1,4.69-3.75L543,2046.77a3,3,0,0,1-2.09,4.87c-12.36,1.05-26.52,2.92-32.78,4.56l20.72,25.13a3,3,0,0,1-2.31,4.91Z"/><path d="M682.53,2053.06a3,3,0,0,1-1.42-5.65c.76-.4,17-9,36.7-8.59-6.26-7.8-15-16.49-20.26-16.12a3,3,0,0,1-1.9-5.47c1-.66,23.81-16.12,49.34-13.21a3,3,0,1,1-.69,6c-16.06-1.83-31.38,4.58-39.42,8.8,10.13,5.44,20.36,19.79,21.76,21.8a3,3,0,0,1-2.85,4.69c-20.69-2.67-39.66,7.33-39.85,7.43A3,3,0,0,1,682.53,2053.06Z"/><path d="M715,2065.06a3,3,0,0,1-2.32-1.09l-23.29-28.24a3,3,0,0,1,.39-4.21c3.8-3.16,21.84-5.39,33.51-6.53l-19.1-23.88a3,3,0,1,1,4.68-3.75l22.59,28.24a3,3,0,0,1-2.09,4.86c-12.36,1-26.52,2.92-32.78,4.57l20.72,25.12a3,3,0,0,1-2.31,4.91Z"/><rect class="e" width="1262.35" height="2194.12"/></svg>