<svg xmlns="http://www.w3.org/2000/svg" width="1262.35" height="2194.12" viewBox="0 0 1262.35 2194.12"><defs><style>.a{fill:#ffdb6b;}.b{fill:#cead4f;}.c{fill:#c45086;}.d{fill:#eb78ae;}.e{fill:#8b3e62;}.f{fill:#c4c4c4;}.g{fill:#fff;}.h{fill:none;}</style></defs><title>4_girl_shirt_10</title><path class="a" d="M742.87,598.91c-147.17,91.27-178.93,22.44-181.42-5.49-70.26,12.24-87.08,35.06-112.92,97.82-11.77,28.56-45.53,51.35-59,59.54,2.08,19.59,6.92,52.41,20.57,73.8C449,806.7,472.57,789.1,484.45,778.8l9.61-9.21c33.33,92.22,41.09,65.57,30.73,283,70.92,30.42,170.44,11.36,221.4-33.34-2.09-3-5.32-9-11-15.53-6-7-14.65-14.64-21.44-24-14.89-20.45-27.44-44.66-19.61-64C734.41,816.18,751,741.18,751,741.18c3.23,20.65,13.2,81.23,20.9,127.43,3.73,18.5,7.8,36,12.49,52.81,27.17,5.21,50.09.5,68.76-10.46C823.21,661.87,849.24,613.88,742.87,598.91Z"/><path class="b" d="M509,709.4c-28.26,24.63-47.33,58.39-59.11,94.17,28.22-17.17,41.44-31,43.78-33.55C488.34,749.23,496.92,727.67,509,709.4Z"/><path class="b" d="M675.2,805.76c13,4.75,27.47.77,40.76-3.23,9.41-2.83,16.54-6.32,21.87-10.44C746.9,762,751,744.18,751,744.18l.54,3.47c-.54-5.5-1.39-11.32-2.34-17.48C739.44,766.42,712.59,796.82,675.2,805.76Z"/><path class="c" d="M553.26,703.66c-3.81.07-7.66.29-11.67.69,4-.4,7.86-.62,11.67-.69,1-8.12,2.07-16.22,3.33-24.31-1.26,8.09-2.35,16.19-3.33,24.31,3-.06,6,0,9,.09,8.15-52.18,33.47-120.51,33.47-120.51-70.58,2.82-114.35,31-111.52,42.35s26.82,72,26.82,72c-22.59,18.35-24,74.82-24,74.82l-3.34,144.66a24.92,24.92,0,0,0,13.28,22.79c15.26,7.87,33.63,10.74,47.6,11.69a19.42,19.42,0,0,0,7.65-1C547.38,868.12,543.47,785.34,553.26,703.66Z"/><path class="d" d="M560.41,718.06c.43-4.58,1.05-9.37,1.82-14.31-3-.13-6-.15-9-.09-9.79,81.68-5.88,164.46-1.07,246.87a19.38,19.38,0,0,0,13.06-19.08C563.22,879.12,558.19,741.85,560.41,718.06Z"/><path class="c" d="M732.65,593.94c-.41,0,1.89.24,5.85.76C738.81,594.54,737.16,594.29,732.65,593.94Z"/><path class="c" d="M805.35,621.35s-.43-8.82-5.65-12.7c-8.91-6.64-46.52-12-61.2-13.95-1.34.69-39.74-.17-39.74-.17s-30.16,51.88-48.33,88.91c-10.16,88.28-10.58,177.86-8.31,266.83.31.06.61.14.93.18,18.39,2.79,54,3.92,96.71-16.4a25.34,25.34,0,0,0,14.51-23.27l-2.73-163.13S754.53,635.12,805.35,621.35Z"/><path class="d" d="M650.43,683.44C642.6,699.4,637,712.6,637,717.71c-6.67,47.42-10.53,130.43-7.86,217a16.44,16.44,0,0,0,13,15.57C639.85,861.3,640.27,771.72,650.43,683.44Z"/><path class="b" d="M534.88,1044.41,537,973.12s69.12,72.59,172.17,14.7l22.3,28.06S650.76,1080.88,534.88,1044.41Z"/><path class="e" d="M483.68,918.3a24.85,24.85,0,0,0,13.26,21.56c15.26,7.87,33.63,10.74,47.6,11.69a19.41,19.41,0,0,0,20.72-18.8C537.4,937.78,508.59,930.61,483.68,918.3Z"/><path class="e" d="M511,697.59a30,30,0,0,0-2.64,2.43,47.87,47.87,0,0,0-8.06,11.47,138.15,138.15,0,0,1,60.55,2.42c.43-3.81,1-7.75,1.64-11.77-10.18-3.72-21-4.61-31.88-4.23a14.63,14.63,0,0,1-13.81-8.51c-10.95-23.65-19.54-48.08-28.92-72.24-3,3.26-4.27,6.18-3.7,8.43C487,636.88,511,697.59,511,697.59Z"/><path class="e" d="M801.44,610.3c-31.62,8.23-54.68,43.05-60.07,99.1a4.53,4.53,0,0,1-5.71,4.2c-28.93-8.82-64.32-11.22-94.48-10a64.1,64.1,0,0,0-4,12.29c16.42-.47,79.48-.94,115.2,18.54.34-3.92.81-8.57,1.46-13.69,4.33-34.2,16.69-90,51.52-99.44C805.35,621.35,805,614.6,801.44,610.3Z"/><path class="e" d="M629.05,931.22c0,1.16.06,2.31.09,3.48a16.43,16.43,0,0,0,13.91,15.75c18.39,2.79,54,3.92,96.71-16.4a25.33,25.33,0,0,0,14.5-22.82C715.6,929.75,671.42,937.31,629.05,931.22Z"/><path class="f" d="M639.05,704.57c-1.41,8.15-2,13.14-2,13.14,64.59-71,136.59-117.53,136.59-117.53a79.54,79.54,0,0,0-6.12-10.87C714.69,613.34,670.32,655.92,639.05,704.57Z"/><path class="g" d="M767.47,589.31c-23.37-34.53-60.59-23-60.59-23-42.68,15.37-62,104.37-67.83,138.28C670.32,655.92,714.69,613.34,767.47,589.31Z"/><path class="f" d="M517.35,600.18s9.88,66.35,43.06,117.88c0,0,1.56-6.59,4.15-16.84a335.5,335.5,0,0,1-31.23-121A90,90,0,0,0,517.35,600.18Z"/><path class="g" d="M604.88,585.35s-8.47-28.94-39.53-22.59c-13.36,2.74-24.11,10-32,17.49a335.5,335.5,0,0,0,31.23,121C573.13,667.35,593,593.48,604.88,585.35Z"/><rect class="h" width="1262.35" height="2194.12"/></svg>