<svg xmlns="http://www.w3.org/2000/svg" width="1262.35" height="2194.12" viewBox="0 0 1262.35 2194.12"><defs><style>.a{fill:#6e3157;}.b{fill:#bf8cde;}.c{fill:#fff;}.d{fill:#0c2738;}.e{fill:#542543;}.f{fill:#9f71bd;}.g{fill:none;}</style></defs><title>4_girl_shirt_9</title><path class="a" d="M525.44,1038.42c-.23,5.24-.46,10-.65,14.16,70.92,30.42,172.44,10.36,223.4-34.34-1.07-1.56-3.53-3.72-11.36-13.08C642.1,1068.64,557.67,1050.3,525.44,1038.42Z"/><path class="b" d="M683.09,591.58c-12.69,10.52-47,29.34-62,37.18a389.75,389.75,0,0,1-17.21-41c-49.06,5.08-79.5,12.43-100.39,24.33-6.79,31.7,1.46,66.35,3.91,99,.38-.25.76-.51,1.16-.76-.4.25-.78.51-1.16.76.05.75.11,1.5.16,2.24,0-.74-.11-1.49-.16-2.24-7.33,4.94-12,11.59-15.84,18.24-7.15,14.3-7.1,30.18-2,44.81,2.95-2.83,4.37-4.47,4.49-4.57,0,.12,26.45,61.1,31.21,88.88q.08.43.15.9c0,.21.07.42.1.64l.15,1,.09.65c.06.35.1.72.15,1.09,0,.2.06.39.09.6,4.92,37.9,1.62,126.91-.56,175.1,32.23,11.88,116.66,30.22,211.39-33.26-4.43-5.29-13.13-11.46-21.16-23-45.85-65.78-7.92-55.51,35.33-241l.27,1.72c2.76-45.39,12.19-93.16,36.9-131.7C748.66,588.44,694.4,597.58,683.09,591.58Z"/><path class="c" d="M449.89,803.57l.47-.28-.46.28Z"/><path class="c" d="M453.4,801.4l-.91.57Z"/><path class="c" d="M456.24,799.6l-1.2.77Z"/><path class="c" d="M458.93,797.87l-1.56,1Z"/><path class="c" d="M683.09,591.58h0a20,20,0,0,0,1.84.84A20,20,0,0,1,683.09,591.58Z"/><path class="c" d="M577.13,591.3Z"/><path class="c" d="M573.89,591.82h0Z"/><path class="c" d="M685.11,592.49l.61.23Z"/><path class="c" d="M570.56,592.38l.08,0Z"/><path class="c" d="M686,592.8q.51.18,1,.33Q686.49,593,686,592.8Z"/><path class="c" d="M688.6,593.53l.52.12Z"/><path class="c" d="M687.47,593.26l.55.14Z"/><path class="c" d="M690.22,593.86l.4.07Z"/><path class="c" d="M459.34,797.59c19.36-12.73,29.66-22.69,33.24-26.41C489,774.93,478.53,785,459.34,797.59Z"/><path class="a" d="M503.52,612.1c-28.34,16.13-39.13,40.62-55,79.14-14.83,36-64.59,62.82-64.59,62.82s-5.68-26.94-33.18-64.94A96.16,96.16,0,0,1,339,666.46a157.92,157.92,0,0,1-5-16.4c-.35-1.36-.67-2.73-1-4.1-16.26,8.43-36.46,11.44-53.81,12.28q1,8.94,2.18,17.88c8.91,64.86,27.15,128.66,38.21,158.13a23.15,23.15,0,0,0,28.58,14c35.19-11,70.76-25.76,101.74-44.63,21.2-12.91,33.65-23.64,39.67-29.41-5.08-14.63-5.13-30.51,2-44.81,3.8-6.65,8.51-13.3,15.84-18.24C505,678.45,496.73,643.8,503.52,612.1Z"/><path class="d" d="M329.13,625.17c-.87-6-1.54-11.68-2.09-16.88-10.29,11.52-29.18,21-50.61,13.78.24,6.21.62,12.51,1.11,18.85a2.46,2.46,0,0,1,0,.26C295.8,641.92,315.38,637,329.13,625.17Z"/><path class="c" d="M329.13,625.17c-13.75,11.78-33.33,16.75-51.57,16,.39,5,.87,10,1.4,15.05.07.67.15,1.34.23,2,17.35-.84,37.55-3.85,53.81-12.28-1.25-5.36-2.28-10.72-3.13-15.93C329.61,628.39,329.36,626.78,329.13,625.17Z"/><path class="c" d="M802.24,754c11.57-2.64,22.78-6.36,34.3-6.91-.53-5.53-1.07-11-1.6-16.41-.05-.59-.11-1.18-.17-1.76-12.36.91-24.86,3.16-36,8C799.91,742.59,801.14,748.29,802.24,754Z"/><path class="a" d="M901.84,1145.6c-1.52-7.26-2.65-14.18-3.52-20.87-3.52-27.39-2.54-51.14-5.32-80.38-5.65-59.29-33.88-96.88-33.88-96.88-4.49-9-13.93-111.26-22.58-200.39-11.52.55-22.73,4.27-34.3,6.91.48,2.45.94,4.91,1.35,7.36-.41-2.45-.87-4.91-1.35-7.36-2.2.5-4.42,1-6.65,1.36,2.23-.39,4.45-.86,6.65-1.36-1.1-5.7-2.33-11.4-3.48-17.1-1.76.75-3.49,1.57-5.17,2.46,1.68-.89,3.41-1.71,5.17-2.46-.78-3.85-1.53-7.69-2.17-11.54.64,3.85,1.39,7.69,2.17,11.54,11.15-4.82,23.65-7.07,36-8-.59-6-1.18-12-1.76-17.8-1-10.16-2-19.91-3-29.05-3.92-37.48-20.81-58.71-41.89-70.86-24.71,38.54-34.14,86.31-36.9,131.7,3.43,22.07,6.63,44.35,9.85,64.91H761c8.58,52.44,18.58,108.05,37.8,157.2-8.29,72.47,32.06,148.53,47.59,175.35l.69,1.21a196.29,196.29,0,0,1,10.37,22.5c.74,1.84,1.46,3.71,2.18,5.59,12-9.08,28.38-13.27,44.47-14.18Q902.86,1150.42,901.84,1145.6Z"/><path class="c" d="M871.18,1203.52c8.41-7.56,21.4-14.26,42.93-15.74q-3.2-8.71-5.64-16.71c-14.46,3.07-29.06,9.17-43.33,13.84C867.39,1191.5,869.43,1197.87,871.18,1203.52Z"/><path class="d" d="M904.12,1155.47c-16.09.91-32.48,5.1-44.47,14.18,1.23,3.25,2.43,6.53,3.59,9.79q1,2.76,1.9,5.47c14.27-4.67,28.87-10.77,43.33-13.84q-1.32-4.27-2.46-8.39Q905,1159,904.12,1155.47Z"/><path class="e" d="M371,767.77a145.7,145.7,0,0,1,12.8-14.27c-.72-3-4.78-18.17-17.48-40.35C371.77,730.86,374.25,749.25,371,767.77Z"/><path class="e" d="M835,953.11c-2.39-6-6.21-13-11.8-15-7.4,8.14-8.25,21.72-1.57,30.55,2.1,2.77,5.22,5.22,8.68,4.93,4.09-.35,7-4.51,7.37-8.6S836.52,956.92,835,953.11Z"/><path class="e" d="M493.67,770c-5.33-20.79,3.25-42.35,15.33-60.62-1.31,1.14-41.77,30.54-46.89,86.35C482,782.33,491.7,772.18,493.67,770Z"/><path class="f" d="M749.2,730.17A116.14,116.14,0,0,1,745,742.92c-12.11,30.47-36.85,55-69.76,62.84,13,4.75,27.47.77,40.76-3.23,9.41-2.83,16.54-6.32,21.87-10.44,7.07-23.47,11.12-39.45,12.56-45.37C750.8,745.05,750.53,735.71,749.2,730.17Z"/><path class="d" d="M613.7,623.47s-7,39.72-9.92,63a6.12,6.12,0,0,0,6.08,6.87h7.87a6.12,6.12,0,0,0,6.08-5.45c1.66-15.38,6.54-58.36,10-64.43l-12.7,5.29Z"/><circle class="c" cx="619" cy="645.71" r="5.29"/><circle class="c" cx="614.76" cy="679.59" r="5.29"/><path class="d" d="M614.35,608.79l-.1-.28-7.6-22.45.35-18.71s-32.12,12.71-34.24,23.3c-1.18,5.89-1.59,20.76-1.72,32.79,0,.53,0,1,0,1.56C584.17,615.9,599.51,604.89,614.35,608.79Z"/><path class="c" d="M614.35,608.79c-14.84-3.9-30.18,7.11-43.33,16.21,0,1.94,0,3.78,0,5.48,0,6.06,0,10.28,0,10.28l19.52-11.45A19.23,19.23,0,0,1,609.83,625l11.29,3.76-3.46-10.19Z"/><path class="c" d="M637.22,616.89c-9.08,6.82-16.1,11.87-16.1,11.87l18.43-3a26.28,26.28,0,0,1,20.71,5.43l27.92,18.78a45.79,45.79,0,0,0,3.66-6.77c.77-1.65,1.62-3.52,2.5-5.54-16.06-10.4-31.67-21.6-49.9-26.21C642,613.32,639.52,615.16,637.22,616.89Z"/><path class="d" d="M709,601.72a16.35,16.35,0,0,0-4.46-18.17c-11.15-9.85-27.61-19-27.61-19v18.71c-2.73,4.72-17.44,16.66-31.06,27.12l-1.38,1.06c18.23,4.61,33.84,15.81,49.9,26.21l.29-.66C699.37,626.13,705.25,611.25,709,601.72Z"/><polygon class="d" points="698.41 725.12 687.69 730.41 685.97 742.24 677.63 733.68 665.85 735.7 671.41 725.12 665.85 714.54 677.63 716.56 685.97 708 687.69 719.83 698.41 725.12"/><polygon class="d" points="721.17 696.1 714.16 699.56 713.03 707.3 707.57 701.7 699.86 703.02 703.5 696.1 699.86 689.17 707.57 690.49 713.03 684.89 714.16 692.63 721.17 696.1"/><polygon class="d" points="725.54 640.7 718.53 644.16 717.4 651.9 711.94 646.3 704.23 647.62 707.87 640.7 704.23 633.77 711.94 635.1 717.4 629.49 718.53 637.24 725.54 640.7"/><polygon class="d" points="573.07 908.58 566.06 912.04 564.93 919.78 559.47 914.18 551.76 915.5 555.4 908.58 551.76 901.65 559.47 902.98 564.93 897.38 566.06 905.12 573.07 908.58"/><polygon class="d" points="550.89 948.61 546.29 950.87 545.56 955.94 541.98 952.27 536.94 953.14 539.32 948.61 536.94 944.08 541.98 944.94 545.56 941.27 546.29 946.34 550.89 948.61"/><path class="f" d="M720.23,1000.78l-11.05-16C606.12,1042.71,537,970.12,537,970.12l-1.8,60.71C557.73,1037.58,646.13,1057.21,720.23,1000.78Z"/><rect class="g" width="1262.35" height="2194.12"/></svg>