<svg xmlns="http://www.w3.org/2000/svg" width="1262.35" height="2194.12" viewBox="0 0 1262.35 2194.12"><defs><style>.a{fill:#a1694a;}.b{fill:#8c5537;}.c{fill:#b27c5e;}.d{fill:none;}</style></defs><title>4_girl_face_3</title><path class="a" d="M522.58,419.29s-21.18-38.92-37.47-18.61,3.26,89.69,47.24,84.61Z"/><path class="b" d="M523.88,436.41s-19.76-31.06-26.82-16.94,5.64,48,33.88,50.82Z"/><path class="a" d="M758,419.29s21.18-38.92,37.47-18.61-3.26,89.69-47.24,84.61Z"/><path class="b" d="M756.66,436.41s19.76-31.06,26.82-16.94-5.65,48-33.88,50.82Z"/><path class="c" d="M640.29,213.76s-134.11-2.82-134.11,125.65c0,4.24,9,101.94,12.7,125.65,4.24,26.82,33.88,90.35,121.41,98.82,87.53-8.47,117.18-72,121.41-98.82,3.75-23.71,12.71-121.41,12.71-125.65C774.41,210.94,640.29,213.76,640.29,213.76Z"/><rect class="d" width="1262.35" height="2194.12"/></svg>