<svg xmlns="http://www.w3.org/2000/svg" width="1262.35" height="2194.12" viewBox="0 0 1262.35 2194.12"><defs><style>.a{fill:#824f39;}.b{fill:#73402a;}.c{fill:none;}</style></defs><title>4_girl_body_4</title><path class="a" d="M607,587.47V538.06s0-26.82,35.29-25.41,33.89,31.06,33.89,31.06l1.41,40.94s0,9.88,21.17,9.88,121.41-7.06,131.3,87.53,23.41,254.12,29.06,265.41c0,0,28.23,37.59,33.88,96.88,5.24,55-2.89,90.6,30.89,167.65a48.78,48.78,0,0,1,.82,37.18c-11.26,29.09-27.05,74.91-25.85,133.56.06,2.78-1.93,4-4.43,2.75-10.81-5.35-9.87-28.46-10.78-56.84,0,0-24.95,29.59-34.3,44.5a3.87,3.87,0,0,1-7.14-1.61c-1.17-10.63,4.34-31.78,26.73-51.48,0,0-29.14,7.17-44.33,10.09a4.18,4.18,0,0,1-4.44-6.14c3-5.43,16.65-15.45,45.59-18.42l-39.84-12.69a2.67,2.67,0,0,1-.28-4.84c6-3.12,23.06-7.47,41.06,1.06-13.23-21.71-12.28-46.06,10.77-64.06,0,0-15.53-57.88-31.06-84.71S790.53,1037.47,798.82,965c-23.69-60.57-33.7-130.47-47.82-220.82,0,0-16.59,72-56.82,171.53C681,948.34,727,995.47,727,995.47s67.76,64.94,62.12,180.71c-2.24,45.93-25.86,125.13-45.18,186.35-29.37,93.08-48,175.06-48,175.06s55.06,21.17,56.47,144,1.41,192,57.88,278.12c0,0,36.71,36.7-5.64,57.88s-49.42,42.35-49.42,42.35,0,52.24-19.76,59.3-50.82,15.52-50.82,15.52-67.77,9.89-28.24-38.11c0,0,36.71-25.41,35.29-35.3s28.24-90.35,29.65-94.59S667.7,1803,667.7,1803s-52.23,66.35-49.41,153.88c0,0,3.88,28.24,12.36,40.94s40.23,58.24-41.3,79.42c0,0-8.47,2.11-18,28.58s-6.35,43.42-50.82,49.77-104.47,6.7-75.88-33.53c0,0,4.94-13.06,39.88-30l50.82-86.82s56.12-327.18,62.47-400.24l-8.38-11.6a389.28,389.28,0,0,1-67.58-157.8c-.36-1.93-.7-3.85-1-5.76a710.14,710.14,0,0,1-8.57-174.36c8.34-114.42,24.38-360.92,11.45-404-16.94-56.47-29.64-81.88-29.64-81.88s-38.81,45.07-145.9,78.62a23.17,23.17,0,0,1-28.58-14c-16.21-43.2-47.85-160.13-42.93-246.07,0,0-22.95-31.42-3.53-70.59,0,0-37-11-47.37-26.88a4.3,4.3,0,0,1,5.14-6.38c14,5.49,45.74,16.55,54.23,16.55,0,0-32.55-35.22-35.72-64.79a3.83,3.83,0,0,1,7-2.5c12.6,19.35,39.86,54.16,48,57.41,0,0-18.45-49.43-12.62-76.16a2.72,2.72,0,0,1,5.31-.13c5,20.22,18,59.15,26.13,69.7,0,0,5.8-50.54,23.06-65.84a4.46,4.46,0,0,1,7.29,4.24c-3.3,16.58-10,54-9.17,82.07,0,0,16.26-27.09,35.4-30.66a5.21,5.21,0,0,1,4.84,8.65c-2.09,2.25-4.51,4.76-7.06,7.19-5.43,5.17-24.67,26.46-25.65,59.29-.28,9.45-27.77,34.36-27.77,34.36,3.18,12.7,2.59,72.23,26.59,105.41,27.5,38,33.18,64.94,33.18,64.94s49.76-26.82,64.59-62.82,31.76-74.12,70.94-86.83S607,587.47,607,587.47Z"/><path class="b" d="M712.48,594.42c-5.89,0-10.64.11-13.72.11-21.17,0-21.17-9.88-21.17-9.88l-1.41-40.94s1.41-29.65-33.89-31.06S607,538.06,607,538.06v49.41s-12.47,1.09-29.87,3.83C610.55,629,671.15,622.35,712.48,594.42Z"/><path class="b" d="M889,1315.76a37.34,37.34,0,0,1-11.36-21.41c-1.48-14.77,4.69-32.25,16.87-40.8-8.1,0-16-4.16-19.87-11.2-2.41-4.21-2.64-8.42-2.45-12.63-17.76,17.41-17.56,39.51-5.44,59.4-18-8.53-35.07-4.18-41.06-1.06a2.67,2.67,0,0,0,.28,4.84l39.84,12.69c-28.93,3-42.6,13-45.59,18.42a4.19,4.19,0,0,0,4.44,6.14c15.19-2.92,44.33-10.09,44.33-10.09-22.39,19.7-27.9,40.85-26.73,51.48a3.87,3.87,0,0,0,7.14,1.61c9.35-14.91,34.3-44.5,34.3-44.5.91,28.38,0,51.5,10.78,56.84,2.5,1.23,4.49,0,4.43-2.75-.15-7.72,0-19.13.37-26.28C884.41,1351.94,887.55,1323.93,889,1315.76Z"/><path class="b" d="M371,767.77a145.7,145.7,0,0,1,12.8-14.27c-.72-3-4.78-18.17-17.48-40.35C371.77,730.86,374.25,749.25,371,767.77Z"/><path class="b" d="M509,709.4c-28.26,24.63-47.33,58.39-59.11,94.17,28.22-17.17,41.44-31,43.78-33.55C488.34,749.23,496.92,727.67,509,709.4Z"/><path class="b" d="M775.63,1942.55c7.58,15.76,6,35.09,6,52.8,6-11,17-21,12-34C790.68,1953.35,783.54,1947.48,775.63,1942.55Z"/><path class="b" d="M592.59,2045.35a34.86,34.86,0,0,0,22-19c4.34-10.14-1.8-18.18-7-26.78C608.55,2016,604.37,2032.83,592.59,2045.35Z"/><path class="b" d="M667.7,1803c-1.49-4.34,16.92,49.2,29.43,86.47,3.87-54.14,50.89-56.08,63.48-55.61-7.14-43.27-7.5-91.12-8.2-152.27-1.41-122.83-56.47-144-56.47-144C773.59,1609.59,680.41,1770.18,667.7,1803Z"/><path class="b" d="M835,953.11c-2.39-6-6.21-13-11.8-15-7.4,8.14-8.25,21.72-1.57,30.55,2.1,2.77,5.22,5.22,8.68,4.93,4.09-.35,7-4.51,7.37-8.6S836.52,956.92,835,953.11Z"/><path class="b" d="M574.53,1139.12s12.7,17.29,36.7,39.88c0,0-11.48,297.41-52.38,364.68a394.71,394.71,0,0,0,30.59,49.72l8.38,11.6c5.66-159.65,17.19-303.2,30.71-434.12C628.53,1170.88,591.47,1153.94,574.53,1139.12Z"/><path class="b" d="M675.2,805.76c13,4.75,27.47.77,40.76-3.23,9.41-2.83,16.54-6.32,21.87-10.44C746.9,762,751,744.18,751,744.18l.54,3.47c-.54-5.5-1.39-11.32-2.34-17.48C739.44,766.42,712.59,796.82,675.2,805.76Z"/><path class="b" d="M346.29,418.57c-17.26,15.3-23.06,65.84-23.06,65.84-8.24-10.71-23.06-77.65-30.3-76.66-16.91,2.29,9.13,79.49,9.13,79.49-8.14-3.26-33.05-34.3-45.65-53.65a3.83,3.83,0,0,0-7,2.52c3.18,29.56,35.72,64.77,35.72,64.77-8.49,0-40.29-11.06-54.23-16.55a4.29,4.29,0,0,0-5.21,6.27c9.1,14.06,40.48,24.76,47.44,27,16.23-7.06,41.39-15.78,57.17-16.71-.55.2-36,14.06-36,37,0,33.19,29.88,45.83,29.88,45.83-10.83-10.36-12.24-17.89-12.24-17.89-17.88-44.7,25.41-50.35,25.41-50.35l7.06-10.59c-.8-28,5.87-65.49,9.17-82.07A4.46,4.46,0,0,0,346.29,418.57Z"/><path class="b" d="M677.59,2104.35c-10.45,6.72-12.55,19-15.84,30.62a72,72,0,0,0,10,.63C669.27,2125.37,673,2114.44,677.59,2104.35Z"/><path class="b" d="M644.27,2118.41c-.86,5.19.75,8.87,3.78,11.45,1.35-9.25,8.13-18.07,13.54-25.51C655.5,2108.16,648.27,2112,644.27,2118.41Z"/><path class="b" d="M465.59,2119.35c-8.32,3-18.92,5.49-26.19,11.69-3.54,8-2.58,13.94,1.5,18.18C444.51,2136.89,455.05,2127.46,465.59,2119.35Z"/><path class="b" d="M479.59,2131.35c-12.24,2.45-18.49,14.88-26.89,24.27a82.25,82.25,0,0,0,17.62,2.82C470,2149.13,475.05,2139.67,479.59,2131.35Z"/><path class="b" d="M481.75,2158.75c5.05,0,10.26-.25,15.5-.63-.07-9.33,4.06-18.91,7.34-26.77C491.73,2136.5,487.69,2147.52,481.75,2158.75Z"/><path class="b" d="M705.59,2103.35c-5.55,8.72-9.83,19.31-13.37,29.3,2.77-.78,6.15-1.75,9.87-2.84C700.73,2121.42,704.17,2111.88,705.59,2103.35Z"/><path class="b" d="M614.76,1564.88c1,11.52,5.43,22.39,14.42,26.24,10.25,3.42,18.31-12.12,20.44-25.45a4,4,0,0,0-5.14-4.48c-7.45,2.12-16.72,2.71-24.08-.36A4.05,4.05,0,0,0,614.76,1564.88Z"/><rect class="c" width="1262.35" height="2194.12"/></svg>