<svg xmlns="http://www.w3.org/2000/svg" width="1262.35" height="2194.12" viewBox="0 0 1262.35 2194.12"><defs><style>.a{fill:#572c11;}.b{fill:#6b3614;}.c{fill:#8c471a;}.d{fill:none;}</style></defs><title>4_girl_hair_6</title><path class="a" d="M797.59,321.35c2,20-4,39-6,59-2-24-17-45-22-68,4.55,30,4.95,64.28-1.65,93.71.3.2,8-17.84,26.12-3.53,6.8,5.36,7.68,16.44,5.29,30.35-4,23.19-17.65,49.67-43.76,52.56,0,0,2.52,42.94-13.74,64.72,0,0,41.4-17.34,51.86-64.6,0,0-2.43,31.24-14.2,45.58a37.36,37.36,0,0,0,4.19-.55C836.87,481.93,825.9,384.65,797.59,321.35Z"/><path class="a" d="M571.59,302.35c0,11-1.6,21.4-2.47,32.07-.12,12.63-1.75,47.66-15.51,59.27a69.05,69.05,0,0,0,11.3-1C584.93,368.31,587.78,330.88,571.59,302.35Z"/><path class="a" d="M629.59,370.35c18-23,10-51,5-77-.69,15-2.77,30.53-7.21,45.21-1.75,18.18-6.83,45.95-21.67,53.36l1.24-.1A98.34,98.34,0,0,0,629.59,370.35Z"/><path class="a" d="M690.59,297.35a37,37,0,0,1,.21,5c2.49,15.59,15.92,59.51,78.88,101,1.44-6.42,1.58-13.52,2.32-20.05C735.32,366.56,704.07,336,690.59,297.35Z"/><path class="b" d="M839,441.59c-5.18-86.12-28.55-159.73-28.55-159.73s-9.86-153.62-189.16-145.15C481.74,143.3,462.1,243.54,460,285c-.84,16.33-2.32,32.62-4.64,48.81-1.39,9.69-3,21.58-4.85,35.58-8,61.49-17.79,138.53,44.33,179-46.92-71-37.86-167,2.79-239.95-4,22-1,43-2,65,10-19,23-37,26-59,1.57,29.83-1.18,60.27-10.65,88.92,2.12-.6,53.72-15.66,58.17-73.45,0,0,0,1.72,0,4.6.87-10.67,2.47-21.1,2.47-32.07,16.19,28.53,13.34,66-6.68,90.32,19.58-3.18,56.21-36,62.47-54.11,4.44-14.68,6.52-30.18,7.21-45.21,5,26,13,54-5,77A98.34,98.34,0,0,1,607,391.82c10.36-1,83.23-10.82,83.23-95.54a42.51,42.51,0,0,0,.62,6,37,37,0,0,0-.21-5C704.07,336,735.32,366.56,772,383.24c2.66-23.42,1.14-47.4-2.41-70.89,5,23,20,44,22,68,2-20,8-39,6-59,28.31,63.3,39.28,160.58-13.89,209.24C798,528.07,843.37,514.3,839,441.59Z"/><path class="a" d="M521.59,314.35c-3,22-16,40-26,59,1-22-2-43,2-65-40.65,73-49.71,169-2.79,239.95,2.32,1.51,4.72,3,7.23,4.37,0,0-6.89-21.53-6.89-56.95,0,0,6.89,56.95,69.42,56.75,0,0-28.24-4.4-39.4-66.65,0,0-39.34-7.76-44.07-54.82-5.06-50.25,25-34.82,29.77-27.71l.08,0C520.41,374.62,523.16,344.18,521.59,314.35Z"/><path class="c" d="M519.47,188.29S633.82,248.65,748.18,183a75.15,75.15,0,0,1,25.41,28.59s-131.3,40.23-283.77,4.23C489.82,215.82,498.29,196.76,519.47,188.29Z"/><rect class="d" width="1262.35" height="2194.12"/></svg>