<svg xmlns="http://www.w3.org/2000/svg" width="1262.35" height="2194.12" viewBox="0 0 1262.35 2194.12"><defs><style>.a{fill:#7a2d4c;}.b{fill:#5c2239;}.c{fill:#99395f;}.d{fill:#ffdb6b;}.e{fill:none;}</style></defs><title>4_girl_hair_10</title><path class="a" d="M1004.59,772.35c-4-11-14.94-20.11-25.94-15.11-12.59,6.35-6.71,22.23,1.08,21.84-4.16-4.14-2.92-19.58,8.45-14.08,10.94,5.29,3.52,41.65-21.89,34.24s4.94-43.77-12-81.89-40.94-27.17-40.94-27.17l.14-.3c28.3-62.23-16-79.12-16-79.12,6.35-56.11-33.88-62.47-33.88-62.47,3.17-44.47-28.59-48.7-28.59-48.7,16.94-48.71-10.59-78.35-10.59-78.35l-17.67,15.1c13.5,21.93,11.76,48.39,10.85,74C812.93,501,810,490.85,803.15,483c-.37,11.12,2.4,22.23,4.65,33.35,12.59.15,25.77,1.44,32.79,12,6,8,10,18,7,28-5-9-11-18-21-22,.83,10.85,3.77,21.7,11.11,30.22,15.48-3.2,27.45,4.65,35.89,17.78a56.63,56.63,0,0,1,6,36c0-13-11-21-20-28-1.55,14.74,6.52,26.46,17.22,35.19,5.82-3.89,13.25-2.6,16.78,1.81,15,13,24,35,16,55-4-15-13-26-25-36,4.94,18.78,16.71,33.66,18.92,53.31,2.23-2,4.46-4,6.55-6,18.39,13.91,35.38,33.75,33.53,58.73-5-11-13-18-24-23,7,21,4,44,18,65A54.56,54.56,0,0,0,954,810.13c15.43,5,30.67,4.25,42.64-5.78C1005.59,796.35,1008.59,784.35,1004.59,772.35Z"/><path class="b" d="M937.59,794.35c-14-21-11-44-18-65,11,5,19,12,24,23,1.85-25-15.14-44.82-33.53-58.73-2.09,2.08-4.32,4-6.55,6-2.21-19.65-14-34.53-18.92-53.31,12,10,21,21,25,36,8-20-1-42-16-55-3.53-4.41-11-5.7-16.78-1.81-10.7-8.73-18.77-20.45-17.22-35.19,9,7,20,15,20,28a56.63,56.63,0,0,0-6-36c-8.44-13.13-20.41-21-35.89-17.78-7.34-8.52-10.28-19.37-11.11-30.22,10,4,16,13,21,22,3-10-1-20-7-28-7-10.53-20.2-11.82-32.79-12-2.25-11.12-5-22.23-4.65-33.35,6.85,7.82,9.78,18,14.44,27.32.91-25.62,2.65-52.08-10.85-74l-48,41c-5,15-11.65,24.4-20.11,37.06,18-2.12,50.82,9.53,50.82,9.53,1.06,41.3,36,44.47,36,44.47-13.77,51.88,39.18,57.88,39.18,57.88C835,653.82,895.7,695.47,895.7,695.47c-38.21,28.66,10.91,99.18,58.25,114.66A54.56,54.56,0,0,1,937.59,794.35Z"/><path class="b" d="M544.59,479.35c-26,0-49-19-58-42-11-30-17-62-9-93-9.23,16.14-22,33.46-28.31,51.51.26,4.71.6,9.3,1,13.73,8.47,90.35,88.53,100.23,88.53,100.23-6.57-8.55-9.55-14.62-13.64-24,14.14,3.14,26.22.66,33.53-8A40.94,40.94,0,0,1,544.59,479.35Z"/><path class="a" d="M564.65,455.71a17.26,17.26,0,0,1-3.82,5.76c1.27.22,2.54.4,3.82.55A42.83,42.83,0,0,0,564.65,455.71Z"/><path class="b" d="M510,148.14c7,8.83,15.51,22.33,22.93,25.19,14.11-6.76,29.92-9.56,44.66-14C555.76,156.62,529,162.16,510,148.14Z"/><path class="b" d="M741.59,187.35c8.71,8.71,18.18,15.15,28.4,21.29-2.18-2.48-3.46-3.76-3.46-3.76,8.18,0,13.16-7,15.9-12.87C770.51,197.53,753.55,195.13,741.59,187.35Z"/><path class="b" d="M598.59,262.35c-5.9,10.12-10.37,21.66-11,33.42,16.23,98.1,92.85,85.58,92.85,85.58l-.17-.09a47.26,47.26,0,0,1-12.65-2.91C620.59,362.35,592.59,311.35,598.59,262.35Z"/><path class="a" d="M816.59,382.35c2.58-15.51,7-30.75,10.46-46C817.29,267,781.35,221.51,770,208.64c-10.22-6.14-19.69-12.58-28.4-21.29,12,7.78,28.92,10.18,40.84,4.66a42.78,42.78,0,0,0,2.8-7.95c-25.41,5.65-21.17-12.35-76.23-39.18s-92.12,12-92.12,12c-9.88-26.82-106.94-8.82-106.94-8.82l.06.08c19,14,45.76,8.48,67.59,11.21-14.74,4.42-30.55,7.22-44.66,14a8.06,8.06,0,0,0,.87.29,95.7,95.7,0,0,0-13.23,7.17q-1,.77-2,1.56,1-.79,2-1.56c-59.7,38.68-75.32,141.89-71.29,215.07,6.32-18.05,19.08-35.37,28.31-51.51-8,31-2,63,9,93,9,23,32,42,58,42a40.94,40.94,0,0,0,14.12-1.55c3.32-3.95,5.45-9.19,5.94-15.78-1.28-.15-2.55-.33-3.82-.55-11.7,11.72-40,7.6-46.21-29a53.9,53.9,0,0,1-5-10.15c-19-48-2-106,36-140-2.29,12.94-4,25.87-2,38.37.83-1,1.31-1.48,1.31-1.48,8.47,63.52,63.53,63.52,63.53,63.52-32.47-28.23-21.18-88.94-21.18-88.94l.33,1.95c.66-11.76,5.13-23.3,11-33.42-6,49,22,100,69,116a47.26,47.26,0,0,0,12.65,2.91c-40.49-21.1-38.5-91.86-38-101.79-1.27-16.1.54-32.6,3.36-48.12,10,60,60,94,108,128,24,17,40,44,34,75-1,6.13-3.22,14.47-7.14,21-3.27,9.94-10.83,15.68-22.39,12.16-16.24-4.94-5.65-18.35-5.65-18.35a21.32,21.32,0,0,0-6.81,1.49,19.85,19.85,0,0,0,0,10.74c3,7,6,14,13,17,21,9,45-5,50-27,8-44-7-87-36-118C788.59,348.35,809.59,359.35,816.59,382.35Z"/><path class="b" d="M545.59,282.35c-38,34-55,92-36,140a53.9,53.9,0,0,0,5,10.15q-.5-2.85-.8-6C508,366.33,537,328.47,543.57,320.72,541.61,308.22,543.3,295.29,545.59,282.35Z"/><path class="b" d="M753.59,359.35c-48-34-98-68-108-128-2.82,15.52-4.63,32-3.36,48.12,0-.76.06-1.18.06-1.18,18.36,77.65,105.52,99.08,125.65,124.24,13.2,16.5,17.1,38.8,12.51,52.78,3.92-6.49,6.19-14.83,7.14-21C793.59,403.35,777.59,376.35,753.59,359.35Z"/><path class="b" d="M816.59,382.35c-7-23-28-34-44-49,29,31,44,74,36,118-5,22-29,36-50,27-7-3-10-10-13-17a19.85,19.85,0,0,1,0-10.74c-19.06,7.8-10,42.55,19.52,43.68,55.06,2.12,56.47-57.88,56.47-57.88,9-37.19,9.58-70.76,5.46-100.06C823.62,351.6,819.17,366.84,816.59,382.35Z"/><path class="c" d="M602.76,252.88c-61.78-2.09-82.86-42.62-87.48-53.69-13,9.47-23.81,22.68-29.58,37.34C544.55,271,602.76,252.88,602.76,252.88Z"/><path class="c" d="M752.37,205.93c-27.34,33.95-86.08,48.36-86.08,48.36,62.12,7.06,101.41-2.09,116.58-8C773.59,226.06,764.32,217.89,752.37,205.93Z"/><path class="d" d="M916.17,683.94c-12,8.43-21.82,8-25.41,8.47-6.11,3.3-2.4,7.36-2.35,10.83,36.71-.48,36.24-12.71,36.24-12.71C923.23,683.47,916.17,683.94,916.17,683.94Z"/><rect class="e" width="1262.35" height="2194.12"/></svg>