<svg xmlns="http://www.w3.org/2000/svg" width="1262.35" height="2194.12" viewBox="0 0 1262.35 2194.12"><defs><style>.a{fill:#333;}.b{fill:none;}</style></defs><title>4_girl_hair_8</title><path d="M575.59,261.35C560.76,297.35,565,373.59,623,408.5c-7.44-23-10.42-69.32-6.15-93.15,1.59,54.37,24.35,129.18,76.24,158.83-45.53-52.94-43.8-132-21.17-195.88,0,0,36.22,94.8,96.69,127,0,0,12.85-16.37,22.32-8.7s22.08,66.65-35.53,89.23c0,0-9.61,25.89-36,48,0,0,16,50.47,95.41,48.36s126,81.53,81.53,121.76c0,0,64.59-29.65,31.77-104.82,0,0,33.88,14.82,37.05,56.12,0,0,24.36-81.53-47.64-132.36s-92.47-95.29-100.94-178.94S767.23,124.88,633.82,163c0,0-153.42-45.74-173.65,168.94C441.82,526.76,560.76,550.41,560.76,550.41s-59.29-48.7-48.7-145.06S575.59,261.35,575.59,261.35Z"/><path d="M508.17,226.06s2.83-15.53,29.65-33.88c0,0,83.3,56.47,210.35,7.06,0,0,15.53,11.29,22.59,31C770.76,230.29,681.82,254.29,508.17,226.06Z"/><path class="a" d="M532.88,187.59s88.94,43.41,214.94,0c0,0,13.77,10.59,27.53,34.94,0,0-112.23,37.06-273.17,0C502.18,222.53,513.82,202.41,532.88,187.59Z"/><rect class="b" width="1262.35" height="2194.12"/></svg>