<svg xmlns="http://www.w3.org/2000/svg" width="1262.35" height="2194.12" viewBox="0 0 1262.35 2194.12"><defs><style>.a{fill:#f7941d;}.b{fill:#bd6700;}.c{fill:#ffbe3d;}.d{fill:none;}</style></defs><title>4_girl_hair_2</title><path class="a" d="M869.48,387s-36.59,5.18-42.24-31.53-16.64-230-189.38-190.69c-172.72-39.28-179.75,154-185.39,190.69S411.23,387,411.23,387c8.95,21.18,42.36,21.65,42.36,21.65-6.59,14.59-35.77,20.7-35.77,20.7,9.88,21.65,48.47,21.18,48.47,21.18.94,22.12-26.35,35.76-26.35,35.76,24,17.89,53.18,1.89,53.18,1.89,6.11,19.76-9.42,31.06-9.42,31.06,22.59,8.94,43.3-10.36,43.3-10.36,6.12,21.18-9.88,39.06-9.88,39.06,22.58,1.88,40.47-17.88,40.47-17.88-19.77-15.53-32.47-44.24-32.47-44.24s-27.77.47-40.94-40,5.64-48.94,5.64-48.94c2.83,48.94,53.65,55.06,53.65,55.06-59.29-70.59,2.82-144,2.82-144,1.41,52.24,56.47,62.12,56.47,62.12-29.29-34.59-23.48-62.61-16.58-75.88,18.7-36,42.71-15.61,50.71-12.46v.81s.36-.15,1-.39c.59.24.91.39.91.39v-.72c8.62-3.05,36.38-26.81,55.72,12.37,6.62,13.41,12.7,41.29-16.59,75.88,0,0,55.06-9.88,56.47-62.12,0,0,62.12,73.41,2.82,144,0,0,50.83-6.12,53.65-55.06,0,0,18.83,8.47,5.65,48.94s-40.94,40-40.94,40-12.71,28.71-32.47,44.24c0,0,17.88,19.76,40.47,17.88,0,0-16-17.88-9.88-39.06,0,0,20.7,19.3,43.29,10.36,0,0-15.53-11.3-9.41-31.06,0,0,29.17,16,53.17-1.89,0,0-27.29-13.64-26.35-35.76,0,0,38.59.47,48.47-21.18,0,0-29.17-6.11-35.76-20.7C827.13,408.65,860.54,408.18,869.48,387Z"/><path class="b" d="M611.59,258.35c-24.82,0-30.39,26.47-30.24,50.48a50,50,0,0,1,4.83-14.65c18.7-36,42.71-15.61,50.71-12.46v.81s.36-.15,1-.39C632.9,269.17,624,258.35,611.59,258.35Z"/><path class="b" d="M687.59,260.35c-5-6-13-7-21-6-14,2.62-22.58,13.6-25.23,26.31,10.65-5.43,35.46-22.39,53.18,13.52a53.44,53.44,0,0,1,5.06,17.25C701.86,293.67,698.69,275.62,687.59,260.35Z"/><path class="b" d="M790.62,375c1.17,7.51.68,14.38.27,21.92,4,2.79,16.71,15,5.65,48.94-13.18,40.47-40.94,39-40.94,39s-12.71,29.71-32.47,45.24c0,0,17.88,19.76,40.47,17.88,0,0-16-17.88-9.88-39.06,0,0,20.7,19.3,43.29,10.36,0,0-15.53-11.3-9.41-31.06,0,0,29.17,16,53.17-1.89,0,0-27.29-13.64-26.35-35.76,0,0,38.59.47,48.47-21.18,0,0-29.17-6.11-35.76-20.7,0,0,29.34-.42,40.39-17.9a25.58,25.58,0,0,0,2-3.75h0a30.49,30.49,0,0,1-10.86,4.35C833.22,396.79,810.32,389.09,790.62,375Z"/><path class="b" d="M419.59,391.35a28.42,28.42,0,0,1-7.29-2.18c.06.12.12.24.19.36,10.42,18.67,41.1,19.12,41.1,19.12-6.59,14.59-35.77,20.7-35.77,20.7,9.88,21.65,48.47,21.18,48.47,21.18.94,22.12-26.35,35.76-26.35,35.76,24,17.89,53.18,1.89,53.18,1.89,6.11,19.76-9.42,31.06-9.42,31.06,22.59,8.94,43.3-10.36,43.3-10.36,6.12,21.18-9.88,39.06-9.88,39.06,22.58,1.88,40.47-17.88,40.47-17.88-19.77-15.53-33.47-45.24-33.47-45.24s-26.77,1.47-39.94-39c-11.93-36.64,2.37-47.05,5.18-48.69A110.4,110.4,0,0,1,492.71,368C474.11,387.69,446.47,397.42,419.59,391.35Z"/><path class="b" d="M767.59,350.35c-7-29-24-50-42-72,7.24,8.86,9.3,19.65,9.83,30.83,7.73,9.89,56.62,77.53,1.82,142.76h0C768.76,432.86,776.05,385.88,767.59,350.35Z"/><path class="a" d="M827.24,355.47c-5.63-36.64-16.64-230-189.38-190.69-172.72-39.28-179.75,154-185.39,190.69S411.23,387,411.23,387c.32.75.69,1.47,1.07,2.17a28.42,28.42,0,0,0,7.29,2.18c26.88,6.07,54.52-3.66,73.12-23.31a110.4,110.4,0,0,0-3.35,29.09c.29-.17.46-.25.46-.25,2.83,48.94,53.65,55.06,53.65,55.06a118.53,118.53,0,0,1-13.89-20.38c-33.25-47.63-14.26-109,23-149.21-3.1,8.53-6.79,17.66-7.37,26.92.69-.87,1.07-1.33,1.07-1.33,1.41,52.24,56.47,62.12,56.47,62.12-21-24.79-24-46.2-21.41-61.23-.15-24,5.42-50.48,30.24-50.48,12.4,0,21.31,10.82,26.32,23.79h0c.59.24.91.39.91.39v-.72a23.3,23.3,0,0,0,2.54-1.15C644,268,652.64,257,666.59,254.35c8-1,16,0,21,6,11.1,15.27,14.27,33.32,12,51.08,1.79,14.86-1.81,35.2-21.65,58.63,0,0,55.06-9.88,56.47-62.12,0,0,.36.43,1,1.24-.53-11.18-2.59-22-9.83-30.83,18,22,35,43,42,72,8.46,35.53,1.17,82.51-30.34,101.59.38-.05,50.83-6.3,53.64-55.06l-.25-.17.25.17c.41-7.54.9-14.41-.27-21.92,19.7,14.13,42.6,21.83,68,16.39A30.49,30.49,0,0,0,869.45,387C868.43,387.17,832.79,391.55,827.24,355.47Z"/><path class="b" d="M529.58,431.56c-31.05-58.1,8.5-113.13,15.64-122.29.58-9.26,4.27-18.39,7.37-26.92C515.32,322.56,496.33,383.93,529.58,431.56Z"/><path class="c" d="M532.18,185.12s11.64,39.17,74.11,41.29c0,0-46.59,27.53-105.88-10.59C500.41,215.82,521.59,191.47,532.18,185.12Z"/><path class="c" d="M676.18,223.24s54-1.06,77.29-31.77c0,0,22.23,19.06,29.65,34.94C783.12,226.41,723.82,243.35,676.18,223.24Z"/><rect class="d" width="1262.35" height="2194.12"/></svg>