<svg xmlns="http://www.w3.org/2000/svg" width="1262.35" height="2194.12" viewBox="0 0 1262.35 2194.12"><defs><style>.a{fill:#fff;}.b{fill:#ffbe3d;}.c{fill:#ff773d;}.d{fill:#27aae1;}.e{fill:#29d6ed;}.f{fill:none;}</style></defs><title>4_visor_4</title><path class="a" d="M797.87,229.94a6.57,6.57,0,0,1-4-1.23c-88.75-63.84-195.37-47.25-237.09-37.16-45.13,10.92-73.15,27.14-76.15,33.16a6.53,6.53,0,0,1-8.71,2.91,6.38,6.38,0,0,1-3-8.59c6.29-12.61,42.71-29.77,84.7-39.94,27.57-6.67,70.55-13.56,118.77-8.5,48.69,5.1,92.13,21.17,129.1,47.76a6.36,6.36,0,0,1,1.43,9,6.51,6.51,0,0,1-5.11,2.63"/><path class="b" d="M472.33,223.18c-6.76,13-10.34,28.32-12.13,38.66a366.53,366.53,0,0,1,37.12-16.12c.82-14.85,4.48-29.6,9.71-43.72C487.66,209.86,475.08,217.88,472.33,223.18Z"/><path class="c" d="M524.73,195.54c-6.38,2.1-12.31,4.27-17.7,6.46-5.23,14.12-8.89,28.87-9.71,43.72,5.64-2.1,11.65-4.19,18-6.22A136.57,136.57,0,0,1,524.73,195.54Z"/><path class="b" d="M740.6,194.09c-34.36-12.2-69.68-16.79-103-16.67a374.09,374.09,0,0,0-112.9,18.12,136.57,136.57,0,0,0-9.39,44c56.12-17.85,139.67-30.8,234.77-.83A203.51,203.51,0,0,0,740.6,194.09Z"/><path class="c" d="M740.6,194.09a203.51,203.51,0,0,1,9.51,44.58q9.2,2.9,18.55,6.36c-1.47-14.3-3.41-28.81-7.77-42.76Q750.83,197.71,740.6,194.09Z"/><path class="b" d="M800.25,224.54a250.34,250.34,0,0,0-39.36-22.27c4.36,13.95,6.3,28.46,7.77,42.76a421.16,421.16,0,0,1,44,19.15A310.76,310.76,0,0,0,800.25,224.54Z"/><path class="a" d="M460.2,261.84c-.57,3.27-1,6.05-1.22,8.1-.31,2.46-.42,3.88-.42,3.88l3-1,175.35-24.73.87.16,177.86,33a142.66,142.66,0,0,0-3-17C650.19,182.25,509.59,236.92,460.2,261.84Z"/><path class="d" d="M811.33,272.4s-66.77-44.25-173.76-44c-47.67.11-103.32,9-164.61,34.67,0,0-40.33,13.16-39.6,43.65.51,21,30.65,36.77,96.8,14.46,45.3-15.27,63.46-41.67,107.7-38.5,20.37,1.46,46.26,9.19,82.88,27.17C836.9,366.89,867.23,296.23,811.33,272.4Z"/><path class="e" d="M705.66,268.4l-4.44-14.23a19,19,0,0,0-13.37-12.54c-13.43-3.65-31.57-5.63-50.21-5.77-20.43-.14-41.45,1.93-57.57,6.47a17.14,17.14,0,0,0-11.94,11.85l-5.83,21.1c-1.13,4.09,3.4,7.48,7.29,5.46a145.54,145.54,0,0,1,68.26-15.95c3.83.06,7.75.26,11.77.65,15.51,1.51,30.6,6.48,44.23,12.63C700.51,281.07,707.76,275.14,705.66,268.4Z"/><path class="a" d="M811.33,272.4a17.72,17.72,0,0,0-2.8-1.1c45.08,20.55,15,78.87-83.47,30.55-85.18-41.82-115.4-31.32-157.54-8.06-12,6.63-24.45,13.5-40.5,18.91-58.62,19.76-87.94,7.27-85.83-13,2-19.11,32.51-36.91,31.77-36.6,0,0-40.33,13.16-39.6,43.65.34,14.17,14.12,25.93,43.27,25.29,14.15-.31,31.91-3.54,53.53-10.82,42-14.17,60.69-37.93,98.48-38.75,21.71-.48,49.72,6.6,92.1,27.42,33,16.21,59.13,22.11,78.27,21.69,48.18-1.06,52.33-42.1,12.32-59.15"/><path class="a" d="M654.22,196.23l-6.78,6.4A1.51,1.51,0,0,0,647,204l1.69,9a1.6,1.6,0,0,1-2.33,1.64l-8.49-4.18a1.68,1.68,0,0,0-1.5,0l-8.42,4.3a1.61,1.61,0,0,1-2.36-1.61l1.55-9a1.53,1.53,0,0,0-.48-1.36l-6.89-6.3a1.53,1.53,0,0,1,.88-2.64l9.44-1.38a1.61,1.61,0,0,0,1.21-.85l4.16-8.19a1.64,1.64,0,0,1,2.89,0l4.3,8.13a1.6,1.6,0,0,0,1.22.84l9.46,1.24A1.52,1.52,0,0,1,654.22,196.23Z"/><rect class="f" width="1262.35" height="2194.12"/></svg>