<svg xmlns="http://www.w3.org/2000/svg" width="1262.35" height="2194.12" viewBox="0 0 1262.35 2194.12"><defs><style>.a{fill:#ab0000;}.b{fill:#3b3b3b;}.c{fill:#616161;}.d{fill:#fff;}.e{fill:none;}</style></defs><title>4_visor_2</title><path class="a" d="M797.87,229.94a6.57,6.57,0,0,1-4-1.23c-88.75-63.84-195.37-47.25-237.09-37.16-45.13,10.92-73.15,27.14-76.15,33.16a6.53,6.53,0,0,1-8.71,2.91,6.38,6.38,0,0,1-3-8.59c6.29-12.61,42.71-29.77,84.7-39.94,27.57-6.67,70.55-13.56,118.77-8.5,48.69,5.1,92.13,21.17,129.1,47.76a6.36,6.36,0,0,1,1.43,9,6.51,6.51,0,0,1-5.11,2.63"/><path d="M800.25,224.54C749,189,690.72,177.22,637.63,177.42c-85.89.33-158.21,32.1-165.3,45.76-8.9,17.16-12.28,38.22-13.35,46.76-.31,2.46-.42,3.88-.42,3.88l3-1,175.35-24.73.87.16,177.86,33C813,256.55,800.25,224.54,800.25,224.54Z"/><path class="b" d="M811.33,272.4s-66.77-44.25-173.76-44c-47.67.11-103.32,9-164.61,34.67,0,0-40.33,13.16-39.6,43.65.51,21,30.65,36.77,96.8,14.46,45.3-15.27,63.46-41.67,107.7-38.5,20.37,1.46,46.26,9.19,82.88,27.17C836.9,366.89,867.23,296.23,811.33,272.4Z"/><path class="c" d="M705.66,268.4l-4.44-14.23a19,19,0,0,0-13.37-12.54c-13.43-3.65-31.57-5.63-50.21-5.77-20.43-.14-41.45,1.93-57.57,6.47a17.14,17.14,0,0,0-11.94,11.85l-5.83,21.1c-1.13,4.09,3.4,7.48,7.29,5.46a145.54,145.54,0,0,1,68.26-15.95c3.83.06,7.75.26,11.77.65,15.51,1.51,30.6,6.48,44.23,12.63C700.51,281.07,707.76,275.14,705.66,268.4Z"/><path class="a" d="M811.33,272.4a17.72,17.72,0,0,0-2.8-1.1c45.08,20.55,15,78.87-83.47,30.55-85.18-41.82-115.4-31.32-157.54-8.06-12,6.63-24.45,13.5-40.5,18.91-58.62,19.76-87.94,7.27-85.83-13,2-19.11,32.51-36.91,31.77-36.6,0,0-40.33,13.16-39.6,43.65.34,14.17,14.12,25.93,43.27,25.29,14.15-.31,31.91-3.54,53.53-10.82,42-14.17,60.69-37.93,98.48-38.75,21.71-.48,49.72,6.6,92.1,27.42,33,16.21,59.13,22.11,78.27,21.69,48.18-1.06,52.33-42.1,12.32-59.15"/><path class="d" d="M654.22,199.4l-6.78,6.41a1.51,1.51,0,0,0-.46,1.37l1.69,9a1.6,1.6,0,0,1-2.33,1.64l-8.49-4.17a1.65,1.65,0,0,0-1.5,0l-8.42,4.3a1.61,1.61,0,0,1-2.36-1.61l1.55-9a1.52,1.52,0,0,0-.48-1.36l-6.89-6.31a1.52,1.52,0,0,1,.88-2.63l9.44-1.38a1.63,1.63,0,0,0,1.21-.85l4.16-8.2a1.65,1.65,0,0,1,2.89,0l4.3,8.14a1.59,1.59,0,0,0,1.22.83l9.46,1.24A1.52,1.52,0,0,1,654.22,199.4Z"/><path class="c" d="M680.51,203.47l-4.72,4.45a1,1,0,0,0-.31.94l1.17,6.23a1.11,1.11,0,0,1-1.62,1.14l-5.89-2.9a1.18,1.18,0,0,0-1,0l-5.84,3a1.11,1.11,0,0,1-1.64-1.11l1.07-6.25a1,1,0,0,0-.33-.94l-4.78-4.38a1.06,1.06,0,0,1,.61-1.83l6.55-1a1.09,1.09,0,0,0,.84-.59l2.89-5.69a1.15,1.15,0,0,1,2,0l3,5.65a1.16,1.16,0,0,0,.85.58l6.57.86A1.06,1.06,0,0,1,680.51,203.47Z"/><path class="c" d="M618.21,204.17l-4.72,4.45a1,1,0,0,0-.31.95l1.17,6.23a1.11,1.11,0,0,1-1.62,1.13l-5.89-2.9a1.19,1.19,0,0,0-1,0L600,217a1.11,1.11,0,0,1-1.64-1.12l1.07-6.24a1,1,0,0,0-.33-.94l-4.78-4.38a1.06,1.06,0,0,1,.61-1.83l6.55-1a1.09,1.09,0,0,0,.84-.59l2.89-5.69a1.15,1.15,0,0,1,2,0l3,5.65a1.13,1.13,0,0,0,.85.58l6.57.86A1.06,1.06,0,0,1,618.21,204.17Z"/><rect class="e" width="1262.35" height="2194.12"/></svg>