<svg xmlns="http://www.w3.org/2000/svg" width="1262.35" height="2194.12" viewBox="0 0 1262.35 2194.12"><defs><style>.a{fill:#005ba1;}.b{fill:#3d3c39;}.c{fill:#52514d;}.d{fill:#0063a1;}.e{fill:#ffbe3d;}.f{fill:#00558a;}.g{fill:#00426b;}.h{fill:none;}</style></defs><title>4_hat_3</title><path class="a" d="M647.33,113c0,8.91-10.46,16.13-23.37,16.13s-23.37-7.22-23.37-16.13S611.05,96.88,624,96.88s23.37,7.22,23.37,16.13"/><path class="b" d="M513.2,227.1c-6.14-39,7.82-72,28.2-102.21-67.82,28.73-91.52,91.4-91.81,183.1l88.58-39.49h0l3.34-1.49C527.21,257.93,516.19,245.06,513.2,227.1Z"/><path class="b" d="M716.45,120.82c10.48,10.63,19.47,22.51,24.91,37.5,11.13,29.74,12.06,64.13-9.27,91.08-2.79,3.35-5.68,6.63-8.68,9.78l91.82,26.23C813.88,191,768.78,142.23,716.45,120.82Z"/><path class="c" d="M741.36,158.32c-5.44-15-14.43-26.87-24.91-37.5-28.08-11.48-58.24-15.11-84.85-13.7q-4.25.22-8.37.62-8.19.49-15.91,1.3h0c-25.56,2.68-47.38,8-65.92,15.85-20.38,30.25-34.34,63.2-28.2,102.21,3,18,14,30.83,28.31,39.91l81.73-36.44,89.9,25.68,10.27,2.93c3-3.15,5.89-6.43,8.68-9.78C753.42,222.45,752.49,188.06,741.36,158.32Z"/><path class="d" d="M449.59,308s25.88,71,125.12-4.3a128.87,128.87,0,0,1,27.79-16.26c3.32-20.64,5.18-41.28,8.76-61.91C516.82,236.45,449.59,308,449.59,308Z"/><path class="e" d="M611.26,225.52c-3.58,20.63-5.44,41.27-8.76,61.91a105.27,105.27,0,0,1,14.17-4.83c.2-19.27.91-38.74,3.39-57.9C617.11,224.92,614.16,225.18,611.26,225.52Z"/><path class="d" d="M637.26,224.12c-5.82-.06-11.55.16-17.2.58-2.48,19.16-3.19,38.63-3.39,57.9a85.74,85.74,0,0,1,41.07-1c-2.58-19.27-5.17-38.43-9-57.13Q643.05,224.19,637.26,224.12Z"/><path class="e" d="M648.69,224.47c3.88,18.7,6.47,37.86,9,57.13a83.35,83.35,0,0,1,11.52,3.54c-3.26-20-6-40-10.37-60C655.53,224.87,652.13,224.63,648.69,224.47Z"/><path class="d" d="M658.89,225.15c4.34,20,7.11,40,10.37,60a88.41,88.41,0,0,1,14.91,7.47c116,72.37,131.06-7.2,131.06-7.2S754.4,233.18,658.89,225.15Z"/><path class="f" d="M761.87,306.13c10.88-.64,27.86-4.54,38-21.22a3.14,3.14,0,0,0-1-4.27c-5.6-3.61-19.54-12.48-30.1-18.36a3.15,3.15,0,0,0-4.4,4.06c4.23,9.15,7.69,23.55-4.74,34.27a3.15,3.15,0,0,0,2.26,5.52"/><path class="g" d="M810.42,281.61a184.48,184.48,0,0,1-10.14,16c-7.84,10.44-19.38,15.74-34.31,15.74-20.5,0-46.66-9.83-77.74-29.24a90.88,90.88,0,0,0-48.71-14.22c-23.27,0-47.28,8.89-69.44,25.7-15.6,11.83-30.24,20.61-43.52,26.1-11.14,4.61-21.42,6.95-30.57,6.95-12.26,0-22.53-4.16-30.51-12.36-2.51-2.58-7.72-9.9-10.3-13.81-3.66,3.46-5.59,5.51-5.59,5.51s25.88,71,125.12-4.3c33.79-25.64,73.94-33.25,109.46-11.08,116,72.37,131.06-7.2,131.06-7.2s-1.64-1.41-4.81-3.8"/><path class="f" d="M503.69,283.7c-1.58,9.18-1.34,20.53,6.83,27.14a5.49,5.49,0,0,1-1.94,9.59c-11.35,3.09-28.37,3.7-41-13.5a5.5,5.5,0,0,1,.88-7.48c5.33-4.46,15.68-13,26.55-21.07a5.51,5.51,0,0,1,8.72,5.32"/><polygon class="e" points="643.35 123.71 605.23 175.59 635.94 175.59 629.59 207.35 673 160.76 637 158.65 643.35 123.71"/><rect class="h" width="1262.35" height="2194.12"/></svg>