<svg xmlns="http://www.w3.org/2000/svg" width="1262.35" height="2194.12" viewBox="0 0 1262.35 2194.12"><defs><style>.a{fill:#fff5ba;}.b{fill:#9b7168;}.c{fill:#c29bb4;}.d{fill:#b58479;}.e{fill:#e0b3d0;}.f{fill:none;}</style></defs><title>4_visor_1</title><path class="a" d="M797.87,229.94a6.57,6.57,0,0,1-4-1.23c-88.75-63.84-195.37-47.25-237.09-37.16-45.13,10.92-73.15,27.14-76.15,33.16a6.53,6.53,0,0,1-8.71,2.91,6.38,6.38,0,0,1-3-8.59c6.29-12.61,42.71-29.77,84.7-39.94,27.57-6.67,70.55-13.56,118.77-8.5,48.69,5.1,92.13,21.17,129.1,47.76a6.36,6.36,0,0,1,1.43,9,6.51,6.51,0,0,1-5.11,2.63"/><path class="b" d="M472.33,223.18c-8.9,17.16-12.28,38.22-13.35,46.76-.31,2.46-.42,3.88-.42,3.88l3-1,175.35-24.73.87.16c-.2-23.62-.52-47.24-.12-70.81C551.74,177.75,479.42,209.52,472.33,223.18Z"/><path class="c" d="M800.25,224.54C749,189,690.72,177.22,637.63,177.42c-.4,23.57-.08,47.19.12,70.81l177.86,33C813,256.55,800.25,224.54,800.25,224.54Z"/><path class="b" d="M811.33,272.4s-66.77-44.25-173.76-44c.15,18.09.37,36.19.29,54.28,20.37,1.46,46.26,9.19,82.88,27.17C836.9,366.89,867.23,296.23,811.33,272.4Z"/><path class="c" d="M473,263.07s-40.33,13.16-39.6,43.65c.51,21,30.65,36.77,96.8,14.46,45.3-15.27,63.46-41.67,107.7-38.5.08-18.09-.14-36.19-.29-54.28C589.9,228.51,534.25,237.45,473,263.07Z"/><path class="d" d="M649.62,265.44c15.51,1.51,30.6,6.48,44.23,12.63,6.66,3,13.91-2.93,11.81-9.67l-4.44-14.23a19,19,0,0,0-13.37-12.54c-13.43-3.65-31.57-5.63-50.21-5.77q.14,14.47.21,28.93C641.68,264.85,645.6,265.05,649.62,265.44Z"/><path class="e" d="M580.07,242.33a17.14,17.14,0,0,0-11.94,11.85l-5.83,21.1c-1.13,4.09,3.4,7.48,7.29,5.46a145.54,145.54,0,0,1,68.26-15.95q-.06-14.46-.21-28.93C617.21,235.72,596.19,237.79,580.07,242.33Z"/><path class="a" d="M811.33,272.4a17.72,17.72,0,0,0-2.8-1.1c45.08,20.55,15,78.87-83.47,30.55-85.18-41.82-115.4-31.32-157.54-8.06-12,6.63-24.45,13.5-40.5,18.91-58.62,19.76-87.94,7.27-85.83-13,2-19.11,32.51-36.91,31.77-36.6,0,0-40.33,13.16-39.6,43.65.34,14.17,14.12,25.93,43.27,25.29,14.15-.31,31.91-3.54,53.53-10.82,42-14.17,60.69-37.93,98.48-38.75,21.71-.48,49.72,6.6,92.1,27.42,33,16.21,59.13,22.11,78.27,21.69,48.18-1.06,52.33-42.1,12.32-59.15"/><rect class="f" width="1262.35" height="2194.12"/></svg>