<svg xmlns="http://www.w3.org/2000/svg" width="1262.35" height="2194.12" viewBox="0 0 1262.35 2194.12"><defs><style>.a{fill:#fff;}.b{fill:#2b3990;}.c{fill:#3b5fc4;}.d{fill:#5488cc;}.e{fill:none;}</style></defs><title>4_visor_3</title><path class="a" d="M797.87,229.94a6.57,6.57,0,0,1-4-1.23c-88.75-63.84-195.37-47.25-237.09-37.16-45.13,10.92-73.15,27.14-76.15,33.16a6.53,6.53,0,0,1-8.71,2.91,6.38,6.38,0,0,1-3-8.59c6.29-12.61,42.71-29.77,84.7-39.94,27.57-6.67,70.55-13.56,118.77-8.5,48.69,5.1,92.13,21.17,129.1,47.76a6.36,6.36,0,0,1,1.43,9,6.51,6.51,0,0,1-5.11,2.63"/><path class="b" d="M637.63,177.42c-85.89.33-158.21,32.1-165.3,45.76-8.9,17.16-12.28,38.22-13.35,46.76-.31,2.46-.42,3.88-.42,3.88l3-1,175.35-24.73.87.16L730,265.32c-1.42-26.37-4.45-52.58-11.35-78A314.57,314.57,0,0,0,637.63,177.42Z"/><path class="a" d="M718.65,187.33c6.9,25.41,9.93,51.62,11.35,78l19.52,3.62c-1.7-25.82-4.61-51.66-12.89-76.21Q727.66,189.72,718.65,187.33Z"/><path class="b" d="M736.63,192.73c8.28,24.55,11.19,50.39,12.89,76.21l19.14,3.55c-.43-25.13-6.61-49.17-14.26-73Q745.57,195.76,736.63,192.73Z"/><path class="a" d="M754.4,199.46c7.65,23.86,13.83,47.9,14.26,73l15.28,2.83c-1-23-4.19-46.24-12.34-67.88Q763.08,203.09,754.4,199.46Z"/><path class="b" d="M800.25,224.54a247.38,247.38,0,0,0-28.65-17.1c8.15,21.64,11.32,44.9,12.34,67.88l31.67,5.87C813,256.55,800.25,224.54,800.25,224.54Z"/><path class="c" d="M811.33,272.4s-66.77-44.25-173.76-44c-47.67.11-103.32,9-164.61,34.67,0,0-40.33,13.16-39.6,43.65.51,21,30.65,36.77,96.8,14.46,45.3-15.27,63.46-41.67,107.7-38.5,20.37,1.46,46.26,9.19,82.88,27.17C836.9,366.89,867.23,296.23,811.33,272.4Z"/><path class="d" d="M705.66,267.4l-4.44-14.23a19,19,0,0,0-13.37-12.54c-13.43-3.65-31.57-5.63-50.21-5.77-20.43-.14-41.45,1.93-57.57,6.47a17.14,17.14,0,0,0-11.94,11.85l-5.83,21.1c-1.13,4.09,3.4,7.48,7.29,5.46a145.54,145.54,0,0,1,68.26-15.95c3.83.06,7.75.26,11.77.65,15.51,1.51,30.6,6.48,44.23,12.63C700.51,280.07,707.76,274.14,705.66,267.4Z"/><path class="a" d="M811.33,272.4a17.72,17.72,0,0,0-2.8-1.1c45.08,20.55,15,78.87-83.47,30.55-85.18-41.82-115.4-31.32-157.54-8.06-12,6.63-24.45,13.5-40.5,18.91-58.62,19.76-87.94,7.27-85.83-13,2-19.11,32.51-36.91,31.77-36.6,0,0-40.33,13.16-39.6,43.65.34,14.17,14.12,25.93,43.27,25.29,14.15-.31,31.91-3.54,53.53-10.82,42-14.17,60.69-37.93,98.48-38.75,21.71-.48,49.72,6.6,92.1,27.42,33,16.21,59.13,22.11,78.27,21.69,48.18-1.06,52.33-42.1,12.32-59.15"/><rect class="e" width="1262.35" height="2194.12"/></svg>