<svg xmlns="http://www.w3.org/2000/svg" width="1262.35" height="2194.12" viewBox="0 0 1262.35 2194.12"><defs><style>.a{fill:#ffb13d;}.b{fill:#9c3135;}.c{fill:#c7c7c7;}.d{fill:#fff;}.e{fill:#c63f43;}.f{fill:#eb9717;}.g{fill:#c46a16;}.h{fill:none;}</style></defs><title>4_hat_5</title><path class="a" d="M647.33,113c0,8.91-10.46,16.13-23.37,16.13s-23.37-7.22-23.37-16.13S611.05,96.88,624,96.88s23.37,7.22,23.37,16.13"/><path class="b" d="M533.22,270.71l4.95-2.21h0l3.34-1.49a76.94,76.94,0,0,1-9.19-6.81C532.52,263.7,532.81,267.2,533.22,270.71Z"/><path class="b" d="M525.54,253.29q.54,10.13,1.54,20.15l6.14-2.73c-.41-3.51-.7-7-.9-10.51A60.41,60.41,0,0,1,525.54,253.29Z"/><path class="c" d="M541.4,124.89q-4.78,2-9.28,4.28a334.63,334.63,0,0,0-12.38,38A198.35,198.35,0,0,1,541.4,124.89Z"/><path class="b" d="M511.35,212.92c-.42-14.79,2.86-30.55,8.39-45.78a334.63,334.63,0,0,1,12.38-38C471.4,159.58,449.87,220.6,449.59,308l62.58-27.9A280.14,280.14,0,0,1,511.35,212.92Z"/><path class="c" d="M511.35,212.92a280.14,280.14,0,0,0,.82,67.17l7.77-3.46,7.14-3.19q-1-10-1.54-20.15C516,241.86,511.78,227.88,511.35,212.92Z"/><path class="b" d="M716.45,120.82c10.48,10.63,19.47,22.51,24.91,37.5,11.13,29.74,12.06,64.13-9.27,91.08-2.79,3.35-5.68,6.63-8.68,9.78l91.82,26.23C813.88,191,768.78,142.23,716.45,120.82Z"/><path class="d" d="M548.05,122.26c-2.23.83-4.46,1.7-6.65,2.63A199,199,0,0,0,520,166.07a313.4,313.4,0,0,0-8.64,46.62c.49,14.9,4.77,28.79,14.14,40.29C523.2,208.36,528.14,162.9,548.05,122.26Z"/><path class="e" d="M511.38,212.69A313.4,313.4,0,0,1,520,166.07C514.2,181.71,510.88,197.71,511.38,212.69Z"/><path class="e" d="M579.07,113.4a210.6,210.6,0,0,0-31,8.86C528.14,162.9,523.2,208.36,525.52,253a66.17,66.17,0,0,0,16,14l27.4-12.21C566.23,207.58,570.1,160,579.07,113.4Z"/><path class="d" d="M592.51,111q-6.91,1.08-13.44,2.44c-9,46.56-12.84,94.18-10.16,141.4l14.94-6.67C581.27,202.45,588.32,156.49,592.51,111Z"/><path class="e" d="M741.36,158.32c-5.44-15-14.43-26.87-24.91-37.5-28.08-11.48-58.24-15.11-84.85-13.7q-4.25.22-8.37.62-8.19.49-15.91,1.3h0c-5.09.53-10,1.18-14.81,1.92-4.19,45.53-11.24,91.49-8.66,137.17l39.39-17.56,89.9,25.68,10.27,2.93c3-3.15,5.89-6.43,8.68-9.78C753.42,222.45,752.49,188.06,741.36,158.32Z"/><path class="a" d="M658.89,225.15c-3.36-.28-6.76-.52-10.2-.68q-5.64-.28-11.43-.35c-5.82-.06-11.55.16-17.2.58-2.95.22-5.9.48-8.8.82C516.82,236.45,449.59,308,449.59,308s25.88,71,125.12-4.3a128.87,128.87,0,0,1,27.79-16.26,105.27,105.27,0,0,1,14.17-4.83,85.74,85.74,0,0,1,41.07-1,83.35,83.35,0,0,1,11.52,3.54,88.41,88.41,0,0,1,14.91,7.47c116,72.37,131.06-7.2,131.06-7.2S754.4,233.18,658.89,225.15Z"/><path class="f" d="M761.87,306.13c10.88-.64,27.86-4.54,38-21.22a3.14,3.14,0,0,0-1-4.27c-5.6-3.61-19.54-12.48-30.1-18.36a3.15,3.15,0,0,0-4.4,4.06c4.23,9.15,7.69,23.55-4.74,34.27a3.15,3.15,0,0,0,2.26,5.52"/><path class="g" d="M810.42,281.61a184.48,184.48,0,0,1-10.14,16c-7.84,10.44-19.38,15.74-34.31,15.74-20.5,0-46.66-9.83-77.74-29.24a90.88,90.88,0,0,0-48.71-14.22c-23.27,0-47.28,8.89-69.44,25.7-15.6,11.83-30.24,20.61-43.52,26.1-11.14,4.61-21.42,6.95-30.57,6.95-12.26,0-22.53-4.16-30.51-12.36-2.51-2.58-7.72-9.9-10.3-13.81-3.66,3.46-5.59,5.51-5.59,5.51s25.88,71,125.12-4.3c33.79-25.64,73.94-33.25,109.46-11.08,116,72.37,131.06-7.2,131.06-7.2s-1.64-1.41-4.81-3.8"/><path class="f" d="M503.69,283.7c-1.58,9.18-1.34,20.53,6.83,27.14a5.49,5.49,0,0,1-1.94,9.59c-11.35,3.09-28.37,3.7-41-13.5a5.5,5.5,0,0,1,.88-7.48c5.33-4.46,15.68-13,26.55-21.07a5.51,5.51,0,0,1,8.72,5.32"/><rect class="h" width="1262.35" height="2194.12"/></svg>