<svg xmlns="http://www.w3.org/2000/svg" width="1262.35" height="2194.12" viewBox="0 0 1262.35 2194.12"><defs><style>.a{fill:#f1f2f2;}.b{fill:#208dba;}.c{fill:#27aae1;}.d{fill:#db5cff;}.e{fill:#b84dd6;}.f{fill:#b4b5b5;}.g{fill:#8e8f8f;}.h{fill:none;}</style></defs><title>4_hat_2</title><path class="a" d="M647.75,114c0,8.87-10.44,16.06-23.32,16.06s-23.31-7.19-23.31-16.06,10.44-16.06,23.31-16.06,23.32,7.19,23.32,16.06"/><path class="b" d="M505,148.31C465.5,182,450.7,236,450.47,308.13L502,285.22a170.37,170.37,0,0,1,1.82-68C498.11,194.54,497.69,170.2,505,148.31Z"/><path class="c" d="M564.76,118a188.71,188.71,0,0,0-22.7,7.86,141.65,141.65,0,0,0-37,22.48c-7.35,21.89-6.93,46.23-1.27,68.91C512.54,178.62,534,142.83,564.76,118Z"/><path class="c" d="M617.61,109.17q-5,.38-9.78.88h0c-5.37.56-10.57,1.25-15.61,2-35.46,39.92-43.78,97.58-38.4,150.06l53.53-23.82C603.65,196,608.85,152.83,617.61,109.17Z"/><path class="d" d="M632.06,108.14c-2.83.15-5.62.35-8.35.61-2.06.12-4.09.27-6.1.42-8.76,43.66-14,86.82-10.26,129.16l16.36-7.28,41,11.7c-4.17-45.26-13.53-89.4-16.38-134.82C642.83,107.79,637.37,107.86,632.06,108.14Z"/><path class="d" d="M756.41,208c-9.82-36.56-29.34-70-59.57-92.95A196.67,196.67,0,0,0,672.45,110c30.07,42.54,45.78,94.56,41.2,146.73l10,2.84,7.92,2.26c8.34-9.81,14.36-22,19-33.44A110.29,110.29,0,0,0,756.41,208Z"/><path class="e" d="M756.41,208a110.29,110.29,0,0,1-5.82,20.35c-4.67,11.41-10.69,23.63-19,33.44L763.91,271A225.83,225.83,0,0,0,756.41,208Z"/><path class="c" d="M746.58,137.79a159.31,159.31,0,0,0-29.88-16,177.86,177.86,0,0,0-19.86-6.73c30.23,22.92,49.75,56.39,59.57,93A111.62,111.62,0,0,0,746.58,137.79Z"/><path class="b" d="M815.25,285.65c-1.08-75.43-30.23-121.56-68.67-147.86A111.62,111.62,0,0,1,756.41,208a225.83,225.83,0,0,1,7.5,63Z"/><path class="c" d="M648.38,107.93c2.85,45.42,12.21,89.56,16.38,134.82l48.64,13.86.25.08c4.58-52.17-11.13-104.19-41.2-146.73A208.22,208.22,0,0,0,648.38,107.93Z"/><path class="e" d="M504.59,220.35c-.29-1-.56-2.09-.82-3.13a170.37,170.37,0,0,0-1.82,68l36.89-16.41h0l1.48-.66C522.64,257.81,510.08,240.26,504.59,220.35Z"/><path class="d" d="M553.82,262.15c-5.38-52.48,2.94-110.14,38.4-150.06A242.12,242.12,0,0,0,564.76,118c-30.72,24.86-52.22,60.65-61,99.25.26,1,.53,2.09.82,3.13,5.49,19.91,18.05,37.46,35.73,47.8l1.85-.82Z"/><path class="a" d="M450.47,308.13s79.63-84.58,187.23-83.51,177.55,61,177.55,61-15.06,79.22-130.75,7.17c-35.44-22.07-75.49-14.5-109.21,11-99,74.93-124.82,4.28-124.82,4.28"/><path class="f" d="M762,306.28c10.85-.64,27.79-4.52,37.87-21.14a3.12,3.12,0,0,0-1-4.25c-5.58-3.59-19.49-12.42-30-18.28a3.14,3.14,0,0,0-4.39,4.05c4.22,9.11,7.67,23.45-4.73,34.12a3.14,3.14,0,0,0,2.26,5.5"/><path class="g" d="M810.45,281.86a180.36,180.36,0,0,1-10.12,15.94c-7.81,10.4-19.33,15.68-34.22,15.68-20.46,0-46.55-9.8-77.56-29.11A90.72,90.72,0,0,0,640,270.21c-23.22,0-47.18,8.84-69.28,25.58-15.57,11.78-30.18,20.53-43.42,26-11.11,4.59-21.37,6.91-30.5,6.91-12.23,0-22.47-4.13-30.44-12.3-2.5-2.57-7.7-9.86-10.27-13.75-3.66,3.45-5.58,5.49-5.58,5.49s25.83,70.65,124.82-4.28c33.72-25.53,73.77-33.1,109.21-11,115.69,72.05,130.75-7.17,130.75-7.17s-1.64-1.41-4.8-3.79"/><path class="f" d="M504.44,284c-1.57,9.13-1.34,20.43,6.81,27a5.45,5.45,0,0,1-1.93,9.54c-11.32,3.08-28.3,3.68-40.94-13.44a5.46,5.46,0,0,1,.88-7.44c5.32-4.45,15.65-12.94,26.49-21a5.49,5.49,0,0,1,8.69,5.3"/><rect class="h" width="1262.35" height="2194.12"/></svg>