<svg xmlns="http://www.w3.org/2000/svg" width="1262.3" height="2194.1" viewBox="0 0 1262.3 2194.1"><defs><style>.a{fill:#ff6afa;}.b{fill:#eda2e6;}.c{fill:#ffd9ff;}.d{fill:none;}</style></defs><title>4_visor_cryptokitties</title><path class="a" d="M797.9,229.9a7.21,7.21,0,0,1-4-1.2c-88.8-63.8-195.4-47.3-237.1-37.2-45.1,10.9-73.1,27.1-76.1,33.2a6.49,6.49,0,0,1-8.7,2.9,6.27,6.27,0,0,1-3-8.5V219c6.3-12.6,42.7-29.8,84.7-39.9,27.6-6.7,70.5-13.6,118.8-8.5,48.7,5.1,92.1,21.2,129.1,47.8a6.3,6.3,0,0,1,1.5,8.9l-.1.1a6.64,6.64,0,0,1-5.1,2.5"/><path class="b" d="M800.3,224.5C749,189,690.7,177.2,637.6,177.4c-85.9.3-158.2,32.1-165.3,45.8-8.9,17.2-12.3,38.2-13.4,46.8-.3,2.5-.4,3.9-.4,3.9l3-1,175.4-24.7.9.2,177.9,33C813,256.5,800.3,224.5,800.3,224.5Z"/><path class="c" d="M811.3,272.4s-66.8-44.3-173.8-44c-47.7.1-103.3,9-164.6,34.7,0,0-40.3,13.2-39.6,43.6.5,21,30.6,36.8,96.8,14.5,45.3-15.3,63.5-41.7,107.7-38.5,20.4,1.5,46.3,9.2,82.9,27.2C836.9,366.9,867.2,296.2,811.3,272.4Z"/><path class="b" d="M705.7,268.4l-4.4-14.2a19,19,0,0,0-13.4-12.5c-13.4-3.6-31.6-5.6-50.2-5.8-20.4-.1-41.5,1.9-57.6,6.5a17,17,0,0,0-11.9,11.9l-5.8,21.1c-1.1,4.1,3.4,7.5,7.3,5.5a145.73,145.73,0,0,1,68.3-16c3.8.1,7.8.3,11.8.6,15.5,1.5,30.6,6.5,44.2,12.6C700.5,281.1,707.8,275.1,705.7,268.4Z"/><path class="a" d="M811.3,272.4a23.29,23.29,0,0,0-2.8-1.1c45.1,20.5,15,78.9-83.5,30.5-85.2-41.8-115.4-31.3-157.5-8.1-12,6.6-24.5,13.5-40.5,18.9-58.6,19.8-87.9,7.3-85.8-13,2-19.1,32.5-36.9,31.8-36.6,0,0-40.3,13.2-39.6,43.6.3,14.2,14.1,25.9,43.3,25.3,14.1-.3,31.9-3.5,53.5-10.8,42-14.2,60.7-37.9,98.5-38.8,21.7-.5,49.7,6.6,92.1,27.4,33,16.2,59.1,22.1,78.3,21.7,48.1-.9,52.2-41.9,12.2-59"/><rect class="d" width="1262.3" height="2194.1"/><path d="M547.3,207.1a9,9,0,0,1,4-.1l.6.1.2-3.3-.4-.1a11.44,11.44,0,0,0-5.2.2,10.81,10.81,0,0,0-8.4,13.5c1.5,6.4,6.5,9.6,12.8,8.2a14.75,14.75,0,0,0,5.3-2.3l.3-.3-1.5-2.8-.5.4a10.09,10.09,0,0,1-3.8,1.7c-4.5,1-7.8-1.1-9-5.9S542.8,208.2,547.3,207.1Z"/><path d="M565.2,203a4.53,4.53,0,0,0-3.2,2.8l-.4-1.6-3.3.8.2.5c.4,1.2.7,2.6,1.2,4.4l2.4,10.4,3.5-.8-1.9-8.1c-.1-.4-.1-.8-.2-1.2-.1-1.9.8-3.3,2.3-3.6a2.2,2.2,0,0,1,.8-.1h.6l-.8-3.4H566A.75.75,0,0,0,565.2,203Z"/><path d="M580.3,209.4a10,10,0,0,0-.2,1.6,6.38,6.38,0,0,0-.8-1.4l-4.7-8.4-4,.6,7.9,13.2c.1.2.2.3.2.5s-.1.3-.1.5a7.89,7.89,0,0,1-1.6,3,5.85,5.85,0,0,1-2,1.5l-.4.2,1.4,3,.4-.1a7,7,0,0,0,3.2-2.4c1.7-2.1,2.6-5.1,3.6-10.1l2.5-11.7-3.9.6Z"/><path d="M598.3,196.9a6.13,6.13,0,0,0-4.6,2.5l-.2-1.7-3.5.3.1.5c.2,1.5.4,2.9.6,4.8l1.6,16.4,3.6-.4-.7-7.1a5.72,5.72,0,0,0,4.2,1.1c3.6-.4,6.9-3.3,6.3-9.1C605.3,199.6,602.2,196.5,598.3,196.9Zm3.8,7.8c.3,3.2-1,5.3-3.5,5.6a3.62,3.62,0,0,1-4-3.4l-.2-2.5a3.4,3.4,0,0,1,.1-1,3.82,3.82,0,0,1,3.3-3.3C600.5,199.8,601.9,202.2,602.1,204.7Z"/><path d="M613.1,190.9l-3.5,1.3.3,3.4-2.3.2.3,3,2.3-.2.7,7.5c.2,2,.7,3.3,1.5,4a4.21,4.21,0,0,0,3.4,1,10.15,10.15,0,0,0,2.5-.6l.3-.2-.5-3-.6.2a3.53,3.53,0,0,1-1.4.3c-.7.1-1.5,0-1.7-2.2l-.7-7.4,3.8-.4-.3-3-3.8.4Z"/><path d="M628.8,193.8c-4.6,0-7.8,3.5-7.7,8.4s3.2,8,7.7,8c3.8,0,7.8-2.7,7.8-8.4C636.4,197.1,633.3,193.8,628.8,193.8Zm0,13.4c-2.3,0-4-2.1-4-5.1,0-2.6,1.2-5.2,4-5.3,3.1,0,4,3.3,4,5.1,0,3.1-1.7,5.3-4,5.3Z"/><path d="M655.6,189.7l-4.6-.2-6.7,7.6c-.3.4-.6.7-.8,1l.3-9-3.7-.1-.8,21.5,3.7.1.3-8.1,1.5-1.6,6.2,10,4.3.2-7.8-12.6Z"/><path d="M663.1,190.1a2.06,2.06,0,0,0-2.3,1.9v.1a2.11,2.11,0,0,0,1.8,2.3h.2a2.16,2.16,0,0,0,1.7-.5,2.13,2.13,0,0,0-1.2-3.7A.31.31,0,0,0,663.1,190.1Z"/><rect x="654.28" y="201.44" width="15.8" height="3.7" transform="translate(413.15 849.66) rotate(-86)"/><path d="M674.4,192.7l-3.7.6-.4,3.4-2.3-.3-.3,3,2.3.3-.8,7.5c-.2,2,0,3.4.7,4.3a4.24,4.24,0,0,0,3.1,1.7,7.58,7.58,0,0,0,2.6-.1l.3-.1.2-3-.6.1a3.3,3.3,0,0,1-1.4,0c-.7-.1-1.5-.4-1.2-2.5l.8-7.4,3.8.4.3-3-3.8-.4Z"/><path d="M687.9,195l-3.7.4-.5,3.4-2.3-.4-.5,3,2.3.4-1.2,7.4c-.3,2-.2,3.4.5,4.3a4.16,4.16,0,0,0,3,1.8,5.71,5.71,0,0,0,2.6,0l.3-.1.3-3-.6.1a6.15,6.15,0,0,1-1.4-.1c-.7-.1-1.5-.4-1.1-2.6l1.2-7.3,3.8.6.5-3-3.8-.6Z"/><rect x="688.57" y="207.39" width="15.7" height="3.7" transform="translate(356.11 851.87) rotate(-78.82)"/><path d="M699,195.7a2.15,2.15,0,0,0-2.5,1.6v.1a2.06,2.06,0,0,0,1.5,2.5h.1a2.49,2.49,0,0,0,1.7-.3,1.6,1.6,0,0,0,.8-1.4,2,2,0,0,0-1.5-2.5C699.1,195.8,699,195.7,699,195.7Z"/><path d="M711.1,204.2c-4.3-.9-8,1.9-9,6.8-1,4.7,1.4,8.4,6,9.3a13,13,0,0,0,5.2.1l.4-.1-.1-3-.6.1a9,9,0,0,1-4-.1,4.33,4.33,0,0,1-3.7-4.7v-.3l10.1,2.1.2-.6c.1-.4.2-.7.3-1.1C716.8,209.2,715.5,205.1,711.1,204.2Zm-.8,2.8a3,3,0,0,1,2,1.3,4.25,4.25,0,0,1,.5,2.7l-6.6-1.4c.6-1.4,1.9-3,4.1-2.6Z"/><path d="M725.2,214.5h0c-1.7-1.2-2.1-1.7-1.9-2.6s1.1-1.3,2.3-1a5.22,5.22,0,0,1,2.5,1.4l.5.4,1.7-2.6-.3-.3a9.18,9.18,0,0,0-3.5-1.9c-3.2-.8-5.9.7-6.5,3.4-.3,1.4-.1,3.5,3,5.5,1.8,1.2,2,1.9,1.8,2.7-.2,1-1.2,1.4-2.7,1.1a6.91,6.91,0,0,1-3-1.7l-.4-.5-1.7,2.7.3.3a9.62,9.62,0,0,0,4,2.1c3.5.8,6.3-.5,7-3.4C728.7,218,727.8,216.2,725.2,214.5Z"/></svg>