<svg xmlns="http://www.w3.org/2000/svg" width="1262.35" height="2194.12" viewBox="0 0 1262.35 2194.12"><defs><style>.a{fill:#fff;}.b{fill:#99395f;}.c{fill:#b86a57;}.d{fill:#b86283;}.e{fill:none;}</style></defs><title>4_visor_5</title><path class="a" d="M797.87,229.94a6.57,6.57,0,0,1-4-1.23c-88.75-63.84-195.37-47.25-237.09-37.16-45.13,10.92-73.15,27.14-76.15,33.16a6.53,6.53,0,0,1-8.71,2.91,6.38,6.38,0,0,1-3-8.59c6.29-12.61,42.71-29.77,84.7-39.94,27.57-6.67,70.55-13.56,118.77-8.5,48.69,5.1,92.13,21.17,129.1,47.76a6.36,6.36,0,0,1,1.43,9,6.51,6.51,0,0,1-5.11,2.63"/><path class="b" d="M505.67,202.56c-6.07,14.41-10.08,29.48-13,44.78a385,385,0,0,1,37.41-12.46A151.39,151.39,0,0,1,543.6,190,307.17,307.17,0,0,0,505.67,202.56Z"/><path class="c" d="M543.6,190a151.39,151.39,0,0,0-13.52,44.9,385.79,385.79,0,0,1,38.58-8.57,312.74,312.74,0,0,1,8.09-43.52C565,184.8,553.9,187.25,543.6,190Z"/><path class="c" d="M637.63,177.42c-9,0-17.92.44-26.62,1.13-2.91,14.1-4,28.74-4.24,43.26a387.76,387.76,0,0,1,58.31.42c-1.06-14.68-2.26-29.35-3-44Q649.91,177.39,637.63,177.42Z"/><path class="b" d="M662.07,178.21c.75,14.67,1.95,29.34,3,44A390.52,390.52,0,0,1,707.36,228C705.74,213,703.1,198.11,701,183.3A309.46,309.46,0,0,0,662.07,178.21Z"/><path class="c" d="M701,183.3c2.12,14.81,4.76,29.67,6.38,44.74a396.61,396.61,0,0,1,39.13,9.67c-1.08-15-3.16-30-8.13-44.37A278.77,278.77,0,0,0,701,183.3Z"/><path class="b" d="M738.36,193.34c5,14.35,7,29.35,8.13,44.37q18.6,5.61,37,13.19c-.77-14.08-3.81-27.92-8-41.41A258.75,258.75,0,0,0,738.36,193.34Z"/><path class="c" d="M800.25,224.54a247.68,247.68,0,0,0-24.71-15c4.19,13.49,7.23,27.33,8,41.41q14.63,6,29.1,13.28A310.76,310.76,0,0,0,800.25,224.54Z"/><path class="b" d="M576.75,182.79a312.74,312.74,0,0,0-8.09,43.52q18.83-3.18,38.11-4.5c.24-14.52,1.33-29.16,4.24-43.26C599.17,179.47,587.69,180.93,576.75,182.79Z"/><path class="c" d="M472.33,223.18c-6.76,13-10.34,28.32-12.13,38.66q15.82-8,32.47-14.5c2.92-15.3,6.93-30.37,13-44.78C487.13,210.19,475.06,217.93,472.33,223.18Z"/><path class="a" d="M460.2,261.84c-.57,3.27-1,6.05-1.22,8.1-.31,2.46-.42,3.88-.42,3.88l3-1,175.35-24.73.87.16,177.86,33a142.66,142.66,0,0,0-3-17C650.19,182.25,509.59,236.92,460.2,261.84Z"/><path class="b" d="M811.33,272.4s-66.77-44.25-173.76-44c-47.67.11-103.32,9-164.61,34.67,0,0-40.33,13.16-39.6,43.65.51,21,30.65,36.77,96.8,14.46,45.3-15.27,63.46-41.67,107.7-38.5,20.37,1.46,46.26,9.19,82.88,27.17C836.9,366.89,867.23,296.23,811.33,272.4Z"/><path class="d" d="M705.66,268.4l-4.44-14.23a19,19,0,0,0-13.37-12.54c-13.43-3.65-31.57-5.63-50.21-5.77-20.43-.14-41.45,1.93-57.57,6.47a17.14,17.14,0,0,0-11.94,11.85l-5.83,21.1c-1.13,4.09,3.4,7.48,7.29,5.46a145.54,145.54,0,0,1,68.26-15.95c3.83.06,7.75.26,11.77.65,15.51,1.51,30.6,6.48,44.23,12.63C700.51,281.07,707.76,275.14,705.66,268.4Z"/><path class="a" d="M811.33,272.4a17.72,17.72,0,0,0-2.8-1.1c45.08,20.55,15,78.87-83.47,30.55-85.18-41.82-115.4-31.32-157.54-8.06-12,6.63-24.45,13.5-40.5,18.91-58.62,19.76-87.94,7.27-85.83-13,2-19.11,32.51-36.91,31.77-36.6,0,0-40.33,13.16-39.6,43.65.34,14.17,14.12,25.93,43.27,25.29,14.15-.31,31.91-3.54,53.53-10.82,42-14.17,60.69-37.93,98.48-38.75,21.71-.48,49.72,6.6,92.1,27.42,33,16.21,59.13,22.11,78.27,21.69,48.18-1.06,52.33-42.1,12.32-59.15"/><rect class="e" width="1262.35" height="2194.12"/></svg>