<svg xmlns="http://www.w3.org/2000/svg" width="1262.35" height="2194.12" viewBox="0 0 1262.35 2194.12"><defs><style>.a{fill:#212121;}.b{fill:#993939;}.c{fill:#595959;}.d,.e{fill:none;}.d{stroke:#bea97c;stroke-linecap:round;stroke-linejoin:round;stroke-width:6px;}</style></defs><title>4_men_shoes_3</title><polygon points="66.29 2004.88 63.47 2027.47 81.82 2020.41 66.29 2004.88"/><polygon points="102.29 2035.94 99.47 2058.53 117.82 2051.47 102.29 2035.94"/><polygon points="145.62 2063.25 150.12 2085.57 165.28 2073.04 145.62 2063.25"/><polygon points="185.54 2082.24 190.04 2104.56 205.2 2092.03 185.54 2082.24"/><polygon points="230.01 2106.95 234.51 2129.26 249.67 2116.74 230.01 2106.95"/><polygon points="270.94 2122.26 279.44 2143.38 292.06 2128.3 270.94 2122.26"/><polygon points="719.23 2074.06 726.29 2098.76 737.59 2085.35 719.23 2074.06"/><polygon points="752.01 2087.08 765.2 2109.13 772.65 2093.26 752.01 2087.08"/><polygon points="799.7 2122.76 807.47 2146.76 819.47 2130.53 799.7 2122.76"/><polygon points="835 2140.41 842.76 2164.41 854.76 2148.18 835 2140.41"/><polygon points="877.35 2146.06 884.73 2165.28 896.41 2142.53 877.35 2146.06"/><polygon points="913.74 2141.67 921.12 2160.88 932.8 2138.14 913.74 2141.67"/><path class="a" d="M65.87,1980.92c-4.62,8.48-4.28,18.32-4.28,18.32,18.07,40.85,104.19,79.91,132.15,91.69a21.78,21.78,0,0,0,15.88.48c12.84-4.64,17.95.2,19.87,13.91a14.19,14.19,0,0,0,6.22,9.92c15.14,9.91,40.25,13.74,55.32,17.08a15.06,15.06,0,0,0,15.47-5.87,216.12,216.12,0,0,0,12.26-18.8c-27.27-1.29-53.45-15.87-80.17-23.3C171.25,2066.53,108.84,2034,65.87,1980.92Z"/><path class="a" d="M341.39,2039.76c.07-.33.13-.66.2-1,0-6.58-4.71-6.11-4.71-6.11-66.82,1.88-86.12-46.59-86.12-46.59-1.41-6.12.47-9.88-4.23-9.88-.93,0-3.84.42-7.9,1.09C246.82,2022.32,297.65,2045.12,341.39,2039.76Z"/><path class="b" d="M186.29,1987c-6.2,1.07-6.52.33-14.83-.13-6.34-.34-15.74-1.62-20.46-6-55.77-51.53-82.31-5.12-85.13,0,20,24.68,44.18,44.92,71.12,61.3a356.47,356.47,0,0,0,61.33,29.41c1.07-28.21-3.7-57.09-10.39-85Z"/><path class="a" d="M187.93,1986.68c6.69,27.86,11.46,56.74,10.39,85q8,3,16.16,5.62c-.19-31.5-6.83-62.44-14.71-92.85Z"/><path class="b" d="M199.77,1984.4c7.88,30.41,14.52,61.35,14.71,92.85q7.74,2.52,15.61,4.75c-2.51-33.75-6-67.4-14.9-100.51C209.76,1982.5,204.38,1983.52,199.77,1984.4Z"/><path class="a" d="M215.19,1981.49c8.93,33.11,12.39,66.76,14.9,100.51,2.82.81,5.65,1.6,8.5,2.35,3.62,1,7.23,2.16,10.83,3.37-.59-37.24-8.9-74-21.64-108.55C223.77,1979.89,219.46,1980.69,215.19,1981.49Z"/><path class="a" d="M305.19,2082.72c7,3.35,15,4.55,22.91,5.78a200.73,200.73,0,0,0,8.82-28.05c-7.16-.33-14.33-2.27-21.49-3.88C312.75,2065.6,311.23,2075.38,305.19,2082.72Z"/><path class="b" d="M305.19,2082.72a25.17,25.17,0,0,1-3.6,3.63,25.17,25.17,0,0,0,3.6-3.63,33,33,0,0,1-5.6-3.37,33,33,0,0,0,5.6,3.37c6-7.34,7.56-17.12,10.24-26.15q-2.93-.68-5.84-1.22,2.91.54,5.84,1.22a60,60,0,0,1,2.16-6.22,60,60,0,0,0-2.16,6.22c7.16,1.61,14.33,3.55,21.49,3.88,1.55-6.34,3-13.17,4.47-20.69a109.71,109.71,0,0,1-58-9c-15.77-7.22-29.24-18.35-37.44-33a66.27,66.27,0,0,1-7.34-20.49c-3.07.51-6.81,1.17-10.85,1.9,12.74,34.5,21.05,71.31,21.64,108.55q4.2,1.43,8.38,3c20.17,7.35,40.25,16,61,17a157.16,157.16,0,0,0,9.34-19.15C320.18,2087.27,312.17,2086.07,305.19,2082.72Z"/><path class="a" d="M849.59,2130.35c-12-3-23-7-33-13-39.57-20.22-76-43.54-106.7-74.7-.09,2.49-.16,4.93-.2,7.26a44,44,0,0,0,25.16,40.7c11.69,5.51,24.17,9.72,29.21,5.68,10.59-8.47,20.12,13.77,20.12,13.77l13.76,18c38.6,31.17,94.37,27,124.27,21.66,15.55-2.76,24.33-16.2,23.78-30.85C922.32,2139.81,880.34,2138,849.59,2130.35Z"/><path class="a" d="M819.59,2000.35a37.11,37.11,0,0,0,7.71-8.67c-2.23-2.16-4.62-4.45-7.23-7a3.84,3.84,0,0,0-6.22,1.45c-7.08,17.61-47.67,15.88-47.67,15.88-14.74-2.33-31.75-14.31-39.8-20.56a4.19,4.19,0,0,0-6.79,1.81q-.6,1.47-1.17,3C747.37,2009.87,788.73,2026.54,819.59,2000.35Z"/><path class="b" d="M799,2011.49c-13.77,4-28.47,2.19-42.6-3-13.65-5-26.77-13.06-38-22.2a118.89,118.89,0,0,0-4.85,18.9c4,5,8.17,9.69,13,12.11a5,5,0,0,0,1.74.38c-1.51,6.41-1.17,13.32-.91,20.09a116,116,0,0,1-16.49-12.21c-.51,5.83-.84,11.6-1,17a319.58,319.58,0,0,0,31.3,27.78l1.15.88c18-25.48,39.64-47.28,64.92-63A53.11,53.11,0,0,1,799,2011.49Z"/><path class="a" d="M728.33,2017.73a5,5,0,0,1-1.74-.38c-4.85-2.42-9-7.06-13-12.11-1.19,6.6-2,13.53-2.64,20.37a116,116,0,0,0,16.49,12.21C727.16,2031.05,726.82,2024.14,728.33,2017.73Z"/><path class="a" d="M812.7,2005.38a52.76,52.76,0,0,1-5.44,3c-25.28,15.67-46.92,37.47-64.92,63q7.23,5.59,14.77,10.82c14.64-26.4,37.45-49.22,62.53-65.5A109.2,109.2,0,0,1,812.7,2005.38Z"/><path class="b" d="M819.64,2016.63c-25.08,16.28-47.89,39.1-62.53,65.5q5.58,3.9,11.3,7.63c15.24-24.58,35.36-47.2,60.1-61.44C825.42,2024.5,822.41,2020.61,819.64,2016.63Z"/><path class="a" d="M828.51,2028.32c-24.74,14.24-44.86,36.86-60.1,61.44q6.92,4.48,14,8.75a176.31,176.31,0,0,1,56.09-58.23C835.2,2036.34,831.81,2032.37,828.51,2028.32Z"/><path class="b" d="M922.46,2073.19c-23.07-11.84-46.11-20.94-47.84-21.52-21.74-33.55-28.26-41.55-47.32-60a37.11,37.11,0,0,1-7.71,8.67c-1.44,1.22-2.91,2.34-4.39,3.37,1.45-.8,2.91-1.6,4.39-2.37-1.48.77-2.94,1.57-4.39,2.37-.83.58-1.66,1.14-2.5,1.66a109.2,109.2,0,0,0,6.94,11.25q6.87-4.47,14-8.28-7.07,3.8-14,8.28c2.77,4,5.78,7.87,8.87,11.69a120.38,120.38,0,0,1,14.08-7,120.38,120.38,0,0,0-14.08,7c3.3,4,6.69,8,10,12q4-2.58,8.07-4.93-4.1,2.34-8.07,4.93c3.13,3.71,6.2,7.39,9.07,11.07,0-1-2-2-2-3,0,1,2,2,2,3-2.87-3.68-5.94-7.36-9.07-11.07a176.31,176.31,0,0,0-56.09,58.23c11.07,6.63,22.48,12.87,34.16,18.84,10,6,21,10,33,13a182.57,182.57,0,0,0,18,3.55c27.64,4,59.13,2,78.43-15,0-1.52-.46-6.46-1-12.13A41.86,41.86,0,0,0,922.46,2073.19Z"/><path class="a" d="M260.53,2001.47c-.47-6.12-7.88-28-7.88-28-11.18-1.29-79.94,13.31-81.19,13.4,1.56,5.59,3.82,13.56,6.38,20.67a13.74,13.74,0,0,0,14.68,9C214.41,2013.72,241.43,2007.07,260.53,2001.47Z"/><path class="a" d="M873.12,2049.35c-23.27-35.76-28.58-41.24-53-64.61a3.83,3.83,0,0,0-6.2,1.38c-3.61,9.09-16.11,13-27.41,14.74a5.46,5.46,0,0,0-3.57,8.6c15.91,22,26.86,34,44.22,54.45a9.11,9.11,0,0,0,12.09,1.66C849.42,2058.54,861.15,2053.35,873.12,2049.35Z"/><path class="c" d="M85.26,2019.44c21,19.37,57.61,46.16,112.82,63.83a3,3,0,0,0,3.78-1.94,3,3,0,0,0-2-3.78c-54-17.29-89.84-43.43-110.37-62.32a208.07,208.07,0,0,1-26.06-28.6,42.17,42.17,0,0,0-1.63,7.77A220.27,220.27,0,0,0,85.26,2019.44Z"/><path class="c" d="M247.27,2099.46a3,3,0,0,0-2,5.67c.37.13,31.59,10.86,63.23,18.44q1.89-2.68,3.63-5.3C280.11,2110.75,247.65,2099.59,247.27,2099.46Z"/><path class="c" d="M752.82,2090.06a3,3,0,0,0,1.3-5.71A157.38,157.38,0,0,1,709.71,2052a44.15,44.15,0,0,0,1.39,9.84,162.19,162.19,0,0,0,40.42,27.9A3,3,0,0,0,752.82,2090.06Z"/><path class="c" d="M844.85,2135.94c-26.75-8.25-43.72-21.67-44-21.87a3,3,0,0,0-3.76,4.68c.72.58,17.88,14.22,45.73,22.85a148.83,148.83,0,0,0,44,6.73,145.29,145.29,0,0,0,53.92-10.46,30.21,30.21,0,0,0,3.86-8.15A139.81,139.81,0,0,1,844.85,2135.94Z"/><path class="d" d="M184.88,2017.94s16.94-34.94,16.94-39.18l29.65,33.89,12.71-40.24"/><polyline class="d" points="180.65 1983 208.18 2011.59 226.18 1974.53 252.65 2004.18"/><path class="d" d="M833.94,1995.71s-32.82,25.41-34.94,37c0,0,46.59-13.76,56.12-10.58,0,0-24.83,30.09-28,41.73"/><path class="d" d="M787.35,2013.71l58.24-7.42s-32.83,36-32.83,41.3c0,0,56.12-6.35,59.3-5.3"/><rect class="e" width="1262.35" height="2194.12"/></svg>