<svg xmlns="http://www.w3.org/2000/svg" width="1262.35" height="2194.12" viewBox="0 0 1262.35 2194.12"><defs><style>.a{fill:#fff;}.b{fill:#cfcfcf;}.c{fill:#805429;}.d{fill:#633b14;}.e{fill:#c78340;}.f{fill:#f2bc88;}.g{fill:#a6c4d6;}.h{fill:#93a3b8;}.i{fill:none;}</style></defs><title>4_men_shirt_7</title><path class="a" d="M383.94,703.24c-5.88,7.56-20,21.27-34.61,34.81L413,816.41c51-43.15,67.37-61.82,69.51-64.34a509.52,509.52,0,0,0-12.81-58.36c-6-21.44-13.1-42.59-20.88-63.45C420.49,655.27,395.16,688.81,383.94,703.24Z"/><path class="a" d="M814.88,624.53c-36-19.06-39.18-13.77-76.23-14.82a250.48,250.48,0,0,1-36.19-3.63c-15.4,20.06-64.4,49.92-64.4,49.92l-54.49-48.66a78.9,78.9,0,0,1-19.48-.24l-50.27-6.92c-20.13-3-43.43,11-65,30.08,14.75,39.57,27.22,80.17,33.69,121.81.17-.2.25-.31.25-.31,4.24,19.06,36.71,185.83,43.77,232.42,4.14,27.36-21.46,101.71-29,122.81,19.81,5.56,159.4,41.83,284.49-3.1-.64-6-1-9.24-1-9.24-4.24-22.24-15.88-121.77,2.12-218.12C796.3,806,808.88,739.94,808.88,739.94l1.21.85c5-34.21,14.27-68.84,31.68-99.24C831.22,634.25,821.86,628.22,814.88,624.53Z"/><path class="a" d="M928.3,706.94c-22.69-18-58.75-46.16-86.53-65.39a237.24,237.24,0,0,0-21.3,50.81,346.84,346.84,0,0,0-10.38,48.43c37.38,26.18,59.75,36.07,83.5,55.62C895.24,776.92,907.2,737.23,928.3,706.94Z"/><path class="b" d="M413,816.41c25.29-19.29,50.94-42.06,69.76-64.65-8.82-46-12.92-53.86-13.06-58,2.12,28.94-6,58.94-6,58.94C447,774.66,424.32,802.51,413,816.41Z"/><path class="b" d="M820.47,692.36c-6.88,20.76-7.82,29.23-11.36,47.71,8.24,6.93,54.12,40.11,84.48,56.34-12.18-9.85-51-51.82-62.12-62.82C828.18,730.33,821.59,708.41,820.47,692.36Z"/><path class="b" d="M539.73,978c.23,1.45.45,2.83.64,4.1,2.1,13.83-1.33,36.59-10.47,69.59-4.65,16.79-9.91,33.09-14.14,45.53a573.46,573.46,0,0,0,127.52,14.88c45.08,0,86.54-6,123.43-17.78-2.85-16.52-6.88-51.65-7.35-95C643.28,1112.08,560.41,1032.18,539.73,978Z"/><path class="c" d="M563.23,595.94c-56.47-15.53-94.64,17.18-94.64,17.18l9.63,94.23c40.37,0,81.11.22,121.42,4C576.88,682.16,563.23,595.94,563.23,595.94Z"/><path class="d" d="M599.64,711.36c-40.31-3.79-81-4-121.42-4l1.13,11c44.07,0,88.57-.2,132.06,6l-.18-3.9C607.15,719.24,603.28,716,599.64,711.36Z"/><path class="c" d="M479.35,718.35l3.41,33.41-9.37,260.52c0,.24,0,.47,0,.7,49.43,8.93,101.44,14.3,151.17,4.59,0-.35,0-.7,0-1.05L611.41,724.31C567.92,718.15,523.42,718.31,479.35,718.35Z"/><path class="d" d="M473.4,1013a15.83,15.83,0,0,0,13.9,15.57c43.13,5.29,94.61,5.61,120.84,5.35a16.61,16.61,0,0,0,16.43-16.33C574.84,1027.28,522.83,1021.91,473.4,1013Z"/><path class="e" d="M600.46,700.44c-25.34-54.11-23.11-110.15-23.11-110.15a32.31,32.31,0,0,0-25.67-4.6c-10.46,30.07-20.07,60.21-28.15,91.1C548.16,688.38,574.32,694.2,600.46,700.44Z"/><path class="c" d="M697.59,706.35c37.33-4.06,75.33-4.82,111.85,2,2.27-24.89,5.23-57.36,7.8-85.58,0,0-42.18-32.7-98.65-17.17-.05.1-16.17,72.14-38.72,101.12A101.32,101.32,0,0,0,697.59,706.35Z"/><path class="d" d="M697.59,706.35a101.32,101.32,0,0,1-17.72.36,39.34,39.34,0,0,1-9.33,9c46.11-2.18,92.59-4.07,138,2.88.3-3.25.61-6.69.94-10.28C772.92,701.53,734.92,702.29,697.59,706.35Z"/><path class="c" d="M812,1014.21a16,16,0,0,0,.44-4.28l-6.37-264.52c.43-4.69,1.3-14.3,2.44-26.79-45.37-7-91.85-5.06-138-2.88a18.77,18.77,0,0,1-4.95,2.32c-.42,12.19-9.49,273.63-10.3,297C707.53,1020.28,759.76,1019,812,1014.21Z"/><path class="d" d="M655.29,1015c0,.49,0,.88,0,1.16a16.62,16.62,0,0,0,16.44,17.38c26.23.26,83.7-2.06,126.84-7.36a15.81,15.81,0,0,0,13.46-12C759.76,1019,707.53,1020.28,655.29,1015Z"/><path class="e" d="M734.26,596.59a32.5,32.5,0,0,0-29.79,3.35s-1.9,51.36-32.1,106.48c28.92-10.55,59.11-17.35,88-28.9C748.49,651.54,742.05,623.78,734.26,596.59Z"/><path class="f" d="M523.53,676.79c8.08-30.89,17.69-61,28.15-91.1a41.29,41.29,0,0,0-15.27,7.43l-23.49,77.51a16.79,16.79,0,0,0,10.8,20.81l87.51,29a194.78,194.78,0,0,1-10.77-20C574.32,694.2,548.16,688.38,523.53,676.79Z"/><path class="f" d="M745.41,602.76a43.69,43.69,0,0,0-11.15-6.17c7.79,27.19,14.23,54.95,26.06,80.93-28.84,11.55-59,18.35-88,28.9q-3.18,5.79-6.78,11.64L758.45,691a16.8,16.8,0,0,0,11.08-21.86Z"/><path class="g" d="M646.18,652.29,638.06,656l-6.59-3,5.18,312.82-5.34,160.12q8.91.21,18.13.1l1.32-160.22Z"/><path class="h" d="M601.23,602.29,638.06,656l-24.71-6.41-50.12,12.7s5.34-52.13,6.36-57.17c2.67-13.28,31.06-26.83,31.06-26.83Z"/><path class="h" d="M638.06,656,678,599.47l-1.35-24.71s23.59,14.59,27.82,25.18l7,59.53-47.3-10.59Z"/><circle class="a" cx="639.12" cy="677.47" r="5.29"/><circle class="a" cx="639.47" cy="737.12" r="5.29"/><circle class="a" cx="640.88" cy="803.47" r="5.29"/><circle class="a" cx="642.29" cy="873.35" r="5.29"/><circle class="a" cx="643.7" cy="937.59" r="5.29"/><circle class="a" cx="643.7" cy="1003.94" r="5.29"/><circle class="a" cx="641.59" cy="1078.06" r="5.29"/><rect class="i" width="1262.35" height="2194.12"/></svg>