<svg xmlns="http://www.w3.org/2000/svg" width="1262.35" height="2194.12" viewBox="0 0 1262.35 2194.12"><defs><style>.a{fill:#4f4f4f;}.b{fill:#333;}.c{fill:none;}</style></defs><title>4_men_hair_4</title><path d="M798.23,386.38c.54-4.63,1.11-10.19,1.6-16.45a179.35,179.35,0,0,1-28.76,6.19c.81,4.53,1.47,8.53,2,11.86A99,99,0,0,0,798.23,386.38Z"/><path class="a" d="M773.05,388c1,6.43,1.48,11.31,1.48,11.31s12.23-9.88,21.65,2.83c0,0,1-6.53,2.05-15.74A99,99,0,0,1,773.05,388Z"/><path class="a" d="M799.83,369.93c.5-6.33.92-13.37,1.14-20.89-10.44,4.6-22.06,7.13-33.51,8.86,1.43,6.6,2.63,12.77,3.61,18.22A179.35,179.35,0,0,0,799.83,369.93Z"/><path d="M801,349c.21-7.17.24-14.78,0-22.62-11.26,7-24.41,11.68-37,16.47,1.3,5.14,2.47,10.18,3.51,15C778.91,356.17,790.53,353.64,801,349Z"/><path class="a" d="M635.94,277.24l.24,1.52.26-2.05A3.19,3.19,0,0,0,635.94,277.24Z"/><path class="a" d="M801,326.42c-.89-29.08-5.54-61.32-18.92-86.24-27.23-50.72-101.69-62.51-134.59-48l-11,84.53c5.62-4.93,51.85-30.41,87.38-11.12C743,276,756,311.32,764,342.89,776.57,338.1,789.72,333.38,801,326.42Z"/><path d="M572.41,363s70.94-90,101.65-117.53,40.23-70.94,7.41-91.06-64.59-38.12-94.24-40.23c0,0,24.36,24.35,29.65,38.11,0,0-67.76-10.58-135.53,41.3,0,0,27.53,5.29,38.12,8.47,0,0-69.88,58.23-74.12,154.59l26.47-30.71s-18,38.12-5.29,93.18l14.82-41.3s5.3,85.77,60.35,160.94c0,0-40.23-138.7,34.95-252C576.65,286.76,561.82,337.59,572.41,363Z"/><path class="b" d="M584.06,165c4.23-.21,5.29,44.47,64.59,73.06,0,0-63.53,2.12-110.12-58.24C538.53,179.82,562.88,166.06,584.06,165Z"/><rect class="c" width="1262.35" height="2194.12"/></svg>