<svg xmlns="http://www.w3.org/2000/svg" width="1262.35" height="2194.12" viewBox="0 0 1262.35 2194.12"><defs><style>.a{fill:#6b3614;}.b{fill:#572c11;}.c{fill:#8c471a;}.d{fill:none;}</style></defs><title>4_men_hair_9</title><path class="a" d="M451.59,370.35c-17,24-29,54-22,83,1.7-33.19,24.41-57.69,49-77.81L476.7,368c-17.26-9.9-39.94-7.76-56.71,2.95s-27.84,28.94-32.6,48.25C401.6,394.88,424.75,378,451.59,370.35Z"/><path class="b" d="M478.6,375.54c-24.6,20.12-47.31,44.62-49,77.81-7-29,5-59,22-83-26.84,7.67-50,24.53-64.2,48.8v0a283.68,283.68,0,0,1,38.88-23.89c-10.93,11.78-13.47,29.14-12.59,45.19a136.11,136.11,0,0,0,39.55,88.13c-11-46.55.24-97.88,29.78-135.51Z"/><path class="b" d="M671.59,238.35C660.46,254.62,645,268,638.2,285.89c.09.09.17.18.26.26,9.6-4.95,44.36-22.08,58.89-18.44a1,1,0,0,1,.23.08C691.62,254.7,684.39,242.62,671.59,238.35Z"/><path class="a" d="M638,286.38l.45-.23c-.09-.08-.17-.17-.26-.26C638.14,286.06,638.07,286.22,638,286.38Z"/><path class="b" d="M726.59,223.35c9.08,12.87,15.3,28,19.95,43.33,9.18,12,38.2,59.4,27.4,134.08,0,0,12-14.11,21.88,2.48,0,0,6.36,15.88,5.3,22.23,0,0,7.59-47.3,8.47-97.64-4.72,15.31-11.25,30.06-16,45.52C792.59,317.35,768.59,261.35,726.59,223.35Z"/><path class="a" d="M799.29,239.12c-22.23-59.3-105.11-121.77-176.06-94.24,0,0-84.7-21.17-137.64,75.18a209.46,209.46,0,0,0-18.34,45c-2.68,39.89,2.37,80.86,22.49,115.57,3.94-44.75,18.68-87,39.65-126.72a15.29,15.29,0,0,1,16.92-7.82c22.84,5.24,72.62,20.76,91.89,39.79,6.75-17.93,22.26-31.27,33.39-47.54,12.8,4.27,20,16.35,26,29.44,17.07,5.33,56.95,137.56,56.95,137.56s10.59-90-10.59-141.88c0,0,1,1.08,2.6,3.21-4.65-15.29-10.87-30.46-19.95-43.33,42,38,66,94,67,150,4.75-15.46,11.28-30.21,16-45.52C810.15,295.65,808,262.24,799.29,239.12Z"/><path class="b" d="M531.91,249.22c-22.31,41.09-38.08,84.9-42.17,131.42-20.12-34.71-25.17-75.68-22.49-115.57-23.47,84.5,13,158.28,13,158.28s0-24.35,12.71-27.53c0,0,10-4.47,17.41,13.53,0,0-4.71-87.94,24.94-134.53,0,0,66.71-11.7,100.59,12.65,0,0,.74-.4,2.07-1.09l.09-.59C617,265.09,559.9,248.56,540.84,245A8.36,8.36,0,0,0,531.91,249.22Z"/><path class="b" d="M508.65,479.94s14.35,24.24,26,32.71l-7.89-27.18S518.53,485.82,508.65,479.94Z"/><path class="b" d="M776.18,476.88s-15.3,23.41-26.95,31.88l6.83-24.58A60.32,60.32,0,0,0,776.18,476.88Z"/><path class="c" d="M592.53,226.41s-47.65-29.65-55.06-55.06c0,0-25.41,16.94-32.82,36C504.65,207.35,536.41,225.35,592.53,226.41Z"/><path class="c" d="M668.76,219s49.65-26.65,57.06-52.06A104.37,104.37,0,0,1,763,198.88S724.88,217.94,668.76,219Z"/><rect class="d" width="1262.35" height="2194.12"/></svg>