<svg xmlns="http://www.w3.org/2000/svg" width="1262.35" height="2194.12" viewBox="0 0 1262.35 2194.12"><defs><style>.a{fill:#484848;}.b{fill:#8ea4ca;}.c{fill:#383838;}.d{fill:#6f82a4;}.e{fill:#546074;}.f{fill:#fff;}.g{fill:none;}</style></defs><title>4_men_shirt_9</title><path class="a" d="M193.1,709.44c-12.17-15-18.3-16.6-24.1-17.15,0,0-22.24,37.77-45.53,61.42,3.51,6.95,6.63,14.64,20.16,19.69C164,755.55,181.79,734,193.1,709.44Z"/><path class="b" d="M1037.23,664.76l-4.41-74.33c-23,7.16-48.7,5-71.85-1.51a271.88,271.88,0,0,1-5.27,51.49c-8.47,40.24-9.52,67.77-9.52,67.77L819.12,617.12s-21.18-18-64.59-12.71-48.71-4.23-48.71-4.23-14.82,51.88-18,55.06-54,33.88-54,33.88l-64.59-62.47-47.64-28.59-8.47-2.12s-34.94-2.12-58.24,21.18S339.47,750.53,307.7,769.59c0,0-5.29-14.83-42.35-23.3-21.93-5-51.64-23-72.25-36.85-11.31,24.51-29.1,46.11-49.47,64,37.09,35.48,116,107.38,155.6,116.89,0,0,80.47-38.11,175.77-123.88,0,0,36.18,174.71,35.12,209.65,0,0-1.94,50.47-18.89,73.06s3.89,57.17,3.89,57.17,153.53,46.59,289.06-3.17c0,0,18-18,19.05-30.71s-18-51.88-18-83.65,22.24-217,29.65-234c0,0,159.88,81.53,189.53,81.53S1043.59,717.71,1037.23,664.76Z"/><path class="a" d="M1032.82,590.43c1.94-6.72,3.83-17.55-1.94-32.61,0,0-26.35,10.83-67.65-1.88-4.29,7.2-5.64,19.77-2.26,33C984.12,595.42,1009.85,597.59,1032.82,590.43Z"/><path class="c" d="M555.59,577.35c11.61,33.94,34.38,63.08,61.2,86.73-22.3-29.51-26.68-41-33.44-56.14,4.71.54,17.65-3.29,17.65-3.29l-.35-29.18C586.84,565.11,573,561,559.15,562.34,555.13,565.35,553.38,570.74,555.59,577.35Z"/><path class="c" d="M723.59,569.35a9.36,9.36,0,0,0,.55-6c-13.2-1.52-30.82,1.93-47.61,13.21,0,0,1.76,18.35,1.41,24l14.12,3.53c-8.14,17.07-15.3,29.66-27.61,45.53C691.09,628.67,713.43,601.52,723.59,569.35Z"/><path class="a" d="M776.78,598.66c-8.48-11.74-26.82-32.38-52.64-35.34a9.36,9.36,0,0,1-.55,6c-10.16,32.17-32.5,59.32-59.14,80.24A312.63,312.63,0,0,1,640.37,677a9.42,9.42,0,0,1-14.09-.69c-3.47-4.34-6.61-8.39-9.49-12.2-26.82-23.65-49.59-52.79-61.2-86.73-2.21-6.61-.46-12,3.56-15-19.71,1.91-39.55,14.85-59.7,36.76a21.72,21.72,0,0,0,.95,30.4c45.68,43.91,123.68,71.24,133.42,70,.6-.08,103.68-30.41,143-84.67A13.77,13.77,0,0,0,776.78,598.66Z"/><path class="d" d="M946.18,708.18l-25.52-18.29c9.59,17.65,17.78,41.11,23.4,58.52C941.11,736.6,946.26,720,946.18,708.18Z"/><path class="d" d="M322.86,757.93a116.55,116.55,0,0,1-14.71,11.38c5.33,8.79,9.9,18,10.55,28.57C320.42,785.27,320.18,771,322.86,757.93Z"/><path class="d" d="M456.88,764.41c-17.85,25.25-43.64,47.66-55,61.57,22.39-16.46,47.2-36.25,73.11-59.57-.55-4.14-10.92-46.74-11.06-50.94C462.88,723.94,463.61,754.9,456.88,764.41Z"/><path class="d" d="M827.59,703.94c-6.47,22.35-8,38-12.71,50.82,0,0,67.64,34.5,123.09,58.61-26.33-18.44-98.91-65.94-108.62-75.55C826.06,734.56,826.88,718.06,827.59,703.94Z"/><path class="d" d="M772.18,1011c-105.89,96-234.36,11.29-251.35-71.32,2.21,16.14,3.51,29.26,3.28,36.8v.12a261.6,261.6,0,0,1-3.28,29.84c-3.83,22.72-10,39.91-18.4,51.08-8.1,10.81-1.56,28.54,2.33,36.92,17.24,4.57,72.42,17.65,138.55,17.65,49.05,0,93.78-7.07,133-21,6.6-7.17,12.59-16.22,12.95-19.76C789.33,1068.11,772.18,1011,772.18,1011Z"/><path class="e" d="M726.58,939a70.92,70.92,0,0,1-11.17-33l-.12-4.56-4.55-.3c-46.69-3.1-130.51,1.07-131.35,1.11l-4,.2-.66,4c-4.71,28.3-15.7,48.74-32.64,60.74A66.3,66.3,0,0,1,510,978.74c-.14,2.24-.41,5.78-.87,10.15a76.26,76.26,0,0,0,38.61-13.48c18.45-13,30.6-34.31,36.16-63.37,16.57-.75,81.21-3.42,122-1.19A81.78,81.78,0,0,0,718,944.07c9.88,15.3,29.46,33,67.61,35.64.17-2.92.4-6.26.68-10C758.85,968,738.79,957.64,726.58,939Z"/><path class="d" d="M940.54,736.45,943.7,727a1.32,1.32,0,0,1,.19.08c-5.66-2.57-62.84-45-100.07-73,1.38-5.72,2.83-11.13,4.35-16.09l-8.54-6.12c-11.44,35.25-19,93.74-22.42,124.13l9.55,4.81c2.39-21.76,7.39-62.29,14.63-96C874,689.27,934.58,734.46,940.54,736.45Z"/><path class="d" d="M455.33,662.92l0,0-.06-.06A329.22,329.22,0,0,0,444,628.62q-3.44,3.76-7.42,8.2c2.66,7.11,5.2,15,7.6,23.35-38.56,41.24-75.64,78.7-130.71,116.72l5.68,8.22c53.87-37.18,90.65-73.71,128.13-113.63,10.82,41.31,18.17,88.62,20.1,101.67q3.78-3.31,7.58-6.74S469,712.26,455.33,662.92Z"/><path class="a" d="M597.06,822.39a5,5,0,0,0,4.86,5.14h.14a5,5,0,0,0,5-4.86q.23-8.11.54-16a42,42,0,0,1-10-1.47Q597.3,813.65,597.06,822.39Z"/><path class="f" d="M613.31,677.81a5,5,0,0,0-5.62,4.29c-.08.59-7.28,55.19-10,123.06a42,42,0,0,0,10,1.47c2.71-67.87,9.92-122.62,10-123.2A5,5,0,0,0,613.31,677.81Z"/><path class="f" d="M675.87,808.8c-4-42.79-15.49-124.14-16-128a5,5,0,0,0-9.9,1.41c.13.94,11.9,83.79,15.93,126.85A35.8,35.8,0,0,0,675.87,808.8Z"/><path class="a" d="M665.86,809.08c.49,5.24.86,9.9,1.09,13.74a5,5,0,0,0,5,4.71h.29a5,5,0,0,0,4.7-5.28c-.22-3.81-.59-8.35-1.06-13.44A35.8,35.8,0,0,1,665.86,809.08Z"/><rect class="g" width="1262.35" height="2194.12"/></svg>