<svg xmlns="http://www.w3.org/2000/svg" width="1262.35" height="2194.12" viewBox="0 0 1262.35 2194.12"><defs><style>.a{fill:#572c11;}.b{fill:#45220d;}.c{fill:#6b3614;}.d{fill:#8c471a;}.e{fill:none;}</style></defs><title>4_men_hair_1</title><path class="a" d="M486.59,344.35l.15,1.28A2,2,0,0,0,486.59,344.35Z"/><path class="b" d="M488.59,388.35c-4.86-13.6-.28-28.15-1.85-42.72a5.58,5.58,0,0,1-2.15,2.72c-17.66,9.25-26.83,25.57-38.81,39.44l20.75-11.38-13.41,55.77,17.64-5.65s9.18,52.23,33.18,98.82l7.76-22.59s24,32.48,40.95,45.18l-4.24-17.35s-10.59-10.88-12-15.12-9.18-29.88-9.18-29.88-32.23-2.35-44.23-44,13.64-52.33,26.35-38.91h0c-2-15.11-3.76-30.22-3.76-45.33C500.59,368.35,490.59,376.35,488.59,388.35Z"/><path class="a" d="M544.59,265.35c-17,1-28,15-41,25,5-14,12-27,23-37-25.85,5.54-55.1,19.61-75.18,38.26-.14.5-.28,1-.41,1.51L474.29,291a738.47,738.47,0,0,0-29.64,97.41l1.13-.62c12-13.87,21.15-30.19,38.81-39.44a5.58,5.58,0,0,0,2.15-2.72l-.15-1.28a2,2,0,0,1,.15,1.28c1.57,14.57-3,29.12,1.85,42.72,2-12,12-20,17-31,0,15.11,1.72,30.22,3.76,45.33l3.77,18.2s-.71-118.59,23.29-134.82c21.48-14.53,60-3.8,65.08-2.29,8.17,1.2,20.79,4.77,33,4.06C605.21,277.6,577,262.86,544.59,265.35Z"/><path class="a" d="M676.59,163.35a54.41,54.41,0,0,1,15.74-7.91L703,130.76l-.22,0C692.41,140.24,681.49,149.46,676.59,163.35Z"/><path class="a" d="M750.37,179.4l18.28-18.28s-.95-.27-2.65-.71a151.41,151.41,0,0,0-33.41,17.94A67.35,67.35,0,0,1,750.37,179.4Z"/><path class="c" d="M810.19,255.93c-2.59-5.58-25.81-58.41-59.9-76.46l.08-.07a67.35,67.35,0,0,0-17.78-1.05A151.41,151.41,0,0,1,766,160.41c-10.6-2.74-50.57-12-74.3-3.53l.63-1.44a54.41,54.41,0,0,0-15.74,7.91c4.9-13.89,15.82-23.11,26.19-32.57-2.87.23-37.35,3.14-57,10.57,0,0-23.29-20.47-36-23.29l-1.41,29.65S572.25,129.63,554.72,130c13.69,8.63,25.56,20.47,34.87,33.35-7.37-7.36-18.13-6.25-27.59-9.16-11.79.52-46.44,2.94-66.49,13.87,18.25-2.59,37-4.58,55.08,2.29A114.84,114.84,0,0,0,518.76,182c-9.72,8.56-50.36,47.28-67.35,109.62,20.08-18.65,49.33-32.72,75.18-38.26-11,10-18,23-23,37,13-10,24-24,41-25,32.38-2.49,60.62,12.25,89.88,22.48h.06a125.81,125.81,0,0,0,17.67-2.43c14.84-13.26,27.23-28.59,45.39-34,25-9,49,6,70,18-1-11-7-21-12-31C774.15,243.55,793.48,246,810.19,255.93Z"/><path class="a" d="M554.72,130c-.47,0-.93,0-1.37.06l12.71,24s-1.49,0-4.06.13c9.46,2.91,20.22,1.8,27.59,9.16C580.28,150.47,568.41,138.63,554.72,130Z"/><path class="a" d="M495.51,168.06c-.49.27-1,.54-1.45.82l26.82,11.3s-.76.61-2.12,1.81a114.84,114.84,0,0,1,31.83-11.64C532.54,163.48,513.76,165.47,495.51,168.06Z"/><path class="a" d="M784.59,336.35c6,13,16,24,21,38-2-16,0-31,0-47,9.12,12.39,19.09,23.93,27.42,36.28l2,1.49s-28.24-86.83-47.3-111.53l22.71,2.82-.22-.48c-16.71-9.93-36-12.38-54.6-17.58,5,10,11,20,12,31-21-12-45-27-70-18-18.16,5.45-30.55,20.78-45.39,34,10.2-2.11,17.59-4.77,17.62-5,0,0,45.53-26.47,65.65-6.35s38.12,99.53,31.76,139.76l7.42-15.88a29.19,29.19,0,0,1,3.35-1.45C783.47,377,786.14,357.29,784.59,336.35Z"/><path class="b" d="M833,363.63c-8.33-12.35-18.3-23.89-27.42-36.28,0,16-2,31,0,47-5-14-15-25-21-38,1.55,20.94-4.59,43.42-10.06,62.89,7.06-6.83,23.7-6.83,25.59,18.82,2,27.7-14.24,63.59-43.89,66.76,0,0-9.05,28.94-11.88,33.18s-8.41,10.71-8.41,10.71l3.76,17.82,34.59-47.29,7.77,18.35s25.41-82.94,27.53-113.3l20.11,11.65s-13.05-59.29-17.29-67.76Z"/><path class="c" d="M633.59,267.35c9.87,30.45,29.9,55.47,52.29,77.31l1.94,1.4s-14-97.22-56.12-86.12c-18.44-14.49-27.51-10.38-31.94-1.88a105.73,105.73,0,0,0,24.83,62.29C624.59,302.35,626.59,284.35,633.59,267.35Z"/><path class="a" d="M685.88,344.66c-22.39-21.84-42.42-46.86-52.29-77.31-7,17-9,35-9,53a105.73,105.73,0,0,1-24.83-62.29c-5.06,9.72-4.06,25.18-4.06,25.18s9.18,51.88,55.77,92.47c0,0-16.94-44.12-16.94-87.89C634.53,286.9,640,311.49,685.88,344.66Z"/><path class="d" d="M524.76,188.29s27.53,23.3,74.12,37.06c0,0-58.23,3.18-98.47-11.64C500.41,213.71,508.88,197.82,524.76,188.29Z"/><path class="d" d="M741.82,186.18s-27.53,23.29-74.12,37.06c0,0,61.42.23,101.65-14.59C769.35,208.65,757.12,191.24,741.82,186.18Z"/><rect class="e" width="1262.35" height="2194.12"/></svg>