<svg xmlns="http://www.w3.org/2000/svg" width="1262.35" height="2194.12" viewBox="0 0 1262.35 2194.12"><defs><style>.a{fill:#5c2239;}.b{fill:#7a2d4c;}.c{fill:#99395f;}.d{fill:none;}</style></defs><title>4_men_hair_7</title><path class="a" d="M480.29,430.76s-2.11-55.05,28.59-27.52c0,0,.1.23.26.65-8-29.39-9.69-60.36-7.34-91.16-8.84,17.88-21.11,36.95-38.21,27.62-4.13-2.06-6.84-6-8.62-11,1.16,31.78,8.29,70.39,24.26,117.28,0,0,1.06,29.64-16.94,41.29,0,0,24.36,15.88,42.36,5.3l-5.3,34.94c16.42-2.45,24.21-8.11,34.94-16.94l-8-26.83S493,486.88,480.29,430.76Z"/><path class="a" d="M585,279c-1-1.58-1.82-3-2.73-4.38-.17,1.22-.34,2.43-.5,3.63C582.78,278.44,583.85,278.67,585,279Z"/><path class="a" d="M544.59,257.35c-28.47,43.53-29.6,94.07-25.1,144,4.74-44.95,19.37-131,62.23-123.1.16-1.2.33-2.41.5-3.63a21.36,21.36,0,0,0-2.63-3.26C571.59,261.35,551.59,245.35,544.59,257.35Z"/><path class="a" d="M712.21,308.5c.29,4.35.74,8.7,1.47,13.05C713.42,317.37,712.94,313,712.21,308.5Z"/><path class="a" d="M831.82,467.82a133.6,133.6,0,0,1-22.23-34.94c-3.81-9,9-57.16,6.75-111.85-5.55,7.28-12.68,12.24-22.75,11.32-10.08-1.51-17.37-7.85-22.63-16.07,3.82,30.46,2.16,84.6,2.16,84.6a10.54,10.54,0,0,1,11.06-4.66c6.53,1.26,12.35,3.49,14.94,16.54,5.65,28.52-12.47,58.59-43.18,72.36,0,0,2.82,13.41,48.35,18.7l-4.23-40.23Z"/><path class="b" d="M681.47,150.18c-100.59-25.42-138.71,33.88-138.71,33.88s-92.48,17-87.79,145.31c1.78,5,4.49,8.92,8.62,11,17.1,9.33,29.37-9.74,38.21-27.62-2.35,30.8-.63,61.77,7.34,91.16,1.41,3.56,8.21,20.85,8.21,23.7,0,.82.43-10,2.14-26.25-4.5-49.92-3.37-100.46,25.1-144,7-12,27,4,35,14a21.36,21.36,0,0,1,2.63,3.26c2.36-16.89,5.8-34.16,20.37-42.26,7-4,17-1,23,3,42.33,28.73,62.94,72.32,77,117.8a98.79,98.79,0,0,1,6.44,13s6.28-18.84,4.68-44.63c-.73-4.35-1.18-8.7-1.47-13.05q-.48-2.89-1.09-5.85s.31.77.87,2.19c-.78-15.83,0-31.66-3.4-47.49,38.77,54.93,46.87,123.55,47.5,190.07a167.5,167.5,0,0,1,2.67,24.64S769.48,433,772.69,409c1.33-31.11,2.09-62.21-1.73-92.67,5.26,8.22,12.55,14.56,22.63,16.07,10.07.92,17.2-4,22.75-11.32C813.56,254,788.08,177.11,681.47,150.18Z"/><path class="a" d="M712,304.84c5.45,13.77,35,89.76,44.1,142.58-.63-66.52-8.73-135.14-47.5-190.07C712,273.18,711.21,289,712,304.84Z"/><path class="a" d="M625.59,235.35c-6-4-16-7-23-3-14.57,8.1-18,25.37-20.37,42.26.91,1.37,1.71,2.8,2.73,4.38l1.23.36s20.11-22.23,44.47-10.59c14.39,6.89,54.41,53.94,71.91,84.39C688.53,307.67,667.92,264.08,625.59,235.35Z"/><path class="a" d="M544.88,190.76S518.06,195,499.7,220.41c21.7-7.83,37.07-8.56,57.89-1.41,0,0-1.42-46.59,43.76-60.71C601.35,158.29,570.29,155.47,544.88,190.76Z"/><path class="c" d="M668.41,216.88c22.12-3.18,45.18-32.47,49.41-46.59,9.89,3.75,28.94,14.83,34.59,23.3C732.49,214.15,696.15,227.5,668.41,216.88Z"/><path class="c" d="M481.35,239.47s14.82,21.18,46.59,23.29c0,0-31.77,14.83-59.29.71C468.65,263.47,474.29,245.82,481.35,239.47Z"/><rect class="d" width="1262.35" height="2194.12"/></svg>