<svg xmlns="http://www.w3.org/2000/svg" width="1262.35" height="2194.12" viewBox="0 0 1262.35 2194.12"><defs><style>.a{fill:#693333;}.b{fill:#ffd670;}.c{fill:#fff;}.d{fill:#472323;}.e{fill:#dea550;}.f{fill:#cfcfcf;}.g{fill:#696969;}.h{fill:#8f8f8f;}.i{fill:#787878;}.j{fill:none;}</style></defs><title>4_men_shirt_5</title><path class="a" d="M432.58,799.57c-18.17-28.69-41.41-54.1-63.69-80.16-1.81,1.79-3.71,3.64-5.67,5.53,21.62,26.32,43.89,51.93,63.62,79.63Z"/><path class="b" d="M363.22,724.94c-4.4,4.24-9.12,8.68-13.89,13.11L413,816.41q7.41-6.27,13.84-11.84C407.11,776.87,384.84,751.26,363.22,724.94Z"/><path class="b" d="M469.7,693.71c-6-21.44-13.1-42.59-20.88-63.45-28.33,25-53.66,58.55-64.88,73a195.77,195.77,0,0,1-15.05,16.17c22.28,26.06,45.52,51.47,63.69,80.16,35.73-31.25,48.09-45.34,49.93-47.5A509.52,509.52,0,0,0,469.7,693.71Z"/><path class="b" d="M814.88,624.53c-36-19.06-39.18-13.77-76.23-14.82a250.48,250.48,0,0,1-36.19-3.63c-15.4,20.06-64.4,49.92-64.4,49.92l-54.49-48.66a78.9,78.9,0,0,1-19.48-.24l-50.27-6.92c-20.13-3-43.43,11-65,30.08,14.75,39.57,27.22,80.17,33.69,121.81.17-.2.25-.31.25-.31,4.24,19.06,36.71,185.83,43.77,232.42,4.14,27.36-21.46,101.71-29,122.81,19.81,5.56,159.4,41.83,284.49-3.1-.64-6-1-9.24-1-9.24-4.24-22.24-15.88-121.77,2.12-218.12C796.3,806,808.88,739.94,808.88,739.94l1.21.85c5-34.21,14.27-68.84,31.68-99.24C831.22,634.25,821.86,628.22,814.88,624.53Z"/><path class="c" d="M872.54,693.6c2.78-7.57,7.24-14.22,12.21-20.57-4.06-3.09-8.15-6.18-12.23-9.23a232.47,232.47,0,0,0-11.53,21A42.32,42.32,0,0,1,872.54,693.6Z"/><path class="b" d="M884.75,673c-5,6.35-9.43,13-12.21,20.57a41.2,41.2,0,0,1,3.05,3.75,41.2,41.2,0,0,0-3.05-3.75,47.76,47.76,0,0,0-1.95,6.75,47.76,47.76,0,0,1,1.95-6.75A42.32,42.32,0,0,0,861,684.78c-1.52,3.15-3,6.34-4.4,9.57,1.4-3.23,2.88-6.42,4.4-9.57a48.59,48.59,0,0,0-5.4-2.43,48.59,48.59,0,0,1,5.4,2.43,232.47,232.47,0,0,1,11.53-21c-10.64-8-21.19-15.63-30.75-22.25a237.24,237.24,0,0,0-21.3,50.81,346.84,346.84,0,0,0-10.38,48.43c26.47,18.53,45.4,28.9,62.64,40.32,4-32.46,15.93-63.93,35.53-90C900.83,685.36,892.86,679.2,884.75,673Z"/><path class="a" d="M908.26,691.16c-19.6,26-31.54,57.49-35.53,90,2.36,1.56,4.68,3.15,7,4.78,3.79-32.34,15.26-63.95,35-89.68Z"/><path class="b" d="M928.3,706.94c-4.13-3.28-8.71-6.89-13.59-10.73-19.73,25.73-31.2,57.34-35,89.68,4.65,3.27,9.24,6.71,13.87,10.52C895.24,776.92,907.2,737.23,928.3,706.94Z"/><path class="d" d="M433.09,800.37c-1-1.63-2.08-3.26-3.14-4.87-1.74,2.17-3.44,4.27-5.08,6.3.81,1.11,1.6,2.24,2.39,3.37Q430.18,802.79,433.09,800.37Z"/><path class="e" d="M427.26,805.17c-.79-1.13-1.58-2.26-2.39-3.37-4.6,5.68-8.69,10.7-11.87,14.61C417.76,812.78,422.53,809,427.26,805.17Z"/><path class="e" d="M469.73,694.12c2,28.81-6,58.53-6,58.53C453.37,766.26,440.75,782.1,430,795.5c1.06,1.61,2.11,3.24,3.14,4.87,18.34-15.34,35.85-32,49.67-48.61C474.22,707.17,470.11,698.44,469.73,694.12Z"/><path class="e" d="M469.73,694.12l0-.41Z"/><path class="d" d="M873.29,776.92c-.34,2.36-.65,4.72-.91,7.1q3.57,2.22,7.07,4.32c.16-1.56.35-3.11.55-4.66C877.86,781.55,875.61,779.28,873.29,776.92Z"/><path class="e" d="M880,783.68c-.2,1.55-.39,3.1-.55,4.66,4.93,3,9.7,5.7,14.14,8.07C890.49,793.9,885.65,789.31,880,783.68Z"/><path class="e" d="M831.47,733.59c-3.29-3.26-9.88-25.18-11-41.23-6.88,20.76-7.82,29.23-11.36,47.71,6.47,5.44,36.13,27,63.27,43.95.26-2.38.57-4.74.91-7.1C857.58,760.93,838.69,740.73,831.47,733.59Z"/><path class="f" d="M539.73,978c.23,1.45.45,2.83.64,4.1,2.1,13.83-1.33,36.59-10.47,69.59-4.65,16.79-9.91,33.09-14.14,45.53a573.46,573.46,0,0,0,127.52,14.88c45.08,0,86.54-6,123.43-17.78-2.85-16.52-6.88-51.65-7.35-95C643.28,1112.08,560.41,1032.18,539.73,978Z"/><path class="a" d="M638.06,656l-6.59-3,1,60.06a59,59,0,0,0,14.61.29l-.89-61.06Z"/><circle class="c" cx="639.47" cy="663.71" r="5.29"/><circle class="c" cx="639.47" cy="697.59" r="5.29"/><circle class="c" cx="639.47" cy="737.12" r="5.29"/><circle class="c" cx="640.88" cy="803.47" r="5.29"/><circle class="c" cx="642.29" cy="873.35" r="5.29"/><circle class="c" cx="643.7" cy="937.59" r="5.29"/><circle class="c" cx="643.7" cy="1003.94" r="5.29"/><circle class="c" cx="641.59" cy="1078.06" r="5.29"/><path class="g" d="M715.75,608c-4.85-.57-9.29-1.24-13.29-1.95-.41.53-.85,1.07-1.3,1.62l-53.1,116a8.78,8.78,0,0,1-16.15-.44L587.7,611l-4.13-3.68a79.18,79.18,0,0,1-10.56.46c16.24,49.56,36,98.26,57,146.09a8.78,8.78,0,0,0,16,.13C668.49,705.11,691.5,656.29,715.75,608Z"/><path class="g" d="M524.32,601.62,482.77,751.77c-1.55,8.34,1.06,23.26,7.79,38.65Q508.82,696,535.15,603.11Z"/><path class="g" d="M800.29,785.19c2-2.52,7.64-19.1,5.77-28.66-11.74-50.92-18.28-91.43-18.56-144a63.36,63.36,0,0,0-10.6-2.16A419.13,419.13,0,0,0,800.29,785.19Z"/><path class="g" d="M502.67,1092.21c-2.08,6.12-3.87,11.21-5.15,14.78,19.81,5.56,159.4,41.83,284.49-3.1-.64-6-1-9.24-1-9.24-.49-2.55-1.07-6.12-1.69-10.57C684.64,1124.78,541.51,1100.07,502.67,1092.21Z"/><path class="h" d="M783.12,876.53c6.29-33.72,12.46-66.4,17.17-91.34A419.13,419.13,0,0,1,776.9,610.35c-9.84-1.14-19.89-.12-38.25-.64-8.38-.24-16-.86-22.9-1.68-22.81,45.39-44.52,91.28-65.73,137.28a13.08,13.08,0,0,1-23.88-.25c-19.56-45-37.89-90.75-53.13-137.26a76.2,76.2,0,0,1-8.92-.7l-28.94-4Q508.63,696,490.56,790.42c11.28,57.28,30.7,159,36,193.76,3.44,22.73-13.65,77.91-23.86,108,38.84,7.86,182,32.57,276.64-8.13C774.48,1049.64,767.18,961.85,783.12,876.53Z"/><path class="i" d="M764,1077.17a775.7,775.7,0,0,1-4.65-77.89c-116.08,112.8-199,32.9-219.63-21.3.23,1.45.45,2.83.64,4.1,2.1,13.83-1.33,36.59-10.47,69.59-3,10.74-6.2,21.28-9.24,30.74C553.37,1090.8,676.17,1111.24,764,1077.17Z"/><path class="a" d="M601.23,602.29,638.06,656l-24.71-6.41-50.12,12.7s5.34-52.13,6.36-57.17c2.67-13.28,31.06-26.83,31.06-26.83Z"/><path class="a" d="M638.06,656,678,599.47l-1.35-24.71s23.59,14.59,27.82,25.18l7,59.53-47.3-10.59Z"/><rect class="j" width="1262.35" height="2194.12"/></svg>