<svg xmlns="http://www.w3.org/2000/svg" width="1262.35" height="2194.12" viewBox="0 0 1262.35 2194.12"><defs><style>.a{fill:#a12800;}.b{fill:#781e00;}.c{fill:none;}</style></defs><title>4_men_hair_6</title><path class="a" d="M519.47,275.12S584.06,299.47,639.12,291l-32.83,29.65s59.3,1.06,86.83-30.71l-10.59,25.41s40.23-1.06,55.06-31.76c0,0,13.76,54,14.82,68.82,0,0,18-25.41,14.82-39.17,0,0,12.71,64.58,8.47,84.7,0,0,9.53-10.59,21.18,4.24,0,0,49.77-163.06-22.23-170.47,0,0,3.17-45.53-23.3-76.24,0,0-2.12,24.35-8.47,33.88,0,0-28.59-99.53-185.29-38.11l18,16.94s-52.94,0-86.83,16.94l12.71,28.59S477.29,231,461.41,254.29l22.77,15.53s-27.89,16.47-31.06,24.94l16.94,8a636.31,636.31,0,0,0,16.12,96.95s8.82-12.71,21.64.35C507.82,400.06,501.47,333.35,519.47,275.12Z"/><path class="b" d="M511.7,481.59s14.83,22.59,22.59,29.65l-7.59-25.59S517.82,484.88,511.7,481.59Z"/><path class="b" d="M755.94,485.12l-7.76,26.82s21.17-24.7,23.29-31.06Z"/><path class="b" d="M521.59,249.35c20-5,42-6,62-12-33.76-12.77-67.51-27.21-94.43-52.43l-.4.2,12.71,28.59-.12.07c6.22,6,4.8,13.78,11.06,20-22.09,4.74-31,9.5-50.62,20.69l22.39,15.31-.46.27c6.22,1.08,12.37,2.49,18.87,4.26a379.09,379.09,0,0,0-48.73,18.95,8.73,8.73,0,0,0-.74,1.46l16.94,8a636.31,636.31,0,0,0,16.12,96.95s10.11-11.18,22.94,1.88c0,0-7.65-68.24,10.35-126.47,0,0,64.59,24.35,119.65,15.88l-32.83,29.65s.68,0,1.92,0c29.26-12.21,54.78-34.19,75.26-58.5C630.12,272,573.85,263,521.59,249.35Z"/><path class="b" d="M715.59,258.35c-7.08,13.36-16.62,24.87-26.69,36q2.21-2.08,4.22-4.39l-10.59,25.41s.55,0,1.54-.09A82.28,82.28,0,0,0,715.59,258.35Z"/><path class="b" d="M557.66,151.3l17.93,16.88s-1.49,0-4.13.08c12.8,2.63,25.92,3,38.13,7.09C596.26,161.13,576.61,156.39,557.66,151.3Z"/><path class="b" d="M804.1,251.35c.31,15.69-3.64,31.83-9.51,47-15.36-21.47-25-28-39-40,11.08,28.62,8.51,61.5-3.75,89.2.28,1.89.48,3.53.57,4.86,0,0,18-25.41,14.82-39.17,0,0,10.94,66.7,6.71,86.82,0,0,11.29-12.71,22.94,2.12C796.88,402.18,829.17,296.38,804.1,251.35Z"/><rect class="c" width="1262.35" height="2194.12"/></svg>