<svg xmlns="http://www.w3.org/2000/svg" width="1262.35" height="2194.12" viewBox="0 0 1262.35 2194.12"><defs><style>.a{fill:#781e00;}.b{fill:#a12800;}.c{fill:#c74218;}.d{fill:none;}</style></defs><title>4_men_hair_3</title><path class="a" d="M698.23,253.83c-34.1-30.82-64.76,25.52-64.76,25.52s36.12-23.64,75.7-12.28A68.36,68.36,0,0,0,698.23,253.83Z"/><path class="a" d="M563.1,274.32c17-6.81,43.62-11.9,70.37,5C618.34,242.29,588.89,235.24,563.1,274.32Z"/><path class="a" d="M513.59,293.35c-19,32-35,65-51,98-5-21.94-9.9-44.39-12.37-67-14.8,135.29,53.66,194.14,53.66,194.14s-5.77-17.6-5.18-33.14c0,0,12.21,28.86,51.15,45.52,0,0-12.69-11.2-14.85-17.54s-7.82-28.53-7.82-28.53-23.59,3.12-40.89-33.23c-11.61-24.4-6-45.11-2.11-49.77,9.88-12,15.52-6.35,23.29-1.41a137.09,137.09,0,0,0,4,28.88C503.94,384.23,507.84,338.34,513.59,293.35Z"/><path class="b" d="M770.59,289.35c14,31,27,62,35,95a253.39,253.39,0,0,0,15.6-58.06C810.65,158.65,695.28,136.67,655.91,159.54c0,0,17.51-19.89,30.18-24.22,0,0-25.43-3.34-46.51,10.92,0,0-25.58-23.11-46.73-20.13,0,0,14.24,16.84,18.56,28.81s-112.47-47.45-152,117.56a416.1,416.1,0,0,0-9.14,51.89c2.47,22.59,7.41,45,12.37,67,16-33,32-66,51-98-5.75,45-9.65,90.88-2.08,135.94,4.2,17.27,12.76,38.92,30.24,55.07,0,0-28.16-88.74,4-174.74,5.41-14.44,11.26-26.14,17.3-35.3,25.79-39.08,55.24-32,70.37,5,0,0,30.66-56.34,64.76-25.52a68.36,68.36,0,0,1,10.94,13.24c29,44.05,50.49,149.63,35.87,215.14,0,0,24.84-39.43,29.75-82.22C778.17,361.47,780.69,327.94,770.59,289.35Z"/><path class="a" d="M805.59,384.35c-8-33-21-64-35-95,10.1,38.59,4.06,113.37,4.2,110.64,0,0,10.35-11.15,21,1.48s4.59,70.94-39.88,83.65l-12,36.62s34.42-23.54,44.13-47.6l10.78,27.45s29-87.66,22.37-175.3A253.39,253.39,0,0,1,805.59,384.35Z"/><path class="c" d="M665.23,224.65s53.65-4.94,72-48c0,0,28.59,17.29,36,33.17C773.23,209.82,734.06,233.82,665.23,224.65Z"/><path class="c" d="M603.7,228.88s-60.7-8.7-79.05-51.76c0,0-25.65,20.7-33.06,36.59C491.59,213.71,534.88,238.06,603.7,228.88Z"/><rect class="d" width="1262.35" height="2194.12"/></svg>