<svg xmlns="http://www.w3.org/2000/svg" width="1262.35" height="2194.12" viewBox="0 0 1262.35 2194.12"><defs><style>.a{fill:#454545;}.b{fill:#333;}.c{fill:none;}</style></defs><title>4_men_hair_8</title><path class="a" d="M737.59,147l-40.24,23.29-20.12-42.35-43.41,30.35L605.23,129l-20.82,37.76S559.7,153.35,547,147c0,0-7.77,8.47-12.71,38.12l-24.35-13.77s-.56,1.4-1.41,3.84c5.21,5.89,10.86,11.56,18.06,15.16,5,3,7,9,11,12,4-14,10-28,12-43,9.67,9.68,23.9,16.76,36.92,24.38,6.12-12,14.24-22.59,20.13-34.7,9.62,8.62,19.64,16.89,29.32,25.94,11.17-10.49,23.69-19.64,35-30,5.67,14.49,14.07,27.65,22,41.42,15.75-8.49,31.85-16.63,45.7-27,3.32,11.63,9.39,21.88,14.22,33C750.76,180.8,745.58,156.06,737.59,147Z"/><path class="b" d="M779.23,179.47,755,197.68l-1.14.85s-.34-2.38-1-6.14c-4.83-11.16-10.9-21.41-14.22-33-13.85,10.39-30,18.53-45.7,27-7.89-13.77-16.29-26.93-22-41.42-11.28,10.38-23.8,19.53-35,30-9.68-9.05-19.7-17.32-29.32-25.94-5.89,12.11-14,22.74-20.13,34.7-13-7.62-27.25-14.7-36.92-24.38-2,15-8,29-12,43-4-3-6-9-11-12-7.2-3.6-12.85-9.27-18.06-15.16a162.56,162.56,0,0,0-7.41,30.4l-21.89-19.77s-.35,1.28-.93,3.69c3,25.21,14.26,49.39,28.29,70.84-3-14,1-29-1-43,11,15,28,21,41,34,0-13,3-26,3-39,21,12,45,19,60,39a200.24,200.24,0,0,0-4-24c12.21,7,19.85,17.76,27.58,28.37,9.19-16.42,18.88-32.4,34.42-43.37,6,11,7,24,10,36,11-22,31-38,45-58,7.79,16.57,6.09,35,10.63,52.64,3.3-2,6.14-5.41,8.37-7.64,15.33-16.06,29.6-33.74,38.52-54.17C779.81,180.61,779.53,180,779.23,179.47Z"/><path d="M780.11,181.18c-8.92,20.43-23.19,38.11-38.52,54.17-2.23,2.23-5.07,5.69-8.37,7.64-4.54-17.6-2.84-36.07-10.63-52.64-14,20-34,36-45,58-3-12-4-25-10-36-15.54,11-25.23,27-34.42,43.37-7.73-10.61-15.37-21.39-27.58-28.37a200.24,200.24,0,0,1,4,24c-15-20-39-27-60-39,0,13-3,26-3,39-13-13-30-19-41-34,2,14-2,29,1,43-14-21.45-25.32-45.63-28.29-70.84-4.84,20.06-25.86,118.93,3.76,217.25,0,0,5.88-20.7,27.53-4.23,0,0-4.41-94.65,8.29-129.24,0,0,63.06-11.23,115.3,9.24,0,0,117.11-23.29,124.52-11.65,12.48,19.61,16.12,130.47,16.12,130.47s9.88-12.47,21.65-.94C795.47,400.41,821.21,261.21,780.11,181.18Z"/><path d="M503.23,476.65l23.3,8.47s8,28.7,12.47,33.88l11.76,12.94S514.53,509.82,503.23,476.65Z"/><path d="M755.94,485.12s13.65-3.3,20.71-8.24c0,0-25.65,39.3-34.83,46.36,0,0,6.35-9.65,7.06-14.59Z"/><path d="M667.84,270.4c-3.76-6-11.46-8.85-27.12,1.32-35.77-7.79-47.64,60.42-47.64,60.42.56-.32,1.11-.65,1.65-1,38.93-23.28,43.6-40.53,43.6-39.88,0,30.71-14.39,61.67-14.39,61.67C680.41,303.71,672.13,277.22,667.84,270.4Z"/><rect class="c" width="1262.35" height="2194.12"/></svg>