<svg xmlns="http://www.w3.org/2000/svg" width="1262.35" height="2194.12" viewBox="0 0 1262.35 2194.12"><defs><style>.a{fill:#f7941d;}.b{fill:#bd6700;}.c{fill:#ffbe3d;}.d{fill:none;}</style></defs><title>4_men_hair_5</title><path class="a" d="M750.31,440.1l-.2,0Z"/><path class="a" d="M750.11,440.14c-.29.06-.58.11-.88.15C749.23,440.29,749.55,440.25,750.11,440.14Z"/><path class="a" d="M811.43,346.78c1.11,1.28,7.37,7.28,30.39,11,0,0-20.7-11.29-22.12-34.82s-26-116.65-70.43-132.57c.79.29,13.55,4.78,35.08-8.55,0,0-21.35,1.12-34.06-11.59s-82.59-58.23-120.7-12.7c-38.12-45.53-102.3,3.06-115,15.76s-34.06,11.59-34.06,11.59c21.54,13.33,34.3,8.84,35.08,8.55-44.45,15.92-64,108.05-65.43,131.57s-22.12,34.82-22.12,34.82c25.88-4.23,30.59-11.29,30.59-11.29-19.65,38.76,5.76,69.7,10,92.76s-12.71,39.18-12.71,39.18c23.06-2.82,35.88-12.47,35.88-12.47,16,33.88,1.41,63.53,1.41,63.53,30.59-2.83,38.59-24.94,38.59-24.94l-5.64-20.71c-5.65-.47-33.89-8.47-42.36-41.41s4.36-44.47,4.36-44.47c1.91,31.62,36.77,39.82,43.38,41.1-21.55-4.53-33.44-51-8.44-70.75,25.41-20.12,35.1-48.46,35.1-48.46,4.23,27.53-7.57,51.64-7.57,51.64,66.7-24.35,32.78-65.31,45.05-94.24,14.83-34.94,37.06-15.88,37.06-15.88s28.59-19.06,43.42,13.77c12.93,28.64-11.65,70.94,55.05,95.29,0,0-12.7-26.47-8.47-54,0,0,10.59,30.71,36,50.82,25,19.79,13.11,66.22-8.45,70.75,6.62-1.27,41.48-9.48,43.39-41.1,0,0,12.83,11.53,4.36,44.47s-36.71,40.94-42.36,41.41l-5.64,20.71s8,22.12,38.59,24.94c0,0-14.59-29.65,1.41-63.53,0,0,1.88,12.71,24.94,15.53,0,0-6.59-13.18-2.35-36.24S839.82,381.55,811.43,346.78Z"/><path class="a" d="M531.77,441.2c.56.11.88.15.88.15C532.35,441.31,532.06,441.26,531.77,441.2Z"/><path class="a" d="M531.56,441.16l.21,0Z"/><path class="b" d="M775.59,417.35c12-22,5-48-9-68-17-24-38-42-46-69,.77,13.93-1.45,28.46,1.68,42.2.13-1.34.29-2.68.49-4,0,0,10.59,30.71,36,50.82,25,19.79,13.11,66.22-8.45,70.75a71.3,71.3,0,0,0,9.63-2.63A70.9,70.9,0,0,0,775.59,417.35Z"/><path class="b" d="M696.59,329.35c-2-32,14-71-13-95-8-8-20-6-30-3a36,36,0,0,0-21.37,22c-5.74-8.09-13.92-13.69-22.63-13-42,3-25,61-30,93-2.65,16.56-12.32,29.17-24.94,38.7,61.3-24.51,29-64.36,41.05-92.7,12.19-28.72,29.38-21,35.11-17.28a19.09,19.09,0,0,1,2,1.4,31.58,31.58,0,0,1,4-2.14c8.38-3.86,28-9.41,39.43,15.91,12.6,27.91-10.41,68.8,50.17,93.4C710.67,361.68,697.31,348.94,696.59,329.35Z"/><path class="b" d="M547.59,289.35c2,34-30,53-42,82-10,23-7,52,15,66,.73.51,1.48,1,2.24,1.48a70.43,70.43,0,0,0,8.73,2.33c-21.55-4.53-33.44-51-8.44-70.75,21.19-16.78,32.07-40.91,35.1-48.46A46.8,46.8,0,0,0,547.59,289.35Z"/><path class="b" d="M526.79,485.56c-5.64-.47-34.5-8.09-43-41C476,414.13,486.31,402,488,400.28c-1.61-17,1-35,11.64-48.93-19,14-28,36-31,59l-.17-.18c-15.16-24.79-7.13-62.81,4.17-87.82-11.08,12.78-22.88,27.73-39.12,33.74a40.21,40.21,0,0,1-5.41,3.79c9.85-1.61,16.63-3.63,21.25-5.52,7.52-3.06,9.34-5.77,9.34-5.77a65.22,65.22,0,0,0-7.35,28.61c-.53,25.69,14.21,47.08,17.35,64.15,4.23,23.06-12.71,39.18-12.71,39.18,23.06-2.82,35.88-12.47,35.88-12.47,16,33.88,1.41,63.53,1.41,63.53,30.59-2.83,39.56-25,39.56-25Zm-58.37-75.39a68.76,68.76,0,0,1-11.81-17.5A68.76,68.76,0,0,0,468.42,410.17Zm-16.27-29.61c-.09-.36-.2-.71-.29-1.07C452,379.85,452.06,380.2,452.15,380.56Zm4.45,12.09c-.33-.7-.64-1.4-1-2.1C456,391.25,456.27,392,456.6,392.65Zm-1-2.29c-.28-.66-.55-1.31-.81-2C455,389.05,455.29,389.7,455.57,390.36Zm-.95-2.32c-.23-.61-.47-1.22-.69-1.84C454.15,386.82,454.39,387.43,454.62,388Zm-.85-2.29c-.2-.59-.41-1.17-.6-1.76C453.36,384.58,453.57,385.16,453.77,385.75Zm-.85-2.56c-.14-.48-.3-1-.44-1.44C452.62,382.23,452.78,382.71,452.92,383.19Z"/><path class="b" d="M829.86,355.33c-12.6-11.8-21.32-29.18-25.27-45-9,31,5,62,6,93-2-19-14-34-27-47,4.4,15,7.25,29.94,9.92,44.9.08-.74.15-1.49.19-2.25,0,0,11.83,11.53,3.36,44.47s-35.71,40.94-41.36,41.41l-5.64,20.71s8,22.12,38.59,24.94c0,0-14.59-29.65,1.41-63.53,0,0,1.88,12.71,24.94,15.53,0,0-6.59-13.18-2.35-36.24s27.17-64.74-1.22-99.51C812.32,347.8,816.5,351.83,829.86,355.33Z"/><path class="a" d="M498.23,204.4c-7.9,7.27-14.73,17-20.58,27.87a65.18,65.18,0,0,0,6,4.07c4.58-10.05,11.3-19,18.78-27.32C501,207.52,499.59,206,498.23,204.4Z"/><path class="c" d="M574.53,242.29c-22.12-3.17-56.25-16.91-72.06-33.27-7.48,8.34-14.2,17.27-18.78,27.32C506.14,249.75,547.81,250,574.53,242.29Z"/><path class="c" d="M699.47,233.82c22.12-3.18,38.88-16,54.7-32.33,9.89,3.75,20.13,15.93,24.71,26C756.43,240.88,726.19,241.56,699.47,233.82Z"/><rect class="d" width="1262.35" height="2194.12"/></svg>