<svg xmlns="http://www.w3.org/2000/svg" width="1262.35" height="2194.12" viewBox="0 0 1262.35 2194.12"><defs><style>.a{fill:#633603;}.b{fill:#502f0a;}.c{fill:#331d05;}.d{fill:#825410;}.e{fill:#402608;}.f{fill:#2a1702;}.g{fill:#9eab5b;}.h{fill:#6b3d09;}.i{fill:none;}</style></defs><title>4_men_pant_2</title><path class="a" d="M497.52,1107c-1.28,3.6-2,5.66-2,5.66-43.77,115.76-107.29,408-107.29,443.29s-108.36,389.9-123.84,414.38c11.4,1.5,55.41,25.73,78.21,38.63a13.72,13.72,0,0,0,19.55-7c14.3-36.59,54.51-134.87,109.37-230,45.83-79.5,19.76-146.82,29.65-199.06s135.53-334.59,135.53-334.59C645.12,1275,693,1589.82,693,1589.82c-32.47,97.42,21,307.57,19.17,365.65,40.59,14,68.35,20.92,103.52,8.55a15.85,15.85,0,0,0,10.61-15.28c-6.46-303.18-20.26-333.79-21.65-357.5-1.42-24,0-410.83-22.64-487.35C656.92,1148.82,517.33,1112.55,497.52,1107Z"/><path class="b" d="M649.38,1244.62c-.12-1.46-.23-2.91-.33-4.37-4.2-.31-8.35-.9-12.31-1.54.35,1.56.77,3.58,1.25,6A57,57,0,0,0,649.38,1244.62Z"/><path class="c" d="M529.72,1114.57c-16.21-3.26-27.53-6.27-32.2-7.58-1.28,3.6-2,5.66-2,5.66-9.73,25.73-20.43,60.18-31.2,98.59,13.5-5.73,27.8-10.35,40.22-17.54C512.05,1167.1,518.64,1139.51,529.72,1114.57Z"/><path class="c" d="M795.58,1220c-3.13-52.41-7.48-95.48-13.57-116.07-10.37,3.72-20.83,6.88-31.32,9.55q.55,38.3,4.14,76.59C767.11,1201.66,781.09,1211.24,795.58,1220Z"/><path class="d" d="M646.49,1126.06q-10.2.07-20-.25c-.4,37.92-1.09,72.51-1.45,113.52,8-.75,16.23-1.22,23.71-4.18C646.47,1198.6,647.77,1162.55,646.49,1126.06Z"/><path class="e" d="M648.72,1235.22v-.07c-7.48,3-15.66,3.43-23.71,4.18,0,.48,0,1,0,1.43,5.19,2.39,3.15,2.55,9,3.47,1.12-2.52,1.9-4.29,2.31-5.2.77,3.06,1.67,5.68,1.67,5.68.42,2.18.9,4.68,1.41,7.5,11.92-2.87,41.13-13.14,50.54-21C683.92,1232.41,659.55,1235.22,648.72,1235.22Z"/><path class="e" d="M636.65,1238.29c-29.77-12.34-45.89-14.82-81.89-36-2.49-1.46,24.09,27,42,40.15a24.07,24.07,0,0,1,8.85,26.49c-15.76,51.39-34.15,106.92-49.81,157.08C587.41,1349.91,626,1262.31,636.65,1238.29Z"/><path class="e" d="M399.17,1581.11c1,11.52,5.42,22.39,14.42,26.24,10.24,3.42,18.3-12.12,20.44-25.45a4,4,0,0,0-5.14-4.48c-7.46,2.12-16.72,2.71-24.08-.36A4,4,0,0,0,399.17,1581.11Z"/><path class="e" d="M753,1594.82a4.3,4.3,0,0,0-5,5.68c3.59,9.85,9.3,18.46,18.64,22.85,14.66,6.52,20-11.52,22.6-26a4.27,4.27,0,0,0-5.87-4.69C774.26,1596.63,763.11,1597.19,753,1594.82Z"/><path class="d" d="M708.28,1882.74a8.28,8.28,0,0,0-10.23,7.63c-1,19.26,5.35,45.37,8.65,58.42a24.57,24.57,0,0,0,16.15,17.29c34.31,11.27,59.86,12,91,1.56a24.82,24.82,0,0,0,16.39-18.38c3.36-15.67,7.14-37.92,4.49-55.45a12.82,12.82,0,0,0-14.58-10.74C785.05,1888.36,741.71,1890.79,708.28,1882.74Z"/><path class="d" d="M254.66,1946.09a26,26,0,0,0,17.16,27.67c20.55,7.17,56.58,27.16,72.52,36.21a17.33,17.33,0,0,0,21.82-3.93c10.18-12.15,25.7-33.14,33.14-55.79a19.45,19.45,0,0,0-9.71-23.4c-26.83-1-65-23.18-93.13-40.57a18.53,18.53,0,0,0-21.83,8.47C266.75,1908.55,256.75,1928.85,254.66,1946.09Z"/><path class="d" d="M771.59,1405.2c-.35-15.36-.3-27,.56-28.48,2-3.35,30.32-2.56,43.29-2a7.06,7.06,0,0,1,6.74,6.75c.24,4.91.56,12.29.85,20.94C806.3,1407.45,788.73,1406.63,771.59,1405.2Z"/><path class="d" d="M823.33,1412.31c.83,31.7.75,72.78-5,77.3-9.49,7.47-43.33,3.27-43.5-.73-.23-5.42-2.13-44-3-74.47C789.23,1415.54,806.84,1416.68,823.33,1412.31Z"/><path class="f" d="M771.82,1414.41c-.09-3.17-.17-6.26-.23-9.21,17.14,1.43,34.71,2.25,51.44-2.81.11,3.16.21,6.48.3,9.92C806.84,1416.68,789.23,1415.54,771.82,1414.41Z"/><path class="d" d="M457.23,1395.24c3.86-14.87,6.5-26.27,6-27.86-1.21-3.72-29.15-9.51-42-12a7.09,7.09,0,0,0-8.15,5c-1.36,4.73-3.37,11.84-5.64,20.19C422.67,1389.39,440.09,1392.66,457.23,1395.24Z"/><path class="d" d="M404.86,1390.17c-8.09,30.66-17.43,70.67-12.82,76.41,7.6,9.47,41.74,13.21,42.83,9.36,1.47-5.22,12.18-42.35,20-71.79C437.56,1401.21,420,1398.25,404.86,1390.17Z"/><path class="f" d="M454.89,1404.15c.82-3.07,1.6-6.06,2.34-8.91-17.14-2.58-34.56-5.85-49.81-14.66-.82,3.05-1.69,6.27-2.56,9.59C420,1398.25,437.56,1401.21,454.89,1404.15Z"/><path class="g" d="M497.52,1107c-1.28,3.6-2,5.66-2,5.66-2.57,6.79-5.2,14.19-7.89,22.11a395.86,395.86,0,0,0,50.86,13.47c1.77-10.46,3.24-20.82,5.69-31C520.22,1113.1,503.47,1108.66,497.52,1107Z"/><path class="b" d="M544.13,1117.27c-2.45,10.14-3.92,20.5-5.69,31q7.68,1.55,16,3c1.57-10.45,3.56-20.9,5.63-31.35C554.49,1119,549.15,1118.15,544.13,1117.27Z"/><path class="g" d="M612,1125.16c-19-1.09-36.46-3.06-51.85-5.32-2.07,10.45-4.06,20.9-5.63,31.35a543.85,543.85,0,0,0,54.75,6.39C610,1146.8,611.18,1136,612,1125.16Z"/><path d="M612,1125.16c-.77,10.79-2,21.64-2.73,32.42a531,531,0,0,0,54.37.8v-32.71C645.61,1126.39,628.25,1126.1,612,1125.16Z"/><path class="g" d="M663.59,1125.67v32.71a493.22,493.22,0,0,0,56.86-5.36c-1.2-10.88-2.56-21.76-3.37-32.64A449.43,449.43,0,0,1,663.59,1125.67Z"/><path class="b" d="M717.08,1120.38c.81,10.88,2.17,21.76,3.37,32.64q7.6-1.17,15.29-2.62a268,268,0,0,0-4.82-32.52C726.3,1118.79,721.68,1119.64,717.08,1120.38Z"/><path class="g" d="M782,1103.89a355.43,355.43,0,0,1-51.09,14,268,268,0,0,1,4.82,32.52,442.26,442.26,0,0,0,52.6-13.2C786.47,1123.24,784.37,1111.87,782,1103.89Z"/><path class="h" d="M736.53,1919.47c32.82,7.41,68.82,12.71,97.84,6.27.6-4.81,1-9.71,1.21-14.55C817.44,1920.25,743.36,1921,736.53,1919.47Z"/><path class="h" d="M706.38,1947.49c.11.45.22.88.32,1.3a24.57,24.57,0,0,0,16.15,17.29c34.31,11.27,59.86,12,91,1.56a24.78,24.78,0,0,0,15.29-14.71A333.33,333.33,0,0,1,706.38,1947.49Z"/><path class="h" d="M271.82,1973.76c20.55,7.17,56.58,27.16,72.52,36.21a17.33,17.33,0,0,0,21.82-3.93l.81-1c-37.21-18.35-73.9-37.76-112.3-52.7A25.89,25.89,0,0,0,271.82,1973.76Z"/><path class="h" d="M294.59,1930.35a990,990,0,0,0,84.1,59.33,191.79,191.79,0,0,0,10.93-17.55C381.42,1970.06,319.59,1938.35,294.59,1930.35Z"/><rect class="i" width="1262.35" height="2194.12"/></svg>