<svg xmlns="http://www.w3.org/2000/svg" width="1262.35" height="2194.12" viewBox="0 0 1262.35 2194.12"><defs><style>.a{fill:#b27d5f;}.b{fill:#a1694a;}.c{fill:none;}</style></defs><title>4_men_body_3</title><path class="a" d="M601,603.35h0V552.53S603.12,525,635.94,525s39.18,23.29,39.18,23.29l3.17,51.89s23.3,8.47,60.36,9.53,40.23-4.24,76.23,14.82,135.18,99.88,135.18,99.88,5.29-39.59,12.7-70.29,5.65-104.77,3.53-112.18c-1.19-4.18-13.48-13.73-24-21.28a36,36,0,0,1-15-29.8c.14-8.67.4-17.3.91-18.8,1.05-3.18,4.23-12.71,14.82-10.59,0,0-5.3-22.23,16.94-20.12,0,0,5.29-16.94,28.59-4.23,0,0,14.82-10.59,29.65,5.29,0,0,11.64-12.7,25.41,6.35s19.06,37.24,8.47,38.3c0,0,5.29,37.94-24.36,60.18,0,0,1.24,90,6.53,117.52s2,161.06-33.35,165.53c0,0-93.88-35.29-192-90.35,0,0-12.58,66-25.76,136.59-18,96.35-6.36,195.88-2.12,218.12,0,0,24.35,210.7,19.41,433.06,0,0,2.82,39.53,4.24,63.53s19.76,70.58-1.42,278.11c0,0-8.47,69.18,7.06,110.12s57.88,86.12,57.88,86.12,15.53,26.82,38.12,28.23,48,35.3,25.41,46.59-72,11.3-107.29,0-24-49.41-59.29-45.17-56.47-21.18-45.18-79.06-1.41-170.83-4.24-180.71-49.17-148.23-16.7-245.65c0,0-53.88-314.82-62.35-351.53,0,0-125.65,282.36-135.53,334.59s16.18,119.56-29.65,199.06c-69.18,120-125.65,225.88-125.65,225.88s-14.12,36.71-15.53,64.94-25.41,62.12-59.29,56.48-46.59-32.48-60.71-38.12-49.41-35.3-88.94-45.18S67.7,1995,79,1979.47c0,0,25.41-4.23,42.35,9.88,0,0,107.3,4.24,129.88,0,0,0,48-60.7,65-148.23s72-249.88,72-285.18,63.52-327.53,107.29-443.29c0,0,35.91-96.45,31.06-128.47-7.06-46.59-39.53-222.36-43.77-241.42,0,0-97.41,97.42-180.7,138.36-26.88,13.21-193.41-157.41-193.41-157.41s-23.43-15.9-30.59-38.83c-4.34-13.88,1.88-35.76,6.59-47.53,0,0-17.65,22.36-32.48,23.06s25.42-48.94,25.42-48.94,8.11-13.76,19.06-6.35c0,0,3.52-15.53,21.17-6.36,0,0,10.83-12.23,22.83-2.35,0,0,14.11-19.76,30.11,8,0,0,10.59,17.65,12.71,29.65s-24,54.35-24,57.88,16.94,24,52.23,42.35,75.53,21.89,94.59,42.36c0,0,63.3-55,77.65-73.41,19.76-25.42,83.29-110.12,129.88-103.06l50.27,6.92A78.62,78.62,0,0,0,601,603.35Z"/><path class="b" d="M618.59,638.35c35.6,9.11,71.87-3.73,95.22-30.55-22.32-2.83-35.52-7.62-35.52-7.62l-3.17-51.89S668.76,525,635.94,525,601,552.53,601,552.53v50.82a78.62,78.62,0,0,1-34.61,4C578.44,623.34,599.07,633.1,618.59,638.35Z"/><path class="b" d="M948.23,722.93c-3.89-3.15-13.74-11.11-26.6-21.27,12.26,17.76,24.15,35.6,31,56.69A149.5,149.5,0,0,1,948.23,722.93Z"/><path class="b" d="M133,612.88c-6.35,10.24-11.51,31.06-16.59,39.53-7.06,14.12-16.93,10.15-15.18.71,2.83-15.18,9.3-33.18,10.24-36-7.06,10.59-12.71,36.23-24.94,46.12-8.59,4.7-7.75-4.18-8-5.88-1.7,8-2.58,16.37-1.43,23.43a14.48,14.48,0,0,1,2.47-1.44c17-8,29-6.06,40,12.94-.44-3.7,2.14-24.55,18.7-35.29C120.29,659.82,130.64,620.54,133,612.88Z"/><path class="b" d="M321.43,763.32c-8.95,7.95-15.14,13.33-15.14,13.33-.78-.84-1.6-1.64-2.45-2.42,6.22,9.87,12,20.16,12.75,32.12C318.44,792.74,318,777.21,321.43,763.32Z"/><path class="b" d="M636.65,1238.29a425,425,0,0,1-90.43-51.2c-2.32-1.72,32.63,42.23,50.54,55.35a24.07,24.07,0,0,1,8.85,26.49c-15.76,51.39-34.15,106.92-49.81,157.08C587.41,1349.91,626,1262.31,636.65,1238.29Z"/><path class="b" d="M399.17,1581.11c1,11.52,5.42,22.39,14.42,26.24,10.24,3.42,18.3-12.12,20.44-25.45a4,4,0,0,0-5.14-4.48c-7.46,2.12-16.72,2.71-24.08-.36A4,4,0,0,0,399.17,1581.11Z"/><path class="b" d="M753,1594.82a4.3,4.3,0,0,0-5,5.68c3.59,9.85,9.3,18.46,18.64,22.85,14.66,6.52,20-11.52,22.6-26a4.27,4.27,0,0,0-5.87-4.69C774.26,1596.63,763.11,1597.19,753,1594.82Z"/><path class="b" d="M284.59,2047.35c11,3,25,1,31-9,4.86-7.29,1.23-14.21-2.15-21.44C309.44,2030.83,299.94,2041.77,284.59,2047.35Z"/><path class="b" d="M91.59,1994.35c11,0,20,9,30,14-6.77-15.47-29.44-27.2-46.3-18A30.07,30.07,0,0,0,78,2003.91C80.4,1998.74,86.58,1995,91.59,1994.35Z"/><path class="b" d="M851.59,2113.35c12,5,18,17,22,28a9.72,9.72,0,0,1,.09,7.32c3.64.16,7.26.23,10.81.2C877.65,2133.35,868,2118.52,851.59,2113.35Z"/><path class="b" d="M910.59,2100.35c10,11,23,17,27,33a18.67,18.67,0,0,1,.22,2.15c3.42-4.57,3.37-10.46,1.05-16.37C931.93,2110,922.08,2102.91,910.59,2100.35Z"/><path class="b" d="M886.59,2111.35c10.32,9.39,26.81,20.54,25.49,35.1,2.51-.46,4.93-1,7.22-1.57C917,2128.15,902.59,2115.8,886.59,2111.35Z"/><path class="b" d="M745.89,2009.21c-4.07,7.83-5.07,17-4.3,26.14,2,13,16,16,27,16C753,2043.57,747.19,2026.08,745.89,2009.21Z"/><path class="b" d="M155.7,618.82c.06,2.32.24,3.94.24,3.94C155.92,621.38,155.83,620.07,155.7,618.82Z"/><path class="b" d="M152.06,588.53c-9.27.57-11.41,7.88-11.41,7.88s19.53-9.65,8.94,33.77c-.08.31-6.6,18.71-7.77,22.94,4.37-3.57,8.47-12.71,20.12-16.24,0,0-4.6-13.29-6.24-21.41-1.53-8.94,1.58-13.64,7.3-12.82,7.41,1.06,20.47,31.41,20.47,31.41S169.35,587.47,152.06,588.53Z"/><path class="b" d="M410.19,807.8c23.63-16.09,53.75-42.45,72.57-65-.54-4.13-10.21-38.15-10.35-42.35-1.06,8.47,0,35.3-4.82,41.65C450.87,764.07,421.51,793.9,410.19,807.8Z"/><path class="b" d="M824.65,696.88c-9.66,16.41-10.83,30.36-15.54,43.19q6.21,3.48,12.39,6.85c16,8.78,79.85,43.84,111.62,55.14-12.18-9.85-92.66-53.24-103.77-64.24C826.06,734.56,823.94,711,824.65,696.88Z"/><path class="b" d="M1057.42,481.71c-4.66,2.17-9,1.28-11-2.24-15.88-27.53-19.06-27.18-25.06-32.82,2.47,4.59,26.47,31.06,13.06,35.64-3.94,2-14.91-13.42-23.29-23.64-6.66-8.11-11.14-10.92-13.06-13.77,2.46,4.17,10.43,12.61,15.88,22.59,4.71,8.62,7.48,19.14,3.88,20.12-4,2.26-13.4-10.79-23.29-21.18-7.62-8-17.23-14.08-25.06-19.76,1.07,1.77,13.12,10.41,21.53,21.17,7.13,9.12,13.64,21.88,7.76,24.71-4.09,2-19.45-7.86-20.66-8.37a1.63,1.63,0,0,1-1-1.8,21.79,21.79,0,0,0,4-14.52c-1.24-16.7-38.17-6.37-38.17-6.37s19.61-2.17,27.53,2.47c16.23,9.53-21.18,19.77-21.18,19.77l27.28,9.83c12.22,4.41,28.49,16.28,26.84,37.93,0,.56,21.65-44.65,48.93-36.43a51.18,51.18,0,0,0-.34-8C1055.09,486.76,1056.81,484.8,1057.42,481.71Z"/><rect class="c" width="1262.35" height="2194.12"/></svg>