<svg xmlns="http://www.w3.org/2000/svg" width="1262.35" height="2194.12" viewBox="0 0 1262.35 2194.12"><defs><style>.a{fill:none;}.b{fill:#295980;}.c{fill:#ffe863;}.d{fill:#cfaa44;}.e{fill:#144063;}.f{fill:#4892c9;}.g{fill:#88c4f2;}.h{fill:#408bc7;}.i{fill:#fff;}</style></defs><title>4_men_shirt_8</title><path class="a" d="M390.1,695.29l.13-.16Z"/><polygon class="a" points="448.82 630.26 448.82 630.26 448.82 630.26 448.82 630.26"/><path class="a" d="M400,682.73l0-.05Z"/><path class="a" d="M398.25,685h0Z"/><path class="a" d="M388.64,697.17l.24-.3Z"/><path class="a" d="M383.94,703.24l1-1.35Z"/><path class="a" d="M385.54,701.17l.57-.73Z"/><path class="a" d="M385,701.89l.56-.72Z"/><path class="a" d="M386.11,700.44l2.53-3.27Z"/><path class="a" d="M388.88,696.87l1.22-1.58Z"/><path class="a" d="M390.23,695.13c2.39-3.07,5.08-6.49,8-10.17C395.31,688.64,392.62,692.06,390.23,695.13Z"/><path class="a" d="M448.82,630.26c-18.58,16.41-35.87,36.48-48.74,52.42C413,666.74,430.24,646.67,448.82,630.26Z"/><path class="a" d="M398.26,685l1.78-2.22Z"/><path class="b" d="M181.38,715.09A135.42,135.42,0,0,1,168.57,704c-9.8,15.84-17.5,28.65-42.74,37,3.65,3.63,7.79,7.72,12.32,12.17q4,3.89,8.29,8.1c4.42-1.32,8.66-2.74,12.15-4.92,14-8.55,24-20.84,33-33.9Q186,718.69,181.38,715.09Z"/><path class="c" d="M469.7,693.71c-6-21.44-13.1-42.59-20.88-63.45h0c-24.49,21.62-45,47.45-64.88,73-14.35,18.44-77.65,73.41-77.65,73.41-19.06-20.47-59.29-24-94.59-42.36a213.65,213.65,0,0,1-20.08-11.84c-9,13.06-19,25.35-33,33.9-3.49,2.18-7.73,3.6-12.15,4.92,50.8,49.42,136.94,129,155.62,119.85,44.3-21.78,95.79-56.55,131.29-87.12,26.37-22.7,42.48-44.41,47.88-49.72C478.27,727.25,474.34,710.39,469.7,693.71Z"/><path class="c" d="M1028.84,591.65c-20.61,3.85-42.61,2.55-60.72-5.32-.12,24-1.49,51.78-5.36,67.79-7.41,30.7-12.7,70.29-12.7,70.29s-64.44-52.51-108.29-82.86h0a237.24,237.24,0,0,0-21.3,50.81,346,346,0,0,0-10.36,48.27c37.1,20.76,71.54,41.69,102.47,55.94,50.5,23.26,88.3,33.72,88.3,33.72,35.3-4.47,38.65-138,33.35-165.53C1031.45,650.28,1029.79,618.51,1028.84,591.65Z"/><path class="b" d="M1028.44,579.31c-.21-7-.37-13.29-.48-18.42-14.11,3-43.11,6.94-60.42-5.57.25,5,.43,11,.52,17.61.06,4.25.09,8.75.06,13.4,18.11,7.87,40.11,9.17,60.72,5.32C1028.69,587.39,1028.55,583.24,1028.44,579.31Z"/><path class="d" d="M948.23,722.93c-3.89-3.15-13.74-11.11-26.6-21.27,12.26,17.76,24.15,35.6,31,56.69A149.5,149.5,0,0,1,948.23,722.93Z"/><path class="d" d="M321.43,763.32c-8.95,7.95-15.14,13.33-15.14,13.33-.78-.84-1.6-1.64-2.45-2.42,6.22,9.87,12,20.16,12.75,32.12C318.44,792.74,318,777.21,321.43,763.32Z"/><path class="d" d="M408.65,813.35c30.35-19.76,58.58-50.82,74.11-70.59-.54-4.13-10.21-38.15-10.35-42.35-1.06,8.47-.8,34.76-4.82,41.65C450.29,771.71,424.17,797.12,408.65,813.35Z"/><path class="d" d="M820.47,692.36c-4.53,10.88-10.88,36.29-11.36,47.71q6.21,3.48,12.39,6.85c16,8.78,80.56,48.08,112.32,59.37-12.18-9.85-93.36-57.47-104.47-68.47C826.06,734.56,819.77,706.48,820.47,692.36Z"/><path class="c" d="M814.88,624.53c-36-19.06-39.18-13.77-76.23-14.82a250.48,250.48,0,0,1-36.19-3.63c-15.4,20.06-64.4,49.92-64.4,49.92l-54.49-48.66a78.9,78.9,0,0,1-19.48-.24l-50.27-6.92c-20.13-3-43.43,11-65,30.08,14.75,39.57,27.22,80.17,33.69,121.81.17-.2.25-.31.25-.31,4.24,19.06,36.71,185.83,43.77,232.42,4.14,27.36-21.46,101.71-29,122.81,19.81,5.56,159.4,41.83,284.49-3.1-.64-6-1-9.24-1-9.24-4.24-22.24-15.88-121.77,2.12-218.12C796.3,806,808.88,739.94,808.88,739.94l1.21.85c5-34.21,14.27-68.84,31.68-99.24C831.22,634.25,821.86,628.22,814.88,624.53Z"/><path class="d" d="M539.73,978c.23,1.45.45,2.83.64,4.1,2.1,13.83-1.33,36.59-10.47,69.59-4.65,16.79-9.91,33.09-14.14,45.53a573.46,573.46,0,0,0,127.52,14.88c45.08,0,86.54-6,123.43-17.78-2.85-16.52-6.88-51.65-7.35-95C643.28,1112.08,560.41,1032.18,539.73,978Z"/><path class="b" d="M563.23,595.94c-56.47-15.53-94.64,17.18-94.64,17.18l9.63,94.23c40.37,0,81.11.22,121.42,4C576.88,682.16,563.23,595.94,563.23,595.94Z"/><path class="e" d="M599.64,711.36c-40.31-3.79-81-4-121.42-4l1.13,11c44.07,0,88.57-.2,132.06,6l-.18-3.9C607.15,719.24,603.28,716,599.64,711.36Z"/><path class="b" d="M479.35,718.35l3.41,33.41-9.37,260.52c0,.24,0,.47,0,.7,49.43,8.93,101.44,14.3,151.17,4.59,0-.35,0-.7,0-1.05L611.41,724.31C567.92,718.15,523.42,718.31,479.35,718.35Z"/><path class="e" d="M473.4,1013a15.83,15.83,0,0,0,13.9,15.57c43.13,5.29,94.61,5.61,120.84,5.35a16.61,16.61,0,0,0,16.43-16.33C574.84,1027.28,522.83,1021.91,473.4,1013Z"/><path class="f" d="M600.46,700.44c-25.34-54.11-23.11-110.15-23.11-110.15a32.31,32.31,0,0,0-25.67-4.6c-10.46,30.07-20.07,60.21-28.15,91.1C548.16,688.38,574.32,694.2,600.46,700.44Z"/><path class="b" d="M697.59,706.35c37.33-4.06,75.33-4.82,111.85,2,2.27-24.89,5.23-57.36,7.8-85.58,0,0-42.18-32.7-98.65-17.17-.05.1-16.17,72.14-38.72,101.12A101.32,101.32,0,0,0,697.59,706.35Z"/><path class="e" d="M697.59,706.35a101.32,101.32,0,0,1-17.72.36,39.34,39.34,0,0,1-9.33,9c46.11-2.18,92.59-4.07,138,2.88.3-3.25.61-6.69.94-10.28C772.92,701.53,734.92,702.29,697.59,706.35Z"/><path class="b" d="M812,1014.21a16,16,0,0,0,.44-4.28l-6.37-264.52c.43-4.69,1.3-14.3,2.44-26.79-45.37-7-91.85-5.06-138-2.88a18.77,18.77,0,0,1-4.95,2.32c-.42,12.19-9.49,273.63-10.3,297C707.53,1020.28,759.76,1019,812,1014.21Z"/><path class="e" d="M655.29,1015c0,.49,0,.88,0,1.16a16.62,16.62,0,0,0,16.44,17.38c26.23.26,83.7-2.06,126.84-7.36a15.81,15.81,0,0,0,13.46-12C759.76,1019,707.53,1020.28,655.29,1015Z"/><path class="f" d="M734.26,596.59a32.5,32.5,0,0,0-29.79,3.35s-1.9,51.36-32.1,106.48c28.92-10.55,59.11-17.35,88-28.9C748.49,651.54,742.05,623.78,734.26,596.59Z"/><path class="g" d="M523.53,676.79c8.08-30.89,17.69-61,28.15-91.1a41.29,41.29,0,0,0-15.27,7.43l-23.49,77.51a16.79,16.79,0,0,0,10.8,20.81l87.51,29a194.78,194.78,0,0,1-10.77-20C574.32,694.2,548.16,688.38,523.53,676.79Z"/><path class="g" d="M745.41,602.76a43.69,43.69,0,0,0-11.15-6.17c7.79,27.19,14.23,54.95,26.06,80.93-28.84,11.55-59,18.35-88,28.9q-3.18,5.79-6.78,11.64L758.45,691a16.8,16.8,0,0,0,11.08-21.86Z"/><path class="h" d="M646.18,652.29,638.06,656l-6.59-3,5.18,312.82-5.34,160.12q8.91.21,18.13.1l1.32-160.22Z"/><path class="i" d="M601.23,602.29,638.06,656l-24.71-6.41-50.12,12.7s5.34-52.13,6.36-57.17c2.67-13.28,31.06-26.83,31.06-26.83Z"/><path class="i" d="M638.06,656,678,599.47l-1.35-24.71s23.59,14.59,27.82,25.18l7,59.53-47.3-10.59Z"/><circle class="i" cx="639.12" cy="677.47" r="5.29"/><circle class="i" cx="639.47" cy="737.12" r="5.29"/><circle class="i" cx="640.88" cy="803.47" r="5.29"/><circle class="i" cx="642.29" cy="873.35" r="5.29"/><circle class="i" cx="643.7" cy="937.59" r="5.29"/><circle class="i" cx="643.7" cy="1003.94" r="5.29"/><circle class="i" cx="641.59" cy="1078.06" r="5.29"/><rect class="a" width="1262.35" height="2194.12"/></svg>