<svg xmlns="http://www.w3.org/2000/svg" width="1262.35" height="2194.12" viewBox="0 0 1262.35 2194.12"><defs><style>.a{fill:#275982;}.b{fill:#0f454e;}.c{fill:#143a59;}.d{fill:#1a4b73;}.e{fill:#b06abd;}.f{fill:#7785a3;}.g{fill:none;}</style></defs><title>4_men_pant_3</title><path class="a" d="M497.52,1107c-1.28,3.6-2,5.66-2,5.66-43.77,115.76-107.29,408-107.29,443.29s-108.36,389.9-123.84,414.38c11.4,1.5,55.41,25.73,78.21,38.63a13.72,13.72,0,0,0,19.55-7c14.3-36.59,54.51-134.87,109.37-230,45.83-79.5,19.76-146.82,29.65-199.06s135.53-334.59,135.53-334.59C645.12,1275,693,1589.82,693,1589.82c-32.47,97.42,31.62,324.51,29.76,382.59,40.59,14,56.76,11,91.93-1.39,1.87-.65,2.85-37,1.85-79.09-2.47-103.55,6.75-247.75-10.89-300.69-3.32-10-.74-89.37-2-182.11-1.69-119.91-8.84-262.09-21.6-305.24C656.92,1148.82,517.33,1112.55,497.52,1107Z"/><path class="b" d="M649.38,1244.62c-.12-1.46-.23-2.91-.33-4.37-4.2-.31-8.35-.9-12.31-1.54.35,1.56.77,3.58,1.25,6A57,57,0,0,0,649.38,1244.62Z"/><path class="c" d="M529.72,1114.57c-16.21-3.26-27.53-6.27-32.2-7.58-1.28,3.6-2,5.66-2,5.66-9.73,25.73-20.43,60.18-31.2,98.59,13.5-5.73,27.8-10.35,40.22-17.54C512.05,1167.1,518.64,1139.51,529.72,1114.57Z"/><path class="c" d="M795.58,1220c-3.13-52.41-7.48-95.48-13.57-116.07-10.37,3.72-20.83,6.88-31.32,9.55q.55,38.3,4.14,76.59C767.11,1201.66,781.09,1211.24,795.58,1220Z"/><path class="d" d="M648.72,1235.22c-2.26-36.57-1-72.64-2.23-109.16q-10.2.07-20-.25c-.4,38.37-1.11,73.31-1.46,115,5.19,2.39,3.15,2.55,9,3.47,1.12-2.52,1.9-4.29,2.31-5.2.77,3.06,1.67,5.68,1.67,5.68.42,2.18.9,4.68,1.41,7.5,11.92-2.87,41.13-13.14,50.54-21C683.92,1232.41,659.55,1235.22,648.72,1235.22Z"/><path class="d" d="M636.65,1238.29c-29.77-12.34-45.89-14.82-81.89-36-2.49-1.46,24.09,27,42,40.15a24.07,24.07,0,0,1,8.85,26.49c-15.76,51.39-34.15,106.92-49.81,157.08C587.41,1349.91,626,1262.31,636.65,1238.29Z"/><path class="d" d="M399.17,1581.11c1,11.52,5.42,22.39,14.42,26.24,10.24,3.42,18.3-12.12,20.44-25.45a4,4,0,0,0-5.14-4.48c-7.46,2.12-16.72,2.71-24.08-.36A4,4,0,0,0,399.17,1581.11Z"/><path class="d" d="M753,1594.82a4.3,4.3,0,0,0-5,5.68c3.59,9.85,9.3,18.46,18.64,22.85,14.66,6.52,20-11.52,22.6-26a4.27,4.27,0,0,0-5.87-4.69C774.26,1596.63,763.11,1597.19,753,1594.82Z"/><path class="e" d="M497.52,1107c-1.28,3.6-2,5.66-2,5.66-2.57,6.79-5.2,14.19-7.89,22.11a395.86,395.86,0,0,0,50.86,13.47c1.77-10.46,3.24-20.82,5.69-31C520.22,1113.1,503.47,1108.66,497.52,1107Z"/><path class="a" d="M544.13,1117.27c-2.45,10.14-3.92,20.5-5.69,31q7.68,1.55,16,3c1.57-10.45,3.56-20.9,5.63-31.35C554.49,1119,549.15,1118.15,544.13,1117.27Z"/><path class="e" d="M612,1125.16c-19-1.09-36.46-3.06-51.85-5.32-2.07,10.45-4.06,20.9-5.63,31.35a543.85,543.85,0,0,0,54.75,6.39C610,1146.8,611.18,1136,612,1125.16Z"/><path class="c" d="M612,1125.16c-.77,10.79-2,21.64-2.73,32.42a531,531,0,0,0,54.37.8v-32.71C645.61,1126.39,628.25,1126.1,612,1125.16Z"/><path class="e" d="M663.59,1125.67v32.71a493.22,493.22,0,0,0,56.86-5.36c-1.2-10.88-2.56-21.76-3.37-32.64A449.43,449.43,0,0,1,663.59,1125.67Z"/><path class="a" d="M717.08,1120.38c.81,10.88,2.17,21.76,3.37,32.64q7.6-1.17,15.29-2.62a268,268,0,0,0-4.82-32.52C726.3,1118.79,721.68,1119.64,717.08,1120.38Z"/><path class="e" d="M782,1103.89a355.43,355.43,0,0,1-51.09,14,268,268,0,0,1,4.82,32.52,442.26,442.26,0,0,0,52.6-13.2C786.47,1123.24,784.37,1111.87,782,1103.89Z"/><path class="f" d="M693.12,1321.59s56.47,7.06,98.82-9.88C791.94,1311.71,756.65,1352.65,693.12,1321.59Z"/><path class="f" d="M705.82,1382.61s48.08,6,84.14-8.41C790,1374.2,759.91,1409.05,705.82,1382.61Z"/><path class="f" d="M717.12,1449.56s38.32,4.79,67.06-6.7C784.18,1442.86,760.23,1470.64,717.12,1449.56Z"/><path class="f" d="M548.59,1329s-56.81-3.47-95.31-27.93C453.28,1301,480.42,1347.77,548.59,1329Z"/><path class="f" d="M524.85,1386.59s-48.36-3-81.14-23.78C443.71,1362.81,466.82,1402.61,524.85,1386.59Z"/><path class="f" d="M501.41,1450.31s-38.55-2.36-64.68-19C436.73,1431.36,455.15,1463.08,501.41,1450.31Z"/><rect class="g" width="1262.35" height="2194.12"/></svg>