<svg xmlns="http://www.w3.org/2000/svg" width="1262.35" height="2194.12" viewBox="0 0 1262.35 2194.12"><defs><style>.a{fill:#b3a7a7;}.b{fill:#b07045;}.c{fill:#c48458;}.d{fill:#fff;}.e{fill:#593820;}.f,.h{fill:none;}.f{stroke:#593820;stroke-linecap:round;stroke-linejoin:round;stroke-width:12px;}.g{fill:#807777;}</style></defs><title>4_men_shoes_1</title><polygon points="66.29 2004.88 63.47 2027.47 81.82 2020.41 66.29 2004.88"/><polygon points="102.29 2035.94 99.47 2058.53 117.82 2051.47 102.29 2035.94"/><polygon points="145.62 2063.25 150.12 2085.57 165.28 2073.04 145.62 2063.25"/><polygon points="185.54 2082.24 190.04 2104.56 205.2 2092.03 185.54 2082.24"/><polygon points="230.01 2106.95 234.51 2129.26 249.67 2116.74 230.01 2106.95"/><polygon points="270.94 2122.26 279.44 2143.38 292.06 2128.3 270.94 2122.26"/><polygon points="719.23 2074.06 726.29 2098.76 737.59 2085.35 719.23 2074.06"/><polygon points="752.01 2087.08 765.2 2109.13 772.65 2093.26 752.01 2087.08"/><polygon points="799.7 2122.76 807.47 2146.76 819.47 2130.53 799.7 2122.76"/><polygon points="835 2140.41 842.76 2164.41 854.76 2148.18 835 2140.41"/><polygon points="877.35 2146.06 884.73 2165.28 896.41 2142.53 877.35 2146.06"/><polygon points="913.74 2141.67 921.12 2160.88 932.8 2138.14 913.74 2141.67"/><path class="a" d="M65.87,1980.92c-4.62,8.48-4.28,18.32-4.28,18.32,18.07,40.85,104.19,79.91,132.15,91.69a21.78,21.78,0,0,0,15.88.48c12.84-4.64,17.95.2,19.87,13.91a14.19,14.19,0,0,0,6.22,9.92c15.14,9.91,40.25,13.74,55.32,17.08a15.06,15.06,0,0,0,15.47-5.87,216.12,216.12,0,0,0,12.26-18.8c-27.27-1.29-53.45-15.87-80.17-23.3C171.25,2066.53,108.84,2034,65.87,1980.92Z"/><path class="a" d="M341.39,2039.76c.07-.33.13-.66.2-1,0-6.58-4.71-6.11-4.71-6.11-66.82,1.88-86.12-46.59-86.12-46.59-1.41-6.12.47-9.88-4.23-9.88-.93,0-3.84.42-7.9,1.09C246.82,2022.32,297.65,2045.12,341.39,2039.76Z"/><path class="b" d="M246,1997.76a220.35,220.35,0,0,0-70.38,15.59c-14.42,5.61-31.38,15.06-38.6,28.87,31,18.85,65.58,32.6,101.6,42.13,6.42,1.79,12.82,4,19.21,6.32,13-17.53,21.75-38.89,25.61-59.86C267.64,2023.59,254.17,2012.46,246,1997.76Z"/><path class="c" d="M341.39,2039.76a109.71,109.71,0,0,1-58-9c-3.86,21-12.59,42.33-25.61,59.86,20.17,7.35,40.25,16,61,17C330,2088,335.69,2069.11,341.39,2039.76Z"/><path class="c" d="M238.63,1977.27c-16.54,2.75-52.34,9.73-52.34,9.73-6.2,1.07-7.65,4.08-14.83-.13-77.64-45.52-102.51-11.59-105.59-5.95,20,24.68,44.18,44.92,71.12,61.3,7.22-13.81,24.18-23.26,38.6-28.87A220.35,220.35,0,0,1,246,1997.76,66.27,66.27,0,0,1,238.63,1977.27Z"/><path class="a" d="M849.59,2130.35c-12-3-23-7-33-13-39.57-20.22-76-43.54-106.7-74.7-.09,2.49-.16,4.93-.2,7.26a44,44,0,0,0,25.16,40.7c11.69,5.51,24.17,9.72,29.21,5.68,10.59-8.47,20.12,13.77,20.12,13.77l13.76,18c38.6,31.17,94.37,27,124.27,21.66,15.55-2.76,24.33-16.2,23.78-30.85C922.32,2139.81,880.34,2138,849.59,2130.35Z"/><path class="a" d="M819.59,2000.35a37.11,37.11,0,0,0,7.71-8.67c-2.23-2.16-4.62-4.45-7.23-7a3.84,3.84,0,0,0-6.22,1.45c-7.08,17.61-47.67,15.88-47.67,15.88-14.74-2.33-31.75-14.31-39.8-20.56a4.19,4.19,0,0,0-6.79,1.81q-.6,1.47-1.17,3C747.37,2009.87,788.73,2026.54,819.59,2000.35Z"/><path class="c" d="M718.42,1986.34c-5.74,15.85-7.86,37.92-8.53,56.31a319.58,319.58,0,0,0,31.3,27.78c0-21.31,4-43.59,15.25-61.89C742.79,2003.58,729.67,1995.48,718.42,1986.34Z"/><path class="b" d="M860.59,2101.35c-12-35.15-35.19-64.31-61.55-89.86-13.77,4-28.47,2.19-42.6-3-11.27,18.3-15.25,40.58-15.25,61.89,23.14,18.05,48.55,33.2,75.4,46.92,10,6,21,10,33,13a182.57,182.57,0,0,0,18,3.55C867.68,2123,864,2111.52,860.59,2101.35Z"/><path class="c" d="M946,2118.87a36,36,0,0,0-2.8-12.62c-10.78-25.84-66.32-53.83-68.57-54.58-21.74-33.55-28.26-41.55-47.32-60a37.11,37.11,0,0,1-7.71,8.67A55,55,0,0,1,799,2011.49c26.36,25.55,49.52,54.71,61.55,89.86,3.39,10.17,7.09,21.62,7,32.55C895.2,2137.92,926.69,2136,946,2118.87Z"/><path class="d" d="M260.53,2001.47c-.47-6.12-2.84-24-14-25.29s-73.82,10.6-75.07,10.69c1.56,5.59,3.82,13.56,6.38,20.67a13.74,13.74,0,0,0,14.68,9C214.41,2013.72,241.43,2007.07,260.53,2001.47Z"/><path class="d" d="M873.12,2049.35c-23.27-35.76-28.58-41.24-53-64.61a3.83,3.83,0,0,0-6.2,1.38c-3.61,9.09-16.11,13-27.41,14.74a5.46,5.46,0,0,0-3.57,8.6c15.91,22,26.86,34,44.22,54.45a9.11,9.11,0,0,0,12.09,1.66C849.42,2058.54,861.15,2053.35,873.12,2049.35Z"/><path class="e" d="M188.53,2019.82l-9.3-35.41s7.77-6.35,12.71-1.41l7.88,35.41S197.13,2023,188.53,2019.82Z"/><path class="e" d="M213.94,2015.59l-9.29-35.41s7.76-6.36,12.7-1.42l7.88,35.42S222.54,2018.76,213.94,2015.59Z"/><path class="e" d="M238.65,2011.35l-9.3-35.41s7.77-6.35,12.71-1.41l7.88,35.41S247.25,2014.53,238.65,2011.35Z"/><path class="f" d="M820.17,2054.29s19.06-20.47,42.36-24.7"/><path class="f" d="M805.35,2035.24s19.06-20.48,42.35-24.71"/><path class="f" d="M792.65,2019s18.35-21.88,41.64-26.12"/><path class="g" d="M85.26,2019.44c21,19.37,57.61,46.16,112.82,63.83a3,3,0,0,0,3.78-1.94,3,3,0,0,0-2-3.78c-54-17.29-89.84-43.43-110.37-62.32a208.07,208.07,0,0,1-26.06-28.6,42.17,42.17,0,0,0-1.63,7.77A220.27,220.27,0,0,0,85.26,2019.44Z"/><path class="g" d="M247.27,2099.46a3,3,0,0,0-2,5.67c.37.13,31.59,10.86,63.23,18.44q1.89-2.68,3.63-5.3C280.11,2110.75,247.65,2099.59,247.27,2099.46Z"/><path class="g" d="M752.82,2090.06a3,3,0,0,0,1.3-5.71A157.38,157.38,0,0,1,709.71,2052a44.15,44.15,0,0,0,1.39,9.84,162.19,162.19,0,0,0,40.42,27.9A3,3,0,0,0,752.82,2090.06Z"/><path class="g" d="M844.85,2135.94c-26.75-8.25-43.72-21.67-44-21.87a3,3,0,0,0-3.76,4.68c.72.58,17.88,14.22,45.73,22.85a148.83,148.83,0,0,0,44,6.73,145.29,145.29,0,0,0,53.92-10.46,30.21,30.21,0,0,0,3.86-8.15A139.81,139.81,0,0,1,844.85,2135.94Z"/><rect class="h" width="1262.35" height="2194.12"/></svg>