<svg xmlns="http://www.w3.org/2000/svg" width="1262.35" height="2194.12" viewBox="0 0 1262.35 2194.12"><defs><style>.a{fill:#a1530b;}.b{fill:#bf630d;}.c{fill:#f7941d;}.d{fill:#ffbe3d;}.e{fill:none;}</style></defs><title>4_men_hair_10</title><path class="a" d="M474.29,379.94l7.06,28.24s4-12,13.88-12,13.89,6.35,13.89,6.35l-9.42-60S472.53,349.24,474.29,379.94Z"/><path class="a" d="M773.94,401.12s7.41-12.36,20.47-2.12l7.76-66.71-19-27.53S777.47,384.53,773.94,401.12Z"/><path class="a" d="M505.35,478.06s19.06,33.88,33.88,43.06l-12.47-35.77S515,484.88,505.35,478.06Z"/><path class="a" d="M755.94,485.12s12-2.83,20.47-7.77c0,0-18.35,29.65-30.35,40.24C746.06,517.59,753.47,495.35,755.94,485.12Z"/><path class="b" d="M608.59,300.35c-8-20-27-28-39-44-11,16-17,34-17,53-4-16-19-31-9-48-22,20-23,50-34,75,0-14-10-23-16-34,0,23-1,50-23,63a35.57,35.57,0,0,1-33.34,1.4l-1.18.16A35.37,35.37,0,0,0,495,355.34a36.24,36.24,0,0,1-9.58,26.52A65.31,65.31,0,0,0,533.16,299c5.26,17.64,21.88,31.3,40.21,33.05-11.39-13.2-13.69-33.49-5.55-48.9,8.55,8.28,20.22,12.49,29.72,19.67,6.7,5.07,12.4,12.94,13.38,20.92A41.32,41.32,0,0,0,608.59,300.35Z"/><path class="b" d="M647.59,292.35c-6.16,4.4-10,11.13-12.88,18.13a11,11,0,0,1,.88,1.37c9.53,22,38.42,23.41,38.24,23C656.48,330.69,645.89,309.36,647.59,292.35Z"/><path class="c" d="M539.65,167.22a50.06,50.06,0,0,0-2.06-4.87A6.74,6.74,0,0,0,539.65,167.22Z"/><path class="c" d="M549.59,183.35c-.59.18-1.19.34-1.78.48a14.54,14.54,0,0,0,1.78,1.52Z"/><path class="c" d="M806.87,322.66c-2.69-17.9,5.1-36.06,2.88-54A49.75,49.75,0,0,0,784,231.38a22.91,22.91,0,0,1,22.37,7.82,98.76,98.76,0,0,0-7.05-16.87c-17.19-19.91-38.61-35.62-65.71-33,3-9,13-8,17-16-17-2-36,1-49,12,6-14-1-27-4-40-7,14-14,33-33,34,8-17-7-31-19-36-16-6-33,0-50-1,8,5,15,12,24,16-24,7-49,17-75,12a17.65,17.65,0,0,1-4.94-3.13c2.26,6.06,3.91,12.43,8.16,16.61.59-.14,1.19-.3,1.78-.48v2a14.54,14.54,0,0,1-1.78-1.52c-9.51,2.31-19.64.88-26.22,6.52-14,10-17,27-21,44-4.35,20-20.13,29.43-38.88,23.62,5.55,11.6,7.5,25.91,12.25,28.35a46.81,46.81,0,0,0-12.14,43.05c1.5,6.92,5.08,13.84,3.36,20.71-2.8,11.22-16.33,15-27.93,16.67a35.57,35.57,0,0,0,33.34-1.4c22-13,23-40,23-63,6,11,16,20,16,34,11-25,12-55,34-75-10,17,5,32,9,48,0-19,6-37,17-53,12,16,31,24,39,44a41.32,41.32,0,0,1,2.33,23.41,17.65,17.65,0,0,1-1.48,9.82c8.31-5.57,16.81-11.32,22.66-19.43a35,35,0,0,0,2.45-3.93l.16.26c2.88-7,6.72-13.73,12.88-18.13-1.7,17,8.89,38.34,26.24,42.51-6.23-13.59-5.75-32.32-.54-46.32-.81-7.31-2.3-12.17-3.7-19.19,28,10,56,32,51,66,14-14,16-34,16-53,20,10,26,34,22,54,5-17,19-30,32-42-3,14,1,28,9,40A60.49,60.49,0,0,0,814,350c3.12.67,6.27,1.23,9.41,1.79A47.19,47.19,0,0,1,806.87,322.66Z"/><path class="d" d="M500.59,234.35c4-17,7-34,21-44,6.58-5.64,16.71-4.21,26.22-6.52-4.25-4.18-5.9-10.55-8.16-16.61a6.74,6.74,0,0,1-2.06-4.87,50.06,50.06,0,0,1,2.06,4.87,17.65,17.65,0,0,0,4.94,3.13c26,5,51-5,75-12-9-4-16-11-24-16,17,1,34-5,50,1,12,5,27,19,19,36,19-1,26-20,33-34,3,13,10,26,4,40,13-11,32-14,49-12-4,8-14,7-17,16,27.1-2.64,48.52,13.07,65.71,33a84.42,84.42,0,0,0-25-29.16,75.57,75.57,0,0,0-7.24-4.59A92.15,92.15,0,0,0,783.63,173c-11.63,4-23.57-3.82-34.5-9.46s-27-7.9-33.22,2.74c1.69-10.4-3.23-21-10.48-28.65s-16.63-12.87-25.86-18C688,128.88,689,144,682,154.27c-2.87-12.89-13.51-23.17-25.84-27.91s-26.1-4.54-39-2c-8.52,1.71-16.9,4.41-25.57,4.73s-18-2.24-23.35-9.1c.25,7.08.52,14.3,3,20.94s7.57,12.71,14.44,14.45c-22,12.11-53.15,2.43-64.41-20-4.34,12.28-2.81,26.29,3.35,37.72C501.21,179,481,203.2,480.66,224.72c-.12,7,.72,14.15-1.54,20.74s-12.58,10.35-19.3,8.48c.59,1.29,1.22,2.64,1.89,4C480.46,263.78,496.24,254.37,500.59,234.35Z"/><path class="b" d="M799.59,334.35c-8-12-12-26-9-40-13,12-27,25-32,42,4-20-2-44-22-54,0,19-2,39-16,53,5-34-23-56-51-66,1.4,7,3.33,20.06,3.7,19.19L686,297.37c9.28,6.47,18.84,13.24,24.54,23s6.41,23.42-1.46,31.54c19.41-5,34.72-23.06,36.47-43a47.65,47.65,0,0,1-10.88,49.27c9.56-3.38,19.25-6.82,27.55-12.64s15.17-14.44,16.59-24.48c.89,9.72,8.13,17.94,16.69,22.63A67.89,67.89,0,0,0,814,350,60.49,60.49,0,0,1,799.59,334.35Z"/><rect class="e" width="1262.35" height="2194.12"/></svg>