<svg xmlns="http://www.w3.org/2000/svg" width="1262.35" height="2194.12" viewBox="0 0 1262.35 2194.12"><defs><style>.a{fill:none;}.b{fill:#1f1f1f;}.c{fill:#b33030;}.d{fill:#9c9c9c;}.e{fill:#7d7d7d;}.f{fill:#b3b3b3;}.g{fill:#762513;}.h{fill:#fff;}.i{fill:#942928;}</style></defs><title>4_men_shirt_6</title><path class="a" d="M390.1,695.29l.13-.16Z"/><polygon class="a" points="448.82 630.26 448.82 630.26 448.82 630.26 448.82 630.26"/><path class="a" d="M400,682.73l0-.05Z"/><path class="a" d="M398.25,685h0Z"/><path class="a" d="M388.64,697.17l.24-.3Z"/><path class="a" d="M383.94,703.24l1-1.35Z"/><path class="a" d="M385.54,701.17l.57-.73Z"/><path class="a" d="M385,701.89l.56-.72Z"/><path class="a" d="M386.11,700.44l2.53-3.27Z"/><path class="a" d="M388.88,696.87l1.22-1.58Z"/><path class="a" d="M390.23,695.13c2.39-3.07,5.08-6.49,8-10.17C395.31,688.64,392.62,692.06,390.23,695.13Z"/><path class="a" d="M448.82,630.26c-18.58,16.41-35.87,36.48-48.74,52.42C413,666.74,430.24,646.67,448.82,630.26Z"/><path class="a" d="M398.26,685l1.78-2.22Z"/><path class="b" d="M181.38,715.09A135.42,135.42,0,0,1,168.57,704c-9.8,15.84-17.5,28.65-42.74,37,3.65,3.63,7.79,7.72,12.32,12.17C156.14,744.63,170,730.92,181.38,715.09Z"/><path class="c" d="M138.15,753.17q4,3.89,8.29,8.1c4.42-1.32,8.66-2.74,12.15-4.92,14-8.55,24-20.84,33-33.9q-5.62-3.76-10.24-7.36C170,730.92,156.14,744.63,138.15,753.17Z"/><path class="d" d="M469.7,693.71c-6-21.44-13.1-42.59-20.88-63.45h0c-24.49,21.62-45,47.45-64.88,73-14.35,18.44-77.65,73.41-77.65,73.41-19.06-20.47-59.29-24-94.59-42.36a213.65,213.65,0,0,1-20.08-11.84c-9,13.06-19,25.35-33,33.9-3.49,2.18-7.73,3.6-12.15,4.92,50.8,49.42,136.94,129,155.62,119.85,44.3-21.78,95.79-56.55,131.29-87.12,26.37-22.7,42.48-44.41,47.88-49.72C478.27,727.25,474.34,710.39,469.7,693.71Z"/><path class="d" d="M1028.84,591.65c-20.61,3.85-42.61,2.55-60.72-5.32-.12,24-1.49,51.78-5.36,67.79-7.41,30.7-12.7,70.29-12.7,70.29s-64.44-52.51-108.29-82.86h0a237.24,237.24,0,0,0-21.3,50.81,346,346,0,0,0-10.36,48.27c37.1,20.76,71.54,41.69,102.47,55.94,50.5,23.26,88.3,33.72,88.3,33.72,35.3-4.47,38.65-138,33.35-165.53C1031.45,650.28,1029.79,618.51,1028.84,591.65Z"/><path class="b" d="M1028.44,579.31c-.21-7-.37-13.29-.48-18.42-14.11,3-43.11,6.94-60.42-5.57.25,5,.43,11,.52,17.61C987.43,579.66,1008.34,583.25,1028.44,579.31Z"/><path class="c" d="M968.06,572.93c.06,4.25.09,8.75.06,13.4,18.11,7.87,40.11,9.17,60.72,5.32-.15-4.26-.29-8.41-.4-12.34C1008.34,583.25,987.43,579.66,968.06,572.93Z"/><path class="e" d="M948.23,722.93c-3.89-3.15-13.74-11.11-26.6-21.27,12.26,17.76,24.15,35.6,31,56.69A149.5,149.5,0,0,1,948.23,722.93Z"/><path class="e" d="M321.43,763.32c-8.95,7.95-15.14,13.33-15.14,13.33-.78-.84-1.6-1.64-2.45-2.42,6.22,9.87,12,20.16,12.75,32.12C318.44,792.74,318,777.21,321.43,763.32Z"/><path class="f" d="M408.65,813.35c30.35-19.76,58.58-50.82,74.11-70.59-.54-4.13-10.21-38.15-10.35-42.35-1.06,8.47-.8,34.76-4.82,41.65C450.29,771.71,424.17,797.12,408.65,813.35Z"/><path class="e" d="M820.47,692.36c-4.53,10.88-10.88,36.29-11.36,47.71q6.21,3.48,12.39,6.85c16,8.78,80.56,48.08,112.32,59.37-12.18-9.85-93.36-57.47-104.47-68.47C826.06,734.56,819.77,706.48,820.47,692.36Z"/><path class="c" d="M841.77,641.55c-10.55-7.3-19.91-13.33-26.89-17-36-19.06-39.18-13.77-76.23-14.82a250.48,250.48,0,0,1-36.19-3.63c-6.89,9-20.49,19.9-33.43,29.24-16,11.55-31,20.68-31,20.68L612.4,633.09l-28.83-25.75a78.9,78.9,0,0,1-19.48-.24l-50.27-6.92c-20.13-3-43.43,11-65,30.08-28.33,25-53.66,58.55-64.88,73-5.88,7.56-20,21.27-34.61,34.81l15.1,18.59L413,816.41c51-43.15,67.37-61.82,69.51-64.34.17-.2.25-.31.25-.31,4.24,19.06,36.71,185.83,43.77,232.42,3.15,20.8-10.89,68.77-21.12,99.84,3.53,1.11,8,2.43,13.46,3.87,3.55-10.78,7.47-23.35,11-36.22,9.14-33,12.57-55.76,10.47-69.59-.19-1.27-.41-2.65-.64-4.1,20.68,54.2,103.55,134.1,219.63,21.3.41,37.48,3.47,68.8,6.13,87.27q6.78-1.69,13.66-3.62c-4.82-35.2-11.8-122,4-206.4C796.3,806,808.88,739.94,808.88,739.94l1.21.85c37.38,26.18,59.75,36.07,83.5,55.62,1.28-15.19,8.83-42.63,22.08-68.34a187.18,187.18,0,0,1,12.63-21.13C905.61,688.91,869.55,660.78,841.77,641.55Z"/><path class="b" d="M781,1094.65c-.53-2.77-1.17-6.72-1.85-11.72q-6.89,1.93-13.66,3.62c-113.8,28.67-205.86,12.11-246.62,1.34-5.42-1.44-9.93-2.76-13.46-3.87-3.23,9.79-6.08,17.91-7.89,23,19.81,5.56,159.4,41.83,284.49-3.1C781.37,1097.86,781,1094.65,781,1094.65Z"/><path class="a" d="M669,635.32l.17-.12-39.61-.44c-4.86-.1-10.42-.44-16.37-.94L638.06,656S653,646.87,669,635.32Z"/><path class="g" d="M535.7,623.47s44.58,7.6,77.52,10.35l-.82-.73-28.83-25.75a78.9,78.9,0,0,1-19.48-.24l-50.27-6.92c-20.13-3-43.43,11-65,30.08-28.33,25-53.66,58.55-64.88,73-5.88,7.56-20,21.27-34.61,34.81l15.1,18.59L365.5,758c17.5-18.62,60.18-69.65,77-87.2S487,617.82,535.7,623.47Z"/><path class="g" d="M928.3,706.94c-22.69-18-58.75-46.16-86.53-65.39-10.55-7.3-19.91-13.33-26.89-17-36-19.06-39.18-13.77-76.23-14.82a250.48,250.48,0,0,1-36.19-3.63c-6.86,8.93-15.52,15.13-28.4,24.45l84,5.65s37.41-2.12,64.23,23.29c20.74,19.64,71,54.88,92.73,69.87l.65-1.27A187.18,187.18,0,0,1,928.3,706.94Z"/><path class="g" d="M629.47,649.88c2.12,1.41,8.59,6.12,8.59,6.12l10.29-6.12,1.46,64.24a9.82,9.82,0,0,1-9.52,9.88h0a9.82,9.82,0,0,1-10.1-9.41Z"/><path class="b" d="M601.23,602.29,638.06,656l-24.71-6.41-44.12,12s6.4-53.2,7.42-58.24c2.67-13.27,24-25.06,24-25.06Z"/><path class="b" d="M638.06,656,678,599.47l-1.35-24.71s21.57,20.73,25.81,31.32l4.42,54.45-42.71-11.65Z"/><circle class="h" cx="640.17" cy="666.53" r="5.65"/><circle class="h" cx="640.17" cy="710.29" r="5.65"/><path class="i" d="M413,816.41c25.29-19.29,50.94-42.06,69.76-64.65-8.82-46-12.92-53.86-13.06-58,2.12,28.94-6,58.94-6,58.94C447,774.66,424.32,802.51,413,816.41Z"/><path class="i" d="M820.47,692.36c-6.88,20.76-7.82,29.23-11.36,47.71,8.24,6.93,54.12,40.11,84.48,56.34-12.18-9.85-51-51.82-62.12-62.82C828.18,730.33,821.59,708.41,820.47,692.36Z"/><path class="b" d="M893.59,796.41c1.65-19.49,13.61-59.18,34.71-89.47-6.27-5-13.56-10.73-21.41-16.85-18.31,26.56-32.17,60.91-38.72,92.2C876.62,787.75,886.53,792.18,893.59,796.41Z"/><path class="b" d="M369,719.29c-5.9,5.84-12.73,12.32-19.68,18.76L413,816.41c7.33-6.21,14.95-10.9,20.91-16.12-19.86-22.16-38.65-46.93-57.32-72.94C374.15,724.57,371.6,721.91,369,719.29Z"/><path class="i" d="M763.45,1070.25c-2-18.34-3.79-42.93-4.09-71-116.08,112.8-199,32.9-219.63-21.3.23,1.45.45,2.83.64,4.1,2.1,13.83-1.33,36.59-10.47,69.59-2.1,7.6-4.33,15.1-6.54,22.19C555.35,1082.11,646.62,1099.65,763.45,1070.25Z"/><path class="c" d="M523.36,1073.86c-1.52,4.9-3,9.62-4.49,14,40.76,10.77,132.82,27.33,246.62-1.34-.67-4.65-1.36-10.12-2-16.3C646.62,1099.65,555.35,1082.11,523.36,1073.86Z"/><polygon class="b" points="714.29 750.53 775.7 752.65 773.59 769.59 714.29 767.47 714.29 750.53"/><rect class="a" width="1262.35" height="2194.12"/></svg>