<svg xmlns="http://www.w3.org/2000/svg" width="1262.35" height="2194.12" viewBox="0 0 1262.35 2194.12"><defs><style>.a{fill:#5ba1a8;}.b{fill:none;}.c{fill:#2e496b;}.d{fill:#1f1f1f;}.e{fill:#fff;}.f{fill:#4b848a;}</style></defs><title>4_men_shirt_4</title><path class="a" d="M841.77,641.55c-10.55-7.3-19.91-13.33-26.89-17-36-19.06-39.18-13.77-76.23-14.82a250.48,250.48,0,0,1-36.19-3.63c-6.89,9-20.49,19.9-33.43,29.24-16,11.55-31,20.68-31,20.68L612.4,633.09l-28.83-25.75a78.9,78.9,0,0,1-19.48-.24l-50.27-6.92c-20.13-3-43.43,11-65,30.08-28.33,25-53.66,58.55-64.88,73-5.88,7.56-20,21.27-34.61,34.81l15.1,18.59L413,816.41c51-43.15,67.37-61.82,69.51-64.34.17-.2.25-.31.25-.31,4.24,19.06,36.71,185.83,43.77,232.42,4.14,27.36-21.46,101.71-29,122.81,19.81,5.56,159.4,41.83,284.49-3.1-.64-6-1-9.24-1-9.24-4.24-22.24-15.88-121.77,2.12-218.12C796.3,806,808.88,739.94,808.88,739.94l1.21.85c37.38,26.18,59.75,36.07,83.5,55.62,1.28-15.19,8.83-42.63,22.08-68.34a187.18,187.18,0,0,1,12.63-21.13C905.61,688.91,869.55,660.78,841.77,641.55Z"/><path class="b" d="M669,635.32l.17-.12-39.61-.44c-4.86-.1-10.42-.44-16.37-.94L638.06,656S653,646.87,669,635.32Z"/><path class="c" d="M535.7,623.47s44.58,7.6,77.52,10.35l-.82-.73-28.83-25.75a78.9,78.9,0,0,1-19.48-.24l-50.27-6.92c-20.13-3-43.43,11-65,30.08-28.33,25-53.66,58.55-64.88,73-5.88,7.56-20,21.27-34.61,34.81l15.1,18.59L365.5,758c17.5-18.62,60.18-69.65,77-87.2S487,617.82,535.7,623.47Z"/><path class="c" d="M928.3,706.94c-22.69-18-58.75-46.16-86.53-65.39-10.55-7.3-19.91-13.33-26.89-17-36-19.06-39.18-13.77-76.23-14.82a250.48,250.48,0,0,1-36.19-3.63c-6.86,8.93-15.52,15.13-28.4,24.45l84,5.65s37.41-2.12,64.23,23.29c20.74,19.64,71,54.88,92.73,69.87l.65-1.27A187.18,187.18,0,0,1,928.3,706.94Z"/><path class="c" d="M629.47,649.88c2.12,1.41,8.59,6.12,8.59,6.12l10.29-6.12,1.46,64.24a9.82,9.82,0,0,1-9.52,9.88h0a9.82,9.82,0,0,1-10.1-9.41Z"/><path class="d" d="M601.23,602.29,638.06,656l-24.71-6.41-44.12,12s6.4-53.2,7.42-58.24c2.67-13.27,24-25.06,24-25.06Z"/><path class="d" d="M638.06,656,678,599.47l-1.35-24.71s21.57,20.73,25.81,31.32l4.42,54.45-42.71-11.65Z"/><circle class="e" cx="640.17" cy="666.53" r="5.65"/><circle class="e" cx="640.17" cy="710.29" r="5.65"/><path class="f" d="M413,816.41c25.29-19.29,50.94-42.06,69.76-64.65-8.82-46-12.92-53.86-13.06-58,2.12,28.94-6,58.94-6,58.94C447,774.66,424.32,802.51,413,816.41Z"/><path class="f" d="M820.47,692.36c-6.88,20.76-7.82,29.23-11.36,47.71,8.24,6.93,54.12,40.11,84.48,56.34-12.18-9.85-51-51.82-62.12-62.82C828.18,730.33,821.59,708.41,820.47,692.36Z"/><path class="f" d="M539.73,978c.23,1.45.45,2.83.64,4.1,2.1,13.83-1.33,36.59-10.47,69.59-4.65,16.79-9.91,33.09-14.14,45.53a573.46,573.46,0,0,0,127.52,14.88c45.08,0,86.54-6,123.43-17.78-2.85-16.52-6.88-51.65-7.35-95C643.28,1112.08,560.41,1032.18,539.73,978Z"/><path class="d" d="M893.59,796.41c1.65-19.49,13.61-59.18,34.71-89.47-6.27-5-13.56-10.73-21.41-16.85-18.31,26.56-32.17,60.91-38.72,92.2C876.62,787.75,886.53,792.18,893.59,796.41Z"/><path class="d" d="M369,719.29c-5.9,5.84-12.73,12.32-19.68,18.76L413,816.41c7.33-6.21,14.95-10.9,20.91-16.12-19.86-22.16-38.65-46.93-57.32-72.94C374.15,724.57,371.6,721.91,369,719.29Z"/><path class="e" d="M750.59,749.25l-2.05,5.28a2.53,2.53,0,0,0,.77,2.87l4.42,3.54a2.52,2.52,0,0,1-1.2,4.45l-5.59.86a2.53,2.53,0,0,0-2.1,2.1L744,774a2.51,2.51,0,0,1-4.44,1.19L736,770.73a2.5,2.5,0,0,0-2.87-.77l-5.28,2a2.52,2.52,0,0,1-3.25-3.26l2-5.28a2.5,2.5,0,0,0-.77-2.87l-4.41-3.54a2.52,2.52,0,0,1,1.19-4.45l5.59-.86a2.5,2.5,0,0,0,2.1-2.1l.87-5.6a2.51,2.51,0,0,1,4.44-1.19l3.55,4.41a2.5,2.5,0,0,0,2.87.77l5.28-2A2.52,2.52,0,0,1,750.59,749.25Z"/><rect class="b" width="1262.35" height="2194.12"/></svg>