<svg xmlns="http://www.w3.org/2000/svg" width="1262.35" height="2194.12" viewBox="0 0 1262.35 2194.12"><defs><style>.a{fill:#474747;}.b{fill:#fff;}.c{fill:#2b2b2b;}.d{fill:#6b6b6b;}.e{fill:#5c5c5c;}.f{fill:none;}</style></defs><title>4_men_shoes_6</title><polygon points="66.29 2004.88 63.47 2027.47 81.82 2020.41 66.29 2004.88"/><polygon points="102.29 2035.94 99.47 2058.53 117.82 2051.47 102.29 2035.94"/><polygon points="145.62 2063.25 150.12 2085.57 165.28 2073.04 145.62 2063.25"/><polygon points="185.54 2082.24 190.04 2104.56 205.2 2092.03 185.54 2082.24"/><polygon points="230.01 2106.95 234.51 2129.26 249.67 2116.74 230.01 2106.95"/><polygon points="270.94 2122.26 279.44 2143.38 292.06 2128.3 270.94 2122.26"/><polygon points="719.23 2074.06 726.29 2098.76 737.59 2085.35 719.23 2074.06"/><polygon points="752.01 2087.08 765.2 2109.13 772.65 2093.26 752.01 2087.08"/><polygon points="799.7 2122.76 807.47 2146.76 819.47 2130.53 799.7 2122.76"/><polygon points="835 2140.41 842.76 2164.41 854.76 2148.18 835 2140.41"/><polygon points="877.35 2146.06 884.73 2165.28 896.41 2142.53 877.35 2146.06"/><polygon points="913.74 2141.67 921.12 2160.88 932.8 2138.14 913.74 2141.67"/><path class="a" d="M62.1,1992.57a38.63,38.63,0,0,0-.51,6.67c18.07,40.85,104.19,79.91,132.15,91.69a21.78,21.78,0,0,0,15.88.48,32.69,32.69,0,0,1,4.58-1.32c-15.13-6.29-30.28-12.92-45.61-19.74C127.91,2052.38,89,2028.14,62.1,1992.57Z"/><path class="b" d="M238.59,2084.35c-67.34-17.82-129.75-50.36-172.72-103.43a36.3,36.3,0,0,0-3.77,11.65c26.94,35.57,65.81,59.81,106.49,77.78,15.33,6.82,30.48,13.45,45.61,19.74,6.16-1.24,10.05.5,12.48,5.12,16.22,6.55,32.46,12.66,48.91,18.14a232.5,232.5,0,0,0,34.25,8.36c3.33-4.83,6.28-9.46,8.92-14.06C291.49,2106.36,265.31,2091.78,238.59,2084.35Z"/><path class="a" d="M226.68,2095.21a31.56,31.56,0,0,1,2.81,10.11,14.19,14.19,0,0,0,6.22,9.92c15.14,9.91,40.25,13.74,55.32,17.08a15.06,15.06,0,0,0,15.47-5.87c1.16-1.61,2.27-3.18,3.34-4.74a232.5,232.5,0,0,1-34.25-8.36C259.14,2107.87,242.9,2101.76,226.68,2095.21Z"/><path class="c" d="M138.3,1974.08c-21.28-8.76-38.08-18.68-46.6-17.2C74,1960,67.47,1978,65.87,1980.92c27.08,33.44,61.81,58.6,100.3,77.07-2.94-18.41-3-37.24-11.58-53.64C149.56,1994.29,144.35,1983.89,138.3,1974.08Z"/><path class="a" d="M256.88,1990.41c-1.41-6.12-5.65-14.23-10.35-14.23-7.47,0-54.49,10.35-54.59,10.35-19.33,0-37.73-5.9-53.64-12.45,6,9.81,11.26,20.21,16.29,30.27,8.58,16.4,8.64,35.23,11.58,53.64a401.8,401.8,0,0,0,62.26,23.53c-16.9-21-26.3-46.68-19.84-73.17,1.67-8.37,13.87-9.73,24.84-9.37-.32-.39-.63-.78-.9-1.16Z"/><path class="c" d="M208.59,2008.35c-6.46,26.49,2.94,52.13,19.84,73.17,2.77.8,5.55,1.59,8.34,2.34l1.82.49c26.7,7.42,52.9,22,80.17,23.3,11-19.13,16.4-37.83,20.79-58.75-45.36-2.91-90.82-15.85-122.93-48.23C212.44,2002.06,209.37,2004.44,208.59,2008.35Z"/><path class="b" d="M336.88,2032.65c-45.24,1.27-91.78-19.5-103.45-33.67-5.85-.19-12.05.11-16.81,1.69,32.11,32.38,77.57,45.32,122.93,48.23.7-3.32,1.37-6.69,2-10.14C341.59,2032.18,336.88,2032.65,336.88,2032.65Z"/><path class="d" d="M163.71,2009.3a3,3,0,0,1-1.35-5.69c.18-.09,17.87-9.07,20.67-20.28a3,3,0,0,1,5.82,1.46c-3.47,13.88-23,23.77-23.8,24.19A3.07,3.07,0,0,1,163.71,2009.3Z"/><path class="d" d="M211.83,2005.12a5.2,5.2,0,0,1-1.21-.15c-4.55-1.14-18-14.26-23.63-19.85a3,3,0,1,1,4.25-4.24c7.77,7.77,17.43,16.54,20.44,18.09,2-1.6,5.83-9.49,7.92-13.84,1.42-3,2.76-5.73,4-7.85a3,3,0,1,1,5.21,3c-1.11,1.94-2.4,4.63-3.77,7.48C219.91,1998.35,216.4,2005.12,211.83,2005.12Z"/><path class="d" d="M236.76,2008.24a3,3,0,0,1-1.94-.72l-26.18-22.3-15,19.72a3,3,0,0,1-4.19.58L164,1986.46a3,3,0,0,1,3.6-4.8l23,17.27,15.14-19.87a3,3,0,0,1,2.06-1.16,3,3,0,0,1,2.27.7L238.71,2003a3,3,0,0,1-2,5.29Z"/><path class="a" d="M253.7,2069.82s18-16.94,26.47-15.88,47.65,7.41,47.65,7.41-20.12,21.18-27.53,22.24S253.7,2069.82,253.7,2069.82Z"/><path class="e" d="M710.7,2060.15a44,44,0,0,0,24.15,30.46c10.44,4.92,21.49,8.78,27.33,6.68C742.34,2088.9,723.86,2076.72,710.7,2060.15Z"/><path class="b" d="M941.28,2137.06a31.78,31.78,0,0,0,4.71-18.19c-23.67,20.94-65.65,19.17-96.4,11.48-12-3-23-7-33-13-39.57-20.22-76-43.54-106.7-74.7-.09,2.49-.16,4.93-.2,7.26a44.11,44.11,0,0,0,1,10.24c13.16,16.57,31.64,28.75,51.48,37.14a6.5,6.5,0,0,0,1.88-1c10.59-8.47,20.12,13.77,20.12,13.77l4.06,5.32C831.31,2146,892.59,2156.84,941.28,2137.06Z"/><path class="e" d="M788.24,2115.38l9.7,12.68c38.6,31.17,94.37,27,124.27,21.66a27.79,27.79,0,0,0,19.07-12.66C892.59,2156.84,831.31,2146,788.24,2115.38Z"/><path class="b" d="M797.35,2036.32c-4.06-7.33-9.57-14.3-14.93-21.41a22.17,22.17,0,0,1,.7,4.09c-24,0-41.2-6.6-58.56-21.31a6.3,6.3,0,0,0-10.22,3.61c0,.12-.05.24-.07.36a119.2,119.2,0,0,0,70.32,32.69C788.81,2034.78,793,2035.56,797.35,2036.32Z"/><path class="c" d="M797.35,2036.32c-4.31-.76-8.54-1.54-12.76-2a119.2,119.2,0,0,1-70.32-32.69c-2.76,13.53-3.93,28.62-4.38,41,14.7,14.94,33.85,30.74,55.14,45,20-8,41.55-18.36,37.56-38.33A51.49,51.49,0,0,0,797.35,2036.32Z"/><path class="c" d="M946,2118.87c-.15-4.19-3-8.12-2.8-12.62.6-13.73-13.89-28.37-31.13-36.63l-5.5-2.65a64.44,64.44,0,0,0-25,1.38c-24.94,6.88-47.64,27.07-56.06,52.3C870.9,2139.58,916.69,2144.8,946,2118.87Z"/><path class="a" d="M881.59,2068.35a64.44,64.44,0,0,1,25-1.38c-31.69-15.21-29.62-14.53-31.94-15.3-24.8-28.43-33.27-36.91-47.32-60-2.22-2.15-4.61-4.44-7.23-6.94a3.81,3.81,0,0,0-6.19,1.37c-2.77,7.12-18.61,9.25-31.11,10.57a5.89,5.89,0,0,0-4.43,8.89,36.84,36.84,0,0,1,4.08,9.34c8.43,11.18,17.24,22,20.17,34.44,4,20-17.53,30.37-37.56,38.33a356.92,356.92,0,0,0,60.5,33C834,2095.42,856.65,2075.23,881.59,2068.35Z"/><path class="d" d="M814.53,2061.53a3,3,0,0,1-2.69-4.34c5.46-10.9,22.47-27.74,31-35.82-18.86-.58-55.7,4.77-56.12,4.83a3,3,0,0,1-.87-5.93c2-.29,48.66-7.1,64.5-4.22a3,3,0,0,1,1.47,5.18c-.25.22-22.16,20-31.71,33.85,14-1.07,49-3.51,63.81-2.37a3,3,0,1,1-.46,6c-17.9-1.38-68.19,2.78-68.69,2.82Z"/><path class="d" d="M834.29,2077.06a3.06,3.06,0,0,1-1.72-.54,3,3,0,0,1-.74-4.18c7.24-10.33,20.17-24.85,26.95-32.28-13.77,0-44.1,2.14-56.73,3.11a3,3,0,0,1-3.22-2.74c-.82-9.88,25.39-34.64,33.44-42a3,3,0,1,1,4.05,4.43c-13.11,12-26.91,26.85-30.58,34,13.6-1,52.62-3.73,60.1-2.48a3,3,0,0,1,1.7,5c-.21.23-21.14,22.6-30.79,36.38A3,3,0,0,1,834.29,2077.06Z"/><path class="a" d="M755.23,2057.12l-2.82-16.94-33.29-20.36s3.64,16.12,6.47,20.36S755.23,2057.12,755.23,2057.12Z"/><rect class="f" width="1262.35" height="2194.12"/></svg>