<svg xmlns="http://www.w3.org/2000/svg" width="1262.35" height="2194.12" viewBox="0 0 1262.35 2194.12"><defs><style>.a{fill:#fff;}.b{fill:#332e2b;}.c{fill:#b04b66;}.d{fill:#8a5a1f;}.e{fill:#6b6b6b;}.f{fill:none;}</style></defs><title>4_men_shoes_5</title><polygon points="66.29 2004.88 63.47 2027.47 81.82 2020.41 66.29 2004.88"/><polygon points="102.29 2035.94 99.47 2058.53 117.82 2051.47 102.29 2035.94"/><polygon points="145.62 2063.25 150.12 2085.57 165.28 2073.04 145.62 2063.25"/><polygon points="185.54 2082.24 190.04 2104.56 205.2 2092.03 185.54 2082.24"/><polygon points="230.01 2106.95 234.51 2129.26 249.67 2116.74 230.01 2106.95"/><polygon points="270.94 2122.26 279.44 2143.38 292.06 2128.3 270.94 2122.26"/><polygon points="719.23 2074.06 726.29 2098.76 737.59 2085.35 719.23 2074.06"/><polygon points="752.01 2087.08 765.2 2109.13 772.65 2093.26 752.01 2087.08"/><polygon points="799.7 2122.76 807.47 2146.76 819.47 2130.53 799.7 2122.76"/><polygon points="835 2140.41 842.76 2164.41 854.76 2148.18 835 2140.41"/><polygon points="877.35 2146.06 884.73 2165.28 896.41 2142.53 877.35 2146.06"/><polygon points="913.74 2141.67 921.12 2160.88 932.8 2138.14 913.74 2141.67"/><path class="a" d="M65.87,1980.92c-4.62,8.48-4.28,18.32-4.28,18.32,18.07,40.85,104.19,79.91,132.15,91.69a21.78,21.78,0,0,0,15.88.48c12.84-4.64,17.95.2,19.87,13.91a14.19,14.19,0,0,0,6.22,9.92c15.14,9.91,40.25,13.74,55.32,17.08a15.06,15.06,0,0,0,15.47-5.87,216.12,216.12,0,0,0,12.26-18.8c-27.27-1.29-53.45-15.87-80.17-23.3C171.25,2066.53,108.84,2034,65.87,1980.92Z"/><path class="b" d="M341.39,2039.76c.07-.33.13-.66.2-1,0-6.58-4.71-6.11-4.71-6.11-66.82,1.88-86.12-46.59-86.12-46.59-1.41-6.12.47-9.88-4.23-9.88-.93,0-3.84.42-7.9,1.09C246.82,2022.32,297.65,2045.12,341.39,2039.76Z"/><path class="c" d="M236.77,2083.86l1.82.49c6.42,1.79,12.82,4,19.21,6.32,20.17,7.35,40.25,16,61,17a155.54,155.54,0,0,0,7.84-15.58c-25.14-7.94-51.3-14-76-15.72C247.49,2076.35,242.09,2079.81,236.77,2083.86Z"/><path class="c" d="M65.87,1980.92c20,24.68,44.18,44.92,71.12,61.3a338,338,0,0,0,34.47,18.27c7.75-25.68,2.27-55.67-10-79.17C91.68,1944.29,68.81,1975.53,65.87,1980.92Z"/><path class="b" d="M178.14,1989c-1.74.08-3.73-.42-6.68-2.16-3.42-2-6.73-3.84-10-5.55,12.22,23.5,17.7,53.49,10,79.17q8.16,3.75,16.54,7.12A122.9,122.9,0,0,0,178.14,1989Z"/><path class="d" d="M283.41,2030.81c-15.77-7.22-29.24-18.35-37.44-33a66.27,66.27,0,0,1-7.34-20.49c-16.54,2.75-52.34,9.73-52.34,9.73-3.65.63-5.65,1.92-8.15,2a122.9,122.9,0,0,1,9.86,78.58q15.78,6.36,32.2,11.44c10.15-7.86,20.41-15.7,31.39-15.7,27.16,0,53.61,9.37,79.94,15.87,3.84-11.33,6.85-23.93,9.86-39.46A109.71,109.71,0,0,1,283.41,2030.81Z"/><path class="b" d="M251.59,2063.35c-11,0-21.24,7.84-31.39,15.7q8.24,2.55,16.57,4.81c5.32-4.05,10.72-7.51,13.82-7.51,24.71,1.71,50.87,7.78,76,15.72,1.81-4.15,3.43-8.41,4.93-12.85C305.2,2072.72,278.75,2063.35,251.59,2063.35Z"/><path class="a" d="M849.59,2130.35c-12-3-23-7-33-13-39.57-20.22-76-43.54-106.7-74.7-.09,2.49-.16,4.93-.2,7.26a44,44,0,0,0,25.16,40.7c11.69,5.51,24.17,9.72,29.21,5.68,10.59-8.47,20.12,13.77,20.12,13.77l13.76,18c38.6,31.17,94.37,27,124.27,21.66,15.55-2.76,24.33-16.2,23.78-30.85C922.32,2139.81,880.34,2138,849.59,2130.35Z"/><path class="b" d="M819.59,2000.35a37.11,37.11,0,0,0,7.71-8.67c-2.23-2.16-4.62-4.45-7.23-7a3.84,3.84,0,0,0-6.22,1.45c-7.08,17.61-47.67,15.88-47.67,15.88-14.74-2.33-31.75-14.31-39.8-20.56a4.19,4.19,0,0,0-6.79,1.81q-.6,1.47-1.17,3C747.37,2009.87,788.73,2026.54,819.59,2000.35Z"/><path class="c" d="M739.59,2045.35c-5-10.06-18.49-13.09-28.61-20.29-.54,6-.89,12-1.09,17.59a319.58,319.58,0,0,0,31.3,27.78l1.89,1.44C744,2062.47,743.55,2053.27,739.59,2045.35Z"/><path class="b" d="M750.59,2039.35c-6.44-13.67-27.74-17-37.92-28.7-.71,4.75-1.26,9.6-1.69,14.41,10.12,7.2,23.58,10.23,28.61,20.29,4,7.92,4.4,17.12,3.49,26.52q5.19,4,10.51,7.81C754.88,2065.65,756.3,2051.48,750.59,2039.35Z"/><path class="d" d="M827.3,1991.68a37.11,37.11,0,0,1-7.71,8.67A55,55,0,0,1,799,2011.49c-13.77,4-28.47,2.19-42.6-3-13.65-5-26.77-13.06-38-22.2a130.19,130.19,0,0,0-5.75,24.31c10.18,11.7,31.48,15,37.92,28.7,5.71,12.13,4.29,26.3,3,40.33a493.12,493.12,0,0,0,60.68,36.48c-1-24.76,13.55-50.4,35.32-60.81a59.25,59.25,0,0,1,24.25-4.89C852.73,2017.94,846.13,2009.89,827.3,1991.68Z"/><path class="b" d="M840.59,2075.35c10.2-13.2,26.51-19.91,42.68-19.28-4.86-2.65-8.14-4.23-8.65-4.4l-.78-1.21a59.25,59.25,0,0,0-24.25,4.89c-21.77,10.41-36.36,36.05-35.32,60.81.77.39,1.54.8,2.32,1.19,2.33,1.4,4.72,2.68,7.17,3.88C822.48,2103.85,830.73,2088.8,840.59,2075.35Z"/><path class="c" d="M943.19,2106.25c-8.33-20-43.37-41.21-59.92-50.18-16.17-.63-32.48,6.08-42.68,19.28-9.86,13.45-18.11,28.5-16.83,45.88a129.94,129.94,0,0,0,25.83,9.12,182.57,182.57,0,0,0,18,3.55c27.64,4,59.13,2,78.43-15A36,36,0,0,0,943.19,2106.25Z"/><path class="e" d="M85.26,2019.44c21,19.37,57.61,46.16,112.82,63.83a3,3,0,0,0,3.78-1.94,3,3,0,0,0-2-3.78c-54-17.29-89.84-43.43-110.37-62.32a208.07,208.07,0,0,1-26.06-28.6,42.17,42.17,0,0,0-1.63,7.77A220.27,220.27,0,0,0,85.26,2019.44Z"/><path class="e" d="M247.27,2099.46a3,3,0,0,0-2,5.67c.37.13,31.59,10.86,63.23,18.44q1.89-2.68,3.63-5.3C280.11,2110.75,247.65,2099.59,247.27,2099.46Z"/><path class="e" d="M752.82,2090.06a3,3,0,0,0,1.3-5.71A157.38,157.38,0,0,1,709.71,2052a44.15,44.15,0,0,0,1.39,9.84,162.19,162.19,0,0,0,40.42,27.9A3,3,0,0,0,752.82,2090.06Z"/><path class="e" d="M844.85,2135.94c-26.75-8.25-43.72-21.67-44-21.87a3,3,0,0,0-3.76,4.68c.72.58,17.88,14.22,45.73,22.85a148.83,148.83,0,0,0,44,6.73,145.29,145.29,0,0,0,53.92-10.46,30.21,30.21,0,0,0,3.86-8.15A139.81,139.81,0,0,1,844.85,2135.94Z"/><path class="b" d="M169.35,1985.59s70.53-14.53,78.06-14.06c0,0,6.59,5.59,2.35,10.76l-76.64,14.12S167,1993.59,169.35,1985.59Z"/><path class="a" d="M199,2003.24a4,4,0,0,1-2.15-.63c-5.29-3.37-20.86-15.72-21.52-16.24a4,4,0,0,1,5-6.27c.13.11,11.51,9.14,18,13.78l17.43-20.75a4,4,0,0,1,5.33-.72l24,16.47a4,4,0,0,1-4.53,6.59l-21-14.41-17.43,20.75A4,4,0,0,1,199,2003.24Z"/><path class="a" d="M179.23,2007.47a4,4,0,0,1-3.26-6.32l17.42-24.47a4,4,0,0,1,5.5-1l21.51,14.61,12.86-20.49a4,4,0,1,1,6.77,4.26l-15.06,24a4,4,0,0,1-5.63,1.18l-21.7-14.74-15.15,21.28A4,4,0,0,1,179.23,2007.47Z"/><path class="b" d="M793.35,2004.88s43.77,66.36,52.24,63.53,29-16.74,29-16.74-30.66-53.21-54.55-66.94Z"/><path class="a" d="M832.88,2073.82a4,4,0,0,1-3.27-6.3c5.74-8.16,17.11-24,25.47-33.89-15.36,1.22-37.88,3.46-44.79,6.06a4,4,0,0,1-5.22-5c.35-1.12,8.71-27.44,18.76-45a4,4,0,0,1,6.95,4c-6.6,11.57-12.61,27.59-15.77,36.6,16.87-3.26,48.51-5.27,50.09-5.37a4,4,0,0,1,2,7.57c-3.29,2-18.35,21.71-31,39.67A4,4,0,0,1,832.88,2073.82Z"/><path class="a" d="M820.17,2058.29a4,4,0,0,1-3.22-6.36l27.59-37.62c-10.11-2.78-29.08-7.28-47.92,2.59a4,4,0,1,1-3.71-7.09c22.67-11.88,44.74-5.73,55.34-2.77,1.56.43,2.9.81,3.77,1a4,4,0,0,1,2.44,6.29l-25.54,34.82c12-1.4,32.86-3.27,46.25-1.42a4,4,0,0,1-1.09,7.92c-18.18-2.51-53,2.57-53.32,2.62A3.9,3.9,0,0,1,820.17,2058.29Z"/><rect class="f" width="1262.35" height="2194.12"/></svg>