<svg xmlns="http://www.w3.org/2000/svg" width="1262.35" height="2194.12" viewBox="0 0 1262.35 2194.12"><defs><style>.a,.l{fill:none;}.b{fill:#ffd9ff;}.c{fill:#eda2e6;}.d{fill:#ff6afa;}.e{fill:#fff;}.f{fill:#f4c458;}.g{fill:#ffee8a;}.h{fill:#8f854d;}.i{fill:#883b71;}.j{fill:#c033ad;}.k{fill:#44392e;}.l{stroke:#8f854d;stroke-linecap:round;stroke-miterlimit:10;}</style></defs><title>4_men_shirt_cryptokitties</title><rect class="a" width="1262.35" height="2194.12"/><path class="b" d="M830.06,682.06c-9.55-91.42-103.5-87.89-128.9-87.55h-2.4c-7.67,0-12.55-1.3-15.67-2.95-4.8,4-13.11,9.42-22.8,15.26-12.27,7.39-26.76,15.42-39.17,21.92,0,0-4.88-9.75-10.47-23.33-2.22-5.41-4.55-11.41-6.74-17.66-4.73.49-14.52,1.6-26.77,3.53h0c-16.87,2.66-38.37,6.86-57.66,13.11-39.18,12.71-56.12,50.83-70.94,86.83-7.95,19.29-25.93,36-40.9,47.25a109.25,109.25,0,0,0,4.66,21.16c4.81,14.74,14.18,33,32.41,47,1.78-1,3.52-2.08,5.2-3.1h0c31.58-19.22,44-33.87,44.17-34s12.7,25.41,29.64,81.88c7.15,23.81,5.44,109.71,1.08,201.11,70.92,30.42,170.45,11.36,221.41-33.34l-.59-.87a416.6,416.6,0,0,1-28.77-34.7c-12.71-16.09-31.75-45.47-22.65-68C734.41,816.18,751,741.18,751,741.18c4.86,31.1,9.24,62.77,13.85,89.47a218,218,0,0,0,55.62-5.55,191.41,191.41,0,0,0,23-6.9C838.89,771.8,834.16,721.33,830.06,682.06Z"/><path class="c" d="M493.67,770c-5.33-20.79,3.25-42.35,15.33-60.62-1.31,1.14-41.77,30.54-46.89,86.35C482,782.33,491.7,772.18,493.67,770Z"/><path class="c" d="M749.2,730.17A116.14,116.14,0,0,1,745,742.92c-12.11,30.47-36.85,55-69.76,62.84,13,4.75,27.47.77,40.76-3.23,9.41-2.83,16.54-6.32,21.87-10.44,7.07-23.47,11.12-39.45,12.56-45.37C750.8,745.05,750.53,735.71,749.2,730.17Z"/><path class="d" d="M421.34,727.14c-4.61,4.2-9.29,8-13.71,11.35,1.41,12.41,7.86,45.7,37.07,68.18,1.78-1,3.52-2.08,5.2-3.1h0c4.39-2.67,8.39-5.24,12.05-7.71C442.22,778.25,429.55,753.18,421.34,727.14Z"/><path class="d" d="M761,807.8q1.9,11.66,3.83,22.85c26.57.72,53.69-3.2,78.58-12.45-.73-7.43-1.46-15-2.19-22.55C815.36,805.06,787.8,811.44,761,807.8Z"/><path class="d" d="M613.7,623.47s-7,39.72-9.92,63a6.12,6.12,0,0,0,6.08,6.87h7.87a6.12,6.12,0,0,0,6.08-5.45c1.66-15.38,6.54-58.36,10-64.43l-12.7,5.29Z"/><path class="d" d="M606.65,586.06l14.47,42.7L609.83,625a19.23,19.23,0,0,0-19.31,4.31L571,640.76s-.35-39.52,1.76-50.11S607,567.35,607,567.35Z"/><path class="d" d="M621.12,628.76s50.47-36.35,55.76-45.52V564.53s16.46,9.17,27.61,19A16.35,16.35,0,0,1,709,601.72c-5.85,15.07-17.17,43.58-20.77,48.22l-27.92-18.78a26.28,26.28,0,0,0-20.71-5.43Z"/><circle class="e" cx="619" cy="645.71" r="5.29"/><circle class="e" cx="614.76" cy="679.59" r="5.29"/><path class="c" d="M534.88,1044.41,537,973.12s69.12,72.59,172.17,14.7l22.3,28.06S650.76,1080.88,534.88,1044.41Z"/><path class="b" d="M646.21,703.21l75.17.84-1.46,69.23s-38.27,27.47-74.14-.83Z"/><path class="f" d="M662.48,729.38A104.4,104.4,0,0,0,665,741.45l4.55-4.3A38.53,38.53,0,0,0,662.48,729.38Z"/><path class="g" d="M662.7,727.05c-.3.22-.34,1.1-.22,2.33a38.53,38.53,0,0,1,7,7.77l4.28-4S664,726.13,662.7,727.05Z"/><path class="h" d="M663.05,727c2.16,0,10.74,6.14,10.74,6.14l-4.28,4-4.55,4.3a104.4,104.4,0,0,1-2.48-12.07c-.12-1.23-.08-2.11.22-2.33a.61.61,0,0,1,.35-.08m0-1.82a2.37,2.37,0,0,0-1.47.44c-1.07.75-1.17,2.08-1,4a103.76,103.76,0,0,0,2.54,12.36l.79,3,2.3-2.18,4.55-4.3,4.27-4,1.6-1.5-1.78-1.27c-3.38-2.41-9.4-6.46-11.8-6.49Z"/><path class="f" d="M704.89,729.86a105.53,105.53,0,0,1-3,12l-4.36-4.4A39.18,39.18,0,0,1,704.89,729.86Z"/><path class="g" d="M704.77,727.52c.29.22.29,1.11.12,2.34a39.18,39.18,0,0,0-7.35,7.61l-4.11-4.14S703.51,726.57,704.77,727.52Z"/><path class="h" d="M704.42,727.43a.58.58,0,0,1,.35.09c.29.22.29,1.11.12,2.34a105.53,105.53,0,0,1-3,12l-4.36-4.4-4.11-4.14s8.83-5.92,11-5.9m0-1.81h0c-2.4,0-8.59,3.88-12.07,6.22l-1.83,1.23,1.53,1.53,4.1,4.14,4.37,4.4,2.2,2.22.92-3a103.79,103.79,0,0,0,3.06-12.29c.26-1.89.21-3.22-.82-4a2.39,2.39,0,0,0-1.46-.46Z"/><path class="g" d="M703.32,742.82a21.39,21.39,0,0,0-19.86-13,21.89,21.89,0,0,0-20.39,12.52s-6,9.62-9.26,11.15c0,0,7,3.82,10.11,7s10.07,8.26,18.72,8.35,15.86-4.89,19.06-7.92,10.4-6.76,10.4-6.76C708.93,752.57,703.32,742.82,703.32,742.82Z"/><path class="h" d="M684,729.84a21.42,21.42,0,0,1,19.28,13s5.61,9.75,8.78,11.35c0,0-7.13,3.67-10.4,6.76s-10.42,8-19.06,7.92-15.64-5.24-18.72-8.35-10.11-7-10.11-7c3.24-1.53,9.26-11.15,9.26-11.15a22,22,0,0,1,19.82-12.55l.57,0a3.93,3.93,0,0,1,.58,0m0-1.82h-.58l-.58,0a23.87,23.87,0,0,0-21.48,13.5c-2.39,3.8-6.55,9.49-8.42,10.37l-3.22,1.52,3.09,1.7c.07,0,6.77,3.74,9.68,6.67,4.21,4.24,11.68,8.8,20,8.9s16-4.3,20.39-8.44c3-2.88,9.9-6.42,10-6.46l3.16-1.63L713,752.55c-1.83-.92-5.75-6.7-8-10.56a23.36,23.36,0,0,0-20.91-14Z"/><path class="d" d="M653.47,702.38a8.08,8.08,0,0,0-8.24,7.91l-.39,62.6.35.27a57.9,57.9,0,0,0,35.84,13,64,64,0,0,0,15.48-1.77,73.15,73.15,0,0,0,24-10.35l.38-.26L722.17,711a7.89,7.89,0,0,0-7.91-8ZM646.71,772l.3-48.42a5.36,5.36,0,0,1,5.47-5.25l62.29.7a5.23,5.23,0,0,1,5.25,5.29l-1,48.47C715,775.49,679.67,797.66,646.71,772Z"/><path class="i" d="M679.92,757.29s-.09,4.41,3.28,4.2,3.12-3.89,3.12-3.89-3-.35-3.32-2.44A3.53,3.53,0,0,1,679.92,757.29Z"/><ellipse class="e" cx="671.18" cy="744.42" rx="7.13" ry="6.94" transform="translate(-120.61 129.84) rotate(-10.14)"/><ellipse class="j" cx="671.1" cy="742.92" rx="4.93" ry="4.8" transform="translate(-120.35 129.81) rotate(-10.14)"/><ellipse class="k" cx="671.39" cy="741.76" rx="3.01" ry="2.94" transform="translate(-120.14 129.84) rotate(-10.14)"/><ellipse class="e" cx="669.02" cy="741.36" rx="2.3" ry="2.24" transform="matrix(0.98, -0.18, 0.18, 0.98, -120.11, 129.42)"/><path class="h" d="M671.33,737.48a6.94,6.94,0,0,1,7,7,7.11,7.11,0,0,1-7.26,6.86,6.94,6.94,0,0,1-7-7,7.12,7.12,0,0,1,7.27-6.86m0-.91a8.07,8.07,0,0,0-8.22,7.76,7.87,7.87,0,0,0,7.89,7.94,8.06,8.06,0,0,0,8.21-7.76,7.86,7.86,0,0,0-7.88-7.94Z"/><ellipse class="e" cx="695.28" cy="744.48" rx="7.13" ry="6.94" transform="translate(-120.25 134.09) rotate(-10.14)"/><ellipse class="j" cx="695.2" cy="742.98" rx="4.93" ry="4.8" transform="translate(-119.99 134.05) rotate(-10.14)"/><ellipse class="k" cx="695.49" cy="741.82" rx="3.01" ry="2.94" transform="translate(-119.78 134.08) rotate(-10.14)"/><ellipse class="e" cx="693.12" cy="741.42" rx="2.3" ry="2.24" transform="translate(-119.74 133.66) rotate(-10.14)"/><path class="h" d="M695.43,737.53a7,7,0,0,1,7,7,7.13,7.13,0,0,1-7.27,6.86,7,7,0,0,1-7-7,7.13,7.13,0,0,1,7.27-6.87m0-.91a8.07,8.07,0,0,0-8.22,7.77,7.86,7.86,0,0,0,7.88,7.94,8.06,8.06,0,0,0,8.22-7.76,7.88,7.88,0,0,0-7.88-8Z"/><path class="h" d="M682.15,749l2.1,0a1,1,0,0,1,.79,1.62l-1.12,1.39a1,1,0,0,1-1.66,0l-1-1.42A1,1,0,0,1,682.15,749Z"/><path class="l" d="M674.92,752.74s-.91,4.47,4.34,4.7C684,757.65,683,752,683,752"/><path class="l" d="M691.18,752.93s.72,4.48-4.54,4.59c-4.76.11-3.49-5.57-3.49-5.57"/><path class="l" d="M679.94,757.77c.09,1.14.58,3.88,3.26,3.72,3.37-.2,3.12-3.89,3.12-3.89"/></svg>