<svg xmlns="http://www.w3.org/2000/svg" width="1262.35" height="2194.12" viewBox="0 0 1262.35 2194.12"><defs><style>.a{fill:#5b758a;}.b{fill:#1f1f1f;}.c{fill:#3e4852;}.d{fill:#fff;}.e{fill:#3e5566;}.f{fill:#343f4a;}.g{fill:none;}</style></defs><title>4_men_shirt_2</title><path class="a" d="M456.7,652.2q-3.81-11-7.88-21.94c-28.33,25-53.66,58.55-64.88,73-5.88,7.56-20,21.27-34.61,34.81l11.34,14A1024.47,1024.47,0,0,0,456.7,652.2Z"/><path class="a" d="M469.7,693.71c-2.86-10.28-6-20.5-9.34-30.64-30.06,33.46-62.17,64.39-93.54,96.51L413,816.41c51-43.15,67.37-61.82,69.51-64.34A509.52,509.52,0,0,0,469.7,693.71Z"/><path class="b" d="M456.7,652.2a1024.47,1024.47,0,0,1-96,99.82l6.15,7.56c31.37-32.12,63.48-63.05,93.54-96.51Q458.56,657.63,456.7,652.2Z"/><path class="c" d="M814.88,624.53c-36-19.06-39.18-13.77-76.23-14.82a250.48,250.48,0,0,1-36.19-3.63c-15.4,20.06-64.4,49.92-64.4,49.92l-54.49-48.66a78.9,78.9,0,0,1-19.48-.24l-50.27-6.92c-20.13-3-43.43,11-65,30.08,14.75,39.57,27.22,80.17,33.69,121.81.17-.2.25-.31.25-.31,4.24,19.06,36.71,185.83,43.77,232.42,4.14,27.36-21.46,101.71-29,122.81,19.81,5.56,159.4,41.83,284.49-3.1-.64-6-1-9.24-1-9.24-4.24-22.24-15.88-121.77,2.12-218.12C796.3,806,808.88,739.94,808.88,739.94l1.21.85c5-34.21,14.27-68.84,31.68-99.24C831.22,634.25,821.86,628.22,814.88,624.53Z"/><path class="a" d="M928.3,706.94c-22.69-18-58.75-46.16-86.53-65.39q-3,5.19-5.63,10.55c28.48,21.58,57.41,42.75,85.53,65.17C923.77,713.74,926,710.28,928.3,706.94Z"/><path class="b" d="M836.14,652.1q-2.58,5.21-4.9,10.54c28.41,21.3,57.63,41.78,85.24,63.89,1.64-3.13,3.38-6.22,5.19-9.26C893.55,694.85,864.62,673.68,836.14,652.1Z"/><path class="a" d="M820.47,692.36a346.84,346.84,0,0,0-10.38,48.43c37.38,26.18,59.75,36.07,83.5,55.62,1.31-15.49,9.14-43.74,22.89-69.88-27.61-22.11-56.83-42.59-85.24-63.89A256.4,256.4,0,0,0,820.47,692.36Z"/><path class="b" d="M629.47,649.88c2.12,1.41,8.59,6.12,8.59,6.12l10.29-6.12,1.46,64.24a9.82,9.82,0,0,1-9.52,9.88h0a9.82,9.82,0,0,1-10.1-9.41Z"/><path class="d" d="M601.23,602.29,638.06,656l-24.71-6.41-36,20.47s-5.78-58.9-4.76-63.94c2.67-13.28,28.06-27.83,28.06-27.83Z"/><path class="d" d="M638.06,656,678,599.47l-1.35-24.71s21.57,20.73,25.81,31.32l-6.52,65.39-31.77-22.59Z"/><circle class="d" cx="640.17" cy="666.53" r="5.65"/><circle class="d" cx="640.17" cy="710.29" r="5.65"/><path class="e" d="M413,816.41c25.29-19.29,50.94-42.06,69.76-64.65-8.82-46-12.92-53.86-13.06-58,2.12,28.94-6,58.94-6,58.94C447,774.66,424.32,802.51,413,816.41Z"/><path class="e" d="M820.47,692.36c-6.88,20.76-7.82,29.23-11.36,47.71,8.24,6.93,54.12,40.11,84.48,56.34-12.18-9.85-51-51.82-62.12-62.82C828.18,730.33,821.59,708.41,820.47,692.36Z"/><path class="f" d="M539.73,978c.23,1.45.45,2.83.64,4.1,2.1,13.83-1.33,36.59-10.47,69.59-4.65,16.79-9.91,33.09-14.14,45.53a573.46,573.46,0,0,0,127.52,14.88c45.08,0,86.54-6,123.43-17.78-2.85-16.52-6.88-51.65-7.35-95C643.28,1112.08,560.41,1032.18,539.73,978Z"/><path class="b" d="M893.59,796.41c1.65-19.49,13.61-59.18,34.71-89.47-6.27-5-13.56-10.73-21.41-16.85-18.31,26.56-32.17,60.91-38.72,92.2C876.62,787.75,886.53,792.18,893.59,796.41Z"/><path class="b" d="M369,719.29c-5.9,5.84-12.73,12.32-19.68,18.76L413,816.41c7.33-6.21,14.95-10.9,20.91-16.12-19.86-22.16-38.65-46.93-57.32-72.94C374.15,724.57,371.6,721.91,369,719.29Z"/><path class="c" d="M788,850.49c1.78-9.46,3.51-18.68,5.17-27.51-50.93-7.66-178.83-22.57-296.46-1.11,1.81,9.34,3.7,19.15,5.62,29.16C550.6,845.54,662.54,836.38,788,850.49Z"/><path class="a" d="M793.16,823c2.49-13.21,4.82-25.55,6.88-36.45-141.29-17.77-268.06-5.19-310.23.09,2.05,10.35,4.39,22.34,6.89,35.25C614.33,800.41,742.23,815.32,793.16,823Z"/><path class="a" d="M788,850.49c-125.45-14.11-237.39-5-285.67.54,2.32,12.11,4.68,24.5,7,36.71,114.09-13.48,218.66-6,271.88-.14q.92-5.54,1.94-11.07C784.76,867.74,786.39,859,788,850.49Z"/><rect class="g" width="1262.35" height="2194.12"/></svg>