<svg xmlns="http://www.w3.org/2000/svg" width="1262.35" height="2194.12" viewBox="0 0 1262.35 2194.12"><defs><style>.a{fill:#4b1c5c;}.b{fill:#8946a1;}.c{fill:#6a2782;}.d{fill:#0f454e;}.e{fill:#561c6b;}.f{fill:#4b9e9b;}.g{fill:#fff;}.h{fill:none;}</style></defs><title>4_men_pant_9</title><path class="a" d="M528.39,1114.3c-15.5-3.15-26.33-6-30.87-7.31-1.28,3.6-2,5.66-2,5.66-7.61,20.12-16.63,46.72-26.36,77C499.49,1178.81,522.91,1146.66,528.39,1114.3Z"/><path class="b" d="M544.59,1117.35c-5.84-1-11.27-2-16.2-3-5.48,32.36-28.9,64.51-59.28,75.35q-3.12,9.7-6.33,19.88C503.84,1195.35,534.35,1160.25,544.59,1117.35Z"/><path class="b" d="M358.53,1570.06c36.88,15.12,141.11,44.11,180,46.59,0-1.71,2-10.8,5.51-25.09-61.41-4.07-121.84-22.61-179.56-43.85C361,1560.49,358.89,1568.44,358.53,1570.06Z"/><path class="c" d="M838.63,1587.07C832,1523.53,814.72,1354,800.4,1233c-42.49-20.79-68.08-68.52-73.8-114.27-69.76,13-137.93,6.28-182-1.38-10.24,42.9-40.75,78-81.81,92.18-37.28,118.28-82.3,279.38-98.3,338.18C422.2,1569,482.63,1587.49,544,1591.56c20.69-84.82,92.61-353.27,92.61-353.27,2.41,38.67,10.66,289.69,12.42,363.59C712.18,1608.5,776.08,1599.8,838.63,1587.07Z"/><path class="b" d="M649.07,1601.88c.3,12.45.41,19.88.28,20.41,38.14,11.15,152.27-2,192-9.88-.14-.63-1.11-9.83-2.72-25.34C776.08,1599.8,712.18,1608.5,649.07,1601.88Z"/><path class="a" d="M798.16,1214.29c-6.77-56-12.68-98.66-16.15-110.4a350.67,350.67,0,0,1-43.46,12.41C746.55,1154.75,766.16,1192.74,798.16,1214.29Z"/><path class="b" d="M738.55,1116.3c-4,.87-8,1.69-11.95,2.43,5.72,45.75,31.31,93.48,73.8,114.27q-1.14-9.57-2.24-18.71C766.16,1192.74,746.55,1154.75,738.55,1116.3Z"/><path class="d" d="M649.38,1244.62c-.12-1.46-.23-2.91-.33-4.37-4.2-.31-8.35-.9-12.31-1.54.35,1.56.77,3.58,1.25,6A57,57,0,0,0,649.38,1244.62Z"/><path class="e" d="M648.72,1235.22c-2.26-36.57-1-72.64-2.23-109.16q-10.2.07-20-.25c-.4,38.37-1.11,73.31-1.46,115,5.19,2.39,3.15,2.55,9,3.47,1.12-2.52,1.9-4.29,2.31-5.2.77,3.06,1.67,5.68,1.67,5.68.42,2.18.9,4.68,1.41,7.5,11.92-2.87,41.13-13.14,50.54-21C683.92,1232.41,659.55,1235.22,648.72,1235.22Z"/><path class="e" d="M636.65,1238.29c-29.77-12.34-45.89-14.82-81.89-36-2.49-1.46,24.09,27,42,40.15,8.29,6.07,9.62,16.25,8.85,26.49-2.85,37.83-8.19,126-23.85,176.19C612.65,1353.35,628.88,1268.65,636.65,1238.29Z"/><path class="f" d="M497.52,1107c-1.28,3.6-2,5.66-2,5.66-2.57,6.79-5.2,14.19-7.89,22.11a395.86,395.86,0,0,0,50.86,13.47c1.77-10.46,3.24-20.82,5.69-31C520.22,1113.1,503.47,1108.66,497.52,1107Z"/><path class="c" d="M544.13,1117.27c-2.45,10.14-3.92,20.5-5.69,31q7.68,1.55,16,3c1.57-10.45,3.56-20.9,5.63-31.35C554.49,1119,549.15,1118.15,544.13,1117.27Z"/><path class="f" d="M612,1125.16c-19-1.09-36.46-3.06-51.85-5.32-2.07,10.45-4.06,20.9-5.63,31.35a543.85,543.85,0,0,0,54.75,6.39C610,1146.8,611.18,1136,612,1125.16Z"/><path class="g" d="M612,1125.16c-.77,10.79-2,21.64-2.73,32.42a531,531,0,0,0,54.37.8v-32.71C645.61,1126.39,628.25,1126.1,612,1125.16Z"/><path class="f" d="M663.59,1125.67v32.71a493.22,493.22,0,0,0,56.86-5.36c-1.2-10.88-2.56-21.76-3.37-32.64A449.43,449.43,0,0,1,663.59,1125.67Z"/><path class="c" d="M717.08,1120.38c.81,10.88,2.17,21.76,3.37,32.64q7.6-1.17,15.29-2.62a268,268,0,0,0-4.82-32.52C726.3,1118.79,721.68,1119.64,717.08,1120.38Z"/><path class="f" d="M782,1103.89a355.43,355.43,0,0,1-51.09,14,268,268,0,0,1,4.82,32.52,442.26,442.26,0,0,0,52.6-13.2C786.47,1123.24,784.37,1111.87,782,1103.89Z"/><path class="b" d="M779,1425.38c-2.31-19.76-3.78-34.83-3.13-36.74,1.5-4.45,28.79-5.46,41.31-5.69,3.52-.06,6.7,3.5,7.34,8.21.86,6.31,2.13,15.81,3.52,26.93C812.65,1425.81,795.66,1426,779,1425.38Z"/><path class="b" d="M829.62,1430.85c4.9,40.79,10.13,93.72,5.19,100-8.15,10.3-41.18,7.29-41.86,2.16-.93-7-7.74-56.56-12.52-95.74C797.29,1437.45,814.36,1437.66,829.62,1430.85Z"/><path class="a" d="M780.43,1437.24c-.5-4.09-1-8.06-1.42-11.86,16.65.62,33.64.43,49-7.29.51,4.06,1,8.34,1.57,12.76C814.36,1437.66,797.29,1437.45,780.43,1437.24Z"/><path class="b" d="M439.61,1404.47c6.08-19,10.45-33.45,10.26-35.42-.43-4.59-24.57-10-35.7-12.22-3.13-.63-6.69,2.34-8.22,6.84-2.05,6-5.11,15.11-8.61,25.76C409.52,1399.46,424.63,1402.39,439.61,1404.47Z"/><path class="b" d="M393.35,1401.65c-12.65,39.08-28.07,90-24.93,96.89,5.18,11.38,35.26,13.77,36.91,8.86,2.24-6.66,18.39-54.05,30.61-91.58C420.85,1413.31,405.58,1410.77,393.35,1401.65Z"/><path class="a" d="M435.94,1415.82c1.27-3.91,2.5-7.71,3.67-11.35-15-2.08-30.09-5-42.27-15-1.28,3.88-2.62,8-4,12.22C405.58,1410.77,420.85,1413.31,435.94,1415.82Z"/><rect class="h" width="1262.35" height="2194.12"/></svg>