<svg xmlns="http://www.w3.org/2000/svg" width="1262.35" height="2194.12" viewBox="0 0 1262.35 2194.12"><defs><style>.a{fill:#fff;}.b{fill:#187296;}.c{fill:#ff9b3d;}.d{fill:#424242;}.e{fill:#ffdc5e;}.f{fill:none;}</style></defs><title>4_men_drivers_3</title><path class="a" d="M323.57,604l-25.64,4.48,2.54,15.38,25-4.23A40.68,40.68,0,0,1,323.57,604Z"/><path class="b" d="M600.88,568.88c-5.81-4.38-9.9-6.7-14.82-10.59C482.18,576.58,473.23,577.92,323.57,604a40.68,40.68,0,0,0,1.92,15.63c47-8,154.5-26.28,275.39-47.7C600.7,571.81,601.06,569,600.88,568.88Z"/><path d="M1137.92,461.35l-80.79,14.13c1.43,6.61,0,11.07-5.07,11.58,0,0,.13,1,.24,2.66,51.7-9.62,84.18-16,85-17C1142.56,466.67,1137.92,461.35,1137.92,461.35Z"/><path class="a" d="M951,494l-16.35,2.86A94,94,0,0,0,939,510.45l15.34-2.78A122.2,122.2,0,0,1,951,494Z"/><path class="b" d="M927.9,498.07c-51.12,8.93-127.88,22-195.72,33.87-6.95,5.53-15.3,11.53-26.12,19.3,77.79-13.85,159.44-27.49,227.34-39.77l5.6-1a94,94,0,0,1-4.36-13.56Z"/><path class="c" d="M1023.51,482.24c-.37-.22-.73-.44-1.11-.69,0,0-1.28,16.51-17.5,3.06,0,0,.92,15.8-18.76,3.28L951,494a122.2,122.2,0,0,0,3.35,13.64c25.92-4.7,50.07-9.11,71.75-13.1C1025.07,490.51,1024.24,486.39,1023.51,482.24Z"/><path class="a" d="M1057.13,475.48l-.11,0c-.35,2.65-1.56,4.91-3.43,5.85-4.51,3-12.94-3.76-12.94-3.76-.46,2.18-1.38,14.24-17.14,4.65.73,4.15,1.56,8.27,2.58,12.33l26.21-4.85c-.11-1.7-.24-2.66-.24-2.66C1057.14,486.55,1058.56,482.09,1057.13,475.48Z"/><path d="M244.76,603.35l.27-.06,52.9,5.2,2.54,15.38-46.77,24C245.34,635,241.49,618.69,244.76,603.35Z"/><path class="d" d="M250.14,625.57l44-8.07-.16-5.42-44.21-3.23S247.41,617.27,250.14,625.57Z"/><path class="c" d="M1100.79,481.06s-108.5-30.27-98.27-103.21,76.18-87.21,118.75-72.88c23.19,7.81,53.66,35.14,49.92,88.83-4.31,61.89-33.85,78.92-33.85,78.92Z"/><path d="M1034,445.06c-12.79-12.31-19.9-32-4.38-56.81,11-17.53,28.19-30.73,59.14-33.35,18.63-1.58,42.54,5.18,62.77,24.09a52.33,52.33,0,0,1,16.81,39.34,2.17,2.17,0,0,0,0,.26c-8.33,41.19-31,54.13-31,54.13l-36.55,8.34S1063.14,470.8,1034,445.06Z"/><path class="a" d="M1062.38,386.64a91.3,91.3,0,0,1,14-4.82,3.35,3.35,0,0,1,4,2.23c5.16,16.43,18.46,57.78,28.57,81.29a3.33,3.33,0,0,1-2.86,4.65h0a3.37,3.37,0,0,1-2.9-1.35c-15.33-20.55-35-61.32-42.53-77.54A3.32,3.32,0,0,1,1062.38,386.64Z"/><path class="a" d="M1117.85,382.85l2,83.39a3.05,3.05,0,0,1-2.85,3.11h0a3,3,0,0,1-3.17-2.45l-16.69-84.37a3,3,0,0,1,3-3.64,127.74,127.74,0,0,1,15.05,1A3.07,3.07,0,0,1,1117.85,382.85Z"/><path class="a" d="M1146.22,386.32c1.7,21.43-9.57,61.67-16.11,80.44a3.22,3.22,0,0,1-2.9,2h0c-2.09.14-3.72-1.41-3.28-3.12,7.24-28,7.53-62.13,7-80.05,0-1.67,1.76-3,3.75-2.75,3.4.43,6.69.85,8.93,1.16A2.77,2.77,0,0,1,1146.22,386.32Z"/><path class="a" d="M1091.58,470.24c-39.44-29-52.61-53.62-55.47-59.81a2.66,2.66,0,0,1,.35-2.8,62.53,62.53,0,0,1,6.83-7.1,2.69,2.69,0,0,1,4.15.7c7.46,13.68,24.52,42.32,47.61,64.93a2.68,2.68,0,0,1-1.7,4.6h0A2.68,2.68,0,0,1,1091.58,470.24Z"/><path class="e" d="M1080.55,306.31s-9.76,21.24-9.52,43.87c0,0-53.14,8.85-57.62,63.68C1013.41,413.86,987.35,328.71,1080.55,306.31Z"/><path class="c" d="M227.49,606.69l-50.63,9.81c1.75,4,6.61,17.56,6.61,17.56l-.1-.24c-.37,11.06-10.19,30.24-10.19,30.24l62.45-12.59A126.64,126.64,0,0,1,227.49,606.69Z"/><path class="a" d="M244.76,603.35l-17.27,3.34a126.64,126.64,0,0,0,8.14,44.78l18.07-3.65C245.34,635,241.49,618.69,244.76,603.35Z"/><path class="c" d="M156.82,620.22l-5.12.9c-.47,2.49-7.52,32.23-16.77,35.87h0c-9.22-1.75-7.58-19-5-31.77l-2.9.54c-3.79,9.84-7.22,21-10.61,26.65a24.7,24.7,0,0,1-3.87,5.79c2.49,8.5,6.71,15.53,11.43,16.07l.11,0a46.1,46.1,0,0,1,11.21-14.33l.48-.42c5.43-4.54,13.74-11.63,26.17-22.62C161.94,636.88,158.84,627.92,156.82,620.22Z"/><path class="a" d="M403.87,601.25l-6.39-6.67,2.79-.44,3,3.4c.75.84,1.45,1.69,1.93,2.35h.06a17,17,0,0,1,1.25-2.87l2.12-4.22,2.76-.45,3.1,3.41a16,16,0,0,1,1.83,2.34h.06a29,29,0,0,1,1.22-2.85l2.1-4.22,2.69-.43L417.85,599l-2.76.44L411.88,596a11.4,11.4,0,0,1-1.72-2.24h-.06a13.36,13.36,0,0,1-1.19,2.71l-2.28,4.37Z"/><path d="M427.61,589.74l1.21,7.5-2.64.43-1.2-7.5Z"/><path class="a" d="M433.43,596.5l-1.21-7.5,2.88-.46,7.16,2.74a32.17,32.17,0,0,1,4.06,1.85l.06,0a12.33,12.33,0,0,1-.8-3l-.51-3.14,2.49-.4,1.21,7.5-2.67.43-7.1-2.76a37.25,37.25,0,0,1-4.22-1.89l-.09,0a19.06,19.06,0,0,1,.71,3.06l.51,3.21Z"/><rect class="f" width="1262.35" height="2194.12"/></svg>