<svg xmlns="http://www.w3.org/2000/svg" width="1262.35" height="2194.12" viewBox="0 0 1262.35 2194.12"><defs><style>.a{fill:#363636;}.b{fill:#a5c921;}.c{fill:#6ea31a;}.d{fill:#0f454e;}.e{fill:#598515;}.f{fill:#e3e3e3;}.g{fill:#525252;}.h{fill:#517813;}.i{fill:none;}</style></defs><title>4_men_pant_5</title><path class="a" d="M807.3,1860.33c.32-15.14,2.29-36.15,2.29-36.15l-97.41,4.23s2.5,16,3.72,30.89A332.65,332.65,0,0,0,807.3,1860.33Z"/><path class="b" d="M807.3,1860.33a332.65,332.65,0,0,1-91.4-1,128.38,128.38,0,0,1,.51,17.82s-2.12,13.76,4.24,13.76c0,0,47.64,11.65,81.53-4.23,0,0,6.35-3.18,5.29-15.89C807.24,1868.07,807.21,1864.41,807.3,1860.33Z"/><path class="b" d="M317.18,1818.24s-8.48,13.76-1.06,20.11c0,0,53,35.59,100.64,32.41,0,0,11.65-5.29,11.65-15.88,0-2.06.85-5.06,2.22-8.54-39.13-4-77.91-14.27-111.93-33.34Z"/><path class="a" d="M332.06,1767l-13.36,46c34,19.07,72.8,29.31,111.93,33.34,5.62-14.36,20-37,20-37Z"/><path class="b" d="M776.59,1226.35q10.78,6.48,21.13,13.69c-3.64-61.39-8.87-113-15.71-136.15a352.33,352.33,0,0,1-45.85,12.94c.87,26.39,2.16,53.05,3.89,79.46A180.06,180.06,0,0,0,776.59,1226.35Z"/><path class="b" d="M539.41,1116.43c-21.39-3.92-36.34-7.88-41.89-9.44-1.28,3.6-2,5.66-2,5.66-11.21,29.65-23.72,70.89-36.13,116.42,18.77-6.91,37.72-14.47,55.2-24.47C527.57,1176.64,534,1146.61,539.41,1116.43Z"/><path class="c" d="M820.18,1745.82c-4.11-56.09-7-131.94-14.53-154.58-3.32-10-.74-89.37-2-182.11-.79-55.61-2.74-116-5.89-169.09q-10.34-7.18-21.13-13.69a180.06,180.06,0,0,1-36.54-30.06c-1.73-26.41-3-53.07-3.89-79.46-75.83,16.11-151,8-196.75-.4-5.46,30.18-11.84,60.21-24.87,88.17-17.48,10-36.43,17.56-55.2,24.47-36,132.21-71.16,300.62-71.16,326.87,0,10.19-21.39,71.9-42.36,128.47-16.51,44.55-39.77,97.68-19.06,102.71,19.06,15.88,91.06,37.06,117.53,36,30.09-7.26,51.66-82.74,56.12-142.94,3.32-44.74-3.51-85,.71-107.3,9.88-52.23,135.53-334.59,135.53-334.59C645.12,1275,693,1589.82,693,1589.82c-15,45-4.12,136.94-2,213.18.43,15.49,25.41,33.88,25.41,33.88,37.66,6.85,58.73,4.24,96.77-3.41C827.57,1824.34,823.62,1792.92,820.18,1745.82Z"/><path class="d" d="M649.38,1244.62c-.12-1.46-.23-2.91-.33-4.37-4.2-.31-8.35-.9-12.31-1.54.35,1.56.77,3.58,1.25,6A57,57,0,0,0,649.38,1244.62Z"/><path class="a" d="M529.72,1114.57c-16.21-3.26-27.53-6.27-32.2-7.58-1.28,3.6-2,5.66-2,5.66-9.73,25.73-20.43,60.18-31.2,98.59,13.5-5.73,27.8-10.35,40.22-17.54C512.05,1167.1,518.64,1139.51,529.72,1114.57Z"/><path class="a" d="M795.58,1220c-3.13-52.41-7.48-95.48-13.57-116.07-10.37,3.72-20.83,6.88-31.32,9.55q.55,38.3,4.14,76.59C767.11,1201.66,781.09,1211.24,795.58,1220Z"/><path class="b" d="M646.49,1126.06q-10.2.07-20-.25c-.4,37.87-1.09,72.42-1.45,113.36,8.21-.34,16.36-1.37,23.69-4.41C646.48,1198.35,647.76,1162.43,646.49,1126.06Z"/><path class="e" d="M648.72,1235.22c0-.16,0-.31,0-.46-7.33,3-15.48,4.07-23.69,4.41,0,.54,0,1.06,0,1.59,5.19,2.39,3.15,2.55,9,3.47,1.12-2.52,1.9-4.29,2.31-5.2.77,3.06,1.67,5.68,1.67,5.68.42,2.18.9,4.68,1.41,7.5,11.92-2.87,41.13-13.14,50.54-21C683.92,1232.41,659.55,1235.22,648.72,1235.22Z"/><path class="e" d="M636.65,1238.29c-29.77-12.34-45.89-14.82-81.89-36-2.49-1.46,24.09,27,42,40.15a24.07,24.07,0,0,1,8.85,26.49c-15.76,51.39-34.15,106.92-49.81,157.08C587.41,1349.91,626,1262.31,636.65,1238.29Z"/><path class="e" d="M399.17,1581.11c1,11.52,5.42,22.39,14.42,26.24,10.24,3.42,18.3-12.12,20.44-25.45a4,4,0,0,0-5.14-4.48c-7.46,2.12-16.72,2.71-24.08-.36A4,4,0,0,0,399.17,1581.11Z"/><path class="e" d="M753,1594.82a4.3,4.3,0,0,0-5,5.68c3.59,9.85,9.3,18.46,18.64,22.85,14.66,6.52,20-11.52,22.6-26a4.27,4.27,0,0,0-5.87-4.69C774.26,1596.63,763.11,1597.19,753,1594.82Z"/><path class="f" d="M497.52,1107c-1.28,3.6-2,5.66-2,5.66-2.57,6.79-5.2,14.19-7.89,22.11a395.86,395.86,0,0,0,50.86,13.47c1.77-10.46,3.24-20.82,5.69-31C520.22,1113.1,503.47,1108.66,497.52,1107Z"/><path class="g" d="M544.13,1117.27c-2.45,10.14-3.92,20.5-5.69,31q7.68,1.55,16,3c1.57-10.45,3.56-20.9,5.63-31.35C554.49,1119,549.15,1118.15,544.13,1117.27Z"/><path class="f" d="M612,1125.16c-19-1.09-36.46-3.06-51.85-5.32-2.07,10.45-4.06,20.9-5.63,31.35a543.85,543.85,0,0,0,54.75,6.39C610,1146.8,611.18,1136,612,1125.16Z"/><path d="M612,1125.16c-.77,10.79-2,21.64-2.73,32.42a531,531,0,0,0,54.37.8v-32.71C645.61,1126.39,628.25,1126.1,612,1125.16Z"/><path class="f" d="M663.59,1125.67v32.71a493.22,493.22,0,0,0,56.86-5.36c-1.2-10.88-2.56-21.76-3.37-32.64A449.43,449.43,0,0,1,663.59,1125.67Z"/><path class="g" d="M717.08,1120.38c.81,10.88,2.17,21.76,3.37,32.64q7.6-1.17,15.29-2.62a268,268,0,0,0-4.82-32.52C726.3,1118.79,721.68,1119.64,717.08,1120.38Z"/><path class="f" d="M782,1103.89a355.43,355.43,0,0,1-51.09,14,268,268,0,0,1,4.82,32.52,442.26,442.26,0,0,0,52.6-13.2C786.47,1123.24,784.37,1111.87,782,1103.89Z"/><path class="a" d="M768.52,1445.12c-1.09-17.92-1.62-31.57-.85-33.27,1.8-4,29.46-3.77,42.14-3.47,3.55.09,6.55,3.43,6.9,7.7.47,5.73,1.14,14.34,1.85,24.43C802.49,1446.86,785.31,1446.35,768.52,1445.12Z"/><path class="h" d="M819.34,1452.09c2.36,37,4.3,84.94-1.09,90.37-8.9,9-42.1,4.93-42.46.27-.5-6.32-4.25-51.33-6.59-86.86C786.23,1456.74,803.47,1457.62,819.34,1452.09Z"/><path class="b" d="M769.2,1455.87c-.24-3.71-.47-7.31-.68-10.75,16.79,1.23,34,1.74,50-4.61.26,3.68.52,7.57.78,11.58C803.47,1457.62,786.23,1456.74,769.2,1455.87Z"/><path class="a" d="M446.06,1434.69c4.8-17.3,8.18-30.54,7.82-32.35-.84-4.22-26.67-9.4-38.55-11.57-3.34-.61-6.84,2.07-8.07,6.18-1.64,5.51-4.1,13.79-6.89,23.51C414,1429.78,430.15,1432.62,446.06,1434.69Z"/><path class="h" d="M397.2,1431.62c-10,35.68-22,82.17-18.08,88.52,6.4,10.49,38.22,13,39.54,8.51,1.79-6.08,14.8-49.33,24.49-83.6C427.09,1442.6,410.83,1440.11,397.2,1431.62Z"/><path class="b" d="M443.15,1445.05c1-3.57,2-7,2.91-10.36-15.91-2.07-32.05-4.91-45.69-14.23-1,3.55-2.08,7.29-3.17,11.16C410.83,1440.11,427.09,1442.6,443.15,1445.05Z"/><rect class="i" width="1262.35" height="2194.12"/></svg>