<svg xmlns="http://www.w3.org/2000/svg" width="1262.35" height="2194.12" viewBox="0 0 1262.35 2194.12"><defs><style>.a{fill:#2a3612;}.b{fill:#354417;}.c{fill:#1e260d;}.d{fill:#556635;}.e{fill:none;}</style></defs><title>4_men_hair_2</title><path class="a" d="M585.59,325.35v-50c-18,17-29,38-42,58-4-16-3-32-4-48-19,22-31,50-44,76-7-17-2-36-7-53-13.06,27-27.63,52.46-39.76,79.06,3.83-3.46,16.41-15,20.87-21.23,0,0,5.3,24.23,10.59,40.11,0,0,11.65-21.05,28.59-5.17,0,0,11.65-59.3,21.18-78.36l6.35,36s31.77-44.47,37.06-52.94l-2.12,41.3s41.26-35.8,55.5-61.71C614.69,300.54,603.36,316.89,585.59,325.35Z"/><path class="b" d="M681.59,268.35c15,18,33,34,44,55-2-12,4-23,3-35,19,22,33,48,52,70,2-17,9-33,10-50A223.4,223.4,0,0,1,832.77,368l1.17,1.32S803.23,152.29,687.82,155.47l28.59-14.82s-27.53-16.94-64.59,5.29c0,0-47.64-20.12-85.76-11.65,0,0,11.64,12.71,16.94,17s-146.94-5.3-135.3,237.17l1.13-1c12.13-26.6,26.7-52.07,39.76-79.06,5,17,0,36,7,53,13-26,25-54,44-76,1,16,0,32,4,48,13-20,24-41,42-58v50c17.77-8.46,29.1-24.81,41.26-39.94a42.79,42.79,0,0,0,4.15-9.94s.64,1,1.84,2.74l.75-.86-.75.86A338.91,338.91,0,0,0,655.05,307c9.71,7.62,21.06,13.86,29.54,22.33C683.59,309.35,686.59,288.35,681.59,268.35Z"/><path class="a" d="M832.77,368a223.4,223.4,0,0,0-42.18-59.68c-1,17-8,33-10,50-19-22-33-48-52-70,1,12-5,23-3,35-11-21-29-37-44-55,5,20,2,41,3,61-8.48-8.47-19.83-14.71-29.54-22.33,11.55,13.4,26.15,28,41.24,36.92l-6.35-45.53s21.18,36,48.71,62.47l2.11-36s16.36,44.71,33.3,74.36c0,0,17.41-14.36,26,11.41,0,0,13.76-45.53,10.59-67.77Z"/><path class="c" d="M493.12,465.53s18.94,20.35,33.76,19.29c0,0,6.24,25.12,8.35,28.3l-6.35,14.12L517.12,507l-10.83,7.06S500.41,493.59,493.12,465.53Z"/><path class="c" d="M785.82,467s-11.53,15.29-29.53,18.35c0,0-8.11,27.18-10.23,30.36l7.76,9.64,12.24-18.82,8.47,7.53S783.47,489.35,785.82,467Z"/><path class="d" d="M521.47,188.29S624.82,248.65,739.18,183a75.15,75.15,0,0,1,25.41,28.59s-120.3,40.23-272.77,4.23A119.18,119.18,0,0,1,521.47,188.29Z"/><rect class="e" width="1262.35" height="2194.12"/></svg>