<svg xmlns="http://www.w3.org/2000/svg" width="1262.35" height="2194.12" viewBox="0 0 1262.35 2194.12"><defs><style>.a{fill:#5c2239;}.b{fill:#7a2d4c;}.c{fill:#99395f;}.d{fill:none;}</style></defs><title>4_men_hair_11</title><path class="a" d="M621.59,271.35c1.25,15.7,8,30.6,17.35,43.23l-6.53-10.87S677.15,361,741.59,369.92C693.32,348.51,645.14,319.37,621.59,271.35Z"/><path class="b" d="M779.76,203.18s6.36-22.65,5.65-24.77-28.53-11.76-65.94-1.88l3-10.36a3.22,3.22,0,0,0-3.41-4.09c-9.94,1-33.38,1.57-47.55,13.57,0,0-44.83-20.32-67.82-18.84a.73.73,0,0,0-.64.94l4,14s-76-22.5-120.16,4.85a4.47,4.47,0,0,0-2.12,4.13c.39,5.21,1.38,17.48,3,30.55l-15.47-1.11a3.8,3.8,0,0,0-4.06,4c.44,6.53,8.3,19.57,13,29.3a1.69,1.69,0,0,1-2.06,2.34l-6.69-2.94a2.63,2.63,0,0,0-3.48,2.57c1.12,37.63,2.86,63.37,10.54,100.13a48.67,48.67,0,0,0,14.28,10.16c6.77-44.51,38.94-84.33,81.28-100.12a92.49,92.49,0,0,0,3.09,15.83l.67-.2s1.08,3.59,3.45,9.47c8.84,21.94,35.76,75.77,92.55,93.58l-35.82-59.71c-9.32-12.63-16.1-27.53-17.35-43.23,23.68,48.28,72.25,77.47,120.78,98.92l.16-.21-46.11-58.92a128.07,128.07,0,0,1-22.83-39.79c22,30,52,52,86,65a268.79,268.79,0,0,0,33.74,9.4c6.92-33.64,1.88-127.14,2.22-140.57a5.45,5.45,0,0,0-6.75-5.43Z"/><path class="a" d="M759.59,336.35c-34-13-64-35-86-65a128.07,128.07,0,0,0,22.83,39.79l-4.72-6s40.95,45.17,79.06,52.94L774.29,399s4.68-4.15,10.48-3.87c2.46-16.41,6.62-32.88,8.56-49.38A268.79,268.79,0,0,1,759.59,336.35Z"/><path class="a" d="M578.09,271.44A92.49,92.49,0,0,1,575,255.61c-42.34,15.79-74.51,55.61-81.28,100.12a48.67,48.67,0,0,1-14.28-10.16,476.89,476.89,0,0,0,13.32,50.28c4.21-1.27,9.91-.94,16.12,5.27C508.88,401.12,502.58,293.78,578.09,271.44Z"/><path class="c" d="M540.65,173.82s6.35,47.65,50.82,68.83c0,0-68.82,4.23-90-62.47C501.47,180.18,523.7,170.65,540.65,173.82Z"/><path class="c" d="M682.76,245.88s46.94-16.94,63.89-66.7c0,0,20.41,2.76,28.88,4.88C775.53,184.06,771.7,250.12,682.76,245.88Z"/><rect class="d" width="1262.35" height="2194.12"/></svg>