<svg xmlns="http://www.w3.org/2000/svg" width="1262.35" height="2194.12" viewBox="0 0 1262.35 2194.12"><defs><style>.a{fill:#8f475e;}.b{fill:#edabc0;}.c{fill:#fff;}.d{fill:#7a3d50;}.e{fill:none;}.f{fill:#b3b3b3;}</style></defs><title>4_men_shirt_3</title><path class="a" d="M814.88,624.53c-36-19.06-39.18-13.77-76.23-14.82a250.48,250.48,0,0,1-36.19-3.63c-15.4,20.06-64.4,49.92-64.4,49.92l-54.49-48.66a78.9,78.9,0,0,1-19.48-.24l-50.27-6.92c-20.13-3-43.43,11-65,30.08,14.75,39.57,27.22,80.17,33.69,121.81.17-.2.25-.31.25-.31,4.24,19.06,36.71,185.83,43.77,232.42,4.14,27.36-21.46,101.71-29,122.81,19.81,5.56,159.4,41.83,284.49-3.1-.64-6-1-9.24-1-9.24-4.24-22.24-15.88-121.77,2.12-218.12C796.3,806,808.88,739.94,808.88,739.94l1.21.85c5-34.21,14.27-68.84,31.68-99.24C831.22,634.25,821.86,628.22,814.88,624.53Z"/><path class="b" d="M629.47,649.88c2.12,1.41,8.59,6.12,8.59,6.12l10.29-6.12,1.46,64.24a9.82,9.82,0,0,1-9.52,9.88h0a9.82,9.82,0,0,1-10.1-9.41Z"/><path class="c" d="M619.3,628.64l-18.07-26.35-.58-24s-28.39,13.55-31.06,26.83c-.62,3.06,2.38,26.4,4.83,44.24C587.62,639.11,603.4,633.39,619.3,628.64Z"/><path class="c" d="M624.6,636.38a126.32,126.32,0,0,0-48.9,22.16c1,6.84,1.65,11.52,1.65,11.52l36-20.47L638.06,656Z"/><path class="a" d="M619.3,628.64c-15.9,4.75-31.68,10.47-44.88,20.72.46,3.3.89,6.41,1.28,9.18a126.32,126.32,0,0,1,48.9-22.16Z"/><path class="a" d="M698.67,644.06a147.65,147.65,0,0,0-40.24-16.9l-5.86,8.29a129.59,129.59,0,0,1,45.14,18.26Z"/><path class="c" d="M652.57,635.45,638.06,656l26.12-7.12,31.76,22.59,1.77-17.76A129.59,129.59,0,0,0,652.57,635.45Z"/><path class="c" d="M698.67,644.06l3.79-38c-4.24-10.59-25.81-31.32-25.81-31.32L678,599.47l-19.57,27.69A147.65,147.65,0,0,1,698.67,644.06Z"/><circle cx="640.17" cy="666.53" r="5.65"/><circle cx="640.17" cy="710.29" r="5.65"/><path class="d" d="M539.73,978c.23,1.45.45,2.83.64,4.1,2.1,13.83-1.33,36.59-10.47,69.59-4.65,16.79-9.91,33.09-14.14,45.53a573.46,573.46,0,0,0,127.52,14.88c45.08,0,86.54-6,123.43-17.78-2.85-16.52-6.88-51.65-7.35-95C643.28,1112.08,560.41,1032.18,539.73,978Z"/><path class="e" d="M390.1,695.29l.13-.16Z"/><polygon class="e" points="448.82 630.26 448.82 630.26 448.82 630.26 448.82 630.26"/><path class="e" d="M400,682.73l0-.05Z"/><path class="e" d="M398.25,685h0Z"/><path class="e" d="M388.64,697.17l.24-.3Z"/><path class="e" d="M383.94,703.24l1-1.35Z"/><path class="e" d="M385.54,701.17l.57-.73Z"/><path class="e" d="M385,701.89l.56-.72Z"/><path class="e" d="M386.11,700.44l2.53-3.27Z"/><path class="e" d="M388.88,696.87l1.22-1.58Z"/><path class="e" d="M390.23,695.13c2.39-3.07,5.08-6.49,8-10.17C395.31,688.64,392.62,692.06,390.23,695.13Z"/><path class="e" d="M448.82,630.26c-18.58,16.41-35.87,36.48-48.74,52.42C413,666.74,430.24,646.67,448.82,630.26Z"/><path class="e" d="M398.26,685l1.78-2.22Z"/><path class="c" d="M181.38,715.09A135.42,135.42,0,0,1,168.57,704c-9.8,15.84-17.5,28.65-42.74,37,3.65,3.63,7.79,7.72,12.32,12.17C156.14,744.63,170,730.92,181.38,715.09Z"/><path class="a" d="M138.15,753.17q4,3.89,8.29,8.1c4.42-1.32,8.66-2.74,12.15-4.92,14-8.55,24-20.84,33-33.9q-5.62-3.76-10.24-7.36C170,730.92,156.14,744.63,138.15,753.17Z"/><path class="c" d="M469.7,693.71c-6-21.44-13.1-42.59-20.88-63.45h0c-24.49,21.62-45,47.45-64.88,73-14.35,18.44-77.65,73.41-77.65,73.41-19.06-20.47-59.29-24-94.59-42.36a213.65,213.65,0,0,1-20.08-11.84c-9,13.06-19,25.35-33,33.9-3.49,2.18-7.73,3.6-12.15,4.92,50.8,49.42,136.94,129,155.62,119.85,44.3-21.78,95.79-56.55,131.29-87.12,26.37-22.7,42.48-44.41,47.88-49.72C478.27,727.25,474.34,710.39,469.7,693.71Z"/><path class="c" d="M1028.84,591.65c-20.61,3.85-42.61,2.55-60.72-5.32-.12,24-1.49,51.78-5.36,67.79-7.41,30.7-12.7,70.29-12.7,70.29s-64.44-52.51-108.29-82.86h0a237.24,237.24,0,0,0-21.3,50.81,346,346,0,0,0-10.36,48.27c37.1,20.76,71.54,41.69,102.47,55.94,50.5,23.26,88.3,33.72,88.3,33.72,35.3-4.47,38.65-138,33.35-165.53C1031.45,650.28,1029.79,618.51,1028.84,591.65Z"/><path class="c" d="M1028.44,579.31c-.21-7-.37-13.29-.48-18.42-14.11,3-43.11,6.94-60.42-5.57.25,5,.43,11,.52,17.61C987.43,579.66,1008.34,583.25,1028.44,579.31Z"/><path class="a" d="M968.06,572.93c.06,4.25.09,8.75.06,13.4,18.11,7.87,40.11,9.17,60.72,5.32-.15-4.26-.29-8.41-.4-12.34C1008.34,583.25,987.43,579.66,968.06,572.93Z"/><path class="f" d="M948.23,722.93c-3.89-3.15-13.74-11.11-26.6-21.27,12.26,17.76,24.15,35.6,31,56.69A149.5,149.5,0,0,1,948.23,722.93Z"/><path class="f" d="M321.43,763.32c-8.95,7.95-15.14,13.33-15.14,13.33-.78-.84-1.6-1.64-2.45-2.42,6.22,9.87,12,20.16,12.75,32.12C318.44,792.74,318,777.21,321.43,763.32Z"/><path class="f" d="M408.65,813.35c30.35-19.76,58.58-50.82,74.11-70.59-.54-4.13-10.21-38.15-10.35-42.35-1.06,8.47-.8,34.76-4.82,41.65C450.29,771.71,424.17,797.12,408.65,813.35Z"/><path class="f" d="M820.47,692.36c-4.53,10.88-10.88,36.29-11.36,47.71q6.21,3.48,12.39,6.85c16,8.78,80.56,48.08,112.32,59.37-12.18-9.85-93.36-57.47-104.47-68.47C826.06,734.56,819.77,706.48,820.47,692.36Z"/><polygon class="c" points="705.82 761.12 756.65 763.94 756.65 776.65 705.82 775.24 705.82 761.12"/><rect class="e" width="1262.35" height="2194.12"/></svg>