<svg xmlns="http://www.w3.org/2000/svg" width="1262.35" height="2194.12" viewBox="0 0 1262.35 2194.12"><defs><style>.a{fill:#ca8760;}.b{fill:#a1694a;}.c{fill:#e0a07b;}.d{fill:none;}</style></defs><title>4_men_face_2</title><path class="a" d="M522.58,419.29s-21.18-38.92-37.47-18.61,3.26,89.69,47.24,84.61Z"/><path class="b" d="M523.88,436.41s-19.76-31.06-26.82-16.94,5.64,48,33.88,50.82Z"/><path class="a" d="M758,419.29s21.18-38.92,37.47-18.61-3.26,89.69-47.24,84.61Z"/><path class="b" d="M756.66,436.41s19.76-31.06,26.82-16.94-5.65,48-33.88,50.82Z"/><path class="c" d="M637,191.12s-148.94-3.53-136.24,156.7c0,0,13.25,101.56,33.18,162.16a41.54,41.54,0,0,0,11.33,17.55c9.06,8.34,26.24,19.35,52.79,39.35a42,42,0,0,0,25.32,8.47h36.07a42.08,42.08,0,0,0,25.32-8.47c26.55-20,43.73-31,52.78-39.35A41.45,41.45,0,0,0,748.88,510c19.94-60.6,33.19-162.16,33.19-162.16C792.29,180.53,637,191.12,637,191.12Z"/><rect class="d" width="1262.35" height="2194.12"/></svg>