<svg xmlns="http://www.w3.org/2000/svg" width="1262.35" height="2194.12" viewBox="0 0 1262.35 2194.12"><defs><style>.a{fill:none;}.b{fill:#542419;opacity:0.7;}</style></defs><title>4_nose_6</title><polygon class="a" points="628.02 478.18 628.02 478.18 628.02 478.19 628.02 478.18"/><path class="b" d="M627.67,477.74c-.06.16-.11.31-.16.47l.51,0Z"/><path class="b" d="M662.49,461.63s-1.14,8.83-7.54,13h0c-1.69,1.21-13.36,11.06-26.62,2.67h0c-8.63-5.51-7.59-16.41-7.59-16.41-7,2.3-8.47,12.81.78,16.45a13.91,13.91,0,0,0,6,.88c0-.16.1-.31.16-.47l.35.44h0l-.51,0c-3.57,10.22,7.48,13.75,14.42,13.21,13.68-1.06,14.62-12.19,13.86-15.54-.24-.1-.49-.2-.74-.32h0l.45-.47a2.39,2.39,0,0,1,.29.79C666.65,481.71,672.55,466,662.49,461.63Z"/><path class="b" d="M655.05,475.56h0c.25.12.5.22.74.32a2.39,2.39,0,0,0-.29-.79Z"/><rect class="a" width="1262.35" height="2194.12"/></svg>