<svg xmlns="http://www.w3.org/2000/svg" width="1262.35" height="2195.18" viewBox="0 0 1262.35 2195.18"><defs><style>.a{fill:none;}.b{fill:#3b201d;}</style></defs><title>eyebrow D</title><rect class="a" width="1262.35" height="2195.18"/><path class="b" d="M624.63,285.31c9.13-8.15,27.9-23,47.8-27.55a11.44,11.44,0,0,1,11.3,3.77,47.2,47.2,0,0,1,7.58,12.83,4.06,4.06,0,0,1-3.5,5.59c-13.8.95-43.9,4.94-61.39,8.88A2,2,0,0,1,624.63,285.31Z"/><path class="b" d="M837.32,285.31c-9.13-8.15-27.9-23-47.8-27.55a11.42,11.42,0,0,0-11.29,3.77,47.19,47.19,0,0,0-7.59,12.83,4.07,4.07,0,0,0,3.5,5.59c13.8.95,43.9,4.94,61.39,8.88A2,2,0,0,0,837.32,285.31Z"/></svg>