<svg xmlns="http://www.w3.org/2000/svg" width="1262.35" height="2195.18" viewBox="0 0 1262.35 2195.18"><defs><style>.a{fill:#f7faf4;}.b{fill:#1d3987;}.c{fill:#8c5435;}.d{fill:#5c2b15;}.e{fill:none;}</style></defs><title>eyes J</title><path class="a" d="M620.76,312.88s-6.53,28.5,34,34.3c31.65,4.53,38.71-23.71,38.71-23.71Z"/><path class="b" d="M682.17,323.06a25.41,25.41,0,1,1-50.82,0c0-14,10.67-21,24.71-21S682.17,309,682.17,323.06Z"/><path class="c" d="M651.12,295.94c-16.93.72-32.47,9.18-32.47,9.18,30.35,2.82,74.82,18.35,74.82,18.35S684.29,294.53,651.12,295.94Z"/><path class="d" d="M618.65,305.12l-11.3,2.82s36,16.24,86.12,15.53C693.47,323.47,649,307.94,618.65,305.12Z"/><path class="a" d="M837.18,312.88s6.53,28.5-34,34.3c-31.65,4.53-38.71-23.71-38.71-23.71Z"/><path class="b" d="M775.76,323.06a25.42,25.42,0,0,0,50.83,0c0-14-10.62-18.18-24.65-18.18S775.76,309,775.76,323.06Z"/><path class="c" d="M806.82,295.94c16.93.72,32.47,9.18,32.47,9.18-30.35,2.82-74.82,18.35-74.82,18.35S773.65,294.53,806.82,295.94Z"/><path class="d" d="M839.29,305.12l11.3,2.82s-36,16.24-86.12,15.53C764.47,323.47,808.94,307.94,839.29,305.12Z"/><rect class="e" width="1262.35" height="2195.18"/></svg>