<svg xmlns="http://www.w3.org/2000/svg" xmlns:xlink="http://www.w3.org/1999/xlink" width="1262.35" height="2195.18" viewBox="0 0 1262.35 2195.18"><defs><style>.a{fill:none;}.b{fill:#f7faf4;}.c{clip-path:url(#a);}.d{fill:#2b448a;}.e{fill:#321818;}.f{clip-path:url(#b);}</style><clipPath id="a"><path class="a" d="M684,302.92l5.65,13.25.65,19.78s-54.76,4.48-72-24.26C618.32,311.69,643.4,281.08,684,302.92Z"/></clipPath><clipPath id="b"><path class="a" d="M774.86,302.92l-5.65,13.25L768.56,336s54.76,4.48,72-24.26C840.56,311.69,815.48,281.08,774.86,302.92Z"/></clipPath></defs><title>eyes M</title><path class="b" d="M684,302.92l5.65,13.25.65,19.78s-54.76,4.48-72-24.26C618.32,311.69,643.4,281.08,684,302.92Z"/><g class="c"><path class="d" d="M682,317a22.38,22.38,0,0,1-23.87,20.79c-12.34-.84-20.94-11.48-20.82-23.84.06-6.59,4-17.31,24.45-17.31C674.11,296.6,682.82,304.64,682,317Z"/></g><path class="e" d="M685.46,309.83s-28.92-14.17-67.14,1.86c0,0,10.68-30.5,69.63-16.23,0,0,2.62,4.94,1.72,20.71Z"/><path class="b" d="M774.86,302.92l-5.65,13.25L768.56,336s54.76,4.48,72-24.26C840.56,311.69,815.48,281.08,774.86,302.92Z"/><g class="f"><path class="d" d="M776.9,317a22.38,22.38,0,0,0,23.87,20.79c12.34-.84,20.94-11.48,20.82-23.84-.06-6.59-4-17.31-24.45-17.31C784.77,296.6,776.06,304.64,776.9,317Z"/></g><path class="e" d="M773.42,309.83s28.92-14.17,67.14,1.86c0,0-10.68-30.5-69.63-16.23,0,0-2.62,4.94-1.72,20.71Z"/><rect class="a" width="1262.35" height="2195.18"/></svg>