<svg xmlns="http://www.w3.org/2000/svg" width="1262.35" height="2195.18" viewBox="0 0 1262.35 2195.18"><defs><style>.a{fill:none;}.b{fill:#3b201d;}.c{fill:#321818;}.d{fill:#f7faf4;}</style></defs><title>eyes E</title><rect class="a" width="1262.35" height="2195.18"/><path class="b" d="M676,315.49a32.9,32.9,0,0,0-.64-4.82L658.1,303.9l-20.76,4.31a32.64,32.64,0,0,0-.75,3.21,34.43,34.43,0,0,0-.57,6.25,32.51,32.51,0,0,0,3.63,15.18c10.31-.08,22.83-.43,33.18-.78a32.7,32.7,0,0,0,3.23-14.4C676.06,316.93,676,316.21,676,315.49Z"/><path class="c" d="M615.32,310.47c-3.44,1.51,3.57,16.37,3.57,16.37l.17-.3a39.29,39.29,0,0,1,17.53-15.12c7.45-1.41,41.93-5.81,56.66,19.88h0s2.38-13.71,2-14.06C689.31,312.44,667.37,287.48,615.32,310.47Z"/><path class="d" d="M636.59,311.42a39.29,39.29,0,0,0-17.53,15.12l.47,5.39c1,.8,9.33,1,20.12.92A32.51,32.51,0,0,1,636,317.67,34.43,34.43,0,0,1,636.59,311.42Z"/><path class="d" d="M676,315.49c0,.72.08,1.44.08,2.18a32.7,32.7,0,0,1-3.23,14.4c11.57-.38,20.42-.77,20.42-.77h0C690.26,326.23,684.06,320.11,676,315.49Z"/><path class="b" d="M785.41,316.9a34.31,34.31,0,0,1,.64-4.82l17.24-6.77,20.76,4.31c.3,1,.55,2.12.75,3.21a34.51,34.51,0,0,1,.57,6.25,32.51,32.51,0,0,1-3.63,15.18c-10.31-.08-22.83-.43-33.18-.78a32.69,32.69,0,0,1-3.22-14.4C785.34,318.35,785.36,317.62,785.41,316.9Z"/><path class="c" d="M846.08,311.88c3.43,1.51-3.58,16.37-3.58,16.37l-.17-.3a39.23,39.23,0,0,0-17.53-15.12c-7.45-1.41-41.93-5.8-56.66,19.89h0s-2.38-13.72-2-14.07C772.08,313.85,794,288.89,846.08,311.88Z"/><path class="d" d="M824.8,312.83A39.23,39.23,0,0,1,842.33,328l-.47,5.39c-.94.8-9.32,1-20.12.92a32.51,32.51,0,0,0,3.63-15.18A34.51,34.51,0,0,0,824.8,312.83Z"/><path class="d" d="M785.41,316.9c0,.72-.07,1.45-.07,2.18a32.69,32.69,0,0,0,3.22,14.4c-11.57-.38-20.42-.76-20.42-.76h0C771.13,327.64,777.33,321.52,785.41,316.9Z"/></svg>