<svg xmlns="http://www.w3.org/2000/svg" xmlns:xlink="http://www.w3.org/1999/xlink" width="1262.35" height="2195.18" viewBox="0 0 1262.35 2195.18"><defs><style>.a{fill:none;}.b{fill:#8c5435;}.c{fill:#fff;}.d{fill:#3b201d;}.e{clip-path:url(#a);}.f{clip-path:url(#b);}</style><clipPath id="a"><path class="a" d="M678.76,336.53c8.14-1.53,18.75-8.65,17.33-10.33-7.89-9.34-83.31-25.37-80.86-16C615.23,310.18,633.59,345,678.76,336.53Z"/></clipPath><clipPath id="b"><path class="a" d="M782.06,336.53c-8.14-1.53-18.75-8.65-17.33-10.33,7.89-9.34,83.31-25.37,80.86-16C845.59,310.18,827.23,345,782.06,336.53Z"/></clipPath></defs><title>eyes C</title><rect class="a" width="1262.35" height="2195.18"/><path class="b" d="M613.35,310.18s9.88-30.59,43.77-21.18c33.57,9.33,37.64,36.24,37.64,36.24S675.94,296.06,613.35,310.18Z"/><path class="c" d="M678.76,336.53c8.14-1.53,18.75-8.65,17.33-10.33-7.89-9.34-83.31-25.37-80.86-16C615.23,310.18,633.59,345,678.76,336.53Z"/><path class="d" d="M612.41,311.12s18-16,40-13.65c17.88,1.88,31.06,7.53,45.88,31.53C698.29,329,666.53,304.53,612.41,311.12Z"/><g class="e"><circle class="d" cx="657.94" cy="318.18" r="22.94"/></g><path class="d" d="M616.18,309.24l-11.3,6.11,16,5.65-6.59,10.35L635,329.94C625.12,322.41,620.41,317.24,616.18,309.24Z"/><path class="b" d="M847.47,310.18S837.59,279.59,803.7,289c-33.57,9.33-37.64,36.24-37.64,36.24S784.88,296.06,847.47,310.18Z"/><path class="c" d="M782.06,336.53c-8.14-1.53-18.75-8.65-17.33-10.33,7.89-9.34,83.31-25.37,80.86-16C845.59,310.18,827.23,345,782.06,336.53Z"/><path class="d" d="M848.41,311.12s-18-16-40-13.65c-17.88,1.88-31.06,7.53-45.88,31.53C762.53,329,794.29,304.53,848.41,311.12Z"/><g class="f"><circle class="d" cx="802.88" cy="318.18" r="22.94"/></g><path class="d" d="M844.65,309.24l11.29,6.11-16,5.65,6.59,10.35-20.71-1.41C835.7,322.41,840.41,317.24,844.65,309.24Z"/></svg>