<svg xmlns="http://www.w3.org/2000/svg" width="1262.35" height="2195.18" viewBox="0 0 1262.35 2195.18"><defs><style>.a{fill:none;}.b{fill:#f7faf4;}.c{fill:#3b201d;}.d{fill:#321818;}</style></defs><title>eyes F</title><rect class="a" width="1262.35" height="2195.18"/><path class="b" d="M777.16,313,802,301.76,823.1,305l13.7,10.5,5.22,6.58-.2,5.62c-35.72,20-73.5,3.13-73.5,3.13Z"/><path class="c" d="M824.65,314.35a34.17,34.17,0,0,0-1.79-9.35L802,301.76l-16.84,7.62a33.78,33.78,0,0,0-.35,7c.44,8.6,3.94,16.07,9,20.64a88.22,88.22,0,0,0,23.78-.94C822.27,331,825.1,323.11,824.65,314.35Z"/><path class="d" d="M841.82,327.73S830,306.55,809.51,306.35s-35.86,14.28-41.19,24.51c0,0-.73-13.54,14-24.84,14-10.72,46.24-14.84,61.45,12.89Z"/><path class="b" d="M685.51,313.88l-24.43-12-21.23,2.63-14,10.07L620.41,321l0,5.61c35.08,21.15,73.37,5.4,73.37,5.4Z"/><path class="c" d="M677.82,317.05a34.72,34.72,0,0,0-.14-7l-16.6-8.15-21,2.6a33.7,33.7,0,0,0-2.09,9.29c-.72,8.74,1.87,16.75,6.44,22a88.22,88.22,0,0,0,23.74,1.68C673.38,333,677.11,325.63,677.82,317.05Z"/><path class="d" d="M620.43,326.62s12.46-20.8,33-20.37,35.4,15.38,40.41,25.77c0,0,1.15-13.51-13.26-25.26-13.66-11.14-45.77-16.26-61.82,11Z"/></svg>