<svg xmlns="http://www.w3.org/2000/svg" xmlns:xlink="http://www.w3.org/1999/xlink" width="1262.35" height="2195.18" viewBox="0 0 1262.35 2195.18"><defs><style>.a{fill:none;}.b{fill:#f7faf4;}.c{clip-path:url(#a);}.d{fill:#2b62ba;}.e{fill:#3b201d;}.f{clip-path:url(#b);}</style><clipPath id="a"><path class="a" d="M624.83,324.86l5.39,9.4s20.81,11.57,63.95-1.45V322.69s-21.57-23.14-67-19.52C627.14,303.17,617.12,308.23,624.83,324.86Z"/></clipPath><clipPath id="b"><path class="a" d="M837.05,324.86l-5.4,9.4s-20.8,11.57-63.95-1.45V322.69s21.57-23.14,67-19.52C834.73,303.17,844.75,308.23,837.05,324.86Z"/></clipPath></defs><title>eyes G</title><path class="b" d="M624.83,324.86l5.39,9.4s20.81,11.57,63.95-1.45V322.69s-21.57-23.14-67-19.52C627.14,303.17,617.12,308.23,624.83,324.86Z"/><g class="c"><circle class="d" cx="661.12" cy="322.41" r="20.12"/></g><path class="e" d="M674.91,303.17c-28.74-12.88-62.1-2.6-67.56-2.87,9.88,30.23,22.87,34,22.87,34s-6.93-20.07.77-23.68,29.3-9,63.18,12.11A37.48,37.48,0,0,0,674.91,303.17Z"/><path class="b" d="M837.05,324.86l-5.4,9.4s-20.8,11.57-63.95-1.45V322.69s21.57-23.14,67-19.52C834.73,303.17,844.75,308.23,837.05,324.86Z"/><g class="f"><circle class="d" cx="800.76" cy="322.41" r="20.12"/></g><path class="e" d="M787,303.17c28.74-12.88,62.1-2.6,67.56-2.87-9.88,30.23-22.87,34-22.87,34s6.94-20.07-.77-23.68-29.3-9-63.18,12.11A37.48,37.48,0,0,1,787,303.17Z"/><rect class="a" width="1262.35" height="2195.18"/></svg>