<svg xmlns="http://www.w3.org/2000/svg" width="1262.35" height="2195.18" viewBox="0 0 1262.35 2195.18"><defs><style>.a{fill:#f7faf4;}.b{fill:#5c2106;}.c{fill:#3b201d;}.d{fill:#8c5435;}.e{fill:none;}</style></defs><title>eyes I</title><path class="a" d="M619.89,316.31s-4.36,27.63,34.79,30.11c33,2.09,37-21.65,37.68-37.74C692.36,308.68,635.61,312,619.89,316.31Z"/><path class="b" d="M680.15,319.83c1.84,12.84-6.78,24.69-19.27,26.48s-24.1-7.15-25.94-20,8.25-20.06,20.73-21.85S678.31,307,680.15,319.83Z"/><path class="c" d="M620.71,311.67s37.08-5.67,71.74-6.85l9.3,7S639.53,324.18,616,326.21C616,326.21,614.76,315.18,620.71,311.67Z"/><path class="d" d="M620.71,311.67s29.81-37.53,71.74-6.85Z"/><path class="a" d="M842.14,316.37s-1.08,30.39-34.84,30.06c-33.12-.33-37-21.72-37.62-37.8C769.68,308.63,826.42,312,842.14,316.37Z"/><path class="b" d="M781.87,319.8c-1.86,12.83,6.75,24.7,19.23,26.51s24.11-7.12,26-19.95-8.21-20.07-20.69-21.88S783.74,307,781.87,319.8Z"/><path class="c" d="M841.33,311.73s-37.08-5.73-71.74-7l-9.31,7s70.89,11.7,85.77,14.51C846.05,326.28,847.27,315.25,841.33,311.73Z"/><path class="d" d="M841.33,311.73s-29.75-37.57-71.74-7Z"/><rect class="e" width="1262.35" height="2195.18"/></svg>