<svg xmlns="http://www.w3.org/2000/svg" xmlns:xlink="http://www.w3.org/1999/xlink" width="1262.35" height="2195.18" viewBox="0 0 1262.35 2195.18"><defs><style>.a{fill:none;}.b{fill:#f7faf4;}.c{clip-path:url(#a);}.d{fill:#1d5700;}.e{fill:#3b201d;}.f{clip-path:url(#b);}</style><clipPath id="a"><path class="a" d="M620.57,334.24s-.74-38.78,29.43-36.36c25,2,47.09,20.2,51.51,25.05l-4.42,9.69S674.28,331.82,620.57,334.24Z"/></clipPath><clipPath id="b"><path class="a" d="M840.61,334.24s.73-38.78-29.44-36.36c-25,2-47.09,20.2-51.51,25.05l4.42,9.69S786.89,331.82,840.61,334.24Z"/></clipPath></defs><title>eyes H</title><rect class="a" width="1262.35" height="2195.18"/><path class="b" d="M620.57,334.24s-.74-38.78,29.43-36.36c25,2,47.09,20.2,51.51,25.05l-4.42,9.69S674.28,331.82,620.57,334.24Z"/><g class="c"><ellipse class="d" cx="658.49" cy="320.1" rx="24.7" ry="23.83"/></g><path class="e" d="M701.51,322.93s-35.07-36.34-59.6-26.66c-22.65,8.92-32.38,24.24-32.38,24.24l11,13.73s14-28.28,25.75-28.28,39,8.89,50.77,26.66Z"/><path class="b" d="M840.61,334.24s.73-38.78-29.44-36.36c-25,2-47.09,20.2-51.51,25.05l4.42,9.69S786.89,331.82,840.61,334.24Z"/><g class="f"><ellipse class="d" cx="802.69" cy="320.1" rx="24.7" ry="23.83"/></g><path class="e" d="M759.66,322.93s33.52-34.59,59.61-26.66c22.62,6.87,32.38,24.24,32.38,24.24l-11,13.73S826.63,306,814.85,306s-39,8.89-50.77,26.66Z"/></svg>