<svg xmlns="http://www.w3.org/2000/svg" width="1262.35" height="2195.18" viewBox="0 0 1262.35 2195.18"><defs><style>.a{fill:#f7faf4;}.b{fill:#3b201d;}.c{fill:none;}</style></defs><title>eyes L</title><path class="a" d="M686.09,318.88l6.82,3.09s1.88,6.19,3.24,9.9c.49,1.32-6.52,2.42-14.49,3.1-14.48,1.23-32.55,1-40.91-2.17-13-4.95-18.4-24.14-18.4-24.14S646.55,298.45,686.09,318.88Z"/><path d="M683.25,319.13a20.15,20.15,0,0,0-.11-2.06c-13-5.49-26.58-9.6-40.86-10.83a19.54,19.54,0,0,0-4.93,12.89,20,20,0,0,0,7.51,15.43,111.57,111.57,0,0,0,25.44,3.33C678,334.52,683.25,327.39,683.25,319.13Z"/><path class="b" d="M610.53,310.11s6.36-13.21,21.82-12c6.15.49,52.72,2.17,60.56,23.83C692.91,322,631,302.06,610.53,310.11Z"/><path class="b" d="M681.66,335s-10.68,6.91-44.31,2.47c-9.66-1.27-17.73-15.78-17.73-15.78S641,336.52,681.66,335Z"/><path class="a" d="M772.56,318.53l-7,3.15s-1.92,6.29-3.32,10.07c-.5,1.34,6.69,2.46,14.86,3.15,14.85,1.26,33.38,1.05,41.95-2.2,13.28-5,18.88-24.56,18.88-24.56S813.12,297.75,772.56,318.53Z"/><path d="M822.56,318.79a19.86,19.86,0,0,0-5.06-13.12c-14.65,1.25-28.62,5.43-41.91,11A20,20,0,0,0,785.27,336c9.67,2.18,19.34-.57,29-1.08A20.36,20.36,0,0,0,822.56,318.79Z"/><path class="b" d="M850.06,309.61s-6.53-13.43-22.38-12.17c-6.3.5-54.07,2.2-62.11,24.24C765.57,321.68,829.08,301.42,850.06,309.61Z"/><path class="b" d="M777.11,334.9s10.95,7,45.45,2.52c9.9-1.3,18.17-16.06,18.17-16.06S818.83,336.47,777.11,334.9Z"/><rect class="c" width="1262.35" height="2195.18"/></svg>