<svg xmlns="http://www.w3.org/2000/svg" xmlns:xlink="http://www.w3.org/1999/xlink" width="1262.35" height="2195.18" viewBox="0 0 1262.35 2195.18"><defs><style>.a{fill:none;}.b{fill:#f7faf4;}.c{clip-path:url(#a);}.d{fill:#2a94ba;}.e{fill:#3b201d;}.f{clip-path:url(#b);}</style><clipPath id="a"><path class="a" d="M622.31,310.57s-1.88,21.39,11.43,26.29c17.16,4.92,47.85,9.81,61.87-8.06C695.61,328.8,664.1,287.11,622.31,310.57Z"/></clipPath><clipPath id="b"><path class="a" d="M838.82,310.57s1.89,21.39-11.43,26.29c-17.16,4.92-47.85,9.81-61.87-8.06C765.52,328.8,797,287.11,838.82,310.57Z"/></clipPath></defs><title>eyes N</title><path class="b" d="M622.31,310.57s-1.88,21.39,11.43,26.29c17.16,4.92,47.85,9.81,61.87-8.06C695.61,328.8,664.1,287.11,622.31,310.57Z"/><g class="c"><path class="d" d="M681.08,329.7c-7.92,28.62-50.68,17.56-43.74-11.31C645.27,289.77,688,300.83,681.08,329.7Z"/></g><path class="e" d="M695.61,328.8s-21-46.07-82.27-31.48l9,13.25S655.94,301.77,695.61,328.8Z"/><path class="b" d="M838.82,310.57s1.89,21.39-11.43,26.29c-17.16,4.92-47.85,9.81-61.87-8.06C765.52,328.8,797,287.11,838.82,310.57Z"/><g class="f"><path class="d" d="M780.05,329.7c7.93,28.62,50.69,17.56,43.74-11.31C815.87,289.77,773.11,300.83,780.05,329.7Z"/></g><path class="e" d="M765.52,328.8s21-46.07,82.27-31.48l-9,13.25S805.19,301.77,765.52,328.8Z"/><rect class="a" width="1262.35" height="2195.18"/></svg>