<svg xmlns="http://www.w3.org/2000/svg" xmlns:xlink="http://www.w3.org/1999/xlink" width="1262.35" height="2195.18" viewBox="0 0 1262.35 2195.18"><defs><style>.a{fill:none;}.b{fill:#f7faf4;}.c{clip-path:url(#a);}.d{fill:#3b201d;}.e{fill:#321818;}.f{clip-path:url(#b);}</style><clipPath id="a"><path class="a" d="M609,317.82c10.52,9.25,17.46,11.62,27.88,14.47,0,0,38.12,2.47,53.65-1.41l3.53-7.41S651.7,280.41,609,317.82Z"/></clipPath><clipPath id="b"><path class="a" d="M851.12,317.82c-10.53,9.25-17.46,11.62-27.89,14.47,0,0-38.11,2.47-53.64-1.41l-3.53-7.41S808.41,280.41,851.12,317.82Z"/></clipPath></defs><title>eyes D</title><rect class="a" width="1262.35" height="2195.18"/><path class="b" d="M609,317.82c10.52,9.25,17.46,11.62,27.88,14.47,0,0,38.12,2.47,53.65-1.41l3.53-7.41S651.7,280.41,609,317.82Z"/><g class="c"><circle class="d" cx="654" cy="318.71" r="21"/></g><path class="e" d="M694.06,323.47s-15.53-27.53-62.83-27.18c0,0-20.11,16.59-22.23,20.47l26.82-10.58S673.94,311.12,694.06,323.47Z"/><path class="b" d="M851.12,317.82c-10.53,9.25-17.46,11.62-27.89,14.47,0,0-38.11,2.47-53.64-1.41l-3.53-7.41S808.41,280.41,851.12,317.82Z"/><g class="f"><circle class="d" cx="806.12" cy="318.71" r="21"/></g><path class="e" d="M766.06,323.47s15.53-27.53,62.82-27.18c0,0,20.12,16.59,22.24,20.47l-26.83-10.58S786.18,311.12,766.06,323.47Z"/></svg>