<svg xmlns="http://www.w3.org/2000/svg" xmlns:xlink="http://www.w3.org/1999/xlink" width="1262.35" height="2195.18" viewBox="0 0 1262.35 2195.18"><defs><style>.a{fill:none;}.b{fill:#f7faf4;}.c{clip-path:url(#a);}.d{fill:#1c8a1c;}.e{fill:#3b201d;}.f{clip-path:url(#b);}</style><clipPath id="a"><path class="a" d="M693.35,330.53s-43.06,26.12-73.41.71c0,0,21.18-28.24,43.06-28.95S693.35,330.53,693.35,330.53Z"/></clipPath><clipPath id="b"><path class="a" d="M764.53,330.12s43.06,26.12,73.41.7c0,0-21.18-28.23-43.06-28.94S764.53,330.12,764.53,330.12Z"/></clipPath></defs><title>eyes K</title><path class="b" d="M693.35,330.53s-43.06,26.12-73.41.71c0,0,21.18-28.24,43.06-28.95S693.35,330.53,693.35,330.53Z"/><g class="c"><path class="d" d="M686.41,320.53a24.71,24.71,0,1,1-49.41,0c0-13.65,12.35-26,26-26S686.41,306.88,686.41,320.53Z"/></g><path class="e" d="M695.47,317.12s-13.41-21.88-25.41-24c-15.35-2.71-29.71,6.6-60,33.17l9.88,4.95s30.35-27.53,48-23.3,25.41,22.59,25.41,22.59Z"/><path class="b" d="M764.53,330.12s43.06,26.12,73.41.7c0,0-21.18-28.23-43.06-28.94S764.53,330.12,764.53,330.12Z"/><g class="f"><path class="d" d="M771.47,320.12a24.71,24.71,0,0,0,49.41,0c0-13.65-12.35-26-26-26S771.47,306.47,771.47,320.12Z"/></g><path class="e" d="M762.41,316.71s14.71-22.89,26.71-25c15.34-2.71,28.41,7.6,58.7,34.17l-9.88,4.94s-30.35-27.53-48-23.29-25.41,22.59-25.41,22.59Z"/><rect class="a" width="1262.35" height="2195.18"/></svg>