<svg xmlns="http://www.w3.org/2000/svg" xmlns:xlink="http://www.w3.org/1999/xlink" width="1262.35" height="2195.18" viewBox="0 0 1262.35 2195.18"><defs><style>.a{fill:none;}.b{fill:#8c5435;}.c{fill:#fff;}.d{clip-path:url(#a);}.e{fill:#3b201d;}.f{clip-path:url(#b);}</style><clipPath id="a"><path class="a" d="M632.29,334.18s15.25,5.08,47.65,2.82c15.18-1.06,18.35-6,18.35-6s-31.76-45.53-76.59-11.65l-2.47,2.83Z"/></clipPath><clipPath id="b"><path class="a" d="M829.47,334.18s-15.25,5.08-47.65,2.82c-15.17-1.06-18.35-6-18.35-6s31.76-45.53,76.59-11.65l2.47,2.83Z"/></clipPath></defs><title>eyes B</title><rect class="a" width="1262.35" height="2195.18"/><path class="b" d="M612.88,308.88s12.47-23.12,48.47-10.47c32.47,11.41,36.24,33.65,36.24,33.65S676.88,301.82,612.88,308.88Z"/><path class="c" d="M632.29,334.18s15.25,5.08,47.65,2.82c15.18-1.06,18.35-6,18.35-6s-31.76-45.53-76.59-11.65l-2.47,2.83Z"/><g class="d"><circle class="e" cx="665.47" cy="322.53" r="22.94"/></g><path class="e" d="M698.29,331c-12.94-20.24-43.77-32.75-85.88-22.59,0,0,7.88,21.88,19.88,25.77,0,0-5.29-10.83-5.29-15.42C627,316,672.65,307.47,698.29,331Z"/><path class="b" d="M848.88,308.88s-13.64-26.06-48.47-10.47c-36,16.12-36.24,33.65-36.24,33.65S784.88,301.82,848.88,308.88Z"/><path class="c" d="M829.47,334.18s-15.25,5.08-47.65,2.82c-15.17-1.06-18.35-6-18.35-6s31.76-45.53,76.59-11.65l2.47,2.83Z"/><g class="f"><circle class="e" cx="796.47" cy="323.24" r="22.94"/></g><path class="e" d="M763.47,331c12.94-20.24,43.77-32.75,85.88-22.59,0,0-7.88,21.88-19.88,25.77,0,0,5.29-10.83,5.29-15.42C834.76,316,789.12,307.47,763.47,331Z"/></svg>