<svg xmlns="http://www.w3.org/2000/svg" xmlns:xlink="http://www.w3.org/1999/xlink" width="1262.35" height="2195.18" viewBox="0 0 1262.35 2195.18"><defs><style>.a{fill:none;}.b{fill:#8c5435;}.c{fill:#fff;}.d{clip-path:url(#a);}.e{fill:#3b201d;}.f{clip-path:url(#b);}</style><clipPath id="a"><path class="a" d="M632.29,334.18s15.25,5.08,47.65,2.82c15.18-1.06,18.35-6,18.35-6s-31.76-45.53-76.59-11.65l-2.47,2.83Z"/></clipPath><clipPath id="b"><path class="a" d="M829.35,334.18S814.1,339.26,781.7,337c-15.17-1.06-18.35-6-18.35-6s31.77-45.53,76.59-11.65l2.47,2.83Z"/></clipPath></defs><title>eyes A</title><rect class="a" width="1262.35" height="2195.18"/><path class="b" d="M615.7,321.82s4.59-35.82,42.71-34.06,39.18,44.3,39.18,44.3S675,284.41,615.7,321.82Z"/><path class="c" d="M632.29,334.18s15.25,5.08,47.65,2.82c15.18-1.06,18.35-6,18.35-6s-31.76-45.53-76.59-11.65l-2.47,2.83Z"/><g class="d"><circle class="e" cx="662.29" cy="327.47" r="22.94"/></g><path class="e" d="M698.29,331s-3.17-27.12-40.94-30.65-42.7,23.59-42.7,23.59,5.64,6.35,17.64,10.24c0,0-8.82-7.42-8.82-12,0-2.8,10.59-13.06,34.23-11.88C670.15,310.93,686.65,315.12,698.29,331Z"/><path class="b" d="M845.94,318.82s-4.59-32.82-42.71-31.06-39.17,41.3-39.17,41.3S786.65,281.41,845.94,318.82Z"/><path class="c" d="M829.35,334.18S814.1,339.26,781.7,337c-15.17-1.06-18.35-6-18.35-6s31.77-45.53,76.59-11.65l2.47,2.83Z"/><g class="f"><circle class="e" cx="799.35" cy="327.47" r="22.94"/></g><path class="e" d="M763.35,331s3.18-27.12,40.94-30.65S847,323.94,847,323.94s-5.65,6.35-17.65,10.24c0,0,8.82-7.42,8.82-12,0-2.8-10.58-13.06-34.22-11.88C791.49,310.93,775,315.12,763.35,331Z"/></svg>