<svg xmlns="http://www.w3.org/2000/svg" xmlns:xlink="http://www.w3.org/1999/xlink" width="1262.35" height="2195.18" viewBox="0 0 1262.35 2195.18"><defs><style>.a{fill:none;}.b{fill:#fff;}.c{clip-path:url(#a);}.d{fill:#bdbdbd;}.e{fill:#294057;}.f{fill:#db4d5b;}.g{fill:#1d2d3d;}</style><clipPath id="a"><path class="a" d="M821,829.19V829a.49.49,0,0,0,0-.12v0c0-.11,0-.21,0-.29v-.26l0-.05v-.06h0c4.94-26.83,37.41-149.65,37.41-149.65l.23.41.06,0,7.81-4.38c44.13-3.41,69.55-41.53,69.55-41.53-37.06-76.24-48.48-78-48.48-78l-.64-5.78a21.48,21.48,0,0,0-3.12-4.1c-5.16-4.3-50.43-18.22-85.41-28.71l-24.35-21.06c-1.06-9.53-8.48-8.47-8.48-8.47C725.47,507,690.53,489,690.53,489c-9.53-2.12-9.53,9.53-9.53,9.53l-26.59,22.29-78.23,25.71a31.31,31.31,0,0,0-5.71,5.11s-19.71,5.12-41.94,108.89c0,0,9.53,26.47,85.76,42.71,7.06,5.64,47.3,107.29,48.71,115.76a1.89,1.89,0,0,1,0,.35s0,.09,0,.14l0,.29,0,.2c0,.1,0,.21-.07.33a1.74,1.74,0,0,1,0,.22c0,.13-.06.25-.1.38s-.05.17-.07.26-.09.29-.14.44l-.09.26c-.06.18-.12.36-.19.55l-.08.23c-.1.28-.21.56-.33.86l-.05.12q-.15.39-.33.81l-.14.33c-.09.21-.19.43-.28.66l-.18.41-.3.67-.2.42-.33.73c-.07.14-.13.28-.2.43s-.25.53-.38.8-.14.28-.2.42l-.47,1-.15.32c-.22.43-.44.88-.66,1.33-.05.09-.09.18-.14.26l-.56,1.13-.25.47-.49,1-.29.55-.49,1-.31.59q-.24.48-.51,1c-.1.2-.21.4-.31.61l-.57,1.06-.28.53-.77,1.43-.11.21-.92,1.69c-.08.16-.17.32-.26.47-.22.42-.45.85-.69,1.27l-.33.61-.63,1.14c-.13.24-.26.48-.4.72l-.6,1.09-.41.73c-.21.38-.42.77-.64,1.15s-.25.45-.38.68l-.74,1.32-.3.55-1,1.78-.07.12c-.35.63-.71,1.26-1.07,1.89l-.41.72-.71,1.24-.43.77c-.23.4-.46.81-.7,1.21l-.44.78L641,862.8l-.45.79-.7,1.21-.47.82-.77,1.32-.39.67-.87,1.51-.72,1.24-.75,1.29-.46.78-.72,1.24c-.19.31-.37.62-.55.93l-.63,1.09-.57.95c-.21.38-.43.75-.65,1.12l-.57,1c-.2.34-.4.68-.59,1s-.41.69-.61,1l-.67,1.13c-.17.29-.35.58-.52.88l-1.17,2c-.2.35-.41.7-.62,1l-.51.86-.75,1.27-.45.76-.51.85-3.1,5.2-.61,1-.36.6-2.66,4.44-.27.45-.82,1.36-.27.45-.81,1.35-.28.46c-.25.41-.5.82-.74,1.23l-.34.56-.79,1.3-.12.21-.87,1.43-.15.25-2.72,4.49c-2.92,4.81-5.54,9.09-7.68,12.6a24.73,24.73,0,0,0-2.84,19.69c.44,1.53,1,2.7,1.66,3,50.36,19.48,96.45,26.76,135.15,28h0a375,375,0,0,0,52-2A240,240,0,0,1,810,949c1.94-1.94,30.13-16,30.13-16l-7.29-14.09s-42.76,27.21-45.19,18,27.7-25.76,35.47-30.61c6.68-4.18,14.06-6.19,17.25-4.83-3.39-10.41-6.21-19.35-8.53-27q-.86-2.83-1.62-5.44c0-.14-.09-.27-.13-.41-.14-.49-.28-1-.42-1.45l-.14-.47-.42-1.44-.07-.26q-.94-3.24-1.74-6.11c-.34-1.22-.66-2.4-1-3.52l-.05-.18c-.13-.5-.27-1-.4-1.48l0-.17c-.14-.52-.28-1-.41-1.53s-.26-1-.39-1.5l0-.1c-.1-.39-.19-.77-.29-1.15l0-.07c-.49-2-.93-3.72-1.3-5.33l0-.06q-.55-2.41-1-4.35v0q-.07-.39-.15-.75v0c-.25-1.24-.45-2.33-.62-3.3v0c0-.19-.07-.37-.1-.55v0c-.15-.91-.26-1.7-.35-2.37v0c0-.13,0-.26,0-.38v0c0-.5-.09-.93-.12-1.31h0c0-.09,0-.17,0-.25v0c0-.07,0-.15,0-.22v0c0-.3,0-.56,0-.77Z"/></clipPath></defs><title>girl shirt K</title><rect class="a" width="1262.35" height="2195.18"/><path class="b" d="M845.49,950.93,844,949l-19.44,8.75c-4,4.13-8.88,9.62-13.94,14.81q4.9-.85,9.33-1.76c4.07-4.58,7.36-8,7.53-8.68C828,960.17,845.49,950.93,845.49,950.93Z"/><g class="c"><path class="b" d="M604.38,631.79c-2.25,9.09-7.88,40,9.91,71.45,7.06,5.64,47.3,107.29,48.71,115.76,1.15,6.9-43.59,80.76-60.23,107.93a24.73,24.73,0,0,0-2.84,19.69c.44,1.53,1,2.7,1.66,3,144.63,55.95,254.11,11.29,254.11,11.29,1.42,0,1.18-11.32,0-14.82-3.71-11-10.37-29.62-13.41-38.82-24.4-74-21.17-79.06-21.17-79.06,4.94-26.83,37.41-149.65,37.41-149.65l.23.41-.06-.23c16.42-33.71,6.89-50.3,6.89-50.3l.07-.25C732.72,618.94,631.23,628.73,604.38,631.79Z"/><path class="d" d="M614.29,927.71s7.9,16,49.41,26.82c55,14.29,149.31,20.24,169.42-24C868.41,852.88,768.17,991.24,614.29,927.71Z"/><path class="e" d="M865.66,628.16l22-73.16-.64-5.78a21.48,21.48,0,0,0-3.12-4.1c-5.16-4.3-50.43-18.22-85.41-28.71-22.44-6.72-40.94-12.23-40.94-12.23l-1.41,6.35c-1.42,8.47-26.92,35.53-26.92,35.53-14.82-10.59-33.79-37.65-33.79-37.65l-41.06,12.41-78.23,25.71a31.31,31.31,0,0,0-5.71,5.11l34.65,77.48s-.31.94-.74,2.67C631.23,628.73,732.72,618.94,865.66,628.16Z"/><path class="f" d="M730.44,655.72h0Z"/><path class="f" d="M768.33,631.9h0Z"/><polygon class="a" points="858.76 678.94 858.82 678.91 858.7 678.71 858.76 678.94"/><path class="e" d="M570.47,551.64s-19.71,5.12-41.94,108.89c0,0,9.53,26.47,85.76,42.71l4.24-77.65Z"/><path class="e" d="M887.7,555s11.42,1.76,48.47,78c0,0-25.41,38.12-69.54,41.53l3.9-38.35-4.87-8Z"/><path class="e" d="M821.12,828.18c4.94-26.83,37.41-149.65,37.41-149.65l.23.41-.06-.23c16.42-33.71,6.89-50.3,6.89-50.3l.07-.25c-132.94-9.22-234.43.57-261.28,3.63-2.25,9.09-7.88,40,9.91,71.45,7.06,5.64,47.3,107.29,48.71,115.76,1,6-32.83,62.85-52.56,95.35,35.29,32.86,80.32,50.51,126.3,63.22l4.39.11c31.62-32.78,63.69-66.32,90.73-103.27C818.92,831.65,821.12,828.18,821.12,828.18Z"/><path class="b" d="M735.26,952.64c-38.55-11.77-85.89-45-109.89-63.13-1,1.76-2.08,3.51-3.11,5.23,24.75,18.73,73.14,52.61,113.14,64.2l1.82.53,1.26-1.42c.61-.69,53.6-60.23,88.83-99.25q-1-3.74-1.87-6.88"/><path class="g" d="M577.59,561.71l30.35,68.82s-11.29,31.76,6.35,72.71l-8.82-2.12s-16.24-41.65-2.47-70.59Z"/><path class="g" d="M887.7,555l-25.41,73.41c8,17.88-3.59,50.3-3.59,50.3l.12.2,7.81-4.38a91.1,91.1,0,0,0,2.72-46.12Z"/><path class="g" d="M626.43,716.72c5.35,12.94,33.94,82.09,40,98.84a.94.94,0,0,0,1.71.11c5.13-9.66,30.14-52.1,73.51-52.1,40,0,66.95,35.21,74.31,48a2.18,2.18,0,0,0,4-.46c5.63-18.73,22.32-84.53,28.24-107.34a2.18,2.18,0,0,0-3.48-2.24c-19.34,15.68-93.77,64.85-217.07,14A.93.93,0,0,0,626.43,716.72Z"/><path class="g" d="M876.88,626.65s21.18-41.3,29.65-30.71S876.88,626.65,876.88,626.65Z"/><path class="g" d="M596.29,625.59s-33.88-43.41-38.11-29.65S563.47,626.65,596.29,625.59Z"/><path class="b" d="M691.68,637.07c-16.83,21.36,37.91,28.75,37.91,28.75S708.68,615.5,691.68,637.07Z"/><path class="b" d="M780.62,635.1c16.84,21.37-37.9,28.76-37.9,28.76S763.63,613.54,780.62,635.1Z"/><circle class="b" cx="736.15" cy="659.31" r="5.25"/><path class="b" d="M735.47,651.44s-19.6-14.37-17-24.83,16.34-31.37,16.34-31.37,17.27,21.84,17.27,32.29S735.47,651.44,735.47,651.44Z"/><path class="b" d="M681.35,638.29s0,13.42,7.06,17.65-44.47-20.47-55.06-13.41C633.35,642.53,650.29,624.18,681.35,638.29Z"/><path class="b" d="M791,636.54s0,13.41-7.06,17.65,44.47-20.47,55.06-13.41C839,640.78,822,622.42,791,636.54Z"/><path class="b" d="M690.53,489s34.94,18,75.17-2.12c0,0,7.42-1.06,8.48,8.47l24.35,21.06s-60.35,64.71-144.12,4.41L681,498.53S681,486.88,690.53,489Z"/><path class="d" d="M771.7,497.82s-31.76,28.24-84.7,5.65C687,503.47,734.29,550.76,771.7,497.82Z"/></g></svg>