<svg xmlns="http://www.w3.org/2000/svg" width="1262.35" height="2195.18" viewBox="0 0 1262.35 2195.18"><title>1_girl_hair_11</title><g id="Layer_2" data-name="Layer 2"><g id="Character_girl_hair_1-2" data-name="Character girl hair 1-2"><g id="_1_girl_hair_11" data-name="1_girl_hair_11"><g id="_1_girl_old_hair_2" data-name="1_girl_old hair_2"><path d="M897.05,183.58c-15.14-133.59-143-99.67-143-99.67-72.71-80-226.42-1.46-213.2,169.6a36.05,36.05,0,0,0,12.65,24.62A97.14,97.14,0,0,1,576.34,306a18.1,18.1,0,0,1,12.79,3.12,62.35,62.35,0,0,1,6.54,5.32s-.32-48.87,9.21-74.28c4,15.68,7.83,22.89,10.62,26.9a3,3,0,0,0,5.37-1c34-144.76,145.19-107.76,145.19-107.76,98.12-15.53,101.21,154.39,101.21,154.39l9.05-1.05a152.26,152.26,0,0,1,15.21-34.09,58.83,58.83,0,0,0,8.94-29.75A492.57,492.57,0,0,0,897.05,183.58Z" fill="#eaeaea"/><path d="M854.93,234.4c0-.16-.1-.33-.16-.5C854.83,234.07,854.88,234.24,854.93,234.4Z" fill="#eaeaea"/><path d="M818.4,171.52l-.45-.37Z" fill="#eaeaea"/><path d="M822.14,174.8l-.18-.18Z" fill="#eaeaea"/><path d="M820.27,173.1l-.5-.43Z" fill="#eaeaea"/><path d="M827.73,180.59l-.42-.47Z" fill="#eaeaea"/><path d="M853.25,229c-.07-.19-.13-.39-.19-.58C853.12,228.62,853.18,228.82,853.25,229Z" fill="#eaeaea"/><path d="M803,162.16l-.59-.25Z" fill="#eaeaea"/><path d="M854,231.44l-.06-.18Z" fill="#eaeaea"/><path d="M857.15,242.37c0-.17-.08-.34-.13-.5C857.07,242,857.11,242.2,857.15,242.37Z" fill="#eaeaea"/><path d="M816.17,169.77l-.42-.31Z" fill="#eaeaea"/><path d="M805.2,163.13l-.52-.24Z" fill="#eaeaea"/><path d="M807.67,164.37l-.43-.23Z" fill="#eaeaea"/><path d="M829.33,182.47l-.42-.5Z" fill="#eaeaea"/><path d="M856.42,239.64l-.06-.24Z" fill="#eaeaea"/><path d="M855.66,236.93c0-.16-.08-.31-.13-.46C855.58,236.62,855.62,236.77,855.66,236.93Z" fill="#eaeaea"/><path d="M814.27,168.4l-.54-.38Z" fill="#eaeaea"/><path d="M809.87,165.59l-.58-.33Z" fill="#eaeaea"/><path d="M811.83,166.77l-.09-.05Z" fill="#eaeaea"/><path d="M825.76,178.42c-.1-.12-.21-.23-.32-.34C825.55,178.19,825.66,178.3,825.76,178.42Z" fill="#eaeaea"/><path d="M840,198.15l-.35-.61Z" fill="#eaeaea"/><path d="M842.66,203.09l-.32-.61Z" fill="#eaeaea"/><path d="M841.19,200.3a.75.75,0,0,0-.07-.12A.75.75,0,0,1,841.19,200.3Z" fill="#eaeaea"/><path d="M849.39,218.18l-.15-.39Z" fill="#eaeaea"/><path d="M848.45,215.8l-.26-.62Z" fill="#eaeaea"/><path d="M847.27,213s0-.09,0-.13S847.25,212.93,847.27,213Z" fill="#eaeaea"/><path d="M843.79,205.36c-.07-.16-.15-.32-.23-.48C843.63,205,843.72,205.2,843.79,205.36Z" fill="#eaeaea"/><path d="M846.21,210.54l-.27-.61Z" fill="#eaeaea"/><path d="M831,184.6l-.25-.32Z" fill="#eaeaea"/><path d="M845.1,208.11l-.24-.52Z" fill="#eaeaea"/><path d="M832.67,186.76l-.42-.57Z" fill="#eaeaea"/><path d="M834.07,188.71l-.2-.29Z" fill="#eaeaea"/><path d="M838.65,195.83c-.08-.15-.17-.3-.26-.45C838.48,195.53,838.57,195.68,838.65,195.83Z" fill="#eaeaea"/><path d="M851.4,223.59c-.06-.19-.13-.38-.2-.57C851.27,223.21,851.34,223.4,851.4,223.59Z" fill="#eaeaea"/><path d="M852.32,226.22l-.08-.23Z" fill="#eaeaea"/><path d="M850.49,221.08c-.06-.18-.13-.36-.2-.53C850.36,220.72,850.43,220.9,850.49,221.08Z" fill="#eaeaea"/><path d="M835.78,191.24c-.12-.19-.24-.38-.37-.57C835.54,190.86,835.66,191.05,835.78,191.24Z" fill="#eaeaea"/><path d="M837.14,193.34l-.33-.52Z" fill="#eaeaea"/><path d="M781.64,157.37h0Z" fill="#eaeaea"/><path d="M769.71,157.8l-.79.1Z" fill="#eaeaea"/><path d="M862.22,265.65v0Z" fill="#eaeaea"/><path d="M861.3,260.68l0-.28C861.27,260.49,861.28,260.59,861.3,260.68Z" fill="#eaeaea"/><path d="M860.26,255.52c0-.12,0-.24-.08-.37C860.21,255.28,860.23,255.4,860.26,255.52Z" fill="#eaeaea"/><path d="M784.68,157.58l-.72-.06Z" fill="#eaeaea"/><path d="M775.92,157.34l-.64,0Z" fill="#eaeaea"/><path d="M787.22,157.86l-.43-.05Z" fill="#eaeaea"/><path d="M615,266.38l-.35-.54Z" fill="#eaeaea"/><path d="M614.56,265.66c-.15-.23-.29-.47-.44-.72C614.27,265.19,614.41,265.43,614.56,265.66Z" fill="#eaeaea"/><path d="M863.44,273l0-.12Z" fill="#eaeaea"/><path d="M823.64,176.24l.48.48Z" fill="#eaeaea"/><path d="M862.65,268.1l0-.14Z" fill="#eaeaea"/><path d="M778.06,157.3h0Z" fill="#eaeaea"/><path d="M772.57,157.52l-.59.06Z" fill="#eaeaea"/><path d="M798,160.3l-.65-.21Z" fill="#eaeaea"/><path d="M792.77,158.86l-.62-.14Z" fill="#eaeaea"/><path d="M795.47,159.53l-.39-.11Z" fill="#eaeaea"/><path d="M800.28,161.07,800,161Z" fill="#eaeaea"/><path d="M858.5,247.72c0-.14-.07-.28-.1-.42C858.43,247.44,858.46,247.58,858.5,247.72Z" fill="#eaeaea"/><path d="M859.08,250.19,859,250Z" fill="#eaeaea"/><path d="M859.69,252.91c0-.07,0-.15,0-.22S859.68,252.84,859.69,252.91Z" fill="#eaeaea"/><path d="M790.27,158.35l-.63-.11Z" fill="#eaeaea"/><path d="M615.49,267.08l-.47-.7Z" fill="#bfbfbf"/><path d="M614.12,264.94l0-.05Z" fill="#bfbfbf"/><path d="M614.67,265.84l-.11-.18Z" fill="#bfbfbf"/><path d="M698.12,123.76c-70.46,15.44-81.89,100.88-84.52,140.3l.49.83,0,.05c.15.25.29.49.44.72l.11.18.35.54.47.7a3,3,0,0,0,5.38-1c34-144.76,145.19-107.76,145.19-107.76S741.62,114.24,698.12,123.76Z" fill="#bfbfbf"/><path d="M603.08,172.31c-22.61,46.18-30,86-30,86-5,13.06-12.13,18.53-19,20.33A97.09,97.09,0,0,1,576.34,306a18.1,18.1,0,0,1,12.79,3.12,62.35,62.35,0,0,1,6.54,5.32s-.32-48.87,9.21-74.28c-5.43-26.56-2-52.27,1-66.93A1.49,1.49,0,0,0,603.08,172.31Z" fill="#bfbfbf"/><path d="M859.65,252.69l-.57-2.5Z" fill="#bfbfbf"/><path d="M858.4,247.3c-.4-1.64-.81-3.28-1.25-4.93C857.59,244,858,245.66,858.4,247.3Z" fill="#bfbfbf"/><path d="M849.24,217.79l-.79-2Z" fill="#bfbfbf"/><path d="M859,250c-.17-.74-.34-1.49-.52-2.23C858.68,248.46,858.85,249.21,859,250Z" fill="#bfbfbf"/><path d="M857,241.87c-.19-.74-.39-1.48-.6-2.23C856.63,240.39,856.83,241.13,857,241.87Z" fill="#bfbfbf"/><path d="M862.63,268c-.13-.76-.27-1.53-.41-2.31C862.36,266.43,862.5,267.2,862.63,268Z" fill="#bfbfbf"/><path d="M855.53,236.47l-.6-2.07Z" fill="#bfbfbf"/><path d="M863.42,272.83c-.24-1.55-.5-3.13-.77-4.73C862.92,269.7,863.18,271.28,863.42,272.83Z" fill="#bfbfbf"/><path d="M848.19,215.18c-.3-.74-.61-1.48-.92-2.21C847.58,213.7,847.89,214.44,848.19,215.18Z" fill="#bfbfbf"/><path d="M854.77,233.9q-.36-1.23-.75-2.46Q854.41,232.67,854.77,233.9Z" fill="#bfbfbf"/><path d="M851.2,223c-.23-.65-.47-1.29-.71-1.94C850.73,221.73,851,222.37,851.2,223Z" fill="#bfbfbf"/><path d="M854,231.26c-.23-.75-.47-1.5-.71-2.25C853.49,229.76,853.73,230.51,854,231.26Z" fill="#bfbfbf"/><path d="M852.24,226q-.4-1.2-.84-2.4Q851.84,224.79,852.24,226Z" fill="#bfbfbf"/><path d="M856.36,239.4c-.23-.83-.46-1.65-.7-2.47C855.9,237.75,856.13,238.57,856.36,239.4Z" fill="#bfbfbf"/><path d="M860.18,255.15c-.16-.74-.32-1.49-.49-2.24C859.86,253.66,860,254.41,860.18,255.15Z" fill="#bfbfbf"/><path d="M861.25,260.4c-.32-1.61-.65-3.24-1-4.88C860.6,257.16,860.93,258.79,861.25,260.4Z" fill="#bfbfbf"/><path d="M850.29,220.55q-.43-1.19-.9-2.37Q849.86,219.37,850.29,220.55Z" fill="#bfbfbf"/><path d="M853.06,228.43c-.25-.74-.49-1.48-.74-2.21C852.57,227,852.81,227.69,853.06,228.43Z" fill="#bfbfbf"/><path d="M847.22,212.84c-.33-.77-.67-1.53-1-2.3C846.55,211.31,846.89,212.07,847.22,212.84Z" fill="#bfbfbf"/><path d="M862.21,265.54c-.29-1.6-.59-3.22-.91-4.86C861.62,262.32,861.92,263.94,862.21,265.54Z" fill="#bfbfbf"/><path d="M819.77,172.67l-1.37-1.15Z" fill="#bfbfbf"/><path d="M797.39,160.09l-1.92-.56Z" fill="#bfbfbf"/><path d="M795.08,159.42c-.76-.2-1.53-.39-2.31-.56C793.55,159,794.32,159.22,795.08,159.42Z" fill="#bfbfbf"/><path d="M800,161c-.65-.24-1.3-.46-2-.67C798.7,160.51,799.35,160.73,800,161Z" fill="#bfbfbf"/><path d="M792.15,158.72c-.62-.13-1.25-.26-1.88-.37C790.9,158.46,791.53,158.59,792.15,158.72Z" fill="#bfbfbf"/><path d="M804.68,162.89c-.55-.25-1.1-.5-1.66-.73C803.58,162.39,804.13,162.64,804.68,162.89Z" fill="#bfbfbf"/><path d="M809.29,165.26c-.53-.3-1.07-.6-1.62-.89C808.22,164.66,808.76,165,809.29,165.26Z" fill="#bfbfbf"/><path d="M811.74,166.72c-.61-.39-1.24-.76-1.87-1.13C810.5,166,811.13,166.33,811.74,166.72Z" fill="#bfbfbf"/><path d="M789.64,158.24c-.8-.14-1.6-.27-2.42-.38C788,158,788.84,158.1,789.64,158.24Z" fill="#bfbfbf"/><path d="M802.43,161.91c-.71-.29-1.43-.58-2.15-.84C801,161.33,801.72,161.62,802.43,161.91Z" fill="#bfbfbf"/><path d="M807.24,164.14c-.67-.35-1.35-.68-2-1C805.89,163.46,806.57,163.79,807.24,164.14Z" fill="#bfbfbf"/><path d="M768.92,157.9c-.94.11-1.9.24-2.86.39C767,158.14,768,158,768.92,157.9Z" fill="#bfbfbf"/><path d="M778.78,157.3c.87,0,1.74,0,2.6.06C780.52,157.32,779.65,157.3,778.78,157.3Z" fill="#bfbfbf"/><path d="M824.12,176.72c.45.45.89.9,1.32,1.36C825,177.62,824.57,177.17,824.12,176.72Z" fill="#bfbfbf"/><path d="M786.79,157.81l-2.11-.23Z" fill="#bfbfbf"/><path d="M778.06,157.3c-.71,0-1.42,0-2.14,0C776.64,157.32,777.35,157.3,778.06,157.3Z" fill="#bfbfbf"/><path d="M772,157.58c-.75.06-1.51.14-2.27.22C770.47,157.72,771.23,157.64,772,157.58Z" fill="#bfbfbf"/><path d="M784,157.52c-.76-.06-1.53-.11-2.32-.15C782.43,157.41,783.2,157.46,784,157.52Z" fill="#bfbfbf"/><path d="M775.28,157.36c-.89,0-1.8.09-2.71.16C773.48,157.45,774.39,157.4,775.28,157.36Z" fill="#bfbfbf"/><path d="M822,174.62c-.56-.52-1.12-1-1.69-1.52C820.84,173.6,821.4,174.1,822,174.62Z" fill="#bfbfbf"/><path d="M839.65,197.54c-.33-.58-.66-1.15-1-1.71C839,196.39,839.32,197,839.65,197.54Z" fill="#bfbfbf"/><path d="M833.87,188.42l-1.2-1.66Z" fill="#bfbfbf"/><path d="M838.39,195.38c-.41-.68-.83-1.36-1.25-2C837.56,194,838,194.7,838.39,195.38Z" fill="#bfbfbf"/><path d="M835.41,190.67c-.44-.66-.88-1.31-1.34-2C834.53,189.36,835,190,835.41,190.67Z" fill="#bfbfbf"/><path d="M836.81,192.82c-.34-.53-.68-1.06-1-1.58C836.13,191.76,836.47,192.29,836.81,192.82Z" fill="#bfbfbf"/><path d="M843.56,204.88l-.9-1.79Z" fill="#bfbfbf"/><path d="M844.86,207.59c-.35-.75-.7-1.49-1.07-2.23C844.16,206.1,844.51,206.84,844.86,207.59Z" fill="#bfbfbf"/><path d="M842.34,202.48c-.38-.73-.76-1.46-1.15-2.18C841.58,201,842,201.75,842.34,202.48Z" fill="#bfbfbf"/><path d="M841.12,200.18c-.36-.68-.74-1.36-1.12-2C840.38,198.82,840.76,199.5,841.12,200.18Z" fill="#bfbfbf"/><path d="M828.91,182l-1.18-1.38Z" fill="#bfbfbf"/><path d="M823.64,176.24c-.5-.49-1-1-1.5-1.44C822.65,175.27,823.14,175.75,823.64,176.24Z" fill="#bfbfbf"/><path d="M818,171.15c-.59-.47-1.18-.93-1.78-1.38C816.77,170.22,817.36,170.68,818,171.15Z" fill="#bfbfbf"/><path d="M845.94,209.93c-.28-.61-.55-1.22-.84-1.82C845.39,208.71,845.66,209.32,845.94,209.93Z" fill="#bfbfbf"/><path d="M832.25,186.19,831,184.6Z" fill="#bfbfbf"/><path d="M815.75,169.46l-1.48-1.06Z" fill="#bfbfbf"/><path d="M830.79,184.28c-.48-.61-1-1.22-1.46-1.81C829.82,183.06,830.31,183.67,830.79,184.28Z" fill="#bfbfbf"/><path d="M827.31,180.12c-.51-.58-1-1.15-1.55-1.7C826.29,179,826.8,179.54,827.31,180.12Z" fill="#bfbfbf"/><path d="M813.73,168c-.63-.42-1.26-.84-1.9-1.25C812.47,167.18,813.1,167.6,813.73,168Z" fill="#bfbfbf"/><path d="M875.12,251.87c-2-41.4-9.52-82.29-33.24-101.64-40.24-32.83-75.82,8.06-75.82,8.06,98-15.5,101.19,154.28,101.21,154.39l9.05-1.05a147.45,147.45,0,0,1,18.12-38.57,21.89,21.89,0,0,1-6.71-1.87A22.34,22.34,0,0,1,875.12,251.87Z" fill="#bfbfbf"/><path d="M772.26,80.89a129.37,129.37,0,0,0-18.2,3s12,15.8,12,45.09A82.69,82.69,0,0,0,772.26,80.89Z" fill="#bfbfbf"/><rect width="1262.35" height="2195.18" fill="none"/></g></g></g></g></svg>