<svg xmlns="http://www.w3.org/2000/svg" width="1262.35" height="2195.18" viewBox="0 0 1262.35 2195.18"><defs><style>.a{fill:none;}.b{fill:#f3bd9e;}.c{fill:#db9e7b;}</style></defs><title>girl face A</title><rect class="a" width="1262.35" height="2195.18"/><path class="b" d="M611.79,367.87c-23.65,8.41-48.51-23.68-34.87-39,8.64-9.71,25,7.12,29.22,11.8l-2.4-11.58s-13.86-31.88-33-20.74-14.43,38-7.48,51.47S594,401,614.61,381.41Z"/><path class="c" d="M576.92,328.86c-13.64,15.33,11.22,47.42,34.87,39l-5.65-27.21C601.92,336,585.56,319.15,576.92,328.86Z"/><path class="b" d="M849.23,369.8c23.51,8.8,48.89-22.88,35.51-38.43-8.48-9.85-25.12,6.71-29.41,11.31l2.59-11.53s14.37-31.65,33.34-20.2,13.81,38.23,6.64,51.59-31.39,40.68-51.7,20.75Z"/><path class="c" d="M884.74,331.37c13.38,15.55-12,47.23-35.51,38.43l6.1-27.12C859.62,338.08,876.26,321.52,884.74,331.37Z"/><path class="b" d="M732.3,149.12c-147-2.18-139.75,139.59-137.63,162.4.19,2,3,33.85,10.34,74.46,8.37,46.3,77,81.86,108.79,96a38.17,38.17,0,0,0,30.88.1c31.76-13.91,102.22-49.43,111-94.06,8-40.49,11.33-72.25,11.55-74.28C869.77,291,879.36,149.33,732.3,149.12Z"/><path class="c" d="M867.27,307.74c-.22,2-3.54,33.79-11.55,74.28-9.41,47.62-89,84.87-116.87,96.56a24.64,24.64,0,0,1-19.18,0C691.54,466.57,613.94,429.39,605,380c-7.34-40.61-10.15-72.43-10.34-74.46-.29-3-.66-8.21-.75-14.85a198,198,0,0,0,.75,20.85c.19,2,3,33.85,10.34,74.46,8.37,46.3,77,81.86,108.79,96a38.17,38.17,0,0,0,30.88.1c31.76-13.91,102.22-49.43,111-94.06,8-40.49,11.33-72.25,11.55-74.28a202.55,202.55,0,0,0,1.07-24.31C868.22,297.76,867.66,304.19,867.27,307.74Z"/></svg>