<svg xmlns="http://www.w3.org/2000/svg" width="1262.35" height="2195.18" viewBox="0 0 1262.35 2195.18"><title>1_girl_hair_10</title><g id="Layer_2" data-name="Layer 2"><g id="Character_girl_hair_1-2" data-name="Character girl hair 1-2"><g id="_1_girl_hair_10" data-name="1_girl_hair_10"><g id="_1_girl_old_hair_1" data-name="1_girl_old hair_1"><path d="M550.76,259.24s-46.59-55.77,25.41-93.89c-9.88-19.76,8.48-88.94,82.06-68-.17-26.59,67.59-66.11,107.12-1.17,14.12-14.12,73.41-31.06,84.71,29.64,42.35-2.82,70.59,35.3,55.06,76.24,24,39.53-1.19,49.21-24,63.53L796.41,163.94,735,149.12,627,180.88l-50.83,57.18-19,21.18" fill="#bfbfbf"/><path d="M751.23,189.35s-105.88-52.23-156.65,86.12l.09,35s-24.14-22.28-36.85,15.83c0,0-17.7-6.24-29.39-22.22-12.67-17.31-8.1-41.74,9.54-53.94,17.07-11.81,41.85-36.24,55.15-83.37,15.53-55,117.17-97.41,166.58-15.52,0,0,74.83-76.24,107.3,26.82,15.32,48.63,29.07,64.88,39.32,68.48a28,28,0,0,1,18.36,29.67c-2.15,17.89-8.09,37-23,44.44,0,0-13.53-18.36-33.29-5.65C868.41,315,848.65,162.53,751.23,189.35Z" fill="#eaeaea"/><path d="M900.59,284.35c-12-4-23-11-26-23-7-28-12-53-28-78-22.38-34-64-32-94-11.81-15.83-22.83-49-28.44-75-19.19-50,18-73,65-104,106q-12,15-30,15c-7.4.53-13.67-2.85-18.54-8.07a37.83,37.83,0,0,0,3.38,38.79c11.69,16,29.39,22.22,29.39,22.22,12.71-38.11,36.85-15.83,36.85-15.83l-.09-35c50.77-138.35,156.65-86.12,156.65-86.12C848.65,162.53,868.41,315,868.41,315c19.77-12.71,33.29,5.65,33.29,5.65,11.88-5.94,18.06-19.32,21.17-33.57A60,60,0,0,1,900.59,284.35Z" fill="#bfbfbf"/><rect width="1262.35" height="2195.18" fill="none"/></g></g></g></g></svg>