<svg xmlns="http://www.w3.org/2000/svg" width="1262.35" height="2195.18" viewBox="0 0 1262.35 2195.18"><defs><style>.a{fill:none;}.b{fill:#9f4055;}.c{fill:#822e42;}.d{fill:#c44f69;}</style></defs><title>girl hair h</title><rect class="a" width="1262.35" height="2195.18"/><path class="b" d="M899,268.44c.32-4.29.51-7.09.51-7.09C924.88,46.76,720.18,52.41,720.18,52.41c-90.76-.83-163.77,57.88-172.24,152.47-4.75,53,15.53,108.71,15.53,108.71,6-4.52,11-6.82,15.16-7.77-3.94,45.64-29.28,316.94,92.13,307.06,62.12-5,38.12-59.29,38.12-59.29s-8.47,43.76-43.76,31.06C598,560.47,607.23,319.24,607.23,319.24c27.3-22.93,57.12-96.5,69.24-130.64,29.68,34.63,83.53,80.69,159.47,79.81,0,0,30.39,183.24-19.76,297.88C796.41,611.47,754.31,586,752.65,579c0,0,8.07,42.58,55.05,36.71,79.06-9.89,61.74-126.88,66.52-217.67h0c1.81.15,3.63.24,5.48.24A66.35,66.35,0,0,0,899,268.44Zm-1.06,94.1c-3.86,7.18-12.66,18.41-23.13,24.15,1.41-31.06,1.75-58,2-74.8,6.46-2,10.59-2.14,13.15-1.65.43.21.86.45,1.3.71C910.23,322.4,905.07,349.18,897.9,362.54Z"/><path class="b" d="M946.06,331.94a66.18,66.18,0,0,0-25.26-52.07c-8.89-2.82-18-5.17-27.21-4.52,20,7,33,25,37,45-9-7-17-18-30-18,14,6,20,19,23,32,4.11,20-2.12,43-15.65,57.64A66.35,66.35,0,0,0,946.06,331.94Z"/><path class="c" d="M923.59,334.35c-3-13-9-26-23-32,13,0,21,11,30,18-4-20-17-38-37-45,9.16-.65,18.32,1.7,27.21,4.52A66.13,66.13,0,0,0,899,268.44c.32-4.29.51-7.09.51-7.09a286.06,286.06,0,0,0,1.91-47c-3.08,11.7-16.76,41.52-19.79,29-10.36-42.7-32-74.65-34.36-76.59,9.89,28.24,35.3,89,29.59,145.13,6.45-2,10.58-2.14,13.14-1.65.43.21.86.45,1.3.71,19,11.45,13.81,38.23,6.64,51.59-3.86,7.18-12.66,18.41-23.13,24.15q-.25,5.6-.55,11.36c1.81.15,3.63.24,5.48.24a66,66,0,0,0,28.24-6.3C921.47,377.36,927.7,354.31,923.59,334.35Z"/><path class="b" d="M514.29,329.24a66.2,66.2,0,0,1,25.26-52.08c8.89-2.82,18.05-5.17,27.21-4.51-20,7-33,25-37,45,9-7,17-18,30-18-14,6-20,19-23,32-4.11,20,2.12,43,15.65,57.64A66.37,66.37,0,0,1,514.29,329.24Z"/><path class="a" d="M891.26,311c-.44-.26-.87-.5-1.3-.71-2.56-.49-6.69-.39-13.15,1.65-.29,16.82-.63,43.74-2,74.8,10.47-5.74,19.27-17,23.13-24.15C905.07,349.18,910.23,322.4,891.26,311Z"/><path class="a" d="M563.47,313.59s-.08-.21-.21-.59c-11.86,12.95-7.12,35.08-.81,46.83a69.44,69.44,0,0,0,11.81,15.47c1-30.32,3.12-55.07,4.19-67.43a28.29,28.29,0,0,0-4.36-.56A49.8,49.8,0,0,0,563.47,313.59Z"/><path class="c" d="M574.09,307.31a28.29,28.29,0,0,1,4.36.56c.07-.72.13-1.41.18-2.05A28.81,28.81,0,0,0,574.09,307.31Z"/><path class="c" d="M539.55,277.16a118.9,118.9,0,0,1,13.23-3.51c-.27-1.38-.55-2.8-.81-4.24A67,67,0,0,0,539.55,277.16Z"/><path class="a" d="M574.09,307.31a16.3,16.3,0,0,0-3.7.22c-.43.22-.86.45-1.3.72a26,26,0,0,0-5.83,4.75c.13.38.21.59.21.59A49.8,49.8,0,0,1,574.09,307.31Z"/><polygon class="a" points="874.22 398.05 874.22 398.05 874.22 398.04 874.22 398.05"/><path class="a" d="M897.9,362.54c-3.86,7.18-12.66,18.41-23.13,24.15,1.41-31.06,1.75-58,2-74.8,6.46-2,10.59-2.14,13.15-1.65.43.21.86.45,1.3.71C910.23,322.4,905.07,349.18,897.9,362.54Z"/><path class="a" d="M559.09,299.66l.07.27.6-.28Z"/><path class="a" d="M552.78,273.65q.59,2.87,1.17,5.58a52.38,52.38,0,0,1,12.81-6.58A53.51,53.51,0,0,0,552.78,273.65Z"/><path class="c" d="M613.12,164.06c-2.38,1.93-23.9,33.73-34.28,76.27-.47,1-8.31,18.91-13.4-11.83-4.22-30.91-1.58-62.88,3.75-94.07-11.45,20.33-18.88,44-21.25,70.45-2.17,24.22.89,49,4.84,68.77h0q.59,2.87,1.17,5.58h0v0c-12.75,8.92-21.12,23.08-24.19,38.42,8.85-6.88,16.73-17.61,29.33-18-.07-.22-.14-.46-.2-.69.06.23.13.47.2.69h0l.07.27c-13.56,6.12-19.44,18.91-22.4,31.72-4.11,20,2.12,43,15.65,57.64a66.22,66.22,0,0,0,21.42,5.94c.08-6.85.23-13.52.43-19.93a69.44,69.44,0,0,1-11.81-15.47c-6.31-11.75-11.05-33.88.81-46.83l0-.12,0,.11h0c.13.38.21.59.21.59a48.12,48.12,0,0,1,11.14-6.48l.64-.26c.49-.18,1-.35,1.44-.49l.15-.05c.51-.15,1-.29,1.48-.41h0l.31-.08c0,.64-.11,1.33-.18,2.05C579.17,308,584.65,216.88,613.12,164.06Z"/><path class="c" d="M672.38,170.22c-9.62,32-24.4,62.89-45.79,87.13a460.18,460.18,0,0,1-1.78-49.08A377,377,0,0,0,608.54,318.1c26.94-24.13,56-95.9,67.93-129.5C706,223,759.4,268.77,834.68,268.41c-1.35-11.58-3.13-23.08-5.28-34.59C770.81,244.15,706.46,217.88,672.38,170.22Z"/><path class="d" d="M811.94,94.76S795,154.06,721.59,171c0,0,88.94,11.29,118.58-52.24Z"/><path class="d" d="M618.53,103.24s-8.47,36.7,38.12,60.7c0,0-46.59-1.41-59.3-35.29C597.35,128.65,604.41,107.47,618.53,103.24Z"/><path class="d" d="M673.59,601.24c15.91-.22,30-21.24,31.77-36.75-5.13,12-16.73,28.62-40.24,20.16-27.13-9.77-41.79-54.94-49.62-105.32C614.34,515.31,613.88,602.06,673.59,601.24Z"/><polygon class="b" points="874.22 398.05 874.22 398.05 874.22 398.04 874.22 398.05"/><path class="a" d="M754.85,582.13c-.74-1-1.48-2-2.2-3.13A7.6,7.6,0,0,0,754.85,582.13Z"/><path class="d" d="M842.54,451.65C839,491.5,831.19,532,816.18,566.29c-17.42,39.82-52.18,24.77-61.33,15.84C777.09,612,857.82,623.47,842.54,451.65Z"/></svg>