<svg xmlns="http://www.w3.org/2000/svg" width="1262.35" height="2195.18" viewBox="0 0 1262.35 2195.18"><defs><style>.a{fill:none;}.b{fill:#5a3d2e;}.c{fill:#3d2e26;}.d{fill:#92654e;}</style></defs><title>girl hair B</title><rect class="a" width="1262.35" height="2195.18"/><path class="b" d="M632.29,238.06s75.18-4.24,110.12-42.35c0,0-44.47,45.53-63.53,58.23,0,0,85.77-32.82,99.53-74.12,0,0-21.18,48.71-45.53,73.06,0,0,49.77-29.64,60.35-66.7,0,0,15.89,34.94,47.65,60.35,0,0,18.35,113.65-7.06,164.47,0,0,30.35-28.94,33.88-96,0,0,10.76-10.93,21.89-4.94,9.17,4.94,17.74,15.25,13.41,34.29-10.59,46.59-46.3,46.18-46.3,46.18s-18.64,52.94-101.23,85.71l-.71,3.94s66.36-.71,123.53,52.23c0,0,48.71-150.41,50.47-244.65,1.9-101.09-44.82-222.64-190.58-222.29-149.87.36-219.31,115.3-206.06,248.82C545.88,453,588.88,533.47,588.88,533.47s59.29-51.88,108.71-54.71v-5.64s-73.42-27.53-92.47-85.41c0,0-37.42-4.24-46.59-38.83s16.94-55.06,36-33.88c0,0,6.35,74.12,36,101.65C630.53,416.65,602.29,294.53,632.29,238.06Z"/><path class="c" d="M594.63,230.73c-9.51,24.29-16.72,49.88-19.38,75.87,6.17-.93,13,1.52,19.16,8.27C592.3,286.83,590.65,258.78,594.63,230.73Z"/><path class="c" d="M655.57,192c-9.44,14.27-16.94,30-23.14,46.06,1-.06,7.14-.48,16.31-1.83C647.94,221.62,651.27,206.37,655.57,192Z"/><path class="c" d="M837.25,185.69C836.09,202,833,218,826.16,233.05a154.9,154.9,0,0,0,14.72,13.48s.22,1.36.58,3.86C842.7,228.59,842.55,206.54,837.25,185.69Z"/><path class="c" d="M589.45,533c6.11-5.22,61.52-51.55,108.14-54.22v-5.64s-73.41-27.53-92.47-85.41a45.26,45.26,0,0,1-4.47-.84C591.09,434.92,585.05,484.35,589.45,533Z"/><path class="c" d="M862.6,389.84a32.32,32.32,0,0,1-5.9.69s-18.64,52.94-101.23,85.71l-.71,3.94s65.56-.69,122.5,51.29C874.06,480.18,868.41,430.76,862.6,389.84Z"/><path class="d" d="M746.37,187.78c-27.73.77-53-2.05-79.56-10.51a90.7,90.7,0,0,0-6.75,20.61C690.18,200.92,717.87,197.06,746.37,187.78Z"/><path class="d" d="M588.6,134.17c-9.17,9.74-16.13,21.43-22.28,33.55,24.58,14.4,49.08,24.92,77.62,29,3-7.33,7.81-17,10.59-24.35C629.61,163.49,608,151.61,588.6,134.17Z"/><path class="d" d="M807,183a141.2,141.2,0,0,0,25.07,1c-.32-2.57-.72-5.13-1.17-7.7A190.39,190.39,0,0,1,807,183Z"/><path class="d" d="M888.79,150c-12.76,7.93-31,16.4-48.38,22.94.62,3.49,1.21,7,1.71,10.56a368.41,368.41,0,0,0,57.75-9.15A192,192,0,0,0,888.79,150Z"/><path class="c" d="M869.33,313.57c2.68-2.16,8.4-5.94,14.87-5.21-3.35-18.7-6.18-37.38-15.74-53.52C868.33,274.23,870.28,294,869.33,313.57Z"/></svg>