<svg xmlns="http://www.w3.org/2000/svg" width="1262.35" height="2195.18" viewBox="0 0 1262.35 2195.18"><defs><style>.a{fill:none;}.b{fill:#3b3832;}</style></defs><title>girl hair E</title><rect class="a" width="1262.35" height="2195.18"/><path d="M962.65,329.12c-42.36-8.47-48.71-51.88-33.89-49.77S951,294.18,951,294.18c5.47-43.8-34.65-57.72-45.85-60.73,25.62,5.55,38.44-10.21,38.44-10.21-41.3,5.29-49.77-43.42-49.77-43.42,10.59-8.47,25.41,7.42,25.41,7.42-3.17-42.36-33.88-49.77-33.88-49.77-2.12-9.53,11.65-15.88,11.65-15.88-18-32.83-40.24-19.06-40.24-19.06,9.53-48.71-32.82-48.71-32.82-48.71,5.29,13.77-10.59,20.12-10.59,20.12-26.47-7.41-9.53-31.76-9.53-31.76-30.7-13.77-36,15.88-36,15.88-16.94-34.94-57.17-22.24-57.17-22.24s34.94,24.36,0,27.53-27.53-26.47-27.53-26.47c-60.36,5.3-55.06,58.24-55.06,58.24C600.53,96.18,609,67.59,609,67.59c-36,22.23-22.24,54-22.24,54-39.17-3.18-40.23,28.59-40.23,28.59,7.41-13.77,21.17,5.29,21.17,5.29-26.47,8.47-40.23,34.94-39,75.25.47,15.35-20.65,24.21-36,24.46A46.41,46.41,0,0,0,534,274.35c-24.18,20.64-31.61,58.49-17,86.73a31.21,31.21,0,0,1,8.91-21.85c12.29,18.73,32.56,56.66,13.21,79.89,0,0,23.5,0,29.34-25.14,19.62,10.81,56.35,36.95,40.54,74.9,0,0,31.41-19.76,26.47-36,0,0-25.77-26.82-30.35-45.17-36.71-6-56.47-41.65-44.83-66,7.89-16.5,19.17-16,25.63-13.95a52.31,52.31,0,0,0,21,24.66c10.62,6.43,19.69,7.78,30.56,5.3-.3-.12-.6-.24-.88-.37-13-7-23-19-26-34-4.93-20.68-3.05-46.2,15.15-59.38l.48-1.4c12.49,12.38,13.11,34.72,1.32,47.77a57.31,57.31,0,0,0,38.69-68.2c11.6,18.62,35.64,29.71,57.67,25.63-18.55-10.77-31.25-39.36-8-68,26.47,15.89,11.66,42.37,1.35,45.82,9.63,9,45.73,3.17,58.67.64a42.64,42.64,0,0,0,28.47-20.65A47.78,47.78,0,0,0,843.29,274c-11-11.13-14.21-29.32-7.58-43.52,14.78,3.06,20.65,20.23,21.38,35.31,1.79,36.86-26.66,40.77-30.55,40.85,11.83,9.11,28.33,11,42.37,6.25l-.5,3.52c10.49-14.74,42.35-6.35,32.82,31.77s-44.47,41.29-44.47,41.29c-5.29,20.12-27.53,41.29-27.53,41.29,7.42,16.95,38.12,26.48,38.12,26.48-18-37.06,19.06-69.89,19.06-69.89,15.88,5.3,15.88,37.06,15.88,37.06,42.36-52.94,11.65-92.12,11.65-92.12C936.62,353.64,962.65,329.12,962.65,329.12Z"/><path class="b" d="M613.23,120.53s28.59,25.41,103.77,18c0,0-62.47,33.88-124.94,11.65Z"/><path class="b" d="M741.35,139.59s65.65,3.17,110.12-14.83l18,25.42S815.47,172.41,741.35,139.59Z"/></svg>