<svg xmlns="http://www.w3.org/2000/svg" xmlns:xlink="http://www.w3.org/1999/xlink" width="1262.35" height="2195.18" viewBox="0 0 1262.35 2195.18"><defs><style>.a{fill:none;}.b{clip-path:url(#a);}.c{fill:#c23736;}.d{fill:#a32121;}.e{fill:#b02d2c;}.f{fill:#fff;}</style><clipPath id="a"><path class="a" d="M864.17,985.52h0c-1.68-.33-2.65-.57-2.65-.57s-35.47,33-39.85,24.79,34.51-39.37,34.51-41.31-2.92-3.4-2.92-3.4l-14.09,5.83s-28.19,35-34.5,27.7c-4.19-4.83,7-18.37,15.11-27.55q-4.86,1.17-9.72,2.14a101,101,0,0,1-12.68,11.32c-6.74,4.76-13,5.13-13.61,2.43-.44-1.9,1.41-5.73,4.3-10.26-98.2,11.67-187.54-28.11-187.54-28.11a85.34,85.34,0,0,0-4.77,10.94c-1.42,3.69-4.86,10.78-4.86,10.78-3.49,8.1-12.4,22.34-17.9,40-7.77,25-12.84,54.83-14.82,69.53-11.64,86.08,20.71,307.17,23.64,332.12,31.91,8.24,68.21,12.3,100.21,14.55,19-120.89,47.92-314.26,49.44-308.2,1.43,5.74,45.77,187.12,74.23,303.6q31.34-4.32,62.89-11.54c13.14-3.15,37.8-9.14,50.64-12.88C913.94,1101,884.29,1030.06,864.17,985.52Z"/></clipPath></defs><title>girl pant short A</title><rect class="a" width="1262.35" height="2195.18"/><g class="b"><path class="c" d="M919.23,1397.47c-5.29-296.47-34.94-367.41-55.06-411.95-12.31-27.23-7.41-26.4-7.41-26.4-120.7,49.76-256.23-10.59-256.23-10.59-3.5,7.37-3.57,15.41-9.63,21.72-14.73,15.34-29.33,84.45-32.73,109.57-11.63,86.08,20.72,307.17,23.65,332.12,31.91,8.24,68.21,12.3,100.21,14.55,19-120.89,47.92-314.26,49.44-308.2,1.43,5.74,45.77,187.12,74.23,303.6q31.34-4.32,62.89-11.54C881.73,1407.2,906.39,1401.21,919.23,1397.47Z"/><path class="d" d="M721.23,1126.41l34.24-20.82s8.47-98.83,7.06-103.06-38.12,1.41-38.12,1.41Z"/><path class="d" d="M823.23,971.47l-5.64,4.24c12.7,73.41,60.37,89.5,80.47,98.82q-.76-4.72-1.52-9.24c-16.92-9.75,2.82-64.92-8.37-79.7C867.73,958.57,823.23,971.47,823.23,971.47Z"/><path class="d" d="M621.35,991.24l-48-15.53c-5.86,46.92-12.69,83.9-28.23,94.58-.4,3.83.33,13,0,17C624.17,1056.18,621.35,991.24,621.35,991.24Z"/><path class="d" d="M931.94,1401.71c-1-4.2-116.51,12.79-117.53,8.47-28.17-119.3-68.82-286.24-68.82-286.24l55.06-48-69.89,42-.7,3.53c2.12,8.47,53.64,204.35,75.64,300.42C807.46,1421.65,930.18,1402,931.94,1401.71Z"/><path class="d" d="M883.94,999.71c-4-16-27.18-40.59-27.18-40.59-120.7,49.76-256.23-10.59-256.23-10.59-3.29,6.93-24.09,35.13-27.18,42.71C606.47,1006.49,741.35,1061.82,883.94,999.71Z"/><path class="e" d="M651.5,965.45q-6.57-1.71-12.43-3.43a441.55,441.55,0,0,0-11.41,49.38q5.75,1.7,11.93,3.33Z"/><path class="e" d="M697.79,974.83l-9.45,49.76q7.88,1.11,16.11,2l7.31-49.94C707,976.09,702.35,975.49,697.79,974.83Z"/><path class="e" d="M771.14,978.17l3.87,49q7-.6,14.08-1.49L784.72,977Q777.9,977.75,771.14,978.17Z"/><path class="e" d="M838.15,965.9c-4.27,1.36-8.56,2.6-12.84,3.73l10.76,46.84q7.11-1.92,14.29-4.17Z"/><path class="d" d="M581.82,1411.94s74.83,7.77,86.47-.7c8.16-5.94,30.22-141.58,44.24-225.53,6-35.94,8.7-59.3,8.7-59.3a188.14,188.14,0,0,0,20.12-19.06c4.32-4.78-49.76,332.47-49.76,332.47Z"/><path class="d" d="M712.53,1185.71s-27.65,97.76-80.92,138.2a2.34,2.34,0,0,0,2.15,4.08c19.85-6.51,61.45-38.69,69.47-44.52Z"/><path class="d" d="M743.47,1123.24s54.73,99.86,108.42,159.68a1.9,1.9,0,0,1-2.39,2.9c-18.36-10.91-57.28-37.57-87-82.11Z"/><circle class="f" cx="744.17" cy="1002.53" r="11.29"/><path class="c" d="M566.29,1064.65s36-21.89,43.06-57.18l-26.12-7.76S567.7,1042.06,566.29,1064.65Z"/><path class="c" d="M840.88,1014.53s17.65,34.59,41.65,41.65c0,0-5.65-36-15.53-51.53Z"/></g></svg>