<svg xmlns="http://www.w3.org/2000/svg" xmlns:xlink="http://www.w3.org/1999/xlink" width="1262.35" height="2195.18" viewBox="0 0 1262.35 2195.18"><defs><style>.a{fill:none;}.b{fill:#403439;}.c{clip-path:url(#a);}.d{fill:#cf65a0;}.e{fill:#a34077;}.f{fill:#fff;}.g{fill:#db4d5b;}</style><clipPath id="a"><path class="a" d="M1034.44,815.81c-15.57-24.55-53.61-85.58-84.62-143.63-30.25-56.64-56-112.58-62.76-123a21.48,21.48,0,0,0-3.12-4.1c-7.78-6.49-107.85-35.59-124.11-40.3.12-4.43.27-11.51.13-15.35h0c0-.21,0-.42,0-.61v-.1l0-.46a.62.62,0,0,0,0-.13c0-.12,0-.24,0-.35a.89.89,0,0,1,0-.15c0-.09,0-.18,0-.25l0-.16a.89.89,0,0,1,0-.15,1,1,0,0,0-.07-.22c-.7-1.76-3.88-3.53-3.88-3.53L733.26,494l-12,.33-24-14.1-3.64,3.53,1,.22v.1l-1,.3v.07l1,.51h0l-1,.67v0l.47,23.16,0,.09L576.18,546.53a31.31,31.31,0,0,0-5.71,5.11C543,578.29,539,653.4,524.65,731.47c-13.8,75.3-27.53,141.18-27.53,141.18,1.75,5.94-28.41,33.4-72.25,252.5l0,.11q-.57,2.85-1.15,5.74c-1.78,9,43.06,21.18,46.59,12.71a1.78,1.78,0,0,0,.08-.18l0-.08.1-.21.05-.12.14-.3.05-.12c.08-.16.16-.34.25-.54l0-.07c.83-1.82,2.33-5.11,4.36-9.59h0C488,1104.72,521.12,1030.83,543,970.06c19.06-52.94,12.7-87.53,12.7-87.53l55.45-169.68.5.8,2.64-10.41c7.06,5.64,47.3,107.29,48.71,115.76,1.15,6.9-43.59,80.76-60.23,107.93a25.58,25.58,0,0,0-3.33,8.63h0c-.11.59-.19,1.17-.26,1.76a.38.38,0,0,0,0,.1c-.07.6-.11,1.2-.13,1.79,0,0,0,.06,0,.09,0,.54,0,1.08,0,1.61,0,.1,0,.2,0,.31,0,.56.07,1.13.14,1.7a.69.69,0,0,0,0,.13c.06.5.14,1,.24,1.52,0,.13,0,.27.08.41.12.55.25,1.09.4,1.63.44,1.53,1,2.7,1.66,3,75.48,29.2,141.38,31,187.15,26A238.19,238.19,0,0,1,810,949c1.94-1.94,30.13-16,30.13-16l-7.29-14.09s-42.76,27.21-45.19,18,27.7-25.76,35.47-30.61c6.68-4.18,14.06-6.19,17.25-4.83-22.31-68.4-19.26-73.22-19.26-73.22,4.94-26.83,37.41-149.65,37.41-149.65l.23.41,3.39-1.9,4.48-2.51h0l.84-.47,97.88,145.41c4-4.32-19.45,20.83-34.35,41.41-7.23,10-23.57,40.35-32,56.22l0,0c-.16.32-.33.63-.49.94l-.12.23c-.15.27-.29.55-.43.81l-.09.17-.49.93v0l-2.44,4.64,0,.07-.7,1.34h0c-.11.2-.19.36-.25.48l0,.06,0,0,0,.07,0,0c17.65,25.41,39.53,30.35,39.53,30.35,1.51-1.36,3-2.7,4.46-4,58.77-53.56,86.06-93.88,97.18-113.35A23.43,23.43,0,0,0,1034.44,815.81Z"/></clipPath></defs><title>girl shirt G</title><rect class="a" width="1262.35" height="2195.18"/><path class="b" d="M845.49,950.93,844,949l-19.44,8.75c-4,4.13-8.89,9.62-14,14.82q4.9-.85,9.33-1.76c4.08-4.58,7.37-8,7.54-8.69C828,960.17,845.49,950.93,845.49,950.93Z"/><g class="c"><path class="d" d="M604.38,631.79c-2.25,9.09-7.88,40,9.91,71.45,7.06,5.64,47.3,107.29,48.71,115.76,1.15,6.9-43.59,80.76-60.23,107.93a24.73,24.73,0,0,0-2.84,19.69c.44,1.53,1,2.7,1.66,3,144.63,55.95,254.11,11.29,254.11,11.29,1.42,0,1.18-11.32,0-14.82-3.71-11-10.37-29.62-13.41-38.82-24.4-74-21.17-79.06-21.17-79.06,4.94-26.83,37.41-149.65,37.41-149.65l.23.41-.06-.23c16.42-33.71,6.89-50.3,6.89-50.3l.07-.25C732.72,618.94,631.23,628.73,604.38,631.79Z"/><path class="b" d="M855.31,944.89c-103.7,35.82-215.89,1.49-254.92-12.91a24.3,24.3,0,0,0-.46,14.64c.44,1.53,1,2.7,1.66,3,144.63,55.95,254.11,11.29,254.11,11.29,1.42,0,1.18-11.32,0-14.82Z"/><path class="e" d="M626.43,716.72c5.35,12.94,33.94,82.09,40,98.84a.94.94,0,0,0,1.71.11c5.13-9.66,30.14-52.1,73.51-52.1,40,0,66.95,35.21,74.31,48a2.18,2.18,0,0,0,4-.46c5.63-18.73,22.32-84.53,28.24-107.34a2.18,2.18,0,0,0-3.48-2.24c-19.34,15.68-93.77,64.85-217.07,14A.93.93,0,0,0,626.43,716.72Z"/><path class="f" d="M865.66,628.16l22-73.16-.64-5.78a21.48,21.48,0,0,0-3.12-4.1c-8.47-7.06-126.35-40.94-126.35-40.94l-1.41,6.35C754.76,519,726.53,555,726.53,555c-14.83-10.59-31.06-46.59-31.06-46.59L576.18,546.53a31.31,31.31,0,0,0-5.71,5.11l34.65,77.48s-.31.94-.74,2.67C631.23,628.73,732.72,618.94,865.66,628.16Z"/><path class="f" d="M693.59,508.84s-.36-23.65-.36-25.06,3.53-3.53,3.53-3.53l24,14.1,11.29,0,23.29-10.95s3.18,1.77,3.88,3.53,0,21.89,0,21.89S734.53,553,727.12,558.6,693.59,508.84,693.59,508.84Z"/><path class="b" d="M734.29,502.35,760,491.15a17,17,0,0,0-.3-3.8c-.7-1.66-3.88-3.33-3.88-3.33l-23.29,10.33H721.24l-24-13.32s-3.53,2-3.53,3.33c0,.2,0,.85,0,1.8L723,502.35Z"/><path class="b" d="M720.59,494.28l.33,102.53a5.67,5.67,0,0,0,5.51,5.65h.31a5.68,5.68,0,0,0,5.85-5.63l.68-102.9Z"/><path class="g" d="M730.44,655.72h0Z"/><path class="g" d="M768.33,631.9h0Z"/><path class="d" d="M887.06,549.22l.64,5.78-22.11,73.41s9.53,16.59-6.89,50.3l.06.23,8.71-4.88,97.88,145.41c4-4.32-19.45,20.83-34.35,41.41-10,13.74-37.18,66.12-37.18,66.12,17.65,25.41,39.53,30.35,39.53,30.35C995.21,901.78,1023.59,859.92,1035,840a23.43,23.43,0,0,0-.55-24.15c-15.57-24.55-53.61-85.58-84.62-143.63C919.57,615.54,893.83,559.6,887.06,549.22Z"/><path class="f" d="M899,917.1c-3.16,6-5.2,9.9-5.2,9.9,17.65,25.41,39.53,30.35,39.53,30.35,2.78-2.5,5.47-5,8.12-7.4C924.78,943.9,910.55,930.83,899,917.1Z"/><path class="e" d="M970.06,814.06s25.41-30.71,32.82-28.59,15.88,20.12,14.82,26.47S1002.88,800.29,970.06,814.06Z"/><path class="e" d="M964.76,806.65s18-41.3,26.47-37.06S964.76,806.65,964.76,806.65Z"/><polygon class="a" points="858.76 678.94 858.82 678.91 858.7 678.71 858.76 678.94"/><path class="e" d="M887.7,555l-25.41,73.41c8,17.88-3.59,50.3-3.59,50.3l.12.2,7.81-4.38a91.1,91.1,0,0,0,2.72-46.12Z"/><path class="d" d="M605.12,629.12l-34.65-77.48C543,578.29,539,653.4,524.65,731.47c-13.8,75.3-27.53,141.18-27.53,141.18,1.76,6-28.94,33.88-73.42,258.35-1.78,9,43.06,21.18,46.59,12.71,1.11-2.65,45.57-98.26,72.71-173.65,19.06-52.94,12.7-87.53,12.7-87.53l58.59-179.29C593.12,665.82,605.12,629.12,605.12,629.12Z"/><path class="f" d="M426,1119.57q-1.14,5.63-2.29,11.43c-1.78,9,43.06,21.18,46.59,12.71.22-.52,2.07-4.54,5.1-11.22C457.91,1132.64,440,1129.43,426,1119.57Z"/><path class="e" d="M574.06,559.94l33.88,70.59s-11.29,31.76,6.35,72.71l-2.64,10.41s-26.3-40.06-8.65-83.12Z"/><path class="e" d="M538.06,872.29s-11.65,4.24-21.18-3.17-10.59,31.76,2.12,31.76,25.41-28.59,22.23-28.59"/><polygon class="f" points="792.17 643.94 843 642.53 843 655.24 792.17 655.24 792.17 643.94"/><polygon class="d" points="841.59 509.82 823.23 584.65 835.94 587.47 852.88 509.82 841.59 509.82"/><polygon class="d" points="861.35 514.06 843 588.88 855.7 591.71 872.65 514.06 861.35 514.06"/><polygon class="d" points="613.86 513.57 643 584.89 630.85 589.55 602.69 515.23 613.86 513.57"/><polygon class="d" points="594.93 520.66 624.07 591.98 611.92 596.64 583.76 522.32 594.93 520.66"/></g></svg>