<svg xmlns="http://www.w3.org/2000/svg" width="1262.35" height="2195.18" viewBox="0 0 1262.35 2195.18"><defs><style>.a{fill:none;}.b{fill:#fff;}.c{fill:#d1d1d1;}</style></defs><title>girl pant D</title><rect class="a" width="1262.35" height="2195.18"/><path class="a" d="M708,1239.41c2.19-.78,4.37-1.61,6.53-2.53h43.76s1.54.3,4.32.74C744.23,1171,729.7,1119,729.7,1119,727.85,1130.11,718.88,1179.66,708,1239.41Z"/><path class="b" d="M895.91,1221.15C889,1129.57,878.18,1042,862.06,998.29q-7.09-19.21-12.82-36.24c-110.72,41.34-231.18-6.16-247-12.77a384.11,384.11,0,0,0-20.81,58.54c-9.2,34.93-11.52,74.65-9.53,114.36q2,57.77,5.43,110.1c13.35,5.13,75.54,26.75,130.63,7.13,10.88-59.75,19.85-109.3,21.7-120.41,0,0,14.53,52,32.91,118.62C781.08,1240.58,854.47,1250,895.91,1221.15Z"/><path class="c" d="M655,1075c22.84,21.74,74.69,44,74.69,44s45.53-14.82,82.95-48C765.36,1089.92,702.2,1093.29,655,1075Z"/></svg>