<svg xmlns="http://www.w3.org/2000/svg" xmlns:xlink="http://www.w3.org/1999/xlink" width="1262.35" height="2195.18" viewBox="0 0 1262.35 2195.18"><defs><style>.a{fill:none;}.b{clip-path:url(#a);}.c{fill:#5990a3;}.d{fill:#4c5f78;}.e{fill:#3f6573;}.f{fill:#d5e2ed;}.g{fill:#2d3b4c;}</style><clipPath id="a"><path class="a" d="M908.65,1502.3c.35-129.78-9.4-376.91-44.48-515.72-1.68-.33-2.65-.57-2.65-.57s-35.47,33-39.85,24.79,34.51-39.37,34.51-41.31-2.92-3.4-2.92-3.4l-14.09,5.83s-28.19,35-34.5,27.7c-4.18-4.82,6.94-18.36,15.1-27.53-3.24.77-6.47,1.47-9.71,2.12a100.32,100.32,0,0,1-12.68,11.32c-6.74,4.76-13,5.13-13.61,2.43-.44-1.9,1.41-5.73,4.31-10.26q-7.79.91-15.49,1.43h0c-85.84,5.73-170.84-29.28-172.06-29.54-26.43,55.71-26.19,81-30.66,116.74h0c-6.93,81.19-.45,178.75,7.36,261.26,9.48,100,21.18,177.88,21.18,177.88-60.35,136.59-30.71,479.65-30.71,479.65a51.45,51.45,0,0,0,13.82,8.86l.14.06c31.68,13.79,72.87-3.63,72.87-3.63,1.06-14.82,11.19-466.87,12-470.11,6.55-26.23,55.11-356.8,63.7-397.07l99,396c-25.41,128.11,9.18,199.41,22.24,238.23,15,44.71,49.76,238.24,49.76,238.24a112.63,112.63,0,0,0,16.72,7.84h0l2.18.78.21.07c42.31,14.39,73-6.59,73-6.59C965.82,1926.88,908.65,1502.3,908.65,1502.3Z"/></clipPath></defs><title>girl pant F</title><rect class="a" width="1262.35" height="2195.18"/><g class="b"><path class="c" d="M600.53,949.59s135.53,60.35,256.23,10.59c0,0,52.94,154.59,51.89,542.12,0,0,57.17,424.58,84.7,495.52,0,0-40.23,27.53-92.12-2.11,0,0-34.72-193.53-49.76-238.24-13.06-38.82-47.65-110.12-22.24-238.23,0,0-95.64-391.42-97.76-399.89s-57.88,372.71-64.94,401c-.81,3.24-10.94,455.29-12,470.11,0,0-55.06,23.3-86.83-5.29,0,0-29.64-343.06,30.71-479.65,0,0-11.7-77.88-21.18-177.88-8.76-92.55-15.86-204-4.23-290.12C577.87,1001.41,589,973.9,600.53,949.59Z"/><path class="d" d="M731.47,1119.35l24-12.7s1.41-118.59,0-122.83-25.41,0-25.41,0Z"/><path class="e" d="M823.23,972.53l-5.64,4.24c11.23,59.88,42.91,83.79,63,93.11-.51-3.15-1-6.23-1.52-9.24C831.24,1033.06,823.23,972.53,823.23,972.53Z"/><path class="e" d="M625.59,976.77l-7.06-4.24c-5.87,46.92-32,71.5-47.58,82.19-.39,3.82-.75,7.7-1.08,11.61C618.17,1033.56,625.59,976.77,625.59,976.77Z"/><path class="e" d="M835.94,1516.06c-24-70.59-90.35-391.06-90.35-391.06l55.06-48-69.89,42-.7,3.53c2.12,8.47,99.17,396.71,99.17,396.71-25.41,128.11,9.18,199.41,22.24,238.23C807.7,1631.82,835.94,1516.06,835.94,1516.06Z"/><path class="f" d="M863.38,983.74c-4-16-6.62-23.56-6.62-23.56-120.7,49.76-256.23-10.59-256.23-10.59-3.29,6.93-6.54,14.14-9.63,21.72C624,986.57,742.94,1033.41,863.38,983.74Z"/><path class="g" d="M713.13,977.81c-.64,8.76-1.86,17.42-3,26.1a341,341,0,0,0,62.47,1.14V979.13A348,348,0,0,1,713.13,977.81Z"/><path class="d" d="M615.45,1512.74c5.23,2.11,14,3.73,25.47-1.25a2.34,2.34,0,0,1,2.87,3.45c-6.94,10.28-20.76,25.1-31.4.89A2.35,2.35,0,0,1,615.45,1512.74Z"/><path class="d" d="M863.16,1527.8a57.74,57.74,0,0,0,30.59.33,2.85,2.85,0,0,1,3,4.49c-6.63,8.64-20.07,19.85-36.58-.29A2.84,2.84,0,0,1,863.16,1527.8Z"/><path class="e" d="M587,1641.22c11.14-83.43,26.26-131.14,26.41-131.61a1.87,1.87,0,0,0,.08-.85c-27.89-234.32-26.82-456.35-26.8-458.57a2,2,0,0,0-2-2h0a2,2,0,0,0-2,2c0,2.22-1.09,224.22,26.78,458.65-1.52,4.91-15.78,52.18-26.41,131.75-10.25,76.69-19.12,199.9-3.52,352.49,1.39.67,2.79,1.29,4.21,1.84C567.83,1841.72,576.71,1718.05,587,1641.22Z"/><path class="e" d="M844.55,1580c.94-40.3,6.67-61.11,6.73-61.32a2.08,2.08,0,0,0,0-1c-13.95-53-91-403.68-91.75-407.22a2,2,0,0,0-3.91.86c.78,3.53,77.33,352.08,91.65,406.86-.93,3.55-5.83,23.92-6.72,61.55-.89,37.47,2.27,99.79,22.38,183.86,27.41,114.67,46.86,202.54,55,240,1.49.55,3,1,4.43,1.52-7.83-36-27.53-125.24-55.55-242.42C846.85,1679.12,843.69,1617.24,844.55,1580Z"/><path class="f" d="M596.29,1164.53s68.83,18,109.06,19.06C705.35,1183.59,638.65,1206.88,596.29,1164.53Z"/><path class="f" d="M600.53,1248.18s63.53,16.94,92.12,13.76C692.65,1261.94,634.41,1286.3,600.53,1248.18Z"/><path class="f" d="M603.7,1351.94s75.18,12.71,82.59,12.71C686.29,1364.65,637.59,1382.65,603.7,1351.94Z"/><path class="f" d="M894.88,1210.06s-68.82,18-109.06,19.06C785.82,1229.12,852.53,1252.41,894.88,1210.06Z"/><path class="f" d="M893.82,1270.41s-63.53,16.94-92.12,13.77C801.7,1284.18,859.94,1308.53,893.82,1270.41Z"/><path class="f" d="M902.29,1343.47s-75.17,12.71-82.59,12.71C819.7,1356.18,868.41,1374.18,902.29,1343.47Z"/><path class="f" d="M586.06,1706.65s38.11,14.12,69.17,5.65C655.23,1712.3,625.59,1741.94,586.06,1706.65Z"/><path class="f" d="M583.23,1816.77s55.06,2.82,73.42,0C656.65,1816.77,624.17,1842.18,583.23,1816.77Z"/><path class="f" d="M864.17,1689.71s45.18,0,63.53-9.89C927.7,1679.82,910.76,1712.3,864.17,1689.71Z"/><path class="f" d="M902.29,1849.24s29.65,0,50.83-12.71C953.12,1836.53,926.29,1867.59,902.29,1849.24Z"/></g></svg>