<svg xmlns="http://www.w3.org/2000/svg" width="1262.35" height="2195.18" viewBox="0 0 1262.35 2195.18"><defs><style>.a{fill:#a15100;}.b{fill:#7a3700;}.c{fill:#c96500;}.d{fill:none;}</style></defs><title>girl hair D</title><path class="a" d="M776.65,193.59s6,62.47,75.88,75.17c0,0,12.7,114.36-18,143,0,0,38.12-21.18,36-98.47,0,0,25.64-15.18,34.64,19.05,0,0,24.65-61.41,10.89-130.23S847.23,66.71,719.12,68.82s-180,109.94-175.77,212.65c0,0,1.77,39.53,14.47,61.77,0,0,.47-32,16.35-35.18s20.36,15.88,20.36,15.88,8.12,71.88,40.94,92c0,0-32.82-50.82-12.71-148.23C622.76,267.71,725.82,271.24,776.65,193.59Z"/><path class="b" d="M590.29,206.29s-11.29,80.47-28.23,89c-9.51,4.75-15.46-6.95-18.85-18.13,0,1.46.08,2.91.14,4.36,0,0,1.77,39.53,14.47,61.77,0,0,.47-32,16.36-35.18,11.82-2.37,17.31,7.59,19.35,12.83C588,263.27,590.29,206.29,590.29,206.29Z"/><path class="b" d="M895.7,289.59c-15.42-1.87-25.69-65.7-28.7-73.41,7.06,39.53,4.73,89.91,4.35,96.76,4.94-1.68,23.41-12.53,33.83,19.35,0,0,11.23-25.76,14.76-69.53C917.25,271.72,911.23,291.47,895.7,289.59Z"/><path class="c" d="M606.88,124.76C596.29,132.18,591,155.47,591,155.47a178.07,178.07,0,0,0,19.39,8.85c3-11.15,6.7-22.14,12.05-32C612.49,128,606.88,124.76,606.88,124.76Z"/><path class="c" d="M772.06,153.35c-55.22,9.21-105.52-4-135.74-15.4-4.54,10.21-9.4,20.23-13,30.79C697.6,191.05,765.52,158.56,772.06,153.35Z"/><path class="c" d="M800.65,152.29l20-1.33a76.87,76.87,0,0,0,47.77-20.9h0s16.94,23.29,21.18,30.7C889.59,160.76,843,177.71,800.65,152.29Z"/><rect class="d" width="1262.35" height="2195.18"/><path class="a" d="M583.59,486.35c16-16,17-37,12-57,7,13,15,26,17,41,9-25,9-53-8-76a20,20,0,0,0-6.17-6.17,22.4,22.4,0,0,1-4.73-.68c-25.84,5.18-39.07,41.41-27.25,91.54,1,4.37-27.71,22.75-39.1,24.14a57.53,57.53,0,0,0,6.29,3l-1-.41A61.15,61.15,0,0,0,583.59,486.35Z"/><path class="b" d="M605.25,387.21a20,20,0,0,1-6.83,1,20,20,0,0,1,6.17,6.17c17,23,17,51,8,76-2-15-10-28-17-41,5,20,4,41-12,57a61.15,61.15,0,0,1-51,19.43l1,.41c.55.22,1.09.45,1.65.66l1.23.42c.49.17,1,.35,1.48.51l1.3.38c.48.14,1,.29,1.45.42l1.34.33,1.44.33,1.37.28,1.44.26,1.38.22,1.46.19,1.39.16,1.46.13,1.4.09,1.47.07,1.4,0h1.48c.47,0,.93,0,1.39,0l1.5-.06,1.38-.08,1.51-.13,1.35-.14,1.54-.2,1.31-.19c.53-.08,1.06-.18,1.59-.28l1.25-.22,1.73-.38,1.08-.24c.93-.23,1.85-.47,2.76-.74l.6-.18c.72-.21,1.44-.43,2.16-.67l1-.37c.56-.2,1.12-.39,1.67-.6l1.14-.46c.51-.2,1-.4,1.53-.62l1.17-.52,1.45-.67,1.17-.58c.47-.24.94-.48,1.4-.73s.77-.41,1.15-.62l1.36-.79c.38-.22.75-.45,1.12-.68l1.32-.83,1.09-.73,1.28-.9c.36-.25.71-.51,1.06-.77l1.24-1,1-.81c.41-.34.81-.68,1.2-1l1-.85,1.17-1.1.91-.87,1.14-1.19c.28-.29.56-.58.83-.89s.76-.86,1.14-1.3c.25-.29.5-.57.74-.87.41-.49.8-1,1.18-1.51l.59-.75c.57-.78,1.13-1.56,1.66-2.37a36.65,36.65,0,0,1-16.85,23.17c20-1.43,42.06-9.11,50.2-27.45.23-.51.45-1,.66-1.58l.18-.47.45-1.24c.05-.16.11-.31.16-.46.19-.57.37-1.14.54-1.72v0c.17-.57.32-1.15.47-1.73l.12-.46c.12-.49.23-1,.34-1.47,0-.13.05-.26.08-.39.27-1.26.49-2.55.68-3.86,0-.12,0-.24,0-.36.08-.59.15-1.18.22-1.78l0-.22c.14-1.38.25-2.79.32-4.22,0-.07,0-.14,0-.2.1-2.18.1-4.4,0-6.65v-.07c-.09-2.28-.27-4.59-.55-6.91h0C627.79,428.75,609.76,409.21,605.25,387.21Z"/><path class="b" d="M622.76,267.71s2.12-38.12,6.36-49.77c0,0,8.47,27.53,19,29.65s104.48-12.71,128.48-54C776.65,193.59,731.82,277.24,622.76,267.71Z"/><path class="b" d="M776.65,193.59s6,64.59,72.7,75.17c0,0-1.06-26.47-4.23-36,0,0-1.06,18-10.59,14.83S800.29,235.94,776.65,193.59Z"/></svg>