<?xml version="1.0" encoding="utf-8"?>
<!-- Generator: Adobe Illustrator 24.1.1, SVG Export Plug-In . SVG Version: 6.00 Build 0)  -->
<svg version="1.1" baseProfile="tiny" id="_x31__x5F_girl_x5F_cryptokitties"
	 xmlns="http://www.w3.org/2000/svg" xmlns:xlink="http://www.w3.org/1999/xlink" x="0px" y="0px" viewBox="0 0 1262.3 2194.1"
	 xml:space="preserve">
<g>
	<g>
		<g>
			<g>
				<g>
					<path fill="#FFD9FF" d="M727,553.6c-0.3,0.2-0.5,0.3-0.5,0.4L727,553.6z"/>
					<path fill="#FFD9FF" d="M599.7,735.9c1.9,0,3.8-0.1,5.7-0.1l-1.5,5.8l4.3-16.2l3.4-12.9l0,0l0,0c-1.5-2.4-25.7-41.3-8.6-83
						l-28.9-70.6l33.9,70.6c0,0-11.3,31.8,6.4,72.7l0,0l0,0l0,0l0,0c1.8,1.4,5.8,9.2,10.8,20.1c14.4,31.6,36.9,89.4,37.9,95.7
						c0.1,0.8-0.3,2.3-1.2,4.5c-7.1,18-44.2,79.2-59.1,103.4c-2.2,3.5-3.4,7.5-3.7,11.5c-0.1,1.3-0.1,2.7,0.1,4c0,0.1,0,0.3,0,0.4
						l0,0c0.1,1.3,0.4,2.5,0.8,3.8c0,0.2,0.1,0.3,0.1,0.5c0.4,1.2,0.8,2.1,1.4,2.4h0.1c2.3,0.9,4.6,1.8,6.9,2.6
						c0.8,0.3,1.5,0.5,2.3,0.8c1.5,0.5,3,1.1,4.5,1.6c0.9,0.3,1.8,0.6,2.7,0.9c1.4,0.5,2.7,0.9,4.1,1.4c1,0.3,1.9,0.6,2.9,0.9
						c1.3,0.4,2.6,0.8,3.8,1.2c1,0.3,2,0.6,3,0.9c1.2,0.4,2.5,0.8,3.7,1.1c1,0.3,2,0.6,3,0.9c1.2,0.3,2.4,0.7,3.6,1
						c1,0.3,2,0.5,3,0.8c1.2,0.3,2.4,0.6,3.5,0.9c1,0.3,2,0.5,3,0.8c1.2,0.3,2.3,0.6,3.5,0.9c1,0.2,2,0.5,3,0.7
						c1.2,0.3,2.3,0.5,3.5,0.8c1,0.2,1.9,0.4,2.9,0.6c1.1,0.3,2.3,0.5,3.4,0.7c1,0.2,1.9,0.4,2.9,0.6c1.1,0.2,2.3,0.5,3.4,0.7
						c0.9,0.2,1.9,0.4,2.8,0.5c1.1,0.2,2.3,0.4,3.4,0.6c0.9,0.2,1.8,0.3,2.7,0.5c1.1,0.2,2.3,0.4,3.4,0.6c0.9,0.1,1.8,0.3,2.6,0.4
						c1.2,0.2,2.3,0.3,3.4,0.5c0.9,0.1,1.7,0.2,2.5,0.4c1.2,0.2,2.3,0.3,3.5,0.5c0.8,0.1,1.6,0.2,2.4,0.3c1.2,0.1,2.4,0.3,3.6,0.4
						c0.8,0.1,1.5,0.2,2.3,0.3c1.2,0.1,2.4,0.3,3.7,0.4c0.7,0.1,1.4,0.1,2.1,0.2c1.3,0.1,2.5,0.2,3.8,0.3c0.6,0.1,1.2,0.1,1.9,0.2
						c1.4,0.1,2.7,0.2,4.1,0.3c0.5,0,1,0.1,1.5,0.1c1.5,0.1,3,0.2,4.5,0.3c0.3,0,0.7,0,1,0.1c1.8,0.1,3.6,0.2,5.3,0.2l0,0
						c10.9,0.4,21.3,0.3,31-0.1l0,0c1.6-0.1,3.2-0.2,4.8-0.2c0.1,0,0.1,0,0.2,0c1.5-0.1,3-0.2,4.5-0.3c0.1,0,0.2,0,0.2,0
						c1.5-0.1,2.9-0.2,4.3-0.3c0.1,0,0.2,0,0.3,0c1.4-0.1,2.8-0.2,4.2-0.4c0.1,0,0.2,0,0.3,0c1.4-0.1,2.7-0.3,4.1-0.4h0.1
						c6.9-10.5,18.7-24,21.3-26.6c1.9-1.9,30.1-16,30.1-16l-7.3-14.1c0,0-42.8,27.2-45.2,18s27.7-25.8,35.5-30.6
						c6.7-4.2,14.1-6.2,17.2-4.8C818,832.2,821,827.4,821,827.4c2.4-12.8,11-47.4,19.3-80.1c9.2-35.9,18.1-69.5,18.1-69.5l0,0l0,0
						l29.3,51.7l-9.3-16.4c11.3-13.4,34.4-34.5,71.9-43.2c2.7,5.4,4.8,9.8,6.4,13c-6.5-13.3-24-48.6-40.3-80.3
						c-0.6-1.1-1.1-2.2-1.7-3.2c-14.4-27.8-27.5-52.2-30.9-55c-0.1-0.1-0.3-0.2-0.4-0.3l-0.1-0.1c-0.2-0.1-0.3-0.2-0.5-0.3l0,0
						c-0.2-0.1-0.4-0.2-0.7-0.4c-0.1,0-0.1-0.1-0.2-0.1c-0.2-0.1-0.5-0.2-0.7-0.4h-0.1c-0.3-0.1-0.6-0.3-0.9-0.4
						c-0.1,0-0.2-0.1-0.3-0.1c-0.3-0.1-0.6-0.3-0.9-0.4c-0.1,0-0.1-0.1-0.2-0.1c-0.4-0.2-0.7-0.3-1.1-0.5c-0.1,0-0.2-0.1-0.4-0.1
						c-0.3-0.1-0.7-0.3-1-0.4c-0.1,0-0.2-0.1-0.3-0.1c-0.4-0.2-0.9-0.3-1.3-0.5c-0.2-0.1-0.3-0.1-0.5-0.2c-0.4-0.1-0.7-0.3-1.1-0.4
						c-0.1-0.1-0.3-0.1-0.4-0.2c-0.5-0.2-1-0.4-1.5-0.6c-0.2-0.1-0.4-0.1-0.5-0.2c-0.4-0.1-0.8-0.3-1.2-0.4
						c-0.2-0.1-0.4-0.1-0.6-0.2c-0.5-0.2-1-0.4-1.6-0.6c-0.2-0.1-0.4-0.2-0.7-0.2c-0.4-0.1-0.8-0.3-1.2-0.4
						c-0.2-0.1-0.5-0.2-0.7-0.2c-0.6-0.2-1.1-0.4-1.7-0.6c-0.3-0.1-0.5-0.2-0.8-0.3c-0.4-0.1-0.8-0.3-1.2-0.4
						c-0.3-0.1-0.6-0.2-0.8-0.3c-0.6-0.2-1.2-0.4-1.8-0.6c-0.3-0.1-0.6-0.2-0.9-0.3c-0.4-0.1-0.8-0.3-1.2-0.4
						c-0.3-0.1-0.6-0.2-0.9-0.3c-0.6-0.2-1.1-0.4-1.7-0.6c-0.4-0.1-0.8-0.3-1.2-0.4c-0.4-0.1-0.8-0.3-1.1-0.4
						c-0.4-0.1-0.7-0.2-1.1-0.4c-0.5-0.2-1-0.3-1.6-0.5c-0.5-0.2-0.9-0.3-1.4-0.5c-0.4-0.1-0.7-0.2-1.1-0.4
						c-0.4-0.1-0.8-0.3-1.2-0.4c-0.4-0.1-0.8-0.3-1.2-0.4c-0.6-0.2-1.2-0.4-1.8-0.6c-0.4-0.1-0.7-0.2-1.1-0.4
						c-0.4-0.1-0.8-0.3-1.3-0.4c-0.4-0.1-0.8-0.3-1.2-0.4c-0.7-0.2-1.3-0.4-2-0.6c-0.4-0.1-0.7-0.2-1.1-0.3
						c-0.4-0.1-0.9-0.3-1.3-0.4c-0.4-0.1-0.8-0.2-1.2-0.4c-0.7-0.2-1.4-0.4-2.1-0.7c-0.3-0.1-0.7-0.2-1-0.3c-0.5-0.1-1-0.3-1.4-0.4
						c-0.3-0.1-0.6-0.2-0.9-0.3c-0.8-0.3-1.6-0.5-2.4-0.8c-0.3-0.1-0.6-0.2-0.9-0.3c-0.5-0.2-1-0.3-1.5-0.5
						c-0.3-0.1-0.5-0.2-0.8-0.2c-1-0.3-2-0.6-3-0.9c-0.1,0-0.3-0.1-0.4-0.1c-0.5-0.2-1.1-0.3-1.6-0.5c-0.3-0.1-0.5-0.2-0.8-0.2
						c-1.7-0.5-3.4-1-5.1-1.6c-0.2,0-0.3-0.1-0.5-0.1c-1.7-0.5-3.5-1.1-5.2-1.6c-0.2-0.1-0.3-0.1-0.5-0.2c-1.8-0.5-3.5-1.1-5.2-1.6
						h-0.1c-4.3-1.3-8.4-2.5-12.2-3.6l0,0l0,0c0,0.1,0.1,0.3,0.1,0.4c0,0.2,0.1,0.4,0.1,0.6c0.1,0.4,0.2,0.8,0.3,1.3
						c0.1,0.3,0.1,0.5,0.2,0.8c0.1,0.2,0.1,0.5,0.2,0.8c0.1,0.3,0.1,0.5,0.2,0.8c0.1,0.4,0.2,0.9,0.3,1.3c0.1,0.3,0.1,0.6,0.2,1
						c0.1,0.2,0.1,0.5,0.2,0.7c0.1,0.3,0.1,0.7,0.2,1c0.1,0.5,0.2,0.9,0.3,1.4c0.1,0.3,0.1,0.7,0.2,1c0.1,0.3,0.1,0.5,0.2,0.8
						c0.1,0.3,0.1,0.7,0.2,1c0.1,0.5,0.2,1,0.3,1.5c0.1,0.3,0.1,0.6,0.2,0.8c0.1,0.4,0.2,0.7,0.2,1.1c0,0.2,0.1,0.3,0.1,0.5l0,0
						c4.1,19.9,8.4,43.3,8.4,43.3s-38.1-28.2-45.6-30.6c-4.2-1.3-12.1,2.8-18.3,6.7l2.8,61.1c-8.5,0.9-18.8,0.5-18.8,0.5
						c-0.5-3.7-1.8-58.3-1.9-60.6c-4.6-2.3-9.7-4.5-12.2-4.3c-5.2,0.5-50.4,24.5-50.4,24.5s5.5-34.9,8.8-51.5l-13.2,4.2l-74.2,23.7
						c-29.3,19.3-50,131.2-55.7,165.5c4.1,2.8,8.8,5.7,14.3,8.6C549.7,727.6,572,735.9,599.7,735.9z M862.3,627.4l25.4-73.4
						l-18.4,73.4c0,0,7.1,28.7-7.1,56.5l-3.6-6.2C858.7,677.6,870.3,645.2,862.3,627.4z M627.7,714.4c123.3,50.9,197.7,1.7,217.1-14
						c1.6-1.3,4,0.2,3.5,2.2c-5.9,22.8-22.6,88.6-28.2,107.3c-0.5,1.8-3,2.1-4,0.5c-7.4-12.8-34.3-48-74.3-48
						c-43.4,0-68.4,42.4-73.5,52.1c-0.4,0.7-1.4,0.7-1.7-0.1c-6.1-16.7-34.7-85.9-40-98.8C626.1,714.9,626.9,714.1,627.7,714.4z"/>
					<path fill="#FFD9FF" d="M719.2,549.8l7.3,4.1C726.5,553.9,723.3,552,719.2,549.8z"/>
					<polygon fill="#FFD9FF" points="726.5,553.9 726.5,553.9 726.5,553.9 					"/>
					<path fill="#FFD9FF" d="M601.6,750.2L601.6,750.2c0,0-40.2,3.9-67.6-14.4c2.1,1.4,4.2,2.6,6.4,3.8c1.1,0.6,2.2,1.1,3.3,1.6
						c17.3,8,37,9.4,48.4,9.4C597.9,750.5,601.6,750.2,601.6,750.2z"/>
					<path fill="#FF6AFA" d="M726.5,553.9L726.5,553.9L726.5,553.9L726.5,553.9L726.5,553.9l-7.3-4.1c-0.6-0.3-1.2-0.6-1.8-1
						c0.1,2.3,1.4,56.9,1.9,60.6c0,0,10.4,0.5,18.8-0.5l-2.8-61.1c-3.9,2.4-7,4.8-8.2,5.6L726.5,553.9L726.5,553.9L726.5,553.9
						L726.5,553.9L726.5,553.9L726.5,553.9z M727.6,598.4c-3.1,0-5.6-2.5-5.6-5.6s2.5-5.6,5.6-5.6s5.6,2.5,5.6,5.6
						C733.2,595.9,730.7,598.4,727.6,598.4z M726.5,559.6c3.1,0,5.6,2.5,5.6,5.6s-2.5,5.6-5.6,5.6s-5.6-2.5-5.6-5.6
						S723.4,559.6,726.5,559.6z"/>
					<path fill="#FFFFFF" d="M720.9,565.2c0,3.1,2.5,5.6,5.6,5.6s5.6-2.5,5.6-5.6s-2.5-5.6-5.6-5.6
						C723.4,559.6,720.9,562.1,720.9,565.2z"/>
					<path fill="#FFFFFF" d="M727.6,587.1c-3.1,0-5.6,2.5-5.6,5.6s2.5,5.6,5.6,5.6s5.6-2.5,5.6-5.6
						C733.2,589.6,730.7,587.1,727.6,587.1z"/>
					<path fill="#EDA2E6" d="M666.5,814.5c0.3,0.8,1.3,0.8,1.7,0.1c5.1-9.7,30.1-52.1,73.5-52.1c40,0,67,35.2,74.3,48
						c1,1.7,3.4,1.4,4-0.5c5.6-18.7,22.3-84.5,28.2-107.3c0.5-2-1.8-3.6-3.5-2.2c-19.3,15.7-93.8,64.8-217.1,14
						c-0.8-0.3-1.6,0.4-1.2,1.2C631.8,728.6,660.4,797.7,666.5,814.5z"/>
					<path fill="#EDA2E6" d="M607.9,629.5L574,558.9l28.9,70.6c-17.1,41.7,7,80.6,8.6,83c0,0,0,0,0,0.1v0.1l1.7-6.5l1-3.9l0,0
						C596.6,661.2,607.9,629.5,607.9,629.5z"/>
					<path fill="#EDA2E6" d="M862.3,683.8c14.1-27.8,7.1-56.5,7.1-56.5l18.4-73.4l-25.4,73.4c8,17.9-3.6,50.3-3.6,50.3L862.3,683.8z
						"/>
					<path fill="#FF6AFA" d="M664.5,513.2c-0.1,0.2-0.1,0.5-0.2,0.7C664.4,513.6,664.4,513.3,664.5,513.2
						C664.5,513.1,664.5,513.2,664.5,513.2z"/>
					<path fill="#FF6AFA" d="M704.2,520.8c0.2,0.4,0.4,0.8,0.6,1.2C704.6,521.7,704.4,521.3,704.2,520.8z"/>
					<path fill="#FF6AFA" d="M699.7,510.6c0.1,0.3,0.2,0.6,0.4,0.9C699.9,511.2,699.8,510.9,699.7,510.6z"/>
					<path fill="#FF6AFA" d="M665.2,510.4L665.2,510.4L665.2,510.4L665.2,510.4z"/>
					<path fill="#FF6AFA" d="M665,510.9c-0.1,0.2-0.1,0.4-0.2,0.6l0,0c0,0.2-0.1,0.3-0.1,0.5C664.9,511.6,664.9,511.2,665,510.9
						L665,510.9z"/>
					<path fill="#FF6AFA" d="M699.1,509.1c0-0.1-0.1-0.2-0.1-0.3c0.1,0.2,0.1,0.4,0.2,0.6C699.2,509.3,699.1,509.2,699.1,509.1z"/>
					<path fill="#FF6AFA" d="M699.5,510.1c-0.1-0.2-0.1-0.3-0.2-0.5c0.1,0.2,0.2,0.4,0.2,0.6V510.1z"/>
					<path fill="#FF6AFA" d="M700.4,512.2c-0.1-0.1-0.1-0.3-0.2-0.4c0.1,0.2,0.2,0.4,0.3,0.7C700.4,512.4,700.4,512.3,700.4,512.2z"
						/>
					<path fill="#FF6AFA" d="M703.5,519.4c-0.1-0.1-0.1-0.3-0.2-0.4c0.2,0.4,0.4,0.9,0.6,1.4C703.8,520.1,703.7,519.7,703.5,519.4z"
						/>
					<path fill="#FF6AFA" d="M702.2,516.6c-0.1-0.3-0.2-0.5-0.3-0.8c0.2,0.4,0.4,0.8,0.5,1.2C702.4,516.9,702.3,516.7,702.2,516.6z"
						/>
					<path fill="#FF6AFA" d="M665.2,510.2L665.2,510.2C665.2,510.2,665.3,510.1,665.2,510.2C665.3,510.1,665.2,510.1,665.2,510.2z"
						/>
					<path fill="#FF6AFA" d="M702.7,517.5c0.2,0.4,0.3,0.7,0.5,1.1C703,518.2,702.8,517.9,702.7,517.5z"/>
					<path fill="#FF6AFA" d="M701.3,514.5c0.1,0.3,0.3,0.6,0.4,0.9C701.6,515.1,701.4,514.8,701.3,514.5z"/>
					<path fill="#FF6AFA" d="M706.8,526.1c0.3,0.5,0.6,1.1,0.9,1.6C707.4,527.2,707.1,526.7,706.8,526.1z"/>
					<path fill="#FF6AFA" d="M701.1,514c-0.1-0.3-0.3-0.7-0.4-1C700.8,513.3,701,513.7,701.1,514L701.1,514z"/>
					<path fill="#FF6AFA" d="M706.1,524.7c0-0.1-0.1-0.2-0.1-0.2c0.2,0.5,0.5,0.9,0.7,1.4C706.5,525.5,706.3,525.1,706.1,524.7z"/>
					<path fill="#FF6AFA" d="M664.5,513L664.5,513c0-0.1,0.1-0.3,0.1-0.5C664.6,512.6,664.6,512.8,664.5,513z"/>
					<path fill="#FF6AFA" d="M698.3,507c0-0.1,0-0.1-0.1-0.2C698.2,506.9,698.3,507,698.3,507L698.3,507z"/>
					<path fill="#FF6AFA" d="M665.4,509.6c0,0.1,0,0.1-0.1,0.2l0,0C665.4,509.7,665.4,509.6,665.4,509.6L665.4,509.6z"/>
					<path fill="#FF6AFA" d="M708.9,529.9c0.3,0.6,0.7,1.2,1,1.8C709.5,531.1,709.2,530.5,708.9,529.9z"/>
					<path fill="#FF6AFA" d="M698.1,506.6L698.1,506.6v0.1C698.2,506.7,698.1,506.7,698.1,506.6z"/>
					<path fill="#FF6AFA" d="M665.6,509.3c0,0.1-0.1,0.1-0.1,0.2l0,0C665.5,509.4,665.6,509.3,665.6,509.3
						C665.6,509.2,665.6,509.3,665.6,509.3z"/>
					<path fill="#FF6AFA" d="M708.8,529.8L708.8,529.8L708.8,529.8L708.8,529.8z"/>
					<path fill="#FF6AFA" d="M707.9,528.2L707.9,528.2L707.9,528.2c0.3,0.5,0.6,1.1,0.9,1.6C708.5,529.2,708.2,528.7,707.9,528.2z"
						/>
					<path fill="#FF6AFA" d="M698.4,507.3c0.1,0.1,0.1,0.3,0.2,0.5C698.5,507.6,698.4,507.4,698.4,507.3z"/>
					<path fill="#FF6AFA" d="M698.7,508.2c0-0.1-0.1-0.2-0.1-0.3c0.1,0.2,0.1,0.3,0.2,0.5C698.8,508.3,698.8,508.3,698.7,508.2z"/>
					<path fill="#FF6AFA" d="M705,522.5C705,522.5,705,522.4,705,522.5c0.2,0.5,0.5,1,0.8,1.5C705.5,523.5,705.2,523,705,522.5z"/>
					<path fill="#FF6AFA" d="M705.1,544.5c2.5-0.2,7.6,2,12.2,4.3c0.6,0.3,1.2,0.6,1.8,1c4.1,2.1,7.3,4.1,7.3,4.1l0,0l0,0l0,0
						c-0.7-0.7-1.4-1.4-2.1-2.1c-0.2-0.2-0.3-0.3-0.5-0.5c-0.7-0.7-1.3-1.4-2-2.2l0,0c-0.7-0.8-1.3-1.6-2-2.4
						c-0.1-0.2-0.3-0.4-0.4-0.5c-0.6-0.8-1.3-1.6-1.9-2.4l0,0c-0.6-0.9-1.3-1.7-1.9-2.6c-0.1-0.2-0.2-0.3-0.3-0.5
						c-0.6-0.9-1.2-1.7-1.7-2.6l0,0c-0.6-0.9-1.2-1.8-1.7-2.8c-0.1-0.1-0.2-0.3-0.3-0.4c-0.5-0.9-1-1.8-1.5-2.6l0,0
						c0.3,0.6,0.7,1.2,1,1.8c-8.7-10.4-17.8-20.7-29.4-28.6c-6.3,2.2-12.1,4.6-17.4,8.7c-0.2,1-0.5,2.2-0.7,3.5l0,0
						c-3.3,16.5-8.8,51.5-8.8,51.5S699.9,545,705.1,544.5z"/>
					<path fill="#FF6AFA" d="M785,503.6L785,503.6c0,0.1,0.1,0.2,0.1,0.4C785,503.8,785,503.7,785,503.6z"/>
					<path fill="#FF6AFA" d="M755.2,504.9c0,0.7-0.1,1.4-0.1,1.9c0,0.4-0.1,0.7-0.1,1l0,0l0,0C755.1,507.1,755.1,506.1,755.2,504.9z
						"/>
					<path fill="#FF6AFA" d="M784.9,503.3c-0.1-0.2-0.1-0.3-0.2-0.5C784.8,503,784.8,503.1,784.9,503.3L784.9,503.3z"/>
					<path fill="#FF6AFA" d="M754.6,509.1L754.6,509.1L754.6,509.1L754.6,509.1z"/>
					<path fill="#FF6AFA" d="M785.5,505.3c-0.1-0.3-0.1-0.5-0.2-0.7v-0.1C785.3,504.7,785.4,505,785.5,505.3L785.5,505.3z"/>
					<path fill="#FF6AFA" d="M786.3,508.4c0-0.1,0-0.1,0-0.2c0.1,0.2,0.1,0.5,0.2,0.7C786.4,508.8,786.3,508.6,786.3,508.4z"/>
					<path fill="#FF6AFA" d="M786.1,507.8c0-0.1-0.1-0.2-0.1-0.3C786.1,507.6,786.1,507.7,786.1,507.8L786.1,507.8z"/>
					<path fill="#FF6AFA" d="M754.9,508.4L754.9,508.4L754.9,508.4z"/>
					<path fill="#FF6AFA" d="M753.1,512.3C753.1,512.3,753.1,512.2,753.1,512.3L753.1,512.3z"/>
					<path fill="#FF6AFA" d="M752.4,513.7C752.4,513.6,752.4,513.6,752.4,513.7C752.4,513.6,752.4,513.6,752.4,513.7z"/>
					<path fill="#FF6AFA" d="M754.2,510.1C754.2,510,754.3,510,754.2,510.1C754.3,510,754.2,510,754.2,510.1z"/>
					<path fill="#FF6AFA" d="M753.7,511.1c0,0,0-0.1,0.1-0.1C753.8,511.1,753.7,511.1,753.7,511.1z"/>
					<path fill="#FF6AFA" d="M751.6,515.1L751.6,515.1L751.6,515.1C751.6,515,751.6,515,751.6,515.1z"/>
					<path fill="#FF6AFA" d="M789.1,520.4c0.1,0.5,0.2,0.9,0.3,1.4C789.3,521.3,789.2,520.9,789.1,520.4z"/>
					<path fill="#FF6AFA" d="M788.7,518.8c0.1,0.2,0.1,0.5,0.2,0.7C788.8,519.2,788.8,519,788.7,518.8z"/>
					<path fill="#FF6AFA" d="M788.2,516.5c0.1,0.4,0.2,0.9,0.3,1.3C788.4,517.4,788.3,516.9,788.2,516.5z"/>
					<path fill="#FF6AFA" d="M790.5,527c0.1,0.4,0.2,0.7,0.2,1.1C790.6,527.7,790.5,527.3,790.5,527z"/>
					<path fill="#FF6AFA" d="M787.2,512.2c0-0.1-0.1-0.3-0.1-0.4c0,0,0,0,0-0.1s0-0.2-0.1-0.3C787.1,511.7,787.2,511.9,787.2,512.2z
						"/>
					<path fill="#FF6AFA" d="M787.8,514.9c0.1,0.2,0.1,0.5,0.2,0.8C788,515.4,787.9,515.1,787.8,514.9z"/>
					<path fill="#FF6AFA" d="M790,524.6c0.1,0.5,0.2,1,0.3,1.5C790.2,525.6,790.1,525.1,790,524.6z"/>
					<path fill="#FF6AFA" d="M727,553.6c1.2-0.9,4.4-3.2,8.2-5.6c6.2-3.9,14.1-8,18.3-6.7c7.5,2.4,45.6,30.6,45.6,30.6
						s-4.3-23.4-8.4-43.3c-7.5-9-16.8-16.5-27.5-21.6c-8,7.3-14.4,16.2-21.8,24.4c-4.1,6.3-8.3,12.6-11.2,16.9
						c-0.1,0.1-0.2,0.3-0.3,0.4c-0.1,0.1-0.1,0.2-0.2,0.2c-2.1,3.1-3.4,5-3.4,5l0,0C726.6,553.9,726.7,553.8,727,553.6z"/>
					<path fill="#FF6AFA" d="M789.6,522.8c0.1,0.3,0.1,0.5,0.2,0.8C789.7,523.3,789.6,523.1,789.6,522.8z"/>
					<path fill="#FF6AFA" d="M787.4,512.8c0.1,0.4,0.2,0.8,0.3,1.3C787.6,513.7,787.5,513.2,787.4,512.8z"/>
					<polygon fill="#FF6AFA" points="726.5,553.9 726.5,553.9 726.5,553.9 					"/>
					<path fill="#D450D0" d="M711.1,533.8c-0.3-0.6-0.7-1.2-1-1.8l0,0c0-0.1-0.1-0.1-0.1-0.2c0-0.1-0.1-0.2-0.1-0.3
						c-0.3-0.6-0.7-1.2-1-1.8v-0.1l0,0l0,0l0,0c-0.3-0.5-0.6-1.1-0.9-1.6c0-0.1-0.1-0.1-0.1-0.2c0-0.1-0.1-0.2-0.1-0.2l0,0
						c-0.3-0.5-0.6-1.1-0.9-1.6l0,0c0,0,0,0,0-0.1s-0.1-0.1-0.1-0.2c-0.2-0.5-0.5-0.9-0.7-1.4c0,0,0,0,0-0.1s-0.1-0.1-0.1-0.2
						c0-0.1-0.1-0.2-0.1-0.2c-0.3-0.5-0.5-1-0.8-1.5l0,0c0-0.1-0.1-0.2-0.1-0.3l0,0l0,0c-0.2-0.4-0.4-0.8-0.6-1.2l0,0l0,0
						c0,0,0,0,0-0.1c-0.1-0.1-0.1-0.2-0.2-0.4c-0.2-0.5-0.4-0.9-0.6-1.4c0,0,0,0,0-0.1c0,0,0-0.1-0.1-0.1c0-0.1-0.1-0.2-0.1-0.2
						c-0.2-0.4-0.3-0.7-0.5-1.1c0,0,0,0,0-0.1l0,0c0-0.1-0.1-0.2-0.1-0.3v-0.1c-0.2-0.4-0.4-0.8-0.5-1.2c0-0.1-0.1-0.2-0.1-0.2v-0.1
						l0,0l0,0c-0.1-0.3-0.3-0.6-0.4-0.9c0,0,0-0.1-0.1-0.1c0-0.1-0.1-0.1-0.1-0.2c0,0,0,0,0-0.1c-0.2-0.4-0.3-0.7-0.5-1.1v-0.1
						c0-0.1-0.1-0.1-0.1-0.2c0-0.1-0.1-0.1-0.1-0.2c-0.1-0.2-0.2-0.4-0.3-0.7c0-0.1-0.1-0.2-0.1-0.2l0,0l0,0l0,0
						c-0.1-0.3-0.3-0.6-0.4-0.9c0,0,0-0.1-0.1-0.1v-0.1v-0.1c-0.1-0.2-0.2-0.4-0.2-0.6c0-0.1-0.1-0.2-0.1-0.2
						c-0.1-0.2-0.2-0.4-0.2-0.6c0-0.1,0-0.1-0.1-0.2c0-0.1,0-0.1-0.1-0.2c0,0,0,0,0-0.1c-0.1-0.2-0.1-0.3-0.2-0.5c0,0,0-0.1-0.1-0.1
						c-0.1-0.2-0.1-0.3-0.2-0.5c0,0,0,0,0-0.1c0,0,0,0,0-0.1c0,0,0,0,0-0.1s-0.1-0.2-0.1-0.3c0,0,0,0,0-0.1s0-0.1-0.1-0.2l0,0v-0.1
						l0,0l-0.9-23.1c0,0-4.3,3.3-9.8,7.6c-0.7,0.5-1.4,1.1-2.1,1.7c-0.7,0.5-1.3,1-2,1.6c-8,6.3-16.6,13.3-17.6,15.1
						c0,0.1-0.1,0.1-0.1,0.2l0,0v0.1l0,0c0,0.1-0.1,0.1-0.1,0.2l0,0v0.1c0,0.1,0,0.1-0.1,0.2v0.1l0,0v0.1l0,0l0,0
						c0,0.1-0.1,0.3-0.1,0.4l0,0l0,0c-0.1,0.3-0.2,0.7-0.3,1.2c0,0.1,0,0.1-0.1,0.2l0,0c0,0.1,0,0.1,0,0.2c0,0.2-0.1,0.4-0.1,0.6
						l0,0c-0.1,0.3-0.1,0.6-0.2,0.8c0,0,0,0,0,0.1c5.3-4.1,11.1-6.5,17.4-8.7C693.3,513.1,702.4,523.4,711.1,533.8z"/>
					<path fill="#D450D0" d="M763.3,507c10.6,5.1,20,12.5,27.5,21.6l0,0c0-0.2-0.1-0.3-0.1-0.5c-0.1-0.4-0.2-0.7-0.2-1.1
						c-0.1-0.3-0.1-0.6-0.2-0.8c-0.1-0.5-0.2-1-0.3-1.5c-0.1-0.3-0.1-0.7-0.2-1c-0.1-0.3-0.1-0.5-0.2-0.8c-0.1-0.3-0.1-0.7-0.2-1
						c-0.1-0.5-0.2-0.9-0.3-1.4c-0.1-0.3-0.1-0.7-0.2-1c-0.1-0.2-0.1-0.5-0.2-0.7c-0.1-0.3-0.1-0.6-0.2-1c-0.1-0.4-0.2-0.9-0.3-1.3
						c-0.1-0.3-0.1-0.6-0.2-0.8c-0.1-0.3-0.1-0.5-0.2-0.8c-0.1-0.3-0.1-0.5-0.2-0.8c-0.1-0.4-0.2-0.9-0.3-1.3c0-0.2-0.1-0.4-0.1-0.6
						c-0.1-0.2-0.1-0.5-0.2-0.7c0-0.1,0-0.2-0.1-0.3c0-0.1,0-0.2-0.1-0.3c-0.1-0.5-0.2-1-0.3-1.4v-0.1c0-0.1-0.1-0.2-0.1-0.3
						c-0.1-0.2-0.1-0.5-0.2-0.7c0-0.1,0-0.2-0.1-0.3V508v-0.1c0-0.1-0.1-0.2-0.1-0.3c-0.1-0.3-0.1-0.5-0.2-0.8v-0.1l0,0
						c-0.1-0.3-0.2-0.7-0.3-1c0-0.1,0-0.2-0.1-0.2c0,0,0,0,0-0.1c-0.1-0.3-0.2-0.6-0.3-0.9l0,0l0,0c0-0.1-0.1-0.2-0.1-0.4
						c0-0.1-0.1-0.3-0.1-0.4c0,0,0,0,0-0.1v-0.1c0,0,0,0,0-0.1c-0.1-0.2-0.1-0.3-0.2-0.5c0-0.1,0-0.1-0.1-0.2
						c-0.8-2.3-6.7-6.9-12.8-11.2c-7.6-5.4-15.9-10.4-15.9-10.4s-0.4,16.2-0.8,23.9c-0.1,1.2-0.1,2.2-0.2,2.9l0,0
						c0,0.1-0.1,0.3-0.1,0.5l0,0c-0.1,0.2-0.1,0.4-0.2,0.7c0,0,0,0,0,0.1l0,0c0,0.1,0,0.1-0.1,0.2c-0.1,0.2-0.2,0.4-0.3,0.7v0.1
						c-0.1,0.3-0.3,0.6-0.5,1c0,0,0,0.1-0.1,0.1c-0.2,0.3-0.4,0.7-0.6,1.1c0,0,0,0.1-0.1,0.1l0,0l0,0c-0.2,0.3-0.3,0.6-0.5,1
						c0,0.1-0.1,0.2-0.1,0.3v0.1c0,0,0,0,0,0.1l0,0c-0.2,0.4-0.5,0.8-0.7,1.3c0,0,0,0,0,0.1l0,0c-0.3,0.6-0.7,1.2-1,1.8
						c-0.3,0.4-0.5,0.9-0.8,1.3l0,0c-0.2,0.3-0.4,0.7-0.6,1.1c-0.1,0.2-0.3,0.4-0.4,0.6l0,0c0,0,0,0.1-0.1,0.1
						c-0.5,0.7-0.9,1.5-1.4,2.3c-0.1,0.2-0.3,0.5-0.4,0.7c-0.5,0.8-1,1.6-1.5,2.4c0,0,0,0.1-0.1,0.1c-0.5,0.8-1.1,1.7-1.6,2.5
						c-0.1,0.2-0.3,0.4-0.4,0.7c-0.5,0.8-1,1.6-1.6,2.4l-0.1,0.1l0,0l0,0C748.9,523.2,755.3,514.3,763.3,507z"/>
					<path fill="#FF6AFA" d="M601.6,750.2L601.6,750.2l0.7-2.6l1.6-6l1.5-5.8c-1.9,0.1-3.8,0.1-5.7,0.1c-27.8,0-50.1-8.3-64.8-16
						c-5.5-2.9-10.2-5.8-14.3-8.6l0,0c0,0.1,0,0.2,0,0.3c-0.1,0.4-0.1,0.7-0.2,1c0,0.3-0.1,0.6-0.1,0.8c0,0.1,0,0.2-0.1,0.4
						c-0.1,0.6-0.2,1.1-0.3,1.6c0,0.1,0,0.1,0,0.2c-0.6,3.6-0.9,5.7-0.9,5.7c4.1,5.9,9.3,10.7,15,14.5
						C561.4,754,601.6,750.2,601.6,750.2z"/>
					<path fill="#FF6AFA" d="M878.5,712.8l9.3,16.4l1.1,1.9c7.1-7.6,14.8-14,22.3-19.4c4-2.9,8-5.4,11.9-7.7
						c1.5-0.9,2.9-1.7,4.3-2.4c0.9-0.5,1.9-1,2.8-1.5c0.9-0.5,1.8-1,2.7-1.4c1.8-0.9,3.5-1.7,5.2-2.5c1.3-0.6,2.5-1.1,3.6-1.6
						c0.8-0.3,1.5-0.7,2.3-1c0.7-0.3,1.4-0.6,2.1-0.9c0.4-0.2,0.8-0.3,1.1-0.4c1.2-0.5,2.3-0.9,3.3-1.3c5.5-2,8.9-2.9,8.9-2.9
						s-1-2-2.7-5.4c-1.6-3.2-3.8-7.6-6.4-13C912.9,678.3,889.8,699.4,878.5,712.8z"/>
				</g>
			</g>
		</g>
		<g>
			<path fill="#FFD9FF" d="M767,610.7h80.8V687c0,0-40.5,30.7-79.6,0L767,610.7z"/>
			<g>
				<g>
					<g>
						<path fill="#F4C458" d="M785,639.3c0.5,4.5,2.9,13.3,2.9,13.3l4.8-4.8C790.6,644.7,788,641.8,785,639.3z"/>
						<path fill="#FFEE8A" d="M785.2,636.8c-0.3,0.2-0.3,1.2-0.2,2.6c3,2.5,5.6,5.4,7.7,8.5l4.5-4.5
							C797.3,643.3,786.6,635.7,785.2,636.8z"/>
					</g>
					<path fill="#8F854D" d="M785.6,636.7c2.3,0,11.7,6.6,11.7,6.6l-4.5,4.5l-4.8,4.8c0,0-2.4-8.7-2.9-13.3
						c-0.2-1.4-0.1-2.3,0.2-2.6C785.3,636.7,785.4,636.7,785.6,636.7 M785.6,634.7c-0.8,0-1.3,0.3-1.6,0.5c-1.1,0.8-1.2,2.3-1,4.4
						c0.5,4.6,2.9,13.2,3,13.6l0.9,3.3l2.4-2.4l4.8-4.8l4.5-4.5l1.7-1.7l-1.9-1.4C794.7,639.1,788.2,634.7,785.6,634.7L785.6,634.7z
						"/>
				</g>
				<g>
					<g>
						<path fill="#F4C458" d="M830.6,639.3c-0.5,4.5-2.9,13.3-2.9,13.3l-4.8-4.8C825,644.7,827.6,641.8,830.6,639.3z"/>
						<path fill="#FFEE8A" d="M830.4,636.8c0.3,0.2,0.3,1.2,0.2,2.6c-3,2.5-5.6,5.4-7.7,8.5l-4.5-4.5
							C818.4,643.3,829,635.7,830.4,636.8z"/>
					</g>
					<path fill="#8F854D" d="M830,636.7c0.2,0,0.3,0,0.4,0.1c0.3,0.2,0.3,1.2,0.2,2.6c-0.5,4.5-2.9,13.3-2.9,13.3l-4.8-4.8l-4.5-4.5
						C818.4,643.3,827.7,636.7,830,636.7 M830,634.7L830,634.7c-2.6,0-9.1,4.4-12.8,7l-1.9,1.4l1.7,1.7l4.5,4.5l4.8,4.8l2.4,2.4
						l0.9-3.3c0.1-0.4,2.5-9,3-13.6c0.2-2.1,0.1-3.5-1-4.4C831.3,634.9,830.8,634.7,830,634.7L830,634.7z"/>
				</g>
				<g>
					<path fill="#FFEE8A" d="M829.2,653.6c-6.8-14.8-21.2-14.1-21.6-14c-0.4-0.1-14.8-0.8-21.6,14c0,0-6.3,10.7-9.7,12.4
						c0,0,7.6,4.1,11,7.6c3.4,3.4,11,9,20.3,9s16.9-5.6,20.3-9c3.4-3.4,11-7.6,11-7.6C835.4,664.3,829.2,653.6,829.2,653.6z"/>
					<path fill="#8F854D" d="M808.2,639.6c2.9,0,14.9,0.9,21,14.1c0,0,6.3,10.7,9.7,12.4c0,0-7.6,4.1-11,7.6c-3.4,3.4-11,9-20.3,9
						s-16.9-5.6-20.3-9c-3.4-3.4-11-7.6-11-7.6c3.4-1.7,9.7-12.4,9.7-12.4c6.1-13.2,18.1-14.1,21-14.1c0.4,0,0.6,0,0.6,0
						C807.6,639.6,807.8,639.6,808.2,639.6 M808.2,637.6c-0.2,0-0.5,0-0.6,0c-0.2,0-0.4,0-0.6,0c-2.6,0-16.1,0.7-22.8,15.1
						c-2.5,4.2-6.8,10.5-8.8,11.5l-3.4,1.7l3.4,1.8c0.1,0,7.4,4,10.6,7.2c4.6,4.6,12.7,9.5,21.7,9.5s17.1-4.9,21.7-9.5
						c3.2-3.2,10.5-7.2,10.6-7.2l3.4-1.8l-3.4-1.7c-2-1-6.3-7.3-8.8-11.5C824.3,638.3,810.8,637.6,808.2,637.6L808.2,637.6z"/>
				</g>
			</g>
			<path fill="#FF6AFA" d="M774.7,609.7c-4.8,0-8.7,4-8.7,8.8l1,68.9l0.4,0.3c13.5,10.6,27.1,13.8,38.8,13.8
				c6.2,0,11.8-0.9,16.6-2.1c15-3.8,25.1-11.4,25.5-11.7l0.4-0.3v-69.1c0-4.8-3.9-8.7-8.7-8.7L774.7,609.7L774.7,609.7z
				 M769.1,686.5l-0.8-53.3c0-3.2,2.5-5.8,5.8-5.8H841c3.2,0,5.8,2.6,5.8,5.8v53.4C842.5,689.5,805,714.3,769.1,686.5z"/>
			<g>
				<path fill="#883B71" d="M804.4,669.9c0,0,0,4.9,3.6,4.6c3.6-0.3,3.3-4.3,3.3-4.3s-3.2-0.4-3.6-2.6
					C807.7,667.5,807.1,669.4,804.4,669.9z"/>
				<g>
					<circle fill="#FFFFFF" cx="794.7" cy="655.8" r="7.6"/>
					<circle fill="#C033AD" cx="794.6" cy="654.1" r="5.3"/>
					<circle fill="#44392E" cx="794.9" cy="652.9" r="3.2"/>
					<circle fill="#FFFFFF" cx="792.3" cy="652.5" r="2.5"/>
					<path fill="#8F854D" d="M794.7,648.1c4.2,0,7.6,3.4,7.6,7.6c0,4.2-3.4,7.6-7.6,7.6c-4.2,0-7.6-3.4-7.6-7.6
						C787.1,651.6,790.5,648.1,794.7,648.1 M794.7,647.1c-4.8,0-8.6,3.9-8.6,8.6s3.9,8.6,8.6,8.6s8.6-3.9,8.6-8.6
						S799.5,647.1,794.7,647.1L794.7,647.1z"/>
				</g>
				<g>
					<circle fill="#FFFFFF" cx="820.6" cy="655.6" r="7.6"/>
					<circle fill="#C033AD" cx="820.5" cy="653.9" r="5.3"/>
					<circle fill="#44392E" cx="820.8" cy="652.6" r="3.2"/>
					<circle fill="#FFFFFF" cx="818.2" cy="652.2" r="2.5"/>
					<path fill="#8F854D" d="M820.6,647.9c4.2,0,7.6,3.4,7.6,7.6c0,4.2-3.4,7.6-7.6,7.6c-4.2,0-7.6-3.4-7.6-7.6
						C813,651.3,816.4,647.9,820.6,647.9 M820.6,646.9c-4.8,0-8.6,3.9-8.6,8.6s3.9,8.6,8.6,8.6s8.6-3.9,8.6-8.6
						S825.4,646.9,820.6,646.9L820.6,646.9z"/>
				</g>
				<path fill="#8F854D" d="M806.6,660.7h2.3c0.9,0,1.4,1,0.9,1.8l-1.2,1.6c-0.5,0.6-1.4,0.6-1.8,0l-1.1-1.5
					C805.2,661.7,805.7,660.7,806.6,660.7z"/>
				<g>
					<path fill="none" stroke="#8F854D" stroke-linecap="round" stroke-miterlimit="10" d="M798.9,664.9c0,0-0.9,4.9,4.8,5.1
						c5.1,0.2,3.9-6.1,3.9-6.1"/>
					<path fill="none" stroke="#8F854D" stroke-linecap="round" stroke-miterlimit="10" d="M816.4,664.9c0,0,0.9,4.9-4.8,5.1
						c-5.1,0.2-3.9-6.1-3.9-6.1"/>
				</g>
				<path fill="none" stroke="#8F854D" stroke-linecap="round" stroke-miterlimit="10" d="M804.4,670.4c0.1,1.3,0.7,4.3,3.6,4.1
					c3.6-0.3,3.3-4.3,3.3-4.3"/>
			</g>
		</g>
	</g>
	<rect x="-0.4" y="-1.6" fill="none" width="1263" height="2196"/>
</g>
</svg>
