<svg xmlns="http://www.w3.org/2000/svg" xmlns:xlink="http://www.w3.org/1999/xlink" width="1262.35" height="2195.18" viewBox="0 0 1262.35 2195.18"><defs><style>.a{fill:none;}.b{clip-path:url(#a);}.c{fill:#f2c6c6;}.d{fill:#de8e8e;}.e{fill:#fff;}.f{fill:#de9b9b;}.g{fill:#d1d1d1;}</style><clipPath id="a" transform="translate(519 482.06)"><path class="a" d="M321.14,450.89l-7.29-14.09s-42.76,27.22-45.19,18,27.7-25.75,35.47-30.61c6.68-4.18,14.06-6.19,17.25-4.83-22.31-68.4-19.26-73.22-19.26-73.22,4.94-26.83,37.41-149.65,37.41-149.65l30.35,53.65c30.36-32.47,70.59-43.06,70.59-43.06s-67.06-136.94-75.53-144c-5.72-4.77-61.3-21.76-96.82-32.29-.05-.21-.09-.42-.14-.62a2.86,2.86,0,0,1-.07-.28c-.12-.48-.23-1-.34-1.41l0-.15q-.15-.6-.3-1.17a2.86,2.86,0,0,0-.07-.28c-.1-.41-.21-.81-.31-1.19l0-.11c-.09-.34-.18-.66-.26-1,0-.09-.05-.18-.07-.26-.1-.33-.19-.66-.28-.95l0-.05c-.08-.28-.16-.54-.24-.79l-.06-.2-.24-.69C263.76,16.47,236.94,0,236.94,0s-.47,21.65-.94,26.82a2.72,2.72,0,0,1-.11.54v0c-.06.2-.14.43-.23.69l0,.07c-.1.24-.21.52-.34.81a.54.54,0,0,0-.05.11c-.13.29-.28.61-.45.94,0,0,0,.09-.07.14q-.24.5-.54,1.05l-.08.17-.63,1.16-.1.18L232.64,34l-.1.18-.81,1.39-.08.15c-.29.5-.59,1-.9,1.52l-.07.12-1,1.64,0,0c-2.14,3.53-4.63,7.46-7.15,11.37-7.36,11.4-15,22.55-15,22.55-6.38-5.94-11.95-14-16.43-21.85-.08-.15-.17-.29-.25-.43-.33-.58-.65-1.15-1-1.73,0,0,0-.09-.08-.14-.3-.53-.59-1.07-.87-1.6l-.23-.42-.88-1.67-.1-.21c-.26-.5-.52-1-.76-1.49l-.2-.4c-.27-.53-.53-1.06-.79-1.58l-.13-.27-.65-1.35-.18-.37c-.24-.5-.47-1-.69-1.48l-.14-.29-.56-1.23c0-.11-.1-.21-.14-.32l-.61-1.34-.12-.29c-.17-.37-.33-.74-.48-1.1a2.72,2.72,0,0,1-.11-.25q-.27-.62-.51-1.2a1.89,1.89,0,0,1-.11-.25l-.4-.95-.08-.2c-.15-.35-.28-.69-.41-1l-.09-.21c-.11-.27-.22-.54-.32-.8l-.05-.12-.31-.78-.07-.17c-.08-.21-.16-.42-.22-.6l0-.06c-.07-.2-.14-.37-.2-.53l0-.11c-.11-.28-.18-.49-.23-.6l0-.08,0-.05-.94-23.06s-29.65,22.59-31.53,25.89l-.11.22,0,.09q0,.11-.09.24l0,.12c0,.1-.06.2-.1.31l0,.13c-.05.14-.09.3-.13.46l0,.06c-.1.4-.22.86-.34,1.38v0c-.06.24-.12.5-.18.77v.07c-.28,1.25-.59,2.73-.93,4.41L57.18,64.47C22.59,87.76,0,240.24,0,240.24c24,34.58,82.59,28.94,82.59,28.94l10-37.71.08.12,2.64-10.41c7.06,5.64,47.3,107.29,48.71,115.76,1.15,6.9-43.59,80.76-60.23,107.93a24.79,24.79,0,0,0-2.84,19.7c.44,1.52.95,2.69,1.66,3,75.48,29.2,141.38,31,187.15,26A241.33,241.33,0,0,1,291,466.93C293,465,321.14,450.89,321.14,450.89Z"/></clipPath></defs><title>girl shirt E</title><g class="b"><rect class="a" width="1262.35" height="2195.18"/><path class="c" d="M85.38,149.73c-2.25,9.09-7.88,40,9.91,71.45,7.06,5.64,47.3,107.29,48.71,115.76,1.15,6.9-43.59,80.76-60.23,107.93a24.79,24.79,0,0,0-2.84,19.7c.44,1.52.95,2.69,1.66,3,144.63,56,254.12,11.29,254.12,11.29,1.41,0,1.17-11.32,0-14.82-3.72-11-10.38-29.62-13.42-38.82-24.4-74-21.17-79.06-21.17-79.06,4.94-26.83,37.41-149.65,37.41-149.65l.23.41-.05-.23c16.41-33.71,6.88-50.3,6.88-50.3l.08-.25C213.72,136.88,112.23,146.67,85.38,149.73Z" transform="translate(519 482.06)"/><path class="c" d="M346.67,146.1l22-73.16-.65-5.78a21.83,21.83,0,0,0-3.12-4.1C356.47,56,238.59,22.12,238.59,22.12l-1.41,6.35c-1.42,8.47-29.65,44.47-29.65,44.47-14.82-10.59-31.06-46.59-31.06-46.59L57.18,64.47a32,32,0,0,0-5.71,5.11l34.65,77.48s-.31.95-.74,2.67C112.23,146.67,213.72,136.88,346.67,146.1Z" transform="translate(519 482.06)"/><path class="c" d="M86.12,147.06,51.47,69.58C20.13,104.41,0,240.24,0,240.24c24,34.58,82.59,28.94,82.59,28.94l12.7-48C74.12,183.76,86.12,147.06,86.12,147.06Z" transform="translate(519 482.06)"/><path class="c" d="M368.06,67.16l.65,5.78-22.12,73.41s9.53,16.59-6.88,50.3l.05.23,30.12,53.24c30.36-32.47,70.59-43.06,70.59-43.06S383.77,91.28,368.06,67.16Z" transform="translate(519 482.06)"/><path class="d" d="M198.35,67.76s1.41,56.95,1.89,60.71a143.83,143.83,0,0,0,18.82-.47l-2.82-61.65-8.71,6.59Z" transform="translate(519 482.06)"/><circle class="e" cx="726.53" cy="566.29" r="5.65"/><circle class="e" cx="727.59" cy="593.82" r="5.65"/><path class="f" d="M107.43,234.66c5.36,13,33.95,82.09,40,98.84a.94.94,0,0,0,1.71.12c5.13-9.67,30.15-52.11,73.51-52.11,40.05,0,66.95,35.21,74.32,48a2.17,2.17,0,0,0,4-.45c5.63-18.74,22.32-84.54,28.24-107.35a2.18,2.18,0,0,0-3.48-2.24c-19.34,15.68-93.77,64.85-217.07,14A.93.93,0,0,0,107.43,234.66Z" transform="translate(519 482.06)"/><path class="f" d="M55.06,77.88l33.88,70.59s-11.29,31.77,6.35,72.71l-2.64,10.41S66.35,191.53,84,148.47Z" transform="translate(519 482.06)"/><path class="f" d="M339.71,196.65s11.58-32.41,3.58-50.3l25.42-73.41-18.36,73.41s7.06,28.71-7.06,56.47Z" transform="translate(519 482.06)"/><path class="e" d="M178.12,2.35l.94,23.06s11.29,31.53,28.47,47.53c0,0-16.24-9.88-21.41-9.41S135.76,88,135.76,88s9-56.47,10.83-59.76S178.12,2.35,178.12,2.35Z" transform="translate(519 482.06)"/><path class="e" d="M207.53,72.94S235.53,32,236,26.82,236.94,0,236.94,0s26.82,16.47,28.71,21.65c3.71,10.21,14.59,69.17,14.59,69.17s-38.12-28.23-45.65-30.58S207.53,72.94,207.53,72.94Z" transform="translate(519 482.06)"/><path class="g" d="M178.12,2.35s-29.65,22.59-31.53,25.89A26.5,26.5,0,0,0,145.3,33c5.28-4.13,11.07-6.55,17.38-8.74,11.62,7.84,20.73,18.16,29.44,28.56a179.35,179.35,0,0,1-13.06-27.43Z" transform="translate(519 482.06)"/><path class="g" d="M265.65,21.65C263.76,16.47,236.94,0,236.94,0s-.47,21.65-.94,26.82c-.22,2.48-6.74,13.13-13.48,23.57,7.38-8.22,13.82-17.13,21.82-24.42a81.28,81.28,0,0,1,27.45,21.56C269.37,35.86,267,25.42,265.65,21.65Z" transform="translate(519 482.06)"/><path class="e" d="M302.64,133.45s13.22-3.38,12.88.77-6.17,10.46-6.17,10.46,6,8.24,2.56,10.89-10.72-.93-10.72-.93-5.62,9.47-9.35,6.06,1.22-13,1.22-13-12.86.35-12.19-5.13,9.39-6.18,9.39-6.18S288.3,113.24,302.64,133.45Z" transform="translate(519 482.06)"/><path class="e" d="M135.13,392.12s11.93-3.05,11.62.7-5.56,9.44-5.56,9.44,5.46,7.43,2.31,9.83-9.68-.84-9.68-.84-5.08,8.56-8.45,5.47,1.11-11.78,1.11-11.78-11.61.32-11-4.63,8.48-5.58,8.48-5.58S122.18,373.88,135.13,392.12Z" transform="translate(519 482.06)"/><path class="e" d="M105,439.26s8.19-2.1,8,.48-3.82,6.48-3.82,6.48,3.75,5.1,1.59,6.74-6.64-.57-6.64-.57-3.48,5.87-5.8,3.75.76-8.09.76-8.09-8,.22-7.55-3.17,5.81-3.83,5.81-3.83S96.07,426.74,105,439.26Z" transform="translate(519 482.06)"/><path class="e" d="M307.25,183.57s6.12-9,8.11-6.34,1.83,9.52,1.83,9.52,8,1.73,7.28,5.16-6.91,5.1-6.91,5.1,1.64,8.64-2.39,8.57-6.16-8.46-6.16-8.46-7.51,7-10,3.37,2.35-8.65,2.35-8.65S288,179.05,307.25,183.57Z" transform="translate(519 482.06)"/><path class="e" d="M175,407.18s6.12-9,8.11-6.34,1.83,9.51,1.83,9.51,8,1.74,7.28,5.17-6.9,5.1-6.9,5.1,1.63,8.64-2.4,8.56-6.16-8.45-6.16-8.45-7.51,7-10,3.36,2.35-8.65,2.35-8.65S155.75,402.66,175,407.18Z" transform="translate(519 482.06)"/><path class="e" d="M325.91,100.89s-9.52-5.27-7.05-7.5,9.31-2.69,9.31-2.69,1-8.09,4.48-7.72,5.7,6.41,5.7,6.41S346.81,87,347.1,91s-7.86,6.9-7.86,6.9,7.66,6.85,4.26,9.66-8.82-1.56-8.82-1.56S323.16,120.47,325.91,100.89Z" transform="translate(519 482.06)"/><path class="e" d="M292.88,52.19s4.55-9.88,6.95-7.59,3.38,9.08,3.38,9.08,8.14.4,8,3.89-6,6.17-6,6.17,3,8.25-.95,8.85-7.47-7.33-7.47-7.33-6.25,8.15-9.31,5,.9-8.92.9-8.92S273.14,50.91,292.88,52.19Z" transform="translate(519 482.06)"/><path class="e" d="M250.56,107.92s3.12-6.79,4.77-5.21,2.32,6.23,2.32,6.23,5.59.27,5.51,2.67-4.1,4.24-4.1,4.24,2.09,5.66-.65,6.07-5.12-5-5.12-5-4.29,5.59-6.39,3.41.61-6.12.61-6.12S237,107,250.56,107.92Z" transform="translate(519 482.06)"/><path class="e" d="M226,163.29s-4.42-6-2.24-6.7,6.57,1,6.57,1,2.95-4.75,5-3.52,1.72,5.63,1.72,5.63,6,.92,5,3.52-6.88,2-6.88,2,2.8,6.47-.12,7.24S230,169,230,169,218.64,174.7,226,163.29Z" transform="translate(519 482.06)"/><path class="e" d="M245.74,200.91s3.12-6.78,4.77-5.21,2.32,6.23,2.32,6.23,5.59.27,5.51,2.67-4.09,4.24-4.09,4.24,2.09,5.66-.65,6.07-5.13-5-5.13-5-4.29,5.59-6.39,3.42.62-6.13.62-6.13S232.2,200,245.74,200.91Z" transform="translate(519 482.06)"/><path class="e" d="M217.51,232.68s3.12-6.79,4.77-5.21,2.32,6.23,2.32,6.23,5.59.27,5.51,2.67-4.1,4.23-4.1,4.23,2.09,5.66-.65,6.07-5.12-5-5.12-5-4.29,5.59-6.39,3.41.61-6.12.61-6.12S204,231.8,217.51,232.68Z" transform="translate(519 482.06)"/><path class="e" d="M168.67,354.27s3.13-6.78,4.78-5.21,2.31,6.23,2.31,6.23,5.59.27,5.52,2.67-4.1,4.24-4.1,4.24,2.09,5.66-.65,6.07-5.13-5-5.13-5-4.29,5.59-6.39,3.42.62-6.13.62-6.13S155.13,353.39,168.67,354.27Z" transform="translate(519 482.06)"/><path class="e" d="M149.61,461.72s3.12-6.79,4.77-5.21,2.32,6.23,2.32,6.23,5.59.27,5.51,2.67-4.09,4.24-4.09,4.24,2.09,5.66-.65,6.07-5.13-5-5.13-5-4.29,5.59-6.39,3.41.61-6.12.61-6.12S136.07,460.84,149.61,461.72Z" transform="translate(519 482.06)"/><path class="e" d="M424.59,174.24s-15.88,7.41-28.59,16.94l9.53,15.88s14.82-11.65,27.53-14.82Z" transform="translate(519 482.06)"/></g></svg>