<svg xmlns="http://www.w3.org/2000/svg" width="1262.35" height="2195.18" viewBox="0 0 1262.35 2195.18"><defs><style>.a{fill:none;}.b{fill:#eb900b;}.c{fill:#c46c00;}.d{fill:#fca70c;}</style></defs><title>girl hair G</title><rect class="a" width="1262.35" height="2195.18"/><path class="b" d="M911.59,310.06s7.61-110.51-26.24-171.53C835.23,48.18,739.64,89,739.64,89c-73.11-33-121.58,10.77-150.79,50.26s-38.2,91.44-32.13,140.18c1.27,10.19.18,47-2,55a148,148,0,0,0-3.32,14.74c10.48,43.35-23.6,57.22,12,83.71,3.59,1.22,60.33,30,64.23,30.36-11.32-4.81-26.49-14.7-31.05-26.12,18.62,19,50.82,13.41,70.58-9.88-33.88-1.42-53.41-6.36-62.22-41.26-5.32,3.86-18,3.37-30.72-12.78-10.18-12.94-16.57-30.14-12.68-46.14,2.44-10,6.32-16.66,13.62-18.65,10.19-2.77,13.65,2.83,18.36,10.35-2.36,53.65,27.06,89.77,64.11,67.53-26.47-1.05-42.47-34.49-41.52-76,.88-38.68,30.58-104.47,68.23-117.17-4.92,16.11-36.71,92.7,46.16,104.48-8.22-1.16-21.33-48.68-15.69-82.84,10.59,57.18,59.9,68.29,82.76,70.65-20.11-17.54-29.5-55.67-27.7-82.29,23.29,2.12,68.68,40.93,76.23,73.06,21.18,90-41.8,101.45-49.38,95.7,9.15,14.52,30.68,17.66,45.78,9.52s24-24.87,27-41.77,2-35.47,3.72-27.57c8.15-5.84,20.49-1.19,25.81,7.31s9.53,35.87-11.65,56.34c-8.81,8.51-21.15,18.45-31.75,12.31-7.76,24.05-34.76,48.63-60,47.69,17.77,9.23,39.78,7.16,59.72-.1-6.68,6.38-16.37,12.54-30.94,17.53,35.46,15.74,83.29-11.3,96.87-34C942.23,384.19,927.62,331.23,911.59,310.06Z"/><path class="c" d="M574.92,374l-.63-.78c-10.18-12.94-16.57-30.14-12.68-46.14,2.44-10,6.32-16.66,13.62-18.65,10.19-2.77,13.65,2.83,18.36,10.35-1.89-16.47-1.18-71.52,21.06-109.64-28.24,39.17-33.53,69.88-51.18,48.7-5.84-7-6.16-5.46-8.38-15.76-5.74,34.12-.31,77.66-.31,77.66-21.66,16.46-27.31,50.34-21.66,76.46,11.09,51.3,72.92,72,94.58,67.06-11.32-4.81-26.49-14.7-31.05-26.12,18.62,19,50.82,13.41,70.58-9.88l-.63,0C604.76,446.65,579.13,394.09,574.92,374Z"/><path class="c" d="M711.59,283.35c-24-31-25.3-67.88-9.06-97.53-11.3,2.12-18.65,7.48-18.12,7.3-4.9,16-36.33,91.84,44.81,104.27A44.13,44.13,0,0,1,711.59,283.35Z"/><path class="c" d="M721.94,181.94c-5.38,13.46-6.69,21.33-6.53,35.51,11.62,54.84,59.73,65.64,82.23,68q-1.65-1.46-3.23-3C750.75,269.85,725.12,226.41,721.94,181.94Z"/><path class="d" d="M650.29,106.76s4.24,36,50.12,53.65c0,0-58.59,5.65-79.76-36C620.65,124.41,634.76,111,650.29,106.76Z"/><path class="d" d="M763.94,169.59s59.29-15.88,72.71-61.77c0,0,18,5.3,34.94,28.59C871.59,136.41,833.12,182.29,763.94,169.59Z"/><path class="c" d="M911.59,310.06s1.14-20.86.34-48.83c-1.83,7-5.24,13.31-11.34,18.12-16.39,12.66-24.45-6.29-32-23,3.14,17.78,3.88,35.79,4,53.87.18-.23.4.31.73,1.82,8.15-5.84,20.49-1.19,25.81,7.31s9.53,35.87-11.65,56.34a94.22,94.22,0,0,1-8.1,7.09c-13.08,44.79-62.86,60.54-81.35,52.92-.77,0-1.55,0-2.32,0,17.77,9.23,39.78,7.16,59.72-.1-6.68,6.38-16.37,12.54-30.94,17.53,34.75,19.27,83.29-11.3,96.87-34C942.23,384.19,927.62,331.23,911.59,310.06Z"/></svg>