<svg xmlns="http://www.w3.org/2000/svg" xmlns:xlink="http://www.w3.org/1999/xlink" width="1262.35" height="2195.18" viewBox="0 0 1262.35 2195.18"><defs><style>.a{fill:none;}.b{clip-path:url(#a);}.c{fill:#fffecc;}.d{fill:#d1c099;}.e{fill:#b55548;}.f{fill:#fff;}.g{fill:#a87859;}.h{fill:#bab8a4;}</style><clipPath id="a"><path class="a" d="M922.19,1615.47h0a172.54,172.54,0,0,0-6.72-42.59c-5.08-36-6.82-71.64-6.82-71.64.51-190-11.94-324-24.78-411.22l.07,0c-.22-1.53-5.65-34.24-6-36.94-5.18-29.93-10.1-52.25-13.9-67.62-1.62-.32-2.56-.55-2.56-.55s-35.47,33-39.85,24.79,34.51-39.37,34.51-41.31-2.92-3.4-2.92-3.4l-14.09,5.83s-28.19,35-34.5,27.7c-4.18-4.82,6.94-18.36,15.1-27.53-3.24.77-6.47,1.47-9.71,2.12a100.32,100.32,0,0,1-12.68,11.32c-6.74,4.76-13,5.13-13.61,2.43-.44-1.9,1.41-5.73,4.31-10.26q-7.79.92-15.49,1.43l-15.6.65q-7.44.13-14.72-.05c-.14,0-5-.16-7.25-.26l-15.3-1q-3.32-.28-6.59-.63c-64.45-6.78-112.6-28.22-112.6-28.22-.8,1.68-1.59,3.38-2.39,5.09-.09.22-.19.43-.29.65q-1.08,2.36-2.15,4.75c-.06.12-.11.23-.16.35q-1.15,2.58-2.28,5.24l0,0c-8.71,20.38-16.4,43.42-20.23,71.75q-1.14,8.46-2,17.25c0,.32-1.13,11.76-1.54,17.09-.12,1.4-1.13,14.34-1.23,15.54l.2-.09c-4.34,76.65,1.7,164.8,8.85,240.33,9.48,100,21.18,177.88,21.18,177.88-9.48,21.46-17.79,52-23.29,81.53a130.36,130.36,0,0,0-6.72,37.25c0,.1,0,.2,0,.3,0,.7,0,1.39-.07,2.08,0,.19,0,.38,0,.57,0,.64,0,1.29,0,1.92v.55a145,145,0,0,0,2.61,29.33c11.65,5.3,90,3.18,90,3.18a115.65,115.65,0,0,0,6.2-28.79h0c.09-.91.16-1.8.22-2.69v-.08a137.5,137.5,0,0,0-3.24-41.15c1-39.7,2.27-68.4,2.47-69.17,6.55-26.23,55.11-356.8,63.7-397.07l99,396c-4.52,22.78-7.94,46.44-8.75,65.91a3.47,3.47,0,0,0-.07,1.5c-.45,10.39-.49,19.48-.23,27.44h0c0,1,.07,1.88.11,2.79v.09q.18,4.17.47,7.9h0c.06.81.13,1.6.19,2.38v.13c2.66,30.4,7.92,32,7.92,32,48,.71,91.3-17.64,91.3-17.64A112.4,112.4,0,0,0,922.19,1615.47Z"/></clipPath></defs><title>girl pant short B</title><rect class="a" width="1262.35" height="2195.18"/><g class="b"><path class="c" d="M908.65,1501.24c1.05-387.53-51.89-542.12-51.89-542.12-120.7,49.76-256.23-10.59-256.23-10.59-11.54,24.31-22.66,51.82-27.53,87.88-11.63,86.08-4.53,197.57,4.23,290.12,9.48,100,21.18,177.88,21.18,177.88-9.48,21.46-17.79,52-23.29,81.53-2.94,15.75,3.06,40.42,1,57.53,30.72,9.82,54.89,4.31,86.82,8,.59-24.08.58-43.9,1.07-63,1-39.7,2.27-68.4,2.47-69.17,7.06-28.24,62.82-409.42,64.94-401s97.76,399.89,97.76,399.89c-4.25,21.44-6.73,44.77-8.59,64.93a7.82,7.82,0,0,0-.23,2.48c7.41,31.06,14.67,51.19,16.94,71.06,35.08-5.44,49.2-5.39,82.83-16-3.43-23.54-2.16-49.64-4.71-67.77C910.39,1536.87,908.65,1501.24,908.65,1501.24Z"/><path class="d" d="M731.47,1118.29l24-12.7s1.41-118.59,0-122.83-25.41,0-25.41,0Z"/><path class="d" d="M615.45,1511.68c5.23,2.11,14,3.73,25.47-1.25a2.34,2.34,0,0,1,2.87,3.45c-6.94,10.28-20.76,25.1-31.4.89A2.35,2.35,0,0,1,615.45,1511.68Z"/><path class="d" d="M863.16,1526.74a57.74,57.74,0,0,0,30.59.33,2.85,2.85,0,0,1,3,4.49c-6.63,8.64-20.07,19.85-36.58-.29A2.84,2.84,0,0,1,863.16,1526.74Z"/><path class="d" d="M613.45,1507.7c-27.89-234.32-26.82-456.35-26.8-458.57a2,2,0,0,0-2-2h0a2,2,0,0,0-2,2c0,2.22-1.09,224.22,26.78,458.65-1.5,4.84-15.34,50.72-25.92,128.06l3.89,1.1c11.09-81.41,25.82-127.89,26-128.36A1.87,1.87,0,0,0,613.45,1507.7Z"/><path class="d" d="M844.55,1579c.94-40.3,6.67-61.11,6.73-61.32a2.08,2.08,0,0,0,0-1.05c-13.95-53-91-403.68-91.75-407.22a2,2,0,0,0-3.91.86c.78,3.53,77.33,352.08,91.65,406.86-.93,3.55-5.83,23.92-6.72,61.55A574.21,574.21,0,0,0,843,1644l3.94-.75A574.49,574.49,0,0,1,844.55,1579Z"/><path class="d" d="M835.94,1515c-24-70.59-90.35-391.06-90.35-391.06l55.06-48-69.89,42-.7,3.53c2.12,8.47,99.17,396.71,99.17,396.71-4.63,23.37-8.13,47.67-8.82,67.41-.15,4.15,2.43,10.26,2.47,14.12.22,18.54-.22,32,1.59,47.82q3.09-.48,6.16-1C824.39,1570.6,835.94,1515,835.94,1515Z"/><path class="e" d="M575.12,1585.94s49.76,7.77,88.94,2.47c0,0,9.88,36.35-3.18,72.71,0,0-78.35,2.12-90-3.18C570.88,1657.94,562.76,1621.59,575.12,1585.94Z"/><path class="e" d="M820.41,1585.59s66.82.47,95.06-12.71c0,0,11.29,35.77,4.71,67.77,0,0-6.12,13.17-89.24,24.17C830.94,1664.82,817.59,1650.06,820.41,1585.59Z"/><path class="e" d="M591.3,1047.74c13.11-13.5,29.65-37.19,34.41-73.6l-7.18-2.67c-5.87,46.92-32,71.5-47.58,82.19-.17,1.61-.58,6.27-1,11.41A113.46,113.46,0,0,0,591.3,1047.74Z"/><path class="e" d="M633.4,977c-5.38,37.75-22.79,62.43-36.63,76.6a115.3,115.3,0,0,1-27.71,21.21c-.3,3.45-.78,10.29-.89,11.49,68.71-31.53,75.06-105.64,75.06-105.64Z"/><path class="f" d="M596.77,1053.59c13.84-14.17,31.25-38.85,36.63-76.6l-1.83-.67-5.86-2.18c-4.76,36.41-21.3,60.1-34.41,73.6a113.46,113.46,0,0,1-21.39,17.33c-.1,1.2-.21,2.42-.32,3.64-.18,2.11-.37,4.19-.53,6.09A115.3,115.3,0,0,0,596.77,1053.59Z"/><path class="e" d="M880.64,1066.47c-.26-5.15-.09-10.77-.23-11.71C837.93,1027.18,833.82,975,833.82,975L823,976.59a135.13,135.13,0,0,0,57.63,89.88Z"/><path class="e" d="M828.16,1015.94a139.59,139.59,0,0,1-11.89-37.06l-5.74,3.18c6.35,60,55.56,98.68,73.41,108-.22-1.53-1.22-8-2.24-14.64A138.48,138.48,0,0,1,828.16,1015.94Z"/><path class="f" d="M823,976.59c0-.34-.07-.54-.07-.56l-7,.76c0,.13.1.86.29,2.09l3.19-1.76Z"/><path class="f" d="M880.64,1066.47A135.13,135.13,0,0,1,823,976.59l-3.55.53-3.19,1.76a142.23,142.23,0,0,0,65.43,96.54c-.2-1.29-.41-2.59-.6-3.86C880.87,1070.07,880.73,1068.3,880.64,1066.47Z"/><path class="g" d="M863.38,982.68c-4-16-6.62-23.56-6.62-23.56-120.7,49.76-256.23-10.59-256.23-10.59-3.29,6.93-6.54,14.14-9.63,21.72C624,985.51,742.94,1032.35,863.38,982.68Z"/><path class="h" d="M713.13,976.75c-.64,8.76-1.86,17.42-3,26.1a341,341,0,0,0,62.47,1.14V978.07A348,348,0,0,1,713.13,976.75Z"/><path class="f" d="M667.08,1632.33a139.53,139.53,0,0,0,.34-20.24,309,309,0,0,1-97.94-1.7,150.48,150.48,0,0,0-1.21,20.18,314.77,314.77,0,0,0,54.77,4.68A335.15,335.15,0,0,0,667.08,1632.33Z"/><path class="f" d="M920.32,1594.93c-43.94,15.79-82,18.08-100.14,18.1.26,7.71.79,14.35,1.49,20,19.54-.08,56.83-2.63,100.52-17.6A162.64,162.64,0,0,0,920.32,1594.93Z"/></g></svg>