<svg xmlns="http://www.w3.org/2000/svg" width="1262.35" height="2195.18" viewBox="0 0 1262.35 2195.18"><defs><style>.a{fill:none;}.b{fill:#a16442;}.c{fill:#587d32;}.d{fill:#436323;}.e{fill:#81b849;}</style></defs><title>girl hair i</title><rect class="a" width="1262.35" height="2195.18"/><path class="b" d="M700.4,475.72c3,1.45,5.76,2.78,8.4,4"/><path class="b" d="M757.89,476c2-.95,4-1.94,6.12-3"/><path class="c" d="M914.33,408.9c27.59,8.4,58.76,2.5,81.86-15.49-26,5.9-51-17.32-60.38-43.53s-8.16-55.12-11.33-83c-5.66-49.68-34.75-188.14-189.34-183.67-.78,0-1.52.06-2.23.13s-1.44-.11-2.22-.13C576.1,78.78,547,217.24,541.35,266.92c-3.17,27.84-1.9,56.75-11.33,83s-34.4,49.43-60.38,43.53c23.1,18,54.27,23.89,81.86,15.49a84.14,84.14,0,0,1-48,32.58c24.84,16.38,59.26,14.64,82.51-4.17q-1.9,24.78-3.82,49.57l34.46-34.59c4.42,14.68-1.17,32.07-13.14,40.9a155.38,155.38,0,0,0,59.74-21.53c2.52,16.08-8.15,33.24-23.13,37.22,23.84,2.25,48.15-11.53,60.27-33.16-34.17-16.73-87-48.55-95.15-88.51-18,5.85-36.08-15.93-42-27.4-7-13.47-11.67-40.33,7.48-51.47,9.91-5.76,18.4,0,24.29,6.89-.2-2.07-.32-3.35-.35-3.71s-.06-.65-.09-1l0-.32c0-.33,0-.67-.08-1V309c0-.41-.07-.83-.1-1.28,0-.14,0-.28,0-.42,0-.35-.05-.72-.07-1.09l0-.42c0-.47,0-1-.08-1.48,0-.18,0-.36,0-.54q0-.58-.06-1.2c0-.19,0-.38,0-.58,0-.55,0-1.11-.06-1.69,0-.21,0-.43,0-.64l0-1.31c0-.24,0-.48,0-.72,0-.62,0-1.25,0-1.9v-.64c0-.5,0-1,0-1.52,0-.26,0-.53,0-.8,0-.69,0-1.39,0-2.11h0A212.94,212.94,0,0,1,596.86,258c38.7,2,79-22.33,91.64-59.52,3.81,25.91-11.37,53.45-35.32,64.06,39.91-.32,76.64-34.55,79.76-74.34a119.6,119.6,0,0,0,66.61,77.36,78.2,78.2,0,0,1-21.36-57.78c12.21,16.35,33.5,22.25,52,30.91S867.44,264,864.7,284.18a124.78,124.78,0,0,0,2.39-15.24c.81,7.39,1.16,14.33,1.25,20.49h0c.1,7.7-.21,14.21-.58,18.95v.11c0,.4-.07.8-.1,1.18h0c0,.38-.06.75-.09,1.1l0,.15c0,.32,0,.64-.08.94v0c0,.31-.06.6-.09.88V313c0,.27-.06.54-.09.78s-.17,1.64-.41,3.7c6-6.8,14.59-12.41,24.4-6.49,19,11.45,13.81,38.23,6.64,51.59-6.1,11.36-24.56,32.85-42.45,26.7-8.14,36.41-57,66.63-91.44,83.8,11.55,23.16,36.88,38.19,61.69,35.84-15-4-25.65-21.14-23.13-37.22a155.38,155.38,0,0,0,59.74,21.53c-12-8.83-17.56-26.22-13.14-40.9,15,7.06,25.59,16.59,34.46,34.59,9.13-12.7,4.9-31.76-3.82-49.57,23.24,18.81,57.67,20.55,82.51,4.17A84.14,84.14,0,0,1,914.33,408.9Z"/><path class="c" d="M595.59,248.35c.18-.46.36-.93.53-1.39C595.59,247.14,595.3,247.5,595.59,248.35Z"/><path class="d" d="M914.33,408.9c27.59,8.4,58.76,2.5,81.86-15.49-26,5.9-51-17.32-60.38-43.53-4.42-12.28-6.49-25.15-7.76-38.23-19.89-22.19-34.75-51.24-36.46-80.3,0,19-12,36-10,55-10-18-11-42-32-49-37-11-78-35-81-76-3,20-10,40-4,60-12-23-33-63-34-59-10,22-17,48-34,65,9-26,10-55-2-80-11,47-44,93-95,97,.71,2.86-2.14,2.15-3.47,2.61-.17.46-.35.93-.53,1.39-.29-.85,0-1.21.53-1.39,5.42-14.65,4.84-31,16.47-42.61-30,24-53,61-58,99-3.86-30.09-4.14-60.19-1.77-90.74a293.51,293.51,0,0,0-11.47,54.31c-3.17,27.84-1.9,56.75-11.33,83s-34.4,49.43-60.38,43.53c23.1,18,54.27,23.89,81.86,15.49a84.14,84.14,0,0,1-48,32.58c24.84,16.38,59.26,14.64,82.51-4.17q-1.9,24.78-3.82,49.57l34.46-34.59c4.42,14.68-1.17,32.07-13.14,40.9a155.38,155.38,0,0,0,59.74-21.53c2.52,16.08-8.15,33.24-23.13,37.22,23.84,2.25,48.15-11.53,60.27-33.16-34.17-16.73-87-48.55-95.15-88.51-18,5.85-36.08-15.93-42-27.4-7-13.47-11.67-40.33,7.48-51.47,9.91-5.76,18.4,0,24.29,6.89-.2-2.07-.32-3.35-.35-3.71s-.06-.65-.09-1l0-.32c0-.33,0-.67-.08-1V309c0-.41-.07-.83-.1-1.28,0-.14,0-.28,0-.42,0-.35-.05-.72-.07-1.09l0-.42c0-.47,0-1-.08-1.48,0-.18,0-.36,0-.54q0-.58-.06-1.2c0-.19,0-.38,0-.58,0-.55,0-1.11-.06-1.69,0-.21,0-.43,0-.64l0-1.31c0-.24,0-.48,0-.72,0-.62,0-1.25,0-1.9v-.64c0-.5,0-1,0-1.52,0-.26,0-.53,0-.8,0-.69,0-1.39,0-2.11h0A212.94,212.94,0,0,1,596.86,258c38.7,2,79-22.33,91.64-59.52,3.81,25.91-11.37,53.45-35.32,64.06,39.91-.32,76.64-34.55,79.76-74.34a119.6,119.6,0,0,0,66.61,77.36,78.2,78.2,0,0,1-21.36-57.78c12.21,16.35,33.5,22.25,52,30.91S867.44,264,864.7,284.18a124.78,124.78,0,0,0,2.39-15.24c.81,7.39,1.16,14.33,1.25,20.49h0c.1,7.7-.21,14.21-.58,18.95v.11c0,.4-.07.8-.1,1.18h0c0,.38-.06.75-.09,1.1l0,.15c0,.32,0,.64-.08.94v0c0,.31-.06.6-.09.88V313c0,.27-.06.54-.09.78s-.17,1.64-.41,3.7c6-6.8,14.59-12.41,24.4-6.49,19,11.45,13.81,38.23,6.64,51.59-6.1,11.36-24.56,32.85-42.45,26.7-8.14,36.41-57,66.63-91.44,83.8,11.55,23.16,36.88,38.19,61.69,35.84-15-4-25.65-21.14-23.13-37.22a155.38,155.38,0,0,0,59.74,21.53c-12-8.83-17.56-26.22-13.14-40.9,15,7.06,25.59,16.59,34.46,34.59,9.13-12.7,4.9-31.76-3.82-49.57,23.24,18.81,57.67,20.55,82.51,4.17A84.14,84.14,0,0,1,914.33,408.9Z"/><path class="e" d="M669.63,154.64c-19.3-4.47-37.52-14.33-50.11-29.1a168.08,168.08,0,0,0-19.11,19.19C620.49,156.61,647,161,669.63,154.64Z"/><path class="e" d="M775.49,146.41c29,13.1,63.94,14.9,94.77,5.13a206.74,206.74,0,0,0-18.41-23.83C828.88,142.07,801.82,149.51,775.49,146.41Z"/></svg>