<svg xmlns="http://www.w3.org/2000/svg" xmlns:xlink="http://www.w3.org/1999/xlink" width="1262.35" height="2195.18" viewBox="0 0 1262.35 2195.18"><defs><style>.a{fill:none;}.b{clip-path:url(#a);}.c{fill:#a19c3b;}.d{fill:#d4ca96;}.e{fill:#827d25;}.f{fill:#6b5c94;}.g{fill:#fff;}</style><clipPath id="a"><path class="a" d="M908.65,1501.24c.35-129.78-9.4-376.91-44.48-515.72-1.68-.33-2.65-.57-2.65-.57s-35.47,33-39.85,24.79,34.51-39.37,34.51-41.31-2.92-3.4-2.92-3.4l-14.09,5.83s-28.19,35-34.5,27.7c-4.18-4.82,6.94-18.36,15.1-27.53-3.24.77-6.47,1.47-9.71,2.12a100.32,100.32,0,0,1-12.68,11.32c-6.74,4.76-13,5.13-13.61,2.43-.44-1.9,1.41-5.73,4.31-10.26q-7.79.92-15.49,1.43h0c-85.84,5.73-170.84-29.28-172.06-29.54-26.43,55.71-26.19,81-30.66,116.74h0c-6.93,81.19-.45,178.75,7.36,261.26,9.48,100,21.18,177.88,21.18,177.88C538.06,1641,567.7,1984.06,567.7,1984.06a51.45,51.45,0,0,0,13.82,8.86l.14.06c31.68,13.79,72.87-3.63,72.87-3.63,1.06-14.82,11.19-466.87,12-470.11,6.55-26.23,55.11-356.8,63.7-397.07l99,396c-25.41,128.11,9.18,199.41,22.24,238.23,15,44.71,49.76,238.24,49.76,238.24a112.63,112.63,0,0,0,16.72,7.84h0l2.18.78.21.07c42.31,14.39,73-6.59,73-6.59C965.82,1925.82,908.65,1501.24,908.65,1501.24Z"/></clipPath></defs><title>girl pant E</title><rect class="a" width="1262.35" height="2195.18"/><g class="b"><path class="c" d="M600.53,948.53s135.53,60.35,256.23,10.59c0,0,52.94,154.59,51.89,542.12,0,0,57.17,424.58,84.7,495.52,0,0-40.23,27.53-92.12-2.11,0,0-34.72-193.53-49.76-238.24-13.06-38.82-47.65-110.12-22.24-238.23,0,0-95.64-391.42-97.76-399.89s-57.88,372.71-64.94,401c-.81,3.24-10.94,455.29-12,470.11,0,0-55.06,23.3-86.83-5.29,0,0-29.64-343.06,30.71-479.65,0,0-11.7-77.88-21.18-177.88-8.76-92.55-15.86-204-4.23-290.12C577.87,1000.35,589,972.84,600.53,948.53Z"/><path class="d" d="M553.45,1244.28c9.65,4.87,101.46,54.52,119.2,64.6,8.71,5,17.41,10.2,25.27,15.1l4-25.78c-33-21.32-137.91-76.92-146.9-80.73C554.48,1226.38,553.93,1235.32,553.45,1244.28Z"/><path class="d" d="M626.09,1326.49c10.14,4.92,26.69,12.3,42.79,21.45,8.41,4.78,16.8,9.83,24.44,14.57,1.31-8.52,2.65-17.14,4-25.79A512.55,512.55,0,0,0,627,1299.23C626.59,1308.32,626.25,1317.41,626.09,1326.49Z"/><path class="d" d="M731.47,1118.29l24-12.7s1.41-118.59,0-122.83-25.41,0-25.41,0Z"/><path class="e" d="M615.45,1511.68c5.23,2.11,14,3.73,25.47-1.25a2.34,2.34,0,0,1,2.87,3.45c-6.94,10.28-20.76,25.1-31.4.89A2.35,2.35,0,0,1,615.45,1511.68Z"/><path class="e" d="M863.16,1526.74a57.74,57.74,0,0,0,30.59.33,2.85,2.85,0,0,1,3,4.49c-6.63,8.64-20.07,19.85-36.58-.29A2.84,2.84,0,0,1,863.16,1526.74Z"/><path class="e" d="M587,1640.16c11.14-83.43,26.26-131.14,26.41-131.61a1.87,1.87,0,0,0,.08-.85c-27.89-234.32-26.82-456.35-26.8-458.57a2,2,0,0,0-2-2h0a2,2,0,0,0-2,2c0,2.22-1.09,224.22,26.78,458.65-1.52,4.91-15.78,52.18-26.41,131.75-10.25,76.69-19.12,199.9-3.52,352.49,1.39.67,2.79,1.29,4.21,1.84C567.83,1840.66,576.71,1717,587,1640.16Z"/><path class="e" d="M844.55,1579c.94-40.3,6.67-61.11,6.73-61.32a2.08,2.08,0,0,0,0-1.05c-13.95-53-91-403.68-91.75-407.22a2,2,0,0,0-3.91.86c.78,3.53,77.33,352.08,91.65,406.86-.93,3.55-5.83,23.92-6.72,61.55-.89,37.47,2.27,99.79,22.38,183.86,27.41,114.67,46.86,202.54,55,240,1.49.55,3,1,4.43,1.52-7.83-36-27.53-125.24-55.55-242.42C846.85,1678.06,843.69,1616.18,844.55,1579Z"/><path class="d" d="M829.66,971.47l-5,4.24c10,59.88,38.11,83.79,56,93.11q-.68-4.72-1.35-9.24C836.77,1032,829.66,971.47,829.66,971.47Z"/><path class="d" d="M625.59,975.71l-7.06-4.24c-5.87,46.92-32,71.5-47.58,82.19-.39,3.82-.75,7.7-1.08,11.61C618.17,1032.5,625.59,975.71,625.59,975.71Z"/><path class="e" d="M835.94,1515c-24-70.59-90.35-391.06-90.35-391.06l55.06-48-69.89,42-.7,3.53c2.12,8.47,99.17,396.71,99.17,396.71-25.41,128.11,9.18,199.41,22.24,238.23C807.7,1630.76,835.94,1515,835.94,1515Z"/><path class="f" d="M863.38,982.68c-4-16-6.62-23.56-6.62-23.56-120.7,49.76-256.23-10.59-256.23-10.59-3.29,6.93-6.54,14.14-9.63,21.72C624,985.51,742.94,1032.35,863.38,982.68Z"/></g><path class="g" d="M751,978.78c-10,0-19.77-.44-29.24-1.22a8.82,8.82,0,0,0-9.38,7.76c-.37,3.41-3.74,13.42,5.36,17.92,6.48,3.19,24.77,1.68,30.18,1.68s11-.14,16.6-.42a8.57,8.57,0,0,0,8.11-8.57V987.3a8.75,8.75,0,0,0-9.05-8.76Q757.21,978.78,751,978.78Zm15.63,13.14a6.78,6.78,0,0,1-6.52,6.77c-4.05.15-8.13.23-12.19.23-7.85,0-15.83-.29-23.84-.85a6.79,6.79,0,0,1-6.26-7.6h0a7.53,7.53,0,0,1,8-6.59c8.51.6,16.94.9,25.18.9q4.35,0,8.66-.11a6.77,6.77,0,0,1,7,6.76Z"/></svg>