<svg xmlns="http://www.w3.org/2000/svg" xmlns:xlink="http://www.w3.org/1999/xlink" width="1262.35" height="2195.18" viewBox="0 0 1262.35 2195.18"><defs><style>.a{fill:none;}.b{clip-path:url(#a);}.c{fill:#faa;}.d{fill:#ca5d5d;}.e{fill:#fff;}.f{fill:#e48a8a;}.g{fill:#d6d6d6;}</style><clipPath id="a" transform="translate(519 482.06)"><path class="a" d="M321.14,450.89l-7.29-14.09s-42.76,27.22-45.19,18,27.7-25.75,35.47-30.61c6.68-4.18,14.06-6.19,17.25-4.83-22.31-68.4-19.26-73.22-19.26-73.22,4.94-26.83,37.41-149.65,37.41-149.65l30.35,53.65c30.36-32.47,70.59-43.06,70.59-43.06s-67.06-136.94-75.53-144c-5.72-4.77-61.3-21.76-96.82-32.29-.05-.21-.09-.42-.14-.62a2.86,2.86,0,0,1-.07-.28c-.12-.48-.23-1-.34-1.41l0-.15q-.15-.6-.3-1.17a2.86,2.86,0,0,0-.07-.28c-.1-.41-.21-.81-.31-1.19l0-.11c-.09-.34-.18-.66-.26-1,0-.09-.05-.18-.07-.26-.1-.33-.19-.66-.28-.95l0-.05c-.08-.28-.16-.54-.24-.79l-.06-.2-.24-.69C263.76,16.47,236.94,0,236.94,0s-.47,21.65-.94,26.82a2.72,2.72,0,0,1-.11.54v0c-.06.2-.14.43-.23.69l0,.07c-.1.24-.21.52-.34.81a.54.54,0,0,0-.05.11c-.13.29-.28.61-.45.94,0,0,0,.09-.07.14q-.24.5-.54,1.05l-.08.17-.63,1.16-.1.18L232.64,34l-.1.18-.81,1.39-.08.15c-.29.5-.59,1-.9,1.52l-.07.12-1,1.64,0,0c-2.14,3.53-4.63,7.46-7.15,11.37-7.36,11.4-15,22.55-15,22.55-6.38-5.94-11.95-14-16.43-21.85-.08-.15-.17-.29-.25-.43-.33-.58-.65-1.15-1-1.73,0,0,0-.09-.08-.14-.3-.53-.59-1.07-.87-1.6l-.23-.42-.88-1.67-.1-.21c-.26-.5-.52-1-.76-1.49l-.2-.4c-.27-.53-.53-1.06-.79-1.58l-.13-.27-.65-1.35-.18-.37c-.24-.5-.47-1-.69-1.48l-.14-.29-.56-1.23c0-.11-.1-.21-.14-.32l-.61-1.34-.12-.29c-.17-.37-.33-.74-.48-1.1a2.72,2.72,0,0,1-.11-.25q-.27-.62-.51-1.2a1.89,1.89,0,0,1-.11-.25l-.4-.95-.08-.2c-.15-.35-.28-.69-.41-1l-.09-.21c-.11-.27-.22-.54-.32-.8l-.05-.12-.31-.78-.07-.17c-.08-.21-.16-.42-.22-.6l0-.06c-.07-.2-.14-.37-.2-.53l0-.11c-.11-.28-.18-.49-.23-.6l0-.08,0-.05-.94-23.06s-29.65,22.59-31.53,25.89l-.11.22,0,.09q0,.11-.09.24l0,.12c0,.1-.06.2-.1.31l0,.13c-.05.14-.09.3-.13.46l0,.06c-.1.4-.22.86-.34,1.38v0c-.06.24-.12.5-.18.77v.07c-.28,1.25-.59,2.73-.93,4.41L57.18,64.47C22.59,87.76,0,240.24,0,240.24c24,34.58,82.59,28.94,82.59,28.94l10-37.71.08.12,2.64-10.41c7.06,5.64,47.3,107.29,48.71,115.76,1.15,6.9-43.59,80.76-60.23,107.93a24.79,24.79,0,0,0-2.84,19.7c.44,1.52.95,2.69,1.66,3,75.48,29.2,141.38,31,187.15,26A241.33,241.33,0,0,1,291,466.93C293,465,321.14,450.89,321.14,450.89Z"/></clipPath></defs><title>girl shirt C</title><g class="b"><rect class="a" width="1262.35" height="2195.18"/><path class="c" d="M176.47,26.35s16.24,36,31.06,46.59c0,0,28.23-36,29.65-44.47l1.41-6.35S356.47,56,364.94,63.06s75.53,144,75.53,144-40.23,10.59-70.59,43.06l-30.35-53.65s-32.47,122.82-37.41,149.65c0,0-3.23,5.09,21.17,79.06,3,9.2,9.7,27.81,13.42,38.82,1.17,3.5,1.41,14.82,0,14.82,0,0-109.49,44.66-254.12-11.29-.71-.27-1.22-1.44-1.66-3a24.79,24.79,0,0,1,2.84-19.7c16.64-27.17,61.38-101,60.23-107.93-1.41-8.47-41.65-110.12-48.71-115.76l-12.7,48S24,274.82,0,240.24c0,0,22.59-152.48,57.18-175.77Z" transform="translate(519 482.06)"/><path class="d" d="M198.35,67.76s1.41,56.95,1.89,60.71a143.83,143.83,0,0,0,18.82-.47l-2.82-61.65-8.71,6.59Z" transform="translate(519 482.06)"/><circle class="e" cx="726.53" cy="566.29" r="5.65"/><circle class="e" cx="727.59" cy="593.82" r="5.65"/><path class="f" d="M107.43,234.66c5.36,13,33.95,82.09,40,98.84a.94.94,0,0,0,1.71.12c5.13-9.67,30.15-52.11,73.51-52.11,40.05,0,66.95,35.21,74.32,48a2.17,2.17,0,0,0,4-.45c5.63-18.74,22.32-84.54,28.24-107.35a2.18,2.18,0,0,0-3.48-2.24c-19.34,15.68-93.77,64.85-217.07,14A.93.93,0,0,0,107.43,234.66Z" transform="translate(519 482.06)"/><path class="f" d="M55.06,77.88l33.88,70.59s-11.29,31.77,6.35,72.71l-2.64,10.41S66.35,191.53,84,148.47Z" transform="translate(519 482.06)"/><path class="f" d="M339.71,196.65s11.58-32.41,3.58-50.3l25.42-73.41-18.36,73.41s7.06,28.71-7.06,56.47Z" transform="translate(519 482.06)"/><path class="e" d="M178.12,2.35l.94,23.06s11.29,31.53,28.47,47.53c0,0-16.24-9.88-21.41-9.41S135.76,88,135.76,88s9-56.47,10.83-59.76S178.12,2.35,178.12,2.35Z" transform="translate(519 482.06)"/><path class="e" d="M207.53,72.94S235.53,32,236,26.82,236.94,0,236.94,0s26.82,16.47,28.71,21.65c3.71,10.21,14.59,69.17,14.59,69.17s-38.12-28.23-45.65-30.58S207.53,72.94,207.53,72.94Z" transform="translate(519 482.06)"/><path class="g" d="M178.12,2.35s-29.65,22.59-31.53,25.89A26.5,26.5,0,0,0,145.3,33c5.28-4.13,11.07-6.55,17.38-8.74,11.62,7.84,20.73,18.16,29.44,28.56a179.35,179.35,0,0,1-13.06-27.43Z" transform="translate(519 482.06)"/><path class="g" d="M265.65,21.65C263.76,16.47,236.94,0,236.94,0s-.47,21.65-.94,26.82c-.22,2.48-6.74,13.13-13.48,23.57,7.38-8.22,13.82-17.13,21.82-24.42a81.28,81.28,0,0,1,27.45,21.56C269.37,35.86,267,25.42,265.65,21.65Z" transform="translate(519 482.06)"/><path class="e" d="M5.73,207.13c-1.18,6.19-2.19,11.77-3,16.52,16,11.35,45.68,27.14,85.3,25l3.84-14.5C54.74,238.84,20,217.41,5.73,207.13Z" transform="translate(519 482.06)"/><path class="e" d="M15.9,238.86a145.93,145.93,0,0,1-14.31-8.59c-1,6.29-1.59,10-1.59,10,24,34.58,82.59,28.94,82.59,28.94l3.82-14.45c-1.91.08-3.81.13-5.67.13A139.88,139.88,0,0,1,15.9,238.86Z" transform="translate(519 482.06)"/><path class="e" d="M367.8,212.5a140.42,140.42,0,0,1,59.9-31.3c-1.76-3.55-3.65-7.35-5.65-11.35-41.74,6.73-64.7,31.91-73.11,43.25l6.67,11.8A131.39,131.39,0,0,1,367.8,212.5Z" transform="translate(519 482.06)"/><path class="e" d="M440.47,207.06s-3.54-7.23-9.09-18.44a133,133,0,0,0-71.87,43.17l10.37,18.33C400.24,217.65,440.47,207.06,440.47,207.06Z" transform="translate(519 482.06)"/><path class="d" d="M304.8,155.08c-1.5-4.67-6.54-13.9-21.74-9.43-12,3.51-14.71,15.19-13.42,19.71a72.63,72.63,0,0,0-10.58,9.23l57.88-16.94A41.64,41.64,0,0,0,304.8,155.08Z" transform="translate(519 482.06)"/><path class="e" d="M272.47,175.29l33.88-9.17S297.18,189.41,272.47,175.29Z" transform="translate(519 482.06)"/></g></svg>