<?xml version="1.0" encoding="UTF-8"?>
<svg width="1263px" height="2196px" viewBox="0 0 1263 2196" xmlns="http://www.w3.org/2000/svg" xmlns:xlink="http://www.w3.org/1999/xlink" version="1.1">
 <!-- Generated by Pixelmator Pro 1.7.1 -->
 <path id="Path-copy" d="M848.5 951.1 L847 949.2 827.6 958 C823.6 962.1 818.7 967.6 813.6 972.8 816.9 972.2 820 971.6 822.9 971 827 966.4 830.3 963 830.4 962.3 831 960.3 848.5 951.1 848.5 951.1 Z" fill="#403439" fill-opacity="1" stroke="none"/>
 <g id="group-copy">
  <g id="group-1">
   <defs>
    <linearGradient id="linear-gradient" gradientUnits="userSpaceOnUse" x1="602.045" y1="801.179" x2="871.356" y2="801.179">
     <stop offset="0" stop-color="#46e4e8" stop-opacity="1"/>
     <stop offset="1" stop-color="#fb12fe" stop-opacity="1"/>
    </linearGradient>
   </defs>
   <path id="Path-1" d="M607.4 631.9 C605.1 641 599.5 671.9 617.3 703.3 624.4 708.9 664.6 810.6 666 819.1 667.2 826 622.4 899.9 605.8 927 602.1 932.9 601.1 940 603 946.7 603.4 948.2 604 949.4 604.7 949.7 749.3 1005.7 858.8 961 858.8 961 860.2 961 860 949.7 858.8 946.2 855.1 935.2 848.4 916.6 845.4 907.4 821 833.4 824.2 828.3 824.2 828.3 829.1 801.5 861.6 678.6 861.6 678.6 L861.8 679 861.7 678.8 C878.1 645.1 868.6 628.5 868.6 628.5 L868.7 628.2 C735.7 619.1 634.2 628.9 607.4 631.9 Z" fill-opacity="1" fill="url(#linear-gradient)" stroke="none"/>
   <path id="Path-2" d="M858.3 945 C754.6 980.8 642.4 946.5 603.4 932.1 601.7 936.8 601.6 941.9 602.9 946.7 603.3 948.2 603.9 949.4 604.6 949.7 749.2 1005.7 858.7 961 858.7 961 860.1 961 859.9 949.7 858.7 946.2 Z" fill="#403439" fill-opacity="1" stroke="none"/>
   <path id="Path-3" d="M629.4 716.8 C634.7 729.7 663.3 798.9 669.4 815.6 669.6 816.1 670.1 816.3 670.6 816.1 670.8 816 671 815.9 671.1 815.7 676.2 806 701.2 763.6 744.6 763.6 784.6 763.6 811.6 798.8 818.9 811.6 819.5 812.7 820.8 813 821.9 812.4 822.4 812.1 822.8 811.7 822.9 811.1 828.5 792.4 845.2 726.6 851.1 703.8 851.4 702.6 850.7 701.4 849.5 701.1 848.8 700.9 848.1 701.1 847.6 701.5 828.3 717.2 753.8 766.3 630.5 715.5 630 715.3 629.5 715.5 629.3 716 629.4 716.4 629.4 716.6 629.4 716.8 Z" fill="#2b3584" fill-opacity="1" stroke="none"/>
   <path id="Path-4" d="M868.7 628.3 L890.7 555.1 890.1 549.3 C889.2 547.8 888.2 546.4 887 545.2 878.5 538.1 760.7 504.3 760.7 504.3 L759.3 510.6 C757.9 519.1 729.7 555.1 729.7 555.1 714.9 544.5 698.6 508.5 698.6 508.5 L579.3 546.6 C577.2 548.1 575.3 549.8 573.6 551.7 L608.3 629.2 C608.3 629.2 608 630.1 607.6 631.9 634.2 628.9 735.7 619.1 868.7 628.3 Z" fill="#1c110d" fill-opacity="1" stroke="none"/>
   <path id="Path-5" d="M696.6 509 C696.6 509 696.2 485.4 696.2 483.9 696.2 482.4 699.7 480.4 699.7 480.4 L723.7 494.5 735 494.5 758.3 483.5 C758.3 483.5 761.5 485.3 762.2 487 762.9 488.7 762.2 508.9 762.2 508.9 762.2 508.9 737.5 553.1 730.1 558.7 722.7 564.3 696.6 509 696.6 509 Z" fill="#1c110d" fill-opacity="1" stroke="none"/>
   <path id="Path-6" d="M723.6 494.4 L723.9 596.9 C723.9 600 726.3 602.5 729.4 602.6 L729.7 602.6 C732.8 602.7 735.5 600.2 735.5 597.1 L735.5 597 736.2 494.1 Z" fill="#ffffff" fill-opacity="1" stroke="none"/>
   <path id="Path-7" d="M737.3 502.5 L763 491.3 C763 490 762.9 488.8 762.7 487.5 762 485.8 758.8 484.2 758.8 484.2 L735.5 494.5 724.2 494.5 700.2 481.2 C700.2 481.2 696.7 483.2 696.7 484.5 L696.7 486.3 726 502.5 Z" fill="#ffffff" fill-opacity="1" stroke="none"/>
   <defs>
    <linearGradient id="linear-gradient-1" gradientUnits="userSpaceOnUse" x1="861.716" y1="753.413" x2="1041.099" y2="753.413">
     <stop offset="0" stop-color="#46e4e8" stop-opacity="1"/>
     <stop offset="1" stop-color="#fb12fe" stop-opacity="1"/>
    </linearGradient>
   </defs>
   <path id="Path-8" d="M890.1 549.3 L890.7 555.1 868.6 628.5 C868.6 628.5 878.1 645.1 861.7 678.8 L861.8 679 870.5 674.1 968.4 819.5 C972.4 815.2 948.9 840.3 934.1 860.9 924.1 874.6 896.9 927 896.9 927 914.6 952.4 936.4 957.3 936.4 957.3 998.3 901.7 1026.6 859.9 1038 840 1042.3 832.5 1042.1 823.2 1037.4 815.8 1021.8 791.3 983.8 730.2 952.8 672.2 922.6 615.7 896.8 559.7 890.1 549.3 Z" fill-opacity="1" fill="url(#linear-gradient-1)" stroke="none"/>
   <path id="Path-9" d="M902 917.2 C898.8 923.2 896.8 927.1 896.8 927.1 914.5 952.5 936.3 957.4 936.3 957.4 939.1 954.9 941.8 952.4 944.4 950 927.8 944 913.6 931 902 917.2 Z" fill="#1c110d" fill-opacity="1" stroke="none"/>
   <path id="Path-10" d="M973.1 814.2 C973.1 814.2 998.5 783.5 1005.9 785.6 1013.3 787.7 1021.8 805.7 1020.7 812.1 1019.6 818.5 1005.9 800.4 973.1 814.2 Z" fill="#2b3584" fill-opacity="1" stroke="none"/>
   <path id="Path-11" d="M967.8 806.8 C967.8 806.8 985.8 765.5 994.3 769.7 1002.8 773.9 967.8 806.8 967.8 806.8 Z" fill="#2b3584" fill-opacity="1" stroke="none"/>
   <path id="Path-12" d="M861.8 679.1 L861.8 679 861.7 678.8 Z" fill="none" stroke="none"/>
   <path id="Path-13" d="M890.7 555.1 L865.3 628.5 C873.3 646.4 861.7 678.8 861.7 678.8 L861.8 679 869.6 674.6 C874.5 659.7 875.4 643.8 872.3 628.5 Z" fill="#2b3584" fill-opacity="1" stroke="none"/>
   <defs>
    <linearGradient id="linear-gradient-2" gradientUnits="userSpaceOnUse" x1="426.664" y1="849.233" x2="617.306" y2="849.233">
     <stop offset="0" stop-color="#46e4e8" stop-opacity="1"/>
     <stop offset="1" stop-color="#fb12fe" stop-opacity="1"/>
    </linearGradient>
   </defs>
   <path id="Path-14" d="M608.1 629.2 L573.4 551.7 C546 578.4 542 653.5 527.7 731.6 513.9 806.9 500.2 872.8 500.2 872.8 502 878.8 471.3 906.7 426.8 1131.2 425 1140.2 469.9 1152.4 473.4 1143.9 474.5 1141.2 519 1045.6 546.1 970.2 565.2 917.3 558.8 882.7 558.8 882.7 L617.4 703.4 C596.1 665.9 608.1 629.2 608.1 629.2 Z" fill-opacity="1" fill="url(#linear-gradient-2)" stroke="none"/>
   <path id="Path-15" d="M429 1119.7 C428.2 1123.5 427.5 1127.3 426.7 1131.1 424.9 1140.1 469.8 1152.3 473.3 1143.8 473.5 1143.3 475.4 1139.3 478.4 1132.6 460.9 1132.8 443 1129.6 429 1119.7 Z" fill="#1c110d" fill-opacity="1" stroke="none"/>
   <path id="Path-16" d="M577.1 560.1 L611 630.7 C611 630.7 599.7 662.5 617.3 703.4 L614.7 713.8 C614.7 713.8 588.4 673.7 606 630.7 Z" fill="#2b3584" fill-opacity="1" stroke="none"/>
   <path id="Path-17" d="M541.1 872.4 C541.1 872.4 529.4 876.6 519.9 869.2 510.4 861.8 509.3 901 522 901 534.7 901 547.4 872.4 544.2 872.4" fill="#2b3584" fill-opacity="1" stroke="none"/>
   <path id="Path-18" d="M795.2 644.1 L846 642.7 846 655.4 795.2 655.4 Z" fill="#ffffff" fill-opacity="1" stroke="none"/>
  </g>
 </g>
 <g id="Logo_1_-copy">
  <path id="Path-19" d="M693.8 682.5 L696.2 682.3 697.4 677.4 693.8 678.4 Z" fill="#ffffff" fill-opacity="1" stroke="none"/>
  <path id="Path-20" d="M778.6 702.1 L784.7 698.9 781.1 694 793.8 692.1 776.8 678.9 788.8 673.5 777.4 668 781.8 664.9 778.2 663.7 789.5 652.2 679.4 675.4 682.3 679.4 675.3 682.3 681.9 685.7 679.3 689.1 682.3 689.8 679.7 699.2 693.2 698.4 691.8 702.5 703.7 698.7 702.5 705.5 715 701.1 715.7 705.8 720.8 702 726.3 710.7 734.1 703.8 738.3 712.4 741 707.1 752 715.9 756.6 709.5 762.7 714.6 762.5 709.7 787.4 723.4 Z M694 686.7 L693.7 694.3 687.7 694 688.4 680.4 686.5 676.4 693.3 674.9 C693.3 674.9 699.4 673.4 703.4 672.6 702.3 677.1 701.3 681.6 700.6 686.3 697.8 686.4 694 686.7 694 686.7 Z M714.7 695 C710.5 694.9 706.4 694.8 702.2 694.7 702.7 687 703.6 679.6 705.5 672.1 707.6 671.7 708.6 671.5 710.8 671.1 709.3 677.2 708.4 683.3 707.7 689.6 L709.8 689.6 C710.5 683.2 711.4 677 712.9 670.8 715.1 670.4 716.2 670.2 718.4 669.7 716.5 678 715.3 686.3 714.7 695 Z M724.6 695.3 C724 692.1 723.7 690.6 723.1 687.8 722.8 690.7 722.6 692.2 722.3 695.3 720.1 695.2 719 695.2 716.8 695.1 717.5 686.4 718.7 677.8 720.7 669.2 723 668.8 724.1 668.5 726.5 668.1 726.7 671.1 726.9 672.7 727.2 676 727.8 672.6 728.2 670.9 728.9 667.7 731.3 667.3 732.5 667 734.9 666.6 732.9 676.2 731.4 685.9 730.3 695.6 728 695.4 726.8 695.3 724.6 695.3 Z M742.6 670.6 C741.5 676.8 740.5 683 739.7 689.2 L742.3 689.2 C742.6 687.1 742.7 686.1 743 684.1 745.6 684 746.9 684 749.7 683.9 749.1 688 748.6 692.2 748.1 696.3 743 696 737.9 695.8 732.7 695.6 733.8 685.7 735.3 675.8 737.4 666 742.6 665 747.8 664.1 753 663.1 752.2 667.7 751.5 672.4 750.7 677 747.9 677.2 746.6 677.3 744 677.6 744.5 674.6 744.7 673.1 745.2 670.3 744.2 670.3 743.7 670.4 742.6 670.6 Z M770.4 698.5 L761 697 C761 697 762.2 688.2 762.8 683.8 761.6 683.8 761 683.8 759.8 683.9 759.2 688.2 758.6 692.6 758 696.9 755 696.7 753.6 696.7 750.8 696.5 752.2 685.2 753.8 673.9 755.7 662.6 758.4 662.1 759.8 661.8 762.7 661.3 762.1 666.1 761.4 670.9 760.8 675.7 762.1 675.6 762.7 675.5 764 675.4 764.8 670.5 765.5 665.6 766.3 660.6 768.9 660.1 772.3 659.4 772.3 659.4 Z" fill="#ffffff" fill-opacity="1" stroke="none"/>
  <path id="Path-21" d="M686.3 659.5 C690.2 659 694 658.6 697.9 658.1 L697.9 662.9 C696.6 663.1 696 663.2 694.7 663.4 694.7 662.1 694.7 661.5 694.7 660.3 691.9 660.7 689.1 661 686.3 661.4 686.4 664.9 686.3 668.3 686.2 671.8 692.6 670.5 699 669.1 705.4 667.8 705.5 663 705.6 658.1 705.6 653.3 702 653.6 698.3 653.9 694.7 654.2 694.7 652.4 694.7 651.5 694.7 649.2 696 649.1 696.6 649.1 697.9 649.1 L697.9 652.2 C700.5 652 703.1 651.9 705.7 651.7 705.7 648.6 705.7 645.5 705.8 642.5 699.4 642.5 692.9 642.4 686.5 642.4 686.2 648.1 686.2 653.8 686.3 659.5 Z" fill="#ffffff" fill-opacity="1" stroke="none"/>
  <path id="Path-22" d="M718.5 642.5 C718.5 648.2 718.5 653.9 718.4 659.6 717.3 659.8 716.8 659.9 715.7 660.1 715.7 654.2 715.7 648.4 715.8 642.5 713 642.5 711.6 642.5 708.7 642.5 708.6 650.8 708.6 659 708.4 667.3 714 666.1 719.5 664.9 725.1 663.7 725.2 656.7 725.1 649.6 725.1 642.6 722.5 642.5 721.2 642.5 718.5 642.5 Z" fill="#ffffff" fill-opacity="1" stroke="none"/>
  <path id="Path-23" d="M772.3 642.7 L759.9 642.6 759.8 655.7 764.8 654.5 764.9 650 C764.9 650 766.1 649.8 766.9 649.7 767 650.8 766.9 654 766.9 654 L772.3 652.8 772.3 649.7 770.7 648.9 772.3 648 Z M766.9 648 L764.8 648.3 764.8 646 766.9 645.9 Z" fill="#ffffff" fill-opacity="1" stroke="none"/>
  <path id="Path-24" d="M744.2 659.2 L757.6 656.2 757.6 653 750.3 653.9 750.3 652.4 757.6 651.4 757.6 647.8 750.3 648.4 750.3 646.7 757.6 646.4 757.6 642.6 744.2 642.6 Z" fill="#ffffff" fill-opacity="1" stroke="none"/>
  <path id="Path-25" d="M727.7 663.1 C730.3 662.5 733.8 661.7 733.8 661.7 L733.8 654.5 742.1 653.4 742.2 642.6 C737.5 642.6 732.4 642.6 727.7 642.5 Z M733.8 647.5 L736.2 647.4 736.2 650.3 733.8 650.5 Z" fill="#ffffff" fill-opacity="1" stroke="none"/>
  <path id="Path-26" d="M712.1 632.2 L712.1 639.7 717.6 639.7 718.4 638.1 714.1 638.1 714.1 632.2 Z" fill="#ffffff" fill-opacity="1" stroke="none"/>
  <path id="Path-27" d="M732.7 638.2 L733.4 639.7 735.6 639.7 731.8 632.2 730.2 632.2 726.4 639.7 728.6 639.7 729.3 638.2 Z M732 636.7 L730 636.7 731 634.5 Z" fill="#ffffff" fill-opacity="1" stroke="none"/>
  <path id="Path-28" d="M746.4 632.2 L744.5 632.2 744.5 637.5 C744.5 638.4 744.6 638.8 745 639.2 745.4 639.6 745.9 639.7 746.7 639.7 L749.7 639.7 C750.5 639.7 751 639.5 751.4 639.2 751.8 638.8 751.9 638.3 751.9 637.5 L751.9 632.2 750 632.2 750 637.6 C750 638 749.9 638.2 749.3 638.2 L746.9 638.2 C746.4 638.2 746.2 638.1 746.2 637.6 Z" fill="#ffffff" fill-opacity="1" stroke="none"/>
  <path id="Path-29" d="M725.8 633.8 L725.8 632.2 719.2 632.2 719.2 639.7 725.8 639.7 725.8 638.1 721.1 638.1 721.1 636.8 723.9 636.8 724.7 635.1 721.1 635.2 721.1 633.8 Z" fill="#ffffff" fill-opacity="1" stroke="none"/>
  <path id="Path-30" d="M759.8 633.8 L759.8 632.2 753.2 632.2 753.2 639.7 759.8 639.7 759.8 638 755.1 638 755.1 636.8 758 636.8 758.7 635.1 755.1 635.1 755.1 633.8 Z" fill="#ffffff" fill-opacity="1" stroke="none"/>
  <path id="Path-31" d="M740.1 635.2 L739.3 636.8 741.5 636.8 741.5 637.5 C741.5 637.9 741.4 638.1 740.8 638.1 L738.4 638.1 C737.9 638.1 737.7 638 737.7 637.5 L737.7 634.4 C737.7 634 737.8 633.8 738.4 633.8 L740.8 633.8 C741.3 633.8 741.4 633.9 741.5 634.2 L743.4 634.2 C743.3 633.5 743.2 633 742.9 632.7 742.5 632.3 742 632.2 741.2 632.2 L738.2 632.2 C737.4 632.2 736.9 632.4 736.5 632.7 736.1 633.1 736 633.6 736 634.4 L736 637.5 C736 638.4 736.1 638.8 736.5 639.2 736.9 639.6 737.4 639.7 738.2 639.7 L741.2 639.7 C742 639.7 742.5 639.5 742.9 639.2 743.3 638.8 743.4 638.4 743.4 637.5 L743.4 635.2 Z" fill="#ffffff" fill-opacity="1" stroke="none"/>
  <path id="Path-32" d="M702.8 633.7 L710 633.7 710.8 632.1 702.9 632.1 703.3 632.7 Z" fill="#ffffff" fill-opacity="1" stroke="none"/>
  <path id="Path-33" d="M707.5 636.8 L708.3 635.2 700.8 635.2 700 636.8 Z" fill="#ffffff" fill-opacity="1" stroke="none"/>
  <path id="Path-34" d="M701.7 637.9 L701.3 638.9 700.5 639.5 708.5 639.6 709.3 638 Z" fill="#ffffff" fill-opacity="1" stroke="none"/>
 </g>
</svg>
