<svg xmlns="http://www.w3.org/2000/svg" width="1262.35" height="2195.18" viewBox="0 0 1262.35 2195.18"><defs><style>.a{fill:none;}.b{fill:#d46a6a;}.c{fill:#ffba35;}.d{fill:#e39434;}.e{fill:#ffd27a;}</style></defs><title>girl hair A</title><rect class="a" width="1262.35" height="2195.18"/><path class="b" d="M916.06,288.88s21.34-3.14,22.23,8.47c1.06,13.77-5.29,39.18-13.76,44.47,0,0-13.77,3.18-21.18-8.47Z"/><path class="c" d="M938.29,297.35s30.12-29.6,76.24-25.41c46.59,4.24,140.82,93.18,59.29,236.12,0,0,1.06-33.88-6.35-43.41,0,0,2.12,41.29-22.24,67.76,0,0-29.64-149.29-120.7-190.59Z"/><path class="d" d="M1063.18,394.1c7.56,39.43-.38,83.72-23.35,116.65,3.74,13.3,5.4,21.66,5.4,21.66,24.36-26.47,22.24-67.76,22.24-67.76,7.41,9.53,6.35,43.41,6.35,43.41q6-10.55,10.77-20.68C1085.88,455.54,1076.24,423,1063.18,394.1Z"/><path class="d" d="M954.17,321.71c0-24.36,10.59-37.06,29.28-47.63-28.1,6.51-45.16,23.27-45.16,23.27l-13.76,44.47c17.68,8,33,20.13,46.32,34.41C960.77,360.57,954.17,340.63,954.17,321.71Z"/><path class="e" d="M974.29,295.24s84.71-54,123.88,114.35C1098.17,409.59,1061.12,307.94,974.29,295.24Z"/><path class="b" d="M546.81,288.88s-21.34-3.14-22.23,8.47c-1.06,13.77,5.29,39.18,13.76,44.47,0,0,13.77,3.18,21.18-8.47Z"/><path class="c" d="M524.58,297.35s-30.12-29.6-76.24-25.41c-46.58,4.24-140.82,93.18-59.29,236.12,0,0-1.06-33.88,6.35-43.41,0,0-2.11,41.29,22.24,67.76,0,0,29.65-149.29,120.7-190.59Z"/><path class="d" d="M399.69,394.1c-7.55,39.43.38,83.72,23.35,116.65-3.74,13.3-5.4,21.66-5.4,21.66-24.35-26.47-22.24-67.76-22.24-67.76-7.41,9.53-6.35,43.41-6.35,43.41-4-7-7.58-13.92-10.77-20.68C377,455.54,386.63,423,399.69,394.1Z"/><path class="d" d="M508.7,321.71c0-24.36-10.59-37.06-29.28-47.63,28.1,6.51,45.16,23.27,45.16,23.27l13.76,44.47c-17.68,8-33,20.13-46.32,34.41C502.1,360.57,508.7,340.63,508.7,321.71Z"/><path class="e" d="M488.58,295.24s-84.71-54-123.88,114.35C364.7,409.59,401.76,307.94,488.58,295.24Z"/><path class="c" d="M922.76,237c-9.51-72.89-61.18-203.34-191.82-161.87C600.3,33.66,548.62,164.11,539.12,237c-9.14,70,20.11,117.53,20.11,117.53,10.59,73.06,73.06,96.35,73.06,96.35-11.64-8.47-22.23-34.94-22.23-34.94,16.94,27.53,50.82,13.77,50.82,13.77-80.47-33.89-63.53-166.24-63.53-166.24,68.61-7.47,104.53-41.78,121.46-64,3.74,20.4,15,51.19,49,64.1,0,0-15.79-28.3-18.84-56.89,18.84,21.44,54.07,50.08,115.55,56.77,0,0,16.94,132.35-63.53,166.24,0,0,33.88,13.76,50.82-13.77,0,0-10.59,26.47-22.24,34.94,0,0,62.47-23.29,73.06-96.35C902.64,354.53,931.9,307,922.76,237Z"/><path class="e" d="M580.41,201s48.71-95.29,139.76-96.35C720.17,104.65,597.35,60.18,580.41,201Z"/><path class="e" d="M786.88,107.82s82.59-15.88,86.82,74.12C873.7,181.94,843,127.94,786.88,107.82Z"/><path class="d" d="M721.23,171.47c-13.76,47.65-63.53,71.88-91.05,74s-31.77-23.29-31.77-23.29c-2.12,11.64-1.06,41.29-1.06,41.29,68.61-7.47,104.53-41.78,121.46-64,.07.34.14.69.2,1C718.31,187.09,721.23,171.47,721.23,171.47Z"/><path class="d" d="M739.23,177.82c3.18,9.53,9.75,28.88,9.75,28.88,18.84,21.44,54.07,50.08,115.55,56.77l-2.41-27.65C790.06,260.29,739.23,177.82,739.23,177.82Z"/><path class="d" d="M555.61,255.4c-3,14-8.31,35.7-14.7,46.7,6.19,32.73,18.32,52.43,18.32,52.43S549.83,296.39,555.61,255.4Z"/><path class="d" d="M905.47,237c7.41,59.29-2.83,117.53-2.83,117.53S919,328,923.42,285.35C911.29,278.36,905.47,237,905.47,237Z"/><path class="d" d="M801,429.71s25.69,10.43,43.52-5.06c2.37-2.82,4.83-5.74,7.3-8.71,14.11-16.94,16.59-33.88,16.59-33.88C851.47,426.53,801,429.71,801,429.71Z"/><path class="d" d="M598.41,391.59s3.81,16.17,12.32,26c-.43-1-.67-1.62-.67-1.62a38,38,0,0,0,2.33,3.39c2,2,3.86,4,5.61,5.87,17.79,14.7,42.88,4.51,42.88,4.51S620.65,432.88,598.41,391.59Z"/></svg>