<svg xmlns="http://www.w3.org/2000/svg" xmlns:xlink="http://www.w3.org/1999/xlink" width="1262.35" height="2195.18" viewBox="0 0 1262.35 2195.18"><defs><style>.a{fill:none;}.b{clip-path:url(#a);}.c{fill:#e87886;}.d{fill:#c75362;}.e{fill:#db5c6c;}.f{fill:#fff;}.g{fill:#588fb0;}</style><clipPath id="a"><path class="a" d="M908.65,1501.24c.35-129.78-9.4-376.91-44.48-515.72-1.68-.33-2.65-.57-2.65-.57s-35.47,33-39.85,24.79,34.51-39.37,34.51-41.31-2.92-3.4-2.92-3.4l-14.09,5.83s-28.19,35-34.5,27.7c-4.18-4.82,6.94-18.36,15.1-27.53-3.24.77-6.47,1.47-9.71,2.12a100.32,100.32,0,0,1-12.68,11.32c-6.74,4.76-13,5.13-13.61,2.43-.44-1.9,1.41-5.73,4.31-10.26q-7.79.92-15.49,1.43h0c-85.84,5.73-170.84-29.28-172.06-29.54-26.43,55.71-26.19,81-30.66,116.74h0c-6.93,81.19-.45,178.75,7.36,261.26,9.48,100,21.18,177.88,21.18,177.88C538.06,1641,567.7,1984.06,567.7,1984.06a51.45,51.45,0,0,0,13.82,8.86l.14.06c31.68,13.79,72.87-3.63,72.87-3.63,1.06-14.82,11.19-466.87,12-470.11,6.55-26.23,55.11-356.8,63.7-397.07l99,396c-25.41,128.11,9.18,199.41,22.24,238.23,15,44.71,49.76,238.24,49.76,238.24a112.63,112.63,0,0,0,16.72,7.84h0l2.18.78.21.07c42.31,14.39,73-6.59,73-6.59C965.82,1925.82,908.65,1501.24,908.65,1501.24Z"/></clipPath></defs><title>girl pant B</title><rect class="a" width="1262.35" height="2195.18"/><g class="b"><path class="c" d="M600.53,948.53s135.53,60.35,256.23,10.59c0,0,52.94,154.59,51.89,542.12,0,0,57.17,424.58,84.7,495.52,0,0-40.23,27.53-92.12-2.11,0,0-34.72-193.53-49.76-238.24-13.06-38.82-47.65-110.12-22.24-238.23,0,0-95.64-391.42-97.76-399.89s-57.88,372.71-64.94,401c-.81,3.24-10.94,455.29-12,470.11,0,0-55.06,23.3-86.83-5.29,0,0-29.64-343.06,30.71-479.65,0,0-11.7-77.88-21.18-177.88-8.76-92.55-15.86-204-4.23-290.12C577.87,1000.35,589,972.84,600.53,948.53Z"/><path class="d" d="M731.47,1118.29l24-12.7s1.41-118.59,0-122.83-25.41,0-25.41,0Z"/><path class="e" d="M615.45,1511.68c5.23,2.11,14,3.73,25.47-1.25a2.34,2.34,0,0,1,2.87,3.45c-6.94,10.28-20.76,25.1-31.4.89A2.35,2.35,0,0,1,615.45,1511.68Z"/><path class="e" d="M863.16,1526.74a57.74,57.74,0,0,0,30.59.33,2.85,2.85,0,0,1,3,4.49c-6.63,8.64-20.07,19.85-36.58-.29A2.84,2.84,0,0,1,863.16,1526.74Z"/><path class="e" d="M587,1640.16c11.14-83.43,26.26-131.14,26.41-131.61a1.87,1.87,0,0,0,.08-.85c-27.89-234.32-26.82-456.35-26.8-458.57a2,2,0,0,0-2-2h0a2,2,0,0,0-2,2c0,2.22-1.09,224.22,26.78,458.65-1.52,4.91-15.78,52.18-26.41,131.75-10.25,76.69-19.12,199.9-3.52,352.49,1.39.67,2.79,1.29,4.21,1.84C567.83,1840.66,576.71,1717,587,1640.16Z"/><path class="e" d="M844.55,1579c.94-40.3,6.67-61.11,6.73-61.32a2.08,2.08,0,0,0,0-1.05c-13.95-53-91-403.68-91.75-407.22a2,2,0,0,0-3.91.86c.78,3.53,77.33,352.08,91.65,406.86-.93,3.55-5.83,23.92-6.72,61.55-.89,37.47,2.27,99.79,22.38,183.86,27.41,114.67,46.86,202.54,55,240,1.49.55,3,1,4.43,1.52-7.83-36-27.53-125.24-55.55-242.42C846.85,1678.06,843.69,1616.18,844.55,1579Z"/><path class="f" d="M823.23,971.47l-5.64,4.24c11.23,59.88,42.91,83.79,63,93.11-.51-3.15-1-6.23-1.52-9.24C831.24,1032,823.23,971.47,823.23,971.47Z"/><path class="f" d="M625.59,975.71l-7.06-4.24c-5.87,46.92-32,71.5-47.58,82.19-.39,3.82-.75,7.7-1.08,11.61C618.17,1032.5,625.59,975.71,625.59,975.71Z"/><path class="e" d="M835.94,1515c-24-70.59-90.35-391.06-90.35-391.06l55.06-48-69.89,42-.7,3.53c2.12,8.47,99.17,396.71,99.17,396.71-25.41,128.11,9.18,199.41,22.24,238.23C807.7,1630.76,835.94,1515,835.94,1515Z"/><path class="f" d="M863.38,982.68c-4-16-6.62-23.56-6.62-23.56-120.7,49.76-256.23-10.59-256.23-10.59-3.29,6.93-6.54,14.14-9.63,21.72C624,985.51,742.94,1032.35,863.38,982.68Z"/><path class="g" d="M713.13,976.75c-.64,8.76-1.86,17.42-3,26.1a341,341,0,0,0,62.47,1.14V978.07A348,348,0,0,1,713.13,976.75Z"/></g><path class="f" d="M889.59,1935.24s42.35,16.47,86.11-9c0,0,7.06,1,8.47,9.42l10.35,47.5a14.91,14.91,0,0,1-8.76,16.94c-13.41,5.63-38.84,11.58-75.54.34-5.63-1.72-11.58-7.84-13.24-13.5l-10.22-34.81S884.41,1939.94,889.59,1935.24Z"/><path class="f" d="M563.47,1923s36,21.18,93.88,2.12c0,0,4.94,2.12,4.94,9.88,0,0,0,48-2.82,52.24-2.64,4-52.17,24-89.76-.57a18.11,18.11,0,0,1-8.13-14.14l-2-34.37a24.45,24.45,0,0,1,2.31-11.85Z"/></svg>