<svg xmlns="http://www.w3.org/2000/svg" width="1262.35" height="2195.18" viewBox="0 0 1262.35 2195.18"><defs><style>.a{fill:none;}.b{fill:#8d3c49;}.c{fill:#6b2e38;}.d{fill:#ba5062;}</style></defs><title>girl hair C</title><rect class="a" width="1262.35" height="2195.18"/><path class="b" d="M595.23,315.35s61.42-47.64,78.36-130.23c0,0,12.7,52.94,58.23,66.7,0,0-13.76-43.41-12.7-61.41,0,0,38.11,64.59,124.94,62.47,0,0,14.82,70.94-11.65,97.41,0,0,31.76-10.58,37.06-36,0,0,40.64-21.37,30.7,34.95-6.35,36-44.47,40.23-44.47,40.23s-2.11,24.35-48.7,58.24c0,0,29.65,29.64,55.06,30.7,0,0-10.59-34.94-5.3-46.59,0,0,30.71,28.59,51.89,29.65,0,0-12.71-31.76-11.65-54,0,0,23.29,4.24,38.12,5.29-2.12-2.11-15.89-6.35-9.53-59.29S956.29,68.65,731.82,68.65s-192.7,244.59-192.7,244.59,23.29,84.7-12.71,116.47c0,0,41.29-5.3,48.71-23.3,0,0-5.3,43.41-19.06,54,0,0,41.29-4.23,54-31.76,0,0,10.59,30.7,8.47,40.23,0,0,21.17-15.88,24.35-28.59,0,0-29.65-25.41-37.06-50.82,0,0-57.17-12.71-46.59-62.47C567.47,288.31,595.23,315.35,595.23,315.35Z"/><path class="c" d="M605.82,389.47S548.65,376.76,559.23,327c7.78-36.54,33-14.46,35.75-11.89,13.91-26.19,20.46-55.9,24.2-85.69-5.29,15.54-12.66,30.36-25.59,41.93a107.75,107.75,0,0,1-38.13,23.56c2.38,34.5,4.63,68.67-3.87,103.44-4,12.93-12,24.54-23.87,31.17,7.07-1.08,40.77-7,47.4-23.11,0,0-5.3,43.41-19.06,54,0,0,41.29-4.23,54-31.76,0,0,10.59,30.7,8.47,40.23,0,0,21.17-15.88,24.35-28.59C642.88,440.29,613.23,414.88,605.82,389.47Z"/><path class="c" d="M673,155a290.19,290.19,0,0,0,.19,32.18c.15-.68.3-1.35.44-2,0,0,10.7,44.57,47.64,62.55C695,225.55,680.16,188.72,673,155Z"/><path class="c" d="M714.49,158.69a124.73,124.73,0,0,0,4.57,34.1c0-.83,0-1.63.06-2.38,0,0,29.39,49.79,95.33,60.5a154.58,154.58,0,0,1-33.86-14.56C750,219.36,727.36,190.81,714.49,158.69Z"/><path class="c" d="M933.16,412.61c-35.1-31.61-23.21-76-22.6-116.14C896,286,885.91,267.09,878.64,248.58c-.12,21.88-2.42,43.77-8,65.16,6.54-3,38.49-15.14,29.56,35.5-6.36,36-44.48,40.23-44.48,40.23s-2.11,24.35-48.7,58.24c0,0,29.65,29.64,55.06,30.7,0,0-10.59-34.94-5.3-46.59,0,0,30.71,28.59,51.89,29.65,0,0-12.71-31.76-11.65-54C897,407.47,918.34,411.35,933.16,412.61Z"/><path class="d" d="M582.53,141.71s27.53,34.94,82.59,41.29c0,0-42.36,8.47-93.18-16.94Z"/><path class="d" d="M738.18,180.88S837.7,166.06,871.59,129c0,0,16.94,21.18,20.11,30.71C891.7,159.71,814.41,190.41,738.18,180.88Z"/></svg>