<svg xmlns="http://www.w3.org/2000/svg" width="1262.35" height="2195.18" viewBox="0 0 1262.35 2195.18"><defs><style>.a{fill:#12807c;}.b{fill:#19b3ad;}.c{fill:#5cebe5;}.d{fill:none;}</style></defs><title>girl hair F</title><path class="a" d="M878.46,379.76a84.92,84.92,0,0,1-12.31,6.79,99,99,0,0,1-10.45,4s-19.41,51.18-100.23,87.06v33.65s30.81,9.31,61.18,16.94c28,7,53.37,12.2,58.11,16.94,2.91,2.91,9.19,13.16,16.6,26.18C878.58,508.79,877.92,443.58,878.46,379.76Z"/><path class="a" d="M586.44,546.26c8.58-4,21-8.34,39.15-12.44L699,514.06l-1.77-39.88s-80.11-37.77-92.11-86.47a47.59,47.59,0,0,1-19.45-5.59C589.49,436.78,591,491.83,586.44,546.26Z"/><path class="b" d="M928,520.88c-2.32-60-4.51-124.76-4.51-155.06,0-93.17,22.59-300.7-185.29-300.35,0,0-154.28-13.44-192.52,149.24a358.57,358.57,0,0,0-9.25,105.94c16.94,273.88-15.29,340.23-15.29,340.23l19.76-7.06s8-64,26.82-93.17c0,0,1.68-6.46,18.74-14.39,4.55-54.43,3-109.48-.77-164.14A45.9,45.9,0,0,1,569,367.05c-4.77-7.1-8.47-16.64-9.74-29.46-4.23-42.83,35.18-22.72,35.18-22.72s1.06-63.87,16.12-98.69c1.77-4.1-.47,38.11,6.59,64.94,0,0,108.7-36.71,231.53-11.3l.47-60.7s19.76,38.12,17.41,108.23c0,0,20.23-19.29,32.94,6.12,9.8,19.59.87,41.69-21,56.29-.54,63.82.12,129,12.9,191.54,17.74,31.2,42,78.29,42,78.29S930.59,588.22,928,520.88Z"/><path class="c" d="M803.82,256.06s-.82-94-12.7-142.94c0,0-2.47,55.06-9.53,139.06Z"/><path class="c" d="M674.65,100.41S653.47,151.24,681,257.12l-12.71,5.29S642.88,150.18,674.65,100.41Z"/><path class="a" d="M839.47,254.29c-9.81-1.63-19.47-2.88-29-3.81-3.06-22.75-13.4-102.07-13.4-102.07,1.21,13.35.86,82,.74,101a473.84,473.84,0,0,0-55.37-.58l-11.73-65.12-2,66a499.89,499.89,0,0,0-56.17,7.45c-6.27-19.26-14.49-83.31-14.49-83.31-3,17.47-.37,70.93.47,86.22-22.56,5-35.77,9.78-35.77,9.78-7.76-31.76-14.11-107.29-14.11-107.29l-1.15,23c1.09,6.67,3.12,70.93,9.62,95.62,0,0,108.7-36.71,231.53-11.3L850,201.71c-.63-21.54-7-61.77-7-61.77C847.23,165.35,839.47,254.29,839.47,254.29Z"/><path class="c" d="M906.53,288.18C902.29,202.06,867,155.47,867,155.47,894.09,193.2,899.3,276,899.89,324.39a37.62,37.62,0,0,1-.26,32.81c-.09,2.82-.16,4.39-.16,4.39s-4.24,176.47-7.06,204.7c-.18,1.82-.31,3.9-.39,6.18,5.21,9.18,10.93,19.64,16.41,29.83C900.53,499.73,909.64,351.54,906.53,288.18Z"/><path class="b" d="M612.79,537c3.92-1.07,8.17-2.13,12.8-3.18l1.44-.38c-3.35-43.09-9.92-86.36-12-99.82C616.82,451.54,614.43,505.47,612.79,537Z"/><path class="b" d="M833.12,427.94s-8.65,69.13-12.41,101.25c4.64,1.15,9.19,2.25,13.55,3.3C832.14,501.44,833.12,427.94,833.12,427.94Z"/><path class="c" d="M567.7,560.65c-.34.54-.69,1.09-1,1.65C567,561.74,567.36,561.19,567.7,560.65Z"/><path class="c" d="M565.35,564.58c-.31.55-.61,1.1-.91,1.66C564.74,565.68,565,565.13,565.35,564.58Z"/><path class="c" d="M567.72,560.6l0,0Z"/><path class="c" d="M566.38,562.79l-.75,1.3Z"/><path class="c" d="M567.77,560.46c0,.06,0,.1,0,.14S567.75,560.52,567.77,560.46Z"/><path class="c" d="M578.49,550.46h0l-1.71,1.08Z"/><path class="c" d="M567.87,560.22l-.1.23Z"/><path class="c" d="M564.37,566.37c-.34.65-.68,1.31-1,2C563.69,567.68,564,567,564.37,566.37Z"/><path class="c" d="M568,559.88c-.06.13-.12.23-.16.33Z"/><path class="c" d="M559.38,577.2c.91-2.26,1.87-4.45,2.86-6.55-1,2.1-2,4.29-2.86,6.55Z"/><path class="c" d="M568,559.88c.7-1.36,2.81-4.43,8.73-8.33C570.84,555.45,568.73,558.52,568,559.88Z"/><path class="c" d="M563.26,568.53c-.3.61-.6,1.22-.89,1.84C562.66,569.75,563,569.14,563.26,568.53Z"/><path class="c" d="M555,307.94c-9.88-91.76,48-180.7,48-180.7-40.94,28.23-54.88,122.82-54.88,122.82-9.89,28.23,6.88,127.76,11.11,214.59,1.36,27.73,3.94,59,2,89.3-.51,7.86-1.13,15.65-1.85,23.25.91-2.26,1.87-4.45,2.86-6.55,0-.09.09-.18.13-.28.29-.62.59-1.23.89-1.84,0-.06.07-.12.1-.19.33-.66.67-1.32,1-2,0,0,0-.08.07-.13.3-.56.6-1.11.91-1.66.09-.16.18-.33.28-.49l.75-1.3.29-.49c.34-.56.69-1.11,1-1.65l0,0h0s0-.08,0-.14h0l.1-.23h0c0-.1.1-.2.16-.33h0c.7-1.36,2.81-4.43,8.73-8.33h0l1.71-1.08c-.93-26.28-2.91-53.75-5.39-80.9C567.53,408.52,559.42,349,555,307.94Z"/><rect class="d" width="1262.35" height="2195.18"/></svg>