<?xml version="1.0" encoding="utf-8"?>
<!-- Generator: Adobe Illustrator 24.0.2, SVG Export Plug-In . SVG Version: 6.00 Build 0)  -->
<svg version="1.1" id="Layer_1" xmlns="http://www.w3.org/2000/svg" xmlns:xlink="http://www.w3.org/1999/xlink" x="0px" y="0px"
	 viewBox="0 0 1262.3 2195.2" style="enable-background:new 0 0 1262.3 2195.2;" xml:space="preserve">
<style type="text/css">
	.st0{fill:none;}
	.st1{clip-path:url(#SVGID_2_);}
	.st2{fill:#FFFFFF;}
	.st3{fill:#3B7A91;}
	.st4{fill:#2D5C6E;}
	.st5{fill:#D69C62;}
	.st6{fill:#DBCCC9;}
	.st7{fill:#DB4D5B;}
</style>
<title>girl shirt I</title>
<rect class="st0" width="1262.3" height="2195.2"/>
<g>
	<defs>
		<path id="SVGID_1_" d="M858.5,678.5l0.2,0.4h0.1l7.8-4.4l18,37.9c4.9,16.2,14.8,12,14.8,12l7.5,11.2l1,1.5l5.6,8.4
			c0,0,37.4-12.7,55.1-41.7l-6-10.2l-2.1-3.5l0,0l-4.3-7.3c1.7-2.3,2.5-3.7,2.5-3.7c7.1-21.2-26.8-36.7-33.9-53.7
			s-37.8-76.4-37.8-76.4c-0.9-1.5-1.9-2.9-3.1-4.1c-0.1-0.1-0.3-0.2-0.4-0.3l-0.2-0.1l-0.4-0.3l-0.2-0.1l-0.6-0.3h-0.1
			c-0.3-0.1-0.5-0.3-0.8-0.4l-0.3-0.1l-0.7-0.3L880,543c-0.3-0.1-0.6-0.3-0.9-0.4l-0.2-0.1l-1.2-0.5l-0.3-0.1l-1-0.4l-0.4-0.2
			l-1.2-0.5l-0.3-0.1l-1.5-0.6l-0.3-0.1l-1.3-0.5l-0.5-0.2l-1.4-0.5l-0.4-0.1l-1.8-0.7L867,538l-1.7-0.6l-0.5-0.2l-1.6-0.6l-0.4-0.1
			l-2.1-0.7l0,0l-2.1-0.7l-0.5-0.2l-1.7-0.6l-0.5-0.2l-4.6-1.5l-0.6-0.2l-1.9-0.6l-0.6-0.2l-5-1.6l-0.5-0.2l-2.1-0.7L840,529
			l-2.5-0.8l0,0l-2.7-0.8l-0.5-0.1l-2.2-0.7l-0.6-0.2l-2.5-0.8l-0.1,0l-2.8-0.8l-0.3-0.1l-2.4-0.7l-0.6-0.2l-2.2-0.7l-0.5-0.2
			l-2.6-0.8l-0.6-0.2l-2.1-0.6l-0.7-0.2l-2.1-0.6l-0.6-0.2l-2.6-0.8l-0.3-0.1l-2.3-0.7l-0.7-0.2l-1.9-0.6l-0.7-0.2l-2.4-0.7
			l-0.4-0.1l-2-0.6l-1-0.3l-1.5-0.5l-0.8-0.3l-1.8-0.5l-1-0.3l-1.8-0.5l-0.9-0.3l-1.3-0.4l-1.2-0.3l-0.8-0.2l-2.6-0.8l-0.5-0.1
			l-1.4-0.4l-0.6-0.2l-1.2-0.4c0-0.1,0.1-0.1,0.1-0.2l-12.6-14.3c-1.8-2.9-5.6-3.8-8.4-2c-0.5,0.3-0.9,0.6-1.2,1
			c-4.1,4.3-9,7.9-14.3,10.6c-6.6,3.4-11,9.9-11.8,17.2c-0.2,1.8-0.4,3.8-0.6,5.8c-0.5,5.5-1.2,11.5-2,17.2c-2-4.4-3.2-11.1-4-17.5
			c-0.1-0.9-0.2-1.8-0.3-2.8l0,0c-0.1-0.9-0.2-1.8-0.3-2.7c0-0.3-0.1-0.5-0.1-0.7c-0.9-7.1-5.2-13.3-11.5-16.5
			c-5.5-2.7-10.7-6.2-15.2-10.4c-3-2.8-7.7-2.6-10.4,0.4c-0.3,0.4-0.6,0.7-0.9,1.2l-1.9,3.1l-3.3,5.2l-5.8,9.3l0.2,0.2l-99.5,31.8
			c-2.1,1.5-4,3.2-5.7,5.1C546.8,572,540.2,632,540.2,632s-6.3,77-17,84c-15.8,10.4-9.5,23.1-4.3,29.9l-1.7,11l-0.8,4.9l-1.5,10
			c0,0,18.9,28.4,70.7,22.9l4.2-22.9c5.2-0.2,10-3,12.8-7.4c5.3-8.5,9-50.6,9-50.6l2.6-10.4c7.1,5.6,47.3,107.3,48.7,115.8
			c1.2,6.9-43.6,80.8-60.2,107.9c-1.6,2.7-2.8,5.6-3.3,8.6l0,0c-0.1,0.6-0.2,1.2-0.3,1.8c0,0,0,0.1,0,0.1c-0.1,0.6-0.1,1.2-0.1,1.8
			c0,0,0,0.1,0,0.1c0,0.5,0,1.1,0,1.6c0,0.1,0,0.2,0,0.3c0,0.6,0.1,1.1,0.1,1.7c0,0,0,0.1,0,0.1c0.1,0.5,0.1,1,0.2,1.5
			c0,0.1,0,0.3,0.1,0.4c0.1,0.5,0.3,1.1,0.4,1.6c0.4,1.5,1,2.7,1.7,3c75.5,29.2,141.4,31,187.1,26c6.4-9.4,13.6-18.2,21.3-26.6
			c1.9-1.9,30.1-16,30.1-16l-7.3-14.1c0,0-42.8,27.2-45.2,18s27.7-25.8,35.5-30.6c6.7-4.2,14.1-6.2,17.3-4.8
			c-22.3-68.4-19.3-73.2-19.3-73.2C826.1,801.3,858.5,678.5,858.5,678.5z"/>
	</defs>
	<clipPath id="SVGID_2_">
		<use xlink:href="#SVGID_1_"  style="overflow:visible;"/>
	</clipPath>
	<g class="st1">
		<path class="st2" d="M899.5,724.4l14.1,21.2c0,0,37.4-12.7,55.1-41.7l-14.1-24L899.5,724.4z"/>
		<path class="st3" d="M887.1,549.2c0,0,30.8,59.4,37.8,76.4s40.9,32.5,33.9,53.7c0,0-19.8,32.5-59.3,45.2c0,0-9.9,4.2-14.8-12
			l-18-37.9L843,653.8l19.8-81.9L887.1,549.2z"/>
		<path class="st4" d="M925.5,666c0.2,4.5,0.8,9.6,4.4,12.3c3.3,2.4,8,1.9,11.5,0c2.9-1.5,5.5-4.1,5.9-7.3c0.5-3.9-22.3-36-22.3-36
			C922.6,643.9,925.1,656.6,925.5,666z"/>
		<path class="st5" d="M963.4,695.1l-2.9-4.9c-14.2,23.7-41.5,37.1-55.4,42.7l2.8,4.3C922.3,731.3,948.5,718.1,963.4,695.1z"/>
		<path class="st2" d="M519.2,744.2l-4.2,27.5c0,0,18.9,28.4,70.7,22.9l5.4-29.3L519.2,744.2z"/>
		<path class="st3" d="M611.7,713.7c0,0-3.7,42.2-9,50.6s-14.8,7.4-14.8,7.4s-46.6-1.1-64.6-21.2c0,0-22.6-19.8,0-34.6
			c10.7-7,17-84,17-84s6.6-60,30.3-80.3l39.6,76.1L611.7,713.7z"/>
		<path class="st2" d="M604.4,631.8c-2.3,9.1-7.9,40,9.9,71.5c7.1,5.6,47.3,107.3,48.7,115.8c1.2,6.9-43.6,80.8-60.2,107.9
			c-3.7,5.9-4.7,13-2.8,19.7c0.4,1.5,1,2.7,1.7,3c144.6,56,254.1,11.3,254.1,11.3c1.4,0,1.2-11.3,0-14.8
			c-3.7-11-10.4-29.6-13.4-38.8c-24.4-74-21.2-79.1-21.2-79.1c4.9-26.8,37.4-149.7,37.4-149.7l0.2,0.4l-0.1-0.2
			c16.4-33.7,6.9-50.3,6.9-50.3l0.1-0.3C732.7,618.9,631.2,628.7,604.4,631.8z"/>
		<path class="st3" d="M855.3,944.9c-103.7,35.8-215.9,1.5-254.9-12.9c-1.7,4.7-1.8,9.8-0.5,14.6c0.4,1.5,1,2.7,1.7,3
			c144.6,56,254.1,11.3,254.1,11.3c1.4,0,1.2-11.3,0-14.8L855.3,944.9z"/>
		<path class="st6" d="M626.4,716.7c5.3,12.9,33.9,82.1,40,98.8c0.2,0.5,0.7,0.7,1.2,0.5c0.2-0.1,0.4-0.2,0.5-0.4
			c5.1-9.7,30.1-52.1,73.5-52.1c40,0,67,35.2,74.3,48c0.6,1.1,1.9,1.4,3,0.8c0.5-0.3,0.9-0.7,1-1.3c5.6-18.7,22.3-84.5,28.2-107.3
			c0.3-1.2-0.4-2.4-1.6-2.7c-0.7-0.2-1.4,0-1.9,0.4c-19.3,15.7-93.8,64.8-217.1,14c-0.5-0.2-1,0-1.2,0.5
			C626.4,716.3,626.3,716.5,626.4,716.7z"/>
		<path class="st2" d="M865.7,628.2l22-73.2l-0.6-5.8c-0.9-1.5-1.9-2.9-3.1-4.1c-8.5-7.1-126.3-40.9-126.3-40.9l-1.4,6.4
			c-1.4,8.5-26.9,35.5-26.9,35.5c-14.8-10.6-33.8-37.6-33.8-37.6l-119.3,38.1c-2.1,1.5-4,3.2-5.7,5.1l34.7,77.5c0,0-0.3,0.9-0.7,2.7
			C631.2,628.7,732.7,618.9,865.7,628.2z"/>
		<path class="st7" d="M730.4,655.7L730.4,655.7z"/>
		<path class="st7" d="M768.3,631.9L768.3,631.9z"/>
		<polygon class="st0" points="858.8,678.9 858.8,678.9 858.7,678.7 		"/>
		<path class="st4" d="M574.1,559.9l33.9,70.6c0,0-11.3,31.8,6.3,72.7l-2.6,10.4c0,0-26.3-40.1-8.7-83.1L574.1,559.9z"/>
		<path class="st5" d="M588.2,778.7L588.2,778.7c-30.3,0.3-53.6-6.9-69.3-21.2c-0.4-0.4-1-0.6-1.6-0.6l-0.8,5.2
			c16.3,14.4,39.8,21.7,70,21.7h0.8L588.2,778.7L588.2,778.7z"/>
		<path class="st4" d="M526.2,717.8c-0.9,0.2-1.5,1-1.4,1.9c0.1,0.6,0.6,1.2,1.2,1.3c11.4,3.9,32,9.3,36.1-0.8
			c5.6-14.1,3.5-26.8-6.4-19.8C547.7,706.1,537,715.5,526.2,717.8z"/>
		<path class="st4" d="M887.7,555l-25.4,73.4c8,17.9-3.6,50.3-3.6,50.3l0.1,0.2l7.8-4.4c4.9-14.9,5.8-30.8,2.7-46.1L887.7,555z"/>
		<path class="st3" d="M680.8,513.1l-104.6,33.4c-2.1,1.5-4,3.2-5.7,5.1l4.8,10.8L690.5,525L680.8,513.1z"/>
		<path class="st3" d="M887.1,549.2c-0.9-1.5-1.9-2.9-3.1-4.1c-6.4-5.4-76-26.2-109.1-35.9l-9.2,12.6l119.7,40.9l2.3-7.7
			L887.1,549.2z"/>
		<path class="st5" d="M697.8,495.5c4.6,4.2,9.7,7.7,15.3,10.4c6.6,3.3,11.1,9.8,11.7,17.2c0.7,7.8,2,17.3,4.6,23
			c0,0-36.6-9.4-53.8-31.5l11-17.6c2.2-3.4,6.7-4.5,10.2-2.3C697.1,494.9,697.4,495.2,697.8,495.5z"/>
		<path class="st5" d="M757.9,495.3c-4.1,4.3-9,7.9-14.3,10.6c-6.6,3.4-11,9.9-11.8,17.2c-0.6,6.7-1.5,15.1-2.5,22.9
			c0,0,34-10.1,50.9-35.5l-12.6-14.3c-1.8-2.9-5.6-3.8-8.4-2C758.7,494.6,758.2,494.9,757.9,495.3z"/>
		<path class="st2" d="M724.7,523.1c0-0.3-0.1-0.5-0.1-0.7c-17.4-3-32.8-15.5-40-22.3l-3.3,5.2c8.3,7.7,24.8,20.6,44,23.3
			C725,526.7,724.8,524.8,724.7,523.1z"/>
		<path class="st2" d="M731.2,528.9c17-0.3,33.5-14,43.5-24.5l-4-4.5c-9.2,9.6-24.1,22.4-38.9,23c0,0.1,0,0.2,0,0.3
			C731.6,524.9,731.4,526.9,731.2,528.9z"/>
		<g>
			<path class="st5" d="M629.3,693.5c-1-0.5-1.5-1.9-1.5-4.3c0-1,0.1-2.1,0.3-3.4c0.9-7.4,3.3-17.9,7.1-31.4
				c1.4-4.8,2.3-8.7,2.9-11.5c0.4-2.3,0.7-4.6,1.1-6.9c0.5-3.3,1-5.4,1.5-6.3c0.3-0.6,0.7-0.8,1.2-0.8c0.4,0,0.8,0.2,1.3,0.5
				c1.2,0.7,3.1,2.7,5.7,5.9c3.7,6.6,8.2,15.4,13.5,26.3c2.8,5.8,5.2,11.1,7.2,15.9c1.7,4,2.5,6.6,2.5,7.8c0,0.3,0,0.5-0.1,0.7
				c-2.7,2.1-4.7,3.1-6.1,3.1c-0.5,0-0.9-0.1-1.2-0.4c-1.1-1.1-2.6-3.6-4.5-7.5c-6.6,0-13.1,1.4-19.7,4.3c-0.4,1.8-0.7,3.7-0.8,5.5
				c-0.9,1-2.5,1.7-4.9,2.1C633,693.1,631.1,693.3,629.3,693.5z M641.7,673.6c1.5,0,3.8-0.3,6.7-0.9c3-0.6,5.2-0.9,6.8-0.9
				c0.1-0.7-1.4-4.1-4.7-10.4c-3.2-6-4.9-9.3-5.3-9.6c-0.5,0.8-1.4,4.4-2.6,10.8c-0.5,2.5-0.8,4.9-1.1,7.1c-0.1,0.9-0.2,1.7-0.2,2.3
				C641.4,672.8,641.5,673.4,641.7,673.6z"/>
			<path class="st5" d="M682.3,693.4c-1.1-0.4-2.2-0.8-3.3-1.2c-1.3-0.5-2.2-1.3-2.8-2.2c0.2-5.2,0.9-14.2,2.1-26.8
				c1.1-11.4,1.7-20.3,1.7-26.8c0.6-1.3,3.6-2.3,9-3c1.8-0.2,3.6-0.3,5.5-0.3c3.6,0,7.2,0.4,10.8,1.3c5.5,1.3,9.7,3.9,12.9,7.8
				c1.4,1.7,2,3.8,2,6.2c0,3.1-1.1,6.9-3.3,11.2c-0.9,1.1-3.8,3.9-8.8,8.4l-4.9,4.5c-1.4,1.2-2.1,1.9-2.2,2c1.9,0.7,3.8,1.5,5.7,2.2
				c2,1,3.5,2.5,4.6,4.4c-0.4,1.2-1.2,2.8-2.4,4.8l-2.9,4.8c-2.2,0-5.2-1.4-9-4.2c-4.2-3.1-7.3-4.9-9.3-5.4
				c-0.5,1.2-0.9,3.4-1.1,6.4c-0.2,2.7-0.7,4.6-1.5,5.7C684.4,693.1,683.5,693.2,682.3,693.4z M689.2,665.8c0.1,0,0.3,0,0.5,0
				c1.1,0,2.9-0.7,5.2-2.1c6.3-3.8,10.4-8,12.4-12.6c0.3-0.7,0.4-1.3,0.4-1.9c0-1.4-0.8-2.4-2.4-3.2c-2.6-0.8-5.2-1.3-7.9-1.4
				c-2.6-0.1-5.1,0.1-7.3,0.4c-0.3,0.4-0.7,3.6-1,9.5c-0.1,2.4-0.2,4.7-0.2,6.8C688.8,663.6,688.9,665.1,689.2,665.8z"/>
			<path class="st5" d="M749.6,692.8c-1.4-0.3-3.6-0.4-6.5-0.4c-3,0-6,0-9.1,0c-7.8,0-12-0.8-12.7-2.5c0-3.4,0.4-7.8,1.1-13.3
				c0.7-4.4,1.3-8.9,2-13.3c0.8-6.4,1.3-11.6,1.3-15.7c0-3.6-0.5-6.5-1.4-8.9c0-1.5,1.8-2.7,5.4-3.8c2.2-0.6,4.5-1.1,7-1.4
				c1.8-0.2,3.5-0.3,5.2-0.3c1.3,0,2.6,0.1,3.9,0.2c2.9,0.3,4.7,1,5.3,2.1c0,4-0.2,6.6-0.7,7.8c-0.5,1.2-1.5,2-3.1,2.3
				c-2.3,0.4-4.7,0.7-7,1.1c-0.9,1-1.4,4-1.4,8.9l0,10.4c0.8,0.3,2,0.5,3.6,0.6c1.5,0.1,2.6,0.3,3.2,0.7c0,0.1,0.4,1.2,1,3.3
				c0.3,1,0.5,2.3,0.5,3.9c-1.5,0.8-2.9,1.1-4.5,1.1c-0.9,0-1.8-0.1-2.7-0.4c-0.4-0.1-0.8-0.1-1.1-0.1c-1.7,0-2.6,1.5-2.6,4.5
				c0.7,0.5,1.8,0.8,3.5,0.8c0.5,0,1.1,0,1.7-0.1c2.5-0.2,5-0.3,7.3-0.3c2.3,0,4.1,0.5,5.4,1.3c0.6,0.4,0.8,1,0.8,1.8
				c0,1-0.4,2.3-1.3,3.9c-0.6,2.3-0.9,3.6-1.1,3.9C751.9,692.2,750.9,692.8,749.6,692.8z"/>
			<path class="st5" d="M767,693.3c-1.5-0.3-2.9-0.5-4.4-0.7c-1.7-0.5-2.8-1.5-3.3-3l2.4-26.3c0.8-8.8,1.1-17.5,0.9-25.9
				c0.7-1.2,1.6-2.2,2.7-3.1c1.3,0.7,4.3,4.6,8.8,11.7l5.4,8.5c1.8,2.8,3.3,4.9,4.6,6.4h0.7c1.9-3.2,2.8-6.2,2.8-9.2
				c0-0.6,0-1.1-0.1-1.7c-0.3-2.5-0.4-4.8-0.4-7.1c0-0.9,0-1.9,0.1-2.8c1.8-0.4,3.1-1,3.8-1.8c0.4-0.4,1.1-0.6,2.1-0.6
				c0.9,0,2,0.2,3.3,0.5c0.8,0.8,1.1,4,1.1,9.3c-0.1,11.6-1,23.1-2.8,34.4c-0.8,5.1-1.6,7.9-2.3,8.3c-1.2,0-4.3-3.6-9.4-10.9
				c-1.9-2.9-4.9-7.3-8.8-13c-1,0-1.8,3.9-2.6,11.6c-0.4,4.4-0.7,7-0.8,7.8c-0.5,3.7-1,6.1-1.7,7.3
				C768.2,693.2,767.5,693.2,767,693.3z"/>
			<path class="st5" d="M802.4,693.5c-1-0.5-1.5-1.9-1.5-4.3c0-1,0.1-2.1,0.3-3.4c0.9-7.4,3.3-17.9,7.1-31.4
				c1.4-4.8,2.3-8.7,2.9-11.5c0.4-2.3,0.7-4.6,1.1-6.9c0.5-3.3,1-5.4,1.5-6.3c0.3-0.6,0.7-0.8,1.2-0.8c0.4,0,0.8,0.2,1.3,0.5
				c1.2,0.7,3.1,2.7,5.7,5.9c3.7,6.6,8.2,15.4,13.5,26.3c2.8,5.8,5.2,11.1,7.2,15.9c1.7,4,2.5,6.6,2.5,7.8c0,0.3,0,0.5-0.1,0.7
				c-2.7,2.1-4.7,3.1-6.1,3.1c-0.5,0-0.9-0.1-1.2-0.4c-1.1-1.1-2.6-3.6-4.5-7.5c-6.6,0-13.1,1.4-19.7,4.3c-0.4,1.8-0.7,3.7-0.8,5.5
				c-0.9,1-2.5,1.7-4.9,2.1C806.2,693.1,804.3,693.3,802.4,693.5z M814.9,673.6c1.5,0,3.8-0.3,6.7-0.9c3-0.6,5.2-0.9,6.8-0.9
				c0.1-0.7-1.4-4.1-4.7-10.4c-3.2-6-4.9-9.3-5.3-9.6c-0.5,0.8-1.4,4.4-2.6,10.8c-0.5,2.5-0.8,4.9-1.1,7.1c-0.1,0.9-0.2,1.7-0.2,2.3
				C814.6,672.8,814.7,673.4,814.9,673.6z"/>
		</g>
	</g>
</g>
<path class="st3" d="M845.5,950.9L844,949l-19.4,8.8c-4,4.1-8.9,9.6-14,14.8c3.3-0.6,6.4-1.2,9.3-1.8c4.1-4.6,7.4-8,7.5-8.7
	C828,960.2,845.5,950.9,845.5,950.9z"/>
</svg>
