<svg xmlns="http://www.w3.org/2000/svg" xmlns:xlink="http://www.w3.org/1999/xlink" width="1262.35" height="2195.18" viewBox="0 0 1262.35 2195.18"><defs><style>.a{fill:none;}.b{clip-path:url(#a);}.c{fill:#fff;}.d{fill:#b0658b;}.e{fill:#8a4267;}.f{fill:#66b5a0;}.g{fill:#dbccc9;}.h{fill:#db4d5b;}</style><clipPath id="a"><path class="a" d="M858.53,678.53l.23.41.06,0,7.81-4.38,18,37.88c4.94,16.24,14.82,12,14.82,12L907,735.65l1,1.5,5.63,8.44s37.41-12.71,55.06-41.65l-6-10.21-2.07-3.52h0l-4.31-7.32c1.66-2.28,2.5-3.65,2.5-3.65,7.06-21.18-26.82-36.71-33.88-53.65s-37.82-76.37-37.82-76.37a21.48,21.48,0,0,0-3.12-4.1c-.12-.1-.27-.21-.43-.32l-.16-.1-.41-.26-.2-.11-.62-.34-.08,0q-.39-.21-.84-.42l-.26-.12-.71-.33-.32-.14c-.29-.13-.59-.27-.91-.4l-.18-.08-1.21-.51-.31-.12-1-.42-.4-.16-1.16-.45-.28-.11-1.55-.59-.3-.11-1.34-.5-.47-.17-1.38-.51-.37-.13-1.84-.66-.23-.08-1.7-.6-.47-.16-1.63-.57-.42-.14-2.11-.73h0l-2.09-.7-.54-.19-1.74-.58-.52-.18-4.62-1.52-.57-.19-1.87-.61-.57-.18-5-1.6-.49-.15-2.07-.67L840,529l-2.51-.79h0l-2.67-.84-.45-.14-2.19-.69-.56-.17-2.47-.77-.14-.05-2.75-.85-.27-.08-2.38-.74-.61-.19L820.8,523l-.47-.15-2.61-.8-.58-.18-2.11-.64-.66-.2-2.1-.64-.57-.18-2.6-.79-.3-.09-2.25-.68-.73-.22-1.89-.57-.74-.22-2.43-.73-.41-.13-2-.58-1-.31-1.5-.45-.83-.25-1.84-.55-1-.28-1.79-.54-.9-.27-1.3-.38-1.17-.35-.81-.24-2.56-.76-.49-.14-1.38-.41-.6-.18-1.2-.35a2.43,2.43,0,0,1,.14-.2l-12.63-14.25a6.13,6.13,0,0,0-9.67-1,52.22,52.22,0,0,1-14.33,10.59,21.67,21.67,0,0,0-11.75,17.23c-.17,1.81-.36,3.76-.56,5.78-.55,5.45-1.21,11.46-2,17.15-2-4.4-3.21-11.12-4-17.55-.11-.93-.22-1.85-.31-2.76v0c-.09-.9-.18-1.79-.26-2.66,0-.25-.06-.5-.09-.74A21.39,21.39,0,0,0,713,505.83a64.78,64.78,0,0,1-15.2-10.37A7.38,7.38,0,0,0,686.49,497l-1.94,3.09-3.27,5.2-5.81,9.27.18.22-99.47,31.78a31.31,31.31,0,0,0-5.71,5.11c-23.7,20.29-30.29,80.3-30.29,80.3s-6.29,77-16.95,84c-15.78,10.36-9.51,23.12-4.3,29.88l-1.69,11-.76,4.89-1.54,10s18.88,28.36,70.65,22.89l4.23-22.94a15.89,15.89,0,0,0,12.83-7.42c5.29-8.47,9-50.64,9-50.64l2.64-10.41c7.06,5.64,47.3,107.29,48.71,115.76,1.15,6.9-43.59,80.76-60.23,107.93a25.58,25.58,0,0,0-3.33,8.63h0c-.11.59-.19,1.17-.26,1.76a.38.38,0,0,0,0,.1c-.07.6-.11,1.2-.13,1.79,0,0,0,.06,0,.09,0,.54,0,1.08,0,1.61,0,.1,0,.2,0,.31,0,.56.07,1.13.14,1.7a.69.69,0,0,0,0,.13c.06.5.14,1,.24,1.52,0,.13,0,.27.08.41.12.55.25,1.09.4,1.63.44,1.53,1,2.7,1.66,3,75.48,29.2,141.38,31,187.15,26A238.19,238.19,0,0,1,810,949c1.94-1.94,30.13-16,30.13-16l-7.29-14.09s-42.76,27.21-45.19,18,27.7-25.76,35.47-30.61c6.68-4.18,14.06-6.19,17.25-4.83-22.31-68.4-19.26-73.22-19.26-73.22C826.06,801.35,858.53,678.53,858.53,678.53Z"/></clipPath></defs><title>girl shirt J</title><rect class="a" width="1262.35" height="2195.18"/><g class="b"><path class="c" d="M899.47,724.41l14.12,21.18s37.41-12.71,55.06-41.65l-14.12-24Z"/><path class="d" d="M887.06,549.22s30.76,59.43,37.82,76.37,40.94,32.47,33.88,53.65c0,0-19.76,32.47-59.29,45.17,0,0-9.88,4.24-14.82-12l-18-37.88L843,653.82l19.76-81.88Z"/><path class="e" d="M925.55,666c.23,4.49.8,9.57,4.4,12.27,3.25,2.43,7.95,1.93,11.54.05,2.88-1.51,5.47-4.08,5.88-7.31.49-3.92-22.28-36-22.28-36C922.63,643.92,925.07,656.64,925.55,666Z"/><path class="f" d="M963.43,695.07l-2.86-4.86c-14.21,23.72-41.5,37.12-55.44,42.69l2.83,4.25C922.26,731.32,948.49,718.09,963.43,695.07Z"/><path class="c" d="M519.18,744.24l-4.24,27.52s18.88,28.36,70.65,22.89l5.41-29.3Z"/><path class="d" d="M611.65,713.65s-3.71,42.17-9,50.64-14.83,7.42-14.83,7.42-46.59-1.06-64.59-21.18c0,0-22.58-19.77,0-34.59,10.66-7,16.95-84,16.95-84s6.59-60,30.29-80.3l39.59,76.07Z"/><path class="c" d="M604.38,631.79c-2.25,9.09-7.88,40,9.91,71.45,7.06,5.64,47.3,107.29,48.71,115.76,1.15,6.9-43.59,80.76-60.23,107.93a24.73,24.73,0,0,0-2.84,19.69c.44,1.53,1,2.7,1.66,3,144.63,55.95,254.11,11.29,254.11,11.29,1.42,0,1.18-11.32,0-14.82-3.71-11-10.37-29.62-13.41-38.82-24.4-74-21.17-79.06-21.17-79.06,4.94-26.83,37.41-149.65,37.41-149.65l.23.41-.06-.23c16.42-33.71,6.89-50.3,6.89-50.3l.07-.25C732.72,618.94,631.23,628.73,604.38,631.79Z"/><path class="d" d="M855.31,944.89c-103.7,35.82-215.89,1.49-254.92-12.91a24.3,24.3,0,0,0-.46,14.64c.44,1.53,1,2.7,1.66,3,144.63,55.95,254.11,11.29,254.11,11.29,1.42,0,1.18-11.32,0-14.82Z"/><path class="g" d="M626.43,716.72c5.35,12.94,33.94,82.09,40,98.84a.94.94,0,0,0,1.71.11c5.13-9.66,30.14-52.1,73.51-52.1,40,0,66.95,35.21,74.31,48a2.18,2.18,0,0,0,4-.46c5.63-18.73,22.32-84.53,28.24-107.34a2.18,2.18,0,0,0-3.48-2.24c-19.34,15.68-93.77,64.85-217.07,14A.93.93,0,0,0,626.43,716.72Z"/><path class="c" d="M865.66,628.16l22-73.16-.64-5.78a21.48,21.48,0,0,0-3.12-4.1c-8.47-7.06-126.35-40.94-126.35-40.94l-1.41,6.35c-1.42,8.47-26.92,35.53-26.92,35.53-14.82-10.59-33.79-37.65-33.79-37.65L576.18,546.53a31.31,31.31,0,0,0-5.71,5.11l34.65,77.48s-.31.94-.74,2.67C631.23,628.73,732.72,618.94,865.66,628.16Z"/><path class="h" d="M730.44,655.72h0Z"/><path class="h" d="M768.33,631.9h0Z"/><polygon class="a" points="858.76 678.94 858.82 678.91 858.7 678.71 858.76 678.94"/><path class="e" d="M574.06,559.94l33.88,70.59s-11.29,31.76,6.35,72.71l-2.64,10.41s-26.3-40.06-8.65-83.12Z"/><path class="f" d="M588.15,778.69h0c-30.3.27-53.6-6.87-69.28-21.22a2.43,2.43,0,0,0-1.61-.64l-.8,5.16c16.32,14.4,39.85,21.71,70,21.71h.75l1-5Z"/><path class="e" d="M526.16,717.76A1.66,1.66,0,0,0,526,721c11.44,3.91,32,9.31,36.06-.77,5.64-14.12,3.53-26.83-6.36-19.77C547.74,706.1,537,715.45,526.16,717.76Z"/><path class="e" d="M887.7,555l-25.41,73.41c8,17.88-3.59,50.3-3.59,50.3l.12.2,7.81-4.38a91.1,91.1,0,0,0,2.72-46.12Z"/><path class="d" d="M680.79,513.1,576.18,546.53a31.31,31.31,0,0,0-5.71,5.11l4.81,10.76L690.53,525Z"/><path class="d" d="M887.06,549.22a21.48,21.48,0,0,0-3.12-4.1c-6.43-5.36-76-26.2-109.06-35.91l-9.18,12.61,119.67,40.92L887.7,555Z"/><path class="f" d="M697.75,495.46A64.78,64.78,0,0,0,713,505.83a21.38,21.38,0,0,1,11.73,17.23c.7,7.8,2,17.33,4.58,23,0,0-36.61-9.41-53.79-31.53l11-17.56A7.38,7.38,0,0,1,697.75,495.46Z"/><path class="f" d="M757.88,495.31a52.22,52.22,0,0,1-14.33,10.59,21.67,21.67,0,0,0-11.75,17.23c-.63,6.71-1.49,15.14-2.54,22.93,0,0,34-10.12,50.91-35.53l-12.62-14.25A6.13,6.13,0,0,0,757.88,495.31Z"/><path class="c" d="M724.68,523.06c0-.25-.06-.5-.09-.74-17.39-3-32.75-15.46-40-22.26l-3.27,5.2c8.32,7.65,24.85,20.58,44,23.25C725,526.65,724.84,524.81,724.68,523.06Z"/><path class="c" d="M731.24,528.91c17-.32,33.45-14,43.51-24.51l-4-4.53c-9.18,9.63-24.06,22.38-38.9,23a1.9,1.9,0,0,0,0,.25C731.63,524.94,731.44,526.89,731.24,528.91Z"/></g><path class="d" d="M845.49,950.93,844,949l-19.44,8.75c-4,4.13-8.89,9.62-14,14.82q4.9-.85,9.33-1.76c4.08-4.58,7.37-8,7.54-8.69C828,960.17,845.49,950.93,845.49,950.93Z"/><path class="f" d="M733.08,705.8S657.91,650.54,679.16,626s52.71,14.34,52.71,14.34,34.82-39.14,53.5-12.81C805,655.14,733.08,705.8,733.08,705.8Z"/><path class="c" d="M732.73,681.33s-31-22.78-22.23-32.9,21.73,5.91,21.73,5.91,14.35-16.13,22.06-5.28C762.37,660.45,732.73,681.33,732.73,681.33Z"/></svg>