<svg xmlns="http://www.w3.org/2000/svg" width="1262.35" height="2195.18" viewBox="0 0 1262.35 2195.18"><title>1_glasses_5</title><g id="Layer_2" data-name="Layer 2"><g id="accessories"><g id="_1_glasses_5" data-name="1_glasses_5"><path d="M712.86,326.13l-5.13-10.85c1.16-.55,28.64-13.25,50.23.35l-6.39,10.15C735.48,315.65,713.08,326,712.86,326.13Z" fill="#85151f"/><path d="M659.82,280.94a45,45,0,1,1-45,45,45,45,0,0,1,45-45m0-9a54,54,0,1,0,54,54,54,54,0,0,0-54-54Z" fill="#85151f"/><path d="M659.82,276.71a45,45,0,1,1-45,45,45,45,0,0,1,45-45m0-9a54,54,0,1,0,54,54,54,54,0,0,0-54-54Z" fill="#be1e2d"/><path d="M621.8,330.4a39.11,39.11,0,0,0,32.07,29.85,2.23,2.23,0,0,0,1.89-3.78L626.9,327.6C622.85,323.56,620.53,324.83,621.8,330.4Z" fill="#fff"/><path d="M699.83,312.41a39.11,39.11,0,0,0-32.07-29.85,2.23,2.23,0,0,0-1.89,3.79l28.87,28.86C698.78,319.25,701.11,318,699.83,312.41Z" fill="#fff"/><path d="M805.53,277.06a45,45,0,1,1-45,45,45.05,45.05,0,0,1,45-45m0-9a54,54,0,1,0,54,54,54,54,0,0,0-54-54Z" fill="#85151f"/><path d="M805.53,272.82a45,45,0,1,1-45,45,45.05,45.05,0,0,1,45-45m0-9a54,54,0,1,0,54,54,54,54,0,0,0-54-54Z" fill="#be1e2d"/><path d="M767.51,326.52a39.1,39.1,0,0,0,32.07,29.85,2.23,2.23,0,0,0,1.88-3.79L772.6,323.72C768.56,319.68,766.23,321,767.51,326.52Z" fill="#fff"/><path d="M845.54,308.53a39.11,39.11,0,0,0-32.08-29.85,2.22,2.22,0,0,0-1.88,3.78l28.86,28.87C844.49,315.37,846.81,314.1,845.54,308.53Z" fill="#fff"/><path d="M712.86,321.13l-5.13-10.85c1.16-.55,28.64-13.25,50.23.35l-6.39,10.15C735.48,310.65,713.08,321,712.86,321.13Z" fill="#be1e2d"/><path d="M609.1,318.71H595a6,6,0,0,1,0-12H609.1a6,6,0,0,1,0,12Z" fill="#be1e2d"/><path d="M869.58,318.71H855.42a6,6,0,0,1,0-12h14.16a6,6,0,0,1,0,12Z" fill="#be1e2d"/><rect width="1262.35" height="2195.18" fill="none"/></g></g></g></svg>