<svg xmlns="http://www.w3.org/2000/svg" width="1262.35" height="2195.18" viewBox="0 0 1262.35 2195.18"><title>1_glasses_8</title><g id="Layer_2" data-name="Layer 2"><g id="accessories"><g id="_1_glasses_8" data-name="1_glasses_8"><path d="M863.62,313.33c-.77-33.11-46.23-24.33-83-23.75-.85.26-34-4.17-34.19,25.9-10.14-1.83-23.71-.58-30.78.32a25.52,25.52,0,0,0-24.81-26.05c-79.34-1.28,65.64,1-65.33-1.05A26.76,26.76,0,0,0,614.34,291a27.33,27.33,0,0,0-9.24,6.7c-9.31,10.37-13.36,47.13,9,57.28,7.43,3.42,5.62,2.5,76.26,1.34,29.82-.33,25.15-37.5,25.07-32.41,7.89-1.06,22.28-2.28,31-.22.25,5.88-1.77,22.52,14.67,30.24a25.13,25.13,0,0,0,10.41,2.39l62.94,1c.1-.05,25.44,1.16,28.45-21.79C863.93,329.88,863.57,312.16,863.62,313.33Zm-159.13,30a18.65,18.65,0,0,1-14.08,6.17c-69-1.13-64.95-1.05-65.21-1.08-9.38-.34-16.8-6.61-16.52-20.66,1-8-1.93-15.9,4.23-23.23a16.93,16.93,0,0,1,12.56-6c34-.55,46.74-.73,65.21-1a18.06,18.06,0,0,1,7.48,1.6c12.66,5.64,10.6,18.94,10.86,19.68C709.19,329.72,710.61,336.51,704.49,343.3Zm131.21,5.12-8.16.13c-68.36,1.13-75.16,8-74.53-32.14.72-24,26.2-18.31,27.57-18.81,67,1,72.76-5.44,72.74,30.13C853.14,328.31,855.68,347.83,835.7,348.42Z" fill="#85151f"/><path d="M868.2,300.69h-6.08c-8.2-22.81-48.38-15.63-81.54-15.11-.85.26-34-4.17-34.19,25.9-10.14-1.83-23.71-.58-30.78.32a25.52,25.52,0,0,0-24.81-26.05c-79.34-1.28,65.64,1-65.33-1.05A26.76,26.76,0,0,0,614.34,287a27.33,27.33,0,0,0-9.24,6.7,23.74,23.74,0,0,0-4.06,7H591.7a5.65,5.65,0,0,0,0,11.29h6.48c-2,14.53,1.4,32.38,16,39,7.43,3.42,5.62,2.5,76.26,1.34,26-.29,25.78-28.51,25.25-32.44,7.92-1.05,22.17-2.24,30.85-.19.25,5.88-1.77,22.52,14.67,30.24a25.13,25.13,0,0,0,10.41,2.39l62.94,1c.1-.05,25.44,1.16,28.45-21.79.69-4.11.69-14.59.65-19.56h4.57a5.65,5.65,0,1,0,0-11.29ZM704.49,339.3a18.65,18.65,0,0,1-14.08,6.17c-69-1.13-64.95-1.05-65.21-1.08-9.38-.34-16.8-6.61-16.52-20.66,1-8-1.93-15.9,4.23-23.23a16.93,16.93,0,0,1,12.56-6c34-.55,46.74-.73,65.21-1a18.06,18.06,0,0,1,7.48,1.6c12.66,5.64,10.6,18.94,10.86,19.68C709.19,325.72,710.61,332.51,704.49,339.3Zm131.21,5.12-8.16.13c-68.36,1.13-75.16,8-74.53-32.14.72-24,26.2-18.31,27.57-18.81,67,1,72.76-5.44,72.74,30.13C853.14,324.31,855.68,343.83,835.7,344.42Z" fill="#be1e2d"/><path d="M616.22,319c4.6,5,12.27,13.07,18.37,18a2.33,2.33,0,0,1-1.46,4.15h-10.6s-9.88-2.59-10.35-9.65V320.6A2.33,2.33,0,0,1,616.22,319Z" fill="#fff"/><path d="M701.07,323c-4.6-5-12.27-13.07-18.37-17.95a2.33,2.33,0,0,1,1.46-4.15h10.6s9.89,2.59,10.36,9.65v10.87A2.34,2.34,0,0,1,701.07,323Z" fill="#fff"/><path d="M845.07,323.89c-4.6-5-12.27-13.07-18.37-17.95a2.32,2.32,0,0,1,1.46-4.14h10.6s9.89,2.58,10.36,9.64v10.87A2.34,2.34,0,0,1,845.07,323.89Z" fill="#fff"/><path d="M762.34,319.73c4.6,5,12.27,13.07,18.37,17.95a2.32,2.32,0,0,1-1.46,4.14h-10.6s-9.89-2.58-10.36-9.64V321.31A2.33,2.33,0,0,1,762.34,319.73Z" fill="#fff"/><rect width="1262.35" height="2195.18" fill="none"/></g></g></g></svg>