<svg xmlns="http://www.w3.org/2000/svg" width="1262.35" height="2195.18" viewBox="0 0 1262.35 2195.18"><title>1_glasses_3</title><g id="Layer_2" data-name="Layer 2"><g id="accessories"><g id="_1_glasses_3" data-name="1_glasses_3"><path d="M732.88,288.81c-42.9-.73-90.6.52-135.53,6.13,0,0,9.24,55.06,25.12,58.24s82.88-2.12,89.23-4.24,21.18-27.53,21.18-27.53,14.82,25.41,21.18,27.53,72.35,7.41,88.23,4.24,26.12-58.24,26.12-58.24C823.48,289.33,775.78,288.08,732.88,288.81Z"/><path d="M676.51,295.13,624.24,347.4c2.22.37,6.56.77,15,.77,2.2,0,4.5,0,6.85-.08l53.41-53.41Q687.84,294.8,676.51,295.13Z" fill="#707070"/><path d="M824.47,296.82l-48.79,48.79c6.3.56,13.57,1.11,21,1.55l48.67-48.67Q835.18,297.53,824.47,296.82Z" fill="#707070"/><path d="M733,294.81h-.2c-2.64,0-5.28-.08-7.92-.1l-52.2,52.2c4.64-.3,9.14-.63,13.32-1l51.19-51.19Z" fill="#707070"/><path d="M792.62,295.24,750.56,337.3c2.4,3.12,4.38,5.31,5.53,6l.68.15,47.74-47.74Q798.63,295.44,792.62,295.24Z" fill="#707070"/><path d="M593.29,307.82a6,6,0,0,1-1-11.91c1.19-.2,120.37-19.89,280-3.05a6,6,0,0,1-1.25,11.93C713,288.13,595.46,307.54,594.3,307.74A5.81,5.81,0,0,1,593.29,307.82Z" fill="#fff"/><rect width="1262.35" height="2195.18" fill="none"/></g></g></g></svg>