<svg xmlns="http://www.w3.org/2000/svg" width="1262.35" height="2195.18" viewBox="0 0 1262.35 2195.18"><defs><style>.a{fill:#949494;}.b{fill:#a16442;}.c{fill:#231f20;}.d{fill:#33658c;}.e{fill:#4a4a4a;}.f{fill:#234561;}.g{fill:#595959;}.h{fill:none;}</style></defs><title>golf driver B</title><path class="a" d="M343.23,1402.06l-69.17,693.18s5.64,4.23,11.29-1.42,73.41-690.35,73.41-690.35Z"/><path class="b" d="M333.35,1360.12,348.88,1227s25.41-14.12,48,4.24l-16.94,131.29-21.18,40.94-15.53-1.41Z"/><path class="c" d="M333.38,1359.85l0,.27,9.88,41.94,15.53,1.41,19.64-38C365,1358.11,348.45,1355.46,333.38,1359.85Z"/><path class="d" d="M396.88,1231.24c-3.53-7.53-16.28-10.37-23.76-11.06-20.94-1.94-24.24,6.82-24.24,6.82l-15.5,132.85c15.07-4.39,31.6-1.74,45,5.66Z"/><path class="e" d="M355.94,1363.59l-4,34-5.41.23-7.3-33.41S347.47,1361.47,355.94,1363.59Z"/><path class="f" d="M291,2056.76s-38.12-106-110.12-90.47-81.41,82.36-64,123.77c9.49,22.56,39,51,92.24,43.29,61.41-8.82,76.23-39.53,76.23-39.53Z"/><path class="a" d="M250.21,1992.74c-13.21-11.86-33.33-17.5-57-.21-16.68,12.2-28.58,30.35-28.94,61.41-.21,18.71,8.28,42,28.62,60.84a52.26,52.26,0,0,0,40.46,13.89l.26,0c40.47-11.33,51.72-34.83,51.72-34.83l5.65-37.06S278,2020,250.21,1992.74Z"/><path class="g" d="M194,2025.36a91.09,91.09,0,0,0-3.78,14.34,3.35,3.35,0,0,0,2.52,3.85c16.76,4,59,14.19,83.17,22.55a3.32,3.32,0,0,0,4.42-3.18h0a3.33,3.33,0,0,0-1.56-2.79c-21.62-13.8-63.71-30.39-80.44-36.76A3.34,3.34,0,0,0,194,2025.36Z"/><path class="g" d="M194.3,2081l83.31-4.11a3,3,0,0,0,2.89-3.08h0a3,3,0,0,0-2.67-3l-85.37-10.47a3,3,0,0,0-3.41,3.25,127,127,0,0,0,2.11,14.92A3.06,3.06,0,0,0,194.3,2081Z"/><path class="g" d="M199.84,2109c21.5.12,60.8-14.06,79-21.95a3.23,3.23,0,0,0,1.75-3h0c0-2.09-1.68-3.6-3.35-3-27.43,9.27-61.42,12.05-79.32,12.88-1.68.08-2.87,2-2.48,3.94.68,3.37,1.34,6.61,1.81,8.82A2.79,2.79,0,0,0,199.84,2109Z"/><path class="g" d="M279.54,2048.37c-31.83-37.22-57.33-48.55-63.71-50.95a2.67,2.67,0,0,0-2.77.55,62.9,62.9,0,0,0-6.58,7.33,2.69,2.69,0,0,0,1,4.09c14.18,6.44,44,21.36,68.23,42.73a2.68,2.68,0,0,0,4.47-2h0A2.72,2.72,0,0,0,279.54,2048.37Z"/><path class="d" d="M115.23,2049.35s20.47-11.29,43.06-12.7c0,0,4.94-53.65,59.3-62.12C217.59,1974.53,130.76,1954.76,115.23,2049.35Z"/><path class="f" d="M396.88,1231.24c-3.53-7.53-16.28-10.37-23.76-11.06-20.94-1.94-24.24,6.82-24.24,6.82l-.11,1c10.25-.17,28.7,2,27.29,10.69-7.41,45.53-12.22,79.9-17.12,120a63.06,63.06,0,0,1,19.46,6.86Z"/><rect class="h" width="1262.35" height="2195.18"/></svg>