<svg xmlns="http://www.w3.org/2000/svg" width="1262.35" height="2195.18" viewBox="0 0 1262.35 2195.18"><defs><style>.a{fill:none;}.b{fill:#fd6095;}.c{fill:#9f406a;}.d{fill:#c04b78;}.e{fill:#cc4170;}.f{fill:#ff82ab;}.g{fill:#ffd9d9;}</style></defs><title>hat A</title><rect class="a" width="1262.35" height="2195.18"/><ellipse class="b" cx="720.87" cy="37.11" rx="24.93" ry="17.17"/><path class="c" d="M703.11,32.88c-127,13.28-167.83,87.47-168.23,211.75l94.48-42C630.38,175.44,638.5,71.3,703.11,32.88Z"/><path class="d" d="M729,30.84q-4.53.24-8.93.66-8.73.51-17,1.38C638.5,71.3,630.38,175.44,629.36,202.6l90.74-40.37L816,189.56C806.16,75.46,754.32,41,729,30.84Z"/><path class="c" d="M729,30.84c25.3,10.12,77.14,44.62,87,158.72l108.89,31C922.66,66.12,810.29,26.54,729,30.84Z"/><path class="b" d="M534.88,244.63S620,154.22,735.06,155.36,924.88,220.6,924.88,220.6s-16.11,84.68-139.79,7.66c-37.89-23.59-80.71-15.49-116.76,11.79C562.49,320.16,534.88,244.63,534.88,244.63Z"/><path class="e" d="M919.75,216.55a197.59,197.59,0,0,1-10.82,17c-8.36,11.12-20.67,16.76-36.59,16.76-21.87,0-49.77-10.47-82.92-31.12a97,97,0,0,0-51.95-15.14c-24.82,0-50.44,9.46-74.07,27.35C646.76,244,631.14,253.38,617,259.23c-11.88,4.9-22.85,7.38-32.6,7.38-13.09,0-24-4.42-32.55-13.15-2.68-2.74-8.23-10.54-11-14.7-3.9,3.68-6,5.87-6,5.87s27.61,75.53,133.45-4.58c36-27.28,78.87-35.38,116.76-11.79,123.68,77,139.79-7.66,139.79-7.66S923.12,219.09,919.75,216.55Z"/><path class="f" d="M592.58,218.78c-1.67,9.76-1.43,21.85,7.29,28.88a5.84,5.84,0,0,1-2.07,10.21c-12.11,3.29-30.26,3.93-43.77-14.37a5.84,5.84,0,0,1,.94-8c5.68-4.75,16.73-13.82,28.32-22.42A5.86,5.86,0,0,1,592.58,218.78Z"/><path class="f" d="M868,242.65c11.6-.68,29.71-4.83,40.49-22.59a3.35,3.35,0,0,0-1.06-4.55c-6-3.83-20.84-13.28-32.1-19.53a3.36,3.36,0,0,0-4.7,4.32c4.52,9.74,8.2,25.06-5,36.48A3.34,3.34,0,0,0,868,242.65Z"/><path class="g" d="M692.92,137.47a6.79,6.79,0,0,1-2.71-.52,4.64,4.64,0,0,1-2.81-4.35,7,7,0,0,1,2.13-4.54,54.25,54.25,0,0,1,14-11.14,120,120,0,0,0,2-12.81l.26-2.13c.16-1.31.35-2.58.55-3.8a165.19,165.19,0,0,1-19.05,11.15,2.5,2.5,0,0,1-2.3-4.44c8.41-4.36,16.49-8.81,23-14.21,2.83-9.66,7.61-15.84,14.46-18.76a2.5,2.5,0,0,1,3.32,3.18c-2.71,7.29-7.46,13.22-13.33,18.31a69.29,69.29,0,0,0-1.73,9.18l-.25,2.12c-.37,3.08-.76,6.29-1.33,9.47a53.75,53.75,0,0,1,5.47-1.92c2.37-.69,4.78-1.21,7.12-1.71,2-.44,3.94-.86,5.82-1.37a25.85,25.85,0,0,1,16.83-17.39,2.5,2.5,0,0,1,3.24,2.15c.76,8-5.56,14.67-12.15,17.73a35.68,35.68,0,0,1-3.66,1.45.41.41,0,0,0,0,.11,5.94,5.94,0,0,0,.36,3.77c1.44,2.42,6.07,1.54,8.58.64A52.29,52.29,0,0,0,766.33,97.7a2.5,2.5,0,0,1,4.15,2.78,57.39,57.39,0,0,1-28,21.87c-5.14,1.85-11.66,2.08-14.56-2.79a9.38,9.38,0,0,1-1.19-5c-1.3.31-2.6.59-3.89.87-2.26.49-4.58,1-6.78,1.63a47.67,47.67,0,0,0-8.24,3.25c-1.57,5.57-4.07,10.77-8.47,14.76A9.89,9.89,0,0,1,692.92,137.47Zm-.47-5a4.88,4.88,0,0,0,3.52-1.08,21.81,21.81,0,0,0,5-6.92,49.07,49.07,0,0,0-7.73,6.94A5.61,5.61,0,0,0,692.45,132.45Zm49.76-34.28a21.42,21.42,0,0,0-8.36,8.75C737.4,105.15,740.93,102,742.21,98.17Z"/><path class="d" d="M806.79,62.46c36.85,36,61.59,71.89,89.66,104.65a3.41,3.41,0,0,0,6-2.42c-2.22-47.44-48.66-98.42-92.5-108A3.4,3.4,0,0,0,806.79,62.46Z"/><path class="d" d="M560.76,167.09a3.55,3.55,0,0,0,6.32,1.77C584.16,147,638.39,76.66,628.41,75,620.28,73.64,553.61,103.51,560.76,167.09Z"/></svg>