<svg xmlns="http://www.w3.org/2000/svg" width="1262.35" height="2195.18" viewBox="0 0 1262.35 2195.18"><defs><style>.a{fill:#fffdf7;}.b{fill:#fc9051;}.c{fill:#ffbe6e;}.d{fill:#fc6c3c;}.e{fill:#cfcec8;}.f{fill:#abaaa5;}.g{fill:#deddd7;}.h{fill:none;}</style></defs><title>hat F</title><ellipse class="a" cx="721.48" cy="34.47" rx="25.2" ry="17.35"/><path class="b" d="M729.72,28.14q-4.59.24-9,.66-8.84.52-17.16,1.4C575.17,43.62,533.87,118.63,533.47,244.27L629,201.78,720.7,161l96.93,27.63L927.7,220C925.46,63.8,811.87,23.79,729.72,28.14Z"/><path class="c" d="M639.64,72.08c25.72-6.85,85-19.88,155.46-17a2.87,2.87,0,0,0,1.15-5.54c-15.21-5.8-42.27-13-78.11-10.19-41.31,3.27-57.52,9.57-81,27.67A2.87,2.87,0,0,0,639.64,72.08Z"/><path class="d" d="M604.59,200.35C563.79,157,589.45,97.06,620.17,53c-63.72,33.09-86.4,98.31-86.7,191.24l80.72-35.91A40.29,40.29,0,0,1,604.59,200.35Z"/><path class="d" d="M823.13,43.68c23.87,31.76,45.71,66.95,41.46,108.67-1.87,19.56-13.49,33-29,41.37L927.7,220C926.26,119.5,878.73,67.11,823.13,43.68Z"/><path class="a" d="M533.47,244.27s86.06-91.4,202.35-90.24S927.7,220,927.7,220s-16.28,85.62-141.3,7.75c-38.3-23.86-81.59-15.67-118,11.92C561.38,320.64,533.47,244.27,533.47,244.27Z"/><path class="e" d="M684.12,159.48c-10.09,27.08-15.1,55.09-20,83.29,1.39-1,2.78-2.05,4.2-3.12a148.29,148.29,0,0,1,13.41-9.07c2.52-24.77,6.38-49.6,14.28-73.4Q690,158.2,684.12,159.48Z"/><path class="e" d="M735.82,154c-4.6-.05-9.14.07-13.64.3-.79,20.22-1.8,40.78-1.86,61.09a94.11,94.11,0,0,1,20.46-1.7c-1.12-19.89-1.68-39.78-4-59.67Z"/><path class="e" d="M766.08,155.8a536.36,536.36,0,0,1,17.72,70.37c.87.5,1.73,1,2.6,1.56q8.24,5.13,15.85,9.33c-5.39-27.29-12.82-54.28-23.58-79.67C774.54,156.79,770.35,156.25,766.08,155.8Z"/><path class="f" d="M922.51,215.88a196.6,196.6,0,0,1-10.93,17.23c-8.45,11.24-20.89,16.94-37,16.94-22.1,0-50.31-10.58-83.82-31.45a98.06,98.06,0,0,0-52.52-15.31c-25.08,0-51,9.56-74.87,27.65-16.82,12.73-32.61,22.18-46.92,28.09-12,5-23.1,7.47-33,7.47-13.22,0-24.29-4.47-32.9-13.29-2.7-2.78-8.32-10.66-11.1-14.87-4,3.73-6,5.93-6,5.93s27.91,76.37,134.9-4.62c36.44-27.59,79.73-35.78,118-11.92,125,77.87,141.3-7.75,141.3-7.75S925.93,218.46,922.51,215.88Z"/><path class="g" d="M591.8,218.14c-1.7,9.87-1.45,22.09,7.36,29.2a5.9,5.9,0,0,1-2.09,10.32c-12.24,3.32-30.58,4-44.24-14.53a5.9,5.9,0,0,1,.94-8c5.75-4.81,16.92-14,28.63-22.67A5.93,5.93,0,0,1,591.8,218.14Z"/><path class="g" d="M870.17,242.28c11.73-.7,30-4.89,40.93-22.85a3.37,3.37,0,0,0-1.06-4.59c-6-3.88-21.07-13.43-32.45-19.75a3.39,3.39,0,0,0-4.75,4.37c4.56,9.85,8.29,25.34-5.1,36.88A3.38,3.38,0,0,0,870.17,242.28Z"/><path class="a" d="M730.8,71.28l6.9,13a5.86,5.86,0,0,0,4.5,3.07L756.8,89a5.86,5.86,0,0,1,3.55,9.89l-10.21,10.57a5.88,5.88,0,0,0-1.53,5.24l2.92,14.4a5.86,5.86,0,0,1-8.31,6.43L730,129.08a5.87,5.87,0,0,0-5.45.17l-12.79,7.22a5.86,5.86,0,0,1-8.69-5.91l2-14.55a5.88,5.88,0,0,0-1.84-5.14l-10.83-9.93a5.86,5.86,0,0,1,2.95-10.09l14.47-2.55A5.83,5.83,0,0,0,714.19,85L720.3,71.6A5.86,5.86,0,0,1,730.8,71.28Z"/><rect class="h" width="1262.35" height="2195.18"/></svg>