<svg xmlns="http://www.w3.org/2000/svg" width="1262.35" height="2195.18" viewBox="0 0 1262.35 2195.18"><defs><style>.a{fill:#735330;}.b{fill:#c2b7a9;}.c{fill:#fff;}.d{fill:#966836;}.e{fill:#734e26;}.f{fill:#875a2a;}.g{fill:#ededed;}.h{fill:none;}</style></defs><title>hat D</title><ellipse class="a" cx="721.48" cy="34.47" rx="25.2" ry="17.35"/><path class="b" d="M703.53,30.2C575.17,43.62,533.87,118.63,533.47,244.27L629,201.78C630,174.32,638.21,69,703.53,30.2Z"/><path class="c" d="M729.72,28.14q-4.59.24-9,.66-8.84.52-17.16,1.4C638.21,69,630,174.32,629,201.78L720.7,161l96.93,27.63C807.7,73.25,755.29,38.36,729.72,28.14Z"/><path class="b" d="M729.72,28.14c25.57,10.22,78,45.11,87.91,160.46L927.7,220C925.46,63.8,811.87,23.79,729.72,28.14Z"/><path class="d" d="M533.47,244.27s86.06-91.4,202.35-90.24S927.7,220,927.7,220s-16.28,85.62-141.3,7.75c-38.3-23.86-81.59-15.67-118,11.92C561.38,320.64,533.47,244.27,533.47,244.27Z"/><path class="e" d="M922.51,215.88a196.6,196.6,0,0,1-10.93,17.23c-8.45,11.24-20.89,16.94-37,16.94-22.1,0-50.31-10.58-83.82-31.45a98.06,98.06,0,0,0-52.52-15.31c-25.08,0-51,9.56-74.87,27.65-16.82,12.73-32.61,22.18-46.92,28.09-12,5-23.1,7.47-33,7.47-13.22,0-24.29-4.47-32.9-13.29-2.7-2.78-8.32-10.66-11.1-14.87-4,3.73-6,5.93-6,5.93s27.91,76.37,134.9-4.62c36.44-27.59,79.73-35.78,118-11.92,125,77.87,141.3-7.75,141.3-7.75S925.93,218.46,922.51,215.88Z"/><path class="f" d="M591.8,218.14c-1.7,9.87-1.45,22.09,7.36,29.2a5.9,5.9,0,0,1-2.09,10.32c-12.24,3.32-30.58,4-44.24-14.53a5.9,5.9,0,0,1,.94-8c5.75-4.81,16.92-14,28.63-22.67A5.93,5.93,0,0,1,591.8,218.14Z"/><path class="f" d="M870.17,242.28c11.73-.7,30-4.89,40.93-22.85a3.37,3.37,0,0,0-1.06-4.59c-6-3.88-21.07-13.43-32.45-19.75a3.39,3.39,0,0,0-4.75,4.37c4.56,9.85,8.29,25.34-5.1,36.88A3.38,3.38,0,0,0,870.17,242.28Z"/><path class="e" d="M745.94,60.18c4.57-.92,7.79,6.84,6.94,14.82-1.29,12.16-6.84,43.93-14.82,59.53-3.84,7.5-11.84,6.93-13.41,6.84-7-.42-11.54-2.91-13.65-6.37-1.3-2.12-1.54-4.68-1.18-5.53,3.67-8.53,22-34.82,22.3-39.32-.23-4-9.25-2.88-12.34-2.7-19.45,1.11-11.37,6.43-17.75,7.37a8.13,8.13,0,0,1-2.51,0c-7.79-1.33-11.69-13.15-9-21.22,1.53-4.58,9.57-7.1,14.34-6.38,10.11,1.52,32.91-.32,40.32-.82C745.56,66.36,745.58,60.25,745.94,60.18Z"/><path class="d" d="M744.16,60.22c14.9-3-7.95,52-11.44,67.41a9.89,9.89,0,0,1-10.18,7.74c-7-.42-14.78-3.78-12.18-6.9a9.42,9.42,0,0,0,1.43-2.35c3.67-8.53,18-37.47,18.21-42-.23-4-9.25-2.88-12.34-2.7-19.45,1.11-11.37,6.43-17.74,7.37a8.19,8.19,0,0,1-2.52,0c-7.79-1.33-8.35-13-5.66-21.1a9.94,9.94,0,0,1,11-6.5c10.11,1.52,32.92-.32,40.32-.82A9.89,9.89,0,0,0,744.16,60.22Z"/><path class="g" d="M806.79,56.46c36.85,36,61.59,71.89,89.66,104.65a3.41,3.41,0,0,0,6-2.42c-2.22-47.44-48.66-98.42-92.5-108A3.4,3.4,0,0,0,806.79,56.46Z"/><path class="g" d="M560.76,161.09a3.55,3.55,0,0,0,6.32,1.77C584.16,141,638.39,70.66,628.41,69,620.28,67.64,553.61,97.51,560.76,161.09Z"/><rect class="h" width="1262.35" height="2195.18"/></svg>