<svg xmlns="http://www.w3.org/2000/svg" width="1262.35" height="2195.18" viewBox="0 0 1262.35 2195.18"><defs><style>.a{fill:none;}.b{fill:#8a2828;}.c{fill:#b53838;}.d{fill:#441d1d;}.e{fill:#d64646;}.f{fill:#a13333;}.g{fill:#f06f6f;}</style></defs><title>hat B</title><rect class="a" width="1262.35" height="2195.18"/><ellipse class="b" cx="721.48" cy="34.47" rx="25.2" ry="17.35"/><path class="b" d="M703.53,30.2C575.17,43.62,533.87,118.63,533.47,244.27L629,201.78C630,174.32,638.21,69,703.53,30.2Z"/><path class="c" d="M729.72,28.14q-4.59.24-9,.66-8.84.52-17.16,1.4C638.21,69,630,174.32,629,201.78L720.7,161l96.93,27.63C807.7,73.25,755.29,38.36,729.72,28.14Z"/><path class="b" d="M729.72,28.14c25.57,10.22,78,45.11,87.91,160.46L927.7,220C925.46,63.8,811.87,23.79,729.72,28.14Z"/><path class="d" d="M724.38,78.66a22,22,0,1,1-22.06,22,22,22,0,0,1,22.06-22m0-9.28a31.24,31.24,0,1,0,31.4,31.23,31.31,31.31,0,0,0-31.4-31.23Z"/><ellipse class="d" cx="724.38" cy="100.61" rx="10.85" ry="10.8"/><path class="e" d="M533.47,244.27s86.06-91.4,202.35-90.24S927.7,220,927.7,220s-16.28,85.62-141.3,7.75c-38.3-23.86-81.59-15.67-118,11.92C561.38,320.64,533.47,244.27,533.47,244.27Z"/><path class="f" d="M922.51,215.88a196.6,196.6,0,0,1-10.93,17.23c-8.45,11.24-20.89,16.94-37,16.94-22.1,0-50.31-10.58-83.82-31.45a98.06,98.06,0,0,0-52.52-15.31c-25.08,0-51,9.56-74.87,27.65-16.82,12.73-32.61,22.18-46.92,28.09-12,5-23.1,7.47-33,7.47-13.22,0-24.29-4.47-32.9-13.29-2.7-2.78-8.32-10.66-11.1-14.87-4,3.73-6,5.93-6,5.93s27.91,76.37,134.9-4.62c36.44-27.59,79.73-35.78,118-11.92,125,77.87,141.3-7.75,141.3-7.75S925.93,218.46,922.51,215.88Z"/><path class="d" d="M744.64,192.63c12.33.46,25.51,3.6,38.87,8a2.74,2.74,0,0,0,3.49-3.39l-12.16-40.39a316.2,316.2,0,0,0-35.43-2.74l5.23,38.53Z"/><path class="d" d="M682.13,204.05c8.15-3.79,19.38-8.1,31-9.74h0L716,154.73a233.76,233.76,0,0,0-31.81,4.75l-10.62,37.26A6.21,6.21,0,0,0,682.13,204.05Z"/><path class="g" d="M591.8,218.14c-1.7,9.87-1.45,22.09,7.36,29.2a5.9,5.9,0,0,1-2.09,10.32c-12.24,3.32-30.58,4-44.24-14.53a5.9,5.9,0,0,1,.94-8c5.75-4.81,16.92-14,28.63-22.67A5.93,5.93,0,0,1,591.8,218.14Z"/><path class="g" d="M870.17,242.28c11.73-.7,30-4.89,40.93-22.85a3.37,3.37,0,0,0-1.06-4.59c-6-3.88-21.07-13.43-32.45-19.75a3.39,3.39,0,0,0-4.75,4.37c4.56,9.85,8.29,25.34-5.1,36.88A3.38,3.38,0,0,0,870.17,242.28Z"/><path class="c" d="M806.79,56.46c36.85,36,61.59,71.89,89.66,104.65a3.41,3.41,0,0,0,6-2.42c-2.22-47.44-48.66-98.42-92.5-108A3.4,3.4,0,0,0,806.79,56.46Z"/><path class="c" d="M560.76,161.09a3.55,3.55,0,0,0,6.32,1.77C584.16,141,638.39,70.66,628.41,69,620.28,67.64,553.61,97.51,560.76,161.09Z"/></svg>