<svg xmlns="http://www.w3.org/2000/svg" width="1262.35" height="2195.18" viewBox="0 0 1262.35 2195.18"><defs><style>.a{fill:none;}.b{fill:#13161c;}.c{fill:#324b79;}.d{fill:#39568d;}.e{fill:#29303d;}.f{fill:#414c61;}.g{fill:#97b1de;}.h{fill:#425f93;}</style></defs><title>hat c</title><rect class="a" width="1262.35" height="2195.18"/><ellipse class="b" cx="721.48" cy="34.47" rx="25.2" ry="17.35"/><path class="c" d="M703.53,30.2C575.17,43.62,533.87,118.63,533.47,244.27L629,201.78C630,174.32,638.21,69,703.53,30.2Z"/><path class="d" d="M729.72,28.14q-4.59.24-9,.66-8.84.52-17.16,1.4C638.21,69,630,174.32,629,201.78L720.7,161l96.93,27.63C807.7,73.25,755.29,38.36,729.72,28.14Z"/><path class="c" d="M729.72,28.14c25.57,10.22,78,45.11,87.91,160.46L927.7,220C925.46,63.8,811.87,23.79,729.72,28.14Z"/><path class="e" d="M533.47,244.27s86.06-91.4,202.35-90.24S927.7,220,927.7,220s-16.28,85.62-141.3,7.75c-38.3-23.86-81.59-15.67-118,11.92C561.38,320.64,533.47,244.27,533.47,244.27Z"/><path class="b" d="M922.51,215.88a196.6,196.6,0,0,1-10.93,17.23c-8.45,11.24-20.89,16.94-37,16.94-22.1,0-50.31-10.58-83.82-31.45a98.06,98.06,0,0,0-52.52-15.31c-25.08,0-51,9.56-74.87,27.65-16.82,12.73-32.61,22.18-46.92,28.09-12,5-23.1,7.47-33,7.47-13.22,0-24.29-4.47-32.9-13.29-2.7-2.78-8.32-10.66-11.1-14.87-4,3.73-6,5.93-6,5.93s27.91,76.37,134.9-4.62c36.44-27.59,79.73-35.78,118-11.92,125,77.87,141.3-7.75,141.3-7.75S925.93,218.46,922.51,215.88Z"/><path class="f" d="M591.8,218.14c-1.7,9.87-1.45,22.09,7.36,29.2a5.9,5.9,0,0,1-2.09,10.32c-12.24,3.32-30.58,4-44.24-14.53a5.9,5.9,0,0,1,.94-8c5.75-4.81,16.92-14,28.63-22.67A5.93,5.93,0,0,1,591.8,218.14Z"/><path class="f" d="M870.17,242.28c11.73-.7,30-4.89,40.93-22.85a3.37,3.37,0,0,0-1.06-4.59c-6-3.88-21.07-13.43-32.45-19.75a3.39,3.39,0,0,0-4.75,4.37c4.56,9.85,8.29,25.34-5.1,36.88A3.38,3.38,0,0,0,870.17,242.28Z"/><polygon class="g" points="703.23 75 743.47 75 724.41 113.12 703.23 75"/><path class="h" d="M806.79,56.46c36.85,36,61.59,71.89,89.66,104.65a3.41,3.41,0,0,0,6-2.42c-2.22-47.44-48.66-98.42-92.5-108A3.4,3.4,0,0,0,806.79,56.46Z"/><path class="h" d="M560.76,161.09a3.55,3.55,0,0,0,6.32,1.77C584.16,141,638.39,70.66,628.41,69,620.28,67.64,553.61,97.51,560.76,161.09Z"/></svg>