<svg xmlns="http://www.w3.org/2000/svg" xmlns:xlink="http://www.w3.org/1999/xlink" width="1262.35" height="2195.18" viewBox="0 0 1262.35 2195.18"><defs><style>.a{fill:none;}.b{fill:#2a4b54;}.c{clip-path:url(#a);}.d{fill:#162226;}.e{fill:#0b1417;}.f{fill:#244047;}.g{fill:#223d45;}.h{fill:#0e191c;}.i{fill:#ebebeb;}.j{fill:#1f2d30;}.k{fill:#74848a;}</style><clipPath id="a"><path class="a" d="M1004.44,745c-8.28-16.52-17.25-34.45-26.05-52.14,1.69-1.72,3.32-3.44,4.84-5.14-19.88-40-46.58-79.34-53.41-95-16.52-37.75-21.31-47.33-30.3-55.09a16.54,16.54,0,0,0-5-3.14c-7.74-2.84-74.45-18.77-107.69-26.65a2.47,2.47,0,0,0-.08-.41c-2.52-9.72-15.77-19.71-21.86-23.87-1.87-1.28-3.08-2-3.08-2l-1.47,29.65a72.13,72.13,0,0,1-5.26,10.51c-3.46,7.75-12.08,18.63-17.86,27.63l-4.58,3.27-3.09,2.57-1.62-.93c-10.66-9.93-18.67-25.2-23.21-35.36-2.78-6.21-4.26-10.52-4.26-10.52L699,478.76s-2.67,1.63-6.27,4.28c-6.66,4.91-16.53,13.36-18.67,21.61-.21.79-.48,3.87-.78,8.2-28.29,5.75-76.6,15.89-102,23.09-2.67.76-5.45,3.14-8.29,6.8-8.91,11.5-20.15,35.3-30.18,85-6.45,32-22.18,70.34-27.53,105.88a93.22,93.22,0,0,0,8.63,5.28C503.73,807.08,496.76,867,496.76,867c1.2,1.72-16.21,41.92-30.7,92.12-18.65,64.57-37.75,144.06-41.73,167.11v0c-.06.34-.11.66-.16,1l0,.11c-.05.3-.1.59-.14.87l0,.11c-.12.79-.22,1.49-.28,2.07l0,.21q0,.19,0,.36l0,.29c0,.1,0,.19,0,.27s0,.19,0,.27v.42s0,.1,0,.15a.76.76,0,0,0,0,.16.19.19,0,0,0,0,.08.22.22,0,0,0,.07.13c15.89,11.65,26.48,14.83,47.65,12.71a.83.83,0,0,0,.28-.09l.09-.05.25-.17.09-.08a3.44,3.44,0,0,0,.34-.33l.17-.19.21-.25c.07-.09.15-.18.22-.28l.14-.19c.2-.26.4-.55.61-.87l0,0c10.86-16.45,46.54-109.19,66.4-166.86,22.23-64.59,11.64-92.12,11.64-92.12l40.78-122,1,.12,7.94-26.82c1.65,25.11,14.88,102.82,20.53,187.52.47,7.1-3.27,13.5-5.65,17.65-3.45,6,7.29,13.92,8,14.19,67.58,26.14,122.49,29.23,161.83,25.09,6-10.6,20.82-27.74,23.78-30.7,1.94-1.94,30.13-16,30.13-16l-7.29-14.09s-42.76,27.21-45.19,18,27.7-25.76,35.47-30.61,16.52-6.81,18.47-3.89c1,1.44,3.7,6.91,6.22,12.08-3.05-71.21,22.71-222.48,22.71-222.48l7.41-71.65-6.35,65,7.3,5.85,27.64,49.32c1.38-.46,2.78-1,4.19-1.51l54.4,79.75a532.13,532.13,0,0,0-35.42,47.17c-14.35,21.87-27.36,45.57-32.5,55.73l-.07.14-.36.73-.08.16-.5,1L896,924c-.06.14-.13.26-.18.38s-.18.38-.26.54-.08.17-.11.26-.14.29-.19.42,0,.12-.08.17-.12.3-.17.42v0c0,.11-.07.19-.09.26l0,.06a.32.32,0,0,0,0,.13c14.82,25.06,36,33.53,36,33.53s.06,0,.13,0l.06,0,.28-.22,0,0c.15-.12.33-.27.53-.46l0,0c9.15-8.05,75.31-74.82,106.93-130.48C1041.22,824.77,1011.12,758.33,1004.44,745ZM732.88,557.12l-.15-.09.38-.39C733,556.8,733,557,732.88,557.12Z"/></clipPath></defs><title>man shirt G</title><path class="b" d="M845.49,950.93,844,949l-19.44,8.75c-5.09,5.28-11.66,12.76-18.17,19q5.39-1,10.21-2.14c5.48-6.4,10.67-11.69,10.88-12.51C828,960.17,845.49,950.93,845.49,950.93Z"/><g class="c"><path class="d" d="M1004.44,745c-9.35-18.65-19.58-39.12-29.46-59-18.85,21-42.5,38.89-68,47.41l.59.88,57.53,84.36a532.13,532.13,0,0,0-35.42,47.17C911,894.35,894.52,926,894.88,926.65c14.82,25.06,36,33.53,36,33.53.55.76,74.12-71.65,108-131.3C1041.22,824.77,1011.12,758.33,1004.44,745Z"/><path class="e" d="M972.17,811.94s17.54-61.24,39.18-36C1024.06,790.76,972.17,811.94,972.17,811.94Z"/><path class="e" d="M976.41,816.18s37.06-20.12,40.24-6.36S976.41,816.18,976.41,816.18Z"/><path class="d" d="M593.35,759.7c-27.19-5-56-11.42-78.55-27.16-10.64,70.79-18,134.46-18,134.46,1.2,1.72-16.21,41.92-30.7,92.12-21.89,75.79-44.41,172.14-42.36,173.64,15.89,11.65,26.48,14.83,47.65,12.71,6.19-.62,47-106.13,68.83-169.41,22.23-64.59,11.64-92.12,11.64-92.12Z"/><path class="b" d="M601.53,735.24l-7.35-88.48c-15.25-21.16-27.1-80.93-31.24-104-8.91,11.5-20.15,35.3-30.18,85-6.45,32-22.18,70.34-27.53,105.88,22.59,15.74,63.42,25.65,88.36,28.47Z"/><path class="b" d="M425.54,1119.8c-1.58,7.93-2.28,12.64-1.84,13,15.89,11.65,26.48,14.83,47.65,12.71,1.1-.11,3.28-3.52,6.25-9.39C459.16,1137,440,1131.56,425.54,1119.8Z"/><rect class="a" width="1262.35" height="2195.18"/><path class="b" d="M899.12,540.88l.4-3.21a16.54,16.54,0,0,0-5-3.14c-10.35-3.8-126.35-31.06-126.35-31.06L761.35,511c-.85,5.08-20.61,35.14-28.47,46.12l-4.94-2.83c-14.82-10.58-32.47-45.88-32.47-45.88s-86.82,16.94-124.24,27.53c-2.67.76-5.45,3.14-8.29,6.8,4.14,23.09,16,82.86,31.24,104l7.35,88.48c1.65,25.11,14.88,102.82,20.53,187.52.47,7.1-3.27,13.5-5.65,17.65-3.45,6,7.29,13.92,8,14.19,144.64,55.95,231.3,6.28,231.3,6.28,1.42,0,5.42-6.38,4.24-9.88-3.71-11-9.18-12.71-9.18-12.71-13.41-51.53,19.77-246.35,19.77-246.35l7.41-71.65Z"/><path class="b" d="M983.23,687.71c-19.88-40-46.58-79.34-53.41-95-16.52-37.75-21.31-47.33-30.3-55.09l-.4,3.21-21.18,79.41-6.35,65,7.3,5.85,27.64,49.32C932,731.89,964.39,708.73,983.23,687.71Z"/><path class="b" d="M899.7,916.74c-3.15,6-4.94,9.7-4.82,9.91,14.82,25.06,36,33.53,36,33.53s2.51-2,6.57-6C922.2,944.61,909.93,931,899.7,916.74Z"/><path class="f" d="M628.87,938.16a6.78,6.78,0,0,0,3.39,8.93,314.72,314.72,0,0,0,111.21,25.79c30.15,1.23,64.6-4.69,98.16-15.49a6.78,6.78,0,0,0,3.61-10.12,25,25,0,0,1-3.65-11.8c-1.33-18.51.1-51.59,1.36-73.84a6.75,6.75,0,0,0-12-4.6c-30.51,38.17-108.55,118.07-189.3,58.35a6.75,6.75,0,0,0-10.73,6.13C631.59,928.41,630.82,933.6,628.87,938.16Z"/><path class="g" d="M564.53,555.71s15.88,70.94,32.82,90l4.18,89.53-5.61,16.13L591,648.88S569.82,601.24,564.53,555.71Z"/><polygon class="g" points="899.12 540.88 877.94 620.29 871.59 685.24 878.89 691.09 881.46 694.97 883.23 626.65 899.12 540.88"/><polygon class="h" points="747.17 542.29 732.65 552.65 718 564.88 718 641.59 723.65 641.59 723.65 566.29 747.17 542.29"/><circle class="i" cx="732.12" cy="574.29" r="6.12"/><circle class="i" cx="732.59" cy="618.53" r="6.12"/><path class="h" d="M764.9,483.6c-1.87-1.28-3.08-2-3.08-2l-1.47,29.65a72.13,72.13,0,0,1-5.26,10.51c5-4.32,11.69-7.24,18.51-6.39A46,46,0,0,0,764.9,483.6Z"/><path class="j" d="M786.76,507.47c-2.52-9.72-15.77-19.71-21.86-23.87a46,46,0,0,1,8.7,31.76,19,19,0,0,1,3.63.82,26.32,26.32,0,0,1,10.91,9.13C787.62,516.24,787.1,508.78,786.76,507.47Z"/><path class="h" d="M755.09,521.75c-4.54,10.17-18,25.72-22.21,35.37,0,0,16.24-9.88,21.41-9.41a35,35,0,0,1,7.26,2.44c6.27-11.12,11.06-23,12.05-34.79C766.78,514.51,760.14,517.43,755.09,521.75Z"/><path class="j" d="M788.14,525.31a26.32,26.32,0,0,0-10.91-9.13,19,19,0,0,0-3.63-.82c-1,11.8-5.78,23.67-12.05,34.79,10.74,4.44,28.51,13.32,28.51,13.32S789.09,541.75,788.14,525.31Z"/><path class="j" d="M687.59,494.35A49.92,49.92,0,0,1,692.73,483c-6.66,4.91-16.53,13.36-18.67,21.61-.34,1.3-.86,8.77-1.38,17.84a26.34,26.34,0,0,1,10.91-9.14,19.53,19.53,0,0,1,1.92-.52A45.47,45.47,0,0,1,687.59,494.35Z"/><path class="h" d="M704.73,518.93c-2.78-6.21-4.26-10.52-4.26-10.52L699,478.76s-2.67,1.63-6.27,4.28a49.92,49.92,0,0,0-5.14,11.31,45.47,45.47,0,0,0-2.08,18.48C692.78,511.21,699.26,514.25,704.73,518.93Z"/><path class="j" d="M683.59,513.35a26.34,26.34,0,0,0-10.91,9.14c-.94,16.43-1.92,38.16-1.92,38.16s13.76-6.88,24.38-11.55c-3.59-12.14-8.62-24-9.63-36.27A19.53,19.53,0,0,0,683.59,513.35Z"/><path class="h" d="M704.73,518.93c-5.47-4.68-12-7.72-19.22-6.1,1,12.27,6,24.13,9.63,36.27,5.22-2.3,9.68-4.06,11.39-4.22,5.17-.47,21.41,9.41,21.41,9.41C717.28,544.36,709.27,529.09,704.73,518.93Z"/><path class="e" d="M531.36,895.19a11.92,11.92,0,0,0-5.48-20c-5-1.25-9.58-2.1-11.86-1.72-17,2.83-5.29,36,2.12,33.88C519.48,906.4,525.62,900.92,531.36,895.19Z"/><path class="g" d="M586.06,652.41s-25.41-32.47-28.24-43.76-12.7,12.7-7.06,24S586.06,652.41,586.06,652.41Z"/><path class="g" d="M890.41,644.5s18-37.11,18.34-48.74,15.1,9.72,12,22S890.41,644.5,890.41,644.5Z"/><circle class="k" cx="817.51" cy="650.47" r="15.35"/><rect class="j" x="790.06" y="647.21" width="52.11" height="7.44"/></g><rect class="a" width="1262.35" height="2195.18"/></svg>