<svg xmlns="http://www.w3.org/2000/svg" xmlns:xlink="http://www.w3.org/1999/xlink" width="1262.35" height="2195.18" viewBox="0 0 1262.35 2195.18"><defs><style>.a{fill:none;}.b{clip-path:url(#a);}.c{fill:#78426d;}.d{fill:#f0f0f0;}.e{fill:#c7c7c7;}.f{fill:#592d50;}.g{fill:#66385d;}.h{fill:#ff5040;}</style><clipPath id="a"><path class="a" d="M907.59,734.29l2.56,3.76a263.65,263.65,0,0,0,72.56-56c-1.11-2.17-2-3.56-2.88-5.1s-2-3.39-2.77-4.89c-2.5-4.74-6.8-13.74-9.58-18.93-9.24-17.27-1.94-4.32-11.77-21.64C937.83,600,904,541.56,899.52,537.67a16.54,16.54,0,0,0-5-3.14l-.51-.18-.19-.06-.41-.13-.26-.07-.44-.14-.3-.08-.51-.15-.3-.08-.66-.18-.25-.06-1-.26-.23-.06-.85-.21-.38-.09-.77-.19-.44-.11-.83-.2-.42-.1-1-.23-.36-.08-1.29-.3-.11,0-1.45-.33-.42-.1-1.12-.25-.51-.12-1.07-.24-.54-.12-1.19-.26-.45-.1-1.48-.33-.21,0-1.77-.39-.33-.07-1.5-.33-.45-.09-1.42-.31-.52-.11-1.38-.3-.53-.11-1.45-.3-.52-.12-1.86-.39h0l-2.06-.43-.2,0-1.84-.39-.37-.08-1.71-.35-.41-.09-1.62-.33-.54-.11-6.29-1.3-.35-.07-1.69-.35-.7-.14-1.45-.29-.53-.11-1.63-.33-.54-.11-1.66-.34-.41-.08-4.14-.84-.58-.11-1.35-.28-.81-.16-1.42-.28-.41-.08-1.72-.35-.33-.06-4-.8-.12,0-1.77-.36-.32-.06-1.74-.35h-.07l-1.46-.29L818,518l-1.05-.21-.65-.13-4.85-1-.59-.11-1.12-.22-.41-.08-2.81-.55h0l-.22,0-1.71-.34-1.9-.37-.49-.1-.25,0-.81-.16h0l-2.7-.52-.24,0-.65-.13h0l-.67-.13-.09,0-.87-.17-.34-.06c-33.41,50.35-101.65,38.59-124.51.12l-.09,0h0l-.67.12-.1,0-.42.08-.21,0-5.24,1h0l-4.08.79h0l-3.84.75-.1,0-4.25.85-.16,0-4.59.93-.26,0-2.23.45-.2,0-2.38.49-.47.09-2.18.45-.3.07-2.5.51-.5.11-2.21.46-.42.09-2.58.54-.52.11-2.19.47-.59.12-2.56.55-.68.15-2.12.46-.66.14-2.63.57-.63.14-2.15.48-.75.16-2.66.59-.56.13-2.26.51-.7.16-2.71.61-.49.11-2.31.54-.71.16-2.7.63-.45.11-2.33.55-.71.17-2.66.63-.42.11-2.31.56-.69.17-2.62.65-.36.08-2.3.58-.67.17-2.55.66L582,533l-2.3.6-.64.16-2.48.66-.1,0-2.32.63-.61.17-2.36.66c-2.67.76-5.45,3.14-8.29,6.8-7.79,10-29.61,47.54-49.12,154.92v0c-.34,1.89-.69,3.82-1,5.76-.13.76-.27,1.52-.4,2.28s-.23,1.3-.34,1.95c-.27,1.54-.54,3.09-.8,4.66,27.24,14.72,53.35,32.87,84.56,36.49l.12,2.54.84-2.42.18,0,4.59-13.73c1.65,25.11,14.88,102.82,20.53,187.52.47,7.1-3.27,13.5-5.65,17.65-3.45,6,7.29,13.92,8,14.19,67.58,26.14,122.49,29.23,161.83,25.09,6-10.6,20.82-27.74,23.78-30.7,1.94-1.94,30.13-16,30.13-16l-7.29-14.09s-42.76,27.21-45.19,18,27.7-25.76,35.47-30.61,16.52-6.81,18.47-3.89c1,1.44,3.7,6.91,6.22,12.08-3.05-71.21,22.71-222.48,22.71-222.48l.76-7.39h0l6.65-64.26-6.35,65,7.3,5.85,2.57,3.88,21,31.67-.25.13Z"/></clipPath></defs><title>man shirt K</title><g class="b"><path class="c" d="M601.53,735.24l-7.35-88.48c-15.25-21.16-27.1-80.93-31.24-104-8.13,10.5-31.57,50.91-51.7,169.6,27.57,14.9,54,33.32,85.7,36.63Z"/><path class="d" d="M899.12,540.88l.4-3.21a16.54,16.54,0,0,0-5-3.14c-10.35-3.8-99.06-20.94-99.06-20.94-33.41,50.35-101.65,38.59-124.51.12,0,0-62.31,11.64-99.73,22.23-2.67.76-5.45,3.14-8.29,6.8,4.14,23.09,16,82.86,31.24,104l7.35,88.48c1.65,25.11,14.88,102.82,20.53,187.52.47,7.1-3.27,13.5-5.65,17.65-3.45,6,7.29,13.92,8,14.19,144.64,55.95,231.3,6.28,231.3,6.28,1.42,0,5.42-6.38,4.24-9.88-3.71-11-9.18-12.71-9.18-12.71-13.41-51.53,19.77-246.35,19.77-246.35l7.41-71.65Z"/><path class="c" d="M601.06,675.73a218.83,218.83,0,0,1,83.82-137.67h0l-24.74-22.27c-19.5,3.82-61.08,12.28-88.91,20.15-2.67.76-5.45,3.14-8.29,6.8,4.14,23.09,16,82.86,31.24,104l3.37,40.65,1.21,1.71Z"/><path class="c" d="M899.12,540.88l.4-3.21a16.54,16.54,0,0,0-5-3.14c-8.78-3.22-73.89-16-93.49-19.86l-20.16,23.39h0a440.44,440.44,0,0,1,80.59,123.82l9.82,22.67,6.65-64.26Z"/><path class="c" d="M982.71,682.05c-2.08-4-3.24-5.4-5.65-10s-6.8-13.74-9.58-18.93c-9.24-17.27-1.94-4.32-11.77-21.64C937.83,600,904,541.56,899.52,537.67l-.4,3.21-21.18,79.41-6.35,65,7.3,5.85,28.7,43.2,2.56,3.76A263.65,263.65,0,0,0,982.71,682.05Z"/><path class="d" d="M920.72,660l14,19.22a280.72,280.72,0,0,0,32.72-26.11c-3.76-7-7.72-14.29-11.77-21.64A255.7,255.7,0,0,1,920.72,660Z"/><path class="e" d="M628.87,938.16a6.78,6.78,0,0,0,3.39,8.93,314.72,314.72,0,0,0,111.21,25.79c30.15,1.23,64.6-4.69,98.16-15.49a6.78,6.78,0,0,0,3.61-10.12,25,25,0,0,1-3.65-11.8c-1.33-18.51.1-51.59,1.36-73.84a6.75,6.75,0,0,0-12-4.6c-30.51,38.17-108.55,118.07-189.3,58.35a6.75,6.75,0,0,0-10.73,6.13C631.59,928.41,630.82,933.6,628.87,938.16Z"/><path class="f" d="M564.53,555.71s15.88,70.94,32.82,90l4.18,89.53-5.61,16.13L591,648.88S569.82,601.24,564.53,555.71Z"/><polygon class="f" points="899.12 540.88 877.94 620.29 871.59 685.24 878.89 691.09 881.46 694.97 883.23 626.65 899.12 540.88"/><path d="M774.59,551.35c15.55-8.15,29.46-19.59,38.47-34.32-10.46-2.06-17.59-3.44-17.59-3.44-33.41,50.35-101.65,38.59-124.51.12,0,0-7.83,1.46-19.6,3.82C681.56,553.5,730.59,574.27,774.59,551.35Z"/><path d="M650.68,668.3c11.44-1.36,9.34,8.45,6.59,13.14,15.91,10.38-5.38,17-15.32,16.3-1.89.32-3.32-26.53-4-27.18C637.15,669.19,650.33,668.67,650.68,668.3Zm4.27,6.59c-.49-4.61-6.6-2.62-9.64-2.39-1.44-.09.45,7,.22,7.55C648.42,681.43,656.32,680.15,655,674.89Zm-1.7,17.93c9.39-3.49,1.21-12.22-6.52-8.7-1.46-.15.61,8.19.37,8.75C647.08,694.27,652.63,692.62,653.25,692.82Z"/><path d="M699.61,665.37c1.46,1.09,23.76-3,17.78,3.51-.49.37-12.54-.79-12.07.69.32.63-.74,7.74.69,7.53,2.19.47,13.56-1.89,9.26,3.5-9.54.16-10.71-2.32-9.95,8.73.2,2.06,12.74-.68,12.94,1.38,3,5.68-17.19,1.7-18.65,2.82C698.31,693.06,698.31,665.85,699.61,665.37Z"/><path d="M763,672c1.56,4.3,9.79,2.83,12.75,6.34,8.27,11.25-7.2,18.5-16.87,14.13-8-8.46,8.18.28,10.91-3.79,7-11.61-15.13-5.7-13.39-16.56-1.24-9.78,23.68-9.64,19.34-2C772.13,668.88,763.79,666.57,763,672Z"/><path d="M821.39,669.89c-2.39-.53-9.93-.84-5.57-4.65,1,1.41,26.89,2,19.44,7.32-.68.19-7-2.08-7-.65-.68.52-3.44,24-5.21,23.39-.54-.47-5.91-.37-5.48-1.76C817.09,692.8,823.23,670,821.39,669.89Z"/><path d="M902.25,726.77l5.34,7.52,2.56,3.76a263.65,263.65,0,0,0,72.56-56c-1.46-2.85-4-6.86-5.65-10C956.29,695.07,929.19,712.12,902.25,726.77Z"/><path d="M513.82,697.66c-.87,4.76-1.73,9.64-2.58,14.68,27.57,14.9,54,33.32,85.7,36.63l4.43-13.26C569.7,729.61,540.7,714.67,513.82,697.66Z"/><path class="g" d="M587.83,649.59a200.89,200.89,0,0,1-20-27.53c-7-11.81-12.48-27.89-15-27.53-5.84.83-12.52,30.87-5.84,37.54S561.14,642.08,587.83,649.59Z"/><path class="g" d="M886.83,634.64a200.89,200.89,0,0,0,20-27.53c7-11.81,12.48-27.89,15-27.53,5.84.83,12.52,30.86,5.84,37.54S913.52,627.13,886.83,634.64Z"/></g><path class="h" d="M845.49,950.93,844,949l-19.44,8.75c-5.09,5.28-11.66,12.76-18.17,19q5.39-1,10.21-2.14c5.48-6.4,10.67-11.69,10.88-12.51C828,960.17,845.49,950.93,845.49,950.93Z"/><rect class="a" width="1262.35" height="2195.18"/></svg>