<svg xmlns="http://www.w3.org/2000/svg" width="1262.35" height="2195.18" viewBox="0 0 1262.35 2195.18"><title>1_men_hair_11</title><g id="Layer_2" data-name="Layer 2"><g id="Character_men01_hair_1-3" data-name="Character_men01_hair 1-3"><g id="_1_men_hair_11" data-name="1_men_hair_11"><path d="M575.69,307.55s10.32-2.43,19.57,9a377.66,377.66,0,0,1,2.16-42.38,201.34,201.34,0,0,0-28.52,7.47C571.58,307.53,575.69,307.55,575.69,307.55Z" fill="#fff"/><path d="M912.88,195.71c-6.66-41.16-61.23-105.89-122.82-116.47-50-8.61-134.54,8-143.22,46,0,0-80.19-31.23-80.19,98,0,27.43,1,45.93,2.25,58.41a201.34,201.34,0,0,1,28.52-7.47c3.71-34.51,13.65-78.51,40.17-84.83,0,0,5,36,63.92,19.06s85.61-17.25,114.31-19.06c0,0,51,50,52.76,126.66,0,0,15.84-13.32,23.59-6.49,8-13.29,6.36-104.75-2.31-130.76Z" fill="#fff"/><path d="M595.26,316.56s-2.14-116.62,42.33-127.21c0,0,5,36,63.92,19.06s85.61-17.25,114.31-19.06c0,0,51,50,52.76,126.66,0,0,15.84-13.32,23.59-6.49,8-13.29,6.36-104.75-2.31-130.76l23,17c-6.66-41.16-61.23-105.89-122.82-116.47-50-8.61-134.54,8-143.22,46,0,0-80.19-31.23-80.19,98,0,84.28,9,84.31,9,84.31S586,305.12,595.26,316.56Z" fill="#eaeaea"/><path d="M840.61,197.12c6.08-.71,36.4,16.23,36.4,16.23-11.87-29.64-36.4-43.76-36.4-43.76-41.92-18.35-134.55,24.7-167,22.59s-26.75-66.94-26.75-66.94c-7.92,15.28-9.25,38.78-9.25,38.78-62.49,27.83-61,106.88-55.74,143.71,3.75.8,8.72,3,13.41,8.83,0,0-2.14-116.62,42.33-127.21,0,0,5,36,63.92,19.06s85.61-17.25,114.31-19.06c0,0,51,50,52.76,126.66a51.46,51.46,0,0,1,9-5.88C882.81,241.49,840.61,197.12,840.61,197.12Z" fill="#bfbfbf"/><path d="M717.63,157.59s105.51-73.06,160.44,21.17C878.07,178.76,831.3,125,717.63,157.59Z" fill="#bfbfbf"/><path d="M573,221.12s18.94-60.89,58.18-66.44c0,0-16.89-18.93-39.24,5.55S573,221.12,573,221.12Z" fill="#bfbfbf"/><rect width="1262.35" height="2195.18" fill="none"/></g></g></g></svg>