<svg xmlns="http://www.w3.org/2000/svg" width="1262.35" height="2195.18" viewBox="0 0 1262.35 2195.18"><title>1_beard_2</title><g id="Layer_2" data-name="Layer 2"><g id="accessories"><g id="_1_beard_2" data-name="1_beard_2"><path d="M743.51,481.17H724.37c-39.93-4.37-73.84-29.44-80.29-48.17-1.23,4.91-1.59,9.54-.71,13.54,4.14,18.92,39.29,46.06,81,50.63h19.14c41.71-4.57,76.85-31.71,81-50.63.88-4,.52-8.63-.71-13.54C817.35,451.73,783.44,476.8,743.51,481.17Z" fill="#6e3d12"/><path d="M784.45,378.74c-2.87-1.27-6.81-.93-11.22.36-8.81,2.59-19.51,9-27.37,14.32a2.43,2.43,0,0,0,1.83,4.4c9.12-2.17,20.84-4.21,27.23-2.34,6.92,2,11.75,15.7,14.7,26.75.61,2.29,1.15,4.48,1.6,6.42a12.54,12.54,0,0,1-4.71,12.93c-7.75,5.69-20.64,16.84-28.87,16.28-12.4-.83-6.67-8.8-6.67-8.8-4.35,1.52-11.31,2.26-17,2.66-5.72-.4-12.68-1.14-17-2.66,0,0,5.73,8-6.67,8.8-8.23.56-21.13-10.59-28.87-16.28a12.54,12.54,0,0,1-4.71-12.93c.45-1.94,1-4.13,1.6-6.42,3-11.05,7.78-24.73,14.7-26.75,6.39-1.87,18.11.17,27.23,2.34a2.43,2.43,0,0,0,1.83-4.4c-7.86-5.29-18.56-11.73-27.37-14.32-4.41-1.29-8.35-1.63-11.22-.36-10.9,4.78-33.86,32.42-39.35,54.26,6.45,18.73,40.36,43.8,80.29,48.17h19.14c39.93-4.37,73.84-29.44,80.29-48.17C818.31,411.16,795.35,383.52,784.45,378.74Z" fill="#a35c1c"/><rect width="1262.35" height="2195.18" fill="none"/></g></g></g></svg>