<svg xmlns="http://www.w3.org/2000/svg" width="1262.35" height="2195.18" viewBox="0 0 1262.35 2195.18"><defs><style>.a{fill:none;}.b{fill:#594737;}.c{fill:#80684f;}.d{fill:#a88867;}.e{fill:#6e5844;}</style></defs><title>man hair E</title><rect class="a" width="1262.35" height="2195.18"/><path class="b" d="M805.94,202.06s-50.82-12.71-86.82,5.29c0,0,32.82-42.35,51.88-37.06S805.94,202.06,805.94,202.06Z"/><path class="b" d="M805.94,202.06s43.41,26.47,50.82,47.65l-20.11-60.36Z"/><path class="c" d="M585.7,306.88l26.48,68.83s3.17-124.95,44.47-175.77c0,0-19.86,58.54-22.24,100.59,0,0,67.76-106.94,144-119.65,0,0,16.94,9.53,27.53,21.18,0,0,19.06-7.77,24-7.06,2.28.33,14.22,26.15,21.88,54.35,10.3,37.9,15.45,67.39,15.45,67.39a24.63,24.63,0,0,1,17.37-5.2,29.43,29.43,0,0,1,14.42,5.64s6.23-25.36,5.68-64.18C904,198.86,894,123.31,870.53,96.18,830.29,49.59,742.76,11.47,631.08,51.79l21.33,14.74S569.12,81.35,552.17,193.59s28.24,210.35,28.24,210.35S580.41,355,585.7,306.88Z"/><path class="d" d="M638.29,82.76s33.88,60.36,88.94,79.42c0,0-66.35-2.47-117.88-61.77C609.35,100.41,624.53,89.12,638.29,82.76Z"/><path class="d" d="M799.59,167.12s65.64-27.53,74.11-46.59c0,0,10.59,14.82,11.65,26.47C885.35,147,845.12,171.35,799.59,167.12Z"/><path class="a" d="M634.41,300.53c2.38-42,22.24-100.59,22.24-100.59a94.33,94.33,0,0,0-6.34,8.83C641,232.35,632.33,264.65,634.41,300.53Z"/><path class="a" d="M609.67,369.19l-24-62.31c.25,1.54.51,3.07.77,4.6,8.95,33.88,19.41,69.59,25.71,78C612.18,389.47,610.73,381.89,609.67,369.19Z"/><path class="a" d="M778.41,180.88A92.09,92.09,0,0,0,762.75,185C767.81,183.42,773,182,778.41,180.88Z"/><path class="e" d="M762.75,185C655.59,195.24,634.41,300.53,634.41,300.53S693,209.83,762.75,185Z"/><path class="e" d="M569.82,244.41c-10.59,51.88,8.47,154.24,10.59,159.53,0,0,5.65-52.23,6.06-92.46C577.36,277,569.82,244.41,569.82,244.41Z"/><path class="e" d="M656.65,199.94c9.67-24.44,13.76-30.7,13.76-30.7-63.73,66.14-64.15,159.31-60.74,200l2.51,6.52S621.36,255,656.65,199.94Z"/><path class="e" d="M866.59,188.35c7.44,40,19.23,82.48,18,123.19,4.35-.52,8.12,1.21,14.42,5.64A292,292,0,0,0,904.74,253C881.41,242.52,874.83,211.25,866.59,188.35Z"/><path class="e" d="M632.65,51l-1.57.79,21.33,14.74h0a561.67,561.67,0,0,1,65-13.1l12.28-1.72C699.57,45.85,651.44,46.82,632.65,51Z"/></svg>