<svg xmlns="http://www.w3.org/2000/svg" xmlns:xlink="http://www.w3.org/1999/xlink" width="1262.35" height="2195.18" viewBox="0 0 1262.35 2195.18"><defs><style>.a{fill:none;}.b{clip-path:url(#a);}.c{fill:#c24136;}.d{fill:#ad291e;}.e{fill:#8f2219;}.f{fill:#bd9895;}</style><clipPath id="a"><path class="a" d="M863.7,986.53l-.24-1.15c-1.23-.26-1.94-.43-1.94-.43s-35.47,33-39.85,24.79,34.51-39.37,34.51-41.31-2.92-3.4-2.92-3.4l-14.09,5.83s-28.19,35-34.5,27.7c-4-4.67,6.23-17.48,14.29-26.62-3.29.79-6.57,1.5-9.83,2.15a96.72,96.72,0,0,1-11.75,10.38c-6.74,4.76-13,5.13-13.61,2.43-.41-1.78,1.17-5.24,3.75-9.38q-7.15.83-14.15,1.28-5.22.33-10.33.46c-1.71,0-3.4.08-5.09.09s-3.37,0-5,0-3.33,0-5-.09c-4.48-.11-8.88-.34-13.2-.64a.43.43,0,0,1,.26-.09c2.82,0-7.06-.71-7.06-.71v.24a314.93,314.93,0,0,1-36.83-5.7l-2.5-.54-.87-.2c-3.06-.7-6-1.41-8.93-2.15-6.38-1.64-12.33-3.37-17.78-5.1-2.1-.67-4.14-1.34-6.09-2q-4.41-1.5-8.28-2.94c-3.43-1.29-6.55-2.52-9.31-3.66-9.67-4-15.05-6.88-15.05-6.88-.55,1.16-1.08,2.26-1.59,3.35C617,960,611.35,972.49,608.65,979c-5.2,11.51-7.82,25.53-10.12,40.47a494.08,494.08,0,0,0-5.41,57.88c-1.81,76.4-9.89,387.22-10.59,414.36,27.84,15.23,58.88,16,88.94,12.7,17-98.86,60.59-390.53,62.35-383.29,1.7,7,63.42,290.84,85.88,385.41l1.78.28h0q2.88.45,5.85.73h0c1,.09,1.94.16,2.93.23h.07c1,.07,2,.12,3,.15h0c26.6,1,56.9-7.3,79.52-18.33C895.39,1238.52,871.22,1051.8,863.7,986.53Z"/></clipPath></defs><title>man short pant D</title><rect class="a" width="1262.35" height="2195.18"/><g class="b"><path class="c" d="M863.7,986.53c-4.62-18.39-6.83-22.11-8-26.35-121,49-233.41-11.3-233.41-11.3-4.1,8.51-6.59,14.47-13.64,30.12-5.2,11.51-7.82,25.53-10.12,40.47a494.08,494.08,0,0,0-5.41,57.88c-1.81,76.4-9.89,387.22-10.59,414.36,27.84,15.23,58.88,16,88.94,12.7,17-98.86,60.59-390.53,62.35-383.29,1.7,7,63.42,290.84,85.88,385.41,29.33,5.18,66.57-4,93.18-16.94C895.39,1238.52,871.22,1051.8,863.7,986.53Z"/><path class="d" d="M733.8,1118l24.08-12.55s2.17-118.58.79-122.82-25.41-.17-25.41-.17Z"/><path class="d" d="M761.93,1109.29a2,2,0,1,0-3.91.83c.71,3.37,68.16,320.14,86.64,397.68q2-.1,4.05-.27C830.49,1431.31,762.64,1112.66,761.93,1109.29Z"/><path class="d" d="M608.06,1035.05c.07,4-12.27,381.47-14.52,461.88,1.33.54,2.66,1,4,1.54,2.29-77.61,14.56-462.56,14.52-463.57Z"/><path class="d" d="M840.17,971.87l-4,4.21c6.15,49.24,22.14,74.25,35.43,86.83-.38-3.69-.86-7.31-1.18-10.9C844.5,1022,840.17,971.87,840.17,971.87Z"/><path class="d" d="M635.19,976.86l-7-4.28c-4.11,31.19-17.13,52.43-30,66.27-.69,4.73-1.68,9.26-2.65,13.8C629.26,1020.07,635.19,976.86,635.19,976.86Z"/><path class="a" d="M819.7,1506.53l1.78.28c-6.07-26.31-30.86-133.71-52.77-228.53C787.23,1363,808.42,1459,819.7,1506.53Z"/><path class="d" d="M747.88,1123.75l55.37-47.65-70.15,41.55a.49.49,0,0,1,.7.36c.84,3.47,16.56,76.31,34.91,160.27,21.91,94.82,46.7,202.22,52.77,228.53a99.45,99.45,0,0,0,11.88,1.11C808.17,1424.64,747.88,1123.75,747.88,1123.75Z"/><path class="d" d="M863.7,986.53c-3.31-16-6.22-20.71-8-26.35-121,49-233.41-11.3-233.41-11.3C619,955.8,611.78,971.44,608.65,979,641.67,994.47,776.17,1027.47,863.7,986.53Z"/><path class="e" d="M732.88,1006.06s-.71-27.53,2.12-27.53-7.06-.71-7.06-.71-3.53,122.12,5.88,143.3Z"/><circle class="f" cx="745.88" cy="994.94" r="7.76"/><path class="c" d="M678.8,969.47c-1.92,9.45-3.27,18.89-4.26,28.34,4.48.86,9.1,1.68,13.83,2.45,1-9.26,2.22-18.52,3.31-27.77C687.21,971.54,682.92,970.52,678.8,969.47Z"/><path class="c" d="M795.05,976.54c.71,9.17,2.12,18.34,3.36,27.52q5.85-.7,11.63-1.64c-1.13-9.29-2-18.58-3.2-27.86Q800.9,975.69,795.05,976.54Z"/></g></svg>