<svg xmlns="http://www.w3.org/2000/svg" xmlns:xlink="http://www.w3.org/1999/xlink" width="1262.35" height="2195.18" viewBox="0 0 1262.35 2195.18"><defs><style>.a{fill:none;}.b{clip-path:url(#a);}.c{fill:#545245;}.d{fill:#454339;}.e{fill:#2e2e2e;}.f{fill:#403e35;}</style><clipPath id="a"><path class="a" d="M990,1998.13c-.22-.59-.44-1.2-.67-1.84-.07-.19-.14-.39-.2-.58-.17-.47-.34-.94-.5-1.44-.08-.21-.15-.44-.22-.66-.17-.5-.33-1-.5-1.52l-.21-.67c-.18-.56-.36-1.12-.53-1.7-.06-.2-.12-.4-.19-.6-.19-.65-.39-1.3-.58-2,0-.15-.09-.3-.14-.45-.22-.79-.45-1.59-.68-2.41l-.05-.15q-.76-2.76-1.56-5.79c-1.8-6.89-3.68-14.82-5.61-23.64h0c-.28-1.25-.55-2.53-.83-3.82q-1.34-6.18-2.69-12.86-.79-3.9-1.6-8c-1.61-8.11-3.24-16.7-4.89-25.67q-1.25-6.74-2.5-13.75c-.56-3.11-1.11-6.27-1.67-9.46-1.68-9.56-3.38-19.46-5.07-29.59-.57-3.38-1.13-6.78-1.7-10.21q-1.27-7.72-2.55-15.59-.84-5.23-1.69-10.54-.44-2.64-.85-5.3-.84-5.32-1.69-10.69c-3.09-19.65-6.15-39.67-9.12-59.57-.54-3.61-1.08-7.23-1.61-10.83-5.61-37.86-10.88-74.93-15.43-107.76-.44-3.13-.86-6.22-1.28-9.26-8.84-64-14.7-109.75-14.7-109.75-.25-3.76-.51-7.5-.76-11.22l-.24-3.49q-.28-4.09-.57-8.16c-.07-1.12-.15-2.24-.23-3.35q-.33-4.92-.68-9.79l-.09-1.32c-.26-3.64-.51-7.25-.77-10.86-.07-1.1-.15-2.19-.23-3.29-.18-2.58-.37-5.15-.55-7.71-.09-1.2-.17-2.4-.26-3.6q-.3-4.24-.6-8.44c-.06-.76-.11-1.52-.17-2.28-.25-3.51-.51-7-.76-10.47l-.21-2.83q-.28-3.9-.57-7.77c-.08-1.14-.17-2.27-.25-3.4q-.3-4.08-.6-8.11c-.06-.74-.11-1.5-.17-2.24-.26-3.43-.51-6.85-.77-10.24,0-.75-.11-1.49-.17-2.23q-.3-4-.61-8.06c-.07-1-.15-2-.22-3-.2-2.57-.4-5.14-.59-7.69-.07-.84-.13-1.69-.2-2.53q-.37-4.92-.75-9.78c-.06-.67-.11-1.34-.16-2l-.6-7.74c-.09-1.07-.17-2.14-.26-3.21q-.27-3.49-.54-7c-.08-.92-.15-1.85-.22-2.77-.25-3.16-.5-6.31-.75-9.43,0-.33-.06-.66-.08-1q-.35-4.2-.67-8.35l-.24-3q-.27-3.27-.53-6.52l-.24-3c-.23-2.72-.45-5.44-.67-8.14,0-.31,0-.64-.08-1q-.36-4.43-.72-8.79c-.08-1-.16-2-.25-2.93-.17-2-.33-4.08-.5-6.1-.09-1-.17-2-.26-3-.2-2.37-.39-4.74-.59-7.09,0-.52-.09-1-.13-1.58q-.36-4.22-.71-8.37c-.09-1-.17-1.94-.25-2.91q-.24-2.81-.48-5.58l-.27-3.2q-.27-3-.52-6c-.07-.74-.13-1.49-.19-2.22q-.35-3.94-.69-7.85c-.08-1-.16-1.93-.25-2.9-.15-1.75-.3-3.5-.46-5.23l-.27-3.13c-.16-1.78-.31-3.55-.47-5.31-.08-.87-.16-1.75-.23-2.62q-.33-3.71-.66-7.35c-.08-1-.17-1.91-.25-2.87-.15-1.6-.29-3.19-.43-4.76-.1-1.09-.2-2.16-.29-3.24-.14-1.51-.28-3-.41-4.52-.09-1-.19-2-.28-3.07q-.28-3.15-.57-6.26c-.11-1.14-.21-2.27-.31-3.4-.13-1.44-.27-2.87-.4-4.3l-.3-3.3c-.12-1.26-.23-2.51-.35-3.76s-.22-2.32-.32-3.47-.24-2.51-.35-3.76q-.27-2.84-.53-5.62l-.33-3.47c-.11-1.2-.22-2.4-.34-3.6l-.27-2.91-.36-3.8c-.08-.78-.15-1.56-.23-2.34q-.35-3.62-.68-7.16c-.08-.76-.15-1.52-.22-2.27-.13-1.28-.25-2.56-.37-3.83-.07-.75-.15-1.49-.22-2.23-.12-1.28-.25-2.55-.37-3.81-.07-.7-.13-1.39-.2-2.09-.43-4.34-.84-8.59-1.26-12.74,0-.58-.11-1.16-.17-1.74-.12-1.29-.25-2.56-.38-3.83,0-.45-.09-.9-.13-1.35q-.66-6.56-1.29-12.77l-.09-.94c-.14-1.38-.28-2.75-.42-4.1,0-.17,0-.33,0-.5l0-.24h0v-.07c-.44-4.31-.87-8.51-1.29-12.57v0q-2.23-21.49-4.08-38.41l0-.34q-.23-2.1-.45-4.11c0-.33-.07-.66-.11-1-.12-1.14-.24-2.26-.37-3.36,0-.41-.09-.81-.13-1.21-.11-1-.22-2-.33-2.95l-.15-1.37c-.11-.94-.21-1.85-.31-2.76-.05-.41-.09-.83-.14-1.24-.1-.87-.19-1.73-.29-2.58l-.15-1.31c-.1-.88-.2-1.74-.29-2.6l-.12-1c-.13-1.18-.27-2.33-.4-3.45l-.24-1.15c-1.23-.26-1.94-.43-1.94-.43s-35.47,33-39.85,24.79,34.51-39.37,34.51-41.31-2.92-3.4-2.92-3.4l-14.09,5.83s-28.19,35-34.5,27.7c-4-4.66,6.22-17.46,14.27-26.6q-5,1.18-9.85,2.17a95.26,95.26,0,0,1-11.71,10.34c-6.74,4.76-13,5.13-13.61,2.43-.41-1.78,1.17-5.24,3.75-9.38q-7.15.83-14.15,1.28-5.22.33-10.33.46c-1.71,0-3.4.08-5.09.09s-3.37,0-5,0-3.33,0-5-.09a311.64,311.64,0,0,1-66.07-9c-7.55-1.86-14.53-3.86-20.85-5.87-2.1-.67-4.14-1.34-6.09-2q-4.41-1.5-8.28-2.94c-2.9-1.09-5.55-2.13-8-3.11h0c-10.5-4.27-16.39-7.42-16.39-7.42C619,955.8,611.78,971.44,608.65,979c.75.36,1.58.72,2.45,1.1l-.66,2.27-.06.19c-.27,1-.55,1.92-.82,2.9,0,.11-.06.23-.1.34-.28,1-.57,2.05-.85,3.09l-.08.29c-.28,1-.55,2.05-.83,3.09l0,.13c-.28,1.09-.57,2.18-.85,3.28l-.07.26c-.57,2.21-1.13,4.46-1.69,6.72l0,.22q-.84,3.42-1.64,6.9l0,.16q-.81,3.54-1.59,7.1h0c-1.3,6-2.51,12-3.58,17.94h0c-.42,2.36-.83,4.71-1.21,7v0c-.32,2-.64,3.94-.93,5.88,0,.06,0,.13,0,.19l-.12.81h0q-.27,1.78-.51,3.54c0,.1,0,.21,0,.31-.19,1.4-.37,2.77-.54,4.13,0,.13,0,.25,0,.38-.16,1.34-.31,2.65-.45,4,0,.14,0,.27,0,.41-.13,1.29-.26,2.56-.37,3.81,0,.13,0,.26,0,.39-.11,1.25-.21,2.49-.3,3.7,0,.11,0,.21,0,.32-.09,1.24-.16,2.45-.22,3.64,0,.07,0,.13,0,.2-.06,1.24-.11,2.46-.13,3.64-1.24,52.79.72,189.28,2.57,293.64,1.32,74.27,2.57,132.27,2.57,132.27-10,22.35-17.7,50.27-23.49,81.33q-1.65,8.87-3.1,18.07c-1.7,10.72-3.2,21.75-4.52,33q-.57,4.81-1.09,9.68c-1.39,13-2.56,26.16-3.53,39.46q-.74,10-1.31,20c-.1,1.67-.2,3.34-.29,5-.27,5-.53,10-.75,15-.08,1.67-.15,3.34-.22,5-.7,16.71-1.15,33.34-1.39,49.63,0,1.63-.05,3.26-.07,4.88q-.15,12.17-.16,24v4.72c0,39.24,1.12,75.22,2.35,103.84,0,1.15.1,2.28.15,3.4.34,7.53.68,14.5,1,20.87v0q.06,1.11.12,2.19v.3l.12,2.17v.08c.8,14.54,1.53,25.36,2,31.35v.06c.15,2.13.27,3.65.33,4.49l0,.19v.09l0,.23v.28h0c.63.57,1.27,1.12,1.91,1.65l.52.42c.54.43,1.1.86,1.65,1.27l.34.25c.67.49,1.36,1,2.05,1.41l.34.21c.62.4,1.24.78,1.87,1.14l.34.2c1.48.85,3,1.61,4.52,2.3l.2.1.77.34,1.73.71q2.6,1,5.27,1.77c.59.17,1.19.33,1.78.48a79.78,79.78,0,0,0,21.61,2.24,116.51,116.51,0,0,0,18.33-2c1-.19,2-.39,3-.59a127.08,127.08,0,0,0,20.57-6,3.25,3.25,0,0,0,0-.33v-.06a.92.92,0,0,1,0-.16c0-.06,0-.13,0-.2s0-.12,0-.18v-.34c0-.08,0-.17,0-.25v-.37c0-.1,0-.2,0-.3s0-.25,0-.39v-.09c0-.08,0-.18,0-.26s0-.32,0-.5v-.42c0-.17,0-.34,0-.52v-.59l0-.38v-.35c0-.16,0-.31,0-.47v-.27l0-.33c0-.25,0-.5,0-.76l0-.54,0-.84v-.18c0-.16,0-.33,0-.49l0-.63V1978c0-.37,0-.74,0-1.12l0-.39,0-.56,0-.69V1975c0-.34,0-.68,0-1s0-.46,0-.7c0-.39,0-.78,0-1.18s0-.59,0-.9c0-.6,0-1.21.06-1.84l0-1c0-.34,0-.67,0-1s0-.87,0-1.31l0-.88c0-.47,0-.95.05-1.44v-.29c0-.95.07-1.93.1-2.93,0-.46,0-.92,0-1.39l0-1c0-.41,0-.82,0-1.23l.06-1.71,0-.62q.11-3.19.22-6.65v-.12c0-.79,0-1.58.08-2.39V1945c0-.7,0-1.41.07-2.13s.05-1.59.08-2.4c0-.45,0-.91,0-1.37l.06-1.81h0c3.91-121.6,12.52-416.18,13.19-418.79,6.73-26.18,57.41-356.44,66.26-396.65L829,1518.51c-7.79,38-10.25,71-9.54,99.66q.12,4.53.33,8.91c.07,1.46.15,2.91.24,4.34.17,2.88.38,5.7.62,8.49.47,5.56,1.06,10.93,1.74,16.13s1.47,10.21,2.32,15q.33,1.82.66,3.6.67,3.57,1.39,7c.24,1.15.48,2.29.73,3.41,6.93,31.5,16.61,54.76,22.22,71.79l-.06-.16.06.16c10.43,31.7,30.25,138,40.94,197.41,1.52,8.4,2.85,15.87,3.94,22l2,11.27h0l1.36,7.81q3.63,2.1,7.19,3.84c3.16,1.55,6.27,2.89,9.33,4q3.43,1.29,6.77,2.29c1.48.44,2.95.84,4.4,1.2,2.9.72,5.74,1.27,8.51,1.69a88.32,88.32,0,0,0,26,0l1.61-.25a86.3,86.3,0,0,0,17.34-4.77h0c.4-.15.79-.31,1.17-.47l.29-.12.85-.36.29-.12.85-.38.19-.08q1-.46,1.92-.9l.18-.09.67-.34.19-.09.64-.33.12-.06,1.32-.72.12-.06.43-.25.12-.07.37-.22.08,0,.68-.41,0,0,.18-.11,0,0,.1-.06,0,0,0,0Z"/></clipPath></defs><title>man pant F</title><rect class="a" width="1262.35" height="2195.18"/><g class="b"><path class="c" d="M622.29,948.88s112.39,60.28,233.41,11.3c1.17,4.24,3.38,8,8,26.35,7.83,67.9,26.64,247.46,44.81,515.55,0,0,54.45,425,81.52,496.07,0,0-40.41,27.27-92.1-2.71,0,0-33.48-193.75-48.23-238.55C836.89,1718,802.76,1646.46,829,1518.51c0,0-93.13-392-95.19-400.5s-60.28,372.33-67.52,400.52c-.83,3.24-13.86,455.21-15,470,0,0-55.21,22.94-86.79-5.86,0,0-27.44-343.24,33.79-479.44,0,0-1.25-58-2.57-132.27-1.85-104.36-3.81-240.85-2.57-293.64C594,1041,610.6,973.12,622.29,948.88Z"/><path class="d" d="M872.36,1066.9c-3.55-34.83-6.52-61.79-8.66-80.37-4.62-18.39-6.83-22.11-8-26.35-6.87,2.78-13.71,5.19-20.51,7.3,3.21,29.15,17.9,55.4,27.4,83.87C864.57,1057.29,868.11,1062.29,872.36,1066.9Z"/><path class="d" d="M606.59,1033.35c20.36-22,27.46-49.3,32.09-77-10.5-4.27-16.39-7.42-16.39-7.42-9.06,18.8-21.1,63.81-26.44,100.05,1-1.5,1.86-3.12,2.74-4.58C600.59,1041.35,603.59,1036.35,606.59,1033.35Z"/><path class="e" d="M584,1627.71c10.36-71.09,24.39-108.62,26.67-114.42a1.79,1.79,0,0,0,.41-.94h.48v-1.49a2.2,2.2,0,0,0-.12-.67c-.26-.84-.33-1.91-.78-3.3a2.17,2.17,0,0,1-.1-.62v-14.78c.68-13,.72-31.59.77-53.89.09-44.6.2-104.08.31-163.6,0-22,1.62-204.86,1.88-240.17a2,2,0,0,0-3.58-1.24l-1.49,1.92a2,2,0,0,0-.42,1.22c0,1.53-6.53,3.23-11.34,7.58a258.82,258.82,0,0,0-3.6,34c-1.24,52.79.72,189.28,2.57,293.64,1.32,74.27,2.57,132.27,2.57,132.27-61.23,136.2-33.79,479.44-33.79,479.44A52.2,52.2,0,0,0,583,1993.53C566.11,1826.07,573.73,1698.41,584,1627.71Z"/><path class="e" d="M838.93,971.86l-4.14,4.21c6.4,49.24,23,74.25,36.82,86.84-.39-3.69-.89-7.31-1.23-10.9C843.44,1022,838.93,971.86,838.93,971.86Z"/><path class="e" d="M635.19,976.86l-7-4.28c-4.11,31.19-17.13,52.43-30,66.27-.69,4.73-1.68,9.26-2.65,13.8C629.26,1020.07,635.19,976.86,635.19,976.86Z"/><path class="d" d="M835.72,1515.38c-23.55-70.74-73.19-390-73.19-390l55.06-48.7-84.49,41-.73,3.53L829,1518.51c-26.23,128,7.9,199.47,20.71,238.38C806.74,1631,835.72,1515.38,835.72,1515.38Z"/><path class="e" d="M863.7,986.53c-3.31-16-6.22-20.71-8-26.35-121,49-233.41-11.3-233.41-11.3C619,955.8,611.78,971.44,608.65,979,641.67,994.47,776.17,1027.47,863.7,986.53Z"/><path class="d" d="M615.25,1510.64c5.22,2.14,14,3.83,25.48-1.09a2.35,2.35,0,0,1,2.85,3.48c-7,10.23-20.92,25-31.4.68A2.34,2.34,0,0,1,615.25,1510.64Z"/><path class="d" d="M864.28,1520.23a57.65,57.65,0,0,0,30.58.53,2.85,2.85,0,0,1,3,4.51c-6.68,8.6-20.19,19.72-36.57-.52A2.85,2.85,0,0,1,864.28,1520.23Z"/><path class="e" d="M908.51,1502.08c-13.82-203.9-28-356.57-37.45-447.87l-19.59-22,46.59,478.58s29.08,324,81.07,492.78a61.51,61.51,0,0,0,10.9-5.39C963,1927,908.51,1502.08,908.51,1502.08Z"/><polygon class="e" points="732.88 996.18 722.29 1080.88 730.76 1080.88 741.35 996.18 732.88 996.18"/><polygon class="e" points="746.74 997.48 759.58 1081.88 767.73 1079.58 754.89 995.18 746.74 997.48"/><path class="d" d="M561.86,1941.23c1.37,25.86,2.61,41.47,2.61,41.47,31.58,28.8,86.79,5.86,86.79,5.86.22-2.87.89-22.09,1.83-51.24C626.18,1953.8,590.24,1954.73,561.86,1941.23Z"/><path class="f" d="M894.58,1976.35c2.11,11.91,3.35,19.09,3.35,19.09,51.69,30,92.1,2.71,92.1,2.71a202.41,202.41,0,0,1-6-19.81,134.87,134.87,0,0,1-37.4,8C929.46,1987.21,909.41,1986.59,894.58,1976.35Z"/><path class="d" d="M890.64,1954.3c1.52,8.4,2.85,15.87,3.94,22,14.83,10.24,34.88,10.86,52,10a134.87,134.87,0,0,0,37.4-8c-2.06-7.88-4.21-17.11-6.44-27.48C950.4,1963.16,918.3,1964.94,890.64,1954.3Z"/><path class="f" d="M563.39,1967.24c.64,9.93,1.08,15.46,1.08,15.46,31.58,28.8,86.79,5.86,86.79,5.86.12-1.49.35-7.4.68-16.82C622.44,1981.05,589.22,1982.72,563.39,1967.24Z"/><path class="a" d="M845.49,950.93,844,949l-19.44,8.75c-4.39,4.55-9.89,10.75-15.5,16.39q4.9-1,9.85-2.17c4.55-5.16,8.39-9.15,8.57-9.85C828,960.17,845.49,950.93,845.49,950.93Z"/></g></svg>