<?xml version="1.0" encoding="utf-8"?>
<!-- Generator: Adobe Illustrator 24.1.1, SVG Export Plug-In . SVG Version: 6.00 Build 0)  -->
<svg version="1.1" baseProfile="tiny" id="Layer_1" xmlns="http://www.w3.org/2000/svg" xmlns:xlink="http://www.w3.org/1999/xlink"
	 x="0px" y="0px" viewBox="0 0 1262.3 2194.1" xml:space="preserve">
<g id="Layer_6">
	<g id="_1_men_shirt_cryptokitties">
		<g>
			<path fill="#FFD9FF" d="M562.9,541.7c-26.1,33.6-57.4,176-57.4,176c24,34.6,90.3,32.6,90.3,32.6l5.6-16.1l-7.3-88.5
				C578.9,624.5,567.1,564.8,562.9,541.7"/>
			<path fill="#FFD9FF" d="M899.1,539.8l0.4-3.2c-0.7-0.6-1.5-1.2-2.3-1.7c-0.8-0.5-1.7-1-2.6-1.3c-7.4-2.7-68-17.2-102.5-25.4
				c0,0,0,0,0,0c-14.1-3.4-23.9-5.6-23.9-5.6l-6.7,7.4c0,0.1,0,0.1,0,0.2c-0.6,2-1.4,3.8-2.5,5.6c-2.1,3.8-5.3,9.1-8.8,14.5
				c-4.1,6.5-8.7,13.5-12.5,19.1c-0.8,1.2-1.6,2.4-2.2,3.3l-0.1,0.1c-0.9,1.3-1.7,2.5-2.5,3.5l-1.2-0.7l0,0l-3.6-2.1c0,0,0,0,0,0
				l-0.1,0c-14.8-10.6-32.5-45.9-32.5-45.9s-12.3,2.4-29.6,6c0,0,0,0,0,0c-28.7,5.9-71.2,15-94.5,21.5c-2.7,0.8-5.5,3.1-8.3,6.8
				c0,0-0.1,0.1-0.1,0.1c4.2,23.2,16,82.7,31.2,103.8l7.3,88.5c0,0.2,0,0.5,0,0.7l0.2-0.6c1.6,25.1,14.9,102.8,20.5,187.5
				c0.5,7.1-3.3,13.5-5.7,17.7c-3.4,6,7.3,13.9,8,14.2c16.9,6.5,32.9,11.6,48.2,15.5c0.1,0,0.1,0,0.2,0.1c1.7,0.4,3.5,0.9,5.2,1.3
				c0.3,0.1,0.7,0.2,1,0.2c1.5,0.4,3,0.7,4.4,1c0.6,0.1,1.2,0.3,1.8,0.4c1.2,0.3,2.4,0.5,3.6,0.8c0.9,0.2,1.9,0.4,2.8,0.6
				c0.9,0.2,1.7,0.3,2.6,0.5c1.4,0.3,2.8,0.5,4.2,0.8c0.4,0.1,0.7,0.1,1.1,0.2c34.2,6.1,63.3,6.2,86.9,3.7
				c6-10.6,20.8-27.7,23.7-30.6c2-1.9,30.1-16,30.1-16l-7.3-14.1c0,0-42.8,27.2-45.2,18s27.7-25.8,35.5-30.6s16.5-6.8,18.5-3.9
				c1,1.4,3.5,6.5,5.9,11.5c-2.9-71.4,22.7-222,22.7-222l7.4-71.7L899.1,539.8z"/>
			<path fill="#FFD9FF" d="M975,676.1c2,2.7-20.5-33.3-38.1-73.4c-16.5-37.8-28.4-58.3-37.4-66l-0.4,3.2l-21.2,79.4l-7.4,71.7
				l24,39.5C924.9,697.9,975,676.1,975,676.1"/>
			<path fill="#FF6AFA" d="M698.5,482.6l1.9,24.7c0,0,10.3,29.9,27.5,45.9c0,0-16.2-9.9-21.4-9.4s-50.3,24.5-50.3,24.5
				s8.9-56.5,10.8-59.8S698.5,482.6,698.5,482.6"/>
			<path fill="#FF6AFA" d="M732.9,556.1c0,0,28-40.9,28.5-46.1s-0.1-26.8-0.1-26.8s27.8,16.5,29.7,21.6
				c3.7,10.2,14.6,69.2,14.6,69.2s-38.1-28.2-45.7-30.6S732.9,556.1,732.9,556.1"/>
			<path fill="#EDA2E6" d="M564.5,554.7c0,0,15.9,70.9,32.8,90l4.2,89.5l-5.6,16.1l-7-17.8l2.1-84.7
				C591,647.8,569.8,600.2,564.5,554.7"/>
			<polygon fill="#EDA2E6" points="870.5,690.9 875.8,624.5 899.1,539.8 883.2,625.6 881.1,707.1 			"/>
			<path fill="#D450D0" d="M678.6,514.3c8-6.4,17.4-4.5,24.9,0.7c-2-4.6-3-7.7-3-7.7l-1.9-24.7c0,0-29.7,22.6-31.6,25.9
				c-0.8,1.4-2.8,12.1-4.9,24.1C666.8,525.9,672.4,519.7,678.6,514.3"/>
			<path fill="#D450D0" d="M782.6,512.3c5.2,4.7,9.9,10,14,15.6c-2.2-10.5-4.3-19.7-5.6-23.1c-1.9-5.2-29.7-21.6-29.7-21.6
				s0.5,21.6,0.1,26.8c-0.2,0.8-0.4,1.6-0.8,2.3C767.2,508,775.4,506.6,782.6,512.3"/>
			<path fill="#FF6AFA" d="M722,549.7c0,0,1.4,57.9,1.9,61.7c6.3,0.3,12.6,0.1,18.8-0.5l-2.8-61.7l-8.7,5.6L722,549.7z"/>
			<path fill="#FFFFFF" d="M736.8,567.2c0,3.1-2.5,5.6-5.7,5.6s-5.7-2.5-5.6-5.7c0-3.1,2.5-5.6,5.7-5.6c0,0,0,0,0,0
				C734.3,561.5,736.8,564.1,736.8,567.2C736.8,567.2,736.8,567.2,736.8,567.2"/>
			<path fill="#FFFFFF" d="M737.9,594.7c0,3.1-2.5,5.6-5.7,5.6s-5.6-2.5-5.6-5.7c0-3.1,2.5-5.6,5.6-5.6
				C735.3,589.1,737.9,591.6,737.9,594.7C737.9,594.7,737.9,594.7,737.9,594.7"/>
		</g>
		<polygon fill="#EDA2E6" points="806.6,975.3 817.2,973.2 826.1,960.9 845.8,949.6 844.1,947.5 824.6,956.3 		"/>
		<rect fill="none" width="1262.3" height="2194.1"/>
		<path fill="#FF6AFA" d="M505.6,717.7c24,34.6,90.3,32.6,90.3,32.6l3.5-10.2c-33.3-1.7-68-9.9-91.5-32.7
			C506.4,713.9,505.6,717.7,505.6,717.7z"/>
		<path fill="#FF6AFA" d="M885.8,716l8.8,14.4c30.3-32.5,80.5-54.3,80.5-54.3c0.8,1.2-2.8-4.8-8.6-15
			C937.2,676,909.1,693.5,885.8,716z"/>
		<path fill="#FFD9FF" d="M771,614.7h80.8V691c0,0-40.5,30.7-79.6,0L771,614.7z"/>
		<path fill="#F4C458" d="M789,643.3c0.7,4.5,1.7,8.9,3,13.3l4.8-4.8C794.6,648.6,792,645.8,789,643.3z"/>
		<path fill="#FFEE8A" d="M789.2,640.8c-0.3,0.2-0.3,1.2-0.2,2.6c3,2.5,5.6,5.3,7.7,8.5l4.5-4.5
			C801.3,647.3,790.6,639.7,789.2,640.8z"/>
		<path fill="#8F854D" d="M789.6,640.7c2.3,0,11.7,6.6,11.7,6.6l-4.5,4.5l-4.8,4.8c-1.3-4.4-2.3-8.8-3-13.3
			c-0.2-1.4-0.1-2.3,0.2-2.6C789.3,640.7,789.4,640.7,789.6,640.7 M789.6,638.7c-0.6,0-1.1,0.2-1.6,0.5c-1.1,0.8-1.2,2.3-1,4.4
			c0.7,4.6,1.7,9.1,3,13.6l0.9,3.3l2.4-2.4l4.8-4.8l4.5-4.5l1.7-1.7l-1.9-1.4C798.7,643.1,792.1,638.7,789.6,638.7L789.6,638.7z"/>
		<path fill="#F4C458" d="M834.6,643.3c-0.7,4.5-1.7,8.9-2.9,13.3l-4.8-4.8C829,648.7,831.6,645.8,834.6,643.3z"/>
		<path fill="#FFEE8A" d="M834.4,640.8c0.3,0.2,0.3,1.2,0.2,2.6c-3,2.5-5.6,5.3-7.7,8.5l-4.5-4.5C822.4,647.3,833,639.7,834.4,640.8
			z"/>
		<path fill="#8F854D" d="M834,640.7c0.1,0,0.3,0,0.4,0.1c0.3,0.2,0.3,1.2,0.2,2.6c-0.7,4.5-1.7,8.9-2.9,13.3l-4.8-4.8l-4.5-4.5
			C822.3,647.3,831.7,640.7,834,640.7 M834,638.7L834,638.7c-2.6,0-9.1,4.4-12.8,7l-1.9,1.4l1.7,1.7l4.5,4.5l4.8,4.8l2.4,2.4
			l0.9-3.3c1.3-4.5,2.3-9,3-13.6c0.2-2.1,0.2-3.5-1-4.4C835.1,638.8,834.5,638.7,834,638.7L834,638.7z"/>
		<path fill="#FFEE8A" d="M833.2,657.6c-5.3-11.9-19.3-17.3-31.3-12c-5.3,2.4-9.6,6.6-12,12c0,0-6.3,10.7-9.7,12.4
			c0,0,7.6,4.1,11,7.6s11,9,20.3,9s16.9-5.6,20.3-9s11-7.6,11-7.6C839.5,668.3,833.2,657.6,833.2,657.6z"/>
		<path fill="#8F854D" d="M812.2,643.6c9.1,0.1,17.4,5.6,21,14c0,0,6.3,10.7,9.7,12.4c0,0-7.6,4.1-11,7.6s-11,9-20.3,9
			s-16.9-5.6-20.3-9s-11-7.6-11-7.6c3.4-1.7,9.7-12.4,9.7-12.4c3.6-8.4,11.9-13.9,21-14c0.2,0,0.4,0,0.6,0
			C811.8,643.6,812,643.6,812.2,643.6 M812.2,641.6H811c-9.9,0.2-18.8,6.1-22.8,15.1c-2.5,4.2-6.8,10.5-8.8,11.5l-3.4,1.7l3.4,1.8
			c0.1,0,7.4,4,10.5,7.2c4.6,4.6,12.7,9.5,21.7,9.5s17.1-4.9,21.7-9.5c3.2-3.2,10.5-7.2,10.5-7.2l3.4-1.8l-3.4-1.7
			c-2-1-6.3-7.3-8.8-11.5C831,647.6,822.1,641.7,812.2,641.6L812.2,641.6z"/>
		<path fill="#FF6AFA" d="M778.7,613.7c-4.8,0-8.7,3.9-8.7,8.7c0,0,0,0.1,0,0.1l1,68.9l0.4,0.3c13.5,10.5,27.1,13.8,38.8,13.8
			c5.6,0,11.2-0.7,16.6-2.1c9.1-2.3,17.8-6.3,25.5-11.7l0.4-0.3v-69c0-4.8-3.9-8.7-8.7-8.7H778.7z M773.1,690.5l-0.8-53.3
			c0-3.2,2.5-5.8,5.7-5.8c0,0,0.1,0,0.1,0h67c3.2,0,5.8,2.6,5.8,5.8l0,0v53.4C846.5,693.5,809,718.3,773.1,690.5z"/>
		<path fill="#883B71" d="M808.4,673.8c0,0,0,4.8,3.6,4.6s3.3-4.3,3.3-4.3s-3.2-0.4-3.6-2.7C811.1,672.8,809.9,673.8,808.4,673.8z"
			/>
		<circle fill="#FFFFFF" cx="798.7" cy="659.8" r="7.7"/>
		<circle fill="#C033AD" cx="798.6" cy="658.1" r="5.3"/>
		<circle fill="#44392E" cx="798.9" cy="656.9" r="3.2"/>
		<circle fill="#FFFFFF" cx="796.3" cy="656.5" r="2.5"/>
		<path fill="#8F854D" d="M798.7,652.1c4.2,0,7.7,3.4,7.7,7.6s-3.4,7.7-7.6,7.7s-7.7-3.4-7.7-7.6c0,0,0,0,0,0
			C791.1,655.6,794.5,652.1,798.7,652.1 M798.7,651.1c-4.8,0-8.6,3.9-8.6,8.7s3.9,8.6,8.7,8.6c4.8,0,8.6-3.9,8.6-8.6
			C807.4,655,803.5,651.1,798.7,651.1z"/>
		<circle fill="#FFFFFF" cx="824.6" cy="659.6" r="7.7"/>
		<circle fill="#C033AD" cx="824.5" cy="657.9" r="5.3"/>
		<circle fill="#44392E" cx="824.8" cy="656.6" r="3.2"/>
		<circle fill="#FFFFFF" cx="822.2" cy="656.2" r="2.5"/>
		<path fill="#8F854D" d="M824.6,651.9c4.2,0,7.6,3.4,7.6,7.7s-3.4,7.6-7.7,7.6s-7.6-3.4-7.6-7.6C817,655.3,820.4,651.9,824.6,651.9
			C824.6,651.9,824.6,651.9,824.6,651.9 M824.6,650.9c-4.8,0-8.7,3.9-8.7,8.6s3.9,8.7,8.6,8.7c4.8,0,8.7-3.9,8.7-8.6c0,0,0,0,0,0
			C833.2,654.8,829.4,650.9,824.6,650.9z"/>
		<path fill="#8F854D" d="M810.6,664.7h2.3c0.6,0,1.1,0.5,1.1,1.1c0,0.2-0.1,0.5-0.2,0.7l-1.2,1.5c-0.4,0.5-1.1,0.6-1.6,0.2
			c-0.1-0.1-0.2-0.1-0.2-0.2l-1.1-1.5c-0.4-0.5-0.3-1.2,0.2-1.5C810.1,664.8,810.4,664.7,810.6,664.7z"/>
		<path fill="none" stroke="#8F854D" stroke-linecap="round" stroke-miterlimit="10" d="M802.9,668.9c0,0-0.9,4.9,4.8,5.1
			c5.1,0.2,3.9-6.1,3.9-6.1"/>
		<path fill="none" stroke="#8F854D" stroke-linecap="round" stroke-miterlimit="10" d="M820.4,668.9c0,0,0.9,4.9-4.8,5.1
			c-5.1,0.2-3.9-6.1-3.9-6.1"/>
		<path fill="none" stroke="#8F854D" stroke-linecap="round" stroke-miterlimit="10" d="M808.4,674.4c0.1,1.3,0.7,4.3,3.6,4
			c3.6-0.3,3.3-4.3,3.3-4.3"/>
	</g>
</g>
<path fill="#EDA2E6" d="M810.3,948c2-1.9,30.1-16,30.1-16l-7.3-14.1c0,0-42.8,27.2-45.2,18s27.7-25.8,35.5-30.6
	c7.3-4.6,15.4-6.5,18-4.4c0.5-24.6,1.6-51.9,1.6-51.9c-13.8,37.1-131.3,99.5-214.9,50.8c0,0,2.8,32.7,0.8,37.3
	c-1.5,3.4,0,7.4,3.4,8.9c35.2,15.3,72.9,24,111.2,25.8c15.8,0.6,32.7-0.7,50.1-3.6C800.2,959.3,808.2,950.1,810.3,948z"/>
</svg>
