<svg xmlns="http://www.w3.org/2000/svg" xmlns:xlink="http://www.w3.org/1999/xlink" width="1262.35" height="2195.18" viewBox="0 0 1262.35 2195.18"><defs><style>.a{fill:none;}.b{clip-path:url(#a);}.c{fill:#507d8f;}.d{fill:#67a0b8;}.e{fill:#3d5f7a;}.f{fill:#2e2e2e;}.g{fill:#a6d8ed;}.h{fill:#94c1d4;}</style><clipPath id="a"><path class="a" d="M908.56,1502.08c-18.16-268.09-37-447.64-44.8-515.55-.09-.39-.17-.77-.25-1.15-1.23-.25-1.94-.43-1.94-.43s-35.47,33-39.84,24.79,34.5-39.37,34.5-41.31-2.92-3.4-2.92-3.4l-14.09,5.83s-28.19,35-34.5,27.7c-4-4.66,6.22-17.46,14.28-26.6q-4.95,1.18-9.86,2.17a95.26,95.26,0,0,1-11.71,10.34c-6.74,4.77-13,5.13-13.61,2.43-.41-1.78,1.17-5.23,3.75-9.38q-7.16.84-14.15,1.28c-1.62.1-3.23.19-4.83.26h0q-6.52.3-12.87.3h-.29c-6.3,0-12.47-.21-18.48-.59l-.51,0c-1.76-.12-5.83-.44-6.12-.46-1.81-.16-3.6-.33-5.38-.51-.07,0-4.1-.45-6-.68a319.22,319.22,0,0,1-37-6.84c-7.55-1.86-14.53-3.86-20.85-5.87-2.1-.67-11.79-4-14.36-5-3.44-1.28-6.56-2.52-9.32-3.66-9.67-4-15-6.88-15-6.88C619,955.8,611.83,971.44,608.7,979c.76.36-14.93,72.79-15.53,98.35-1.24,52.79.73,189.28,2.57,293.64,1.32,74.27,2.57,132.28,2.57,132.28-61.23,136.19-33.79,479.44-33.79,479.44,31.59,28.79,86.79,5.85,86.79,5.85,1.16-14.82,14.19-466.79,15-470,6.73-26.18,57.41-356.44,66.26-396.65L829,1518.51c-7.79,38-10.25,71-9.54,99.66q.12,4.53.33,8.91.1,2.19.24,4.35.25,4.3.62,8.48c.47,5.56,1.06,10.93,1.74,16.13s1.47,10.21,2.32,15l.66,3.6c.45,2.38.91,4.71,1.39,7,.24,1.14.49,2.28.73,3.4,6.93,31.5,16.61,54.77,22.22,71.79a1,1,0,0,1,0-.16,1,1,0,0,0,0,.16c14.75,44.8,48.23,238.55,48.23,238.55a111.79,111.79,0,0,0,16.67,8h0l.05,0,2.16.78.13,0c42.26,14.72,73.09-6.08,73.09-6.08C963,1927,908.56,1502.08,908.56,1502.08Z"/></clipPath></defs><title>man pant D</title><rect class="a" width="1262.35" height="2195.18"/><g class="b"><path class="c" d="M622.29,948.88s112.39,60.28,233.41,11.3c1.17,4.24,3.38,8,8,26.35,7.83,67.9,26.64,247.46,44.81,515.55,0,0,54.45,425,81.52,496.07,0,0-40.41,27.27-92.1-2.71,0,0-33.48-193.75-48.23-238.55C836.89,1718,802.76,1646.46,829,1518.51c0,0-93.13-392-95.19-400.5s-60.28,372.33-67.52,400.52c-.83,3.24-13.86,455.21-15,470,0,0-55.21,22.94-86.79-5.86,0,0-27.44-343.24,33.79-479.44,0,0-1.25-58-2.57-132.27-1.85-104.36-3.81-240.85-2.57-293.64C594,1041,610.6,973.12,622.29,948.88Z"/><path class="d" d="M734.13,1118l24.08-12.55s2.17-118.58.79-122.82-25.41-.17-25.41-.17Z"/><path class="e" d="M843.92,1579.41c1.19-40.29,7.06-61.07,7.12-61.27a2,2,0,0,0,0-1.05c-13.6-53.09-88.37-404.26-89.12-407.8a2,2,0,1,0-3.91.83c.75,3.53,75.06,352.57,89,407.44-1,3.55-6,23.88-7.12,61.51-1.13,37.46,1.63,99.8,21.19,184,26.68,114.84,45.57,202.83,53.48,240.31,1.48.56,2.95,1.08,4.41,1.55-7.6-36.06-26.72-125.41-54-242.76C845.58,1678.51,842.82,1616.61,843.92,1579.41Z"/><path class="e" d="M578.42,1989.56c-17.52-170.13-8.75-291.12,1.69-362.67,10.74-73.61,25.44-111.53,27.08-115.59.12-18.74.95-471.91.87-476.25l4-.15c.05,1.12-.34,214.75-.39,239.1-.11,59.52-.22,119-.31,163.6-.05,22.3-.09,40.88-.77,53.89v15.1c.61,1.72.6,3,1,3.92v1.84h-.48a1.79,1.79,0,0,1-.41.94c-2.28,5.8-16.31,43.33-26.67,114.42-10.38,71.29-19.1,191.86-1.63,361.44Z"/><path class="e" d="M838.93,971.86l-4.14,4.21c6.4,49.24,23,74.25,36.82,86.84-.39-3.69-.89-7.31-1.23-10.9C843.44,1022,838.93,971.86,838.93,971.86Z"/><path class="e" d="M635.19,976.86l-7-4.28c-4.11,31.19-17.13,52.43-30,66.27-.69,4.73-1.68,9.26-2.65,13.8C629.26,1020.07,635.19,976.86,635.19,976.86Z"/><path class="e" d="M835.72,1515.38c-23.55-70.74-87.84-391.63-87.84-391.63l55.37-47.65-70.15,41.55-.73,3.53L829,1518.51c-26.23,128,7.9,199.47,20.71,238.38C806.74,1631,835.72,1515.38,835.72,1515.38Z"/><path class="f" d="M863.7,986.53c-3.31-16-6.22-20.71-8-26.35-121,49-233.41-11.3-233.41-11.3C619,955.8,611.78,971.44,608.65,979,641.67,994.47,776.17,1027.47,863.7,986.53Z"/><path class="g" d="M768.54,979.05a294.93,294.93,0,0,1-49.66-2c-.26,9-1,18-1.72,27a413.39,413.39,0,0,0,51.58,2.09C768.28,997.11,768.44,988,768.54,979.05Z"/><path class="e" d="M615.25,1510.64c5.22,2.14,14,3.83,25.48-1.09a2.35,2.35,0,0,1,2.85,3.48c-7,10.23-20.92,25-31.4.68A2.34,2.34,0,0,1,615.25,1510.64Z"/><path class="e" d="M864.28,1520.23a57.65,57.65,0,0,0,30.58.53,2.85,2.85,0,0,1,3,4.51c-6.68,8.6-20.19,19.72-36.57-.52A2.85,2.85,0,0,1,864.28,1520.23Z"/><path class="h" d="M624.88,1182.53s56.12-6.35,84.71,14.82C709.59,1197.35,665.12,1197.35,624.88,1182.53Z"/><path class="h" d="M623.82,1235.36s49.1-5.56,74.12,13C697.94,1248.33,659,1248.33,623.82,1235.36Z"/><path class="h" d="M625.94,1296.63s40-4.53,60.35,10.56C686.29,1307.19,654.61,1307.19,625.94,1296.63Z"/><path class="h" d="M787.94,1200.53s34.94-33.88,87.88-19.06C875.82,1181.47,816.53,1195.24,787.94,1200.53Z"/><path class="h" d="M805.94,1238.65s41.29-15.89,69.88-10.59C875.82,1228.06,841.94,1239.71,805.94,1238.65Z"/><path class="h" d="M820.76,1287.35s30.71-12.7,59.3-7.41C880.06,1279.94,832.41,1292.65,820.76,1287.35Z"/><path class="h" d="M651.17,1767.53s-39.88,1.59-65.29-4.77C585.88,1762.76,607.94,1790.29,651.17,1767.53Z"/><path class="h" d="M939.1,1748.4s-38.31,11.19-64.5,11.18C874.6,1759.58,902.66,1781,939.1,1748.4Z"/><path class="h" d="M646.37,1830.09s-31.77,1.27-52-3.8C594.35,1826.29,611.92,1848.23,646.37,1830.09Z"/><path class="h" d="M943.38,1795.24s-30.87,7.64-51.72,6.75C891.66,1802,913.29,1819.94,943.38,1795.24Z"/></g></svg>