<svg xmlns="http://www.w3.org/2000/svg" width="1262.35" height="2195.18" viewBox="0 0 1262.35 2195.18"><defs><style>.a{fill:none;}.b{fill:#e0a07b;}.c{fill:#ca8760;}</style></defs><title>man face B</title><rect class="a" width="1262.35" height="2195.18"/><path class="b" d="M611.91,369.05c-23.65,8.41-48.51-23.68-34.88-39,8.64-9.71,25,7.12,29.23,11.79l-2.4-11.57s-13.86-31.88-33-20.74-14.43,38-7.48,51.47,30.72,41.19,51.35,21.6Z"/><path class="c" d="M577,330c-13.63,15.33,11.23,47.42,34.88,39l-5.65-27.22C602,337.16,585.67,320.33,577,330Z"/><path class="b" d="M851.1,369.05c23.66,8.41,48.52-23.68,34.88-39-8.64-9.71-25,7.12-29.22,11.79l2.4-11.57s13.86-31.88,33-20.74,14.43,38,7.48,51.47-30.73,41.19-51.36,21.6Z"/><path class="c" d="M886,330c13.64,15.33-11.22,47.42-34.88,39l5.66-27.22C861,337.16,877.34,320.33,886,330Z"/><path class="b" d="M731.89,130.24c-146.49-1.79-139.22,158.61-137.11,181.4.19,2,3,33.85,10.34,74.46,2.62,14.48,3.82,28.28,6.35,35.49,6.2,17.65,97.12,63.29,107.88,63.29h26.08c10.76,0,100.69-45.64,106.88-63.29,2.53-7.21,3.73-21,6.35-35.49,7.34-40.61,10.15-72.43,10.34-74.46C871.12,288.85,878.38,128.45,731.89,130.24Z"/><path class="c" d="M869,305.64c-.19,2-3,33.85-10.34,74.46-2.62,14.48-3.82,28.28-6.35,35.49-6.19,17.65-96.12,63.29-106.88,63.29H719.35c-10.76,0-101.68-45.64-107.88-63.29-2.53-7.21-3.73-21-6.35-35.49-7.34-40.61-10.15-72.43-10.34-74.46-.28-3.07-.66-8.62-.74-15.93-.12,10.28.39,18.07.74,21.93.19,2,3,33.85,10.34,74.46,2.62,14.48,3.82,28.28,6.35,35.49,6.2,17.65,97.12,63.29,107.88,63.29h26.08c10.76,0,100.69-45.64,106.88-63.29,2.53-7.21,3.73-21,6.35-35.49,7.34-40.61,10.15-72.43,10.34-74.46.36-3.86.86-11.65.75-21.93C869.66,297,869.28,302.57,869,305.64Z"/></svg>