<svg xmlns="http://www.w3.org/2000/svg" width="1262.35" height="2195.18" viewBox="0 0 1262.35 2195.18"><title>1_men_hair_10</title><g id="Layer_2" data-name="Layer 2"><g id="Character_men01_hair_1-3" data-name="Character_men01_hair 1-3"><g id="_1_men_hair_10" data-name="1_men_hair_10"><g id="Layer_17" data-name="Layer 17"><path d="M882.24,138.13h0C879.18,81.62,827,98.63,827,98.63c-39.29-37.78-72.94-13.36-72.94-13.36-47.65-27.21-72.21,3.26-72.21,3.26h0c-30.79-18.48-54.65,15.06-54.65,15.06-30.13-2.88-45.25,28.72-47.81,42.84-25.33,35.39-23.15,78.87-4.54,161.09,0,0,5.19-1.75,19.93,7.12,0,0,2.24-94.58,26.23-114.7s37.88-14.82,37.88-14.82a225.31,225.31,0,0,0,74.05,14.73v0h1v0a225.31,225.31,0,0,0,74-14.73s13.89-5.3,37.88,14.82,23.22,113.7,23.22,113.7c14.75-8.87,22.94-3.12,22.94-3.12C910.38,229.45,906.62,174.14,882.24,138.13Z" fill="#eaeaea"/><path d="M880.26,243.46c-2.5-30.21-10.71-49.2-20.82-61C877,115.4,827,98.63,827,98.63c.8,1.8,28,48.63-18.73,65.85l-.14,0c8.75-59.15-54.07-79.23-54.07-79.23,8.38,9.65,46.08,52.55.05,91.81-.08.06-.2,0-.3,0,17.39-83.76-64.3-88.59-72-88.59,28.5,10.21,58.54,59.18,29.75,89.17l-.16,0c-5.58-19.54-22.32-78-84.24-74.09,17.4.63,42.86,41.29,25.08,61.42-21.1-46.95-73.23-18.59-72.89-18.58,30.14.57,42.64,22,30,35.69-23.26,25-18.32,69.49-23.34,76.64S572.7,263,565.94,260.6c2,15.12,4.94,29.4,8.91,46.92,0,0,5.19-1.75,19.93,7.12,0,0,2.24-94.58,26.23-114.7s37.88-14.82,37.88-14.82a225.31,225.31,0,0,0,74.05,14.73v0h1v0a225.31,225.31,0,0,0,74-14.73s13.89-5.3,37.88,14.82,23.22,113.7,23.22,113.7c14.75-8.87,22.94-3.12,22.94-3.12,4.11-18.15,7.13-35,9.11-50.63C889.68,263.7,881.29,255.86,880.26,243.46Z" fill="#bfbfbf"/><rect width="1262.35" height="2195.18" fill="none"/></g></g></g></g></svg>