<svg xmlns="http://www.w3.org/2000/svg" xmlns:xlink="http://www.w3.org/1999/xlink" width="1262.35" height="2195.18" viewBox="0 0 1262.35 2195.18"><defs><style>.a{fill:none;}.b{clip-path:url(#a);}.c{fill:#fff;}.d{fill:#a38274;}.e{fill:#d1d1d1;}</style><clipPath id="a" transform="translate(590.54 948.88)"><path class="a" d="M231.14,60.85c-4.38-8.26,34.5-39.36,34.5-41.3s-2.91-3.41-2.91-3.41L248.63,22s-28.18,35-34.5,27.7c-4-4.66,6.22-17.47,14.28-26.6q-4.95,1.19-9.86,2.17a94.3,94.3,0,0,1-11.71,10.33c-6.74,4.77-13,5.14-13.61,2.43-.41-1.76,1.17-5.21,3.73-9.34C105,39.38,32,.05,31.76,0,28.42,6.91,21.25,22.56,18.11,30.12c.76.35-14.92,72.79-15.53,98.35C2.09,149.17,1.14,187.09,0,231.91c36.66,14.56,90,18.34,129.33,19.41,7.76-48.49,13.35-81.58,14-79.08.55,2.27,7.51,34.1,17.41,79.22a619.24,619.24,0,0,0,134.88-17.11c-9.82-93.84-18.44-162.22-22.41-196.7-.08-.4-.16-.78-.24-1.16-1.24-.25-1.94-.42-1.94-.42S235.51,69.11,231.14,60.85Z"/></clipPath></defs><title>man short pant B</title><g class="b"><rect class="a" width="1262.35" height="2195.18"/><path class="c" d="M273.17,37.65c-3.31-16-6.23-20.71-8-26.36C143.94,60.37,32,.06,31.76,0,28.42,6.91,21.25,22.56,18.11,30.12c.76.35-14.92,72.79-15.53,98.35C2.09,149.17,1.14,187.09,0,231.91c36.66,14.56,90,18.34,129.33,19.41,7.76-48.49,13.35-81.58,14-79.08.55,2.27,7.51,34.1,17.41,79.22a619.24,619.24,0,0,0,134.88-17.11C285.76,140.51,277.14,72.13,273.17,37.65Z" transform="translate(590.54 948.88)"/><path class="d" d="M-8.06,544.69v0Z" transform="translate(590.54 948.88)"/><path class="d" d="M-8,544.27l0-.44v.44Z" transform="translate(590.54 948.88)"/><path class="d" d="M-8,543.78v0h0v0h0Z" transform="translate(590.54 948.88)"/><path class="d" d="M-8,543.5v0h0l0-.67c0,.4,0,.7,0,1Z" transform="translate(590.54 948.88)"/><path class="e" d="M143.29,172.24,78.82,106.59s65.64,46.59,148.23,2.12Z" transform="translate(590.54 948.88)"/></g></svg>