<svg xmlns="http://www.w3.org/2000/svg" width="1262.35" height="2195.18" viewBox="0 0 1262.35 2195.18"><defs><style>.a{fill:none;}.b{fill:#8e610d;}.c{fill:#d49646;}.d{fill:#7a5207;}</style></defs><title>man hair C</title><rect class="a" width="1262.35" height="2195.18"/><path class="b" d="M594.94,316c2.4,3.77,1-81.47,33.47-116.76,0,0,87.53,40.94,210.35,5.64,0,0,24,50.83,28.24,118.59,0,0,2.12-24.71,28.94-12,0,0,6.35-172.94-9.18-216.71,0,0-36,9.89-52.23,25.42,0,0,1.41-29.65-4.24-40.94,0,0-35.29,14.11-36.7,22.58,0,0-36.71-38.11-74.83-46.58,0,0,1.41,11.29,5.65,31.05,0,0-57.88-33.88-90.35-33.88v0c-.71,21.16,9.88,49.39,9.88,49.39-21.88-17.64-56.29-24-57.88-24,0,0-31.65,142.18-16.12,232.53C569.94,310.35,585.06,300.47,594.94,316Z"/><path class="c" d="M585.29,128.65s51.59,45.17,127.83,59.29c0,0-50.83,4.24-132.06-25.41Z"/><path class="c" d="M766.76,183.71s86.12-9.89,115.77-29.65l1.41,28.23S785.12,193.59,766.76,183.71Z"/><path class="d" d="M584.06,250.37c-8.43-14.22-13.41-30.47-16.35-47.1-2.85,36.44-3.28,75,2.23,107.08,0,0,15.12-9.88,25,5.65,2.18,3.42,1.23-66.61,25.38-105.92C606.39,221.65,592.85,234.52,584.06,250.37Z"/><path class="d" d="M896.91,199a418,418,0,0,1-22.47,51.28c-8.84-12.89-20.19-23.93-31.4-35.26a369.82,369.82,0,0,1,24,108.42s2.12-24.71,28.94-12C895.94,311.47,898,255.4,896.91,199Z"/></svg>