<svg xmlns="http://www.w3.org/2000/svg" width="1262.35" height="2195.18" viewBox="0 0 1262.35 2195.18"><defs><style>.a{fill:none;}.b{fill:#331815;}.c{fill:#4d1f19;}.d{fill:#632f29;}.e{fill:#7d3b34;}</style></defs><title>man hair D</title><rect class="a" width="1262.35" height="2195.18"/><path class="b" d="M870,155.82,741.53,124.76l-149,31.06c-31.06,56.47-21.72,153.7-21.72,153.7,14.27-8.64,24.62,6.89,24.62,6.89,8.47-70.59,40.86-116.82,40.86-116.82l105.2,1v.11l4.68-.07,6.44.07,0-.15,73.61-1s33.89,46.59,42.36,117.17c0,0,7.35-14.47,23.58-7.24C892.17,309.52,901.06,212.29,870,155.82Z"/><path class="c" d="M891,107.47c-57.88,18.35-103.06-12.71-103.06-12.71,22.59-15.52,29.65-45.17,29.65-45.17S792.18,60.88,707.47,66.53a212.78,212.78,0,0,0-39.11,6.12c.41-15.09,10.87-27.3,10.87-27.3-97.41,35.3-89.49,100.71-86.66,110.47,10.75,37.06,48.55,43.42,48.55,43.42s97,43.67,168,34.58c0,0-43.42-8.47-67.59-33.07,0,0,54.88,7.66,84.7-1.16C915.8,173.09,891,107.47,891,107.47Z"/><path class="d" d="M665.82,56.65s-61.41,29.64-60,60.7,96,55.06,217.41,38.12l-91.34-25.23s113.93,6.88,150.64-14.3c0,0-14.12,8.47-63.53,1.41-37.94-5.42-80-19.18-87.53-28.23,0,0,57.88-9.88,76.23-29.65,0,0-39.66,7.16-72,11.29-33.41,4.28-59.76,5.59-74.11,9.18C656.74,81.15,665.82,56.65,665.82,56.65Z"/><path class="e" d="M628.83,110.42c-4.37.09,2.59-33.94,85.39-21.9,0,0-38,4.36-53.31,10.21C648,103.64,650.29,109.94,628.83,110.42Z"/><path class="e" d="M646.06,121.59s22.23,22.23,74.11,19.06C720.17,140.65,657.7,108.88,646.06,121.59Z"/></svg>