<svg xmlns="http://www.w3.org/2000/svg" width="1262.35" height="2195.18" viewBox="0 0 1262.35 2195.18"><defs><style>.a{fill:none;}.b{fill:#302217;}.c{fill:#614129;}.d{fill:#523a27;}.e{fill:#47301e;}</style></defs><title>man hair I</title><rect class="a" width="1262.35" height="2195.18"/><path class="b" d="M862.08,141.35s-57.75-44.51-143.27-34.69c-71.78,0-118.63,36.1-118.63,36.1-38.12,36.71-25.42,165.18-25.42,165.18,3.92-1.58,21.18,8.47,21.18,8.47-4.24-52.23,24-100.23,24-100.23l100.24-32.47-1.42-33.89s7.17-.84,17.22-2.38c4.64.63,7.51,1,7.51,1l-1.41,33.88,100.23,32.47s28.24,48,24,100.24c0,0,17.26-10.05,21.18-8.47C887.49,306.53,900.2,178.06,862.08,141.35Z"/><path class="c" d="M882,134.63c-4.16-11.36-11-21.53-17.71-31.57,3.12,12.21,6,25.93-.34,36.8a26.54,26.54,0,0,1-3,4.13c2.7-23.77-6.13-49.33-43.31-63.7-12.11-4.67-34.29-2.65-46-8.23-11-5.26-23.21-24.69-26-36.59-20.12,28.94,1.09,66.1,0,66-9-.8-11.65-20.12-45.53-20.12-49.85,0-62.49-7.9-80.12-37.41-4.24,41.65,25.46,78.41,54.77,82-36.42,10.46-66.52-20.39-84.42-43.89-9,13.16-13.92,72.54,27.87,93.27a105.08,105.08,0,0,1-11.51,1c-21.43.53-45.17-8.84-53.09-28.77,1,19.71,7.32,42.29,28.37,57.07,26.6,18.67,61.75,18.9,92.58,8.59,32-10.7,110.63-19.6,167.8,1.57,15.72,5.83,34.57-22.23,40.73-44.65A58.47,58.47,0,0,0,882,134.63Z"/><path class="d" d="M617,174.72c.39.21.77.41,1.18.61a105.08,105.08,0,0,1-11.51,1c-21.43.53-45.17-8.84-53.09-28.77.07,1.3.15,2.62.27,3.94,11.09,23.4,34.2,40.22,60.76,41.88,19.81,1.65,38.95-2.84,56.27-11.78C652.6,181.85,633.92,180.78,617,174.72Z"/><path class="e" d="M825.59,163.35c-26-28-67-37-105-30,28.73,3.11,55,18.28,77.09,36.61a146,146,0,0,0-23.09-5.61c-46-11-92,6-134-14-25.82-12.46-44.49-37.61-51.81-65.55-7.82,17-9.94,69.91,28.2,89.92,16.94,6.06,35.62,7.13,53.88,6.85-17.32,8.94-36.46,13.43-56.27,11.78-26.56-1.66-49.67-18.48-60.76-41.88,1.6,18.72,8.44,39.33,28.1,53.13,26.6,18.67,61.75,18.9,92.58,8.59,32-10.7,110.63-19.6,167.8,1.57a13.46,13.46,0,0,0,9.59-.24C849.41,195.21,838.55,177,825.59,163.35Z"/><path class="e" d="M795,126.43c-32-17.84-53.39-52.79-50.12-89.84-18.83,28.77,1.83,65,.75,64.88a5.58,5.58,0,0,1-.59-.09C756.13,116.44,775.6,124,795,126.43Z"/><path class="e" d="M850.06,170.29c10-3,43.76-10.58,15.38-65.47l-1.18-1.76c3.12,12.21,6,25.93-.34,36.8a26.54,26.54,0,0,1-3,4.13c0-.34.06-.68.1-1C860.9,144,865.59,158.29,850.06,170.29Z"/><path class="e" d="M705.33,118.11c-37.19-9.38-73.22-33.64-83.7-71.39-.56-.9-1.12-1.83-1.69-2.78-4.11,40.44,23.77,76.27,52.23,81.61C683.43,125.81,694.19,121.3,705.33,118.11Z"/></svg>