<svg xmlns="http://www.w3.org/2000/svg" width="1262.35" height="2195.18" viewBox="0 0 1262.35 2195.18"><title>1_beard_1</title><g id="Layer_2" data-name="Layer 2"><g id="accessories"><g id="_1_beard_1" data-name="1_beard_1"><path d="M855.28,414.88s-16.59,21.18-30.06,21.18c0,0-34.21-44.47-49.76-43.41A128.81,128.81,0,0,0,753,396.5a1,1,0,0,0,.26,1.94c8.35-.18,20,.57,23.27,5.85,5.19,8.47,19.7,30.71,14.52,34.95S779.6,464.65,761,461.47s-15.55-15.88-15.55-15.88c-9.61,3.87-16.17,4.31-26.53,0,0,0,3.11,12.7-15.55,15.88s-24.88-18-30.06-22.23,9.33-26.48,14.51-34.95c3.23-5.28,14.92-6,23.27-5.85a1,1,0,0,0,.27-1.94,129,129,0,0,0-22.5-3.85c-15.55-1.06-49.76,43.41-49.76,43.41-13.47,0-30.06-21.18-30.06-21.18-2.34,16.73,59.59,61.26,96.62,85.61a45.34,45.34,0,0,0,49.84,0C792.34,476.2,857.51,430.86,855.28,414.88Z" fill="#6b3c12"/><rect width="1262.35" height="2195.18" fill="none"/></g></g></g></svg>