<svg xmlns="http://www.w3.org/2000/svg" width="1262.35" height="2195.18" viewBox="0 0 1262.35 2195.18"><defs><style>.a{fill:none;}.b{fill:#e0a07b;}.c{fill:#ca8760;}</style></defs><title>man body B</title><rect class="a" width="1262.35" height="2195.18"/><path class="b" d="M885.34,943.64s-21.87-13.12-32.56-18.95c0,0-9.24-19.44-11.18-22.35s-10.69-1-18.47,3.89-37.9,21.38-35.47,30.61,45.19-18,45.19-18L840.14,933S812,947.05,810,949c-3.84,3.84-27.7,31.59-26.24,37.91.62,2.7,6.87,2.33,13.61-2.43,9-6.37,19.71-19,27.21-26.73L844,949l1.46,1.94s-17.5,9.24-18,11.18-29.16,29.16-22.84,36.45,34.5-27.7,34.5-27.7L853.26,965s2.92,1.45,2.92,3.4-38.88,33-34.51,41.31S861.52,985,861.52,985s49.83,12.3,54-19C917.89,947.53,885.34,943.64,885.34,943.64Z"/><path class="b" d="M612.88,678.71c-2.14-10.65,40.79,195.64,34.41,211.58-9.34,23.36-37.23,88.24-45.7,153.18-4.67,35.81-10.47,357.15,2.11,460.94-38.88,70.49-43.52,247.67-19.05,481.77,0,0-25.42,87.88-30.71,118.58,0,0-25.41,41.3-18,52.95,0,0,4.24,7.41,12.71,3.17,0,0,4.23,14.83,18,8.47,0,0,7.41,16.94,20.11,5.3,0,0,16.94,9.53,24.36-3.18,0,0,29.64,15.88,28.58-49.76,0,0,18-23.3,11.65-47.65s-16.94-82.59-16.94-82.59,10.07-141.4,19.18-273.18c2.91-42.17,5.65-83.3,7.33-118.62,2.44-51.41,4.66-90.52,0-102.67,0,0,45.08-239.31,63.79-338.94,3.84-20.44,7.52-41,8.43-46.41,0,0,95.07,359.94,103.55,404.41-13.77,41.29-27.53,109.06,18,222.35,19.24,47.9,58.23,217.06,67.76,268.94,0,0-32.82,78.36-6.35,98.47s40.23,7.42,54,23.3c7.83,9,25.23,28.33,44.47,38.12,14.58,7.41,31.1,8.05,40.23,2.11,0,0,30.71,8.47,25.42-2.11,0,0,20.11,5.29,18-2.12,0,0,14.82,2.12,9.52-7.41s-60.35-48.71-67.76-54c0,0-50.82-96.36-60.35-103.77,0,0-17.34-70.48-30.71-153.53-21.4-132.88-44.62-319.77-44.47-320.82,2.84-19.33-5.68-132.61-15.6-250.57-8.56-101.71-17.65-206.9-27.46-258.37-17-89.36-38.47-131.12-38.47-131.12l43-221.06S955.29,796.06,968,819.35c0,0-31.87,27.39-60.3,88.1a145.35,145.35,0,0,1-22.13,34.22c-1.24,1.42,8.25,36.51,30.49,25.92s120.7-122.83,119.64-141.88c-1.92-5.47-29.68-73.79-67.64-141.89-37.13-66.57-49.06-111.17-75.3-143.7-2.94-3.62-58.54-13.15-86.92-20.37-23.53-6-31.28-7.67-44.72-11.51,0,0,.66-35.95,0-47.89-1.06-19.06-22.71-27.59-38.59-24.41s-23.35,4.59-24.41,27.88L700,507.41s-16.53,7.35-41.11,11.87c-29.35,5.39-71.7,14.45-81.24,16.84-16.95,4.23-35.89,46.06-44.36,107.47s-34.41,235.06-34.41,235.06-47.65,91.06-75.18,272.11c0,0-47.67,33.37-73.1,51a42.27,42.27,0,0,0-17.2,25.49c-1.78,7.9-4,17.2-6,24.25a26.36,26.36,0,0,0,2.19,19.78c7,12.93,18.81,33.11,23.16,30.94,6.36-3.18-7.41-30.71-11.64-40.24l10.58-29.65,29.65-20.11s6.35,4.23,1.06,10.58-37.06,25.42-31.76,37.06c0,0,2.11,6.36,15.88-3.17s43.41-24.36,60.35-29.65,28.59-59.29,28.59-59.29,115.41-224.47,96.35-283.77Z"/><path class="c" d="M696.59,551.35c39,11.87,80.76,10.71,109.25-31.6-19.23-4.83-33.75-8.38-44.72-11.51,0,0,.66-35.95,0-47.89-1.06-19.06-22.71-27.59-38.59-24.41s-23.35,4.59-24.41,27.88L700,507.41s-15.83,8.06-41.11,11.87C668,531.38,680.69,546.58,696.59,551.35Z"/><path class="c" d="M845.12,946.06l-19.77,5.65-37.51,36.82a21.19,21.19,0,0,0,9.54-4.06c9-6.37,19.71-19,27.21-26.73L844,949l1.43,1.91,2.48-1.31Z"/><path class="c" d="M857.12,960.18l-20.47,7.06c-5.65,7-32,31.32-32,31.32,6.31,7.29,34.5-27.7,34.5-27.7L853.26,965s2.92,1.45,2.92,3.4l4.47-3.31Z"/><path class="c" d="M862.06,979.94a154.12,154.12,0,0,1-40.39,29.8C826.05,1018,861.52,985,861.52,985s32.49,8,47.17-5.35C890.62,989.07,862.06,979.94,862.06,979.94Z"/><path class="c" d="M832.85,918.86l7.08,13.68,3.77-1.3-10.58-17.65c-6.55,3.82-33.37,17.77-45.18,23.9C792.31,944.66,832.85,918.86,832.85,918.86Z"/><path class="c" d="M1011.49,835c-4.07,2.79-10.73,10.17-8.62,16.07,1.16,3.28,5.46,3.83,8.67,2.5,2.75-1.14,5.1-4.52,7.58-7,4.4-4.41,7.91-8.74,5.65-12.37C1024.77,834.16,1020.88,828.53,1011.49,835Z"/><path class="c" d="M507.27,893.72c-4.72,12,0,18.88,6.08,17,4-1.22,10.29-8.39,12.43-13,5.18-11.31,2.9-17.72-1.4-19.59C524.38,878.13,515.77,872.08,507.27,893.72Z"/><path class="c" d="M681,1058.65s63.53,9.53,103.76-1.06l-52.94,64.59Z"/><path class="c" d="M637.59,717.36s13.42,35.79,24.6,42.5c2.8,1.68,8.67,1.54,15.9.39a381.73,381.73,0,0,1,108.58-2c8.21,1,15.69,1.12,20.92-.63,20.13-6.71,31.31-53.68,31.31-53.68S778.51,757.62,637.59,717.36Z"/><path class="c" d="M615.45,1511.68c5.23,2.11,14,3.73,25.47-1.25a2.34,2.34,0,0,1,2.87,3.45c-6.94,10.28-20.76,25.1-31.4.89A2.35,2.35,0,0,1,615.45,1511.68Z"/><path class="c" d="M863.16,1526.74a57.74,57.74,0,0,0,30.59.33,2.85,2.85,0,0,1,3,4.49c-6.63,8.64-20.07,19.85-36.58-.29A2.84,2.84,0,0,1,863.16,1526.74Z"/><path class="c" d="M931,2028.41A57.65,57.65,0,0,0,941.64,2051a2.81,2.81,0,0,1-3.38,4.27c-8.82-3.85-19-11.83-12.59-27.27A2.81,2.81,0,0,1,931,2028.41Z"/><path class="c" d="M636.42,2025.24c4.27,7.73,9,20.25.84,28.56a1.28,1.28,0,0,1-2.15-1.16c1-4.69,1.86-13.66-1.05-26.51A1.27,1.27,0,0,1,636.42,2025.24Z"/><path class="c" d="M1032.59,2147.35c5.72,9,15.44,14.64,19.35,23.5a19.37,19.37,0,0,0,2.82-1.5,117.14,117.14,0,0,0,12.88,2.68C1057.44,2161,1046.26,2153.73,1032.59,2147.35Z"/><path class="c" d="M1082.59,2147.35c5.67,6.49,14.62,10.34,19.41,18a14.18,14.18,0,0,0,3.79-.56C1099.56,2157.48,1090.59,2151.92,1082.59,2147.35Z"/><path class="c" d="M556.59,2139.35c-8.81,4.41-11.41,14.24-14.64,22.67a10.17,10.17,0,0,0,6.7-1.14,18.31,18.31,0,0,0,2.19,4.55C550.1,2156.59,552.73,2147.06,556.59,2139.35Z"/><path class="c" d="M588.59,2147.35c0,2-2,3-2,4-1.33,8-.46,16-.6,24,.26-.21.51-.42.77-.66a28.2,28.2,0,0,0,3.26,1.48C588.1,2166.69,588,2156.87,588.59,2147.35Z"/><path class="c" d="M573.59,2140.35c-7,8.44-9.12,19.35-10.78,30.3a17.76,17.76,0,0,0,3.84-1.3,22,22,0,0,0,3.82,5.65C568.12,2163.43,571.39,2151.35,573.59,2140.35Z"/><path class="c" d="M610.73,2172.07l.39-.6a16.69,16.69,0,0,0,5.69,1.6,126.21,126.21,0,0,1-4.22-31.72C607.8,2150,609.89,2161.56,610.73,2172.07Z"/><path class="c" d="M1060.59,2146.35c9.82,4.91,17,14.51,19.77,24.42.58-.83.6-2-.18-3.53a64.08,64.08,0,0,0,10.56,1.77C1082.16,2159.16,1073.65,2149,1060.59,2146.35Z"/></svg>