<svg xmlns="http://www.w3.org/2000/svg" width="1262.35" height="2195.18" viewBox="0 0 1262.35 2195.18"><defs><style>.a{fill:none;}.b{fill:#99381d;}.c{fill:#ef572d;}.d{fill:#d14722;}.e{fill:#ff6b30;}</style></defs><title>man hair F</title><rect class="a" width="1262.35" height="2195.18"/><path class="b" d="M882.53,177.35c-6.4-95.72-127.2-78.53-149.51-71.87-10.07-3.32-157.83-6.14-159.67,96.58-1.41,79.06,4.94,106.59,4.94,106.59s9.47-2,16.89,8.59l9.58-28.36s-8.54-105.17,15.89-106.23S731,212.56,732.51,212c.44.23,55.73-36.73,107.66-30.38,24.27,3,17.71,108.35,17.71,108.35l10.59,24.35c11.23-8.47,19.17-5.23,19.17-5.23S888.82,271.59,882.53,177.35Z"/><path class="c" d="M915.42,205.45a109.17,109.17,0,0,1-28.68-42.24,32.34,32.34,0,0,1,27,6.39,95.05,95.05,0,0,0-61.11-61.21c7.32-2.33,20-8.68,14.92-23.35a46.44,46.44,0,0,1-46,1.56C835.94,75,820,53.48,820,53.48c-5.94,12.34-27.61,23.31-43.35,19.4,1.62-9.58-9.62-26.16-18.39-30.33a80,80,0,0,0-43.85-7.1c4.27,3.56,8.68,7.31,10.9,12.41s1.47,11.91-3.13,15c-14.71,10-22.84-2.51-26.63-9.66s-4.39-9.59.39-16.12C677.69,47.28,666.29,60,664.52,80.83c-10.91-16.74-27.47-20.74-47.4-22.07,6,4,9.71,12,11.29,19.06-28.94-7.76-44.34,11-47,24.69,2.07-8.52,16.27-8,20.31-.22s.08,17.57-6.05,23.84c-9,9.2-24.49,13.26-35,5.83-.64,12.15,7.77,24.2,19.39,27.79-22.69,6.08-38.68,30.78-35,54a31.8,31.8,0,0,1,20.25-15.08c2.39,19.6-8.41,40.14-25.91,49.26,28.44,9.2,62.67-10.16,69.44-39.28-1.87,15,1.21,37.17,8.13,50.61,3.67-21.17,10.72-38.11,24.47-46.46,1.17,2.47,2.49,46.47,39.85,41.2a73.24,73.24,0,0,1-11.64-37.06c10.63,12.35,19.58,20.66,30,33.15s20.81,32.94,8.67,43.8c13.92-6.46,24.51-19.1,21-48,5.65,15.53,7.06,33.18-.7,49.42,20.47-5.65,41.64-25.42,29.27-67.42A63.84,63.84,0,0,0,805,250.33c-14.23-13-14.91-38.19-13.93-39,9.24,2.07,18.13,6.52,23.6,14.16,6.23,8.67,6.59,22-1.14,29.32,11.89-8.68,22.77-20.35,29.33-33.44,5.68,5.09,17.84,17.35,24.15,21.64-5.73-12.79-10.8-26.32-9.18-40.24,19.59,10.68,25.43,28.87,16.24,49.19,7-6.85,14.23-13.89,18.57-22.7s5.37-19.92.09-28.21A20.93,20.93,0,0,0,915.42,205.45Z"/><path class="d" d="M886.59,208.35c-4-19-17-34-32-44,1,20-12,36-26,48,8-23-5-46-24-59-1,14-6,29,0,43-12-15-32-22-39-41,2,31-11,59-33,80,7-21-1-44-15-60-4,16-3,32,1,47-21-14-36-35-34-61-10,26-36,40-63,41,13-8,19-27,12-41-13,12-34,19-38,39-5-16,1-39,17-46-28.74,4.36-59.73,26.91-67.93,55.77.09,1.2.21,2.4.41,3.6a31.8,31.8,0,0,1,20.25-15.08c2.39,19.6-8.41,40.14-25.91,49.26,28.44,9.2,62.67-10.16,69.44-39.28-1.87,15,1.21,37.17,8.13,50.61,3.67-21.17,10.72-38.11,24.47-46.46,1.17,2.47,2.49,46.47,39.85,41.2a73.24,73.24,0,0,1-11.64-37.06c10.63,12.35,19.58,20.66,30,33.15s20.81,32.94,8.67,43.8c13.92-6.46,24.51-19.1,21-48,5.65,15.53,7.06,33.18-.7,49.42,20.47-5.65,41.64-25.42,29.27-67.42A63.84,63.84,0,0,0,805,250.33c-14.23-13-14.91-38.19-13.93-39,9.24,2.07,18.13,6.52,23.6,14.16,6.23,8.67,6.59,22-1.14,29.32,11.89-8.68,22.77-20.35,29.33-33.44,5.68,5.09,17.84,17.35,24.15,21.64-5.73-12.79-10.8-26.32-9.18-40.24,19.59,10.68,25.43,28.87,16.24,49.19,3.42-3.33,6.87-6.7,10-10.3A62.47,62.47,0,0,0,886.59,208.35Z"/><path class="e" d="M629.59,128.35c8-6,17-16,13-27-2-4-7-6-11-8,22-3,36,14,52,25,0-10-5-20-7-30,11,3,21,9,28,18-2-10-4-20-3-30,6,4,12,7,19,6,12-2,22-14,19-26,15,14,15,39,4,55a80.43,80.43,0,0,0,49-31c4,12-2,25-11,33,17,1,35,0,47-13-2,12-11,19-16,29,29-8,62-3,87,14,.65.45,1.28.94,1.91,1.41a94.94,94.94,0,0,0-48.88-36.37c7.32-2.33,20-8.68,14.92-23.35a46.44,46.44,0,0,1-46,1.56C835.94,75,820,53.48,820,53.48c-5.94,12.34-27.61,23.31-43.35,19.4,1.62-9.58-9.62-26.16-18.39-30.33a80,80,0,0,0-43.85-7.1c4.27,3.56,8.68,7.31,10.9,12.41s1.47,11.91-3.13,15c-14.71,10-22.84-2.51-26.63-9.66s-4.39-9.59.39-16.12C677.69,47.28,666.29,60,664.52,80.83c-10.91-16.74-27.47-20.74-47.4-22.07,6,4,9.71,12,11.29,19.06-28.94-7.76-44.34,11-47,24.69,2.07-8.52,16.27-8,20.31-.22s.08,17.57-6.05,23.84c-9,9.2-24.49,13.26-35,5.83,0,.78,0,1.56,0,2.33C576.36,154.7,610.45,141.11,629.59,128.35Z"/></svg>