<svg xmlns="http://www.w3.org/2000/svg" width="1262.35" height="2195.18" viewBox="0 0 1262.35 2195.18"><defs><style>.a{fill:none;}.b{fill:#40210f;}.c{fill:#5a2e15;}.d{fill:#874520;}</style></defs><title>man hair A</title><rect class="a" width="1262.35" height="2195.18"/><path class="b" d="M600.59,213.35c-14.4,5.4-27.18,15.65-42.71,17.65.44,4.94,3.24,35.84,8.41,79.76,0,0,9.89-16.94,29.65,10.59,0,0,6.74-56,17.59-83.53-13.27,3.64-26.63,7-38.94,13.53C582.59,238.35,593.59,227.35,600.59,213.35Z"/><path class="b" d="M885.59,278.35c-8.56-18-23-33-33.22-50.15,6,17.66,15.1,46.3,16,58.56v29.65s15.53-20.47,33.18,2.12c0,0,5.64,7.76,2.82,28.23,0,0,11.91-52.54,2.23-99-6.85-8-13.07-16.44-17-26.41C888.59,240.35,887.59,259.35,885.59,278.35Z"/><path class="b" d="M739.49,243.82l64-48.82s17.65,44.47,40.94,72.71h0c-14.29-33.47-25.86-68.21-39.82-102.35C785.86,193.44,762.26,218.49,739.49,243.82Z"/><path class="c" d="M867,132.88S854.29,65.12,752.65,42.53c0,0,9.64,15.43,20.76,36.15C716.51,62,634.06,60.88,600.18,65.12l39.52,43.76c-30.76,5.1-59.43,13.44-94.58,36.71,0,0,19.76,22.59,36.7,26.82-27.27,22.33-28.23,32.47-50.82,63.53l21.81-4.59h0l5-1.06s0,.26.06.71c15.53-2,28.31-12.25,42.71-17.65-7,14-18,25-26,38,12.31-6.52,25.67-9.89,38.94-13.53.25-.64.51-1.27.76-1.88,0,0,3.91-.4,10.49-1.37,1.27-.39,2.54-.8,3.81-1.22-1.27.42-2.54.83-3.81,1.22,27.29-4,100.8-17.72,134.92-53,0,0-19.05,43.06-36.7,74.82l16.49-12.59c22.77-25.33,46.37-50.38,65.1-78.47,14,34.14,25.53,68.88,39.82,102.35l2.82-54.35s2.18,6.07,5.14,14.85c10.25,17.13,24.66,32.18,33.22,50.15,2-19,3-38,4-57,4,10,10.2,18.44,17,26.41,0-.17-.07-.35-.11-.52,0,0,9.88,7,19.76,12.7S927.7,138.53,867,132.88Z"/><path class="d" d="M684.88,76.41s35.29,60.71,124.24,67.77c0,0-94.59,25.41-161-63.53Z"/><path class="d" d="M827.47,152.65s33.88,12.7,60.7,7.06l11.3,28.23S851.47,175.24,827.47,152.65Z"/></svg>