<svg xmlns="http://www.w3.org/2000/svg" xmlns:xlink="http://www.w3.org/1999/xlink" width="1262.35" height="2195.18" viewBox="0 0 1262.35 2195.18"><defs><style>.a{fill:none;}.b{clip-path:url(#a);}.c{fill:#41312d;}.d{fill:#634b45;}.e{fill:#382a27;}.f{fill:#302422;}.g{fill:#232020;}.h{fill:#b36953;}</style><clipPath id="a" transform="translate(558.34 948.88)"><path class="a" d="M350.17,553.2c-19.35-285.48-43-507.15-45.05-516.71-1.24-.25-1.94-.42-1.94-.42s-35.48,33-39.85,24.78,34.5-39.36,34.5-41.3-2.91-3.41-2.91-3.41L280.83,22s-28.19,35-34.51,27.7c-4-4.66,6.23-17.47,14.28-26.6q-5,1.19-9.85,2.17c-17.15,17.23-32.16,20.42-21.58,3.39-6.83.79-12.88,1.26-19,1.54h0C125.85,34.06,65,.34,64,0,60.62,6.91,51.89,30.84,52.76,31.21,18.52,147.69,36.63,324.34,39.92,554.38c-61.23,136.2-33.79,479.44-33.79,479.44,31.58,28.79,86.79,5.85,86.79,5.85,1.15-14.81,14.19-466.78,15-470,6.72-26.17,57.4-356.44,66.26-396.64l96.45,396.63C246.59,687,271.81,748.74,291.35,808c14.75,44.81,48.24,238.55,48.24,238.55a110.86,110.86,0,0,0,16.67,8h0c43.92,16.4,75.1-5.21,75.43-5.24C404.61,978.15,350.17,553.2,350.17,553.2Z"/></clipPath></defs><title>man pant B</title><g class="b"><rect class="a" width="1262.35" height="2195.18"/><path class="c" d="M64,0S176.34,60.28,297.36,11.29c1.17,4.25,3.38,8,8,26.36,7.82,67.9,26.64,247.45,44.81,515.55,0,0,54.44,424.95,81.52,496.06,0,0-40.41,27.27-92.1-2.71,0,0-33.49-193.74-48.24-238.55-12.81-38.9-46.94-110.42-20.7-238.37,0,0-93.13-392-95.19-400.5s-60.28,372.32-67.52,400.51c-.83,3.25-13.87,455.22-15,470,0,0-55.21,22.94-86.79-5.85,0,0-27.44-343.24,33.79-479.44,0,0-2.91-80.38-5-179.91-2-92.94-2.23-155.65-.12-246C35.63,92.1,52.26,24.24,64,0Z" transform="translate(558.34 948.88)"/><path class="d" d="M175.46,169.13l24.08-12.55s2.17-118.58.79-122.83-25.41-.16-25.41-.16Z" transform="translate(558.34 948.88)"/><path class="e" d="M56.91,561.76c5.22,2.14,14,3.82,25.48-1.09a2.35,2.35,0,0,1,2.85,3.48c-7,10.22-20.92,25-31.4.68A2.34,2.34,0,0,1,56.91,561.76Z" transform="translate(558.34 948.88)"/><path class="e" d="M305.94,571.35a57.65,57.65,0,0,0,30.58.53,2.85,2.85,0,0,1,3,4.51c-6.68,8.6-20.19,19.72-36.57-.52A2.85,2.85,0,0,1,305.94,571.35Z" transform="translate(558.34 948.88)"/><path class="f" d="M285.58,630.53c1.19-40.29,7.06-61.07,7.11-61.28a2,2,0,0,0,0-1c-13.6-53.08-88.37-404.25-89.13-407.79a2,2,0,1,0-3.91.83c.75,3.53,75.07,352.57,89,407.44-.95,3.55-6,23.88-7.12,61.5s1.64,99.81,21.2,184C329.46,929,348.35,1017,356.26,1054.5c1.48.56,2.95,1.08,4.41,1.55-7.6-36.07-26.73-125.41-54-242.77C287.24,729.62,284.47,667.72,285.58,630.53Z" transform="translate(558.34 948.88)"/><path class="f" d="M20.08,1040.68C2.55,870.55,11.32,749.55,21.77,678,32.51,604.4,47.21,566.48,48.84,562.42c.12-18.74,1-471.92.88-476.25l4-.15c.06,1.11-.34,214.74-.38,239.1-.11,59.52-.22,119-.32,163.6,0,22.3-.08,40.88-.11,53.89l0,15.1c0,1.72,0,3,0,3.92V563h-.07c-.07.83-.19,1.18-.41,1.41-2.29,5.81-16.31,43.33-26.67,114.43-10.39,71.28-19.1,191.86-1.63,361.44Z" transform="translate(558.34 948.88)"/><path class="e" d="M284.33,23l-3.68,4.21C286.3,76.45,301,101.45,313.26,114c-.34-3.69-.78-7.3-1.08-10.89C288.3,73.17,284.33,23,284.33,23Z" transform="translate(558.34 948.88)"/><path class="e" d="M76.85,28l-7-4.28c-4.1,31.19-17.12,52.42-30,66.27-.69,4.73-1.68,9.26-2.66,13.79C70.92,71.19,76.85,28,76.85,28Z" transform="translate(558.34 948.88)"/><path class="e" d="M277.38,566.5c-23.55-70.74-87.84-391.64-87.84-391.64l55.36-47.64-70.15,41.55-.73,3.52c2.07,8.49,96.63,397.34,96.63,397.34-26.24,128,7.89,199.47,20.7,238.37C248.4,682.08,277.38,566.5,277.38,566.5Z" transform="translate(558.34 948.88)"/><path class="g" d="M305.36,37.65c-3.31-16-6.22-20.71-8-26.36C176.34,60.28,64,0,64,0,60.62,6.91,53.44,22.56,50.3,30.12,83.33,45.59,217.83,78.59,305.36,37.65Z" transform="translate(558.34 948.88)"/><path class="h" d="M210.19,30.17a293.77,293.77,0,0,1-49.65-2c-.26,9-1,18-1.72,27a413.39,413.39,0,0,0,51.58,2.09C209.94,48.23,210.1,39.11,210.19,30.17Z" transform="translate(558.34 948.88)"/></g></svg>