<svg xmlns="http://www.w3.org/2000/svg" xmlns:xlink="http://www.w3.org/1999/xlink" width="1262.35" height="2195.18" viewBox="0 0 1262.35 2195.18"><defs><style>.a{fill:none;}.b{clip-path:url(#a);}.c{fill:#821e1e;}.d{fill:#661818;}.e{fill:#507d8f;}.f{fill:#a62626;}.g{fill:#942222;}.h{fill:#6b1818;}</style><clipPath id="a"><path class="a" d="M987,1963.24c-9.11-35.23-20.61-118.42-33-184.21,0,0,5.74-38.41-4-83.08-1.29-5.94-2.86-12-4.75-18.08q-1.4-4.48-3-9a175.88,175.88,0,0,0-13.68-29.19C914.28,1566,900,1499.26,900,1499.26c-2-48.21-5.92-105.58-7.92-145.91a206.92,206.92,0,0,0,5.17-67.06c-.44-4.9-1.08-9.91-2-15q-.66-3.73-1.51-7.5a142,142,0,0,0-8-24.8c-11.52-127.54-25.93-215.57-33.45-256.19-5.1,4.67-35.11,31.66-39.11,24.1-4.37-8.26,34.51-39.36,34.51-41.3s-2.92-3.41-2.92-3.41L830.7,968s-28.19,35-34.51,27.7c-4-4.66,6.24-17.47,14.3-26.61-3.3.79-6.59,1.52-9.85,2.17a95.52,95.52,0,0,1-11.74,10.35c-6.73,4.77-13,5.14-13.6,2.43-.41-1.77,1.17-5.23,3.75-9.38-91.94,10.66-165.23-28.63-165.23-28.63l-.87,1.86-.13.3c-.28.63-.57,1.28-.85,2l-.15.34c-.29.7-.59,1.42-.89,2.16l-.06.16c-.32.78-.63,1.59-1,2.42l0,0-1,2.57a2.25,2.25,0,0,1-.08.24c-.32.88-.65,1.78-1,2.7l0,.12c-10.69,30.5-22.49,83.11-23.2,113.6-.85,35.91-4,53.77-8.47,175.06-.41,1-.81,1.9-1.19,2.85-.12.29-.23.58-.34.86-.27.68-.54,1.36-.79,2-.12.31-.24.62-.35.93-.26.7-.51,1.39-.75,2.08-.1.27-.19.54-.28.8-.3.87-.59,1.74-.87,2.6,0,.09-.06.17-.08.25q-1,3.06-1.81,6.1l-.06.22c-.25.94-.5,1.88-.73,2.82,0,.09,0,.18-.07.27-.25,1-.48,2-.71,3h0c-10.24,44.94,1.05,87.29,1.65,89.45v0l0,.08c-1,36.74.51,86.88-.76,137.65-7.55,49.37-19.13,103-23.86,144a176.72,176.72,0,0,0-9.92,30.66c-.71,3.11-1.33,6.21-1.88,9.28-1.11,6.28-1.91,12.48-2.46,18.54-4.08,45.53,6.41,82.93,6.41,82.93-4.28,113.85-.7,162.82-.7,162.82,2.19,15.59,7.05,36.71,33.88,42.36,9.31,2,46.72-2.57,55.41-3.53,18.75-2.08,28-23.5,28.59-42.36,3.41-101.84,2.56-427.79,3.28-430.59,7.24-28.19,66.65-386.83,68.72-378.35s85.59,381.18,85.59,381.18c-10.59,108,16.3,196.63,29.11,235.53,12.11,36.81,36.87,174.12,45.32,222a32.65,32.65,0,0,0,21.06,25.07c19,6.82,35.62,9.42,63.51-4A29.23,29.23,0,0,0,987,1963.24Z"/></clipPath></defs><title>man pant E</title><rect class="a" width="1262.35" height="2195.18"/><g class="b"><path class="c" d="M613.82,946.06s112.39,60.28,233.41,11.29c.83,3,22.49,104,38.53,281.65,3.6,39.85,4.06,68.06,6.36,114.35,2,40.33,5.9,97.7,7.92,145.91,0,0,14.24,66.72,28.49,140.45,8.84,45.72,15.43,86,25.46,139.32,12.4,65.79,23.9,149,33,184.21a29.23,29.23,0,0,1-15.88,33.88c-27.89,13.41-44.49,10.81-63.51,4A32.65,32.65,0,0,1,886.55,1976c-8.45-47.86-33.21-185.17-45.32-222-12.81-38.9-39.7-127.53-29.11-235.53,0,0-83.53-372.69-85.59-381.18s-61.48,350.16-68.72,378.35c-.72,2.8.13,328.75-3.28,430.59-.63,18.86-9.84,40.28-28.59,42.36-8.69,1-46.1,5.49-55.41,3.53-26.83-5.65-31.69-26.77-33.88-42.36,0,0-3.58-49,.7-162.82,1.67-44.47.24-75.42,7.85-141.41,4.73-41,16.31-94.63,23.86-144,1.27-50.77-.24-100.91.76-137.65,1.36-50,5.13-81.44,6.35-114.35,4.51-121.29,7.63-139.15,8.48-175.06C585.5,1038.15,602.13,970.3,613.82,946.06Z"/><path class="d" d="M563.75,1991.16c-4.37-139.57,6.08-276.41,16.88-391.86a76.39,76.39,0,0,1,2.61-12.07c1.22-4.44,2.38-8.64,2.38-12.7v-.23c2-20.94,6.11-42.25,13.06-67,0-.13,0-.27-.05-.41-3.53-25.57-3.53-52.77,0-85.62,3.81-41.5,5.76-83.12,7.65-123.38,3.05-65.18,6.21-132.58,17.37-200.75,1.57-9.65,3-19.4,4.3-28.82,4.8-33.65,9.33-65.43,21.84-96.71l.09-.19a49.16,49.16,0,0,0,3.45-9.52l4.83,1.3a53.88,53.88,0,0,1-3.76,10.36c-12.26,30.69-16.75,62.16-21.5,95.47-1.34,9.44-2.74,19.21-4.32,28.91-11.1,67.89-14.26,135.15-17.31,200.19-1.89,40.31-3.84,82-7.66,123.64-3.48,32.47-3.49,59.28,0,84.43,0,.19.06.41.08.62l.11.87-.14.49c-6.93,24.62-11.07,45.75-13,66.48,0,4.69-1.26,9.17-2.56,13.9a73.44,73.44,0,0,0-2.46,11.26c-10.78,115.25-21.21,251.9-16.85,391.19Z"/><path class="d" d="M955,2006.17l-.56-2.75c-10.82-53.2-19.63-107.84-28.14-160.69C910.45,1744.25,894,1642.41,864,1546.21l-.09-.28,0-.3c-2.62-39.42-4.94-79.56-7.18-118.39-8.73-150.94-17.75-307-46.57-458.14l-.44-2.33,2.29-.57a258,258,0,0,0,34.17-11.09A12.85,12.85,0,0,1,859,954.4c12.85,6.42,24.31,35.22,35,88.05,9.62,47.53,18.23,112.87,25.58,194.21,1.83,20.28-1.93,38.39-5.9,57.57-3.9,18.82-7.93,38.28-6.8,61.12.93,18.82,6.63,39.14,12.66,60.65,6.77,24.18,13.78,49.18,14.86,74.83.25,2.54,7.26,74,21.14,145.81,4.18,21.63,10.66,41,17.52,61.59,7.53,22.56,15.31,45.89,20.6,74,7.7,40.87,28.63,92.82,45.45,134.57,10.1,25.07,18.82,46.72,22.28,60.09h0a6.39,6.39,0,0,1-.85,5c-5,8.11-29.25,13.84-60.42,20.49-12.36,2.63-24,5.12-27.95,7a120.17,120.17,0,0,1-14.51,5.93ZM868.81,1545c30.14,96.46,46.56,198.37,62.44,296.93,8.36,51.87,17,105.48,27.54,157.7a118.52,118.52,0,0,0,11.24-4.77c4.46-2.14,15.33-4.46,29.08-7.39,21.07-4.5,52.91-11.29,57.21-18.23a1.4,1.4,0,0,0,.26-1.14h0c-3.38-13.06-12-34.57-22.08-59.48-16.9-41.95-37.93-94.16-45.72-135.51-5.23-27.73-13-50.89-20.43-73.29-6.92-20.71-13.44-40.28-17.69-62.23-14.11-73-21.14-145.63-21.21-146.35v-.14c-1.05-25.08-8-49.82-14.69-73.75-6.11-21.79-11.88-42.38-12.84-61.76-1.16-23.47,2.94-43.25,6.9-62.37,3.9-18.81,7.58-36.57,5.82-56.11-20.53-227.21-45-271.85-57.85-278.24-2.74-1.36-5.35-1.17-8.23.61l-.38.19a261.17,261.17,0,0,1-32.73,10.8C844,1121.2,853,1276.62,861.65,1427,863.88,1465.67,866.2,1505.7,868.81,1545Z"/><path class="e" d="M576.17,1249.59s44.48,0,59.3,8.47l-10.59,103.76c-38.12,12.71-55.06,2.12-55.06,2.12S552.88,1303.59,576.17,1249.59Z"/><path d="M632.44,1287.78l.71-7c-22,.57-43.94-.39-65-6.41q-.85,3.77-1.51,7.5A276.67,276.67,0,0,0,632.44,1287.78Z"/><path class="f" d="M631.06,1301.32l1.38-13.54a276.67,276.67,0,0,1-65.8-5.89c-.91,5.08-1.55,10.09-2,15C585.91,1303.57,608.68,1303.29,631.06,1301.32Z"/><path d="M564.65,1296.88a206.92,206.92,0,0,0,5.17,67.06s16.94,10.59,55.06-2.12l6.18-60.5C608.68,1303.29,585.91,1303.57,564.65,1296.88Z"/><path class="f" d="M633.15,1280.8l2.32-22.74c-14.82-8.47-59.29-8.47-59.29-8.47a142,142,0,0,0-8,24.8C589.21,1280.41,611.17,1281.37,633.15,1280.8Z"/><path d="M614.78,1692.82l.88-8.63c-27.18.7-54.33-.48-80.38-7.93-.71,3.1-1.33,6.2-1.88,9.27A342.37,342.37,0,0,0,614.78,1692.82Z"/><path class="g" d="M613.07,1709.56l1.71-16.74a342.37,342.37,0,0,1-81.38-7.29c-1.11,6.28-1.91,12.48-2.46,18.54C557.24,1712.34,585.4,1712,613.07,1709.56Z"/><path d="M530.94,1704.07c-4.08,45.53,6.41,82.93,6.41,82.93s20.95,13.1,68.08-2.62l7.64-74.82C585.4,1712,557.24,1712.34,530.94,1704.07Z"/><path class="g" d="M615.66,1684.19l2.87-28.13c-18.33-10.47-73.33-10.47-73.33-10.47a176.54,176.54,0,0,0-9.92,30.67C561.33,1683.71,588.48,1684.89,615.66,1684.19Z"/><path d="M865.4,1695.26l-1.95-8.46c27-2.69,53.85-7.26,78.76-17.9q1.63,4.49,3,9A342.61,342.61,0,0,1,865.4,1695.26Z"/><path class="g" d="M869.19,1711.65l-3.79-16.39a342.61,342.61,0,0,0,79.83-17.39c1.89,6.09,3.46,12.14,4.75,18.08C924.93,1707.44,897,1710.62,869.19,1711.65Z"/><path d="M950,1696c9.75,44.67,4,83.08,4,83.08s-19.15,15.61-67.88,5.91l-16.92-73.29C897,1710.62,924.93,1707.44,950,1696Z"/><path class="g" d="M863.45,1686.8l-6.36-27.54c16.88-12.68,71.44-19.55,71.44-19.55a175.88,175.88,0,0,1,13.68,29.19C917.3,1679.54,890.5,1684.11,863.45,1686.8Z"/><path d="M829.5,1277.19l-.71-7c22,.57,43.94-.38,65-6.41q.86,3.77,1.51,7.5A276.67,276.67,0,0,1,829.5,1277.19Z"/><path class="f" d="M830.88,1290.73l-1.38-13.54a276.67,276.67,0,0,0,65.8-5.89c.91,5.08,1.55,10.09,2,15C876,1293,853.26,1292.7,830.88,1290.73Z"/><path d="M897.29,1286.29a206.92,206.92,0,0,1-5.17,67.06s-16.94,10.59-55.06-2.11l-6.18-60.51C853.26,1292.7,876,1293,897.29,1286.29Z"/><path class="f" d="M828.79,1270.21l-2.32-22.74c14.82-8.47,59.29-8.47,59.29-8.47a142,142,0,0,1,8,24.8C872.73,1269.83,850.77,1270.78,828.79,1270.21Z"/><path d="M852.36,983.05c-3-16.11-4.89-24.85-5.13-25.7-121,49-233.41-11.29-233.41-11.29a176.26,176.26,0,0,0-8,20.92C682.17,1005.09,770.71,1006.15,852.36,983.05Z"/><path d="M714.65,1099.09l-5.89-1.12c7-36.79,9.12-53.64,12.93-84.25.85-6.82,1.78-14.31,2.87-22.85l6,.76c-1.09,8.53-2,16-2.87,22.84C723.82,1045.19,721.71,1062.12,714.65,1099.09Z"/><path d="M753.9,1097.45C752.51,1085,738.53,994,738.39,993.1l5.93-.91c.57,3.75,14.14,92,15.54,104.6Z"/><path class="h" d="M734.29,1125l76.34-54.87a5.14,5.14,0,0,1,7.81,6c-13.35,35.54-43.89,122.72-47.63,185.66a3.05,3.05,0,0,1-6,.53C754.34,1219.65,734.29,1136.48,734.29,1125Z"/><path class="h" d="M713.12,1124l-61.66-50.64a.78.78,0,0,0-1.22.92c9.36,18.17,36.21,76,48.42,120.25a2.61,2.61,0,0,0,5.09-.31Z"/><path class="h" d="M580.41,1520.65s24.25,7.77,59.29,0C639.7,1520.65,592.06,1592.65,580.41,1520.65Z"/><path class="h" d="M837.7,1523.82s45.32,11.16,57.18-7.41C894.88,1516.41,885.35,1591.59,837.7,1523.82Z"/><circle cx="877.59" cy="1281.35" r="6.35"/><circle cx="583.94" cy="1293.35" r="6.35"/><circle cx="557.82" cy="1699.94" r="6.35"/><circle cx="931.94" cy="1692.88" r="6.35"/><path class="d" d="M623.34,1093.34c-21.88-13.13-42.78-75.23-43.66-77.86l5.69-1.9c.21.63,21.07,62.62,41,74.61Z"/><path class="d" d="M834.19,1086.83l-3.56-4.83c.4-.3,39.8-29.52,52-54l5.37,2.68C875.15,1056.46,835.86,1085.6,834.19,1086.83Z"/></g></svg>