<svg xmlns="http://www.w3.org/2000/svg" width="1262.35" height="2195.18" viewBox="0 0 1262.35 2195.18"><title>1_men_hair_12</title><g id="Layer_2" data-name="Layer 2"><g id="Character_men01_hair_1-3" data-name="Character_men01_hair 1-3"><g id="_1_men_hair_12" data-name="1_men_hair_12"><path d="M645.42,157s-40.7,47.85-31.77,93.49a79.78,79.78,0,0,1-2.1,39.94,118.8,118.8,0,0,0-5.87,43.85s2.92,55,17.59,81.28a4.47,4.47,0,0,1-6,6.12,20.48,20.48,0,0,1-7.69-7.11C603,403.94,595.72,350.06,592,312.88c0,0-9.85-6.59-18.86-4.33C573.15,308.55,544.41,185.82,645.42,157Z" fill="#eaeaea"/><path d="M584.59,288.35c-14.93-18.24-10.6-44.72-7-69.2-15.41,42.6-4.46,89.4-4.46,89.4,9-2.26,18.86,4.33,18.86,4.33,3.71,37.18,11,91.06,17.52,101.65a20.53,20.53,0,0,0,7.68,7.11,4.47,4.47,0,0,0,6.06-6.12c-14.67-26.26-17.59-81.28-17.59-81.28a117.56,117.56,0,0,1,5-41C600.15,295.9,588.59,293.69,584.59,288.35Z" fill="#bfbfbf"/><path d="M818.06,157s40.69,47.85,31.76,93.49a79.89,79.89,0,0,0,2.1,39.94,118.8,118.8,0,0,1,5.87,43.85s-2.92,55-17.59,81.28a4.47,4.47,0,0,0,6,6.12,20.48,20.48,0,0,0,7.69-7.11c6.53-10.59,13.81-64.47,17.52-101.65,0,0,9.86-6.59,18.86-4.33C890.32,308.55,919.06,185.82,818.06,157Z" fill="#eaeaea"/><path d="M878.88,288.35c14.93-18.24,10.61-44.72,7-69.2,15.41,42.6,4.46,89.4,4.46,89.4-9-2.26-18.86,4.33-18.86,4.33-3.71,37.18-11,91.06-17.52,101.65a20.53,20.53,0,0,1-7.68,7.11,4.47,4.47,0,0,1-6.06-6.12c14.67-26.26,17.59-81.28,17.59-81.28a117.56,117.56,0,0,0-5-41C863.32,295.9,874.88,293.69,878.88,288.35Z" fill="#bfbfbf"/><rect width="1262.35" height="2195.18" fill="none"/></g></g></g></svg>