<svg xmlns="http://www.w3.org/2000/svg" width="1262.35" height="2195.18" viewBox="0 0 1262.35 2195.18"><title>1_beard_7</title><g id="Layer_2" data-name="Layer 2"><g id="accessories"><g id="_1_beard_7" data-name="1_beard_7"><path d="M799.27,399.47c-5.1-3.08-38.87-9-53.8-10.49-1.84-.19-11.86,5.22-12.77,5.26-1.07,0-11.29-5.41-13.63-5.15-15.75,1.74-46.77,7.37-51.75,10.38-3.47,2.1-11.27,18.38-17,31.26a2.9,2.9,0,0,0,4.8,3.14c7.7-8.5,16.85-18.68,19.65-22.16,3.91-4.87,53.32-9.6,58.55-10.3,5.24.7,54.64,5.43,58.55,10.3,2.8,3.48,11.95,13.66,19.65,22.16a2.91,2.91,0,0,0,4.81-3.14C810.53,417.85,802.73,401.57,799.27,399.47Z" fill="#a1351b"/><rect width="1262.35" height="2195.18" fill="none"/></g></g></g></svg>