<svg xmlns="http://www.w3.org/2000/svg" xmlns:xlink="http://www.w3.org/1999/xlink" width="1262.35" height="2195.18" viewBox="0 0 1262.35 2195.18"><defs><style>.a{fill:none;}.b{clip-path:url(#a);}.c{fill:#4f4d51;}.d{fill:#464548;}.e{fill:#3f3e40;}.f{fill:#695045;}.g{fill:#a38274;}</style><clipPath id="a" transform="translate(582.53 948.88)"><path class="a" d="M239.15,60.85c-4.38-8.26,34.5-39.36,34.5-41.3s-2.92-3.41-2.92-3.41L256.64,22s-28.19,35-34.5,27.7c-4-4.66,6.22-17.47,14.28-26.6q-4.95,1.19-9.85,2.17a96,96,0,0,1-11.72,10.33c-5.79,4.1-20.1,9.55-9.86-6.94-6.83.79-12.89,1.26-19,1.54h0c-41.14,1.9-83.58-5.37-121.88-19.64A241.47,241.47,0,0,1,39.76,0c-3.33,6.91-12,30.84-11.19,31.21-9,30.6-17.38,71.7-18,97.26C8.78,204.87.71,515.69,0,542.82c27.84,15.24,58.89,16,88.94,12.71,17-98.86,60.59-390.53,62.35-383.29,1.7,7,63.42,290.83,85.89,385.41,29.32,5.18,66.62-4,93.17-16.94-17.49-251.07-41.66-437.79-49.17-503.06-.08-.4-.17-.78-.25-1.16-1.23-.25-1.94-.42-1.94-.42S243.52,69.11,239.15,60.85Z"/></clipPath></defs><title>man short pant A</title><g class="b"><rect class="a" width="1262.35" height="2195.18"/><path class="c" d="M330.35,540.71c-17.49-251.07-41.66-437.79-49.17-503.06-4.63-18.39-6.84-22.11-8-26.36C152.15,60.28,39.76,0,39.76,0,28.07,24.24,11.45,92.1,10.59,128.47,8.61,211.81-.81,574.09,0,542.82c27.84,15.24,58.89,16,88.94,12.71,17-98.86,60.59-390.53,62.35-383.29,1.7,7,63.42,290.83,85.89,385.41C266.5,562.83,303.74,553.69,330.35,540.71Z" transform="translate(582.53 948.88)"/><path class="d" d="M151.27,169.13l24.08-12.55s2.18-118.58.79-122.83-25.41-.16-25.41-.16Z" transform="translate(582.53 948.88)"/><path class="a" d="M0,544.69Z" transform="translate(582.53 948.88)"/><path class="a" d="M0,544.69,0,542.82H0Z" transform="translate(582.53 948.88)"/><path class="e" d="M179.4,160.41a2,2,0,1,0-3.91.83c.71,3.36,68.16,320.14,86.64,397.68,1.35-.07,2.69-.16,4.05-.27C248,482.43,180.12,163.78,179.4,160.41Z" transform="translate(582.53 948.88)"/><path class="e" d="M25.53,86.17c.07,4-12.26,381.46-14.52,461.88,1.33.54,2.67,1.05,4,1.54C17.3,472,29.58,87,29.53,86Z" transform="translate(582.53 948.88)"/><path class="d" d="M257.64,23l-4,4.21c6.15,49.25,22.14,74.26,35.43,86.83-.37-3.69-.86-7.3-1.18-10.89C262,73.16,257.64,23,257.64,23Z" transform="translate(582.53 948.88)"/><path class="d" d="M52.66,28l-7-4.28C41.53,54.89,28.5,76.12,15.64,90,15,94.7,14,99.23,13,103.76,46.74,71.19,52.66,28,52.66,28Z" transform="translate(582.53 948.88)"/><path class="a" d="M237.18,557.65l1.77.28c-6.07-26.32-30.86-133.71-52.77-228.53C204.7,414.11,225.89,510.15,237.18,557.65Z" transform="translate(582.53 948.88)"/><path class="a" d="M0,544.69Z" transform="translate(582.53 948.88)"/><path class="a" d="M0,544.69,0,542.82H0Z" transform="translate(582.53 948.88)"/><path class="d" d="M165.35,174.86l55.37-47.64-70.15,41.55a.49.49,0,0,1,.7.36c.85,3.47,16.57,76.31,34.91,160.27,21.91,94.82,46.7,202.21,52.77,228.53A101.57,101.57,0,0,0,250.83,559C225.64,475.75,165.35,174.86,165.35,174.86Z" transform="translate(582.53 948.88)"/><path class="f" d="M281.18,37.65c-3.32-16-6.23-20.71-8-26.36C152.15,60.28,39.76,0,39.76,0,36.43,6.91,29.25,22.56,26.12,30.12,59.14,45.59,193.65,78.59,281.18,37.65Z" transform="translate(582.53 948.88)"/><path class="g" d="M0,544.09v0Z" transform="translate(582.53 948.88)"/><path class="g" d="M0,543.49l0-.67c0,.55,0,1,0,1.27Z" transform="translate(582.53 948.88)"/><path class="g" d="M0,544.48v0Z" transform="translate(582.53 948.88)"/><path class="g" d="M186,30.17a293.73,293.73,0,0,1-49.65-2c-.27,9-1,18-1.73,27a413.47,413.47,0,0,0,51.59,2.09C185.75,48.23,185.91,39.11,186,30.17Z" transform="translate(582.53 948.88)"/></g></svg>