<svg xmlns="http://www.w3.org/2000/svg" width="1262.35" height="2195.18" viewBox="0 0 1262.35 2195.18"><title>1_beard_6</title><g id="Layer_2" data-name="Layer 2"><g id="accessories"><g id="_1_beard_6" data-name="1_beard_6"><path d="M778.62,405.72a56.42,56.42,0,0,0-9.8-8.42c-36.46,17.19-59,5.5-67.14-.4A57.6,57.6,0,0,0,691,406.25a3.73,3.73,0,0,0,2.9,6.2c18.94-.61,67.59-2,81.72-.74A3.59,3.59,0,0,0,778.62,405.72Z" fill="#b85c0b"/><path d="M768.82,397.3c-7.78-5.25-19-9.95-34.59-9.95-14.37,0-25,4.45-32.55,9.55C709.78,402.8,732.36,414.49,768.82,397.3Z" fill="#d96e11"/><rect width="1262.35" height="2195.18" fill="none"/></g></g></g></svg>