<svg xmlns="http://www.w3.org/2000/svg" width="1262.35" height="2195.18" viewBox="0 0 1262.35 2195.18"><defs><style>.a{fill:#b8640f;}.b{fill:#945018;}.c{fill:#bf7628;}.d{fill:none;}</style></defs><title>man hair G</title><path class="a" d="M901.57,249a121.82,121.82,0,0,0-14.8-43.3l18.13,7.82q-12.43-17.67-23.42-36.32l21.94,1.72a182.89,182.89,0,0,0-32.94-35.35,58.26,58.26,0,0,0,18.95-2.72A55.38,55.38,0,0,0,844,118.29l18.57-8.16a77,77,0,0,0-45.33-7.43,36.32,36.32,0,0,0,11.85-13.57,84.26,84.26,0,0,0-46.22,12.71,47.47,47.47,0,0,0,6.29-22.63,48.43,48.43,0,0,0-24.23,15,31.57,31.57,0,0,0-24.58-18.81q.41,9.81.82,19.61a45.13,45.13,0,0,0-28.38-17.56L716.47,93a41.63,41.63,0,0,0-31.7-19.11L687,90l-23.32-7.34,2.17,15.88S632,98.67,623.52,104l9.57,12.68s-42.09,4.92-60,27.61A58.26,58.26,0,0,0,592.06,147a182.89,182.89,0,0,0-32.94,35.35l21.94-1.72q-11,18.62-23.42,36.32l18.13-7.82A121.77,121.77,0,0,0,561,252.42a22,22,0,0,1,12.47-11.72,70,70,0,0,0-12.25,51.93,53.19,53.19,0,0,1,7.47-16.42A98.6,98.6,0,0,0,571.2,311s9.38-9.84,22.3,3.57l2.83,5.73C587.56,267.46,603.93,211,639.6,171a66.39,66.39,0,0,0-11,34,345.79,345.79,0,0,1,28.73-29.08L645,204.57a150.14,150.14,0,0,0,52.73-26.76L685.37,199a105.09,105.09,0,0,0,41.31-22.26,40.41,40.41,0,0,0,11.52,31.08q5.67-17,11.35-34a108.2,108.2,0,0,0,19.19,21.62q3.75-11.44,7.51-22.87l23.19,32.31a148,148,0,0,0,2.18-28.11A113.46,113.46,0,0,1,823.71,207l2.22-27.6a202.59,202.59,0,0,1,17.28,48.84c2.17-11.89,4.35-24.1,2.18-36,24.21,45.38,23,124.13,23,124.13,12.92-13.4,22.93-6.85,22.93-6.85a110.11,110.11,0,0,0,2.54-36.81,53.3,53.3,0,0,1,7.47,16.42,70,70,0,0,0-12.25-51.92A21.94,21.94,0,0,1,901.57,249Z"/><path class="b" d="M597.59,205.35c-2,4-5,8-7,12,1-12,2-24,7-36-13.09,10.64-24.84,23.27-38.53,33.54-.48.69-.94,1.38-1.42,2.06l18.13-7.82A121.77,121.77,0,0,0,561,252.42a22,22,0,0,1,12.47-11.72,70,70,0,0,0-12.25,51.93,53.19,53.19,0,0,1,7.47-16.42A98.6,98.6,0,0,0,571.2,311s9.38-9.84,22.3,3.57l2.83,5.73c-7.37-44.44,3-91.42,27.72-129,1-7.65,2.09-15.31,2.54-23C620.59,183.35,607.59,192.35,597.59,205.35Z"/><path class="c" d="M686.59,103.35c11,1,21,8,29,15,0-8,0-17,4-24,8,6,11,17,18,24,4-10,13-16,23-21-1,7,1,14,1,21,8-6,16-13,26-15-2,6-2,12-5,18,24-12.42,52.16-14.55,79.3-10.94l.64-.28a77,77,0,0,0-45.33-7.43,36.32,36.32,0,0,0,11.85-13.57,84.26,84.26,0,0,0-46.22,12.71,47.47,47.47,0,0,0,6.29-22.63,48.43,48.43,0,0,0-24.23,15,31.57,31.57,0,0,0-24.58-18.81q.41,9.81.82,19.61a45.13,45.13,0,0,0-28.38-17.56L716.47,93a41.63,41.63,0,0,0-31.7-19.11L687,90l-23.32-7.34,2.17,15.88s-30.27.1-40.72,4.61c25,3.83,50.18,9.34,72.45,22.18C691.59,119.35,689.59,111.35,686.59,103.35Z"/><path class="b" d="M839.59,197.35c-4-16-14-28-22-42,3,11-2,22,1,33-4-14-17-22-23-34-1,10-1,20-1,30-7-12-15-23-21-36-5,9-9,18-9,29-3-8-9-14-11-22-6,9-9,19-12,29a149.61,149.61,0,0,1-6-29c-8,13-21,19-32,29,3-10,5-20,4-31-14,14-30,25-47,36a138.53,138.53,0,0,0,10-33c-9,9-21,16-27,28-1-11,5-22,6-33-12.21,10.47-20.62,24.74-25.22,39.5A172,172,0,0,1,639.6,171a66.39,66.39,0,0,0-11,34,345.79,345.79,0,0,1,28.73-29.08L645,204.57a150.14,150.14,0,0,0,52.73-26.76L685.37,199a105.09,105.09,0,0,0,41.31-22.26,40.41,40.41,0,0,0,11.52,31.08q5.67-17,11.35-34a108.2,108.2,0,0,0,19.19,21.62q3.75-11.44,7.51-22.87l23.19,32.31a148,148,0,0,0,2.18-28.11A113.46,113.46,0,0,1,823.71,207l2.22-27.6a202.59,202.59,0,0,1,17.28,48.84c2.17-11.89,4.35-24.1,2.18-36A123.72,123.72,0,0,1,851.23,205c6.34,7.35,13.85,12.5,21.36,18.34a16.05,16.05,0,0,1-2.76-3.67c-12.5-13.4-19.89-32.31-28.24-48.33C841.59,180.35,839.59,188.35,839.59,197.35Z"/><path class="b" d="M901.57,249a122.1,122.1,0,0,0-13.9-41.69c-11.19-5.61-21.76-12.67-26.08-24.93a126.62,126.62,0,0,1,6,28,17.93,17.93,0,0,0,5,13c-7.51-5.84-15-11-21.36-18.34,18.17,46,17.18,111.4,17.18,111.4,12.92-13.4,22.93-6.85,22.93-6.85a110.11,110.11,0,0,0,2.54-36.81,53.3,53.3,0,0,1,7.47,16.42,70,70,0,0,0-12.25-51.92A21.94,21.94,0,0,1,901.57,249Z"/><rect class="d" width="1262.35" height="2195.18"/></svg>