<svg xmlns="http://www.w3.org/2000/svg" width="1262.35" height="2195.18" viewBox="0 0 1262.35 2195.18"><title>1_beard_9</title><g id="Layer_2" data-name="Layer 2"><g id="accessories"><g id="_1_beard_9" data-name="1_beard_9"><path d="M853.35,421.06s-16,10.23-24.8,11.29c0,0-23-33.88-37.19-40.23,0,0,10.94,34.94,9.84,38.12s-31.72,30.7-42.66,32.82c0,0-15.32-10.82-19.69-11.88,0,0,1.09,9.52-6.56,10.58-7.64-1.06-6.55-10.58-6.55-10.58-4.38,1.06-19.69,11.88-19.69,11.88-10.94-2.12-41.57-29.65-42.67-32.82s9.85-38.12,9.85-38.12C659,398.47,636,432.35,636,432.35c-8.75-1.06-24.8-11.29-24.8-11.29,29.39,59,120.09,72.56,121,72.7h0C733.26,493.62,824,480,853.35,421.06Z" fill="#4d2619"/><rect width="1262.35" height="2195.18" fill="none"/></g></g></g></svg>