<svg xmlns="http://www.w3.org/2000/svg" width="1262.35" height="2195.18" viewBox="0 0 1262.35 2195.18"><defs><style>.a{fill:none;}.b{fill:#645248;}</style></defs><title>man hair B</title><rect class="a" width="1262.35" height="2195.18"/><path class="b" d="M903,195c-17-143.71-153.4-138.21-173.66-136.59C709.76,56.79,577.63,51.29,560.65,195c-8,67.7,6.35,116.47,6.35,116.47s14.47-12,28.23,7.06c0,0-2.11-211.77,136.59-138.71v-1.09l0,1.09c138.7-73.06,136.59,138.71,136.59,138.71,13.76-19.06,28.23-7.06,28.23-7.06S911,262.7,903,195Z"/><path class="b" d="M587.47,386.29a48.78,48.78,0,0,0,18.35,3.18l5.3,32.82A176.24,176.24,0,0,1,587.47,386.29Z"/><path class="b" d="M875.82,386.29a48.78,48.78,0,0,1-18.35,3.18l-5.3,32.82A176.24,176.24,0,0,0,875.82,386.29Z"/></svg>