<svg xmlns="http://www.w3.org/2000/svg" xmlns:xlink="http://www.w3.org/1999/xlink" width="1262.35" height="2195.18" viewBox="0 0 1262.35 2195.18"><defs><style>.a{fill:none;}.b{clip-path:url(#a);}.c{fill:#b39872;}.d{fill:#625441;}.e{fill:#fff;}.f{fill:#ffe4bd;}.g{fill:#927b5b;}.h{fill:#4d4233;}.i{fill:#ccae85;}</style><clipPath id="a" transform="translate(505.59 483.71)"><path class="a" d="M469.5,193.49a.41.41,0,0,0,0-.08,1.3,1.3,0,0,1-.1-.18l-.07-.12-.22-.38,0-.07c-1.1-1.92-4-6.84-8-13.87C453.27,165,441.46,143.23,431.29,120c-16.51-37.76-28.36-58.28-37.36-66a17,17,0,0,0-5-3.14c-7.35-2.69-68-17.23-102.52-25.42l-.18-.64c0-.05,0-.1,0-.14l-.25-.86a1.42,1.42,0,0,1-.07-.22q-.09-.3-.18-.57a1.72,1.72,0,0,0-.07-.21c-.07-.23-.15-.45-.22-.64C283.53,16.94,256.71.47,256.71.47s-.47,21.65-.95,26.82a24.14,24.14,0,0,1-2.47,5.58c-5.39,9.85-18.13,28.92-23.52,36.89L226,72.65l-3.61-2.06c-11.71-10.91-20.21-28.26-24.45-38.21l-.3-.72-.13-.3c-.32-.76-.61-1.48-.87-2.13v0l-.5-1.28v0c-.23-.59-.43-1.1-.59-1.54l0-.08c-.15-.41-.28-.74-.37-1l0-.11L195,25l-.05-.13,0-.08,0,0L191.94,0s-28.65,22.59-30.53,25.88c0,.08-.09.2-.14.33l0,.08c-.05.14-.11.3-.17.49l0,.12c-.06.21-.13.43-.19.69v0c-.07.26-.14.54-.21.85a.83.83,0,0,0,0,.15l-.23,1c0,.06,0,.12,0,.19-.07.29-.13.59-.2.9-28.72,5.9-71.18,15-94.47,21.55C63,53,60.2,55.37,57.35,59,36.6,85.81,12.55,181.48,3.6,219.41h0v0l-.15.62c-.11.46-.21.92-.32,1.36l-.18.78c-.09.37-.17.74-.26,1.1s-.13.57-.2.85l-.18.78-.21.93c-.07.28-.13.54-.19.81s-.19.81-.28,1.2-.12.54-.18.79-.13.56-.19.83-.07.3-.1.44-.11.51-.17.75l-.09.41c-.06.24-.11.46-.16.68l-.06.29c-.05.2-.09.41-.13.59l-.05.18-.21,1-.06.25c0,.13,0,.23-.07.34l0,.09a2,2,0,0,0-.06.28l0,.09,0,.21c24,34.59,90.33,32.6,90.33,32.6l5.61-16.13c1.65,25.12,14.88,102.82,20.53,187.53.47,7.09-3.26,13.5-5.65,17.65-3.44,6,7.29,13.91,8,14.19C186.39,497,241.3,500.12,280.64,496c6-10.61,20.82-27.75,23.78-30.71,1.95-1.94,30.13-16,30.13-16l-7.29-14.1s-42.76,27.22-45.19,18,27.7-25.76,35.47-30.62,16.53-6.8,18.47-3.89c1,1.44,3.7,6.91,6.23,12.08-3.06-71.21,22.7-222.47,22.7-222.47l15.6,25.69,8.4,13.83c30.35-32.47,80.47-54.35,80.47-54.35a.58.58,0,0,0,.11.13h0S469.52,193.52,469.5,193.49Z"/></clipPath></defs><title>man shirt A</title><g class="b"><rect class="a" width="1262.35" height="2195.18"/><path class="c" d="M393.53,57.18l.4-3.22a17,17,0,0,0-5-3.14C378.59,47,262.59,19.76,262.59,19.76l-6.83,7.53c-.84,5.09-20.6,35.14-28.47,46.12l-4.94-2.82C207.53,60,189.88,24.71,189.88,24.71S103.06,41.65,65.65,52.24C63,53,60.2,55.37,57.35,59c4.14,23.09,16,82.85,31.24,104l7.35,88.47c1.65,25.12,14.88,102.82,20.53,187.53.47,7.09-3.26,13.5-5.65,17.65-3.44,6,7.29,13.91,8,14.19,144.63,56,231.3,6.28,231.3,6.28,1.41,0,5.41-6.39,4.23-9.89-3.71-11-9.17-12.7-9.17-12.7-13.42-51.53,19.76-246.35,19.76-246.35l7.41-71.65Z" transform="translate(505.59 483.71)"/><path class="d" d="M469.41,193.41c2,2.72-20.54-33.25-38.12-73.41-16.51-37.76-28.36-58.28-37.36-66l-.4,3.22-21.18,79.41-7.41,71.65,24,39.52C419.29,215.29,469.41,193.41,469.41,193.41Z" transform="translate(505.59 483.71)"/><path class="d" d="M57.35,59C31.28,92.67,0,235.06,0,235.06c24,34.59,90.33,32.6,90.33,32.6l5.61-16.13-7.35-88.47C73.35,141.89,61.49,82.13,57.35,59Z" transform="translate(505.59 483.71)"/><path class="d" d="M216.71,67.53s1.41,56.94,1.88,60.71a142.76,142.76,0,0,0,18.82-.48l-2.82-61.64-8.71,6.59Z" transform="translate(505.59 483.71)"/><circle class="e" cx="731.47" cy="567.71" r="5.65"/><circle class="e" cx="732.53" cy="595.24" r="5.65"/><path class="f" d="M191.94,0l2.94,24.71s10.3,29.88,27.47,45.88c0,0-16.23-9.88-21.41-9.41s-50.35,24.47-50.35,24.47,8.94-56.47,10.82-59.77S191.94,0,191.94,0Z" transform="translate(505.59 483.71)"/><path class="f" d="M227.29,73.41s28-40.94,28.47-46.12.95-26.82.95-26.82,26.82,16.47,28.7,21.65C289.12,32.33,300,91.29,300,91.29s-38.12-28.23-45.65-30.58S227.29,73.41,227.29,73.41Z" transform="translate(505.59 483.71)"/><path class="g" d="M120,460.24s50.26,26.18,117.88,28.94c33.32,1.35,71.89-6,108.71-19.06,0,0-9.58-4.2-10.59-18.36-2.12-29.64,2.82-96.7,2.82-96.7s-108.7,168-217.41,64.23C127.76,441.18,126.46,451.06,120,460.24Z" transform="translate(505.59 483.71)"/><path class="f" d="M380.54,233.93l8.4,13.83c30.35-32.47,80.47-54.35,80.47-54.35.83,1.15-2.7-4.6-8.37-14.63C430.64,191.27,401.84,208.67,380.54,233.93Z" transform="translate(505.59 483.71)"/><path class="h" d="M58.94,72s15.88,70.94,32.82,90l4.18,89.53-5.61,16.13-7-17.78,2.12-84.7S64.24,117.53,58.94,72Z" transform="translate(505.59 483.71)"/><path class="f" d="M3.6,219.41C1.3,229.13,0,235.06,0,235.06c24,34.59,90.33,32.6,90.33,32.6l5.61-16.13C62.56,251.43,26.08,242.21,3.6,219.41Z" transform="translate(505.59 483.71)"/><polygon class="h" points="870.53 691.94 875.82 625.59 899.12 540.88 883.23 626.65 881.12 708.18 870.53 691.94"/><path class="i" d="M173,31.65c8.05-6.44,17.39-4.46,24.91.74-2-4.65-3-7.68-3-7.68L191.94,0s-28.65,22.59-30.53,25.88C160.62,27.26,158.59,38,156.5,50A100.07,100.07,0,0,1,173,31.65Z" transform="translate(505.59 483.71)"/><path class="i" d="M277,29.65a107.17,107.17,0,0,1,14,15.61c-2.22-10.53-4.31-19.67-5.58-23.14C283.53,16.94,256.71.47,256.71.47s-.47,21.65-.95,26.82a8.47,8.47,0,0,1-.81,2.34C261.6,25.38,269.82,23.9,277,29.65Z" transform="translate(505.59 483.71)"/></g></svg>