<svg xmlns="http://www.w3.org/2000/svg" width="1262.35" height="2195.18" viewBox="0 0 1262.35 2195.18"><title>1_beard_8</title><g id="Layer_2" data-name="Layer 2"><g id="accessories"><g id="_1_beard_8" data-name="1_beard_8"><path d="M821.79,429.55c-16.82-2.23-21.19-15.33-35.94-35.35-14-19.05-43.74-17-52.2-16-8.46-1-38.17-3.05-52.21,16-14.75,20-19.12,33.12-35.93,35.35a2.67,2.67,0,0,0-1.21,4.86c5.59,3.76,15.62,7.78,29.69,2.92,22.18-7.65,29.83-31.69,59.66-32.88,29.82,1.19,37.47,25.23,59.65,32.88,14.08,4.86,24.1.84,29.69-2.92A2.67,2.67,0,0,0,821.79,429.55Z" fill="#331815"/><rect width="1262.35" height="2195.18" fill="none"/></g></g></g></svg>