<svg xmlns="http://www.w3.org/2000/svg" xmlns:xlink="http://www.w3.org/1999/xlink" width="1262.35" height="2195.18" viewBox="0 0 1262.35 2195.18"><defs><style>.a{fill:none;}.b{fill:#162226;}.c{fill:#0b1417;}.d{fill:#75442e;}.e{clip-path:url(#a);}.f{fill:#ffda73;}.g{fill:#fff;}.h{fill:#dbaa5c;}.i{fill:#dba44d;}.j{fill:#543121;}.k{fill:#adadad;}</style><clipPath id="a"><path class="a" d="M878.89,691.09l2.57,3.88,26.13,39.32,2.56,3.76a263.65,263.65,0,0,0,72.56-56c-5.09-9.93-11.32-21.71-18.07-34.19l0-.07c-1-1.76-1.9-3.52-2.87-5.3l-.07-.13-2.9-5.31-.09-.17-2.95-5.38h0c-1.71-3.11-3.44-6.24-5.17-9.36l-.08-.14c-1.73-3.12-3.47-6.24-5.2-9.33h0c-20.55-36.69-40.67-70.6-45.74-75a16.54,16.54,0,0,0-5-3.14c-7.74-2.84-74.45-18.77-107.69-26.65a2.47,2.47,0,0,0-.08-.41c-2.52-9.72-15.77-19.71-21.86-23.87-1.87-1.28-3.08-2-3.08-2l-1.47,29.65a72.13,72.13,0,0,1-5.26,10.51c-3.46,7.75-12.08,18.63-17.86,27.63l-4.58,3.27-3.09,2.57-1.62-.93c-10.66-9.93-18.67-25.2-23.21-35.36-2.78-6.21-4.26-10.52-4.26-10.52L699,478.76s-2.67,1.63-6.27,4.28c-6.66,4.91-16.53,13.36-18.67,21.61-.21.79-.48,3.87-.78,8.2-23.95,4.87-62.24,12.88-88.87,19.6l-.47.11c-3.75,1-7.27,1.88-10.47,2.76l-.13,0-2.11.59c-2.67.76-5.45,3.14-8.29,6.8-8.13,10.5-31.57,50.91-51.7,169.6,19.76,24.78,53.35,32.87,84.56,36.49l.12,2.54.84-2.42.18,0,4.59-13.73c1.65,25.11,14.88,102.82,20.53,187.52.47,7.1-3.27,13.5-5.65,17.65-3.45,6,7.29,13.92,8,14.19q2.8,1.08,5.56,2.1l3.39,1.24.82.31.65.22c1.8.65,3.6,1.28,5.38,1.9l1.25.43q2.65.9,5.26,1.76l.56.18h0c57.17,18.61,104.17,20.61,139,16.95,6-10.6,20.81-27.73,23.77-30.69,1.94-1.94,30.13-16,30.13-16l-7.29-14.09s-42.76,27.21-45.19,18,27.7-25.76,35.47-30.61,16.52-6.81,18.47-3.89c1,1.44,3.7,6.91,6.22,12.08-3.05-71.21,22.71-222.48,22.71-222.48l7.41-71.65-6.35,65Zm-146-134-.15-.09.38-.39C733,556.8,733,557,732.88,557.12Z"/></clipPath></defs><title>man shirt H</title><path class="b" d="M1004.44,745c-9.35-18.65-19.58-39.12-29.46-59-18.85,21-42.5,38.89-68,47.41l.59.88,57.53,84.36a532.13,532.13,0,0,0-35.42,47.17C911,894.35,894.52,926,894.88,926.65c14.82,25.06,36,33.53,36,33.53.55.76,74.12-71.65,108-131.3C1041.22,824.77,1011.12,758.33,1004.44,745Z"/><path class="c" d="M972.17,811.94s17.54-61.24,39.18-36C1024.06,790.76,972.17,811.94,972.17,811.94Z"/><path class="c" d="M976.41,816.18s37.06-20.12,40.24-6.36S976.41,816.18,976.41,816.18Z"/><path class="b" d="M596.94,749c-25-13.26-56.06-28.79-85.7-36.63C500.59,783.13,496.76,867,496.76,867c1.2,1.72-16.21,41.92-30.7,92.12-21.89,75.79-44.41,172.14-42.36,173.64,15.89,11.65,26.48,14.83,47.65,12.71,6.19-.62,47-106.13,68.83-169.41,22.23-64.59,11.64-92.12,11.64-92.12Z"/><path class="d" d="M425.54,1119.8c-1.58,7.93-2.28,12.64-1.84,13,15.89,11.65,26.48,14.83,47.65,12.71,1.1-.11,3.28-3.52,6.25-9.39C459.16,1137,440,1131.56,425.54,1119.8Z"/><path class="d" d="M899.7,916.74c-3.15,6-4.94,9.7-4.82,9.91,14.82,25.06,36,33.53,36,33.53s2.51-2,6.57-6C922.2,944.61,909.93,931,899.7,916.74Z"/><path class="c" d="M531.36,895.19a11.92,11.92,0,0,0-5.48-20c-5-1.25-9.58-2.1-11.86-1.72-17,2.83-5.29,36,2.12,33.88C519.48,906.4,525.62,900.92,531.36,895.19Z"/><g class="e"><path class="f" d="M601.53,735.24l-7.35-88.48c-15.25-21.16-27.1-80.93-31.24-104-8.13,10.5-31.57,50.91-51.7,169.6,19.76,19.13,54,33.32,85.7,36.63Z"/><path class="f" d="M899.12,540.88l.4-3.21a16.54,16.54,0,0,0-5-3.14c-10.35-3.8-126.35-31.06-126.35-31.06L761.35,511c-.85,5.08-20.61,35.14-28.47,46.12l-4.94-2.83c-14.82-10.58-32.47-45.88-32.47-45.88s-86.82,16.94-124.24,27.53c-2.67.76-5.45,3.14-8.29,6.8,4.14,23.09,16,82.86,31.24,104l7.35,88.48c1.65,25.11,14.88,102.82,20.53,187.52.47,7.1-3.27,13.5-5.65,17.65-3.45,6,7.29,13.92,8,14.19,144.64,55.95,231.3,6.28,231.3,6.28,1.42,0,5.42-6.38,4.24-9.88-3.71-11-9.18-12.71-9.18-12.71-13.41-51.53,19.77-246.35,19.77-246.35l7.41-71.65Z"/><path class="f" d="M982.71,682.05C958.39,634.59,908,545,899.52,537.67l-.4,3.21-21.18,79.41-6.35,65,7.3,5.85,28.7,43.2,2.56,3.76A263.65,263.65,0,0,0,982.71,682.05Z"/><path class="g" d="M907.94,642.53,920.72,660a255.7,255.7,0,0,0,35-28.53c-3.45-6.28-7-12.6-10.45-18.85C934.84,623.11,918.08,638.84,907.94,642.53Z"/><path class="d" d="M920.72,660l14,19.22a280.72,280.72,0,0,0,32.72-26.11c-3.76-7-7.72-14.29-11.77-21.64A255.7,255.7,0,0,1,920.72,660Z"/><path class="h" d="M628.87,938.16a6.78,6.78,0,0,0,3.39,8.93,314.72,314.72,0,0,0,111.21,25.79c30.15,1.23,64.6-4.69,98.16-15.49a6.78,6.78,0,0,0,3.61-10.12,25,25,0,0,1-3.65-11.8c-1.33-18.51.1-51.59,1.36-73.84a6.75,6.75,0,0,0-12-4.6c-30.51,38.17-108.55,118.07-189.3,58.35a6.75,6.75,0,0,0-10.73,6.13C631.59,928.41,630.82,933.6,628.87,938.16Z"/><path class="i" d="M564.53,555.71s15.88,70.94,32.82,90l4.18,89.53-5.61,16.13L591,648.88S569.82,601.24,564.53,555.71Z"/><polygon class="i" points="899.12 540.88 877.94 620.29 871.59 685.24 878.89 691.09 881.46 694.97 883.23 626.65 899.12 540.88"/><polygon class="j" points="747.17 542.29 732.65 552.65 718 564.88 718 641.59 723.65 641.59 723.65 566.29 747.17 542.29"/><circle class="g" cx="732.12" cy="574.29" r="6.12"/><circle class="g" cx="732.59" cy="618.53" r="6.12"/><path class="j" d="M764.9,483.6c-1.87-1.28-3.08-2-3.08-2l-1.47,29.65a72.13,72.13,0,0,1-5.26,10.51c5-4.32,11.69-7.24,18.51-6.39A46,46,0,0,0,764.9,483.6Z"/><path class="k" d="M786.76,507.47c-2.52-9.72-15.77-19.71-21.86-23.87a46,46,0,0,1,8.7,31.76,19,19,0,0,1,3.63.82,26.32,26.32,0,0,1,10.91,9.13C787.62,516.24,787.1,508.78,786.76,507.47Z"/><path class="d" d="M755.09,521.75c-4.54,10.17-18,25.72-22.21,35.37,0,0,16.24-9.88,21.41-9.41a35,35,0,0,1,7.26,2.44c6.27-11.12,11.06-23,12.05-34.79C766.78,514.51,760.14,517.43,755.09,521.75Z"/><path class="g" d="M788.14,525.31a26.32,26.32,0,0,0-10.91-9.13,19,19,0,0,0-3.63-.82c-1,11.8-5.78,23.67-12.05,34.79,10.74,4.44,28.51,13.32,28.51,13.32S789.09,541.75,788.14,525.31Z"/><path class="k" d="M687.59,494.35A49.92,49.92,0,0,1,692.73,483c-6.66,4.91-16.53,13.36-18.67,21.61-.34,1.3-.86,8.77-1.38,17.84a26.34,26.34,0,0,1,10.91-9.14,19.53,19.53,0,0,1,1.92-.52A45.47,45.47,0,0,1,687.59,494.35Z"/><path class="j" d="M704.73,518.93c-2.78-6.21-4.26-10.52-4.26-10.52L699,478.76s-2.67,1.63-6.27,4.28a49.92,49.92,0,0,0-5.14,11.31,45.47,45.47,0,0,0-2.08,18.48C692.78,511.21,699.26,514.25,704.73,518.93Z"/><path class="g" d="M683.59,513.35a26.34,26.34,0,0,0-10.91,9.14c-.94,16.43-1.92,38.16-1.92,38.16s13.76-6.88,24.38-11.55c-3.59-12.14-8.62-24-9.63-36.27A19.53,19.53,0,0,0,683.59,513.35Z"/><path class="d" d="M704.73,518.93c-5.47-4.68-12-7.72-19.22-6.1,1,12.27,6,24.13,9.63,36.27,5.22-2.3,9.68-4.06,11.39-4.22,5.17-.47,21.41,9.41,21.41,9.41C717.28,544.36,709.27,529.09,704.73,518.93Z"/><path class="d" d="M639.53,936.09C618.6,769.45,612.27,659.23,611.6,646.82c-17.81-39-30.12-86.57-36-112.08l-4.38,1.2c-2.67.76-5.45,3.14-8.29,6.8,1.77,9.86,4.94,26.39,9.18,43.75a316.4,316.4,0,0,0,25.23,59.22l-.46,33.76,4.64,55.77c1.65,25.11,14.88,102.82,20.53,187.52.47,7.1-3.27,13.5-5.65,17.65-3.45,6,7.29,13.92,8,14.19,3.29,1.28,6.54,2.48,9.77,3.65A36.59,36.59,0,0,1,639.53,936.09Z"/><path class="g" d="M650.43,941.37l1.61-2-.32-2.54c-22.3-177-28.14-290.66-28.2-291.79l-.06-1.16-.48-1C605.49,605,593.1,557,587.26,531.73c-4.16,1-8.07,2-11.65,3,5.87,25.51,18.18,73.11,36,112.08.67,12.41,7,122.63,27.93,289.27a36.59,36.59,0,0,0-5.36,22.16q6.63,2.38,13.1,4.49A24.08,24.08,0,0,1,650.43,941.37Z"/><path class="d" d="M797.82,634.76s19.77-7,40.94.71l-.7,28.24s-12,11.29-20.47,16.23c0,0-14.94-10.88-17.06-16.53Z"/><polygon class="g" points="818.62 639.42 822.32 646.91 830.57 648.11 824.6 653.93 826.01 662.16 818.62 658.27 811.23 662.16 812.64 653.93 806.67 648.11 814.93 646.91 818.62 639.42"/><path class="h" d="M585.84,650.26s-28.6-55.09-37.46-40.58S545.43,649,585.84,650.26Z"/></g><path class="f" d="M845.49,950.93,844,949l-19.44,8.75c-5.09,5.28-11.66,12.76-18.16,19q5.39-1,10.21-2.14c5.47-6.39,10.66-11.68,10.87-12.5C828,960.17,845.49,950.93,845.49,950.93Z"/><rect class="a" width="1262.35" height="2195.18"/></svg>