<svg xmlns="http://www.w3.org/2000/svg" width="1262.35" height="2195.18" viewBox="0 0 1262.35 2195.18"><title>1_beard_3</title><g id="Layer_2" data-name="Layer 2"><g id="accessories"><g id="_1_beard_3" data-name="1_beard_3"><path d="M837.41,425.89c-7.29,9.73-40.47,31.79-78,34.52,0,0-15.13,2.87-16.64-11.37a1.22,1.22,0,0,0-1.94-.84c-5.68,4.43-11.18,4.51-16.92,0a1.21,1.21,0,0,0-1.93.85c-1.53,14.22-16.64,11.35-16.64,11.35-34.7-.28-70.4-25.35-78.22-35.19-.84-1.05-1.69-2.1-2.62-3.06-14.46-14.89-18.75-37.28-18.75-37.28,1,16.59,0,33.22,5.3,42.36,34.88,60.33,114.84,67.6,121.12,68.08a1,1,0,0,0,.4,0c6.29-.48,86.24-7.75,121.12-68.08,5.29-9.14,4.25-25.77,5.3-42.36,0,0-3.87,20.17-16.61,34.95C840.68,421.81,839,423.79,837.41,425.89Z" fill="#170d04"/><path d="M683.86,410.36c12.46-11.83,53.43-43.51,99.37-.73,1,.91.36,3.1-.79,2.75-13.09-4-48.52-11.94-97.81.71C683.52,413.38,682.91,411.27,683.86,410.36Z" fill="#170d04"/><rect width="1262.35" height="2195.18" fill="none"/></g></g></g></svg>