<svg xmlns="http://www.w3.org/2000/svg" width="1262.35" height="2195.18" viewBox="0 0 1262.35 2195.18"><defs><style>.a{fill:none;}.b{fill:#4f3d19;}.c{fill:#644d1e;}.d{fill:#715721;}.e{fill:#836526;}.f{fill:#9c7b37;}</style></defs><title>man hair H</title><rect class="a" width="1262.35" height="2195.18"/><path class="b" d="M889.59,382.35c-7,17-24,32-18,51-7-8.11-11.71-17.39-15.33-27.2-1.68,10-4.4,20.43-8.56,23.2-8.47,5.65-45.33,28.22-45.33,28.22,13.51,9.59,29.63,19.91,45.53,24.56a67.66,67.66,0,0,1-7.21-27.63,100.19,100.19,0,0,0,72.73,7.32,43.89,43.89,0,0,1-21.39-36,142.65,142.65,0,0,0,43.51,14.06l-1.37-1.48c-9.86-4.67-19.27-12.06-26.58-18C896.59,411.35,891.59,397.35,889.59,382.35Z"/><path class="c" d="M926.87,360.12c4.72-14.59,6.89-32-2.63-44,22.54.51,32.94,1.22,46.87-12C944,307.3,913.63,298,890.59,283.35c-4-2-6-9-10-11-25.91-17-54.43-26.14-78.15-43.85,26.88,37.62,66.91,69.09,66.91,69.09l-.88,18s26.18-18,34.18,8.82c12,40.36-36.5,68.92-44,61.69,0,0-.65,9.74-2.4,20,3.62,9.81,8.3,19.09,15.33,27.2-6-19,11-34,18-51,2,15,7,29,18,38,7.31,5.95,16.72,13.34,26.58,18-8.66-9.57-15.92-21-17.28-33.75C915.28,389.36,922.16,374.71,926.87,360.12Z"/><path class="c" d="M585.43,381.79c-15.49-11.52-32.78-33.7-25.61-54.91C570,296.91,594.53,315,594.53,315l-2.83-16.94s39.23-29.79,67.14-65.91l-.25.2c-3,2-6,6-9,9-22,14-40,32-64,42-3,1-7,4-9,5-27.34,10.94-58,20.2-85.93,10.41a15.4,15.4,0,0,1-2-.7c16.83,18.86,26.83,18,52.1,17.44-9.51,12-11.18,32.44-6.46,47S549.72,388.77,548.1,404c-1.28,12.08-7.82,22.92-15.85,32.14a46.3,46.3,0,0,0,4.34-1.81C558.45,423.42,577.35,405.57,585.43,381.79Z"/><path class="b" d="M661.63,460s-33.57-24.27-43.79-31.23a130,130,0,0,1-36.25,13.6c13.78-17.72,14-41.26,4.44-60.12l-.6-.44c-8.08,23.78-27,41.63-48.84,52.56a46.3,46.3,0,0,1-4.34,1.81q-1.38,1.57-2.79,3.09A142.65,142.65,0,0,0,573,425.19a43.89,43.89,0,0,1-21.39,36,100.19,100.19,0,0,0,72.73-7.32,67.7,67.7,0,0,1-7.21,27.63A149.71,149.71,0,0,0,661.63,460Z"/><path class="d" d="M922.7,257.71c-20.1-42.94-4.11-90.8-48-138.18-51.2-55.28-109-49.92-138.41-39.31-28.74-11-93.85-17.58-146,38.72-43.88,47.38-27.89,95.24-48,138.18-22.38,34.18-39.55,45-51.63,41.64,27.93,9.79,58.59.53,85.93-10.41,2-1,6-4,9-5,24-10,42-28,64-42,3-3,6-7,9-9l.25-.2c11-14.23,20.24-29.44,24.63-44.21,11.1-37.32,33.35-22.09,45.15-10.36l9.85,8.82,14.18-13.52c11.8-11.73,17.78-21.67,28.88,15.65,4,13.37,11.67,27,20.91,40,23.72,17.71,52.24,26.85,78.15,43.85,4,2,6,9,10,11,23,14.67,53.4,23.95,80.52,20.74,1.69-1.61,3.42-3.4,5.24-5.44C964.2,303.89,946.36,293.83,922.7,257.71Z"/><path class="b" d="M738.47,186.4s31.3,1.54,45.55,29.78C784,216.18,792.69,142.51,738.47,186.4Z"/><path class="e" d="M775.59,160.35c7,1,14,6,18,13,19,33,25,71,53,98,14,15,37,31,56,16,14.73-10.31,20.23-26.06,21.31-42.43-.39-1.09-.81-2.2-1.25-3.33,0,0-12.74,39.74-66.08,15.53-31.09-14.12-33.22-61.31-44.63-93.18-25-69.89-69.63,6.72-73.47,22.46,0,0,.42-.31,1.17-.83C746.45,171.5,759.4,159.45,775.59,160.35Z"/><path class="d" d="M923.9,244.92c-1.08,16.37-6.58,32.12-21.31,42.43-19,15-42-1-56-16-28-27-34-65-53-98-4-7-11-12-18-13-16.19-.9-29.14,11.15-36,25.22,5.8-4,31.59-19.95,37.9,6.61,28.5,120,112.72,118.58,112.72,118.58S945.2,304,923.9,244.92Z"/><path class="b" d="M738.47,186.4s-31.29,1.54-45.54,29.78C692.93,216.18,684.26,142.51,738.47,186.4Z"/><path class="e" d="M577.59,284.35c63,13,88-57,105-105,3-8,9-18,18-19,15.45-1.78,26.3,7.38,35.09,19.31-39.79-92.23-75.71-8.43-77.62-.19-7.67,33-6.59,63.53-37.69,77.65C570.06,280,555.88,245.9,554.43,242,554.65,259.87,559.27,280.86,577.59,284.35Z"/><path class="d" d="M700.59,160.35c-9,1-15,11-18,19-17,48-42,118-105,105-18.32-3.49-22.94-24.48-23.16-42.39-.09-.24-.13-.37-.13-.37-24.62,62.12,32.39,69.17,32.39,69.17s84.21,1.42,112.72-118.58c7.12-30,39.06-5.78,39.06-5.78q-1.4-3.51-2.79-6.74C726.89,167.73,716,158.57,700.59,160.35Z"/><path class="f" d="M618.53,107.47s12.7,36.71,45.17,48c0,0-46.58,8.47-69.17-22.59C594.53,132.88,605.82,111.71,618.53,107.47Z"/><path class="f" d="M814.76,151.24s35.3-18.36,39.53-42.36c0,0,18.36,18.36,24,31.06C878.29,139.94,847.23,158.29,814.76,151.24Z"/><path class="c" d="M581.59,442.35a130,130,0,0,0,36.25-13.6l-1.19-.81c-8.47-5.65-11.24-39.06-11.24-39.06-2.67,2.59-10.69-.32-19.38-6.65C595.58,401.09,595.37,424.63,581.59,442.35Z"/></svg>