<svg xmlns="http://www.w3.org/2000/svg" width="1262.35" height="2195.18" viewBox="0 0 1262.35 2195.18"><title>1_beard_4</title><g id="Layer_2" data-name="Layer 2"><g id="accessories"><g id="_1_beard_4" data-name="1_beard_4"><path d="M727.7,397.85a3.86,3.86,0,0,0,3.12-5.89c-5-7.91-15.55-18.77-33.09-10.8-26,11.81-25.59,24.42-40.56,27.57a11.52,11.52,0,0,1-12.6-5.12s-4.72,20.08,19.69,19.68C684.2,423,709.79,398.63,727.7,397.85Z" fill="#170d04"/><path d="M738.09,397.85A3.86,3.86,0,0,1,735,392c5-7.91,15.55-18.77,33.09-10.8,26,11.81,25.6,24.42,40.56,27.57a11.52,11.52,0,0,0,12.6-5.12s4.72,20.08-19.69,19.68C781.59,423,756,398.63,738.09,397.85Z" fill="#170d04"/><rect width="1262.35" height="2195.18" fill="none"/></g></g></g></svg>