<svg xmlns="http://www.w3.org/2000/svg" xmlns:xlink="http://www.w3.org/1999/xlink" width="1262.35" height="2195.18" viewBox="0 0 1262.35 2195.18"><defs><style>.a{fill:none;}.b{clip-path:url(#a);}.c{fill:#805c33;}.d{fill:#a3794b;}.e{fill:#704e30;}.f{fill:#63452b;}.g{fill:#705237;}.h{fill:#cfb9a5;}.i{fill:#4d3b2b;}</style><clipPath id="a"><path class="a" d="M987.08,1989.37q-1.14-3.76-2.34-8.19c-.26-1-.53-2-.8-3q-1.43-5.49-2.92-11.83-.37-1.58-.75-3.21-.75-3.26-1.52-6.72c-.51-2.3-1-4.67-1.54-7.09q-1.15-5.46-2.35-11.31-.79-3.9-1.6-8c-1.61-8.11-3.24-16.7-4.89-25.67q-1.25-6.74-2.5-13.75c-.56-3.11-1.11-6.27-1.67-9.46-1.68-9.56-3.38-19.46-5.07-29.59-.57-3.38-1.13-6.78-1.7-10.21q-1.27-7.72-2.55-15.59-.84-5.23-1.69-10.54-.44-2.64-.85-5.3-.84-5.32-1.69-10.69c-3.09-19.65-6.15-39.67-9.12-59.57-.54-3.61-1.08-7.23-1.61-10.83-5.61-37.86-10.88-74.93-15.43-107.76-.44-3.13-.86-6.22-1.28-9.26-8.84-64-14.7-109.75-14.7-109.75-13.19-194.73-26.73-342.73-36.15-435.18h0v-.07c-.13-1.25-.25-2.49-.38-3.71-.29-2.89-.58-5.71-.87-8.49-.16-1.5-.31-3-.46-4.46-.07-.68-.14-1.35-.22-2q-1.86-17.85-3.44-32.34l0-.34c-.15-1.4-.3-2.76-.45-4.11,0-.33-.07-.66-.11-1-.12-1.14-.24-2.26-.37-3.36,0-.41-.09-.81-.13-1.21-.11-1-.22-2-.33-2.95l-.15-1.37c-.11-.94-.21-1.85-.31-2.76-.05-.41-.09-.83-.14-1.24-.1-.88-.19-1.73-.29-2.58l-.15-1.31c-.1-.88-.2-1.74-.29-2.6l-.12-1c-.13-1.18-.27-2.33-.4-3.45l-.24-1.15c-1.23-.26-1.94-.43-1.94-.43s-35.47,33-39.85,24.79,34.51-39.37,34.51-41.31-2.92-3.4-2.92-3.4l-14.09,5.83s-28.19,35-34.5,27.7c-4-4.67,6.23-17.48,14.29-26.62l-1.47.36-2.75.62h0l-.69.15-1.38.31-.8.16-2.75.56a96.54,96.54,0,0,1-11.74,10.37c-6.74,4.76-13,5.13-13.61,2.43-.41-1.78,1.17-5.24,3.75-9.38q-7.15.83-14.15,1.28l-3.09.16c-1.59.09-3.17.16-4.75.21l-1.08,0c-1.78.06-3.54.1-5.3.12h-.41q-5.87.06-11.59-.1h-.57l-1.63-.07c-1.08,0-2.18-.07-3.25-.12l-1.2-.06-2.13-.13-2.13-.12-.61,0-.69,0-2.22-.17q-2.93-.23-5.81-.51l-.31,0-.88-.09c-5.61-.56-11.05-1.27-16.32-2.09l-.56-.08c-1.7-.27-3.38-.54-5-.83l-.13,0-1.85-.33-1.52-.28-.24,0h0l-3.23-.62c-1.26-.25-2.51-.5-3.74-.76l-1.69-.36c-1.44-.31-2.87-.62-4.28-.94l-.13,0-.32-.07-1.32-.31-1.32-.32-.25-.06-.56-.13-2.51-.62-.75-.18-2.59-.67h0c-5.83-1.52-11.3-3.12-16.34-4.72-2.1-.67-4.14-1.34-6.09-2q-4.41-1.5-8.28-2.94c-1.71-.65-3.35-1.27-4.91-1.88l-3.06-1.23h0c-10.5-4.27-16.39-7.42-16.39-7.42C619,955.8,611.78,971.44,608.65,979c.75.36,1.58.72,2.45,1.1l-.66,2.27-.06.19c-.27,1-.55,1.92-.82,2.9,0,.11-.06.23-.1.34-.28,1-.57,2.05-.85,3.09l-.08.29c-.28,1-.55,2.05-.83,3.09l0,.13c-.28,1.09-.57,2.18-.85,3.28l-.07.26c-.57,2.21-1.13,4.46-1.69,6.72l0,.22q-.84,3.42-1.64,6.9l0,.16q-.81,3.54-1.59,7.1h0c-1.3,6-2.51,12-3.58,17.94h0c-.42,2.36-.83,4.71-1.21,7v0q-.57,3.48-1.07,6.88h0a239.27,239.27,0,0,0-2.73,28.42c-1.24,52.79-1.86,425.91-1.86,425.91-61.23,136.2-26.79,479.44-26.79,479.44,10.28,9.37,23,13.26,35.62,14.25h0q2.38.18,4.74.24h.24c2.35,0,4.69,0,7-.11h.16q3.48-.18,6.81-.57h.09c1.49-.17,2.95-.36,4.38-.58h0l2.11-.34h0c1.4-.24,2.77-.49,4.1-.76h0c2-.4,3.87-.83,5.65-1.27h.05q2.65-.66,4.94-1.31l.07,0c1.51-.44,2.88-.86,4.11-1.25l.1,0,2.24-.74h0l.93-.32.1,0,1.53-.56.07,0,.52-.2.09,0,.79-.31,0,0,.16-.07h0l0,0c1.16-14.82,25.73-457.61,26.56-460.85,6.42-25,43.65-340.19,55.53-402.36v-.17c10.25,42.16,95.65,393.33,95.65,393.33-7.79,38-10.25,71-9.54,99.66q.12,4.53.33,8.91c.07,1.46.15,2.91.24,4.34.17,2.88.38,5.7.62,8.49.47,5.56,1.06,10.93,1.74,16.13.34,2.59.71,5.15,1.1,7.66s.79,5,1.22,7.39q.33,1.82.66,3.6.67,3.57,1.39,7c.24,1.15.48,2.29.73,3.41q.75,3.38,1.53,6.63c.78,3.25,1.58,6.4,2.41,9.47s1.66,6,2.51,8.93,1.72,5.69,2.58,8.4,1.72,5.35,2.57,7.89c.5,1.48,1,2.94,1.49,4.36.15.46.31.9.46,1.35.34,1,.67,1.92,1,2.86.09.27.18.52.28.79,2.21,6.3,4.29,12,6.07,17.2l.18.51c.27.8.52,1.57.78,2.34l.36,1.06-.06-.16.06.16c14.75,44.8,48.23,238.55,48.23,238.55a101.05,101.05,0,0,0,38.69,13.4h0c1,.12,1.92.22,2.87.3l.12,0c1.91.16,3.78.26,5.61.31h.11c1.83,0,3.62,0,5.36,0h.09c1.75-.07,3.45-.19,5.1-.35h.05a87.48,87.48,0,0,0,9.5-1.46,85.68,85.68,0,0,0,13.13-3.87h0c1-.4,2-.79,2.91-1.18l0,0c.9-.38,1.73-.76,2.49-1.13l.05,0q1.14-.54,2.07-1l0,0,.85-.45h0l.76-.42,0,0,.6-.34.07,0,.52-.3,0,0,.37-.23.07,0,.28-.17h0l.16-.1,0,0h0C989.08,1995.65,988.09,1992.71,987.08,1989.37Z"/></clipPath></defs><title>man pant G</title><g class="b"><path class="c" d="M622.29,948.88s112.39,60.28,233.41,11.3c1.17,4.24,3.38,8,8,26.35,7.83,67.9,26.64,247.46,44.81,515.55,0,0,54.45,425,81.52,496.07,0,0-40.41,27.27-92.1-2.71,0,0-33.48-193.75-48.23-238.55C836.89,1718,802.76,1646.46,829,1518.51c0,0-93.13-392-95.19-400.5s-60.28,372.33-67.52,400.52c-.83,3.24-13.86,455.21-15,470,0,0-55.21,22.94-86.79-5.86,0,0-34.44-343.24,26.79-479.44,0,0,.62-373.12,1.86-425.91C594,1041,610.6,973.12,622.29,948.88Z"/><path class="d" d="M731.59,1015.35c.89-12.27,1.58-24.54,2.16-36.81a315.5,315.5,0,0,1-56.39-9.45c-11.72,83-41.89,314.15-50.36,548,0,0-40.24,163.06-27.53,463.76l.62,16.07c26,2,51.17-8.39,51.17-8.39,1.16-14.82,25.73-457.61,26.56-460.85,6.42-25,43.65-340.19,55.53-402.36C730.92,1087.57,729,1052.93,731.59,1015.35Z"/><path class="d" d="M990,1998.15C963,1927,908.51,1502.08,908.51,1502.08c-18.17-268.09-37-447.65-44.81-515.55-4.62-18.39-6.83-22.11-8-26.35A260.87,260.87,0,0,1,800,975.78l70.55,551.93s-14.38,127.34,66.09,481.13C968.43,2012.71,990,1998.15,990,1998.15Z"/><path class="e" d="M872.36,1066.9c-3.55-34.83-6.52-61.79-8.66-80.37-4.62-18.39-6.83-22.11-8-26.35-6.87,2.78-13.71,5.19-20.51,7.3,3.21,29.15,17.9,55.4,27.4,83.87C864.57,1057.29,868.11,1062.29,872.36,1066.9Z"/><path class="e" d="M606.59,1033.35c20.36-22,27.46-49.3,32.09-77-10.5-4.27-16.39-7.42-16.39-7.42-9.06,18.8-21.1,63.81-26.44,100.05,1-1.5,1.86-3.12,2.74-4.58C600.59,1041.35,603.59,1036.35,606.59,1033.35Z"/><path class="f" d="M838.93,971.86l-4.14,4.21c6.4,49.24,23,74.25,36.82,86.84-.39-3.69-.89-7.31-1.23-10.9C843.44,1022,838.93,971.86,838.93,971.86Z"/><path class="f" d="M635.19,976.86l-7-4.28c-4.11,31.19-17.13,52.43-30,66.27-.69,4.73-1.68,9.26-2.65,13.8C629.26,1020.07,635.19,976.86,635.19,976.86Z"/><path class="g" d="M615.25,1510.64c5.22,2.14,14,3.83,25.48-1.09a2.35,2.35,0,0,1,2.85,3.48c-7,10.23-20.92,25-31.4.68A2.34,2.34,0,0,1,615.25,1510.64Z"/><path class="g" d="M864.28,1520.23a57.65,57.65,0,0,0,30.58.53,2.85,2.85,0,0,1,3,4.51c-6.68,8.6-20.19,19.72-36.57-.52A2.85,2.85,0,0,1,864.28,1520.23Z"/><path class="e" d="M835.72,1515.38c-23.55-70.74-73.19-390-73.19-390l55.06-48.7-84.49,41-.73,3.53L829,1518.51c-26.23,128,7.9,199.47,20.71,238.38C806.74,1631,835.72,1515.38,835.72,1515.38Z"/><polygon class="f" points="728.65 994.06 732.37 1121.18 766.76 1102.06 759.7 995.47 728.65 994.06"/><path class="h" d="M863.7,986.53c-3.31-16-6.22-20.71-8-26.35-121,49-233.41-11.3-233.41-11.3C619,955.8,611.78,971.44,608.65,979,641.67,994.47,776.17,1027.47,863.7,986.53Z"/><path class="i" d="M724.44,977.71c-1,8.94-1.43,17.89-2.26,26.83a403.2,403.2,0,0,0,51.63,1.44c-.86-9-2.21-18-2.85-27.05A291.74,291.74,0,0,1,724.44,977.71Z"/></g><rect class="a" width="1262.35" height="2195.18"/></svg>