<svg xmlns="http://www.w3.org/2000/svg" xmlns:xlink="http://www.w3.org/1999/xlink" width="1262.35" height="2195.18" viewBox="0 0 1262.35 2195.18"><defs><style>.a{fill:none;}.b{clip-path:url(#a);}.c{fill:#ebebeb;}.d{fill:#a83027;}.e{fill:#3a4a94;}.f{fill:#192040;}.g{fill:#bdbdbd;}.h{fill:#adadad;}.i{fill:#0c0e1f;}.j{fill:#c9c9c9;}</style><clipPath id="a"><path class="a" d="M975.09,677.19l0-.07-.09-.18a.75.75,0,0,0-.07-.12l-.22-.39a.43.43,0,0,1,0-.07c-37.75-72.65-66.12-130.93-75.11-138.69a16.54,16.54,0,0,0-5-3.14c-7.36-2.7-68-17.23-102.53-25.43-.06-.22-.12-.43-.17-.63a.83.83,0,0,1,0-.15c-.09-.3-.17-.58-.26-.85l-.06-.22c-.06-.2-.12-.4-.18-.58s0-.14-.07-.2l-.22-.65c-1.88-5.17-28.71-21.64-28.71-21.64s-.47,21.64-.94,26.82a24.61,24.61,0,0,1-2.47,5.58c-5.39,9.85-18.13,28.91-23.52,36.89l-3.81,2.88-3.61-2.06c-11.71-10.9-20.22-28.26-24.45-38.2l-.3-.72-.13-.31c-.32-.76-.61-1.47-.87-2.12v0l-.51-1.29v0l-.58-1.53,0-.08c-.16-.41-.28-.75-.37-1l0-.12c0-.09-.06-.16-.09-.23l0-.12,0-.08v0l-2.94-24.7S668.88,506.29,667,509.59a1.75,1.75,0,0,0-.15.33l0,.07c-.05.14-.1.31-.16.5a.56.56,0,0,1,0,.12c-.06.2-.12.43-.19.69h0c-.07.26-.14.55-.22.86l0,.15c-.08.3-.15.63-.23,1,0,.06,0,.13-.05.19-.06.29-.13.59-.19.91-28.72,5.89-71.18,15-94.48,21.54-2.67.76-5.45,3.14-8.29,6.8-20.75,26.77-44.8,122.45-53.76,160.37h0v0c-.05.21-.09.41-.14.62-.11.46-.22.91-.32,1.36-.06.26-.12.52-.19.78s-.17.74-.25,1.09-.13.57-.2.85l-.18.78c-.07.32-.15.63-.22.94l-.18.8c-.1.42-.19.82-.28,1.21s-.12.54-.18.79-.13.56-.19.83-.07.3-.1.44-.12.51-.17.75l-.1.41c-.05.23-.1.46-.15.67l-.06.29c-.05.21-.1.41-.14.6l0,.18-.21,1-.06.24c0,.13-.05.24-.08.35l0,.09c0,.11,0,.2-.06.28l0,.09,0,.2c24,34.59,90.33,32.61,90.33,32.61l5.61-16.13c1.65,25.11,14.88,102.82,20.53,187.52.47,7.1-3.27,13.5-5.65,17.65-3.45,6,7.29,13.92,8,14.19,67.58,26.14,122.49,29.23,161.83,25.09,6-10.6,20.82-27.74,23.78-30.7,1.94-1.94,30.13-16,30.13-16l-7.29-14.09s-42.76,27.21-45.19,18,27.7-25.76,35.47-30.61,16.52-6.81,18.47-3.89c1,1.44,3.7,6.91,6.22,12.08-3.05-71.21,22.71-222.48,22.71-222.48l15.6,25.7,8.4,13.83C924.88,699,975,677.12,975,677.12l.1.13h0Z"/></clipPath></defs><title>man shirt D</title><g class="b"><path class="c" d="M562.94,542.74c-26.07,33.63-57.35,176-57.35,176,24,34.59,90.33,32.61,90.33,32.61l5.61-16.13-7.35-88.48C578.93,625.6,567.08,565.83,562.94,542.74Z"/><path class="c" d="M899.12,540.88l.4-3.21a16.54,16.54,0,0,0-5-3.14c-10.35-3.8-126.35-31.06-126.35-31.06L761.35,511c-.85,5.08-20.61,35.14-28.47,46.12l-4.94-2.83c-14.82-10.58-32.47-45.88-32.47-45.88s-86.82,16.94-124.24,27.53c-2.67.76-5.45,3.14-8.29,6.8,4.14,23.09,16,82.86,31.24,104l7.35,88.48c1.65,25.11,14.88,102.82,20.53,187.52.47,7.1-3.27,13.5-5.65,17.65-3.45,6,7.29,13.92,8,14.19,144.64,55.95,231.3,6.28,231.3,6.28,1.42,0,5.42-6.38,4.24-9.88-3.71-11-9.18-12.71-9.18-12.71-13.41-51.53,19.77-246.35,19.77-246.35l7.41-71.65Z"/><path class="c" d="M975,677.12c2,2.71-20.55-33.25-38.12-73.41-16.52-37.76-28.37-58.28-37.36-66l-.4,3.21-21.18,79.41-7.41,71.65,24,39.53C924.88,699,975,677.12,975,677.12Z"/><path class="d" d="M788.65,542.29s100.94,22,103.76,29,62.12,126.3,62.12,126.3l36.7-12.71L910.76,521.12,772.41,495.71Z"/><path class="e" d="M679.94,547.94s-107.29,21.88-110.12,28.94-43,170.12-43,170.12l-45.23-24,76.23-223.06,124.24-7.06Z"/><path class="f" d="M697.53,483.71l2.94,24.7s10.29,29.88,27.47,45.88c0,0-16.24-9.88-21.41-9.41s-50.35,24.47-50.35,24.47,8.94-56.47,10.82-59.76S697.53,483.71,697.53,483.71Z"/><path class="f" d="M732.88,557.12s28-40.94,28.47-46.12.94-26.82.94-26.82,26.83,16.47,28.71,21.64C794.71,516,805.59,575,805.59,575s-38.12-28.24-45.65-30.59S732.88,557.12,732.88,557.12Z"/><path class="g" d="M628.87,938.16a6.78,6.78,0,0,0,3.39,8.93,314.72,314.72,0,0,0,111.21,25.79c30.15,1.23,64.6-4.69,98.16-15.49a6.78,6.78,0,0,0,3.61-10.12,25,25,0,0,1-3.65-11.8c-1.33-18.51.1-51.59,1.36-73.84a6.75,6.75,0,0,0-12-4.6c-30.51,38.17-108.55,118.07-189.3,58.35a6.75,6.75,0,0,0-10.73,6.13C631.59,928.41,630.82,933.6,628.87,938.16Z"/><path class="h" d="M564.53,555.71s15.88,70.94,32.82,90l4.18,89.53-5.61,16.13-7-17.78L591,648.88S569.82,601.24,564.53,555.71Z"/><polygon class="h" points="870.53 691.94 875.82 625.59 899.12 540.88 883.23 626.65 881.12 708.18 870.53 691.94"/><path class="i" d="M678.59,515.35c8-6.44,17.39-4.45,24.9.74-2-4.64-3-7.68-3-7.68l-2.94-24.7S668.88,506.29,667,509.59c-.79,1.38-2.82,12.12-4.91,24.12A100.45,100.45,0,0,1,678.59,515.35Z"/><path class="i" d="M782.59,513.35a107.1,107.1,0,0,1,14,15.62c-2.21-10.53-4.31-19.67-5.57-23.15-1.88-5.17-28.71-21.64-28.71-21.64s-.47,21.64-.94,26.82a8.43,8.43,0,0,1-.81,2.33C767.19,509.08,775.4,507.61,782.59,513.35Z"/><polygon class="j" points="725.82 553.59 731.54 556.35 744.17 564.88 744.17 641.59 738.53 641.59 738.53 566.29 725.82 553.59"/><circle class="d" cx="730.06" cy="574.29" r="6.12"/><circle class="d" cx="729.59" cy="618.53" r="6.12"/><polygon class="e" points="827.47 631.57 834.42 645.66 849.98 647.92 838.72 658.89 841.38 674.38 827.47 667.07 813.56 674.38 816.22 658.89 804.96 647.92 820.51 645.66 827.47 631.57"/></g><polygon class="c" points="806.65 976.41 817.23 974.29 826.06 961.94 845.82 950.65 844.06 948.53 824.65 957.35 806.65 976.41"/><rect class="a" width="1262.35" height="2195.18"/></svg>