<?xml version="1.0" encoding="utf-8"?>
<!-- Generator: Adobe Illustrator 24.0.2, SVG Export Plug-In . SVG Version: 6.00 Build 0)  -->
<svg version="1.1" id="Layer_1" xmlns="http://www.w3.org/2000/svg" xmlns:xlink="http://www.w3.org/1999/xlink" x="0px" y="0px"
	 viewBox="0 0 1262.3 2195.2" style="enable-background:new 0 0 1262.3 2195.2;" xml:space="preserve">
<style type="text/css">
	.st0{fill:none;}
	.st1{fill:#300F00;fill-opacity:0.7;}
</style>
<title>nose A</title>
<rect class="st0" width="1262.3" height="2195.2"/>
<path class="st1" d="M736.1,340.5c0.5,5.5,2.3,20,8.8,25.3c0,0-10.3,13-13.2,20c-0.4,0.9-1.3,1.5-2.3,1.5l0,0c-2,0-5.2-2.2-4.2-3.9
	c0,0,12.4-17.4,12-18.2c-1.6-3.6-6.3-14.3-7.6-24.4c-0.2-1.4,0.8-2.6,2.2-2.8c0.1,0,0.3,0,0.4,0l1.4,0.1
	C735,338.3,736,339.2,736.1,340.5z"/>
</svg>
