<svg xmlns="http://www.w3.org/2000/svg" width="1262.35" height="2195.18" viewBox="0 0 1262.35 2195.18"><defs><style>.a{fill:#fff;}.b{fill:#e0864a;}.c{fill:#3498bf;}.d{fill:#3fd7e8;}.e{fill:#c9c9c9;}.f{fill:#bf723f;}.g{fill:#e89d4d;}.h{fill:#253e57;}.i{fill:#315273;}.j{fill:none;}</style></defs><title>shoes I</title><polygon class="a" points="537.59 2165.82 543.96 2184.59 555.47 2172.88 537.59 2165.82"/><polygon class="a" points="566.76 2179.47 572.2 2195.18 580.67 2184.59 566.76 2179.47"/><polygon class="a" points="596.96 2176.59 606.53 2192.65 610.89 2179.81 596.96 2176.59"/><polygon class="a" points="638.37 2156.29 635.05 2174.68 626.46 2164.19 638.37 2156.29"/><polygon class="a" points="653.14 2099.18 653.82 2119.24 644.2 2113.3 653.14 2099.18"/><path class="a" d="M640.41,2115s10-17.45,14.32-31.43c-.92-54-20.32-92.45-20.32-92.45.71,7.06-13.41,36.7-13.41,36.7s-3.18,53.3-8.82,68.12C612.18,2095.94,625.59,2098.76,640.41,2115Z"/><path class="a" d="M574.06,2093.12,587.82,2025c-3.53-16.24-3.53-39.18-3.53-39.18C568.06,2024.65,555,2095.94,555,2095.94S564.88,2092.41,574.06,2093.12Z"/><path class="b" d="M572.65,2175.71c-24.81-4.21-35.34-19.17-39.8-30.6-.14,5.87-1.9,11.71,1,17.18,6.1,11.61,21.12,20.8,35.3,24,20.29,4.59,52.94-4.23,62.11-16.94,16.38-22.67,13.42-48,13.42-48l.05-.08c-1.33-2.05-2.83-4-4.32-6C636.75,2163.77,602.64,2180.79,572.65,2175.71Z"/><path class="b" d="M654.73,2083.57c-4.29,14-14.32,31.43-14.32,31.43l0,.27c1.49,2,3,3.95,4.32,6,3.55-5.06,9.83-23.21,9.83-23.21Q654.86,2090.65,654.73,2083.57Z"/><path class="c" d="M572.65,2175.71c30.05,5.09,64.23-12,67.76-60.71-14.82-16.24-28.23-19.06-28.23-19.06s-27.53-3.53-38.12-2.82c-9.18-.71-19.06,2.82-19.06,2.82s-21.56,24.78-22.15,49.17C537.31,2156.54,547.84,2171.5,572.65,2175.71Z"/><path class="a" d="M612.18,2095.94c5.64-14.82,8.82-68.12,8.82-68.12-18.71-9.88-33.18-2.82-33.18-2.82l-13.76,68.12C584.65,2092.41,612.18,2095.94,612.18,2095.94Z"/><path class="d" d="M594.6,2155.28c-17.39-1.18-36.3-11.58-42.59-27.62a2.59,2.59,0,0,0-4.77-.08,55.15,55.15,0,0,0-2.32,6.1,20.32,20.32,0,0,0,3.88,19.14c4.8,5.67,12.44,10.88,24.6,12.85s25.35-.66,35.31-9a1.72,1.72,0,0,0-1.65-2.94A33.23,33.23,0,0,1,594.6,2155.28Z"/><path class="e" d="M641.51,2030.12c2.52,24.7,2.83,50.13-8.13,71.75a74.39,74.39,0,0,1,5.61,5.37s8.91-15,12.71-27a204,204,0,0,0-7.41-50.62A1.42,1.42,0,0,0,641.51,2030.12Z"/><path class="f" d="M576.17,2077.35s20.24-4.23,41.42,2.83l-1.42,7.06s-32.94-7.06-42.35-1.42Z"/><path class="f" d="M576.17,2077.35S606.29,2066.06,619,2067l.47-7.06s-29.18,3.3-41.41,10.35Z"/><path class="g" d="M580.88,2057.59s27.29,9.88,36.24,17.88l.47,6.59s-33.42-17.41-37.65-17.88Z"/><path class="f" d="M580.88,2057.59s30.12-9.88,39.06-9.88l.94-8.47s-30.12,6.58-38.59,11.76l-1.88,8"/><path class="g" d="M619.47,2059.94l.47-7.06s-28.35-16.35-34.94-18.23l-.35,5.53S611.94,2053.82,619.47,2059.94Z"/><path class="h" d="M639.18,2124.37l1.23-11.49c-16.23-35.29-1.65-113.17-1.65-113.17a15.1,15.1,0,0,0-.8-4.09C622,2035.74,620.87,2084.63,639.18,2124.37Z"/><path class="i" d="M638,1995.62c-1.28-3.59-3.55-4.5-3.55-4.5-.43,3.37-9.14,16.76-13.41,36.7-4.83,22.55-7.43,50.48-8.39,62.35a5.17,5.17,0,0,1-6,4.68,220.93,220.93,0,0,0-26.13-1.69,5.17,5.17,0,0,1-4.91-6.45c3.13-12.21,10.06-39.39,12.2-61.71,2.2-22.86-3.53-39.18-3.53-39.18a7.14,7.14,0,0,0-3.88,7.77c0,.11,0,.22,0,.35-1.6,30.37-9.15,60.12-20.79,88.22l-3.66,8.84a52.47,52.47,0,0,0-13.65,23.29s53.65-20.47,96,18.36l.89-8.28C620.87,2084.63,622,2035.74,638,1995.62Z"/><polygon class="a" points="901.49 2104.82 905.02 2123.18 913.49 2112.59 901.49 2104.82"/><polygon class="a" points="932.2 2123.88 935.73 2142.24 944.2 2131.65 932.2 2123.88"/><polygon class="a" points="972.43 2141.88 975.96 2160.24 984.43 2149.65 972.43 2141.88"/><polygon class="a" points="1009.49 2160.94 1013.02 2179.3 1021.49 2168.71 1009.49 2160.94"/><polygon class="a" points="1105.59 2166.18 1103.47 2185.24 1095.7 2174.65 1105.59 2166.18"/><polygon class="a" points="1065.35 2167.24 1063.23 2186.29 1055.47 2175.71 1065.35 2167.24"/><path class="a" d="M960.17,2050.53s10.83-34.35,38.12-24.47c0,0,13.41,16.94,33.77,60.47l-34.71,27.53Z"/><path class="a" d="M920.18,2006.76c-23.06,40.48-20.71,82.36-20.71,82.36,16.47,19.29,55.06,28.7,55.06,28.7.75,1,13,10.81,29.83,20.55,1.44-15.49,11-29.14,13.16-32C957.38,2023.64,920.18,2006.76,920.18,2006.76Z"/><path class="c" d="M1032.06,2086.53c-17.89.94-34.44,20.06-34.54,19.85-2.12,2.85-11.72,16.5-13.16,32,10.62,6.15,23,12.28,35.58,16.16,59.29,18.35,88.94,3.29,88.94,3.29C1098.17,2093.12,1032.06,2086.53,1032.06,2086.53Z"/><path class="d" d="M1072.49,2148.29c7.52-8.86,9.2-20.93,6.72-30.91a1.85,1.85,0,0,1,3.23-1.64c7.08,8.93,12.42,20.28,17,28.57a3.58,3.58,0,0,1-2.21,5.17,93.5,93.5,0,0,1-24.1,2.83H1073a1.86,1.86,0,0,1-1.29-3.16Z"/><path class="e" d="M909.89,2091.37c6.41,5.34,14.49,9.61,22,12.83a2.7,2.7,0,0,0,3.31-4c-12.3-17.55-18-40.59-19.51-62.68a1.88,1.88,0,0,0-3.66-.45,154.16,154.16,0,0,0-7.57,41.87A15.45,15.45,0,0,0,909.89,2091.37Z"/><path class="f" d="M993.12,2094.29s21.64-19.29,34.35-18.82c0,0-.94-8.47-4.71-8.47,0,0-26.82,12.71-32,20.71Z"/><path class="f" d="M990.76,2087.71s18.36-28.71,26.36-32.95c0,0-.94-7.05-4.24-7.05,0,0-24.94,23.05-25.88,32.47l4.23,8.94"/><path class="g" d="M1022.76,2067s-36.7,2.35-40,3.76l-4.7-8s34.82-4.7,41.41-3.29A13.24,13.24,0,0,1,1022.76,2067Z"/><path class="f" d="M978.06,2062.76s21.17-25.41,26.82-27.76c0,0-.47-5.18-3.76-5.18,0,0-25,18.83-27.3,26.36Z"/><path class="g" d="M1012.88,2047.71s-35.29,7.05-39.06,8.47l-5.65-6.59s34.83-7.53,41-7.53C1009.12,2042.06,1008.65,2040.65,1012.88,2047.71Z"/><path class="h" d="M911.67,2018.59a48.58,48.58,0,0,0-2.32,12.41c34.74,11.12,46.59,67.76,45.18,86.82-.09,1.17,6.49,6.2,14.21,11.44C971.35,2086.24,953.46,2035.9,911.67,2018.59Z"/><path class="i" d="M1030.91,2082.2c-13.69,3.91-25.16,11.63-30.29,15.46a2.85,2.85,0,0,1-4.32-1.16c-31.66-74.09-74.23-89.74-74.23-89.74-5.5,1.41-8.63,6.6-10.4,11.83,41.79,17.31,59.68,67.65,57.07,110.67,10.57,7.17,23.28,14.74,23.91,13.27,16.94-39.53,61.41-50.82,61.41-50.82C1041.35,2080.41,1030.91,2082.2,1030.91,2082.2Z"/><path class="b" d="M954.53,2117.82s-38.59-9.41-55.06-28.7c0,0-5.18,11.76,0,16.94s19.29,23.06,53.18,25.41c0,0,.26.3.78.84a60,60,0,0,1,1.37-14.2A2.86,2.86,0,0,1,954.53,2117.82Z"/><path class="b" d="M1108.88,2157.82s-29.65,15.06-88.94-3.29c-12.53-3.88-25-10-35.58-16.16-15.77-9.13-27.52-18.31-29.56-20.26a60,60,0,0,0-1.37,14.2c6.09,6.36,47.71,46.54,124.86,44.81,10.72-.24,27.3-2.36,32.47-8.47C1110.76,2168.65,1112.65,2161.59,1108.88,2157.82Z"/><rect class="j" width="1262.35" height="2195.18"/></svg>