<svg xmlns="http://www.w3.org/2000/svg" width="1262.35" height="2195.18" viewBox="0 0 1262.35 2195.18"><defs><style>.a{fill:none;}.b{fill:#915141;}.c{fill:#632e24;}.d{fill:#968374;}.e{fill:#87523c;}.f{fill:#b56551;}</style></defs><title>shoes D</title><rect class="a" width="1262.35" height="2195.18"/><polygon points="901.49 2104.82 905.02 2123.18 913.49 2112.59 901.49 2104.82"/><polygon points="932.2 2123.88 935.73 2142.24 944.2 2131.65 932.2 2123.88"/><polygon points="972.43 2141.88 975.96 2160.24 984.43 2149.65 972.43 2141.88"/><polygon points="1009.49 2160.94 1013.02 2179.3 1021.49 2168.71 1009.49 2160.94"/><polygon points="1105.59 2166.18 1103.47 2185.24 1095.7 2174.65 1105.59 2166.18"/><polygon points="1065.35 2167.24 1063.23 2186.29 1055.47 2175.71 1065.35 2167.24"/><path d="M899.47,2089.12s-5.18,11.76,0,16.94,19.29,23.06,53.18,25.41c0,0,41.88,47.53,125.64,45.65,10.72-.24,27.3-2.36,32.47-8.47,0,0,1.89-7.06-1.88-10.83Z"/><path d="M960.17,2050.53s15.77-26.12,41.65-18.12c0,0,9.88,10.59,30.24,54.12l-34.71,27.53Z"/><path class="b" d="M920.18,2006.76c-23.06,40.48-20.71,82.36-20.71,82.36,16.47,19.29,55.06,28.7,55.06,28.7.75,1,13,10.81,29.83,20.55,1.44-15.49,11-29.14,13.16-32C957.38,2023.64,920.18,2006.76,920.18,2006.76Z"/><path class="c" d="M1032.06,2086.53c-17.89.94-34.44,20.06-34.54,19.85-2.12,2.85-11.72,16.5-13.16,32,10.62,6.15,23,12.28,35.58,16.16,59.29,18.35,88.94,3.29,88.94,3.29C1095.23,2121.59,1032.06,2086.53,1032.06,2086.53Z"/><path class="c" d="M920.18,2006.76c-1.74,3-3.32,6.09-4.78,9.13,13.43,10.79,48.1,42.35,76.21,100a75.45,75.45,0,0,1,5.91-9.46C957.38,2023.64,920.18,2006.76,920.18,2006.76Z"/><path class="d" d="M997.52,2108.38a1.93,1.93,0,0,1-.9-.22,2,2,0,0,1-.89-2.68c.55-1.08,11.37-22.35,23.1-32-10.84.42-29.89,1.49-36.05,3.86a2,2,0,0,1-2.27-3.14c2.91-3.54,14.73-17.62,24.3-24.17-10.76-.74-29.74-1.75-41.65-.8a2,2,0,0,1-.32-4c17.61-1.41,49.12,1.3,50.45,1.41a2,2,0,0,1,1.82,2.17,2,2,0,0,1-2.16,1.82h-.21c-4.6,0-16.29,11.31-25.17,21.44,13.35-2.3,37.7-2.81,38.92-2.83a2,2,0,0,1,.64,3.9c-10.34,3.27-23.59,25.75-27.83,34.14A2,2,0,0,1,997.52,2108.38Z"/><path class="d" d="M989.82,2091.59a2,2,0,0,1-1.17-.38,2,2,0,0,1-.82-1.44c-.64-7.09,17.14-20.8,27-27.84-8.17-.3-25.69.36-41.82,1.42a2,2,0,0,1-1.5-.54,2,2,0,0,1-.63-1.46c0-9,24.81-27,29.79-30.57A2,2,0,0,1,1003,2034c-10.28,7.28-24.27,19-27.44,25.14,12.51-.78,41.49-2.34,45.53-.32a2,2,0,0,1,.23,3.44c-12.25,8.35-25.16,19.07-28.6,24.64,8.28-1.67,29.78-5.48,40-2.32a2,2,0,1,1-1.19,3.82c-11.46-3.56-40.9,3-41.2,3.1A2.12,2.12,0,0,1,989.82,2091.59Z"/><path class="e" d="M1073.55,2154.64c10-11.76,6.69-23.75,0-34.4,10.74,9.08,21,19.62,26.94,30.42a3.59,3.59,0,0,1-2.24,5.18,93.9,93.9,0,0,1-24.07,2.82q-2.4,0-4.86-.09A27.53,27.53,0,0,0,1073.55,2154.64Z"/><path class="f" d="M904.4,2086c9.05,10.59,25.54,17.86,37,21.9-18.67-20.35-25.61-51.62-26.1-79.74C902.87,2058.71,904.4,2086,904.4,2086Z"/><polygon points="540.43 2166.24 543.96 2184.59 552.43 2174 540.43 2166.24"/><polygon points="568.67 2176.82 572.2 2195.18 580.67 2184.59 568.67 2176.82"/><polygon points="596.96 2176.59 606.53 2192.65 610.89 2179.81 596.96 2176.59"/><polygon points="638.37 2156.29 635.05 2174.68 626.46 2164.19 638.37 2156.29"/><polygon points="654.08 2104.82 651.96 2123.88 644.2 2113.3 654.08 2104.82"/><path class="b" d="M640.41,2115s10-17.45,14.32-31.43c-.92-54-20.32-92.45-20.32-92.45.71,7.06-13.41,36.7-13.41,36.7s-3.18,53.3-8.82,68.12C612.18,2095.94,625.59,2098.76,640.41,2115Z"/><path class="b" d="M574.06,2093.12,587.82,2025c-3.53-16.24-3.53-39.18-3.53-39.18C568.06,2024.65,555,2095.94,555,2095.94S564.88,2092.41,574.06,2093.12Z"/><path d="M640.41,2115c-3.53,48.71-37.71,65.8-67.76,60.71-24.81-4.21-35.34-19.17-39.8-30.6-.14,5.87-1.9,11.71,1,17.18,6.1,11.61,21.12,20.8,35.3,24,20.29,4.59,52.94-4.23,62.11-16.94,16.38-22.67,13.42-48,13.42-48,3.53-4.94,9.88-23.29,9.88-23.29q.33-7.41.2-14.49C650.44,2097.55,640.41,2115,640.41,2115Z"/><path class="c" d="M572.65,2175.71c30.05,5.09,64.23-12,67.76-60.71-14.82-16.24-28.23-19.06-28.23-19.06s-27.53-3.53-38.12-2.82c-9.18-.71-19.06,2.82-19.06,2.82s-21.56,24.78-22.15,49.17C537.31,2156.54,547.84,2171.5,572.65,2175.71Z"/><path d="M612.18,2095.94c5.64-14.82,8.82-68.12,8.82-68.12-18.71-9.88-33.18-2.82-33.18-2.82l-13.76,68.12C584.65,2092.41,612.18,2095.94,612.18,2095.94Z"/><path class="c" d="M639.57,2003.36c-3-7.86-5.16-12.24-5.16-12.24.71,7.06-13.41,36.7-13.41,36.7s-3.18,53.3-8.82,68.12a36.91,36.91,0,0,1,8.4,3.37l9.6-72.9S635.79,2014.31,639.57,2003.36Z"/><path class="c" d="M584.29,1985.82c-1.63,3.91-3.23,8.14-4.79,12.6a150.67,150.67,0,0,0-.15,24.82l-14.66,70.35a41.29,41.29,0,0,1,9.37-.47L587.82,2025C584.29,2008.76,584.29,1985.82,584.29,1985.82Z"/><path class="d" d="M612.17,2097.94a2,2,0,0,1-1.13-.35c-.22-.16-22.5-15.41-35.47-19.51a2,2,0,0,1-1.38-1.67,2,2,0,0,1,1-1.95c2.8-1.68,24.31-14.37,38.41-16.5-10.46-7-24-15.08-28.91-15.08a2,2,0,0,1-1-3.7c.76-.47,18.95-11.56,37.2-13.35a2,2,0,1,1,.39,4c-12.16,1.2-24.67,7-31.09,10.33,10.92,4,28.66,16.51,31,18.17a2,2,0,0,1-1.62,3.58c-8.12-1.91-28.08,8-38.61,13.88,13.47,5.53,31.6,17.94,32.44,18.52a2,2,0,0,1,.51,2.78A2,2,0,0,1,612.17,2097.94Z"/><path class="d" d="M571.94,2095.82a2,2,0,0,1-1.06-3.69c1-.61,21.77-13.42,39.57-15.56-13.09-9.07-26.38-17.69-28.72-18.16a2,2,0,0,1-.83-3.77c2.62-1.37,21.94-11.36,33.54-14.31-7.5-4.25-21.15-11.72-27.16-13.4a2,2,0,0,1,1.08-3.86c9,2.52,32.31,16.21,33.3,16.79a2,2,0,0,1-1.37,3.7c-4.66-.85-21.85,6.71-33.82,12.72,7.63,4.08,21.93,13.93,31.09,20.38a2,2,0,0,1-1.23,3.63c-17.54-.62-43.08,15.07-43.33,15.23A2,2,0,0,1,571.94,2095.82Zm9.83-37.41h0Z"/><path class="e" d="M598.09,2157.68c-22.66-1.54-47.53-16.55-51.47-39.15a70.88,70.88,0,0,0-6.25,14,23.54,23.54,0,0,0,4.51,22.23c5.57,6.59,14.45,12.65,28.57,14.93,17.4,2.82,36.38-2.42,48.23-17.94A40.37,40.37,0,0,1,598.09,2157.68Z"/><path class="f" d="M639.81,2015.47c3.65,29.06,6.71,60.47-6.43,86.4a74.39,74.39,0,0,1,5.61,5.37s8.91-15,12.71-27A204.74,204.74,0,0,0,639.81,2015.47Z"/></svg>