<svg xmlns="http://www.w3.org/2000/svg" width="1262.35" height="2195.18" viewBox="0 0 1262.35 2195.18"><defs><style>.a{fill:none;}.b{fill:#ab3333;}.c{fill:#b5b5b5;}.d{fill:#355563;}.e{fill:#4b788c;}.f{fill:#912323;}.g{fill:#b8b8b8;}.h{fill:#fff;}.i{fill:#d4d4d4;}</style></defs><title>shoes F</title><rect class="a" width="1262.35" height="2195.18"/><polygon points="537.59 2165.82 543.96 2184.59 555.47 2172.88 537.59 2165.82"/><polygon points="566.76 2179.47 572.2 2195.18 580.67 2184.59 566.76 2179.47"/><polygon points="596.96 2176.59 606.53 2192.65 610.89 2179.81 596.96 2176.59"/><polygon points="638.37 2156.29 635.05 2174.68 626.46 2164.19 638.37 2156.29"/><polygon points="653.14 2099.18 653.82 2119.24 644.2 2113.3 653.14 2099.18"/><path class="b" d="M640.41,2115s10-17.45,14.32-31.43c-.92-54-20.32-92.45-20.32-92.45.71,7.06-13.41,36.7-13.41,36.7s-3.18,53.3-8.82,68.12C612.18,2095.94,625.59,2098.76,640.41,2115Z"/><path class="b" d="M574.06,2093.12,587.82,2025c-3.53-16.24-3.53-39.18-3.53-39.18C568.06,2024.65,555,2095.94,555,2095.94S564.88,2092.41,574.06,2093.12Z"/><path class="c" d="M640.41,2115c-3.53,48.71-37.71,65.8-67.76,60.71-24.81-4.21-35.34-19.17-39.8-30.6-.14,5.87-1.9,11.71,1,17.18,6.1,11.61,21.12,20.8,35.3,24,20.29,4.59,52.94-4.23,62.11-16.94,16.38-22.67,13.42-48,13.42-48,3.53-4.94,9.88-23.29,9.88-23.29q.33-7.41.2-14.49C650.44,2097.55,640.41,2115,640.41,2115Z"/><path class="d" d="M572.65,2175.71c30.05,5.09,64.23-12,67.76-60.71-14.82-16.24-28.23-19.06-28.23-19.06s-27.53-3.53-38.12-2.82c-9.18-.71-19.06,2.82-19.06,2.82s-21.56,24.78-22.15,49.17C537.31,2156.54,547.84,2171.5,572.65,2175.71Z"/><path class="d" d="M612.18,2095.94c5.64-14.82,8.82-68.12,8.82-68.12-18.71-9.88-33.18-2.82-33.18-2.82l-13.76,68.12C584.65,2092.41,612.18,2095.94,612.18,2095.94Z"/><path class="e" d="M594.6,2155.28c-17.39-1.18-36.3-11.58-42.59-27.62a2.59,2.59,0,0,0-4.77-.08,55.15,55.15,0,0,0-2.32,6.1,20.32,20.32,0,0,0,3.88,19.14c4.8,5.67,12.44,10.88,24.6,12.85s25.35-.66,35.31-9a1.72,1.72,0,0,0-1.65-2.94A33.23,33.23,0,0,1,594.6,2155.28Z"/><path class="f" d="M639.81,2015.47c3.65,29.06,6.71,60.47-6.43,86.4a74.39,74.39,0,0,1,5.61,5.37s8.91-15,12.71-27A204.74,204.74,0,0,0,639.81,2015.47Z"/><path class="g" d="M576.17,2077.35s20.24-4.23,41.42,2.83l-1.42,7.06s-32.94-7.06-42.35-1.42Z"/><path class="g" d="M576.17,2077.35S606.29,2066.06,619,2067l.47-7.06s-29.18,3.3-41.41,10.35Z"/><path class="h" d="M580.88,2057.59s27.29,9.88,36.24,17.88l.47,6.59s-33.42-17.41-37.65-17.88Z"/><path class="g" d="M580.88,2057.59s30.12-9.88,39.06-9.88l.94-8.47s-30.12,6.58-38.59,11.76l-1.88,8"/><path class="h" d="M619.47,2059.94l.47-7.06s-28.35-16.35-34.94-18.23l-.35,5.53S611.94,2053.82,619.47,2059.94Z"/><path class="g" d="M653.82,2063.24c-3.69-3.29-27-3.35-33-3.31a128,128,0,0,1,11,13.75l23.39,3.67C655.74,2071.14,653.82,2063.24,653.82,2063.24Z"/><path class="h" d="M619.47,2059.94l-2.35,15.53c3.76,2.82,23.29,39.53,23.29,39.53a16.78,16.78,0,0,0,6.82-11.29c-2.35-7.06-16-30.12-16-30.12l.61.09a128,128,0,0,0-11-13.75Z"/><path class="g" d="M579.94,2060.41s-14.12-5.17-16-7.06c0,0-4.71,9.89-3.76,15.06l7.52,1.41-1.07,1c4.56-2.57,8.6-6.7,13-9.13Z"/><path class="h" d="M566.63,2070.79l-8.81,8s-4.7,8.48-2.82,17.18c0,0,12.23-15.29,21.18-18.59l3.48-15.69C575.23,2064.09,571.19,2068.22,566.63,2070.79Z"/><path class="i" d="M584.29,1985.82s.12,31.06,3.53,39.18c0,0-13.53,64.59-13.76,68.12,0,0,26.59-.24,38.12,2.82,0,0,8.7-53.41,8.7-69.41,0,0,12.47-27.06,13.53-35.41,0,0,3.88,1.53,4.35,8.59,0,0-8.94,26.82-11.76,29.64,0,0-8,65.41-8.47,70.59,0,0-45.18-2.82-49.88-2.82l14.58-72s-3.29-26.36-2.82-31.53A7.14,7.14,0,0,1,584.29,1985.82Z"/><polygon points="901.49 2104.82 905.02 2123.18 913.49 2112.59 901.49 2104.82"/><polygon points="932.2 2123.88 935.73 2142.24 944.2 2131.65 932.2 2123.88"/><polygon points="972.43 2141.88 975.96 2160.24 984.43 2149.65 972.43 2141.88"/><polygon points="1009.49 2160.94 1013.02 2179.3 1021.49 2168.71 1009.49 2160.94"/><polygon points="1105.59 2166.18 1103.47 2185.24 1095.7 2174.65 1105.59 2166.18"/><polygon points="1065.35 2167.24 1063.23 2186.29 1055.47 2175.71 1065.35 2167.24"/><path class="d" d="M960.17,2050.53s10.83-34.35,38.12-24.47c0,0,13.41,16.94,33.77,60.47l-34.71,27.53Z"/><path class="b" d="M920.18,2006.76c-23.06,40.48-20.71,82.36-20.71,82.36,16.47,19.29,55.06,28.7,55.06,28.7.75,1,13,10.81,29.83,20.55,1.44-15.49,11-29.14,13.16-32C957.38,2023.64,920.18,2006.76,920.18,2006.76Z"/><path class="d" d="M1032.06,2086.53c-17.89.94-34.44,20.06-34.54,19.85-2.12,2.85-11.72,16.5-13.16,32,10.62,6.15,23,12.28,35.58,16.16,59.29,18.35,88.94,3.29,88.94,3.29C1098.17,2093.12,1032.06,2086.53,1032.06,2086.53Z"/><path class="e" d="M1072.49,2148.29c7.52-8.86,9.2-20.93,6.72-30.91a1.85,1.85,0,0,1,3.23-1.64c7.08,8.93,12.42,20.28,17,28.57a3.58,3.58,0,0,1-2.21,5.17,93.5,93.5,0,0,1-24.1,2.83H1073a1.86,1.86,0,0,1-1.29-3.16Z"/><path class="f" d="M904.4,2086c9.05,10.59,25.54,17.86,37,21.9-18.67-20.35-25.61-51.62-26.1-79.74C902.87,2058.71,904.4,2086,904.4,2086Z"/><path class="g" d="M993.12,2094.29s21.64-19.29,34.35-18.82c0,0-.94-8.47-4.71-8.47,0,0-26.82,12.71-32,20.71Z"/><path class="g" d="M990.76,2087.71s18.36-28.71,26.36-32.95c0,0-.94-7.05-4.24-7.05,0,0-24.94,23.05-25.88,32.47l4.23,8.94"/><path class="h" d="M1022.76,2067s-36.7,2.35-40,3.76l-4.7-8s34.82-4.7,41.41-3.29A13.24,13.24,0,0,1,1022.76,2067Z"/><path class="g" d="M978.06,2062.76s21.17-25.41,26.82-27.76c0,0-.47-5.18-3.76-5.18,0,0-25,18.83-27.3,26.36Z"/><path class="h" d="M1012.88,2047.71s-35.29,7.05-39.06,8.47l-5.65-6.59s34.83-7.53,41-7.53C1009.12,2042.06,1008.65,2040.65,1012.88,2047.71Z"/><path class="i" d="M916.88,2103.71l12.71,6.11,32-31.05c0-6-.16-12.24-.8-18.32C947.24,2070.55,916.88,2103.71,916.88,2103.71Z"/><path class="h" d="M974.76,2070.76l-8.94-13.17c-1.11.19-2.86,1.23-5,2.86.64,6.08.77,12.32.8,18.32h0l4.7,49.89,18.07,9.72Z"/><path class="i" d="M922.07,2006.76s42.57,15.65,74.23,89.74a2.85,2.85,0,0,0,4.32,1.16c5.13-3.83,16.6-11.55,30.29-15.46,0,0,4.75-1.27,9.21,4.52,0,0-28.83,10-41.44,22a4,4,0,0,1-6.4-1.29c-8.1-18.29-39.64-82.58-74.38-93.7C917.9,2013.71,915.12,2006.76,922.07,2006.76Z"/><path class="c" d="M1108.88,2157.82s-29.65,15.06-88.94-3.29c-12.53-3.88-25-10-35.58-16.16-16.83-9.74-29.08-19.54-29.83-20.55,0,0-38.59-9.41-55.06-28.7,0,0-5.18,11.76,0,16.94s19.29,23.06,53.18,25.41c0,0,41.88,47.53,125.64,45.65,10.72-.24,27.3-2.36,32.47-8.47C1110.76,2168.65,1112.65,2161.59,1108.88,2157.82Z"/></svg>