<svg xmlns="http://www.w3.org/2000/svg" xmlns:xlink="http://www.w3.org/1999/xlink" width="1262.35" height="2195.18" viewBox="0 0 1262.35 2195.18"><defs><style>.a{fill:none;}.b{fill:#a1a1a1;}.c{clip-path:url(#a);}.d{fill:#e6b539;}.e{fill:#edbc3f;}.f{fill:#f2cc44;}.g{fill:#e3a036;}.h{fill:#ffdf70;}.i{fill:#e8e8e8;}.j{fill:#ccc;}.k{fill:#8f7d3f;}</style><clipPath id="a"><path class="a" d="M887.47,1136.53s-14.88-120.25-23.28-151c-1.69-.33-2.67-.57-2.67-.57s-35.47,33-39.85,24.79,34.51-39.37,34.51-41.31-2.92-3.4-2.92-3.4l-14.09,5.83s-28.19,35-34.5,27.7c-4.18-4.82,6.94-18.36,15.1-27.53-3.24.77-6.47,1.47-9.71,2.12a100.32,100.32,0,0,1-12.68,11.32c-6.74,4.76-13,5.13-13.61,2.43-.44-1.9,1.41-5.73,4.31-10.26q-7.79.92-15.49,1.43h0c-5.09.34-57.28-1.09-59.46-1.32-64.45-6.78-112.6-28.22-112.6-28.22-3.29,6.93-39.18,91.65-39.18,177.41l-28.06,96.12s78.89,37.76,140.3,33.53l-18,14.82s123.88-6.35,155.64-21.17L789,1271.47s111.18-27.53,131.29-55.06Z"/></clipPath></defs><title>girl skrits C</title><rect class="a" width="1262.35" height="2195.18"/><polygon class="b" points="655.59 1270.41 658.76 1234.41 673.59 1255.59 655.59 1270.41"/><polygon class="b" points="789 1271.47 775.23 1225.94 811.23 1249.23 789 1271.47"/><g class="c"><path class="d" d="M887.47,1136.53s-15.88-126.59-24.09-153.85c-4-16-6.62-23.56-6.62-23.56-27.88,11.49-56.56,17.11-84.17,19h0c-5.09.34-57.28-1.09-59.46-1.32h0c-64.45-6.78-112.6-28.22-112.6-28.22-3.29,6.93-6.54,14.14-9.63,21.72,0,0-29.55,69.93-29.55,155.69l-28.06,96.12s78.89,37.76,140.3,33.53l-18,14.82s123.88-6.35,155.64-21.17L789,1271.47s111.18-27.53,131.29-55.06Z"/><polygon class="d" points="789 1271.47 773.12 1125.35 887.47 1136.53 939.35 1248.77 810.17 1288.41 789 1271.47"/><polyline class="e" points="673.59 1255.59 675.23 1144.06 783.7 1145.71 811.23 1249.23 786.88 1263.71 658.76 1293.71 643.94 1273.59 676.76 1254.53"/><path class="f" d="M861,953.82,753,943.24,597.35,932.65l-32.82,43.41-3.18,149.88s44.71,6.24,113.18,28c0,0,69.64-13.88,109.88.94h0c34.59-16.82,79.76-21.06,103.06-18.35l5.29-99.06Z"/><path class="g" d="M582.29,971.47a375.44,375.44,0,0,0,68,23.29c28.41,6.64,76.6,15.45,129.15,10.73,29.19-2.62,59.73-12.19,89-22,14.91-5-11.07-1.33,4.24-7.76L855.7,937.59,607.23,917.82Z"/><polygon class="h" points="657.12 961.12 635.47 956.41 626.59 989.12 635 1005.35 651 997.35 657.12 961.12"/><polygon class="h" points="804.88 973.98 809.12 1003.24 822.29 1012.88 835.47 997.82 830.29 965.82 804.88 973.98"/><path class="d" d="M598.12,994.85c24.28,30.84,104.1,113.08,259.24,103.95a1.56,1.56,0,0,0,.18-3.1c-30.61-5.37-107.28-21.08-141.6-48.7h0c40.91,7.08,73.64-2.21,87.75-7.45a1.76,1.76,0,0,0-.53-3.41c-29.2-1.27-131.21-8.31-201.26-45.77A3,3,0,0,0,598.12,994.85Z"/><polygon class="f" points="673.59 1255.59 674.53 1153.94 661.59 1256.65 673.59 1255.59"/><polygon class="f" points="811.23 1249.23 784.41 1154.88 802.06 1253.12 811.23 1249.23"/><path class="i" d="M672.53,1238.76l1.06,16.83-19.3,15.17s54.65,7.14,138.8-14.55c5.91-1.52,13.67-4.27,18.14-7L804,1221.06S743.12,1241.12,672.53,1238.76Z"/><polygon class="f" points="887.47 1136.53 912.88 1227 922.53 1216.65 887.47 1136.53"/><path class="j" d="M808.17,1235.94s73.42-20.23,102.59-45.65l11.77,26.36s-2.73,7-13.65,13.64c-24.07,14.72-80.61,41.32-126.59,46.83,0,0,16.94-17.88,28.94-27.88Z"/><path class="j" d="M533.82,1183.24s60.53,40.52,139.59,40.52l.18,31.83s-75.42,7.65-140.3-33.53Z"/></g><circle class="k" cx="640.41" cy="988.65" r="5.88"/><circle class="k" cx="821.35" cy="998.29" r="5.18"/></svg>