<svg xmlns="http://www.w3.org/2000/svg" xmlns:xlink="http://www.w3.org/1999/xlink" width="1262" height="2195" viewBox="0 0 1262 2195"><defs><style>.a{fill:none;}.b{clip-path:url(#a);}.c{fill:#912d75;}.d{fill:#822869;}.e{fill:#ba63a1;}.f{fill:#782560;}.g{fill:#fff;}</style><clipPath id="a"><path class="a" d="M821.09,1009.38c-4.38-8.26,34.5-39.36,34.5-41.3s-2.92-3.41-2.92-3.41l-14.09,5.84s-28.18,35-34.5,27.7c-4.18-4.83,7-18.38,15.12-27.56q-2.61.63-5.22,1.2c-1.5.33-3,.62-4.48.92a100.62,100.62,0,0,1-12.71,11.34c-6.74,4.77-13,5.14-13.61,2.43-.44-1.9,1.42-5.74,4.33-10.28C733.43,982.69,682,973.54,646.77,964c-5.79-1.57-11.13-3.14-16-4.66a313.38,313.38,0,0,1-30.84-11.16,48.83,48.83,0,0,0-4.67,10.15c-.75,1.75-1.55,3.71-2.41,5.9l-.57,1.06.13.07c-1.5,3.84-3.13,8.34-4.83,13.48-10.6,24.41-40.24,132-6.77,342.4,0,0,65.79,17.47,151.87,17.78h0q5.53,0,11.18-.06h0c49.57-.7,105-7.35,158.07-26.2l-7.29-98.82c-6.47-103.43-25.36-201.7-31.39-228.84-1.48-.29-2.32-.5-2.32-.5S825.46,1017.64,821.09,1009.38Z"/></clipPath></defs><title>girl skrits E</title><g class="b"><path class="c" d="M856.18,958.76c-120.71,49.77-256.24-10.58-256.24-10.58-3.29,6.93-64.29,121.76-19.12,373.06,0,0,170.06,45.17,321.12-8.48l-7.29-98.82C886.18,1051.59,856.18,958.76,856.18,958.76Z"/><path class="d" d="M604.16,1198c36.14-1.75,142.54-10.13,258.33-49.75a2.64,2.64,0,0,1,2.48,4.57c-22.05,17.12-74,51.63-135.5,52.69,0,0,84.08,18.56,120.67,23a1.87,1.87,0,0,1,.13,3.69c-31.33,6.07-122.34,16.7-246.88-29.13A2.64,2.64,0,0,1,604.16,1198Z"/><path class="d" d="M668.78,1249.82c23.88,2.38,117.05,11,158.52,5.14a1.65,1.65,0,0,1,1.08,3.06c-21.86,13.19-91.73,47.29-160.78-5.25A1.65,1.65,0,0,1,668.78,1249.82Z"/><path class="c" d="M569.94,1059.35s5.65-61.41,21.88-88.94l60,22.59-11.29,55.06Z"/><path class="e" d="M565.71,1035.65s41.29,5,48.7-4.53l12-53.65,15.53,7.77s-10.23,52.23-14.47,60.7-64.59,9.47-64.59,9.47S559.18,1042,565.71,1035.65Z"/><path class="f" d="M716.86,991.39c-.92,27.54-2.84,87.21-3.44,119.48,0,0,8.29,11.78,8.29,15.54,0,0,1,1.77,10.58.71l9.89-13.77,2.43-121.81Q730.78,992,716.86,991.39Z"/><path class="e" d="M818.41,992.29s7.53,47.3,12.47,51.53,49.36,22.42,49.36,22.42,0-15.53-5-21.18l-32.88-13.24-9.17-46.58S820.22,985.61,818.41,992.29Z"/><path class="e" d="M743.87,1339l-11.58-211.84-10.58-.71,11,212.61Q738.22,1339,743.87,1339Z"/><path class="f" d="M863.35,985.47c-5.61-24.29-7.17-26.71-7.17-26.71-120.71,49.77-256.24-10.58-256.24-10.58-1,2.17-2.91,2.9-10.23,27.17C617.1,986.73,732.29,1032.88,863.35,985.47Z"/><path class="d" d="M675,1115.91c-.66-7.5,0-14.87.79-22.24-31.28-9.15-85.22-8.8-85.22-8.8l-.79,19.27c14.17,6.34,25.2,17.21,39.48,22.71C644.24,1123.38,659.34,1118.45,675,1115.91Z"/><path class="f" d="M675.83,1093.67c-.79,7.37-1.45,14.74-.79,22.24-15.7,2.54-30.8,7.47-45.74,10.94-14.28-5.5-25.31-16.37-39.48-22.71l-.21,5.08,39.45,23.53,50.05-13.83,2.34-23.41C679.68,1094.85,677.79,1094.24,675.83,1093.67Z"/><circle class="e" cx="631.03" cy="1109.54" r="7.41"/><path class="e" d="M741.25,997.71c-2.62,0-4.27-.05-4.79-.06-82.13.3-141.68-31-144.17-32.36l4.72-8.82c.71.38,59.39,31.18,138.2,31.18h1.49c.61,0,60.27,2.79,121-19.86l3.5,9.37C807.88,997,757.33,997.71,741.25,997.71Zm-146.6-36.83,2.35-4.41h0Z"/><path class="d" d="M630.77,959.34c-2.07,7.8-4.55,20.06-6.22,28.73,5.19,1.63,10.81,3.28,16.83,4.88l5.39-29C641,962.43,635.63,960.86,630.77,959.34Z"/><path class="d" d="M829.93,967.85q-8,2.26-15.95,4l4.82,26.46q8.21-1.78,16.52-4Z"/><rect class="g" x="713.24" y="983.82" width="36" height="16.94" rx="8.47" transform="translate(42.74 -30.12) rotate(2.43)"/></g><rect class="a" width="1262" height="2195"/></svg>