<svg xmlns="http://www.w3.org/2000/svg" xmlns:xlink="http://www.w3.org/1999/xlink" width="1262.35" height="2195.18" viewBox="0 0 1262.35 2195.18"><defs><style>.a{fill:none;}.b{clip-path:url(#a);}.c{fill:#ff6b6b;}.d{fill:#d85151;}.e{fill:#404040;}.f{fill:#469bb3;}</style><clipPath id="a" transform="translate(528.53 948.53)"><path class="a" d="M335.53,37c-1.61-.32-2.54-.55-2.54-.55s-35.47,33.05-39.84,24.79,34.5-39.37,34.5-41.31-2.92-3.4-2.92-3.4l-14.09,5.83s-28.19,35-34.5,27.7c-4.18-4.82,6.94-18.35,15.1-27.53-3.24.77-6.47,1.47-9.7,2.12a101.06,101.06,0,0,1-12.69,11.32c-6.74,4.76-13,5.13-13.61,2.43-.44-1.9,1.41-5.73,4.31-10.26q-7.78.91-15.49,1.43h0C152.64,35.64,72.1,0,72,0,52,42.08,18.17,84.63,0,257.29c127,51.9,276.11,59.62,396,0C344,67.43,350.2,90,335.53,37Z"/></clipPath></defs><title>skrits A</title><g class="b"><rect class="a" width="1262.35" height="2195.18"/><path class="c" d="M62.37,21.72S19.06,76.24,0,257.29c0,0,206.47,94.24,396,0L334.86,34.15S205.41,69.88,62.37,21.72Z" transform="translate(528.53 948.53)"/><path class="d" d="M337.71,44.58l-2.85-10.43S205.41,69.88,62.37,21.72c0,0-3.3,4.17-8.48,14C84.14,49.06,224.12,102,337.71,44.58Z" transform="translate(528.53 948.53)"/><path class="d" d="M.86,249.37C.57,252,.28,254.62,0,257.29c0,0,206.47,94.24,396,0l-1.77-6.47C204.27,332.49,41.4,268.23.86,249.37Z" transform="translate(528.53 948.53)"/><path class="a" d="M323.54,45.65l13.28,49.72,10-17.71L334.86,34.15S205.41,69.88,62.37,21.72c0,0-10.57,13.32-23.56,48.61L51,99.49c10.59-38.93,20-65,20.23-65.56l9.39,3.43c-.46,1.25-43.78,121-48.69,232.07,61.63,20.79,203.17,55.71,340.67-1.46L313.88,48.23Z" transform="translate(528.53 948.53)"/><path class="a" d="M33.88,84.49C21.75,121.29,8.48,176.77,0,257.29c0,0,7.91,3.61,22.05,8.71,2.66-53,13.74-107.66,24.71-150.59Z" transform="translate(528.53 948.53)"/><path class="a" d="M381.84,264q7.1-3.17,14.16-6.68L350.54,91.38l-10,17.82Z" transform="translate(528.53 948.53)"/><path class="d" d="M71.19,33.93C71,34.51,61.55,60.56,51,99.49L38.81,70.33q-2.41,6.56-4.93,14.16l12.88,30.92c-11,42.93-22,97.56-24.71,150.59,3,1.09,6.29,2.24,9.84,3.43C36.8,158.36,80.12,38.61,80.58,37.36Z" transform="translate(528.53 948.53)"/><path class="d" d="M340.51,109.2l10-17.82-3.76-13.72-10,17.71L323.54,45.65l-9.66,2.58L372.56,268q4.65-1.94,9.28-4Z" transform="translate(528.53 948.53)"/><path class="e" d="M334.86,34.15c-4-16-6.62-23.56-6.62-23.56C207.53,60.35,72,0,72,0c-3.29,6.93-6.54,14.14-9.63,21.72C95.49,37,214.41,83.82,334.86,34.15Z" transform="translate(528.53 948.53)"/><path class="f" d="M184.61,28.22c-.65,8.76-1.87,17.42-3,26.1a341,341,0,0,0,62.47,1.14V29.54A347.83,347.83,0,0,1,184.61,28.22Z" transform="translate(528.53 948.53)"/></g></svg>