<?xml version="1.0" encoding="utf-8"?>
<!-- Generator: Adobe Illustrator 24.0.1, SVG Export Plug-In . SVG Version: 6.00 Build 0)  -->
<svg version="1.1" id="Layer_1" xmlns="http://www.w3.org/2000/svg" xmlns:xlink="http://www.w3.org/1999/xlink" x="0px" y="0px"
	 viewBox="0 0 1262.3 2193.9" style="enable-background:new 0 0 1262.3 2193.9;" xml:space="preserve">
<style type="text/css">
	.st0{fill:#222229;}
	.st1{fill:#A052D1;}
	.st2{fill:url(#SVGID_1_);}
	.st3{fill:url(#SVGID_2_);}
	.st4{fill:#444452;}
	.st5{fill:url(#SVGID_3_);}
	.st6{fill:#4A4A59;}
	.st7{fill:url(#SVGID_4_);}
	.st8{fill:#FFFFFF;}
	.st9{fill:#3F3F3F;}
	.st10{fill:#1C110D;}
	.st11{fill:#F2BC9D;}
	.st12{fill:#DB9E7B;}
	.st13{fill:#2B3584;}
	.st14{fill:url(#SVGID_5_);}
	.st15{fill:#1E2759;}
	.st16{fill:url(#SVGID_6_);}
	.st17{fill:url(#SVGID_7_);}
	.st18{fill:url(#SVGID_8_);}
	.st19{clip-path:url(#SVGID_10_);}
	.st20{fill:url(#SVGID_11_);}
	.st21{fill:url(#SVGID_12_);}
	.st22{fill:url(#SVGID_13_);}
	.st23{fill:url(#SVGID_14_);}
	.st24{fill:url(#SVGID_15_);}
	.st25{fill:#F3BD9E;}
	.st26{fill:#C9865F;}
	.st27{fill:#CF5363;}
	.st28{fill:#B33848;}
	.st29{fill:#A25B32;}
	.st30{fill:#8C5536;}
	.st31{clip-path:url(#SVGID_17_);}
	.st32{fill:#3B201D;}
	.st33{clip-path:url(#SVGID_19_);}
	.st34{fill:#2F1B1A;}
	.st35{fill:#3D2422;}
	.st36{fill:#796866;}
	.st37{fill:#776665;}
	.st38{fill:#6D4845;}
	.st39{fill:#6C4845;}
	.st40{fill:#4A2E2B;}
	.st41{fill:#492D2B;}
	.st42{fill:#603E3B;}
	.st43{fill:#62403D;}
	.st44{fill:#5F3E3B;}
	.st45{clip-path:url(#SVGID_21_);}
	.st46{fill:none;}
	.st47{fill:url(#SVGID_22_);}
	.st48{display:none;fill:#2B3584;}
	.st49{display:none;fill:#FFFFFF;}
	.st50{opacity:0.21;fill:#2B3584;enable-background:new    ;}
	.st51{opacity:0.65;fill:#2B3584;enable-background:new    ;}
	.st52{opacity:0.56;fill:#2B3584;enable-background:new    ;}
	.st53{fill:url(#SVGID_23_);}
	.st54{fill:url(#SVGID_24_);}
</style>
<g id="Driver">
	<g>
		<path class="st0" d="M262.6,1929.9c-4.6-1-9.4-1.2-14.1-0.7l-2.8,141.6c0,0,6,3.8,11.1-2.3
			C258.3,2066.9,260.3,2010.8,262.6,1929.9z"/>
		<path class="st0" d="M249.7,1871l-0.7,35c4.9-0.6,9.8,0.3,14.2,2.5c0.3-12.1,0.7-24.7,1-37.6
			C259.4,1869.9,254.5,1869.9,249.7,1871z"/>
		<path class="st1" d="M264.8,1847c-4.9-0.4-9.8-0.5-14.6-0.3l-0.5,24.3c4.8-1,9.7-1.1,14.5-0.1C264.4,1863,264.6,1855.1,264.8,1847
			z"/>
		
			<linearGradient id="SVGID_1_" gradientUnits="userSpaceOnUse" x1="259.1104" y1="348.6369" x2="259.1104" y2="882.4234" gradientTransform="matrix(0.9979 6.455995e-02 6.455995e-02 -0.9979 -35.5466 2177.481)">
			<stop  offset="0" style="stop-color:#46E4E8"/>
			<stop  offset="1" style="stop-color:#FB12FE"/>
		</linearGradient>
		<path class="st2" d="M260.8,1313.3l-10.7,533.3c4.9-0.2,9.8-0.1,14.6,0.3c5.6-222.8,11.6-533.5,11.6-533.5L260.8,1313.3z"/>
		
			<linearGradient id="SVGID_2_" gradientUnits="userSpaceOnUse" x1="266.3639" y1="277.9623" x2="281.5491" y2="277.9623" gradientTransform="matrix(0.9979 6.455995e-02 6.455995e-02 -0.9979 -35.5466 2177.481)">
			<stop  offset="0" style="stop-color:#46E4E8"/>
			<stop  offset="1" style="stop-color:#FB12FE"/>
		</linearGradient>
		<path class="st3" d="M263.2,1908.4c-4.4-2.2-9.3-3.1-14.2-2.5l-0.4,23.3c4.7-0.5,9.5-0.3,14.1,0.7
			C262.8,1923,263,1915.8,263.2,1908.4z"/>
		<path class="st0" d="M293,1274.1l-16.6,39.4l-15.6-0.2l-13.2-41v-0.3C262.3,1266.5,279,1267.8,293,1274.1z"/>
		<path class="st4" d="M253.9,1276.1l9.9,32.7l5.4-0.7l1.3-34.2C261.8,1272.5,253.9,1276.1,253.9,1276.1z"/>
		<path class="st0" d="M256.9,2068.5c0,0-12.4,31.8-72.9,45.5c-52.5,11.9-84.1-14.1-95.4-35.8c-20.6-39.9-16.5-107.3,54-128.5
			s116.9,81.4,116.9,81.4L256.9,2068.5z"/>
		
			<linearGradient id="SVGID_3_" gradientUnits="userSpaceOnUse" x1="158.1313" y1="157.248" x2="284.9845" y2="157.248" gradientTransform="matrix(0.9979 6.455995e-02 6.455995e-02 -0.9979 -35.5466 2177.481)">
			<stop  offset="0" style="stop-color:#46E4E8"/>
			<stop  offset="1" style="stop-color:#FB12FE"/>
		</linearGradient>
		<path class="st5" d="M259.5,2031.1l-2.7,37.4c0,0-9.3,24.3-48.8,38.8h-0.3c-14.7,2.5-29.8-1.4-41.4-10.6
			c-21.8-17.1-32.1-39.7-33.4-58.4c-2.1-31,8.3-50,24-63.5c22.2-19.2,42.7-15.1,56.8-4.3C243.7,1995.5,259.5,2031.1,259.5,2031.1z"
			/>
		<path class="st0" d="M160.4,2007.4c0.5-1.8,2.4-2.8,4.1-2.3c17.2,5,60.5,18.2,83.1,30.2c1,0.5,1.7,1.5,1.8,2.7l0,0
			c0,0.4,0,0.8-0.1,1.1c-0.5,1.8-2.3,2.9-4.1,2.4c-24.8-6.4-67.7-13.3-84.7-15.9c-1.7-0.3-3-1.9-2.8-3.6
			C158.2,2017.1,159.1,2012.2,160.4,2007.4C160.4,2007.5,160.4,2007.4,160.4,2007.4z"/>
		<path class="st0" d="M161.7,2060.7c-1.4-4.8-2.5-9.7-3.3-14.7c0-0.2-0.1-0.5,0-0.7c0.1-1.7,1.5-2.9,3.2-2.8l85.9,3.7
			c1.5,0,2.8,1.2,2.9,2.8l0,0c0.2,1.6-1,3.1-2.6,3.3l-82.7,10.7C163.6,2063.1,162.1,2062.1,161.7,2060.7z"/>
		<path class="st0" d="M170.1,2088.2c-0.7-2.2-1.6-5.4-2.5-8.7c-0.5-1.9,0.5-3.9,2.2-4.1c17.8-2.3,51.5-7.7,78-19.1
			c1.6-0.7,3.4,0.7,3.6,2.8l0,0c0.2,1.3-0.4,2.5-1.5,3.2c-17.6,9.3-55.6,26.6-77,28.2C171.5,2090.4,170.4,2089.5,170.1,2088.2z"/>
		<path class="st0" d="M248.2,2025.3L248.2,2025.3c0.1,0.7-0.1,1.3-0.5,1.9c-0.9,1.2-2.6,1.4-3.8,0.5
			c-25.8-19.4-56.8-31.9-71.4-37.2c-0.2-0.1-0.4-0.2-0.5-0.3c-1.2-0.8-1.6-2.5-0.8-3.7c1.8-2.8,3.8-5.4,6-7.8
			c0.7-0.8,1.7-1.1,2.7-0.8c6.5,1.9,32.9,11.2,67.5,45.7C247.9,2024.1,248.2,2024.7,248.2,2025.3z"/>
		<path class="st6" d="M179.9,1955c-53.5,12.8-54.2,66.6-54.2,66.6c-22.4,3.2-41.9,16.1-41.9,16.1
			C91.7,1942.2,179.8,1955,179.9,1955z"/>
		
			<linearGradient id="SVGID_4_" gradientUnits="userSpaceOnUse" x1="223.3029" y1="945.5397" x2="269.5619" y2="945.5397" gradientTransform="matrix(0.9979 6.455995e-02 6.455995e-02 -0.9979 -35.5466 2177.481)">
			<stop  offset="0" style="stop-color:#46E4E8"/>
			<stop  offset="1" style="stop-color:#FB12FE"/>
		</linearGradient>
		<path class="st7" d="M293.9,1260.5l1.1-17.7c-11.3-7.3-31.5-3-43.4-2c-0.9,0.1-1.9,0.2-2.8,0.3l-0.7,18.9
			C262,1252.5,281.5,1251.2,293.9,1260.5z"/>
		<path class="st8" d="M248.1,1260l-0.5,12.1c14.7-5.6,31.3-4.3,45.3,2.1l0.9-13.7C281.5,1251.2,262,1252.5,248.1,1260z"/>
		<path class="st9" d="M249.9,1211.1l-1.1,30c0.9-0.2,1.9-0.3,2.8-0.3c11.9-1,32.1-5.3,43.4,2l6.4-100l-2.2,23.9
			C287.3,1185.9,270.8,1204.5,249.9,1211.1z"/>
		<path class="st10" d="M299.1,1166.7l2.2-23.9c-0.2-0.4-26,32.9-26.1,32.6c-3.3,4.6-9.3,11-14.4,5.1c-4.7-5.5,3-17.2,9.4-30.5
			c-4.5,8.1-10.7,13.6-18.3,24.2l-2.1,37l0,0C270.8,1204.5,287.3,1185.9,299.1,1166.7z"/>
	</g>
</g>
<g id="Body">
	<title>girl body B</title>
	<path class="st11" d="M522.2,641.2c0,0,52.9,101.6,57.2,115.4s-6.3,43.4-29.6,76.2c-14.5,20.5-42.9,66.7-58.2,124.9
		c-9.2,34.9-11.5,74.6-9.5,114.4c5.3,153.5,19.1,277.4,31.8,382.2c-38.9,70.5-43.5,247.7-19,481.8c0,0-25.4,87.9-30.7,118.6
		c0,0-25.4,41.3-18,52.9c0,0,4.2,7.4,12.7,3.2c0,0,4.2,14.8,18,8.5c0,0,7.4,16.9,20.1,5.3c0,0,16.9,9.5,24.4-3.2
		c0,0,29.6,15.9,28.6-49.8c0,0,18-23.3,11.7-47.6s-16.9-82.6-16.9-82.6s12.1-141.4,21.2-273.2c7.2-103.6,13.2-200.8,5.3-221.3
		c0,0,63.5-346.2,68.8-378c0,0,98.5,352.6,107,397.1c-13.8,41.3-27.5,109.1,18,222.3c19.2,47.9,58.2,217.1,67.8,268.9
		c0,0-32.8,78.4-6.3,98.5c26.5,20.1,40.2,7.4,54,23.3c7.8,9,25.2,28.3,44.5,38.1c14.6,7.4,31.1,8.1,40.2,2.1c0,0,30.7,8.5,25.4-2.1
		c0,0,20.1,5.3,18-2.1c0,0,14.8,2.1,9.5-7.4s-60.3-48.7-67.8-54c0,0-50.8-96.4-60.3-103.8c0,0-17.3-70.5-30.7-153.5
		c-21.4-132.9-44.6-319.8-44.5-320.8c5.3-36-2.1-418.2-42.3-527.3S726,783,726,783l43.4-173.7c0,0,97.4,136.6,110.1,159.9
		c0,0-32.9,27.4-61.3,88.1c-5.7,12.4-13.2,23.9-22.1,34.2c-1.2,1.4,8.3,36.5,30.5,25.9s120.7-122.8,119.6-141.9
		c-1.9-5.5-45.7-73.8-83.6-141.9c-37.1-66.6-68.4-132.9-77.3-138.7c-5.4-6.6-90-25.4-119.6-33.9c0,0,0.7-40,0-51.9
		c-1.1-19.1-16.7-26.6-32.6-23.4s-24.3,8.6-25.4,31.9l1.9,46.6c0,0-97.4,26.5-114.3,30.7s-33.9,37.1-42.4,98.5
		s-43.4,235.1-43.4,235.1s-47.6,91.1-75.2,272.1c0,0-47.7,33.4-73.1,51c-8.7,6-14.9,15.1-17.2,25.5c-1.8,7.9-4,17.2-6,24.3
		c-1.9,6.6-1.1,13.7,2.2,19.8c7,12.9,18.8,33.1,23.2,30.9c6.4-3.2-7.4-30.7-11.6-40.2l10.6-29.7l29.6-20.1c0,0,6.4,4.2,1.1,10.6
		s-37.1,25.4-31.8,37.1c0,0,2.1,6.4,15.9-3.2s43.4-24.4,60.4-29.7s28.6-59.3,28.6-59.3S480.9,893.3,461.8,834L522.2,641.2z"/>
	<path class="st12" d="M606.6,501.4c39,11.9,79.4,0,107.3-27.6c-19.2-4.8-37.8-9.4-48.7-12.5c0,0,0.7-40,0-51.9
		c-1.1-19.1-16.7-26.6-32.6-23.4s-24.3,8.6-25.4,31.9l1.9,46.6c0,0-18.1,4.9-40.1,10.9C578.3,487.8,591.5,497,606.6,501.4z"/>
	<path class="st11" d="M795.3,893.6c0,0-21.9-13.1-32.6-19c0,0-9.2-19.4-11.2-22.3s-10.7-1-18.5,3.9s-37.9,21.4-35.5,30.6
		s45.2-18,45.2-18L750,883c0,0-28.1,14-30.1,16c-3.8,3.8-27.7,31.6-26.2,37.9c0.6,2.7,6.9,2.3,13.6-2.4c9-6.4,19.7-19,27.2-26.7
		L754,899l1.5,1.9c0,0-17.5,9.2-18,11.2s-29.2,29.2-22.8,36.5s34.5-27.7,34.5-27.7l14.1-5.9c0,0,2.9,1.5,2.9,3.4s-38.9,33-34.5,41.3
		s39.9-24.7,39.9-24.7s49.8,12.3,54-19C827.9,897.5,795.3,893.6,795.3,893.6z"/>
	<path class="st12" d="M755.1,896.1l-19.8,5.7l-37.5,36.8c3.5-0.5,6.7-1.9,9.5-4.1c9-6.4,19.7-19,27.2-26.7L754,899l1.4,1.9l2.5-1.3
		L755.1,896.1z"/>
	<path class="st12" d="M767.1,910.2l-20.5,7.1c-5.7,7-32,31.3-32,31.3c6.3,7.3,34.5-27.7,34.5-27.7l14.1-5.9c0,0,2.9,1.5,2.9,3.4
		l4.5-3.3L767.1,910.2z"/>
	<path class="st12" d="M772.1,929.9c-11.7,12.1-25.4,22.1-40.4,29.8c4.4,8.3,39.9-24.7,39.9-24.7s32.5,8,47.2-5.3
		C800.6,939.1,772.1,929.9,772.1,929.9z"/>
	<path class="st12" d="M742.8,868.9l7.1,13.7l3.8-1.3l-10.6-17.7c-6.5,3.8-33.4,17.8-45.2,23.9C702.3,894.7,742.8,868.9,742.8,868.9
		z"/>
	<path class="st12" d="M921.5,785c-4.1,2.8-10.7,10.2-8.6,16.1c1.2,3.3,5.5,3.8,8.7,2.5c2.8-1.1,5.1-4.5,7.6-7
		c4.4-4.4,7.9-8.7,5.7-12.4C934.8,784.2,930.9,778.5,921.5,785z"/>
	<path class="st12" d="M417.3,843.7c-4.7,12,0,18.9,6.1,17c4-1.2,10.3-8.4,12.4-13c5.2-11.3,2.9-17.7-1.4-19.6
		C434.4,828.1,425.8,822.1,417.3,843.7z"/>
	<path class="st12" d="M591,1008.7c0,0,63.5,9.5,103.8-1.1l-52.9,64.6L591,1008.7z"/>
	<path class="st12" d="M547.6,667.4c0,0,13.4,35.8,24.6,42.5c2.8,1.7,8.7,1.5,15.9,0.4c35.9-5.8,72.5-6.5,108.6-2
		c8.2,1,15.7,1.1,20.9-0.6c20.1-6.7,31.3-53.7,31.3-53.7S688.5,707.6,547.6,667.4z"/>
	<path class="st12" d="M525.5,1461.7c5.2,2.1,14,3.7,25.5-1.3c1.2-0.5,2.6,0,3.1,1.2c0.3,0.7,0.2,1.6-0.2,2.2
		c-6.9,10.3-20.8,25.1-31.4,0.9c-0.5-1.2,0.1-2.6,1.2-3.1C524.2,1461.4,524.9,1461.4,525.5,1461.7z"/>
	<path class="st12" d="M773.2,1476.7c10,2.9,20.5,3,30.6,0.3c1.5-0.4,3.1,0.5,3.5,2c0.2,0.9,0,1.8-0.5,2.5
		c-6.6,8.6-20.1,19.8-36.6-0.3c-1-1.2-0.8-3,0.4-4C771.3,1476.7,772.3,1476.5,773.2,1476.7z"/>
	<path class="st12" d="M844.3,2018.2c2.4,8.1,6.5,15.5,12,21.9c1,1.2,0.9,2.9-0.3,4c-0.8,0.7-1.9,0.9-2.8,0.5
		c-9-3.3-19.7-10.6-14.3-26.4c0.5-1.5,2.1-2.3,3.6-1.8C843.3,2016.7,844,2017.3,844.3,2018.2z"/>
	<path class="st12" d="M547.2,1975.9c4.2,7.8,8.8,20.3,0.6,28.6c-0.5,0.5-1.3,0.5-1.8,0c-0.3-0.3-0.4-0.7-0.3-1.1
		c1-4.7,2-13.6-0.8-26.5c-0.2-0.7,0.3-1.4,0.9-1.5C546.4,1975.1,547,1975.4,547.2,1975.9z"/>
	<path class="st12" d="M940.2,2098.5c6.3,8.6,16.3,13.6,20.8,22.2c1-0.5,1.9-1,2.7-1.7c4.3,0.9,8.7,1.5,13,1.9
		C965.8,2110.5,954.2,2104,940.2,2098.5z"/>
	<path class="st12" d="M990.1,2095.3c6.1,6.1,15.2,9.4,20.5,16.7c1.3-0.1,2.5-0.4,3.7-0.8C1007.7,2104.3,998.3,2099.4,990.1,2095.3z
		"/>
	<path class="st12" d="M466.3,2089.3c-8.9,4.3-11.5,14.1-14.9,22.5c2.3,0.4,4.7,0,6.7-1.1c0.5,1.6,1.2,3.2,2.1,4.6
		C459.6,2106.4,462.4,2096.9,466.3,2089.3z"/>
	<path class="st12" d="M498.2,2097.6c0,2-2,3-2,4c-1.4,8-0.6,16-0.8,24c0.3-0.2,0.5-0.4,0.8-0.7c1,0.6,2.1,1.1,3.2,1.5
		C497.5,2116.9,497.5,2107.1,498.2,2097.6z"/>
	<path class="st12" d="M483.3,2090.4c-7.1,8.4-9.3,19.3-11.1,30.2c1.3-0.3,2.6-0.7,3.9-1.3c1,2.1,2.2,4,3.8,5.7
		C477.6,2113.5,481,2101.4,483.3,2090.4z"/>
	<path class="st12" d="M520.1,2122.5l0.4-0.6c1.8,0.9,3.7,1.4,5.7,1.7c-2.6-10.4-4-21-3.9-31.8
		C517.4,2100.4,519.4,2112,520.1,2122.5z"/>
	<path class="st12" d="M968.1,2095.7c10.1,4.3,17.9,13.4,21.3,23.1c0.5-0.9,0.5-2-0.4-3.5c3.5,0.7,7.1,1,10.7,1.1
		C990.4,2107.1,981.3,2097.5,968.1,2095.7z"/>
</g>
<g id="Shoes_1_">
	<polygon class="st13" points="450.4,2116.2 454,2134.6 462.4,2124 	"/>
	<polygon class="st13" points="478.7,2126.8 482.2,2145.2 490.7,2134.6 	"/>
	<polygon class="st13" points="507,2126.6 516.5,2142.6 520.9,2129.8 	"/>
	<polygon class="st13" points="548.4,2106.3 545,2124.7 536.5,2114.2 	"/>
	<polygon class="st13" points="564.1,2054.8 562,2073.9 554.2,2063.3 	"/>
	<path class="st10" d="M550.4,2065c0,0,10-17.4,14.3-31.4c-0.9-54-20.3-92.4-20.3-92.4c0.7,7.1-13.4,36.7-13.4,36.7
		s-3.2,53.3-8.8,68.1C522.2,2045.9,535.6,2048.8,550.4,2065z"/>
	<path class="st10" d="M484.1,2043.1l13.8-68.1c-3.5-16.2-3.5-39.2-3.5-39.2c-16.2,38.8-29.3,110.1-29.3,110.1
		S474.9,2042.4,484.1,2043.1z"/>
	
		<linearGradient id="SVGID_5_" gradientUnits="userSpaceOnUse" x1="442.1566" y1="108.3715" x2="564.7393" y2="108.3715" gradientTransform="matrix(1 0 0 -1 0 2193.9399)">
		<stop  offset="0" style="stop-color:#46E4E8"/>
		<stop  offset="1" style="stop-color:#FB12FE"/>
	</linearGradient>
	<path class="st14" d="M550.4,2065c-3.5,48.7-37.7,65.8-67.8,60.7c-24.8-4.2-35.3-19.2-39.8-30.6c-0.1,5.9-1.9,11.7,1,17.2
		c6.1,11.6,21.1,20.8,35.3,24c20.3,4.6,52.9-4.2,62.1-16.9c16.4-22.7,13.4-48,13.4-48c3.5-4.9,9.9-23.3,9.9-23.3
		c0.2-4.9,0.3-9.8,0.2-14.5C560.4,2047.6,550.4,2065,550.4,2065z"/>
	<path class="st15" d="M482.7,2125.7c30,5.1,64.2-12,67.8-60.7c-14.8-16.2-28.2-19.1-28.2-19.1s-27.5-3.5-38.1-2.8
		c-9.2-0.7-19.1,2.8-19.1,2.8s-21.6,24.8-22.2,49.2C447.3,2106.5,457.8,2121.5,482.7,2125.7z"/>
	
		<linearGradient id="SVGID_6_" gradientUnits="userSpaceOnUse" x1="484.06" y1="184.7224" x2="531" y2="184.7224" gradientTransform="matrix(1 0 0 -1 0 2193.9399)">
		<stop  offset="0" style="stop-color:#46E4E8"/>
		<stop  offset="1" style="stop-color:#FB12FE"/>
	</linearGradient>
	<path class="st16" d="M522.2,2045.9c5.6-14.8,8.8-68.1,8.8-68.1c-18.7-9.9-33.2-2.8-33.2-2.8l-13.8,68.1
		C494.7,2042.4,522.2,2045.9,522.2,2045.9z"/>
	<path class="st8" d="M522.2,2047.9c-0.4,0-0.8-0.1-1.1-0.4c-0.2-0.2-22.5-15.4-35.5-19.5c-0.7-0.2-1.3-0.9-1.4-1.7
		c-0.1-0.8,0.3-1.6,1-1.9c2.8-1.7,24.3-14.4,38.4-16.5c-10.5-7-24-15.1-28.9-15.1c-1.1,0-2-0.9-1.9-2.1c0-0.7,0.4-1.3,0.9-1.6
		c0.8-0.5,19-11.6,37.2-13.3c1.1-0.1,2.1,0.7,2.2,1.8c0.1,1.1-0.7,2.1-1.8,2.2c-12.2,1.2-24.7,7-31.1,10.3c10.9,4,28.7,16.5,31,18.2
		c0.9,0.6,1.1,1.9,0.5,2.8c-0.5,0.7-1.3,1-2.1,0.8c-8.1-1.9-28.1,8-38.6,13.9c13.5,5.5,31.6,17.9,32.4,18.5c0.9,0.6,1.1,1.9,0.5,2.8
		C523.5,2047.7,522.9,2048,522.2,2047.9z"/>
	<path class="st8" d="M481.9,2045.8c-1.1,0-2-0.9-2-2c0-0.7,0.4-1.3,0.9-1.7c1-0.6,21.8-13.4,39.6-15.6
		c-13.1-9.1-26.4-17.7-28.7-18.2c-1.1-0.1-2-1-1.9-2.1c0-0.7,0.4-1.3,1.1-1.7c2.6-1.4,21.9-11.4,33.5-14.3
		c-7.5-4.3-21.2-11.7-27.2-13.4c-1.1-0.3-1.7-1.4-1.4-2.5c0.3-1.1,1.4-1.7,2.5-1.4l0,0c9,2.5,32.3,16.2,33.3,16.8
		c1,0.5,1.3,1.8,0.7,2.7c-0.4,0.7-1.3,1.1-2.1,1c-4.7-0.8-21.8,6.7-33.8,12.7c7.6,4.1,21.9,13.9,31.1,20.4c0.9,0.6,1.1,1.9,0.5,2.8
		c-0.4,0.5-1,0.9-1.7,0.8c-17.5-0.6-43.1,15.1-43.3,15.2C482.7,2045.7,482.3,2045.8,481.9,2045.8z"/>
	<polygon class="st13" points="811.5,2054.8 815,2073.2 823.5,2062.6 	"/>
	<polygon class="st13" points="842.2,2073.9 845.7,2092.2 854.2,2081.6 	"/>
	<polygon class="st13" points="882.4,2091.9 886,2110.2 894.4,2099.6 	"/>
	<polygon class="st13" points="919.5,2110.9 923,2129.3 931.5,2118.7 	"/>
	<polygon class="st13" points="1015.6,2116.2 1013.5,2135.2 1005.7,2124.6 	"/>
	<polygon class="st13" points="975.3,2117.2 973.2,2136.3 965.5,2125.7 	"/>
	
		<linearGradient id="SVGID_7_" gradientUnits="userSpaceOnUse" x1="807.1889" y1="110.8623" x2="1021.275" y2="110.8623" gradientTransform="matrix(1 0 0 -1 0 2193.9399)">
		<stop  offset="0" style="stop-color:#46E4E8"/>
		<stop  offset="1" style="stop-color:#FB12FE"/>
	</linearGradient>
	<path class="st17" d="M809.5,2039.1c0,0-5.2,11.8,0,16.9s19.3,23.1,53.2,25.4c0,0,41.9,47.5,125.6,45.6c10.7-0.2,27.3-2.4,32.5-8.5
		c0,0,1.9-7.1-1.9-10.8L809.5,2039.1z"/>
	
		<linearGradient id="SVGID_8_" gradientUnits="userSpaceOnUse" x1="870.2" y1="171.502" x2="942.1" y2="171.502" gradientTransform="matrix(1 0 0 -1 0 2193.9399)">
		<stop  offset="0" style="stop-color:#46E4E8"/>
		<stop  offset="1" style="stop-color:#FB12FE"/>
	</linearGradient>
	<path class="st18" d="M870.2,2000.5c0,0,15.8-26.1,41.7-18.1c0,0,9.9,10.6,30.2,54.1l-34.7,27.5L870.2,2000.5z"/>
	<path class="st10" d="M830.2,1956.8c-23.1,40.5-20.7,82.4-20.7,82.4c16.5,19.3,55.1,28.7,55.1,28.7c0.8,1,13,10.8,29.8,20.6
		c1.4-15.5,11-29.1,13.2-32C867.4,1973.6,830.2,1956.8,830.2,1956.8z"/>
	<path class="st15" d="M942.1,2036.5c-17.9,0.9-34.4,20.1-34.5,19.9c-2.1,2.9-11.7,16.5-13.2,32c10.6,6.1,23,12.3,35.6,16.2
		c59.3,18.4,88.9,3.3,88.9,3.3C1005.2,2071.6,942.1,2036.5,942.1,2036.5z"/>
	<path class="st8" d="M907.5,2058.4c-0.3,0-0.6-0.1-0.9-0.2c-1-0.5-1.4-1.7-0.9-2.7c0.5-1.1,11.4-22.4,23.1-32
		c-10.8,0.4-29.9,1.5-36,3.9c-1,0.4-2.2-0.1-2.6-1.1c-0.3-0.7-0.1-1.4,0.3-2c2.9-3.5,14.7-17.6,24.3-24.2
		c-10.8-0.7-29.7-1.8-41.7-0.8c-1.1,0.1-2.1-0.7-2.2-1.8c-0.1-1.1,0.7-2.1,1.8-2.2c17.6-1.4,49.1,1.3,50.5,1.4
		c1.1,0.1,1.9,1.1,1.8,2.2l0,0c-0.1,1.1-1.1,1.9-2.2,1.8h-0.2c-4.6,0-16.3,11.3-25.2,21.4c13.3-2.3,37.7-2.8,38.9-2.8
		c1.1,0,2,0.9,2,2c0,0.9-0.5,1.6-1.4,1.9c-10.3,3.3-23.6,25.8-27.8,34.1C909,2058,908.3,2058.4,907.5,2058.4z"/>
	<path class="st8" d="M899.8,2041.6c-0.4,0-0.8-0.1-1.2-0.4c-0.5-0.3-0.8-0.9-0.8-1.4c-0.6-7.1,17.1-20.8,27-27.8
		c-8.2-0.3-25.7,0.4-41.8,1.4c-0.6,0-1.1-0.2-1.5-0.5c-0.4-0.4-0.6-0.9-0.6-1.5c0-9,24.8-27,29.8-30.6c1-0.5,2.2-0.2,2.7,0.8
		c0.5,0.8,0.3,1.8-0.4,2.5c-10.3,7.3-24.3,19-27.4,25.1c12.5-0.8,41.5-2.3,45.5-0.3c1,0.5,1.4,1.7,0.9,2.7c-0.2,0.3-0.4,0.6-0.7,0.8
		c-12.3,8.4-25.2,19.1-28.6,24.6c8.3-1.7,29.8-5.5,40-2.3c1.1,0.3,1.6,1.5,1.3,2.5c-0.3,1.1-1.5,1.6-2.5,1.3
		c-11.5-3.6-40.9,3-41.2,3.1C900.2,2041.6,900,2041.6,899.8,2041.6z"/>
	<path class="st13" d="M983.6,2104.6c10-11.8,6.7-23.8,0-34.4c10.7,9.1,21,19.6,26.9,30.4c0.9,1.7,0.3,3.9-1.4,4.9
		c-0.3,0.1-0.5,0.2-0.8,0.3c-7.9,2-16,2.9-24.1,2.8c-1.6,0-3.2,0-4.9-0.1C980.9,2107.4,982.3,2106.1,983.6,2104.6z"/>
	<path class="st13" d="M508.1,2107.7c-22.7-1.5-47.5-16.6-51.5-39.1c-2.6,4.4-4.7,9.1-6.3,14c-2.4,7.7-0.7,16.1,4.5,22.2
		c5.6,6.6,14.5,12.6,28.6,14.9c17.4,2.8,36.4-2.4,48.2-17.9C524.6,2106.1,516.4,2108.2,508.1,2107.7z"/>
	<path class="st9" d="M814.4,2036c9,10.6,25.5,17.9,37,21.9c-18.7-20.4-25.6-51.6-26.1-79.7C812.9,2008.7,814.4,2036,814.4,2036z"/>
	<path class="st9" d="M549.8,1965.5c3.7,29.1,6.7,60.5-6.4,86.4c2,1.7,3.8,3.5,5.6,5.4c0,0,8.9-15,12.7-27
		C561.3,2008.1,557.2,1986.3,549.8,1965.5z"/>
</g>
<g id="Pants_x5F_01">
	<g>
		<g>
			<defs>
				<path id="SVGID_9_" d="M816.7,1454.5c0.3-129.8-9.4-376.9-44.5-515.7c-1.7-0.3-2.7-0.6-2.7-0.6s-35.5,33-39.8,24.8
					s34.5-39.4,34.5-41.3s-2.9-3.4-2.9-3.4l-14.1,5.8c0,0-28.2,35-34.5,27.7c-4.2-4.8,6.9-18.4,15.1-27.5c-3.2,0.8-6.5,1.5-9.7,2.1
					c-3.9,4.1-8.1,7.9-12.7,11.3c-6.7,4.8-13,5.1-13.6,2.4c-0.4-1.9,1.4-5.7,4.3-10.3c-5.2,0.6-10.4,1.1-15.5,1.4l0,0
					c-85.8,5.7-170.8-29.3-172.1-29.5c-26.4,55.7-26.2,81-30.7,116.7l0,0c-6.9,81.2-0.5,178.8,7.4,261.3
					c9.5,100,21.2,177.9,21.2,177.9c-60.4,136.6-30.7,479.7-30.7,479.7c4.1,3.7,8.8,6.7,13.8,8.9l0.1,0.1
					c31.7,13.8,72.9-3.6,72.9-3.6c1.1-14.8,11.2-466.9,12-470.1c6.5-26.2,55.1-356.8,63.7-397.1l99,396
					c-25.4,128.1,9.2,199.4,22.2,238.2c15,44.7,49.8,238.2,49.8,238.2c5.3,3.1,10.9,5.7,16.7,7.8l0,0l2.2,0.8l0.2,0.1
					c42.3,14.4,73-6.6,73-6.6C873.8,1879.1,816.7,1454.5,816.7,1454.5z"/>
			</defs>
			<clipPath id="SVGID_10_">
				<use xlink:href="#SVGID_9_"  style="overflow:visible;"/>
			</clipPath>
			<g class="st19">
				<path class="st13" d="M508.5,901.8c0,0,135.5,60.3,256.2,10.6c0,0,52.9,154.6,51.9,542.1c0,0,57.2,424.6,84.7,495.5
					c0,0-40.2,27.5-92.1-2.1c0,0-34.7-193.5-49.8-238.2c-13.1-38.8-47.7-110.1-22.2-238.2c0,0-95.6-391.4-97.8-399.9
					s-57.9,372.7-64.9,401c-0.8,3.2-10.9,455.3-12,470.1c0,0-55.1,23.3-86.8-5.3c0,0-29.6-343.1,30.7-479.7
					c0,0-11.7-77.9-21.2-177.9c-8.8-92.6-15.9-204-4.2-290.1C485.9,953.6,497,926.1,508.5,901.8z"/>
				<path class="st15" d="M639.5,1071.5l24-12.7c0,0,1.4-118.6,0-122.8s-25.4,0-25.4,0L639.5,1071.5z"/>
				<path class="st15" d="M523.5,1464.9c5.2,2.1,14,3.7,25.5-1.3c1.2-0.5,2.6,0,3.1,1.2c0.3,0.7,0.2,1.6-0.2,2.2
					c-6.9,10.3-20.8,25.1-31.4,0.9c-0.5-1.2,0.1-2.6,1.2-3.1C522.2,1464.7,522.9,1464.7,523.5,1464.9z"/>
				<path class="st15" d="M771.2,1480c10,2.9,20.5,3,30.6,0.3c1.5-0.4,3.1,0.5,3.5,2c0.2,0.9,0,1.8-0.5,2.5
					c-6.6,8.6-20.1,19.8-36.6-0.3c-1-1.2-0.8-3,0.4-4C769.3,1479.9,770.3,1479.7,771.2,1480z"/>
				
					<linearGradient id="SVGID_11_" gradientUnits="userSpaceOnUse" x1="479.1232" y1="720.1399" x2="521.5466" y2="720.1399" gradientTransform="matrix(1 0 0 -1 0 2193.9399)">
					<stop  offset="0" style="stop-color:#46E4E8"/>
					<stop  offset="1" style="stop-color:#FB12FE"/>
				</linearGradient>
				<path class="st20" d="M495,1593.4c11.1-83.4,26.3-131.1,26.4-131.6c0.1-0.3,0.1-0.6,0.1-0.8c-27.9-234.3-26.8-456.4-26.8-458.6
					c0-1.1-0.9-2-2-2l0,0c-1.1,0-2,0.9-2,2c0,2.2-1.1,224.2,26.8,458.7c-1.5,4.9-15.8,52.2-26.4,131.8
					c-10.3,76.7-19.1,199.9-3.5,352.5c1.4,0.7,2.8,1.3,4.2,1.8C475.8,1793.9,484.7,1670.2,495,1593.4z"/>
				
					<linearGradient id="SVGID_12_" gradientUnits="userSpaceOnUse" x1="663.5303" y1="684.725" x2="830.4" y2="684.725" gradientTransform="matrix(1 0 0 -1 0 2193.9399)">
					<stop  offset="0" style="stop-color:#46E4E8"/>
					<stop  offset="1" style="stop-color:#FB12FE"/>
				</linearGradient>
				<path class="st21" d="M752.6,1532.2c0.9-40.3,6.7-61.1,6.7-61.3c0.1-0.3,0.1-0.7,0-1.1c-14-53-91-403.7-91.8-407.2
					c-0.2-1.1-1.3-1.8-2.4-1.5c-1.1,0.2-1.8,1.3-1.5,2.4c0.8,3.5,77.3,352.1,91.7,406.9c-0.9,3.6-5.8,23.9-6.7,61.6
					c-0.9,37.5,2.3,99.8,22.4,183.9c27.4,114.7,46.9,202.5,55,240c1.5,0.6,3,1,4.4,1.5c-7.8-36-27.5-125.2-55.5-242.4
					C754.9,1631.3,751.7,1569.4,752.6,1532.2z"/>
				
					<linearGradient id="SVGID_13_" gradientUnits="userSpaceOnUse" x1="732.7" y1="1220.59" x2="788.7" y2="1220.59" gradientTransform="matrix(1 0 0 -1 0 2193.9399)">
					<stop  offset="0" style="stop-color:#46E4E8"/>
					<stop  offset="1" style="stop-color:#FB12FE"/>
				</linearGradient>
				<path class="st22" d="M737.7,924.7l-5,4.2c10,59.9,38.1,83.8,56,93.1c-0.5-3.1-0.9-6.2-1.3-9.2
					C744.8,985.2,737.7,924.7,737.7,924.7z"/>
				
					<linearGradient id="SVGID_14_" gradientUnits="userSpaceOnUse" x1="477.882" y1="1222.34" x2="533.6021" y2="1222.34" gradientTransform="matrix(1 0 0 -1 0 2193.9399)">
					<stop  offset="0" style="stop-color:#46E4E8"/>
					<stop  offset="1" style="stop-color:#FB12FE"/>
				</linearGradient>
				<path class="st23" d="M533.6,928.9l-7.1-4.2c-5.9,46.9-32,71.5-47.6,82.2c-0.4,3.8-0.8,7.7-1.1,11.6
					C526.2,985.7,533.6,928.9,533.6,928.9z"/>
				<path class="st15" d="M744,1468.2c-24-70.6-90.3-391.1-90.3-391.1l55.1-48l-69.9,42l-0.7,3.5c2.1,8.5,99.2,396.7,99.2,396.7
					c-25.4,128.1,9.2,199.4,22.2,238.2C715.7,1584,744,1468.2,744,1468.2z"/>
				<path class="st10" d="M771.4,935.9c-4-16-6.6-23.6-6.6-23.6c-120.7,49.8-256.2-10.6-256.2-10.6c-3.3,6.9-6.5,14.1-9.6,21.7
					C532,938.7,651,985.6,771.4,935.9z"/>
				
					<linearGradient id="SVGID_15_" gradientUnits="userSpaceOnUse" x1="618.1" y1="1249.8568" x2="680.6" y2="1249.8568" gradientTransform="matrix(1 0 0 -1 0 2193.9399)">
					<stop  offset="0" style="stop-color:#46E4E8"/>
					<stop  offset="1" style="stop-color:#FB12FE"/>
				</linearGradient>
				<path class="st24" d="M621.1,930c-0.6,8.8-1.9,17.4-3,26.1c20.7,2.3,41.7,2.7,62.5,1.1v-25.9C660.8,932.6,640.9,932.1,621.1,930
					z"/>
			</g>
		</g>
	</g>
</g>
<g id="Head">
	<path class="st12" d="M521.8,317.9c-23.7,8.4-48.5-23.7-34.9-39c8.6-9.7,25,7.1,29.2,11.8l-2.4-11.6c0,0-13.9-31.9-33-20.7
		s-14.4,38-7.5,51.5s30.7,41.2,51.4,21.6L521.8,317.9z"/>
	<path class="st12" d="M486.9,278.9c-13.6,15.3,11.2,47.4,34.9,39l-5.7-27.2C511.9,286,495.6,269.2,486.9,278.9z"/>
	<path class="st12" d="M759.2,319.8c23.5,8.8,48.9-22.9,35.5-38.4c-8.5-9.9-25.1,6.7-29.4,11.3l2.6-11.5c0,0,14.4-31.6,33.3-20.2
		s13.8,38.2,6.6,51.6s-31.4,40.7-51.7,20.8L759.2,319.8z"/>
	<path class="st12" d="M794.7,281.4c13.4,15.5-12,47.2-35.5,38.4l6.1-27.1C769.6,288.1,786.3,271.5,794.7,281.4z"/>
	<path class="st25" d="M642.3,99.1c-147-2.2-139.8,139.6-137.6,162.4c0.2,2,3,33.9,10.3,74.5c8.4,46.3,77,81.9,108.8,96
		c9.8,4.4,21,4.4,30.9,0.1c31.8-13.9,102.2-49.4,111-94.1c8-40.5,11.3-72.3,11.5-74.3C779.8,241,789.4,99.3,642.3,99.1z"/>
	<path class="st26" d="M777.3,257.7c-0.2,2-3.5,33.8-11.5,74.3c-9.4,47.6-89,84.9-116.9,96.6c-6.1,2.6-13,2.6-19.2,0
		C601.6,416.6,524,379.4,515,330c-7.3-40.6-10.2-72.4-10.3-74.5c-0.3-3-0.7-8.2-0.8-14.9c-0.1,7,0.1,13.9,0.8,20.9
		c0.2,2,3,33.9,10.3,74.5c8.4,46.3,77,81.9,108.8,96c9.8,4.4,21,4.4,30.9,0.1c31.8-13.9,102.2-49.4,111-94.1
		c8-40.5,11.3-72.3,11.5-74.3c0.8-8.1,1.2-16.2,1.1-24.3C778.2,247.8,777.7,254.2,777.3,257.7z"/>
</g>
<g id="Lips">
	<path class="st27" d="M598.3,364.2c0,0,0.5,32,43.3,32c42.3,0,44.2-32.9,44.2-32.9l-43.8,5.2L598.3,364.2z"/>
	<path class="st28" d="M598.3,364.2c0,0,23.1-18.8,43.8-1.4c0,0,18.8-16.9,43.8,0.5l-43.3,12.2C642.6,375.5,612.9,368.9,598.3,364.2
		z"/>
</g>
<g id="Nose_x5F_02">
	<path class="st29" d="M626.8,328.4L626.8,328.4c10.1,2.3,20.6,2.4,30.7,0.1l1.1-0.3c2.4-0.5,4.2,1.8,2.4,3.2l-16.6,13.3
		c-1.1,0.8-2.5,0.8-3.5,0l-16.6-13.2C622.5,330.2,624.3,327.8,626.8,328.4z"/>
</g>
<g id="Eyes">
	<title>eyes B</title>
	<path class="st30" d="M522.9,248.9c0,0,12.5-23.1,48.5-10.5c32.5,11.4,36.2,33.6,36.2,33.6S586.9,241.8,522.9,248.9z"/>
	<path class="st8" d="M542.3,274.2c0,0,15.3,5.1,47.7,2.8c15.2-1.1,18.3-6,18.3-6s-31.8-45.5-76.6-11.6l-2.5,2.8L542.3,274.2z"/>
	<g>
		<g>
			<defs>
				<path id="SVGID_16_" d="M542.3,274.2c0,0,15.3,5.1,47.7,2.8c15.2-1.1,18.3-6,18.3-6s-31.8-45.5-76.6-11.6l-2.5,2.8L542.3,274.2z
					"/>
			</defs>
			<clipPath id="SVGID_17_">
				<use xlink:href="#SVGID_16_"  style="overflow:visible;"/>
			</clipPath>
			<g class="st31">
				<circle class="st32" cx="575.5" cy="262.5" r="22.9"/>
			</g>
		</g>
	</g>
	<path class="st32" d="M608.3,271c-12.9-20.2-43.8-32.8-85.9-22.6c0,0,7.9,21.9,19.9,25.8c0,0-5.3-10.8-5.3-15.4
		C537,256,582.7,247.5,608.3,271z"/>
	<path class="st30" d="M758.9,248.9c0,0-13.6-26.1-48.5-10.5c-36,16.1-36.2,33.6-36.2,33.6S694.9,241.8,758.9,248.9z"/>
	<path class="st8" d="M739.5,274.2c0,0-15.3,5.1-47.7,2.8c-15.2-1.1-18.3-6-18.3-6s31.8-45.5,76.6-11.6l2.5,2.8L739.5,274.2z"/>
	<g>
		<g>
			<defs>
				<path id="SVGID_18_" d="M739.5,274.2c0,0-15.3,5.1-47.7,2.8c-15.2-1.1-18.3-6-18.3-6s31.8-45.5,76.6-11.6l2.5,2.8L739.5,274.2z"
					/>
			</defs>
			<clipPath id="SVGID_19_">
				<use xlink:href="#SVGID_18_"  style="overflow:visible;"/>
			</clipPath>
			<g class="st33">
				<circle class="st32" cx="706.5" cy="263.2" r="22.9"/>
			</g>
		</g>
	</g>
	<path class="st32" d="M673.5,271c12.9-20.2,43.8-32.8,85.9-22.6c0,0-7.9,21.9-19.9,25.8c0,0,5.3-10.8,5.3-15.4
		C744.8,256,699.1,247.5,673.5,271z"/>
</g>
<g id="Eyebrows">
	<path class="st32" d="M517.7,225.5c0,0,36.3-26.8,79.8-13.4c0,0,9.2,14.1,11.3,22.6C608.7,234.7,585.4,213.5,517.7,225.5z"/>
	<path class="st32" d="M761.9,225.5c0,0-42.1-29.6-79.8-13.4c0,0-9.2,14.1-11.3,22.6C670.8,234.7,694.1,213.5,761.9,225.5z"/>
</g>
<g id="Hair">
	<g>
		<path class="st34" d="M826.8,550.5c-1.5,9.8-2.4,19.8-4.7,29.5c-2.2,9.7-5.2,19.2-8.7,28.5c-6.3,16.6-9.8,33.8-11.8,51.3
			c-0.2,2.1-0.7,4.3-1.1,6.4c-2.7,1.1-3.5-1.2-4.6-2.7c-18.9-26.5-31.2-55.6-35.7-88c-3.2-23-4.4-46.1-4.1-69.2
			c0.2-15.3-4.2-29.6-10.4-43.4c-0.1,3.2,0.6,6.4,1.5,9.5c2.2,8.2,4.1,16.5,4.6,25c0.6,9.7-0.7,19.3-2.1,28.8
			c-4.9,33.1-1,65.1,11,96.1c1.4,3.5,1.6,7.3,3.3,10.8c3.7,15.2,9.8,29.9,10.1,46.1c-6.5,0-11.4-2.8-15.9-6.3
			c-18.4-14.2-31.5-32.3-38.4-54.7c-0.5-1.7-1.3-3.2-1.9-4.8c-0.5,0.1-1,0.2-1.4,0.4c1.2,7,2.5,14,3.7,21s2.4,14,2.9,21.7
			c-1.5-1.1-3.1-2.1-4.5-3.3c-10.4-9.2-17-21-21.6-33.7c-7.2-20.1-9.5-40.8-6.6-62c2.1-15.5,5-30.9,7.5-46.3
			c2.8-17.8,2-35.6,0.2-53.3c-1.3-13.3-3.8-26.4-8.2-39c-1-2.9-0.1-4.1,2.3-5.4c18-10.1,35.2-21.5,50-36.1
			c10.3-10.2,18.8-21.5,22.9-35.6c0.4-1.5,0.8-2.6,3-2c4.5,1.3,8.9,0.3,13.2-1.4c6.6-2.7,12-7.1,16.8-12.3c2.6-2.9,1.9-6.1-1.6-7.5
			c-12.3-4.8-21.9-13.3-30.1-23.3c-12.6-15.4-20.6-32.8-23-52.8c-0.9-7.4-2.4-14.8-4.7-21.9c-1.8-5.6-4.9-11-8.3-15.8
			c-3.7-5.3-6.2-10.9-7.7-17.1c-1.3-5.7-2.6-11.4-3.8-17c-3.9-17.3-11-33.1-21.5-47.4c-5.2-7.1-11.7-12.8-19.6-16.8
			c-7.2-3.7-15-4.9-22.8-2.8c-4,1.1-7.6,3.8-11.2,6.1c-1.3,0.8-2.1,2-3.6,0.3c-8.6-9.7-26.8-9.3-38.8-1.1
			c-7.9,5.3-14.2,12.1-19.3,20c-9,14-15.1,29.2-18.4,45.6c-0.9,4.4-1.9,8.8-2.9,13.1c-1.4,6.2-3.7,12-7.8,17.1
			c-7.6,9.5-11,20.9-12.2,32.8c-1.8,16.3-6.3,31.6-15,45.6c-6.7,10.7-14.6,20.3-25,27.6c-4.3,3-9.1,5.4-13.8,7.8
			c-3.1,1.6-4.2,4.7-1.9,7.2c6,6.2,12.8,11.1,21.7,12.4c1.1,0.2,2.3,0.2,3.5,0.1c4.8-0.3,4.8-0.3,6.3,4.5
			c5,15.5,14.3,27.9,26.5,38.4c6.8,5.8,13.3,12.1,20.6,17.3c8.8,6.3,18.1,11.7,27.3,17.3c2,1.2,2.7,2.1,1.9,4.7
			c-7.6,24.6-10.4,49.9-8.8,75.5c0.9,14.2,3.8,28.3,6.1,42.4c2.4,14.8,4.7,29.6,3.6,44.7c-1.5,20.5-6.3,40.1-17.9,57.5
			c-4.4,6.6-9.4,12.4-16.6,17c1.9-10.9,3.7-21.4,5.5-31.9c0.9-1.6-0.2-3.6,0.9-5.2c0.2-0.3,0.2-0.5,0.1-0.8c0.1-1.8,1.7-3.8-1-5.1
			c-2.9,9.9-6.6,19.4-12.1,28.3c-7.2,11.8-16.4,21.8-27.2,30.2c-4.1,3.2-8.6,5.7-13.9,6.5c-2,0.3-2.8-0.2-2.4-2.4
			c0.9-5.2,1.3-10.6,2.6-15.7c2-8.4,4.6-16.6,6.9-24.9c2.2-10.4,6.5-20.2,9.5-30.4c4.8-16.6,7.7-33.5,7.7-50.7
			c0-11.1-0.9-22.3-2.7-33.3c-2.7-16.2-2.2-32.1,2.6-47.9c1.1-3.6,1.8-7.3,1.9-11.2c-4.5,10.1-8,20.6-9.6,31.6
			c-1.4,9.5-1,18.9-0.9,28.4c0.1,23.4-2.4,46.5-7.2,69.4c-5.5,26.1-17,49.7-32.5,71.3c-1,1.4-2,4.6-4.8,1.8
			c-1.4-9.4-2.2-18.9-4.5-28c-3-12.2-6.9-24.2-11-36.1c-5.1-14.8-8.2-30.1-10.4-45.5c-0.3-2-0.1-4-0.2-5.9c-1.2-8-0.6-15.2,5.5-21.7
			c4.4-4.7,8.3-10,12.5-14.9c10.3-12.2,15.2-26.1,16.1-42.1c0.5-9.1-0.7-18.2,0.5-27.3c1.4-11.1,4.9-21,11.5-29.9
			c2-2.6,4.5-5,5.4-8.5c-2.1-1-3.5,0.3-5,1.1c-12,6.8-18.3,18.2-23.8,30c-3.6,7.7-6.1,15.8-9.3,23.7c-2.3,5.6-5.3,10.8-8.6,15.8
			c-0.8,1.2-1.7,2.9-3.4,2.3c-1.6-0.5-0.7-2.3-0.8-3.6c-0.4-3.1,0.6-6.3-0.5-9.3c-4.2-19.5-8.4-38.9-12.5-58.4
			c-1.5-7-2.4-14.1-3.8-21.1c-0.2-1.2-1.1-2.4-1.7-3.5c0-2.3,0-4.7,0-7c1.1-3.8,0.2-7.7,0.5-11.5c0-1.3,0-2.7,0-4
			c3-8.2,9.4-14.1,14.6-20.7c11.9-15.1,25.6-28.4,41.5-39.4c8.6-5.9,13.5-15,19-23.6c2-3.1,3.4-6.5,5.3-9.6
			c2.1-3.5,2.8-7.4,2.8-11.5c0-8-0.5-16,1.1-23.9c1.3-7,3-13.9,7.1-19.6c4.7-6.6,5.8-13.8,6.9-21.5c3.7-24.9,10.3-48.9,24.6-70.1
			c9.6-14.4,23-24,39.2-29.5c14.2-4.9,27.3-3,38,8.5c1.8,1.9,3,1.9,4.8,0c10.7-11.5,23.7-13.3,38-8.5c20.4,6.9,35.3,20.3,45.2,39.3
			c11.1,21.3,16.9,44.1,19.6,67.8c0.4,3.4,1.2,6.5,3.2,9.3c7.9,11.5,12,24.4,10.8,38.2c-1.3,14.8,4.9,26.4,12.6,37.9
			c6,9,13.3,16.5,22.3,22.6c14.5,9.9,25.5,23.3,36.5,36.7c3.1,3.7,6.1,7.5,8.9,11.5c1.5,2.2,3.3,4.2,3.6,7c0,7.6,0.4,15.1-1.1,22.6
			c-3,15-6,30-9.1,45c-2.5,12.4-5.2,24.7-7.8,37.1c-1.1,3.6-0.2,7.2-0.5,10.8c-0.1,0.8,0.3,1.8-0.8,2.1c-0.9,0.3-1.6-0.3-2.2-0.9
			c-1.2-1.1-2-2.6-2.9-4c-7.8-12-11-26-17.1-38.8c-5.5-11.5-11.7-22.5-23.8-28.6c-0.9-0.4-1.7-1-2.7-1.2c-0.3-0.1-0.7,0-1.2,0.3
			c-0.1,2.3,1.5,3.9,2.9,5.4c10,11.5,14.1,25.2,14.5,40c0.2,6.8-0.1,13.6,0,20.4c0.3,16.3,6,30.2,16.3,42.4
			c4.6,5.5,9.1,11,13.6,16.6c3.4,4.2,5,8.4,4.4,13.7C826.9,545.9,827.6,548.2,826.8,550.5z"/>
		<path class="st35" d="M843.8,359.2c-6.3-8.1-12.3-16.4-18.9-24.1c-10.1-11.9-20.9-23.1-34.1-31.8c-6.5-4.3-11.4-9.9-15.9-16.2
			c-5.6-7.7-10.1-15.9-14-24.5c-0.8-1.7-1.1-3.8-1.2-5.7c-0.2-4.8,0-9.7-0.1-14.5c-0.1-13.4-3.7-25.7-11.8-36.6
			c-1.1-1.5-2-3.6-2.1-5.4c-0.6-11.9-3.1-23.5-6.2-35c-4.5-16.9-10.6-33.2-21-47.4c-11.1-15-25.9-24.7-44-28.5
			c-12.1-2.5-23,1.3-30.8,11.7c-1.2,1.7-2.2,2.6-3.7,0.5c-9-12.4-21.5-15-35.4-11.3c-12.3,3.3-23.3,9.7-32.3,18.8
			c-9,9-15.3,19.9-20.3,31.6c-6.4,14.9-10,30.7-13.1,46.5c-0.5,2.7-1.2,5.6-1,8.3c0.5,5.6-2.1,9.8-5,14.1
			c-6.9,10.4-9.2,22.1-9.2,34.4c0,4,0.2,8-0.1,12c-0.2,2.6-0.3,5.5-1.4,7.7c-6.1,12-12.4,23.9-22.2,33.3c-4.6,4.4-10.1,8-15.2,11.9
			c-7.2,5.6-13.9,11.7-19.6,18.9c-5.5,7-11.6,13.6-17.3,20.5c-2.8,3.4-5.4,7.1-8.1,10.6c-1.1-1.1-0.4-2.6-0.6-3.9
			c0.1-10.5,3.4-20.2,7.4-29.7c3.4-8.3,6.4-16.7,8.9-25.3c0.8-2.7,1.4-5.5,3.2-7.7c21.5-20.1,39.4-42.9,51.3-70
			c5.5-12.5,7.7-25.8,9.3-39.3c1.4-11.9,5.3-23.1,10.9-33.6c5.1-9.5,9.1-19.7,15.3-28.6c1.1-1.5,2.2-3,3.5-4.4
			c0.2-0.2,0.5-0.5,0.6-0.7c0.2-0.5,1-0.6,0.7-1.3c-0.3,0.4-0.5,0.8-0.8,1.2c-1.1,1.5-2.4,2.8-3.6,4.3
			c-14.6,18.8-26.2,38.9-30.9,62.6c-2.9,14.4-6.7,28.6-13.5,41.7c-7.2,13.7-16.6,25.7-27,37.1c-2.3,2.5-3.3,6.9-8,6.7
			c-0.5-0.7-0.6-1.5-0.5-2.3c0.5-2.4,0.4-4.9,0.2-7.3c-0.7-8.8-2.7-17.5-1.8-26.4c0.2-1.3,0.8-2.5,1.7-3.6
			c13.4-15.8,22.5-33.7,27.3-53.8c0.4-1.6,1.1-3.2,2.1-4.5c0-0.2,0.4-0.3,0.1-0.6c-0.2,0.4-0.5,0.8-0.8,1.2
			c-4.3,6-7.2,12.7-10.2,19.3c-4.1,8.9-8.9,17.4-14.3,25.6c-1.1,1.7-2.1,4.7-4.4,4s-1.3-3.7-1.6-5.8c-0.2-17.6,2.5-34.8,7.7-51.6
			c6.3-20.6,18.9-36.9,35.1-50.6c5.5-4.7,10.7-9.5,15.3-14.9C540,76.9,561.8,63,586.6,53.5c6.5-2.5,13.4-3.6,20.1-5.3
			c2.3,0,4.7,0,7,0c3,0.8,6,0.8,9,0c1.3,0,2.7,0,4,0c4.6,1.2,9.6,0.4,13.8,3.3c0.7,0.5,1.7,0.5,2.4,0c3.5-2.5,7.9-1.9,11.8-3.3
			c2,0,4,0,6,0c2.3,0.8,4.7,0.8,7,0c2.7,0,5.3,0,8,0c8.3,1.5,16.5,3.5,24.4,6.6c17.3,6.7,32.6,16.3,46.8,28.2
			c7.4,6.2,13.4,13.8,20,20.8c5.6,5.9,12.3,10.7,18.1,16.3c17.1,16.5,26.3,36.9,30.8,59.8c2.2,11.3,3.5,22.7,3.2,34.2
			c-0.3,2.1,0.7,5.2-1.5,5.9c-2.6,0.7-3.5-2.5-4.7-4.3c-7.6-11-13.1-23.1-18.9-35.1c-1.6-3.3-3.4-6.5-5.8-9.3
			c-0.4-0.6-0.4-1.4-0.9-2c-0.3,0.6,0.4,1,0.4,1.5c1.9,4.1,3.4,8.3,4.7,12.6c4.7,16.5,13.2,31,23.9,44.2c1.2,1.4,2.3,2.8,2.7,4.7
			c0.4,4.8,0.4,9.6-0.4,14.3c-1.1,6.9-0.7,13.8-0.9,20.7c-1.7,2.7-3.3,0.7-4.3-0.4c-20.1-21.9-37.7-45.5-42.9-75.8
			c-4.1-23.9-14.4-44.8-27.7-64.6c-1.5-2.2-3.3-4.2-5.1-6.1c-1.2-1.4-2.5-2.8-3.6-4.3c-0.2-0.1-0.1-0.4-0.4-0.3
			c0.3,0.4,0.5,0.8,0.8,1.1c1.3,1.4,2.4,2.9,3.5,4.4c9.1,16.4,18.8,32.6,24,50.9c1.9,6.8,2.6,13.7,3.5,20.7
			c3.5,28.2,17.4,51.4,34.5,73.2c7.5,9.6,15.8,18.5,24.8,26.7c0.5,0.5,0.9,1,1.1,1.7c5.1,18.8,14.4,36.3,18.4,55.4
			c0.2,1,0.5,1.9,0.5,3C844.5,354.8,845.3,357.2,843.8,359.2z"/>
		<path class="st36" d="M622.7,48.2c-3,1.6-6,1.6-9,0C616.7,48.2,619.7,48.2,622.7,48.2z"/>
		<path class="st37" d="M667.7,48.2c-2.3,1.5-4.7,1.7-7,0C663.1,48.2,665.4,48.2,667.7,48.2z"/>
		<path class="st35" d="M456.7,465.2c0.3,2,0.8,4.1,1,6.1c0.2,2.1,0,4.1,0.4,6.3c5.6-7,9.5-14.7,12.6-22.9c3.1-8.2,6.2-16.4,10-24.3
			c3.7-7.8,8.3-15.2,15.1-20.7c3.2-2.5,6.9-4.5,10.5-6.4c1-0.5,2.4-0.1,3.6-0.2c-0.2,1.3-0.2,2.9-0.8,4c-1.5,2.5-3.3,5-5.2,7.3
			c-7.1,8.8-10.8,18.7-11.4,30.1c-0.3,4.9-0.1,9.8-0.2,14.7c-0.2,16.5-1,33.2-11.3,47.4c-3.1,4.3-6.4,8.4-9.7,12.5
			c-4.4,5.5-9,11-13.4,16.6c-0.8,1.1-1.1,2.7-1.2,4.1c-0.2,3.3-0.1,6.6-0.2,10c-0.2-1.3-0.7-2.6-0.7-3.9c-0.4-15.6-0.7-31.2-1-46.8
			c0-1,0-2,0.1-3C456.4,485.7,457.4,475.5,456.7,465.2z"/>
		<path class="st35" d="M826.8,550.5c-0.2-4.6,1.1-10-0.8-13.8c-3-5.9-7.9-10.9-12.4-16c-8-9.3-15.7-18.8-19.2-30.9
			c-1.6-5.7-3-11.5-2.8-17.5c0.1-2.8-0.6-5.6-0.8-8.3c-0.1-1.7-0.5-3.4,0-5c2.1-7.3-0.1-14.4-0.9-21.5c-1.2-10.1-6.4-18.3-12.4-26.1
			c-1.2-1.6-2.5-3.1-3.5-4.8c-0.5-1-0.4-2.4-0.5-3.6c1.1,0,2.3-0.3,3.1,0.1c3.4,1.7,7,3.1,9.9,5.5c8.4,7.1,14,16.2,18.2,26.3
			c4.3,10.4,8.4,20.8,13,31.1c1.8,4.1,4.6,7.9,6.9,11.8c0.4-0.1,0.7-0.2,1.1-0.3c0-2.7-0.1-5.5,0-8.2c0.1-1.4,0.6-2.7,1-4.1
			c0.7,16.2,1.8,32.4,2.1,48.6c0.2,11.4-0.9,22.9-1.4,34.3C827.3,548.9,827,549.7,826.8,550.5z"/>
		<path class="st35" d="M482.7,665.2c1.3,0.8,1.9,0.2,2.6-1c4.2-6.6,8.6-12.9,12.6-19.6c7.5-12.4,13-25.7,17.3-39.5
			c3.3-10.6,5.4-21.4,6.6-32.4c0.7-6.5,2-13,2.8-19.5c0.6-5.7,1-11.5,1.1-17.3c0.2-9,0.2-18,0-27c-0.2-15.3,3.5-29.8,9.1-43.8
			c0.8-2,1.6-4,2.6-5.9c0.2-0.4,1.1-0.5,1.7-0.5c0.2,0,0.6,0.8,0.6,1.2c-0.4,3.4-0.7,6.9-1.4,10.2c-1,5-2.7,9.9-3.5,14.9
			c-1.2,8.1-2.8,16.1-1.2,24.5c1.4,7.6,1.5,15.4,2.2,23.1c0.6,6.7,1.5,13.4,1.9,20.2c0.2,3.1-0.9,6.2-0.8,9.3
			c0.3,14.4-2.8,28.2-6.7,41.9c-3.1,10.9-7.5,21.4-11.3,32.1c0.4-2.6,0.8-5.2,1.1-7.8c0.1-0.9,1-2.1-0.9-2.1
			c-7.1,14.3-15.1,28.1-26.1,39.9c-1.4,1.5-2.1,3.7-3.2,5.5c-1.5,2.4-3.2,4.8-4.8,7.2c-0.4-0.1-0.9-0.3-1.3-0.4
			C483.2,674,483,669.6,482.7,665.2z"/>
		<path class="st35" d="M764,633.1c-2.1-4.8-4.5-9.4-6.2-14.3c-4.7-13.9-8.8-28-10.1-42.7c-0.4-4.4-0.2-9-1.1-13.3
			c-1.5-7.5,0.1-14.8,0.3-22.2c0.1-7.1,1.8-14.1,2.2-21.1c0.5-8.2,1.8-16.2,1.1-24.6c-0.9-10.3-4.5-19.9-6-30c-0.3-2,0-4.1,0-6.8
			c3.7,2.9,4.5,6.5,5.6,9.8c2.4,7.5,4.7,15.1,6.6,22.8c1,4.1,1.3,8.5,1.4,12.8c0.2,7.7,0.1,15.3,0,23c-0.1,12.9,1.3,25.7,2.9,38.5
			c1.4,11.8,2.6,23.6,6.2,35c2.7,8.7,5.4,17.4,9.2,25.6c4.7,10.2,10.2,20,15.9,29.8c2.3,4,5.8,7.4,8.7,11c-0.3,3.7-0.6,7.3-0.9,11
			c-0.7,0.6-1.4,0.6-2.1,0.2c-0.4-0.3-0.9-0.6-1.1-1c-4.1-9.6-12.3-16.3-17.7-25c-5-8.2-9.6-16.6-14.4-25c-2.2,0.4-1,1.8-0.8,2.9
			C763.8,630.6,763.9,631.8,764,633.1z"/>
		<path class="st38" d="M816.8,268.2c2.4,8.3,4.8,16.6,7.1,24.9c-5-4.8-10.5-9.3-15-14.4c-8.7-9.8-16.5-20.2-23.7-31.2
			c-10-15.2-16.9-31.4-20.3-49.2c-1.3-7-2-14-3.2-21c-1.6-9.9-5.8-19-10-27.9c-2.9-6-6.1-11.8-9.2-17.6c-1.9-3.5-3.8-7-5.7-10.5
			c-0.7-1.2-0.7-2.1,1-2c5.4,3.7,8,9.7,11.2,15c6.2,10.2,12.7,20.3,16.1,31.9c2.5,8.4,4.5,16.9,6.6,25.4
			c4.1,16.7,9.4,32.8,20.2,46.6c7.3,9.2,14.5,18.5,21.8,27.7C814.6,266.7,815.8,267.4,816.8,268.2z"/>
		<path class="st39" d="M459.6,293.1c2.4-8.3,4.7-16.6,7.1-24.9c3.3-3.5,6.9-6.7,9.9-10.4c6.6-8.5,13.2-17,19.3-25.9
			c8.2-11.9,13.1-25.5,15.7-39.5c4-21.2,11.3-40.7,23.2-58.7c3.4-5.1,5.7-10.9,11-14.6c1.7,0,1.7,0.8,1,2
			c-5.1,9.5-10.4,18.9-15.1,28.6c-5.3,10.9-9.7,22-11,34.3c-1.2,11.5-3.5,22.8-7.2,33.8c-4.5,13.1-11.9,24.7-19.5,36.2
			c-9.4,14-20.5,26.4-32.6,38.1C460.8,292.6,460.1,292.8,459.6,293.1z"/>
		<path class="st39" d="M817.9,214c0,5.8,0,11.6,0,17.4c-8.5-8.8-14.1-19.6-20-30c-1.6-2.9-2.9-6-4-9.1c-2.5-7.3-4.8-14.7-7.2-22.1
			c-0.2-0.4-0.3-0.9,0.3-1.1c0.9-0.3,1.3,0.4,1.8,1c5.9,6.1,8.3,14.1,12,21.4c4.8,9.7,10,19.2,16.7,28.3
			C817.6,217.6,817.7,215.8,817.9,214z"/>
		<path class="st39" d="M465.6,231.4c0-5.8,0-11.6,0-17.4c0.1,1.8,0.3,3.6,0.5,6.5c3.9-6.4,7.6-11.8,10.6-17.5
			c4.9-9.2,9.3-18.6,14.1-27.8c0.9-1.8,2.6-3.3,3.9-5c0.7-0.2,1.5-2.7,2.1,0.1c-1.8,5.6-3.6,11.3-5.5,16.9
			c-5.5,15.9-13.5,30.5-24.9,43C466.1,230.5,465.9,231,465.6,231.4z"/>
		<path class="st40" d="M733.7,117.2c-1.2-0.8-2.4-1.6-3.4-2.5c-0.3-0.3-0.2-1.2-0.3-1.8c0.6-0.1,1.3-0.4,1.7-0.1
			c1.1,0.7,2,1.6,3,2.4C734.1,115.8,734.5,116.8,733.7,117.2z"/>
		<path class="st41" d="M548.7,115.2c0.1-0.2,0.1-0.4,0.2-0.4c1.3-0.6,2.7-1.2,4-1.7c-0.7,1-1.4,2.1-2.2,3.1c-0.3,0.4-0.7,0.7-1,1
			C548.9,116.8,549.3,115.8,548.7,115.2z"/>
		<path class="st42" d="M733.7,117.2c0.3-0.7,0.7-1.3,1-2c1,1.3,2,2.6,3,3.9c-0.3,0.7-0.7,1.4-1,2
			C735.7,119.9,734.7,118.5,733.7,117.2z"/>
		<path class="st42" d="M548.7,115.2c0.3,0.7,0.7,1.3,1,2c-1,1.3-2,2.7-3,4c-0.3-0.7-0.7-1.4-1-2
			C546.7,117.8,547.7,116.5,548.7,115.2z"/>
		<path class="st43" d="M788.7,170.2c-0.7,0-1.4,0-2,0c-0.7-1-1.3-2.1-2.5-3.9C787.4,166.7,788.5,168,788.7,170.2z"/>
		<path class="st44" d="M496.8,170.2c-0.7,0-1.4,0-2.1-0.1c0.9-1.4,1.8-2.7,2.7-4.1c0.4,0.3,0.9,0.5,1.3,0.8
			C498.1,168,497.4,169.1,496.8,170.2z"/>
		<path class="st39" d="M466.8,266.2c0.3-2.4,0.5-4.8,0.8-7.2C467.3,261.4,467.1,263.8,466.8,266.2z"/>
	</g>
</g>
<g id="Shirt_x5F_01">
	<g>
		<g>
			<defs>
				<path id="SVGID_20_" d="M750.2,882.5l-7.3-14.1c0,0-42.8,27.2-45.2,18s27.7-25.8,35.5-30.6c6.7-4.2,14.1-6.2,17.3-4.8
					c-22.3-68.4-19.3-73.2-19.3-73.2c4.9-26.8,37.4-149.7,37.4-149.7l30.3,53.7c30.4-32.5,70.6-43.1,70.6-43.1s-67.1-136.9-75.5-144
					c-5.7-4.8-61.3-21.8-96.8-32.3c0-0.2-0.1-0.4-0.1-0.6c0-0.1-0.1-0.2-0.1-0.3c-0.1-0.5-0.2-1-0.3-1.4V460
					c-0.1-0.4-0.2-0.8-0.3-1.2c0-0.1,0-0.2-0.1-0.3c-0.1-0.4-0.2-0.8-0.3-1.2v-0.1c-0.1-0.3-0.2-0.7-0.3-1c0-0.1,0-0.2-0.1-0.3
					c-0.1-0.3-0.2-0.7-0.3-0.9l0,0c-0.1-0.3-0.2-0.5-0.2-0.8L695,454l-0.2-0.7c-2-5.2-28.8-21.6-28.8-21.6s-0.5,21.6-0.9,26.8
					c0,0.2-0.1,0.4-0.1,0.5l0,0c-0.1,0.2-0.1,0.4-0.2,0.7v0.1c-0.1,0.2-0.2,0.5-0.3,0.8v0.1c-0.1,0.3-0.3,0.6-0.5,0.9
					c0,0,0,0.1-0.1,0.1c-0.2,0.3-0.3,0.7-0.5,1.1l-0.1,0.2l-0.6,1.2l-0.1,0.2l-0.8,1.3l-0.1,0.2l-0.8,1.4l-0.1,0.1
					c-0.3,0.5-0.6,1-0.9,1.5l-0.1,0.1l-1,1.6l0,0c-2.1,3.5-4.6,7.5-7.1,11.4c-7.4,11.4-15,22.6-15,22.6c-6.4-5.9-12-14-16.4-21.9
					c-0.1-0.1-0.2-0.3-0.3-0.4c-0.3-0.6-0.7-1.2-1-1.7c0,0,0-0.1-0.1-0.1c-0.3-0.5-0.6-1.1-0.9-1.6l-0.2-0.4l-0.9-1.7l-0.1-0.2
					c-0.3-0.5-0.5-1-0.8-1.5l-0.2-0.4c-0.3-0.5-0.5-1.1-0.8-1.6l-0.1-0.3l-0.7-1.4L614,471c-0.2-0.5-0.5-1-0.7-1.5l-0.1-0.3
					l-0.6-1.2c0-0.1-0.1-0.2-0.1-0.3l-0.6-1.3l-0.1-0.3c-0.2-0.4-0.3-0.7-0.5-1.1c0-0.1-0.1-0.2-0.1-0.3c-0.2-0.4-0.4-0.8-0.5-1.2
					c0-0.1-0.1-0.2-0.1-0.3l-0.4-1l-0.1-0.2c-0.1-0.4-0.3-0.7-0.4-1l-0.1-0.2c-0.1-0.3-0.2-0.5-0.3-0.8l-0.1-0.1l-0.3-0.8l-0.1-0.2
					c-0.1-0.2-0.2-0.4-0.2-0.6v-0.1c-0.1-0.2-0.1-0.4-0.2-0.5v-0.1c-0.1-0.3-0.2-0.5-0.2-0.6v-0.1v0.1l-0.9-23.1
					c0,0-29.7,22.6-31.5,25.9l-0.1,0.2v0.1c0,0.1,0,0.2-0.1,0.2v0.1c0,0.1-0.1,0.2-0.1,0.3v0.1c0,0.1-0.1,0.3-0.1,0.5v0.1
					c-0.1,0.4-0.2,0.9-0.3,1.4l0,0c-0.1,0.2-0.1,0.5-0.2,0.8v0.1c-0.3,1.3-0.6,2.7-0.9,4.4l-87.6,28
					C451.6,519.4,429,671.9,429,671.9c24,34.6,82.6,28.9,82.6,28.9l10-37.7l0.1,0.1l2.6-10.4c7.1,5.6,47.3,107.3,48.7,115.8
					c1.1,6.9-43.6,80.8-60.2,107.9c-3.7,5.9-4.7,13-2.8,19.7c0.4,1.5,1,2.7,1.7,3c75.5,29.2,141.4,31,187.1,26
					c6.4-9.4,13.5-18.3,21.2-26.6C722,896.6,750.2,882.5,750.2,882.5z"/>
			</defs>
			<clipPath id="SVGID_21_">
				<use xlink:href="#SVGID_20_"  style="overflow:visible;"/>
			</clipPath>
			<g class="st45">
				<rect x="-90" y="-50.4" class="st46" width="1262.3" height="2195.2"/>
				
					<linearGradient id="SVGID_22_" gradientUnits="userSpaceOnUse" x1="649.15" y1="1266.6414" x2="649.15" y2="1740.24" gradientTransform="matrix(1 0 0 -1 0 2193.9399)">
					<stop  offset="0" style="stop-color:#46E4E8"/>
					<stop  offset="1" style="stop-color:#FB12FE"/>
				</linearGradient>
				<path class="st47" d="M605.5,458c0,0,16.2,36,31.1,46.6c0,0,28.2-36,29.6-44.5l1.4-6.4c0,0,117.9,33.9,126.3,40.9
					c8.5,7.1,75.5,144,75.5,144s-40.2,10.6-70.6,43.1L768.5,628c0,0-32.5,122.8-37.4,149.7c0,0-3.2,5.1,21.2,79.1
					c3,9.2,9.7,27.8,13.4,38.8c1.2,3.5,1.4,14.8,0,14.8c0,0-109.5,44.7-254.1-11.3c-0.7-0.3-1.2-1.4-1.7-3
					c-1.8-6.7-0.8-13.8,2.8-19.7c16.6-27.2,61.4-101,60.2-107.9c-1.4-8.5-41.6-110.1-48.7-115.8l-12.7,48c0,0-58.6,5.7-82.6-28.9
					c0,0,22.6-152.5,57.2-175.8L605.5,458z"/>
				<path class="st48" d="M627.4,499.4c0,0,1.4,56.9,1.9,60.7c6.3,0.3,12.6,0.1,18.8-0.5l-2.8-61.7l-8.7,6.6L627.4,499.4z"/>
				<circle class="st49" cx="636.5" cy="515.9" r="5.7"/>
				<circle class="st49" cx="637.6" cy="543.4" r="5.7"/>
				<path class="st50" d="M536.4,666.3c5.4,13,34,82.1,40,98.8c0.2,0.5,0.7,0.7,1.2,0.6c0.2-0.1,0.4-0.2,0.5-0.4
					c5.1-9.7,30.2-52.1,73.5-52.1c40,0,66.9,35.2,74.3,48c0.6,1.1,1.9,1.4,2.9,0.9c0.5-0.3,0.9-0.8,1.1-1.3
					c5.6-18.7,22.3-84.5,28.2-107.4c0.3-1.2-0.4-2.4-1.6-2.7c-0.7-0.2-1.4,0-1.9,0.4c-19.3,15.7-93.8,64.8-217.1,14
					c-0.5-0.2-1,0-1.2,0.5C536.4,665.8,536.4,666.1,536.4,666.3z"/>
				<path class="st51" d="M484.1,509.5l33.9,70.6c0,0-11.3,31.8,6.4,72.7l-2.6,10.4c0,0-26.3-40.1-8.7-83.1L484.1,509.5z"/>
				<path class="st51" d="M768.7,628.3c0,0,11.6-32.4,3.6-50.3l25.4-73.4L779.4,578c0,0,7.1,28.7-7.1,56.5L768.7,628.3z"/>
				<path class="st52" d="M779.8,637.3l20.5,36c0,0,11.3-14.8,36-26.8C836.3,646.5,798.2,663.4,779.8,637.3z"/>
				<path class="st52" d="M462.2,687.4c13.9,5.4,28.9,7.3,43.8,5.7l9.2-31.8C515.1,661.3,491.8,696.6,462.2,687.4z"/>
				<path class="st10" d="M607.1,434l0.9,23.1c0,0,11.3,31.5,28.5,47.5c0,0-16.2-9.9-21.4-9.4s-50.4,24.5-50.4,24.5
					s9-56.5,10.8-59.8C577.4,456.6,607.1,434,607.1,434z"/>
				<path class="st10" d="M636.5,504.6c0,0,28-40.9,28.5-46.1s0.9-26.8,0.9-26.8s26.8,16.5,28.7,21.6c3.7,10.2,14.6,69.2,14.6,69.2
					s-38.1-28.2-45.6-30.6C656.1,489.5,636.5,504.6,636.5,504.6z"/>
				<path class="st10" d="M607.1,434c0,0-29.6,22.6-31.5,25.9c-0.6,1.5-1,3.1-1.3,4.8c5.3-4.1,11.1-6.5,17.4-8.7
					c11.6,7.8,20.7,18.2,29.4,28.6c-5.1-8.8-9.5-17.9-13.1-27.4L607.1,434z"/>
				<path class="st10" d="M694.7,453.3c-1.9-5.2-28.7-21.6-28.7-21.6s-0.5,21.6-0.9,26.8c-0.2,2.5-6.7,13.1-13.5,23.6
					c7.4-8.2,13.8-17.1,21.8-24.4c10.6,5.1,20,12.5,27.5,21.6C698.4,467.5,696,457.1,694.7,453.3z"/>
			</g>
		</g>
	</g>
	<g id="Logo_x5F_color">
		<polygon class="st8" points="580.9,602.7 584.4,602.5 586,595.6 581,596.9 		"/>
		<path class="st8" d="M699.8,630.2l8.5-4.4l-5.1-6.8l17.7-2.7l-23.8-18.4l16.8-7.6l-16-7.7l6.2-4.3l-5-1.7l15.8-16.1L560.6,593
			l4.1,5.6l-9.8,4l9.3,4.7l-3.6,4.7l4.2,0.9l-3.6,13.2l19-1.1l-2,5.7l16.6-5.3l-1.7,9.6l17.5-6.2l1,6.6l7.1-5.4l7.7,12.2l10.9-9.7
			l5.8,12l3.8-7.4l15.4,12.4l6.4-9l8.5,7.2l-0.2-6.9l34.9,19.2L699.8,630.2z M581.2,608.6l-0.4,10.6l-8.4-0.5l1-19l-2.6-5.7l9.6-2.1
			c0,0,8.6-2.2,14.1-3.2c-1.6,6.4-2.9,12.7-3.9,19.2C586.6,608.1,581.2,608.6,581.2,608.6z M610.2,620.2c-5.8-0.2-11.7-0.3-17.5-0.4
			c0.6-10.8,2-21.2,4.7-31.7c2.9-0.6,4.4-0.9,7.4-1.5c-2.1,8.5-3.4,17.1-4.3,25.9c1.2,0,1.7,0,2.9-0.1c0.9-8.9,2.3-17.7,4.4-26.4
			c3-0.6,4.6-0.9,7.7-1.5C612.8,596.4,611.1,608.1,610.2,620.2z M624.1,620.6c-0.9-4.5-1.3-6.6-2.1-10.6c-0.5,4-0.7,6.1-1.1,10.5
			c-3.1-0.1-4.7-0.2-7.7-0.2c1-12.2,2.6-24.3,5.4-36.2c3.2-0.6,4.8-0.9,8.1-1.6c0.3,4.2,0.5,6.4,1,11c0.9-4.8,1.4-7.1,2.4-11.7
			c3.3-0.6,5-0.9,8.4-1.6c-2.8,13.5-4.9,27-6.4,40.7C628.9,620.8,627.3,620.7,624.1,620.6z M649.4,586c-1.6,8.7-2.9,17.3-4.1,26.1
			c1.4,0,2.1,0,3.6,0c0.4-2.9,0.6-4.3,1-7.1c3.7-0.1,5.5-0.2,9.4-0.3c-0.8,5.8-1.6,11.6-2.3,17.4c-7.2-0.4-14.3-0.7-21.5-1
			c1.5-13.9,3.6-27.8,6.5-41.5c7.3-1.4,14.6-2.7,21.9-4.1c-1.1,6.5-2.2,13-3.2,19.5c-3.9,0.3-5.7,0.5-9.4,0.8
			c0.7-4.2,1-6.3,1.7-10.3C651.6,585.7,650.8,585.8,649.4,586z M688.4,625.1l-13.1-2.1c0,0,1.7-12.4,2.5-18.5
			c-1.7,0-2.5,0.1-4.2,0.1c-0.9,6.1-1.7,12.1-2.6,18.2c-4.2-0.2-6.2-0.3-10.1-0.5c2-15.9,4.3-31.7,6.8-47.5c3.8-0.7,5.8-1.1,9.8-1.8
			c-0.9,6.7-1.8,13.4-2.6,20.1c1.8-0.1,2.7-0.2,4.5-0.4c1.1-6.9,2.1-13.8,3.2-20.7c3.6-0.7,8.4-1.7,8.4-1.7L688.4,625.1z"/>
		<path class="st8" d="M570.4,570.6c5.4-0.6,10.8-1.3,16.3-1.9c0,2.4,0,3.6,0,6.7c-1.8,0.3-2.6,0.4-4.4,0.7c0-1.9,0-2.7,0-4.3
			c-3.9,0.5-7.9,1-11.8,1.6c0.1,4.8,0,9.7-0.1,14.5c9-1.9,18-3.7,26.9-5.6c0.2-6.8,0.3-13.6,0.3-20.3c-5.1,0.4-10.2,0.8-15.3,1.2
			c0-2.5,0-3.8,0-7c1.8-0.1,2.7-0.1,4.5-0.2c0,1.9,0,2.7,0,4.3c3.6-0.2,7.2-0.5,10.9-0.7c0-4.3,0.1-8.6,0.1-13
			c-9,0-18.1-0.1-27.1-0.1C570.3,554.5,570.3,562.5,570.4,570.6z"/>
		<path class="st8" d="M615.6,546.6c-0.1,8,0,16-0.1,24c-1.5,0.3-2.3,0.4-3.8,0.6c0.1-8.2,0-16.4,0.1-24.7c-3.9,0-5.9,0-10,0
			c-0.2,11.6-0.1,23.2-0.4,34.8c7.8-1.7,15.6-3.3,23.4-5c0.1-9.9,0-19.7,0-29.6C621.2,546.6,619.4,546.6,615.6,546.6z"/>
		<path class="st8" d="M691,547l-17.4-0.1l-0.1,18.4l7-1.7l0.1-6.2c0,0,1.7-0.2,2.8-0.4c0.1,1.6,0,6,0,6l7.5-1.7v-4.4l-2.3-1.1
			l2.3-1.2L691,547z M683.4,554.3l-2.9,0.4v-3.2l2.9-0.1V554.3z"/>
		<polygon class="st8" points="651.5,570.1 670.3,565.9 670.3,561.3 660.1,562.7 660.1,560.5 670.4,559.2 670.4,554.1 660.2,555 
			660.2,552.6 670.4,552.1 670.4,546.9 651.6,546.8 		"/>
		<path class="st8" d="M628.5,575.6c3.6-0.8,8.6-1.9,8.6-1.9v-10.1l11.6-1.5l0.1-15.1c-6.7,0-13.7-0.1-20.3-0.1
			C628.4,556.4,628.5,566,628.5,575.6z M637.1,553.7l3.4-0.2v4l-3.4,0.3V553.7z"/>
		<path class="st8" d="M606.6,532.2v10.5h7.6l1.1-2.3h-6.1v-8.2H606.6z"/>
		<path class="st8" d="M635.5,540.7l1,2.1h3l-5.3-10.5H632l-5.3,10.5h3l1-2.1H635.5z M634.5,538.5h-2.8l1.4-3.1L634.5,538.5z"/>
		<path class="st8" d="M654.7,532.2h-2.6v7.4c0,1.2,0.2,1.9,0.7,2.4s1.2,0.8,2.4,0.8h4.2c1.2,0,1.9-0.2,2.4-0.8
			c0.5-0.5,0.7-1.2,0.7-2.4v-7.4h-2.6v7.5c0,0.6-0.2,0.8-0.9,0.8h-3.4c-0.7,0-0.9-0.2-0.9-0.8L654.7,532.2z"/>
		<polygon class="st8" points="625.7,534.5 625.7,532.2 616.5,532.2 616.6,542.7 616.6,542.7 616.6,542.7 625.7,542.7 625.7,540.4 
			619.2,540.4 619.2,538.7 623.2,538.7 624.3,536.4 619.2,536.4 619.2,534.5 		"/>
		<polygon class="st8" points="673.4,534.5 673.4,532.2 664.2,532.2 664.2,542.7 664.2,542.7 664.2,542.7 673.4,542.7 673.4,540.4 
			666.8,540.4 666.8,538.7 670.9,538.7 671.9,536.3 666.8,536.3 666.8,534.5 		"/>
		<path class="st8" d="M645.9,536.5l-1.1,2.3h3.1v0.9c0,0.6-0.2,0.8-0.9,0.8h-3.4c-0.7,0-0.9-0.2-0.9-0.8v-4.4
			c0-0.6,0.2-0.8,0.9-0.8h3.4c0.6,0,0.9,0.1,0.9,0.6h2.6c-0.1-0.9-0.3-1.7-0.7-2.1c-0.5-0.5-1.2-0.7-2.4-0.7h-4.2
			c-1.2,0-1.9,0.2-2.4,0.8c-0.5,0.5-0.7,1.2-0.7,2.4v4.3c0,1.2,0.2,1.9,0.7,2.4s1.2,0.8,2.4,0.8h4.2c1.2,0,1.9-0.2,2.4-0.7
			s0.7-1.2,0.7-2.4v-3.2L645.9,536.5z"/>
		<polygon class="st8" points="593.6,534.3 603.7,534.4 604.8,532.1 593.8,532 594.3,532.9 		"/>
		<polygon class="st8" points="600.2,538.7 601.3,536.4 590.7,536.4 589.6,538.7 		"/>
		<polygon class="st8" points="592.1,540.2 591.4,541.7 590.3,542.5 601.6,542.6 602.7,540.3 		"/>
	</g>
	<g id="Shirt_x5F_designs">
		<g>
			<path class="st10" d="M428.5,669.8c0.7-3.2,1.4-6.3,2-9.5c0.5-2.4,0.8-4.9,1.2-7.4c0.1-0.6,0.5-1.2,0.8-1.8
				c24.6,21.9,52.5,31.4,85.6,23.6c-2.3,9-4.4,17.6-6.6,26.2c-7,0-14,0-21,0c-1.1-0.3-2.1-0.8-3.2-0.9c-7.6-0.5-15.1-2-22.4-4.2
				c-12.3-3.8-23.4-9.4-32.1-19.1c-1.4-1.6-2.8-3.2-4.2-4.7C428.5,671.1,428.5,670.5,428.5,669.8z"/>
			<path class="st10" d="M869.5,638.8c-3.9,1.2-8,2.1-11.8,3.6c-21.6,8.6-40.9,20.6-57.3,37.2c-0.4,0.4-1,0.8-1.8,1.5
				c-3.8-6.9-7.5-13.5-11.2-20c8.4-13.9,41.6-38,72.6-41.8c1.4,2.7,2.9,5.6,4.5,8.5c1.6,3,3.3,6,5,9
				C869.5,637.5,869.5,638.1,869.5,638.8z"/>
			<path class="st10" d="M783.6,489.3c-1.9,4.1-3.6,8-5.4,11.9c-1.7,3.8-3.5,7.5-5.2,11.3c-0.5,1-1,2.1-1.7,3
				c-1,1.3-2.2,2.6-4.2,1.6c-1.9-1-2.8-2.7-2.3-4.9c0.2-0.8,0.5-1.6,0.8-2.4c3.5-7.5,7-15,10.6-23
				C778.7,487.7,781,488.5,783.6,489.3z"/>
			<path class="st10" d="M761.3,481.6c2.1,0.7,4.1,1.4,6.6,2.3c-1.5,3.4-3,6.5-4.4,9.6c-2,4.6-3.9,9.2-6,13.7
				c-0.5,1.2-1.3,2.3-2.2,3.2c-1,0.9-2.3,1.3-3.7,0.6c-1.6-0.8-2.2-2-2.1-3.6c0-0.7,0.1-1.4,0.4-1.9c3.4-7.6,6.8-15.1,10.3-22.7
				C760.2,482.4,760.6,482.2,761.3,481.6z"/>
			<path class="st10" d="M748.5,477.2c-0.7,1.8-1.2,3.4-1.8,4.9c-1.9,4.6-3.8,9.2-5.8,13.7c-0.7,1.7-1.4,3.4-2.3,4.9
				c-1.2,2-3.3,2.7-5,1.9c-1.5-0.7-2.4-2.8-1.8-4.7c0.4-1.4,1.1-2.8,1.7-4.1c2.5-5.9,5-11.9,7.7-18.3
				C743.5,476.1,745.8,476.6,748.5,477.2z"/>
			<path class="st10" d="M490.2,494.3c2.3-0.8,4.5-1.5,7-2.4c2.9,6.5,5.8,12.8,8.5,19.2c1.6,4,1,4.7-3.9,6.6c-1-1.2-2.5-2.4-3.2-4
				c-2.7-5.5-5.1-11.2-7.6-16.8C490.6,496.2,490.5,495.4,490.2,494.3z"/>
			<path class="st10" d="M505.7,489.2c2.6-0.8,4.8-1.5,7.3-2.3c1.5,3.4,3,6.7,4.4,10c1.1,2.4,2.1,4.9,3.1,7.3
				c0.3,0.8,0.7,1.5,0.8,2.3c0.4,2.2-0.4,3.7-2.2,4.5c-1.9,0.8-3.2-0.1-4.4-1.4c-0.6-0.7-1.1-1.7-1.5-2.6
				C510.9,501.2,508.4,495.4,505.7,489.2z"/>
			<path class="st10" d="M524.8,483.3c2.8-1,4.9-1.7,7.3-2.6c2.4,5.7,4.9,11.3,7.2,16.9c0.8,2.1-0.3,4.4-2,5.1
				c-1.9,0.7-3.9,0-4.9-2.2C529.8,495,527.4,489.4,524.8,483.3z"/>
			<path class="st10" d="M723.2,469.7c2.7,0.8,5,1.5,7.4,2.3c-1.6,3.9-3,7.4-4.5,10.9c-0.5,1-1,2.3-1.9,2.8c-1,0.7-2.4,1-3.6,0.9
				c-1.4-0.1-2.2-1.5-2.2-2.9c0.1-1.5,0.3-3,0.8-4.3C720.4,476.3,721.7,473.3,723.2,469.7z"/>
			<path class="st10" d="M713.9,467c-0.9,2.9-1.4,5.5-2.4,7.9c-0.9,2.1-2.7,3.1-4.2,2.7c-1.8-0.5-3.2-2.4-2.7-4.7
				c0.5-2.7,1.4-5.3,2.1-8.2C709.2,465.5,711.4,466.2,713.9,467z"/>
			<path class="st10" d="M549.9,474.9c0.7,1.7,1.5,3.1,2,4.7c0.4,1.1,0.6,2.2,0.7,3.3c0.2,1.6-0.4,3-2,3.6c-1.7,0.7-3.4,0.2-4.4-1.4
				c-1.5-2.3-2.9-4.7-2.9-7.9C545.5,476.6,547.6,475.8,549.9,474.9z"/>
			<path class="st10" d="M558.8,472.3c2.2-0.7,4.3-1.4,6.4-2.1c1.9,3.7,1.5,6.1-1,7.2C562,478.4,560.2,476.8,558.8,472.3z"/>
		</g>
	</g>
</g>
<g id="Earings">
	
		<linearGradient id="SVGID_23_" gradientUnits="userSpaceOnUse" x1="772.2432" y1="1844.5433" x2="810.1034" y2="1844.5433" gradientTransform="matrix(1 0 0 -1 0 2193.9399)">
		<stop  offset="0" style="stop-color:#46E4E8"/>
		<stop  offset="1" style="stop-color:#FB12FE"/>
	</linearGradient>
	<path class="st53" d="M778,332.8l-5.7,32c-0.5,2.7,2.4,4.8,4.8,3.6l31.2-16c2.3-1.2,2.4-4.4,0.3-5.8l-25.5-16
		C781.1,329.3,778.4,330.4,778,332.8z"/>
	
		<linearGradient id="SVGID_24_" gradientUnits="userSpaceOnUse" x1="1070.2551" y1="1844.5433" x2="1108.1154" y2="1844.5433" gradientTransform="matrix(-1 0 0 -1 1582.3721 2193.9399)">
		<stop  offset="0" style="stop-color:#46E4E8"/>
		<stop  offset="1" style="stop-color:#FB12FE"/>
	</linearGradient>
	<path class="st54" d="M506.4,332.8l5.7,32c0.5,2.7-2.4,4.8-4.8,3.6l-31.2-16c-2.3-1.2-2.4-4.4-0.3-5.8l25.5-16
		C503.3,329.3,505.9,330.4,506.4,332.8z"/>
</g>
</svg>
