<?xml version="1.0" encoding="utf-8"?>
<!-- Generator: Adobe Illustrator 24.0.1, SVG Export Plug-In . SVG Version: 6.00 Build 0)  -->
<svg version="1.1" id="Layer_1" xmlns="http://www.w3.org/2000/svg" xmlns:xlink="http://www.w3.org/1999/xlink" x="0px" y="0px"
	 viewBox="0 0 1262.3 2193.9" style="enable-background:new 0 0 1262.3 2193.9;" xml:space="preserve">
<style type="text/css">
	.st0{fill:#82503A;}
	.st1{fill:none;}
	.st2{fill:#73402B;}
	.st3{fill:#5E331F;}
	.st4{fill:#FFFFFF;}
	.st5{fill:#F7FAF4;}
	.st6{clip-path:url(#SVGID_2_);}
	.st7{fill:#311818;}
	.st8{clip-path:url(#SVGID_4_);}
	.st9{fill:#191919;}
	.st10{fill:url(#SVGID_5_);}
	.st11{fill:#403830;}
	.st12{fill:url(#SVGID_6_);}
	.st13{fill:url(#SVGID_7_);}
	.st14{fill:url(#SVGID_8_);}
	.st15{fill:url(#SVGID_9_);}
	.st16{fill:url(#SVGID_10_);}
	.st17{fill:#4D6D80;}
	.st18{fill:#3B5B6E;}
	.st19{fill:#2E303B;}
	.st20{fill:#3D3A37;}
	.st21{fill:#3D3F4C;}
	.st22{fill:#A7C3C0;}
	.st23{fill:url(#SVGID_11_);}
	.st24{fill:url(#SVGID_12_);}
	.st25{fill:#2D2D2D;}
	.st26{fill:#4B4A4B;}
	.st27{fill:#5CA2D8;}
	.st28{fill:#438DB2;}
	.st29{fill:#414141;}
	.st30{fill:#3E3E3D;}
	.st31{fill:url(#SVGID_13_);}
	.st32{fill:url(#SVGID_14_);}
	.st33{fill:url(#SVGID_15_);}
	.st34{fill:url(#SVGID_16_);}
	.st35{fill:url(#SVGID_17_);}
	.st36{fill:url(#SVGID_18_);}
	.st37{fill:url(#SVGID_19_);}
	.st38{display:none;}
	.st39{display:inline;fill:url(#SVGID_20_);}
	.st40{display:inline;fill:#FFFFFF;}
	.st41{fill:#FB12FE;}
	.st42{fill:url(#SVGID_21_);}
	.st43{fill:url(#SVGID_22_);}
	.st44{fill:url(#SVGID_23_);}
	.st45{fill:url(#SVGID_24_);}
	.st46{fill:url(#SVGID_25_);}
	.st47{fill:url(#SVGID_26_);}
	.st48{fill:#46E4E8;}
	.st49{opacity:0.61;fill:#2C5280;enable-background:new    ;}
	.st50{fill:#F5FDFF;}
	.st51{fill:#293F59;}
</style>
<g id="Body">
	<path class="st0" d="M1057.3,543.5c-12.7-46.6-35.3-72-49.4-58.6c-5.9,5.6,0.2,18.3,7.6,29.6c-6.4-7.2-14.3-12.9-23.8-10.5
		c-3.9,1-9.3,5-7.8,11.3c1.9,7.7,11.3,16.5,11.3,16.5c-26.1-22.1-36.7-13.6-39.5-2.3c-0.5,2-0.9,4-1.1,6c-3.6,0-7.2,0.2-10.7,0.6
		c0,0,1.9-16.5-14.6-14.6s-13.5,28.8-26.2,48.9s-9.5,56.1-9.5,56.1l-16.9,75.2c-4.2-5.7-90.3-122.8-90.3-122.8
		c-28.8-37.4-97.4-57.8-133.4-65.4c-17-3.6-38.5-5.2-38.5-5.2l1.4-46.6c0,0-4.6-25.4-40.9-25.4c-31.1,0-34.1,29.6-34.1,29.6
		l-1.4,42.4l-30.8,9.4l-38.3,10.7c-57.9,4.2-99.2,43.3-128.8,80.1c-4.8,5.9-175.1,169.4-175.1,169.4c-27,19-40.6,64.3-46.6,120
		c-35.3,70.6,19.8,111.5,39.5,117.2s18.4-8.5,18.4-8.5c25.4-1.4,24-21.2,24-21.2c26.8-4.2,25.4-28.2,25.4-28.2
		c25.4-1.4,19.8-25.4,19.8-25.4c43.8-2.8,70.6-29.6,62.1-43.8s-15.5-9.9-31.1-1.4s-31.1-4.2-31.1-4.2c25.4-29.6,14.1-59.3,14.1-59.3
		c70.6-33.9,159.5-117.2,159.5-117.2C409.3,792,405.1,1008,405.1,1008c-46.6,138.3-19.8,506.1-24,538.6s2.1,408.7,2.1,408.7
		c-11.6,13.8-56.1,104.8-56.1,104.8c-56.1,22.2-70.9,49.8-70.9,49.8c-13.8,26.5,22.6,22.9,27.5,14.8c2.5,19.4,17.3,10.2,29.6,0
		c0,29.6,33.5,1.1,33.5,1.1c-6.4,20.1,24.4,18.1,37.5,2.2c0,0,24.5-2.8,33.8-40.4c2.9-11.7,21.2-1.1,50.8-27.5s-1.1-103.8-1.1-103.8
		s14.8-55.1,39.2-195.9s-3.2-211.8-3.2-211.8c9.5-40.2,68.8-399.2,68.8-399.2c15.9,159.9,82.6,389.7,82.6,389.7
		c-35.6,136.6,59.3,422.5,59.3,422.5s-30.7,36-28.6,77.3c2.1,41.3,55.1,42.3,68.8,42.3s20.1,14.8,20.1,14.8
		c13.8,24.4,47.3,41.3,47.3,41.3c28.9,15.5,36.7-5.6,36.7-5.6c14.8,19.1,33.5,6.7,33.5,6.7c19.1,10.6,28.6-11.6,28.6-11.6
		c16.9,6.4,20.1-12.7,20.1-12.7c1.1-24.4-28.6-29.6-28.6-29.6c-14.8-5.3-64.6-34.9-64.6-34.9s-48.7-76.2-51.9-81.5s-1.1-9.5-1.1-9.5
		c-10.6-313.4-30.7-426.7-30.7-426.7c16.2-453.2-19.1-529.4-19.1-529.4c7.4-81.5,2.8-278.1,2.8-278.1s5.4,9.5,27,35.5
		c20.3,24.5,40.4,49.8,79.2,89.6c86.8,88.9,111.2,10.6,120.7-20.1s-4.8-180.3-4.8-180.3s70.4-38.3,80.7-48.2
		C1064.6,587.5,1061.4,558.6,1057.3,543.5z"/>
	<path class="st1" d="M893.5,626.5"/>
	<path class="st1" d="M756.2,748.2l-14.1-24.1C742.1,724.1,745.6,732.2,756.2,748.2z"/>
	<path class="st1" d="M406.7,1561.7c-0.9-1.8-0.2-4,1.6-5c0.9-0.5,2.1-0.5,3.1-0.1c8.8,3.6,23.6,6.8,42.8-0.3c1.9-0.7,4,0.3,4.7,2.2
		c0.4,1.2,0.2,2.6-0.7,3.6C445.9,1576.3,423.4,1594.3,406.7,1561.7z M440.4,2024.5c0,0,22.6-21.2,15.5-46.6
		C455.9,1977.9,494,2027.3,440.4,2024.5z M718.5,1992c0,0,2.8,25.4,24,31.1C742.5,2023.1,693.1,2052.7,718.5,1992z M742.5,1551.8
		c-16.8,32.6-39.2,14.6-51.5,0.4c-1.3-1.5-1.2-3.9,0.4-5.2c1-0.9,2.4-1.1,3.7-0.7c19.2,7.1,34,4,42.8,0.3c1.9-0.7,4,0.2,4.8,2.1
		C743,1549.8,742.9,1550.9,742.5,1551.8L742.5,1551.8z"/>
	<path class="st1" d="M922.7,2127.4l-1.6-0.6C921.6,2127,922.2,2127.2,922.7,2127.4z"/>
	<path class="st1" d="M283.6,2124.7l-3.7,3C281.4,2127,282.7,2126,283.6,2124.7z"/>
	<path class="st1" d="M943.5,530.2c0.3,3.3,0.4,5.8,0.4,5.8C944,534,943.9,532.1,943.5,530.2z"/>
	<path class="st2" d="M237.1,792.7c22.2,9.5,24,30.3,24,30.3c7.7-3.7,15.7-8,23.7-12.7C263.8,786.8,237.1,792.7,237.1,792.7z"/>
	<path class="st2" d="M862.1,786.2c-10.4-36.4,6.2-84.3,6.2-84.3c-1-1.4-7-9.5-15.4-20.9C831.6,754.7,862.1,786.2,862.1,786.2z"/>
	<path class="st2" d="M943.9,536c0,0-0.1-2.6-0.4-5.8c-1.1-4.5-4.4-9.9-14.2-8.8c-16.5,1.9-13.5,28.8-26.2,48.9
		c-12.5,19.8-9.6,55-9.5,56.1c-0.1-1.5-3-40.3,30.7-46.7l7,10.5l1.5-11.4l1.7-14.8C907.7,554.1,921.8,535.8,943.9,536z"/>
	<path class="st2" d="M392.8,730.3c16.7-14.3,27.3-24.3,27.3-24.3l9.9-68C430.1,638.1,410.6,696.1,392.8,730.3z"/>
	<path class="st2" d="M748.1,724.2c0,0,23.3,30.3,27,35.5c-13.2-34-31.2-101.9-31.2-101.9L748.1,724.2z"/>
	<path class="st2" d="M652.9,513.5c-17.4-2.8-38.5-5.2-38.5-5.2l1.4-46.6c0,0-4.6-25.4-40.9-25.4c-31.1,0-34.1,29.6-34.1,29.6
		l-1.4,42.4l-30.8,9.4C526.8,528.7,585.9,557.2,652.9,513.5z"/>
	<path class="st2" d="M281.5,899.7C254,911.3,216.9,888,216.9,888s5.3,9.5,3.2,15.9l26.8,27.9c43.3-2.8,70-29.1,62.3-43.3
		C304.7,887.9,296.6,893.3,281.5,899.7z"/>
	<path class="st2" d="M227.2,957.2c6-0.3,10.3-2,13.4-4.2c-16.2-10.3-51-32-51-32L227.2,957.2z"/>
	<path class="st2" d="M201.8,985.4c4.4-0.6,8.7-2.1,12.5-4.3c-16.3-12.2-51.6-39-51.6-39L201.8,985.4z"/>
	<path class="st2" d="M177.8,1006.6c6.4-0.3,11-1.8,14.5-3.9c-15.9-10.7-51.6-35.2-51.6-35.2L177.8,1006.6z"/>
	<path class="st2" d="M229.1,858.4c-7.3-0.1-14.6,0.9-21.6,2.8c24.4,0.3,39.5,21.2,39.5,21.2c12-14.1,15.8-28.1,16.5-39
		C256.8,853.7,247.6,858.4,229.1,858.4z"/>
	<path class="st2" d="M203.2,861.5c0,0-29.2-9.3-60.4,13.8c0,0-8.7-19.9-10.4-42.6c-5.9,18.9-10,41.1-12.6,65.2
		c-8.6,17.2-11.8,32.7-11.5,46.3c1.3-11.4,7.1-28.9,27-48.8C170.4,860.5,203.2,861.5,203.2,861.5z"/>
	<path class="st2" d="M657.5,1085.1c-55.3,24.8-102.7,28.6-159.2,3.6c-1.7-0.8-3.7,0-4.5,1.7c-0.5,1.2-0.3,2.6,0.5,3.6
		c35,42.9,78.4,55.6,78.4,55.6c52.9-12.4,78.9-43.8,89-59.5c1-1.6,0.5-3.7-1.1-4.7C659.7,1084.8,658.5,1084.7,657.5,1085.1z"/>
	<path class="st2" d="M458.2,1562.1c1.3-1.5,1.2-3.9-0.4-5.2c-1-0.9-2.4-1.1-3.6-0.7c-19.2,7.1-34,4-42.8,0.3c-1.9-0.8-4,0.2-4.8,2
		c-0.4,1-0.3,2.1,0.1,3.1C423.4,1594.3,445.9,1576.3,458.2,1562.1z"/>
	<path class="st2" d="M737.8,1546.7c-8.8,3.6-23.7,6.8-42.8-0.3c-1.9-0.7-4,0.3-4.7,2.2c-0.5,1.3-0.2,2.7,0.7,3.7
		c12.3,14.2,34.8,32.1,51.5-0.4c0.9-1.8,0.2-4-1.6-5C739.9,1546.4,738.8,1546.3,737.8,1546.7z"/>
	<path class="st2" d="M444.1,2024.6c36.9,0.3,24.1-27.5,16.1-40.3c-0.5-0.8-1.5-1-2.3-0.5c-0.5,0.3-0.8,0.9-0.8,1.5
		c1.2,16.9-9.3,30.9-14.3,36.5c-0.6,0.7-0.6,1.7,0.1,2.4C443.3,2024.4,443.7,2024.6,444.1,2024.6z"/>
	<path class="st2" d="M715.7,1999c-14.9,41,11,31.9,22.1,26.5c1.1-0.6,1.6-1.9,1.1-3.1c-0.2-0.5-0.6-0.9-1.1-1.1
		c-10.6-4.9-15.5-15.2-17.7-22.2c-0.4-1.2-1.7-1.9-2.9-1.5C716.5,1997.8,716,1998.3,715.7,1999z"/>
	<path class="st2" d="M361.6,2107.2c-8.3,1.9-20.6,7.9-26,26.4c3.9-2.3,7.7-4.9,11.2-7.8c3.8-6.7,9.2-12.2,15.8-16.2
		c0.6-0.4,0.8-1.1,0.5-1.8C362.8,2107.3,362.2,2107,361.6,2107.2z"/>
	<path class="st2" d="M325.2,2102.2c-7.5,3.7-17.9,12-21.6,29.8c3.4-2.2,6.7-4.6,9.8-7.2c0,0,2.4-12.9,12.8-21.1
		c0.4-0.3,0.5-0.8,0.2-1.2C326,2102.1,325.5,2102,325.2,2102.2z"/>
	<path class="st2" d="M297.7,2100.4c-7.9,3.8-19.2,12.1-22.1,29.1c1.5-0.4,3-1,4.5-1.7l3.7-3c0,0,3.8-13.6,15-22.8
		c0.4-0.3,0.6-0.9,0.3-1.3C298.7,2100.2,298.1,2100.1,297.7,2100.4z"/>
	<path class="st2" d="M841.3,2118.7c11.3,5.7,17.3,18.7,17.3,18.7c2.4,3.4,5.8,6,9.6,7.6c-3.2-20.1-17.1-26.2-26.3-28
		c-0.5-0.1-1,0.3-1,0.8C840.8,2118.1,841,2118.5,841.3,2118.7z"/>
	<path class="st2" d="M880.1,2117.8c10.5,7.1,12.3,20.6,12.3,20.6c4.8,2.7,9,3.3,12.6,2.6c-4.5-15.2-16.5-21.8-24.3-24.5
		c-0.4-0.1-0.8,0.1-0.9,0.5C879.8,2117.4,879.9,2117.7,880.1,2117.8z"/>
	<path class="st2" d="M902.1,2108.8c11.4,4,18.9,18,18.9,18l1.6,0.6c4.7,1.4,8.3,0.7,11-0.9c-8.4-17.2-23.4-19.4-31.3-19.2
		c-0.4-0.1-0.9,0.2-0.9,0.7S901.7,2108.7,902.1,2108.8z"/>
	<path class="st2" d="M440.6,770.1c34.4,12.9,164.9,54.5,286.3-2.8c3.5-1.7,7.7-0.2,9.4,3.4c0.4,0.9,0.7,1.9,0.7,2.9l1.1,66
		c0.1,3.9-3,7.1-6.9,7.2c-0.6,0-1.1,0-1.6-0.2c-39.1-8.7-200.7-40.4-293.6,3.3c-3.5,1.7-7.7,0.3-9.4-3.2c-0.6-1.2-0.8-2.4-0.7-3.7
		l5.3-66.8c0.3-3.9,3.6-6.8,7.4-6.5C439.3,769.7,440,769.8,440.6,770.1z"/>
	<path class="st1" d="M943.9,536l10.7-0.6C951,535.4,947.4,535.6,943.9,536z"/>
	<path class="st2" d="M967.7,589.4c0,0,4.9,3.5,0-36c-1-7.8-5.9-14.6-13.1-18l-10.7,0.6C960.3,537.7,967.7,589.4,967.7,589.4z"/>
	<path class="st2" d="M995.7,542.8c5.6,16.2,9.3,41.7,9.3,41.7s4.9-8.5-0.7-40.9c-0.8-4.7-6.9-10.1-10.1-12.7
		c0.6,0.6,0.9,0.9,0.9,0.9c-7.5-6.3-13.6-10.1-18.7-12.1C984.8,526.4,994.1,538.3,995.7,542.8z"/>
	<path class="st2" d="M1015.5,514.5c10.4,9.8,14.3,48.1,14.3,48.1s5.7-8.5-0.5-40.9c-1.6-8.5-17.4-25-23.7-31.3
		C1005.1,496.8,1009.9,506.1,1015.5,514.5z"/>
	<path class="st2" d="M966.9,606.4c0,0-8.5,12-21.9,10.6C945.1,616.9,964.1,632.5,966.9,606.4z"/>
	<path class="st2" d="M1004.3,593.7c0,0-8.5,12-21.9,10.6C982.5,604.2,1001.5,619.8,1004.3,593.7z"/>
	<path class="st2" d="M1036.3,571.1c0,0-4.7,13.9-17.9,16.4C1018.4,587.5,1041.1,596.9,1036.3,571.1z"/>
</g>
<g id="Head">
	<path class="st2" d="M458.9,368.9c-23.6,8.4-48.5-23.7-34.9-39c8.6-9.7,25,7.1,29.2,11.8l-2.4-11.6c0,0-13.9-31.9-33-20.7
		s-14.4,38-7.5,51.5s30.7,41.2,51.4,21.6L458.9,368.9z"/>
	<path class="st3" d="M424,329.9c-13.6,15.3,11.2,47.4,34.9,39l-5.6-27.2C449,337,432.7,320.2,424,329.9z"/>
	<path class="st2" d="M698.1,368.9c23.7,8.4,48.5-23.7,34.9-39c-8.7-9.7-25,7.1-29.2,11.8l2.4-11.6c0,0,13.9-31.9,33-20.7
		s14.4,38,7.5,51.5s-30.7,41.2-51.4,21.6L698.1,368.9z"/>
	<path class="st3" d="M733,329.9c13.6,15.3-11.2,47.4-34.9,39l5.7-27.2C708,337,724.3,320.2,733,329.9z"/>
	<path class="st0" d="M578.2,133.3c-160,2.8-143.4,165.1-143.4,165.1s-2.8,87.6,7.8,118.7s35.3,41.6,74.8,55.1
		c0,0,18.3,24,60.7,22.6h0.2c42.4,1.4,60.7-22.6,60.7-22.6c39.5-13.4,64.2-24,74.8-55.1s7.8-118.7,7.8-118.7
		S738.2,136.1,578.2,133.3z"/>
	<path class="st2" d="M533.8,468.9c33.9,7.7,54.9,8.6,89.2,0C623,468.9,579.4,503.5,533.8,468.9z"/>
</g>
<g id="Nose">
	<path class="st2" d="M575.5,318.3c-0.5-0.7-0.4-1.6,0.2-2.2c0.5-0.4,1.1-0.5,1.7-0.2c4.6,2.2,10.5,5.5,12.6,8.8
		c3.5,5.6,17.7,38.8,13.4,45.9c-2.8,4.7-16.8,10.9-25.9,14.6c-1.1,0.4-2.3-0.1-2.7-1.2c-0.3-0.8-0.1-1.7,0.5-2.2
		c5.7-5.3,13.3-12.6,13.3-16.8c0-7.1-6.3-38.1-6.3-38.1L575.5,318.3z"/>
	<path class="st2" d="M570.2,375.5c0,0-12-12.7-13.4-7.1S570.2,375.5,570.2,375.5z"/>
</g>
<g id="Mouth">
	<path class="st4" d="M533.1,414.5c0,0,42.3-18.4,89.6,0C622.8,414.5,576.2,482.3,533.1,414.5z"/>
	<path class="st2" d="M533.1,414.5c0,0,43.8-8.5,89.6,0C622.8,414.5,583.2,385.6,533.1,414.5z"/>
	<path class="st2" d="M533.1,414.5c0,0,38.1,52.2,89.6,0c0,0-8.5,32.5-45.9,33.2C542.7,448.4,533.1,414.5,533.1,414.5z"/>
</g>
<g id="Eyes_x5F_02">
	<path class="st5" d="M459,303.8c10.5,9.3,17.5,11.6,27.9,14.5c0,0,38.1,2.5,53.7-1.4l3.5-7.4C544.1,309.5,501.7,266.4,459,303.8z"
		/>
	<g>
		<g>
			<defs>
				<path id="SVGID_1_" d="M459,303.8c10.5,9.3,17.5,11.6,27.9,14.5c0,0,38.1,2.5,53.7-1.4l3.5-7.4
					C544.1,309.5,501.7,266.4,459,303.8z"/>
			</defs>
			<clipPath id="SVGID_2_">
				<use xlink:href="#SVGID_1_"  style="overflow:visible;"/>
			</clipPath>
			<g class="st6">
				<circle cx="504" cy="304.7" r="21"/>
			</g>
		</g>
	</g>
	<path class="st7" d="M544.1,309.5c0,0-15.5-27.5-62.8-27.2c0,0-20.1,16.6-22.2,20.5l26.8-10.6C485.8,292.2,523.9,297.1,544.1,309.5
		z"/>
	<path class="st5" d="M701.1,303.8c-10.5,9.3-17.5,11.6-27.9,14.5c0,0-38.1,2.5-53.6-1.4l-3.5-7.4
		C616.1,309.5,658.4,266.4,701.1,303.8z"/>
	<g>
		<g>
			<defs>
				<path id="SVGID_3_" d="M701.1,303.8c-10.5,9.3-17.5,11.6-27.9,14.5c0,0-38.1,2.5-53.6-1.4l-3.5-7.4
					C616.1,309.5,658.4,266.4,701.1,303.8z"/>
			</defs>
			<clipPath id="SVGID_4_">
				<use xlink:href="#SVGID_3_"  style="overflow:visible;"/>
			</clipPath>
			<g class="st8">
				<circle cx="656.1" cy="304.7" r="21"/>
			</g>
		</g>
	</g>
	<path class="st7" d="M616.1,309.5c0,0,15.5-27.5,62.8-27.2c0,0,20.1,16.6,22.2,20.5l-26.8-10.6
		C674.3,292.2,636.2,297.1,616.1,309.5z"/>
</g>
<g id="Eyebrow">
	<path d="M549.5,288.4c0,0-12.8-33.4-53.8-33.4c-31.8,0-38.8,25.4-38.8,25.4s14.1-9.9,35.3-9.2C534.5,272.6,549.5,288.4,549.5,288.4
		z"/>
	<path d="M612.2,288.4c0,0,12.8-33.4,53.8-33.4c31.8,0,38.8,25.4,38.8,25.4s-14.1-9.9-35.3-9.2C627.3,272.6,612.2,288.4,612.2,288.4
		z"/>
</g>
<g id="Shoes">
	<path d="M257.5,2138.8c0,2.1,13.4,18.4,13.4,18.4l11.3-14.8L257.5,2138.8z"/>
	<path d="M299.2,2139.5c0,2.1,13.4,18.4,13.4,18.4l11.3-14.8L299.2,2139.5z"/>
	<path d="M345.8,2131.1c0,2.1,13.4,18.4,13.4,18.4l11.3-14.8L345.8,2131.1z"/>
	<path d="M378.9,2116.2c0,2.1,20.5,17.6,20.5,17.6l4.2-19.8L378.9,2116.2z"/>
	<path d="M402.9,2091.5c0,2.1,20.5,17.6,20.5,17.6l4.2-19.8L402.9,2091.5z"/>
	<path d="M430.5,2073.9c0,2.1,20.5,17.6,20.5,17.6l4.2-19.8L430.5,2073.9z"/>
	<path d="M463.6,2059.1c0,2.1,20.5,17.6,20.5,17.6l4.2-19.8L463.6,2059.1z"/>
	<path class="st9" d="M426.8,2079.5c-38,48.1-87.1,59-121.6,59.6h-3.6c-18.3,0-36.6-2.6-54.3-7.5c1.2,3.1,3.1,5.9,5.7,8.1
		c6.7,5,55.8,18.8,113.3,0c15.5-5.1,55.8-29.8,64.2-54.5c0,0,55.6-13.1,65.2-33.2c0,0-0.1-2.1-0.4-5.7c-16.3,16-46.3,24.5-59.7,27.7
		C432.1,2074.8,429,2076.7,426.8,2079.5z"/>
	<path class="st9" d="M305.2,2133.1c48.2-1,87.5-20.3,116.8-57.3c3.1-3.8,7.3-6.5,12.1-7.6c14-3.3,46.8-12.6,60.4-30
		c-0.3-2.8-0.6-6-1-9.4c-26.2,21.7-68,28.2-68,28.2s-7.4,25.4-65.6,55.1s-116.5,2.1-116.5,2.1c0.3,3.6,0.8,7.1,1.6,10.6
		C264.6,2130.6,284.8,2133.5,305.2,2133.1z"/>
	
		<linearGradient id="SVGID_5_" gradientUnits="userSpaceOnUse" x1="245.1" y1="105.4398" x2="495.3" y2="105.4398" gradientTransform="matrix(1 0 0 -1 0 2193.9399)">
		<stop  offset="0.4535" style="stop-color:#FB12FE"/>
		<stop  offset="0.5045" style="stop-color:#D440F9"/>
		<stop  offset="0.5761" style="stop-color:#A27AF3"/>
		<stop  offset="0.6422" style="stop-color:#7AA8EE"/>
		<stop  offset="0.7007" style="stop-color:#5EC9EB"/>
		<stop  offset="0.7493" style="stop-color:#4CDDE9"/>
		<stop  offset="0.782" style="stop-color:#46E4E8"/>
	</linearGradient>
	<path class="st10" d="M434.2,2068.1c-4.8,1.1-9.1,3.8-12.1,7.6c-29.3,37.1-68.6,56.4-116.8,57.3c-20.4,0.3-40.7-2.5-60.2-8.4
		c0.5,2.4,1.3,4.7,2.2,6.9c17.7,5,35.9,7.5,54.3,7.5h3.6c34.5-0.6,83.6-11.5,121.6-59.6c2.2-2.8,5.3-4.7,8.8-5.5
		c13.4-3.2,43.4-11.7,59.7-27.7c-0.2-2.2-0.4-5-0.7-8.2C481,2055.5,448.1,2064.9,434.2,2068.1z"/>
	<path class="st11" d="M359.9,2112c58.2-29.6,65.6-55.1,65.6-55.1s41.9-6.5,68-28.2c-1.8-15.7-5.1-36.3-10.8-52.2l-11.6-12.7
		c0,0-27.5,20.1-47.6,27.5c0,0-31.8-30.7-58.2-18c-11.9,17.5-25.3,33.8-40.2,48.7c-33.1,33.3-78.5,72.2-81.5,92.1
		C243.4,2114.1,301.6,2141.6,359.9,2112z"/>
	<path class="st9" d="M311.3,2035.4c-30.7,29.8-65.3,61.4-67.9,78.7c0,0,58.2,27.5,116.5-2.1c9.8-4.9,19.2-10.4,28.3-16.5
		c-3.6-13.5-9.2-26.4-16.5-38.3C358.7,2035.7,333.9,2035.6,311.3,2035.4z"/>
	
		<linearGradient id="SVGID_6_" gradientUnits="userSpaceOnUse" x1="311.4" y1="164.3899" x2="482.1" y2="164.3899" gradientTransform="matrix(1 0 0 -1 0 2193.9399)">
		<stop  offset="0.3976" style="stop-color:#FB12FE"/>
		<stop  offset="0.4573" style="stop-color:#D440F9"/>
		<stop  offset="0.5411" style="stop-color:#A27AF3"/>
		<stop  offset="0.6185" style="stop-color:#7AA8EE"/>
		<stop  offset="0.6869" style="stop-color:#5EC9EB"/>
		<stop  offset="0.7437" style="stop-color:#4CDDE9"/>
		<stop  offset="0.782" style="stop-color:#46E4E8"/>
	</linearGradient>
	<path class="st12" d="M482.1,1975.8l-11.1-12.1c0,0-27.5,20.1-47.6,27.5c0,0-31.8-30.7-58.2-18c-11.9,17.5-25.3,33.8-40.2,48.7
		c-4.4,4.4-8.9,8.9-13.6,13.4c22.6,0.2,47.4,0.3,60.3,21.8c7.3,11.9,12.9,24.8,16.5,38.3c14.4-9.7,23.3-18.4,28.9-25
		c7.2-8.6,16.8-14.9,27.6-18l0.3-0.1C441.5,2022.9,456.5,1993.4,482.1,1975.8z"/>
	<path class="st9" d="M482.7,1976.5l-0.6-0.6c-25.6,17.6-40.6,47-37.2,76.6c14.4-4.1,34-11.5,48.6-23.7
		C491.7,2013,488.4,1992.4,482.7,1976.5z"/>
	
		<linearGradient id="SVGID_7_" gradientUnits="userSpaceOnUse" x1="319.541" y1="188.5434" x2="423.4" y2="188.5434" gradientTransform="matrix(1 0 0 -1 0 2193.9399)">
		<stop  offset="0.3976" style="stop-color:#FB12FE"/>
		<stop  offset="0.4573" style="stop-color:#D440F9"/>
		<stop  offset="0.5411" style="stop-color:#A27AF3"/>
		<stop  offset="0.6185" style="stop-color:#7AA8EE"/>
		<stop  offset="0.6869" style="stop-color:#5EC9EB"/>
		<stop  offset="0.7437" style="stop-color:#4CDDE9"/>
		<stop  offset="0.782" style="stop-color:#46E4E8"/>
	</linearGradient>
	<path class="st13" d="M324.6,2035.4l21.8,5.9c9.1,2.5,18.8,0.3,25.9-5.9l51.1-44.2c-20-20.8-33.7-28.6-58.2-18
		c0,0-27.3,30.4-44.1,50.9c-2.4,3-2,7.4,1,9.9C322.8,2034.7,323.7,2035.1,324.6,2035.4z"/>
	<path class="st9" d="M360.9,2049.2c-0.4,0-0.8-0.1-1.2-0.1l-36.2-8.8c-6.1-1.3-10.2-3.8-12.2-7.5c-1.4-2.6-1.6-5.6-0.6-8.4
		c1-2.6,3.9-3.8,6.5-2.8c2.5,1,3.8,3.8,2.9,6.3c0,0.4,1.3,1.8,5.5,2.7h0.2l33.8,8.2l60.5-51.3c0.4-0.4,0.9-0.7,1.5-0.9
		c0.3-0.1,30-11.5,46-26.5c2-1.9,5.1-1.9,7.1,0c1.9,2,1.9,5.1,0,7.1c-0.1,0.1-0.1,0.1-0.2,0.2c-16.1,15.1-43.3,26.2-48.5,28.2
		l-61.8,52.4C363.3,2048.8,362.1,2049.2,360.9,2049.2z"/>
	<path class="st4" d="M367.3,2050.4c-1.1,0-2.1-0.6-2.6-1.5c-18-31.3-38.2-29.9-38.4-29.9c-1.7,0.1-3.1-1.1-3.2-2.7
		c-0.1-1.3,0.6-2.5,1.8-3c1.4-0.6,30.7-12.4,55.1-1.2c-7.1-10.3-17.5-22.5-26.9-24.2c-1.6-0.3-2.7-1.8-2.5-3.5
		c0.2-1.3,1.3-2.3,2.5-2.5c1.8-0.3,45.1-6.3,66.1,14.6c1.2,1.2,1.2,3.1,0,4.2s-3.1,1.2-4.2,0c-12.7-12.7-35.9-14.2-49.8-13.8
		c14.6,10.4,26.4,32.4,27,33.5c0.8,1.5,0.2,3.3-1.2,4.1c-1.1,0.6-2.5,0.4-3.4-0.4c-15-13.7-36.4-11.7-49.2-8.8
		c8.7,3.4,20.7,11.5,31.6,30.5c0.8,1.4,0.3,3.3-1.1,4.1C368.3,2050.3,367.8,2050.4,367.3,2050.4L367.3,2050.4z"/>
	<path class="st4" d="M381.1,2035.6c-0.4,0-0.7-0.1-1-0.2c-41.5-15.4-63.9-2.5-64.1-2.3c-1.4,0.9-3.3,0.4-4.1-1
		c-0.9-1.4-0.4-3.3,1-4.1c0.9-0.6,21-12.1,57.8-1.9c-12-12.3-25.9-25.5-29.6-26.6c-1.5-0.4-2.4-1.9-2.1-3.3c0.2-1.5,1.6-2.6,3.1-2.5
		c7,0.3,34.3,1.5,52.1,5.5c-11.1-10.6-24.2-21.8-29.5-22.9c-1.6-0.3-2.7-1.9-2.4-3.5c0.3-1.6,1.9-2.7,3.5-2.4
		c10.9,2.2,38.2,30,42.6,34.4c0.1,0.1,0.3,0.3,0.4,0.4c1.1,1.2,1,3.1-0.2,4.2s-3.1,1-4.2-0.2l0,0l-0.4-0.4
		c-4.7-4.3-30.2-7.4-51.7-8.8c11.2,9.4,27.1,26.2,31,30.4c1.1,1.2,1,3.1-0.2,4.2C382.5,2035.3,381.8,2035.5,381.1,2035.6
		L381.1,2035.6z"/>
	<path d="M917.5,2144.5c0,2.1-13.4,18.4-13.4,18.4l-11.3-14.8L917.5,2144.5z"/>
	<path d="M875.9,2145.2c0,2.1-13.4,18.4-13.4,18.4l-11.3-14.8L875.9,2145.2z"/>
	<path d="M829.3,2136.7c0,2.1-13.4,18.4-13.4,18.4l-11.3-14.8L829.3,2136.7z"/>
	<path d="M796.1,2121.9c0,2.1-20.5,17.6-20.5,17.6l-4.2-19.8L796.1,2121.9z"/>
	<path d="M772.1,2097.2c0,2.1-20.5,17.6-20.5,17.6l-4.2-19.8L772.1,2097.2z"/>
	<path d="M744.6,2079.5c0,2.1-20.5,17.6-20.5,17.6l-4.2-19.8L744.6,2079.5z"/>
	<path d="M711.4,2064.7c0,2.1-20.5,17.6-20.5,17.6l-4.2-19.8L711.4,2064.7z"/>
	<path class="st9" d="M752.8,2089.8c39.6,45.9,90.8,53.9,126.8,52.5c1.3-0.1,2.5-0.1,3.7-0.2c19.2-1.1,38.2-4.7,56.5-10.7
		c-1.2,3.2-3.3,6.1-5.9,8.4c-7,5.4-58.1,20.1-118,4.7c-16.1-4.1-58.1-24.6-66.9-48.8c0,0-58-9.8-67.9-29.3c0,0,0.1-2.1,0.4-5.7
		c17,15,48.3,21.8,62.2,24.2C747.1,2085.3,750.4,2087.1,752.8,2089.8z"/>
	<path class="st9" d="M879.4,2136.3c-50.2,1.9-91.2-15.1-121.7-50.5c-3.3-3.7-7.8-6.2-12.6-6.9c-14.6-2.5-48.8-9.9-62.9-26.4
		c0.3-2.9,0.6-6.1,1-9.5c27.3,20.2,70.9,24.3,70.9,24.3s7.7,25,68.4,51.2s121.4-4.7,121.4-4.7c-0.3,3.6-0.8,7.2-1.7,10.7
		C921.9,2131.3,900.8,2135.3,879.4,2136.3z"/>
	
		<linearGradient id="SVGID_8_" gradientUnits="userSpaceOnUse" x1="681.3" y1="96.517" x2="942" y2="96.517" gradientTransform="matrix(1 0 0 -1 0 2193.9399)">
		<stop  offset="0.4535" style="stop-color:#FB12FE"/>
		<stop  offset="0.5045" style="stop-color:#D440F9"/>
		<stop  offset="0.5761" style="stop-color:#A27AF3"/>
		<stop  offset="0.6422" style="stop-color:#7AA8EE"/>
		<stop  offset="0.7007" style="stop-color:#5EC9EB"/>
		<stop  offset="0.7493" style="stop-color:#4CDDE9"/>
		<stop  offset="0.782" style="stop-color:#46E4E8"/>
	</linearGradient>
	<path class="st14" d="M745,2078.9c4.9,0.8,9.4,3.2,12.6,6.9c30.5,35.4,71.5,52.3,121.7,50.5c21.4-0.9,42.5-5,62.7-12
		c-0.6,2.4-1.4,4.8-2.3,7.1c-18.3,6-37.3,9.6-56.5,10.7c-1.2,0.1-2.5,0.1-3.7,0.2c-36,1.4-87.1-6.6-126.8-52.5
		c-2.4-2.7-5.6-4.4-9.2-5c-14-2.4-45.2-9.1-62.2-24.2c0.2-2.2,0.4-5,0.7-8.2C696.2,2069,730.5,2076.4,745,2078.9z"/>
	<path class="st11" d="M822.4,2118.3c-60.7-26.2-68.4-51.2-68.4-51.2s-43.6-4-70.9-24.3c1.9-15.8,5.4-36.6,11.3-52.9l12.1-13.4
		c0,0,28.7,18.5,49.6,24.7c0,0,33.1-32.6,60.7-21.4c12.4,16.8,26.4,32.3,41.9,46.3c34.5,31.3,81.8,67.6,85,87.3
		C943.8,2113.6,883.1,2144.6,822.4,2118.3z"/>
	<path class="st9" d="M873,2038.9c32,28,68,57.6,70.8,74.7c0,0-60.7,30.9-121.4,4.7c-10.1-4.3-19.9-9.3-29.4-14.8
		c3.8-13.9,9.6-27.1,17.2-39.3C823.7,2041.9,849.5,2040.4,873,2038.9z"/>
	
		<linearGradient id="SVGID_9_" gradientUnits="userSpaceOnUse" x1="695.1" y1="153.9399" x2="873" y2="153.9399" gradientTransform="matrix(1 0 0 -1 0 2193.9399)">
		<stop  offset="0.2263" style="stop-color:#46E4E8"/>
		<stop  offset="0.2707" style="stop-color:#5ACDEA"/>
		<stop  offset="0.3638" style="stop-color:#8C93F1"/>
		<stop  offset="0.4968" style="stop-color:#DD35FA"/>
		<stop  offset="0.5447" style="stop-color:#FB12FE"/>
	</linearGradient>
	<path class="st15" d="M695.1,1989.3l11.5-12.7c0,0,28.7,18.5,49.6,24.7c0,0,33.1-32.6,60.7-21.4c12.4,16.8,26.4,32.3,41.9,46.3
		c4.5,4.1,9.3,8.3,14.2,12.6c-23.5,1.6-49.3,3-62.8,25.3c-7.6,12.2-13.4,25.5-17.2,39.3c-15-8.9-24.3-17-30.1-23.3
		c-7.6-8.3-17.7-14-28.7-16.4l-0.3-0.1C737.3,2034,721.8,2005.5,695.1,1989.3z"/>
	<path class="st9" d="M694.5,1990l0.6-0.7c26.7,16.1,42.3,44.7,38.8,74.4c-15-3.3-35.4-9.6-50.7-20.9
		C685.1,2027.1,688.5,2006.3,694.5,1990z"/>
	
		<linearGradient id="SVGID_10_" gradientUnits="userSpaceOnUse" x1="756.3" y1="181.6001" x2="864.5413" y2="181.6001" gradientTransform="matrix(1 0 0 -1 0 2193.9399)">
		<stop  offset="0.3976" style="stop-color:#FB12FE"/>
		<stop  offset="0.4573" style="stop-color:#D440F9"/>
		<stop  offset="0.5411" style="stop-color:#A27AF3"/>
		<stop  offset="0.6185" style="stop-color:#7AA8EE"/>
		<stop  offset="0.6869" style="stop-color:#5EC9EB"/>
		<stop  offset="0.7437" style="stop-color:#4CDDE9"/>
		<stop  offset="0.782" style="stop-color:#46E4E8"/>
	</linearGradient>
	<path class="st16" d="M859.2,2039.7l-22.7,7.2c-9.2,3.1-19.3,1.4-27-4.4l-53.2-41.2c20.8-22,35.1-30.6,60.7-21.4
		c0,0,28.4,28.8,45.9,48.3C866.2,2032,864.3,2038,859.2,2039.7z"/>
	<path class="st9" d="M818,2054.6l-64.4-48.8c-5.4-1.7-33.7-11.3-50.5-25.4c-2-1.8-2.2-4.8-0.4-6.8c0.1-0.1,0.1-0.1,0.2-0.2
		c1.9-2.1,5.1-2.4,7.4-0.6c16.7,14.1,47.6,23.7,47.9,23.8c0.5,0.2,1.1,0.4,1.5,0.8l63.1,47.7l35.3-10.2h0.2c4.4-1.1,5.8-2.6,5.7-3
		c-0.8-2.6,0.5-5.4,3-6.4c2.5-1.2,5.5-0.2,6.7,2.2c0,0,0,0.1,0.1,0.1c1.1,2.8,0.9,5.8-0.6,8.4c-2.1,3.8-6.3,6.6-12.7,8.3l-37.7,11
		c-0.4,0.1-0.8,0.2-1.2,0.2C820.2,2055.8,819,2055.4,818,2054.6z"/>
	<path class="st4" d="M814.7,2057.2c1.1-0.1,2.1-0.7,2.7-1.7c18.8-32.3,39.8-32.2,40-32.2c1.5,0,2.9-1,3.3-2.5
		c0.4-1.4-0.4-2.9-1.8-3.4c-1.5-0.5-32-10.6-57.4,2.1c7.4-10.7,18.2-23.5,28-25.7c1.5-0.3,2.6-1.6,2.6-3.1s-1.2-2.7-2.7-2.8
		c-1.9-0.2-47-3.7-68.9,18.5c-1.2,1.1-1.2,2.9-0.1,4.1l0.1,0.1c1.3,1.1,3.2,1,4.4-0.3c13.3-13.5,37.5-16.3,51.8-16.7
		c-15.2,11.3-27.5,33.9-28.1,35.1c-0.7,1.3-0.4,2.9,0.8,3.7c1.3,0.8,2.9,0.6,4-0.4c15.6-14.6,37.9-13.9,51.3-11.7
		c-9.1,3.9-21.5,12.7-32.9,32.3c-0.8,1.3-0.4,3.1,0.9,3.9c0.1,0,0.1,0.1,0.2,0.1C813.6,2057.1,814.1,2057.2,814.7,2057.2z"/>
	<path class="st4" d="M800.4,2043.2c0.4,0,0.7-0.1,1.1-0.3c43.2-17.9,66.6-6.2,66.8-6.1c1.5,0.7,3.4,0.2,4.3-1.3
		c0.8-1.3,0.4-3.1-0.9-3.9c-0.1,0-0.1-0.1-0.2-0.1c-1-0.5-21.9-10.9-60.2,1.5c12.5-13,27-27,30.8-28.3c1.5-0.5,2.4-1.9,2.2-3.5
		c-0.3-1.5-1.7-2.5-3.2-2.3c-7.3,0.7-35.8,3.5-54.3,8.6c11.6-11.3,25.2-23.2,30.7-24.6c1.7-0.4,2.7-2,2.5-3.7
		c-0.4-1.6-2-2.6-3.5-2.2h-0.1c-11.4,2.8-39.8,32.2-44.4,36.9c-0.1,0.1-0.3,0.3-0.4,0.4c-1.1,1.2-1,3,0.2,4.1c0,0,0.1,0,0.1,0.1
		c1.3,1,3.2,0.9,4.4-0.4l0.4-0.4c4.9-4.6,31.5-9.2,53.9-11.8c-11.7,10.1-28.2,27.8-32.4,32.3c-1,1-1.1,2.6-0.3,3.7
		C798.4,2042.8,799.4,2043.3,800.4,2043.2z"/>
</g>
<g id="Pants_x5F_01">
	<path class="st17" d="M769.7,1532.8c0,0,19.1-364.1-16.9-525.1c-31.3,14-93.4,27.7-157.1,28c-89.5,0.4-182.1-17.8-196.6-29.7
		c-5.8,23.1-15.5,75.3-21.5,122.6c-19.1,150.3-0.5,434.3-0.7,422.8c0,0-14.8,337.1-12.7,394.2c0,0,50.8,23.7,124.9,5.3
		c0,0,59.3-265.8,20.1-402.3c0,0,62.5-369.5,63.5-378c0,0,31.9,278.9,77.4,372c0,0-33.3,89.2,41.5,412.5c0,0,64.9,28.2,120.3,2.1
		L769.7,1532.8z"/>
	<path class="st1" d="M376.8,1551.5v0.3C376.8,1551.9,376.8,1551.8,376.8,1551.5z"/>
	<path class="st18" d="M749.1,1542.3c16.6-88.3-12.3-428.1-13.5-442.6l-6,0.5c0.3,3.5,30.2,354.6,13.5,441.3l-0.1,0.5l0.1,0.5
		c0.4,3.1,37.4,298.6,39.4,424c2-0.3,4-0.7,6-1.2C786.3,1841.5,750.8,1556,749.1,1542.3z"/>
	<path class="st18" d="M405.2,1568v-0.3v-0.3c-10.9-140.8-5.8-258.1,0.5-331.6c6.8-79.7,14.3-126.6,14.4-127.1l-5.9-1.2
		c-0.1,0.5-7.6,47.7-14.5,127.7c-6.3,73.7-11.5,191.3-0.6,332.5c-0.6,7.2-13.8,163.3-10.9,385.5c1.9,0.4,3.9,0.8,6,1.2
		C391.4,1727.7,405.1,1569.7,405.2,1568z"/>
	<path class="st18" d="M550.5,1051.1c0,1.4,0.3,43.3,1.7,82.8c0.5,13.7-0.5,30.4,0.3,41.7c6.7,3.1,13.1,6.7,19.3,10.7
		c7.7-1.7,17.5-6,24.2-8.4l-2.7-44.2V1054L550.5,1051.1z"/>
	<path class="st1" d="M572.7,1170.7c-0.1,0.7-0.5,3.5-1.3,8.3c0.8,0.1,1.6,0.1,2.3,0.2C573,1173.7,572.7,1170.7,572.7,1170.7z"/>
	<path class="st1" d="M376.8,1551.5v0.3C376.8,1551.9,376.8,1551.8,376.8,1551.5z"/>
	<path class="st1" d="M574.7,1179.2l-0.6,3.4c0.1,0.7,0.2,1.5,0.3,2.3l0.1-1.8L574.7,1179.2z"/>
	<path class="st1" d="M769.7,1532.8c0,0,19.1-364.1-16.9-525.1c-31.3,14-93.4,27.7-157.1,28c-89.5,0.4-182.1-17.8-196.6-29.7
		c-5.8,23.1-15.5,75.3-21.5,122.6c-18.6,146.7-1.3,420.6-0.7,423.1v-0.3c0,0.3,0,0.4,0,0.3c-0.5,11.4-14.8,337.7-12.7,393.9
		c0,0,50.8,23.7,124.9,5.3c0,0,43.7-195.9,31.3-337.8l-24.9-68.8l56.5-336c0,0-66.4-45.2-87.5-77.7c0,0,72.7,44.9,107,48.2
		c0.8-4.7,1.2-7.6,1.3-8.3c0,0,0.3,3,1,8.4h1l59-18.7c0,0-49.4,26.8-49.4,32.5c0,3.7,11.8,121,25.4,211.7
		c11.5,55.2,25.2,107,40.4,138.1c0,0-33.3,89.2,41.5,412.5c0,0,64.9,28.2,120.3,2.1L769.7,1532.8z"/>
	<path class="st19" d="M573.7,1179.1l0.4,3.4l0.6-3.4H573.7z"/>
	<path class="st18" d="M609.8,1404.6c-13.6-90.7-25.4-208-25.4-211.7c0-5.7,49.4-32.5,49.4-32.5c-23.5,8.7-43.1,16-62.4,18.9
		l0.1-0.4c-34.4-3.3-107-48.2-107-48.2c21.2,32.5,87.5,77.7,87.5,77.7l-47.5,342l15.9,62.8c-2-23.4-5.6-45.3-11.2-64.6
		c0,0,49.2-291.2,61-362.5C573.5,1211.4,587.3,1309.2,609.8,1404.6z"/>
	<path class="st1" d="M376.8,1551.5v0.3C376.8,1551.9,376.8,1551.8,376.8,1551.5z"/>
	<path class="st18" d="M766.5,1102.5c-11.5-0.9-22.8-3.6-32.7-8.9c-7.3-23.7-9.3-50-11.8-75c-2.5,0.7-5.2,1.4-7.8,2.1
		c2.1,32.9,7.2,86.7,18.5,92.4c10.6,5.3,27.1,16.3,36.5,22.6C768.3,1124.4,767.5,1113.3,766.5,1102.5z"/>
	<path class="st17" d="M721.9,1018.6c2.5,25,4.5,51.4,11.8,75c9.9,5.4,21.2,8.1,32.7,8.9c-3.3-35.5-7.8-68-13.7-94.8
		C742.7,1012.1,732.4,1015.7,721.9,1018.6z"/>
	<path class="st17" d="M428.1,1017c-14.6-3.8-24.9-7.6-29-11c-5.5,21.8-14.5,69.7-20.5,114.9c12.5-7.7,24.3-17,37.1-24.5
		C418.4,1069.9,425.6,1043.7,428.1,1017z"/>
	<path class="st18" d="M428.1,1017c-2.5,26.7-9.7,52.8-12.5,79.4c-12.7,7.6-24.6,16.9-37.1,24.5c-0.3,2.6-0.7,5.1-1,7.7
		c-0.9,7.1-1.7,14.6-2.5,22.2c15.9-12,38.3-29.4,42.7-35.7c5.3-7.3,12-66.9,15.2-97C431.3,1017.9,429.6,1017.5,428.1,1017z"/>
	<path class="st20" d="M757.9,1034.6c-1.6-9.4-3.3-18.4-5.2-26.8c-31.3,14-93.4,27.7-157.1,28c-89.5,0.4-182.1-17.8-196.6-29.7
		c-1.8,7.1-4,17-6.3,28.7c30.7,11,94.9,29.5,183.8,30.4C638.4,1065.8,699.7,1055.4,757.9,1034.6z"/>
	<path class="st21" d="M376.8,1551.5v0.3C376.8,1551.9,376.8,1551.8,376.8,1551.5z"/>
	<path class="st17" d="M676.1,1028.8c1.2,9,2.1,18.2,3,27.3c6.7-1.3,13.3-2.6,19.9-4.2c-1.1-9-2.4-17.8-3-26.9
		C689.5,1026.3,682.9,1027.6,676.1,1028.8z"/>
	<path class="st22" d="M607.6,1035.6c-4,0.1-8,0.2-12,0.2c-18.4,0.1-36.9-0.6-54.8-1.9c-0.7,10-0.9,20-0.5,29.9
		c11.6,0.8,23.7,1.3,36.2,1.4c10.9,0.1,21.7-0.1,32.5-0.7C608.8,1054.8,607.6,1045.3,607.6,1035.6z"/>
	<path class="st17" d="M454.9,1023c-1.5,9.5-2.4,19-2.8,28.6c5.5,1.2,11.2,2.3,17.2,3.4c0.6-9.7,1.8-19.3,3.7-28.9
		C466.7,1025.1,460.6,1024.1,454.9,1023z"/>
	<path class="st21" d="M376.8,1551.5v0.3C376.8,1551.9,376.8,1551.8,376.8,1551.5z"/>
	<path class="st21" d="M376.8,1551.5v0.3C376.8,1551.9,376.8,1551.8,376.8,1551.5z"/>
	<path class="st22" d="M385.3,1267.8c0,0,103.1,0,145.4-19.8C530.7,1248,467.2,1301.7,385.3,1267.8z"/>
	<path class="st22" d="M609.2,1249.1c0,0,97.9,32.1,144.3,26.6C753.6,1275.7,676.5,1306.8,609.2,1249.1z"/>
	<path class="st22" d="M382.5,1336.9c0,0,76.2,28.2,125.6,22.6C508.1,1359.5,436.1,1392,382.5,1336.9z"/>
	<path class="st22" d="M625.1,1363.5c0,0,81.3-1.1,125.3-24.2C750.5,1339.3,695,1395.5,625.1,1363.5z"/>
	<path class="st22" d="M400.5,1442.9c0,0,63.8,6.7,100.4-7.3C500.9,1435.6,452.2,1474.5,400.5,1442.9z"/>
	<path class="st22" d="M403.3,1722.4c0,0,63.8,6.7,100.4-7.3C503.7,1715.1,455.1,1754,403.3,1722.4z"/>
	<path class="st22" d="M406.2,1762c0,0,58,27.4,97.2,26.3C503.4,1788.3,444.6,1808.9,406.2,1762z"/>
	<path class="st22" d="M682.9,1764.8c0,0,58,27.4,97.2,26.3C780.1,1791.1,721.3,1811.7,682.9,1764.8z"/>
	<path class="st22" d="M666.2,1730.9c0,0,64.1-0.5,99-18.4C765.2,1712.5,721.2,1756.6,666.2,1730.9z"/>
	<path class="st22" d="M400.9,1848.4c0,0,62.3,15,100.5,6C501.4,1854.4,448.1,1886.5,400.9,1848.4z"/>
	<path class="st22" d="M685.7,1837.7c0,0,64,3.7,100-11.9C785.7,1825.8,738.9,1866.9,685.7,1837.7z"/>
	<path class="st22" d="M638.9,1421.1c0,0,58.4,26.5,97.6,24.8C736.5,1445.9,678,1467.4,638.9,1421.1z"/>
</g>
<g id="Shirt_x5F_01">
	<path class="st4" d="M748.1,734.3L748.1,734.3L748.1,734.3z"/>
	
		<linearGradient id="SVGID_11_" gradientUnits="userSpaceOnUse" x1="118.3695" y1="1336.7356" x2="264.1" y2="1336.7356" gradientTransform="matrix(1 0 0 -1 0 2193.9399)">
		<stop  offset="0.4535" style="stop-color:#FB12FE"/>
		<stop  offset="0.5045" style="stop-color:#D440F9"/>
		<stop  offset="0.5761" style="stop-color:#A27AF3"/>
		<stop  offset="0.6422" style="stop-color:#7AA8EE"/>
		<stop  offset="0.7007" style="stop-color:#5EC9EB"/>
		<stop  offset="0.7493" style="stop-color:#4CDDE9"/>
		<stop  offset="0.782" style="stop-color:#46E4E8"/>
	</linearGradient>
	<path class="st23" d="M169.6,829.2c-18.9,7.3-34.1,20.8-46.3,36.5c-2.1,8.9-3.9,16.7-4.9,22.1c-0.2,1.3,0.6,2.5,1.9,2.8
		c0.8,0.2,1.7-0.2,2.3-0.8c16.4-20.1,70.3-75,132.4-21.6c1.2,1.1,3.1,1,4.2-0.2c0.3-0.3,0.5-0.6,0.6-1c1.6-4.5,3.1-8.7,4.3-12.8
		C242.2,827,203,816.3,169.6,829.2z"/>
	<path class="st4" d="M876.6,701.7l-0.3-0.4C876.2,702,876.3,702.2,876.6,701.7z"/>
	
		<linearGradient id="SVGID_12_" gradientUnits="userSpaceOnUse" x1="882.4" y1="1525.3395" x2="978.6" y2="1525.3395" gradientTransform="matrix(1 0 0 -1 0 2193.9399)">
		<stop  offset="0.4535" style="stop-color:#FB12FE"/>
		<stop  offset="0.5045" style="stop-color:#D440F9"/>
		<stop  offset="0.5761" style="stop-color:#A27AF3"/>
		<stop  offset="0.6422" style="stop-color:#7AA8EE"/>
		<stop  offset="0.7007" style="stop-color:#5EC9EB"/>
		<stop  offset="0.7493" style="stop-color:#4CDDE9"/>
		<stop  offset="0.782" style="stop-color:#46E4E8"/>
	</linearGradient>
	<path class="st24" d="M970.2,666.7C941,681,890,667.1,890,639.5c0-5.3-3.9,11.1-7.6,28.4c7.1,15.8,25.8,26,43.2,29.3
		c18.1,3,38,2,53-7.2c-0.5-7-0.9-12.8-1.3-16.9C977.1,669.4,973.6,665.1,970.2,666.7z"/>
	<path class="st25" d="M925.6,697.2c-17.4-3.3-36.1-13.5-43.2-29.3c-3.1,14.6-6,29.8-6.2,33.3l0.3,0.4c-0.3,0.5-0.4,0.3-0.3-0.4
		l-90-122.4c-28.8-37.4-97.4-57.8-133.4-65.4c-7.2-1.5-15.3-2.7-22.1-3.5c-12.9,15.9-33.6,31.8-54.5,32.2
		c-18.2,0.4-37.2-15.5-50.4-29.7l0,0l-17.2,5.3l-38.3,10.7l0,0c-57.9,4.2-105.2,38.3-134.8,75.1c-1,1.2-13.2,12.7-28.5,26
		c-4.8,4.2-10.9,11.3-16.1,15.7c-4.4,3.7-74.8,71.6-116.9,113.5c-20.6,20.5-35.3,46.2-42.6,74.3c-2.8,11-5.8,22.6-8.2,32.7
		c12.3-15.7,27.5-29.3,46.3-36.5c33.4-12.8,72.6-2.2,94.5,24.9c2.7-9.5,4.1-18.5,3.7-27.5c3.9,2.5,84-55.8,87.6-58.6
		c35.3-27.5,58.1-43.8,58.1-43.8C401,816.4,395.9,927,394.2,977.8c-0.6,17,10.7,32.2,27.1,36.5c57.9,15.3,197.1,41.9,335.3-7.8
		c4.2-104.5-8.1-267.9-8.5-272.3l0,0c0,0,46.7,62.1,76.9,93.1c36.9,37.9,83.1,77.3,108.8,69.1c7.7-2.4,33.3-13.1,43.8-61.4
		c7.4-34,3.7-107.3,1.1-145.1C963.5,699.2,943.7,700.2,925.6,697.2z"/>
	<path class="st1" d="M413.5,724.2c0,0-8.9,8.7-22,20.2C406.2,731.8,413.5,724.2,413.5,724.2z"/>
	<path class="st9" d="M425.8,620.2c0,0-18,66.3-19.9,94.6c0,0-136.1,109.7-138.1,111.8c1.4,0.4,16-6.2,33-17.6
		c24.2-16.4,82.7-59.5,90.9-66.5c13-11.5,22-18.2,22-18.2C413.3,725.8,425.8,620.2,425.8,620.2z"/>
	<path class="st9" d="M748.1,734.2c0,0,32.8,47.1,48.8,63.8l28.1,29.3l-70.8-98c-11.5-37.3-17.4-84.2-17.4-84.2L748.1,734.2z"/>
	<path class="st9" d="M406.9,647c2.5-0.3,3.3-2.7,1.4-4c-27.5-11.4-40.2-21.7-58.1-37.5c-2.6-1.7-6.6-0.8-7.7,1.8
		C334.1,626.6,344.9,654.7,406.9,647z"/>
	<path class="st9" d="M409.3,650.8c0,0-39.9,6.2-57.7,1.8c-15.9-4-13.8,18.1,2.7,15.3S386.7,662.6,409.3,650.8z"/>
	<path class="st9" d="M747,649.9c-1.3,0.2-2.4-0.7-2.6-2c-0.1-0.6,0-1.1,0.4-1.6c17.5-17.4,24.1-30.4,33.1-49.9
		c1.2-1.8,3.6-2.3,5.4-1.1c0.4,0.3,0.7,0.6,1,1C796.4,613.2,796.5,643,747,649.9z"/>
	<path class="st1" d="M876.6,701.7l-0.3-0.4C876.2,702,876.3,702.2,876.6,701.7z"/>
	<path class="st26" d="M534.3,592.2c12.5,9.8,28.3,14.3,44.1,12.7c12.9-1,25.4-5.5,36-13l-38.5-37.5L534.3,592.2z"/>
	<path class="st27" d="M657.4,514.5L657.4,514.5L657.4,514.5z"/>
	<path class="st27" d="M655.8,514.1l1.4,0.3L655.8,514.1z"/>
	<path class="st27" d="M654.4,513.8l1.2,0.3L654.4,513.8z"/>
	<path class="st27" d="M652.9,513.5l1.3,0.3L652.9,513.5z"/>
	<path class="st28" d="M657.2,514.4L657.2,514.4L657.2,514.4z"/>
	<path class="st28" d="M654.1,513.7l0.3,0.1L654.1,513.7z"/>
	<path class="st28" d="M655.6,514.1h0.2H655.6z"/>
	<path class="st29" d="M503,550.3c7.1,15.3,17.2,31.2,31.3,42l41.6-37.8l38.5,37.5c28.6-20.2,39.3-58.2,43-77.5h-0.1h-0.1l-1.4-0.3
		h-0.2l-1.2-0.3l-0.3-0.1l-1.3-0.3c-7.2-1.5-15.3-2.7-22.1-3.5c-12.9,15.9-33.6,31.7-54.5,32.2c-18.2,0.4-37.2-15.5-50.4-29.7
		l-17.2,5.3l-14.9,3.2C496,531,499.1,540.8,503,550.3z"/>
	<path class="st27" d="M658.9,514.8l-1.6-0.4l0,0L658.9,514.8z"/>
	<path class="st28" d="M658.9,514.8L658.9,514.8L658.9,514.8z"/>
	<path class="st30" d="M563.8,547.8l-2,65.6c0,3.7,3,6.8,6.7,6.8l16.3,0.2c3.7,0.1,6.8-2.9,6.9-6.6l0.6-66.5l-16-5.2L563.8,547.8z"
		/>
	<path class="st4" d="M539.5,489.9v17.6c0,0,9.2,21.2,36.7,34.6L530.7,583c0,0-23.6-40.9-26.5-65.7l22.6-24
		C526.8,493.4,531.1,487.1,539.5,489.9z"/>
	<circle class="st4" cx="578.3" cy="569.3" r="7.4"/>
	<circle class="st4" cx="578.3" cy="604.9" r="7.4"/>
	
		<linearGradient id="SVGID_13_" gradientUnits="userSpaceOnUse" x1="393.6941" y1="1184.6799" x2="757.1" y2="1184.6799" gradientTransform="matrix(1 0 0 -1 0 2193.9399)">
		<stop  offset="0.4535" style="stop-color:#FB12FE"/>
		<stop  offset="0.5045" style="stop-color:#D440F9"/>
		<stop  offset="0.5761" style="stop-color:#A27AF3"/>
		<stop  offset="0.6422" style="stop-color:#7AA8EE"/>
		<stop  offset="0.7007" style="stop-color:#5EC9EB"/>
		<stop  offset="0.7493" style="stop-color:#4CDDE9"/>
		<stop  offset="0.782" style="stop-color:#46E4E8"/>
	</linearGradient>
	<path class="st31" d="M394,983.2c-0.1,3.8-0.2,7.1-0.3,10c-0.2,7.7,4.7,14.6,12.1,16.8c43.4,13,193.2,50.3,343.5-0.9
		c4.4-1.5,7.4-5.5,7.5-10.1c0.1-4.3,0.3-8.8,0.3-13.3C621.8,1041.2,446.8,998.4,394,983.2z"/>
	<path class="st9" d="M413.1,832.6c-2.6,29.8-7.3,86.1-8.1,120.9c-0.3,10.6,6.5,20,16.6,23.2c40.7,12.8,157.1,42.6,308.8,5.6
		c10.9-2.5,18.7-12.2,18.7-23.4l-0.3-39.5c0-4-5.4-8.2-7.9-5c-25.3,33.1-254,103-317.4-83.9C421.8,825.3,413.6,827.1,413.1,832.6z"
		/>
	
		<linearGradient id="SVGID_14_" gradientUnits="userSpaceOnUse" x1="540.2" y1="1610.84" x2="540.2" y2="1698.0314" gradientTransform="matrix(1 0 0 -1 0 2193.9399)">
		<stop  offset="0.2244" style="stop-color:#FB12FE"/>
		<stop  offset="0.324" style="stop-color:#D440F9"/>
		<stop  offset="0.4638" style="stop-color:#A27AF3"/>
		<stop  offset="0.5929" style="stop-color:#7AA8EE"/>
		<stop  offset="0.7071" style="stop-color:#5EC9EB"/>
		<stop  offset="0.8019" style="stop-color:#4CDDE9"/>
		<stop  offset="0.8658" style="stop-color:#46E4E8"/>
	</linearGradient>
	<path class="st32" d="M539.5,496.5c-12.7-3.1-24.5,6.3-35.3,20.9c2,19.6,19.9,54,26.5,65.7l45.5-40.9
		C552.6,530.6,541.9,501.1,539.5,496.5z"/>
	
		<linearGradient id="SVGID_15_" gradientUnits="userSpaceOnUse" x1="468.1801" y1="1610.84" x2="468.1801" y2="1698.0314" gradientTransform="matrix(-1 0 0 -1 1080.4801 2193.9399)">
		<stop  offset="0.2244" style="stop-color:#FB12FE"/>
		<stop  offset="0.324" style="stop-color:#D440F9"/>
		<stop  offset="0.4638" style="stop-color:#A27AF3"/>
		<stop  offset="0.5929" style="stop-color:#7AA8EE"/>
		<stop  offset="0.7071" style="stop-color:#5EC9EB"/>
		<stop  offset="0.8019" style="stop-color:#4CDDE9"/>
		<stop  offset="0.8658" style="stop-color:#46E4E8"/>
	</linearGradient>
	<path class="st33" d="M613,496.5c12.7-3.1,24.5,6.3,35.3,20.9c-2,19.6-19.9,54-26.5,65.7l-45.5-40.9
		C599.9,530.6,610.6,501.1,613,496.5z"/>
	<path class="st9" d="M870.2,787.4c-10.6-37.1,6.3-85.8,6.3-85.8c-1-1.4-7.1-9.7-15.7-21.3C839.2,755.3,870.2,787.4,870.2,787.4z"/>
	<path class="st9" d="M267.8,826.6c0,0-9.5-35.8-28.9-45.4c-0.7-0.3-1-1.1-0.7-1.8c0.2-0.5,0.8-0.9,1.4-0.8
		c12.3,0.8,34.4,6.1,52.6,31.1L267.8,826.6z"/>
	
		<linearGradient id="SVGID_16_" gradientUnits="userSpaceOnUse" x1="647" y1="1292.407" x2="756.7" y2="1292.407" gradientTransform="matrix(1 0 0 -1 0 2193.9399)">
		<stop  offset="0.4535" style="stop-color:#FB12FE"/>
		<stop  offset="0.5045" style="stop-color:#D440F9"/>
		<stop  offset="0.5761" style="stop-color:#A27AF3"/>
		<stop  offset="0.6422" style="stop-color:#7AA8EE"/>
		<stop  offset="0.7007" style="stop-color:#5EC9EB"/>
		<stop  offset="0.7493" style="stop-color:#4CDDE9"/>
		<stop  offset="0.782" style="stop-color:#46E4E8"/>
	</linearGradient>
	<path class="st34" d="M647,891.9c0.3,6.4,0.6,12.7,0.9,19.1c35.8,3.8,72.5-2.7,108.8-5.1c-0.1-5-0.3-10-0.4-15
		C719.9,893.6,683.3,896.8,647,891.9z"/>
	<g id="Layer_17">
		
			<linearGradient id="SVGID_17_" gradientUnits="userSpaceOnUse" x1="647" y1="1322.407" x2="756.7" y2="1322.407" gradientTransform="matrix(1 0 0 -1 0 2193.9399)">
			<stop  offset="0.4535" style="stop-color:#FB12FE"/>
			<stop  offset="0.5045" style="stop-color:#D440F9"/>
			<stop  offset="0.5761" style="stop-color:#A27AF3"/>
			<stop  offset="0.6422" style="stop-color:#7AA8EE"/>
			<stop  offset="0.7007" style="stop-color:#5EC9EB"/>
			<stop  offset="0.7493" style="stop-color:#4CDDE9"/>
			<stop  offset="0.782" style="stop-color:#46E4E8"/>
		</linearGradient>
		<path class="st35" d="M647,861.9c0.3,6.4,0.6,12.7,0.9,19.1c35.8,3.8,72.5-2.7,108.8-5.1c-0.1-5-0.3-10-0.4-15
			C719.9,863.6,683.3,866.8,647,861.9z"/>
	</g>
	<path class="st4" d="M876.6,701.7l-0.3-0.4C876.2,702,876.3,702.2,876.6,701.7z"/>
	
		<linearGradient id="SVGID_18_" gradientUnits="userSpaceOnUse" x1="878.3" y1="1494.29" x2="979.9" y2="1494.29" gradientTransform="matrix(1 0 0 -1 0 2193.9399)">
		<stop  offset="0.4535" style="stop-color:#FB12FE"/>
		<stop  offset="0.5045" style="stop-color:#D440F9"/>
		<stop  offset="0.5761" style="stop-color:#A27AF3"/>
		<stop  offset="0.6422" style="stop-color:#7AA8EE"/>
		<stop  offset="0.7007" style="stop-color:#5EC9EB"/>
		<stop  offset="0.7493" style="stop-color:#4CDDE9"/>
		<stop  offset="0.782" style="stop-color:#46E4E8"/>
	</linearGradient>
	<path class="st36" d="M911.4,712c9.6,3.6,19.8,5.4,30,5.4c12.1,0,24.9-2.3,38.5-6.9c-0.1-1.8-0.2-3.5-0.3-5.2
		c-24.8,8.7-47.1,9.4-66.3,2.1c-13.4-5.2-25-14-33.7-25.5c-0.5,2.3-0.9,4.5-1.3,6.5C887.2,698.9,898.5,707.1,911.4,712z"/>
	
		<linearGradient id="SVGID_19_" gradientUnits="userSpaceOnUse" x1="128.7" y1="1370.2076" x2="267.8" y2="1370.2076" gradientTransform="matrix(1 0 0 -1 0 2193.9399)">
		<stop  offset="0.4535" style="stop-color:#FB12FE"/>
		<stop  offset="0.5045" style="stop-color:#D440F9"/>
		<stop  offset="0.5761" style="stop-color:#A27AF3"/>
		<stop  offset="0.6422" style="stop-color:#7AA8EE"/>
		<stop  offset="0.7007" style="stop-color:#5EC9EB"/>
		<stop  offset="0.7493" style="stop-color:#4CDDE9"/>
		<stop  offset="0.782" style="stop-color:#46E4E8"/>
	</linearGradient>
	<path class="st37" d="M131.1,834.5c-0.8,3.2-1.6,6.4-2.4,9.6c15.2-15.6,42.9-38.2,74.3-35.5c24.1,2.2,46.9,12.4,64.4,29.1
		c0.2-2.2,0.4-4.4,0.4-6.5c-17.9-15.9-40.5-25.6-64.4-27.6C173.6,801.1,147.6,819,131.1,834.5z"/>
	<g id="Layer_16" class="st38">
		
			<linearGradient id="SVGID_20_" gradientUnits="userSpaceOnUse" x1="1495.45" y1="1649.09" x2="1681.85" y2="1462.6899" gradientTransform="matrix(1 0 0 -1 0 2193.9399)">
			<stop  offset="0.4535" style="stop-color:#FB12FE"/>
			<stop  offset="0.5045" style="stop-color:#D440F9"/>
			<stop  offset="0.5761" style="stop-color:#A27AF3"/>
			<stop  offset="0.6422" style="stop-color:#7AA8EE"/>
			<stop  offset="0.7007" style="stop-color:#5EC9EB"/>
			<stop  offset="0.7493" style="stop-color:#4CDDE9"/>
			<stop  offset="0.782" style="stop-color:#46E4E8"/>
		</linearGradient>
		<rect x="1463.1" y="577.2" class="st39" width="251.1" height="121.7"/>
	</g>
	<g class="st38">
		<path class="st40" d="M515.8,700.4c11.3-1.3,22.5-2.6,33.8-4c0,5,0,7.5-0.1,13.8c-3.7,0.6-5.5,0.9-9.2,1.5
			c0.1-3.9,0.1-5.6,0.1-8.9c-8.2,1.1-16.3,2.2-24.5,3.2c0.2,10.1,0,20.1-0.3,30.2c18.7-3.9,37.3-7.7,55.9-11.7
			c0.4-14.1,0.6-28.2,0.6-42.3c-10.6,0.9-21.2,1.7-31.9,2.6c0-5.2,0-7.9,0-14.6c3.8-0.2,5.6-0.2,9.3-0.4c0,3.9,0,5.7,0.1,8.9
			c7.5-0.5,15-1,22.6-1.5c0-9,0.1-17.9,0.3-26.9c-18.8-0.1-37.5-0.2-56.3-0.3C515.7,667,515.5,683.7,515.8,700.4z"/>
		<path class="st40" d="M579.5,736.8c10.9-2.4,25.8-5.8,25.8-5.8v-30.5l34.8-4.6l0.2-45.3c-20-0.1-41.1-0.2-61.1-0.3
			C579.4,679.1,579.7,707.9,579.5,736.8z M605.3,671.2l10.1-0.5v12.1l-10.1,1V671.2z"/>
	</g>
	<g id="Logo_x5F_01">
		<polygon class="st41" points="497.4,736.3 502.5,736 505,725.6 497.4,727.6 		"/>
		
			<linearGradient id="SVGID_21_" gradientUnits="userSpaceOnUse" x1="458.4" y1="1446.4399" x2="708.1" y2="1446.4399" gradientTransform="matrix(1 0 0 -1 0 2193.9399)">
			<stop  offset="0.4535" style="stop-color:#FB12FE"/>
			<stop  offset="0.5045" style="stop-color:#D440F9"/>
			<stop  offset="0.5761" style="stop-color:#A27AF3"/>
			<stop  offset="0.6422" style="stop-color:#7AA8EE"/>
			<stop  offset="0.7007" style="stop-color:#5EC9EB"/>
			<stop  offset="0.7493" style="stop-color:#4CDDE9"/>
			<stop  offset="0.782" style="stop-color:#46E4E8"/>
		</linearGradient>
		<path class="st42" d="M676.3,777.7l12.8-6.7l-7.7-10.2l26.7-4L672.4,729l25.3-11.4L673.6,706l9.4-6.5l-7.6-2.6l23.8-24.2
			L467,721.5l6.2,8.4l-14.8,6l14,7.1l-5.5,7.1l6.3,1.4l-5.5,19.8l28.5-1.7l-3.1,8.6l25-8l-2.5,14.4l26.3-9.3l1.5,9.9l10.7-8.1
			l11.6,18.3l16.5-14.6L591,799l5.7-11.2l23.2,18.7l9.7-13.5l12.8,10.8l-0.4-10.4l52.5,28.9L676.3,777.7z M497.8,745.2l-0.6,16
			l-12.7-0.7l1.5-28.6l-4-8.5l14.4-3.2c0,0,12.9-3.2,21.2-4.9c-2.4,9.6-4.3,19.1-5.8,28.8C505.9,744.5,497.8,745.2,497.8,745.2z
			 M541.4,762.6c-8.8-0.2-17.6-0.4-26.4-0.5c1-16.2,3-31.9,7-47.7c4.4-0.9,6.6-1.3,11.1-2.2c-3.1,12.8-5.1,25.8-6.5,38.9
			c1.8,0,2.6-0.1,4.4-0.1c1.4-13.4,3.4-26.6,6.6-39.7c4.6-0.9,6.9-1.3,11.7-2.3C545.4,726.8,542.8,744.4,541.4,762.6z M562.3,763.2
			c-1.4-6.7-2-9.9-3.2-15.9c-0.7,6.1-1.1,9.2-1.6,15.7c-4.7-0.2-7-0.2-11.6-0.4c1.5-18.4,4-36.6,8.2-54.6c4.8-0.9,7.3-1.4,12.2-2.3
			c0.5,6.3,0.8,9.6,1.5,16.6c1.3-7.2,2-10.7,3.6-17.6c5-0.9,7.5-1.4,12.6-2.4c-4.2,20.3-7.4,40.6-9.6,61.2
			C569.5,763.5,567.1,763.4,562.3,763.2z M600.4,711.1c-2.4,13-4.4,26.1-6.2,39.2c2.1,0,3.2,0,5.4,0c0.6-4.3,0.9-6.5,1.5-10.7
			c5.5-0.2,8.3-0.3,14.1-0.5c-1.2,8.7-2.3,17.4-3.4,26.2c-10.8-0.6-21.6-1.1-32.4-1.5c2.3-21,5.4-41.8,9.8-62.4
			c11-2.1,21.9-4.1,32.9-6.1c-1.7,9.8-3.2,19.6-4.8,29.4c-5.8,0.5-8.6,0.7-14.2,1.2c1-6.3,1.5-9.4,2.6-15.5
			C603.7,710.7,602.6,710.8,600.4,711.1z M659,770l-19.8-3.1c0,0,2.5-18.6,3.8-27.9c-2.6,0.1-3.8,0.1-6.3,0.1
			c-1.3,9.1-2.6,18.3-3.9,27.4c-6.3-0.3-9.3-0.5-15.2-0.8c3-23.9,6.4-47.7,10.2-71.4c5.8-1.1,8.7-1.6,14.7-2.7
			c-1.3,10.1-2.6,20.2-3.9,30.3c2.7-0.2,4-0.3,6.8-0.5c1.6-10.4,3.2-20.8,4.8-31.1c5.5-1,12.7-2.5,12.7-2.5L659,770z"/>
		
			<linearGradient id="SVGID_22_" gradientUnits="userSpaceOnUse" x1="502" y1="1480.0399" x2="502" y2="1542.4398" gradientTransform="matrix(1 0 0 -1 0 2193.9399)">
			<stop  offset="0.237" style="stop-color:#03FFBD"/>
			<stop  offset="0.3046" style="stop-color:#1AFFC5"/>
			<stop  offset="0.4453" style="stop-color:#54FFD8"/>
			<stop  offset="0.5674" style="stop-color:#8BFFEB"/>
			<stop  offset="0.6052" style="stop-color:#8FF6EC"/>
			<stop  offset="0.6673" style="stop-color:#9BDDEE"/>
			<stop  offset="0.746" style="stop-color:#AEB5F1"/>
			<stop  offset="0.8382" style="stop-color:#C97DF6"/>
			<stop  offset="0.9405" style="stop-color:#EA36FB"/>
			<stop  offset="1" style="stop-color:#FF0AFF"/>
		</linearGradient>
		<path class="st43" d="M481.5,687.9c8.2-1,16.3-1.9,24.5-2.9c0,3.6,0,5.4,0,10c-2.6,0.4-4,0.6-6.7,1.1c0-2.8,0-4.1,0-6.5
			c-5.9,0.8-11.8,1.6-17.7,2.4c0.1,7.3,0,14.6-0.2,21.9c13.5-2.8,27-5.6,40.5-8.5c0.3-10.2,0.4-20.4,0.4-30.6
			c-7.7,0.6-15.4,1.3-23.1,1.9c0-3.8,0-5.7,0-10.6c2.7-0.1,4.1-0.2,6.7-0.3c0,2.8,0,4.1,0.1,6.5c5.5-0.4,10.9-0.7,16.4-1.1
			c0-6.5,0.1-13,0.2-19.5c-13.6-0.1-27.2-0.1-40.8-0.2C481.4,663.7,481.3,675.8,481.5,687.9z"/>
		
			<linearGradient id="SVGID_23_" gradientUnits="userSpaceOnUse" x1="545.8445" y1="1489.84" x2="545.8445" y2="1542.1399" gradientTransform="matrix(1 0 0 -1 0 2193.9399)">
			<stop  offset="0.237" style="stop-color:#03FFBD"/>
			<stop  offset="0.3046" style="stop-color:#1AFFC5"/>
			<stop  offset="0.4453" style="stop-color:#54FFD8"/>
			<stop  offset="0.5674" style="stop-color:#8BFFEB"/>
			<stop  offset="0.6052" style="stop-color:#8FF6EC"/>
			<stop  offset="0.6673" style="stop-color:#9BDDEE"/>
			<stop  offset="0.746" style="stop-color:#AEB5F1"/>
			<stop  offset="0.8382" style="stop-color:#C97DF6"/>
			<stop  offset="0.9405" style="stop-color:#EA36FB"/>
			<stop  offset="1" style="stop-color:#FF0AFF"/>
		</linearGradient>
		<path class="st44" d="M549.5,651.9c-0.1,12,0,24.1-0.1,36.1c-2.3,0.4-3.4,0.6-5.8,1c0.1-12.4,0.1-24.7,0.2-37.1
			c-5.8,0-8.8,0-15-0.1c-0.3,17.4-0.2,34.9-0.6,52.3c11.8-2.5,23.5-5,35.2-7.6c0.2-14.9,0-29.7,0-44.6
			C558,651.9,555.2,651.9,549.5,651.9z"/>
		
			<linearGradient id="SVGID_24_" gradientUnits="userSpaceOnUse" x1="649.8499" y1="1513.9399" x2="649.8499" y2="1541.6399" gradientTransform="matrix(1 0 0 -1 0 2193.9399)">
			<stop  offset="0.237" style="stop-color:#03FFBD"/>
			<stop  offset="0.3046" style="stop-color:#1AFFC5"/>
			<stop  offset="0.4453" style="stop-color:#54FFD8"/>
			<stop  offset="0.5674" style="stop-color:#8BFFEB"/>
			<stop  offset="0.6052" style="stop-color:#8FF6EC"/>
			<stop  offset="0.6673" style="stop-color:#9BDDEE"/>
			<stop  offset="0.746" style="stop-color:#AEB5F1"/>
			<stop  offset="0.8382" style="stop-color:#C97DF6"/>
			<stop  offset="0.9405" style="stop-color:#EA36FB"/>
			<stop  offset="1" style="stop-color:#FF0AFF"/>
		</linearGradient>
		<path class="st45" d="M663,652.4l-26.2-0.1l-0.2,27.7l10.6-2.6l0.1-9.4c0,0,2.6-0.4,4.3-0.6c0.1,2.4,0.1,9.1,0.1,9.1l11.4-2.5
			v-6.6l-3.4-1.6l3.4-1.8L663,652.4z M651.6,663.5l-4.4,0.5v-4.8l4.4-0.2V663.5z"/>
		
			<linearGradient id="SVGID_25_" gradientUnits="userSpaceOnUse" x1="617.8" y1="1506.64" x2="617.8" y2="1541.7628" gradientTransform="matrix(1 0 0 -1 0 2193.9399)">
			<stop  offset="0.237" style="stop-color:#03FFBD"/>
			<stop  offset="0.3046" style="stop-color:#1AFFC5"/>
			<stop  offset="0.4453" style="stop-color:#54FFD8"/>
			<stop  offset="0.5674" style="stop-color:#8BFFEB"/>
			<stop  offset="0.6052" style="stop-color:#8FF6EC"/>
			<stop  offset="0.6673" style="stop-color:#9BDDEE"/>
			<stop  offset="0.746" style="stop-color:#AEB5F1"/>
			<stop  offset="0.8382" style="stop-color:#C97DF6"/>
			<stop  offset="0.9405" style="stop-color:#EA36FB"/>
			<stop  offset="1" style="stop-color:#FF0AFF"/>
		</linearGradient>
		<polygon class="st46" points="603.6,687.3 631.9,681 631.9,674 616.6,676.1 616.6,672.7 632,670.8 632,663.2 616.6,664.5 
			616.6,660.9 632,660.1 632,652.3 603.7,652.1 		"/>
		
			<linearGradient id="SVGID_26_" gradientUnits="userSpaceOnUse" x1="584.0001" y1="1498.49" x2="584.0001" y2="1541.8397" gradientTransform="matrix(1 0 0 -1 0 2193.9399)">
			<stop  offset="0.237" style="stop-color:#03FFBD"/>
			<stop  offset="0.3046" style="stop-color:#1AFFC5"/>
			<stop  offset="0.4453" style="stop-color:#54FFD8"/>
			<stop  offset="0.5674" style="stop-color:#8BFFEB"/>
			<stop  offset="0.6052" style="stop-color:#8FF6EC"/>
			<stop  offset="0.6673" style="stop-color:#9BDDEE"/>
			<stop  offset="0.746" style="stop-color:#AEB5F1"/>
			<stop  offset="0.8382" style="stop-color:#C97DF6"/>
			<stop  offset="0.9405" style="stop-color:#EA36FB"/>
			<stop  offset="1" style="stop-color:#FF0AFF"/>
		</linearGradient>
		<path class="st47" d="M568.9,695.4c5.4-1.2,12.9-2.9,12.9-2.9v-15.3l17.4-2.3l0.1-22.7c-10,0-20.6-0.1-30.6-0.1
			C568.8,666.6,569,681,568.9,695.4z M581.8,662.6l5.1-0.2v6.1l-5.1,0.5V662.6z"/>
	</g>
</g>
<g id="Hair">
	<g>
		<path d="M589.5,29.7c0.3,0.3,0.5,0.9,0.8,1c4,0.6,6.5,3,8.2,6.5c1.2,2.5,2.7,4.9,4.1,7.5c6.6-3.6,12.8-2,18.7,1.5
			c1.3,0.8,2.5,1.2,3.8,1.8c2.9,1.3,5.7,2.9,7.8,5.8c5.9-2.9,10.5-0.8,14.4,4.5c0,2.7,0,5.8,0,8.9c1.1,0.9,2,1.9,3.2,2.4
			c1.6,0.6,3.4,0.8,5.1,1.1c2.5,0.4,5-0.2,7.7,0.8c3.9,1.5,6.9,3.7,8.9,7.3c0.6,1.2,1.2,2.5,1.8,3.8c2.1,0,4.3-0.2,6.4,0.1
			c1.3,0.1,2.9,0.5,3.9,1.3c2.7,2.1,5.2,4.4,7.8,6.7c1.5,1.3,2.4,2.8,2.9,4.8c0.8,3.4,0.7,6.6-0.1,10.2c0.5,0.2,1.4,0.6,2.2,1
			c3.7,2,7,4.7,8.4,8.8c0.8,2.4,2.3,4.1,4.5,5c4,1.6,4.8,5.1,5.5,8.7c0.3,1.6,0.2,3.3,0,5c-0.1,1.2-0.6,2.4-0.9,4
			c2.4,2.4,5.3,4.8,6.4,8.4c0.6,1.9,1.1,3.6,3.4,4.6c2.4,1.2,3.8,4.2,3.9,6.7c0.2,3.3,0.7,6.3,2.2,9.1c1.5,2.9,0,5.3-0.8,7.9
			c-0.3,0.9-0.8,1.7-1.3,2.9c1.5,2,2.5,4.5,2.1,7.3c-0.3,1.9,0.8,3.3,1.7,4.8c3.1,5,3.3,10.1,0.5,15.5c4.7,5.6,5.9,11.4-0.4,17.1
			c1.5,2.2,2.5,4.6,2.3,7.5c-0.2,2-0.5,3.8-2,5.2c-0.7,0.7-1.4,1.5-2.1,2.1c-1.7,1.4-4.4,2.3-1.9,5.4c0.4,0.5,0.1,1.6,0.1,2.5
			c0,2.3,0.1,4.2,1.8,6.3c1.8,2.1,1.6,5.3,0.8,8.3c-0.5,1.7-1.2,3.9-0.5,5.2c2.2,4.1,0.2,7.8-0.5,11.6c-0.5,3-0.9,3-4.6,6.7
			c0,8.4-0.1,16.8,0,25.3c0.1,3.7-0.4,6.8-4.7,7.9c-1.9-1.2-2.4-3-2.4-5.6c0.2-8.7-0.2-17.3,0.2-26c0.3-6.6-0.6-13.1-1.3-19.6
			c-0.5-4.4-0.6-9.1-2.8-13.3c-0.7-9.1-4.3-17.5-7.1-26.1c-2.2-6.6-4.9-13-8.3-19.1c-0.2-0.4-0.7-0.7-1.2-1.2
			c-3.4-0.1-7,0.5-9.7-2.7c-2.2-2.6-3.8-5.4-3.9-9.3c-1.9,0-3.9-0.1-5.8,0c-5.9,0.3-9.8-2.6-13.2-7.2c-3.5-4.8-5.2-10.2-6.7-15.7
			c-0.6-2.3-2-2.5-3.4-3c-1-0.4-2.3,0-3.5-0.1c-4.9-0.4-9.2-2.1-12.6-5.8c-1.1-1.3-1.9-2.9-2.7-4.4c-0.7-1.3-1.6-1.6-3.1-1.9
			c-5.1-0.9-10-2.4-13.9-6.3c-0.9-0.9-2-1.5-3.1-2.1c-0.2-0.1-0.7,0-1,0.1c-3,0.4-5.3,3-8.5,2.5c-1.8,1.9-4.2,1.2-6.1,0.8
			c-5-1.2-10.1-2.6-13.6-6.6c-3.9,1.2-7.2,3.3-11.4,3.9c-3.7,0.5-7.1,1.4-10.8,0.1c-1-0.4-2.7,1.1-4.1,1.7
			c-4.5,1.6-8.4,4.6-13.3,5.3c-0.9,0.1-1.8,0.6-2.7,0.7c-1.8,0.1-3.7,0.2-5.5,0c-2.3-0.2-3.9,0.7-5.7,1.9c-3,2.1-6.1,4.1-9.8,5.2
			c-3.9,1.2-7.4,1-10.9-1c-0.3-0.1-0.6-0.1-1.1-0.2c-2.5,2.5-5.1,5.1-7.7,7.7c-3.1,3.2-7.1,5.5-11.1,6.9c-3.1,1.1-6.7,1.2-10-0.3
			c-0.7-0.3-1.5-0.2-2.8-0.4c0.7,5.3-0.8,10-3,14.3c-4.3,8.4-10.9,14.2-20.5,15.9c-1.1,0.2-2.4,1.2-3,2.2c-3.4,5.4-6.4,11-8.3,17
			c-2,6.3-3.3,12.7-4.2,19.3c-0.7,5.1-0.3,10.5-2.7,15.3c-0.5,0.9-0.1,2.3-0.1,3.5c0,14.7,0,29.3,0,44c0,1.2,0.1,2.3,0,3.5
			c-0.1,1.3-0.9,1.9-2.2,2.2c-1.4,0.2-2.4-0.7-2.7-1.7c-0.6-2.1-0.9-4.4-1-6.6c-0.2-4,0-8-0.1-12c0-1.8,0.4-3.6-1.5-4.9
			c-0.5-0.3-0.1-1.8-0.5-2.2c-1-0.9-0.7-2.9-3.2-2.9c-2.3,0-3.8-2.6-4.6-4.7c-0.7-1.8-1.2-3.8-2-5.7c-1-2.3,0.2-4.9,1.1-7
			c1-2.3,1.2-4.4,0.3-6.5c-0.8-1.8-0.6-3.8-2.3-5.6c-1.9-2-3.4-4.9-1.3-8.1c1-1.4,1.3-3.2,1.1-5.1c-0.2-1.8,0.1-3.7-0.1-5.5
			c-0.2-2.4,0.5-4.4,2-6.4c-3.6-0.8-4.6-4.2-5.6-6.9c-0.9-2.2-0.8-5,0.7-7.5c2.4-4,3.1-8.3,1-12.7c0.6-2.8-1.2-4.9-2.3-7
			c-3.2-6-3.4-11.9-1.3-18.3c1.5-4.5,4.1-8.2,7.5-11.4c-1.9-2.5-3.9-4.7-5.1-7.8c-1.9-4.8-0.4-8.8,1.7-12.6c1.9-3.5,4.9-6,9.3-6.2
			c0.8,0,1.9-0.8,2.3-1.6c2.1-3.8,5.2-6.3,9.1-8.1c0.3-0.1,0.5-0.5,0.8-0.8c0-2,0-4.2,0-6.3c0-5.7,3.4-9.5,7.3-13
			c2.9-0.5,5.7-2.3,8.8-0.6c0.7,0.4,1.5,0.4,2,0.5c1.5-2.1,2.8-4,4.2-5.9c1.2-1.7,2.5-3.3,3.7-5c0.3-0.4,0.3-0.9,0.6-1.2
			c1-1.1,2.2-2.1,3.1-3.2c1-1.1-0.5-3,1.1-4c1.6-6.9,6.4-11,12.2-14.3c4.5-2.5,9.1-2.2,12.6,1.7c0.4,0.4,1,0.7,1.8,1.3
			c1.1-3.8,2.5-7.1,5.2-9.6c2-1.8,4-2.9,6.8-2.9c3.7,0,7.2,0.8,10.8,2.1c2.3-3,3.9-6.6,7.6-8.7c2.3-1.3,4.5-2.1,6.9-2.7
			c2.4-0.7,4.5-1,6.9,0.3c1.8,1,3.1-0.1,4.4-2.4c0.4-0.8,0.8-1.7,1.4-2.4c1.6-1.7,3.3-3.3,5.1-5.1c1.3,0,2.8,0,4.3,0
			c0.6,0,1.6-0.1,1.9,0.2c2.3,3.5,4.4,1,6.5-0.2c1.2-0.7,2.4-1.5,3.7-2c1.6-0.6,2.5-1.7,3.3-3.3c2.1-4.5,5.8-7.4,10.2-9.6
			c0.9-0.4,2.5,0.8,2.7-1.2C586.1,29.7,587.8,29.7,589.5,29.7z"/>
		<path d="M433.5,333.7c2.8-0.4,3.1,1.8,3.5,3c3.5,11.2,9,21.6,12.5,32.8c2.3,7.2,4.6,14.4,8.4,21c2.2,3.8,4.6,7.4,7.1,11
			c0.6,0.8,1.8,1.2,2.7,1.8c6.8,5,14,9.2,21.7,12.7c5.2,2.4,10.4,4.7,15.9,7.2c3.3-7.3,6.8-15,10.1-22.7c1.3-3.1,3.7-5.3,6.1-7.4
			c1-0.9,2.5-1.2,3.8-1.5c2-0.5,4-0.9,6.1-1c1.9-0.1,3.5-1.8,5.6-1.1c4.6-1.8,9.7-1,14.3-3c0.1-0.1,0.3,0,0.5,0
			c6.4,0.3,12.7-1.7,19.1-1c0.8,0.1,1.6,0.1,2.4,0.3c4.1,1.2,4.1,1.1,8.5,0c1.4-0.4,2.9-0.3,4.4-0.2c5.7,0.3,11.5,0.2,17.1,1.1
			c5.6,1,11.2,1.7,16.8,2.9c3.4,0.7,6.8,1.3,10.1,2.1c3.7,0.9,6.5,3.6,8.3,6.8c1.4,2.5,2.5,5.3,3.6,8s2.7,5.1,3.6,8
			c0.9,3.1,2.8,5.8,4.3,8.7c8-3.9,16.1-7.9,24.3-11.7c4.6-2.1,8.4-5.5,12.7-8c1.9-1.1,3.3-2.6,4.6-4.5c3.4-5.2,6.9-10.4,9.1-16.2
			c0.4-1,0.6-2.1,1.1-3.1c1.1-2.4,1.4-5,2.7-7.4c1.2-2.1,1.9-4.6,2.6-6.9c1.8-6.9,4.7-13.4,7.8-19.8c1.1-2.3,2.1-4.8,2.7-7.4
			c0.7-2.8,1.7-4.9,5-5.7c0.3,0.8,1,1.7,1,2.5c0.1,7.2,0.8,14.4-0.2,21.5c-1.1,7.4-0.3,14.8-0.8,22.1c-0.3,3.5-0.8,6.9-1.8,10.2
			c-0.7,2.3-0.2,4.7-1,7.1c-1,2.8-0.3,6.2-1.3,9c-0.9,2.7-1,5.5-1.8,8.2c-1.1,3.2-2.4,6.3-4,9.3c-3.2,5.9-5.7,12-9.7,17.5
			c-3.1,4.1-6.8,7.6-10.5,11.1c-2.9,2.8-6.5,5-10,7.1c-3.7,2.3-7.4,4.7-11.4,6.3c-12.9,5-17.3,7.2-26,13.2
			c-4.9,3.3-10.1,6.1-15.1,9.3c-5.4,3.4-11.1,6.1-16.8,8.9c-4.5,2.2-9.2,3.5-14,4.9c-4.1,1.2-8.4,0.8-12.3,2.9c-0.6,0.3-1.6,0-2.5,0
			c-2.7,0-5.3,0-8,0c-3.6,0-7.1,0.2-10.6-0.9c-3.3-1-6.8-1.3-10.1-2.1c-3.3-0.8-6.6-1.7-9.7-3c-4.4-1.9-8.7-3.9-12.9-6.3
			c-5.3-3-10.3-6.5-15.6-9.5c-7.8-4.4-14.9-10.1-23.4-13.5c-5.9-2.3-11.8-4.6-17.3-7.8c-3.8-2.2-7.7-4.3-10.9-7.4
			c-2.2-2.1-4.6-4-7-6c-5.8-5-9.6-11.4-13-18.1c-2.1-4-3.1-8.4-4.1-12.8c-1-4.7-2.5-9.3-3.7-13.9c-0.6-2.3,0.4-4.9-1.2-7
			c-0.2-5.1-1.4-10.1-2.2-15.1c-1.1-6.4-0.3-12.8-0.8-19.1c-0.3-3.2,0.8-6.5-1-9.6c-0.2-0.4-0.2-1,0-1.5c1.9-4.4,0.6-9.1,1-13.6
			C433.6,335.5,433.5,334.6,433.5,333.7z M577.1,395.8c-1.2,0.5-2.5,1.4-4,1.8c-5.2,1.5-10.3,3.3-15.8,4.3
			c-5.1,0.9-10.2,1.8-15.3,2.6c-3.4,0.6-6.7,1.6-10.1,2.3c-1.6,0.3-3.1,1.6-4,3.6c-2.9,6.6-6.3,13-9.5,19.5
			c-1.4,2.8-1.3,2.8,1.3,4.6c0.5,0.4,1.1,0.8,1.4,1.3c2.1,3.7,5.5,6.5,7.5,10.4c2.5,4.7,6.9,7.9,10.6,11.6c3.3,3.2,8.8,3.6,12.8,1.6
			c3.5-1.8,6.6-4.1,8.3-7.4c2.1-4.2,5.3-5.6,9.7-5.5c5.2,0.2,10.3,0.3,15.5,0c3.9-0.2,6.4,1.9,8.7,4.4c0.9,1.1,1.9,2.2,2.4,3.5
			c0.7,1.6,2.1,2.2,3.2,3.1c5.9,4.5,10.4,4.5,15.5,0.4s9.9-8.9,13.1-15c1.4-2.6,3.5-4.9,5.4-7.2c0.4-0.5,1.4-0.7,2-1.1
			c1.7-1.1,1.9-2,0.9-4.1c-3.2-6.5-6.4-13-9.5-19.5c-1.2-2.5-3-3.5-5.6-4.5c-4.2-1.5-8.6-1.6-12.8-2.8c-2.9-0.8-6.1-0.5-9-1.2
			c-3-0.7-6.2-1.1-9.2-2C586.3,399.2,582,397.5,577.1,395.8z"/>
	</g>
</g>
<g id="Driver">
	<title>2_men_drivers_2</title>
	<path class="st48" d="M296.1,852.2l0.2-0.1l42.5-7l7.3,13.8l-27.5,32.7C306.6,882,297.8,867.7,296.1,852.2z"/>
	<path d="M296.1,852.2l-73.7,41.1l2.7,13c0,0,15.5,3.5,23.5,26l70.1-40.8C306.6,882,297.8,867.7,296.1,852.2z"/>
	<path class="st49" d="M308.2,871.5l29.9-16.8l-1.9-5.1l-33.6,6.1C302.6,855.8,303,864.5,308.2,871.5z"/>
	<path class="st1" d="M1000.8,504l6.6-4.9c0,0,0-0.1,0-0.3c-2.8,1.6-5.7,3.2-8.8,4.9C999.4,503.8,1000.1,503.9,1000.8,504z"/>
	<path d="M847.2,570.8L338.9,845l7.3,13.8c0,0,302.4-162.9,507.8-275.1c-3.2-3.3-5.4-7.4-6.3-11.9
		C847.6,571.5,847.4,571.1,847.2,570.8z"/>
	<path d="M1039.5,479.7c3-7.4-3-11-3-11l-79.7,43c0.5,3.6,1.8,6.9,3.9,9.9c2.7-2,6.8-3.3,13-3.8l9.6-5.3c0.7-2.4,3.5-9.3,15.3-8.6
		c3.1-1.7,6-3.4,8.8-4.9c-0.2-1.9-1.3-13.6,7.5-15.6c3.7-0.8,8.3,1.3,12.4,4.1C1035,482.9,1039.2,480.2,1039.5,479.7z"/>
	<path class="st50" d="M853.9,583.7L853.9,583.7c24-13.1,46.8-25.6,67.7-37.1v-0.1C900.9,558,878.1,570.5,853.9,583.7z"/>
	<path class="st50" d="M956.7,511.6l-109.6,59v0.1L956.7,511.6L956.7,511.6z"/>
	<path class="st48" d="M940.1,536.4c5.6-3.1,11-6.1,16.3-9c0.9-2.3,2.4-4.3,4.3-5.8c-2.1-2.9-3.5-6.3-3.9-9.9l-109.5,59.1
		c0.2,0.4,0.3,0.7,0.4,1c0.9,4.5,3,8.7,6.3,11.9c24.2-13.2,47-25.7,67.8-37.2C923.1,542.5,927.5,537.9,940.1,536.4z"/>
	<path class="st48" d="M1046.7,394.1c-13.4-52.1-51-68.4-75.4-68.5c-44.9-0.1-103,34.2-89.6,106.7s125.8,66.9,125.9,66.9
		s-2.1-13.7,7.5-15.8c3.6-0.8,8,1.1,12.1,3.9l12.4-7.5C1039.5,479.7,1062.1,454.2,1046.7,394.1z"/>
	<path d="M1051.7,418.5l-0.1-0.3c-4.5-14.2-14.8-25.9-28.4-32c-25.2-11.5-50-10.4-67.2-3c-28.5,12.3-40.7,30.2-45.6,50.3
		c-6.9,28.5,6.1,44.9,22.1,52.5c35.8,15.2,74.8,13,74.8,13s-2.1-13.7,7.5-15.8c3.6-0.8,8,1.1,12.1,3.9l12.4-7.5
		C1039.5,479.7,1056.8,460.2,1051.7,418.5z"/>
	<path class="st51" d="M941.2,421.7c3.7-3.3,7.6-6.3,11.8-9c1.5-1,3.5-0.6,4.5,0.8c10.1,14,35.8,49,52.8,68.1
		c1.2,1.4,1.1,3.5-0.3,4.7c-0.3,0.3-0.6,0.5-1,0.6l0,0c-1.1,0.4-2.2,0.3-3.2-0.4c-21.1-14.7-52.6-47.1-64.9-60.1
		C939.7,425.1,939.8,423,941.2,421.7C941.1,421.7,941.1,421.7,941.2,421.7z"/>
	<path class="st51" d="M992.6,400.6l28.2,78.4c0.6,1.5-0.2,3.3-1.7,3.9l0,0c-1.4,0.6-3.1,0-3.8-1.3l-42.5-74.7
		c-0.8-1.4-0.4-3.3,1-4.1c0.2-0.1,0.4-0.2,0.6-0.3c4.8-1.5,9.7-2.8,14.6-3.8C990.6,398.3,992.1,399.1,992.6,400.6z"/>
	<path class="st51" d="M1020.6,394.9c8.4,19.8,10.4,61.5,10.1,81.4c-0.1,1.3-0.9,2.4-2.1,2.8l0,0c-1.9,0.8-4-0.2-4.1-1.9
		c-2-28.9-12.5-61.3-18.6-78.2c-0.6-1.6,0.7-3.4,2.7-3.8c3.4-0.7,6.6-1.3,8.8-1.7C1018.7,393.1,1020,393.7,1020.6,394.9z"/>
	<path class="st51" d="M995.3,491.8c-46.6-15.1-66.9-34.3-71.5-39.2c-0.7-0.7-0.9-1.8-0.5-2.8c1.2-3.1,2.6-6,4.2-8.9
		c0.7-1.3,2.4-1.7,3.7-1c0.2,0.1,0.3,0.2,0.5,0.4c11.4,10.6,36.6,32.4,65.7,46.5c1.3,0.6,1.9,2.2,1.3,3.6c-0.3,0.6-0.8,1.1-1.4,1.3
		l0,0C996.5,491.9,995.9,492,995.3,491.8z"/>
	<path class="st49" d="M906.2,419.4c-8.7-5.1-14.7-14.4-17.3-24.1c-8.1,36.1,14.4,67.7,14.4,67.7C899,445.4,901.3,431,906.2,419.4z"
		/>
	<path class="st49" d="M912.3,355.6c-8.3,7.8-14.9,17.1-19.5,27.6c1.7,11.1,8.2,22,18.1,27.1c3.4-5.3,7.4-10.2,11.9-14.6
		C903.1,386.1,905.7,367.9,912.3,355.6z"/>
	<path class="st49" d="M946.5,335.3c0,0,11.7,15.9,6.3,39.2c0,0,43.4-20.1,83.7,11.6C1036.5,386.1,1022.7,324.7,946.5,335.3z"/>
	<path class="st51" d="M241.3,907.1l54-29.7c0,0-5.3-10.6-5.3-15.9l-56.1,30.7C233.9,892.2,233.9,902.8,241.3,907.1z"/>
</g>
</svg>
