<?xml version="1.0" encoding="utf-8"?>
<!-- Generator: Adobe Illustrator 24.0.1, SVG Export Plug-In . SVG Version: 6.00 Build 0)  -->
<svg version="1.1" xmlns="http://www.w3.org/2000/svg" xmlns:xlink="http://www.w3.org/1999/xlink" x="0px" y="0px"
	 viewBox="0 0 1262.3 2193.9" style="enable-background:new 0 0 1262.3 2193.9;" xml:space="preserve">
<style type="text/css">
	.st0{fill:#73402B;}
	.st1{fill:#4B5BBC;}
	.st2{fill:#2B3584;}
	.st3{fill:#5F75D6;}
	.st4{fill:none;}
	.st5{fill:url(#SVGID_1_);}
	.st6{fill:#F5FDFF;}
	.st7{fill:url(#SVGID_2_);}
	.st8{fill:url(#SVGID_3_);}
	.st9{fill:#825039;stroke:#825039;stroke-width:2;stroke-miterlimit:10;}
	.st10{fill:#73402B;stroke:#73402B;stroke-width:2;stroke-miterlimit:10;}
	.st11{fill:#5E331F;}
	.st12{fill:#82503A;}
	.st13{fill:#631E1C;}
	.st14{fill:#A05A50;}
	.st15{fill:#F7FAF4;}
	.st16{fill:#321818;}
	.st17{clip-path:url(#SVGID_4_);}
	.st18{clip-path:url(#SVGID_6_);}
	.st19{fill:#231F20;}
	.st20{fill:url(#SVGID_8_);}
	.st21{fill:#2D2D2D;}
	.st22{fill:url(#SVGID_9_);}
	.st23{fill:#C9C9C9;}
	.st24{fill:#E6E6E6;}
	.st25{fill:url(#SVGID_10_);}
	.st26{fill:url(#SVGID_11_);}
	.st27{fill:#3C3E4C;}
	.st28{fill:url(#SVGID_12_);}
	.st29{fill:url(#SVGID_13_);}
	.st30{fill:url(#SVGID_14_);}
	.st31{fill:#FFFFFF;}
	.st32{fill:url(#SVGID_15_);}
	.st33{fill:#515151;}
	.st34{fill:url(#SVGID_16_);}
	.st35{fill:url(#SVGID_17_);}
	.st36{fill:url(#SVGID_18_);}
	.st37{fill:#82774F;}
	.st38{fill:url(#SVGID_19_);}
	.st39{fill:url(#SVGID_20_);}
	.st40{fill:#1A2733;}
	.st41{fill:url(#SVGID_21_);stroke:#FFFFFF;stroke-width:3;stroke-miterlimit:10;}
	.st42{fill:url(#SVGID_22_);stroke:#FFFFFF;stroke-width:3;stroke-miterlimit:10;}
	.st43{opacity:0.64;}
	.st44{fill:url(#SVGID_23_);}
	.st45{fill:url(#SVGID_24_);}
</style>
<g id="Thumb">
	<g>
		<g>
			<g>
				<path class="st0" d="M113.7,524.1c14-1.5,25.4-8.3,33.7-19.7c7.9-11,10.4-25.1,10-38.4c-0.2-7.8-6.5-14.5-14.5-14.5
					c-7.7,0-14.7,6.6-14.5,14.5c0.2,8.2-0.4,14.8-4.4,21.3c-0.4,0.6-0.8,1.2-1.2,1.8c0.8-1,0.6-0.8-0.5,0.5
					c-0.4,0.4-4.3,3.8-2.5,2.5c-0.5,0.3-5.1,2.8-2.9,1.9c-0.6,0.3-5.8,1.3-3.2,1.1c-7.8,0.8-14.5,6.1-14.5,14.5
					C99.2,516.8,105.9,524.9,113.7,524.1L113.7,524.1z"/>
			</g>
		</g>
	</g>
</g>
<g id="Driver">
	<title>2_men_drivers_2</title>
	<path class="st1" d="M1041.3,574.8l-0.3,0l-40.4-19.6l2.1-16.1l43.1-11.4C1050.3,543,1049.2,560.5,1041.3,574.8z"/>
	<path class="st2" d="M1041.3,574.8l87.5,9.2l5.6-12.7c0,0-11.1-12.3-4.4-36.3l-84.2-7.3C1050.3,543,1049.2,560.5,1041.3,574.8z"/>
	<path class="st3" d="M1042.7,551l-35.5-3.6l-1.5,5.4l32.3,15C1038,567.8,1042.9,560.1,1042.7,551z"/>
	<path class="st4" d="M231.8,448l-8.6,0.2c0,0-0.1,0.1-0.2,0.2c3.3,0.3,6.8,0.7,10.4,1C233,449,232.4,448.5,231.8,448z"/>
	<linearGradient id="SVGID_1_" gradientUnits="userSpaceOnUse" x1="402.8005" y1="511.8011" x2="1002.715" y2="511.8011">
		<stop  offset="0.4535" style="stop-color:#FB12FE"/>
		<stop  offset="0.5045" style="stop-color:#D440F9"/>
		<stop  offset="0.5761" style="stop-color:#A27AF3"/>
		<stop  offset="0.6422" style="stop-color:#7AA8EE"/>
		<stop  offset="0.7007" style="stop-color:#5EC9EB"/>
		<stop  offset="0.7493" style="stop-color:#4CDDE9"/>
		<stop  offset="0.782" style="stop-color:#46E4E8"/>
	</linearGradient>
	<path class="st5" d="M402.8,483.4l597.8,71.8l2.1-16.1c0,0-355.5-42.9-597.9-70.7c0.8,4.7,0.2,9.6-1.8,13.9
		C402.9,482.6,402.9,483,402.8,483.4z"/>
	<path class="st6" d="M404.8,468.4L404.8,468.4c-28.3-3.3-55.3-6.3-80-9.1l-0.1,0.1C349.4,462,376.3,465.1,404.8,468.4z"/>
	<path class="st6" d="M274,468l128.8,15.6l0-0.1L274,468C274,468,274,468,274,468z"/>
	<path class="st2" d="M303,456.9c-6.6-0.7-13.1-1.4-19.3-2.1c-2.1,1.5-4.6,2.3-7.2,2.4c0,3.7-0.8,7.4-2.6,10.8l128.8,15.5
		c0.1-0.4,0.1-0.8,0.2-1.1c2-4.4,2.6-9.2,1.8-13.9"/>
	<linearGradient id="SVGID_2_" gradientUnits="userSpaceOnUse" x1="180.4719" y1="457.7112" x2="290.287" y2="457.7112">
		<stop  offset="0.4535" style="stop-color:#FB12FE"/>
		<stop  offset="0.5045" style="stop-color:#D440F9"/>
		<stop  offset="0.5761" style="stop-color:#A27AF3"/>
		<stop  offset="0.6422" style="stop-color:#7AA8EE"/>
		<stop  offset="0.7007" style="stop-color:#5EC9EB"/>
		<stop  offset="0.7493" style="stop-color:#4CDDE9"/>
		<stop  offset="0.782" style="stop-color:#46E4E8"/>
	</linearGradient>
	<polygon class="st7" points="191.3,445.5 290.3,455.5 290.3,469.9 180.5,458.9 	"/>
	<path class="st2" d="M126.8,514.1c-19.9,52.5,2.3,88.9,23.1,103.7c38.2,27.1,108.3,32.7,140.4-37s-67-132.6-67.1-132.6
		c0,0-6.5,12.9-15.9,9c-3.6-1.5-6.1-5.8-8-10.6l-15.1-1C184.3,445.5,149.7,453.6,126.8,514.1z"/>
	<linearGradient id="SVGID_3_" gradientUnits="userSpaceOnUse" x1="134.4297" y1="512.8162" x2="285.2203" y2="512.8162">
		<stop  offset="0.4535" style="stop-color:#FB12FE"/>
		<stop  offset="0.5045" style="stop-color:#D440F9"/>
		<stop  offset="0.5761" style="stop-color:#A27AF3"/>
		<stop  offset="0.6422" style="stop-color:#7AA8EE"/>
		<stop  offset="0.7007" style="stop-color:#5EC9EB"/>
		<stop  offset="0.7493" style="stop-color:#4CDDE9"/>
		<stop  offset="0.782" style="stop-color:#46E4E8"/>
	</linearGradient>
	<path class="st8" d="M137.1,490.2l-0.1,0.3c-4.7,14.8-2.9,30.9,5,44.3c14.5,25,36.3,38.9,55.4,42.9c31.7,6.7,52.8-1.3,69-15.5
		c23-20.1,21.8-41.9,12.7-58c-21.4-34.5-55.9-56-55.9-56s-6.5,12.9-15.9,9c-3.6-1.5-6.1-5.8-8-10.6l-15.1-1
		C184.3,445.5,157.8,451.6,137.1,490.2z"/>
	<path class="st2" d="M233,554c-5.2,0.6-10.4,0.8-15.5,0.6c-1.9-0.1-3.3-1.6-3.4-3.5c-0.2-18.1-1-63.6-4.1-90.3
		c-0.2-1.9,1.2-3.7,3.1-3.9c0.4,0,0.8,0,1.2,0.1l0,0c1.2,0.3,2.1,1.1,2.5,2.2c9.2,25.3,16.5,72.1,19.2,90.7
		C236.3,552,235,553.7,233,554C233.1,554,233.1,554,233,554z"/>
	<path class="st2" d="M176.2,541.1l23.2-84.3c0.4-1.7,2.1-2.7,3.8-2.3l0,0c1.6,0.3,2.6,1.8,2.4,3.4l-8.7,89.7
		c-0.1,1.7-1.6,3-3.4,2.9c-0.2,0-0.5-0.1-0.7-0.1c-5-1.6-10-3.4-14.8-5.6C176.6,544.2,175.8,542.6,176.2,541.1z"/>
	<path class="st2" d="M149.4,529.1c4.8-21.9,28.1-58.7,40.3-75.4c0.8-1,2.2-1.4,3.5-1.1l0,0c2.1,0.5,3.3,2.5,2.3,4.1
		c-15.6,25.8-26.2,59.8-31.1,77.8c-0.5,1.7-2.7,2.5-4.6,1.6c-3.3-1.5-6.4-2.9-8.6-3.8C150,531.7,149.2,530.4,149.4,529.1z"/>
	<path class="st2" d="M229,461.3c30.8,41.1,36.6,69.7,37.6,76.8c0.2,1.1-0.3,2.1-1.2,2.7c-2.9,1.9-5.9,3.6-9,5.1
		c-1.4,0.7-3.1,0-3.7-1.4c-0.1-0.2-0.2-0.4-0.2-0.6c-3.4-16-11.8-49.9-28.2-79.6c-0.8-1.4-0.3-3.1,1.1-3.8c0.6-0.3,1.3-0.4,2-0.3
		l0,0C228,460.4,228.6,460.7,229,461.3z"/>
	<path class="st1" d="M261.6,576.9c4.4,9.6,3.9,21.1,0.2,30.9c28.6-25.9,28.4-66.3,28.4-66.3C283.4,559.1,272.8,570,261.6,576.9z"/>
	<path class="st1" d="M218.1,627.6c11.7-1.6,23-5.6,33.2-11.8c5.2-10.5,6.2-23.7,0.8-34c-6.1,2.5-12.4,4.3-18.9,5.3
		C244.3,607.2,231.1,621.1,218.1,627.6z"/>
	<path class="st1" d="M176.8,624.4c0,0-0.4-20.5,18.1-37.2c0,0-49.1-8.9-64.3-60.2C130.7,527,105.5,587.6,176.8,624.4z"/>
	<path class="st1" d="M1121,560.9l-63.8-7.2c0,0-1.9,12.2-5,16.7l66.3,7.6C1118.4,578,1124.8,569,1121,560.9z"/>
</g>
<g id="Body_1_">
	<path class="st0" d="M645.5,441.9c-0.1,0.6,0.3,0.9,0.8,1c10.7,1.2,19,6.1,24.5,12.9c3.6,4.6,6.3,9.8,5.8,16
		c-0.2,2.6,0.5,5.5-0.2,7.9c-1.4,5.2-0.7,10.4-0.9,15.6c-0.1,5.3,0,10.6,0,15.9c0,0.8,0,1.6,0,2.6c4.7-0.3,8.8,1,13.2,1.2
		c4.9,0.2,9.7,1.5,14.6,2c2,0.2,4,0.7,6.1,0.9c0.7,0.1,1.4,0.6,2.1,1c-0.1,0.6,0.4,1.4-0.4,1.8c-4.2,2.4-8.3,4.9-12.5,7.1
		c-5.9,3.1-12,5.5-18.3,7.7c-3.5,1.2-7,2.8-10.6,3.2c-4.2,0.6-8.2,2.8-12.6,2.1c-2,1.8-4.4,1-6.6,0.9c-2.3-0.1-4.2,1.6-6.6,1.2
		c-2.1-0.3-4.3-0.1-6.5-0.1c-2.3,0-4.7,0-7,0c-2.1,0-3.8-1.5-6.1-1.1c-2.2,0.4-4.4-0.6-6.6-0.8c-3.5-0.4-6.8-1.3-10.2-2
		c-2.5-0.5-4.8-1.6-7.1-2c-5.3-0.9-10-3.2-14.8-5.2c-5.5-2.3-10.8-5.2-16.2-7.9c1.6-2.2,4.2-2.2,6.5-2.9c6.6-2.2,13.3-4.1,20-6
		c0.8-0.2,1.4-0.9,2.1-1c1-0.2,1.5-0.3,1.4-1.4c-0.8-8.1,1.3-16,1-24.1c-0.2-4.2-0.2-8.3,0-12.5c0.4-10.8,4.3-20.2,12.7-27.2
		c3.8-3.1,8.1-5.9,13.5-6c0.5,0,0.9-0.4,0.8-1C633.5,441.9,639.5,441.9,645.5,441.9z"/>
	<path class="st0" d="M932.5,2144.7c0,1.7,0,3.3,0,5c-0.3,0-0.7,0-1,0c-1.3-1-2.5-2.2-3.9-3c-1.8-1-3.3-2.3-4.2-4.3
		c-0.6-1.3-1.5-2-3-1.8c-0.2-1.3,0.7-2.9-0.4-3.8c-1.4-1.2-1.7-3-3.1-4.3c-3.5-3.1-6.4-7-10.8-8.9c-0.5-0.2-0.8-0.5-0.7-1.1
		c0.1-1,0.7-0.9,1.4-0.9c0.7,0,1.4-0.2,2,0c6.4,2.5,12.6,5.4,16.9,10.9c1.9,2.4,3.2,5.3,4.7,8c0.3,0.7-0.1,1.7,0.1,2.5
		C930.7,2144.2,932.6,2143.2,932.5,2144.7z"/>
	<path class="st9" d="M928.5,2145.7c0.1-1.5-1.8-0.5-2-1.6c-0.1-0.8,0.3-1.8-0.1-2.5c-1.4-2.8-2.8-5.6-4.7-8
		c-4.4-5.5-10.6-8.4-16.9-10.9c-0.6-0.2-1.3,0-2,0c-0.7,0-1.3-0.1-1.4,0.9c0,0.6,0.2,0.9,0.7,1.1c4.5,2,7.3,5.8,10.8,8.9
		c1.4,1.2,1.7,3.1,3.1,4.3c1.1,0.9,0.2,2.5,0.4,3.8c-3.4,5.1-8.2,7.1-14.3,7.1c-8.3,0-15.6-3.2-22.5-7.4c-3.6-2.2-7.2-4.3-10.8-6.5
		c-1.9-1.2-3.3-2.9-5.4-3.9c-1.9-0.9-3.6-2.7-5.4-4c-4.5-3.4-8.2-7.6-12.2-11.4c-4.3-4.1-7.8-8.8-10.5-14.2
		c-1.2-2.4-2.7-4.6-4.4-6.7c-3.1-3.8-7.3-5.8-12-7.2c-4.9-1.4-9.7-0.7-14.6-0.9c-10.5-0.4-20.7-2.6-30.4-6.3
		c-6.5-2.5-12.9-6-17.7-11.5c-4.5-5-7.2-10.8-8.8-17.4c-1.7-6.7-1.4-13.5-0.7-20.1c1.1-9.5,3.4-18.9,7.2-27.9c2.4-5.5,5-11,7.7-16.3
		c3.1-6.1,7.2-11.8,11.3-17.3c1.6-2.2,1.9-3.9,1.1-6.2c-1.8-5.1-4-10.1-5.2-15.3c-1.8-7.7-4.6-15.1-6.6-22.8
		c-0.9-3.7-2.1-7.4-3.3-11.1c-1.3-4.1-2.5-8.3-3.5-12.6c-1.2-5.3-2.4-10.6-4.1-15.8c-1.2-3.4-1.8-6.9-2.8-10.3
		c-1.7-5.7-3.2-11.4-4.5-17.1c-1.2-5.2-2.8-10.2-3.7-15.5c-0.7-4.4-2.1-8.8-3.2-13.2c-0.9-3.8-1.7-7.6-2.6-11.4
		c-0.4-1.8-0.9-3.7-1.3-5.5c-0.4-1.8-0.2-3.9-1.3-5.4c-1.3-1.7,0.7-4-1.4-5.4c0.3-2.3-0.7-4.4-1.1-6.6c-0.7-4.2-1.7-8.3-2.8-12.3
		c-0.5-2-0.6-4.1-1-6.1c-0.5-2.6-1.9-5.2-1.2-8c-1.8-4.2-1.1-9-3-13.3c0.7-2.8-1.6-5.3-1-8.1c0.4-1.7-1.3-2.9-1.1-4.6
		c0.1-1.4,0.4-2.8-0.7-4.2c-0.7-0.8-0.3-2.6-0.1-3.9c0.1-1.4-1.4-2.1-1.1-3.6c0.8-3.3-0.9-6.4-1.2-9.6c-0.3-2.5-0.2-5.2-0.9-7.6
		c-0.7-2.6-0.3-5.2-1-7.6c-0.8-2.6-0.4-5.2-1-7.6c-0.6-2.5-0.8-5-1-7.6c-0.1-2.2-1.2-4.3-1-6.6c0.2-2.2,0.5-4.5-0.9-6.6
		c-0.1-0.1,0-0.3,0-0.5c0.5-6.2-0.9-12.4-1.2-18.6c-0.4-7,0-14.2-1-21.1c-0.8-5.8-0.5-11.4-0.7-17.1c-0.2-5.8-0.7-11.8,0.2-17.5
		c0.8-5.4,0.1-10.8,0.9-16.1c0.9-5.9,1.3-11.8,1.9-17.7c2.1-2.6,0.7-5.9,1.6-8.8c0.9-2.7,1.9-5.8,1.4-8.9c2-1.2,0-4,2-5.2
		c0.4-3-0.8-5.6-1.5-8.4c-0.7-2.8-2.1-5.6-2.4-8.5c-0.3-3-2.6-5.5-2.1-8.7c-2.1-4.6-2.4-9.7-4.1-14.3c-1.2-3.4-1.7-6.9-2.8-10.3
		c-1.5-4.4-2.5-9-3.7-13.5c-1.5-5.7-2.8-11.5-4.4-17.2c-1.7-6-3.1-12-4.7-18c-1.2-4.5-2.2-9.1-3.3-13.6c-1.4-6.1-3.2-12-4.5-18.1
		c-1.1-5-2.8-9.9-3.5-15.1c-0.4-3.1-2-6-2-9.2c-1.8-1.5-1-3.9-1.8-5.8c-0.7-1.5-0.9-3.7-1.1-5.5c-0.2-1.9-1.1-3.7-1.4-5.5
		c-0.3-1.7,0-4-0.9-5c-1.5-1.7,0.2-4.1-1.8-5.3c0.2-5.6-2.4-10.7-3.2-16.2c-0.5-3.6-0.6-7.5-2.8-10.8c0.6-4.3-1.8-8-2.2-12.1
		c-0.3-2.9-0.9-5.9-1.9-8.7c-0.9-2.7-0.4-5.7-2-8.2c0.6-4.3-1.4-8.1-2.2-12.1c-1.2-6.1-2.2-12.3-3.6-18.4c-1-4.4-1.7-9.1-2.5-13.6
		c-0.7-4.4-1-9-2.8-13.3c0.8-3.1-1.6-6-1-9.1c0.3-1.5-1.2-2.2-1.1-3.6c0.1-1.2,0.6-2.6-0.7-3.7c-0.3-0.2-0.3-0.9-0.2-1.4
		c0.3-5.5-2.2-10.7-2-16.2c-1.5-2.2-0.3-4.9-1.2-7c-0.9-2.3-0.2-4.6-1-6.6c-0.9-2.4-0.3-4.9-1-7.1c-0.8-2.4-0.3-4.9-1-7.1
		c-0.9-2.7-0.2-5.6-1-8.1c-0.8-2.6-0.3-5.2-0.9-7.6c-1.3-5.5-0.9-11.1-2.5-16.6c-0.1,2.6-1.8,4.9-1.4,7.7c0.3,1.9-1.4,3.2-1.1,5.1
		c0.3,1.7,0.4,3.6-0.9,5.1c0.8,3.1-1.5,6-1,9.1c0.3,1.7-1.6,2.8-1.1,4.6c0.3,1.3,0.4,2.9-0.9,4.1c0.5,2.8-0.6,5.4-1,8.1
		c-0.6,3.2-0.7,6.5-1.8,9.7c-0.7,2.1,0.5,4.5-1.1,6.5c0.8,3-0.7,5.8-1.2,8.6c-0.9,4.9-1.1,10-2.7,14.8c-0.7,2.2,0.3,4.9-1.2,7
		c0.1,5.2-1.4,10.1-2.2,15.1c-0.8,4.4-1,9-2.8,13.3c0.8,3.1-1.5,6-1,9.1c0.3,1.7-1.5,2.8-1.1,4.6c0.3,1.3-0.2,2.7-0.7,4.1
		c-0.7,2,0.2,4.5-1.2,6.5c0.1,5.2-1.6,10.1-2.2,15.1c-0.3,2.4,0,5.3-1.2,7.4c-1.3,2.3,0.2,4.7-1.4,7c-1.1,1.5,0.2,4.4-1.2,6.5
		c0.1,5.2-1.4,10.1-2.2,15.1c-0.7,4.4-0.9,9.1-2.8,13.3c0.5,2.8-0.6,5.4-1,8.1c-0.5,3.2-0.7,6.5-1.8,9.7c-0.7,2.1,0.5,4.6-1.1,6.5
		c0.8,3.1-1.6,6-1,9.1c0.3,1.5-1.2,2.2-1.1,3.6c0.1,1.2,0.1,2.4-0.6,3.7c-1.1,2,0.3,4.8-1.3,6.9c0.1,5.2-1.4,10.1-2.2,15.1
		c-0.7,4.4-1,9.1-2.8,13.3c0.7,3-1.2,5.7-1,8.6c0.2,2.3-0.7,4.5-1.2,6.5c-1.2,4.7-1.9,9.6-2.6,14.3c-0.7,4.9-2.6,9.6-2.2,14.6
		c-1.8,2.6-1,5.8-1.8,8.7c-0.7,2.7-1.1,5.6-1.5,8.5c-0.3,2.5-1.2,5.2-1.5,7.7c-0.3,2.7-1.8,5.3-1.2,8.1c-2.2,2.2,0.2,5.5-2,7.7
		c0.7,2.8-0.6,5.5-1.2,8c-1.3,5.6-1.5,11.5-3.7,16.9c-0.9,2.3-0.2,5.1,0.9,7.5c2.1,5.1,3.2,10.4,4.1,15.8c0.3,1.9,0.2,4.1,1,5.5
		c1.1,1.8,0,3.8,1,5.1c1.5,1.9,0.1,4,0.9,5.6c1.3,2.4,0.1,5.1,1.1,7.1c1.1,2.3,0.3,4.5,0.9,6.6c1.2,3.8,0.2,7.9,1.1,11.6
		c1.2,5.1,0,10.2,1,15.1c1.4,7,0.7,14.1,0.8,21.1c0.2,7-0.1,14,0.1,21c0.1,3.8-0.8,7.4-1,11.1c-0.2,3.8,0.6,7.8-0.2,11.5
		c-0.9,4.1-0.2,8.2-1,12.1c-0.7,3.4-0.6,6.7-0.9,10.1c-0.2,1.9-0.9,3.6-1,5.6c0,1.9,0.5,3.7-0.7,5.7c-0.9,1.4,0.3,4.1-0.3,5.8
		c-0.8,2.4-0.3,4.9-1,7.1c-0.8,2.4-0.3,4.9-1,7.1c-1.5,4.7-0.9,9.7-2.9,14.3c0.8,3.1-0.7,6.1-1.2,9.1c-0.8,4.4-0.9,9.1-2.6,13.4
		c-0.5,1.1-0.4,2.6-0.2,3.9c0.2,1.4-1.2,2.1-1.1,3.6c0.4,4.8-2.4,9.3-1.9,14.2c-1.5,2.3-1.5,5.2-1.8,7.7c-0.3,2.7-0.9,5.4-1.4,8
		c-1.1,5.4-1.8,10.9-3,16.3c-0.6,2.5-1.4,5.2-1.6,7.7c-0.3,2.7-0.9,5.4-1.4,8c-1.2,6.8-3.1,13.5-3.8,20.4c-2,2,0,5.2-2,7.2
		c0.6,2.7-1.6,4.9-1,7.6c-2,5.1-1.6,10.8-4,15.8c0.2,4.4-1.4,8.4-2.1,12.6c-0.8,4.8-2,9.5-3.1,14.2c-0.9,3.8-1.4,7.7-2.7,11.3
		c-1.8,5-1.8,10.4-3.8,15.4c-0.5,1.2-0.2,2.4,0.3,3.7c1.5,3.9,2.4,8,4,11.8c1.6,3.8,2.5,7.8,3.2,11.6c1.1,5.4,2.9,10.6,3.5,16.2
		c0.6,5.2,1.3,10.5,2,15.7c0.6,4.1,1.1,8.1,0.6,12.1c-0.8,7.9-1.3,16-4.9,23.4c-2.1,4.4-5.7,8.6-9,11.7c-3.3,3.1-6.8,5.9-10.6,8.4
		c-6.7,4.4-13.9,8-23.3,10.1c-1.4,0.3-2.8,0.6-4.1,1.1c-1.4,0.4-2.7,0.7-4.1,0.9c-3.1,0.6-5.5,2.5-7.4,5c-0.3,0.3-0.4,0.8-0.5,1.3
		c-1.6,8.7-5.3,16.5-10.1,23.8c-4.3,6.7-10.2,11.7-17.5,15c-0.7,0.3-1.3,0.7-2.1,1c-4,1.1-4,1.2-6.9,3.9c-3.5,3.4-9.8,6.1-15.6,8.1
		c-4.3,1.5-8.4,0.7-12.6,0.7c-2.9,0-4.5-2.8-6.5-4.6c-1.2-1.1-0.6-2.5-0.7-3.7c-0.1-1.5,0-3,0-4.5c3.6-7.2,9.3-12.6,15.9-16.9
		c1.2-0.8,1.1-1.4,1-2.2c-0.2-1.6-1.8-1.1-2.3-0.8c-3.3,1.7-6.9,2.4-10,4.7c-3.9,2.9-7.6,6-10,10.2c-1.5,2.5-2.4,5.3-4,7.8
		c-0.7,1.1-0.5,2.2-0.6,3.2c-4.8,3.9-10.3,5.7-16.4,4.9c-2.4-0.3-3.5-2.3-4.6-4.3c-1.6-2.8-2.1-5.6-1.9-8.6c0-1,1.2-1.4,1.1-2.6
		c-0.3-2.8,1.5-5,2.6-7.4c1.7-3.8,4.4-7.1,7.6-9.8c0.6-0.5,1.2-1.1,1.7-1.8c0.2-0.2,0.2-0.8,0-0.9c-0.3-0.3-1-0.6-1.2-0.5
		c-2.1,1.3-4.4,2.5-6.3,4.1c-5.7,4.8-10,10.6-12.7,17.6c-0.9,2.4-2,4.6-1.7,7.3c-3.6,3.5-7.9,5.4-13,5c-2.2-0.2-4-0.8-5.1-3.3
		c-1-2.2-2.2-4.1-1.9-6.7c-0.8-3.4,1.2-6.3,2.6-8.8c2.6-5,5.8-10,10.4-13.6c0.5-0.4,0.9-1,1.4-1.4c0.6-0.5,0.9-1.1,0.5-1.7
		c-0.6-0.9-1.3-0.2-2,0.1c-7.2,3.1-12.5,8.5-16.5,14.8c-2.5,4-5,8.4-4.3,13.6c0,0.2,0,0.5,0,0.5c-4.3,0.1-8.4,2.7-13,0.7
		c-1.9-0.8-4.4-0.3-6.2-1.9c-3.6-3.1-4.7-7.5-3.3-12.3c1.8-5.8,5-10.8,9.2-15.2c2.4-2.5,4.8-5.2,7.5-7.4c4-3.2,7.9-6.5,11.9-9.6
		c5.2-3.9,10.7-7.3,16.3-10.4c6.4-3.5,12.9-7.3,20-9.6c2.5-0.8,4.5-2.5,7.2-3.1c1.6-0.4,2.4-2.5,3.2-4c5.4-10.9,10.8-21.8,16.2-32.8
		c4-8.2,7.7-16.5,12.2-24.4c4.8-8.5,9.1-17.2,13.9-25.7c3.3-5.8,7-11.5,10.8-17c0.8-1.2,1.1-2.2,1.1-3.6c0-7.5,0.8-15.1-0.2-22.5
		c-1.4-10.7-0.5-21.4-0.8-32.1c-0.2-10.7,0.1-21.3-0.1-32c-0.1-6.9-1.3-13.7-1-20.6c0.3-6.8,0.1-13.7,0.1-20.5c0-7,0-14,0-21
		c0-6.8,0.7-13.7-0.1-20.5c-1.5-12.2-0.6-24.4-0.8-36.6c-0.2-12.3-0.1-24.7-0.1-37c0-12.3,0.7-24.7-0.2-37
		c-1-13.1-0.6-26.1-0.8-39.1c-0.2-13.2-0.8-26.4,0.2-39.5c1-14.2,0.5-28.4,0.8-42.6c2.1-9.3,0.7-18.7,0.9-28.1
		c0.2-9.3,0.8-18.7-0.1-28c-1.2-11.9,0.3-23.8-1-35.6c-1.3-12.7,0.2-25.5-1-38.1c-0.8-8.1-0.6-16.1-0.8-24.1
		c-0.2-8.2,0.7-16.4-0.2-24.5c-1.2-10.2-0.6-20.4-0.8-30.6c-0.2-10.3,0-20.7,0-31c0-10.3,0-20.7,0-31c0-10.3-0.7-20.7,0.2-31
		c1.1-12.7-0.1-25.5,1-38.1c0.7-7.7-0.1-15.5,1-23.1c0.9-6.4,0-12.8,1-19.1c0.8-5.2,0.1-10.5,1-15.6c0.8-4.3,0.1-8.5,1-12.6
		c0.8-4.1,0.3-8.2,1-12.1c0.7-3.9,0-8,1.1-11.5c1.2-3.9-0.4-8.1,1.8-11.7c0.1-0.2,0.1-0.7,0-1c-0.7-4.4,1-8.7,1.2-13.1
		c0.1-2.6,0.3-5.5,0.9-8.1c0.5-2.5,0.4-5.2,1.1-7.6c0.5-2.1,0.2-4.3,1-6.1c0.8-1.9,0.3-3.9,1-5.6c0.8-2.1,0.2-4.3,1-6.1
		c0.9-2.1,0-4.5,1.2-6c1.5-1.9-0.6-4.4,1.6-5.9c-0.1-2.1,0.7-4.1,0.9-6.1c0.5-4,2-7.6,2.7-11.4c0.8-4.6,2.7-9,3.4-13.6
		c0.2-1.1,0.8-1.7,1.2-2.5c1.6-4.5,2.2-9,2-13.7c-0.2-5.3,0.1-10.7-0.1-16c-0.1-4.3,1.5-8.3,1.1-12.6c-0.3-4.1-0.1-8.3-0.1-12.5
		c0-4.3-0.6-8.8,0.1-13c1.7-9.4,0.5-18.7,0.8-28.1c0.1-3.4,1.5-6.6,1.1-10.1c-0.4-3.5-0.1-7-0.1-10.5c0-3.5-0.6-7.1,0.1-10.5
		c1.7-7.5-0.1-15.1,1-22.6c1.1-7.9,0-15.8,1.1-23.6c0.8-6.1,0.5-12.1,0.8-18.1c0.1-3.4,1.5-6.6,1.1-10.1c-0.3-3.3-0.7-6.8,0.1-9.9
		c1.3-5.1,0.7-10.1,0.8-15.1c0.1-2.9,1.6-5.6,1.2-8.6c-0.4-2.8-0.7-5.8,0.1-8.4c1.2-4.1,0.2-8.2,1-12.1c0.9-4.5,0.3-9.1,1.1-13.6
		c0.6-3.6,0.3-7.2,1-10.6c0.8-3.7,0.5-7.4,1-11.1c0.2-1.7,0.8-3.3,0.9-5.1c0.1-1.9-0.6-3.7,0.8-5.7c0.8-1.3,0.2-3.6,0.2-5.4
		c-0.2-3.4,1.7-6.6,1-10.1c1.7-2.2,0.3-4.9,1.1-7c0.6-1.6,1.1-3.1,0.8-4.6c-0.4-2,1.1-3.3,1.1-5.1c0-2.2,0.1-4.4,0.9-6.6
		c0.7-2-0.4-4.5,1.1-6.5c-0.8-3,1.3-5.6,1-8.6c-0.3-2.9,1.7-5.6,1-8.6c-0.1-0.4-0.1-1.1,0.1-1.4c1.8-2.1,0.5-4.2,0.4-6.4
		c-3,6.7-4.8,13.7-7.5,20.4c-2.6,6.3-4.5,12.8-7.1,19c-1.6,3.8-3.2,7.7-4.7,11.5c-1.8,4.6-3.9,9-5.6,13.7c-1.6,4.6-4.1,9-6.3,13.4
		c-1,2.1-2.1,4.1-3.2,6.2c-0.4,0.8-0.5,1.6,0.8,1.7c-1.9,3.4-5.4,5.1-8.2,7.4c-2.7,2.2-5.3,4.6-8.1,6.7c-3,2.4-6,5-9,7.5
		c-3.6,3.1-7.1,6.3-11.3,8.7c-1.9,1.1-3.3,2.9-5.2,4.3c-5.1,3.6-9.8,7.8-14.7,11.5c-4.8,3.6-9.7,7.2-14.6,10.6
		c-7.1,4.9-14.3,9.7-21.5,14.5c-4.7,3.1-9.5,6-14.3,8.9c-5,3.1-10.2,6-15.2,9c-1.5,0.9-2.5,2.8-3.6,4.3c-3.6,4.7-9,10.1-13.7,13.7
		c-2.4,1.9-4.6,4-7,6c-7.2,6.2-15.4,10.8-24.3,13.7c-3.6,1.2-7.3,1.8-11.1,2.3c-3.9,0.5-7.7,0.8-11.6,0.8
		c-8.6,0.1-15.8-3.4-22.4-8.6c-0.9-0.7-1.8-1.2-2.8-1.8c-8.4-4.5-16.7-9-24.6-14.4c-5.6-3.8-11.3-7.5-16.7-11.7
		c-6.3-4.9-12.8-9.6-18.9-14.8c-2.9-2.4-5.6-4.9-8.3-7.6c-11.7-11.6-23.5-23.1-34.9-35.1c-4.7-4.9-9.7-9.7-13.5-15.3
		c-0.4-0.5-0.9-1-1.4-1.4c-4.1-3.6-7.1-8.1-10.8-12.1c-4.4-4.7-8.4-9.8-12.8-14.7c-4.2-4.7-8.1-9.7-12.4-14.4
		c-3.8-4.2-7.3-8.6-10.9-13c-4.8-5.6-9.3-11.5-14.1-17.1c-4.1-4.8-8-9.9-11.3-15.3c-3.9-6.4-7.1-13.3-6.6-21.2c0.1-2.5,0.2-5,0-7.5
		c-0.6-6.3,1.3-12.4,1-18.6c1.4-2.3,0.2-5.3,1.4-7.4c1.3-2.3-0.8-5,1.6-6.9c-0.3-2.4,0.6-4.7,0.9-7.1c0.5-3.8,1.5-7.4,2.2-11.1
		c0.7-3.6,2-7.2,2.8-10.8c2.1-9.7,5.9-18.9,8.7-28.4c2.9-10.1,7.1-19.7,10.8-29.5c1.5-4,3.4-8,6.1-11.5c1.5-2,3.4-3.7,5.5-4.8
		c3.7-2,7.4-3.8,11.8-4.3c2.7-0.3,5.4-0.7,8.1-0.8c4.9-0.2,9.4,1.4,14,2.4c2.3,0.5,4.6,1.1,6.8,1.4c3,0.3,5.9,1.6,9,1.4
		c0.1,0,0.2,0.5,0.4,0.8c0.4,1.7-0.7,3-1.1,4.5c4.4,1.7,8.7,1.8,13.1,1.5c3.5-0.2,6.6,1.6,10.1,1.1c2.2,1.7,4.7,0.9,7.1,1
		c2.6,0,4.9,1.6,7.6,1.1c2.2-0.4,3.5,1,4.8,2.8c1.3,1.7,2.2,3.5,3,5.3c1.4,3.1,2.3,6.4,1,9.7c-1.1,2.8-3,5.2-5.2,7.4
		c-1,1-2,1-3.1,0.6c-0.9-0.4-1.6-1-2.4-1.4c-10.6-4.8-20.6-10.7-30.7-16.3c-0.9-0.5-1.6-1.1-2.3-1.7c-2.2-1.9-4.9-2.8-7.5-2.2
		c-3.9,0.8-7.9,1.6-11.4,3.8c-0.7,0.4-1,0.8-0.9,1.4c0.2,0.8,1,0.9,1.5,0.6c3.5-2.4,7.4-1.8,11.2-1.9c1.3-0.1,2.1,0.5,3.1,1.1
		c2.2,1.2,4.4,2.4,6.4,3.8c4.6,3.1,9.4,6.1,14.5,8.5c3.9,1.9,7.5,4.2,11.6,5.8c5.7,2.2,5.9,2.9,8.6,8.6c1.4,2.9,1.4,5.8,0,8.7
		c-1.4,2.9-3.8,4.8-5.9,7c-0.8,0.9-2.1,0.9-2.6,0.4c-0.8-0.9-2-0.9-2.9-1.6c-2.7-2.1-5.7-3.9-8.6-5.7c-5-3.1-10.2-6-15.2-9.2
		c-6-3.9-12.2-7.1-19.1-9.4c-3.8-1.2-6.4-0.3-9.3,1.3c-4.9,2.9-8.6,7.5-13.9,9.9c-0.3,0.1-0.5,0.9-0.5,1.3c0.2,0.8,1,0.9,1.5,0.6
		c4-2.4,8.6-4.1,11.8-7.8c1-1.1,2.4-1.9,3.6-2.1c3.9-0.6,7.6,0.3,10.9,2.4c2.5,1.6,5,3.4,7.3,5.3c6,5,12.6,8.9,19,13.3
		c5.4,3.7,11.1,6.9,14.6,13c2.5,4.4,1.9,10.6-1.1,13.7c-2.3,2.4-4.7,4.8-7.1,7.1c-1.8,1.7-2.5,1.7-4.5-0.2c-1.5-1.4-2.8-3.4-5-3.6
		c-1.7-0.1-2.9-1.1-4.3-1.7c-3.5-1.7-6.9-3.5-10.3-5.4c-8.6-4.6-17.2-9-26.1-13c-5.2-2.4-7.2-2.6-11.8-1c-0.8,0.3-0.9,0.9-0.7,1.5
		c0.2,0.5,0.9,0.7,1.3,0.4c2.8-2.3,4.9-0.3,7.3,1.1c4.5,2.7,9.2,5.2,13.7,8c4.6,2.8,9.8,4.7,14.3,7.8c4.4,3,9.4,5.3,14.5,7.1
		c4.3,1.5,6.1,4.7,4.4,8.9c-0.5,1.3,0.2,3.1-1.5,3.9c-1.4,8.1-4.8,15.3-8.9,22.3c-3.4,5.7-8.2,9.5-14,12.4
		c-3.5,1.7-6.8,1.4-10.1-0.5c-4.8-2.7-5.7-5.1-3.4-10c0.2-0.4,0.3-0.9,0.5-1.3c1.8-4.3,0.9-8.7,0.9-13.1c0-1.6-1.4-3.3-0.9-5.1
		c0.6-1.7,3.2-1.3,3.9-3.5c-2.5,0-5.4-0.8-7.3,0.2c-2,1.1-2.6,0.3-3.6-0.8c-2-2.1-4.4-3.8-5-6.9c-0.1-0.5-0.7-0.7-1.2-0.6
		c-0.5,0.1-0.9,0.4-0.8,1c0,0.3-0.1,0.7,0,1c1.9,4,3.7,8.2,8.8,9c0.8,0.1,1.3,0.3,1.2,1.1c-0.3,1.5,0.8,2.7,1,4.1
		c0.8,8.6-1.2,16.1-7.9,23.2c-2.8,3-6,5.6-7.9,9.5c1.2,0,2,0.2,3-0.5c2.4-1.5,4.9-2.9,6.9-5c4.2-4.3,4-5.3,8.7-0.2
		c1.9,2,4.3,3.3,7,3.7c3.7,0.6,7.3,0,10.7-1.9c0.9-0.5,1.9-1.1,2.8-1.7c0.6-0.4,1.4-0.6,1.7,0.1c1,3,3.8,4.4,5.7,6.6
		c1,1.2,1.9,3.1,3.7,2.8c0.9-0.1,1-2.2,2.2-2.8c0.1-0.1,0.3,0,0.5,0c1.5,0.5,2.3,1.8,3.3,2.8c3.5,3.5,7.9,6,11.7,9.2
		c6.8,5.7,14.9,9.3,22,14.5c3.3,2.4,7.3,3.4,11.1,4.4c5.2,1.5,10.4,3.1,15.8,4.2c4.3,0.9,8.5,2.8,12.8,4.1c6.3,2,12.4,4.7,18.3,7.7
		c3.7,1.9,7.2,4.2,10.9,6.3c2.7,1.5,5.5,2.9,8.1,4.6c5.6,3.7,11.5,6.9,17.2,10.5c3,1.9,5.9,4,9.2,5.6c2.7,1.3,2.7,1.4,4.5-0.3
		c0.1-0.1,0.2-0.2,0.4-0.4c15.5-16.2,32.1-31.3,48.1-46.8c10.9-10.6,21.4-21.8,32.7-31.9c12-10.7,22.9-22.5,34.4-33.8
		c2.8-2.8,5.6-5.8,7.5-9.3c0.2-0.4,0.7-0.7,1-1.1c7.2-7.3,13.5-15.5,21.3-22.1c6.6-5.6,12.8-11.6,20.1-16.5c3.3-2.2,6.4-4.7,9.7-6.8
		c6.5-4.2,13.3-7.8,20.4-11.1c5.2-2.4,20.1-7.8,25.3-8.9c3.5-0.8,7-1.7,10.7-2.1c1.8-0.2,3.7-1.1,5.6-0.8c1.9,0.4,3.3-1.4,5.1-1.1
		c2,0.4,3.7-0.9,5.6-0.9c1.8,0,3.5-0.8,5-1.3c5.9-1.8,11.9-3.4,17.9-5c4.1-1.1,8-2.9,12.3-2.8c5.4,2.7,10.6,5.6,16.2,7.9
		c4.8,2,9.6,4.3,14.8,5.2c2.4,0.4,4.7,1.5,7.1,2c3.4,0.7,6.7,1.6,10.2,2c2.2,0.2,4.4,1.3,6.6,0.8c2.2-0.4,4,1,6.1,1.1
		c2.3,0,4.7,0,7,0c2.2,0,4.4-0.3,6.5,0.1c2.4,0.4,4.2-1.3,6.6-1.2c2.2,0.1,4.6,0.9,6.6-0.9c4.4,0.7,8.4-1.6,12.6-2.1
		c3.6-0.5,7.1-2,10.6-3.2c6.2-2.2,12.4-4.6,18.3-7.7c4.3-2.2,8.4-4.7,12.5-7.1c0.7-0.4,0.2-1.2,0.4-1.8c3.9,0.7,7.9,1,11.6,2.2
		c3.1,1.1,6.3,1.5,9.4,2.6c2,0.7,4.2,1.2,6.2,1.8c1.9,0.6,4,0.7,5.9,1.4c6,1.9,12,3.9,18,6c4.9,1.7,9.9,3.4,14.7,5.4
		c9.1,3.8,18.2,7.7,26.8,12.5c6.3,3.5,12.5,7.1,18.3,11.3c3.5,2.5,6.7,5.8,11.2,6.8c0.6,0.1,1,0.7,1.5,1.2c3.1,3.1,6.4,6,8.3,10
		c1,2.2,3,3.7,4.5,5.6c3.9,4.8,7,10.2,10.4,15.2c4.5,6.7,8.4,14,13.3,20.4c3.8,4.9,7.2,10.2,11.5,14.8c3.7,4.1,6.3,9.2,10.3,13.2
		c0.1,2.8,3.3,3.3,4.1,5.8c0.8,2.1,2.8,3.8,4.3,5.7c2.6,3.3,5.4,6.3,7.7,9.8c2.2,3.3,4.6,6.4,7,9.5c2.7,3.5,5.4,7.2,8.3,10.6
		c3.2,3.6,5.6,7.7,8.6,11.4c2.8,3.3,5.3,6.9,8,10.2c3.3,3.9,6,8.2,9.3,12.1c2.9,3.5,5.6,7.1,8.3,10.6c1.6,2.1,3.2,4.1,5,5.9
		c0.8,0.8,1.3,0.9,2.5,0.3c2.1-1.1,4.1-2.3,5.9-3.6c4.7-3.4,10.2-5.5,14.7-9.1c1.7-1.4,3.7-2.4,5.6-3.4c6.1-3.1,11.7-7,17.8-10
		c6.8-3.3,13.9-5.9,21-8.4c7.8-2.7,15.8-4.4,23.6-6.9c5.8-1.8,11.3-4,16.4-7.6c4.2-3,8.8-5.2,13.1-8.2c3.6-2.5,7-5.5,10.8-7.8
		c3.4-2,5.6-5.4,8.9-7.5c1.2,0.4,1.9,1,2.1,2.4c0.1,0.7,1.1,0.9,1.5,0.5c2.8-3,6.3-5.3,8.4-9c0.6-1,1-1,1.9-0.5
		c1.2,0.6,2.6,1.2,3.7,1.9c4.9,2.9,9.6,2.5,14.4-0.1c1.1-0.6,1.8-1.4,2.6-2.2c4.2-4.5,4.3-3.7,8,0.2c2.1,2.2,4.7,3.8,7.3,5.3
		c1.2,0.7,2,0.8,2.9,0.2c-2.3-4.3-6-7.3-9.3-10.7c-2-2.1-3.2-4.7-4.4-7.2c-1.7-3.4-2.4-7.1-2.3-11.1c0.1-2.6,1.2-5,1.1-7.6
		c-0.1-1.3,0.9-0.9,1.7-1.1c4.8-1.3,6.9-5.1,8.3-9.5c0.2-0.6,0.2-1.4-0.8-1.5c-0.5-0.1-1.1,0.1-1.2,0.6c-0.5,2.9-2.9,4.5-4.6,6.6
		c-1.3,1.5-2.3,1.8-4.4,1c-2-0.8-4.5-0.2-7-0.2c0.6,1.2,1.1,1.8,2.2,2c2.1,0.5,2.4,2.6,1.8,3.9c-1.6,3.3-0.6,6.8-0.9,10.1
		c-0.3,2.6,0.7,4.9,1.8,7.3c2,4.2,1.9,4.6-1.5,7.9c-0.4,0.3-0.7,0.7-1.1,1.1c-1.6,1.8-4.1,1.4-5.9,2.6c-1,0.6-2-0.6-3.1-0.9
		c-5.7-1.4-10.2-4.8-13.6-9.2c-4.4-5.6-7.4-12.1-9.8-18.9c-1.3-3.8-1.9-7.8-3.7-11.5c-1.4-2.8,1-7.6,3.8-8.5
		c4.9-1.5,9.5-3.7,13.9-6.4c2.4-1.5,4.7-3,7.3-4.2c8.1-4,16.1-8.2,23.5-13.4c1.1-0.8,2.8-1.5,4.5-1.1c0.9,0.2,2.2,2.6,2.8,0.1
		c0.4-1.8-1.9-0.4-2.5-1.2c-0.8-1-1.7-0.7-2.7-0.8c-3.1-0.3-5.9,1.1-8.5,2.4c-11.7,5.9-23.4,12-35,18c-3.6,1.9-7.8,2.7-10.4,6.3
		c-0.6,0.8-2,0.5-3-0.5c-2.5-2.6-5.1-5.2-7.8-7.8c-2.2-2.2-1.5-5.4-2.9-7.8c1.8-1.7,0.6-4.6,2.9-6.4c2.2-1.7,3.1-4.7,5.7-6.5
		c10.4-7.4,21.6-13.8,31.4-22.1c2.4-2,5.2-3.5,8.2-4.2c3.5-0.9,7.1-0.8,9.8,2.2c3.2,3.5,7.6,5,11.4,7.4c0.5,0.3,1.4,0.2,1.5-0.6
		c0.1-0.4-0.2-1.1-0.5-1.2c-2.4-1-4.2-2.9-6.3-4.2c-2.9-1.8-4.9-4.7-7.9-6.1c-2.5-1.2-5.2-2.6-7.7-1.6c-2.6,1-5.3,1.7-7.8,2.8
		c-5.8,2.7-11.3,6-16.5,9.5c-6.8,4.6-14.2,8.1-20.6,13.2c-2.6,2.1-3.6,1.7-6.1-0.8c-0.8-0.8-1.8-1.6-2.5-2.5c-2-2.7-3.7-5.7-3-9.2
		c0.4-2.1,1.9-3.9,2.8-5.8c0.8-1.7,1.9-2.6,3.5-3.6c4.3-2.6,8.9-4.2,13.3-6.7c5.5-3.2,11.1-6.2,16.5-9.7c4.2-2.7,8.5-5.7,14.1-4.6
		c2.2,0.4,4.3,0.8,6.2,2c0.6,0.3,1.3,0.2,1.5-0.6c0.1-0.5,0-1-0.5-1.3c-2.3-1.5-10.2-4-12.8-4c-0.9,0-1.9,0.3-2.8,0.4
		c-2.5,0.4-3.7,2.6-5.6,3.5c-5.2,2.4-9.9,5.7-15,8.3c-5.8,2.9-11.6,5.9-17.4,8.8c-3,1.5-3.1,1.5-5.3-0.9c-3.1-3.4-5.8-7.2-4.5-12
		c0.9-3.2,2.1-6.5,4.4-9.2c1.3-1.5,2.2-3,4.3-2.8c4.1,0.3,8-1.8,12.1-1c0.5,0.1,1.2,0.2,1.5,0c1.8-1.8,4.4-0.1,6-1.1
		c2.3-1.4,4.5-0.8,6.7-0.8c4,0,8-0.1,12.1-1.6c-0.4-1.5-1.5-2.8-1.1-4.5c0.1-0.3,0.2-0.8,0.4-0.8c4.7-0.8,9.5-1.1,14.1-2.3
		c3.6-0.9,7.3-1.8,10.9-2.5c3.3-0.7,7-0.7,10.4-0.2c4.4,0.7,8.9,1.6,12.8,4c3.7,2.2,7.2,4.6,9.2,9c4.6,10.1,8.9,20.3,12.4,30.8
		c1.4,4.1,2.5,8.3,4,12.3c1.5,4.1,2.8,8.2,4.1,12.3c1.4,4.6,2.6,9.2,4,13.9c1.6,5.4,1.9,11.1,3.9,16.4c-0.7,2.8,1.1,5.3,1.1,8.1
		c0.1,2.5,1.1,5,0.9,7.6c2.4,1.9-0.4,5.3,2,7.2c0.2,0.1,0,0.6,0,1c0.4,7.9,0.9,15.7,1.1,23.6c0.3,10.2-3.3,18.8-8.8,26.9
		c-3.6,5.3-7.7,10.2-11.9,15.1c-3.7,4.4-7.6,8.6-10.8,13.5c-1.6,2.5-3.9,4.7-6,7c-3.3,3.5-6.3,7.1-9.3,10.8
		c-4.6,5.6-9.9,10.6-13.9,16.7c-0.3,0.4-0.7,0.7-1.1,1.1c-4.2,3.7-7.4,8.3-11.2,12.4c-5.4,5.9-10.8,11.8-15.9,17.9
		c-7,8.2-14.9,15.4-22.4,23.1c-7.5,7.8-15,15.7-23,22.9c-5.4,4.9-11,9.6-17.2,13.7c-2.2,1.5-4.4,3.2-6.5,5.1
		c-2.5,2.2-5.3,3.9-8.1,5.8c-5.3,3.6-10.7,7.1-16.1,10.5c-2.9,1.8-5.9,3.5-8.9,4.9c-4.3,2-8.2,4.4-12,7.1c-6,4.2-12.5,6.3-19.8,6.5
		c-5.1,0.2-10.1-0.8-15.1-1.3c-3.8-0.3-7.4-2.1-11.1-3.3c-2.9-1-6-1.9-8.5-3.6c-2.6-1.8-5.1-3.7-8-4.9c-0.3-0.1-0.5-0.4-0.7-0.6
		c-7.2-6.7-15.2-12.4-21.8-19.8c-2.2-2.4-3.6-5.5-6.2-7.6c-2.6-2.2-5.4-4.1-7.8-6.5c-1.6-1.7-3.6-2.7-5.3-4.1
		c-4.4-3.8-8.9-7.6-13.3-11.3c-7.1-5.8-13.5-12.4-20.4-18.3c-10.9-9.5-20.7-20-30.8-30.2c-4.6-4.6-9.1-9.4-13.2-14.5
		c1.8-0.4,1.2-1.9,0.7-2.7c-2.1-3.9-2.8-8.3-3.5-12.5c-0.9-5.1-3.1-10-3.2-15.2c-2-2.8-1.9-6.2-2.7-9.3c-0.9-3.3-1.7-6.7-2.4-10.1
		c-0.9-4.3-2.5-8.6-3.7-12.9c-1.3-4.8-3.8-9.2-4.1-14.3c-0.1-1-1.3-1.4-1.1-2.6c0.1-0.4-0.8-0.5-1.2-0.4c-0.3,0.1-0.6,0.4-0.6,0.6
		c-0.1,0.7,0,1.3,0,2c-0.5,4.6,1.4,9,1.1,13.6c-0.2,3.7-0.5,7.4,0.8,11.1c0.8,2.2,0.3,5,0.1,7.4c-0.2,2.6,1.5,4.9,1.1,7.6
		c-0.7,4.2,1.7,8.3,0.9,12.6c0,0.2-0.1,0.4,0,0.5c2,1.8,1.1,4.1,0.9,6.1c-0.2,2.4,1.5,4.3,1.1,6.6c-0.6,3.9,1.4,7.6,1.2,11.5
		c0,0.1,0.5,0.2,0.8,0.4c0,0.2,0,0.3,0,0.5c0.1,1.8,1.8,3,1.9,4.7c0.2,2.6,0.1,5.3,0.1,8c0,19.3-0.7,38.7,0.2,58
		c0.9,17.2,0.4,34.4,0.8,51.6c0.2,7.4-1.5,14.7-1.1,22.1c0.4,7.6,0.1,15.3,0.1,23c0,7.5,0.8,15.1-0.2,22.5c-1.2,9.4,0.1,18.8-1,28.1
		c-0.7,6.2-0.1,12.5-1,18.6c-0.7,4.4-0.7,8.7-0.8,13.1c0,0.8,0.1,1.6-0.7,2.2c-0.7,0.6-0.5,1.7-0.2,2.3c2.8,4.3,3.3,9.4,4.6,14.1
		c1.1,3.7,1.6,7.7,2.3,11.6c0.5,2.8,0.7,5.6,1.9,8.2c0.2,0.6,0.1,1.3,0.1,1.9c0,1.9-0.1,3.8,0.9,5.6c0.9,1.6-0.8,3.9,1.1,5.6
		c0.2,0.1,0.1,0.6,0,1c-0.6,3.9,1.5,7.6,1.1,11.6c-0.2,2,1.2,3.9,1,6.1c-0.2,1.9-0.7,3.9,0.9,5.6c0.2,0.2,0.1,0.6,0,1
		c-0.6,5.1,1,10,1.2,15.1c0.2,3.8,0,7.9,0.9,11.5c1,4.1,0.1,8.2,0.9,12.1c1,4.9,0.1,9.9,1.1,14.6c1,5.3,0,10.5,1,15.6
		c1.3,6.4-0.1,12.8,1,19.1c1.3,7.6-0.1,15.2,1,22.6c1.5,10.2-0.2,20.5,1,30.6c1.1,9.6,0.6,19.1,0.8,28.6c0.2,9.5-0.8,19.1,0.2,28.5
		c1.3,12.1,0.5,24.1,0.7,36.1c0.2,12.2,0,24.3,0.1,36.5c0.1,8.2-1.5,16.3-1.1,24.6c0.4,8.3,0.1,16.7,0.1,25c0,8.3,0.7,16.7-0.2,25
		c-0.7,7.1-0.7,14.1-0.8,21.1c-0.1,7,0.7,14.1-0.2,21c-1.5,11.4,0.3,22.8-1,34.1c-1.1,10.1-0.4,20.1-0.8,30.1c0,1.1,0.2,2.2-0.9,3.2
		c-0.4,0.3-0.5,1.7,0.2,2.3c0.8,0.7,0.7,1.4,0.7,2.2c-0.2,6,2.6,11.6,2,17.7c1.4,2.4,0.3,5.3,1.2,7.5c1.1,2.5,0.1,4.9,0.9,7.1
		c1,3,0.3,6.2,1.1,9.1c0.8,3.1,0.3,6.2,1,9.1c0.8,3.1,0.2,6.2,1,9.1c0.8,2.9,0.3,5.9,1,8.6c0.9,3.4,0.3,6.9,1,10.1
		c0.9,3.7,0.2,7.5,1,11.1c0.8,3.4,0.2,6.9,1,10.1c1,3.8,0.8,7.4,0.8,11.1c0,2.1,1.5,3.8,1.1,6.1c-0.3,1.9-0.6,4.2,0,5.9
		c1.3,3.5,0.3,7.2,1,10.6c1,4.9,0.2,9.9,1.1,14.6c0.7,3.6,0.3,7.1,0.8,10.6c0.8,5.3,0.4,10.8,1.2,16.1c0.6,4.1,0,8.2,0.9,12.1
		c1.2,5.5,0.1,11.2,1.1,16.6c0.9,4.9,0,9.9,1,14.6c1.1,5.4,0.1,10.8,1,16.1c1.1,6.1,0,12.2,1,18.1c1,5.7,0,11.5,1,17.1
		c1.2,6.6-0.1,13.2,1,19.6c1.2,6.9-0.1,13.8,1,20.6c1.2,6.9,0,13.8,0.9,20.6c1.2,7.9,0,15.8,1.1,23.6c0.9,6.4,0.7,12.8,0.7,19.1
		c0,5.2,1.5,10.3,1.2,15.6c-0.4,5.3-0.8,10.8,0.1,16c1,5.9,0.6,11.7,0.7,17.6c0,2,1,4.3-0.9,6.1c1.2,1.6,0.5,3.8,1.5,5.4
		c3.9,6.4,8,12.7,12,19c3.2,5.2,6.4,10.4,9.7,15.4c4,6,7.7,12.2,11.8,18.2c3.9,5.7,7.4,11.6,11,17.4c2.4,4,5.6,7.5,7.4,11.9
		c0.2,0.5,0.9,0.8,1.5,1.2c7.3,4.2,14.4,8.6,21.7,12.8c4,2.3,8.2,4.4,12.2,6.6c8.3,4.6,16.7,8.7,25.1,13c3.4,1.7,7.1,2.3,10.5,3.5
		c8.4,3,15.7,7.8,20.4,15.5c1.3,2.1,2.4,4.8,2.1,7.6c-0.3,2.6,0.3,5.2-0.4,7.8c-1.2,4.4-3.9,7.6-7.6,10c-0.1-1.1,0-2.1-0.6-3.2
		c-2.4-4.9-6.1-8.6-10.6-11.4c-5.5-3.4-11.6-5.4-18.2-5.4c-0.6,0-1.4-0.2-1.5,0.7c-0.1,0.7,0.2,1,1,1.3c6.5,2.9,14.8,11.1,18,17.9
		c-1.5,4.6-5,7.8-8.4,10.8c-2.1,1.8-4.5,3.4-7.6,3.2c-1-5.8-4.5-10.2-8.1-14.6c-2.7-3.3-6.4-5.2-9.9-7.3c-2-1.2-4.3-2.6-7.1-1.8
		c2,2,3.8,3.6,5.5,5.5c4.1,4.6,6.4,10,6.7,16.2c-3.6,1.9-7.3,3.4-11.5,3c-1.3-0.1-2.6-0.1-3.9,0c-2.6,0.1-5,0-7.1-2
		C929.6,2145.5,929,2145.7,928.5,2145.7z M797.5,792.6c0-4.3,0.1-8.7,0-13c-0.1-5.9-5.5-9.1-10.8-6.4c-3.7,1.8-7.5,3.7-11.3,5.3
		c-3.8,1.6-7.8,2.9-11.7,4.4c-9,3.4-18.1,6.3-27.4,8.6c-5,1.3-9.9,2.8-15.1,3.5c-2.1,0.3-4.5,0.4-6.4,1.3c-1.5,0.7-3,0-4.2,0.6
		c-1.4,0.7-2.7,1-4.1,0.9c-1.2,0-2.7-0.4-3.4,0.1c-1.4,1.3-2.8,0.9-4.2,0.8c-1.7-0.2-2.9,1.2-4.6,1.1c-2.7-0.1-5.5-0.5-8.1,0.9
		c-4.9-0.7-9.7,1-14.6,1c-9,0-18,0.2-27,0c-8.9-0.2-17.8,1-26.6-1c-5.6,0.6-11-1.6-16.6-1c-0.5,0-1.2,0.2-1.4-0.1
		c-1.7-1.8-3.8-1-5.6-0.8c-2.1,0.1-3.5-1.4-5.6-1.2c-2.9,0.4-5.6-1.6-8.6-0.9c-1.9-2.4-5.3,0.4-7.2-2c-2.7,0.6-5-1-7.6-1.1
		c-2.2-0.1-4.5-0.5-6.5-1.2c-6.2-2-12.8-2.8-19-4.7c-5.5-1.7-11-3.1-16.5-4.8c-7.7-2.3-15.3-4.9-22.9-7.3c-4.2-1.3-8.4,1.2-8.9,5.3
		c-0.3,2.5-0.5,5.1-0.9,7.6c-0.6,4.5-0.1,9-1.1,13.6c-0.8,3.9,0.4,8.1-1,12.1c-0.7,1.9-0.4,4.3,0,6.4c0.4,2.4-1.1,4.3-1.1,6.6
		c-0.1,4,0.1,8-0.8,12.1c-0.8,3.6-0.2,7.6-0.2,11.5c0,1.6,2.6,4.7,4.2,4.8c2.5,0.1,5.2,0.4,7.5-1.2c1-0.7,2.1-1.5,3.3-1.8
		c3.3-0.8,6.5-2.2,9.6-3.4c3.2-1.3,6.4-2.3,9.6-3.2c2.8-0.8,5.5-2,8.5-2.5c4.6-0.7,8.9-3,13.8-2.9c1.4-1.8,3.7-0.2,5-1.2
		c1.7-1.4,3.8,0,5.1-1c1.7-1.3,3.5-0.4,5.2-0.8c2.8-0.7,5.6-1.4,8.6-1c1.5-1.6,3.4-1.2,5.1-0.9c2.1,0.3,3.7-1,5.6-1.1
		c3.5-0.1,7,0.1,10.6-0.8c3.3-0.8,7-0.5,10.4-0.1c3.7,0.4,7-1.2,10.6-1.1c7.8,0.2,15.7,0.4,23.5,0c7.9-0.4,15.7,1.4,23.6,1.2
		c3.5-0.1,7,0,10.6,0.7c4.7,0.9,9.7,0.7,14.5,1c5.5,0.3,11,1.9,16.6,1.2c2.9,1.4,6,0.9,9.1,1c0.3,0,0.8-0.1,1,0
		c1.3,1.7,3.1,1.1,4.6,0.9c1.9-0.2,3.2,1.4,5.1,1.1c3.9-0.7,7.6,1.6,11.6,1c0.3,0,0.8,0,0.9,0.2c1.2,1.5,2.8,0.8,4.2,0.7
		c1.7-0.2,2.8,1.6,4.6,1.1c3.2-0.8,6.3,1.7,9.6,0.9c2,1.6,4.5,0.5,6.5,1.1c3.2,1,6.4,1.6,9.7,1.9c3.3,0.3,6.5,1.2,9.7,1.9
		c2.2,0.5,4.3,1.4,6.6,1c1.2,2,3.5,0.6,5.3,1.8c1.5,1,4.2,0,6.4,0.3c2.4,0.3,3.8-1,4.8-2.7c0.9-1.5,1.2-3.2,1.1-5
		c-0.5-13.5,0.8-27.1-1-40.6C797.1,800,797.5,796.3,797.5,792.6z M633.4,1154.7c1.7,0.9,3-0.7,4.5-0.9c7.3-1,14-4,20.7-6.7
		c5.1-2.1,10.1-4.5,15-7.1c9.5-5.1,18.1-11.5,26.4-18.3c5.9-4.9,11-10.9,15.9-16.9c2.1-2.5,3.7-5.5,5.5-8.2c1.1-1.6,1.6-3.2,0.4-4.8
		c-1.4-1.8-3.3-0.8-5-0.8c-0.1,0-0.2,0.3-0.4,0.3c-2.2,1.1-4.5,2.1-6.8,2.9c-4,1.5-7.9,3.5-12.1,4.6c-4.3,1.2-8.4,3.1-12.7,4.3
		c-4.5,1.2-9,2.3-13.5,3.7c-4.7,1.5-9.5,2.1-14.3,2.8c-5.3,0.8-10.6,1.8-16.1,1.3c-1.7-0.2-3.4-0.5-5.2,0.8c-1.1,0.8-3.7,0.8-4.8,0
		c-1.8-1.3-3.5-0.9-5.2-0.8c-5.8,0.5-11.4-0.9-17.1-1.1c-0.3,0-0.7,0-1-0.1c-3.7-1.7-7.9-2-11.8-2.7c-3.6-0.6-7-1.7-10.4-2.7
		c-9.3-2.8-18.5-5.9-27.3-10.1c-1.1-0.5-2-0.6-3.1,0.3c-2.2,2-2.2,2.4-0.5,5.2c1.1,1.9,2.5,3.4,3.9,4.9c2,2,4,4,6,6
		c0.9,0.9,0.7,2.8,2.1,3.1c2,0.4,3,2,4.1,3.3c3.4,3.9,7.5,6.8,11.4,10.1c1.8,1.6,3.5,3.5,5.6,4.6c5.3,2.8,9.9,6.4,15,9.5
		c8,4.8,16.5,8.5,24.9,12.4C629.4,1154.3,631.3,1155.5,633.4,1154.7z M489.7,1585.9c6.2,0.4,11.1-3.1,16.1-6
		c4.8-2.8,8.4-7.3,12.3-11.2c0.7-0.7,1.4-1.2,1.5-2.4c0.1-3.3-2.5-5.4-5.9-4.1c-6.8,2.7-13.7,4-21,3.6c-0.7,0-1.3-0.1-2,0
		c-6.7,0.6-12.9-1.3-19.1-3.4c-3.1-1.1-5.4,0.9-5.1,4.1c0.1,1.2,0.8,2.2,1.3,2.9c2.7,3.8,5.2,7.8,8.7,11
		C480.3,1583.8,484.7,1585.6,489.7,1585.9z M779.8,1575.9c1.5-0.5,3.1,0,4.8-0.6c4.1-1.3,7.4-3.4,10.4-6.4c3.3-3.3,5.7-7.2,8.1-11.2
		c0.8-1.3,0.8-2.7,0-4.1c-0.7-1.1-2-0.7-2.9-1.7c-0.7-0.8-1.4,0.2-2,0.6c-0.8,0.5-1.8,0.3-2.7,0.6c-5.7,2.3-14.5,3.1-20.1,2.6
		c-3.4-0.3-6.7-0.1-10.1-0.9c-2.9-0.7-5.9-1.1-8.4-2.5c-1-0.6-1.8-0.5-2.8-0.6c-1.8-0.1-2.7,1.5-3.3,2.6c-0.5,0.8-0.6,2.5,0.6,3.6
		c4.4,4.1,8.2,9,13.4,12.3C769.2,1573.4,774.1,1575.6,779.8,1575.9z M529.5,2013.5c-0.6-1,0.1-2.4-0.5-3.9
		c-1.1-3.4-2.4-6.7-3.4-10.1c-1-3.2-3.2-5.7-4.5-8.6c-0.3-0.7-1-1.3-2-1.2c-0.8,0.1-1.7-0.1-1.6,1.2c0,1.3-0.1,2.7,0,4
		c0.4,6.2-1.7,11.9-4.2,17.2c-2.5,5.5-5.8,10.8-10,15.3c-1.1,1.2-0.6,3.1,1,3.2c1.3,0.2,3,0.4,3.8-0.2c1.3-1,2.5-0.8,3.7-0.7
		c2.3,0.2,4.5-0.3,6.6-1.1C525.6,2026,529.3,2021.4,529.5,2013.5z M782.3,2035.7c2.6,0.9,5.3-0.7,8.1-1.1c2.7-0.4,5.2-1.8,7.6-3.1
		c2-1,2.2-3.4-0.1-4.7c-1.2-0.6-2.7-1-3.7-1.9c-4.5-4.4-9.3-8.5-11.7-14.5c-0.7-1.7-0.9-3.5-1.9-5.2c-0.5-0.9-0.6-1.6-1.9-1.5
		c-2.3,0.1-2.7,0.2-3.3,2.6c-1,4.2-3.2,8.2-3,12.7c-1.9,2.3-0.8,5-1,7.6c-0.2,3.3,1.9,5.5,4,7.8c1.7,1.9,3.6,1.2,5.4,1.4
		C781.3,2035.8,781.6,2035.7,782.3,2035.7z M107.2,525c1.3-0.3,2.4-0.9,3.4-1.9c0.1-0.1,0-0.7-0.2-0.9c-0.5-0.6-1.3-0.6-1.6,0
		c-0.5,1-2.5,0.1-2.2,1.9C106.6,524.5,106.9,524.7,107.2,525z M1135.3,538.8c0.1,1.5,2.1,0.9,2.7,2.1c0.1,0.1,1,0.2,1.2-0.3
		c0.1-0.3,0.3-0.8,0.1-0.9c-1-0.8-2.1-1.7-3.5-1.7C1135.8,538,1135.6,538.5,1135.3,538.8z M103.4,526.6c-0.1-0.2-0.2-0.4-0.4-0.6
		c-0.1,0.1-0.3,0.2-0.3,0.3c0.1,0.2,0.2,0.4,0.3,0.7C103.2,526.8,103.3,526.7,103.4,526.6z M1143.3,542.3c-0.1-0.1-0.2-0.2-0.4-0.4
		c-0.1,0.2-0.3,0.4-0.3,0.7c0,0.1,0.2,0.2,0.3,0.3C1143.1,542.7,1143.2,542.5,1143.3,542.3z"/>
	<path class="st10" d="M176.5,514c-1-1.2-2-2.6-2.9-3.9c-0.5-0.2-0.9-0.5-1.3-0.7c0,0,0,0,0,0c-0.9-0.3-1.8-0.6-2.7-0.9
		c-2.8-0.9-5.7-1.7-8.6-2.4c-8.9-2.1-18-3.2-26.9-5c-0.1,0.1-0.2,0.1-0.3,0.2c-0.1,2.3-1.9,1.6-3.2,1.7c0.4,1.7-0.7,3-1.1,4.5
		c4.4,1.7,8.7,1.8,13.1,1.5c3.5-0.2,6.6,1.6,10.1,1.1c2.2,1.7,4.7,0.9,7.1,1c2.6,0,4.9,1.6,7.6,1.1c2.2-0.4,3.5,1,4.8,2.8
		c1.3,1.7,2.2,3.5,3,5.3c1.4,3.1,2.3,6.4,1,9.7c-1.1,2.8-3,5.2-5.2,7.4c-1,1-2,1-3.1,0.6c-0.9-0.4-1.6-1-2.4-1.4
		c-10.6-4.8-20.6-10.7-30.7-16.3c-0.9-0.5-1.6-1.1-2.3-1.7c-2.2-1.9-4.9-2.8-7.5-2.2c-3.9,0.8-7.9,1.6-11.4,3.8
		c-0.7,0.4-1,0.8-0.9,1.4c0.2,0.8,1,0.9,1.5,0.6c3.5-2.4,7.4-1.8,11.2-1.9c1.3-0.1,2.1,0.5,3.1,1.1c2.2,1.2,4.4,2.4,6.4,3.8
		c4.6,3.1,9.4,6.1,14.5,8.5c3.9,1.9,7.5,4.2,11.6,5.8c5.7,2.2,5.9,2.9,8.6,8.6c1.4,2.9,1.4,5.8,0,8.7c-1.4,2.9-3.8,4.8-5.9,7
		c-0.8,0.9-2.1,0.9-2.6,0.4c-0.8-0.9-2-0.9-2.9-1.6c-2.7-2.1-5.7-3.9-8.6-5.7c-5-3.1-10.2-6-15.2-9.2c-6-3.9-12.2-7.1-19.1-9.4
		c-3.8-1.2-6.4-0.3-9.3,1.3c-4.9,2.9-8.6,7.5-13.9,9.9c-0.3,0.1-0.5,0.9-0.5,1.3c0.2,0.8,1,0.9,1.5,0.6c4-2.4,8.6-4.1,11.8-7.8
		c1-1.1,2.4-1.9,3.6-2.1c3.9-0.6,7.6,0.3,10.9,2.4c2.5,1.6,5,3.4,7.3,5.3c6,5,12.6,8.9,19,13.3c5.4,3.7,11.1,6.9,14.6,13
		c2.5,4.4,1.9,10.6-1.1,13.7c-2.3,2.4-4.7,4.8-7.1,7.1c-1.8,1.7-2.5,1.7-4.5-0.2c-1.5-1.4-2.8-3.4-5-3.6c-1.7-0.1-2.9-1.1-4.3-1.7
		c-3.5-1.7-6.9-3.5-10.3-5.4c-8.6-4.6-17.2-9-26.1-13c-5.2-2.4-7.2-2.6-11.8-1c-0.8,0.3-0.9,0.9-0.7,1.5c0.2,0.5,0.9,0.7,1.3,0.4
		c2.8-2.3,4.9-0.3,7.3,1.1c4.5,2.7,9.2,5.2,13.7,8c4.6,2.8,9.8,4.7,14.3,7.8c4.4,3,9.4,5.3,14.5,7.1c4.3,1.5,6.1,4.7,4.4,8.9
		c-0.5,1.3,0.2,3.1-1.5,3.9c-1.4,8.1-4.8,15.3-8.9,22.3c-3.4,5.7-8.2,9.5-14,12.4c-3.5,1.7-6.8,1.4-10.1-0.5
		c-4.8-2.7-5.7-5.1-3.4-10c0.2-0.4,0.3-0.9,0.5-1.3c1.8-4.3,0.9-8.7,0.9-13.1c0-1.6-1.4-3.3-0.9-5.1c0.6-1.7,3.2-1.3,3.9-3.5
		c-2.5,0-5.4-0.8-7.3,0.2c-2,1.1-2.6,0.3-3.6-0.8c-2-2.1-4.4-3.8-5-6.9c-0.1-0.5-0.7-0.7-1.2-0.6c-0.5,0.1-0.9,0.4-0.8,1
		c0,0.3-0.1,0.7,0,1c1.9,4,3.7,8.2,8.8,9c0.8,0.1,1.3,0.3,1.2,1.1c-0.3,1.5,0.8,2.7,1,4.1c0.8,8.6-1.2,16.1-7.9,23.2
		c-2.8,3-6,5.6-7.9,9.5c1.2,0,2,0.2,3-0.5c2.4-1.5,4.9-2.9,6.9-5c4.2-4.3,4-5.3,8.7-0.2c1.9,2,4.3,3.3,7,3.7c3.7,0.6,7.3,0,10.7-1.9
		c0.9-0.5,1.9-1.1,2.8-1.7c0.6-0.4,1.4-0.6,1.7,0.1c1,3,3.8,4.4,5.7,6.6c1,1.2,1.9,3.1,3.7,2.8c0.9-0.1,1-2.2,2.2-2.8
		c0.1-0.1,0.3,0,0.5,0c-2.4-3.1-4.9-6.1-8.4-8c-0.7-0.4-0.9-1.1-0.4-1.6c1-1,1.2-2.6,2.4-3.6c1.1-0.9,1.8-2.2,2.7-3.3
		c2.9-3.6,5-7.6,6.6-11.8c1.7-4.6,3.8-9,3.3-14.2c-0.3-2.4,1.7-4.6,1-7.1c1.3-0.5,0.5-3.1,2.9-2.5c1.8,0.4,3.3-0.8,4.6-2
		c2.5-2.4,4.9-5,7.5-7.4c0.9-0.8,1.3-1.9,1.6-2.9c1-2.6,1.7-5.3,2.3-8c0.4-1.6-0.8-3-1.2-4.5c-0.3-1.6-0.4-3.8-2.2-5.1
		c-1.1-0.8-0.6-1.6,0.2-2.4c2.6-2.9,5.7-5.3,7.9-8.7c2.5-4,3.7-11,0.2-14.7c-1.6-1.7-1.3-3.3,0.4-5.1c0.8-0.8,1.7-1.6,2.5-2.5
		c5.7-6.2,7.1-14.1,2-21.5C176.8,515.5,176.6,514.7,176.5,514z"/>
	<path class="st0" d="M455.5,733.9c-1.3-0.1-1.2-0.9-0.8-1.7c1-2.1,2.1-4.1,3.2-6.2c2.1-4.4,4.6-8.8,6.3-13.4
		c1.6-4.7,3.7-9.1,5.6-13.7c1.5-3.8,3.1-7.7,4.7-11.5c2.6-6.2,4.6-12.8,7.1-19c2.8-6.7,4.6-13.7,7.5-20.4c0.1,2.2,1.3,4.3-0.4,6.4
		c-0.3,0.3-0.2,1-0.1,1.4c0.7,3-1.3,5.7-1,8.6c0.3,2.9-1.8,5.6-1,8.6c-1.6,2-0.4,4.5-1.1,6.5c-0.8,2.2-0.9,4.4-0.9,6.6
		c0,1.8-1.5,3.1-1.1,5.1c0.3,1.5-0.2,3-0.8,4.6c-0.8,2.2,0.5,4.9-1.1,7c0.7,3.5-1.2,6.7-1,10.1c-3.8,2.5-6.9,5.8-10.3,8.7
		C465.3,725.7,461,730.5,455.5,733.9z"/>
	<path class="st0" d="M396.5,2138.7c0.1-1.1-0.1-2.1,0.6-3.2c1.5-2.5,2.5-5.3,4-7.8c2.5-4.2,6.1-7.3,10-10.2c3.1-2.3,6.8-2.9,10-4.7
		c0.5-0.3,2.1-0.8,2.3,0.8c0.1,0.8,0.2,1.5-1,2.2c-6.7,4.3-12.3,9.6-15.9,16.9c-2.8,2.1-6,3.5-8.5,6
		C397.7,2138.9,397,2138.7,396.5,2138.7z"/>
	<path class="st0" d="M336.5,2134.7c-0.7-5.2,1.8-9.6,4.3-13.6c4.1-6.3,9.4-11.7,16.5-14.8c0.8-0.3,1.4-1,2-0.1
		c0.4,0.6,0.1,1.2-0.5,1.7c-0.5,0.4-0.9,1-1.4,1.4c-4.6,3.7-7.7,8.6-10.4,13.6c-1.4,2.6-3.3,5.4-2.6,8.8c-1-0.1-1.8,0.2-2.5,1
		C340.6,2134.3,338.7,2135,336.5,2134.7z"/>
	<path class="st0" d="M364.5,2136.7c-0.3-2.6,0.8-4.9,1.7-7.3c2.7-7,7.1-12.8,12.7-17.6c1.9-1.6,4.1-2.8,6.3-4.1
		c0.2-0.1,0.9,0.2,1.2,0.5c0.2,0.1,0.2,0.7,0,0.9c-0.5,0.6-1.1,1.2-1.7,1.8c-3.3,2.7-5.9,6-7.6,9.8c-1.1,2.3-2.8,4.6-2.6,7.4
		c0.1,1.2-1.1,1.6-1.1,2.6c-2.4,1.9-4.8,3.7-7.1,5.7C365.8,2136.9,365.1,2136.6,364.5,2136.7z"/>
	<path class="st10" d="M1115.4,518.9c-0.4,1.7,0.8,3,1.1,4.5c-4,1.5-8,1.5-12.1,1.6c-2.2,0-4.4-0.6-6.7,0.8c-1.6,1-4.2-0.7-6,1.1
		c-0.3,0.2-1,0.1-1.5,0c-4.1-0.7-8,1.3-12.1,1c-2.1-0.2-3,1.4-4.3,2.8c-2.3,2.7-3.5,6-4.4,9.2c-1.3,4.9,1.5,8.6,4.5,12
		c2.2,2.4,2.3,2.4,5.3,0.9c5.8-2.9,11.6-5.8,17.4-8.8c5.1-2.6,9.8-5.9,15-8.3c1.9-0.9,3.1-3,5.6-3.5c0.9-0.2,1.9-0.4,2.8-0.4
		c2.6,0,10.6,2.5,12.8,4c0.5,0.3,0.6,0.8,0.5,1.3c-0.2,0.8-1,0.9-1.5,0.6c-1.9-1.2-4-1.5-6.2-2c-5.6-1.1-9.9,1.9-14.1,4.6
		c-5.4,3.5-10.9,6.5-16.5,9.7c-4.3,2.5-9,4.1-13.3,6.7c-1.6,1-2.7,1.9-3.5,3.6c-0.9,1.9-2.4,3.7-2.8,5.8c-0.7,3.5,1,6.5,3,9.2
		c0.7,0.9,1.6,1.7,2.5,2.5c2.5,2.5,3.5,2.9,6.1,0.8c6.4-5.2,13.8-8.7,20.6-13.2c5.2-3.5,10.7-6.8,16.5-9.5c2.5-1.2,5.2-1.8,7.8-2.8
		c2.5-1,5.2,0.4,7.7,1.6c3.1,1.5,5.1,4.3,7.9,6.1c2.1,1.3,3.9,3.1,6.3,4.2c0.3,0.1,0.5,0.9,0.5,1.2c-0.1,0.8-1,0.9-1.5,0.6
		c-3.9-2.4-8.3-3.9-11.4-7.4c-2.7-3-6.3-3-9.8-2.2c-3,0.8-5.9,2.2-8.2,4.2c-9.8,8.4-20.9,14.7-31.4,22.1c-2.6,1.8-3.5,4.8-5.7,6.5
		c-2.3,1.8-1.1,4.7-2.9,6.4c1.4,2.4,0.7,5.6,2.9,7.8c2.6,2.5,5.2,5.1,7.8,7.8c1,1,2.4,1.3,3,0.5c2.6-3.6,6.8-4.4,10.4-6.3
		c11.7-6,23.3-12.1,35-18c2.6-1.3,5.4-2.7,8.5-2.4c1,0.1,1.9-0.2,2.7,0.8c0.6,0.8,2.9-0.6,2.5,1.2c-0.6,2.6-1.9,0.1-2.8-0.1
		c-1.7-0.3-3.4,0.4-4.5,1.1c-7.4,5.2-15.4,9.4-23.5,13.4c-2.5,1.2-4.9,2.8-7.3,4.2c-4.4,2.7-8.9,4.9-13.9,6.4
		c-2.7,0.8-5.1,5.7-3.8,8.5c1.8,3.7,2.4,7.7,3.7,11.5c2.4,6.8,5.4,13.3,9.8,18.9c3.4,4.4,8,7.7,13.6,9.2c1,0.3,2.1,1.5,3.1,0.9
		c1.9-1.2,4.4-0.9,5.9-2.6c0.3-0.4,0.7-0.7,1.1-1.1c3.4-3.3,3.5-3.7,1.5-7.9c-1.1-2.3-2.1-4.6-1.8-7.3c0.3-3.4-0.7-6.8,0.9-10.1
		c0.6-1.4,0.3-3.4-1.8-3.9c-1-0.3-1.6-0.9-2.2-2c2.5,0,5-0.6,7,0.2c2.1,0.8,3.1,0.5,4.4-1c1.8-2,4.1-3.7,4.6-6.6
		c0.1-0.5,0.7-0.7,1.2-0.6c0.9,0.1,1,0.9,0.8,1.5c-1.4,4.3-3.5,8.1-8.3,9.5c-0.7,0.2-1.7-0.2-1.7,1.1c0.1,2.6-1.1,4.9-1.1,7.6
		c-0.1,4,0.6,7.7,2.3,11.1c1.2,2.5,2.3,5.1,4.4,7.2c3.3,3.4,7,6.4,9.3,10.7c-0.9,0.6-1.8,0.5-2.9-0.2c-2.6-1.6-5.2-3.1-7.3-5.3
		c-3.7-3.9-3.8-4.7-8-0.2c-0.8,0.8-1.5,1.6-2.6,2.2c-4.8,2.6-9.5,3-14.4,0.1c-1.1-0.7-2.5-1.2-3.7-1.9c-0.9-0.4-1.3-0.5-1.9,0.5
		c-2,3.7-5.6,6-8.4,9c-0.4,0.5-1.5,0.3-1.5-0.5c-0.2-1.4-0.9-2-2.1-2.4c2.4-3.1,4.9-6.1,8.4-8c0.7-0.4,0.9-1.1,0.5-1.6
		c-1-1.2-1.6-2.7-2.7-3.9c-3.3-3.4-5.7-7.5-7.7-11.8c-1.7-3.4-2.6-7.3-4-10.8c-0.4-1-0.4-2-0.3-2.9c0.6-3.5-1.3-6.7-1.1-10.1
		c0.1-1-1.1-1.4-1.2-2.5c-0.1-0.8-1.4-0.3-2.2-0.4c-1.6-0.2-3-0.9-4.1-2.1c-2.5-2.5-4.9-5-7.4-7.4c-1.9-1.9-2.4-4.5-2.9-6.8
		c-1.5-6.4-0.7-7.6,2.7-14c0.4-0.7,0.3-1.2-0.2-1.7c-1.8-1.8-3.5-3.5-5.3-5.3c-3.6-3.5-5.5-7.7-5.3-12.8c0.1-2,0.8-3.7,1.9-5.2
		c1.8-2.6,1.8-3.7-0.5-5.8c-3.3-3-5.6-6.4-6.8-10.7c-0.2-0.7-0.6-1.5-0.5-2.3c0.3-3.8,0.7-7.5,3.2-10.7c1.4-1.8,1.2-4.3-0.6-5
		c-4.4-1.7-4.5-6.1-6.6-9.2c0.9-2.1-1.9-3.6-0.7-6c0.9-1.8,1.7-3.7,2.8-5.3c2.3-3.5,6.2-5.1,10-5.6c6.3-0.8,12.1,1,18,3.3
		c6.8,2.6,12.5,7,18.5,10.8c0.6,0.4,1.2,1,1.4,1.9C1112,519.1,1113.8,519,1115.4,518.9z"/>
	<path class="st0" d="M807.5,753.9c-0.3-0.1-0.8-0.3-0.8-0.4c0.2-3.9-1.8-7.6-1.2-11.5c0.4-2.3-1.4-4.2-1.1-6.6
		c0.2-2,1.1-4.3-0.9-6.1c-0.1-0.1,0-0.3,0-0.5c0.7-4.3-1.6-8.3-0.9-12.6c0.4-2.7-1.3-5-1.1-7.6c0.2-2.5,0.7-5.2-0.1-7.4
		c-1.3-3.7-1-7.5-0.8-11.1c0.3-4.6-1.7-9-1.1-13.6c0.1-0.7,0-1.3,0-2c0-0.2,0.4-0.6,0.6-0.6c0.5-0.1,1.3,0,1.2,0.4
		c-0.2,1.2,1.1,1.6,1.1,2.6c0.3,5.1,2.8,9.5,4.1,14.3c1.2,4.3,2.8,8.6,3.7,12.9c0.7,3.4,1.5,6.8,2.4,10.1c0.8,3.1,0.7,6.6,2.7,9.3
		c0.2,5.2,2.3,10.1,3.2,15.2c0.7,4.2,1.4,8.6,3.5,12.5c0.4,0.8,1.1,2.2-0.7,2.7c-4-2.5-6.6-6.4-8.8-10.4c-0.7-1.3-1.1-2.4-2.8-2.7
		c-1.3-0.3-2.3-0.1-2.4,1.1c-0.1,0.5,0.1,1,0,1.5c-0.8,1.9,1.7,3.6,0.6,5.3C807,750.5,807.8,752.2,807.5,753.9z"/>
	<path class="st0" d="M985.5,2131.7c-3.2-6.8-11.5-15-18-17.9c-0.8-0.3-1.1-0.7-1-1.3c0.1-0.9,0.9-0.7,1.5-0.7
		c6.6-0.1,12.7,1.9,18.2,5.4c4.5,2.8,8.2,6.5,10.6,11.4c0.6,1.2,0.5,2.2,0.6,3.2c-2.8,1.8-6,0.6-9,1
		C987.2,2133,986.5,2131.9,985.5,2131.7z"/>
	<path class="st0" d="M956.5,2143.7c-0.3-6.2-2.7-11.6-6.7-16.2c-1.6-1.9-3.5-3.5-5.5-5.5c2.9-0.9,5.1,0.5,7.1,1.8
		c3.5,2.1,7.3,4.1,9.9,7.3c3.6,4.4,7.1,8.8,8.1,14.6c-1.5,1.9-3.3,0.7-5.1,0.5C961.6,2145.9,959.2,2144.2,956.5,2143.7z"/>
	<path class="st0" d="M797.5,792.6c0,3.7-0.4,7.4,0.1,11c1.8,13.5,0.5,27.1,1,40.6c0.1,1.8-0.2,3.6-1.1,5c-1,1.7-2.4,3-4.8,2.7
		c-2.1-0.3-4.8,0.7-6.4-0.3c-1.8-1.2-4.1,0.2-5.3-1.8c-2.3,0.4-4.4-0.5-6.6-1c-3.2-0.7-6.4-1.6-9.7-1.9c-3.3-0.3-6.5-0.9-9.7-1.9
		c-2.1-0.7-4.5,0.5-6.5-1.1c-3.3,0.7-6.3-1.7-9.6-0.9c-1.8,0.4-2.9-1.3-4.6-1.1c-1.4,0.1-3,0.7-4.2-0.7c-0.2-0.2-0.6-0.2-0.9-0.2
		c-3.9,0.6-7.6-1.7-11.6-1c-1.9,0.3-3.2-1.3-5.1-1.1c-1.5,0.2-3.3,0.8-4.6-0.9c-0.1-0.2-0.6,0-1,0c-3.1-0.1-6.2,0.4-9.1-1
		c-5.6,0.7-11-0.9-16.6-1.2c-4.9-0.3-9.8-0.1-14.5-1c-3.6-0.7-7.1-0.8-10.6-0.7c-7.9,0.3-15.7-1.5-23.6-1.2
		c-7.8,0.4-15.7,0.2-23.5,0c-3.6-0.1-6.9,1.5-10.6,1.1c-3.5-0.4-7.1-0.7-10.4,0.1c-3.6,0.9-7.1,0.7-10.6,0.8
		c-1.9,0.1-3.5,1.4-5.6,1.1c-1.7-0.2-3.6-0.6-5.1,0.9c-2.9-0.4-5.8,0.3-8.6,1c-1.7,0.4-3.4-0.5-5.2,0.8c-1.3,1-3.3-0.3-5.1,1
		c-1.2,1-3.6-0.7-5,1.2c-4.8-0.1-9.1,2.2-13.8,2.9c-3,0.5-5.6,1.7-8.5,2.5c-3.2,0.9-6.5,1.9-9.6,3.2c-3.1,1.3-6.3,2.6-9.6,3.4
		c-1.2,0.3-2.2,1.1-3.3,1.8c-2.3,1.6-5,1.2-7.5,1.2c-1.6-0.1-4.2-3.2-4.2-4.8c0-3.8-0.7-7.8,0.2-11.5c0.9-4.1,0.7-8.1,0.8-12.1
		c0-2.3,1.5-4.2,1.1-6.6c-0.3-2.1-0.6-4.5,0-6.4c1.4-4,0.2-8.2,1-12.1c0.9-4.5,0.4-9.1,1.1-13.6c0.4-2.5,0.6-5.1,0.9-7.6
		c0.4-4.1,4.7-6.6,8.9-5.3c7.7,2.4,15.3,5,22.9,7.3c5.5,1.7,11.1,3.1,16.5,4.8c6.3,1.9,12.8,2.6,19,4.7c2,0.7,4.3,1.1,6.5,1.2
		c2.6,0.1,4.9,1.7,7.6,1.1c1.9,2.4,5.3-0.4,7.2,2c3-0.7,5.7,1.3,8.6,0.9c2.1-0.3,3.5,1.3,5.6,1.2c1.8-0.1,4-1,5.6,0.8
		c0.2,0.3,1,0.1,1.4,0.1c5.6-0.6,11,1.6,16.6,1c8.8,2,17.7,0.7,26.6,1c9,0.2,18,0,27,0c4.9,0,9.6-1.7,14.6-1
		c2.6-1.5,5.4-1.1,8.1-0.9c1.7,0.1,2.9-1.3,4.6-1.1c1.3,0.1,2.8,0.5,4.2-0.8c0.6-0.6,2.2-0.2,3.4-0.1c1.5,0,2.8-0.2,4.1-0.9
		c1.2-0.6,2.7,0.1,4.2-0.6c1.9-0.9,4.3-1,6.4-1.3c5.2-0.7,10.1-2.3,15.1-3.5c9.3-2.3,18.4-5.2,27.4-8.6c3.9-1.5,7.8-2.8,11.7-4.4
		c3.8-1.6,7.6-3.4,11.3-5.3c5.4-2.7,10.7,0.5,10.8,6.4C797.5,784,797.5,788.3,797.5,792.6z"/>
	<path class="st0" d="M633.4,1154.7c-2.1,0.8-4-0.5-5.5-1.2c-8.4-3.9-16.9-7.6-24.9-12.4c-5.1-3-9.8-6.7-15-9.5
		c-2.1-1.1-3.7-3-5.6-4.6c-3.8-3.3-8-6.3-11.4-10.1c-1.1-1.3-2.1-2.8-4.1-3.3c-1.5-0.3-1.2-2.2-2.1-3.1c-2-2-4-4-6-6
		c-1.5-1.5-2.9-3-3.9-4.9c-1.7-2.9-1.8-3.2,0.5-5.2c1-0.9,2-0.9,3.1-0.3c8.8,4.2,18,7.3,27.3,10.1c3.4,1,6.8,2.1,10.4,2.7
		c3.9,0.7,8.1,1,11.8,2.7c0.3,0.1,0.6,0.1,1,0.1c5.7,0.2,11.3,1.5,17.1,1.1c1.7-0.1,3.4-0.5,5.2,0.8c1.1,0.8,3.7,0.8,4.8,0
		c1.8-1.2,3.5-0.9,5.2-0.8c5.4,0.6,10.8-0.5,16.1-1.3c4.8-0.7,9.6-1.3,14.3-2.8c4.4-1.4,9-2.4,13.5-3.7c4.4-1.2,8.4-3.1,12.7-4.3
		c4.2-1.1,8-3.2,12.1-4.6c2.3-0.8,4.6-1.8,6.8-2.9c0.1-0.1,0.2-0.3,0.4-0.3c1.7,0,3.7-1,5,0.8c1.3,1.6,0.7,3.3-0.4,4.8
		c-1.9,2.7-3.5,5.6-5.5,8.2c-4.9,6-10,11.9-15.9,16.9c-8.2,6.8-16.9,13.2-26.4,18.3c-4.9,2.7-9.9,5.1-15,7.1
		c-6.7,2.7-13.4,5.7-20.7,6.7C636.4,1154.1,635.1,1155.6,633.4,1154.7z"/>
	<path class="st0" d="M489.7,1585.9c-5-0.3-9.4-2-13.2-5.5c-3.5-3.2-6-7.2-8.7-11c-0.5-0.7-1.2-1.7-1.3-2.9
		c-0.3-3.2,2.1-5.1,5.1-4.1c6.2,2.1,12.4,4.1,19.1,3.4c0.7-0.1,1.3,0,2,0c7.3,0.4,14.2-0.9,21-3.6c3.4-1.3,6,0.7,5.9,4.1
		c0,1.2-0.8,1.8-1.5,2.4c-4,3.9-7.5,8.4-12.3,11.2C500.8,1582.8,496,1586.2,489.7,1585.9z"/>
	<path class="st0" d="M779.8,1575.9c-5.7-0.3-10.6-2.5-15.2-5.6c-5.1-3.4-8.9-8.2-13.4-12.3c-1.2-1.1-1-2.8-0.6-3.6
		c0.6-1.1,1.5-2.7,3.3-2.6c0.9,0.1,1.8,0,2.8,0.6c2.6,1.4,5.6,1.8,8.4,2.5c3.4,0.8,6.7,0.6,10.1,0.9c5.6,0.6,14.4-0.3,20.1-2.6
		c1-0.4,1.9-0.1,2.7-0.6c0.7-0.4,1.4-1.4,2-0.6c0.8,0.9,2.2,0.5,2.9,1.7c0.8,1.4,0.8,2.7,0,4.1c-2.4,3.9-4.8,7.8-8.1,11.2
		c-3,3-6.3,5.1-10.4,6.4C782.9,1575.9,781.3,1575.4,779.8,1575.9z"/>
	<path class="st0" d="M529.5,2013.5c-0.2,7.9-3.9,12.5-11.1,15.2c-2.1,0.8-4.2,1.3-6.6,1.1c-1.2-0.1-2.4-0.3-3.7,0.7
		c-0.9,0.6-2.6,0.4-3.8,0.2c-1.5-0.2-2-2.1-1-3.2c4.2-4.5,7.5-9.8,10-15.3c2.4-5.4,4.6-11.1,4.2-17.2c-0.1-1.3,0-2.7,0-4
		c0-1.3,0.8-1.1,1.6-1.2c1-0.1,1.7,0.5,2,1.2c1.3,3,3.5,5.4,4.5,8.6c1.1,3.4,2.3,6.7,3.4,10.1
		C529.6,2011.1,528.9,2012.5,529.5,2013.5z"/>
	<path class="st0" d="M783.3,2033.7c-0.7,0-1.1,0-1.4,0c-1.9-0.2-3.8,0.5-5.4-1.4c-2.1-2.3-4.1-4.5-4-7.8c0.1-2.5-0.9-5.2,1-7.6
		c-0.2-4.5,2.1-8.4,3-12.7c0.5-2.4,1-2.5,3.3-2.6c1.2,0,1.3,0.6,1.9,1.5c1,1.7,1.3,3.5,1.9,5.2c2.4,6.1,7.2,10.2,11.7,14.5
		c0.9,0.9,2.5,1.3,3.7,1.9c2.3,1.3,2.1,3.6,0.1,4.7c-2.4,1.3-5,2.6-7.6,3.1C788.6,2033.1,785.9,2034.7,783.3,2033.7z"/>
	<path class="st0" d="M107.2,525c-0.2-0.3-0.5-0.6-0.6-0.8c-0.4-1.8,1.7-0.9,2.2-1.9c0.3-0.7,1.1-0.6,1.6,0c0.2,0.2,0.3,0.7,0.2,0.9
		C109.6,524.1,108.4,524.7,107.2,525z"/>
	<path class="st0" d="M1135.3,538.8c0.3-0.4,0.4-0.9,0.6-0.9c1.4,0,2.4,0.9,3.5,1.7c0.1,0.1,0,0.6-0.1,0.9c-0.3,0.6-1.2,0.5-1.2,0.3
		C1137.5,539.8,1135.5,540.4,1135.3,538.8z"/>
	<path class="st0" d="M103.4,526.6c-0.1,0.1-0.2,0.2-0.4,0.4c-0.1-0.2-0.3-0.4-0.3-0.7c0-0.1,0.2-0.2,0.3-0.3
		C103.2,526.1,103.3,526.4,103.4,526.6z"/>
	<path class="st0" d="M1143.3,542.3c-0.1,0.2-0.2,0.4-0.4,0.6c-0.1-0.1-0.3-0.2-0.3-0.3c0.1-0.2,0.2-0.4,0.3-0.7
		C1143,542,1143.2,542.1,1143.3,542.3z"/>
	<g id="Layer_16">
	</g>
</g>
<g id="Head">
	<path class="st0" d="M518.9,368.9c-23.7,8.4-48.5-23.7-34.9-39c8.6-9.7,25,7.1,29.2,11.8l-2.4-11.6c0,0-13.9-31.9-33-20.7
		s-14.4,38-7.5,51.5s30.7,41.2,51.4,21.6L518.9,368.9z"/>
	<path class="st11" d="M484,329.9c-13.6,15.3,11.2,47.4,34.9,39l-5.7-27.2C509,337,492.7,320.2,484,329.9z"/>
	<path class="st0" d="M758.1,368.9c23.7,8.4,48.5-23.7,34.9-39c-8.7-9.7-25,7.1-29.2,11.8l2.4-11.6c0,0,13.9-31.9,33-20.7
		s14.4,38,7.5,51.5s-30.7,41.2-51.4,21.6L758.1,368.9z"/>
	<path class="st11" d="M793,329.9c13.6,15.3-11.2,47.4-34.9,39l5.7-27.2C768,337,784.3,320.2,793,329.9z"/>
	<path class="st12" d="M638.2,133.3c-160,2.8-143.4,165.1-143.4,165.1s-2.8,87.6,7.8,118.7s35.3,41.6,74.8,55.1
		c0,0,18.3,24,60.7,22.6h0.2c42.4,1.4,60.7-22.6,60.7-22.6c39.5-13.4,64.2-24,74.8-55.1s7.8-118.7,7.8-118.7
		S798.2,136.1,638.2,133.3z"/>
	<path class="st0" d="M683,466.2c-28.4-6.5-60.5-7.2-89.2,0C593.7,466.2,637.3,431.6,683,466.2z"/>
</g>
<g id="Nose">
	<path class="st0" d="M634.5,318.3c-0.5-0.7-0.4-1.6,0.2-2.2c0.5-0.4,1.1-0.5,1.7-0.2c4.6,2.2,10.5,5.5,12.6,8.8
		c3.5,5.6,17.7,38.8,13.4,45.9c-2.8,4.7-16.8,10.9-25.9,14.6c-1.1,0.4-2.3-0.1-2.7-1.2c-0.3-0.8-0.1-1.7,0.5-2.2
		c5.7-5.3,13.3-12.6,13.3-16.8c0-7.1-6.3-38.1-6.3-38.1L634.5,318.3z"/>
	<path class="st0" d="M629.2,375.5c0,0-12-12.7-13.4-7.1S629.2,375.5,629.2,375.5z"/>
</g>
<g id="Mouth">
	<path class="st13" d="M625.7,419c8.4,2.6,17.1,2.2,25.3-1.2l38.3-3.3c0,0-26.1-28.4-50.9-3.5c0,0-26.9-21.7-48.8,6L625.7,419z"/>
	<path class="st14" d="M625.7,419.4c8.4,1.9,17.1,1.6,25.3-0.9l38.5-4.1c0,0-9,24.7-50.5,26.5c-40.3,0.7-49.8-24.1-49.8-24.1
		L625.7,419.4z"/>
</g>
<g id="Eyes_x5F_02">
	<path class="st12" d="M516.3,303.3c0,0,8.5,25.9,26.9,28c32.5,3.8,63.8-20.5,63.8-20.5S520.9,310.6,516.3,303.3z"/>
	<path class="st15" d="M516.3,303.3c0,0,14.7,18.1,29.5,18.5s61.2-11,61.2-11S573.4,287.1,516.3,303.3z"/>
	<path class="st16" d="M516.3,303.3l32.5-18.3c0,0,22.7-1.1,36.8,6.3c0,0,16.4,14.9,21.3,19.5c0,0-43.8-12.3-50.1-12.8
		C549.4,297.3,516.3,303.3,516.3,303.3z"/>
	<g>
		<defs>
			<path id="SVGID_5_" d="M516.3,303.3c0,0,14.7,18.1,29.5,18.5s61.2-11,61.2-11S573.4,287.1,516.3,303.3z"/>
		</defs>
		<clipPath id="SVGID_4_">
			<use xlink:href="#SVGID_5_"  style="overflow:visible;"/>
		</clipPath>
		<g class="st17">
			<circle class="st16" cx="560.3" cy="302.7" r="23.1"/>
		</g>
	</g>
	<path class="st12" d="M757.1,303.3c0,0-8.5,25.9-26.9,28c-32.5,3.8-63.7-20.5-63.7-20.5S752.4,310.6,757.1,303.3z"/>
	<path class="st15" d="M757.1,303.3c0,0-14.6,18.1-29.5,18.5s-61.2-11-61.2-11S699.9,287.1,757.1,303.3z"/>
	<path class="st16" d="M757.1,303.3L724.5,285c0,0-22.7-1.1-36.8,6.3c0,0-16.4,14.9-21.3,19.5c0,0,43.8-12.3,50.1-12.8
		C723.9,297.3,757.1,303.3,757.1,303.3z"/>
	<g>
		<defs>
			<path id="SVGID_7_" d="M757.1,303.3c0,0-14.6,18.1-29.5,18.5s-61.2-11-61.2-11S699.9,287.1,757.1,303.3z"/>
		</defs>
		<clipPath id="SVGID_6_">
			<use xlink:href="#SVGID_7_"  style="overflow:visible;"/>
		</clipPath>
		<g class="st18">
			<circle class="st16" cx="713" cy="302.7" r="23.1"/>
		</g>
	</g>
</g>
<g id="Eyebrow">
	<path class="st19" d="M514.6,253c0,0,61.5-14.7,90,3.8c0,0,4.7,16.8,0.5,23.6s-28.1-30.1-96.5-16.7
		C508.6,263.7,508.4,254.1,514.6,253z"/>
	<path class="st19" d="M610.1,260.8c0,0,2.1,18.4-0.5,24c0,0,3.7,3.5,4.8,0.7s1.1-21.9,0-24S610.1,260.8,610.1,260.8z"/>
	<path class="st19" d="M758.7,253c0,0-61.5-14.7-90,3.8c0,0-4.7,16.8-0.5,23.6s28.1-30.1,96.5-16.7
		C764.7,263.7,764.9,254.1,758.7,253z"/>
	<path class="st19" d="M663.2,260.8c0,0-2.1,18.4,0.5,24c0,0-3.7,3.5-4.8,0.7s-1.1-21.9,0-24S663.2,260.8,663.2,260.8z"/>
</g>
<g id="Shoes_x5F_02">
	<path class="st19" d="M310.9,2148.8c0,2.1,13.4,18.4,13.4,18.4l11.3-14.8L310.9,2148.8z"/>
	<path class="st19" d="M352.5,2156.5c0,2.1,13.4,18.4,13.4,18.4l11.3-14.8L352.5,2156.5z"/>
	<path class="st19" d="M397.7,2150.2c0,2.1,13.4,18.4,13.4,18.4l11.3-14.8L397.7,2150.2z"/>
	<path class="st19" d="M437.9,2137.2c0,2.1,20.5,17.6,20.5,17.6l4.2-19.8L437.9,2137.2z"/>
	<path class="st19" d="M459.1,2111.5c0,2.1,20.5,17.6,20.5,17.6l4.2-19.8L459.1,2111.5z"/>
	<path class="st19" d="M484.5,2088.3c0,2.1,20.5,17.6,20.5,17.6l4.2-19.8L484.5,2088.3z"/>
	<path class="st19" d="M519.5,2062.4c0,2.1,20.5,17.6,20.5,17.6l4.2-19.8L519.5,2062.4z"/>
	<linearGradient id="SVGID_8_" gradientUnits="userSpaceOnUse" x1="389.5426" y1="2015.2729" x2="466.1626" y2="2015.2729">
		<stop  offset="0.4535" style="stop-color:#FB12FE"/>
		<stop  offset="0.5045" style="stop-color:#D440F9"/>
		<stop  offset="0.5761" style="stop-color:#A27AF3"/>
		<stop  offset="0.6422" style="stop-color:#7AA8EE"/>
		<stop  offset="0.7007" style="stop-color:#5EC9EB"/>
		<stop  offset="0.7493" style="stop-color:#4CDDE9"/>
		<stop  offset="0.782" style="stop-color:#46E4E8"/>
	</linearGradient>
	<path class="st20" d="M432.9,2060.9c17.6-24.8,31.2-54.2,33.2-85.4c-11-5.8-23.4-6.4-32.4-5.8c-8.4,0.6-15.7,6.2-18.4,14.2
		c-5.2,15.2-10.4,39.6-12.9,49.1c-1.9,7-7.7,16.5-12.9,24C403.4,2052.4,419.6,2054.9,432.9,2060.9z"/>
	<path class="st21" d="M466.2,1975.6c-2.1,31.1-15.6,60.5-33.2,85.4c0.8,0.4,1.7,0.8,2.5,1.2c-0.8-0.4-1.6-0.8-2.5-1.2
		c-1.5,2.1-3,4.2-4.5,6.2c1.5-2,3-4.1,4.5-6.2c-13.3-6-29.5-8.6-43.4-4c-4.8,6.9-9,12-9,12c20.2-13.4,52.7,5.4,52.7,5.4
		c9.9-6.6,32.5-50.3,32.5-50.3l12.2-39.1C474.7,1981.1,470.7,1977.9,466.2,1975.6z"/>
	<polygon points="490.7,2091.4 505,2093.6 496.4,2076.8 	"/>
	<path class="st19" d="M547.6,2029.7c-8.9,16-30.7,26.1-42.6,30.6c-5.1,1.9-9.4,5.7-11.9,10.5c-10.6,20.5-25.3,35.3-45.7,55.8
		c-69.6,33.8-128.4,5.4-143.3-1.1c0,1,0.1,1.9,0.3,2.8c1.4,7.3,3.6,14.4,6.6,21.2c15,11.9,42.1,18.1,68.8,16.3
		c28.8-2,57.1-12.8,69.4-17.5c25.9-9.9,41.4-56.9,41.4-56.9l5.6-14.6l8.6,16.8l0.8,0.1c29.6-12.2,39.5-35.3,39.5-35.3
		C547.2,2053.8,549.5,2041.5,547.6,2029.7z"/>
	<path class="st21" d="M533.5,1994.9c0,0,3.8-2.8,4.2,3.3c0.4,5,3.6,18.7,8.3,23.9c-1.5-12.8-3.8-25.5-6.9-38c-3.8-14.6-8-7.5-8-7.5
		c0.9,6.1-2.8,16-2.8,16c-14.6,21.2-56.9,33.9-62.6,31.5c0,0-1.6,3.1-4.1,7.8c11.5-0.9,41.4-5.3,63-26.1
		C524.6,2005.7,532.6,1997.7,533.5,1994.9z"/>
	<linearGradient id="SVGID_9_" gradientUnits="userSpaceOnUse" x1="304.1477" y1="2069.417" x2="547.3626" y2="2069.417">
		<stop  offset="0.4535" style="stop-color:#FB12FE"/>
		<stop  offset="0.5045" style="stop-color:#D440F9"/>
		<stop  offset="0.5761" style="stop-color:#A27AF3"/>
		<stop  offset="0.6422" style="stop-color:#7AA8EE"/>
		<stop  offset="0.7007" style="stop-color:#5EC9EB"/>
		<stop  offset="0.7493" style="stop-color:#4CDDE9"/>
		<stop  offset="0.782" style="stop-color:#46E4E8"/>
	</linearGradient>
	<path class="st22" d="M537.8,1998.2c-0.5-6.1-4.2-3.3-4.2-3.3c-1,2.8-9,10.8-9,10.8c-21.6,20.8-51.4,25.2-63,26.1
		c-4.9,9-13.2,23.7-20.2,33.5c-3.9,5.4-11,7.4-17.1,4.8c-11.1-4.6-30.2-10.1-43.8-1.1c0,0-53.3,20.8-72.8,45.5
		c-2.5,3.1-3.8,7-3.7,11c10.6,12.9,73.7,34.9,143.3,1.1c21-11.4,33.2-29.9,55.5-62.1c0,0,31.9-3.9,44.4-26.6
		c-0.2-5-0.7-10.5-1.3-15.9C541.3,2016.9,538.1,2003.2,537.8,1998.2z"/>
	<path class="st23" d="M447.4,2126.7c1.7-0.9,3.4-1.9,5-2.9l-12.7,6.5C442.2,2129.1,444.8,2127.9,447.4,2126.7z"/>
	<path class="st21" d="M502.9,2064.5c0,0,31.9-3.9,44.4-26.6c-0.2-5-0.7-10.5-1.3-15.9c-3.7-4-6.4-13.1-7.6-19.3
		c-7.8,10.8-25.6,30.8-52.7,38c0,0-29.6,31.1-45.2,38.8c-12.3,6.1-26.7,44.8-32.3,60.8c10.7-2.4,21.2-5.8,31.3-10.2l12.7-6.5
		C470.4,2112.1,482.5,2094.1,502.9,2064.5z"/>
	<path class="st4" d="M524.6,2005.7c-21.6,20.8-51.4,25.2-63,26.1c-4.9,9-13.2,23.7-20.2,33.5c-3.9,5.4-11,7.4-17.1,4.8
		c-11.1-4.6-30.2-10.1-43.8-1.1c0,0-53.3,20.8-72.8,45.5c-2.5,3.1-3.8,7-3.7,11c10.6,12.9,73.7,34.9,143.3,1.1
		c21-11.4,33.2-29.9,55.5-62.1c0,0,31.9-3.9,44.4-26.6c-0.2-5-0.7-10.5-1.3-15.9c-4.7-5.2-7.9-18.9-8.3-23.9
		c-0.5-6.1-4.2-3.3-4.2-3.3"/>
	<path class="st24" d="M546.8,2053.4c-5.6,7-15.8,15.7-34.2,22.4c-1.6,0.6-2.4,2.3-1.8,3.8c0,0,0,0,0,0l0,0c0.6,1.6,2.3,2.3,3.9,1.8
		c0,0,0,0,0,0c8.6-3.3,16.7-7.6,24.3-12.8c2.5-3.1,4.6-6.5,6.3-10.1C546,2056.8,546.5,2055.1,546.8,2053.4z"/>
	<path class="st24" d="M367.6,2157.1c21.3,0,48.4-4.3,80.6-18.3c1.3-0.5,1.9-2,1.4-3.3s-2-1.9-3.3-1.4c0,0-0.1,0-0.1,0.1
		c-47.5,20.6-83.7,19.7-105.7,15.2c-17.6-3.6-29.2-9.9-34.1-12.9c0.7,2.4,1.4,4.8,2.3,7.1c9.6,5,19.8,8.6,30.5,10.6
		C348.5,2156.2,358,2157.1,367.6,2157.1z"/>
	<path class="st21" d="M373.5,2098.7c3.6-8.1,23.4-23.2,37.1-33c-9.9-2.3-21.2-2.6-30.1,3.3c0,0-1.3,0.5-3.6,1.5
		c-8.4,6.9-27,21.8-34.5,23.9c-7.8,2.2-29.5,18-38.1,28.1c-0.2,1-0.2,2-0.2,3c6.8,8.4,35.7,20.5,74.2,18.9
		C374.7,2130.6,369.7,2107.3,373.5,2098.7z"/>
	<path class="st24" d="M419.4,2024.5c0,0,12.5-39.8,13.4-43.8s16.2,0.7,16.2,0.7l-14.1,45.9L419.4,2024.5z"/>
	<path d="M454,2041.9c-0.5,0-0.9-0.1-1.3-0.4c-31.3-19-50-18.7-50.1-18.7h-0.1c-1.4,0-2.5-1.1-2.6-2.4c0-1.4,1.1-2.5,2.5-2.6
		c0.8,0,20.2-0.5,52.9,19.4c1.2,0.7,1.5,2.3,0.8,3.4C455.7,2041.4,454.9,2041.9,454,2041.9L454,2041.9z"/>
	<path d="M451.2,2050.3c-0.3,0-0.6-0.1-0.9-0.2c-36.4-14.8-56-1.1-56.2-1c-1.2,0.7-2.7,0.2-3.4-1c-0.5-1-0.4-2.2,0.5-3
		c0.9-0.6,22-15.4,61,0.4c1.3,0.5,1.9,2,1.4,3.3C453.1,2049.8,452.2,2050.4,451.2,2050.3L451.2,2050.3z"/>
	<path d="M438,2068.8c-0.6,0-1.1-0.2-1.6-0.5c-21.3-16.9-47.9-8.3-48.1-8.2c-1.3,0.5-2.7-0.2-3.2-1.5c-0.5-1.3,0.2-2.7,1.5-3.2
		c0,0,0,0,0.1,0c1.2-0.4,29.5-9.5,52.8,9.1c1.1,0.8,1.3,2.4,0.4,3.5C439.5,2068.5,438.8,2068.8,438,2068.8L438,2068.8z"/>
	<path d="M444.8,2060.9c-0.8,0-1.6-0.4-2.1-1.1c-8.6-12.5-44.8-22.2-45.2-22.3c-0.9-0.2-1.6-0.9-1.8-1.8c-0.2-0.9,0.1-1.8,0.7-2.4
		c0.7-0.7,18.3-16.2,65.4-11.9c1.4,0.1,2.4,1.3,2.3,2.7c0,0,0,0,0,0c-0.1,1.4-1.3,2.4-2.7,2.3c0,0,0,0,0,0
		c-32.5-2.9-50.1,3.8-57.4,7.9c10.8,3.3,35.3,11.8,42.8,22.8c0.8,1.1,0.5,2.7-0.6,3.5c0,0,0,0,0,0
		C445.8,2060.8,445.3,2061,444.8,2060.9z"/>
	<path class="st19" d="M1002.2,2143.7c0.1,2.1-13.4,18.9-13.4,18.9l-12.5-14.3L1002.2,2143.7z"/>
	<path class="st19" d="M958.6,2153.2c0.1,2.1-13.4,18.9-13.4,18.9l-12.5-14.3L958.6,2153.2z"/>
	<path class="st19" d="M910.8,2148.9c0.1,2.1-13.4,18.9-13.4,18.9l-12.6-14.3L910.8,2148.9z"/>
	<path class="st19" d="M867.8,2137.7c0.1,2.1-20.8,18.5-20.8,18.5l-5.3-19.6L867.8,2137.7z"/>
	<path class="st19" d="M844.4,2112.9c0.1,2.1-20.8,18.5-20.8,18.5l-5.3-19.5L844.4,2112.9z"/>
	<path class="st19" d="M816.7,2090.9c0.1,2.1-20.8,18.5-20.8,18.5l-5.3-19.6L816.7,2090.9z"/>
	<path class="st19" d="M778.7,2066.5c0.1,2.1-20.8,18.5-20.8,18.5l-5.3-19.6L778.7,2066.5z"/>
	<linearGradient id="SVGID_10_" gradientUnits="userSpaceOnUse" x1="831.3626" y1="2015.7627" x2="915.5226" y2="2015.7627">
		<stop  offset="0.4535" style="stop-color:#FB12FE"/>
		<stop  offset="0.5045" style="stop-color:#D440F9"/>
		<stop  offset="0.5761" style="stop-color:#A27AF3"/>
		<stop  offset="0.6422" style="stop-color:#7AA8EE"/>
		<stop  offset="0.7007" style="stop-color:#5EC9EB"/>
		<stop  offset="0.7493" style="stop-color:#4CDDE9"/>
		<stop  offset="0.782" style="stop-color:#46E4E8"/>
	</linearGradient>
	<path class="st25" d="M869.9,2061.3c-19.6-24-35.1-52.8-38.6-83.8c11.3-6.3,24.4-7.4,33.9-7.2c8.7,0.1,16.6,5.3,20,13.3
		c6.1,14.9,12.6,39.1,15.6,48.5c2.2,6.9,8.8,16.2,14.6,23.4C900.7,2051.4,883.7,2054.7,869.9,2061.3z"/>
	<path class="st21" d="M831.4,1977.5c3.5,31,19,59.8,38.6,83.8c-0.9,0.4-1.7,0.8-2.6,1.3c0.8-0.4,1.7-0.9,2.6-1.3c1.7,2,3.3,4,5,6
		c-1.7-2-3.4-4-5-6c13.8-6.6,30.7-9.8,45.6-5.8c5.3,6.6,9.9,11.6,9.9,11.6c-21.9-12.5-55.3,7.7-55.3,7.7
		c-10.7-6.1-36.3-48.9-36.3-48.9l-14.5-38.5C822.7,1983.4,826.8,1980,831.4,1977.5z"/>
	<polygon points="810.3,2094.2 795.4,2097.1 803.8,2079.9 	"/>
	<path class="st19" d="M747.7,2035.1c10,15.7,33.4,24.8,46.2,28.8c5.4,1.6,10,5.2,13,10c12,20,28.1,34.2,50.5,53.8
		c74.7,30.7,135.6-0.2,150.9-7.4c0,1,0,1.9-0.2,2.9c-1.2,7.4-3.2,14.6-6.1,21.5c-15.3,12.5-43.6,19.9-71.9,19.3
		c-30.4-0.7-60.7-10.3-73.9-14.4c-27.7-8.7-46-55.1-46-55.1l-6.6-14.3l-8.4,17.2l-0.8,0.1c-31.8-10.9-43.1-33.5-43.1-33.5
		C749.3,2059.2,746.3,2046.9,747.7,2035.1z"/>
	<path class="st21" d="M761.2,1999.7c0,0-4.1-2.7-4.3,3.5c-0.2,5-3,18.8-7.8,24.2c1.3-15.3,4-22.7,5.7-30.3
		c3.4-14.7,15.1-14.9,15.1-14.9c-0.8,5-1.9,10-3.4,14.9c16.3,20.5,61.4,31.4,67.3,28.8c0,0,1.8,3,4.7,7.6
		c-12.2-0.4-43.8-3.4-67.4-23.3C771.1,2010.1,762.3,2002.5,761.2,1999.7z"/>
	<linearGradient id="SVGID_11_" gradientUnits="userSpaceOnUse" x1="748.3627" y1="2070.7126" x2="1008.2927" y2="2070.7126">
		<stop  offset="0.4535" style="stop-color:#FB12FE"/>
		<stop  offset="0.5045" style="stop-color:#D440F9"/>
		<stop  offset="0.5761" style="stop-color:#A27AF3"/>
		<stop  offset="0.6422" style="stop-color:#7AA8EE"/>
		<stop  offset="0.7007" style="stop-color:#5EC9EB"/>
		<stop  offset="0.7493" style="stop-color:#4CDDE9"/>
		<stop  offset="0.782" style="stop-color:#46E4E8"/>
	</linearGradient>
	<path class="st26" d="M756.8,2003.2c0.2-6.1,4.3-3.5,4.3-3.5c1.1,2.8,9.9,10.4,9.9,10.4c23.6,19.9,55.2,22.9,67.4,23.3
		c5.5,8.7,14.9,23.1,22.7,32.6c4.5,5.2,11.9,6.8,18.2,4c11.5-5.1,31.4-11.4,46.1-3c0,0,57.1,18.5,78.6,42.3c2.7,3,4.2,6.8,4.3,10.8
		c-10.6,13.4-76.2,38.1-150.9,7.4c-22.6-10.5-36.3-28.4-61.1-59.6c0,0-33.8-2.5-47.9-24.6c0-5.1,0.3-10.5,0.7-16
		C753.8,2021.9,756.7,2008.2,756.8,2003.2z"/>
	<path class="st23" d="M857.4,2127.6c-1.8-0.8-3.6-1.8-5.3-2.7l13.7,5.9C863,2129.8,860.2,2128.7,857.4,2127.6z"/>
	<path class="st21" d="M796.3,2067.9c0,0-33.8-2.5-47.9-24.6c0-5.1,0.3-10.5,0.7-16c3.7-4.2,6.2-13.4,7.2-19.6
		c8.7,10.5,28.3,29.6,57.1,35.7c0,0,32.5,29.7,49.2,36.8c13.2,5.6,30,43.6,36.5,59.3c-11.4-2-22.6-4.9-33.4-8.8l-13.7-5.9
		C832.5,2114.1,819.1,2096.6,796.3,2067.9z"/>
	<path class="st4" d="M771.1,2010.1c23.6,19.9,55.2,22.9,67.4,23.3c5.5,8.7,14.9,23.1,22.7,32.6c4.5,5.2,11.9,6.8,18.2,4
		c11.5-5.1,31.4-11.4,46.1-3c0,0,57.1,18.5,78.6,42.3c2.7,3,4.2,6.8,4.3,10.8c-10.6,13.4-76.2,38.1-150.9,7.4
		c-22.6-10.5-36.3-28.4-61.1-59.6c0,0-33.8-2.5-47.9-24.6c0-5.1,0.3-10.5,0.7-16c4.8-5.4,7.5-19.2,7.8-24.2c0.2-6.1,4.3-3.5,4.3-3.5
		"/>
	<path class="st24" d="M749.6,2058.7c6.2,6.8,17.3,15,36.9,20.9c1.6,0.5,2.5,2.1,2,3.7c0,0,0,0,0,0.1l0,0c-0.6,1.6-2.4,2.4-4,1.9
		c-9.1-2.9-17.9-6.8-26.1-11.8c-2.7-3-5.1-6.3-7.1-9.9C750.7,2062.1,750.1,2060.4,749.6,2058.7z"/>
	<path class="st24" d="M942.8,2154.5c-22.4,0.9-51.2-2.2-85.6-14.7c-1.3-0.4-2-1.8-1.6-3.1c0,0,0-0.1,0-0.1c0.6-1.3,2.1-1.9,3.4-1.4
		c50.9,18.5,89,16,112,10.6c18.5-4.3,30.4-11.1,35.4-14.4c-0.6,2.4-1.3,4.8-2.1,7.2c-10,5.4-20.6,9.5-31.7,12
		C962.8,2152.8,952.8,2154.1,942.8,2154.5z"/>
	<path class="st21" d="M934.1,2096.4c-4.1-8-25.6-22.1-40.5-31.3c10.3-2.7,22.2-3.5,31.8,2c0,0,1.4,0.4,3.8,1.3
		c9.2,6.6,29.4,20.6,37.4,22.4c8.3,1.9,31.9,16.7,41.3,26.4c0.2,1,0.3,2,0.3,3c-6.9,8.6-36.8,22.1-77.4,22.1
		C934.2,2128.3,938.5,2104.9,934.1,2096.4z"/>
	<path class="st24" d="M882.7,2024.3c0,0-14.8-39.3-16-43.1s-17.1,1.4-17.1,1.4l16.8,45.2L882.7,2024.3z"/>
	<path d="M846.9,2043.1c0.5,0,0.9-0.2,1.3-0.4c32.2-20.4,51.9-20.9,52.1-20.9h0.1c1.4,0,2.5-1.1,2.5-2.5c0-1.4-1.2-2.5-2.6-2.5
		c0,0,0,0,0,0c-0.9,0-21.3,0.4-55,21.7c-1.2,0.7-1.5,2.2-0.8,3.4c0,0,0,0.1,0.1,0.1C845.1,2042.8,846,2043.2,846.9,2043.1z"/>
	<path d="M850.3,2051.5c0.3,0,0.7-0.1,1-0.2c37.8-16.4,59-3.6,59.2-3.4c1.2,0.8,2.8,0.4,3.7-0.7c0.8-1.1,0.5-2.6-0.6-3.4
		c-0.1,0-0.1-0.1-0.2-0.1c-1-0.6-23.9-14.5-64.3,3.1c-1.3,0.5-1.9,1.9-1.4,3.2c0,0,0,0.1,0.1,0.1
		C848.2,2051,849.2,2051.5,850.3,2051.5z"/>
	<path d="M864.9,2069.4c0.6,0,1.2-0.2,1.6-0.6c21.7-17.8,50.1-10.4,50.4-10.3c1.4,0.4,2.8-0.4,3.3-1.7c0.4-1.3-0.4-2.7-1.7-3.1
		c0,0-0.1,0-0.1,0c-1.3-0.3-31.4-8.2-55.3,11.3c-1,0.8-1.2,2.4-0.4,3.4c0,0,0.1,0.1,0.1,0.1C863.4,2069.1,864.1,2069.4,864.9,2069.4
		z"/>
	<path d="M857.4,2061.8c0.9,0,1.7-0.5,2.1-1.2c8.5-12.9,46.3-24.1,46.7-24.2c0.9-0.3,1.6-1,1.8-1.9c0.2-0.9-0.1-1.8-0.9-2.4
		c-0.8-0.6-20-15.4-69.5-9.1c-1.4,0.1-2.4,1.4-2.3,2.8c0,0,0,0,0,0c0.2,1.4,1.5,2.4,2.9,2.1c0,0,0,0,0.1,0c34.1-4.4,53,1.7,60.9,5.4
		c-11.3,3.8-36.7,13.3-44.2,24.6c-0.7,1.1-0.4,2.6,0.7,3.4c0,0,0.1,0.1,0.1,0.1C856.4,2061.7,856.9,2061.8,857.4,2061.8z"/>
</g>
<g id="Pants_x5F_03">
	<path class="st21" d="M871,1883.9L849,1573c0,0,36-201.2-32.8-574.8c-31.3,14-93.4,27.7-157.1,28c-89.5,0.4-182.1-17.8-196.6-29.7
		c-5.8,23.1-15.5,75.3-21.5,122.6c-19.1,150.3-24,390.3-2.8,460.2c0,0-7.6,180.1-10.1,287.7c46.6,13.4,97.5,16.9,144.5,6
		c21.9-83.1,50.6-223.6,24.4-314.9c0,0,37.1-291.2,44.5-324c0,0,29.7,207.5,67.8,317.7c0,0-25.4,62.1,33.1,336.3
		C785.9,1897,830.9,1899.6,871,1883.9z"/>
	<path class="st19" d="M614,1043.6c0,0-14.8,148.2,8.5,184.2l40.2,2.1c0,0-13.4-164.7-8.5-184.2"/>
	<path class="st27" d="M440.3,1541.9v0.3C440.3,1542.3,440.3,1542.2,440.3,1541.9z"/>
	<path class="st27" d="M440.3,1541.9v0.3C440.3,1542.3,440.3,1542.2,440.3,1541.9z"/>
	<linearGradient id="SVGID_12_" gradientUnits="userSpaceOnUse" x1="454.2905" y1="1873.1177" x2="454.2905" y2="996.4478">
		<stop  offset="0.4535" style="stop-color:#FB12FE"/>
		<stop  offset="0.5045" style="stop-color:#D440F9"/>
		<stop  offset="0.5761" style="stop-color:#A27AF3"/>
		<stop  offset="0.6422" style="stop-color:#7AA8EE"/>
		<stop  offset="0.7007" style="stop-color:#5EC9EB"/>
		<stop  offset="0.7493" style="stop-color:#4CDDE9"/>
		<stop  offset="0.782" style="stop-color:#46E4E8"/>
	</linearGradient>
	<path class="st28" d="M484.2,1005.4c-10.7-3.1-18.3-6.2-21.6-9c-5.8,23.1-15.5,75.3-21.5,122.6c-19.1,150.3-24,390.3-2.8,460.2
		c0,0-7.6,180.1-10.1,287.7c8.2,2.4,16.6,4.4,25,6.1c4.7-112.9,10.5-289.6,10.5-289.6C422.6,1425.2,471.8,1085,484.2,1005.4z"/>
	<path class="st19" d="M452.6,1873c-1.8-0.4-3.6-0.8-5.4-1.2l-0.6-0.1c-2-0.4-4-0.9-5.9-1.4l-0.7-0.2c-1.1-0.3-2.3-0.5-3.4-0.8
		l-2.9-0.8c-1.9-0.5-3.7-1-5.6-1.5c-0.5,19.9-0.7,37.2-0.7,50.6c0,10.9,7.9,20.2,18.7,22c20.8,3.4,45.1,5.9,65.2,5.9
		c24.2,0,45.4-16,52.2-39.2c2.8-9.6,5.9-20.7,9.2-33.2C533.7,1882.1,492.2,1881.2,452.6,1873z"/>
	<linearGradient id="SVGID_13_" gradientUnits="userSpaceOnUse" x1="831.22" y1="1890.4878" x2="831.22" y2="998.1578">
		<stop  offset="0.4535" style="stop-color:#FB12FE"/>
		<stop  offset="0.5045" style="stop-color:#D440F9"/>
		<stop  offset="0.5761" style="stop-color:#A27AF3"/>
		<stop  offset="0.6422" style="stop-color:#7AA8EE"/>
		<stop  offset="0.7007" style="stop-color:#5EC9EB"/>
		<stop  offset="0.7493" style="stop-color:#4CDDE9"/>
		<stop  offset="0.782" style="stop-color:#46E4E8"/>
	</linearGradient>
	<path class="st29" d="M849,1573c0,0,36-201.2-32.8-574.8c-8.1,3.5-16.3,6.5-24.7,9c13.1,94.8,54,413.3,34.3,563.7l23.7,319.7
		c7.3-1.7,14.6-3.9,21.6-6.7L849,1573z"/>
	<path class="st19" d="M840.6,1958.4c3.1-1.2,8.9-2.4,15.5-4c11.3-2.9,19-13.5,18.1-25.2l-3.2-45.3c-1.6,0.6-3.1,1.2-4.7,1.8
		l-1.4,0.5c-1.2,0.4-2.4,0.8-3.6,1.2l-1.3,0.4c-1.5,0.5-3,0.9-4.5,1.3l-1.7,0.4c-1.1,0.3-2.1,0.5-3.2,0.8
		c-34.6,8.3-71.9,5.3-108.2-2.1c2.2,10.2,4.5,20.8,6.9,31.6c3.9,17.4,17.5,30.9,34.8,34.8C804.8,1959.1,839.8,1958.7,840.6,1958.4z"
		/>
	<path class="st27" d="M440.3,1541.9v0.3C440.3,1542.3,440.3,1542.2,440.3,1541.9z"/>
	<path class="st19" d="M821.4,1025c-1.6-9.4-3.3-18.4-5.2-26.8c-31.3,14-93.4,27.7-157.1,28c-89.5,0.4-182.1-17.8-196.6-29.7
		c-1.8,7.1-4,17-6.3,28.7c30.7,11,94.9,29.5,183.8,30.4C701.9,1056.2,763.2,1045.8,821.4,1025z"/>
	<path class="st19" d="M743.1,1204.5c0,0-11.7,3.5-27.9,7.8c-64.7,17.3-134.2,1.2-183.7-43.9c-0.8-0.7-1.5-1.4-2.3-2.1
		c0,0,8.5,55.1,82.6,127.1l-7,203.6c11.3-87.3,31.4-239.6,36.6-262.9c0,0,20.9,146,50.1,258.1l-26.8-217.8
		C664.8,1274.4,726.2,1246.9,743.1,1204.5z"/>
	<path class="st19" d="M594.9,1562.4c0,0-19.1,42.3-63.5,74.1c-44.5,31.8,16.9,59.3,31.8,31.8S594.9,1562.4,594.9,1562.4z"/>
	<path class="st19" d="M718.5,1557.5c0,0,43.4,64.4,73.4,64.4s-18.9,62.6-37.4,37.4S718.5,1557.5,718.5,1557.5z"/>
	<path class="st19" d="M470,1551.8c0,0,21.2,10.6,46.6,0C542,1541.2,489,1611.1,470,1551.8z"/>
	<path class="st19" d="M777,1558.2c0,0,21.2,14.8,44.5,4.2c0,0-10.6,25.4-25.4,23.3s-25.4-27.5-25.4-27.5"/>
	<circle cx="615" cy="1041.5" r="9.5"/>
	<linearGradient id="SVGID_14_" gradientUnits="userSpaceOnUse" x1="610.5632" y1="1222.7279" x2="610.5632" y2="1038.6177">
		<stop  offset="0.4535" style="stop-color:#FB12FE"/>
		<stop  offset="0.5045" style="stop-color:#D440F9"/>
		<stop  offset="0.5761" style="stop-color:#A27AF3"/>
		<stop  offset="0.6422" style="stop-color:#7AA8EE"/>
		<stop  offset="0.7007" style="stop-color:#5EC9EB"/>
		<stop  offset="0.7493" style="stop-color:#4CDDE9"/>
		<stop  offset="0.782" style="stop-color:#46E4E8"/>
	</linearGradient>
	<path class="st30" d="M613.6,1222.6c-2.5-52.8,6.2-176.2,6.3-177.6c0.2-3.3-2.3-6.2-5.6-6.4c-3.3-0.2-6.2,2.3-6.4,5.6
		c-0.4,5.5-8.6,122.9-6.4,177.3C605.5,1222.5,609.6,1222.9,613.6,1222.6z"/>
	<path class="st31" d="M613.6,1222.6c-4.1,0.3-8.1-0.1-12.1-1.2c0.3,6,0.6,11.3,1.2,15.6c0.4,3,2.9,5.2,6,5.3c0.2,0,0.5,0,0.8,0
		c3.3-0.4,5.6-3.4,5.2-6.7c0,0,0,0,0,0C614.2,1232,613.9,1227.6,613.6,1222.6z"/>
	<circle cx="653.1" cy="1042.5" r="9.5"/>
	<linearGradient id="SVGID_15_" gradientUnits="userSpaceOnUse" x1="657.5632" y1="1223.788" x2="657.5632" y2="1039.6777">
		<stop  offset="0.4535" style="stop-color:#FB12FE"/>
		<stop  offset="0.5045" style="stop-color:#D440F9"/>
		<stop  offset="0.5761" style="stop-color:#A27AF3"/>
		<stop  offset="0.6422" style="stop-color:#7AA8EE"/>
		<stop  offset="0.7007" style="stop-color:#5EC9EB"/>
		<stop  offset="0.7493" style="stop-color:#4CDDE9"/>
		<stop  offset="0.782" style="stop-color:#46E4E8"/>
	</linearGradient>
	<path class="st32" d="M654.5,1223.7c2.5-52.8-6.2-176.2-6.3-177.6c-0.2-3.3,2.3-6.2,5.6-6.4c3.3-0.2,6.2,2.3,6.4,5.6
		c0.4,5.5,8.6,122.9,6.4,177.3C662.6,1223.6,658.6,1224,654.5,1223.7z"/>
	<path class="st31" d="M654.5,1223.7c4.1,0.3,8.1-0.1,12.1-1.2c-0.3,6-0.6,11.3-1.2,15.6c-0.4,3-3,5.3-6,5.3c-0.2,0-0.5,0-0.8,0
		c-3.3-0.4-5.6-3.4-5.2-6.7c0,0,0,0,0,0C653.9,1233,654.2,1228.7,654.5,1223.7z"/>
</g>
<g id="Shirt_x5F_02">
	<path class="st33" d="M427.7,572.2c-11.4,9.4-21.7,19.9-31,31.4c-1.7,2.1-34.9,32.9-62.4,54c-4.8,3.6-6.7,9.8-4.9,15.5
		c13.5,42.5,50.7,79.6,79.6,97.7c3.9,2.4,8.9,2.2,12.5-0.6c26-20.2,42.5-35.5,49.4-42.1c2.4-24.9,6.5-49.5,10.3-74
		C455.5,634.3,437.5,604,427.7,572.2z"/>
	<path class="st33" d="M927.7,670.1c-27.3-34.9-80.3-91.2-80.3-91.2c-2.4-3.1-5-6.1-7.8-8.8c-8.9,26.9-21.3,52.8-41.9,74.2
		c9.5,30.5,12.8,62,14.2,93.8c4.3,6.1,12.8,18.3,18.5,26.4c3.4,4.7,9.7,6.3,14.9,3.8c30-14.8,65.7-43.3,84.2-81.1
		C932.2,681.5,931.5,674.9,927.7,670.1z"/>
	<path class="st21" d="M811.9,738.1c-1.4-31.8-4.7-63.3-14.2-93.8c20.6-21.4,33-47.2,41.9-74.2c-15.8-15.8-38.7-28.1-61.8-37.3
		c-0.3-0.9-0.7-1.7-1-2.5c-10.7-3.5-29.6-8.6-44.6-12.3c-6.6-1.7-12.8-3.2-18.2-4.3c-7.2-1.5-15.3-2.7-22.1-3.5
		c-12.9,15.9-33.6,31.8-54.5,32.2c-18.2,0.4-37.2-15.5-50.4-29.7l-17.2,5.3l-54.8,11.7l-0.6,1.2c-33.5,6-62.9,21.8-86.6,41.5
		c9.8,31.8,27.8,62.1,53.5,81.8c-3.9,24.6-7.9,49.2-10.3,74c2.5-2.4,3.8-3.7,3.8-3.7c-5.3,38.6-9.2,80.3-12.1,119.4
		c0,0.2,0,0.4,0,0.6c-5.5,73.3-6.9,118.5-7.5,143.3c-0.3,11,6.9,20.9,17.5,23.9c105.2,29.8,224.1,33.8,328.7,0.8
		c9.9-3.1,16.8-12.2,17-22.6c2.2-102.7-9-255.2-9-255.3S810.3,735.8,811.9,738.1z"/>
	<path class="st4" d="M474.7,724.4c0,0-8.9,8.7-22,20.2C467.4,731.9,474.7,724.4,474.7,724.4z"/>
	<path class="st21" d="M481.3,654c0,0-8.7,35.8-14.2,61c0,0-24.1,27.8-47.1,49.3c-3.3,3.1-6.1,5.8-8,7.8c3.3,0.9,6.9,0.2,9.6-1.9
		c12.7-9.8,23.1-18.5,31.2-25.6c13-11.5,22-20.2,22-20.2C474.5,725.9,481.3,654,481.3,654z"/>
	<path class="st21" d="M809.3,734.4c0,0,12.5,19.5,21.1,30.1c7.5,9.2,14.9,3.7,14.9,3.7l-27.9-38.6c-6.1-48.9-19.4-84.2-19.4-84.2
		L809.3,734.4z"/>
	<path class="st21" d="M468,647.1c2.5-0.3,3.3-2.7,1.4-4c-27.5-11.4-40.2-21.7-58.1-37.5c-2.6-1.7-6.6-0.8-7.7,1.8
		C395.3,626.7,406.1,654.9,468,647.1z"/>
	<path class="st21" d="M470.5,650.9c0,0-39.9,6.2-57.7,1.8c-15.9-4-13.8,18.1,2.7,15.3S447.8,662.7,470.5,650.9z"/>
	<path class="st21" d="M808.2,650c-1.3,0.2-2.4-0.7-2.6-2c-0.1-0.6,0-1.1,0.4-1.6c17.5-17.4,24.1-30.4,33.1-49.9
		c1.2-1.8,3.6-2.3,5.4-1.1c0.4,0.3,0.7,0.6,1,1C857.5,613.3,857.7,643.1,808.2,650z"/>
	<linearGradient id="SVGID_16_" gradientUnits="userSpaceOnUse" x1="554.9034" y1="552.951" x2="720.1134" y2="552.951">
		<stop  offset="0.4535" style="stop-color:#FB12FE"/>
		<stop  offset="0.5045" style="stop-color:#D440F9"/>
		<stop  offset="0.5761" style="stop-color:#A27AF3"/>
		<stop  offset="0.6422" style="stop-color:#7AA8EE"/>
		<stop  offset="0.7007" style="stop-color:#5EC9EB"/>
		<stop  offset="0.7493" style="stop-color:#4CDDE9"/>
		<stop  offset="0.782" style="stop-color:#46E4E8"/>
	</linearGradient>
	<path class="st34" d="M637.1,554.6l41.3,40.2c0,0,39.5-38.6,41.8-79.9c-2.4-0.6-4.5-1-6.1-1.4c-7.2-1.5-15.3-2.7-22.1-3.5
		c-12.9,15.9-33.6,31.7-54.5,32.2c-18.2,0.4-37.2-15.5-50.4-29.7l-17.2,5.3l-14.9,3.2c4,17.6,13.9,48.6,36.6,74.9L637.1,554.6z"/>
	<path class="st19" d="M624.9,547.9l-2,65.6c0,3.7,3,6.8,6.7,6.8l16.3,0.2c3.7,0.1,6.8-2.9,6.9-6.6l0.6-66.5l-16-5.2L624.9,547.9z"
		/>
	<path class="st33" d="M600.7,490v17.6c0,0,9.2,21.2,36.7,34.6l-45.5,40.9c0,0-23.6-40.9-26.5-65.7l22.6-24
		C588,493.5,592.2,487.2,600.7,490z"/>
	<path class="st33" d="M673,513.1c-4.8,6.7-16,19.6-35.6,29.2l42.3,37.8c7.8-10.3,14.8-21.1,20.9-32.4c-0.7-5.2-2.8-10.1-5.9-14.3
		C689.1,526,682.7,516,673,513.1z"/>
	<path class="st21" d="M688.6,494.6c0,0-4.2-6.4-12.7-3.5v17.6c-0.9,1.5-1.8,3-2.9,4.4c9.7,2.9,16.1,12.9,21.8,20.2
		c3.2,4.2,5.2,9.1,5.9,14.3c5.1-9.7,12.3-25.1,13.3-34L688.6,494.6z"/>
	<linearGradient id="SVGID_17_" gradientUnits="userSpaceOnUse" x1="632.1134" y1="569.4011" x2="646.9333" y2="569.4011">
		<stop  offset="0.4535" style="stop-color:#FB12FE"/>
		<stop  offset="0.5045" style="stop-color:#D440F9"/>
		<stop  offset="0.5761" style="stop-color:#A27AF3"/>
		<stop  offset="0.6422" style="stop-color:#7AA8EE"/>
		<stop  offset="0.7007" style="stop-color:#5EC9EB"/>
		<stop  offset="0.7493" style="stop-color:#4CDDE9"/>
		<stop  offset="0.782" style="stop-color:#46E4E8"/>
	</linearGradient>
	<circle class="st35" cx="639.5" cy="569.4" r="7.4"/>
	<linearGradient id="SVGID_18_" gradientUnits="userSpaceOnUse" x1="632.1134" y1="605.0511" x2="646.9333" y2="605.0511">
		<stop  offset="0.4535" style="stop-color:#FB12FE"/>
		<stop  offset="0.5045" style="stop-color:#D440F9"/>
		<stop  offset="0.5761" style="stop-color:#A27AF3"/>
		<stop  offset="0.6422" style="stop-color:#7AA8EE"/>
		<stop  offset="0.7007" style="stop-color:#5EC9EB"/>
		<stop  offset="0.7493" style="stop-color:#4CDDE9"/>
		<stop  offset="0.782" style="stop-color:#46E4E8"/>
	</linearGradient>
	<circle class="st36" cx="639.5" cy="605.1" r="7.4"/>
	<path class="st19" d="M474.3,855.7c-2.6,29.8-7.3,86.1-8.1,120.9c-0.3,10.6,6.5,20,16.6,23.2c40.7,12.8,144.4,49.2,308.8,5.6
		c10.9-2.9,18.8-12.2,18.7-23.4l-0.3-39.5c0-4-5.4-8.2-7.9-5c-25.3,33.1-254,103-317.4-83.9C482.9,848.4,474.8,850.2,474.3,855.7z"
		/>
	<path class="st21" d="M601.3,508.8c-0.4-0.8-0.6-1.2-0.6-1.2V490c-8.5-2.8-12.7,3.5-12.7,3.5l-22.6,24c1,8.7,4.5,19.3,8.7,29.5
		C576.3,530.8,586.2,511.5,601.3,508.8z"/>
	<path class="st33" d="M637.4,542.2c-23.7-11.5-33.8-28.8-36.1-33.4c-15,2.7-25,21.9-27.1,38.2c5.2,12.4,11.1,24.4,17.7,36.1
		L637.4,542.2z"/>
	<path class="st37" d="M413.1,772.3c-0.4-0.1-0.7-0.1-1.1-0.2C412.4,772.2,412.7,772.2,413.1,772.3z"/>
	<path class="st37" d="M415.6,772.4c-0.4,0-0.7,0-1.1,0C414.9,772.4,415.2,772.4,415.6,772.4z"/>
	<path class="st37" d="M414.3,772.4c-0.3,0-0.6,0-0.9-0.1C413.7,772.4,414,772.4,414.3,772.4z"/>
	<path class="st37" d="M416.8,772.3c-0.3,0-0.6,0.1-0.9,0.1C416.2,772.3,416.5,772.3,416.8,772.3z"/>
	<path class="st37" d="M420.3,770.9c-0.3,0.2-0.6,0.4-1,0.5C419.7,771.3,420,771.1,420.3,770.9z"/>
	<path class="st37" d="M419.2,771.5c-0.3,0.1-0.6,0.2-0.9,0.3C418.6,771.8,418.9,771.6,419.2,771.5z"/>
	<path class="st37" d="M421.5,770.1c-0.3,0.2-0.6,0.4-0.9,0.6C420.9,770.6,421.2,770.4,421.5,770.1z"/>
	<path class="st37" d="M418,772c-0.3,0.1-0.7,0.2-1,0.3C417.4,772.2,417.7,772.1,418,772z"/>
	<path class="st37" d="M421.5,770.1c1.3-1,2.6-2,3.9-3.1L421.5,770.1z"/>
	<linearGradient id="SVGID_19_" gradientUnits="userSpaceOnUse" x1="328.7542" y1="711.761" x2="423.5934" y2="711.761">
		<stop  offset="0.4535" style="stop-color:#FB12FE"/>
		<stop  offset="0.5045" style="stop-color:#D440F9"/>
		<stop  offset="0.5761" style="stop-color:#A27AF3"/>
		<stop  offset="0.6422" style="stop-color:#7AA8EE"/>
		<stop  offset="0.7007" style="stop-color:#5EC9EB"/>
		<stop  offset="0.7493" style="stop-color:#4CDDE9"/>
		<stop  offset="0.782" style="stop-color:#46E4E8"/>
	</linearGradient>
	<path class="st38" d="M420,764.2l3.6-3.4c-54.2-35.9-78.2-91.4-81.5-109.4c-2.6,2.1-5.2,4.2-7.8,6.1c-4.8,3.6-6.7,9.9-4.9,15.6
		c13.5,42.5,50.7,79.6,79.6,97.7c0.9,0.6,1.9,1,3,1.3C413.9,770,416.7,767.3,420,764.2z"/>
	<linearGradient id="SVGID_20_" gradientUnits="userSpaceOnUse" x1="834.0234" y1="717.3711" x2="931.1043" y2="717.3711">
		<stop  offset="0.4535" style="stop-color:#FB12FE"/>
		<stop  offset="0.5045" style="stop-color:#D440F9"/>
		<stop  offset="0.5761" style="stop-color:#A27AF3"/>
		<stop  offset="0.6422" style="stop-color:#7AA8EE"/>
		<stop  offset="0.7007" style="stop-color:#5EC9EB"/>
		<stop  offset="0.7493" style="stop-color:#4CDDE9"/>
		<stop  offset="0.782" style="stop-color:#46E4E8"/>
	</linearGradient>
	<path class="st39" d="M927.7,670.1c-0.9-1.2-1.9-2.3-2.8-3.5c-16.1,31.8-55.7,67.8-90.9,86l11.3,15.6c30-14.8,65.7-43.3,84.2-81.1
		C932.2,681.5,931.5,675,927.7,670.1z"/>
	<path class="st37" d="M830.4,764.4L830.4,764.4c0.7,1,1.6,1.9,2.7,2.7C832.1,766.3,831.2,765.4,830.4,764.4z"/>
	<path class="st40" d="M419.4,771.5l-0.1,0.1L419.4,771.5z"/>
	<path class="st40" d="M418.3,771.9L418,772L418.3,771.9z"/>
	<path class="st40" d="M420.6,770.8l-0.3,0.2L420.6,770.8z"/>
	<path class="st40" d="M474.7,724.4L474.7,724.4C474.7,724.4,474.7,724.4,474.7,724.4z"/>
	<path class="st40" d="M414.5,772.4"/>
	<path class="st40" d="M412,772.1L412,772.1L412,772.1z"/>
	<path class="st40" d="M417,772.2h-0.2H417z"/>
	<path class="st40" d="M413.4,772.3h-0.3H413.4z"/>
	<path class="st40" d="M421.5,770.1"/>
	<path class="st40" d="M415.9,772.4h-0.3H415.9z"/>
	<path class="st2" d="M423.6,760.8l-3.6,3.4c-3.3,3.1-6.1,5.8-8,7.8l0,0c0.4,0.1,0.7,0.2,1.1,0.2h0.3c0.3,0,0.6,0.1,0.9,0.1h0.2
		c0.4,0,0.7,0,1.1,0h0.3c0.3,0,0.6-0.1,0.9-0.1h0.2c0.3-0.1,0.7-0.2,1-0.3l0.3-0.1c0.3-0.1,0.6-0.2,0.9-0.3l0.1-0.1
		c0.3-0.2,0.7-0.3,1-0.5l0.3-0.2c0.3-0.2,0.6-0.4,0.9-0.6l0,0l3.9-3.1l3.6-2.8C427.2,763.1,425.4,762,423.6,760.8z"/>
	<path class="st40" d="M833.1,767.1c6.5,5.3,12.2,1,12.2,1l0,0C841.4,770.1,836.7,769.7,833.1,767.1z"/>
	<path class="st2" d="M825.1,756.8l5.3,7.6c0.8,1,1.7,1.9,2.7,2.7c3.6,2.6,8.3,3,12.2,1.1l0,0L834,752.6
		C831,754.1,828,755.6,825.1,756.8z"/>
	<g id="Layer_22">
	</g>
	<g>
		<linearGradient id="SVGID_21_" gradientUnits="userSpaceOnUse" x1="586.3818" y1="831.6464" x2="586.3818" y2="680.7065">
			<stop  offset="0.2468" style="stop-color:#FB12FE"/>
			<stop  offset="0.3376" style="stop-color:#D440F9"/>
			<stop  offset="0.4653" style="stop-color:#A27AF3"/>
			<stop  offset="0.5832" style="stop-color:#7AA8EE"/>
			<stop  offset="0.6874" style="stop-color:#5EC9EB"/>
			<stop  offset="0.774" style="stop-color:#4CDDE9"/>
			<stop  offset="0.8323" style="stop-color:#46E4E8"/>
		</linearGradient>
		<path class="st41" d="M539,768.7c18.9-2.3,37.8-4.6,56.7-7c0,8.7,0,13.2-0.1,24.3c-6.1,1-9.2,1.5-15.5,2.6
			c0.1-6.8,0.1-9.9,0.1-15.7c-13.7,1.9-27.4,3.8-41.1,5.7c0.3,17.7-0.1,35.3-0.5,53c31.3-6.8,62.6-13.6,93.9-20.5
			c0.7-24.7,1-49.4,0.9-74.1c-17.8,1.5-35.7,3.1-53.5,4.5c0-9.1-0.1-13.8,0.1-25.6c6.3-0.3,9.5-0.4,15.6-0.7c0,6.9,0.1,9.9,0.1,15.7
			c12.6-0.9,25.3-1.7,37.9-2.6c-0.1-15.7,0.2-31.5,0.4-47.2c-31.5-0.2-63-0.3-94.5-0.5C538.8,710.1,538.6,739.3,539,768.7z"/>
		<linearGradient id="SVGID_22_" gradientUnits="userSpaceOnUse" x1="696.7727" y1="832.4556" x2="696.7727" y2="680.7065">
			<stop  offset="0.2468" style="stop-color:#FB12FE"/>
			<stop  offset="0.3376" style="stop-color:#D440F9"/>
			<stop  offset="0.4653" style="stop-color:#A27AF3"/>
			<stop  offset="0.5832" style="stop-color:#7AA8EE"/>
			<stop  offset="0.6874" style="stop-color:#5EC9EB"/>
			<stop  offset="0.774" style="stop-color:#4CDDE9"/>
			<stop  offset="0.8323" style="stop-color:#46E4E8"/>
		</linearGradient>
		<path class="st42" d="M646,832.5c18.2-4.2,43.3-10.2,43.3-10.2l0-53.4l58.4-8.1l0.4-79.5c-33.6-0.1-69-0.3-102.6-0.5
			C645.9,731.3,646.3,781.9,646,832.5z M689.3,717.4l16.9-0.8l0,21.2l-17,1.7L689.3,717.4z"/>
	</g>
</g>
<g id="Hair">
	<g>
		<path class="st19" d="M593.6,66.1c0.2,1.1,1,1.6,1.9,2c1.9,0.8,3.3,2.2,4.1,4c0.6,1.4,1.4,1.9,2.9,2.1c3.4,0.4,5.6,2.3,7.3,5.3
			c1.4,2.5,1.7,5.3,3.9,8.3c-0.5-3.9,1.3-6.9,0.9-10c-0.3-2.8,1.1-4.3,2.8-5.9c2.3-2,5.6-1.8,7.9,0.3c0.5,0.5,1.2,0.9,1.3,1.4
			c0.5,1.7,1.2,3.2,2.6,4.4c1.1-1.2,2.7-1.5,4.1-2.1c5-2.2,11-0.1,13.8,5.2c0.7-1.6,1.3-3,1.7-4.6c0.7-3.3,2.2-6.5,5.9-8
			c3.4-1.3,7.4,0.8,8,4.4c0.1,0.3-0.1,0.8,0,1c1.1,1.5,0.3,3.9,1.4,4.8c1.6,1.5,2.3-1.4,3.9-1.8c6.4-1.7,9-1.1,13.7,4.7
			c0.5,0.6,1.1,0.6,1.7,0.1c0.3-0.2,0.5-0.4,0.7-0.7c0.2-0.4,0.3-0.9,0.5-1.3c3.6-4.5,6.7-5,10.9-0.3c0.3,2.5,1.8,1.8,3,1.1
			c1.9-1,3.7-1.7,5.9-1.5c1.6,0.1,1.9,0.1,2.5-1.9c1.1-3.2,4-4.1,6.5-4.8c1.7-0.5,4.3,0.3,6,2.1c2,2.1,2.1,2.1,4.5,0.8
			c3.2-1.6,7.3-1,9.9,1.6c1.4,1.5,2.8,2.3,5.1,2.3c3.5,0,6.4,3.3,6.7,6.8c0.1,1-0.3,2,0.4,3.1c1.2-1.2,2.3-2.3,3.4-3.4
			c3.1-3,8.2-3.6,12-1.7c1.8,0.9,3.2,2.2,4.1,3.9c0.7,1.4,1.7,2.3,2.9,3.1c2.1,1.3,4.2,2.4,4.2,5.4c0,0.7,1,1.8,2.2,1.6
			c1.4-0.2,2.5,0.8,3.4,1.4c3.4,2.1,4.2,5.6,2.6,9.8c-0.5,1.3-0.4,1.5,0.9,1.9c1.8,0.5,3.6,1.3,5.3,1.7c2.3,0.6,3,2.5,3.2,3.7
			c0.4,2.7,1.3,6-1.8,8.1c-1.2,0.8-1.4,1.8-0.1,2.8c0.4,0.3,0.8,0.6,1.1,1.1c1.6,2.5,1.4,4.5-0.6,6.8c-1.4,1.6-3.1,3.1-4.6,4.6
			c-0.6,0.6-1.2,1.1-1.7,1.8c-0.6,0.9,0.3,2.3,1.4,2.4c1.4,0.2,2.7,0.1,4.2,0.8c2.9,1.5,4.3,3.6,4.4,6.7c0.2,4.7-1.1,9-3,13.3
			c-0.9,2-1.9,3.9-2,6.2c-0.1,0.9-0.1,1.5,1.2,2.2c3.5,1.9,4.8,5.9,3.6,9.6c-1.1,3.4-2.3,6.7-3.9,9.9c-2,3.7-3.4,7.6-4.7,11.5
			c-0.8,2.3-1.9,4.3-3,6.2c-0.5,0.8-1.5,1.5-1,2.6c1.2,2.7,0.5,5.6,1.7,8.3c0.9,2.2-0.4,4.9,1.3,7c-0.1,5.2,2.1,10,2,15.2
			c1.9,3.1,0.8,6.8,1.8,10.2c0.9,3.2,0.3,6.9,0.1,10.4c-0.1,1.6,1.4,2.5,1.1,4.1c-0.2,1.5-0.1,3,0,4.5c0.2,3.8-1.5,7.3-1.1,11.1
			c0.4,3.8,0.5,7.7,0,11.5c-0.7,5.2-1.7,10.4-1.9,15.7c0,0.8-0.3,1.2-1.2,1.1c-0.7-0.1-1.8,0.4-1.8-0.9c0-2.1-1.4-3.8-1.1-6.1
			c0.7-4.6-1.4-8.9-1-13.6c0.4-4.5,0-9,0.1-13.5c0-1.1-0.4-1.8-1.2-2.5c-1.1-1-2.1-2.2-3.2-3.2c-1.4-1.2-2.1-2.8-2.6-4.4
			c-1.3-4.3-2.3-8.7-3.2-13.2c-0.7-3.6-1.3-7.3-2.6-10.9c-0.7-1.9-0.5-4-1-6c-0.7-2.8-1.4-5.8-1.8-8.8c-0.4-3-1-6-1.6-8.9
			c-0.6-2.9-1.4-5.8-1.7-8.7c-0.3-2.9-1.5-5.6-1.2-8.6c0.3-2.2-1.2-3.1-3.5-4c-4.3-1.6-8.7-2.2-13-3.6c-5.2-1.7-10.6-2.6-15.9-3.7
			c-4.1-0.8-8.3-1.9-12.6-2.5c-4.8-0.7-9.7-1-14.3-2.7c-0.3-0.1-0.6-0.2-0.9-0.1c-4.1,0.6-8-1.4-12.1-1c-2.4,0.2-4.5-1.4-7.1-1.1
			c-2.2,0.3-4.5,0.6-6.6-0.9c-0.2-0.2-0.7,0-1,0c-3.7,0-7.5,0.7-10.9-0.2c-3.6-1-7.1-0.6-10.6-0.8c-3.7-0.2-7.3,0-11,0
			c-3.7,0-7.4,0.2-11-0.1c-7.3-0.6-14.4,1-21.6,1.2c-4.9,0.1-9.7,1.9-14.7,1.8c-2.4,2-5.8,0-8.2,2c-2.8-0.5-5.3,1.5-8.1,1
			c-7.1,2.4-14.7,2.8-21.5,6c-4.6,0.1-8.9,1.9-13.1,3.4c-2.9,1-5.5,2.8-8.5,3.5c-2.9,0.6-5,3.4-8.2,3.1c-3,2.7-7.1,2.9-10.5,4.9
			c-1.3,0.8-1.8,1.4-2.1,2.9c-0.4,2.5-0.7,5.1-1.1,7.6c-0.4,2.5-0.9,5-0.8,7.6c0.1,1.8-1.5,3.2-1,5.1c-2,2,0.1,5.2-2,7.2
			c0.6,2.5-0.9,4.7-1.2,7.1c-0.2,2.3-0.3,5-1.1,7c-0.9,2.3,0,4.7-0.9,6.6c-1.2,2.4-0.9,4.8-0.8,7.1c0,2.2-0.8,4-2.2,5.6
			c-2.5,2.7-3.3,5.8-4,9.4c-1.5,7.9-0.4,15.8-0.8,23.6c-0.1,1.9-0.5,3.8-0.8,5.6c-0.4,2.7-2.6,2.5-4,3.7c-0.4,0.3-1-0.1-1.3-0.9
			c-0.7-2.2-2.2-4.3-1.9-6.7c0.2-1.7-1.2-2.9-1.1-4.6c0.1-1.4,0.7-3-0.8-4.2c-0.3-0.2-0.2-1-0.1-1.4c0.7-4-1.4-7.6-1.1-11.6
			c0.3-4,0.1-8,0.1-12c0-2.8,0.1-5.7,0-8.5c-0.2-6.9,1.4-13.7,1.1-20.6c-0.3-7-0.1-14-0.1-21c0-0.7-0.3-1.6,0.1-2
			c2.4-2.7,0.1-4.6-1.3-6.2c-3.2-3.6-6.8-6.8-10.2-10.3c-2.2-2.3-3.7-5.1-3.6-8.5c0.1-3,1.4-5.1,4.1-6.5c1-0.5,2.6-0.8,2.8-1.5
			c0.3-1.5,0.1-3.1-0.3-4.7c-0.8-3-1.8-6.1-1.5-9.4c0.2-3.3,2.4-6.3,5.7-7.4c0.9-0.3,1.7-0.7,2.6-1c0.8-0.3,0.9-1,0.6-1.6
			c-1.7-4.1-2.2-8.7-4.6-12.6c-0.2-0.3-0.4-0.6-0.3-0.9c0.5-4.3-1.5-8.3-1.1-12.6c0.2-2.4,1.5-4,2.9-5.8c1.4-1.8,3.1-1.5,4.9-1.6
			c1.6,0,3.3,0,4.9,0c0.7-1.2,0.3-2.4,0.4-3.5c0.2-1.4-0.9-3.4,1.7-3.7c0.4-1.7,0.6-3.4-0.5-5.1c-1.8-2.9-3.6-6-3.3-9.6
			c0.3-3.1,1.9-5.1,4.8-6.5c2.7-1.2,5-0.6,7.1,0.9c1.3,0.9,2.4,2.3,3.6,3.5c0.4-0.7,1.2-1,1.5-1.9c0.7-1.9,2-3.1,4.3-3.2
			c2.3-0.1,2.4-0.6,1.8-3.3c-1.6-6.4,1.1-12.5,6.8-15c3.1-1.4,6.4-1.3,9,0.9c2.5,2.1,5.1,4.4,6.2,7.9c0.6,1.8,2.1,3.4,2.3,5.7
			c1.4-4.9,3.9-8.9,8.7-10c4.9-1.2,9.4,0.3,12.4,5.2c1.1-2.2,0.1-4.3,1.4-6.3c2.4-3.7,5.1-4.4,8.2-1.4c0.1,0.1,0.2,0.3,0.4,0.3
			c0.9,0.6,1.5,2.5,2.6,1.9c1.2-0.7,2-2.3,2.9-3.5c0.1-0.2,0.1-0.7-0.1-0.9c-2-2.9-0.7-6.1-0.7-9.1c0-1.6,0.8-3.7,3-4.3
			c1-0.3,1.9-0.9,2.9-1.5c1.1-0.7,2-0.6,3.1,0.2c2.3,1.7,4.6,2.1,6.6-0.6c1.7,0.2,1.2-1.1,1.3-2C591.6,66.1,592.6,66.1,593.6,66.1z"
			/>
	</g>
</g>
<g id="Glasses" class="st43">
	<linearGradient id="SVGID_23_" gradientUnits="userSpaceOnUse" x1="515.8708" y1="364.4073" x2="602.637" y2="277.6411">
		<stop  offset="0" style="stop-color:#FFFFFF"/>
		<stop  offset="1" style="stop-color:#231F20"/>
	</linearGradient>
	<circle class="st44" cx="559.3" cy="321" r="61.4"/>
	<linearGradient id="SVGID_24_" gradientUnits="userSpaceOnUse" x1="670.3539" y1="364.4073" x2="757.1201" y2="277.6411">
		<stop  offset="0" style="stop-color:#FFFFFF"/>
		<stop  offset="1" style="stop-color:#231F20"/>
	</linearGradient>
	<circle class="st45" cx="713.7" cy="321" r="61.4"/>
	<g id="Layer_18">
		<g>
			<path d="M664,336.6c0.2,2-1.9,3.7-4.1,3.2c-1.4-0.4-2.8-1.1-4.1-1.8c-12.1-6.1-24.3-6.2-36.5-0.5c-2.4,1.1-3.9,1-4.9-0.5
				c-1-1.6-0.5-3.8,1.5-5.2c1.3-0.9,2.9-1.7,4.4-2.2c14-4.5,27.5-4,40.4,3.6C662.2,333.9,663.7,334.7,664,336.6z"/>
			<path d="M483.7,304c1.2,0,2.4,0.4,3.1,1.4c3.7,5.8,9.9,8.6,14.8,13c0.7,0.7,1.6,1.2,2.3,1.9c1.1,1.2,1.6,2.6,0.6,4
				c-1.1,1.6-2.7,1.9-4.4,1c-0.9-0.4-1.7-1-2.5-1.6c-4.5-3.4-8.9-6.9-13.3-10.4c-1.5-1.2-3-2.6-3.8-4.5
				C479.5,306.3,481.1,304,483.7,304z"/>
			<path d="M783.1,310.6c2.2,0,3.6,2,2.9,4.1c-0.4,1.2-1.2,2-2.1,2.6c-3.9,2.7-7.9,5.4-11.9,8.1c-1.5,1-3.2,1.2-4.4-0.3
				c-1.2-1.5-0.9-3.2,0.3-4.5c0.8-0.9,1.7-1.6,2.6-2.2c3.1-2.2,6.3-4.2,9.4-6.4C780.9,311.2,781.9,310.6,783.1,310.6z"/>
		</g>
	</g>
</g>
</svg>
