<svg xmlns="http://www.w3.org/2000/svg" width="1262.35" height="2195.18" viewBox="0 0 1262.35 2195.18"><defs><style>.a{fill:none;}.b{fill:#3f4142;}.c{fill:#babfc2;}.d{fill:#72787a;}.e{fill:#818587;}.f{fill:#a6abad;}</style></defs><title>visor E</title><rect class="a" width="1262.35" height="2195.18"/><path class="b" d="M549.7,174.53c-7.12,4.61-12.35,30.35-8.82,34.23,1.85,2,193.06-23.49,193.06-23.49l188.47,41.14c4.24-7.06-.06-32.66-6.35-40.23-24.47-19.41-80.68-56.52-178.94-58.77C630.78,125,571.76,158.4,549.7,174.53Z"/><path class="c" d="M560.29,153.63c-5.19,9.91-8.14,11.19-10.59,20.9,22.06-16.13,81.08-48.55,187.42-46.12,98.26,2.25,154.47,38.36,178.94,57.77-4.08-16-8.47-23.06-8.47-23.06C767.82,56.58,573,129.37,560.29,153.63Z"/><path class="c" d="M597.35,259.24c37.41-6.36,55.94-28.92,91.34-40.82a127.16,127.16,0,0,1,72.54-2.1c19.07,5,40.12,14,65.53,27.92,20.3,11.13,57.61,30.37,81.77,27.44,19.77-2.39,34.37-11.95,36.2-28.06-3.19-10.12-12-20.14-26.63-27.07,0,0-145.41-106.1-358.16-18.6,0,0-37.68,11.94-42.54,41.22C520.91,252.91,536.86,269.51,597.35,259.24Z"/><path class="d" d="M944.73,243.62c-1.83,16.11-16.43,25.67-36.2,28.06-24.16,2.93-61.47-16.31-81.77-27.44-25.41-14-46.46-22.94-65.53-27.92a127.16,127.16,0,0,0-72.54,2.1c-35.4,11.9-53.93,34.46-91.34,40.82-60.49,10.27-76.44-6.33-80-20.07a37.9,37.9,0,0,0-.52,6.3c0,23.39,31.52,41.58,102.16,18.42s80.57-74.12,202.15-7.95C912.5,305.64,954.37,274.16,944.73,243.62Z"/><path class="e" d="M784.4,146.05C743,140,700,141,656.62,149.12c-54.44,10.19-96,29.2-114.19,38.59a66.2,66.2,0,0,0-1.86,7.76C555,187.64,598.72,166,658,155c65.81-12.27,164.65-13.59,264.67,48.44a69.76,69.76,0,0,0-2.19-8.36C877.77,169.52,832.08,153,784.4,146.05Z"/><path class="f" d="M559.94,198s-37.68,11.94-42.54,41.22c3.51,13.74,19.46,30.34,80,20.07,27.71-4.71,45.06-18.3,66.58-29.87a322.66,322.66,0,0,1-34.13-54.2A479,479,0,0,0,559.94,198Z"/><path class="f" d="M918.1,216.55s-35.79-26.1-97.81-41.73c-8.13,12.51-17.51,24.43-25.7,37.53-3,4.23-6,8.09-8.61,12.25a373.9,373.9,0,0,1,40.78,19.64c20.3,11.13,57.61,30.37,81.77,27.44,19.77-2.39,34.37-11.95,36.2-28.06C941.54,233.5,932.69,223.48,918.1,216.55Z"/></svg>