<svg xmlns="http://www.w3.org/2000/svg" width="1262.35" height="2195.18" viewBox="0 0 1262.35 2195.18"><defs><style>.a{fill:none;}.b{fill:#87867a;}.c{fill:#c2bdb0;}.d{fill:#e8e6db;}.e{fill:#969587;}.f{fill:#fffdf1;}.g{fill:#666663;}</style></defs><title>Visor A</title><rect class="a" width="1262.35" height="2195.18"/><path class="b" d="M904.92,169.06a6.71,6.71,0,0,1-4.18-1.47c-92.38-73.06-205.73-57.23-250.17-47-48.08,11-78.17,28.37-81.51,35a6.78,6.78,0,0,1-9.3,3,7.25,7.25,0,0,1-2.92-9.61c7-13.85,46-32,90.74-42.3,29.37-6.73,75.07-13.34,126-6.55,51.44,6.85,97,25.75,135.52,56.19a7.27,7.27,0,0,1,1.28,10A6.77,6.77,0,0,1,904.92,169.06Z"/><path class="c" d="M544.41,212.71s.16-1.57.55-4.29c1.34-9.46,5.46-32.77,15.33-51.62,12.71-24.26,207.53-97,347.3,9.5,0,0,12.7,35.86,14.82,63.29L733.94,188.45,547.59,211.66"/><path class="d" d="M559.94,198s-43.06,13.64-43.06,47.52c0,23.39,31.52,41.58,102.16,18.42s80.57-74.12,202.15-7.95,155.51-11.57,96.91-39.39C918.1,216.55,772.69,110.45,559.94,198Z"/><path class="e" d="M918.1,216.55a17.32,17.32,0,0,0-2.94-1.29c47.22,23.92,13.82,88-89.19,31.9-89.16-48.53-121.43-37.6-166.66-12.79-12.9,7.08-26.24,14.39-43.38,20-108.22,35.49-107.56-39.29-53-56.9a5.19,5.19,0,0,0-3,.47s-43.06,13.64-43.06,47.52c0,15.75,14.29,29.14,45.18,29.14,15,0,33.9-3.15,57-10.72,44.87-14.72,65.26-40.64,105.3-40.64,23,0,52.49,8.55,96.85,32.69,34.57,18.81,62.06,26,82.35,26C954.6,281.94,960,236.46,918.1,216.55Z"/><path class="f" d="M662.58,216.79c22.56-9.92,71.56-24.35,131.79.29a5.56,5.56,0,0,0,7.38-6.94l-9.66-28.35a5.56,5.56,0,0,0-3.56-3.5c-13.82-4.45-78.33-23.1-119.45,1.5a5.46,5.46,0,0,0-2.21,2.56l-11.63,27.12A5.58,5.58,0,0,0,662.58,216.79Z"/><polygon class="g" points="701.12 154.76 731.47 115.94 759.88 154.65 747.59 152.65 730.76 132.18 716.65 152.65 701.12 154.76"/><polygon class="g" points="724.41 152.65 737.82 152.65 731.47 141.35 724.41 152.65"/><polygon class="g" points="714.88 125.82 705.35 138.53 700.06 123.71 714.88 125.82"/><polygon class="g" points="747.7 127.94 755.06 138.41 762.06 125.35 747.7 127.94"/></svg>