<svg xmlns="http://www.w3.org/2000/svg" width="1262.35" height="2195.18" viewBox="0 0 1262.35 2195.18"><defs><style>.a{fill:none;}.b{fill:#d6caba;}.c{fill:#ba8234;}.d{fill:#ad9e9d;}.e{fill:#edcd4e;}.f{fill:#ffefad;}</style></defs><title>visor F</title><rect class="a" width="1262.35" height="2195.18"/><path class="b" d="M904.92,169.06a6.71,6.71,0,0,1-4.18-1.47c-92.38-73.06-205.73-57.23-250.17-47-48.08,11-78.17,28.37-81.51,35a6.78,6.78,0,0,1-9.3,3,7.25,7.25,0,0,1-2.92-9.61c7-13.85,46-32,90.74-42.3,29.37-6.73,75.07-13.34,126-6.55,51.44,6.85,97,25.75,135.52,56.19a7.27,7.27,0,0,1,1.28,10A6.77,6.77,0,0,1,904.92,169.06Z"/><path class="c" d="M544.41,209.53s.16-1.57.55-4.29c1.34-9.46,5.46-32.76,15.33-51.61,12.71-24.26,207.53-97,347.3,9.49,0,0,12.7,35.87,14.82,63.29L733.94,185.27,547.59,208.48"/><polygon class="d" points="608.18 180.63 608.17 180.65 623.82 176.65 608.18 180.63"/><polygon class="d" points="848.29 183 863.94 187 863.94 186.98 848.29 183"/><path class="b" d="M587.18,135.4c-8.09,22.24-11.22,46.16-13,69.76l15.09-1.88c2.08-25.34,4.87-50.65,13.23-74.24C596.94,131.14,591.8,133.27,587.18,135.4Z"/><path class="b" d="M616.05,124.35c-5.47,25.62-11.3,51.29-13.56,77.29l14.61-1.82c2.21-26.7,4.8-53.65,11.95-79.35Q622.29,122.35,616.05,124.35Z"/><path class="b" d="M847.21,128.67c9,27.18,13.48,55.79,15.39,84.69l11.91,2.6c-1.46-27.65-7.31-55.11-14.57-81.7Q853.61,131.28,847.21,128.67Z"/><path class="b" d="M875.9,142.44c7.25,24.84,8.26,50.42,9.54,75.9l11.8,2.58c-2.18-24.34-4.31-48.49-10.1-71.88Q881.56,145.57,875.9,142.44Z"/><path class="e" d="M559.94,198s-43.06,13.64-43.06,47.52c0,23.39,31.52,41.58,102.16,18.42s80.57-74.12,202.15-7.95,155.51-11.57,96.91-39.39C918.1,216.55,772.69,110.45,559.94,198Z"/><path class="f" d="M661.84,219.93A147.88,147.88,0,0,1,747,204.88c16.39,2.05,32.24,8,46.52,15.1a9,9,0,0,0,12.76-10.45l-4.34-15.91a20.62,20.62,0,0,0-13.84-14.26c-29.61-9.17-81.31-10.74-114.18-1.84a18.65,18.65,0,0,0-13,12.87l-6.71,23.3A5.35,5.35,0,0,0,661.84,219.93Z"/><path class="c" d="M918.1,216.55a17.32,17.32,0,0,0-2.94-1.29c47.22,23.92,13.82,88-89.19,31.9-89.16-48.53-121.43-37.6-166.66-12.79-12.9,7.08-26.24,14.39-43.38,20-62.59,20.53-93.33,5.94-90.58-16.56,2.59-21.17,35.38-40.19,34.59-39.87,0,0-43.06,13.64-43.06,47.52,0,15.75,14.29,29.14,45.18,29.14,15,0,33.9-3.15,57-10.72,44.87-14.72,65.26-40.64,105.3-40.64,23,0,52.49,8.55,96.85,32.69,34.57,18.81,62.06,26,82.35,26C954.6,281.94,960,236.46,918.1,216.55Z"/><path class="b" d="M755.46,118.64c8.12,2.86,15.49,14.82,1.07,14.84-7-.13-9.19-6-.66-2.57,15.06-3.79-11.52-7.54-3.76-15.22,3.37-3,13.5-2.75,13,2.79C762.49,117.18,756.59,114.77,755.46,118.64Z"/><path class="b" d="M776.08,135.64c-10.24,2.19-9.05-23.7-1.69-19.75.82,3.65-4.49,17.3,2.38,17.23,6.36,1,3.4-13.34,4.75-16.67C788.2,114.32,785.7,139.44,776.08,135.64Z"/><path class="b" d="M799.24,133.32c1.3-1.71.07-17,5.37-13-2.06,3,.25,24.09-8.22,18.14l-4.53-15.58c-1.31,1.6-.18,18-5.46,13.87l3.18-19C796.71,115.52,797.47,129.49,799.24,133.32Z"/><path class="b" d="M819.09,138.25c1.31-1.7.16-17,5.44-13-2.08,3,.13,24.09-8.32,18.1l-4.44-15.61c-1.32,1.6-.27,18-5.53,13.85l3.27-19C816.66,120.44,817.34,134.42,819.09,138.25Z"/><path class="b" d="M826.83,127.41c5.11-1,6.72,5.3,8,8.88,1.67-1.49,5.4-8.36,8.43-6-12.46,9.62-5.15,20.13-13.62,17.2C832.11,141.8,829.8,132.46,826.83,127.41Z"/></svg>