<svg xmlns="http://www.w3.org/2000/svg" width="1262.35" height="2195.18" viewBox="0 0 1262.35 2195.18"><defs><style>.a{fill:none;}.b{fill:#312d7b;}.c{fill:#292845;}.d{fill:#3e399c;}.e{fill:#5c55be;}.f{fill:#a5bbd6;}.g{fill:#6a7582;}.h{fill:#ad9e9d;}</style></defs><title>visor D</title><rect class="a" width="1262.35" height="2195.18"/><path class="b" d="M904.92,169.06a6.71,6.71,0,0,1-4.18-1.47c-92.38-73.06-205.73-57.23-250.17-47-48.08,11-78.17,28.37-81.51,35a6.78,6.78,0,0,1-9.3,3,7.25,7.25,0,0,1-2.92-9.61c7-13.85,46-32,90.74-42.3,29.37-6.73,75.07-13.34,126-6.55,51.44,6.85,97,25.75,135.52,56.19a7.27,7.27,0,0,1,1.28,10A6.77,6.77,0,0,1,904.92,169.06Z"/><path class="c" d="M544.41,209.53s.16-1.57.55-4.29c1.34-9.46,5.46-32.76,15.33-51.61,12.71-24.26,207.53-97,347.3,9.49,0,0,12.7,35.87,14.82,63.29L733.94,185.27,547.59,208.48"/><path class="d" d="M559.94,198s-43.06,13.64-43.06,47.52c0,23.39,31.52,41.58,102.16,18.42s80.57-74.12,202.15-7.95,155.51-11.57,96.91-39.39C918.1,216.55,772.69,110.45,559.94,198Z"/><path class="e" d="M661.84,219.93A147.88,147.88,0,0,1,747,204.88c16.39,2.05,32.24,8,46.52,15.1a9,9,0,0,0,12.76-10.45l-4.34-15.91a20.62,20.62,0,0,0-13.84-14.26c-29.61-9.17-81.31-10.74-114.18-1.84a18.65,18.65,0,0,0-13,12.87l-6.71,23.3A5.35,5.35,0,0,0,661.84,219.93Z"/><path class="f" d="M608.18,180.65c-3,2.16-8.84,11-15.48,22.21-15.51,26.26-35.58,65.9-35.58,65.9l13.76,3.18c2.06-7.57,23.79-45.52,38.76-71.19,8.07-13.84,14.18-24.1,14.18-24.1Z"/><path class="g" d="M627,121c-5.6,1.59-10.94,3.26-16,5l-2.82,54.62,15.64-4Z"/><polygon class="h" points="608.18 180.63 608.17 180.65 623.82 176.65 608.18 180.63"/><path class="f" d="M884.59,218.16c-8.7-15.33-16.86-28.45-20.65-31.16l-15.65-4s8.3,13.94,18.33,31.23c14.54,25.07,32.73,57.17,34.61,64.06L915,275.12S899,243.6,884.59,218.16Z"/><path class="g" d="M863.94,187l-2.69-52.11q-8-3.81-16.08-7L848.29,183Z"/><polygon class="h" points="848.29 183 863.94 187 863.94 186.98 848.29 183"/><path class="b" d="M918.1,216.55a17.32,17.32,0,0,0-2.94-1.29c47.22,23.92,13.82,88-89.19,31.9-89.16-48.53-121.43-37.6-166.66-12.79-12.9,7.08-26.24,14.39-43.38,20-62.59,20.53-93.33,5.94-90.58-16.56,2.59-21.17,35.38-40.19,34.59-39.87,0,0-43.06,13.64-43.06,47.52,0,15.75,14.29,29.14,45.18,29.14,15,0,33.9-3.15,57-10.72,44.87-14.72,65.26-40.64,105.3-40.64,23,0,52.49,8.55,96.85,32.69,34.57,18.81,62.06,26,82.35,26C954.6,281.94,960,236.46,918.1,216.55Z"/><path class="g" d="M742.82,115.25C758,113.78,758.27,135,745.54,135c28.83,13.05-6.9,27.51-23.11,21.34l1.08-36.52a5.17,5.17,0,0,1,5.33-5Zm4.78,10.53c.24-7.13-10.06-5.13-14.61-5.62l-.36,12.17C738.21,132.28,748,134.71,747.6,125.78Zm-6.5,25.95c22.14-7.62-16-28.74-9-.27Z"/></svg>