<?xml version="1.0" encoding="utf-8"?>
<!-- Generator: Adobe Illustrator 24.1.1, SVG Export Plug-In . SVG Version: 6.00 Build 0)  -->
<svg version="1.1" id="Layer_1" xmlns="http://www.w3.org/2000/svg" xmlns:xlink="http://www.w3.org/1999/xlink" x="0px" y="0px"
	 viewBox="0 0 1262.3 2195.2" style="enable-background:new 0 0 1262.3 2195.2;" xml:space="preserve">
<style type="text/css">
	.st0{clip-path:url(#SVGID_2_);}
	.st1{fill:#FF6AFA;}
	.st2{fill:#EDA2E6;}
	.st3{fill:#D78F92;}
	.st4{fill:#FFD9FF;}
</style>
<g id="Layer_2_1_">
	<g id="Layer_6">
		<g id="_1_visor_cryptokitties">
			<g>
				<defs>
					<rect id="SVGID_1_" width="1262.3" height="2195.2"/>
				</defs>
				<clipPath id="SVGID_2_">
					<use xlink:href="#SVGID_1_"  style="overflow:visible;"/>
				</clipPath>
				<g class="st0">
					<path class="st1" d="M904.9,169.1c-1.5,0-3-0.5-4.2-1.5c-92.4-73.1-205.7-57.2-250.2-47c-48.1,11-78.2,28.4-81.5,35
						c-1.6,3.4-5.7,4.8-9.1,3.1c-0.1,0-0.2-0.1-0.2-0.1c-3.4-1.8-4.7-7.1-2.9-10.6c7-13.9,46-32,90.7-42.3
						c29.4-6.7,75.1-13.3,126-6.6c51.4,6.8,97,25.8,135.5,56.2c3,2.4,3.6,7.9,1.3,11C909.1,168.1,907.1,169.1,904.9,169.1"/>
					<path class="st2" d="M922.4,226.4c-2.1-27.4-14.8-63.3-14.8-63.3c-12.1-9.2-24.9-17.3-38.4-24.3l0,0
						c-100.8-52.2-217.4-30.3-274.4-6.7l0,0c-19.1,7.9-31.5,16-34.4,21.5c-9.9,18.9-14,42.2-15.3,51.6c-0.4,2.7-0.5,4.3-0.5,4.3
						l3.2-1.1l33.4-4.2l0,0l153-19l152.6,33.3c-0.4-3.1-0.8-6.1-1.3-9.1c0.5,3,0.9,6.1,1.3,9.1L922.4,226.4z"/>
					<polygon class="st3" points="608.2,180.6 608.2,180.6 623.8,176.6 					"/>
					<polygon class="st3" points="848.3,183 863.9,187 863.9,187 					"/>
					<path class="st4" d="M559.9,198c0,0-43.1,13.6-43.1,47.5c0,23.4,31.5,41.6,102.2,18.4s80.6-74.1,202.2-7.9
						s155.5-11.6,96.9-39.4C918.1,216.6,772.7,110.5,559.9,198"/>
					<path class="st2" d="M661.8,219.9c26.3-13.4,55.9-18.6,85.2-15c16.4,2.1,32.2,8,46.5,15.1c4.4,2.3,9.8,0.5,12.1-3.9
						c1-2,1.3-4.4,0.7-6.5l-4.3-15.9c-1.9-6.8-7.1-12.2-13.8-14.3c-29.6-9.2-81.3-10.7-114.2-1.8c-6.3,1.7-11.2,6.6-13,12.9
						l-6.7,23.3c-0.8,2.8,0.8,5.8,3.7,6.6C659.2,220.7,660.6,220.6,661.8,219.9"/>
					<path class="st2" d="M918.1,216.6c-0.9-0.5-1.9-1-2.9-1.3c47.2,23.9,13.8,88-89.2,31.9c-89.2-48.5-121.4-37.6-166.7-12.8
						c-12.9,7.1-26.2,14.4-43.4,20c-62.6,20.5-93.3,5.9-90.6-16.6c2.6-21.2,35.4-40.2,34.6-39.9c0,0-43.1,13.6-43.1,47.5
						c0,15.8,14.3,29.1,45.2,29.1c15,0,33.9-3.1,57-10.7c44.9-14.7,65.3-40.6,105.3-40.6c23,0,52.5,8.6,96.8,32.7
						c34.6,18.8,62.1,26,82.3,26C954.6,281.9,960.1,236.5,918.1,216.6"/>
					<path d="M643,136.3c1.3-0.3,2.7-0.4,4-0.1l0.6,0.1l0.2-3.3l-0.4-0.1c-1.7-0.3-3.5-0.3-5.2,0.2c-6.4,1.5-9.9,7-8.4,13.5
						s6.5,9.6,12.8,8.2c1.9-0.4,3.7-1.2,5.3-2.3l0.3-0.3l-1.5-2.8l-0.5,0.4c-1.1,0.8-2.4,1.4-3.8,1.7c-4.5,1-7.8-1.1-9-5.9
						S638.5,137.3,643,136.3z"/>
					<path d="M660.9,132.2c-1.5,0.4-2.7,1.4-3.2,2.8l-0.4-1.6l-3.3,0.8l0.2,0.5c0.4,1.2,0.7,2.6,1.2,4.4l2.4,10.4l3.5-0.8l-1.9-8.1
						c-0.1-0.4-0.1-0.8-0.2-1.2c-0.1-1.9,0.8-3.3,2.3-3.6c0.3-0.1,0.5-0.1,0.8-0.1h0.7l-0.8-3.4h-0.4
						C661.5,132.1,661.2,132.1,660.9,132.2z"/>
					<path d="M676,138.5c-0.1,0.6-0.2,1.1-0.2,1.6c-0.2-0.5-0.5-1-0.8-1.4l-4.7-8.4l-4,0.6l7.9,13.2c0.1,0.2,0.2,0.3,0.2,0.5
						c0,0.2-0.1,0.3-0.1,0.5c-0.3,1.2-0.9,2.2-1.7,3.1c-0.5,0.6-1.2,1.2-2,1.5l-0.4,0.2l1.4,3l0.4-0.1c1.3-0.5,2.4-1.3,3.2-2.4
						c1.7-2.1,2.6-5.1,3.6-10.1l2.5-11.7l-3.9,0.6L676,138.5z"/>
					<path d="M694,126c-1.8,0.1-3.5,1-4.6,2.5l-0.2-1.7l-3.4,0.3l0.1,0.5c0.2,1.5,0.4,2.9,0.6,4.8l1.6,16.4l3.6-0.4l-0.7-7.1
						c1.2,0.9,2.7,1.3,4.2,1.1c3.6-0.4,6.9-3.3,6.3-9.1C701,128.7,697.9,125.7,694,126z M697.8,133.8c0.3,3.2-1,5.3-3.5,5.6
						c-1.7,0.2-3.2-0.8-3.8-2.4c-0.1-0.3-0.2-0.7-0.2-1l-0.2-2.5c0-0.3,0-0.7,0.1-1c0.2-1.7,1.6-3.1,3.3-3.3
						C696.1,129,697.6,131.4,697.8,133.8L697.8,133.8z"/>
					<path d="M708.8,120.1l-3.5,1.3l0.3,3.4l-2.3,0.2l0.3,3l2.3-0.2l0.7,7.5c0.2,2,0.7,3.3,1.5,4c0.9,0.8,2.2,1.2,3.4,1
						c0.9-0.1,1.7-0.3,2.5-0.6l0.3-0.2l-0.5-2.9l-0.6,0.2c-0.5,0.2-0.9,0.3-1.4,0.3c-0.7,0.1-1.5,0-1.7-2.2l-0.7-7.4l3.8-0.4l-0.3-3
						l-3.8,0.4L708.8,120.1z"/>
					<path d="M724.5,123c-4.6,0-7.8,3.5-7.7,8.4s3.2,8.1,7.7,8c3.8,0,7.8-2.7,7.8-8.4C732.1,126.2,728.9,122.9,724.5,123z
						 M724.5,136.4c-2.3,0-4-2.1-4-5.1c0-2.6,1.2-5.2,4-5.3c3.1,0,4,3.3,4,5.1C728.4,134.1,726.8,136.4,724.5,136.4L724.5,136.4z"/>
					<path d="M751.3,118.8l-4.6-0.2l-6.7,7.6c-0.3,0.4-0.6,0.7-0.8,1l0.3-9l-3.7-0.1l-0.8,21.5l3.7,0.1l0.3-8.1l1.5-1.6l6.2,10
						l4.3,0.2l-7.8-12.6L751.3,118.8z"/>
					<path d="M758.2,119c-1.2-0.1-2.2,0.7-2.3,1.9c0,0,0,0.1,0,0.1c-0.1,1.1,0.7,2.2,1.9,2.3c0,0,0.1,0,0.1,0
						c0.6,0.1,1.2-0.1,1.7-0.5c0.4-0.4,0.7-0.9,0.7-1.4c0.1-1.1-0.7-2.2-1.9-2.3C758.3,119,758.2,119,758.2,119z"/>
					
						<rect x="749.3" y="131.3" transform="matrix(6.982913e-02 -0.9976 0.9976 6.982913e-02 571.5066 879.2291)" width="15.8" height="3.7"/>
					<path d="M770.1,121.9l-3.7,0.6l-0.4,3.4l-2.3-0.3l-0.3,3l2.3,0.3l-0.8,7.5c-0.2,2,0,3.4,0.7,4.3c0.7,1,1.9,1.6,3.1,1.6
						c0.9,0.1,1.7,0.1,2.6-0.1l0.3-0.1l0.2-3l-0.6,0.1c-0.5,0.1-1,0.1-1.4,0c-0.7-0.1-1.5-0.4-1.2-2.5l0.8-7.4l3.8,0.4l0.3-3
						l-3.8-0.4L770.1,121.9z"/>
					<path d="M783.6,124.2l-3.7,0.4l-0.5,3.4l-2.3-0.4l-0.5,3l2.3,0.4l-1.2,7.4c-0.3,2-0.2,3.4,0.5,4.3c0.7,1,1.8,1.7,3,1.8
						c0.9,0.2,1.7,0.2,2.6,0l0.3-0.1l0.3-3l-0.6,0.1c-0.5,0-1,0-1.4-0.1c-0.7-0.1-1.5-0.4-1.1-2.6l1.2-7.4l3.8,0.6l0.5-3l-3.8-0.6
						L783.6,124.2z"/>
					<rect x="784.2" y="136.5" transform="matrix(0.1939 -0.981 0.981 0.1939 502.7761 888.5562)" width="15.7" height="3.7"/>
					<path d="M794.7,124.9c-1.1-0.2-2.3,0.5-2.5,1.6c0,0,0,0.1,0,0.1c-0.3,1.1,0.4,2.2,1.6,2.5c0,0,0.1,0,0.1,0
						c0.6,0.1,1.2,0,1.7-0.3c0.5-0.3,0.8-0.8,0.8-1.4c0.3-1.1-0.4-2.3-1.5-2.5C794.8,124.9,794.7,124.9,794.7,124.9z"/>
					<path d="M806.8,133.3c-4.3-0.9-8,1.9-9,6.8c-1,4.7,1.4,8.4,6,9.3c1.7,0.4,3.5,0.4,5.2,0.1l0.4-0.1l-0.1-3l-0.6,0.1
						c-1.3,0.3-2.7,0.2-4-0.1c-2.3-0.3-3.9-2.4-3.7-4.7c0-0.1,0-0.2,0-0.3l10.1,2.1l0.2-0.6c0.1-0.4,0.2-0.8,0.3-1.1
						C812.5,138.3,811.2,134.2,806.8,133.3z M806,136.1c0.8,0.1,1.5,0.6,2,1.3c0.5,0.8,0.6,1.8,0.5,2.7l-6.6-1.4
						C802.5,137.4,803.8,135.7,806,136.1L806,136.1z"/>
					<path d="M820.9,143.6L820.9,143.6c-1.7-1.2-2.1-1.7-1.9-2.6s1.1-1.3,2.3-1c0.9,0.2,1.8,0.7,2.5,1.4l0.5,0.4l1.7-2.6l-0.3-0.3
						c-1-0.9-2.2-1.5-3.5-1.9c-3.2-0.8-5.9,0.7-6.5,3.4c-0.3,1.4-0.1,3.5,3,5.5c1.8,1.2,2,1.9,1.8,2.7c-0.3,1-1.2,1.4-2.7,1.1
						c-1.1-0.3-2.2-0.9-3-1.7l-0.4-0.5l-1.7,2.7l0.3,0.3c1.1,1,2.5,1.7,4,2.1c3.5,0.8,6.3-0.5,7-3.4
						C824.4,147.2,823.5,145.4,820.9,143.6z"/>
				</g>
			</g>
		</g>
	</g>
</g>
</svg>
