<?xml version="1.0" encoding="UTF-8"?>
<svg width="1263px" height="2196px" viewBox="0 0 1263 2196" xmlns="http://www.w3.org/2000/svg" xmlns:xlink="http://www.w3.org/1999/xlink" version="1.1">
 <!-- Generated by Pixelmator Pro 1.7.1 -->
 <path id="Path-copy" d="M747.2 34.4 C747.2 44 735.9 51.7 722 51.7 708.1 51.7 696.8 43.9 696.8 34.4 696.8 24.9 708.1 17 722 17 735.9 17 747.2 24.8 747.2 34.4" fill="#000000" fill-opacity="1" stroke="none"/>
 <path id="Path-1-copy" d="M602.6 157.2 C596 115.2 611 79.8 633 47.2 559.9 78.1 534.3 145.5 534 244.2 L629.5 201.7 633.1 200.1 C617.7 190.4 605.8 176.5 602.6 157.2 Z" fill="#1e1e1e" fill-opacity="1" stroke="none"/>
 <path id="Path-2-copy" d="M821.7 42.8 C833 54.2 842.7 67 848.6 83.2 860.6 115.2 861.6 152.2 838.6 181.2 835.6 184.8 832.5 188.3 829.2 191.7 L928.2 219.9 C926.8 118.3 878.2 65.9 821.7 42.8 Z" fill="#1e1e1e" fill-opacity="1" stroke="none"/>
 <path id="Path-3-copy" d="M848.6 83.2 C842.7 67 833 54.3 821.7 42.8 791.4 30.4 758.9 26.5 730.2 28.1 727.1 28.3 724.1 28.5 721.2 28.8 715.3 29.2 709.6 29.6 704 30.2 676.4 33 652.9 38.8 632.9 47.2 610.9 79.8 595.9 115.2 602.5 157.2 605.7 176.5 617.6 190.4 633 200.1 L721.1 160.9 818 188.5 829.1 191.6 C832.3 188.2 835.5 184.7 838.5 181.1 861.6 152.2 860.6 115.2 848.6 83.2 Z" fill="#000000" fill-opacity="1" stroke="none"/>
 <path id="Path-4-copy" d="M534 244.2 C534 244.2 620.1 152.8 736.3 154 852.5 155.2 928.2 219.9 928.2 219.9 928.2 219.9 912 305.5 786.9 227.6 748.6 203.7 705.3 211.9 668.9 239.5 561.9 320.6 534 244.2 534 244.2" fill="#686868" fill-opacity="1" stroke="none"/>
 <path id="Path-5-copy" d="M870.7 242.2 C882.4 241.5 900.7 237.3 911.6 219.4 912.5 217.8 912.1 215.8 910.5 214.8 904.5 210.9 889.4 201.4 878 195 876.4 194.1 874.3 194.7 873.4 196.3 872.9 197.2 872.8 198.4 873.3 199.4 877.9 209.2 881.6 224.7 868.2 236.3 866.8 237.5 866.6 239.7 867.9 241.1 868.6 241.9 869.6 242.3 870.7 242.2" fill="#515151" fill-opacity="1" stroke="none"/>
 <path id="Path-6-copy" d="M923 215.8 C919.7 221.7 916 227.5 912.1 233 903.6 244.2 891.2 249.9 875.1 249.9 853 249.9 824.8 239.3 791.3 218.4 775.6 208.4 757.4 203.1 738.8 203.1 713.7 203.1 687.8 212.7 663.9 230.7 647.1 243.4 631.3 252.9 617 258.8 605 263.8 593.9 266.3 584 266.3 570.8 266.3 559.7 261.8 551.1 253 548.4 250.2 542.8 242.4 540 238.1 536 241.8 534 244 534 244 534 244 561.9 320.4 668.9 239.4 705.3 211.8 748.6 203.6 786.9 227.5 911.9 305.4 928.2 219.7 928.2 219.7 928.2 219.7 926.4 218.4 923 215.8" fill="#000000" fill-opacity="1" stroke="none"/>
 <path id="Path-7-copy" d="M592.3 218.1 C590.6 228 590.8 240.2 599.7 247.3 602.3 249.3 602.7 253 600.7 255.6 599.9 256.6 598.8 257.3 597.6 257.6 585.4 260.9 567 261.6 553.4 243.1 551.6 240.6 552 237.1 554.4 235.1 560.1 230.3 571.3 221.1 583 212.4 585.6 210.4 589.4 211 591.3 213.6 592.2 214.9 592.6 216.5 592.3 218.1" fill="#515151" fill-opacity="1" stroke="none"/>
 <path id="Path-8-copy" d="M658.8 66.9 C710.2 62.8 753.5 67.7 796.6 68.1 798.5 68.1 800 66.6 800 64.7 800 63.6 799.5 62.6 798.7 62 761.5 32.5 692.5 34 656.5 60.7 655 61.8 654.6 63.9 655.7 65.4 656.5 66.4 657.6 66.9 658.8 66.9" fill="#1e1e1e" fill-opacity="1" stroke="none"/>
 <g id="Logo-copy">
  <defs>
   <linearGradient id="linear-gradient" gradientUnits="userSpaceOnUse" x1="681.179" y1="99.354" x2="685.108" y2="99.354">
    <stop offset="1" stop-color="#fb12fe" stop-opacity="1"/>
    <stop offset="1" stop-color="#d440f9" stop-opacity="1"/>
    <stop offset="1" stop-color="#a27af3" stop-opacity="1"/>
    <stop offset="1" stop-color="#7aa8ee" stop-opacity="1"/>
    <stop offset="1" stop-color="#5ec9eb" stop-opacity="1"/>
    <stop offset="1" stop-color="#4cdde9" stop-opacity="1"/>
    <stop offset="1" stop-color="#46e4e8" stop-opacity="1"/>
   </linearGradient>
  </defs>
  <path id="Path-9" d="M681.2 102.1 L683.9 102 685.1 96.6 681.2 97.6 Z" fill-opacity="1" fill="url(#linear-gradient)" stroke="none"/>
  <defs>
   <linearGradient id="linear-gradient-1" gradientUnits="userSpaceOnUse" x1="661.035" y1="107.886" x2="790.046" y2="107.886">
    <stop offset="0.454" stop-color="#fb12fe" stop-opacity="1"/>
    <stop offset="0.504" stop-color="#d440f9" stop-opacity="1"/>
    <stop offset="0.576" stop-color="#a27af3" stop-opacity="1"/>
    <stop offset="0.642" stop-color="#7aa8ee" stop-opacity="1"/>
    <stop offset="0.701" stop-color="#5ec9eb" stop-opacity="1"/>
    <stop offset="0.749" stop-color="#4cdde9" stop-opacity="1"/>
    <stop offset="0.782" stop-color="#46e4e8" stop-opacity="1"/>
   </linearGradient>
  </defs>
  <path id="Path-10" d="M773.6 123.5 L780.2 120 776.2 114.7 790 112.6 771.5 98.3 784.6 92.4 772.2 86.4 777 83 773.1 81.6 785.4 69.1 665.5 94.5 668.7 98.8 661 101.9 668.2 105.6 665.4 109.3 668.7 110 665.9 120.2 680.6 119.3 679 123.7 691.9 119.6 690.6 127.1 704.2 122.3 705 127.4 710.5 123.2 716.5 132.7 725 125.1 729.5 134.5 732.4 128.7 744.4 138.3 749.4 131.3 756 136.9 755.8 131.5 782.9 146.4 Z M681.4 106.7 L681.1 114.9 674.5 114.5 675.3 99.7 673.2 95.3 680.6 93.7 C680.6 93.7 687.3 92 691.6 91.2 690.4 96.1 689.4 101.1 688.6 106.1 685.6 106.3 681.4 106.7 681.4 106.7 Z M703.9 115.7 C699.4 115.6 694.8 115.5 690.3 115.4 690.8 107 691.9 98.9 693.9 90.8 696.2 90.4 697.3 90.1 699.6 89.7 698 96.3 696.9 103 696.2 109.8 697.1 109.8 697.6 109.8 698.5 109.7 699.2 102.8 700.3 96 701.9 89.2 704.3 88.7 705.5 88.5 707.9 88 706 97.2 704.7 106.3 703.9 115.7 Z M714.7 116 C714 112.5 713.7 110.9 713 107.8 712.6 110.9 712.5 112.6 712.2 115.9 709.8 115.8 708.6 115.8 706.2 115.7 707 106.2 708.2 96.8 710.4 87.5 712.9 87 714.2 86.8 716.7 86.3 717 89.6 717.1 91.3 717.5 94.9 718.2 91.2 718.6 89.4 719.4 85.8 722 85.3 723.3 85.1 725.9 84.6 723.7 95.1 722.1 105.6 720.9 116.2 718.4 116.2 717.2 116.1 714.7 116 Z M734.4 89.1 C733.2 95.8 732.1 102.6 731.2 109.4 L734 109.4 C734.3 107.2 734.5 106.1 734.8 103.9 737.6 103.8 739.1 103.8 742.1 103.7 741.5 108.2 740.9 112.7 740.3 117.2 734.7 116.9 729.1 116.7 723.6 116.4 724.8 105.6 726.4 94.8 728.7 84.1 734.4 83 740 82 745.7 80.9 744.8 86 744 91 743.2 96.1 740.2 96.3 738.7 96.5 735.9 96.7 736.4 93.4 736.7 91.8 737.3 88.7 736.1 88.9 735.5 89 734.4 89.1 Z M764.7 119.5 L754.5 117.9 C754.5 117.9 755.8 108.3 756.5 103.5 755.2 103.5 754.5 103.5 753.2 103.6 752.5 108.3 751.9 113 751.2 117.7 748 117.5 746.4 117.4 743.4 117.3 744.9 105 746.7 92.7 748.7 80.4 751.7 79.9 753.2 79.6 756.3 79 755.6 84.2 754.9 89.4 754.3 94.6 755.7 94.5 756.4 94.4 757.8 94.3 758.6 88.9 759.4 83.6 760.3 78.2 763.1 77.7 766.9 76.9 766.9 76.9 Z" fill-opacity="1" fill="url(#linear-gradient-1)" stroke="none"/>
  <defs>
   <linearGradient id="linear-gradient-2" gradientUnits="userSpaceOnUse" x1="683.556" y1="90.562" x2="683.556" y2="58.358">
    <stop offset="0.454" stop-color="#fb12fe" stop-opacity="1"/>
    <stop offset="0.504" stop-color="#d440f9" stop-opacity="1"/>
    <stop offset="0.576" stop-color="#a27af3" stop-opacity="1"/>
    <stop offset="0.642" stop-color="#7aa8ee" stop-opacity="1"/>
    <stop offset="0.701" stop-color="#5ec9eb" stop-opacity="1"/>
    <stop offset="0.749" stop-color="#4cdde9" stop-opacity="1"/>
    <stop offset="0.782" stop-color="#46e4e8" stop-opacity="1"/>
   </linearGradient>
  </defs>
  <path id="Path-11" d="M673 77.1 C677.2 76.6 681.4 76.1 685.6 75.6 L685.6 80.8 C684.2 81 683.5 81.1 682.1 81.4 682.1 79.9 682.1 79.3 682.1 78.1 679 78.5 676 78.9 672.9 79.3 673 83.1 672.9 86.8 672.8 90.6 679.8 89.2 686.8 87.7 693.7 86.2 693.9 80.9 693.9 75.7 693.9 70.4 689.9 70.7 685.9 71.1 682 71.4 682 69.5 682 68.4 682 65.9 683.4 65.8 684.1 65.8 685.5 65.8 L685.5 69.1 C688.3 68.9 691.1 68.7 693.9 68.5 693.9 65.1 693.9 61.8 694 58.4 687 58.4 680 58.3 672.9 58.3 672.9 64.6 672.9 70.9 673 77.1 Z" fill-opacity="1" fill="url(#linear-gradient-2)" stroke="none"/>
  <defs>
   <linearGradient id="linear-gradient-3" gradientUnits="userSpaceOnUse" x1="706.218" y1="85.499" x2="706.218" y2="58.473">
    <stop offset="0.454" stop-color="#fb12fe" stop-opacity="1"/>
    <stop offset="0.504" stop-color="#d440f9" stop-opacity="1"/>
    <stop offset="0.576" stop-color="#a27af3" stop-opacity="1"/>
    <stop offset="0.642" stop-color="#7aa8ee" stop-opacity="1"/>
    <stop offset="0.701" stop-color="#5ec9eb" stop-opacity="1"/>
    <stop offset="0.749" stop-color="#4cdde9" stop-opacity="1"/>
    <stop offset="0.782" stop-color="#46e4e8" stop-opacity="1"/>
   </linearGradient>
  </defs>
  <path id="Path-12" d="M708.1 58.5 C708.1 64.7 708.1 70.9 708 77.2 706.8 77.4 706.2 77.5 705 77.7 705.1 71.3 705 64.9 705.1 58.5 702.1 58.5 700.5 58.5 697.4 58.5 697.2 67.5 697.3 76.5 697.1 85.5 703.2 84.2 709.2 82.9 715.3 81.6 715.4 73.9 715.3 66.3 715.3 58.6 712.5 58.5 711.1 58.5 708.1 58.5 Z" fill-opacity="1" fill="url(#linear-gradient-3)" stroke="none"/>
  <defs>
   <linearGradient id="linear-gradient-4" gradientUnits="userSpaceOnUse" x1="759.883" y1="73.054" x2="759.883" y2="58.738">
    <stop offset="0.454" stop-color="#fb12fe" stop-opacity="1"/>
    <stop offset="0.504" stop-color="#d440f9" stop-opacity="1"/>
    <stop offset="0.576" stop-color="#a27af3" stop-opacity="1"/>
    <stop offset="0.642" stop-color="#7aa8ee" stop-opacity="1"/>
    <stop offset="0.701" stop-color="#5ec9eb" stop-opacity="1"/>
    <stop offset="0.749" stop-color="#4cdde9" stop-opacity="1"/>
    <stop offset="0.782" stop-color="#46e4e8" stop-opacity="1"/>
   </linearGradient>
  </defs>
  <path id="Path-13" d="M766.7 58.8 L753.1 58.7 753 73.1 758.5 71.8 758.6 66.9 C758.6 66.9 759.9 66.7 760.8 66.6 760.9 67.9 760.8 71.3 760.8 71.3 L766.7 70 766.7 66.6 764.9 65.8 766.7 64.9 Z M760.8 64.5 L758.5 64.8 758.5 62.3 760.8 62.2 Z" fill-opacity="1" fill="url(#linear-gradient-4)" stroke="none"/>
  <defs>
   <linearGradient id="linear-gradient-5" gradientUnits="userSpaceOnUse" x1="743.411" y1="76.799" x2="743.411" y2="58.657">
    <stop offset="0.454" stop-color="#fb12fe" stop-opacity="1"/>
    <stop offset="0.504" stop-color="#d440f9" stop-opacity="1"/>
    <stop offset="0.576" stop-color="#a27af3" stop-opacity="1"/>
    <stop offset="0.642" stop-color="#7aa8ee" stop-opacity="1"/>
    <stop offset="0.701" stop-color="#5ec9eb" stop-opacity="1"/>
    <stop offset="0.749" stop-color="#4cdde9" stop-opacity="1"/>
    <stop offset="0.782" stop-color="#46e4e8" stop-opacity="1"/>
   </linearGradient>
  </defs>
  <path id="Path-14" d="M736.1 76.8 L750.7 73.5 750.7 70 742.7 71 742.8 69.3 750.7 68.3 750.7 64.4 742.8 65 742.8 63.2 750.7 62.8 750.7 58.7 736.1 58.7 Z" fill-opacity="1" fill="url(#linear-gradient-5)" stroke="none"/>
  <defs>
   <linearGradient id="linear-gradient-6" gradientUnits="userSpaceOnUse" x1="725.957" y1="81.027" x2="725.957" y2="58.635">
    <stop offset="0.454" stop-color="#fb12fe" stop-opacity="1"/>
    <stop offset="0.504" stop-color="#d440f9" stop-opacity="1"/>
    <stop offset="0.576" stop-color="#a27af3" stop-opacity="1"/>
    <stop offset="0.642" stop-color="#7aa8ee" stop-opacity="1"/>
    <stop offset="0.701" stop-color="#5ec9eb" stop-opacity="1"/>
    <stop offset="0.749" stop-color="#4cdde9" stop-opacity="1"/>
    <stop offset="0.782" stop-color="#46e4e8" stop-opacity="1"/>
   </linearGradient>
  </defs>
  <path id="Path-15" d="M718.1 81 C720.9 80.4 724.8 79.5 724.8 79.5 L724.8 71.6 733.8 70.4 733.9 58.7 C728.7 58.7 723.3 58.7 718.1 58.6 718.1 66.1 718.2 73.6 718.1 81 Z M724.8 64 L727.4 63.9 727.4 67 724.8 67.3 Z" fill-opacity="1" fill="url(#linear-gradient-6)" stroke="none"/>
 </g>
</svg>
