<svg xmlns="http://www.w3.org/2000/svg" width="1262.35" height="2195.18" viewBox="0 0 1262.35 2195.18"><defs><style>.a{fill:none;}.b{fill:#8f2621;}.c{fill:#1f1f1f;}.d{fill:#bd332b;}.e{fill:#e0534a;}.f{fill:#cfcfcf;}</style></defs><title>visor C</title><rect class="a" width="1262.35" height="2195.18"/><path class="b" d="M904.92,169.06a6.71,6.71,0,0,1-4.18-1.47c-92.38-73.06-205.73-57.23-250.17-47-48.08,11-78.17,28.37-81.51,35a6.78,6.78,0,0,1-9.3,3,7.25,7.25,0,0,1-2.92-9.61c7-13.85,46-32,90.74-42.3,29.37-6.73,75.07-13.34,126-6.55,51.44,6.85,97,25.75,135.52,56.19a7.27,7.27,0,0,1,1.28,10A6.77,6.77,0,0,1,904.92,169.06Z"/><path class="c" d="M544.41,209.53s.16-1.57.55-4.29c1.34-9.46,5.46-32.76,15.33-51.61,12.71-24.26,207.53-97,347.3,9.49,0,0,12.7,35.87,14.82,63.29L733.94,185.27,547.59,208.48"/><path class="d" d="M559.94,198s-43.06,13.64-43.06,47.52c0,23.39,31.52,41.58,102.16,18.42s80.57-74.12,202.15-7.95,155.51-11.57,96.91-39.39C918.1,216.55,772.69,110.45,559.94,198Z"/><path d="M918.1,216.55a17.32,17.32,0,0,0-2.94-1.29c47.22,23.92,13.82,88-89.19,31.9-89.16-48.53-121.43-37.6-166.66-12.79-12.9,7.08-26.24,14.39-43.38,20-108.22,35.49-107.56-39.29-53-56.9a5.19,5.19,0,0,0-3,.47s-43.06,13.64-43.06,47.52c0,15.75,14.29,29.14,45.18,29.14,15,0,33.9-3.15,57-10.72,44.87-14.72,65.26-40.64,105.3-40.64,23,0,52.49,8.55,96.85,32.69,34.57,18.81,62.06,26,82.35,26C954.6,281.94,960,236.46,918.1,216.55Z"/><path class="e" d="M661.84,219.93A147.88,147.88,0,0,1,747,204.88c16.39,2.05,32.24,8,46.52,15.1a9,9,0,0,0,12.76-10.45l-4.34-15.91a20.62,20.62,0,0,0-13.84-14.26c-29.61-9.17-81.31-10.74-114.18-1.84a18.65,18.65,0,0,0-13,12.87l-6.71,23.3A5.35,5.35,0,0,0,661.84,219.93Z"/><path class="f" d="M733.62,138.22c15.38,0,27.85-7.69,27.85,0S749,152.15,733.62,152.15s-27.85-6.24-27.85-13.93S718.24,138.22,733.62,138.22Z"/><circle class="f" cx="732.88" cy="125.82" r="8.47"/></svg>