<svg xmlns="http://www.w3.org/2000/svg" width="24" height="24" viewBox="0 0 24 24">
    <defs>
        <filter id="prefix__a">
            <feColorMatrix in="SourceGraphic" values="0 0 0 0 0.396203 0 0 0 0 0.355200 0 0 0 0 0.960000 0 0 0 1.000000 0"/>
        </filter>
    </defs>
    <g fill="none" fill-rule="evenodd" filter="url(#prefix__a)" transform="translate(-224)">
        <path fill="#FFF" fill-rule="nonzero" d="M236.022 2C230.376 2 226 6.127 226 11.7c0 2.916 1.198 5.436 3.148 7.176.337.303.267.479.325 2.348.009.266.149.51.374.652.225.142.506.163.75.057 2.133-.94 2.16-1.014 2.522-.915C239.3 22.718 246 18.763 246 11.7 246 6.127 241.669 2 236.022 2zm6.018 7.465l-2.944 4.66c-.224.355-.587.6-1 .675-.412.076-.837-.023-1.173-.274l-2.342-1.753c-.215-.161-.511-.161-.726 0l-3.16 2.397c-.422.32-.974-.185-.69-.632l2.943-4.66c.225-.355.587-.6 1-.675.412-.076.838.023 1.174.274l2.341 1.753c.215.161.511.161.726 0l3.162-2.395c.42-.321.973.184.689.63z"/>
    </g>
</svg>
