<svg xmlns="http://www.w3.org/2000/svg" width="24" height="24" viewBox="0 0 24 24">
    <defs>
        <filter id="prefix__a">
            <feColorMatrix in="SourceGraphic" values="0 0 0 0 0.396203 0 0 0 0 0.355200 0 0 0 0 0.960000 0 0 0 1.000000 0"/>
        </filter>
    </defs>
    <g fill="none" fill-rule="evenodd" filter="url(#prefix__a)" transform="translate(-168)">
        <path fill="#FFF" fill-rule="nonzero" d="M187.744 9.248c-.63 0-1.185.26-1.593.668-1.5-1.038-3.52-1.706-5.76-1.777l1.164-5.244 3.706.832c0 .907.739 1.647 1.647 1.647.924 0 1.668-.76 1.668-1.668 0-.908-.74-1.668-1.668-1.668-.647 0-1.206.39-1.484.924l-4.092-.907c-.206-.055-.408.092-.462.298l-1.278 5.781c-2.222.093-4.222.761-5.726 1.799-.408-.425-.984-.685-1.614-.685-2.336 0-3.1 3.134-.962 4.206-.076.332-.11.685-.11 1.038 0 3.52 3.967 6.374 8.837 6.374 4.89 0 8.857-2.853 8.857-6.374 0-.353-.038-.723-.13-1.055 2.096-1.076 1.323-4.19-1-4.19zm-13.063 4.428c0-.924.74-1.668 1.668-1.668.907 0 1.647.74 1.647 1.668 0 .908-.74 1.648-1.647 1.648-.925.004-1.668-.74-1.668-1.648zm9.004 3.929c-1.53 1.53-5.845 1.53-7.374 0-.168-.147-.168-.408 0-.576.147-.147.407-.147.555 0 1.168 1.198 5.042 1.219 6.26 0 .147-.147.408-.147.555 0 .172.168.172.429.004.576zm-.034-2.277c-.907 0-1.647-.74-1.647-1.647 0-.925.74-1.668 1.647-1.668.925 0 1.668.74 1.668 1.668-.004.903-.743 1.647-1.668 1.647z"/>
    </g>
</svg>
