<svg xmlns="http://www.w3.org/2000/svg" width="24" height="24" viewBox="0 0 24 24">
    <defs>
        <filter id="prefix__a">
            <feColorMatrix in="SourceGraphic" values="0 0 0 0 0.396203 0 0 0 0 0.355200 0 0 0 0 0.960000 0 0 0 1.000000 0"/>
        </filter>
    </defs>
    <g fill="none" fill-rule="evenodd" filter="url(#prefix__a)" transform="translate(-56)">
        <path fill="#FFF" fill-rule="nonzero" d="M75.944 7.987c.013.175.013.35.013.525C75.957 13.85 71.833 20 64.294 20c-2.322 0-4.48-.663-6.294-1.812.33.037.647.05.99.05 1.916 0 3.68-.638 5.089-1.725-1.802-.038-3.313-1.2-3.833-2.8.254.037.508.062.774.062.368 0 .736-.05 1.079-.137-1.878-.376-3.287-2-3.287-3.963v-.05c.546.3 1.18.488 1.853.512-1.104-.725-1.827-1.962-1.827-3.362 0-.75.203-1.438.558-2.038 2.018 2.45 5.05 4.05 8.452 4.225-.064-.3-.102-.612-.102-.924 0-2.226 1.828-4.038 4.1-4.038 1.18 0 2.245.487 2.994 1.275.926-.175 1.815-.513 2.602-.975-.305.938-.952 1.725-1.802 2.225.824-.087 1.624-.313 2.36-.625-.558.8-1.256 1.512-2.056 2.087z"/>
    </g>
</svg>
