<svg xmlns="http://www.w3.org/2000/svg" width="40" height="40" viewBox="0 0 40 40">
    <g fill="none" fill-rule="evenodd">
        <g fill="#655BF5">
            <g>
                <path d="M20 0c11.046 0 20 8.954 20 20s-8.954 20-20 20S0 31.046 0 20 8.954 0 20 0zm0 3C10.611 3 3 10.611 3 20s7.611 17 17 17 17-7.611 17-17S29.389 3 20 3z" transform="translate(-846 -504) translate(846 504)"/>
                <path d="M20 10c.552 0 1 .448 1 1v8h8c.552 0 1 .448 1 1s-.448 1-1 1h-8v8c0 .552-.448 1-1 1s-1-.448-1-1v-8h-8c-.552 0-1-.448-1-1s.448-1 1-1h8v-8c0-.552.448-1 1-1z" transform="translate(-846 -504) translate(846 504)"/>
            </g>
        </g>
    </g>
</svg>
