<?xml version="1.0" encoding="UTF-8"?>
<svg width="2277px" height="755px" viewBox="0 0 2277 755" version="1.1" xmlns="http://www.w3.org/2000/svg" xmlns:xlink="http://www.w3.org/1999/xlink" style="background: #2BB673;">
    <!-- Generator: Sketch 64 (93537) - https://sketch.com -->
    <title>components/graphics/background05</title>
    <desc>Created with Sketch.</desc>
    <g id="Symbols" stroke="none" stroke-width="1" fill="none" fill-rule="evenodd">
        <g id="components/graphics/background05">
            <path d="M1847.7652,341.954 C1847.7652,505.943 1583.3852,638.884 1257.2552,638.884 C931.1252,638.884 666.7442,505.943 666.7442,341.954 C666.7442,177.964 931.1252,45.024 1257.2552,45.024 C1583.3852,45.024 1847.7652,177.964 1847.7652,341.954" id="Fill-1" fill="#31CF83"></path>
            <path d="M1067.1387,174.2839 L1110.5407,382.0009 L1023.7367,382.0009 L1067.1387,174.2839 Z M996.9449,90.4255 L1040.3469,298.1425 L953.5429,298.1425 L996.9449,90.4255 Z M924.1197,0.0046 L967.5217,207.7216 L903.0231,207.7216 L910.612,244.0385 L823.808,244.0385 L827.4811,226.4566 L786.1337,226.457 L829.5357,18.74 L850.2091,117.6816 L867.21,36.3215 L891.8701,154.3446 L924.1197,0.0046 Z M618.8571,0.0046 L636.1161,82.6046 L650.9102,11.8045 L682.1991,161.5496 L714.8384,5.3445 L758.2404,213.0615 L692.9621,213.0606 L694.3122,219.5215 L607.5082,219.5215 L609.9731,207.7216 L575.4551,207.7216 L618.8571,0.0046 Z" id="Combined-Shape" fill="#208956"></path>
            <polygon id="Fill-15" fill="#208956" points="432.9057 207.7216 476.3077 0.0046 519.7097 207.7216"></polygon>
            <polygon id="Fill-17" fill="#208956" points="406.3349 237.7324 449.7369 30.0154 493.1389 237.7324"></polygon>
            <path d="M-428,562.3739 C-428,831.4779 -48.185,1049.6289 420.341,1049.6289 C888.867,1049.6289 1268.682,831.4779 1268.682,562.3739 C1268.682,293.2709 888.867,75.1199 420.341,75.1199 C-48.185,75.1199 -428,293.2709 -428,562.3739" id="Fill-23" fill="#2BB573"></path>
            <path d="M1261.0375,429.5253 C1261.0375,603.9983 1507.2905,745.4353 1811.0585,745.4353 C2114.8255,745.4353 2361.0775,603.9983 2361.0775,429.5253 C2361.0775,255.0523 2114.8255,113.6143 1811.0585,113.6143 C1507.2905,113.6143 1261.0375,255.0523 1261.0375,429.5253" id="Fill-25" fill="#31CF83"></path>
            <path d="M-194.608,755.4355 C-194.608,1024.5395 290.696,1242.6905 889.35,1242.6905 C1488.003,1242.6905 1973.308,1024.5395 1973.308,755.4355 C1973.308,486.3315 1488.003,268.1805 889.35,268.1805 C290.696,268.1805 -194.608,486.3315 -194.608,755.4355" id="Fill-27" fill="#1F8252"></path>
            <polygon id="Path" fill="#208956" points="1638.393 22.9896 1677.5601 210.4406 1706.234 73.2132 1741.6091 242.5196 1778.6998 65.0111 1813.9791 233.8576 1840.568 106.6097 1871.0601 252.5486 1917.1949 31.7552 1962.2531 247.3986 1981.5656 154.9704 2004.0801 262.7236 2030.5559 136.0197 2060.8451 280.9856 2099.7652 94.7173 2152.2672 345.9853 2047.2642 345.9853 2047.7341 343.7366 2021.0081 343.7366 2024.9686 362.6874 1986.3421 362.6866 1993.8229 398.4872 1901.5531 398.4866 1917.195 473.3417 1763.94 473.3417 1770.9171 439.9446 1629.606 439.9452 1640.0991 389.7216 1610.0001 389.7216 1613.5162 406.5478 1521.3841 406.5476 1531.7361 456.0946 1444.9321 456.0946 1488.3341 248.3766 1504.7791 327.0786 1550.8452 106.6098 1585.8831 274.2966"></polygon>
            <path d="M946.7162,785.6552 C946.7162,1054.7592 1432.0212,1272.9102 2030.6742,1272.9102 C2629.3272,1272.9102 3114.6322,1054.7592 3114.6322,785.6552 C3114.6322,516.5512 2629.3272,298.4002 2030.6742,298.4002 C1432.0212,298.4002 946.7162,516.5512 946.7162,785.6552" id="Fill-49" fill="#2BB573"></path>
            <path d="M64.1978,535.5839 C42.7208,535.5839 21.3218,535.6659 -0.000200000001,535.8249 L-0.000200000001,755.4359 L1778.8158,755.4359 C1396.4958,622.3259 770.9828,535.5839 64.1978,535.5839" id="Fill-52" fill="#37E893"></path>
        </g>
    </g>
</svg>