<?xml version="1.0" encoding="UTF-8"?>
<svg width="813px" height="627px" viewBox="0 0 813 627" version="1.1" xmlns="http://www.w3.org/2000/svg" xmlns:xlink="http://www.w3.org/1999/xlink">
    <title>desktopShip</title>
    <g id="homepage-update" stroke="none" stroke-width="1" fill="none" fill-rule="evenodd">
        <g id="404-desktop-2" transform="translate(-584.000000, -128.000000)">
            <g id="desktopShip" transform="translate(584.000000, 128.000000)">
                <g id="spaceship" transform="translate(18.000000, 0.000000)">
                    <polygon id="lightBeam" fill="#FFE296" opacity="0.460053943" points="2.3372072e-13 627 278.753425 134.30137 566.09589 627"></polygon>
                    <g id="ship" transform="translate(28.109589, 0.000000)">
                        <ellipse id="Oval" fill="#FFC530" cx="255.719178" cy="96.0410959" rx="127.664384" ry="96.0410959"></ellipse>
                        <path d="M255.719178,0 C299.322554,0 337.820299,16.4449902 360.851208,41.5403019 C337.441506,19.9977847 301.83828,6.24657534 261.965753,6.24657534 C191.458661,6.24657534 134.30137,49.2456386 134.30137,102.287671 C134.30137,122.526727 142.623065,141.303597 156.832803,156.787462 C138.844595,140.236767 128.054795,119.086856 128.054795,96.0410959 C128.054795,42.9990633 185.212086,0 255.719178,0 Z" id="Combined-Shape" fill="#FFC530" opacity="0.337355841" style="mix-blend-mode: overlay;"></path>
                        <ellipse id="Oval" fill="#FFD363" cx="255.328767" cy="79.6438356" rx="50.7534247" ry="45.2876712"></ellipse>
                        <path d="M237.760274,67.1506849 C240.563308,67.1506849 242.835616,69.4229932 242.835616,72.2260274 C242.835616,75.0290616 240.563308,77.3013699 237.760274,77.3013699 C234.95724,77.3013699 232.684932,75.0290616 232.684932,72.2260274 C232.684932,69.4229932 234.95724,67.1506849 237.760274,67.1506849 Z M272.89726,67.1506849 C275.700295,67.1506849 277.972603,69.4229932 277.972603,72.2260274 C277.972603,75.0290616 275.700295,77.3013699 272.89726,77.3013699 C270.094226,77.3013699 267.821918,75.0290616 267.821918,72.2260274 C267.821918,69.4229932 270.094226,67.1506849 272.89726,67.1506849 Z" id="Combined-Shape" fill="#FFC530"></path>
                        <ellipse id="Oval" fill="#C7C5DB" cx="255.328767" cy="143.671233" rx="255.328767" ry="68.7123288"></ellipse>
                        <path d="M255.328767,74.9589041 C396.342951,74.9589041 510.657534,105.722462 510.657534,143.671233 L510.657534,143.671233 L0,143.671233 C0,105.722462 114.314583,74.9589041 255.328767,74.9589041 Z" id="Combined-Shape" fill="#E7E6FF"></path>
                        <rect id="Rectangle" fill="#B0AEC2" x="128.054795" y="128.054795" width="255.328767" height="31.2328767" rx="12.0689655"></rect>
                    </g>
                    <g id="Group" transform="translate(245.958904, 436.479452)">
                        <g id="Group-33" transform="translate(0.000000, 0.376678)">
                            <path d="M74.4604839,37.2305056 C74.4604839,57.7922227 57.791733,74.4605969 37.2303926,74.4605969 C16.6686755,74.4605969 -7.53355815e-05,57.7922227 -7.53355815e-05,37.2305056 C-7.53355815e-05,16.6687885 16.6686755,3.7667791e-05 37.2303926,3.7667791e-05 C57.791733,3.7667791e-05 74.4604839,16.6687885 74.4604839,37.2305056" id="Fill-1" fill="#FEFEFE"></path>
                            <path d="M74.0087717,31.4339223 C74.3040872,33.3233387 74.4604086,35.2583331 74.4604086,37.2306186 C74.4604086,57.7923357 57.7916577,74.4607099 37.2303173,74.4607099 C16.6686002,74.4607099 -0.000150671163,57.7923357 -0.000150671163,37.2306186 C-0.000150671163,35.2583331 0.156170662,33.3233387 0.451486143,31.4339223 C0.872235369,34.1256626 1.59206685,36.7164533 2.55899905,39.1833169 C2.48441682,39.4447314 2.43205859,39.7155628 2.40832789,39.9961878 C2.24673306,41.8897477 3.35039934,43.5983587 5.01606906,44.2910694 C5.02360262,44.3042531 5.0307595,44.3181902 5.03866973,44.3317506 C5.09253467,44.3381541 5.14451622,44.3498311 5.19762781,44.358118 C5.45828892,44.4526642 5.73100373,44.5223496 6.01426552,44.5649142 C7.77937821,45.2056433 8.97081044,46.9617158 8.80356544,48.9223243 C8.7854849,49.1351473 8.74744044,49.3415668 8.69960234,49.5438428 C8.70223909,49.5468563 8.70487583,49.549493 8.7071359,49.5525064 C8.66984479,49.7269083 8.63933387,49.9047003 8.6235134,50.0873891 C8.42349743,52.4314557 10.1614893,54.4937672 12.5051793,54.6937832 C12.9654797,54.7329577 13.4141031,54.6952899 13.8408791,54.5947169 C13.8461526,54.5992371 13.8506728,54.6037572 13.8559463,54.607524 C14.3606947,54.4534627 14.9019808,54.3879208 15.4605941,54.4357588 C17.5485198,54.6139275 19.151661,56.2713103 19.3362332,58.2872905 C19.3445201,58.2921873 19.3531837,58.2959541 19.3614706,58.3004742 C19.4175956,60.4400047 21.0727183,62.2416552 23.2555668,62.4281107 C24.5046308,62.5347106 25.6708256,62.0872172 26.5206109,61.2943102 L26.5206109,61.2943102 L26.543965,61.3022205 C27.3877235,60.548488 28.5252908,60.1273621 29.7415838,60.2309485 C31.303667,60.3642925 32.5926589,61.3267045 33.2220876,62.6458306 C33.2311279,62.6469606 33.2401682,62.6473373 33.2488318,62.6480906 C33.8285391,64.0949105 35.1796827,65.1707026 36.8385723,65.3123335 C38.7505893,65.4758117 40.4746441,64.3484147 41.1534177,62.6552475 C41.1598212,62.6544942 41.1662248,62.6544942 41.1718749,62.6537408 C41.9112937,61.0931642 43.5585062,60.0753805 45.3804972,60.2309485 C46.3120217,60.3104275 47.1403364,60.6920023 47.796886,61.2607859 C48.4749063,61.9098019 49.3695163,62.3422282 50.3775064,62.4281107 C52.7211963,62.6281267 54.7838846,60.8901348 54.9835239,58.5464449 C54.989174,58.484293 54.9876673,58.4236479 54.9903041,58.3622494 C54.9970843,58.3584826 55.0046178,58.3554692 55.011398,58.3513257 C55.0136581,58.3189314 55.0121514,58.2869138 55.0151648,58.2541428 C55.2148041,55.9100762 57.2774923,54.1720843 59.621559,54.3721003 C59.9729995,54.4026112 60.3089962,54.4790768 60.6287957,54.58756 C60.6393427,54.5792731 60.648383,54.5706095 60.6589299,54.5623226 C60.8954837,54.6248512 61.1388176,54.6719359 61.3911918,54.6937832 C63.7352584,54.8937992 65.7971933,53.1558073 65.9972093,50.8117407 C66.0390205,50.3254495 65.9930658,49.8527187 65.8793091,49.4048487 L65.8793091,49.4048487 L65.8917395,49.3905349 C65.8148972,49.0063235 65.788153,48.6059148 65.8231841,48.1953359 C65.9697118,46.4769313 67.1212162,45.09264 68.6475151,44.5513538 C68.8904723,44.5099192 69.127026,44.4481441 69.3552928,44.366405 C69.3733734,44.3630149 69.3907006,44.3562347 69.4091578,44.3532212 C69.4110412,44.3502078 69.4125479,44.3468177 69.4144313,44.3438043 C70.9049458,43.7844376 72.0221725,42.4125766 72.1660634,40.7205395 C72.2169149,40.1261417 72.141956,39.5502012 71.9649174,39.0175786 C72.8994553,36.6004365 73.5974395,34.0657708 74.0087717,31.4339223 Z M32.9858353,55.7818174 C33.1862279,53.4381274 35.2481628,51.7001355 37.5922294,51.9001515 C39.9362961,52.1005441 41.6739113,54.162479 41.4738953,56.5065457 C41.4302006,57.0203343 41.2927132,57.5028587 41.0862937,57.9439486 C40.4617617,56.6105088 39.1648597,55.636043 37.5922294,55.5019457 C35.7623281,55.3456243 34.1083354,56.3732017 33.3738135,57.945832 C33.0675744,57.2922958 32.9202933,56.5532537 32.9858353,55.7818174 Z M24.825824,50.3763387 C27.1781776,50.3763387 29.0852978,52.2830823 29.0852978,54.6361892 C29.0852978,55.8215945 28.59976,56.8936199 27.8177767,57.6658096 C27.8238035,57.5735235 27.8317137,57.4816141 27.8317137,57.3878213 C27.8317137,55.0354677 25.9245935,53.1287242 23.5722399,53.1287242 C22.4056685,53.1287242 21.3494636,53.5984415 20.5802873,54.3582009 C20.7241783,52.1358012 22.5668866,50.3763387 24.825824,50.3763387 Z M49.067835,50.3763387 C51.3263957,50.3763387 53.1694807,52.1358012 53.3133717,54.3582009 C52.5441954,53.5984415 51.4879905,53.1287242 50.3210424,53.1287242 C47.9686888,53.1287242 46.0619452,55.0354677 46.0619452,57.3878213 C46.0619452,57.4816141 46.0698555,57.5735235 46.0758823,57.6658096 C45.2935223,56.8936199 44.8083611,55.8215945 44.8083611,54.6361892 C44.8083611,52.2830823 46.7154814,50.3763387 49.067835,50.3763387 Z M11.0617872,46.5191569 C11.7872688,44.7566809 13.6352507,43.6398309 15.6071595,43.9257295 C17.9354057,44.2632329 19.5487172,46.424234 19.2112138,48.7521035 C19.0315384,49.9909972 18.3331776,51.0234713 17.3707655,51.6709807 C17.5018494,51.3530645 17.600539,51.0163144 17.6521439,50.6607305 C17.9896473,48.3324843 16.3763358,46.1714832 14.0480897,45.8336031 C12.9583605,45.675775 11.9085591,45.9492432 11.0617872,46.5191569 Z M63.3649087,46.5191569 C62.5185134,45.9492432 61.4683354,45.675775 60.3789829,45.8336031 C58.0507368,46.1714832 56.4374253,48.3324843 56.7749287,50.6607305 C56.8265335,51.0163144 56.9252232,51.3530645 57.0559304,51.6709807 C56.093895,51.0234713 55.3951575,49.9909972 55.2158588,48.7521035 C54.8779787,46.424234 56.4916669,44.2632329 58.819913,43.9257295 C60.7918219,43.6398309 62.6398037,44.7566809 63.3649087,46.5191569 Z M36.6632287,40.8422064 C39.0155822,40.8422064 40.9230792,42.7493267 40.9230792,45.1016802 C40.9230792,45.4045293 40.8888015,45.6987147 40.8281563,45.9834832 C39.9968282,44.7091819 38.4445385,43.8496029 36.6632287,43.8496029 C34.8819189,43.8496029 33.3300059,44.7091819 32.4986777,45.9834832 C32.4376559,45.6987147 32.4037549,45.4045293 32.4037549,45.1016802 C32.4037549,42.7493267 34.3108751,40.8422064 36.6632287,40.8422064 Z M20.3244477,41.1498393 C21.3934596,39.0543801 23.9586361,38.2222986 26.0540954,39.2916871 C28.1495546,40.3606991 28.9816361,42.9258756 27.9126242,45.0217115 C27.7751367,45.2910362 27.6109052,45.5381369 27.427463,45.7633903 C27.2658682,44.2510285 26.2744519,42.7797246 24.6875079,41.9702438 C23.1005639,41.1607629 21.3279176,41.2214081 20.0080382,41.978154 C20.0829971,41.6971523 20.1865835,41.4195407 20.3244477,41.1498393 Z M53.0233297,41.1498393 C53.1608171,41.4195407 53.2647802,41.6971523 53.3393625,41.978154 C52.0198597,41.2214081 50.2468368,41.1607629 48.6598928,41.9702438 C47.0729487,42.7797246 46.0815325,44.2510285 45.9199377,45.7633903 C45.7361188,45.5381369 45.5726406,45.2910362 45.4343998,45.0217115 C44.3657646,42.9258756 45.1978461,40.3606991 47.2933053,39.2916871 C49.3887645,38.2222986 51.9539411,39.0543801 53.0233297,41.1498393 Z M8.45690876,35.2798037 C10.8092623,35.2798037 12.7163826,37.1865473 12.7163826,39.5392775 C12.7163826,41.1254682 11.8477633,42.5059928 10.5621616,43.239008 C11.090264,42.5297235 11.4066735,41.653194 11.4066735,40.7009522 C11.4066735,38.348222 9.4999299,36.4414784 7.14719967,36.4414784 C6.38066012,36.4414784 5.66346538,36.6467679 5.04232351,37.0008451 C5.81865668,35.9582006 7.05679697,35.2798037 8.45690876,35.2798037 Z M66.8401391,35.2798037 C68.2402509,35.2798037 69.4783912,35.9582006 70.2547244,37.0008451 C69.6335825,36.6467679 68.9163877,36.4414784 68.1498482,36.4414784 C65.797118,36.4414784 63.8903744,38.348222 63.8903744,40.7009522 C63.8903744,41.653194 64.2067838,42.5297235 64.7348863,43.239008 C63.4492846,42.5059928 62.5806653,41.1254682 62.5806653,39.5392775 C62.5806653,37.1865473 64.4877856,35.2798037 66.8401391,35.2798037 Z M36.7932579,29.8000818 C39.1459881,29.8000818 41.0527317,31.7068254 41.0527317,34.059179 C41.0527317,34.362028 41.0188307,34.6565901 40.9578089,34.940982 C40.1264807,33.6666806 38.5749444,32.8071016 36.7932579,32.8071016 C35.0119481,32.8071016 33.4600351,33.6666806 32.6287069,34.940982 C32.5676851,34.6565901 32.5337841,34.362028 32.5337841,34.059179 C32.5337841,31.7068254 34.4409044,29.8000818 36.7932579,29.8000818 Z M6.80231338,24.8350903 C9.1550436,24.8350903 11.0617872,26.7418339 11.0617872,29.0945641 C11.0617872,30.6807548 10.1931679,32.0612793 8.90756621,32.7942945 C9.43566864,32.08501 9.75207809,31.2084805 9.75207809,30.2562388 C9.75207809,27.9035086 7.84533451,25.996765 5.49260428,25.996765 C4.72606473,25.996765 4.00886999,26.2020544 3.38772812,26.5561317 C4.16406129,25.5134872 5.40220158,24.8350903 6.80231338,24.8350903 Z M66.8401391,24.8350903 C68.2402509,24.8350903 69.4783912,25.5134872 70.2547244,26.5561317 C69.6335825,26.2020544 68.9163877,25.996765 68.1498482,25.996765 C65.797118,25.996765 63.8903744,27.9035086 63.8903744,30.2562388 C63.8903744,31.2084805 64.2067838,32.08501 64.7348863,32.7942945 C63.4492846,32.0612793 62.5806653,30.6807548 62.5806653,29.0945641 C62.5806653,26.7418339 64.4877856,24.8350903 66.8401391,24.8350903 Z" id="Combined-Shape" fill="#B0AEC2"></path>
                        </g>
                    </g>
                </g>
                <g id="components/grapics/clouds" transform="translate(662.000000, 95.945946)" fill="#FFFFFF">
                    <path d="M76.4299945,0 C79.9446598,0 82.9057557,2.66339438 83.228001,6.08341924 L83.2570562,6.08427187 C83.2570562,8.04364687 84.9118507,9.69364687 86.8769192,9.69364687 L86.8767123,9.796875 L143.966089,9.796875 C147.690411,9.796875 150.793151,12.7875 150.793151,16.5 C150.793151,20.2125 147.793836,23.203125 144.070548,23.203125 L134.555273,23.203125 C132.867301,23.203125 131.408268,24.4205968 131.030352,26.0058323 C131.036698,26.1025631 131.038834,26.1994706 131.038834,26.296875 C131.038834,30.009375 127.936095,33 124.212807,33 L32.5785603,33 C28.8552726,33 25.7525329,30.009375 25.7525329,26.296875 L25.7588198,26.0030961 L25.7588198,26.0030961 C25.3813525,24.4190048 23.9224882,23.203125 22.2365082,23.203125 L6.8260274,23.203125 C3.10273973,23.203125 -2.93950556e-14,20.2125 -2.93950556e-14,16.5 C-2.93950556e-14,12.7875 2.99931507,9.796875 6.8260274,9.796875 L13.9623288,9.796875 L13.9625356,9.69364688 C15.6433664,9.69364688 17.0984667,8.48518256 17.4831544,6.90854964 C17.4789986,6.84004509 17.4779397,6.77170822 17.4779397,6.703125 C17.4779397,2.990625 20.478289,0 24.3050014,0 L76.4299945,0 Z" id="Path"></path>
                </g>
                <g id="Group" transform="translate(0.000000, 9.000000)" fill="#FFFFFF">
                    <g id="components/grapics/clouds-copy" transform="translate(73.000000, 15.966736) scale(-1, 1) translate(-73.000000, -15.966736) translate(0.000000, 0.000000)">
                        <path d="M73.8992,0 C77.2974856,0 80.160532,2.57731605 80.4721069,5.88680901 L80.5002,5.8876341 C80.5002,7.78368399 82.1002,9.38035759 84.0002,9.38035759 L84,9.48024948 L139.199,9.48024948 C142.8,9.48024948 145.8,12.3742204 145.8,15.966736 C145.8,19.5592516 142.9,22.4532225 139.3,22.4532225 L130.0998,22.4532225 C128.467721,22.4532225 127.057001,23.6313467 126.691599,25.165349 C126.697735,25.2589535 126.6998,25.352729 126.6998,25.4469854 C126.6998,29.039501 123.6998,31.9334719 120.0998,31.9334719 L31.4998,31.9334719 C27.8998,31.9334719 24.8998,29.039501 24.8998,25.4469854 L24.9058787,25.1627012 L24.9058787,25.1627012 C24.5409104,23.6298062 23.1303528,22.4532225 21.5002,22.4532225 L6.6,22.4532225 C3,22.4532225 -2.84217094e-14,19.5592516 -2.84217094e-14,15.966736 C-2.84217094e-14,12.3742204 2.9,9.48024948 6.6,9.48024948 L13.5,9.48024948 L13.5002,9.38035759 C15.1253742,9.38035759 16.5322923,8.21094967 16.904242,6.685272 C16.9002238,6.61898145 16.8992,6.55285317 16.8992,6.48648649 C16.8992,2.89397089 19.8002,0 23.5002,0 L73.8992,0 Z" id="Path"></path>
                    </g>
                </g>
                <g id="Group" transform="translate(525.000000, 262.000000)" fill="#FFFFFF">
                    <g id="components/grapics/clouds" transform="translate(38.500000, 8.482328) scale(-1, 1) translate(-38.500000, -8.482328) ">
                        <path d="M38.9742356,0 C40.7664822,0 42.276445,1.36919915 42.4407687,3.12736729 L42.4555849,3.12780561 C42.4555849,4.13508212 43.2994205,4.98331497 44.3014753,4.98331497 L44.3013699,5.03638254 L73.4131712,5.03638254 C75.3123288,5.03638254 76.8945205,6.57380457 76.8945205,8.48232848 C76.8945205,10.3908524 75.3650685,11.9282744 73.4664384,11.9282744 L68.6142781,11.9282744 C67.7535243,11.9282744 67.0095143,12.554153 66.8168022,13.3690916 C66.8200383,13.418819 66.8211274,13.4686373 66.8211274,13.518711 C66.8211274,15.4272349 65.2389356,16.964657 63.3403055,16.964657 L16.6129082,16.964657 C14.7142781,16.964657 13.1320863,15.4272349 13.1320863,13.518711 L13.1352922,13.367685 L13.1352922,13.367685 C12.9428089,12.5533345 12.1988847,11.9282744 11.3391466,11.9282744 L3.48082192,11.9282744 C1.58219178,11.9282744 -1.49895317e-14,10.3908524 -1.49895317e-14,8.48232848 C-1.49895317e-14,6.57380457 1.52945205,5.03638254 3.48082192,5.03638254 L7.11986301,5.03638254 L7.11996849,4.98331497 C7.97708089,4.98331497 8.71908568,4.36206701 8.91525089,3.55155075 C8.91313174,3.5163339 8.91259178,3.48120325 8.91259178,3.44594595 C8.91259178,1.53742204 10.4425712,0 12.3939411,0 L38.9742356,0 Z" id="Path"></path>
                    </g>
                </g>
            </g>
        </g>
    </g>
</svg>