<?xml version="1.0" encoding="UTF-8"?>
<svg width="496px" height="404px" viewBox="0 0 496 404" version="1.1" xmlns="http://www.w3.org/2000/svg" xmlns:xlink="http://www.w3.org/1999/xlink">
    <title>mobileShip</title>
    <g id="homepage-update" stroke="none" stroke-width="1" fill="none" fill-rule="evenodd">
        <g id="404-mobile-2" transform="translate(60.000000, -266.000000)">
            <g id="mobileShip" transform="translate(-60.000000, 266.000000)">
                <g id="spaceship" transform="translate(73.000000, 16.000000)">
                    <polygon id="lightBeam" fill="#FFE296" opacity="0.460053943" points="1.44502466e-13 388 172.344828 83.1083437 350 388"></polygon>
                    <g id="ship" transform="translate(17.379310, 0.000000)">
                        <ellipse id="Oval" fill="#FFC530" cx="158.103448" cy="59.4321295" rx="78.9310345" ry="59.4321295"></ellipse>
                        <path d="M158.103448,0 C185.063317,0 208.866244,10.1774048 223.105339,25.7080653 C208.632139,12.3758915 186.618752,3.86550436 161.965517,3.86550436 C118.373111,3.86550436 83.0344828,30.4741751 83.0344828,63.2976339 C83.0344828,75.8213152 88.1790045,87.4402609 96.963627,97.0216981 C85.8427842,86.7800343 79.1724138,73.6926205 79.1724138,59.4321295 C79.1724138,26.6086707 114.511042,0 158.103448,0 Z" id="Combined-Shape" fill="#FFC530" opacity="0.337355841" style="mix-blend-mode: overlay;"></path>
                        <ellipse id="Oval" fill="#FFD363" cx="157.862069" cy="49.2851806" rx="31.3793103" ry="28.0249066"></ellipse>
                        <path d="M147,41.5541719 C148.733031,41.5541719 150.137931,42.9603211 150.137931,44.6948941 C150.137931,46.4294672 148.733031,47.8356164 147,47.8356164 C145.266969,47.8356164 143.862069,46.4294672 143.862069,44.6948941 C143.862069,42.9603211 145.266969,41.5541719 147,41.5541719 Z M168.724138,41.5541719 C170.457169,41.5541719 171.862069,42.9603211 171.862069,44.6948941 C171.862069,46.4294672 170.457169,47.8356164 168.724138,47.8356164 C166.991106,47.8356164 165.586207,46.4294672 165.586207,44.6948941 C165.586207,42.9603211 166.991106,41.5541719 168.724138,41.5541719 Z" id="Combined-Shape" fill="#FFC530"></path>
                        <ellipse id="Oval" fill="#C7C5DB" cx="157.862069" cy="88.9066002" rx="157.862069" ry="42.5205479"></ellipse>
                        <path d="M157.862069,46.3860523 C245.046882,46.3860523 315.724138,65.4231501 315.724138,88.9066002 L315.724138,88.9066002 L0,88.9066002 C0,65.4231501 70.6772557,46.3860523 157.862069,46.3860523 Z" id="Combined-Shape" fill="#E7E6FF"></path>
                        <rect id="Rectangle" fill="#B0AEC2" x="79.1724138" y="79.2428394" width="157.862069" height="19.3275218" rx="7.46187705"></rect>
                    </g>
                    <g id="Group" transform="translate(152.068966, 270.102117)">
                        <g id="Group-33" transform="translate(0.000000, 0.233096)">
                            <path d="M46.0366694,23.0389732 C46.0366694,35.7629703 35.7308839,46.0776899 23.0184279,46.0776899 C10.3057389,46.0776899 -4.65777158e-05,35.7629703 -4.65777158e-05,23.0389732 C-4.65777158e-05,10.314976 10.3057389,2.3309574e-05 23.0184279,2.3309574e-05 C35.7308839,2.3309574e-05 46.0366694,10.314976 46.0366694,23.0389732" id="Fill-1" fill="#FEFEFE"></path>
                            <path d="M45.7573894,19.4519328 C45.9399741,20.621141 46.0366228,21.8185538 46.0366228,23.0390431 C46.0366228,35.7630403 35.7308374,46.0777599 23.0183813,46.0777599 C10.3056923,46.0777599 -9.31554314e-05,35.7630403 -9.31554314e-05,23.0390431 C-9.31554314e-05,21.8185538 0.0965556056,20.621141 0.279140253,19.4519328 C0.539276798,21.1176349 0.984326876,22.7208674 1.58215186,24.2474114 C1.53603992,24.4091799 1.50366841,24.5767757 1.48899643,24.750432 C1.38908723,25.9222043 2.07145077,26.9795266 3.10128408,27.4081897 C3.10594185,27.416348 3.11036673,27.4249726 3.11525739,27.433364 C3.14856046,27.4373266 3.18069908,27.4445526 3.21353637,27.4496807 C3.37469527,27.5081877 3.5433066,27.5513104 3.71843881,27.5776503 C4.8097547,27.9741461 5.54638129,29.0608385 5.44297876,30.2741018 C5.4318001,30.4058009 5.40827836,30.5335373 5.37870151,30.6587098 C5.38033173,30.6605745 5.38196195,30.6622062 5.38335928,30.664071 C5.36030331,30.7719943 5.34143933,30.8820155 5.33165801,30.9950669 C5.20799418,32.4456217 6.28254209,33.7218209 7.73157484,33.8455947 C8.01616469,33.8698367 8.29353499,33.8465271 8.55739775,33.7842905 C8.56065819,33.7870877 8.56345285,33.7898848 8.56671329,33.7922158 C8.87878399,33.6968796 9.21344488,33.656321 9.55881864,33.6859241 C10.84972,33.7961784 11.8408938,34.8217997 11.9550093,36.0693281 C11.9601328,36.0723583 11.9654892,36.0746893 11.9706128,36.0774864 C12.0053132,37.4014702 13.0286256,38.5163672 14.3782149,38.6317496 C15.1504735,38.6977156 15.8714965,38.4207979 16.3968932,37.9301314 C16.4017838,37.931763 16.4064416,37.9336278 16.4113322,37.9350264 C16.9330027,37.4686018 17.6363262,37.2080008 18.3883234,37.2721021 C19.3541124,37.354618 20.1510571,37.9501776 20.5402139,38.7664789 C20.5458032,38.7671782 20.5513925,38.7674113 20.556749,38.7678775 C20.9151645,39.6631982 21.7505359,40.3289196 22.7761772,40.4165636 C23.9583196,40.5177272 25.0242506,39.8200716 25.4439159,38.7723063 C25.447875,38.7718401 25.4518341,38.7718401 25.4553274,38.7713739 C25.9124877,37.8056582 26.9309094,37.1758336 28.0573915,37.2721021 C28.633325,37.3212853 29.145447,37.5574113 29.5513718,37.9093859 C29.9705712,38.3110098 30.5236816,38.5786037 31.1468914,38.6317496 C32.5959242,38.7555234 33.871222,37.6800196 33.994653,36.2296979 C33.9981463,36.1912372 33.9972148,36.1537087 33.998845,36.1157141 C34.003037,36.1133832 34.0076947,36.1115184 34.0118867,36.1089544 C34.0132841,36.0889081 34.0123525,36.069095 34.0142156,36.0488157 C34.1376466,34.5982609 35.4129444,33.5227571 36.8622101,33.646531 C37.0794951,33.6654117 37.2872317,33.7127301 37.4849542,33.7798617 L37.4849542,33.7798617 L37.5035852,33.7642443 C37.6498393,33.8029382 37.8002853,33.8320752 37.9563206,33.8455947 C39.4055863,33.9693686 40.6804184,32.8938648 40.8040822,31.44331 C40.8299328,31.1423834 40.8015204,30.8498483 40.7311881,30.5726974 C40.7337499,30.5696672 40.7363116,30.56687 40.7388734,30.5638398 C40.6913641,30.3260821 40.674829,30.0783014 40.6964877,29.824227 C40.7870813,28.7608442 41.4990217,27.9042174 42.4426863,27.5692588 C42.5928994,27.5436183 42.7391534,27.5053906 42.8802839,27.4548088 C42.8914626,27.4527109 42.9021754,27.4485152 42.913587,27.4466505 C42.9147514,27.4447857 42.915683,27.4426878 42.9168474,27.4408231 C43.8383875,27.0946759 44.5291351,26.2457412 44.6180985,25.1986751 C44.6495385,24.8308501 44.6031936,24.4744467 44.493736,24.1448493 C45.0715326,22.6490739 45.5030751,21.0805727 45.7573894,19.4519328 Z M23.0757473,32.1078339 L23.2421406,32.1168402 C24.6914063,32.2408471 25.7657213,33.5168132 25.6420575,34.967368 C25.6150424,35.2853106 25.5300381,35.5839062 25.4024151,35.8568613 C25.0162858,35.0317024 24.2144505,34.4286837 23.2421406,34.3457016 C22.1107679,34.2489669 21.0881542,34.8848521 20.6340214,35.8580268 C20.444683,35.4536057 20.3536236,34.9962718 20.3941462,34.5188918 C20.5180429,33.0685701 21.792875,31.9930663 23.2421406,32.1168402 Z M15.3490576,31.1738747 C16.8034468,31.1738747 17.9825616,32.3538053 17.9825616,33.8099544 C17.9825616,34.5435067 17.6823683,35.2068972 17.1988916,35.6847434 C17.2026178,35.627635 17.2075084,35.5707596 17.2075084,35.5127188 C17.2075084,34.0570359 16.0283936,32.8771052 14.5740044,32.8771052 C13.8527484,32.8771052 13.1997289,33.1677756 12.7241704,33.6379297 C12.8131338,32.2626649 13.9524247,31.1738747 15.3490576,31.1738747 Z M30.3371611,31.1738747 C31.733561,31.1738747 32.8730849,32.2626649 32.9620483,33.6379297 C32.4864898,33.1677756 31.8334702,32.8771052 31.1119814,32.8771052 C29.6575922,32.8771052 28.4787102,34.0570359 28.4787102,35.5127188 C28.4787102,35.5707596 28.4836009,35.627635 28.4873271,35.6847434 C28.0036175,35.2068972 27.703657,34.5435067 27.703657,33.8099544 C27.703657,32.3538053 28.8827719,31.1738747 30.3371611,31.1738747 Z M6.83916909,28.7869743 C7.28771249,27.6963193 8.43026387,27.0051904 9.64943559,27.1821101 C11.0889199,27.3909639 12.0863817,28.7282341 11.8777135,30.1687658 C11.7666257,30.9354177 11.3348503,31.5743331 10.7398199,31.9750247 C10.8208652,31.7782919 10.881882,31.5699043 10.9137877,31.3498619 C11.1224559,29.9090972 10.1249941,28.5718269 8.68550976,28.36274 C8.01176309,28.2650729 7.36270262,28.4343004 6.83916909,28.7869743 Z M39.1766102,28.7869743 C38.6533096,28.4343004 38.0040162,28.2650729 37.3305024,28.36274 C35.8910181,28.5718269 34.8935563,29.9090972 35.1022245,31.3498619 C35.1341302,31.5699043 35.195147,31.7782919 35.2759594,31.9750247 C34.6811619,31.5743331 34.2491536,30.9354177 34.1382987,30.1687658 C33.9293976,28.7282341 34.9270923,27.3909639 36.3665766,27.1821101 C37.5857483,27.0051904 38.7282997,27.6963193 39.1766102,28.7869743 Z M22.6677675,25.2739651 C24.1221567,25.2739651 25.3015045,26.4541288 25.3015045,27.9098117 C25.3015045,28.0972207 25.2803116,28.2792684 25.2428166,28.4554888 C24.7288315,27.6669259 23.7690976,27.1350015 22.6677675,27.1350015 C21.5664374,27.1350015 20.6069365,27.6669259 20.0929514,28.4554888 C20.0552234,28.2792684 20.0342635,28.0972207 20.0342635,27.9098117 C20.0342635,26.4541288 21.2133783,25.2739651 22.6677675,25.2739651 Z M12.5659924,25.4643344 C13.2269302,24.1676228 14.8129015,23.6527143 16.1084606,24.3144731 C17.4040198,24.9759988 17.9184707,26.5633808 17.2575329,27.8603255 C17.1725286,28.0269889 17.0709892,28.1798997 16.9575724,28.319291 C16.8576632,27.3834116 16.2447005,26.4729396 15.2635409,25.9720169 C14.2823813,25.4710941 13.1864076,25.5086225 12.370366,25.9769119 C12.4167109,25.8030225 12.4807552,25.6312309 12.5659924,25.4643344 Z M32.7827241,25.4643344 C32.8677284,25.6312309 32.9320057,25.8030225 32.9781176,25.9769119 C32.1623089,25.5086225 31.0661024,25.4710941 30.0849428,25.9720169 C29.1037832,26.4729396 28.4908204,27.3834116 28.3909112,28.319291 C28.2772616,28.1798997 28.176188,28.0269889 28.0907179,27.8603255 C27.430013,26.5633808 27.9444638,24.9759988 29.240023,24.3144731 C30.5355822,23.6527143 32.1215534,24.1676228 32.7827241,25.4643344 Z M5.22865139,21.8318403 C6.68304058,21.8318403 7.86215547,23.0117709 7.86215547,24.4676869 C7.86215547,25.4492531 7.3251144,26.3035489 6.53026567,26.7571533 C6.85677546,26.318234 7.05240187,25.7758202 7.05240187,25.1865542 C7.05240187,23.7306382 5.87351988,22.5507075 4.4188978,22.5507075 C3.94496954,22.5507075 3.50154968,22.6777447 3.11751641,22.8968547 C3.59749977,22.2516457 4.36300454,21.8318403 5.22865139,21.8318403 Z M41.3252403,21.8318403 C42.1908871,21.8318403 42.9563919,22.2516457 43.4363753,22.8968547 C43.052342,22.6777447 42.6089221,22.5507075 42.1349939,22.5507075 C40.6803718,22.5507075 39.5014898,23.7306382 39.5014898,25.1865542 C39.5014898,25.7758202 39.6971162,26.318234 40.023626,26.7571533 C39.2287773,26.3035489 38.6917362,25.4492531 38.6917362,24.4676869 C38.6917362,23.0117709 39.8708511,21.8318403 41.3252403,21.8318403 Z M22.7481607,18.44088 C24.2027827,18.44088 25.3816647,19.6208106 25.3816647,21.0764935 C25.3816647,21.2639025 25.3607048,21.4461834 25.3229768,21.6221706 C24.8089917,20.8336078 23.8497237,20.3016833 22.7481607,20.3016833 C21.6468306,20.3016833 20.6873296,20.8336078 20.1733445,21.6221706 C20.1356166,21.4461834 20.1146566,21.2639025 20.1146566,21.0764935 C20.1146566,19.6208106 21.2937715,18.44088 22.7481607,18.44088 Z M4.20566501,15.368445 C5.66028709,15.368445 6.83916909,16.5483757 6.83916909,18.0042917 C6.83916909,18.9858578 6.30212802,19.8401537 5.50727929,20.293758 C5.83378908,19.8548387 6.02941549,19.312425 6.02941549,18.7231589 C6.02941549,17.2672429 4.8505335,16.0873123 3.39591142,16.0873123 C2.92198316,16.0873123 2.4785633,16.2143495 2.09453003,16.4334595 C2.57451339,15.7882505 3.34001816,15.368445 4.20566501,15.368445 Z M41.3252403,15.368445 C42.1908871,15.368445 42.9563919,15.7882505 43.4363753,16.4334595 C43.052342,16.2143495 42.6089221,16.0873123 42.1349939,16.0873123 C40.6803718,16.0873123 39.5014898,17.2672429 39.5014898,18.7231589 C39.5014898,19.312425 39.6971162,19.8548387 40.023626,20.293758 C39.2287773,19.8401537 38.6917362,18.9858578 38.6917362,18.0042917 C38.6917362,16.5483757 39.8708511,15.368445 41.3252403,15.368445 Z" id="Combined-Shape" fill="#B0AEC2"></path>
                        </g>
                    </g>
                </g>
                <g id="Group" transform="translate(0.000000, 0.000000)" fill="#FFFFFF">
                    <g id="components/grapics/clouds-copy" transform="translate(73.000000, 15.966736) scale(-1, 1) translate(-73.000000, -15.966736) translate(0.000000, 0.000000)">
                        <path d="M73.8992,0 C77.2974856,0 80.160532,2.57731605 80.4721069,5.88680901 L80.5002,5.8876341 C80.5002,7.78368399 82.1002,9.38035759 84.0002,9.38035759 L84,9.48024948 L139.199,9.48024948 C142.8,9.48024948 145.8,12.3742204 145.8,15.966736 C145.8,19.5592516 142.9,22.4532225 139.3,22.4532225 L130.0998,22.4532225 C128.467721,22.4532225 127.057001,23.6313467 126.691599,25.165349 C126.697735,25.2589535 126.6998,25.352729 126.6998,25.4469854 C126.6998,29.039501 123.6998,31.9334719 120.0998,31.9334719 L31.4998,31.9334719 C27.8998,31.9334719 24.8998,29.039501 24.8998,25.4469854 L24.9058787,25.1627012 L24.9058787,25.1627012 C24.5409104,23.6298062 23.1303528,22.4532225 21.5002,22.4532225 L6.6,22.4532225 C3,22.4532225 -2.84217094e-14,19.5592516 -2.84217094e-14,15.966736 C-2.84217094e-14,12.3742204 2.9,9.48024948 6.6,9.48024948 L13.5,9.48024948 L13.5002,9.38035759 C15.1253742,9.38035759 16.5322923,8.21094967 16.904242,6.685272 C16.9002238,6.61898145 16.8992,6.55285317 16.8992,6.48648649 C16.8992,2.89397089 19.8002,0 23.5002,0 L73.8992,0 Z" id="Path"></path>
                    </g>
                </g>
                <g id="Group" transform="translate(350.000000, 185.000000)" fill="#FFFFFF">
                    <g id="components/grapics/clouds-copy" transform="translate(73.000000, 15.966736) scale(-1, 1) translate(-73.000000, -15.966736) translate(0.000000, 0.000000)">
                        <path d="M73.8992,0 C77.2974856,0 80.160532,2.57731605 80.4721069,5.88680901 L80.5002,5.8876341 C80.5002,7.78368399 82.1002,9.38035759 84.0002,9.38035759 L84,9.48024948 L139.199,9.48024948 C142.8,9.48024948 145.8,12.3742204 145.8,15.966736 C145.8,19.5592516 142.9,22.4532225 139.3,22.4532225 L130.0998,22.4532225 C128.467721,22.4532225 127.057001,23.6313467 126.691599,25.165349 C126.697735,25.2589535 126.6998,25.352729 126.6998,25.4469854 C126.6998,29.039501 123.6998,31.9334719 120.0998,31.9334719 L31.4998,31.9334719 C27.8998,31.9334719 24.8998,29.039501 24.8998,25.4469854 L24.9058787,25.1627012 L24.9058787,25.1627012 C24.5409104,23.6298062 23.1303528,22.4532225 21.5002,22.4532225 L6.6,22.4532225 C3,22.4532225 -2.84217094e-14,19.5592516 -2.84217094e-14,15.966736 C-2.84217094e-14,12.3742204 2.9,9.48024948 6.6,9.48024948 L13.5,9.48024948 L13.5002,9.38035759 C15.1253742,9.38035759 16.5322923,8.21094967 16.904242,6.685272 C16.9002238,6.61898145 16.8992,6.55285317 16.8992,6.48648649 C16.8992,2.89397089 19.8002,0 23.5002,0 L73.8992,0 Z" id="Path"></path>
                    </g>
                </g>
            </g>
        </g>
    </g>
</svg>