<svg xmlns="http://www.w3.org/2000/svg" width="24" height="25" viewBox="0 0 24 25">
    <g fill="none" fill-rule="evenodd">
        <g fill="#0CF">
            <g>
                <g>
                    <g>
                        <path d="M11.016 16.391h1.295v-3.28h-1.295v3.28zm0-6.1h1.295V7.01h-1.295v3.28zm2.057 2.057h3.28v-1.295h-3.28v1.295zm-6.1 0h3.28v-1.295h-3.28v1.295zM19.82 4.295l1.877-1.878-.915-.915-1.877 1.877-2.358 2.358.915.915 2.358-2.357zM2.463 1.422l-.915.915 1.877 1.877.915-.915-1.877-1.877zM4.34 3.299l2.358 2.358-.915.915-2.358-2.358.915-.915zm14.606 16.415l1.877 1.877.915-.915-4.235-4.236-.915.916 2.358 2.358zm-15.48-.835l-1.878 1.877.915.916 4.235-4.235-.915-.916-2.358 2.358zm-1.792-1.576c-.509-.88-.895-1.816-1.154-2.78-.26-.973-.394-1.976-.394-2.986 0-1.01.134-2.014.394-2.985.259-.966.645-1.9 1.154-2.781l1.117.642c-.447.776-.79 1.607-1.022 2.472-.23.86-.348 1.75-.348 2.652 0 .9.118 1.792.348 2.651.232.866.575 1.697 1.022 2.472l-1.117.643zm15.755 4.223c-.88.508-1.815.895-2.78 1.154-.972.26-1.976.394-2.986.394-1.01 0-2.013-.134-2.985-.394-.965-.259-1.9-.646-2.78-1.154l.641-1.118c.776.448 1.607.79 2.473 1.022.859.231 1.75.349 2.65.349.902 0 1.794-.118 2.653-.349.865-.231 1.697-.574 2.471-1.022l.643 1.118zm4.223-15.755c.509.88.896 1.815 1.154 2.78.26.972.394 1.976.394 2.986 0 1.01-.134 2.013-.394 2.985-.258.965-.645 1.9-1.154 2.78l-1.117-.642c.447-.775.79-1.606 1.022-2.472.23-.859.348-1.75.348-2.651 0-.901-.118-1.793-.348-2.652-.232-.865-.575-1.696-1.022-2.472l1.117-.642zM5.897 1.547C6.777 1.04 7.713.652 8.678.394 9.65.134 10.653 0 11.663 0c1.01 0 2.014.133 2.985.394.966.258 1.901.645 2.78 1.153l-.642 1.118c-.774-.447-1.606-.79-2.472-1.022-.858-.23-1.75-.348-2.651-.348-.901 0-1.792.118-2.651.348-.866.232-1.697.575-2.473 1.022l-.642-1.118z" transform="translate(-515.000000, -1009.000000) translate(414.000000, 647.000000) translate(89.000000, 362.900000) translate(23.726113, 11.600000) scale(-1, 1) translate(-23.726113, -11.600000) translate(12.126113, -0.000000)"/>
                    </g>
                </g>
            </g>
        </g>
    </g>
</svg>
