<svg xmlns="http://www.w3.org/2000/svg" xmlns:xlink="http://www.w3.org/1999/xlink" width="29" height="19" viewBox="0 0 29 19">
    <defs>
        <path id="qxe25adfla" d="M0 0L29 0 29 17.695 0 17.695z"/>
    </defs>
    <g fill="none" fill-rule="evenodd">
        <g>
            <g>
                <g>
                    <g>
                        <g transform="translate(-586.000000, -1012.000000) translate(414.000000, 647.000000) translate(170.500000, 365.800000) translate(1.500000, 0.000000)">
                            <mask id="syx9xldyjb" fill="#fff">
                                <use xlink:href="#qxe25adfla"/>
                            </mask>
                            <path fill="#D361FF" d="M14.5 14.979c-3.373 0-6.108-2.745-6.108-6.132 0-3.386 2.735-6.13 6.108-6.13 3.373 0 6.108 2.744 6.108 6.13 0 3.387-2.735 6.132-6.108 6.132m14.203-7.042C27.083 5.66 22.276 0 14.532 0 6.76 0 1.916 5.7.3 7.96-.09 8.508-.1 9.24.275 9.797c1.53 2.266 6.133 7.899 14.064 7.899 7.926 0 12.742-5.624 14.362-7.894.398-.557.398-1.307.002-1.864" mask="url(#syx9xldyjb)"/>
                        </g>
                        <path fill="#D361FF" d="M18.186 9.093c0 2.036-1.65 3.687-3.686 3.687s-3.686-1.65-3.686-3.687c0-2.036 1.65-3.686 3.686-3.686s3.686 1.65 3.686 3.686" transform="translate(-586.000000, -1012.000000) translate(414.000000, 647.000000) translate(170.500000, 365.800000) translate(1.500000, 0.000000)"/>
                    </g>
                </g>
            </g>
        </g>
    </g>
</svg>
