<svg xmlns="http://www.w3.org/2000/svg" xmlns:xlink="http://www.w3.org/1999/xlink" width="80" height="80" viewBox="0 0 80 80">
    <defs>
        <path id="1fktc0rdya" d="M0 0L79.748 0 79.748 79.597 0 79.597z"/>
        <path id="wgr29usl7c" d="M0 0L79.748 0 79.748 79.582 0 79.582z"/>
    </defs>
    <g fill="none" fill-rule="evenodd">
        <g>
            <g>
                <g>
                    <g transform="translate(-524.000000, -902.000000) translate(414.000000, 647.000000) translate(110.000000, 255.000000)">
                        <mask id="jwye32xgnb" fill="#fff">
                            <use xlink:href="#1fktc0rdya"/>
                        </mask>
                        <path fill="#DFE0DF" d="M19.161 12.638l-2.515-3.46c-.455-.627-1.35-.76-1.951-.27C9.5 13.15 5.391 18.673 2.855 24.992c-.291.725.113 1.546.855 1.787l4.068 1.322c.687.223 1.414-.133 1.69-.8 2.065-5.005 5.334-9.389 9.44-12.797.561-.466.681-1.277.253-1.866m52.837 15.537l4.067-1.322c.742-.24 1.146-1.06.857-1.784-2.507-6.283-6.569-11.782-11.706-16.023-.6-.495-1.499-.364-1.956.266l-2.518 3.464c-.425.586-.309 1.39.246 1.855 4.055 3.406 7.28 7.768 9.319 12.74.274.67 1.003 1.027 1.691.804m-30.996 45.76v4.277c0 .78.653 1.416 1.431 1.366 6.986-.444 13.487-2.693 19.043-6.289.65-.42.797-1.31.343-1.937l-2.514-3.46c-.428-.59-1.236-.725-1.85-.334-4.448 2.827-9.617 4.612-15.165 5.017-.722.053-1.288.636-1.288 1.36M7.658 51.182l-4.066 1.321c-.739.24-1.143 1.053-.86 1.776 2.498 6.386 6.595 11.974 11.799 16.27.601.495 1.5.363 1.957-.266l2.515-3.46c.427-.587.309-1.394-.246-1.86-4.115-3.459-7.372-7.902-9.405-12.968-.27-.674-1.003-1.038-1.694-.813M60.902 66.69l2.515 3.462c.459.631 1.363.761 1.963.261 5.146-4.295 9.195-9.859 11.665-16.209.281-.722-.123-1.533-.861-1.773l-4.066-1.32c-.693-.226-1.427.14-1.696.816-2.005 5.031-5.218 9.453-9.28 12.908-.549.468-.664 1.271-.24 1.855M7 39.8c0-2.81.359-5.539 1.027-8.144.182-.706-.198-1.434-.891-1.66l-4.072-1.323c-.735-.239-1.538.178-1.736.926C.464 32.855 0 36.273 0 39.798c0 3.405.436 6.708 1.245 9.864.193.754.998 1.177 1.738.937l4.074-1.324c.689-.223 1.068-.943.895-1.645C7.334 45.12 7 42.497 7 39.798M76.702 28.75l-4.071 1.323c-.693.225-1.073.951-.893 1.657.656 2.583 1.01 5.285 1.01 8.07 0 2.673-.328 5.27-.936 7.76-.171.701.208 1.415.895 1.64l4.076 1.323c.741.241 1.547-.184 1.739-.939.796-3.132 1.226-6.408 1.226-9.785 0-3.496-.458-6.888-1.309-10.12-.197-.75-1-1.168-1.737-.929M18.45 73.407c5.587 3.573 12.118 5.788 19.129 6.188.774.043 1.423-.592 1.423-1.367v-4.277c0-.728-.573-1.313-1.3-1.36-5.569-.365-10.765-2.117-15.239-4.922-.616-.386-1.422-.249-1.849.34l-2.513 3.457c-.456.628-.304 1.523.349 1.941M61.298 6.19C55.781 2.661 49.344.457 42.432.018c-.777-.05-1.43.587-1.43 1.366v4.278c0 .724.566 1.307 1.289 1.36 5.477.4 10.588 2.142 14.998 4.908.614.385 1.416.248 1.843-.339l2.514-3.46c.456-.629.305-1.523-.348-1.94m-38.672 5.632c4.438-2.745 9.575-4.458 15.076-4.818.727-.047 1.3-.632 1.3-1.36V1.368c0-.775-.649-1.41-1.423-1.366-6.936.395-13.403 2.565-18.95 6.07-.658.417-.813 1.314-.355 1.944l2.517 3.464c.424.584 1.222.722 1.835.343" mask="url(#jwye32xgnb)"/>
                    </g>
                    <g transform="translate(-524.000000, -902.000000) translate(414.000000, 647.000000) translate(110.000000, 255.000000) translate(0.000000, 0.015001)">
                        <mask id="hsaud2hrpd" fill="#fff">
                            <use xlink:href="#wgr29usl7c"/>
                        </mask>
                        <path fill="#07C27C" d="M71.998 28.16l4.067-1.321c.743-.241 1.146-1.06.857-1.784-2.507-6.284-6.569-11.782-11.706-16.023-.6-.496-1.499-.364-1.956.265l-2.518 3.464c-.425.586-.308 1.389.246 1.855 4.055 3.406 7.281 7.768 9.32 12.74.273.67 1.003 1.028 1.69.804M41.002 73.92v4.278c0 .779.653 1.416 1.432 1.366 6.985-.445 13.486-2.694 19.043-6.29.649-.42.796-1.311.342-1.937l-2.514-3.46c-.428-.59-1.236-.724-1.85-.334-4.448 2.827-9.617 4.613-15.165 5.017-.722.053-1.288.636-1.288 1.36M7.658 51.168L3.592 52.49c-.739.239-1.143 1.053-.86 1.775 2.498 6.386 6.595 11.974 11.799 16.27.601.496 1.5.364 1.957-.265l2.515-3.461c.427-.586.309-1.394-.246-1.86-4.114-3.458-7.372-7.902-9.405-12.967-.27-.675-1.002-1.038-1.694-.814m53.244 15.507l2.515 3.46c.459.632 1.363.762 1.963.262 5.146-4.295 9.195-9.86 11.665-16.208.281-.722-.123-1.534-.86-1.773l-4.067-1.321c-.693-.226-1.427.139-1.696.816-2.005 5.032-5.218 9.453-9.279 12.909-.55.467-.665 1.27-.241 1.855M7 39.784c0-2.811.359-5.54 1.027-8.144.182-.706-.198-1.434-.891-1.66l-4.072-1.322c-.735-.24-1.538.177-1.736.925C.464 32.84 0 36.258 0 39.783c0 3.405.436 6.709 1.245 9.865.193.754.998 1.177 1.738.936l4.075-1.323c.688-.224 1.067-.943.894-1.645C7.334 45.104 7 42.483 7 39.784m69.702-11.05l-4.071 1.323c-.693.226-1.072.952-.893 1.658.656 2.582 1.01 5.284 1.01 8.069 0 2.673-.328 5.27-.936 7.76-.17.7.208 1.416.895 1.639l4.076 1.324c.741.24 1.547-.183 1.739-.938.796-3.133 1.226-6.41 1.226-9.785 0-3.497-.458-6.888-1.309-10.121-.197-.75-1-1.168-1.737-.928M18.45 73.392c5.587 3.573 12.118 5.789 19.129 6.188.774.044 1.423-.591 1.423-1.367v-4.277c0-.728-.573-1.312-1.3-1.36-5.569-.364-10.765-2.117-15.239-4.921-.616-.387-1.422-.25-1.849.338l-2.512 3.459c-.457.627-.305 1.522.348 1.94M61.298 6.175C55.781 2.647 49.344.443 42.433.003c-.778-.05-1.431.587-1.431 1.366v4.278c0 .724.566 1.307 1.289 1.36 5.478.399 10.588 2.143 14.998 4.908.614.385 1.416.248 1.843-.338l2.514-3.461c.456-.628.305-1.522-.348-1.941" mask="url(#hsaud2hrpd)"/>
                    </g>
                </g>
            </g>
        </g>
    </g>
</svg>
