<svg xmlns="http://www.w3.org/2000/svg" xmlns:xlink="http://www.w3.org/1999/xlink" viewBox="0 0 812.09 514.69"><defs><style>.cls-1{isolation:isolate;}.cls-2{fill:#322c8f;}.cls-3{fill:url(#linear-gradient);}.cls-4{fill:#754322;}.cls-5{fill:url(#linear-gradient-2);}.cls-6{fill:url(#linear-gradient-3);}.cls-7{fill:url(#linear-gradient-4);}.cls-8{fill:#f7ca8a;opacity:0.33;}.cls-9{fill:url(#linear-gradient-5);}.cls-10{fill:url(#linear-gradient-6);}.cls-11{opacity:0.19;mix-blend-mode:hard-light;}.cls-12{fill:url(#linear-gradient-7);}.cls-13,.cls-14{fill:#fff;}.cls-13{opacity:0.15;}</style><linearGradient id="linear-gradient" x1="201.23" y1="486.7" x2="596.95" y2="108.8" gradientUnits="userSpaceOnUse"><stop offset="0" stop-color="#d69176"/><stop offset="0.04" stop-color="#ca856c"/><stop offset="0.17" stop-color="#ad6954"/><stop offset="0.3" stop-color="#985443"/><stop offset="0.42" stop-color="#8b4838"/><stop offset="0.54" stop-color="#874435"/><stop offset="0.64" stop-color="#a2614b"/><stop offset="0.88" stop-color="#dd9e7a"/><stop offset="1" stop-color="#f4b68c"/></linearGradient><linearGradient id="linear-gradient-2" x1="250.31" y1="101.57" x2="557.49" y2="408.75" gradientUnits="userSpaceOnUse"><stop offset="0" stop-color="#adaeb1"/><stop offset="0.16" stop-color="#f3f3f3"/><stop offset="0.18" stop-color="#ededed"/><stop offset="0.22" stop-color="#ddd"/><stop offset="0.25" stop-color="#c2c2c2"/><stop offset="0.29" stop-color="#9d9d9d"/><stop offset="0.33" stop-color="#6e6e6e"/><stop offset="0.34" stop-color="#666"/><stop offset="0.56" stop-color="#dee0e2"/><stop offset="0.74" stop-color="#666"/><stop offset="0.87" stop-color="#fcfcfc"/><stop offset="1" stop-color="#acadaf"/></linearGradient><linearGradient id="linear-gradient-3" x1="406.09" y1="19.09" x2="406.09" y2="488.91" gradientUnits="userSpaceOnUse"><stop offset="0" stop-color="#f4b68c"/><stop offset="0.29" stop-color="#d89976"/><stop offset="0.91" stop-color="#914f3d"/><stop offset="1" stop-color="#874435"/></linearGradient><linearGradient id="linear-gradient-4" x1="406.09" y1="24.94" x2="406.09" y2="483.23" xlink:href="#linear-gradient"/><linearGradient id="linear-gradient-5" x1="406.09" y1="447.89" x2="406.09" y2="66.8" xlink:href="#linear-gradient-3"/><linearGradient id="linear-gradient-6" x1="406.09" y1="63.44" x2="406.09" y2="422.45" xlink:href="#linear-gradient"/><linearGradient id="linear-gradient-7" x1="403.61" y1="181.36" x2="403.61" y2="322.39" xlink:href="#linear-gradient-3"/></defs><g class="cls-1"><g id="Layer_2" data-name="Layer 2"><g id="Layer_1-2" data-name="Layer 1"><path class="cls-2" d="M812.09,201.75l-118.13,0V161.35h-47a257.46,257.46,0,0,0-477.68,0h-52v40.43L0,201.75l53.79,89.38L0,380.43c26.74,0,145.69,0,182,0a257.41,257.41,0,0,0,452.11,0c36.31,0,151.21,0,177.93,0l-49.78-89.3Z"/><path class="cls-3" d="M768.62,227.21c0,.06-99.52.09-211,.1v-.1s-66.46.08-151.59.09-151.58,0-151.58-.09v.1c-111.47,0-211,0-211-.1l38,63.93L43.47,355c0-.13,99.51-.1,211,0v0c4.35.09,69.26.08,151.58,0s147.24,0,151.59,0v0c111.48-.06,211-.09,211,0l-38-63.86Z"/><polygon class="cls-4" points="141.9 324.5 206.24 354.94 202.33 312.76 141.9 324.5"/><polygon class="cls-4" points="666.24 324.5 601.9 354.94 605.8 312.76 666.24 324.5"/><path class="cls-5" d="M620.47,257.35q0,8.43-.65,16.72c-8.53,110.58-101,197.65-213.73,197.65s-205.2-87.07-213.73-197.65q-.65-8.28-.65-16.72C191.71,139,287.69,43,406.09,43S620.47,139,620.47,257.35Z"/><path class="cls-6" d="M637.94,257.35q0,9.12-.7,18.08C628,395,528.05,489.2,406.09,489.2S184.16,395,174.94,275.43q-.69-9-.7-18.08c0-128,103.81-231.85,231.85-231.85S637.94,129.3,637.94,257.35Z"/><path class="cls-7" d="M632.25,257.35q0,8.89-.68,17.64c-9,116.66-106.51,208.51-225.48,208.51S189.61,391.65,180.61,275q-.68-8.73-.68-17.64c0-124.91,101.26-226.16,226.16-226.16S632.25,132.44,632.25,257.35Z"/><path class="cls-8" d="M632.25,257.35q0,8.89-.68,17.64a310.83,310.83,0,0,0-451,0q-.68-8.73-.68-17.64c0-124.91,101.26-226.16,226.16-226.16S632.25,132.44,632.25,257.35Z"/><circle class="cls-9" cx="406.09" cy="257.35" r="190.55"/><circle class="cls-10" cx="406.09" cy="257.35" r="184.44"/><g class="cls-11"><path d="M406.57,70.27C304.86,70.11,219.92,156.14,220.19,257c.28,99.7,84.76,186.74,185.67,184.81,100.52,2.29,185.77-84,186.38-184.1C592.86,155.2,506.62,70.43,406.57,70.27ZM245.77,312.13c-.91-.68-2.28-1.17-2.66-2.07-2.6-6.13-5-12.35-7.29-18.18,1-2.13,1.54-3.33,2.09-4.52,1,.79,2.22,1.4,2.84,2.4a38.33,38.33,0,0,1,6.19,18.94C247,309.83,246.18,311,245.77,312.13Zm4-43.47c-1.22,2.91-3.41,3.14-5.69.92-4-3.88-5.55-15.89-2.69-20.57,1.56-2.54,4.59-2.77,6.09.11,2,3.85,3.18,8.13,4.46,11.56C251,264.08,250.64,266.49,249.73,268.66ZM264,349.81c5.7-.05,16.35,13.79,15.86,20.6C274.34,370.53,263.62,356.61,264,349.81Zm-2.54-35.7c0-1.57.9-4.06,2-4.51a6.28,6.28,0,0,1,5.19,1c5.5,4.31,7.94,10.36,9.06,18.13-.63,1.21-1.18,4-2.62,4.56s-4.19-.52-5.62-1.75A22.77,22.77,0,0,1,261.47,314.11Zm36,50.67c-.42-3,1-4.59,4-4.53,6.49.12,17.08,9.77,17.66,16.09.23,2.59-1.23,3.9-4.34,3.87C308.65,380.14,298.35,371,297.47,364.78ZM317.07,399c1.95-2,4.16-1,6.14-.33,9.15,3,16.36,8.24,17.11,12.28C334.2,412.23,321.85,406,317.07,399Zm60.18,3.64a23.62,23.62,0,0,1-18.92-4.73c-1.33-1-2.75-3.29-2.48-4.65s2.53-2.51,4.14-3.28c1.22-.59,2.81-.43,3.84-.55,5.79.3,11,1.42,15.13,5a7.81,7.81,0,0,1,2.61,5.35C381.55,400.81,378.9,402.39,377.25,402.67Zm73.51-2.75c-5.14,2.41-10.6,4.25-16.37,2.67-1.62-.44-3.85-1.91-4.08-3.21s1.17-3.56,2.47-4.69c4.35-3.83,9.74-5,15.6-5.21,2.89.32,6.8-.09,7.71,3.59S453.51,398.63,450.76,399.92Zm21.79,11.6c1.82-6.11,18.39-14.76,23.32-12.17C493.48,405.64,478.33,413.54,472.55,411.52Zm42.05-46.83c-1,6.19-11.45,15.4-17.55,15.51-3.35.07-4.65-1.47-4-4.73,1.23-6.26,10.7-14.72,17-15.16C513.24,360.08,515.07,361.83,514.6,364.69Zm34.73-12.54a6.51,6.51,0,0,1-1,3c-3.49,4.85-7,9.69-10.72,14.37-.87,1.1-2.49,1.6-4.31,2.71-.24-1.42-.49-1.92-.37-2.31A36.22,36.22,0,0,1,547,350.48C548.54,349.34,549.51,350.41,549.33,352.15Zm-8.12-19.58c-1.15.86-3.41,1.37-4.54.8s-2.12-2.68-2.13-4.12a23.49,23.49,0,0,1,8.18-18.18c1.33-1.19,4.11-2.22,5.41-1.61,1.49.7,2.07,3.32,2.61,4.33C549.8,322.09,547,328.2,541.21,332.57Zm11.3-65.66c4,13.32.91,21.22-11,28.63a59,59,0,0,1-6.32,3.5c-8.54,4-12.63,10.87-13.12,20-.23,4.2-.1,8.43,0,12.64.22,9.36-3.67,14.74-12.62,17.29-1.28.36-2.54.78-3.84,1.06-10.82,2.27-17.69,8.79-21.79,19-4.4,11-10.2,13.19-24.18,10.83-5.53-.94-11.14-2-16.7-2-6.91.05-13,3.24-18.5,7.37-3,2.25-5.89,4.6-8.91,6.81-6.14,4.51-12.91,4.42-19-.18q-3.6-2.73-7.15-5.53c-9.53-7.44-19.89-10.89-32-7.47-4,1.13-8.32,1.34-12.51,1.74-6.8.65-11.6-2.51-14.74-8.35-1.65-3.07-3.05-6.28-4.63-9.4a21.07,21.07,0,0,0-13.15-11.09c-3.22-1-6.45-1.95-9.68-2.91-8.47-2.5-12.47-8-12.3-16.84.08-3.85.11-7.71.14-11.56.07-10.76-5.45-17.69-14.78-22.42a52.33,52.33,0,0,1-11.12-7.89c-6.17-5.56-8.56-12.54-5.45-20.59,3.68-9.54,1.66-17.91-4.45-25.7-1.7-2.18-3-4.65-4.76-6.81-6.48-8.07-7.83-17.26-6.59-27.25,2.83-22.66,10.14-43.78,23.44-62.25,12-16.67,27.56-30,44.79-41.17,28.83-18.73,60.6-27.24,94.88-27.13,62.22.37,110.45,27.51,146.15,77.56,9.46,13.27,14.25,28.85,15,45.39.21,4.45.71,8.9.79,13.35.16,8.14-1.64,15.73-6.59,22.43-2.5,3.39-4.84,6.92-7.08,10.49A21.38,21.38,0,0,0,552.51,266.91Zm9.24,1.29c-2.41-5.1-.83-15.46,3-19.52,2.25-2.4,4.73-2.07,5.87,1a62.48,62.48,0,0,1,1.74,6.95l.59.44c-1.59,4.06-2.72,8.4-4.93,12.08C566.1,272.3,563.36,271.61,561.75,268.2Zm6.09,44.68a11.36,11.36,0,0,1-2.06,0c.63-4.13.77-8.07,1.9-11.71,1.26-4.07,3.35-7.9,5.26-11.75.32-.66,1.49-1,2.34-1.2.19,0,1,1.1,1,1.68a37,37,0,0,1-7.48,22.45A2.06,2.06,0,0,1,567.84,312.88Z"/><path d="M352.22,335.67a24.7,24.7,0,0,0,1.67,2.29,17,17,0,0,0,3.22-14.69c-1.09-4.89-4.37-7.59-8.88-9-4.75-1.5-9,0-13,2.53a17,17,0,0,0-2.86,3c1.17.88,2.22,2.13,3.54,2.57C343.07,324.74,348.71,328.87,352.22,335.67Z"/><path d="M427.05,335.82c-6.53,2-11.66,11.25-9.77,17.71.12.4.59.69.88,1,11.43-6,11.43-6,24-6.54,1.67-.07,3.16-.56,2.4-2.89C442.4,338.46,433.66,333.81,427.05,335.82Z"/><path d="M463.51,315c-5.59,2.75-8.29,8.41-6.91,15.22.51,2.53,1.73,4.91,2.93,8.19,1.15-1.67,1.6-2.21,1.93-2.82A26.51,26.51,0,0,1,477,322.81a23,23,0,0,0,3-1.17c1.61-.8,2.12-1.77.61-3.32C476.47,314.1,468.59,312.52,463.51,315Z"/><path d="M395.43,353.21c1.37-7.21-3.2-15.28-9.79-17.33s-14.34,1.91-17.34,8.87c-1,2.25,0,3.3,2.87,3.2s5.92-.68,8.57.09c5.07,1.46,9.92,3.73,15.33,5.85A1.25,1.25,0,0,0,395.43,353.21Z"/><path d="M345.09,350c-4.66.27-8.85,2-11.23,6.71,4.51,1.33,8.72,2,12.41,3.81s6.72,4.58,10.1,6.85c.83.55,2.1,1.25,2.81,1a3,3,0,0,0,1.25-2.62c-.6-3.14-1-6.52-2.49-9.23C355.26,351.69,350.45,349.71,345.09,350Z"/><path d="M522.59,270.76c-3.26,6.82-1.25,14.92,5,18.28,1.52-4.43,2.55-9,4.63-13.07s5.28-7.81,8.16-11.94C533.64,261.49,525.5,264.67,522.59,270.76Z"/><path d="M461.75,351.59c-7.1,3-10.77,10.9-7.85,18,4.1-2.85,7.67-6,11.79-8s8.93-3.1,13.43-4.59C476.68,351.46,468.24,348.82,461.75,351.59Z"/><path d="M406.48,365.72c-7.25-.13-13.59,5.13-14.45,13.28,9.51-2.92,18.86-4.08,28.45.32C419.76,371.17,413.8,365.85,406.48,365.72Z"/><path d="M494,321.86c-4.37,5-4.65,14.33-.6,18.35,1.59,1.59,2.7.82,3.27-.75,3-8.24,7.62-15.2,15.6-20.06C506.64,315.08,498.77,316.38,494,321.86Z"/><path d="M299.22,319.2c8.89,4.64,12.79,13.2,16.63,22.33,6.57-6.78,6.35-15.59.31-21.43C311.5,315.6,303.31,314.91,299.22,319.2Z"/><path d="M270,264.48c7.82,6,11,14.62,12.85,24.45,7.75-5.66,8.91-14.76,3.64-21C281.71,262.35,273.92,260.52,270,264.48Z"/><path d="M554.13,208.22c-1.29-3.11-3.55-3.17-5.22-.21-3.68,6.54-3.84,13.49-1.4,20.46a2.88,2.88,0,0,0,5.61.12c1.4-3.51,2.43-7.17,3.56-10.65C555.79,214.39,555.35,211.15,554.13,208.22Z"/></g><rect class="cls-12" x="140.76" y="186.85" width="525.69" height="137.64" rx="1.13"/><path class="cls-2" d="M147.47,320V192.21c0,.13,514.16.13,514.16,0V320C649.26,320.25,147.47,319.7,147.47,320Z"/><polygon class="cls-13" points="140.76 300.19 666.46 224.07 666.46 186.85 140.76 186.85 140.76 300.19"/><path class="cls-14" d="M289,254.4v24.12H275.37V233.58h14L305,256.22V233.58h13.61v44.94H305.55Z"/><path class="cls-14" d="M348.06,232.84c13.88,0,24.59,9.43,24.59,23.24s-10.71,23.25-24.59,23.25-24.59-9.44-24.59-23.25S334.18,232.84,348.06,232.84Zm0,12c-6.53,0-10.78,5-10.78,11.25s4.25,11.25,10.78,11.25,10.78-5,10.78-11.25S354.6,244.83,348.06,244.83Z"/><path class="cls-14" d="M371.31,233.58h15.43l9.7,30.25,9.7-30.25h15.43L405,278.52H387.88Z"/><path class="cls-14" d="M424,233.58h13.6v44.94H424Z"/><path class="cls-14" d="M442.46,256.08c0-13.87,10.64-23.24,24.38-23.24,12.13,0,18.06,6.87,20.75,13.07l-11.72,5.46a9.63,9.63,0,0,0-9-6.54c-6.19,0-10.57,5-10.57,11.25s4.38,11.25,10.57,11.25a9.62,9.62,0,0,0,9-6.53l11.72,5.39c-2.62,6-8.62,13.14-20.75,13.14C453.1,279.33,442.46,269.89,442.46,256.08Z"/><path class="cls-14" d="M491.84,233.58h34.09V244.9H505.45v5.26h20v11.31h-20v5.73h20.48v11.32H491.84Z"/></g></g></g></svg>