<svg xmlns="http://www.w3.org/2000/svg" xmlns:xlink="http://www.w3.org/1999/xlink" width="160" height="160" viewBox="0 0 160 160">
    <defs>
        <path id="a" d="M.114.297h8.24v10.455H.114z"/>
    </defs>
    <g fill="none" fill-rule="evenodd" opacity=".051" style="mix-blend-mode:multiply">
        <g style="mix-blend-mode:multiply">
            <path fill="#231F20" d="M84.534 10.4l6.404.695-.235 2.17-3.816-.414-.249 2.289 3.292.357-.234 2.155-3.292-.358-.378 3.487-2.588-.28zM98.478 15.276a.167.167 0 0 0-.116-.203l-1.992-.536c-.058-.016-.15.037-.174.124l-1.42 5.277c-.02.073.037.15.095.166l1.992.537c.087.023.175-.016.195-.089l1.42-5.276zm1.996-1.91c.683.184 1.022.774.838 1.457l-2.022 7.515c-.184.683-.775 1.023-1.457.84l-5.045-1.359c-.683-.183-1.023-.774-.839-1.457l2.023-7.515c.184-.683.775-1.023 1.457-.84l5.045 1.358zM107.851 16.172l-3.272 7.11c-.032.07.013.156.067.18l1.737.8c.082.037.175.014.206-.054l3.272-7.11 2.38 1.094-3.763 8.177c-.277.602-.95.84-1.524.575l-4.676-2.152a1.16 1.16 0 0 1-.57-1.537l3.764-8.178 2.379 1.095zM115.318 25.406l-3.165 4.602-1.985-1.365 5.76-8.373 1.984 1.365-.669 6.337 3.174-4.613 1.985 1.364-5.76 8.373-2.046-1.408zM127.127 32.94c.305-.313.3-.74-.013-1.044l-1.12-1.092-4.036 4.139 1.12 1.092c.313.305.739.3 1.044-.013l3.005-3.083zm2.427-1.713c.797.777.835 2.097.037 2.916l-4.203 4.312c-.81.83-2.13.825-2.927.048l-3.913-3.815 7.093-7.276 3.913 3.815zM133.636 35.722l3.969 5.32-1.75 1.306-2.411-3.234-1.425 1.062 2.088 2.8-1.737 1.295-2.088-2.8-1.472 1.099 2.412 3.233-1.762 1.314-3.969-5.321zM139.84 49.643c.066-.035.098-.136.07-.19l-1.009-1.918-2.398 1.261 1.009 1.918c.028.053.13.085.183.057l2.144-1.128zm2.744.207a1.143 1.143 0 0 1-.48 1.544l-4.116 2.165a1.163 1.163 0 0 1-1.545-.48l-.036-.067-2.268 2.605-1.192-2.264 2.263-2.618-.519-.986-2.85 1.499-1.22-2.318 8.993-4.729 2.97 5.649zM147.124 62.309l1.345 6.302-2.135.455-.801-3.754-2.253.48.691 3.24-2.12.452-.692-3.239-3.43.732-.544-2.547zM146.853 77.07a.166.166 0 0 0 .156-.174l-.116-2.059c-.003-.06-.083-.131-.172-.126l-5.456.307c-.075.004-.131.082-.127.143l.115 2.058c.006.09.07.162.145.158l5.455-.307zm2.44 1.295c.04.707-.415 1.215-1.121 1.254l-7.77.437c-.706.04-1.214-.415-1.254-1.12l-.293-5.215c-.04-.706.415-1.215 1.12-1.254l7.77-.437c.707-.04 1.215.415 1.254 1.12l.293 5.215zM148.958 86.254l-7.78-.857c-.075-.008-.144.06-.15.12l-.21 1.9c-.01.09.042.171.117.18l7.78.857-.287 2.603-8.947-.986a1.137 1.137 0 0 1-1.027-1.263l.564-5.118a1.159 1.159 0 0 1 1.28-1.025l8.947.986-.287 2.603zM142.567 96.241l-5.366-1.55.669-2.314 9.761 2.82-.668 2.313-6.223 1.368 5.38 1.554-.669 2.313-9.761-2.818.688-2.386zM139.139 109.828c.392.19.795.052.986-.34l.685-1.408-5.198-2.53-.684 1.408c-.191.393-.053.795.34.986l3.87 1.884zm2.388 1.765a2.076 2.076 0 0 1-2.756.952l-5.414-2.635a2.078 2.078 0 0 1-.966-2.763l2.391-4.914 9.137 4.447-2.392 4.913zM138.541 116.882l-3.805 5.437-1.788-1.251 2.313-3.304-1.455-1.019-2.002 2.86-1.775-1.242 2.002-2.86-1.505-1.053-2.312 3.304-1.8-1.26 3.805-5.437zM127.27 127.14c.055.053.162.051.203.008l1.505-1.561-1.95-1.881-1.505 1.56c-.042.044-.04.15.003.192l1.745 1.682zm.666 2.672a1.144 1.144 0 0 1-1.617.029l-3.348-3.229a1.164 1.164 0 0 1-.03-1.618l.052-.055-3.186-1.337 1.777-1.842 3.196 1.326.774-.801-2.32-2.237 1.82-1.885 7.313 7.054-4.43 4.595zM117.56 138.035l-5.551 3.268-1.108-1.88 3.307-1.947-1.168-1.985-2.854 1.68-1.1-1.867 2.854-1.68-1.78-3.022 2.244-1.321zM103.462 142.459a.168.168 0 0 0 .215.093l1.917-.76c.056-.022.098-.12.065-.204l-2.013-5.08c-.028-.07-.12-.098-.175-.076l-1.918.76c-.084.033-.132.117-.104.187l2.013 5.08zm-.46 2.723c-.657.262-1.282-.009-1.543-.667l-2.867-7.235c-.26-.657.01-1.283.668-1.544l4.856-1.924c.658-.26 1.284.01 1.544.667l2.867 7.236c.26.658-.01 1.283-.667 1.543l-4.857 1.924zM95.4 147.348l-1.625-7.656c-.016-.074-.102-.117-.16-.105l-1.871.397c-.088.019-.15.093-.134.167l1.626 7.656-2.562.544-1.87-8.805c-.137-.648.26-1.24.879-1.37l5.035-1.07a1.16 1.16 0 0 1 1.375.893l1.87 8.805-2.563.544z"/>
            <g transform="translate(78.138 138.433)">
                <mask id="b" fill="#fff">
                    <use xlink:href="#a"/>
                </mask>
                <path fill="#231F20" d="M5.773 5.97L5.56.39 7.967.297l.387 10.155-2.407.092-3.252-5.48.214 5.596-2.408.092L.114.597 2.596.502z" mask="url(#b)"/>
            </g>
            <path fill="#231F20" d="M69.954 145.44c-.056.433.203.77.636.827l1.551.203.754-5.73-1.553-.203c-.432-.057-.77.202-.827.635l-.56 4.267zm-.917 2.824a2.076 2.076 0 0 1-1.776-2.313l.784-5.968a2.078 2.078 0 0 1 2.315-1.791l5.417.711-1.323 10.072-5.417-.711zM63.062 147.11l-6.363-1.892.622-2.093 3.867 1.15.506-1.702-3.348-.996.618-2.077 3.348.995.523-1.76-3.867-1.15.627-2.107 6.363 1.892zM49.76 139.64c-.034.067.002.167.056.193l1.954.938 1.172-2.442-1.954-.938c-.054-.026-.154.01-.18.064l-1.049 2.184zm-2.326 1.47a1.142 1.142 0 0 1-.536-1.526l2.012-4.192c.267-.557.97-.804 1.526-.536l.068.032.268-3.444 2.306 1.107-.254 3.45 1.004.483 1.394-2.904 2.36 1.134-4.396 9.158-5.752-2.762zM36.371 133.848l-4.848-4.245 1.438-1.642 2.888 2.529 1.518-1.734-2.492-2.181 1.428-1.631 2.492 2.181 2.31-2.64 1.961 1.716zM27.738 121.855a.167.167 0 0 0-.02.233l1.326 1.58c.039.046.145.055.214-.003l4.186-3.513c.058-.049.056-.146.017-.191l-1.326-1.58c-.058-.07-.153-.088-.21-.04l-4.187 3.514zm-2.73.423c-.455-.542-.395-1.22.146-1.675l5.963-5.005c.542-.454 1.221-.395 1.676.147l3.359 4.002c.455.542.396 1.221-.147 1.676l-5.963 5.005c-.542.454-1.22.395-1.675-.147l-3.36-4.003zM20.563 115.765l6.749-3.968c.065-.037.078-.133.048-.185l-.969-1.648c-.046-.078-.135-.112-.2-.074l-6.749 3.967-1.327-2.258 7.76-4.562a1.137 1.137 0 0 1 1.579.399l2.61 4.438a1.16 1.16 0 0 1-.412 1.587l-7.76 4.562-1.329-2.258zM19.72 103.94l5.226-1.967.848 2.254-9.507 3.576-.848-2.253 4.169-4.817-5.24 1.972-.847-2.254 9.507-3.577.874 2.325zM14.34 90.983c-.428.08-.668.433-.587.862l.292 1.538 5.68-1.077-.292-1.538c-.082-.43-.433-.67-.863-.588l-4.23.803zm-2.97.01a2.075 2.075 0 0 1 1.642-2.41l5.916-1.122a2.079 2.079 0 0 1 2.426 1.64l1.018 5.368-9.983 1.894-1.019-5.37zM10.603 84.97l-.203-6.636 2.182-.066.123 4.032 1.775-.054-.107-3.49 2.167-.067.106 3.49 1.836-.056-.123-4.031 2.196-.067.203 6.634zM13.49 70.008c-.074-.009-.158.056-.166.116l-.27 2.151 2.689.338.27-2.151c.008-.06-.057-.144-.117-.151l-2.405-.303zm-2.133-1.74a1.144 1.144 0 0 1 1.278-.993l4.616.581c.613.077 1.07.666.993 1.278l-.01.075 3.353-.838-.32 2.54-3.354.852-.139 1.106 3.197.401-.326 2.6-10.084-1.268.796-6.334zM14.758 55.473l2.5-5.937 2.012.847-1.49 3.537 2.122.894 1.285-3.052 1.998.841-1.286 3.051 3.233 1.362-1.01 2.399zM23.433 43.496a.168.168 0 0 0-.228.054l-1.084 1.754c-.032.051-.008.155.069.203l4.648 2.873c.064.04.155.007.187-.044l1.084-1.754c.047-.077.036-.173-.028-.212l-4.648-2.874zm-1.258-2.46c.372-.6 1.035-.757 1.637-.385l6.62 4.092c.602.372.758 1.035.386 1.637l-2.747 4.444c-.371.602-1.035.758-1.637.386l-6.62-4.093c-.602-.372-.759-1.035-.386-1.637l2.747-4.443zM26.962 34.782l5.882 5.162c.056.05.151.032.19-.013l1.262-1.437c.06-.067.064-.164.007-.213l-5.882-5.162 1.726-1.968 6.765 5.936c.498.436.534 1.149.117 1.624l-3.395 3.869a1.159 1.159 0 0 1-1.635.106l-6.765-5.935 1.728-1.969zM37.923 30.256l3.515 4.34-1.871 1.516-6.396-7.897 1.872-1.516 5.887 2.438-3.525-4.351 1.872-1.516 6.396 7.896-1.93 1.563zM48.5 21.066c-.212-.38-.622-.497-1.003-.283l-1.366.764 2.823 5.043 1.366-.764c.38-.213.496-.623.283-1.004L48.5 21.066zm-.952-2.812a2.074 2.074 0 0 1 2.805.792l2.94 5.253a2.077 2.077 0 0 1-.784 2.82l-4.767 2.667-4.962-8.865 4.768-2.667zM53.033 15.607l6.233-2.286.752 2.049-3.788 1.39.611 1.667 3.28-1.203.746 2.036-3.279 1.202.632 1.725 3.788-1.39.758 2.064-6.234 2.286zM68.158 13.647c-.014-.074-.102-.133-.161-.122l-2.128.416.52 2.66 2.127-.417c.06-.01.12-.1.107-.159l-.465-2.378zm.986-2.57a1.143 1.143 0 0 1 1.342.903l.893 4.565a1.163 1.163 0 0 1-.904 1.343l-.074.014 1.845 2.922-2.512.49-1.859-2.918-1.093.214.618 3.161-2.57.502-1.95-9.972 6.264-1.224z"/>
        </g>
        <path fill="#231F20" d="M82.588 6.327a57.83 57.83 0 0 0-1.32-.033L81.352.8c.48.007.96.017 1.438.036l-.202 5.491zm-6.646.067L75.64.906c.479-.026.958-.047 1.437-.063l.185 5.491c-.439.016-.88.035-1.32.06zm11.958.307c-.44-.046-.88-.09-1.323-.13l.484-5.473c.476.041.95.087 1.424.139L87.9 6.7zm-17.261.172l-.685-5.453c.47-.059.941-.114 1.412-.166l.602 5.463c-.444.05-.887.1-1.33.156zm22.522.581c-.435-.08-.872-.153-1.308-.225l.884-5.424c.473.076.943.157 1.41.242l-.986 5.407zm-27.764.277l-1.089-5.387c.467-.095.938-.185 1.408-.27L66.7 7.48c-.435.08-.87.162-1.303.25zm32.975.856c-.434-.109-.867-.216-1.3-.32l1.27-5.346c.46.109.922.222 1.38.34l-1.35 5.326zm-38.149.382l-1.475-5.296c.457-.125.917-.248 1.375-.368l1.388 5.318c-.431.112-.86.226-1.288.346zm43.245 1.125a65.39 65.39 0 0 0-1.268-.413l1.649-5.242c.457.144.912.291 1.367.443l-1.748 5.212zm-48.312.484l-1.858-5.173c.449-.16.903-.318 1.355-.472l1.755 5.21c-.42.141-.837.285-1.252.435zm53.303 1.395c-.41-.172-.822-.341-1.237-.504l2.03-5.109c.445.178.886.358 1.325.541l-2.118 5.072zm-58.236.573l-2.218-5.027c.432-.192.869-.38 1.306-.565l2.131 5.068c-.408.17-.813.346-1.219.524zM113.3 14.21c-.398-.203-.798-.4-1.2-.594l2.397-4.946c.43.208.855.42 1.282.633l-2.48 4.907zm-67.844.656l-2.584-4.851c.42-.223.841-.441 1.266-.659l2.494 4.898c-.395.201-.786.404-1.176.612zm72.497 1.92a70.85 70.85 0 0 0-1.147-.677l2.753-4.755c.412.24.823.481 1.231.728l-2.837 4.705zm-77.102.744l-2.914-4.658c.4-.25.803-.498 1.207-.743l2.845 4.702c-.381.23-.76.464-1.138.699zm81.57 2.166a74.63 74.63 0 0 0-1.1-.758l3.082-4.549c.395.266.786.537 1.176.81l-3.159 4.497zm-85.964.822l-3.245-4.435c.382-.279.767-.555 1.153-.829l3.175 4.485c-.36.256-.723.517-1.083.779zm90.196 2.397c-.344-.28-.69-.56-1.039-.835l3.408-4.31c.374.294.745.592 1.113.893l-3.482 4.252zm-94.362.894l-3.564-4.182c.366-.312.735-.62 1.109-.924l3.463 4.265c-.34.277-.676.557-1.008.84zm98.365 2.627a99.62 99.62 0 0 0-.981-.911l3.707-4.056c.349.319.696.643 1.04.966l-3.766 4zm-102.298.97l-3.844-3.928c.336-.33.677-.657 1.018-.984l3.794 3.977c-.325.31-.649.62-.968.934zm106.028 2.82a73.821 73.821 0 0 0-.911-.973l3.987-3.786c.325.344.65.692.971 1.045l-4.047 3.715zm-109.686 1.04l-4.12-3.637c.316-.358.635-.715.957-1.066l4.05 3.715c-.299.325-.594.655-.887.987zm113.133 3.008a62.837 62.837 0 0 0-.835-1.035l4.244-3.49c.302.366.601.737.896 1.11l-4.305 3.415zM21.327 35.377l-4.375-3.323c.288-.38.581-.757.878-1.133l4.31 3.408c-.274.346-.545.696-.813 1.048zm119.655 3.183c-.25-.367-.502-.73-.76-1.093l4.485-3.178c.275.388.546.779.813 1.171l-4.538 3.1zM18.255 39.727l-4.605-3c.262-.403.527-.8.798-1.195l4.543 3.09c-.248.366-.494.735-.736 1.105zm125.557 3.328a57.056 57.056 0 0 0-.678-1.143l4.704-2.845c.246.408.487.816.726 1.227l-4.752 2.761zm-128.31 1.238L10.7 41.625a71.9 71.9 0 0 1 .709-1.252l4.75 2.765c-.224.383-.44.768-.657 1.155zm130.805 3.443a60.76 60.76 0 0 0-.59-1.185l4.895-2.497c.218.424.428.849.637 1.279l-4.942 2.403zm-133.22 1.308l-4.982-2.316c.2-.433.403-.863.611-1.29l4.946 2.395c-.196.403-.387.807-.575 1.21zm135.371 3.547c-.165-.41-.334-.82-.506-1.23l5.066-2.131c.184.437.364.873.54 1.313l-5.1 2.048zM11.025 53.958L5.886 52.01c.169-.446.342-.893.518-1.335l5.105 2.037c-.165.412-.325.827-.484 1.246zm139.23 3.635a87.056 87.056 0 0 0-.415-1.265l5.206-1.756c.152.45.303.9.446 1.36l-5.236 1.66zM9.327 59.003l-5.268-1.565c.136-.458.275-.912.419-1.365l5.239 1.657c-.135.424-.264.847-.39 1.273zm142.359 3.714a89.963 89.963 0 0 0-.322-1.295l5.32-1.373c.118.46.234.92.346 1.382l-5.344 1.286zM8.003 64.148l-5.371-1.166c.102-.47.208-.937.318-1.4l5.346 1.274c-.101.43-.2.86-.293 1.292zm144.736 3.785c-.073-.44-.149-.879-.23-1.316l5.408-.988c.083.465.164.935.243 1.404l-5.421.9zM7.052 69.384l-5.438-.783a74.7 74.7 0 0 1 .216-1.415l5.424.886c-.07.437-.138.875-.202 1.312zm146.359 3.813a49.584 49.584 0 0 0-.132-1.312l5.464-.603c.052.477.1.954.143 1.434l-5.475.48zM6.485 74.672l-5.483-.384c.034-.48.072-.958.116-1.435l5.471.501c-.038.437-.073.877-.104 1.318zm147.22 3.848c-.01-.445-.02-.89-.036-1.333l5.49-.202c.02.471.031.944.041 1.418l-5.494.117zM6.296 80.298H.8v-.304c0-.478.004-.955.013-1.43l5.494.1c-.009.44-.011.885-.011 1.33v.304zm152.816 3.824l-5.488-.285c.021-.441.041-.885.057-1.33l5.491.186c-.015.477-.035.953-.06 1.429zm-158.086 1.9a67.15 67.15 0 0 1-.096-1.436l5.488-.3c.025.439.053.879.088 1.317l-5.48.42zM158.61 89.82l-5.452-.688c.056-.436.106-.877.153-1.317l5.463.582a65.5 65.5 0 0 1-.164 1.423zM1.66 91.696c-.07-.472-.136-.944-.196-1.417l5.45-.702c.057.44.117.878.182 1.317l-5.436.802zm156.047 3.762l-5.39-1.071c.086-.433.168-.867.245-1.303l5.412.968c-.085.47-.174.94-.267 1.406zM2.702 97.322a67.59 67.59 0 0 1-.3-1.4l5.383-1.103c.089.434.182.868.28 1.3l-5.363 1.203zm153.694 3.699l-5.301-1.454c.117-.427.23-.855.34-1.283l5.326 1.35c-.118.466-.24.927-.365 1.387zM4.147 102.853c-.136-.458-.27-.917-.4-1.377l5.29-1.486c.12.427.243.852.372 1.276l-5.262 1.587zm150.536 3.62l-5.187-1.82c.148-.422.295-.846.439-1.273l5.21 1.747c-.15.45-.306.897-.462 1.345zM5.992 108.26c-.169-.445-.335-.89-.497-1.34l5.169-1.867c.152.42.307.835.464 1.25l-5.136 1.957zm146.572 3.549l-5.028-2.214c.179-.407.353-.812.522-1.222l5.075 2.113c-.186.442-.375.885-.569 1.323zM8.222 113.514a80.8 80.8 0 0 1-.593-1.299l5.022-2.232c.179.4.362.803.548 1.201l-4.977 2.33zm141.853 3.45l-4.855-2.57c.206-.393.41-.788.611-1.185l4.901 2.484c-.214.425-.434.85-.657 1.272zm-139.25 1.63c-.23-.412-.456-.827-.68-1.244l4.836-2.611c.21.392.424.782.64 1.172l-4.795 2.682zm136.396 3.33l-4.664-2.91c.235-.376.468-.757.698-1.14l4.71 2.83c-.245.41-.492.815-.744 1.22zm-133.433 1.544c-.26-.395-.516-.793-.77-1.191l4.638-2.95c.24.378.48.753.725 1.124l-4.593 3.017zm130.227 3.196l-4.44-3.24c.262-.358.52-.72.776-1.083l4.496 3.158c-.273.39-.551.778-.832 1.165zm-126.919 1.46c-.289-.377-.574-.758-.856-1.14l4.42-3.265c.262.357.528.71.798 1.063l-4.362 3.343zm123.38 3.036l-4.19-3.555c.286-.338.57-.68.849-1.021l4.258 3.474c-.303.37-.608.736-.917 1.102zm-119.745 1.372a82.598 82.598 0 0 1-.938-1.076l4.177-3.572c.286.335.58.672.873 1.003l-4.112 3.645zm115.902 2.846l-3.936-3.835c.311-.319.62-.641.928-.965l3.992 3.777c-.325.344-.653.685-.984 1.023zm-111.961 1.29c-.337-.33-.67-.663-1.004-.997l3.894-3.877c.316.317.633.633.954.947l-3.844 3.927zm107.823 2.648l-3.653-4.103c.332-.298.664-.596.992-.898l3.716 4.05c-.348.32-.7.638-1.055.951zm-103.588 1.198a81.203 81.203 0 0 1-1.083-.933l3.62-4.135c.333.292.67.585 1.01.87l-3.547 4.198zm99.164 2.443l-3.323-4.376c.351-.267.698-.537 1.042-.812l3.415 4.306a85.62 85.62 0 0 1-1.134.882zm-94.67 1.088c-.384-.28-.766-.562-1.147-.85l3.316-4.384c.355.267.712.534 1.071.796l-3.24 4.438zm90.021 2.209l-3.02-4.593c.372-.244.74-.49 1.105-.74l3.1 4.541c-.394.266-.79.533-1.185.792zm-85.274.995c-.407-.253-.81-.51-1.212-.772l2.99-4.609c.372.241.745.479 1.122.712l-2.9 4.67zm80.396 1.964l-2.687-4.792c.386-.218.773-.439 1.156-.66l2.768 4.746c-.41.24-.82.474-1.237.706zm-75.435.887a70.932 70.932 0 0 1-1.265-.682l2.657-4.811c.388.213.778.424 1.17.63L43.11 150.1zm70.353 1.711l-2.33-4.976c.4-.187.799-.378 1.197-.572l2.416 4.934c-.425.209-.855.414-1.283.614zm-65.194.773a76.272 76.272 0 0 1-1.31-.587l2.297-4.993c.404.187.808.369 1.215.546l-2.202 5.034zm59.93 1.456l-1.952-5.14c.414-.155.825-.317 1.233-.482l2.056 5.097c-.444.18-.89.354-1.337.525zm-54.6.65c-.45-.158-.897-.322-1.344-.489l1.917-5.15c.418.156.837.308 1.258.458l-1.831 5.18zm49.19 1.186l-1.583-5.262c.428-.13.852-.26 1.274-.394l1.673 5.233c-.454.146-.908.285-1.363.423zm-43.733.524c-.46-.126-.916-.255-1.373-.388l1.537-5.277c.427.125.855.247 1.285.364l-1.45 5.301zm38.202.918l-1.2-5.362c.436-.1.87-.198 1.3-.302l1.29 5.342c-.462.11-.924.219-1.39.322zm-32.64.388a59.394 59.394 0 0 1-1.402-.29l1.172-5.369c.431.095.865.182 1.299.27l-1.069 5.39zm27.006.648l-.784-5.437c.434-.063.87-.132 1.304-.205l.904 5.421c-.473.079-.947.153-1.424.22zm-21.358.253a66.11 66.11 0 0 1-1.418-.188l.77-5.44c.437.062.877.12 1.317.174l-.67 5.454zm15.68.372l-.4-5.48c.443-.032.886-.068 1.326-.108l.5 5.471c-.473.043-.949.083-1.426.117zm-9.99.12a78.732 78.732 0 0 1-1.428-.085l.384-5.483c.441.032.884.057 1.326.08l-.282 5.489zm4.278.101v-5.497c.442 0 .883-.004 1.321-.013l.117 5.494c-.478.009-.958.016-1.438.016z" style="mix-blend-mode:multiply"/>
    </g>
</svg>
