<svg id="Layer_1" data-name="Layer 1" xmlns="http://www.w3.org/2000/svg" xmlns:xlink="http://www.w3.org/1999/xlink" width="333" height="60" viewBox="0 0 333 60"><defs><style>.cls-1{filter:url(#gtpjrlk74a);}.cls-2,.cls-3,.cls-5{fill-rule:evenodd;}.cls-3{fill:url(#linear-gradient);}.cls-4{filter:url(#w1ci42owtd);}.cls-5{fill:url(#linear-gradient-2);}.cls-6{isolation:isolate;}.cls-7{fill:#fff;}</style><filter id="gtpjrlk74a" x="-2.2%" y="-9.3%" width="104.3%" height="125.9%" name="gtpjrlk74a"><feOffset result="shadowOffsetOuter1" dy="2" in="SourceAlpha"/><feGaussianBlur result="shadowBlurOuter1" stdDeviation="2" in="shadowOffsetOuter1"/></filter><linearGradient id="linear-gradient" x1="-790.0449" y1="561.5741" x2="-790.0449" y2="560.5741" gradientTransform="matrix(323, 0, 0, -54, 255351, 30325)" gradientUnits="userSpaceOnUse"><stop offset="0" stop-color="#1fd893"/><stop offset="1" stop-color="#00bb75"/></linearGradient><filter id="w1ci42owtd" x="-2.3%" y="-10.2%" width="104.6%" height="127.8%" name="w1ci42owtd"><feGaussianBlur result="shadowBlurInner1" stdDeviation="1.5" in="SourceAlpha"/><feOffset result="shadowOffsetInner1" dy="-4" in="shadowBlurInner1"/><feComposite result="shadowInnerInner1" operator="arithmetic" k2="-1" k3="1" in="shadowOffsetInner1" in2="SourceAlpha"/></filter><linearGradient id="linear-gradient-2" x1="-789.7175" y1="553.4483" x2="-789.7175" y2="552.4483" gradientTransform="matrix(285, 0, 0, -29, 225236, 16053)" gradientUnits="userSpaceOnUse"><stop offset="0" stop-color="#fff" stop-opacity="0"/><stop offset="1" stop-color="#fff" stop-opacity="0.304"/></linearGradient></defs><g class="cls-1"><path id="_2xf1ik9oab" data-name="2xf1ik9oab" class="cls-2" d="M32,0H301a27,27,0,0,1,27,27h0a27,27,0,0,1-27,27H32A27,27,0,0,1,5,27H5A27,27,0,0,1,32,0Z"/></g><path id="_2xf1ik9oab-2" data-name="2xf1ik9oab" class="cls-3" d="M32,0H301a27,27,0,0,1,27,27h0a27,27,0,0,1-27,27H32A27,27,0,0,1,5,27H5A27,27,0,0,1,32,0Z"/><g class="cls-4"><path id="_2xf1ik9oab-3" data-name="2xf1ik9oab" class="cls-2" d="M32,0H301a27,27,0,0,1,27,27h0a27,27,0,0,1-27,27H32A27,27,0,0,1,5,27H5A27,27,0,0,1,32,0Z"/></g><path class="cls-5" d="M38.5,3h256A14.5,14.5,0,0,1,309,17.5h0A14.5,14.5,0,0,1,294.5,32H38.5A14.5,14.5,0,0,1,24,17.5h0A14.5,14.5,0,0,1,38.5,3Z"/><g class="cls-6"><g class="cls-6"><path class="cls-7" d="M97.2251,15.792a5.627,5.627,0,0,1,4.97,2.6289L100.07,19.5732a3.4092,3.4092,0,0,0-2.8452-1.5127,3.74,3.74,0,0,0-3.7627,3.9434,3.74,3.74,0,0,0,3.7627,3.9434,4.0582,4.0582,0,0,0,2.5928-.918V23.57H96.6133V21.374h5.7256v4.5918a6.6673,6.6673,0,0,1-5.1138,2.2686,6.1153,6.1153,0,0,1-6.3916-6.23A6.09,6.09,0,0,1,97.2251,15.792Z"/><path class="cls-7" d="M104.6572,23.6426a4.6006,4.6006,0,0,1,9.2007,0,4.6,4.6,0,0,1-9.2007,0Zm6.8242,0a2.2413,2.2413,0,1,0-4.4477,0,2.2434,2.2434,0,1,0,4.4477,0Z"/><path class="cls-7" d="M124.7817,18.2412H121.271V15.99H130.85v2.251h-3.4927V28h-2.5752Z"/><path class="cls-7" d="M131.0088,23.6426a4.6006,4.6006,0,0,1,9.2007,0,4.6,4.6,0,0,1-9.2007,0Zm6.8242,0a2.2413,2.2413,0,1,0-4.4477,0,2.2434,2.2434,0,1,0,4.4477,0Z"/><path class="cls-7" d="M158.8037,19.3574,155.4189,28h-1.1167l-3.3847-8.6426V28h-2.5567V15.99h3.583l2.917,7.49,2.9165-7.49h3.6011V28h-2.5747Z"/><path class="cls-7" d="M169.8184,27.1a3.6006,3.6006,0,0,1-2.7549,1.1162,2.8974,2.8974,0,0,1-3.0249-2.8808,2.754,2.754,0,0,1,3.0249-2.7725,3.5156,3.5156,0,0,1,2.7549,1.0625V22.418c0-.8819-.7569-1.458-1.9092-1.458a3.6576,3.6576,0,0,0-2.5381,1.0263l-.8643-1.53a5.7031,5.7031,0,0,1,3.7989-1.3692c1.98,0,3.7988.793,3.7988,3.2959V28h-2.2861Zm0-2.2685a2.2893,2.2893,0,0,0-1.837-.7559c-.9,0-1.6381.4678-1.6381,1.3144,0,.81.7378,1.2784,1.6381,1.2784a2.2872,2.2872,0,0,0,1.837-.7569Z"/><path class="cls-7" d="M175.2705,19.3037h2.2861v1.1885a3.72,3.72,0,0,1,2.7735-1.3867v2.2324a2.8082,2.8082,0,0,0-2.7735.918V28h-2.2861Z"/><path class="cls-7" d="M185.9814,24.6514l-1.0449,1.1162V28H182.65V15.99h2.2861v7.1846l3.2949-3.8711h2.81l-3.4394,3.9424L191.1484,28h-2.8623Z"/><path class="cls-7" d="M196.7451,19.0869c2.5928,0,4.3574,1.9453,4.3574,4.79v.5039h-6.4638a2.3429,2.3429,0,0,0,2.5029,2.0166,3.5566,3.5566,0,0,0,2.3223-.8643l1.0088,1.4766a5.4232,5.4232,0,0,1-3.5831,1.206,4.4038,4.4038,0,0,1-4.6455-4.5732A4.4263,4.4263,0,0,1,196.7451,19.0869Zm-2.1426,3.7451h4.2852a2.0136,2.0136,0,0,0-2.1426-1.9258A2.09,2.09,0,0,0,194.6025,22.832Z"/><path class="cls-7" d="M204.1064,25.84v-4.538h-1.44V19.3037h1.44V16.9268h2.3047v2.3769h1.7647v1.9981h-1.7647v3.9257c0,.54.2881.9541.792.9541a1.2493,1.2493,0,0,0,.792-.2519l.4863,1.7285a2.824,2.824,0,0,1-1.9082.5576A2.1733,2.1733,0,0,1,204.1064,25.84Z"/><path class="cls-7" d="M210.64,31.3125V19.3037h2.2872v1.0977a3.36,3.36,0,0,1,2.6826-1.3145c2.2324,0,3.8535,1.6572,3.8535,4.5557s-1.6211,4.5732-3.8535,4.5732a3.3214,3.3214,0,0,1-2.6826-1.332v4.4287Zm4.25-10.19a2.56,2.56,0,0,0-1.9628.99v3.0791a2.6192,2.6192,0,0,0,1.9628.99,2.2611,2.2611,0,0,0,2.1963-2.539A2.2546,2.2546,0,0,0,214.89,21.1221Z"/><path class="cls-7" d="M222.0693,15.99h2.2871V28h-2.2871Z"/><path class="cls-7" d="M232.7451,27.1a3.6,3.6,0,0,1-2.7549,1.1162,2.8976,2.8976,0,0,1-3.0254-2.8808,2.7542,2.7542,0,0,1,3.0254-2.7725,3.5154,3.5154,0,0,1,2.7549,1.0625V22.418c0-.8819-.7568-1.458-1.9092-1.458a3.6574,3.6574,0,0,0-2.538,1.0263l-.8643-1.53a5.7021,5.7021,0,0,1,3.7988-1.3692c1.98,0,3.7988.793,3.7988,3.2959V28h-2.2861Zm0-2.2685a2.2891,2.2891,0,0,0-1.8369-.7559c-.9,0-1.6387.4678-1.6387,1.3144,0,.81.7383,1.2784,1.6387,1.2784a2.287,2.287,0,0,0,1.8369-.7569Z"/><path class="cls-7" d="M242.249,19.0869a4.0447,4.0447,0,0,1,3.4385,1.5674l-1.4941,1.4043a2.1087,2.1087,0,0,0-1.837-.9365,2.3238,2.3238,0,0,0-2.3584,2.5205,2.3393,2.3393,0,0,0,2.3584,2.539,2.1947,2.1947,0,0,0,1.837-.9365l1.4941,1.3867a4.009,4.009,0,0,1-3.4385,1.584,4.4157,4.4157,0,0,1-4.6094-4.5732A4.4115,4.4115,0,0,1,242.249,19.0869Z"/><path class="cls-7" d="M252.0225,19.0869c2.5927,0,4.3574,1.9453,4.3574,4.79v.5039H249.916a2.343,2.343,0,0,0,2.5029,2.0166,3.5564,3.5564,0,0,0,2.3223-.8643L255.75,27.01a5.4231,5.4231,0,0,1-3.583,1.206,4.4038,4.4038,0,0,1-4.6455-4.5732A4.4263,4.4263,0,0,1,252.0225,19.0869ZM249.88,22.832h4.2851a2.0135,2.0135,0,0,0-2.1425-1.9258A2.09,2.09,0,0,0,249.88,22.832Z"/></g></g></svg>