<svg id="Layer_1" data-name="Layer 1" xmlns="http://www.w3.org/2000/svg" xmlns:xlink="http://www.w3.org/1999/xlink" width="333" height="60" viewBox="0 0 333 60"><defs><style>.cls-1{filter:url(#gtpjrlk74a);}.cls-2,.cls-3,.cls-5{fill-rule:evenodd;}.cls-3{fill:url(#linear-gradient);}.cls-4{filter:url(#w1ci42owtd);}.cls-5{fill:url(#linear-gradient-2);}.cls-6{isolation:isolate;}.cls-7{fill:#fff;}</style><filter id="gtpjrlk74a" x="-2.2%" y="-9.3%" width="104.3%" height="125.9%" name="gtpjrlk74a"><feOffset result="shadowOffsetOuter1" dy="2" in="SourceAlpha"/><feGaussianBlur result="shadowBlurOuter1" stdDeviation="2" in="shadowOffsetOuter1"/></filter><linearGradient id="linear-gradient" x1="-130.0944" y1="443.6491" x2="-130.0944" y2="442.6491" gradientTransform="matrix(323, 0, 0, -54, 42187, 23957.0509)" gradientUnits="userSpaceOnUse"><stop offset="0" stop-color="#1fd893"/><stop offset="1" stop-color="#00bb75"/></linearGradient><filter id="w1ci42owtd" x="-2.3%" y="-10.2%" width="104.6%" height="127.8%" name="w1ci42owtd"><feGaussianBlur result="shadowBlurInner1" stdDeviation="1.5" in="SourceAlpha"/><feOffset result="shadowOffsetInner1" dy="-4" in="shadowBlurInner1"/><feComposite result="shadowInnerInner1" operator="arithmetic" k2="-1" k3="1" in="shadowOffsetInner1" in2="SourceAlpha"/></filter><linearGradient id="linear-gradient-2" x1="-130.0404" y1="437.4071" x2="-130.0404" y2="436.4071" gradientTransform="matrix(285, 0, 0, -29, 37228, 12687.8051)" gradientUnits="userSpaceOnUse"><stop offset="0" stop-color="#fff" stop-opacity="0"/><stop offset="1" stop-color="#fff" stop-opacity="0.304"/></linearGradient></defs><g class="cls-1"><path id="_2xf1ik9oab" data-name="2xf1ik9oab" class="cls-2" d="M32,0H301a27,27,0,0,1,27,27h0a27,27,0,0,1-27,27H32A27,27,0,0,1,5,27H5A27,27,0,0,1,32,0Z"/></g><path id="_2xf1ik9oab-2" data-name="2xf1ik9oab" class="cls-3" d="M32,0H301a27,27,0,0,1,27,27h0a27,27,0,0,1-27,27H32A27,27,0,0,1,5,27H5A27,27,0,0,1,32,0Z"/><g class="cls-4"><path id="_2xf1ik9oab-3" data-name="2xf1ik9oab" class="cls-2" d="M32,0H301a27,27,0,0,1,27,27h0a27,27,0,0,1-27,27H32A27,27,0,0,1,5,27H5A27,27,0,0,1,32,0Z"/></g><path class="cls-5" d="M38.5,3h256A14.5,14.5,0,0,1,309,17.5h0A14.5,14.5,0,0,1,294.5,32H38.5A14.5,14.5,0,0,1,24,17.5h0A14.5,14.5,0,0,1,38.5,3Z"/><g class="cls-6"><g class="cls-6"><path class="cls-7" d="M101.8335,23.0041a6.0793,6.0793,0,0,1,6.3018-6.2119,5.54,5.54,0,0,1,5.1132,2.9355l-2.1963,1.08a3.2889,3.2889,0,0,0-2.9169-1.7471,3.7224,3.7224,0,0,0-3.6729,3.9434,3.7224,3.7224,0,0,0,3.6729,3.9433,3.2554,3.2554,0,0,0,2.9169-1.746l2.1963,1.0625a5.5737,5.5737,0,0,1-5.1132,2.9521A6.0787,6.0787,0,0,1,101.8335,23.0041Z"/><path class="cls-7" d="M115.6216,20.3039h2.2866v1.1885a3.721,3.721,0,0,1,2.773-1.3867v2.2324a2.8816,2.8816,0,0,0-.63-.0723,2.9161,2.9161,0,0,0-2.1426.99V29h-2.2866Z"/><path class="cls-7" d="M126.9443,20.0871c2.5928,0,4.357,1.9453,4.357,4.79v.5039h-6.4639a2.3432,2.3432,0,0,0,2.5029,2.0166,3.5576,3.5576,0,0,0,2.3228-.8642l1.0083,1.4765a5.4222,5.4222,0,0,1-3.583,1.2061,4.404,4.404,0,0,1-4.6455-4.5732A4.4264,4.4264,0,0,1,126.9443,20.0871Zm-2.1425,3.7451h4.2851a2.0142,2.0142,0,0,0-2.1426-1.9258A2.0892,2.0892,0,0,0,124.8018,23.8322Z"/><path class="cls-7" d="M139.0767,28.1a3.6,3.6,0,0,1-2.7549,1.1162,2.8974,2.8974,0,0,1-3.0249-2.8809,2.754,2.754,0,0,1,3.0249-2.7724,3.5153,3.5153,0,0,1,2.7549,1.0625v-1.207c0-.8819-.7564-1.4581-1.9087-1.4581a3.6576,3.6576,0,0,0-2.5386,1.0264l-.8643-1.53a5.7035,5.7035,0,0,1,3.7989-1.3691c1.9809,0,3.7993.793,3.7993,3.2959V29h-2.2866Zm0-2.2686a2.288,2.288,0,0,0-1.8365-.7558c-.9,0-1.6386.4678-1.6386,1.3144,0,.81.7382,1.2784,1.6386,1.2784a2.2856,2.2856,0,0,0,1.8365-.7569Z"/><path class="cls-7" d="M144.979,26.84V22.3019h-1.44v-1.998h1.44v-2.377h2.3047v2.377h1.7646v1.998h-1.7646v3.9258c0,.54.2881.9541.792.9541a1.25,1.25,0,0,0,.7925-.2519l.4863,1.7285a2.8265,2.8265,0,0,1-1.9087.5576A2.1733,2.1733,0,0,1,144.979,26.84Z"/><path class="cls-7" d="M155.4565,20.0871c2.5928,0,4.3575,1.9453,4.3575,4.79v.5039H153.35a2.3433,2.3433,0,0,0,2.5029,2.0166,3.5576,3.5576,0,0,0,2.3228-.8642l1.0083,1.4765a5.4222,5.4222,0,0,1-3.583,1.2061,4.404,4.404,0,0,1-4.6455-4.5732A4.4264,4.4264,0,0,1,155.4565,20.0871Zm-2.1425,3.7451h4.2851a2.0142,2.0142,0,0,0-2.1426-1.9258A2.0892,2.0892,0,0,0,153.314,23.8322Z"/><path class="cls-7" d="M175.0049,20.7541,172.916,29h-2.7187l-3.4385-12.01h2.8623l2.1064,8.6787,2.2871-8.6787h1.9991l2.2685,8.6787L180.37,16.99h2.8809L179.83,29h-2.7188Z"/><path class="cls-7" d="M189.8008,28.1a3.6008,3.6008,0,0,1-2.7549,1.1162,2.8976,2.8976,0,0,1-3.0254-2.8809,2.7542,2.7542,0,0,1,3.0254-2.7724,3.5153,3.5153,0,0,1,2.7549,1.0625v-1.207c0-.8819-.7569-1.4581-1.9092-1.4581a3.6575,3.6575,0,0,0-2.5381,1.0264l-.8642-1.53a5.7023,5.7023,0,0,1,3.7988-1.3691c1.9805,0,3.7988.793,3.7988,3.2959V29h-2.2861Zm0-2.2686a2.29,2.29,0,0,0-1.8369-.7558c-.9,0-1.6387.4678-1.6387,1.3144,0,.81.7383,1.2784,1.6387,1.2784a2.2871,2.2871,0,0,0,1.8369-.7569Z"/><path class="cls-7" d="M195.2529,16.99h2.2862V29h-2.2862Z"/><path class="cls-7" d="M200.7061,16.99h2.2871V29h-2.2871Z"/><path class="cls-7" d="M210.1035,20.0871c2.5928,0,4.3574,1.9453,4.3574,4.79v.5039h-6.4638A2.3428,2.3428,0,0,0,210.5,27.3976a3.5565,3.5565,0,0,0,2.3223-.8642l1.0088,1.4765a5.4233,5.4233,0,0,1-3.5831,1.2061,4.4038,4.4038,0,0,1-4.6455-4.5732A4.4263,4.4263,0,0,1,210.1035,20.0871Zm-2.1426,3.7451h4.2852a2.0136,2.0136,0,0,0-2.1426-1.9258A2.09,2.09,0,0,0,207.9609,23.8322Z"/><path class="cls-7" d="M217.4648,26.84V22.3019h-1.44v-1.998h1.44v-2.377H219.77v2.377h1.7647v1.998H219.77v3.9258c0,.54.2881.9541.792.9541a1.25,1.25,0,0,0,.792-.2519l.4863,1.7285a2.824,2.824,0,0,1-1.9082.5576A2.1733,2.1733,0,0,1,217.4648,26.84Z"/></g></g></svg>