<svg id="Layer_1" data-name="Layer 1" xmlns="http://www.w3.org/2000/svg" xmlns:xlink="http://www.w3.org/1999/xlink" width="250.2975" height="60" viewBox="0 0 250.2975 60"><defs><style>.cls-1{fill-opacity:0.335;}.cls-1,.cls-2,.cls-4,.cls-5{fill-rule:evenodd;}.cls-2{fill:url(#linear-gradient);}.cls-3{filter:url(#ndxtyvru0c);}.cls-5{fill:url(#linear-gradient-2);}.cls-6{fill:#fff;}</style><linearGradient id="linear-gradient" x1="-713.9811" y1="561.5741" x2="-713.9811" y2="560.5741" gradientTransform="matrix(471.405, 0, 0, -54, 336817.2764, 30325)" gradientUnits="userSpaceOnUse"><stop offset="0" stop-color="#1fd893"/><stop offset="1" stop-color="#00bb75"/></linearGradient><filter id="ndxtyvru0c" x="-0.7%" y="-6.5%" width="101.5%" height="113%" name="ndxtyvru0c"><feGaussianBlur result="shadowBlurInner1" stdDeviation="1.5" in="SourceAlpha"/><feOffset result="shadowOffsetInner1" dy="-4" in="shadowBlurInner1"/><feComposite result="shadowInnerInner1" operator="arithmetic" k2="-1" k3="1" in="shadowOffsetInner1" in2="SourceAlpha"/></filter><linearGradient id="linear-gradient-2" x1="-713.7786" y1="553.4483" x2="-713.7786" y2="552.4483" gradientTransform="matrix(415.946, 0, 0, -29, 297136.3736, 16053)" gradientUnits="userSpaceOnUse"><stop offset="0" stop-color="#fff" stop-opacity="0"/><stop offset="1" stop-color="#fff" stop-opacity="0.304"/></linearGradient></defs><path class="cls-1" d="M38.6753,3H456.08a27,27,0,0,1,27,27h0a27,27,0,0,1-27,27H38.6753a27,27,0,0,1-27-27h0A27,27,0,0,1,38.6753,3Z"/><path id="y64yofvy1b" class="cls-2" d="M34.2973,0h417.405a27,27,0,0,1,27,27h0a27,27,0,0,1-27,27H34.2973a27,27,0,0,1-27-27h0A27,27,0,0,1,34.2973,0Z"/><g class="cls-3"><path id="y64yofvy1b-2" data-name="y64yofvy1b" class="cls-4" d="M34.2973,0h417.405a27,27,0,0,1,27,27h0a27,27,0,0,1-27,27H34.2973a27,27,0,0,1-27-27h0A27,27,0,0,1,34.2973,0Z"/></g><path class="cls-5" d="M49.5273,3h386.946a14.5,14.5,0,0,1,14.5,14.5h0a14.5,14.5,0,0,1-14.5,14.5H49.5273a14.5,14.5,0,0,1-14.5-14.5h0A14.5,14.5,0,0,1,49.5273,3Z"/><path class="cls-6" d="M47.9722,17.99h7.2924c2.4844,0,3.565,1.6568,3.565,3.0611a2.6482,2.6482,0,0,1-2.0527,2.7549,2.8325,2.8325,0,0,1,2.2866,2.935A3.2182,3.2182,0,0,1,55.5166,30H47.9722Zm6.4458,4.4654a.7588.7588,0,0,0,.7207-.774.7383.7383,0,0,0-.7207-.7382H51.6094v1.5122Zm.1084,4.5913a.7946.7946,0,0,0,.8462-.81.8188.8188,0,0,0-.8462-.8281h-2.917v1.6382Z"/><path class="cls-6" d="M66.3159,29.0278a3.9033,3.9033,0,0,1-2.9888,1.188,2.5579,2.5579,0,0,1-2.8808-2.7007V21.3032H63.687v4.8257c0,.8823.4683,1.2241,1.26,1.2241a1.7056,1.7056,0,0,0,1.3686-.6841V21.3032h3.2407V30H66.3159Z"/><path class="cls-6" d="M72.3984,30.666c.63,0,1.0259-.1079,1.1343-.3418l.0718-.18-3.4209-8.8408h3.4209l1.6567,4.97,1.6743-4.97h3.4209L76.5752,31.08c-.7739,2.0166-2.2144,2.3945-4.0508,2.4492a6.6223,6.6223,0,0,1-1.2607-.1445l.45-2.8809A1.5247,1.5247,0,0,0,72.3984,30.666Z"/><path class="cls-6" d="M85.3755,18.5845a1.8186,1.8186,0,1,1,1.8188,1.8188A1.8133,1.8133,0,0,1,85.3755,18.5845Zm.1982,2.7187h3.2408V30H85.5737Z"/><path class="cls-6" d="M96.5015,25.1924a1.1029,1.1029,0,0,0-1.26-1.2422,1.7164,1.7164,0,0,0-1.3867.6841V30H90.6138V21.3032h3.2407v.9907a3.8432,3.8432,0,0,1,2.9893-1.2065,2.5891,2.5891,0,0,1,2.8984,2.7368V30H96.5015Z"/><path class="cls-6" d="M106.2012,17.99h3.6914v6.95a2.08,2.08,0,0,0,4.1592,0V17.99h3.6909v7.0581c0,2.9893-1.71,5.1675-5.7617,5.1675s-5.78-2.1782-5.78-5.1494Z"/><path class="cls-6" d="M120.6553,25.6064a5.5978,5.5978,0,0,0,3.8716,1.5489c.684,0,1.332-.2344,1.332-.7022s-.5039-.7021-1.6924-.9184c-1.98-.36-5.0054-.8282-5.0054-3.835,0-2.0347,1.6924-3.8892,4.9873-3.8892a7.9239,7.9239,0,0,1,5.0957,1.6744L127.2993,22.06a5.9788,5.9788,0,0,0-3.3486-1.1885c-.9,0-1.0986.3242-1.0986.63,0,.4682.4863.63,1.7646.8462,1.9805.3422,4.9155.9184,4.9155,3.6914,0,2.6464-1.9629,4.1767-5.1855,4.1767a7.9129,7.9129,0,0,1-5.5816-1.9082Z"/><path class="cls-6" d="M130.7168,17.99h5.3657c3.7813,0,6.59,2.1607,6.59,5.9961S139.8638,30,136.1006,30h-5.3838Zm5.3657,8.8409a2.7751,2.7751,0,0,0,2.8989-2.8448,2.6254,2.6254,0,0,0-2.8808-2.8271H134.354v5.6719Z"/></svg>