<svg id="Layer_1" data-name="Layer 1" xmlns="http://www.w3.org/2000/svg" xmlns:xlink="http://www.w3.org/1999/xlink" width="333" height="60" viewBox="0 0 333 60"><defs><style>.cls-1{filter:url(#gtpjrlk74a);}.cls-2,.cls-3,.cls-5{fill-rule:evenodd;}.cls-3{fill:url(#linear-gradient);}.cls-4{filter:url(#w1ci42owtd);}.cls-5{fill:url(#linear-gradient-2);}.cls-6{isolation:isolate;}.cls-7{fill:#fff;}</style><filter id="gtpjrlk74a" x="-2.2%" y="-9.3%" width="104.3%" height="125.9%" name="gtpjrlk74a"><feOffset result="shadowOffsetOuter1" dy="2" in="SourceAlpha"/><feGaussianBlur result="shadowBlurOuter1" stdDeviation="2" in="shadowOffsetOuter1"/></filter><linearGradient id="linear-gradient" x1="-790.0449" y1="561.5741" x2="-790.0449" y2="560.5741" gradientTransform="matrix(323, 0, 0, -54, 255351, 30325)" gradientUnits="userSpaceOnUse"><stop offset="0" stop-color="#1fd893"/><stop offset="1" stop-color="#00bb75"/></linearGradient><filter id="w1ci42owtd" x="-2.3%" y="-10.2%" width="104.6%" height="127.8%" name="w1ci42owtd"><feGaussianBlur result="shadowBlurInner1" stdDeviation="1.5" in="SourceAlpha"/><feOffset result="shadowOffsetInner1" dy="-4" in="shadowBlurInner1"/><feComposite result="shadowInnerInner1" operator="arithmetic" k2="-1" k3="1" in="shadowOffsetInner1" in2="SourceAlpha"/></filter><linearGradient id="linear-gradient-2" x1="-789.7175" y1="553.4483" x2="-789.7175" y2="552.4483" gradientTransform="matrix(285, 0, 0, -29, 225236, 16053)" gradientUnits="userSpaceOnUse"><stop offset="0" stop-color="#fff" stop-opacity="0"/><stop offset="1" stop-color="#fff" stop-opacity="0.304"/></linearGradient></defs><g class="cls-1"><path id="_2xf1ik9oab" data-name="2xf1ik9oab" class="cls-2" d="M32,0H301a27,27,0,0,1,27,27h0a27,27,0,0,1-27,27H32A27,27,0,0,1,5,27H5A27,27,0,0,1,32,0Z"/></g><path id="_2xf1ik9oab-2" data-name="2xf1ik9oab" class="cls-3" d="M32,0H301a27,27,0,0,1,27,27h0a27,27,0,0,1-27,27H32A27,27,0,0,1,5,27H5A27,27,0,0,1,32,0Z"/><g class="cls-4"><path id="_2xf1ik9oab-3" data-name="2xf1ik9oab" class="cls-2" d="M32,0H301a27,27,0,0,1,27,27h0a27,27,0,0,1-27,27H32A27,27,0,0,1,5,27H5A27,27,0,0,1,32,0Z"/></g><path class="cls-5" d="M38.5,3h256A14.5,14.5,0,0,1,309,17.5h0A14.5,14.5,0,0,1,294.5,32H38.5A14.5,14.5,0,0,1,24,17.5h0A14.5,14.5,0,0,1,38.5,3Z"/><g class="cls-6"><g class="cls-6"><path class="cls-7" d="M97.2251,15.792a5.627,5.627,0,0,1,4.97,2.6289L100.07,19.5732a3.4092,3.4092,0,0,0-2.8452-1.5127,3.74,3.74,0,0,0-3.7627,3.9434,3.74,3.74,0,0,0,3.7627,3.9434,4.0582,4.0582,0,0,0,2.5928-.918V23.57H96.6133V21.374h5.7256v4.5918a6.6673,6.6673,0,0,1-5.1138,2.2686,6.1153,6.1153,0,0,1-6.3916-6.23A6.09,6.09,0,0,1,97.2251,15.792Z"/><path class="cls-7" d="M104.6572,23.6426a4.6006,4.6006,0,0,1,9.2007,0,4.6,4.6,0,0,1-9.2007,0Zm6.8242,0a2.2413,2.2413,0,1,0-4.4477,0,2.2434,2.2434,0,1,0,4.4477,0Z"/><path class="cls-7" d="M124.7817,18.2412H121.271V15.99H130.85v2.251h-3.4927V28h-2.5752Z"/><path class="cls-7" d="M131.0088,23.6426a4.6006,4.6006,0,0,1,9.2007,0,4.6,4.6,0,0,1-9.2007,0Zm6.8242,0a2.2413,2.2413,0,1,0-4.4477,0,2.2434,2.2434,0,1,0,4.4477,0Z"/><path class="cls-7" d="M147.7847,22.0039a6.0793,6.0793,0,0,1,6.3017-6.2119A5.5405,5.5405,0,0,1,159.2,18.7275l-2.1963,1.08a3.2894,3.2894,0,0,0-2.917-1.7471,3.7225,3.7225,0,0,0-3.6728,3.9434,3.7224,3.7224,0,0,0,3.6728,3.9434,3.2557,3.2557,0,0,0,2.917-1.7461L159.2,25.2637a5.574,5.574,0,0,1-5.1133,2.9521A6.0787,6.0787,0,0,1,147.7847,22.0039Z"/><path class="cls-7" d="M161.5728,15.99h2.2866V28h-2.2866Z"/><path class="cls-7" d="M172.8955,26.9014a4.0649,4.0649,0,0,1-3.06,1.3144,2.49,2.49,0,0,1-2.8086-2.7363V19.3037h2.2861v5.2754a1.3985,1.3985,0,0,0,1.6025,1.6025,2.5583,2.5583,0,0,0,1.9805-.99V19.3037h2.2871V28h-2.2871Z"/><path class="cls-7" d="M178.3477,15.99h2.2871v4.43a3.347,3.347,0,0,1,2.6826-1.333c2.2148,0,3.8535,1.7285,3.8535,4.5742,0,2.8985-1.6572,4.5547-3.8535,4.5547a3.3749,3.3749,0,0,1-2.6826-1.332V28h-2.2871Zm4.25,10.1914a2.2477,2.2477,0,0,0,2.2138-2.52,2.2633,2.2633,0,0,0-2.2138-2.539,2.5226,2.5226,0,0,0-1.9629,1.0078V25.209A2.5441,2.5441,0,0,0,182.5977,26.1816Z"/><path class="cls-7" d="M195.6836,22.7061c0-1.2061-.63-1.584-1.62-1.584a2.532,2.532,0,0,0-1.9805,1.0263V28h-2.2871V15.99h2.2871v4.4473a4.0241,4.0241,0,0,1,3.0606-1.3506,2.5044,2.5044,0,0,1,2.8271,2.7373V28h-2.2871Z"/><path class="cls-7" d="M200.5781,23.6426a4.6,4.6,0,0,1,9.2,0,4.6,4.6,0,0,1-9.2,0Zm6.8242,0a2.2415,2.2415,0,1,0-4.4482,0,2.2436,2.2436,0,1,0,4.4482,0Z"/><path class="cls-7" d="M218.2373,26.9014a4.0684,4.0684,0,0,1-3.0605,1.3144,2.49,2.49,0,0,1-2.81-2.7363V19.3037h2.2871v5.2754a1.3982,1.3982,0,0,0,1.6025,1.6025,2.5615,2.5615,0,0,0,1.9805-.99V19.3037h2.2861V28h-2.2861Z"/><path class="cls-7" d="M223.9238,25.2637a4.98,4.98,0,0,0,3.0069,1.1875c.99,0,1.458-.3418,1.458-.8819,0-.6123-.7559-.8281-1.7461-1.0263-1.4942-.2881-3.4209-.6485-3.4209-2.7188,0-1.459,1.2783-2.7373,3.5654-2.7373a5.56,5.56,0,0,1,3.5108,1.1885l-.918,1.5664a3.6724,3.6724,0,0,0-2.5752-1.0078c-.8281,0-1.3682.3056-1.3682.8105,0,.54.6836.7383,1.6563.9356,1.4941.2881,3.4931.6845,3.4931,2.8447,0,1.585-1.3505,2.791-3.7636,2.791a5.8514,5.8514,0,0,1-3.8887-1.3506Z"/><path class="cls-7" d="M237.1191,19.0869c2.5928,0,4.3565,1.9453,4.3565,4.79v.5039h-6.4639a2.3436,2.3436,0,0,0,2.5029,2.0166,3.559,3.559,0,0,0,2.3233-.8643l1.0078,1.4766a5.4213,5.4213,0,0,1-3.583,1.206,4.4043,4.4043,0,0,1-4.6455-4.5732A4.4265,4.4265,0,0,1,237.1191,19.0869Zm-2.1425,3.7451h4.2851a2.0148,2.0148,0,0,0-2.1426-1.9258A2.0885,2.0885,0,0,0,234.9766,22.832Z"/></g></g></svg>