<svg id="Layer_1" data-name="Layer 1" xmlns="http://www.w3.org/2000/svg" xmlns:xlink="http://www.w3.org/1999/xlink" width="248.2492" height="60" viewBox="0 0 248.2492 60"><defs><style>.cls-1{fill-opacity:0.335;}.cls-1,.cls-2,.cls-4,.cls-5{fill-rule:evenodd;}.cls-2{fill:url(#linear-gradient);}.cls-3{filter:url(#ndxtyvru0c);}.cls-5{fill:url(#linear-gradient-2);}.cls-6{fill:#fff;}</style><linearGradient id="linear-gradient" x1="-952.9326" y1="561.5741" x2="-952.9326" y2="560.5741" gradientTransform="matrix(471.405, 0, 0, -54, 449221.2598, 30325)" gradientUnits="userSpaceOnUse"><stop offset="0" stop-color="#1fd893"/><stop offset="1" stop-color="#00bb75"/></linearGradient><filter id="ndxtyvru0c" x="-0.7%" y="-6.5%" width="101.5%" height="113%" name="ndxtyvru0c"><feGaussianBlur result="shadowBlurInner1" stdDeviation="1.5" in="SourceAlpha"/><feOffset result="shadowOffsetInner1" dy="-4" in="shadowBlurInner1"/><feComposite result="shadowInnerInner1" operator="arithmetic" k2="-1" k3="1" in="shadowOffsetInner1" in2="SourceAlpha"/></filter><linearGradient id="linear-gradient-2" x1="-952.7301" y1="553.4483" x2="-952.7301" y2="552.4483" gradientTransform="matrix(415.946, 0, 0, -29, 396288.3491, 16053)" gradientUnits="userSpaceOnUse"><stop offset="0" stop-color="#fff" stop-opacity="0"/><stop offset="1" stop-color="#fff" stop-opacity="0.304"/></linearGradient></defs><path class="cls-1" d="M-200.2762,3h417.405a27,27,0,0,1,27,27h0a27,27,0,0,1-27,27h-417.405a27,27,0,0,1-27-27h0A27,27,0,0,1-200.2762,3Z"/><path id="y64yofvy1b" class="cls-2" d="M-204.6542,0h417.405a27,27,0,0,1,27,27h0a27,27,0,0,1-27,27h-417.405a27,27,0,0,1-27-27h0A27,27,0,0,1-204.6542,0Z"/><g class="cls-3"><path id="y64yofvy1b-2" data-name="y64yofvy1b" class="cls-4" d="M-204.6542,0h417.405a27,27,0,0,1,27,27h0a27,27,0,0,1-27,27h-417.405a27,27,0,0,1-27-27h0A27,27,0,0,1-204.6542,0Z"/></g><path class="cls-5" d="M-189.4242,3h386.946a14.5,14.5,0,0,1,14.5,14.5h0a14.5,14.5,0,0,1-14.5,14.5h-386.946a14.5,14.5,0,0,1-14.5-14.5h0A14.5,14.5,0,0,1-189.4242,3Z"/><path class="cls-6" d="M94.0211,17.99h7.292c2.4844,0,3.5645,1.6568,3.5645,3.0611a2.6479,2.6479,0,0,1-2.0518,2.7549,2.8325,2.8325,0,0,1,2.2862,2.935A3.218,3.218,0,0,1,101.5651,30h-7.544Zm6.4454,4.4654a.7591.7591,0,0,0,.7207-.774.7387.7387,0,0,0-.7207-.7382H97.6579v1.5122Zm.1084,4.5913a.7939.7939,0,0,0,.8457-.81.8181.8181,0,0,0-.8457-.8281h-2.917v1.6382Z"/><path class="cls-6" d="M112.3649,29.0278a3.9054,3.9054,0,0,1-2.9893,1.188,2.5579,2.5579,0,0,1-2.8808-2.7007V21.3032h3.2412v4.8257c0,.8823.4678,1.2241,1.26,1.2241a1.7074,1.7074,0,0,0,1.3691-.6841V21.3032h3.24V30h-3.24Z"/><path class="cls-6" d="M118.446,30.666c.6308,0,1.0263-.1079,1.1347-.3418l.0723-.18-3.4219-8.8408h3.4219l1.6562,4.97,1.6748-4.97h3.4209L122.6237,31.08c-.7744,2.0166-2.2149,2.3945-4.0518,2.4492a6.6169,6.6169,0,0,1-1.26-.1445l.45-2.8809A1.5191,1.5191,0,0,0,118.446,30.666Z"/><path class="cls-6" d="M131.4235,18.5845a1.8184,1.8184,0,1,1,1.8184,1.8188A1.8135,1.8135,0,0,1,131.4235,18.5845Zm.1982,2.7187h3.2412V30h-3.2412Z"/><path class="cls-6" d="M142.55,25.1924a1.103,1.103,0,0,0-1.2608-1.2422,1.7134,1.7134,0,0,0-1.3857.6841V30h-3.2412V21.3032h3.2412v.9907a3.8407,3.8407,0,0,1,2.9883-1.2065,2.59,2.59,0,0,1,2.8994,2.7368V30H142.55Z"/><path class="cls-6" d="M151.6012,24.0044c0-3.71,2.8448-6.2119,6.5176-6.2119a5.6432,5.6432,0,0,1,5.5459,3.4927l-3.1328,1.4585a2.5725,2.5725,0,0,0-2.4131-1.7466,2.8528,2.8528,0,0,0-2.8262,3.0073,2.8526,2.8526,0,0,0,2.8262,3.0068,2.5725,2.5725,0,0,0,2.4131-1.7466l3.1328,1.4405a5.7093,5.7093,0,0,1-5.5459,3.5107A6.1662,6.1662,0,0,1,151.6012,24.0044Z"/><path class="cls-6" d="M164.7233,21.3032h3.2412v.9907a3.889,3.889,0,0,1,2.6641-1.2065v3.0967a2.57,2.57,0,0,0-.7383-.09,2.7537,2.7537,0,0,0-1.9258.6123V30h-3.2412Z"/><path class="cls-6" d="M172.7878,30.666c.6308,0,1.0263-.1079,1.1347-.3418l.0723-.18-3.4219-8.8408h3.4219l1.6562,4.97,1.6748-4.97h3.4209L176.9655,31.08c-.7744,2.0166-2.2149,2.3945-4.0518,2.4492a6.6169,6.6169,0,0,1-1.26-.1445l.45-2.8809A1.5191,1.5191,0,0,0,172.7878,30.666Z"/><path class="cls-6" d="M181.3737,33.3125V21.3032h3.2412v.9185a3.0582,3.0582,0,0,1,2.4482-1.1343c2.1612,0,3.8174,1.5845,3.8174,4.5552,0,2.9892-1.6562,4.5732-3.8174,4.5732a3.08,3.08,0,0,1-2.4482-1.1343v4.231Zm4.5732-9.3623a1.8913,1.8913,0,0,0-1.332.5942v2.2144a1.9353,1.9353,0,0,0,1.332.5942,1.7034,1.7034,0,0,0,0-3.4028Z"/><path class="cls-6" d="M192.75,27.48V24.1123h-1.44V21.3032h1.44V18.9268h3.2412v2.3764h1.7646v2.8091h-1.7646V26.543a.7456.7456,0,0,0,.72.81,1.19,1.19,0,0,0,.6484-.1616l.5762,2.4482a3.4578,3.4578,0,0,1-2.1963.5762C193.8122,30.2158,192.75,29.2979,192.75,27.48Z"/><path class="cls-6" d="M198.3639,25.6426a4.9,4.9,0,1,1,4.88,4.5732A4.5461,4.5461,0,0,1,198.3639,25.6426Zm6.4463,0a1.563,1.563,0,1,0-3.1152,0,1.5644,1.5644,0,1,0,3.1152,0Z"/></svg>