<svg id="Layer_1" data-name="Layer 1" xmlns="http://www.w3.org/2000/svg" xmlns:xlink="http://www.w3.org/1999/xlink" width="333" height="60" viewBox="0 0 333 60"><defs><style>.cls-1{filter:url(#gtpjrlk74a);}.cls-2,.cls-3,.cls-5{fill-rule:evenodd;}.cls-3{fill:url(#linear-gradient);}.cls-4{filter:url(#w1ci42owtd);}.cls-5{fill:url(#linear-gradient-2);}.cls-6{isolation:isolate;}.cls-7{fill:#fff;}</style><filter id="gtpjrlk74a" x="-2.2%" y="-9.3%" width="104.3%" height="125.9%" name="gtpjrlk74a"><feOffset result="shadowOffsetOuter1" dy="2" in="SourceAlpha"/><feGaussianBlur result="shadowBlurOuter1" stdDeviation="2" in="shadowOffsetOuter1"/></filter><linearGradient id="linear-gradient" x1="-790.0449" y1="561.5741" x2="-790.0449" y2="560.5741" gradientTransform="matrix(323, 0, 0, -54, 255351, 30325)" gradientUnits="userSpaceOnUse"><stop offset="0" stop-color="#1fd893"/><stop offset="1" stop-color="#00bb75"/></linearGradient><filter id="w1ci42owtd" x="-2.3%" y="-10.2%" width="104.6%" height="127.8%" name="w1ci42owtd"><feGaussianBlur result="shadowBlurInner1" stdDeviation="1.5" in="SourceAlpha"/><feOffset result="shadowOffsetInner1" dy="-4" in="shadowBlurInner1"/><feComposite result="shadowInnerInner1" operator="arithmetic" k2="-1" k3="1" in="shadowOffsetInner1" in2="SourceAlpha"/></filter><linearGradient id="linear-gradient-2" x1="-789.7175" y1="553.4483" x2="-789.7175" y2="552.4483" gradientTransform="matrix(285, 0, 0, -29, 225236, 16053)" gradientUnits="userSpaceOnUse"><stop offset="0" stop-color="#fff" stop-opacity="0"/><stop offset="1" stop-color="#fff" stop-opacity="0.304"/></linearGradient></defs><g class="cls-1"><path id="_2xf1ik9oab" data-name="2xf1ik9oab" class="cls-2" d="M32,0H301a27,27,0,0,1,27,27h0a27,27,0,0,1-27,27H32A27,27,0,0,1,5,27H5A27,27,0,0,1,32,0Z"/></g><path id="_2xf1ik9oab-2" data-name="2xf1ik9oab" class="cls-3" d="M32,0H301a27,27,0,0,1,27,27h0a27,27,0,0,1-27,27H32A27,27,0,0,1,5,27H5A27,27,0,0,1,32,0Z"/><g class="cls-4"><path id="_2xf1ik9oab-3" data-name="2xf1ik9oab" class="cls-2" d="M32,0H301a27,27,0,0,1,27,27h0a27,27,0,0,1-27,27H32A27,27,0,0,1,5,27H5A27,27,0,0,1,32,0Z"/></g><path class="cls-5" d="M38.5,3h256A14.5,14.5,0,0,1,309,17.5h0A14.5,14.5,0,0,1,294.5,32H38.5A14.5,14.5,0,0,1,24,17.5h0A14.5,14.5,0,0,1,38.5,3Z"/><g class="cls-6"><g class="cls-6"><path class="cls-7" d="M105.8525,19.3574,102.4678,28h-1.1167l-3.3848-8.6426V28H95.41V15.99h3.583l2.917,7.49,2.9165-7.49h3.601V28h-2.5747Z"/><path class="cls-7" d="M111.4116,16.6562a1.3684,1.3684,0,1,1,1.3682,1.3692A1.3792,1.3792,0,0,1,111.4116,16.6562Zm.2339,2.6475h2.2866V28h-2.2866Z"/><path class="cls-7" d="M117.9453,28.5762a3.4556,3.4556,0,0,0,2.7188,1.08,2.1257,2.1257,0,0,0,2.395-2.1962v-.8829a3.3881,3.3881,0,0,1-2.6831,1.3692c-2.1782,0-3.835-1.53-3.835-4.43,0-2.8447,1.6387-4.43,3.835-4.43a3.3488,3.3488,0,0,1,2.6831,1.333V19.3037h2.3047v8.1025c0,3.3126-2.5567,4.1231-4.7,4.1231a5.2714,5.2714,0,0,1-3.7452-1.2969Zm5.1138-6.4639a2.48,2.48,0,0,0-1.9629-.99A2.1559,2.1559,0,0,0,118.9,23.5166a2.1559,2.1559,0,0,0,2.1963,2.3945,2.5321,2.5321,0,0,0,1.9629-.99Z"/><path class="cls-7" d="M128.5293,19.3037h2.2866v1.1885a3.72,3.72,0,0,1,2.773-1.3867v2.2324a2.8073,2.8073,0,0,0-2.773.918V28h-2.2866Z"/><path class="cls-7" d="M141.13,27.1a3.5991,3.5991,0,0,1-2.7549,1.1162,2.8974,2.8974,0,0,1-3.0249-2.8808,2.7541,2.7541,0,0,1,3.0249-2.7725A3.5156,3.5156,0,0,1,141.13,23.625V22.418c0-.8819-.7564-1.458-1.9087-1.458a3.6579,3.6579,0,0,0-2.5386,1.0263l-.8643-1.53a5.7033,5.7033,0,0,1,3.7989-1.3692c1.9809,0,3.7993.793,3.7993,3.2959V28H141.13Zm0-2.2685a2.2877,2.2877,0,0,0-1.8365-.7559c-.9,0-1.6386.4678-1.6386,1.3144,0,.81.7383,1.2784,1.6386,1.2784a2.2856,2.2856,0,0,0,1.8365-.7569Z"/><path class="cls-7" d="M147.0332,25.84v-4.538h-1.44V19.3037h1.44V16.9268h2.3047v2.3769h1.7646v1.9981h-1.7646v3.9257c0,.54.2881.9541.7925.9541a1.2493,1.2493,0,0,0,.792-.2519l.4863,1.7285a2.8265,2.8265,0,0,1-1.9087.5576A2.1733,2.1733,0,0,1,147.0332,25.84Z"/><path class="cls-7" d="M157.51,19.0869c2.5927,0,4.3574,1.9453,4.3574,4.79v.5039h-6.4644a2.3433,2.3433,0,0,0,2.5029,2.0166,3.5577,3.5577,0,0,0,2.3228-.8643l1.0083,1.4766a5.4222,5.4222,0,0,1-3.583,1.206,4.404,4.404,0,0,1-4.6455-4.5732A4.4264,4.4264,0,0,1,157.51,19.0869Zm-2.1426,3.7451h4.2851a2.0141,2.0141,0,0,0-2.1425-1.9258A2.0893,2.0893,0,0,0,155.3677,22.832Z"/><path class="cls-7" d="M175.7979,15.792a5.626,5.626,0,0,1,4.97,2.6289l-2.124,1.1523a3.4108,3.4108,0,0,0-2.8457-1.5127,3.74,3.74,0,0,0-3.7627,3.9434,3.74,3.74,0,0,0,3.7627,3.9434,4.0567,4.0567,0,0,0,2.5927-.918V23.57h-3.2041V21.374h5.7256v4.5918a6.6682,6.6682,0,0,1-5.1142,2.2686,6.1153,6.1153,0,0,1-6.3917-6.23A6.09,6.09,0,0,1,175.7979,15.792Z"/><path class="cls-7" d="M183.23,23.6426a4.6008,4.6008,0,0,1,9.2012,0,4.6007,4.6007,0,0,1-9.2012,0Zm6.8242,0a2.2411,2.2411,0,1,0-4.4473,0,2.2432,2.2432,0,1,0,4.4473,0Z"/><path class="cls-7" d="M195.02,15.99h2.2871V28H195.02Z"/><path class="cls-7" d="M200.9785,21.3018h-1.44V19.3037h1.44V18.835a2.8022,2.8022,0,0,1,2.9346-3.0245,3.6852,3.6852,0,0,1,1.6562.36l-.4677,1.62a1.4061,1.4061,0,0,0-.7383-.18c-.6485,0-1.08.4317-1.08,1.26v.4326h1.7637v1.9981h-1.7637V28h-2.3047Z"/><path class="cls-7" d="M211.2031,19.0869c2.5928,0,4.3565,1.9453,4.3565,4.79v.5039h-6.4639a2.3436,2.3436,0,0,0,2.5029,2.0166,3.559,3.559,0,0,0,2.3233-.8643L214.93,27.01a5.4213,5.4213,0,0,1-3.583,1.206,4.4043,4.4043,0,0,1-4.6455-4.5732A4.4265,4.4265,0,0,1,211.2031,19.0869Zm-2.1426,3.7451h4.2852a2.0149,2.0149,0,0,0-2.1426-1.9258A2.0887,2.0887,0,0,0,209.0605,22.832Z"/><path class="cls-7" d="M218.1133,19.3037H220.4v1.1885a3.72,3.72,0,0,1,2.7725-1.3867v2.2324a2.8065,2.8065,0,0,0-2.7725.918V28h-2.2871Z"/><path class="cls-7" d="M225.7275,25.2637a4.98,4.98,0,0,0,3.0069,1.1875c.99,0,1.458-.3418,1.458-.8819,0-.6123-.7559-.8281-1.7461-1.0263-1.4942-.2881-3.4209-.6485-3.4209-2.7188,0-1.459,1.2783-2.7373,3.5654-2.7373a5.56,5.56,0,0,1,3.5108,1.1885l-.918,1.5664a3.6724,3.6724,0,0,0-2.5752-1.0078c-.8281,0-1.3682.3056-1.3682.8105,0,.54.6836.7383,1.6563.9356,1.4941.2881,3.4931.6845,3.4931,2.8447,0,1.585-1.3505,2.791-3.7636,2.791a5.8516,5.8516,0,0,1-3.8887-1.3506Z"/></g></g></svg>