<svg id="Layer_1" data-name="Layer 1" xmlns="http://www.w3.org/2000/svg" xmlns:xlink="http://www.w3.org/1999/xlink" width="333" height="60" viewBox="0 0 333 60"><defs><style>.cls-1{filter:url(#gtpjrlk74a);}.cls-2,.cls-3,.cls-5{fill-rule:evenodd;}.cls-3{fill:url(#linear-gradient);}.cls-4{filter:url(#w1ci42owtd);}.cls-5{fill:url(#linear-gradient-2);}.cls-6{isolation:isolate;}.cls-7{fill:#fff;}</style><filter id="gtpjrlk74a" x="-2.2%" y="-9.3%" width="104.3%" height="125.9%" name="gtpjrlk74a"><feOffset result="shadowOffsetOuter1" dy="2" in="SourceAlpha"/><feGaussianBlur result="shadowBlurOuter1" stdDeviation="2" in="shadowOffsetOuter1"/></filter><linearGradient id="linear-gradient" x1="-790.0449" y1="561.5741" x2="-790.0449" y2="560.5741" gradientTransform="matrix(323, 0, 0, -54, 255351, 30325)" gradientUnits="userSpaceOnUse"><stop offset="0" stop-color="#1fd893"/><stop offset="1" stop-color="#00bb75"/></linearGradient><filter id="w1ci42owtd" x="-2.3%" y="-10.2%" width="104.6%" height="127.8%" name="w1ci42owtd"><feGaussianBlur result="shadowBlurInner1" stdDeviation="1.5" in="SourceAlpha"/><feOffset result="shadowOffsetInner1" dy="-4" in="shadowBlurInner1"/><feComposite result="shadowInnerInner1" operator="arithmetic" k2="-1" k3="1" in="shadowOffsetInner1" in2="SourceAlpha"/></filter><linearGradient id="linear-gradient-2" x1="-789.7175" y1="553.4483" x2="-789.7175" y2="552.4483" gradientTransform="matrix(285, 0, 0, -29, 225236, 16053)" gradientUnits="userSpaceOnUse"><stop offset="0" stop-color="#fff" stop-opacity="0"/><stop offset="1" stop-color="#fff" stop-opacity="0.304"/></linearGradient></defs><g class="cls-1"><path id="_2xf1ik9oab" data-name="2xf1ik9oab" class="cls-2" d="M32,0H301a27,27,0,0,1,27,27h0a27,27,0,0,1-27,27H32A27,27,0,0,1,5,27H5A27,27,0,0,1,32,0Z"/></g><path id="_2xf1ik9oab-2" data-name="2xf1ik9oab" class="cls-3" d="M32,0H301a27,27,0,0,1,27,27h0a27,27,0,0,1-27,27H32A27,27,0,0,1,5,27H5A27,27,0,0,1,32,0Z"/><g class="cls-4"><path id="_2xf1ik9oab-3" data-name="2xf1ik9oab" class="cls-2" d="M32,0H301a27,27,0,0,1,27,27h0a27,27,0,0,1-27,27H32A27,27,0,0,1,5,27H5A27,27,0,0,1,32,0Z"/></g><path class="cls-5" d="M38.5,3h256A14.5,14.5,0,0,1,309,17.5h0A14.5,14.5,0,0,1,294.5,32H38.5A14.5,14.5,0,0,1,24,17.5h0A14.5,14.5,0,0,1,38.5,3Z"/><g class="cls-6"><g class="cls-6"><path class="cls-7" d="M100.9858,24.3633a5.2669,5.2669,0,0,0,3.8169,1.62c1.4048,0,2.0889-.666,2.0889-1.3506,0-.9-1.0444-1.206-2.4307-1.53-1.9629-.45-4.4834-.99-4.4834-3.6728,0-1.999,1.7286-3.6192,4.5552-3.6192a6.6836,6.6836,0,0,1,4.6817,1.6739l-1.4229,1.873a5.1224,5.1224,0,0,0-3.439-1.3144c-1.1523,0-1.7641.5039-1.7641,1.2246,0,.81,1.0083,1.0625,2.3945,1.3867,1.98.4492,4.5015,1.0439,4.5015,3.709,0,2.1963-1.5664,3.8525-4.8076,3.8525a6.9213,6.9213,0,0,1-5.0953-1.9082Z"/><path class="cls-7" d="M112.3076,25.84v-4.538h-1.44V19.3037h1.44V16.9268h2.3047v2.3769h1.7647v1.9981h-1.7647v3.9257c0,.54.2881.9541.7925.9541a1.2493,1.2493,0,0,0,.792-.2519l.4863,1.7285a2.8265,2.8265,0,0,1-1.9087.5576A2.1733,2.1733,0,0,1,112.3076,25.84Z"/><path class="cls-7" d="M124.063,27.1a3.599,3.599,0,0,1-2.7549,1.1162,2.8974,2.8974,0,0,1-3.0249-2.8808,2.7541,2.7541,0,0,1,3.0249-2.7725,3.5156,3.5156,0,0,1,2.7549,1.0625V22.418c0-.8819-.7564-1.458-1.9087-1.458a3.6581,3.6581,0,0,0-2.5386,1.0263l-.8642-1.53a5.7028,5.7028,0,0,1,3.7988-1.3692c1.9809,0,3.7993.793,3.7993,3.2959V28H124.063Zm0-2.2685a2.2874,2.2874,0,0,0-1.8364-.7559c-.9,0-1.6387.4678-1.6387,1.3144,0,.81.7383,1.2784,1.6387,1.2784a2.2852,2.2852,0,0,0,1.8364-.7569Z"/><path class="cls-7" d="M129.5156,19.3037h2.2866v1.1885a3.72,3.72,0,0,1,2.773-1.3867v2.2324a2.8862,2.8862,0,0,0-.63-.0723,2.9162,2.9162,0,0,0-2.1426.99V28h-2.2866Z"/><path class="cls-7" d="M137.3452,25.84v-4.538h-1.44V19.3037h1.44V16.9268H139.65v2.3769h1.7647v1.9981H139.65v3.9257c0,.54.2881.9541.792.9541a1.25,1.25,0,0,0,.7925-.2519l.4863,1.7285a2.8265,2.8265,0,0,1-1.9087.5576A2.1733,2.1733,0,0,1,137.3452,25.84Z"/><path class="cls-7" d="M159.8843,19.3574,156.5,28h-1.1162l-3.3853-8.6426V28h-2.5566V15.99h3.583l2.917,7.49,2.9165-7.49h3.6011V28h-2.5747Z"/><path class="cls-7" d="M165.4434,16.6562a1.3682,1.3682,0,1,1,1.3681,1.3692A1.3792,1.3792,0,0,1,165.4434,16.6562Zm.2338,2.6475h2.2867V28h-2.2867Z"/><path class="cls-7" d="M171.9766,28.5762a3.4561,3.4561,0,0,0,2.7187,1.08,2.1261,2.1261,0,0,0,2.3955-2.1962v-.8829a3.389,3.389,0,0,1-2.6836,1.3692c-2.1787,0-3.8349-1.53-3.8349-4.43,0-2.8447,1.6386-4.43,3.8349-4.43a3.3489,3.3489,0,0,1,2.6836,1.333V19.3037h2.3047v8.1025c0,3.3126-2.5576,4.1231-4.7,4.1231a5.2712,5.2712,0,0,1-3.7451-1.2969Zm5.1142-6.4639a2.4815,2.4815,0,0,0-1.9629-.99,2.1557,2.1557,0,0,0-2.1963,2.3945,2.1557,2.1557,0,0,0,2.1963,2.3945,2.5335,2.5335,0,0,0,1.9629-.99Z"/><path class="cls-7" d="M182.5605,19.3037h2.2862v1.1885a3.72,3.72,0,0,1,2.7734-1.3867v2.2324a2.8871,2.8871,0,0,0-.6308-.0723,2.9167,2.9167,0,0,0-2.1426.99V28h-2.2862Z"/><path class="cls-7" d="M195.1621,27.1a3.6,3.6,0,0,1-2.7549,1.1162,2.8976,2.8976,0,0,1-3.0254-2.8808,2.7542,2.7542,0,0,1,3.0254-2.7725,3.5154,3.5154,0,0,1,2.7549,1.0625V22.418c0-.8819-.7568-1.458-1.9092-1.458a3.6578,3.6578,0,0,0-2.5381,1.0263l-.8642-1.53a5.7019,5.7019,0,0,1,3.7988-1.3692c1.98,0,3.7988.793,3.7988,3.2959V28h-2.2861Zm0-2.2685a2.2891,2.2891,0,0,0-1.8369-.7559c-.9,0-1.6387.4678-1.6387,1.3144,0,.81.7383,1.2784,1.6387,1.2784a2.287,2.287,0,0,0,1.8369-.7569Z"/><path class="cls-7" d="M201.0645,25.84v-4.538H199.624V19.3037h1.4405V16.9268h2.3046v2.3769h1.7647v1.9981h-1.7647v3.9257c0,.54.2881.9541.792.9541a1.2493,1.2493,0,0,0,.792-.2519l.4864,1.7285a2.8241,2.8241,0,0,1-1.9083.5576A2.1732,2.1732,0,0,1,201.0645,25.84Z"/><path class="cls-7" d="M207.3643,16.6562a1.3687,1.3687,0,1,1,1.3681,1.3692A1.3792,1.3792,0,0,1,207.3643,16.6562Zm.2343,2.6475h2.2862V28h-2.2862Z"/><path class="cls-7" d="M212.4941,23.6426a4.6,4.6,0,0,1,9.2,0,4.6,4.6,0,0,1-9.2,0Zm6.8243,0a2.2416,2.2416,0,1,0-4.4483,0,2.2437,2.2437,0,1,0,4.4483,0Z"/><path class="cls-7" d="M230.1533,22.7422a1.4107,1.4107,0,0,0-1.6025-1.62,2.4784,2.4784,0,0,0-1.9805,1.0263V28h-2.2861V19.3037H226.57v1.1338a3.9847,3.9847,0,0,1,3.043-1.3506A2.53,2.53,0,0,1,232.44,21.86V28h-2.2871Z"/></g></g></svg>