<svg id="Layer_1" data-name="Layer 1" xmlns="http://www.w3.org/2000/svg" xmlns:xlink="http://www.w3.org/1999/xlink" width="333" height="60" viewBox="0 0 333 60"><defs><style>.cls-1{filter:url(#gtpjrlk74a);}.cls-2,.cls-3,.cls-5{fill-rule:evenodd;}.cls-3{fill:url(#linear-gradient);}.cls-4{filter:url(#w1ci42owtd);}.cls-5{fill:url(#linear-gradient-2);}.cls-6{isolation:isolate;}.cls-7{fill:#fff;}</style><filter id="gtpjrlk74a" x="-2.2%" y="-9.3%" width="104.3%" height="125.9%" name="gtpjrlk74a"><feOffset result="shadowOffsetOuter1" dy="2" in="SourceAlpha"/><feGaussianBlur result="shadowBlurOuter1" stdDeviation="2" in="shadowOffsetOuter1"/></filter><linearGradient id="linear-gradient" x1="-790.0449" y1="561.5741" x2="-790.0449" y2="560.5741" gradientTransform="matrix(323, 0, 0, -54, 255351, 30325)" gradientUnits="userSpaceOnUse"><stop offset="0" stop-color="#1fd893"/><stop offset="1" stop-color="#00bb75"/></linearGradient><filter id="w1ci42owtd" x="-2.3%" y="-10.2%" width="104.6%" height="127.8%" name="w1ci42owtd"><feGaussianBlur result="shadowBlurInner1" stdDeviation="1.5" in="SourceAlpha"/><feOffset result="shadowOffsetInner1" dy="-4" in="shadowBlurInner1"/><feComposite result="shadowInnerInner1" operator="arithmetic" k2="-1" k3="1" in="shadowOffsetInner1" in2="SourceAlpha"/></filter><linearGradient id="linear-gradient-2" x1="-789.7175" y1="553.4483" x2="-789.7175" y2="552.4483" gradientTransform="matrix(285, 0, 0, -29, 225236, 16053)" gradientUnits="userSpaceOnUse"><stop offset="0" stop-color="#fff" stop-opacity="0"/><stop offset="1" stop-color="#fff" stop-opacity="0.304"/></linearGradient></defs><g class="cls-1"><path id="_2xf1ik9oab" data-name="2xf1ik9oab" class="cls-2" d="M32,0H301a27,27,0,0,1,27,27h0a27,27,0,0,1-27,27H32A27,27,0,0,1,5,27H5A27,27,0,0,1,32,0Z"/></g><path id="_2xf1ik9oab-2" data-name="2xf1ik9oab" class="cls-3" d="M32,0H301a27,27,0,0,1,27,27h0a27,27,0,0,1-27,27H32A27,27,0,0,1,5,27H5A27,27,0,0,1,32,0Z"/><g class="cls-4"><path id="_2xf1ik9oab-3" data-name="2xf1ik9oab" class="cls-2" d="M32,0H301a27,27,0,0,1,27,27h0a27,27,0,0,1-27,27H32A27,27,0,0,1,5,27H5A27,27,0,0,1,32,0Z"/></g><path class="cls-5" d="M38.5,3h256A14.5,14.5,0,0,1,309,17.5h0A14.5,14.5,0,0,1,294.5,32H38.5A14.5,14.5,0,0,1,24,17.5h0A14.5,14.5,0,0,1,38.5,3Z"/><g class="cls-6"><g class="cls-6"><path class="cls-7" d="M125.5459,14.99h2.5566V24.749H133.18V27h-7.6343Z"/><path class="cls-7" d="M139.5513,18.0869c2.5927,0,4.3569,1.9453,4.3569,4.79v.5039h-6.4639a2.3434,2.3434,0,0,0,2.503,2.0166,3.5577,3.5577,0,0,0,2.3227-.8643l1.0083,1.4766a5.422,5.422,0,0,1-3.583,1.206,4.404,4.404,0,0,1-4.6455-4.5732A4.4264,4.4264,0,0,1,139.5513,18.0869Zm-2.1426,3.7451h4.2851a2.0141,2.0141,0,0,0-2.1425-1.9258A2.0893,2.0893,0,0,0,137.4087,21.832Z"/><path class="cls-7" d="M146.9121,24.84v-4.538h-1.44V18.3037h1.44V15.9268h2.3047v2.3769h1.7646v1.9981h-1.7646v3.9257c0,.54.2881.9541.792.9541a1.25,1.25,0,0,0,.7925-.2519l.4863,1.7285a2.8265,2.8265,0,0,1-1.9087.5576A2.1733,2.1733,0,0,1,146.9121,24.84Z"/><path class="cls-7" d="M153.3379,19.1855a3.0346,3.0346,0,0,0,1.3862-1.71.8213.8213,0,0,1-.3418.0713,1.2322,1.2322,0,0,1-1.2246-1.2959,1.438,1.438,0,0,1,1.4043-1.4405,1.6742,1.6742,0,0,1,1.6206,1.836,4.1989,4.1989,0,0,1-1.8545,3.35Z"/><path class="cls-7" d="M158.63,24.2637a4.9784,4.9784,0,0,0,3.0068,1.1875c.99,0,1.458-.3418,1.458-.8819,0-.6123-.7558-.8281-1.7461-1.0263-1.4946-.2881-3.4214-.6485-3.4214-2.7188,0-1.459,1.2789-2.7373,3.5655-2.7373a5.5584,5.5584,0,0,1,3.5107,1.1885l-.918,1.5664a3.6717,3.6717,0,0,0-2.5747-1.0078c-.8286,0-1.3686.3056-1.3686.8105,0,.54.6841.7383,1.6567.9356,1.4942.2881,3.4927.6845,3.4927,2.8447,0,1.585-1.35,2.791-3.7632,2.791a5.8525,5.8525,0,0,1-3.8891-1.3506Z"/><path class="cls-7" d="M173.4434,14.99h5.6171a3.7475,3.7475,0,0,1,4.0333,3.8711,3.74,3.74,0,0,1-4.0333,3.835H176V27h-2.5566Zm5.2754,2.1973H176V20.5h2.7188a1.66,1.66,0,1,0,0-3.3125Z"/><path class="cls-7" d="M185.5205,14.99h2.2871V27h-2.2871Z"/><path class="cls-7" d="M196.1963,26.1a3.5976,3.5976,0,0,1-2.7549,1.1162,2.8973,2.8973,0,0,1-3.0244-2.8808,2.7539,2.7539,0,0,1,3.0244-2.7725,3.5154,3.5154,0,0,1,2.7549,1.0625V21.418c0-.8819-.7559-1.458-1.9082-1.458a3.6584,3.6584,0,0,0-2.5391,1.0263l-.8642-1.53a5.7037,5.7037,0,0,1,3.7988-1.3692c1.9814,0,3.8.793,3.8,3.2959V27h-2.2871Zm0-2.2685a2.2858,2.2858,0,0,0-1.8359-.7559c-.9,0-1.6387.4678-1.6387,1.3144,0,.81.7383,1.2784,1.6387,1.2784a2.2836,2.2836,0,0,0,1.8359-.7569Z"/><path class="cls-7" d="M202.4053,28.4941a1.1536,1.1536,0,0,0,1.206-.63l.3242-.7383-3.5293-8.8223h2.4493l2.2685,6.05,2.2686-6.05h2.4668l-4.0869,10.1192a3.1616,3.1616,0,0,1-3.2959,2.1064,6.3143,6.3143,0,0,1-1.1338-.126l.3418-2.0527A1.98,1.98,0,0,0,202.4053,28.4941Z"/><path class="cls-7" d="M212.9531,24.2812a1.4493,1.4493,0,1,1,0,2.8985,1.4493,1.4493,0,0,1,0-2.8985Zm-1.3867-9.291h2.7549l-.36,8.1026h-2.0166Z"/></g></g></svg>