<svg id="Layer_1" data-name="Layer 1" xmlns="http://www.w3.org/2000/svg" xmlns:xlink="http://www.w3.org/1999/xlink" width="333" height="60" viewBox="0 0 333 60"><defs><style>.cls-1{filter:url(#gtpjrlk74a);}.cls-2,.cls-3,.cls-5{fill-rule:evenodd;}.cls-3{fill:url(#linear-gradient);}.cls-4{filter:url(#w1ci42owtd);}.cls-5{fill:url(#linear-gradient-2);}.cls-6{isolation:isolate;}.cls-7{fill:#fff;}</style><filter id="gtpjrlk74a" x="-2.2%" y="-9.3%" width="104.3%" height="125.9%" name="gtpjrlk74a"><feOffset result="shadowOffsetOuter1" dy="2" in="SourceAlpha"/><feGaussianBlur result="shadowBlurOuter1" stdDeviation="2" in="shadowOffsetOuter1"/></filter><linearGradient id="linear-gradient" x1="-790.0449" y1="561.5741" x2="-790.0449" y2="560.5741" gradientTransform="matrix(323, 0, 0, -54, 255351, 30325)" gradientUnits="userSpaceOnUse"><stop offset="0" stop-color="#1fd893"/><stop offset="1" stop-color="#00bb75"/></linearGradient><filter id="w1ci42owtd" x="-2.3%" y="-10.2%" width="104.6%" height="127.8%" name="w1ci42owtd"><feGaussianBlur result="shadowBlurInner1" stdDeviation="1.5" in="SourceAlpha"/><feOffset result="shadowOffsetInner1" dy="-4" in="shadowBlurInner1"/><feComposite result="shadowInnerInner1" operator="arithmetic" k2="-1" k3="1" in="shadowOffsetInner1" in2="SourceAlpha"/></filter><linearGradient id="linear-gradient-2" x1="-789.7175" y1="553.4483" x2="-789.7175" y2="552.4483" gradientTransform="matrix(285, 0, 0, -29, 225236, 16053)" gradientUnits="userSpaceOnUse"><stop offset="0" stop-color="#fff" stop-opacity="0"/><stop offset="1" stop-color="#fff" stop-opacity="0.304"/></linearGradient></defs><g class="cls-1"><path id="_2xf1ik9oab" data-name="2xf1ik9oab" class="cls-2" d="M32,0H301a27,27,0,0,1,27,27h0a27,27,0,0,1-27,27H32A27,27,0,0,1,5,27H5A27,27,0,0,1,32,0Z"/></g><path id="_2xf1ik9oab-2" data-name="2xf1ik9oab" class="cls-3" d="M32,0H301a27,27,0,0,1,27,27h0a27,27,0,0,1-27,27H32A27,27,0,0,1,5,27H5A27,27,0,0,1,32,0Z"/><g class="cls-4"><path id="_2xf1ik9oab-3" data-name="2xf1ik9oab" class="cls-2" d="M32,0H301a27,27,0,0,1,27,27h0a27,27,0,0,1-27,27H32A27,27,0,0,1,5,27H5A27,27,0,0,1,32,0Z"/></g><path class="cls-5" d="M38.5,3h256A14.5,14.5,0,0,1,309,17.5h0A14.5,14.5,0,0,1,294.5,32H38.5A14.5,14.5,0,0,1,24,17.5h0A14.5,14.5,0,0,1,38.5,3Z"/><g class="cls-6"><g class="cls-6"><path class="cls-7" d="M58.564,14.99h2.5566V27H58.564Z"/><path class="cls-7" d="M77.5562,24.93H72.19L71.4341,27H68.6255l4.645-12.01h3.2051L81.103,27H78.312Zm-4.6817-2.2149h3.98l-1.981-5.51Z"/><path class="cls-7" d="M83.9077,27.5762a3.4556,3.4556,0,0,0,2.7188,1.08,2.1257,2.1257,0,0,0,2.395-2.1962v-.8829a3.3873,3.3873,0,0,1-2.6831,1.3692c-2.1787,0-3.835-1.53-3.835-4.43,0-2.8447,1.6387-4.43,3.835-4.43a3.3488,3.3488,0,0,1,2.6831,1.333V18.3037h2.3047v8.1025c0,3.3126-2.5572,4.1231-4.7,4.1231a5.2714,5.2714,0,0,1-3.7452-1.2969Zm5.1138-6.4639a2.48,2.48,0,0,0-1.9629-.99,2.1559,2.1559,0,0,0-2.1963,2.3945,2.1559,2.1559,0,0,0,2.1963,2.3945,2.5321,2.5321,0,0,0,1.9629-.99Z"/><path class="cls-7" d="M94.4912,18.3037h2.2866v1.1885a3.72,3.72,0,0,1,2.773-1.3867v2.2324a2.8862,2.8862,0,0,0-.63-.0723,2.916,2.916,0,0,0-2.1426.99V27H94.4912Z"/><path class="cls-7" d="M105.8145,18.0869c2.5927,0,4.3569,1.9453,4.3569,4.79v.5039h-6.4639a2.3433,2.3433,0,0,0,2.5029,2.0166,3.5577,3.5577,0,0,0,2.3228-.8643l1.0083,1.4766a5.4222,5.4222,0,0,1-3.583,1.206,4.404,4.404,0,0,1-4.6455-4.5732A4.4264,4.4264,0,0,1,105.8145,18.0869Zm-2.1426,3.7451h4.2851a2.0141,2.0141,0,0,0-2.1425-1.9258A2.0893,2.0893,0,0,0,103.6719,21.832Z"/><path class="cls-7" d="M116.668,18.0869c2.5927,0,4.3569,1.9453,4.3569,4.79v.5039H114.561a2.3434,2.3434,0,0,0,2.503,2.0166,3.5577,3.5577,0,0,0,2.3227-.8643L120.395,26.01a5.422,5.422,0,0,1-3.583,1.206,4.404,4.404,0,0,1-4.6455-4.5732A4.4264,4.4264,0,0,1,116.668,18.0869Zm-2.1426,3.7451h4.2851a2.0141,2.0141,0,0,0-2.1425-1.9258A2.0893,2.0893,0,0,0,114.5254,21.832Z"/><path class="cls-7" d="M123.3989,28.6562a3.0186,3.0186,0,0,0,1.3863-1.6738,1.3712,1.3712,0,0,1-.3418.0537,1.2373,1.2373,0,0,1-1.2246-1.3144,1.4379,1.4379,0,0,1,1.4042-1.44,1.6746,1.6746,0,0,1,1.6207,1.837,4.1988,4.1988,0,0,1-1.8545,3.3486Z"/><path class="cls-7" d="M134.0005,21.0039a6.0793,6.0793,0,0,1,6.3017-6.2119,5.54,5.54,0,0,1,5.1133,2.9355l-2.1963,1.08a3.2893,3.2893,0,0,0-2.917-1.7471,3.7225,3.7225,0,0,0-3.6728,3.9434,3.7224,3.7224,0,0,0,3.6728,3.9434,3.2556,3.2556,0,0,0,2.917-1.7461l2.1963,1.0625a5.5737,5.5737,0,0,1-5.1133,2.9521A6.0787,6.0787,0,0,1,134.0005,21.0039Z"/><path class="cls-7" d="M147.7886,18.3037h2.2866v1.1885a3.7209,3.7209,0,0,1,2.7729-1.3867v2.2324a2.886,2.886,0,0,0-.63-.0723,2.9159,2.9159,0,0,0-2.1426.99V27h-2.2866Z"/><path class="cls-7" d="M159.1118,18.0869c2.5928,0,4.3574,1.9453,4.3574,4.79v.5039h-6.4643a2.3432,2.3432,0,0,0,2.5029,2.0166,3.5577,3.5577,0,0,0,2.3228-.8643l1.0083,1.4766a5.4222,5.4222,0,0,1-3.583,1.206,4.404,4.404,0,0,1-4.6455-4.5732A4.4263,4.4263,0,0,1,159.1118,18.0869Zm-2.1426,3.7451h4.2852a2.0142,2.0142,0,0,0-2.1426-1.9258A2.0893,2.0893,0,0,0,156.9692,21.832Z"/><path class="cls-7" d="M171.2432,26.1a3.5977,3.5977,0,0,1-2.7549,1.1162,2.8972,2.8972,0,0,1-3.0244-2.8808,2.7539,2.7539,0,0,1,3.0244-2.7725,3.5156,3.5156,0,0,1,2.7549,1.0625V21.418c0-.8819-.7559-1.458-1.9082-1.458a3.6562,3.6562,0,0,0-2.5386,1.0263l-.8643-1.53a5.7018,5.7018,0,0,1,3.7984-1.3692c1.9814,0,3.8.793,3.8,3.2959V27h-2.2871Zm0-2.2685a2.2874,2.2874,0,0,0-1.836-.7559c-.9,0-1.6386.4678-1.6386,1.3144,0,.81.7382,1.2784,1.6386,1.2784a2.2852,2.2852,0,0,0,1.836-.7569Z"/><path class="cls-7" d="M177.1465,24.84v-4.538h-1.44V18.3037h1.44V15.9268h2.3047v2.3769h1.7646v1.9981h-1.7646v3.9257c0,.54.2881.9541.792.9541a1.2493,1.2493,0,0,0,.792-.2519l.4863,1.7285a2.824,2.824,0,0,1-1.9082.5576A2.1733,2.1733,0,0,1,177.1465,24.84Z"/><path class="cls-7" d="M187.623,18.0869c2.5928,0,4.3575,1.9453,4.3575,4.79v.5039h-6.4639a2.343,2.343,0,0,0,2.5029,2.0166,3.5564,3.5564,0,0,0,2.3223-.8643l1.0088,1.4766a5.4231,5.4231,0,0,1-3.583,1.206,4.4038,4.4038,0,0,1-4.6455-4.5732A4.4263,4.4263,0,0,1,187.623,18.0869Zm-2.1425,3.7451h4.2851a2.0136,2.0136,0,0,0-2.1426-1.9258A2.09,2.09,0,0,0,185.4805,21.832Z"/><path class="cls-7" d="M207.748,24.93h-5.3652L201.626,27h-2.8086l4.6455-12.01h3.2051L211.2949,27h-2.791Zm-4.6816-2.2149h3.98l-1.98-5.51Z"/><path class="cls-7" d="M217.3047,18.0869a4.045,4.045,0,0,1,3.4394,1.5674l-1.4951,1.4043a2.1078,2.1078,0,0,0-1.8359-.9365,2.3232,2.3232,0,0,0-2.3584,2.5205,2.3388,2.3388,0,0,0,2.3584,2.539,2.1939,2.1939,0,0,0,1.8359-.9365l1.4951,1.3867a4.0093,4.0093,0,0,1-3.4394,1.584,4.4157,4.4157,0,0,1-4.6094-4.5732A4.4115,4.4115,0,0,1,217.3047,18.0869Z"/><path class="cls-7" d="M227.1865,18.0869a4.0454,4.0454,0,0,1,3.44,1.5674l-1.4951,1.4043a2.1081,2.1081,0,0,0-1.836-.9365,2.3232,2.3232,0,0,0-2.3584,2.5205,2.3388,2.3388,0,0,0,2.3584,2.539,2.1942,2.1942,0,0,0,1.836-.9365l1.4951,1.3867a4.01,4.01,0,0,1-3.44,1.584,4.4157,4.4157,0,0,1-4.6094-4.5732A4.4115,4.4115,0,0,1,227.1865,18.0869Z"/><path class="cls-7" d="M232.459,22.6426a4.6008,4.6008,0,0,1,9.2012,0,4.6007,4.6007,0,0,1-9.2012,0Zm6.8242,0a2.2411,2.2411,0,1,0-4.4473,0,2.2432,2.2432,0,1,0,4.4473,0Z"/><path class="cls-7" d="M250.1191,25.9014a4.0682,4.0682,0,0,1-3.06,1.3144,2.49,2.49,0,0,1-2.81-2.7363V18.3037h2.2871v5.2754a1.3982,1.3982,0,0,0,1.6026,1.6025,2.5613,2.5613,0,0,0,1.98-.99V18.3037h2.2862V27h-2.2862Z"/><path class="cls-7" d="M261.44,21.7422a1.4107,1.4107,0,0,0-1.6025-1.62,2.4784,2.4784,0,0,0-1.9805,1.0263V27h-2.2861V18.3037h2.2861v1.1338a3.9847,3.9847,0,0,1,3.043-1.3506,2.53,2.53,0,0,1,2.8271,2.7735V27H261.44Z"/><path class="cls-7" d="M267.3428,24.84v-4.538h-1.44V18.3037h1.44V15.9268h2.3047v2.3769h1.7646v1.9981h-1.7646v3.9257c0,.54.288.9541.792.9541a1.25,1.25,0,0,0,.7929-.2519l.4864,1.7285a2.829,2.829,0,0,1-1.9092.5576A2.1733,2.1733,0,0,1,267.3428,24.84Z"/><path class="cls-7" d="M275.0469,24.2812a1.4493,1.4493,0,1,1,0,2.8985,1.4493,1.4493,0,0,1,0-2.8985Zm-1.3858-9.291h2.7539l-.3593,8.1026h-2.0166Z"/></g></g></svg>