<svg width="65" height="65" viewBox="0 0 65 65" fill="none" xmlns="http://www.w3.org/2000/svg">
<mask id="mask0" mask-type="alpha" maskUnits="userSpaceOnUse" x="0" y="0" width="65" height="65">
<path fill-rule="evenodd" clip-rule="evenodd" d="M0 0H65V65H0V0Z" fill="white"/>
</mask>
<g mask="url(#mask0)">
<path fill-rule="evenodd" clip-rule="evenodd" d="M15.6176 10.3205L13.5677 7.49502C13.1968 6.983 12.4673 6.87439 11.9775 7.27454C7.74317 10.7386 4.39405 15.2488 2.32703 20.409C2.08984 21.001 2.41913 21.6715 3.02391 21.8683L6.33962 22.9478C6.89957 23.1299 7.49213 22.8392 7.71709 22.2937C9.40021 18.2074 12.0647 14.6273 15.4114 11.8443C15.8686 11.4638 15.9664 10.8015 15.6176 10.3205M58.6834 23.0083L61.9983 21.9287C62.6031 21.7319 62.9324 21.0631 62.6969 20.4719C60.6535 15.3411 57.3427 10.8505 53.1556 7.38723C52.6666 6.983 51.9338 7.08998 51.5614 7.60445L49.509 10.4332C49.1626 10.9117 49.2572 11.5675 49.7095 11.948C53.0146 14.7294 55.6432 18.2915 57.3052 22.3517C57.5285 22.898 58.1227 23.1904 58.6834 23.0083M33.4195 60.3758V63.8692C33.4195 64.5062 33.9518 65.0256 34.5859 64.9847C40.28 64.6222 45.5787 62.7856 50.1073 59.849C50.6371 59.5052 50.7569 58.7785 50.3868 58.2673L48.3378 55.4409C47.9889 54.96 47.3303 54.8497 46.8299 55.169C43.2044 57.4776 38.9913 58.9352 34.4693 59.266C33.8809 59.3093 33.4195 59.7853 33.4195 60.3758M6.24181 41.7969L2.92773 42.8757C2.3254 43.0717 1.99611 43.7356 2.22677 44.326C4.26282 49.5409 7.60216 54.1042 11.8438 57.6123C12.3336 58.0166 13.0664 57.9088 13.4389 57.3951L15.4888 54.5696C15.8368 54.0903 15.7406 53.4313 15.2883 53.0499C11.9343 50.226 9.27958 46.5978 7.62254 42.4609C7.40247 41.9105 6.80502 41.6132 6.24181 41.7969M49.6394 54.4594L51.6893 57.2865C52.0634 57.8018 52.8003 57.9079 53.2893 57.4996C57.4837 53.9923 60.7839 49.4486 62.7971 44.2631C63.0261 43.6735 62.6969 43.0112 62.0953 42.8153L58.7813 41.7365C58.2164 41.5528 57.6181 41.8508 57.3989 42.4037C55.7647 46.5121 53.1459 50.1232 49.835 52.9446C49.3876 53.3267 49.2938 53.9825 49.6394 54.4594M5.70549 32.4998C5.70549 30.2051 5.9981 27.9774 6.54257 25.8501C6.69091 25.2736 6.38119 24.6791 5.81634 24.4945L2.49738 23.4141C1.8983 23.2189 1.2438 23.5595 1.08241 24.1703C0.378193 26.83 0 29.6212 0 32.4998C0 35.2804 0.355371 37.9776 1.01476 40.5549C1.17207 41.1706 1.8282 41.516 2.43136 41.32L5.75195 40.2388C6.31354 40.0567 6.62245 39.4688 6.48144 38.8955C5.97773 36.845 5.70549 34.7038 5.70549 32.4998M62.5175 23.477L59.1994 24.5574C58.6345 24.7411 58.3248 25.334 58.4715 25.9105C59.0062 28.0198 59.2947 30.2263 59.2947 32.4998C59.2947 34.6834 59.0274 36.8042 58.5318 38.8367C58.3925 39.41 58.7014 39.993 59.2613 40.176L62.5836 41.2572C63.1875 41.454 63.8445 41.1069 64.001 40.4904C64.6498 37.9327 65.0002 35.2575 65.0002 32.4998C65.0002 29.6449 64.6269 26.8749 63.9333 24.2356C63.7727 23.6232 63.1182 23.2818 62.5175 23.477M15.0381 59.9454C19.5919 62.8632 24.9151 64.672 30.6295 64.9986C31.2604 65.0337 31.7894 64.5152 31.7894 63.8823V60.3896C31.7894 59.7951 31.3223 59.3174 30.7298 59.279C26.1907 58.981 21.9556 57.5503 18.3089 55.2597C17.8068 54.9444 17.1499 55.0563 16.8019 55.5365L14.7536 58.3603C14.3819 58.8732 14.5058 59.6041 15.0381 59.9454M49.9622 5.05498C45.4654 2.17314 40.2188 0.373321 34.5851 0.0148274C33.9518 -0.0260034 33.4195 0.49418 33.4195 1.13032V4.6238C33.4195 5.21503 33.8809 5.69112 34.4701 5.73358C38.9343 6.06023 43.1001 7.48359 46.6946 9.74235C47.195 10.0567 47.8487 9.94487 48.1967 9.46551L50.2458 6.63921C50.6175 6.12638 50.4944 5.39632 49.9622 5.05498M18.4418 9.65497C22.0591 7.41336 26.2461 6.0145 30.7298 5.72052C31.3223 5.68214 31.7894 5.20442 31.7894 4.60992V1.11726C31.7894 0.484381 31.2604 -0.0341695 30.6295 0.00176155C24.9762 0.324325 19.7051 2.09638 15.1839 4.95862C14.6476 5.29914 14.5213 6.03165 14.8946 6.54612L16.9461 9.37487C17.2917 9.85177 17.9421 9.96447 18.4418 9.65497" fill="#DFE0DF"/>
</g>
<mask id="mask1" mask-type="alpha" maskUnits="userSpaceOnUse" x="0" y="0" width="65" height="65">
<path fill-rule="evenodd" clip-rule="evenodd" d="M0 0H65V65H0V0Z" fill="white"/>
</mask>
<g mask="url(#mask1)">
<path fill-rule="evenodd" clip-rule="evenodd" d="M58.6834 23L61.9983 21.9211C62.6039 21.7242 62.9324 21.0553 62.6969 20.464C60.6535 15.3314 57.3427 10.8408 53.1556 7.37686C52.6666 6.97174 51.9338 7.07956 51.5614 7.5933L49.509 10.4226C49.1626 10.9012 49.258 11.5571 49.7095 11.9377C53.0146 14.7196 55.644 18.2824 57.306 22.3433C57.5285 22.8906 58.1235 23.183 58.6834 23M33.4195 60.3754V63.8695C33.4195 64.5058 33.9518 65.0261 34.5867 64.9852C40.28 64.6218 45.5787 62.7848 50.1081 59.8477C50.6371 59.5047 50.7569 58.777 50.3868 58.2657L48.3378 55.4396C47.9889 54.9577 47.3303 54.8483 46.8299 55.1668C43.2044 57.4758 38.9913 58.9346 34.4693 59.2646C33.8809 59.3079 33.4195 59.784 33.4195 60.3754M6.24181 41.7922L2.92773 42.872C2.3254 43.0672 1.99611 43.7321 2.22677 44.3218C4.26282 49.5377 7.60216 54.1018 11.8438 57.6106C12.3336 58.0157 13.0664 57.9079 13.4389 57.3942L15.4888 54.5673C15.8368 54.0887 15.7406 53.4288 15.2883 53.0481C11.9351 50.2238 9.27958 46.594 7.62254 42.4571C7.40247 41.9058 6.80584 41.6093 6.24181 41.7922M49.6394 54.4579L51.6893 57.2847C52.0634 57.8001 52.8003 57.9063 53.2893 57.4979C57.4837 53.9899 60.7839 49.4454 62.7971 44.2597C63.0261 43.67 62.6969 43.0068 62.0961 42.8116L58.7813 41.7326C58.2164 41.548 57.6182 41.8461 57.3989 42.3991C55.7647 46.5091 53.1459 50.12 49.8359 52.9428C49.3876 53.3242 49.2938 53.9809 49.6394 54.4579M5.70549 32.4941C5.70549 30.1982 5.9981 27.9701 6.54257 25.8424C6.69091 25.2657 6.38119 24.6711 5.81634 24.4865L2.49738 23.4068C1.8983 23.2107 1.2438 23.5513 1.08241 24.1623C0.378193 26.8233 0 29.6142 0 32.4941C0 35.2744 0.355371 37.973 1.01476 40.5508C1.17207 41.1666 1.8282 41.5121 2.43136 41.3152L5.75277 40.2347C6.31354 40.0517 6.62245 39.4644 6.48144 38.8911C5.97773 36.8394 5.70549 34.6986 5.70549 32.4941M62.5175 23.4697L59.1994 24.5494C58.6345 24.734 58.3256 25.327 58.4715 25.9036C59.0062 28.0125 59.2948 30.2194 59.2948 32.4941C59.2948 34.6774 59.0274 36.7993 58.5318 38.8323C58.3933 39.4048 58.7014 39.9888 59.2613 40.171L62.5836 41.2524C63.1875 41.4492 63.8445 41.1029 64.001 40.4862C64.6498 37.9273 65.0002 35.2516 65.0002 32.4941C65.0002 29.6379 64.6269 26.8682 63.9333 24.2276C63.7727 23.615 63.1182 23.2736 62.5175 23.4697M15.0381 59.9441C19.5919 62.8624 24.9151 64.6724 30.6295 64.9983C31.2604 65.0342 31.7894 64.5156 31.7894 63.8818V60.3884C31.7894 59.7938 31.3223 59.3168 30.7298 59.2785C26.1907 58.9803 21.9556 57.5485 18.3089 55.2583C17.8068 54.9422 17.1499 55.0549 16.8019 55.5344L14.7544 58.3596C14.3819 58.8717 14.5058 59.6027 15.0381 59.9441M49.9622 5.04335C45.4654 2.16179 40.2188 0.361629 34.5859 0.0022511C33.9518 -0.0385874 33.4195 0.481695 33.4195 1.11796V4.6121C33.4195 5.20344 33.8809 5.67961 34.4701 5.7229C38.9351 6.04879 43.1001 7.47324 46.6946 9.7316C47.195 10.0461 47.8487 9.93416 48.1967 9.45554L50.2458 6.6287C50.6175 6.11577 50.4944 5.38558 49.9622 5.04335" fill="#0AC47E"/>
<path fill-rule="evenodd" clip-rule="evenodd" d="M30.7228 -0.134129C25.4259 0.548918 20.2496 2.54237 15.7035 5.88786C15.1915 6.26419 15.1182 7.00486 15.5272 7.49227L17.7732 10.1689C18.1533 10.6219 18.8128 10.6902 19.292 10.3445C22.9219 7.72416 27.0281 6.13813 31.2332 5.55767C31.8187 5.47687 32.2476 4.97097 32.2065 4.38061L31.9591 0.897995C31.9142 0.266161 31.3505 -0.214087 30.7228 -0.134129" fill="#0AC47E"/>
<path fill-rule="evenodd" clip-rule="evenodd" d="M16.1469 11.5038L14.4023 8.48564C14.0838 7.9342 13.3612 7.75198 12.8318 8.10534C8.2362 11.1712 4.5321 15.3433 2.0144 20.159C1.71982 20.7216 1.97762 21.4159 2.55759 21.6735L5.75175 23.0927C6.29194 23.332 6.91365 23.1024 7.19206 22.5816C9.22602 18.7703 12.1642 15.4576 15.7909 12.9877C16.2799 12.6562 16.4422 12.0134 16.1469 11.5038" fill="#0AC47E"/>
</g>
</svg>
