<svg width="65" height="65" viewBox="0 0 65 65" fill="none" xmlns="http://www.w3.org/2000/svg">
<mask id="mask0" mask-type="alpha" maskUnits="userSpaceOnUse" x="0" y="0" width="65" height="65">
<path fill-rule="evenodd" clip-rule="evenodd" d="M0 0H65V65H0V0Z" fill="white"/>
</mask>
<g mask="url(#mask0)">
<path fill-rule="evenodd" clip-rule="evenodd" d="M15.6176 10.3205L13.5677 7.49502C13.1968 6.983 12.4673 6.87439 11.9775 7.27454C7.74317 10.7386 4.39405 15.2488 2.32703 20.409C2.08984 21.001 2.41913 21.6715 3.02391 21.8683L6.33962 22.9478C6.89957 23.1299 7.49213 22.8392 7.71709 22.2937C9.40021 18.2074 12.0647 14.6273 15.4114 11.8443C15.8686 11.4638 15.9664 10.8015 15.6176 10.3205M58.6834 23.0083L61.9983 21.9287C62.6031 21.7319 62.9324 21.0631 62.6969 20.4719C60.6535 15.3411 57.3427 10.8505 53.1556 7.38723C52.6666 6.983 51.9338 7.08998 51.5614 7.60445L49.509 10.4332C49.1626 10.9117 49.2572 11.5675 49.7095 11.948C53.0146 14.7294 55.6432 18.2915 57.3052 22.3517C57.5285 22.898 58.1227 23.1904 58.6834 23.0083M33.4195 60.3758V63.8692C33.4195 64.5062 33.9518 65.0256 34.5859 64.9847C40.28 64.6222 45.5787 62.7856 50.1073 59.849C50.6371 59.5052 50.7569 58.7785 50.3868 58.2673L48.3378 55.4409C47.9889 54.96 47.3303 54.8497 46.8299 55.169C43.2044 57.4776 38.9913 58.9352 34.4693 59.266C33.8809 59.3093 33.4195 59.7853 33.4195 60.3758M6.24181 41.7969L2.92773 42.8757C2.3254 43.0717 1.99611 43.7356 2.22677 44.326C4.26282 49.5409 7.60216 54.1042 11.8438 57.6123C12.3336 58.0166 13.0664 57.9088 13.4389 57.3951L15.4888 54.5696C15.8368 54.0903 15.7406 53.4313 15.2883 53.0499C11.9343 50.226 9.27958 46.5978 7.62254 42.4609C7.40247 41.9105 6.80502 41.6132 6.24181 41.7969M49.6394 54.4594L51.6893 57.2865C52.0634 57.8018 52.8003 57.9079 53.2893 57.4996C57.4837 53.9923 60.7839 49.4486 62.7971 44.2631C63.0261 43.6735 62.6969 43.0112 62.0953 42.8153L58.7813 41.7365C58.2164 41.5528 57.6181 41.8508 57.3989 42.4037C55.7647 46.5121 53.1459 50.1232 49.835 52.9446C49.3876 53.3267 49.2938 53.9825 49.6394 54.4594M5.70549 32.4998C5.70549 30.2051 5.9981 27.9774 6.54257 25.8501C6.69091 25.2736 6.38119 24.6791 5.81634 24.4945L2.49738 23.4141C1.8983 23.2189 1.2438 23.5595 1.08241 24.1703C0.378193 26.83 0 29.6212 0 32.4998C0 35.2804 0.355371 37.9776 1.01476 40.5549C1.17207 41.1706 1.8282 41.516 2.43136 41.32L5.75195 40.2388C6.31354 40.0567 6.62245 39.4688 6.48144 38.8955C5.97773 36.845 5.70549 34.7038 5.70549 32.4998M62.5175 23.477L59.1994 24.5574C58.6345 24.7411 58.3248 25.334 58.4715 25.9105C59.0062 28.0198 59.2947 30.2263 59.2947 32.4998C59.2947 34.6834 59.0274 36.8042 58.5318 38.8367C58.3925 39.41 58.7014 39.993 59.2613 40.176L62.5836 41.2572C63.1875 41.454 63.8445 41.1069 64.001 40.4904C64.6498 37.9327 65.0002 35.2575 65.0002 32.4998C65.0002 29.6449 64.6269 26.8749 63.9333 24.2356C63.7727 23.6232 63.1182 23.2818 62.5175 23.477M15.0381 59.9454C19.5919 62.8632 24.9151 64.672 30.6295 64.9986C31.2604 65.0337 31.7894 64.5152 31.7894 63.8823V60.3896C31.7894 59.7951 31.3223 59.3174 30.7298 59.279C26.1907 58.981 21.9556 57.5503 18.3089 55.2597C17.8068 54.9444 17.1499 55.0563 16.8019 55.5365L14.7536 58.3603C14.3819 58.8732 14.5058 59.6041 15.0381 59.9454M49.9622 5.05498C45.4654 2.17314 40.2188 0.373321 34.5851 0.0148274C33.9518 -0.0260034 33.4195 0.49418 33.4195 1.13032V4.6238C33.4195 5.21503 33.8809 5.69112 34.4701 5.73358C38.9343 6.06023 43.1001 7.48359 46.6946 9.74235C47.195 10.0567 47.8487 9.94487 48.1967 9.46551L50.2458 6.63921C50.6175 6.12638 50.4944 5.39632 49.9622 5.05498M18.4418 9.65497C22.0591 7.41336 26.2461 6.0145 30.7298 5.72052C31.3223 5.68214 31.7894 5.20442 31.7894 4.60992V1.11726C31.7894 0.484381 31.2604 -0.0341695 30.6295 0.00176155C24.9762 0.324325 19.7051 2.09638 15.1839 4.95862C14.6476 5.29914 14.5213 6.03165 14.8946 6.54612L16.9461 9.37487C17.2917 9.85177 17.9421 9.96447 18.4418 9.65497" fill="#DFE0DF"/>
</g>
<mask id="mask1" mask-type="alpha" maskUnits="userSpaceOnUse" x="0" y="0" width="65" height="65">
<path fill-rule="evenodd" clip-rule="evenodd" d="M0 0H65V65H0V0Z" fill="white"/>
</mask>
<g mask="url(#mask1)">
<path fill-rule="evenodd" clip-rule="evenodd" d="M58.6834 23L61.9983 21.9211C62.6038 21.7242 62.9323 21.0553 62.6968 20.464C60.6534 15.3314 57.3426 10.8408 53.1556 7.37686C52.6665 6.97174 51.9338 7.07956 51.5613 7.5933L49.5089 10.4226C49.1625 10.9012 49.2579 11.5571 49.7094 11.9377C53.0145 14.7196 55.644 18.2824 57.3059 22.3433C57.5284 22.8906 58.1234 23.183 58.6834 23M49.6393 54.4579L51.6892 57.2847C52.0634 57.8001 52.8002 57.9063 53.2892 57.4979C57.4836 53.9899 60.7838 49.4454 62.797 44.2597C63.0261 43.67 62.6968 43.0068 62.0961 42.8116L58.7812 41.7326C58.2163 41.548 57.6181 41.8461 57.3988 42.3991C55.7646 46.5091 53.1458 50.12 49.8358 52.9428C49.3875 53.3242 49.2937 53.9809 49.6393 54.4579M62.5175 23.4697L59.1993 24.5494C58.6345 24.734 58.3255 25.327 58.4714 25.9036C59.0061 28.0125 59.2947 30.2194 59.2947 32.4941C59.2947 34.6774 59.0273 36.7993 58.5318 38.8323C58.3932 39.4048 58.7013 39.9888 59.2612 40.171L62.5835 41.2524C63.1874 41.4492 63.8444 41.1029 64.0009 40.4862C64.6497 37.9273 65.0002 35.2516 65.0002 32.4941C65.0002 29.6379 64.6269 26.8682 63.9332 24.2276C63.7727 23.615 63.1182 23.2736 62.5175 23.4697M49.9621 5.04335C45.4654 2.16179 40.2188 0.361629 34.5858 0.0022511C33.9517 -0.0385874 33.4194 0.481695 33.4194 1.11796V4.6121C33.4194 5.20344 33.8808 5.67961 34.4701 5.7229C38.935 6.04879 43.1 7.47324 46.6945 9.7316C47.1949 10.0461 47.8486 9.93416 48.1967 9.45554L50.2458 6.6287C50.6174 6.11577 50.4943 5.38558 49.9621 5.04335" fill="#0AC47E"/>
</g>
</svg>
