<svg id="Layer_1" data-name="Layer 1" xmlns="http://www.w3.org/2000/svg" xmlns:xlink="http://www.w3.org/1999/xlink" width="217.61" height="65" viewBox="0 0 217.61 65"><defs><style>.cls-1{fill:none;}.cls-2{clip-path:url(#clip-path);}.cls-3{fill:#a7a9ab;}.cls-4{fill:#fff;}</style><clipPath id="clip-path"><rect class="cls-1" width="217.6094" height="65"/></clipPath></defs><g id="surface1"><path d="M209.4258,63.2422H8.1914A7.3819,7.3819,0,0,1,.8086,55.8594V8.1875A7.3819,7.3819,0,0,1,8.1914.8047H209.4258a7.3819,7.3819,0,0,1,7.3828,7.3828V55.8594a7.3819,7.3819,0,0,1-7.3828,7.3828"/><g class="cls-2"><path class="cls-3" d="M8.1875,1.6133A6.5817,6.5817,0,0,0,1.6133,8.1875V55.8594a6.5817,6.5817,0,0,0,6.5742,6.5742H209.4258A6.5817,6.5817,0,0,0,216,55.8594V8.1875a6.5817,6.5817,0,0,0-6.5742-6.5742ZM209.4258,64.0508H8.1875A8.1988,8.1988,0,0,1,0,55.8594V8.1875A8.1988,8.1988,0,0,1,8.1875-.0039H209.4258a8.1988,8.1988,0,0,1,8.1875,8.1914V55.8594a8.1988,8.1988,0,0,1-8.1875,8.1914"/></g><path class="cls-4" d="M75.4609,16.7617l-.8281-2.5937c-.2031-.6407-.375-1.3555-.5312-1.9649H74.07c-.1523.6094-.3125,1.34-.4961,1.9649l-.8125,2.5937Zm-3.0117,1.4492-.9062,2.9844H69.5586l3.375-10.5234h2.4492l3.418,10.5234H76.7422l-.9531-2.9844"/><path class="cls-4" d="M81.6719,13.5938l1.2343,3.8515c.2188.6719.3711,1.2813.5118,1.9063h.0468c.1407-.625.3125-1.2188.5157-1.9063l1.2187-3.8515h2.0117l-2.9023,7.6015H82.4219l-2.8281-7.6015"/><path class="cls-4" d="M93.0039,17.4766c-1.3594-.0157-2.6562.2656-2.6562,1.4218a1.0087,1.0087,0,0,0,1.0937,1.0938,1.5725,1.5725,0,0,0,1.5117-1.0469,1.2025,1.2025,0,0,0,.0508-.4219Zm1.8711,1.8906A10.1831,10.1831,0,0,0,95,21.1914H93.2656l-.1367-.84h-.0508a2.7762,2.7762,0,0,1-2.2461,1.0117,2.2524,2.2524,0,0,1-2.3867-2.2617c0-1.9063,1.6992-2.8868,4.5078-2.8711v-.125c0-.5-.1992-1.3282-1.5429-1.3282a4.03,4.03,0,0,0-2.0469.5625l-.375-1.25a5.4836,5.4836,0,0,1,2.75-.6679c2.4336,0,3.1367,1.5429,3.1367,3.2148"/><path class="cls-4" d="M97.59,13.5938h1.918v7.6015H97.59ZM98.5391,12.5a1.0853,1.0853,0,1,1,.0195,0"/><path class="cls-4" d="M102.27,21.1953h1.9219V10.0938H102.27Z"/><path class="cls-4" d="M110.9961,17.4766c-1.3594-.0157-2.6563.2656-2.6563,1.4218a1.0088,1.0088,0,0,0,1.0938,1.0938,1.5779,1.5779,0,0,0,1.5156-1.0469,1.297,1.297,0,0,0,.0469-.4219Zm1.8711,1.8906a10.1831,10.1831,0,0,0,.125,1.8242h-1.73l-.1406-.84h-.0469a2.79,2.79,0,0,1-2.25,1.0117,2.2547,2.2547,0,0,1-2.3867-2.2617c0-1.9063,1.7031-2.8868,4.5117-2.8711v-.125c0-.5-.2031-1.3282-1.5469-1.3282a4.0042,4.0042,0,0,0-2.0429.5625l-.375-1.25a5.4667,5.4667,0,0,1,2.7461-.6679c2.4336,0,3.1367,1.5429,3.1367,3.2148"/><path class="cls-4" d="M117.5039,18.0547a2.1179,2.1179,0,0,0,.0469.4531,1.7545,1.7545,0,0,0,1.6992,1.3438c1.2031,0,1.9375-.9532,1.9375-2.4961,0-1.3438-.6406-2.4375-1.9219-2.4375a1.7818,1.7818,0,0,0-1.6992,1.4062,2.299,2.299,0,0,0-.0625.5Zm-1.9219-7.9609h1.9219v4.5429h.0313a2.743,2.743,0,0,1,2.4336-1.2148c1.8593,0,3.1835,1.5429,3.1679,3.8554,0,2.73-1.7305,4.09-3.4492,4.09a2.6121,2.6121,0,0,1-2.4023-1.3125h-.0313l-.0937,1.1406H115.52c.0313-.5156.0625-1.3594.0625-2.125"/><path class="cls-4" d="M125.3984,21.1953h1.918V10.0938h-1.918Z"/><path class="cls-4" d="M134.793,16.59a1.6353,1.6353,0,0,0-1.5742-1.8593,1.88,1.88,0,0,0-1.7657,1.8593Zm-3.34,1.34a2.0674,2.0674,0,0,0,2.3438,1.9687,6.1227,6.1227,0,0,0,2.1054-.3437l.2813,1.3086a6.7571,6.7571,0,0,1-2.6524.4844,3.5957,3.5957,0,0,1-3.9218-3.836c0-2.1094,1.2812-4.09,3.7187-4.09,2.4649,0,3.2774,2.0273,3.2774,3.6992a4.645,4.645,0,0,1-.0625.8086"/><path class="cls-4" d="M146.1406,19.9766c1.09,0,1.8555-1.0625,1.8555-2.6055,0-1.1875-.5313-2.5625-1.84-2.5625-1.3593,0-1.9062,1.3281-1.9062,2.5937,0,1.4649.7344,2.5743,1.8711,2.5743Zm-.0625,1.3906a3.6749,3.6749,0,0,1-3.8086-3.918,3.7507,3.7507,0,0,1,3.9336-4.0273,3.6468,3.6468,0,0,1,3.7774,3.9023,3.764,3.764,0,0,1-3.8867,4.043"/><path class="cls-4" d="M152.2383,15.8555c0-.875-.0274-1.6094-.0586-2.2657h1.668l.0937,1.1407h.0469a2.7915,2.7915,0,0,1,2.4375-1.3086c1.3242,0,2.6992.8554,2.6992,3.2617v4.5078h-1.9219V16.9023c0-1.0937-.4062-1.9218-1.4492-1.9218a1.6127,1.6127,0,0,0-1.5,1.125,1.7836,1.7836,0,0,0-.0937.6093v4.4766h-1.9219"/><path class="cls-4" d="M167.9727,11.6406V13.59h1.8242v1.4375h-1.8242v3.34c0,.9375.25,1.4062.98,1.4062a2.5028,2.5028,0,0,0,.75-.0781l.0313,1.4492a4.1147,4.1147,0,0,1-1.3906.2032,2.21,2.21,0,0,1-1.6524-.6211,2.9985,2.9985,0,0,1-.6094-2.1407V15.0273h-1.0781V13.59h1.0781V12.1719"/><path class="cls-4" d="M171.9336,10.0938h1.9219v4.5273h.0312a2.529,2.529,0,0,1,.9531-.8594,2.7355,2.7355,0,0,1,1.3243-.34c1.2968,0,2.6523.8554,2.6523,3.2929v4.48h-1.918V16.918c0-1.0938-.4062-1.9375-1.4687-1.9375a1.6024,1.6024,0,0,0-1.4961,1.0781,1.7267,1.7267,0,0,0-.0781.5781v4.5586h-1.9219"/><path class="cls-4" d="M186.2461,16.59a1.6359,1.6359,0,0,0-1.5781-1.8593,1.8768,1.8768,0,0,0-1.7618,1.8593Zm-3.34,1.34a2.064,2.064,0,0,0,2.34,1.9687,6.09,6.09,0,0,0,2.1055-.3437l.2851,1.3086a6.7632,6.7632,0,0,1-2.6562.4844,3.5946,3.5946,0,0,1-3.918-3.836c0-2.1094,1.2813-4.09,3.7148-4.09,2.4649,0,3.2774,2.0273,3.2774,3.6992a4.645,4.645,0,0,1-.0625.8086"/><path class="cls-4" d="M48.5664,31.3984a9.3523,9.3523,0,0,1,4.4609-7.8593,9.59,9.59,0,0,0-7.5585-4.086c-3.1758-.332-6.2579,1.9063-7.875,1.9063-1.6524,0-4.1485-1.8711-6.8321-1.8164a10.0674,10.0674,0,0,0-8.4687,5.164c-3.6563,6.34-.93,15.6524,2.5781,20.7774,1.7578,2.5078,3.8047,5.3125,6.4883,5.2109,2.625-.1094,3.6054-1.6719,6.7734-1.6719,3.1406,0,4.0625,1.6719,6.8008,1.6094,2.8164-.0469,4.59-2.52,6.2812-5.0547a20.5974,20.5974,0,0,0,2.875-5.8515,9.0571,9.0571,0,0,1-5.5234-8.3282"/><path class="cls-4" d="M43.3945,16.0859a9.2105,9.2105,0,0,0,2.1094-6.6093,9.4079,9.4079,0,0,0-6.07,3.1406A8.768,8.768,0,0,0,37.27,18.9805a7.7472,7.7472,0,0,0,6.125-2.8946"/><path class="cls-4" d="M80.2461,41.34l-1.8125-5.5976q-.2871-.8554-1.082-4.0352h-.0625c-.211.91-.5547,2.2578-1.02,4.0352L74.4883,41.34Zm6.2656,8.9414h-3.66l-2.0039-6.2968h-6.961l-1.91,6.2968H68.4141L75.32,28.8438h4.2578"/><path class="cls-4" d="M100.7617,42.4883a6.364,6.364,0,0,0-1.02-3.7227,3.5193,3.5193,0,0,0-2.9883-1.5273,3.5645,3.5645,0,0,0-2.3047.8437,3.953,3.953,0,0,0-1.3554,2.2149,4.4585,4.4585,0,0,0-.1563,1.0429V43.918a4.1318,4.1318,0,0,0,1.0313,2.8476,3.4227,3.4227,0,0,0,2.6874,1.16,3.4946,3.4946,0,0,0,3.02-1.4961,6.534,6.534,0,0,0,1.0859-3.9414m3.5-.1289a8.7816,8.7816,0,0,1-2.1328,6.2344,6.2306,6.2306,0,0,1-4.7383,2.0351A4.7417,4.7417,0,0,1,93,48.4336h-.0625v8.1445H89.5V39.91q0-2.4786-.125-5.09h3.0195l.1914,2.4531h.0664a6.1052,6.1052,0,0,1,9.7774-.6054,8.5282,8.5282,0,0,1,1.832,5.6914"/><path class="cls-4" d="M118.5391,42.4883a6.364,6.364,0,0,0-1.02-3.7227,3.5193,3.5193,0,0,0-2.9883-1.5273,3.5721,3.5721,0,0,0-2.3046.8437,3.9,3.9,0,0,0-1.3477,2.2149,4.2932,4.2932,0,0,0-.16,1.0429V43.918a4.1293,4.1293,0,0,0,1.0273,2.8476,3.4253,3.4253,0,0,0,2.6914,1.16A3.5037,3.5037,0,0,0,117.457,46.43a6.5866,6.5866,0,0,0,1.0821-3.9414m3.4961-.1289a8.78,8.78,0,0,1-2.129,6.2344,6.2245,6.2245,0,0,1-4.7382,2.0351,4.75,4.75,0,0,1-4.3907-2.1953h-.0585v8.1445h-3.4376V39.91q0-2.4786-.125-5.09h3.02l.1914,2.4531h.0664a6.1052,6.1052,0,0,1,9.7773-.6054,8.5243,8.5243,0,0,1,1.8243,5.6914"/><path class="cls-4" d="M141.918,44.27a5.7177,5.7177,0,0,1-1.9063,4.4532,8.4439,8.4439,0,0,1-5.8359,1.875,10.2492,10.2492,0,0,1-5.5625-1.336l.7969-2.8594a9.4418,9.4418,0,0,0,4.9687,1.3633,4.6983,4.6983,0,0,0,3.0234-.8711,2.87,2.87,0,0,0,1.0782-2.3437,2.9928,2.9928,0,0,0-.8867-2.1992,8.3515,8.3515,0,0,0-2.961-1.6563q-5.6309-2.1035-5.6289-6.1484a5.44,5.44,0,0,1,1.9727-4.3321,7.7891,7.7891,0,0,1,5.2461-1.6914,10.4352,10.4352,0,0,1,4.8671,1.02l-.8593,2.8008a8.4484,8.4484,0,0,0-4.1016-.9883,4.14,4.14,0,0,0-2.8281.8906,2.5591,2.5591,0,0,0-.8594,1.9414,2.6085,2.6085,0,0,0,.9844,2.0977,11.1975,11.1975,0,0,0,3.1172,1.6562,10.57,10.57,0,0,1,4.07,2.6055A5.4716,5.4716,0,0,1,141.918,44.27"/><path class="cls-4" d="M153.27,37.3984h-3.7851v7.5039q0,2.8653,2.0078,2.8633a6.1727,6.1727,0,0,0,1.5234-.1562l.0938,2.6054a7.6265,7.6265,0,0,1-2.668.3829,4.1341,4.1341,0,0,1-3.1836-1.2383,6.1,6.1,0,0,1-1.1445-4.168v-7.793h-2.2578V34.82h2.2578V31.9922l3.3711-1.02V34.82H153.27"/><path class="cls-4" d="M166.7891,42.5352a6.961,6.961,0,0,0-.9258-3.668,3.3844,3.3844,0,0,0-3.0821-1.8516,3.4413,3.4413,0,0,0-3.1484,1.8516,7.097,7.097,0,0,0-.918,3.7344,6.9346,6.9346,0,0,0,.918,3.664,3.4671,3.4671,0,0,0,3.1211,1.8516,3.43,3.43,0,0,0,3.082-1.8828,6.943,6.943,0,0,0,.9532-3.6992m3.5625-.1094a8.4675,8.4675,0,0,1-2.0352,5.8515,7.263,7.263,0,0,1-5.66,2.3516,6.92,6.92,0,0,1-5.4257-2.2578,8.2253,8.2253,0,0,1-2.0157-5.6914,8.3843,8.3843,0,0,1,2.0821-5.8828,7.1919,7.1919,0,0,1,5.6093-2.293,7.0658,7.0658,0,0,1,5.4727,2.2578,8.1555,8.1555,0,0,1,1.9727,5.6641"/><path class="cls-4" d="M181.5156,37.8438a5.9584,5.9584,0,0,0-1.082-.0938,3.2532,3.2532,0,0,0-2.8008,1.3672,5.1626,5.1626,0,0,0-.8555,3.0508v8.1132h-3.4335l.0273-10.59q0-2.6778-.125-4.8711h2.9922l.125,2.9609h.09a5.3109,5.3109,0,0,1,1.7188-2.4492,4.1713,4.1713,0,0,1,2.4843-.8281,5.6775,5.6775,0,0,1,.8594.0625"/><path class="cls-4" d="M193.5977,40.93a4.6692,4.6692,0,0,0-.6641-2.6406,3.01,3.01,0,0,0-2.7383-1.4336,3.2678,3.2678,0,0,0-2.7344,1.4023,5.0717,5.0717,0,0,0-1.0117,2.6719Zm3.2734.8906a8.3871,8.3871,0,0,1-.1211,1.5586H186.4492a4.4637,4.4637,0,0,0,1.4922,3.5,5.0894,5.0894,0,0,0,3.3711,1.0781,11.4046,11.4046,0,0,0,4.168-.73l.539,2.3867a12.9982,12.9982,0,0,1-5.1875.957,7.4864,7.4864,0,0,1-5.6445-2.1211,7.8146,7.8146,0,0,1-2.0508-5.6758,8.8349,8.8349,0,0,1,1.91-5.82,6.57,6.57,0,0,1,5.4023-2.48,5.7589,5.7589,0,0,1,5.0625,2.48,8.3387,8.3387,0,0,1,1.3594,4.8672"/></g></svg>