<?xml version="1.0" encoding="UTF-8"?>
<svg width="18px" height="18px" viewBox="0 0 18 18" version="1.1" xmlns="http://www.w3.org/2000/svg" xmlns:xlink="http://www.w3.org/1999/xlink">
    <!-- Generator: Sketch 64 (93537) - https://sketch.com -->
    <title>Icon/Cancel</title>
    <desc>Created with Sketch.</desc>
    <g id="Page-1" stroke="none" stroke-width="1" fill="none" fill-rule="evenodd">
        <g id="A-2" transform="translate(-229.000000, -40.000000)" fill="#655BF5">
            <g id="Icon/close" transform="translate(226.000000, 37.000000)">
                <path d="M13,2 C13.5522847,2 14,2.44771525 14,3 L14,10 L21,10 C21.5522847,10 22,10.4477153 22,11 L22,13 C22,13.5522847 21.5522847,14 21,14 L14,14 L14,21 C14,21.5522847 13.5522847,22 13,22 L11,22 C10.4477153,22 10,21.5522847 10,21 L10,14 L3,14 C2.44771525,14 2,13.5522847 2,13 L2,11 C2,10.4477153 2.44771525,10 3,10 L10,10 L10,3 C10,2.44771525 10.4477153,2 11,2 L13,2 Z" id="Combined-Shape-Copy-2" transform="translate(12.000000, 12.000000) rotate(-135.000000) translate(-12.000000, -12.000000) "></path>
            </g>
        </g>
    </g>
</svg>