<svg xmlns="http://www.w3.org/2000/svg" width="18" height="18" viewBox="0 0 18 18">
    <defs>
        <filter id="h13ig7ieka">
            <feColorMatrix in="SourceGraphic" values="0 0 0 0 0.168627 0 0 0 0 0.713725 0 0 0 0 0.450980 0 0 0 1.000000 0"/>
        </filter>
    </defs>
    <g fill="none" fill-rule="evenodd">
        <g>
            <g filter="url(#h13ig7ieka)" transform="translate(-446 -537) translate(426 430)">
                <g>
                    <path fill="#2BB673" fill-rule="nonzero" d="M12.938 4.031H10.75c0-.982-.785-1.781-1.75-1.781s-1.75.799-1.75 1.781H5.062c-.724 0-1.312.599-1.312 1.336v9.797c0 .738.588 1.336 1.313 1.336h7.875c.724 0 1.312-.598 1.312-1.336V5.367c0-.737-.588-1.336-1.313-1.336zM9 3.363c.364 0 .656.298.656.668 0 .37-.292.668-.656.668-.364 0-.656-.298-.656-.668 0-.37.292-.668.656-.668zm3.314 6.452l-3.91 3.946c-.129.131-.336.128-.465-.002L5.68 11.44c-.128-.13-.125-.342.003-.473l.777-.785c.128-.13.336-.128.465.003l1.257 1.291 2.899-2.928c.128-.13.336-.128.465.003l.77.79c.13.134.127.343-.002.474z" transform="translate(20 107)"/>
                </g>
            </g>
        </g>
    </g>
</svg>
