<svg id="Layer_1" data-name="Layer 1" xmlns="http://www.w3.org/2000/svg" viewBox="0 0 78.04 46.18">
  <defs>
    <style>
      .cls-1,.cls-4{fill:#26225d;}.cls-1,.cls-2,.cls-5,.cls-6{fill-rule:evenodd;}.cls-2,.cls-6{fill:#d5d2c0;}.cls-2,.cls-3{stroke:#26225d;stroke-width:2.23px;}.cls-3{fill:none;stroke-linecap:round;}.cls-5{fill:#fefefe;}.cls-7{isolation:isolate;}.cls-8{fill:#fff;}
    </style>
  </defs>
  <path class="cls-1" d="M8.91,0H69.09a2.22,2.22,0,0,1,2.22,2.23V16.58H6.69V2.23A2.22,2.22,0,0,1,8.91,0Z"
        transform="translate(0.02)"/>
  <path class="cls-2"
        d="M11.14,29.61a5.74,5.74,0,0,1-5.56-5.7v-.23H7.8a6.88,6.88,0,0,1-6.68-6.83v-.27H45.68a2.23,2.23,0,0,1,2.23,2.23v13.3a2.23,2.23,0,0,1-2.23,2.23H14.48A4.59,4.59,0,0,1,10,29.78v-.17Z"
        transform="translate(0.02)"/>
  <path class="cls-3" d="M7.8,23.68a6.88,6.88,0,0,1-6.68-6.83v-.27H23.4" transform="translate(0.02)"/>
  <path class="cls-3"
        d="M19.71,29.61H11.14a5.74,5.74,0,0,1-5.56-5.7v-.23h8.92M23.4,34.34H14.48A4.59,4.59,0,0,1,10,29.78v-.17h4.45"
        transform="translate(0.02)"/>
  <path class="cls-2"
        d="M66.86,29.61a5.74,5.74,0,0,0,5.57-5.7v-.23H70.2a6.88,6.88,0,0,0,6.68-6.83v-.27H32.32a2.23,2.23,0,0,0-2.23,2.23v13.3a2.23,2.23,0,0,0,2.23,2.23h31.2A4.59,4.59,0,0,0,68,29.78v-.17Z"
        transform="translate(0.02)"/>
  <path class="cls-3" d="M70.2,23.68a6.88,6.88,0,0,0,6.68-6.83v-.27H54.6" transform="translate(0.02)"/>
  <path class="cls-3"
        d="M58.29,29.61h8.57a5.74,5.74,0,0,0,5.56-5.7v-.23H63.51M54.6,34.34h8.92A4.59,4.59,0,0,0,68,29.78v-.17H63.52"
        transform="translate(0.02)"/>
  <ellipse class="cls-4" cx="39.02" cy="29.6" rx="15.6" ry="16.58"/>
  <path class="cls-5"
        d="M52.19,29.65c0,7.8-5.94,14.12-13.28,14.12S25.63,37.45,25.63,29.65s5.95-14.11,13.28-14.11,13.28,6.32,13.28,14.11"
        transform="translate(0.02)"/>
  <path class="cls-6"
        d="M52,27.46a14.38,14.38,0,0,1,.16,2.19c0,7.8-5.94,14.12-13.28,14.12S25.63,37.45,25.63,29.65a14.38,14.38,0,0,1,.16-2.19,14.81,14.81,0,0,0,.75,2.93,1.67,1.67,0,0,0-.05.31,1.61,1.61,0,0,0,.93,1.63v0h.05a1.53,1.53,0,0,0,.29.07,1.63,1.63,0,0,1,1,1.66,1.57,1.57,0,0,1,0,.23,1.49,1.49,0,0,0,0,.21,1.54,1.54,0,0,0,1.86,1.71h0a1.37,1.37,0,0,1,.57-.06,1.56,1.56,0,0,1,1.39,1.46h0a1.58,1.58,0,0,0,1.39,1.57,1.46,1.46,0,0,0,1.16-.43h0a1.45,1.45,0,0,1,1.14-.41,1.51,1.51,0,0,1,1.24.92h0a1.53,1.53,0,0,0,1.28,1,1.51,1.51,0,0,0,1.54-1,1.54,1.54,0,0,1,1.51-.92,1.49,1.49,0,0,1,.86.39,1.49,1.49,0,0,0,.92.45,1.55,1.55,0,0,0,1.64-1.47v-.07a.08.08,0,0,0,0,0,1.55,1.55,0,0,1,1.64-1.48,1.12,1.12,0,0,1,.36.09h0a1.09,1.09,0,0,0,.26,0,1.55,1.55,0,0,0,1.65-1.47,1.87,1.87,0,0,0,0-.53,2.33,2.33,0,0,1,0-.46,1.63,1.63,0,0,1,1-1.38l.25-.07h0a1.63,1.63,0,0,0,1-1.38,1.74,1.74,0,0,0-.08-.65A13.73,13.73,0,0,0,52,27.46ZM38.9,35.21H39A1.58,1.58,0,0,1,40.43,37a1.93,1.93,0,0,1-.14.55A1.54,1.54,0,0,0,39,36.58a1.5,1.5,0,0,0-1.44.8l-.07.13-.05-.15a2.1,2.1,0,0,1-.09-.5v-.17a1.56,1.56,0,0,1,1.37-1.47Zm-4.41-.57A1.57,1.57,0,0,1,36,36.25a1.66,1.66,0,0,1-.46,1.15.34.34,0,0,0,0-.1A1.57,1.57,0,0,0,34,35.68a1.47,1.47,0,0,0-1.07.47A1.56,1.56,0,0,1,34.49,34.64Zm8.65,0a1.56,1.56,0,0,1,1.51,1.51,1.46,1.46,0,0,0-1.07-.47,1.58,1.58,0,0,0-1.52,1.62s0,.07,0,.1a1.66,1.66,0,0,1-.46-1.15A1.57,1.57,0,0,1,43.14,34.64ZM31.2,32.19A1.6,1.6,0,0,1,32.48,34a1.63,1.63,0,0,1-.65,1.11,2.36,2.36,0,0,0,.1-.38,1.6,1.6,0,0,0-1.29-1.83,1.44,1.44,0,0,0-1.07.26A1.52,1.52,0,0,1,31.2,32.19Zm17,1a1.44,1.44,0,0,0-1.07-.26,1.6,1.6,0,0,0-1.29,1.83,2.36,2.36,0,0,0,.1.38A1.63,1.63,0,0,1,45.33,34a1.6,1.6,0,0,1,1.28-1.83A1.52,1.52,0,0,1,48.24,33.18ZM38.71,31a1.58,1.58,0,0,1,1.52,1.62,1.24,1.24,0,0,1,0,.33,1.77,1.77,0,0,0-3,0,1.84,1.84,0,0,1,0-.33A1.58,1.58,0,0,1,38.71,31Zm-3.79-.58a1.63,1.63,0,0,1,.49,2.45,1.87,1.87,0,0,0-1-1.44,1.68,1.68,0,0,0-1.67,0,1.28,1.28,0,0,1,.11-.31A1.47,1.47,0,0,1,34.92,30.44Zm9.63.7c0,.1.08.21.11.31a1.68,1.68,0,0,0-1.67,0,1.89,1.89,0,0,0-1,1.44,2.61,2.61,0,0,1-.17-.28,1.67,1.67,0,0,1,.66-2.18A1.49,1.49,0,0,1,44.55,31.14Zm-15.9-2.23a1.58,1.58,0,0,1,1.52,1.62,1.63,1.63,0,0,1-.77,1.4,1.66,1.66,0,0,0,.3-1,1.57,1.57,0,0,0-1.52-1.61,1.37,1.37,0,0,0-.75.21A1.48,1.48,0,0,1,28.65,28.91Zm20.83,0a1.47,1.47,0,0,1,1.21.66,1.37,1.37,0,0,0-.75-.21A1.57,1.57,0,0,0,48.42,31a1.73,1.73,0,0,0,.3,1,1.64,1.64,0,0,1-.76-1.4A1.58,1.58,0,0,1,49.48,28.91ZM38.76,26.84a1.57,1.57,0,0,1,1.52,1.61,1.86,1.86,0,0,1,0,.34,1.77,1.77,0,0,0-3,0,1.87,1.87,0,0,1,0-.34A1.57,1.57,0,0,1,38.76,26.84ZM28.06,25a1.58,1.58,0,0,1,1.52,1.62,1.63,1.63,0,0,1-.77,1.4,1.66,1.66,0,0,0,.3-1,1.57,1.57,0,0,0-1.52-1.61,1.39,1.39,0,0,0-.75.21A1.49,1.49,0,0,1,28.06,25Zm21.42,0a1.47,1.47,0,0,1,1.21.66,1.37,1.37,0,0,0-.75-.21A1.57,1.57,0,0,0,48.42,27a1.73,1.73,0,0,0,.3,1,1.64,1.64,0,0,1-.76-1.4A1.58,1.58,0,0,1,49.48,25Z"
        transform="translate(0.02)"/>
  <g class="cls-7">
    <g class="cls-7">
      <path class="cls-8" d="M11.1,3.92h4.77V5.54H13v1.7h2.45v1.6H13v2.6H11.1Z" transform="translate(0.02)"/>
      <path class="cls-8"
            d="M23.12,3.92A.84.84,0,0,1,24,4.8v5.76a.84.84,0,0,1-.88.88H19.25a.84.84,0,0,1-.88-.88V4.8a.84.84,0,0,1,.88-.88ZM22.06,5.67a.12.12,0,0,0-.12-.12H20.41a.12.12,0,0,0-.1.12v4a.11.11,0,0,0,.1.1h1.53c.07,0,.12,0,.12-.1Z"
            transform="translate(0.02)"/>
      <path class="cls-8"
            d="M28.89,3.92V9.71a.11.11,0,0,0,.1.1h1.42a.11.11,0,0,0,.12-.1V3.92h1.94v6.66a.85.85,0,0,1-.85.86H27.81a.87.87,0,0,1-.86-.86V3.92Z"
            transform="translate(0.02)"/>
      <path class="cls-8" d="M37.27,7.31v4.13H35.49V3.92h1.78l2.25,4.14V3.92H41.3v7.52H39.47Z"
            transform="translate(0.02)"/>
      <path class="cls-8"
            d="M48.37,3.92A1.54,1.54,0,0,1,49.9,5.45V9.9a1.55,1.55,0,0,1-1.53,1.54h-4V3.92ZM48,6.08a.52.52,0,0,0-.55-.54H46.26V9.81h1.16A.52.52,0,0,0,48,9.27Z"
            transform="translate(0.02)"/>
      <path class="cls-8" d="M52.85,3.92h4.91V5.54h-3V6.85h2.58v1.6H54.78V9.81h3v1.63H52.85Z"
            transform="translate(0.02)"/>
      <path class="cls-8"
            d="M65.24,3.92a.85.85,0,0,1,.85.85V8.21a.86.86,0,0,1-.85.85h-.06l.93,2.38h-1.9l-.93-2.38h-.82v2.38H60.52V3.92ZM64.16,5.65a.12.12,0,0,0-.1-.11h-1.6v2h1.6a.13.13,0,0,0,.1-.1Z"
            transform="translate(0.02)"/>
    </g>
  </g>
</svg>
