<svg xmlns="http://www.w3.org/2000/svg" xmlns:xlink="http://www.w3.org/1999/xlink" width="56" height="56" viewBox="0 0 56 56">
    <defs>
        <path id="prefix__a" d="M0 0.091L55.445 0.091 55.445 55.536 0 55.536z"/>
        <path id="prefix__c" d="M0 0.217L55.445 0.217 55.445 32.256 0 32.256z"/>
    </defs>
    <g fill="none" fill-rule="evenodd">
        <g transform="translate(0 .19)">
            <mask id="prefix__b" fill="#fff">
                <use xlink:href="#prefix__a"/>
            </mask>
            <path fill="#FEFEFE" d="M55.445 27.813c0 15.311-12.412 27.723-27.722 27.723C12.412 55.536 0 43.124 0 27.813 0 12.503 12.412.091 27.723.091c15.31 0 27.722 12.412 27.722 27.722" mask="url(#prefix__b)"/>
        </g>
        <g transform="translate(0 23.47)">
            <mask id="prefix__d" fill="#fff">
                <use xlink:href="#prefix__c"/>
            </mask>
            <path fill="#D5D2C0" d="M55.109.217c-.306 1.96-.826 3.847-1.522 5.647.132.397.188.825.15 1.268-.107 1.26-.94 2.281-2.05 2.698l-.003.007c-.014.002-.027.007-.04.01-.17.06-.346.107-.527.138-1.137.403-1.994 1.433-2.103 2.713-.026.306-.006.604.05.89-.002.004-.005.007-.009.01.085.334.12.686.088 1.048-.149 1.746-1.684 3.04-3.43 2.89-.187-.015-.369-.05-.545-.097l-.022.019c-.238-.081-.489-.138-.75-.16-1.746-.15-3.282 1.145-3.43 2.89l-.003.072-.016.008c-.002.046 0 .091-.005.138-.148 1.745-1.684 3.039-3.43 2.89-.75-.064-1.416-.386-1.921-.87-.49-.423-1.106-.707-1.8-.766-1.356-.116-2.583.642-3.133 1.804l-.014.001c-.506 1.26-1.79 2.1-3.213 1.979-1.235-.106-2.241-.907-2.673-1.984l-.02-.002c-.469-.982-1.428-1.699-2.592-1.798-.905-.077-1.752.236-2.38.798l-.018-.006c-.633.59-1.501.923-2.431.844-1.626-.139-2.858-1.48-2.9-3.074l-.019-.01c-.137-1.5-1.33-2.735-2.886-2.867-.416-.036-.819.013-1.194.128l-.012-.01c-.318.075-.652.103-.994.074-1.745-.15-3.04-1.685-2.89-3.43.011-.136.034-.269.062-.398l-.006-.007c.036-.15.064-.304.077-.463.125-1.46-.762-2.767-2.077-3.244-.21-.032-.414-.084-.608-.154-.04-.007-.078-.015-.118-.02l-.017-.03c-1.24-.516-2.062-1.788-1.942-3.198.018-.21.057-.411.112-.606C1.185 4.15.65 2.221.336.217.116 1.624 0 3.065 0 4.533c0 15.311 12.412 27.723 27.723 27.723 15.31 0 27.722-12.412 27.722-27.723 0-1.468-.116-2.91-.336-4.316" mask="url(#prefix__d)"/>
        </g>
        <path fill="#D5D2C0" d="M27.992 41.609c1.171.1 2.137.825 2.602 1.818.154-.328.256-.688.289-1.07.149-1.746-1.145-3.281-2.89-3.43-1.746-.15-3.282 1.145-3.43 2.89-.05.575.06 1.125.288 1.611.547-1.17 1.779-1.936 3.141-1.82M18.486 37.792c-1.682 0-3.054 1.31-3.161 2.965.572-.566 1.359-.915 2.228-.915 1.751 0 3.171 1.42 3.171 3.171 0 .07-.006.138-.01.207.582-.575.944-1.373.944-2.256 0-1.752-1.42-3.172-3.172-3.172M36.537 37.792c1.682 0 3.054 1.31 3.162 2.965-.573-.566-1.36-.915-2.229-.915-1.751 0-3.171 1.42-3.171 3.171 0 .07.006.138.01.207-.582-.575-.944-1.373-.944-2.256 0-1.752 1.42-3.172 3.172-3.172M11.622 32.989c-1.469-.213-2.845.618-3.385 1.93.63-.423 1.412-.627 2.224-.51 1.733.252 2.935 1.861 2.683 3.595-.038.265-.112.515-.21.752.717-.482 1.237-1.25 1.371-2.173.251-1.734-.95-3.343-2.683-3.594M43.799 32.989c1.468-.213 2.844.618 3.384 1.93-.63-.423-1.412-.627-2.223-.51-1.734.252-2.935 1.861-2.684 3.595.039.265.112.515.21.752-.717-.482-1.237-1.25-1.37-2.173-.252-1.734.95-3.343 2.683-3.594M6.297 26.55c-1.042 0-1.964.506-2.542 1.282.462-.263.996-.416 1.567-.416 1.752 0 3.172 1.42 3.172 3.171 0 .71-.236 1.362-.63 1.89.958-.545 1.605-1.573 1.605-2.755 0-1.751-1.42-3.171-3.172-3.171M5.065 18.773c-1.042 0-1.964.506-2.542 1.282.462-.264.996-.417 1.567-.417 1.752 0 3.172 1.42 3.172 3.172 0 .71-.236 1.362-.63 1.89.958-.546 1.605-1.574 1.605-2.755 0-1.752-1.42-3.172-3.172-3.172M49.77 26.55c1.044 0 1.965.506 2.544 1.282-.463-.263-.997-.416-1.568-.416-1.752 0-3.172 1.42-3.172 3.171 0 .71.236 1.362.63 1.89-.958-.545-1.605-1.573-1.605-2.755 0-1.751 1.42-3.171 3.172-3.171M27.3 32.932c1.327 0 2.483.64 3.102 1.589.045-.212.07-.431.07-.657 0-1.751-1.42-3.171-3.172-3.171-1.751 0-3.171 1.42-3.171 3.171 0 .226.025.445.07.657.62-.949 1.775-1.589 3.101-1.589M18.383 31.533c1.182.602 1.92 1.698 2.04 2.824.137-.168.26-.352.361-.552.796-1.56.177-3.47-1.383-4.267-1.56-.796-3.47-.177-4.267 1.384-.103.2-.18.407-.235.617.982-.564 2.302-.61 3.484-.006M49.77 18.773c1.044 0 1.965.506 2.544 1.282-.463-.264-.997-.417-1.568-.417-1.752 0-3.172 1.42-3.172 3.172 0 .71.236 1.362.63 1.89-.958-.546-1.605-1.574-1.605-2.755 0-1.752 1.42-3.172 3.172-3.172M36.233 31.533c-1.181.602-1.92 1.698-2.04 2.824-.137-.168-.258-.352-.361-.552-.796-1.56-.176-3.47 1.384-4.267 1.56-.796 3.47-.177 4.267 1.384.102.2.18.407.235.617-.983-.564-2.303-.61-3.485-.006M27.397 24.71c1.327 0 2.482.64 3.101 1.588.046-.211.071-.43.071-.656 0-1.752-1.42-3.172-3.172-3.172-1.751 0-3.171 1.42-3.171 3.172 0 .225.025.445.07.656.62-.948 1.775-1.588 3.101-1.588"/>
    </g>
</svg>
