<svg xmlns="http://www.w3.org/2000/svg" width="24" height="24" viewBox="0 0 24 24">
    <defs>
        <linearGradient id="dsv1k0d2oa" x1="50%" x2="50%" y1="0%" y2="100%">
            <stop offset="0%" stop-color="#FFE296"/>
            <stop offset="100%" stop-color="#FFC530"/>
        </linearGradient>
        <linearGradient id="hqg5bkrceb" x1="43.726%" x2="71.029%" y1="44.075%" y2="71.267%">
            <stop offset="0%" stop-color="#26225D"/>
            <stop offset="100%" stop-color="#110F29"/>
        </linearGradient>
        <linearGradient id="7a0ifipsqc" x1="50%" x2="50%" y1="0%" y2="100%">
            <stop offset="0%" stop-color="#FFE296"/>
            <stop offset="100%" stop-color="#FFC530"/>
        </linearGradient>
        <linearGradient id="1kt038cpod" x1="50%" x2="50%" y1="0%" y2="100%">
            <stop offset="0%" stop-color="#FFE296"/>
            <stop offset="100%" stop-color="#FFC530"/>
        </linearGradient>
        <linearGradient id="405v5lmc4e" x1="50%" x2="50%" y1="0%" y2="100%">
            <stop offset="0%" stop-color="#FFC530"/>
            <stop offset="100%" stop-color="#FFE296"/>
        </linearGradient>
    </defs>
    <g fill="none" fill-rule="evenodd">
        <path fill="url(#dsv1k0d2oa)" d="M8.182 9.818H16.091V11.727H8.182z"/>
        <path fill="url(#hqg5bkrceb)" d="M8.182 0L16.165 0 20.727 8.182 12.744 8.182z" transform="matrix(-1 0 0 1 28.91 0)"/>
        <path fill="url(#7a0ifipsqc)" d="M16.364 7.09c.753 0 1.363.611 1.363 1.365v.272c0 .753-.61 1.364-1.363 1.364H7.909c-.753 0-1.364-.61-1.364-1.364v-.272c0-.754.611-1.364 1.364-1.364h8.455zm0 1.092H7.909c-.14 0-.255.105-.27.24l-.003.033v.272c0 .14.106.255.241.271L7.91 9h8.455c.14 0 .255-.105.27-.24l.002-.033v-.272c0-.14-.105-.256-.24-.271l-.032-.002z"/>
        <path fill="#4F47C2" d="M3.273 0L11.256 0 15.818 8.182 7.835 8.182z"/>
        <path fill="#655BF5" d="M5.455 0L8.961 0 13.636 8.182 10.13 8.182z"/>
        <circle cx="12.273" cy="16.909" r="7.091" fill="url(#1kt038cpod)"/>
        <path fill="url(#405v5lmc4e)" d="M12.273 11.727c2.862 0 5.182 2.32 5.182 5.182 0 2.862-2.32 5.182-5.182 5.182-2.862 0-5.182-2.32-5.182-5.182 0-2.862 2.32-5.182 5.182-5.182zm0 1.091c-2.26 0-4.091 1.832-4.091 4.091 0 2.26 1.831 4.091 4.09 4.091 2.26 0 4.092-1.832 4.092-4.09 0-2.26-1.832-4.092-4.091-4.092z"/>
        <path fill="#FFC530" style="mix-blend-mode:multiply" d="M12.148 14.084L11.305 15.787 9.418 16.06 10.783 17.386 10.461 19.257 12.148 18.374 13.836 19.257 13.514 17.386 14.879 16.06 12.992 15.787z"/>
    </g>
</svg>
