<?xml version="1.0" encoding="UTF-8"?>
<svg width="17px" height="5px" viewBox="0 0 17 5" version="1.1" xmlns="http://www.w3.org/2000/svg" xmlns:xlink="http://www.w3.org/1999/xlink">
    <title>components/graphics/tee</title>
    <g id="Symbols" stroke="none" stroke-width="1" fill="none" fill-rule="evenodd">
        <g id="component/overlay/practiceTest-Mobile" transform="translate(-213.000000, -281.000000)" fill="#1F8252">
            <g id="Group-8" transform="translate(127.000000, 233.000000)">
                <g id="components/graphics/tee" transform="translate(94.500000, 50.500000) rotate(-90.000000) translate(-94.500000, -50.500000) translate(92.000000, 42.500000)">
                    <path d="M4.72222222,0 C4.87563465,0 5,0.127918643 5,0.285714286 L5,1.59593898 C5,1.67171512 4.97073421,1.74438767 4.91864077,1.79796949 L4.73790413,1.98387004 C4.19347277,2.54385658 3.88888889,3.29408637 3.88888889,4.07510522 L3.88888889,14.394515 L3.88888889,14.394515 C3.88888889,14.4681872 3.8612216,14.5390119 3.81166339,14.5922023 L2.70055228,15.7847489 C2.60257054,15.8899119 2.44520586,15.9012802 2.3344584,15.8165342 L2.30358145,15.7890921 L1.18833661,14.5922023 C1.1387784,14.5390119 1.11111111,14.4681872 1.11111111,14.394515 L1.11111111,4.07510522 C1.11111111,3.29408637 0.806527231,2.54385658 0.262095868,1.98387004 L0.0813592274,1.79796949 L0.0813592274,1.79796949 C0.029265789,1.74438767 0,1.67171512 0,1.59593898 L0,0.285714286 C0,0.127918643 0.124365347,0 0.277777778,0 L4.72222222,0 Z" id="Path"></path>
                </g>
            </g>
        </g>
    </g>
</svg>