<svg xmlns="http://www.w3.org/2000/svg" width="24" height="24" viewBox="0 0 24 24">
    <defs>
        <linearGradient id="c1nyzduh1a" x1="50%" x2="50%" y1="0%" y2="100%">
            <stop offset="0%" stop-color="#37E893"/>
            <stop offset="100%" stop-color="#2BB673"/>
        </linearGradient>
    </defs>
    <g fill="none" fill-rule="evenodd">
        <path fill="url(#c1nyzduh1a)" fill-rule="nonzero" d="M12 2.182c5.422 0 9.818 4.396 9.818 9.818S17.422 21.818 12 21.818 2.182 17.422 2.182 12 6.578 2.182 12 2.182zm0 1.909C7.632 4.09 4.09 7.63 4.09 12c0 4.368 3.542 7.91 7.91 7.91s7.91-3.542 7.91-7.91S16.367 4.09 12 4.09z"/>
        <path fill="#FFF" fill-opacity=".5" fill-rule="nonzero" d="M17.61 17.576l1.699.98c-.514.572-1.094 1.084-1.728 1.523l-1.88-1.087c.706-.375 1.35-.854 1.909-1.416zM2.666 8.948l1.699.981c-.179.66-.274 1.355-.274 2.071 0 .098.002.195.005.293l-1.882-1.089c.062-.781.217-1.537.452-2.256zM19.91 12.006l1.85 1.07c-.167 1.529-.684 2.952-1.47 4.188l-1.656-.956c.805-1.238 1.274-2.715 1.275-4.302zM6.19 4.085l1.85 1.068c-1.317.763-2.394 1.895-3.088 3.255l-1.656-.956C3.993 6.121 4.987 4.97 6.19 4.085z"/>
        <circle cx="12" cy="12" r="7.909" fill="#1F8252"/>
        <path fill="#FFF" fill-rule="nonzero" d="M12.626 18.164V16.88c.797-.076 1.427-.345 1.89-.805.462-.46.693-1.055.693-1.784 0-.43-.073-.799-.218-1.105-.144-.307-.345-.576-.6-.806-.256-.23-.56-.435-.911-.617-.352-.18-.726-.355-1.122-.524-.396-.168-.684-.345-.863-.53-.179-.186-.268-.436-.268-.751 0-.311.077-.555.233-.732.155-.177.374-.265.655-.265.315 0 .558.119.729.357.17.24.255.58.255 1.023h2.16c0-.81-.222-1.477-.667-2.004-.445-.526-1.058-.847-1.838-.962V6h-1.016v1.349c-.81.076-1.457.348-1.943.815-.486.466-.729 1.06-.729 1.78 0 .43.068.797.205 1.1.136.302.332.568.588.798.255.23.56.433.914.608.353.174.74.347 1.157.517.417.17.71.352.875.544.167.191.25.456.25.792 0 .303-.083.54-.25.713-.166.173-.394.259-.684.259-.396 0-.702-.127-.917-.38-.215-.254-.323-.624-.323-1.11H8.727c0 .883.248 1.593.745 2.132.496.54 1.21.858 2.138.956v1.291h1.016z"/>
        <ellipse cx="14.455" cy="7.909" fill="#FFF" opacity=".2" rx="3.545" ry="1.636" transform="rotate(30 14.455 7.91)"/>
    </g>
</svg>
