<?xml version="1.0" encoding="UTF-8"?>
<svg width="133px" height="253px" viewBox="0 0 133 253" version="1.1" xmlns="http://www.w3.org/2000/svg" xmlns:xlink="http://www.w3.org/1999/xlink">
    <!-- Generator: Sketch 64 (93537) - https://sketch.com -->
    <title>components/graphics/golferWoman1</title>
    <desc>Created with Sketch.</desc>
    <g id="Symbols" stroke="none" stroke-width="1" fill="none" fill-rule="evenodd">
        <g id="components/desktop/watchTrailer1" transform="translate(-1057.000000, -162.000000)">
            <g id="components/graphics/golferWoman1" transform="translate(1051.000000, 160.000000)">
                <ellipse id="Oval" fill="#110F29" opacity="0.147670201" cx="72.5699208" cy="246.056061" rx="65.7308707" ry="7.98636364"></ellipse>
                <g id="Golfer-Sample-1" stroke-width="1">
                    <g id="golf-driver-D" transform="translate(12.310290, 139.076818)" fill-rule="nonzero">
                        <g id="all_character_part">
                            <g id="golf_driver_D">
                                <path d="M26.6597573,20.7828 L18.7743325,99.8683364 C18.7743325,99.8683364 19.418343,100.350941 20.0623536,99.7074682 C20.7063641,99.0639955 28.4299314,20.9436682 28.4299314,20.9436682 L26.6597573,20.7828 Z" id="Path" fill="#F0D7BB"></path>
                                <path d="M21.3594934,89.6754545 C21.7994723,85.7347545 22.3203799,80.8904545 22.8766227,75.6080455 C22.3903662,75.4098695 21.8561224,75.3617232 21.3423958,75.4699955 C21.3070607,75.4699955 21.2603272,75.4699955 21.2078945,75.4642909 L19.7990501,89.5910273 C20.3152844,89.4560577 20.8608127,89.4854932 21.3594934,89.6754545 Z" id="Path-1" fill="#231F20"></path>
                                <path d="M25.5324538,15.9978273 L27.3037678,0.810045455 C27.3037678,0.810045455 30.2058047,-0.798636364 32.7750079,1.29379091 L30.837277,16.2727864 L28.4242322,20.9436682 L26.654058,20.7828 L25.5324538,15.9978273 Z" id="Path-2" fill="#A16442"></path>
                                <path d="M25.5324538,15.9727273 L25.5324538,16.0035318 L26.6586174,20.7885045 L28.4287916,20.9493727 L30.6663008,16.6196227 C29.1377731,15.7685045 27.2536148,15.4661636 25.5324538,15.9727273 Z" id="Path-3" fill="#231F20"></path>
                                <path d="M32.7750079,1.29379091 C32.371504,0.434686364 30.9182058,0.114090909 30.0656042,0.0319454545 C27.6787757,-0.18825 27.3037678,0.810045455 27.3037678,0.810045455 L25.5324538,15.9727273 C27.2490554,15.4718682 29.1332137,15.7742091 30.6617414,16.6196227 L32.7750079,1.29379091 Z" id="Path-4" fill="#780E2A"></path>
                                <path d="M28.1073562,16.3937227 L27.6514195,20.2728136 L27.0347652,20.3001955 L26.2038206,16.4872773 C26.2038206,16.4872773 27.1419103,16.15185 28.1073562,16.3937227 Z" id="Path-5" fill="#4A4A4A"></path>
                                <path d="M20.7052243,95.4792591 C20.7052243,95.4792591 16.3612876,83.3856227 8.15442744,85.1574545 C-0.0524327177,86.9292864 -1.12616359,94.5528409 0.859440633,99.2773455 C1.94001055,101.851236 5.30482322,105.095982 11.3722005,104.217482 C18.3719683,103.210059 20.0623536,99.7074682 20.0623536,99.7074682 L20.7052243,95.4792591 Z" id="Path-6" fill="#961235"></path>
                                <path d="M16.05581,88.1740182 C14.5500792,86.8209 12.2578575,86.1774273 9.5587124,88.1500591 C7.65973615,89.5419682 6.30332454,91.615 6.26912929,95.1518182 C6.24405277,97.2864591 7.21291821,99.9493409 9.5313562,102.093109 C10.7694522,103.254897 12.4435377,103.833338 14.1340369,103.683536 L14.1636728,103.683536 C18.7800317,102.388605 20.0612137,99.7074682 20.0612137,99.7074682 L20.7040844,95.4792591 C20.7040844,95.4792591 19.2257098,91.2807136 16.05581,88.1740182 Z" id="Path-7" fill="#C4B099"></path>
                                <path d="M9.65217942,91.8956636 C9.46433351,92.4283541 9.32025752,92.9755341 9.22131926,93.5317273 C9.18427441,93.7311582 9.31022691,93.9244282 9.50741953,93.9709773 C11.418934,94.4273409 16.2324855,95.5899273 18.9874828,96.5448682 C19.1046586,96.5850282 19.2341446,96.5655186 19.3343367,96.4926145 C19.4345288,96.4197105 19.4931166,96.3026532 19.4913342,96.1786364 C19.490153,96.0491432 19.4230164,95.9291195 19.3134776,95.8603227 C16.8491398,94.2870091 12.0504063,92.3931 10.1434512,91.6663409 C10.0479325,91.6305164 9.94215515,91.6346236 9.84971398,91.67775 C9.75727282,91.7208764 9.6861467,91.7993709 9.65217942,91.8956636 Z" id="Path-8" fill="#A6937B"></path>
                                <path d="M9.68865435,98.2379773 L19.1835356,97.7690636 C19.3696718,97.7599364 19.5155715,97.6053432 19.5141009,97.4188045 C19.5151156,97.2431045 19.3831219,97.0952427 19.2086121,97.0765318 L9.47322427,95.8831409 C9.36949868,95.8683091 9.26486121,95.9019659 9.18906174,95.9741855 C9.11326227,96.0465191 9.07473562,96.1495432 9.08453826,96.2539364 C9.13138575,96.8259882 9.21208654,97.3947314 9.3261847,97.9573136 C9.35718839,98.1300473 9.51380264,98.2513259 9.68865435,98.2379773 Z" id="Path-9" fill="#A6937B"></path>
                                <path d="M10.3144274,101.438227 C12.7650871,101.451918 17.2458047,99.8341091 19.3191768,98.9282273 C19.446953,98.8630814 19.5249182,98.7293668 19.5186491,98.5859545 C19.5186491,98.3475045 19.3271557,98.1752273 19.1368021,98.2436818 C16.0102164,99.3013045 12.1358945,99.6127727 10.0955778,99.7131727 C9.90522427,99.7223 9.76958311,99.9413545 9.81403694,100.162691 C9.89040633,100.547177 9.96563588,100.917973 10.0203483,101.168973 C10.0426892,101.316949 10.1652222,101.4291 10.3144274,101.438227 Z" id="Path-10" fill="#A6937B"></path>
                                <path d="M19.3989657,94.5208955 C15.7719894,90.2744318 12.8653931,88.9817818 12.1381741,88.7022591 C12.0293193,88.6615286 11.9069003,88.6862864 11.822438,88.76615 C11.5501298,89.0239955 11.2989087,89.30329 11.0712823,89.6012955 C11.0140623,89.6752264 10.9936591,89.7712909 11.015772,89.8621073 C11.0379989,89.9529236 11.1003483,90.0287941 11.1852665,90.0679273 C12.801562,90.8026727 16.2005699,92.5049091 18.9624063,94.9441727 C19.0525678,95.0238082 19.1808,95.0433177 19.2905668,94.9942586 C19.4002195,94.9450855 19.4711177,94.8362427 19.4719156,94.7159909 C19.4705478,94.64457 19.4447873,94.5756591 19.3989657,94.5208955 Z" id="Path-11" fill="#A6937B"></path>
                                <path d="M0.671366755,94.6338455 C0.671366755,94.6338455 3.00462269,93.3446182 5.58522427,93.18375 C5.58522427,93.18375 6.14830607,87.0627727 12.3433456,86.0964227 C12.3376464,86.0964227 2.4415409,83.8419864 0.671366755,94.6338455 Z" id="Path-12" fill="#D65175"></path>
                                <path d="M32.7750079,1.29379091 C32.371504,0.434686364 30.9182058,0.114090909 30.0656042,0.0319454545 C27.6787757,-0.18825 27.3037678,0.810045455 27.3037678,0.810045455 L27.2900897,0.924136364 C28.4595673,0.904740909 30.5625752,1.15231818 30.4007177,2.14376818 C29.556095,7.33832727 29.0078311,11.2596318 28.4493087,15.8346773 C29.2265668,15.9726132 29.9758987,16.2374182 30.6674406,16.6184818 L32.7750079,1.29379091 Z" id="Path-13" fill="#5E0B21"></path>
                            </g>
                        </g>
                    </g>
                    <g id="girl-body-A" transform="translate(37.386807, 50.200000)" fill-rule="nonzero">
                        <g id="all_character_part-1">
                            <g id="girl_body_A">
                                <path d="M32.5732559,29.2072727 C32.5732559,29.2072727 38.6075778,40.8046136 39.0965699,42.3745045 C39.585562,43.9443955 38.3716306,47.3271909 35.7169393,51.0727955 C34.0573298,53.4128 30.8270185,58.6860818 29.0785013,65.3273136 C28.029847,69.3113682 27.7665435,73.8430591 27.9922322,78.3736091 C28.5963483,95.8899864 30.1647704,110.023568 31.6135092,121.982577 C27.1818047,130.024845 26.6517784,150.239473 29.440971,176.948155 C29.440971,176.948155 26.5446332,186.974464 25.9405172,190.478195 C25.9405172,190.478195 23.0441794,195.189009 23.8888021,196.518168 C23.8888021,196.518168 24.372095,197.363582 25.3375409,196.880977 C25.3375409,196.880977 25.8208338,198.571805 27.3892559,197.847327 C27.3892559,197.847327 28.2338786,199.780027 29.6826174,198.450868 C29.6826174,198.450868 31.6135092,199.538155 32.4581319,198.088059 C32.4581319,198.088059 35.8377625,199.900964 35.7169393,192.410895 C35.7169393,192.410895 37.7686544,189.752577 37.0448549,186.974464 C36.3210554,184.19635 35.107124,177.551695 35.107124,177.551695 C35.107124,177.551695 36.4817731,161.419241 37.5201689,146.385482 C38.3362955,134.570227 39.0270396,123.476027 38.124285,121.137164 C38.124285,121.137164 45.3656992,81.6354682 45.9686755,78.0108 C45.9686755,78.0108 57.1926966,118.238114 58.1581425,123.311736 C56.5897203,128.023691 55.0201583,135.754491 60.2098575,148.67985 C62.4040528,154.144805 66.8482955,173.444423 67.9345646,179.3646 C67.9345646,179.3646 64.1924644,188.303623 67.2096253,190.599132 C70.2267863,192.894641 71.7963483,191.444545 73.3647704,193.256309 C74.2572665,194.283127 76.2417309,196.489645 78.4336464,197.605455 C80.0966755,198.452009 81.9796939,198.518182 83.0203694,197.847327 C83.0203694,197.847327 86.5196834,198.813677 85.9167071,197.605455 C85.9167071,197.605455 88.2100686,198.208995 87.9684222,197.363582 C87.9684222,197.363582 89.6576675,197.605455 89.0546913,196.518168 C88.451715,195.430882 82.1757467,190.9608 81.3299842,190.357259 C81.3299842,190.357259 75.5373087,179.3646 74.4510396,178.518045 C74.4510396,178.518045 72.4756939,170.476918 70.9517256,161.001668 C68.5124644,145.841268 65.8646121,124.518818 65.8828496,124.399023 C66.4858259,120.29175 65.6412032,76.6827818 61.0544802,64.2400273 C56.4677573,51.7972727 55.7439578,45.3944909 55.7439578,45.3944909 L60.6931504,25.5826045 C60.6931504,25.5826045 71.7963483,41.1662818 73.2439472,43.8246 C73.2439472,43.8246 69.4984274,46.9484091 66.2567177,53.8760091 C65.6033604,55.2893673 64.7546343,56.6035805 63.7353879,57.7802 C63.5940475,57.9410682 64.6757573,61.9445182 67.2096253,60.7362955 C69.7434934,59.5280727 80.9697942,46.72365 80.848971,44.5490773 C80.6289815,43.9261409 75.6421741,36.1303091 71.3141953,28.3618591 C67.0831029,20.7645455 63.5188179,13.1934727 62.5043588,12.5363091 C61.8899842,11.7810273 52.2457836,9.63725909 48.866153,8.67090909 C48.866153,8.67090909 48.9413826,4.11297727 48.866153,2.75187273 C48.7453298,0.5773 46.9614776,-0.281804545 45.151409,0.0798636364 C43.3413404,0.441531818 42.3758945,1.05990455 42.2550712,3.71822273 L42.4693615,9.03257727 C42.4693615,9.03257727 31.3661636,12.0537045 29.4352718,12.5363091 C27.5043799,13.0189136 25.5734881,16.7645182 24.6080422,23.7708409 C23.6425963,30.7771636 19.6599894,50.58905 19.6599894,50.58905 C19.6599894,50.58905 14.2286438,60.9781682 11.0906596,81.6354682 C11.0906596,81.6354682 5.6570343,85.4426818 2.75841689,87.4541045 C1.76413298,88.1425291 1.06438417,89.1796155 0.797889182,90.36 C0.596137203,91.2613182 0.341952507,92.3223636 0.113984169,93.1267045 C-0.0992802111,93.8817582 -0.00934670185,94.6904345 0.36474934,95.38 C1.16263852,96.8551955 2.50879156,99.1586909 3.00462269,98.9099727 C3.72842216,98.5471636 2.16,95.4062409 1.67670712,94.3189545 L2.88379947,90.9373 L6.26912929,88.6417909 C6.26912929,88.6417909 6.99292876,89.1243955 6.38995251,89.8500136 C5.78697625,90.5756318 2.16569921,92.7490636 2.76297625,94.0782227 C2.76297625,94.0782227 3.00462269,94.8027 4.57304485,93.7154136 C6.14146702,92.6281273 9.52109763,90.9373 11.4531293,90.3326182 C13.3851609,89.7279364 14.7107968,83.5681682 14.7107968,83.5681682 C14.7107968,83.5681682 27.8668496,57.9581818 25.6943113,51.1925909 L32.5732559,29.2072727 Z" id="Path-14" fill="#F3BD9E"></path>
                                <path d="M42.1946596,13.2482364 C46.6400422,14.6013545 51.2450026,13.2482364 54.4206016,10.0981864 C52.2275462,9.54826818 50.1176992,9.02801364 48.866153,8.67090909 C48.866153,8.67090909 48.9413826,4.11297727 48.866153,2.75187273 C48.7453298,0.5773 46.9614776,-0.281804545 45.151409,0.0798636364 C43.3413404,0.441531818 42.3758945,1.05990455 42.2550712,3.71822273 L42.4693615,9.03257727 C42.4693615,9.03257727 40.4028285,9.59504545 37.8985963,10.2681818 C38.9706174,11.7007073 40.478172,12.7464645 42.1946596,13.2482364 Z" id="Path-15" fill="#DB9E7B"></path>
                                <path d="M59.1247282,58.2799182 L56.8781003,58.9245318 L52.6014142,63.1253591 C52.9965974,63.0635218 53.3702375,62.9042509 53.6888232,62.66215 C54.7146807,61.9353909 55.9354512,60.4944227 56.7903325,59.6125 L59.0061847,58.6142045 L59.1703219,58.8332591 L59.4518628,58.6826591 L59.1247282,58.2799182 Z" id="Path-16" fill="#DB9E7B"></path>
                                <path d="M60.4925383,59.8908818 L58.1592823,60.6963636 C57.5152718,61.5018455 54.5117889,64.2696909 54.5117889,64.2696909 C55.2321689,65.1014136 58.4442427,61.1093727 58.4442427,61.1093727 L60.0514195,60.4442227 C60.0514195,60.4442227 60.3831135,60.6107955 60.3831135,60.8321318 L60.8926227,60.4544909 L60.4925383,59.8908818 Z" id="Path-17" fill="#DB9E7B"></path>
                                <path d="M61.0556201,62.1453182 C59.7172179,63.5226236 58.1623599,64.6711768 56.4529393,65.5452273 C56.9510501,66.4876182 60.9952084,62.7169136 60.9952084,62.7169136 C60.9952084,62.7169136 64.6985541,63.6296409 66.3707018,62.1065273 C64.3110079,63.1869682 61.0556201,62.1453182 61.0556201,62.1453182 Z" id="Path-18" fill="#DB9E7B"></path>
                                <path d="M57.7272823,55.1766455 L58.5331504,56.7374091 L58.9640106,56.5890909 L57.7569182,54.5753864 C57.0103219,55.0112136 53.9544063,56.6027818 52.6071135,57.3021591 C53.1063641,58.1201909 57.7272823,55.1766455 57.7272823,55.1766455 Z" id="Path-19" fill="#DB9E7B"></path>
                                <path d="M78.0894142,45.6032773 C77.6243588,45.9215909 76.8663641,46.7635818 77.1057309,47.4378591 C77.2390923,47.8120773 77.7280844,47.8736864 78.0951135,47.7219455 C78.4074301,47.5918818 78.6764327,47.2073955 78.9579736,46.9233091 C79.459504,46.4213091 79.8595884,45.9261545 79.603124,45.5120045 C79.603124,45.5131455 79.1597256,44.8708136 78.0894142,45.6032773 Z" id="Path-20" fill="#DB9E7B"></path>
                                <path d="M20.6163166,52.3084 C20.0771715,53.6774909 20.6163166,54.4624364 21.3093404,54.2479455 C21.765277,54.1087545 22.4822375,53.2907227 22.7250237,52.7647636 C23.3154617,51.4743955 23.0567177,50.7430727 22.5654459,50.5308636 C22.5688654,50.5308636 21.5840422,49.8406136 20.6163166,52.3084 Z" id="Path-21" fill="#DB9E7B"></path>
                                <path d="M40.4176464,71.1254136 C40.4176464,71.1254136 47.6590607,72.2127 52.2457836,71.0044773 L46.2114617,78.3736091 L40.4176464,71.1254136 Z" id="Path-22" fill="#DB9E7B"></path>
                                <path d="M35.4695937,32.1884682 C35.4695937,32.1884682 36.9992612,36.2706409 38.2747441,37.0361909 C38.5927599,37.2278636 39.261847,37.2118909 40.0870923,37.0806864 C44.1802639,36.4146236 48.3474111,36.3378405 52.4623536,36.8525045 C53.3993034,36.9723 54.251905,36.9802864 54.8469024,36.7817682 C57.1414037,36.0162182 58.4168865,30.6562273 58.4168865,30.6562273 C58.4168865,30.6562273 51.5322427,36.7817682 35.4695937,32.1884682 Z" id="Path-23" fill="#DB9E7B"></path>
                                <path d="M32.9414248,122.812018 C33.537562,123.05275 34.5372032,123.238718 35.8446016,122.669405 C35.9534565,122.62297 36.0797509,122.653546 36.1554364,122.74459 C36.2311219,122.835521 36.2381889,122.96547 36.172876,123.064159 C35.3818259,124.235873 33.8065646,125.927841 32.5937731,123.1657 C32.551029,123.065642 32.5728,122.949726 32.6490554,122.872144 C32.7253108,122.794562 32.8407768,122.770831 32.9414248,122.812018 Z" id="Path-24" fill="#DB9E7B"></path>
                                <path d="M61.1821425,124.530227 C62.3198185,124.856299 63.5242892,124.869648 64.6689182,124.569018 C64.8034195,124.53171 64.9465836,124.584991 65.0243208,124.701021 C65.1019441,124.817052 65.0964728,124.969934 65.0108707,125.080145 C64.2562955,126.065891 62.7243483,127.34485 60.8424697,125.0482 C60.753448,124.93833 60.7456971,124.783281 60.8232063,124.664969 C60.9008296,124.546656 61.0459314,124.492235 61.1821425,124.530227 Z" id="Path-25" fill="#DB9E7B"></path>
                                <path d="M68.9171082,181.766214 C69.1263831,182.704725 69.5396897,183.585393 70.1276201,184.345809 C70.2176675,184.462296 70.2167557,184.625104 70.1256823,184.740678 C70.034495,184.856252 69.8763989,184.894815 69.7423536,184.834118 C68.7358734,184.393727 67.5766544,183.483282 68.3072929,181.721718 C68.3586997,181.591312 68.4887557,181.509395 68.6285003,181.519549 C68.7682449,181.529817 68.8851926,181.629761 68.9171082,181.766214 Z" id="Path-26" fill="#DB9E7B"></path>
                                <path d="M35.3350923,181.404545 C35.8218047,182.287609 36.3609499,183.714886 35.4308391,184.664123 C35.3853594,184.709759 35.3152591,184.719913 35.2588369,184.688995 C35.2023008,184.658076 35.1730069,184.593615 35.1869129,184.530636 C35.3008971,183.99555 35.3977836,182.972155 35.0729288,181.506086 C35.0643799,181.440028 35.1021087,181.376593 35.1642301,181.35252 C35.2263515,181.328447 35.2969077,181.349896 35.3350923,181.404545 Z" id="Path-27" fill="#DB9E7B"></path>
                                <path d="M80.4933404,195.337327 C81.1453298,196.364145 82.2532559,197.007618 82.7000739,198.017323 C82.8113224,197.968948 82.9188095,197.912131 83.0215092,197.847327 C83.5044602,197.976136 83.9942501,198.077791 84.4884855,198.15195 C83.3224274,196.888964 82.051504,196.065227 80.4933404,195.337327 Z" id="Path-28" fill="#DB9E7B"></path>
                                <path d="M86.1925488,195.337327 C86.8388391,196.076636 87.8601372,196.517027 88.4061214,197.390964 C88.5519071,197.389595 88.696895,197.368488 88.8369815,197.328214 C88.1268602,196.491927 87.1044222,195.858723 86.1925488,195.337327 Z" id="Path-29" fill="#DB9E7B"></path>
                                <path d="M26.236876,194.4246 C25.2326755,194.9266 24.9363166,196.048114 24.5681478,197.011041 C24.8300834,197.055536 25.099314,197.009672 25.3318417,196.880977 C25.3905435,197.064435 25.4745499,197.238766 25.581467,197.39895 C25.4971187,196.390386 25.7980369,195.3031 26.236876,194.4246 Z" id="Path-30" fill="#DB9E7B"></path>
                                <path d="M29.8843694,195.337327 C29.8843694,195.565509 29.6564011,195.6796 29.6564011,195.793691 C29.5048021,196.706418 29.6051082,197.619145 29.5880106,198.531873 C29.6176464,198.506773 29.6472823,198.482814 29.6769182,198.455432 C29.7967156,198.519437 29.9205024,198.575798 30.0473668,198.624286 C29.8285172,197.543845 29.8205383,196.422332 29.8843694,195.337327 Z" id="Path-31" fill="#DB9E7B"></path>
                                <path d="M28.1746069,194.538691 C27.3767177,195.500477 27.1350712,196.745209 26.9458575,197.994505 C27.0968865,197.962559 27.2438121,197.913158 27.3835567,197.847327 C27.4948053,198.083495 27.6420728,198.301067 27.8201161,198.491941 C27.5511135,197.170768 27.9261214,195.793691 28.1746069,194.538691 Z" id="Path-32" fill="#DB9E7B"></path>
                                <path d="M32.4091187,198.157655 C32.4227968,198.134836 32.4387546,198.113159 32.4524327,198.088059 C32.6561224,198.18709 32.8756559,198.24927 33.1010026,198.271745 C32.7880021,197.090676 32.6263726,195.874695 32.6199894,194.652782 C32.0751451,195.635105 32.3122322,196.957418 32.4091187,198.157655 Z" id="Path-33" fill="#DB9E7B"></path>
                                <path d="M83.6848971,195.223236 C84.8042216,195.783423 85.622628,196.878695 85.939504,198.008195 C86.0044749,197.914641 86.0067546,197.780014 85.917847,197.605455 C86.3131441,197.706311 86.7160781,197.773853 87.1226596,197.807395 C86.1435356,196.6836 85.1735303,195.521014 83.6848971,195.223236 Z" id="Path-34" fill="#DB9E7B"></path>
                            </g>
                        </g>
                    </g>
                    <g id="shoes-D" transform="translate(45.137731, 180.605909)">
                        <g id="all_character_part-2">
                            <g id="shoes_D">
                                <polygon id="Path-35" points="0 0 90.6299525 0 90.6299525 70.01645 0 70.01645"></polygon>
                                <polygon id="Path-36" fill="#000000" fill-rule="nonzero" points="57.5175515 59.9969864 57.9199156 62.0916955 58.8853615 60.8834727"></polygon>
                                <polygon id="Path-37" fill="#000000" fill-rule="nonzero" points="61.0180053 62.1715591 61.4203694 64.2651273 62.3858153 63.0580455"></polygon>
                                <polygon id="Path-38" fill="#000000" fill-rule="nonzero" points="65.6035884 64.2251955 66.0059525 66.3187636 66.9713984 65.1116818"></polygon>
                                <polygon id="Path-39" fill="#000000" fill-rule="nonzero" points="69.8278417 66.3997682 70.2302058 68.4933364 71.1956517 67.2851136"></polygon>
                                <polygon id="Path-40" fill="#000000" fill-rule="nonzero" points="80.7817203 66.9964636 80.5400739 69.1710364 79.6544169 67.9628136"></polygon>
                                <polygon id="Path-41" fill="#000000" fill-rule="nonzero" points="76.1949974 67.1174 75.9533509 69.2919727 75.0688338 68.08375"></polygon>
                                <path d="M57.2873034,58.2046182 C57.2873034,58.2046182 56.6968654,59.5474682 57.2873034,60.1384591 C57.8777414,60.72945 59.486058,62.76255 63.3478417,63.0375091 C63.3478417,63.0375091 68.1226385,68.46025 77.6699525,68.2446182 C78.8918628,68.2172364 80.7817203,67.9765045 81.3710185,67.2782682 C81.3710185,67.2782682 81.5853087,66.4739273 81.1567282,66.0438045 L57.2873034,58.2046182 Z" id="Path-42" fill="#000000" fill-rule="nonzero"></path>
                                <path d="M64.2061425,53.8029909 C64.2061425,53.8029909 66.0036728,50.8229364 68.9535831,51.7356636 C68.9535831,51.7356636 70.0797467,52.9438864 72.4004644,57.9102636 L68.4440739,61.0511864 L64.2061425,53.8029909 Z" id="Path-43" fill="#000000" fill-rule="nonzero"></path>
                                <path d="M59.6467757,48.8092318 C57.0251398,53.4264909 57.2873034,58.2046182 57.2873034,58.2046182 C59.1646227,60.4065727 63.5632718,61.4801682 63.5632718,61.4801682 C63.6487599,61.5942591 65.045066,62.7134909 66.9634195,63.8247364 C67.1275567,62.0563273 68.2172454,60.5001273 68.4634512,60.1738273 C63.8881266,50.7350864 59.6467757,48.8092318 59.6467757,48.8092318 Z" id="Path-44" fill="#915141" fill-rule="nonzero"></path>
                                <path d="M72.4004644,57.9102636 C70.3612876,58.0175091 68.4748496,60.1977864 68.4634512,60.1749682 C68.2218047,60.5001273 67.1275567,62.0563273 66.9634195,63.8258773 C68.1727916,64.5275364 69.5850554,65.2269136 71.0189763,65.6695864 C77.7770976,67.7631545 81.1567282,66.0449455 81.1567282,66.0449455 C79.6008443,61.9102909 72.4004644,57.9102636 72.4004644,57.9102636 Z" id="Path-45" fill="#632E24" fill-rule="nonzero"></path>
                                <path d="M59.6467757,48.8092318 C59.4491272,49.1560682 59.2678923,49.5032468 59.1030712,49.8508818 C60.6338786,51.0819227 64.5857098,54.6826318 67.7898047,61.2542682 C67.9874533,60.8783386 68.212572,60.5175832 68.4634512,60.1749682 C63.8881266,50.7350864 59.6467757,48.8092318 59.6467757,48.8092318 Z" id="Path-46" fill="#632E24" fill-rule="nonzero"></path>
                                <path d="M68.4634512,60.4031511 C68.4277741,60.4032641 68.392553,60.3945932 68.3608654,60.37805 C68.306723,60.3508964 68.2654607,60.3033205 68.2464253,60.2457045 C68.22739,60.1880886 68.2320633,60.1253386 68.2594195,60.0711455 C68.3221108,59.9490682 69.5554195,57.5223545 70.8924538,56.4202364 C69.6568654,56.4681545 67.485467,56.5890909 66.7821847,56.8594864 C66.6858681,56.8958814 66.5771272,56.8631373 66.5169435,56.7796227 C66.4566459,56.6959941 66.4598375,56.5824736 66.5245805,56.5023818 C66.8551346,56.0985 68.2035673,54.4921 69.2943958,53.7436636 C68.0679261,53.6603773 65.9033668,53.5440045 64.5469551,53.6535318 C64.4654565,53.6601491 64.3866934,53.6226132 64.3403018,53.5552995 C64.2940243,53.4879859 64.2870712,53.4009345 64.3220644,53.3271177 C64.3571715,53.2531868 64.4289815,53.2036714 64.5104802,53.1971682 C66.5177414,53.0363 70.1093826,53.3454864 70.2609815,53.3580364 C70.386934,53.3687609 70.4802871,53.4795432 70.4695726,53.6056136 C70.458858,53.7316841 70.3481794,53.8251245 70.2222269,53.8144 L70.1982902,53.8144 C69.6739631,53.8144 68.3414881,55.1047682 67.3281689,56.2605091 C68.8509974,55.9981 71.6265119,55.9399136 71.7655726,55.9364909 C71.8793288,55.9337527 71.9776971,56.0153277 71.9960485,56.1277073 C72.014514,56.2402009 71.9472633,56.3489295 71.8385224,56.3825864 C70.6599261,56.7556636 69.1496359,59.3204273 68.666343,60.27765 C68.6277024,60.3544332 68.5492813,60.4029218 68.4634512,60.4031511 Z" id="Path-47" fill="#968374" fill-rule="nonzero"></path>
                                <path d="M67.5857731,58.4875654 C67.4674575,58.48802 67.3684053,58.3978882 67.3578047,58.2799182 C67.283715,57.4710136 69.3103536,55.9056864 70.4353773,55.1036273 C69.5041266,55.0694 67.507124,55.1447 65.6685594,55.2656364 C65.6055261,55.2697436 65.5437467,55.2474959 65.4976971,55.2042555 C65.4516475,55.161015 65.4256591,55.1006609 65.4257727,55.0374545 C65.4257727,54.0106364 68.2537203,51.9501545 68.8213615,51.5496955 C68.9238332,51.4840932 69.0598164,51.5106764 69.1301446,51.6100495 C69.2004728,51.7094227 69.1804116,51.84656 69.0846649,51.9216318 C67.9117678,52.7510727 66.3182691,54.0893591 65.9569393,54.7898773 C67.3828813,54.6997455 70.6861425,54.5229045 71.1466385,54.7522273 C71.2190185,54.7885082 71.2667778,54.8606136 71.2720211,54.9416182 C71.2774923,55.0225086 71.2397636,55.1002045 71.1728549,55.1458409 C69.7765488,56.0985 68.3050132,57.3215545 67.9129077,57.9559 C68.8566966,57.7653682 71.3073562,57.3318227 72.4665752,57.69235 C72.5868285,57.7298859 72.6538512,57.8577818 72.6164644,57.9781477 C72.5789636,58.0985136 72.4511873,58.1657132 72.330934,58.1281773 C71.0246755,57.7220136 67.6689815,58.47045 67.6347863,58.4818591 C67.6187145,58.4853959 67.6021868,58.4873355 67.5857731,58.4875654 Z" id="Path-48" fill="#968374" fill-rule="nonzero"></path>
                                <path d="M77.1285277,65.6809955 C78.2683694,64.3381455 77.8922216,62.9713364 77.1285277,61.7562682 C78.3527177,62.7922136 79.5221953,63.9935909 80.1981214,65.2269136 C80.258419,65.3370114 80.2645741,65.4686723 80.214877,65.5839041 C80.1652939,65.69925 80.0652158,65.7850464 79.9439367,65.8167636 C79.0473372,66.0432341 78.1249773,66.1518486 77.2003377,66.1396409 C77.0179631,66.1396409 76.8333087,66.1362182 76.6463747,66.1293727 C76.8223662,65.9972555 76.9839958,65.8469977 77.1285277,65.6809955 Z" id="Path-49" fill="#87523C" fill-rule="nonzero"></path>
                                <path d="M57.8492454,57.8509364 C58.8808021,59.0603 60.7604011,59.8897409 62.0666596,60.3495273 C59.9385752,58.0277773 59.1475251,54.4612955 59.0916728,51.2519182 C57.6759894,54.7362545 57.8492454,57.8509364 57.8492454,57.8509364 Z" id="Path-50" fill="#B56551" fill-rule="nonzero"></path>
                                <polygon id="Path-51" fill="#000000" fill-rule="nonzero" points="16.3624274 67.0033091 16.7647916 69.0980182 17.7302375 67.8897955"></polygon>
                                <polygon id="Path-52" fill="#000000" fill-rule="nonzero" points="19.5813404 68.2115318 19.9837045 70.3062409 20.9491504 69.0980182"></polygon>
                                <polygon id="Path-53" fill="#000000" fill-rule="nonzero" points="22.8059525 68.1852909 23.896781 70.01645 24.393752 68.5515227"></polygon>
                                <polygon id="Path-54" fill="#000000" fill-rule="nonzero" points="27.5260369 65.8692455 27.1476095 67.9673773 26.1684855 66.7694227"></polygon>
                                <polygon id="Path-55" fill="#000000" fill-rule="nonzero" points="29.3167282 59.9969864 29.0750818 62.1715591 28.1905646 60.9633364"></polygon>
                                <path d="M27.7585646,61.1584318 C27.7585646,61.1584318 28.8984063,59.1675455 29.3908179,57.5725545 C29.2859525,51.41735 27.0746596,47.0237091 27.0746596,47.0237091 C27.1555884,47.8291909 25.5461319,51.2119864 25.5461319,51.2119864 C25.5461319,51.2119864 25.1836623,57.2918909 24.5396517,58.9838591 C24.5396517,58.985 26.0693193,59.3055955 27.7585646,61.1584318 Z" id="Path-56" fill="#915141" fill-rule="nonzero"></path>
                                <path d="M20.195715,58.6609818 L21.7641372,50.89025 C21.3617731,49.0374136 21.3617731,46.4201682 21.3617731,46.4201682 C19.51181,50.8491773 18.0231768,58.985 18.0231768,58.985 C18.0231768,58.985 19.1493404,58.5811182 20.195715,58.6609818 Z" id="Path-57" fill="#915141" fill-rule="nonzero"></path>
                                <path d="M27.7585646,61.1584318 C27.3562005,66.7146591 23.4602216,68.6656136 20.0338575,68.08375 C17.2070501,67.6045682 16.0067968,65.8966273 15.4984274,64.5937091 C15.4824697,65.2634227 15.2818575,65.9297136 15.6124116,66.5537909 C16.307715,67.8783864 18.0197573,68.9268818 19.6360528,69.2919727 C21.9487916,69.8145091 25.6703747,68.8093682 26.7156095,67.3592727 C28.5826702,64.7728318 28.2441372,61.8829091 28.2441372,61.8829091 C28.6465013,61.3193 29.3714406,59.2257318 29.3714406,59.2257318 C29.3965172,58.6621227 29.4033562,58.1099227 29.3942375,57.5725545 C28.9018259,59.1675455 27.7585646,61.1584318 27.7585646,61.1584318 Z" id="Path-58" fill="#000000" fill-rule="nonzero"></path>
                                <path d="M20.0338575,68.08375 C23.4602216,68.6656136 27.3562005,66.7146591 27.7585646,61.1584318 C26.0693193,59.3055955 24.5396517,58.985 24.5396517,58.985 C24.5396517,58.985 21.4016675,58.5822591 20.195715,58.6621227 C19.1493404,58.5822591 18.0231768,58.985 18.0231768,58.985 C18.0231768,58.985 15.5656781,61.8098909 15.501847,64.5937091 C16.0067968,65.8966273 17.2116095,67.6045682 20.0338575,68.08375 Z" id="Path-59" fill="#632E24" fill-rule="nonzero"></path>
                                <path d="M24.5396517,58.985 C25.1836623,57.2930318 25.5461319,51.2131273 25.5461319,51.2131273 C23.4134881,50.0859091 21.7641372,50.8913909 21.7641372,50.8913909 L20.195715,58.6621227 C21.4016675,58.5811182 24.5396517,58.985 24.5396517,58.985 Z" id="Path-60" fill="#000000" fill-rule="nonzero"></path>
                                <path d="M27.6628179,48.4213227 C27.3265646,47.5245682 27.0746596,47.0237091 27.0746596,47.0237091 C27.1555884,47.8291909 25.5461319,51.2119864 25.5461319,51.2119864 C25.5461319,51.2119864 25.1836623,57.2918909 24.5396517,58.9838591 C24.8737393,59.0714809 25.1957446,59.2002895 25.4982586,59.3672045 L26.5913668,51.0511182 C26.5913668,51.0511182 27.2319578,49.6706182 27.6628179,48.4213227 Z" id="Path-61" fill="#632E24" fill-rule="nonzero"></path>
                                <path d="M21.3617731,46.4201682 C21.1759789,46.8651227 20.9936042,47.3488682 20.8157889,47.8577136 C20.7322385,48.7991918 20.7265393,49.7459182 20.7986913,50.6883091 L19.1276834,58.7157455 C19.4804644,58.657445 19.8387166,58.6390764 20.195715,58.6609818 L21.7641372,50.89025 C21.3617731,49.0374136 21.3617731,46.4201682 21.3617731,46.4201682 Z" id="Path-62" fill="#632E24" fill-rule="nonzero"></path>
                                <path d="M24.5396517,59.2131818 C24.4937161,59.2127255 24.4489203,59.1989205 24.4108496,59.17325 C24.3857731,59.1549955 21.8462058,57.4151091 20.3678311,56.9473364 C20.282571,56.9200686 20.2211335,56.8453391 20.2107609,56.7563482 C20.2005024,56.6672432 20.2431325,56.58042 20.3199578,56.5343273 C20.6391135,56.3415136 23.0909129,54.8948409 24.6980897,54.6518273 C23.5058153,53.8531909 21.9624697,52.9313364 21.4016675,52.9313364 C21.2996517,52.9311082 21.2102881,52.8629959 21.1828179,52.7647636 C21.1555757,52.6667595 21.196496,52.5624805 21.283124,52.5092 C21.369752,52.4544364 23.443124,51.1903091 25.5233351,50.9860864 C25.6048338,50.9781 25.6842807,51.0142668 25.7319261,51.0808959 C25.7795715,51.147525 25.7880063,51.2345764 25.754153,51.3090777 C25.7202997,51.3836932 25.6492876,51.4345777 25.5677889,51.44245 C24.1817414,51.5782182 22.7557995,52.2410864 22.0240211,52.6198682 C23.2687282,53.0762318 25.2908074,54.5035091 25.5575303,54.6940409 C25.6459821,54.7573614 25.6774417,54.8744186 25.6327599,54.9735636 C25.5881921,55.0732791 25.4791092,55.1273582 25.372876,55.1024864 C24.4473245,54.8845727 22.1710607,56.0152136 20.9719472,56.6860682 C22.507314,57.3169909 24.5727071,58.7328591 24.6695937,58.7990318 C24.7522322,58.855735 24.7882512,58.9596718 24.7583873,59.05528 C24.7285235,59.1510023 24.6397298,59.21592 24.5396517,59.215466 L24.5396517,59.2131818 Z" id="Path-63" fill="#968374" fill-rule="nonzero"></path>
                                <path d="M19.9540686,58.9701695 C19.8520528,58.9705105 19.7622332,58.9029686 19.7341931,58.8048505 C19.7060391,58.7067323 19.7465034,58.6017686 19.8332454,58.5480318 C19.9472296,58.4795773 22.3146807,57.0180727 24.3435989,56.7739182 C22.8515462,55.7391136 21.3366966,54.75565 21.0699736,54.7020273 C20.9670459,54.6974636 20.879848,54.6244455 20.8573931,54.5237032 C20.8350522,54.4229609 20.8829256,54.3197086 20.9742269,54.2719045 C21.2740053,54.1144591 23.4818786,52.9746909 24.7983958,52.6392636 C23.9435145,52.1543773 22.3876306,51.3021182 21.7025858,51.1093045 C21.5844982,51.0727955 21.5170195,50.9487786 21.5504169,50.8296677 C21.5838142,50.7105568 21.7058913,50.6398205 21.8256887,50.6700545 C22.8515462,50.9564227 25.5085172,52.5194682 25.6213615,52.5856409 C25.7161963,52.6418877 25.7573446,52.7579182 25.7189319,52.8613986 C25.6805193,52.9648791 25.5737161,53.0260318 25.4652032,53.0066364 C24.9340369,52.9096591 22.9746491,53.7733273 21.6102586,54.4590136 C22.4799578,54.9233636 24.1099314,56.0471591 25.1540264,56.7841864 C25.236209,56.8424868 25.2704042,56.9480209 25.2380327,57.043515 C25.2056612,57.1390091 25.1144739,57.2019873 25.0138259,57.1983364 C23.0145435,57.1276 20.1033879,58.9176864 20.073752,58.9359409 C20.037847,58.9581886 19.9963567,58.9700541 19.9540686,58.9701695 Z" id="Path-64" fill="#968374" fill-rule="nonzero"></path>
                                <path d="M22.9347546,66.0278318 C20.3518734,65.8509909 17.5170871,64.1396273 17.0679894,61.5611727 C16.7733404,62.0663673 16.5342016,62.60191 16.3544485,63.1584455 C16.0802026,64.0382005 16.2746596,64.9971345 16.869657,65.7003909 C17.5056887,66.45225 18.5167282,67.1436409 20.1273245,67.4037682 C22.1106491,67.7243636 24.2740686,67.1276682 25.624781,65.3569773 C24.818343,65.8520177 23.8789995,66.0863605 22.9347546,66.0278318 Z" id="Path-65" fill="#87523C" fill-rule="nonzero"></path>
                                <path d="M27.6890343,49.8029636 C28.1062164,53.1173045 28.4550079,56.7020409 26.9572559,59.6604182 C27.1808929,59.8530036 27.3943852,60.0571123 27.5967071,60.2719455 C27.5967071,60.2719455 28.6123061,58.5605818 29.0454459,57.1914909 C28.9952929,54.6714509 28.5371905,52.1762827 27.6890343,49.8030777 L27.6890343,49.8029636 Z" id="Path-66" fill="#B56551" fill-rule="nonzero"></path>
                            </g>
                        </g>
                    </g>
                    <g id="girl-shirt-D" transform="translate(39.780475, 45.750455)">
                        <g id="all_character_part-3">
                            <g id="girl_shirt_D">
                                <g id="group">
                                    <polygon id="Path-67" points="0 0 88.4141003 0 88.4141003 79.3821727 0 79.3821727"></polygon>
                                    <path d="M29.2699947,27.1182682 C29.0135303,28.1553545 28.3717995,31.6819045 30.3995778,35.2700636 C31.2043061,35.9135364 35.791029,47.5108773 35.9517467,48.4772273 C36.0828285,49.2644545 30.9831768,57.6912091 29.0864802,60.7910591 C28.6696401,61.4621418 28.5522364,62.2770932 28.7627652,63.03865 C28.8129182,63.2120682 28.8710501,63.3455545 28.9519789,63.3809227 C45.4375092,69.7700136 57.9176359,64.6690091 57.9176359,64.6690091 C58.0783536,64.6690091 58.0509974,63.3775 57.9176359,62.9781818 C57.4936148,61.7231818 56.7344802,59.5988091 56.3879683,58.5491727 C53.6067546,50.1064455 53.9749235,49.5291455 53.9749235,49.5291455 C54.5380053,46.4680864 58.2390712,32.4554409 58.2390712,32.4554409 L58.2652876,32.5022182 L58.2595884,32.4759773 C60.1300686,28.6299727 59.0437995,26.7372045 59.0437995,26.7372045 L59.0529182,26.7086818 C43.898723,25.6522 32.3304697,26.76915 29.2699947,27.1182682 Z" id="Path-68" fill="#FFB657" fill-rule="nonzero"></path>
                                    <path d="M59.0529182,26.7041182 L61.5605699,18.3572273 L61.4864802,17.6977818 C61.3867441,17.5283568 61.2674026,17.3713677 61.1308496,17.2300091 C60.1699631,16.4245273 46.7335092,12.5591273 46.7335092,12.5591273 L46.5727916,13.2836045 C46.410934,14.2499545 43.1931609,18.3572273 43.1931609,18.3572273 C41.5039156,17.1490045 39.6528127,13.0417318 39.6528127,13.0417318 L26.0556412,17.3908773 C25.8161604,17.5583627 25.5976528,17.7541427 25.4047916,17.9738818 L29.354343,26.8136455 C29.354343,26.8136455 29.3190079,26.9220318 29.2699947,27.1182682 C32.3304697,26.76915 43.898723,25.6522 59.0529182,26.7041182 Z" id="Path-69" fill="#FFFFFF" fill-rule="nonzero"></path>
                                    <path d="M29.354343,26.8136455 L25.4047916,17.9738818 C21.8325277,21.9476682 19.5380264,37.4446364 19.5380264,37.4446364 C22.2736464,41.3899 28.9519789,40.7464273 28.9519789,40.7464273 L30.3995778,35.2700636 C27.986533,31.0007818 29.354343,26.8136455 29.354343,26.8136455 Z" id="Path-70" fill="#FFB657" fill-rule="nonzero"></path>
                                    <path d="M61.4910396,17.6977818 L61.5651293,18.3572273 L59.0437995,26.7326409 C59.0437995,26.7326409 60.1300686,28.6254091 58.2595884,32.4714136 L58.2652876,32.4976545 L61.6984908,38.5718545 C65.1590501,34.8673227 69.7446332,33.6591 69.7446332,33.6591 C69.7446332,33.6591 63.2817309,20.4496545 61.4910396,17.6977818 Z" id="Path-71" fill="#FFB657" fill-rule="nonzero"></path>
                                    <path d="M42.1467863,17.7662364 C42.1467863,17.7662364 42.307504,24.2637136 42.3622164,24.6926955 C43.077695,24.7216745 43.7941995,24.7037623 44.5073984,24.6390727 L44.1859631,17.6053682 L43.1931609,18.3572273 L42.1467863,17.7662364 Z" id="Path-72" fill="#D1D1D1" fill-rule="nonzero"></path>
                                    <path d="M43.8371715,19.6464545 C43.8371715,20.0024182 43.5487916,20.2910682 43.1931609,20.2910682 C42.8374164,20.2910682 42.5491504,20.0024182 42.5491504,19.6464545 C42.5491504,19.2904909 42.8374164,19.0018409 43.1931609,19.0018409 C43.5487916,19.0018409 43.8371715,19.2904909 43.8371715,19.6464545 Z" id="Path-73" fill="#DB614B" fill-rule="nonzero"></path>
                                    <path d="M43.9579947,22.7862364 C43.9579947,23.1422 43.6696148,23.43085 43.3139842,23.43085 C42.9582396,23.43085 42.6699736,23.1422 42.6699736,22.7862364 C42.6699736,22.4301586 42.9582396,22.1416227 43.3139842,22.1416227 C43.6696148,22.1416227 43.9579947,22.4301586 43.9579947,22.7862364 Z" id="Path-74" fill="#DB614B" fill-rule="nonzero"></path>
                                    <path d="M31.7833456,36.8080091 C32.3943008,38.2911909 35.6531082,46.1737318 36.3427124,48.0847545 C36.3573024,48.1243441 36.3936633,48.1517259 36.4357235,48.1546923 C36.4777836,48.1576586 36.5176781,48.1356391 36.5376253,48.0984455 C37.1223641,46.9951864 39.974248,42.1531682 44.9166016,42.1531682 C49.4816675,42.1531682 52.5478417,46.1703091 53.387905,47.6295318 C53.4357784,47.7184086 53.5328929,47.7691791 53.6331989,47.7578841 C53.733391,47.7465891 53.8168274,47.6755105 53.8438417,47.5781909 C54.4855726,45.4401273 56.3879683,37.9329455 57.0627546,35.3305318 C57.0894269,35.2267091 57.0466828,35.11741 56.9565214,35.0594518 C56.8664739,35.0013795 56.7494121,35.0076545 56.6660897,35.0749682 C54.4616359,36.8639136 45.9777942,42.4737636 31.9235462,36.6722409 C31.8843356,36.6556977 31.8390839,36.6641405 31.8085361,36.69369 C31.7779884,36.7233536 31.7680718,36.7683055 31.7833456,36.8080091 Z" id="Path-75" fill="#DB8C4B" fill-rule="nonzero"></path>
                                    <path d="M25.8139947,18.9208364 L29.6757784,26.9745136 C29.6757784,26.9745136 28.3888971,30.5991818 30.3995778,35.2700636 L30.0986596,36.45775 C30.0986596,36.45775 27.100876,31.8872682 29.1126966,26.9745136 L25.8139947,18.9208364 Z" id="Path-76" fill="#DB8C4B" fill-rule="nonzero"></path>
                                    <path d="M58.2595884,32.4714136 C58.2595884,32.4714136 59.5795251,28.7737273 58.6676517,26.7326409 L61.5651293,18.3572273 L59.4723799,26.7326409 C59.4723799,26.7326409 60.2771082,30.0081909 58.6676517,33.1753545 L58.2595884,32.4714136 Z" id="Path-77" fill="#DB8C4B" fill-rule="nonzero"></path>
                                    <path d="M39.8408865,10.30355 L39.9480317,12.9344864 C39.9480317,12.9344864 41.2349129,16.5317727 43.1931609,18.3572273 C43.1931609,18.3572273 41.342058,17.2300091 40.7527599,17.2836318 C40.1634617,17.3372545 35.0125172,20.0754364 35.0125172,20.0754364 C35.0125172,20.0754364 36.0383747,13.6327227 36.2469657,13.2573636 C36.4555567,12.8820045 39.8408865,10.30355 39.8408865,10.30355 Z" id="Path-78" fill="#FFB657" fill-rule="nonzero"></path>
                                    <path d="M43.1931609,18.3572273 C43.1931609,18.3572273 46.3847177,13.6863455 46.4382902,13.0953545 C46.4918628,12.5043636 46.5454354,10.0354364 46.5454354,10.0354364 C46.5454354,10.0354364 49.6024908,11.9145136 49.8179208,12.5055045 C50.2408021,13.6703727 51.4809499,20.3971727 51.4809499,20.3971727 C51.4809499,20.3971727 47.1358734,17.1763864 46.2775726,16.9082727 C45.4192718,16.6401591 43.1931609,18.3572273 43.1931609,18.3572273 Z" id="Path-79" fill="#FFB657" fill-rule="nonzero"></path>
                                    <path d="M39.8408865,10.30355 C39.8408865,10.30355 36.4612559,12.8808636 36.2469657,13.2573636 C36.1811968,13.4334059 36.1319557,13.6152668 36.0999261,13.8004364 C36.7017625,13.3292409 37.3617309,13.0531409 38.080971,12.8032818 C39.405467,13.6977545 40.4438628,14.8751727 41.4366649,16.0617182 C40.852952,15.0626241 40.3549551,14.0156118 39.9480317,12.9322045 L39.8408865,10.30355 Z" id="Path-80" fill="#DB8C4B" fill-rule="nonzero"></path>
                                    <path d="M49.8179208,12.5055045 C49.6024908,11.9145136 46.5454354,10.0354364 46.5454354,10.0354364 C46.5454354,10.0354364 46.4918628,12.5055045 46.4382902,13.0953545 C46.4132137,13.3783 45.6700369,14.5933682 44.9017836,15.7844773 C45.7429868,14.84665 46.4770449,13.8301 47.3889182,12.9983773 C48.5974923,13.5818382 49.6650681,14.4210909 50.5177836,15.4581773 C50.241942,14.1267364 49.9717995,12.9356273 49.8179208,12.5055045 Z" id="Path-81" fill="#DB8C4B" fill-rule="nonzero"></path>
                                    <path d="M21.3503747,37.2871909 C20.7884327,36.9919236 20.2438164,36.6647109 19.7192612,36.30715 C19.605277,37.0247818 19.5380264,37.4480591 19.5380264,37.4480591 C22.2736464,41.3933227 28.9519789,40.74985 28.9519789,40.74985 L29.3873984,39.1012364 C29.1696887,39.1103636 28.9531187,39.1160682 28.7411082,39.1160682 C26.1660918,39.1127595 23.630286,38.4852595 21.3503747,37.2871909 Z" id="Path-82" fill="#FFFFFF" fill-rule="nonzero"></path>
                                    <path d="M60.8344908,37.0430364 L61.6984908,38.5718545 C65.1590501,34.8673227 69.7446332,33.6591 69.7446332,33.6591 C69.7446332,33.6591 69.4300369,33.0156273 68.9216675,31.9865273 C65.8019208,33.1753545 62.9101425,34.6790727 60.8344908,37.0430364 Z" id="Path-83" fill="#FFFFFF" fill-rule="nonzero"></path>
                                </g>
                            </g>
                        </g>
                    </g>
                    <g id="girl-pant-A" transform="translate(43.655937, 102.567727)">
                        <g id="all_character_part-4">
                            <g id="girl_pant_A">
                                <g id="group-1">
                                    <polygon id="Path-84" points="0 0 78.1281689 0 78.1281689 132.786986 0 132.786986"></polygon>
                                    <path d="M25.1460475,6.64123182 C25.1460475,6.64123182 40.5943219,13.5266182 54.3533509,7.84945455 C54.3533509,7.84945455 60.3876728,25.4867682 60.2668496,69.7004182 C60.2668496,69.7004182 66.7844644,118.141136 69.9224485,126.235886 C69.9224485,126.235886 65.3357256,129.375668 59.4222269,125.994014 C59.4222269,125.994014 55.4635567,103.914 53.7503747,98.8129955 C52.2628813,94.3839864 48.319029,86.2493045 51.2153668,71.6331182 C51.2153668,71.6331182 40.312781,26.9767955 40.0722744,26.0093045 C39.8317678,25.0418136 33.4737309,68.5321273 32.6633034,71.7597591 C32.5709763,72.1294136 31.4163166,123.704209 31.2954934,125.395036 C31.2954934,125.395036 25.0263641,128.053355 21.3993879,124.791495 C21.3993879,124.791495 18.0197573,85.6514682 24.8998417,70.0677909 C24.8998417,70.0677909 23.5650871,61.1823909 22.485657,49.7733 C21.4871557,39.2084818 20.6824274,26.49305 22.0092032,16.6675409 C22.5643061,12.5534227 23.83181,9.41478182 25.1460475,6.64123182 Z" id="Path-85" fill="#36475D" fill-rule="nonzero"></path>
                                    <path d="M40.0722744,26.0093045 L42.8078945,24.56035 C42.8078945,24.56035 42.9686121,11.0303091 42.8078945,10.5477045 C42.6471768,10.0651 39.9104169,10.5477045 39.9104169,10.5477045 L40.0722744,26.0093045 Z" id="Path-86" fill="#4C5F78" fill-rule="nonzero"></path>
                                    <path d="M50.5314617,9.25847727 L49.8874512,9.74222273 C51.1674934,16.5739864 54.7796517,19.3019 57.0684538,20.3652273 C57.0106639,20.0054986 56.9528739,19.6540986 56.8951979,19.3110273 C51.4433351,16.1644 50.5314617,9.25847727 50.5314617,9.25847727 Z" id="Path-87" fill="#2D3B4C" fill-rule="nonzero"></path>
                                    <path d="M28.0024908,9.74222273 L27.1977625,9.25847727 C26.5298153,14.6116227 23.5502691,17.4159773 21.7755356,18.6356091 C21.729942,19.0714364 21.6900475,19.5141091 21.6512929,19.9602045 C27.1578681,16.2248682 28.0024908,9.74222273 28.0024908,9.74222273 Z" id="Path-88" fill="#2D3B4C" fill-rule="nonzero"></path>
                                    <path d="M51.9802005,71.2703091 C49.2445805,63.2166318 41.680591,26.6539182 41.680591,26.6539182 L47.9565594,21.1775545 L39.9913456,25.9693727 L39.9104169,26.3721136 L51.2153668,71.6331182 C48.319029,86.2493045 52.2628813,94.3839864 53.7503747,98.8129955 C48.7612876,84.4786136 51.9802005,71.2703091 51.9802005,71.2703091 Z" id="Path-89" fill="#2D3B4C" fill-rule="nonzero"></path>
                                    <path d="M55.1124855,10.5374364 C54.6565488,8.71198182 54.3579103,7.84945455 54.3579103,7.84945455 C40.5943219,13.5266182 25.1460475,6.64123182 25.1460475,6.64123182 C24.7710396,7.43188182 24.400591,8.25447727 24.0495198,9.11928636 C27.8246755,10.8625955 41.3796728,16.2043318 55.1124855,10.5374364 Z" id="Path-90" fill="#B6C7DC" fill-rule="nonzero"></path>
                                    <path d="M37.9818047,9.86087727 C37.9088549,10.8603136 37.7686544,11.8483409 37.6398522,12.83865 C40.0039979,13.1000323 42.3871789,13.1435009 44.7591894,12.9687136 L44.7593034,10.0114773 C42.5000232,10.1550036 40.2325361,10.1046895 37.9818047,9.86087727 Z" id="Path-91" fill="#BF7E58" fill-rule="nonzero"></path>
                                    <path d="M26.8444116,70.8915273 C27.439409,71.1322591 28.44019,71.3182273 29.7464485,70.7489136 C29.8550755,70.7013377 29.9821678,70.7312295 30.0581953,70.8223882 C30.1342227,70.9135468 30.1409478,71.0440668 30.074723,71.1425273 C29.2836728,72.3153818 27.7084116,74.0062091 26.4956201,71.2440682 C26.453104,71.1438964 26.4753309,71.02798 26.5518142,70.9507405 C26.6282976,70.8733868 26.7438776,70.8499982 26.8444116,70.8915273 Z" id="Path-92" fill="#2D3B4C" fill-rule="nonzero"></path>
                                    <path d="M55.0828496,72.6097364 C56.2205256,72.9358082 57.4251103,72.9488145 58.5696253,72.6473864 C58.7041266,72.6111055 58.8468348,72.6647282 58.9242301,72.7807586 C59.0016253,72.896675 58.996496,73.0491005 58.9115778,73.1596545 C58.1558628,74.1454 56.6239156,75.4243591 54.7420369,73.1265682 C54.6517615,73.0168127 54.6436686,72.8609645 54.7218617,72.74231 C54.8001689,72.6236555 54.9465245,72.5698045 55.0828496,72.6097364 Z" id="Path-93" fill="#2D3B4C" fill-rule="nonzero"></path>
                                    <path d="M23.6004222,85.5499273 C24.8702058,76.0313227 26.5936464,70.5880455 26.6164433,70.5321409 C26.6268158,70.5013364 26.6298934,70.4684782 26.625562,70.4363045 C23.4408443,43.7036636 23.5628074,18.3720591 23.5639472,18.1187773 C23.5639472,18.058195 23.5398966,18.0002368 23.4971525,17.9574527 C23.4544084,17.9146686 23.3963905,17.8905955 23.3359789,17.8905955 C23.2754533,17.8905955 23.2175493,17.9146686 23.1748053,17.9574527 C23.1319472,18.0002368 23.1080106,18.058195 23.1080106,18.1187773 C23.1080106,18.3709182 22.9837678,43.6991 26.1616464,70.4454318 C25.9883905,71.0044773 24.3618364,76.3964136 23.1501847,85.47805 C21.9829868,94.2276818 20.9708074,108.284823 22.7501003,125.693955 C22.9073984,125.770395 23.0681161,125.841132 23.2299736,125.903882 C21.419905,108.425155 22.4309446,94.3155318 23.6004222,85.5499273 Z" id="Path-94" fill="#2D3B4C" fill-rule="nonzero"></path>
                                    <path d="M52.9616042,78.5698455 C53.0676095,73.9719818 53.7218786,71.59775 53.7275778,71.5737909 C53.7371525,71.5363691 53.7371525,71.4971218 53.7275778,71.4597 C52.1386385,65.4128818 43.3550185,25.4034818 43.2706702,25.0007409 C43.2533446,24.9209914 43.1948707,24.8566441 43.1172475,24.8317723 C43.0396243,24.8069005 42.9547061,24.8253832 42.8944084,24.8802609 C42.8341108,24.9351386 42.8076665,25.0179686 42.8249921,25.0977182 C42.9127599,25.5004591 51.6393879,65.2668455 53.2716412,71.5167455 C53.1656359,71.9217682 52.6071135,74.2458 52.5045277,78.5390409 C52.4042216,82.8140273 52.7644116,89.9241727 55.0554934,99.5157955 C58.1809393,112.5986 60.3979314,122.623768 61.3246227,126.897614 C61.4944591,126.960364 61.6665752,127.011705 61.8284327,127.071032 C60.9370765,122.963759 58.6904485,112.782286 55.4966121,99.4131136 C53.2237678,89.8739727 52.862438,82.8140273 52.9616042,78.5698455 Z" id="Path-95" fill="#2D3B4C" fill-rule="nonzero"></path>
                                </g>
                            </g>
                        </g>
                    </g>
                    <path d="M101.095979,108.204959 C101.095979,108.204959 98.6031451,106.708086 97.3846544,106.037232 C97.3846544,106.037232 96.3325805,103.820445 96.1103113,103.4873 C95.8880422,103.154155 94.8918206,103.373209 94.0061636,103.931114 C93.1205066,104.489018 89.6850237,106.370377 89.9620053,107.423436 C90.2389868,108.476495 95.1140897,105.3698 95.1140897,105.3698 L95.9450343,106.978482 C95.9450343,106.978482 92.7318206,108.586023 92.5106913,108.803936 C92.0718522,109.243186 89.3533298,112.408068 89.5186069,113.129123 C89.5904169,113.437168 90.3016781,113.396095 91.0699314,112.851882 C92.0957889,112.125123 93.3165594,110.684155 94.1714406,109.802232 L96.3872929,108.803936 L96.5537098,109.032118 C96.5537098,109.032118 94.5601266,110.085177 94.5019947,110.306514 C94.4438628,110.52785 91.180496,113.634545 91.900876,114.469691 C92.6212559,115.304836 95.8333298,111.309373 95.8333298,111.309373 L97.4405066,110.644223 C97.4405066,110.644223 97.7722005,110.810795 97.7722005,111.032132 C97.7722005,111.253468 93.3416359,114.797132 93.8397467,115.745227 C94.3378575,116.693323 98.3820158,112.916914 98.3820158,112.916914 C98.3820158,112.916914 104.061847,114.321373 104.530322,110.749186 C104.807303,108.648773 101.095979,108.204959 101.095979,108.204959 Z" id="Path-96" fill="#F3BD9E" fill-rule="nonzero"></path>
                    <g id="girl-face-A" transform="translate(63.489182, 16.885455)" fill-rule="nonzero">
                        <g id="all_character_part-5">
                            <g id="girl_face_A">
                                <path d="M6.2258153,25.0737591 C3.53008971,26.0344045 0.696443272,22.3720864 2.25004749,20.6242136 C3.23487071,19.51525 5.09965172,21.4354 5.58180475,21.9693455 L5.3071029,20.6504545 C5.3071029,20.6504545 3.72728232,17.0143773 1.54562533,18.28535 C-0.636031662,19.5563227 -0.0980263852,22.6208045 0.694163588,24.1576091 C1.48635356,25.6944136 4.19575726,28.8570136 6.54725066,26.6208318 L6.2258153,25.0737591 Z" id="Path-97" fill="#F3BD9E"></path>
                                <path d="M2.25004749,20.6242136 C0.696443272,22.3720864 3.53008971,26.0344045 6.2258153,25.0737591 L5.58522427,21.9693455 C5.10079156,21.4354 3.23487071,19.51525 2.25004749,20.6242136 Z" id="Path-98" fill="#DB9E7B"></path>
                                <path d="M33.2902164,25.2939545 C35.9699842,26.2979545 38.8629024,22.6835545 37.3377942,20.9094409 C36.3700686,19.7856455 34.4745119,21.6749909 33.9843799,22.20095 L34.2795989,20.8843409 C34.2795989,20.8843409 35.9186913,17.2733636 38.080971,18.5797045 C40.2432507,19.8860455 39.6539525,22.9414 38.8378259,24.4656545 C38.0216992,25.9899091 35.258723,29.1080136 32.9448443,26.8330409 L33.2902164,25.2939545 Z" id="Path-99" fill="#F3BD9E"></path>
                                <path d="M37.3377942,20.9094409 C38.8629024,22.6835545 35.9699842,26.2979545 33.2902164,25.2939545 L33.9843799,22.20095 C34.4745119,21.6772727 36.3700686,19.7856455 37.3377942,20.9094409 Z" id="Path-100" fill="#DB9E7B"></path>
                                <path d="M19.9620475,0.114090909 C3.2018153,-0.132345455 4.03162005,16.0423227 4.27326649,18.6447364 C4.29492348,18.8729182 4.615219,22.5067136 5.4518628,27.1399455 C6.40591029,32.4223545 14.2286438,36.4794273 17.8522005,38.0926727 C18.971867,38.5926191 20.2503135,38.5967264 21.3731715,38.1040818 C24.9933087,36.5170773 33.0246332,32.4645682 34.0254142,27.3726909 C34.9372876,22.7542909 35.3168549,19.1296227 35.3419314,18.8980182 C35.6303113,16.3001682 36.7234195,0.140331818 19.9620475,0.114090909 Z" id="Path-101" fill="#F3BD9E"></path>
                                <path d="M35.3464908,18.2134727 C35.3214142,18.4416545 34.941847,22.0697455 34.0299736,26.6881455 C32.9573826,32.1211545 23.8853826,36.3710409 20.7086438,37.7059045 C20.008895,37.9990041 19.2205805,37.9969505 18.5224274,37.7002 C15.3149129,36.3311091 6.46974142,32.0926318 5.4518628,26.4554 C4.615219,21.8221682 4.29492348,18.1929364 4.27326649,17.9601909 C4.24135092,17.6179182 4.19917678,17.0246455 4.18891821,16.2659409 C4.17603799,17.0598995 4.20419208,17.8538582 4.27326649,18.6448505 C4.29492348,18.8729182 4.615219,22.5067136 5.4518628,27.1399455 C6.40591029,32.4223545 14.2286438,36.4794273 17.8522005,38.0926727 C18.971867,38.5926191 20.2503135,38.5967264 21.3731715,38.1040818 C24.9933087,36.5170773 33.0246332,32.4645682 34.0254142,27.3726909 C34.9372876,22.7542909 35.3168549,19.1296227 35.3419314,18.8980182 C35.4374501,17.9770764 35.4778005,17.0513427 35.4627546,16.1256091 C35.4547757,17.0748455 35.3909446,17.80845 35.3464908,18.2134727 Z" id="Path-102" fill="#DB9E7B"></path>
                            </g>
                        </g>
                    </g>
                    <g id="girl-hair-B">
                        <g id="all_character_part-6">
                            <g id="girl_hair_B">
                                <polygon id="Path-103" points="0 0 143.887916 0 143.887916 250.329145 0 250.329145"></polygon>
                                <path d="M72.0710501,27.1604818 C72.0710501,27.1604818 80.6403799,26.6767364 84.6229868,22.3287318 C84.6229868,22.3287318 79.5541108,27.5232909 77.3815726,28.9722455 C77.3815726,28.9722455 87.1579947,25.2277818 88.7264169,20.5158273 C88.7264169,20.5158273 86.3122322,26.0731955 83.5367177,28.8513091 C83.5367177,28.8513091 89.2097098,25.4696545 90.4156623,21.2414455 C90.4156623,21.2414455 92.2268707,25.2277818 95.8470079,28.1268318 C95.8470079,28.1268318 97.9386174,41.0932636 95.0422797,46.8913636 C95.0422797,46.8913636 98.5016992,43.5895727 98.9040633,35.9386364 C98.9040633,35.9386364 100.130533,34.6916227 101.399177,35.3750273 C102.444412,35.9386364 103.421256,37.1149136 102.927704,39.2872045 C101.720612,44.6027 97.6502375,44.5559227 97.6502375,44.5559227 C97.6502375,44.5559227 95.5255726,50.5958955 86.1116201,54.3346545 L86.0306913,54.7841727 C86.0306913,54.7841727 93.5946807,54.7031682 100.111156,60.7431409 C100.111156,60.7431409 105.663325,43.5827273 105.863937,32.8308 C106.080507,21.29735 100.755166,7.4296 84.1408338,7.46944578 C67.0580264,7.51060455 59.1429657,20.6242136 60.6532559,35.8576318 C62.2216781,51.6831818 67.1229974,60.8640773 67.1229974,60.8640773 C67.1229974,60.8640773 73.8811187,54.9450409 79.5142164,54.6221636 L79.5142164,53.9786909 C79.5142164,53.9786909 71.1454987,50.8377682 68.9741003,44.2341864 C68.9741003,44.2341864 64.7088127,43.7504409 63.6635778,39.8040364 C62.618343,35.8576318 65.5944697,33.5221909 67.7670079,35.9386364 C67.7670079,35.9386364 68.4908074,44.3950545 71.870438,47.5359773 C71.870438,47.5359773 68.6515251,33.6031955 72.0710501,27.1604818 Z" id="Path-104" fill="#5A3D2E" fill-rule="nonzero"></path>
                                <path d="M67.7784063,26.3241955 C66.6944169,29.0954636 65.872591,32.01505 65.5693931,34.9802727 C66.2726755,34.8741682 67.0511873,35.1536909 67.7533298,35.9238045 C67.5128232,32.7246955 67.3247493,29.5244455 67.7784063,26.3241955 Z" id="Path-105" fill="#3D2E26" fill-rule="nonzero"></path>
                                <path d="M74.7246016,21.9054545 C73.648591,23.5335318 72.7937098,25.3281818 72.0870079,27.1604818 C72.2009921,27.1536364 72.9008549,27.1057182 73.9460897,26.9516955 C73.8549024,25.2848273 74.2344697,23.5449409 74.7246016,21.9054545 Z" id="Path-106" fill="#3D2E26" fill-rule="nonzero"></path>
                                <path d="M95.4332454,21.1855409 C95.3010237,23.0463636 94.9488127,24.8718182 94.1691609,26.5888864 C94.6948559,27.1370932 95.2553161,27.6508445 95.8470079,28.1268318 C95.8470079,28.1268318 95.8720844,28.2819955 95.9131187,28.5672227 C96.0544591,26.0800409 96.0373615,23.5643364 95.4332454,21.1855409 Z" id="Path-107" fill="#3D2E26" fill-rule="nonzero"></path>
                                <path d="M67.1879683,60.8104545 C67.8844116,60.2149 74.2002744,54.9290682 79.5142164,54.6244455 L79.5142164,53.9809727 C79.5142164,53.9809727 71.1466385,50.84005 68.9741003,44.2364682 C68.8027821,44.2130795 68.6327177,44.1811341 68.464591,44.1406318 C67.3749024,49.6204182 66.686438,55.2599318 67.1879683,60.8104545 Z" id="Path-108" fill="#3D2E26" fill-rule="nonzero"></path>
                                <path d="M98.3227441,44.4772 C98.1013868,44.5240914 97.8762681,44.5504464 97.6502375,44.5559227 C97.6502375,44.5559227 95.5255726,50.5958955 86.1116201,54.3346545 L86.0306913,54.7841727 C86.0306913,54.7841727 93.5034934,54.70545 99.993752,60.6358955 C99.6290026,54.7841727 98.9849921,49.1458 98.3227441,44.4772 Z" id="Path-109" fill="#3D2E26" fill-rule="nonzero"></path>
                                <path d="M85.0743641,21.4239909 C81.9135831,21.5118409 79.0332032,21.1901045 76.0057836,20.2248955 C75.6563082,20.9750432 75.3979061,21.7645523 75.2363905,22.5763091 C78.6695937,22.9231455 81.8258153,22.4827545 85.0743641,21.4239909 Z" id="Path-110" fill="#92654E" fill-rule="nonzero"></path>
                                <path d="M67.0910818,15.3075773 C66.045847,16.4188227 65.2525172,17.7525455 64.5515145,19.1353273 C67.3532454,20.7782364 70.1458575,21.9784727 73.3989657,22.4439636 C73.7409182,21.6076773 74.2891821,20.5044182 74.606058,19.66585 C71.7655726,18.6527227 69.3023747,17.2973227 67.0910818,15.3075773 Z" id="Path-111" fill="#92654E" fill-rule="nonzero"></path>
                                <path d="M91.9852243,20.8786364 C92.9324327,21.0015123 93.8887599,21.0396186 94.8428074,20.9927273 C94.8063325,20.6995136 94.7607388,20.4074409 94.7094459,20.1142273 C93.8190016,20.4280914 92.908952,20.6834268 91.9852243,20.8786364 Z" id="Path-112" fill="#92654E" fill-rule="nonzero"></path>
                                <path d="M101.307989,17.1136364 C99.8535515,18.0183773 97.7744802,18.9847273 95.7934354,19.7308818 C95.8641055,20.1290591 95.9313562,20.5295182 95.9883483,20.9356818 C98.2067082,20.7628341 100.407856,20.4137159 102.570934,19.89175 C102.214961,18.9374936 101.792992,18.0091359 101.307989,17.1136364 Z" id="Path-113" fill="#92654E" fill-rule="nonzero"></path>
                                <path d="M99.0898575,35.7754864 C99.3953351,35.52905 100.047325,35.0977864 100.784802,35.1810727 C100.402955,33.0475727 100.08038,30.9163545 98.9906913,29.0749273 C98.9758734,31.28715 99.1981425,33.5427273 99.0898575,35.7754864 Z" id="Path-114" fill="#3D2E26" fill-rule="nonzero"></path>
                            </g>
                        </g>
                    </g>
                    <g id="eyes-F" transform="translate(70.442216, 32.401818)" fill-rule="nonzero">
                        <g id="all_character_part-7">
                            <g id="eyes_F">
                                <path d="M18.0596517,1.73532273 L20.8864591,0.456363636 L23.2960844,0.829440909 L24.8588074,2.02739545 L25.4526649,2.77811364 L25.4298681,3.42272727 C21.3583536,5.71139091 17.0520317,3.78097273 17.0520317,3.78097273 L18.0596517,1.73532273 Z" id="Path-115" fill="#F7FAF4"></path>
                                <path d="M23.4738997,1.89162727 C23.4560042,1.52779136 23.3869298,1.16829091 23.2687282,0.823736364 L20.8864591,0.456363636 L18.9658259,1.32573636 C18.9260454,1.58997091 18.9125953,1.85751409 18.9259314,2.12437273 C18.9760844,3.10555455 19.375029,3.95781364 19.9517889,4.47920909 C20.8563673,4.56637455 21.7686966,4.52986545 22.6634723,4.37082273 C23.2014776,3.79466364 23.5240528,2.89106364 23.4738997,1.89162727 Z" id="Path-116" fill="#3B201D"></path>
                                <path d="M25.4298681,3.42272727 C25.4298681,3.42272727 24.083715,1.00171818 21.7470396,0.9789 C19.4103641,0.956081818 17.6595673,2.60811818 17.0520317,3.77526818 C17.0520317,3.77526818 16.9688232,2.23047727 18.64781,0.940109091 C20.2435884,-0.281804545 23.918438,-0.751859091 25.6521372,2.41188182 L25.4298681,3.42272727 Z" id="Path-117" fill="#321818"></path>
                                <path d="M7.61414248,1.83800455 L4.82836939,0.468913636 L2.40848549,0.768972727 L0.809287599,1.91900909 L0.192633245,2.65033182 L0.192633245,3.29152273 C4.19461741,5.70454545 8.5579314,3.90761364 8.5579314,3.90761364 L7.61414248,1.83800455 Z" id="Path-118" fill="#F7FAF4"></path>
                                <path d="M6.73646438,2.19967273 C6.75846332,1.93361273 6.75310607,1.66595545 6.7205066,1.40103636 L4.82836939,0.470054545 L2.43470185,0.76555 C2.30726755,1.10622545 2.22747863,1.46287364 2.19761478,1.82545455 C2.11668602,2.82260909 2.41076517,3.73647727 2.93167282,4.32860909 C3.82131926,4.51434909 4.7318248,4.57915273 5.63879683,4.52142273 C6.23037467,4.01828182 6.65553562,3.17857273 6.73646438,2.19967273 Z" id="Path-119" fill="#3B201D"></path>
                                <path d="M0.19605277,3.29152273 C0.19605277,3.29152273 1.61629551,0.912727273 3.95183113,0.967490909 C6.28736675,1.02225455 7.98687071,2.72220909 8.5579314,3.90761364 C8.5579314,3.90761364 8.68901319,2.36624545 7.04650132,1.02453636 C5.48947757,-0.245295455 1.82944591,-0.829440909 0,2.28181818 L0.19605277,3.29152273 Z" id="Path-120" fill="#321818"></path>
                            </g>
                        </g>
                    </g>
                    <g id="girl-mouth-A" transform="translate(78.307124, 44.837727)" fill-rule="nonzero">
                        <g id="all_character_part-8">
                            <g id="girl_mouth_A">
                                <path d="M0.00683024203,0.709645455 C0.00683024203,0.709645455 -0.033055409,6.20540455 5.25694987,6.04681818 C9.80263852,5.90648636 9.9770343,0.71535 9.9770343,0.71535 L0.00683024203,0.709645455 Z" id="Path-121" fill="#C25857"></path>
                                <path d="M0,0.71535 C0,0.71535 0.751155673,4.52826818 5.36409499,4.52826818 C9.11873351,4.52826818 9.9770343,0.71535 9.9770343,0.71535 L0,0.71535 Z" id="Path-122" fill="#FFFFFF"></path>
                                <path d="M0,0.71535 C0,0.71535 5.14980475,2.86368182 9.9770343,0.71535 C9.9770343,0.71535 5.04265963,-0.894472727 0,0.71535 Z" id="Path-123" fill="#C25857"></path>
                            </g>
                        </g>
                    </g>
                    <g id="nose-B" transform="translate(82.410554, 35.596364)" fill="#73402A" fill-rule="nonzero">
                        <g id="all_character_part-9">
                            <g id="nose_B">
                                <path d="M0.362469657,0.157445455 L2.07679156,5.36227273 L0.113984169,6.94471364 C0.0014817942,7.06279773 -0.0299778364,7.23667227 0.0339672823,7.38670182 C0.0979124011,7.53684545 0.245065963,7.63450727 0.408063325,7.63496451 L0.727218997,7.63496451 C0.837099736,7.63519182 0.942421108,7.59069636 1.01901847,7.51174545 L3.11518734,5.36227273 L0.599556728,0.0730181818 C0.571516623,0.0146036364 0.504037995,-0.0132345455 0.443056464,0.00844272727 C0.382074934,0.0302340909 0.347309763,0.0944672727 0.362469657,0.157445455 Z" id="Path-124"></path>
                            </g>
                        </g>
                    </g>
                    <g id="hat-A" transform="translate(26.786280, 0.114091)">
                        <g id="all_character_part-10">
                            <g id="hat_A">
                                <polygon id="Path-125" points="0 0 114.373995 0 114.373995 62.3027636 0 62.3027636"></polygon>
                                <path d="M58.5912823,4.23391364 C58.5912823,5.31583773 57.318991,6.19285455 55.749657,6.19285455 C54.180209,6.19285455 52.9080317,5.31583773 52.9080317,4.23391364 C52.9080317,3.15198955 54.180209,2.27497273 55.749657,2.27497273 C57.318991,2.27497273 58.5912823,3.15198955 58.5912823,4.23391364 Z" id="Path-126" fill="#FD6095" fill-rule="nonzero"></path>
                                <path d="M53.726438,3.75130909 C39.2504485,5.26643636 34.5953351,13.7308409 34.5497414,27.9100591 L45.3189657,23.1182409 C45.4352296,20.0161091 46.360781,8.13468182 53.726438,3.75130909 Z" id="Path-127" fill="#9F406A" fill-rule="nonzero"></path>
                                <path d="M56.678628,3.51856364 C56.3343958,3.53681818 55.9950649,3.56191818 55.6607493,3.59386364 C54.9973615,3.63265455 54.3514132,3.68513636 53.7230185,3.75130909 C46.360781,8.13468182 45.4352296,20.0161091 45.3189657,23.1148182 L55.6618892,18.5089682 L66.5918311,21.6270727 C65.4725066,8.6093 59.5624274,4.67772727 56.678628,3.51856364 Z" id="Path-128" fill="#C04B78" fill-rule="nonzero"></path>
                                <path d="M56.678628,3.51856364 C59.5624274,4.67316364 65.4725066,8.6093 66.5952507,21.6270727 L79.0069868,25.1638909 C78.7505224,7.54369091 65.9421214,3.02797273 56.678628,3.51856364 Z" id="Path-129" fill="#9F406A" fill-rule="nonzero"></path>
                                <path d="M34.5497414,27.9100591 C34.5497414,27.9100591 44.2543536,17.5951 57.3670923,17.7251636 C70.4798311,17.8552273 79.0035673,25.1684545 79.0035673,25.1684545 C79.0035673,25.1684545 77.1684222,34.8296727 63.0697203,26.0423909 C58.7508602,23.3509864 53.870058,24.2751227 49.7609288,27.3875227 C37.6968443,36.5273455 34.5497414,27.9100591 34.5497414,27.9100591 Z" id="Path-130" fill="#FD6095" fill-rule="nonzero"></path>
                                <path d="M78.4211082,24.7063864 C78.0440422,25.3739323 77.6323377,26.0213982 77.1877995,26.6459318 C76.2348918,27.9146227 74.8317467,28.5580955 73.0171187,28.5580955 C70.524285,28.5580955 67.3441266,27.3635636 63.5655515,25.0075864 C61.7953773,23.8812809 59.7416106,23.2821895 57.6440739,23.28025 C54.8149868,23.28025 51.8958522,24.35955 49.2012665,26.4006364 C47.3034301,27.8381818 45.5218575,28.9083545 43.9078417,29.5757864 C42.5537098,30.1348318 41.3033034,30.4177773 40.1919578,30.4177773 C38.699905,30.4177773 37.4563377,29.9134955 36.4817731,28.9174818 C36.1762955,28.6048727 35.5436834,27.7149636 35.2279472,27.2403455 C34.783409,27.6602 34.5440422,27.9100591 34.5440422,27.9100591 C34.5440422,27.9100591 37.6911451,36.5273455 49.7552296,27.3875227 C53.8643588,24.2751227 58.7451609,23.3509864 63.0640211,26.0423909 C77.162723,34.8273909 78.9978681,25.1684545 78.9978681,25.1684545 C78.9978681,25.1684545 78.8029551,24.9961773 78.4211082,24.7063864 Z" id="Path-131" fill="#CC4170" fill-rule="nonzero"></path>
                                <path d="M41.126628,24.9608091 C40.9362744,26.0743364 40.9636306,27.4536955 41.9575726,28.2557545 C42.1541953,28.411945 42.2462945,28.6656832 42.1956855,28.9118914 C42.1451905,29.1579855 41.9605361,29.3547923 41.7182058,29.4206227 C40.3389974,29.7959818 38.2690449,29.869 36.7291187,27.7811364 C36.5159683,27.4969359 36.5630438,27.0953359 36.8362639,26.8684091 C37.4836939,26.3264773 38.743219,25.2916727 40.0642955,24.3104909 C40.2833731,24.1432336 40.5826955,24.1278314 40.8177309,24.2718141 C41.0528802,24.4156827 41.1755272,24.6893868 41.126628,24.9608091 Z" id="Path-132" fill="#FF82AB" fill-rule="nonzero"></path>
                                <path d="M72.5167282,27.6841591 C73.8389446,27.6065773 75.9031979,27.1331 77.1319472,25.1068455 C77.2387504,24.9295482 77.1851778,24.6994268 77.011124,24.5877318 C76.327219,24.1507636 74.6356939,23.0726045 73.3522322,22.3595364 C73.2079282,22.2779614 73.0276053,22.2987259 72.9056422,22.4111055 C72.7837931,22.523485 72.7482301,22.7018091 72.8176464,22.8524091 C73.331715,23.9636545 73.7523166,25.7115273 72.2420264,27.0144455 C72.1169858,27.1213486 72.0748116,27.2965923 72.1372749,27.4487895 C72.1996243,27.6011009 72.352705,27.6959105 72.5167282,27.6841591 Z" id="Path-133" fill="#FF82AB" fill-rule="nonzero"></path>
                                <path d="M52.5637995,15.6840773 C52.4579082,15.6856745 52.3527008,15.6654805 52.2549024,15.62475 C52.0572538,15.5398664 51.9306174,15.3437441 51.9346069,15.1284545 C51.9488549,14.9317618 52.0353689,14.7471627 52.1773931,14.6104818 C52.6356095,14.1016364 53.1748686,13.6721982 53.7731715,13.3395091 C53.8759852,12.8569045 53.9520127,12.3690518 54.0011398,11.8780045 L54.028496,11.6372727 C54.0467335,11.4878136 54.0683905,11.3429182 54.0911873,11.2037273 C53.3965678,11.6757214 52.6710586,12.10071 51.9197889,12.4758409 C51.8293995,12.5227323 51.7207726,12.5178264 51.6350565,12.4628345 C51.5492264,12.4079568 51.4993013,12.3113218 51.5039747,12.2095527 C51.508648,12.1077836 51.5672359,12.0161686 51.6576253,11.9692773 C52.6162322,11.4718409 53.5372243,10.9641364 54.2792612,10.3480455 C54.6018364,9.24592727 55.1466807,8.54084545 55.9274723,8.2077 C56.0321098,8.16229182 56.1538449,8.18362682 56.2367113,8.26212136 C56.3195778,8.34061591 56.3477319,8.46109591 56.3081794,8.56822727 C55.9992823,9.39995 55.4578575,10.0765091 54.7899103,10.6572318 C54.6996348,11.00133 54.633752,11.3512468 54.5927177,11.7045864 L54.5630818,11.9464591 C54.5209077,12.2978591 54.4764538,12.6640909 54.4114828,13.0269 C54.6152865,12.9429291 54.8234216,12.8697968 55.0349763,12.8078455 C55.3051187,12.7291227 55.5798206,12.6697955 55.8465435,12.61275 C56.0745119,12.56255 56.2956412,12.5146318 56.5099314,12.4564455 C56.7815557,11.5178195 57.4998839,10.7748595 58.428285,10.4724045 C58.5103536,10.4465059 58.5997172,10.45917 58.6714132,10.50686 C58.7431092,10.5544359 58.7895008,10.6319036 58.7975937,10.7177 C58.8842216,11.6304273 58.1649815,12.3914136 57.412686,12.7405318 C57.2768169,12.8032818 57.1375282,12.8585018 56.995504,12.9059636 C56.995504,12.9059636 56.995504,12.91395 56.995504,12.9185136 C56.9616507,13.0626105 56.9764686,13.213895 57.0376781,13.3486364 C57.2018153,13.6247364 57.7284222,13.5243364 58.0145224,13.4216545 C59.2031493,12.9921023 60.2246755,12.1954055 60.9313773,11.1466818 C61.0217668,11.0238059 61.192743,10.9938 61.3194934,11.0787977 C61.4461298,11.1636814 61.4836306,11.3334486 61.4044116,11.4638545 C60.631029,12.6125218 59.5136422,13.4861159 58.2128549,13.9590227 C57.6269763,14.1700909 56.8837995,14.1963318 56.5532454,13.6407091 C56.4556749,13.4669486 56.4090554,13.2693432 56.4187441,13.0702545 C56.2694248,13.1056227 56.1212454,13.1375682 55.9742058,13.1695136 C55.7166016,13.2254182 55.4521583,13.2836045 55.2013931,13.3554818 C54.8774501,13.4496068 54.5630818,13.5737377 54.2621636,13.7262773 C54.0832084,14.3617636 53.798248,14.9550364 53.2967177,15.4102591 C53.092914,15.5861873 52.8329161,15.6832786 52.5637995,15.6840773 Z M52.5102269,15.1136227 C52.6548728,15.126515 52.7989488,15.0823618 52.9114512,14.9904045 C53.1515018,14.7673568 53.3451609,14.499015 53.481372,14.2008955 C53.1599367,14.4326141 52.8641478,14.6979895 52.5991346,14.9926864 C52.5653953,15.0289673 52.5355314,15.068785 52.5102269,15.1113409 L52.5102269,15.1136227 Z M58.1820792,11.2025864 C57.7751557,11.436815 57.4443736,11.7834232 57.2291715,12.2008818 C57.6338153,11.9966591 58.0361794,11.6372727 58.1820792,11.2003045 L58.1820792,11.2025864 Z" id="Path-134" fill="#FFD9D9" fill-rule="nonzero"></path>
                                <path d="M65.5408971,7.12611818 C69.7412137,11.2333909 72.5623219,15.3281136 75.7607177,19.0657318 C75.8691166,19.1932855 76.0469319,19.2369823 76.2020644,19.1743464 C76.3571968,19.1117105 76.4548813,18.956775 76.4446227,18.7896318 C76.1927177,13.3771591 70.898153,7.56080455 65.9010871,6.46781364 C65.7301108,6.42502955 65.5517256,6.50306773 65.4671493,6.657775 C65.3824591,6.81259636 65.4127789,7.00495364 65.5408971,7.12611818 Z" id="Path-135" fill="#C04B78" fill-rule="nonzero"></path>
                                <path d="M37.5007916,19.06345 C37.519485,19.2263718 37.6348369,19.3617977 37.792705,19.4061791 C37.9504591,19.4504464 38.1193836,19.39477 38.2200317,19.2653909 C40.1668813,16.7713636 46.3482427,8.74620909 45.2106807,8.55681818 C44.2839894,8.40165455 36.6846649,11.80955 37.5007916,19.06345 Z" id="Path-136" fill="#C04B78" fill-rule="nonzero"></path>
                            </g>
                        </g>
                    </g>
                </g>
            </g>
        </g>
    </g>
</svg>