<svg xmlns="http://www.w3.org/2000/svg" xmlns:xlink="http://www.w3.org/1999/xlink" width="1439" height="493" viewBox="0 0 1439 493">
    <defs>
        <path id="prefix__a" d="M0 0H1440V493H0z"/>
    </defs>
    <g fill="none" fill-rule="evenodd">
        <mask id="prefix__b" fill="#fff">
            <use xlink:href="#prefix__a"/>
        </mask>
        <g mask="url(#prefix__b)">
            <g>
                <path fill="#26225D" d="M0 0H1729V928H0z" transform="translate(-145 -234)"/>
                <path fill="#3A348F" d="M78 0L157 117 78 232 0 117z" transform="translate(-145 -234) translate(157 696)"/>
                <path fill="#3A348F" d="M78 0L157 117 78 232 0 117z" transform="translate(-145 -234) translate(628 696)"/>
                <path fill="#3A348F" d="M78 0L157 117 78 232 0 117z" transform="translate(-145 -234) translate(1101 696)"/>
                <path fill="#3A348F" d="M78 0L157 117 78 232 0 117z" transform="translate(-145 -234) translate(314 696)"/>
                <path fill="#3A348F" d="M78 0L157 117 78 232 0 117z" transform="translate(-145 -234) translate(785 696)"/>
                <path fill="#3A348F" d="M78 0L157 117 78 232 0 117z" transform="translate(-145 -234) translate(1258 696)"/>
                <path fill="#3A348F" d="M78 0L157 117 78 232 0 117z" transform="translate(-145 -234) translate(471 696)"/>
                <path fill="#3A348F" d="M78 0L157 117 78 232 0 117z" transform="translate(-145 -234) translate(942 696)"/>
                <path fill="#3A348F" d="M78 0L157 117 78 232 0 117z" transform="translate(-145 -234) translate(1415 696)"/>
                <path fill="#3A348F" d="M78 0L157 117 78 232 0 117z" transform="translate(-145 -234) translate(1572 696)"/>
                <path fill="#3A348F" d="M78 0L157 117 78 232 0 117z" transform="translate(-145 -234) translate(0 696)"/>
                <g>
                    <path fill="#3A348F" d="M78 0L157 117 78 232 0 117z" transform="translate(-145 -234) translate(157 464)"/>
                    <path fill="#26225D" d="M115.203 169.279l10.625 15.752-.83.559-10.624-15.752.829-.56zm-73.321-.64l.819.574-10.898 15.563-.82-.573 10.899-15.564zm61.578-16.77l10.624 15.752-.829.559-10.624-15.752.829-.559zm-49.533-.432l.819.573-10.898 15.564-.82-.573 10.899-15.564zm37.79-16.978l10.624 15.752-.829.56-10.624-15.753.829-.559zm-25.745-.224l.819.573-10.898 15.564-.82-.574 10.899-15.563zm14.002-17.186l10.624 15.752-.829.56-10.624-15.752.829-.56zm-1.957-.017l.819.574-10.898 15.564-.82-.574 10.899-15.564zM90.062 99.83l.82.574-10.899 15.564-.819-.574L90.062 99.83zm-21.831-.19l10.624 15.751-.829.56-10.624-15.752.829-.56zm33.876-17.012l.82.574-10.899 15.563-.819-.573 10.898-15.564zm-45.62-.398l10.625 15.752-.829.559L55.66 82.789l.829-.56zm57.665-16.804l.82.573-10.899 15.564-.819-.573 10.898-15.564zm-69.407-.606l10.624 15.752-.829.559-10.624-15.752.829-.559zm81.452-16.596l.82.573-10.899 15.564-.819-.574 10.898-15.563zm-93.195-.814l10.624 15.752-.829.56-10.625-15.753.83-.559z" transform="translate(-145 -234) translate(157 464)"/>
                </g>
                <g>
                    <path fill="#3A348F" d="M78 0L157 117 78 232 0 117z" transform="translate(-145 -234) translate(628 464)"/>
                    <path fill="#26225D" d="M115.203 169.279l10.625 15.752-.83.559-10.624-15.752.829-.56zm-73.321-.64l.819.574-10.898 15.563-.82-.573 10.899-15.564zm61.578-16.77l10.624 15.752-.829.559-10.624-15.752.829-.559zm-49.533-.432l.819.573-10.898 15.564-.82-.573 10.899-15.564zm37.79-16.978l10.624 15.752-.829.56-10.624-15.753.829-.559zm-25.745-.224l.819.573-10.898 15.564-.82-.574 10.899-15.563zm14.002-17.186l10.624 15.752-.829.56-10.624-15.752.829-.56zm-1.957-.017l.819.574-10.898 15.564-.82-.574 10.899-15.564zM90.062 99.83l.82.574-10.899 15.564-.819-.574L90.062 99.83zm-21.831-.19l10.624 15.751-.829.56-10.624-15.752.829-.56zm33.876-17.012l.82.574-10.899 15.563-.819-.573 10.898-15.564zm-45.62-.398l10.625 15.752-.829.559L55.66 82.789l.829-.56zm57.665-16.804l.82.573-10.899 15.564-.819-.573 10.898-15.564zm-69.407-.606l10.624 15.752-.829.559-10.624-15.752.829-.559zm81.452-16.596l.82.573-10.899 15.564-.819-.574 10.898-15.563zm-93.195-.814l10.624 15.752-.829.56-10.625-15.753.83-.559z" transform="translate(-145 -234) translate(628 464)"/>
                </g>
                <g>
                    <path fill="#3A348F" d="M78 0L157 117 78 232 0 117z" transform="translate(-145 -234) translate(1101 464)"/>
                    <path fill="#26225D" d="M115.203 169.279l10.625 15.752-.83.559-10.624-15.752.829-.56zm-73.321-.64l.819.574-10.898 15.563-.82-.573 10.899-15.564zm61.578-16.77l10.624 15.752-.829.559-10.624-15.752.829-.559zm-49.533-.432l.819.573-10.898 15.564-.82-.573 10.899-15.564zm37.79-16.978l10.624 15.752-.829.56-10.624-15.753.829-.559zm-25.745-.224l.819.573-10.898 15.564-.82-.574 10.899-15.563zm14.002-17.186l10.624 15.752-.829.56-10.624-15.752.829-.56zm-1.957-.017l.819.574-10.898 15.564-.82-.574 10.899-15.564zM90.062 99.83l.82.574-10.899 15.564-.819-.574L90.062 99.83zm-21.831-.19l10.624 15.751-.829.56-10.624-15.752.829-.56zm33.876-17.012l.82.574-10.899 15.563-.819-.573 10.898-15.564zm-45.62-.398l10.625 15.752-.829.559L55.66 82.789l.829-.56zm57.665-16.804l.82.573-10.899 15.564-.819-.573 10.898-15.564zm-69.407-.606l10.624 15.752-.829.559-10.624-15.752.829-.559zm81.452-16.596l.82.573-10.899 15.564-.819-.574 10.898-15.563zm-93.195-.814l10.624 15.752-.829.56-10.625-15.753.83-.559z" transform="translate(-145 -234) translate(1101 464)"/>
                </g>
                <g>
                    <path fill="#3A348F" d="M78 0L157 117 78 232 0 117z" transform="translate(-145 -234) translate(314 464)"/>
                    <path fill="#26225D" d="M115.203 169.279l10.625 15.752-.83.559-10.624-15.752.829-.56zm-73.321-.64l.819.574-10.898 15.563-.82-.573 10.899-15.564zm61.578-16.77l10.624 15.752-.829.559-10.624-15.752.829-.559zm-49.533-.432l.819.573-10.898 15.564-.82-.573 10.899-15.564zm37.79-16.978l10.624 15.752-.829.56-10.624-15.753.829-.559zm-25.745-.224l.819.573-10.898 15.564-.82-.574 10.899-15.563zm14.002-17.186l10.624 15.752-.829.56-10.624-15.752.829-.56zm-1.957-.017l.819.574-10.898 15.564-.82-.574 10.899-15.564zM90.062 99.83l.82.574-10.899 15.564-.819-.574L90.062 99.83zm-21.831-.19l10.624 15.751-.829.56-10.624-15.752.829-.56zm33.876-17.012l.82.574-10.899 15.563-.819-.573 10.898-15.564zm-45.62-.398l10.625 15.752-.829.559L55.66 82.789l.829-.56zm57.665-16.804l.82.573-10.899 15.564-.819-.573 10.898-15.564zm-69.407-.606l10.624 15.752-.829.559-10.624-15.752.829-.559zm81.452-16.596l.82.573-10.899 15.564-.819-.574 10.898-15.563zm-93.195-.814l10.624 15.752-.829.56-10.625-15.753.83-.559z" transform="translate(-145 -234) translate(314 464)"/>
                </g>
                <g>
                    <path fill="#3A348F" d="M78 0L157 117 78 232 0 117z" transform="translate(-145 -234) translate(785 464)"/>
                    <path fill="#26225D" d="M115.203 169.279l10.625 15.752-.83.559-10.624-15.752.829-.56zm-73.321-.64l.819.574-10.898 15.563-.82-.573 10.899-15.564zm61.578-16.77l10.624 15.752-.829.559-10.624-15.752.829-.559zm-49.533-.432l.819.573-10.898 15.564-.82-.573 10.899-15.564zm37.79-16.978l10.624 15.752-.829.56-10.624-15.753.829-.559zm-25.745-.224l.819.573-10.898 15.564-.82-.574 10.899-15.563zm14.002-17.186l10.624 15.752-.829.56-10.624-15.752.829-.56zm-1.957-.017l.819.574-10.898 15.564-.82-.574 10.899-15.564zM90.062 99.83l.82.574-10.899 15.564-.819-.574L90.062 99.83zm-21.831-.19l10.624 15.751-.829.56-10.624-15.752.829-.56zm33.876-17.012l.82.574-10.899 15.563-.819-.573 10.898-15.564zm-45.62-.398l10.625 15.752-.829.559L55.66 82.789l.829-.56zm57.665-16.804l.82.573-10.899 15.564-.819-.573 10.898-15.564zm-69.407-.606l10.624 15.752-.829.559-10.624-15.752.829-.559zm81.452-16.596l.82.573-10.899 15.564-.819-.574 10.898-15.563zm-93.195-.814l10.624 15.752-.829.56-10.625-15.753.83-.559z" transform="translate(-145 -234) translate(785 464)"/>
                </g>
                <g>
                    <path fill="#3A348F" d="M78 0L157 117 78 232 0 117z" transform="translate(-145 -234) translate(1258 464)"/>
                    <path fill="#26225D" d="M115.203 169.279l10.625 15.752-.83.559-10.624-15.752.829-.56zm-73.321-.64l.819.574-10.898 15.563-.82-.573 10.899-15.564zm61.578-16.77l10.624 15.752-.829.559-10.624-15.752.829-.559zm-49.533-.432l.819.573-10.898 15.564-.82-.573 10.899-15.564zm37.79-16.978l10.624 15.752-.829.56-10.624-15.753.829-.559zm-25.745-.224l.819.573-10.898 15.564-.82-.574 10.899-15.563zm14.002-17.186l10.624 15.752-.829.56-10.624-15.752.829-.56zm-1.957-.017l.819.574-10.898 15.564-.82-.574 10.899-15.564zM90.062 99.83l.82.574-10.899 15.564-.819-.574L90.062 99.83zm-21.831-.19l10.624 15.751-.829.56-10.624-15.752.829-.56zm33.876-17.012l.82.574-10.899 15.563-.819-.573 10.898-15.564zm-45.62-.398l10.625 15.752-.829.559L55.66 82.789l.829-.56zm57.665-16.804l.82.573-10.899 15.564-.819-.573 10.898-15.564zm-69.407-.606l10.624 15.752-.829.559-10.624-15.752.829-.559zm81.452-16.596l.82.573-10.899 15.564-.819-.574 10.898-15.563zm-93.195-.814l10.624 15.752-.829.56-10.625-15.753.83-.559z" transform="translate(-145 -234) translate(1258 464)"/>
                </g>
                <g>
                    <path fill="#3A348F" d="M78 0L157 117 78 232 0 117z" transform="translate(-145 -234) translate(471 464)"/>
                    <path fill="#26225D" d="M115.203 169.279l10.625 15.752-.83.559-10.624-15.752.829-.56zm-73.321-.64l.819.574-10.898 15.563-.82-.573 10.899-15.564zm61.578-16.77l10.624 15.752-.829.559-10.624-15.752.829-.559zm-49.533-.432l.819.573-10.898 15.564-.82-.573 10.899-15.564zm37.79-16.978l10.624 15.752-.829.56-10.624-15.753.829-.559zm-25.745-.224l.819.573-10.898 15.564-.82-.574 10.899-15.563zm14.002-17.186l10.624 15.752-.829.56-10.624-15.752.829-.56zm-1.957-.017l.819.574-10.898 15.564-.82-.574 10.899-15.564zM90.062 99.83l.82.574-10.899 15.564-.819-.574L90.062 99.83zm-21.831-.19l10.624 15.751-.829.56-10.624-15.752.829-.56zm33.876-17.012l.82.574-10.899 15.563-.819-.573 10.898-15.564zm-45.62-.398l10.625 15.752-.829.559L55.66 82.789l.829-.56zm57.665-16.804l.82.573-10.899 15.564-.819-.573 10.898-15.564zm-69.407-.606l10.624 15.752-.829.559-10.624-15.752.829-.559zm81.452-16.596l.82.573-10.899 15.564-.819-.574 10.898-15.563zm-93.195-.814l10.624 15.752-.829.56-10.625-15.753.83-.559z" transform="translate(-145 -234) translate(471 464)"/>
                </g>
                <g>
                    <path fill="#3A348F" d="M78 0L157 117 78 232 0 117z" transform="translate(-145 -234) translate(942 464)"/>
                    <path fill="#26225D" d="M115.203 169.279l10.625 15.752-.83.559-10.624-15.752.829-.56zm-73.321-.64l.819.574-10.898 15.563-.82-.573 10.899-15.564zm61.578-16.77l10.624 15.752-.829.559-10.624-15.752.829-.559zm-49.533-.432l.819.573-10.898 15.564-.82-.573 10.899-15.564zm37.79-16.978l10.624 15.752-.829.56-10.624-15.753.829-.559zm-25.745-.224l.819.573-10.898 15.564-.82-.574 10.899-15.563zm14.002-17.186l10.624 15.752-.829.56-10.624-15.752.829-.56zm-1.957-.017l.819.574-10.898 15.564-.82-.574 10.899-15.564zM90.062 99.83l.82.574-10.899 15.564-.819-.574L90.062 99.83zm-21.831-.19l10.624 15.751-.829.56-10.624-15.752.829-.56zm33.876-17.012l.82.574-10.899 15.563-.819-.573 10.898-15.564zm-45.62-.398l10.625 15.752-.829.559L55.66 82.789l.829-.56zm57.665-16.804l.82.573-10.899 15.564-.819-.573 10.898-15.564zm-69.407-.606l10.624 15.752-.829.559-10.624-15.752.829-.559zm81.452-16.596l.82.573-10.899 15.564-.819-.574 10.898-15.563zm-93.195-.814l10.624 15.752-.829.56-10.625-15.753.83-.559z" transform="translate(-145 -234) translate(942 464)"/>
                </g>
                <g>
                    <path fill="#3A348F" d="M78 0L157 117 78 232 0 117z" transform="translate(-145 -234) translate(1415 464)"/>
                    <path fill="#26225D" d="M115.203 169.279l10.625 15.752-.83.559-10.624-15.752.829-.56zm-73.321-.64l.819.574-10.898 15.563-.82-.573 10.899-15.564zm61.578-16.77l10.624 15.752-.829.559-10.624-15.752.829-.559zm-49.533-.432l.819.573-10.898 15.564-.82-.573 10.899-15.564zm37.79-16.978l10.624 15.752-.829.56-10.624-15.753.829-.559zm-25.745-.224l.819.573-10.898 15.564-.82-.574 10.899-15.563zm14.002-17.186l10.624 15.752-.829.56-10.624-15.752.829-.56zm-1.957-.017l.819.574-10.898 15.564-.82-.574 10.899-15.564zM90.062 99.83l.82.574-10.899 15.564-.819-.574L90.062 99.83zm-21.831-.19l10.624 15.751-.829.56-10.624-15.752.829-.56zm33.876-17.012l.82.574-10.899 15.563-.819-.573 10.898-15.564zm-45.62-.398l10.625 15.752-.829.559L55.66 82.789l.829-.56zm57.665-16.804l.82.573-10.899 15.564-.819-.573 10.898-15.564zm-69.407-.606l10.624 15.752-.829.559-10.624-15.752.829-.559zm81.452-16.596l.82.573-10.899 15.564-.819-.574 10.898-15.563zm-93.195-.814l10.624 15.752-.829.56-10.625-15.753.83-.559z" transform="translate(-145 -234) translate(1415 464)"/>
                </g>
                <path fill="#3A348F" d="M78 0L157 117 78 232 0 117z" transform="translate(-145 -234) translate(1572 464)"/>
                <path fill="#3A348F" d="M78 0L157 117 78 232 0 117z" transform="translate(-145 -234) translate(0 464)"/>
                <g>
                    <path fill="#3A348F" d="M78 0L157 117 78 232 0 117z" transform="translate(-145 -234) translate(157 232)"/>
                    <path fill="#26225D" d="M115.203 169.279l10.625 15.752-.83.559-10.624-15.752.829-.56zm-73.321-.64l.819.574-10.898 15.563-.82-.573 10.899-15.564zm61.578-16.77l10.624 15.752-.829.559-10.624-15.752.829-.559zm-49.533-.432l.819.573-10.898 15.564-.82-.573 10.899-15.564zm37.79-16.978l10.624 15.752-.829.56-10.624-15.753.829-.559zm-25.745-.224l.819.573-10.898 15.564-.82-.574 10.899-15.563zm14.002-17.186l10.624 15.752-.829.56-10.624-15.752.829-.56zm-1.957-.017l.819.574-10.898 15.564-.82-.574 10.899-15.564zM90.062 99.83l.82.574-10.899 15.564-.819-.574L90.062 99.83zm-21.831-.19l10.624 15.751-.829.56-10.624-15.752.829-.56zm33.876-17.012l.82.574-10.899 15.563-.819-.573 10.898-15.564zm-45.62-.398l10.625 15.752-.829.559L55.66 82.789l.829-.56zm57.665-16.804l.82.573-10.899 15.564-.819-.573 10.898-15.564zm-69.407-.606l10.624 15.752-.829.559-10.624-15.752.829-.559zm81.452-16.596l.82.573-10.899 15.564-.819-.574 10.898-15.563zm-93.195-.814l10.624 15.752-.829.56-10.625-15.753.83-.559z" transform="translate(-145 -234) translate(157 232)"/>
                </g>
                <g>
                    <path fill="#3A348F" d="M78 0L157 117 78 232 0 117z" transform="translate(-145 -234) translate(628 232)"/>
                    <path fill="#26225D" d="M115.203 169.279l10.625 15.752-.83.559-10.624-15.752.829-.56zm-73.321-.64l.819.574-10.898 15.563-.82-.573 10.899-15.564zm61.578-16.77l10.624 15.752-.829.559-10.624-15.752.829-.559zm-49.533-.432l.819.573-10.898 15.564-.82-.573 10.899-15.564zm37.79-16.978l10.624 15.752-.829.56-10.624-15.753.829-.559zm-25.745-.224l.819.573-10.898 15.564-.82-.574 10.899-15.563zm14.002-17.186l10.624 15.752-.829.56-10.624-15.752.829-.56zm-1.957-.017l.819.574-10.898 15.564-.82-.574 10.899-15.564zM90.062 99.83l.82.574-10.899 15.564-.819-.574L90.062 99.83zm-21.831-.19l10.624 15.751-.829.56-10.624-15.752.829-.56zm33.876-17.012l.82.574-10.899 15.563-.819-.573 10.898-15.564zm-45.62-.398l10.625 15.752-.829.559L55.66 82.789l.829-.56zm57.665-16.804l.82.573-10.899 15.564-.819-.573 10.898-15.564zm-69.407-.606l10.624 15.752-.829.559-10.624-15.752.829-.559zm81.452-16.596l.82.573-10.899 15.564-.819-.574 10.898-15.563zm-93.195-.814l10.624 15.752-.829.56-10.625-15.753.83-.559z" transform="translate(-145 -234) translate(628 232)"/>
                </g>
                <g>
                    <path fill="#3A348F" d="M78 0L157 117 78 232 0 117z" transform="translate(-145 -234) translate(1101 232)"/>
                    <path fill="#26225D" d="M115.203 169.279l10.625 15.752-.83.559-10.624-15.752.829-.56zm-73.321-.64l.819.574-10.898 15.563-.82-.573 10.899-15.564zm61.578-16.77l10.624 15.752-.829.559-10.624-15.752.829-.559zm-49.533-.432l.819.573-10.898 15.564-.82-.573 10.899-15.564zm37.79-16.978l10.624 15.752-.829.56-10.624-15.753.829-.559zm-25.745-.224l.819.573-10.898 15.564-.82-.574 10.899-15.563zm14.002-17.186l10.624 15.752-.829.56-10.624-15.752.829-.56zm-1.957-.017l.819.574-10.898 15.564-.82-.574 10.899-15.564zM90.062 99.83l.82.574-10.899 15.564-.819-.574L90.062 99.83zm-21.831-.19l10.624 15.751-.829.56-10.624-15.752.829-.56zm33.876-17.012l.82.574-10.899 15.563-.819-.573 10.898-15.564zm-45.62-.398l10.625 15.752-.829.559L55.66 82.789l.829-.56zm57.665-16.804l.82.573-10.899 15.564-.819-.573 10.898-15.564zm-69.407-.606l10.624 15.752-.829.559-10.624-15.752.829-.559zm81.452-16.596l.82.573-10.899 15.564-.819-.574 10.898-15.563zm-93.195-.814l10.624 15.752-.829.56-10.625-15.753.83-.559z" transform="translate(-145 -234) translate(1101 232)"/>
                </g>
                <g>
                    <path fill="#3A348F" d="M78 0L157 117 78 232 0 117z" transform="translate(-145 -234) translate(314 232)"/>
                    <path fill="#26225D" d="M115.203 169.279l10.625 15.752-.83.559-10.624-15.752.829-.56zm-73.321-.64l.819.574-10.898 15.563-.82-.573 10.899-15.564zm61.578-16.77l10.624 15.752-.829.559-10.624-15.752.829-.559zm-49.533-.432l.819.573-10.898 15.564-.82-.573 10.899-15.564zm37.79-16.978l10.624 15.752-.829.56-10.624-15.753.829-.559zm-25.745-.224l.819.573-10.898 15.564-.82-.574 10.899-15.563zm14.002-17.186l10.624 15.752-.829.56-10.624-15.752.829-.56zm-1.957-.017l.819.574-10.898 15.564-.82-.574 10.899-15.564zM90.062 99.83l.82.574-10.899 15.564-.819-.574L90.062 99.83zm-21.831-.19l10.624 15.751-.829.56-10.624-15.752.829-.56zm33.876-17.012l.82.574-10.899 15.563-.819-.573 10.898-15.564zm-45.62-.398l10.625 15.752-.829.559L55.66 82.789l.829-.56zm57.665-16.804l.82.573-10.899 15.564-.819-.573 10.898-15.564zm-69.407-.606l10.624 15.752-.829.559-10.624-15.752.829-.559zm81.452-16.596l.82.573-10.899 15.564-.819-.574 10.898-15.563zm-93.195-.814l10.624 15.752-.829.56-10.625-15.753.83-.559z" transform="translate(-145 -234) translate(314 232)"/>
                </g>
                <g>
                    <path fill="#3A348F" d="M78 0L157 117 78 232 0 117z" transform="translate(-145 -234) translate(785 232)"/>
                    <path fill="#26225D" d="M115.203 169.279l10.625 15.752-.83.559-10.624-15.752.829-.56zm-73.321-.64l.819.574-10.898 15.563-.82-.573 10.899-15.564zm61.578-16.77l10.624 15.752-.829.559-10.624-15.752.829-.559zm-49.533-.432l.819.573-10.898 15.564-.82-.573 10.899-15.564zm37.79-16.978l10.624 15.752-.829.56-10.624-15.753.829-.559zm-25.745-.224l.819.573-10.898 15.564-.82-.574 10.899-15.563zm14.002-17.186l10.624 15.752-.829.56-10.624-15.752.829-.56zm-1.957-.017l.819.574-10.898 15.564-.82-.574 10.899-15.564zM90.062 99.83l.82.574-10.899 15.564-.819-.574L90.062 99.83zm-21.831-.19l10.624 15.751-.829.56-10.624-15.752.829-.56zm33.876-17.012l.82.574-10.899 15.563-.819-.573 10.898-15.564zm-45.62-.398l10.625 15.752-.829.559L55.66 82.789l.829-.56zm57.665-16.804l.82.573-10.899 15.564-.819-.573 10.898-15.564zm-69.407-.606l10.624 15.752-.829.559-10.624-15.752.829-.559zm81.452-16.596l.82.573-10.899 15.564-.819-.574 10.898-15.563zm-93.195-.814l10.624 15.752-.829.56-10.625-15.753.83-.559z" transform="translate(-145 -234) translate(785 232)"/>
                </g>
                <g>
                    <path fill="#3A348F" d="M78 0L157 117 78 232 0 117z" transform="translate(-145 -234) translate(1258 232)"/>
                    <path fill="#26225D" d="M115.203 169.279l10.625 15.752-.83.559-10.624-15.752.829-.56zm-73.321-.64l.819.574-10.898 15.563-.82-.573 10.899-15.564zm61.578-16.77l10.624 15.752-.829.559-10.624-15.752.829-.559zm-49.533-.432l.819.573-10.898 15.564-.82-.573 10.899-15.564zm37.79-16.978l10.624 15.752-.829.56-10.624-15.753.829-.559zm-25.745-.224l.819.573-10.898 15.564-.82-.574 10.899-15.563zm14.002-17.186l10.624 15.752-.829.56-10.624-15.752.829-.56zm-1.957-.017l.819.574-10.898 15.564-.82-.574 10.899-15.564zM90.062 99.83l.82.574-10.899 15.564-.819-.574L90.062 99.83zm-21.831-.19l10.624 15.751-.829.56-10.624-15.752.829-.56zm33.876-17.012l.82.574-10.899 15.563-.819-.573 10.898-15.564zm-45.62-.398l10.625 15.752-.829.559L55.66 82.789l.829-.56zm57.665-16.804l.82.573-10.899 15.564-.819-.573 10.898-15.564zm-69.407-.606l10.624 15.752-.829.559-10.624-15.752.829-.559zm81.452-16.596l.82.573-10.899 15.564-.819-.574 10.898-15.563zm-93.195-.814l10.624 15.752-.829.56-10.625-15.753.83-.559z" transform="translate(-145 -234) translate(1258 232)"/>
                </g>
                <g>
                    <path fill="#3A348F" d="M78 0L157 117 78 232 0 117z" transform="translate(-145 -234) translate(471 232)"/>
                    <path fill="#26225D" d="M115.203 169.279l10.625 15.752-.83.559-10.624-15.752.829-.56zm-73.321-.64l.819.574-10.898 15.563-.82-.573 10.899-15.564zm61.578-16.77l10.624 15.752-.829.559-10.624-15.752.829-.559zm-49.533-.432l.819.573-10.898 15.564-.82-.573 10.899-15.564zm37.79-16.978l10.624 15.752-.829.56-10.624-15.753.829-.559zm-25.745-.224l.819.573-10.898 15.564-.82-.574 10.899-15.563zm14.002-17.186l10.624 15.752-.829.56-10.624-15.752.829-.56zm-1.957-.017l.819.574-10.898 15.564-.82-.574 10.899-15.564zM90.062 99.83l.82.574-10.899 15.564-.819-.574L90.062 99.83zm-21.831-.19l10.624 15.751-.829.56-10.624-15.752.829-.56zm33.876-17.012l.82.574-10.899 15.563-.819-.573 10.898-15.564zm-45.62-.398l10.625 15.752-.829.559L55.66 82.789l.829-.56zm57.665-16.804l.82.573-10.899 15.564-.819-.573 10.898-15.564zm-69.407-.606l10.624 15.752-.829.559-10.624-15.752.829-.559zm81.452-16.596l.82.573-10.899 15.564-.819-.574 10.898-15.563zm-93.195-.814l10.624 15.752-.829.56-10.625-15.753.83-.559z" transform="translate(-145 -234) translate(471 232)"/>
                </g>
                <g>
                    <path fill="#3A348F" d="M78 0L157 117 78 232 0 117z" transform="translate(-145 -234) translate(942 232)"/>
                    <path fill="#26225D" d="M115.203 169.279l10.625 15.752-.83.559-10.624-15.752.829-.56zm-73.321-.64l.819.574-10.898 15.563-.82-.573 10.899-15.564zm61.578-16.77l10.624 15.752-.829.559-10.624-15.752.829-.559zm-49.533-.432l.819.573-10.898 15.564-.82-.573 10.899-15.564zm37.79-16.978l10.624 15.752-.829.56-10.624-15.753.829-.559zm-25.745-.224l.819.573-10.898 15.564-.82-.574 10.899-15.563zm14.002-17.186l10.624 15.752-.829.56-10.624-15.752.829-.56zm-1.957-.017l.819.574-10.898 15.564-.82-.574 10.899-15.564zM90.062 99.83l.82.574-10.899 15.564-.819-.574L90.062 99.83zm-21.831-.19l10.624 15.751-.829.56-10.624-15.752.829-.56zm33.876-17.012l.82.574-10.899 15.563-.819-.573 10.898-15.564zm-45.62-.398l10.625 15.752-.829.559L55.66 82.789l.829-.56zm57.665-16.804l.82.573-10.899 15.564-.819-.573 10.898-15.564zm-69.407-.606l10.624 15.752-.829.559-10.624-15.752.829-.559zm81.452-16.596l.82.573-10.899 15.564-.819-.574 10.898-15.563zm-93.195-.814l10.624 15.752-.829.56-10.625-15.753.83-.559z" transform="translate(-145 -234) translate(942 232)"/>
                </g>
                <g>
                    <path fill="#3A348F" d="M78 0L157 117 78 232 0 117z" transform="translate(-145 -234) translate(1415 232)"/>
                    <path fill="#26225D" d="M115.203 169.279l10.625 15.752-.83.559-10.624-15.752.829-.56zm-73.321-.64l.819.574-10.898 15.563-.82-.573 10.899-15.564zm61.578-16.77l10.624 15.752-.829.559-10.624-15.752.829-.559zm-49.533-.432l.819.573-10.898 15.564-.82-.573 10.899-15.564zm37.79-16.978l10.624 15.752-.829.56-10.624-15.753.829-.559zm-25.745-.224l.819.573-10.898 15.564-.82-.574 10.899-15.563zm14.002-17.186l10.624 15.752-.829.56-10.624-15.752.829-.56zm-1.957-.017l.819.574-10.898 15.564-.82-.574 10.899-15.564zM90.062 99.83l.82.574-10.899 15.564-.819-.574L90.062 99.83zm-21.831-.19l10.624 15.751-.829.56-10.624-15.752.829-.56zm33.876-17.012l.82.574-10.899 15.563-.819-.573 10.898-15.564zm-45.62-.398l10.625 15.752-.829.559L55.66 82.789l.829-.56zm57.665-16.804l.82.573-10.899 15.564-.819-.573 10.898-15.564zm-69.407-.606l10.624 15.752-.829.559-10.624-15.752.829-.559zm81.452-16.596l.82.573-10.899 15.564-.819-.574 10.898-15.563zm-93.195-.814l10.624 15.752-.829.56-10.625-15.753.83-.559z" transform="translate(-145 -234) translate(1415 232)"/>
                </g>
                <path fill="#3A348F" d="M78 0L157 117 78 232 0 117z" transform="translate(-145 -234) translate(1572 232)"/>
                <path fill="#3A348F" d="M78 0L157 117 78 232 0 117z" transform="translate(-145 -234) translate(0 232)"/>
                <path fill="#3A348F" d="M0 0H1729V928H0z" opacity=".748" transform="translate(-145 -234)"/>
            </g>
        </g>
    </g>
</svg>
