<?xml version="1.0" encoding="UTF-8"?>
<svg width="77px" height="77px" viewBox="0 0 77 77" version="1.1" xmlns="http://www.w3.org/2000/svg" xmlns:xlink="http://www.w3.org/1999/xlink">
    <!-- Generator: Sketch 64 (93537) - https://sketch.com -->
    <title>Group 2</title>
    <desc>Created with Sketch.</desc>
    <defs>
        <polygon id="path-1" points="0 0.0941698492 56.620993 0.0941698492 56.620993 57.7085427 0 57.7085427"></polygon>
        <polygon id="path-3" points="0 0.225413065 56.6209357 0.225413065 56.6209357 33.5175879 0 33.5175879"></polygon>
    </defs>
    <g id="Symbols" stroke="none" stroke-width="1" fill="none" fill-rule="evenodd">
        <g id="footer" transform="translate(-1235.000000, 40.000000)">
            <g id="Group-2" transform="translate(1235.000000, -40.000000)">
                <circle id="Oval" fill="#110F29" cx="38.5" cy="38.5" r="38.5"></circle>
                <g id="components/graphics/golf-ball" transform="translate(9.000000, 9.000000)">
                    <g id="Group-33">
                        <g id="Group-3" transform="translate(0.000000, 0.197317)">
                            <mask id="mask-2" fill="white">
                                <use xlink:href="#path-1"></use>
                            </mask>
                            <g id="Clip-2"></g>
                            <path d="M56.620993,28.9015166 C56.620993,44.8112955 43.945797,57.7085719 28.3106111,57.7085719 C12.6751387,57.7085719 -5.72864322e-05,44.8112955 -5.72864322e-05,28.9015166 C-5.72864322e-05,12.9917377 12.6751387,0.0941698492 28.3106111,0.0941698492 C43.945797,0.0941698492 56.620993,12.9917377 56.620993,28.9015166" id="Fill-1" fill="#FEFEFE" mask="url(#mask-2)"></path>
                        </g>
                        <g id="Group-6" transform="translate(0.000000, 24.388271)">
                            <mask id="mask-4" fill="white">
                                <use xlink:href="#path-3"></use>
                            </mask>
                            <g id="Clip-5"></g>
                            <path d="M56.2775035,0.225413065 C55.9647196,2.26182513 55.4339608,4.22304121 54.7233226,6.09332261 C54.8579457,6.50544322 54.9149457,6.95108141 54.8762774,7.41100101 C54.7668603,8.72022714 53.9173025,9.78171457 52.7838905,10.2145286 C52.7824583,10.2168603 52.7813126,10.2194834 52.7798804,10.2218151 C52.7658452,10.2241467 52.7526693,10.229393 52.7389206,10.2320161 C52.5653427,10.2952623 52.3854633,10.3430613 52.2007146,10.3751216 C51.0400915,10.7939457 50.1644683,11.8650513 50.0530462,13.1946794 C50.026408,13.5123678 50.0467447,13.8221869 50.1051769,14.1194734 C50.1020261,14.1232623 50.0988754,14.1267598 50.0957246,14.1305487 C50.1822271,14.4770915 50.2171719,14.8428704 50.1853779,15.2191417 C50.0332824,17.0328804 48.4653528,18.3776643 46.6828854,18.2229005 C46.4909759,18.205996 46.3059407,18.1695638 46.1260613,18.1211819 C46.1180412,18.127594 46.1111668,18.1342975 46.1031467,18.1407095 C45.8599658,18.0567698 45.6044683,17.997604 45.3372271,17.973996 C43.5547598,17.8192322 41.9862573,19.1640161 41.8344482,20.9777548 C41.8321568,21.0031116 41.8333025,21.0278854 41.8315839,21.0529508 C41.8264281,21.0561568 41.8206995,21.0584884 41.8155437,21.061403 C41.8135387,21.1089106 41.8146844,21.1558352 41.8103879,21.2039256 C41.6585789,23.0173729 40.0900764,24.3621568 38.3078955,24.207393 C37.541403,24.1409407 36.8611266,23.8063477 36.3455487,23.3041668 C35.8462975,22.8640663 35.2164332,22.5688201 34.5080864,22.5073226 C33.1226141,22.3869508 31.8700462,23.1744683 31.3077799,24.3819759 C31.3034834,24.3825588 31.2986141,24.3825588 31.2937447,24.3831417 C30.777594,25.6932422 29.466594,26.5655739 28.0126643,26.4390814 C26.7512171,26.3294935 25.7237849,25.4970915 25.2829658,24.377604 C25.2763779,24.3770211 25.2695035,24.3767296 25.2626291,24.3758553 C24.784001,23.3551719 23.8038302,22.6104985 22.615996,22.5073226 C21.6911065,22.4271719 20.8260814,22.7530211 20.1844734,23.3362271 C20.1784583,23.3344784 20.1727296,23.3321467 20.1667146,23.3301065 C19.5205236,23.9436241 18.6337296,24.2898754 17.6839206,24.207393 C16.0240462,24.0631216 14.7654633,22.6690814 14.7227849,21.013604 C14.7164834,21.0101065 14.7098955,21.007192 14.703594,21.003403 C14.5632422,19.4435236 13.3441869,18.1611116 11.7564935,18.0232523 C11.3317146,17.9862372 10.9201116,18.0369508 10.5362925,18.1561568 C10.5322824,18.1532422 10.5288452,18.1497447 10.5248352,18.1462472 C10.2003075,18.2240663 9.85916683,18.2532121 9.50914673,18.2229005 C7.72696583,18.0681367 6.40536784,16.472408 6.55746332,14.6586693 C6.56949347,14.5173126 6.59269447,14.3797447 6.62105126,14.2448 C6.61933266,14.2424683 6.61732764,14.2404281 6.61532261,14.2380965 C6.6516995,14.0815839 6.68062915,13.9218653 6.69437789,13.757192 C6.82155377,12.2401568 5.91556884,10.8813829 4.57334774,10.3856141 C4.35795075,10.3526794 4.15057387,10.2987598 3.95236281,10.225604 C3.91197588,10.219192 3.87244824,10.2101568 3.83148844,10.205202 C3.82547337,10.1947095 3.82003116,10.1839256 3.81430251,10.1737246 C2.5476995,9.63773467 1.70845327,8.31568442 1.83133266,6.85052864 C1.84937789,6.63339296 1.88919196,6.42383518 1.94590553,6.22156382 C1.21063417,4.31281005 0.663262312,2.30816683 0.343317588,0.225413065 C0.118754774,1.68736281 -0.000114572864,3.18457889 -0.000114572864,4.71064925 C-0.000114572864,20.6204281 12.6750814,33.5177045 28.3105538,33.5177045 C43.9457397,33.5177045 56.6209357,20.6204281 56.6209357,4.71064925 C56.6209357,3.18457889 56.5020663,1.68736281 56.2775035,0.225413065" id="Fill-4" fill="#D5D2C0" mask="url(#mask-4)"></path>
                        </g>
                        <path d="M28.5857578,43.2364935 C29.7816121,43.3402523 30.767798,44.0942523 31.2427025,45.1260111 C31.3996673,44.7847146 31.5042151,44.4113578 31.5374412,44.0138101 C31.6895367,42.2000714 30.3682251,40.6046342 28.5857578,40.4495789 C26.8032905,40.2948151 25.2353608,41.639599 25.0829789,43.4530462 C25.0331397,44.0499508 25.1451347,44.6217899 25.378004,45.1274683 C25.9365467,43.9106342 27.1942704,43.1155387 28.5857578,43.2364935" id="Fill-7" fill="#D5D2C0"></path>
                        <path d="M18.8779704,39.2705176 C17.1602367,39.2705176 15.7590106,40.6319146 15.6495935,42.3515126 C16.2344879,41.7636432 17.0376437,41.400196 17.9247241,41.400196 C19.713493,41.400196 21.163699,42.8755528 21.163699,44.6957035 C21.163699,44.7682764 21.1576839,44.839392 21.153101,44.910799 C21.7477342,44.3133116 22.1169452,43.4838241 22.1169452,42.566608 C22.1169452,40.7458744 20.6667392,39.2705176 18.8779704,39.2705176" id="Fill-9" fill="#D5D2C0"></path>
                        <path d="M37.3119995,39.2705176 C39.0294467,39.2705176 40.4309593,40.6319146 40.5403764,42.3515126 C39.9554819,41.7636432 39.1523261,41.400196 38.2649593,41.400196 C36.4761905,41.400196 35.0262709,42.8755528 35.0262709,44.6957035 C35.0262709,44.7682764 35.0322859,44.839392 35.0368688,44.910799 C34.4419492,44.3133116 34.0730246,43.4838241 34.0730246,42.566608 C34.0730246,40.7458744 35.5232307,39.2705176 37.3119995,39.2705176" id="Fill-11" fill="#D5D2C0"></path>
                        <path d="M11.8679442,34.2793116 C10.3684719,34.0580955 8.96323568,34.9222663 8.41156734,36.285995 C9.05546683,35.8450201 9.85375327,35.6334221 10.6824015,35.7555427 C12.4528387,36.0169799 13.6796276,37.6890704 13.4229844,39.4905678 C13.3837432,39.7657035 13.308698,40.0262663 13.2090196,40.2722563 C13.9408538,39.7712412 14.471899,38.9723568 14.6085271,38.0137538 C14.8651704,36.2125477 13.6383814,34.5404573 11.8679442,34.2793116" id="Fill-13" fill="#D5D2C0"></path>
                        <path d="M44.7276422,34.2793116 C46.2271146,34.0580955 47.6323508,34.9222663 48.1837327,36.285995 C47.5401196,35.8450201 46.7415467,35.6334221 45.9131849,35.7555427 C44.1427477,36.0169799 42.9159588,37.6890704 43.172602,39.4905678 C43.2118432,39.7657035 43.2868884,40.0262663 43.3862804,40.2722563 C42.6547327,39.7712412 42.123401,38.9723568 41.9870593,38.0137538 C41.7301296,36.2125477 42.957205,34.5404573 44.7276422,34.2793116" id="Fill-15" fill="#D5D2C0"></path>
                        <path d="M6.43077437,27.5894633 C5.36610603,27.5894633 4.42460352,28.1143779 3.83426683,28.9211317 C4.30659347,28.6471618 4.8519603,28.4883176 5.43484975,28.4883176 C7.22390503,28.4883176 8.67382462,29.9636744 8.67382462,31.7841166 C8.67382462,32.5209206 8.43322161,33.1991417 8.03164372,33.7479558 C9.00923668,33.1807799 9.66974925,32.1125889 9.66974925,30.8852623 C9.66974925,29.0648201 8.21954322,27.5894633 6.43077437,27.5894633" id="Fill-17" fill="#D5D2C0"></path>
                        <path d="M5.17259246,19.5077899 C4.10792412,19.5077899 3.16642161,20.0327045 2.57608492,20.8394583 C3.04841156,20.5654884 3.59377839,20.4066442 4.17666784,20.4066442 C5.96572312,20.4066442 7.41564271,21.882001 7.41564271,23.7024432 C7.41564271,24.4392472 7.1750397,25.1174683 6.77346181,25.6662824 C7.75105477,25.0991065 8.41156734,24.0309156 8.41156734,22.8035889 C8.41156734,20.9831467 6.96164774,19.5077899 5.17259246,19.5077899" id="Fill-19" fill="#D5D2C0"></path>
                        <path d="M50.8263558,27.5894633 C51.8910241,27.5894633 52.8325266,28.1143779 53.4228633,28.9211317 C52.9505367,28.6471618 52.4051698,28.4883176 51.8222804,28.4883176 C50.0332251,28.4883176 48.5833055,29.9636744 48.5833055,31.7841166 C48.5833055,32.5209206 48.8239085,33.1991417 49.2254864,33.7479558 C48.2478935,33.1807799 47.5873809,32.1125889 47.5873809,30.8852623 C47.5873809,29.0648201 49.0375869,27.5894633 50.8263558,27.5894633" id="Fill-21" fill="#D5D2C0"></path>
                        <path d="M27.8793302,34.220408 C29.2338678,34.220408 30.4142548,34.8855136 31.0464106,35.8715136 C31.0925261,35.6511719 31.1185915,35.4235437 31.1185915,35.1892121 C31.1185915,33.3690613 29.668099,31.8934131 27.8793302,31.8934131 C26.0905613,31.8934131 24.6403553,33.3690613 24.6403553,35.1892121 C24.6403553,35.4235437 24.6661342,35.6511719 24.7125362,35.8715136 C25.344692,34.8855136 26.5247925,34.220408 27.8793302,34.220408" id="Fill-23" fill="#D5D2C0"></path>
                        <path d="M18.7727925,32.7662402 C19.9795312,33.3925819 20.7334206,34.5310141 20.8563,35.7012151 C20.9957925,35.5269236 21.1206769,35.3357276 21.2252246,35.1273357 C22.0381191,33.5056673 21.4053905,31.5208432 19.8119683,30.6936874 C18.2185462,29.8662402 16.2679432,30.5100693 15.4550487,32.1314462 C15.3502146,32.3401296 15.2714457,32.5549337 15.2144457,32.7723608 C16.218104,32.1868231 17.5660538,32.1398985 18.7727925,32.7662402" id="Fill-25" fill="#D5D2C0"></path>
                        <path d="M50.8263558,19.5077899 C51.8910241,19.5077899 52.8325266,20.0327045 53.4228633,20.8394583 C52.9505367,20.5654884 52.4051698,20.4066442 51.8222804,20.4066442 C50.0332251,20.4066442 48.5833055,21.882001 48.5833055,23.7024432 C48.5833055,24.4392472 48.8239085,25.1174683 49.2254864,25.6662824 C48.2478935,25.0991065 47.5873809,24.0309156 47.5873809,22.8035889 C47.5873809,20.9831467 49.0375869,19.5077899 50.8263558,19.5077899" id="Fill-27" fill="#D5D2C0"></path>
                        <path d="M37.0017935,32.7662402 C35.7950548,33.3925819 35.0411653,34.5310141 34.9182859,35.7012151 C34.778507,35.5269236 34.6541955,35.3357276 34.5490749,35.1273357 C33.7364668,33.5056673 34.3691955,31.5208432 35.9626176,30.6936874 C37.5560397,29.8662402 39.5066427,30.5100693 40.3198236,32.1314462 C40.4243714,32.3401296 40.5034266,32.5549337 40.5601402,32.7723608 C39.5567683,32.1868231 38.2085322,32.1398985 37.0017935,32.7662402" id="Fill-29" fill="#D5D2C0"></path>
                        <path d="M27.9782065,25.676192 C29.3330307,25.676192 30.5128447,26.3412975 31.1450005,27.3272975 C31.1914025,27.1072472 31.2171814,26.8793276 31.2171814,26.644996 C31.2171814,24.8248452 29.7672618,23.3494884 27.9782065,23.3494884 C26.1894377,23.3494884 24.7392317,24.8248452 24.7392317,26.644996 C24.7392317,26.8793276 24.7650106,27.1072472 24.8114126,27.3272975 C25.4435683,26.3412975 26.6236688,25.676192 27.9782065,25.676192" id="Fill-31" fill="#D5D2C0"></path>
                    </g>
                </g>
            </g>
        </g>
    </g>
</svg>