<svg xmlns="http://www.w3.org/2000/svg" xmlns:xlink="http://www.w3.org/1999/xlink" width="57" height="58" viewBox="0 0 57 58">
    <defs>
        <path id="prefix__a" d="M0 0.094L56.621 0.094 56.621 57.709 0 57.709z"/>
        <path id="prefix__c" d="M0 0.225L56.621 0.225 56.621 33.518 0 33.518z"/>
    </defs>
    <g fill="none" fill-rule="evenodd">
        <g transform="translate(0 .197)">
            <mask id="prefix__b" fill="#fff">
                <use xlink:href="#prefix__a"/>
            </mask>
            <path fill="#FEFEFE" d="M56.621 28.902c0 15.91-12.675 28.807-28.31 28.807C12.675 57.709 0 44.81 0 28.902 0 12.992 12.675.094 28.31.094c15.636 0 28.311 12.898 28.311 28.808" mask="url(#prefix__b)"/>
        </g>
        <g transform="translate(0 24.388)">
            <mask id="prefix__d" fill="#fff">
                <use xlink:href="#prefix__c"/>
            </mask>
            <path fill="#D5D2C0" d="M56.278.225c-.313 2.037-.844 3.998-1.555 5.868.135.412.192.858.153 1.318-.11 1.31-.959 2.37-2.092 2.804l-.004.007c-.014.002-.027.007-.041.01-.174.063-.354.111-.538.143-1.16.419-2.037 1.49-2.148 2.82-.027.317-.006.627.052.924l-.01.012c.087.346.122.712.09 1.088-.152 1.814-1.72 3.159-3.502 3.004-.192-.017-.377-.053-.557-.102l-.023.02c-.243-.084-.499-.143-.766-.167-1.782-.155-3.35 1.19-3.503 3.004-.002.025 0 .05-.002.075l-.016.008c-.002.048-.001.095-.006.143-.151 1.813-1.72 3.158-3.502 3.003-.767-.066-1.447-.4-1.962-.903-.5-.44-1.13-.735-1.838-.797-1.385-.12-2.638.667-3.2 1.875l-.014.001c-.516 1.31-1.827 2.183-3.281 2.056-1.262-.11-2.29-.942-2.73-2.061l-.02-.002c-.479-1.02-1.46-1.766-2.647-1.869-.925-.08-1.79.246-2.432.83l-.017-.007c-.646.614-1.533.96-2.483.877-1.66-.144-2.919-1.538-2.961-3.193l-.02-.01c-.14-1.56-1.359-2.843-2.947-2.98-.424-.038-.836.013-1.22.132l-.011-.01c-.325.078-.666.107-1.016.077-1.782-.155-3.104-1.75-2.952-3.564.012-.142.036-.28.064-.414l-.006-.007c.037-.156.066-.316.08-.48.127-1.518-.78-2.877-2.122-3.372-.215-.033-.422-.087-.62-.16-.041-.007-.08-.016-.122-.02l-.017-.032C2.548 9.638 1.708 8.316 1.831 6.85c.018-.218.058-.427.115-.63C1.21 4.314.663 2.309.343.226.12 1.687 0 3.185 0 4.711c0 15.91 12.675 28.807 28.31 28.807 15.636 0 28.31-12.898 28.31-28.807 0-1.526-.118-3.024-.342-4.486" mask="url(#prefix__d)"/>
        </g>
        <path fill="#D5D2C0" d="M28.586 43.236c1.196.104 2.182.858 2.657 1.89.157-.341.261-.715.294-1.112.153-1.814-1.169-3.41-2.951-3.564-1.783-.155-3.35 1.19-3.503 3.003-.05.597.062 1.169.295 1.674.559-1.216 1.816-2.011 3.208-1.89M18.878 39.27c-1.718 0-3.119 1.362-3.228 3.082.584-.588 1.388-.952 2.275-.952 1.788 0 3.239 1.476 3.239 3.296 0 .072-.006.143-.01.215.594-.598.963-1.427.963-2.344 0-1.821-1.45-3.296-3.239-3.296M37.312 39.27c1.717 0 3.119 1.362 3.228 3.082-.585-.588-1.388-.952-2.275-.952-1.789 0-3.239 1.476-3.239 3.296 0 .072.006.143.01.215-.594-.598-.963-1.427-.963-2.344 0-1.821 1.45-3.296 3.239-3.296M11.868 34.28c-1.5-.222-2.905.642-3.456 2.006.643-.441 1.442-.653 2.27-.53 1.77.261 2.998 1.933 2.741 3.735-.04.275-.114.535-.214.781.732-.5 1.263-1.3 1.4-2.258.256-1.801-.97-3.474-2.741-3.735M44.728 34.28c1.5-.222 2.904.642 3.456 2.006-.644-.441-1.442-.653-2.27-.53-1.771.261-2.998 1.933-2.741 3.735.039.275.114.535.213.781-.731-.5-1.263-1.3-1.399-2.258-.257-1.801.97-3.474 2.74-3.735M6.43 27.59c-1.064 0-2.005.524-2.596 1.331.473-.274 1.018-.433 1.6-.433 1.79 0 3.24 1.476 3.24 3.296 0 .737-.24 1.415-.642 1.964.977-.567 1.638-1.635 1.638-2.863 0-1.82-1.45-3.296-3.24-3.296M5.173 19.508c-1.065 0-2.007.525-2.597 1.331.472-.274 1.018-.432 1.6-.432 1.79 0 3.24 1.475 3.24 3.295 0 .737-.241 1.415-.643 1.964.978-.567 1.639-1.635 1.639-2.862 0-1.82-1.45-3.296-3.24-3.296M50.826 27.59c1.065 0 2.007.524 2.597 1.331-.472-.274-1.018-.433-1.6-.433-1.79 0-3.24 1.476-3.24 3.296 0 .737.24 1.415.642 1.964-.977-.567-1.638-1.635-1.638-2.863 0-1.82 1.45-3.296 3.24-3.296M27.88 34.22c1.354 0 2.534.666 3.166 1.652.047-.22.073-.448.073-.683 0-1.82-1.45-3.296-3.24-3.296-1.788 0-3.239 1.476-3.239 3.296 0 .235.026.462.073.683.632-.986 1.812-1.652 3.166-1.652M18.773 32.766c1.207.627 1.96 1.765 2.083 2.935.14-.174.265-.365.37-.574.812-1.621.18-3.606-1.414-4.433-1.593-.828-3.544-.184-4.357 1.437-.105.21-.184.424-.24.641 1.003-.585 2.351-.632 3.558-.006M50.826 19.508c1.065 0 2.007.525 2.597 1.331-.472-.274-1.018-.432-1.6-.432-1.79 0-3.24 1.475-3.24 3.295 0 .737.24 1.415.642 1.964-.977-.567-1.638-1.635-1.638-2.862 0-1.82 1.45-3.296 3.24-3.296M37.002 32.766c-1.207.627-1.96 1.765-2.084 2.935-.14-.174-.264-.365-.369-.574-.813-1.621-.18-3.606 1.414-4.433 1.593-.828 3.544-.184 4.357 1.437.104.21.183.424.24.641-1.003-.585-2.351-.632-3.558-.006M27.978 25.676c1.355 0 2.535.665 3.167 1.651.046-.22.072-.448.072-.682 0-1.82-1.45-3.296-3.239-3.296s-3.239 1.476-3.239 3.296c0 .234.026.462.072.682.633-.986 1.813-1.65 3.167-1.65"/>
    </g>
</svg>
