<?xml version="1.0" encoding="UTF-8"?>
<svg width="157px" height="232px" viewBox="0 0 157 232" version="1.1" xmlns="http://www.w3.org/2000/svg" xmlns:xlink="http://www.w3.org/1999/xlink">
    <!-- Generator: Sketch 64 (93537) - https://sketch.com -->
    <title>diamondWhite</title>
    <desc>Created with Sketch.</desc>
    <g id="homepage-update" stroke="none" stroke-width="1" fill="none" fill-rule="evenodd">
        <g id="diamondWhite">
            <rect id="Rectangle-Copy-17" fill="#E7E6FF" x="0" y="0" width="157" height="232"></rect>
            <g id="components/graphics/diamond-white">
                <polygon id="Rectangle" fill="#FFFFFF" points="78 0 157 117 78 232 2.84217094e-13 117"></polygon>
                <path d="M115.202865,169.278808 L125.82753,185.030522 L124.998492,185.589715 L114.373827,169.838001 L115.202865,169.278808 Z M41.8815321,168.638943 L42.7006841,169.212519 L31.8027318,184.776408 L30.9835798,184.202831 L41.8815321,168.638943 Z M103.459814,151.869019 L114.084479,167.620733 L113.255441,168.179926 L102.630776,152.428212 L103.459814,151.869019 Z M53.9266372,151.43675 L54.7457893,152.010326 L43.847837,167.574215 L43.0286849,167.000639 L53.9266372,151.43675 Z M91.7167627,134.45923 L102.341428,150.210944 L101.51239,150.770137 L90.8877251,135.018423 L91.7167627,134.45923 Z M65.9717424,134.234557 L66.7908944,134.808133 L55.8929421,150.372022 L55.0737901,149.798446 L65.9717424,134.234557 Z M79.9737117,117.049441 L90.5983769,132.801155 L89.7693393,133.360348 L79.1446741,117.608634 L79.9737117,117.049441 Z M78.0168475,117.032364 L78.8359996,117.60594 L67.9380473,133.169829 L67.1188953,132.596253 L78.0168475,117.032364 Z M90.0619527,99.8301709 L90.8811047,100.403747 L79.9831525,115.967636 L79.1640004,115.39406 L90.0619527,99.8301709 Z M68.2306607,99.6396521 L78.8553259,115.391366 L78.0262883,115.950559 L67.4016231,100.198845 L68.2306607,99.6396521 Z M102.107058,82.627978 L102.92621,83.2015544 L92.0282576,98.7654432 L91.2091056,98.1918668 L102.107058,82.627978 Z M56.4876097,82.2298631 L67.1122749,97.981577 L66.2832373,98.5407699 L55.6585722,82.789056 L56.4876097,82.2298631 Z M114.152163,65.425785 L114.971315,65.9993615 L104.073363,81.5632503 L103.254211,80.9896739 L114.152163,65.425785 Z M44.7445588,64.820074 L55.3692239,80.5717879 L54.5401864,81.1309808 L43.9155212,65.379267 L44.7445588,64.820074 Z M126.197268,48.2235921 L127.01642,48.7971685 L116.118468,64.3610574 L115.299316,63.7874809 L126.197268,48.2235921 Z M33.0015078,47.410285 L43.626173,63.1619989 L42.7971354,63.7211918 L32.1724702,47.9694779 L33.0015078,47.410285 Z" id="Shape" fill="#E7E6FF"></path>
            </g>
            <rect id="Rectangle-Copy-17" fill="#F3F2FF" opacity="0.5" x="0" y="0" width="157" height="232"></rect>
        </g>
    </g>
</svg>