<svg xmlns="http://www.w3.org/2000/svg" width="17" height="14" viewBox="0 0 17 14">
    <path fill="#FFF" fill-rule="evenodd" d="M12.256 7.378c-.437 0-.79.34-.79.757 0 .418.353.757.79.757.436 0 .79-.339.79-.757s-.354-.757-.79-.757zm-1.582 2.27h5.14V6.623h-5.14v3.027zM1.186 3.306c.186.064.386.1.593.1h13.64c.229 0 .395.16.395.379v1.702h-5.14c-.646 0-1.186.517-1.186 1.136v3.027c0 .619.54 1.135 1.186 1.135h5.14v1.702c0 .22-.166.379-.395.379H1.58c-.229 0-.395-.16-.395-.379V3.305zm.593-2.17h11.663V2.27H1.779c-.339 0-.593-.243-.593-.567 0-.325.254-.568.593-.568zM1.78 0C.804 0 0 .77 0 1.703v10.783C0 13.316.716 14 1.581 14H15.42c.865 0 1.581-.685 1.581-1.514V3.784c0-.829-.716-1.514-1.581-1.514h-.791V.568c0-.298-.283-.568-.593-.568H1.779z"/>
</svg>
