<svg id="Layer_1" data-name="Layer 1" xmlns="http://www.w3.org/2000/svg" xmlns:xlink="http://www.w3.org/1999/xlink" width="191" height="39" viewBox="0 0 191 39"><defs><style>.cls-1{fill:#fff;}.cls-1,.cls-3,.cls-4,.cls-5{fill-rule:evenodd;}.cls-2{mask:url(#mask);}.cls-3{fill:#e6e6e6;}.cls-4{fill:#322c8f;}.cls-5{fill:#0ac47e;}.cls-6{mask:url(#mask-2-2);}</style><mask id="mask" x="0.5122" y="0.2594" width="35.6483" height="38.6117" maskUnits="userSpaceOnUse"><g id="mask-2"><polygon id="path-1" class="cls-1" points="0.512 0.259 36.16 0.259 36.16 38.871 0.512 38.871 0.512 0.259"/></g></mask><mask id="mask-2-2" x="0.5121" y="0.2593" width="190.1504" height="38.6117" maskUnits="userSpaceOnUse"><g id="mask-4"><polygon id="path-3" class="cls-1" points="0.512 38.871 190.662 38.871 190.662 0.259 0.512 0.259 0.512 38.871"/></g></mask></defs><g id="Symbols"><g id="Nav_Home_Logged-In_Marketplace" data-name="Nav/Home/Logged-In/Marketplace"><g id="Group"><g id="Group-19"><g id="Group-3"><g class="cls-2"><path id="Fill-1" class="cls-3" d="M28.943,35.5837a11.6439,11.6439,0,0,1-8.4556,3.2874H.5122V4.9628L5.2159.2594H27.5918V11.8281a11.1065,11.1065,0,0,1,5.2848,2.9194,11.6413,11.6413,0,0,1,3.2839,8.4518,11.64,11.64,0,0,1-3.2839,8.4513Z"/></g></g><path id="Fill-4" class="cls-4" d="M31.95,30.725a10.36,10.36,0,0,0,2.9007-7.5258A10.36,10.36,0,0,0,31.95,15.6734a9.9157,9.9157,0,0,0-5.6679-2.7671V1.5687H5.7579L1.8214,5.5049V37.5618H20.4875a10.361,10.361,0,0,0,7.5263-2.9005Z"/><path id="Fill-6" class="cls-5" d="M24.4241,26.1651H15.5258a2.8021,2.8021,0,0,1-2.966-2.9658,2.8021,2.8021,0,0,1,2.966-2.9659h8.8983A2.8021,2.8021,0,0,1,27.39,23.1993a2.8022,2.8022,0,0,1-2.9661,2.9658ZM12.56,10.9715A2.6017,2.6017,0,0,1,15.1616,8.37h1.7175a2.6016,2.6016,0,0,1,2.6016,2.6016v1.7174A2.6015,2.6015,0,0,1,16.8791,15.29H15.1616A2.6017,2.6017,0,0,1,12.56,12.6889Zm11.8643,3.66V3.4268H7.6165v28.34H24.4241c5.1412,0,8.5687-3.4273,8.5687-8.5678s-3.4275-8.5682-8.5687-8.5682Z"/><path id="Fill-8" class="cls-1" d="M57.9926,26.6552H53.4464V21.6005h4.5462c1.8321,0,2.7821.8821,2.7821,2.5105,0,1.764-.8484,2.5442-2.7821,2.5442Zm-4.5462-13.773H57.45c1.5946,0,2.4428.7124,2.4428,2.1033,0,1.4249-.8482,2.1711-2.4428,2.1711H53.4464Zm9.8386,5.9366V18.751a5.0726,5.0726,0,0,0,2.4087-4.444c0-3.7656-3.0531-6.4115-7.328-6.4115H47.7131V31.6421h9.5331c6.2423,0,9.2957-2.4088,9.2957-7.3617a5.9243,5.9243,0,0,0-3.2569-5.4616Z"/><g class="cls-6"><polygon id="Fill-10" class="cls-1" points="68.561 31.642 74.226 31.642 74.226 6.878 68.561 6.878 68.561 31.642"/></g><g class="cls-6"><path id="Fill-12" class="cls-1" d="M85.2323,27.13c-2.2733,0-3.5623-1.6623-3.5623-4.4441,0-2.8494,1.289-4.5117,3.5623-4.5117s3.5622,1.6623,3.5622,4.5117c0,2.7818-1.29,4.4441-3.5622,4.4441m-.0338-14.0782c-5.3944,0-9.1942,3.9012-9.1942,9.6341,0,5.6655,3.8,9.5667,9.1942,9.5667,5.4281,0,9.2615-3.9012,9.2615-9.5667,0-5.7329-3.8334-9.6341-9.2615-9.6341"/></g><g class="cls-6"><path id="Fill-13" class="cls-1" d="M104.3906,18.1743a2.99,2.99,0,0,1,3.1213,2.7818l5.2924-.9838a8.0693,8.0693,0,0,0-8.4137-6.9205c-5.2246,0-9.0242,3.9013-9.0242,9.6005s3.8,9.6,9.0242,9.6a8.0693,8.0693,0,0,0,8.4137-6.92l-5.2924-.9838a2.9894,2.9894,0,0,1-3.1213,2.7816c-2.0693,0-3.3587-1.662-3.3587-4.4777s1.2894-4.478,3.3587-4.478"/></g><g class="cls-6"><polygon id="Fill-14" class="cls-1" points="125.412 13.662 120.187 20.04 120.119 20.04 120.119 6.878 114.454 6.878 114.454 31.642 120.119 31.642 120.119 27.232 122.256 24.756 122.324 24.756 125.954 31.642 132.468 31.642 126.022 20.888 132.57 13.662 125.412 13.662"/></g><g class="cls-6"><polygon id="Fill-15" class="cls-1" points="133.626 31.642 139.291 31.642 139.291 6.878 133.626 6.878 133.626 31.642"/></g><g class="cls-6"><path id="Fill-16" class="cls-1" d="M146.7586,20.549a3.1939,3.1939,0,0,1,3.3585-3.0532A3.0886,3.0886,0,0,1,153.51,20.549Zm3.2227-7.4973c-5.1906,0-8.8546,3.9693-8.8546,9.6343,0,5.8011,3.664,9.5666,9.16,9.5666a9.64,9.64,0,0,0,7.8371-3.7655L154.46,25.23a5.1225,5.1225,0,0,1-4.1729,2.4426,3.2589,3.2589,0,0,1-3.5622-3.4263H158.87V22.6523c0-5.7331-3.63-9.6006-8.8888-9.6006Z"/></g><g class="cls-6"><path id="Fill-17" class="cls-1" d="M167.9554,9.0149H162.29c0,2.915-.87,4.6476-3.1891,4.6476v4.6814H162.29V25.4c0,4.24,1.9675,6.2419,6.65,6.2419h2.7138V26.3838h-2.0016c-1.2553,0-1.6964-.4071-1.6964-1.5265V18.3439h4.3765V13.6625h-4.3765Z"/></g><g class="cls-6"><path id="Fill-18" class="cls-1" d="M178.551,20.549a3.1939,3.1939,0,0,1,3.3585-3.0532,3.0886,3.0886,0,0,1,3.3925,3.0532Zm12.1116,2.1033c0-5.7331-3.63-9.6006-8.8889-9.6006-5.1906,0-8.8546,3.9693-8.8546,9.6343,0,5.8011,3.664,9.5666,9.16,9.5666a9.6406,9.6406,0,0,0,7.8371-3.7655L186.2519,25.23a5.1224,5.1224,0,0,1-4.1728,2.4426,3.259,3.259,0,0,1-3.5623-3.4263h12.1458Z"/></g></g></g></g></g></svg>